%FSLAX25Y25*%
%MOIN*%
G70*
G01*
G75*
G04 Layer_Color=6049101*
%ADD10P,0.08352X4X369.0*%
%ADD11P,0.08352X4X81.0*%
%ADD12P,0.08352X4X153.0*%
%ADD13R,0.05906X0.05906*%
%ADD14P,0.08352X4X117.0*%
%ADD15R,0.05906X0.05906*%
%ADD16C,0.05000*%
%ADD17C,0.02500*%
%ADD18C,0.16500*%
%ADD19C,0.04000*%
%ADD20R,0.05000X0.08000*%
%ADD21R,0.12205X0.17716*%
%ADD22C,0.01000*%
%ADD23C,0.01200*%
%ADD24C,0.01500*%
%ADD25P,0.06937X4X369.0*%
%ADD26P,0.06937X4X81.0*%
%ADD27P,0.06937X4X153.0*%
%ADD28R,0.04906X0.04906*%
%ADD29P,0.06937X4X117.0*%
%ADD30R,0.04906X0.04906*%
%ADD31R,0.04000X0.07000*%
%ADD32R,0.11205X0.16716*%
D31*
X1200500Y884500D02*
D03*
X1189500D02*
D03*
X1014500Y866000D02*
D03*
X1025500D02*
D03*
D32*
X1043748Y883894D02*
D03*
X1028000D02*
D03*
X1012252D02*
D03*
X1043748Y908500D02*
D03*
X1028000D02*
D03*
X1012252D02*
D03*
X996504Y883894D02*
D03*
Y908500D02*
D03*
X1171252Y866500D02*
D03*
X1187000D02*
D03*
X1202748Y866500D02*
D03*
X1171252Y841894D02*
D03*
X1187000D02*
D03*
X1202748D02*
D03*
X1218496Y866500D02*
D03*
Y841894D02*
D03*
M02*
