%FSLAX25Y25*%
%MOIN*%
G70*
G01*
G75*
G04 Layer_Color=65535*
%ADD10P,0.08352X4X369.0*%
%ADD11P,0.08352X4X81.0*%
%ADD12P,0.08352X4X153.0*%
%ADD13R,0.05906X0.05906*%
%ADD14P,0.08352X4X117.0*%
%ADD15R,0.05906X0.05906*%
%ADD16C,0.05000*%
%ADD17C,0.02500*%
%ADD18C,0.16500*%
%ADD19C,0.04000*%
%ADD20R,0.05000X0.08000*%
%ADD21R,0.12205X0.17716*%
%ADD22C,0.01000*%
%ADD23C,0.01200*%
D22*
X1283000Y825000D02*
G03*
X1283000Y925000I0J50000D01*
G01*
X933000D02*
G03*
X933000Y825000I0J-50000D01*
G01*
X1207000Y906000D02*
G03*
X1207000Y906000I-12000J0D01*
G01*
X1032000Y844000D02*
G03*
X1032000Y844000I-12000J0D01*
G01*
X958800Y884952D02*
G03*
X958800Y884952I-984J0D01*
G01*
X932057Y902308D02*
G03*
X932057Y902308I-984J0D01*
G01*
X906911Y881974D02*
G03*
X906911Y881974I-984J0D01*
G01*
X918721Y851874D02*
G03*
X918721Y851874I-984J0D01*
G01*
Y882874D02*
G03*
X918721Y882874I-984J0D01*
G01*
X975035Y877108D02*
G03*
X975035Y877108I-984J0D01*
G01*
X1076058Y849026D02*
G03*
X1076058Y849026I-984J0D01*
G01*
X1073912Y897692D02*
G03*
X1073912Y897692I-984J0D01*
G01*
X1119668Y915048D02*
G03*
X1119668Y915048I-984J0D01*
G01*
X1150035Y877108D02*
G03*
X1150035Y877108I-984J0D01*
G01*
X1123248Y867126D02*
G03*
X1123248Y867126I-984J0D01*
G01*
Y835626D02*
G03*
X1123248Y835626I-984J0D01*
G01*
X1294168Y915548D02*
G03*
X1294168Y915548I-984J0D01*
G01*
X1324535Y877608D02*
G03*
X1324535Y877608I-984J0D01*
G01*
X1298248Y836126D02*
G03*
X1298248Y836126I-984J0D01*
G01*
X1251558Y849526D02*
G03*
X1251558Y849526I-984J0D01*
G01*
X1248912Y898192D02*
G03*
X1248912Y898192I-984J0D01*
G01*
X1291358Y890264D02*
G03*
X1291358Y890264I-984J0D01*
G01*
X933000Y825000D02*
X1283000D01*
X933000Y925000D02*
X1283000D01*
X946307Y890880D02*
X957306Y892622D01*
X951508Y911434D02*
X961063Y904492D01*
X939937Y895508D02*
X949492Y888566D01*
X941380Y904193D02*
X943694Y907378D01*
X957306Y892622D02*
X959620Y895807D01*
X921878Y893194D02*
X923620Y904193D01*
X903937Y904492D02*
X913492Y911434D01*
X915508Y888566D02*
X925063Y895508D01*
X905380Y895807D02*
X907694Y892622D01*
X921306Y907378D02*
X923620Y904193D01*
X901831Y875469D02*
X911753Y870414D01*
X891814Y868075D02*
X895464Y856842D01*
X910536Y874158D02*
X914186Y862925D01*
X904169Y855531D02*
X907914Y856748D01*
X898086Y874253D02*
X901831Y875469D01*
X922657Y845969D02*
X930532Y853843D01*
X926595Y834157D02*
X938406D01*
X926595Y853843D02*
X938406D01*
X942342Y842031D02*
Y845969D01*
X922657Y842031D02*
Y845969D01*
Y876968D02*
X930532Y884842D01*
X926595Y865158D02*
X938406D01*
X926595Y884842D02*
X938406D01*
X942342Y873032D02*
Y876968D01*
X922657Y873032D02*
Y876968D01*
X966914Y874253D02*
X971969Y864331D01*
X950814Y862925D02*
X954464Y874158D01*
X969536Y856842D02*
X973186Y868075D01*
X957086Y856748D02*
X960831Y855531D01*
X963169Y875469D02*
X966914Y874253D01*
X1069248Y860586D02*
X1079169Y855531D01*
X1085536Y874158D02*
X1089186Y862925D01*
X1066814Y868075D02*
X1070464Y856842D01*
X1073086Y874253D02*
X1076831Y875469D01*
X1079169Y855531D02*
X1082914Y856748D01*
X1080380Y895807D02*
X1082122Y906806D01*
X1090508Y888566D02*
X1100063Y895508D01*
X1078937Y904492D02*
X1088492Y911434D01*
X1096306Y907378D02*
X1098620Y904193D01*
X1080380Y895807D02*
X1082694Y892622D01*
X1119194Y907378D02*
X1130193Y909120D01*
X1115437Y895508D02*
X1124992Y888566D01*
X1127008Y911434D02*
X1136563Y904492D01*
X1132806Y892622D02*
X1135120Y895807D01*
X1116880Y904193D02*
X1119194Y907378D01*
X1141914Y874253D02*
X1146969Y864331D01*
X1125814Y862925D02*
X1129464Y874158D01*
X1144536Y856842D02*
X1148186Y868075D01*
X1132086Y856748D02*
X1135831Y855531D01*
X1138169Y875469D02*
X1141914Y874253D01*
X1109468Y865158D02*
X1117342Y873032D01*
X1101595Y884842D02*
X1113406D01*
X1101595Y865158D02*
X1113406D01*
X1097657Y873032D02*
Y876968D01*
X1117342Y873032D02*
Y876968D01*
X1109468Y833657D02*
X1117342Y841531D01*
X1101595Y853343D02*
X1113406D01*
X1101595Y833657D02*
X1113406D01*
X1097657Y841531D02*
Y845469D01*
X1117342Y841531D02*
Y845469D01*
X1293694Y907878D02*
X1304693Y909620D01*
X1289937Y896008D02*
X1299492Y889066D01*
X1301508Y911934D02*
X1311063Y904992D01*
X1307306Y893122D02*
X1309620Y896307D01*
X1291380Y904693D02*
X1293694Y907878D01*
X1316414Y874753D02*
X1321469Y864831D01*
X1300314Y863425D02*
X1303964Y874658D01*
X1319036Y857342D02*
X1322686Y868575D01*
X1306586Y857248D02*
X1310331Y856031D01*
X1312669Y875969D02*
X1316414Y874753D01*
X1284468Y834157D02*
X1292342Y842031D01*
X1276595Y853843D02*
X1288406D01*
X1276595Y834157D02*
X1288406D01*
X1272657Y842031D02*
Y845969D01*
X1292342Y842031D02*
Y845969D01*
X1244748Y861086D02*
X1254669Y856031D01*
X1261036Y874658D02*
X1264686Y863425D01*
X1242314Y868575D02*
X1245964Y857342D01*
X1248586Y874753D02*
X1252331Y875969D01*
X1254669Y856031D02*
X1258414Y857248D01*
X1255380Y896307D02*
X1257122Y907306D01*
X1265508Y889066D02*
X1275063Y896008D01*
X1253937Y904992D02*
X1263492Y911934D01*
X1271306Y907878D02*
X1273620Y904693D01*
X1255380Y896307D02*
X1257694Y893122D01*
X1284468Y885343D02*
X1292342Y877468D01*
X1272657Y869594D02*
Y881406D01*
X1292342Y869594D02*
Y881406D01*
X1280532Y865658D02*
X1284468D01*
X1280532Y885343D02*
X1284468D01*
X1265002Y871500D02*
X1270000D01*
Y873999D01*
X1269167Y874832D01*
X1265835D01*
X1265002Y873999D01*
Y871500D01*
X1270000Y876498D02*
Y878164D01*
Y877331D01*
X1265002D01*
X1265835Y876498D01*
Y880664D02*
X1265002Y881497D01*
Y883163D01*
X1265835Y883996D01*
X1266668D01*
X1267501Y883163D01*
X1268334Y883996D01*
X1269167D01*
X1270000Y883163D01*
Y881497D01*
X1269167Y880664D01*
X1268334D01*
X1267501Y881497D01*
X1266668Y880664D01*
X1265835D01*
X1267501Y881497D02*
Y883163D01*
X1242000Y913998D02*
Y909000D01*
X1244499D01*
X1245332Y909833D01*
Y913165D01*
X1244499Y913998D01*
X1242000D01*
X1246998Y909000D02*
X1248664D01*
X1247831D01*
Y913998D01*
X1246998Y913165D01*
X1251164Y913998D02*
X1254496D01*
Y913165D01*
X1251164Y909833D01*
Y909000D01*
X1232500Y885498D02*
Y880500D01*
X1234999D01*
X1235832Y881333D01*
Y884665D01*
X1234999Y885498D01*
X1232500D01*
X1237498Y880500D02*
X1239165D01*
X1238331D01*
Y885498D01*
X1237498Y884665D01*
X1244996Y885498D02*
X1243330Y884665D01*
X1241664Y882999D01*
Y881333D01*
X1242497Y880500D01*
X1244163D01*
X1244996Y881333D01*
Y882166D01*
X1244163Y882999D01*
X1241664D01*
X1298744Y848707D02*
Y843709D01*
X1301244D01*
X1302077Y844542D01*
Y847874D01*
X1301244Y848707D01*
X1298744D01*
X1303743Y843709D02*
X1305409D01*
X1304576D01*
Y848707D01*
X1303743Y847874D01*
X1311240Y848707D02*
X1307908D01*
Y846208D01*
X1309574Y847041D01*
X1310407D01*
X1311240Y846208D01*
Y844542D01*
X1310407Y843709D01*
X1308741D01*
X1307908Y844542D01*
X1312500Y888998D02*
Y884000D01*
X1314999D01*
X1315832Y884833D01*
Y888165D01*
X1314999Y888998D01*
X1312500D01*
X1317498Y884000D02*
X1319164D01*
X1318331D01*
Y888998D01*
X1317498Y888165D01*
X1324163Y884000D02*
Y888998D01*
X1321664Y886499D01*
X1324996D01*
X1276500Y919498D02*
Y914500D01*
X1278999D01*
X1279832Y915333D01*
Y918665D01*
X1278999Y919498D01*
X1276500D01*
X1281498Y914500D02*
X1283165D01*
X1282331D01*
Y919498D01*
X1281498Y918665D01*
X1285664D02*
X1286497Y919498D01*
X1288163D01*
X1288996Y918665D01*
Y917832D01*
X1288163Y916999D01*
X1287330D01*
X1288163D01*
X1288996Y916166D01*
Y915333D01*
X1288163Y914500D01*
X1286497D01*
X1285664Y915333D01*
X1078000Y838498D02*
Y833500D01*
X1080499D01*
X1081332Y834333D01*
Y837665D01*
X1080499Y838498D01*
X1078000D01*
X1082998Y833500D02*
X1084665D01*
X1083831D01*
Y838498D01*
X1082998Y837665D01*
X1090496Y833500D02*
X1087164D01*
X1090496Y836832D01*
Y837665D01*
X1089663Y838498D01*
X1087997D01*
X1087164Y837665D01*
X1105000Y893498D02*
Y888500D01*
X1107499D01*
X1108332Y889333D01*
Y892665D01*
X1107499Y893498D01*
X1105000D01*
X1109998Y888500D02*
X1111664D01*
X1110831D01*
Y893498D01*
X1109998Y892665D01*
X1114164Y888500D02*
X1115830D01*
X1114997D01*
Y893498D01*
X1114164Y892665D01*
X1126064Y848857D02*
Y843858D01*
X1128563D01*
X1129397Y844691D01*
Y848024D01*
X1128563Y848857D01*
X1126064D01*
X1131063Y843858D02*
X1132729D01*
X1131896D01*
Y848857D01*
X1131063Y848024D01*
X1135228D02*
X1136061Y848857D01*
X1137727D01*
X1138560Y848024D01*
Y844691D01*
X1137727Y843858D01*
X1136061D01*
X1135228Y844691D01*
Y848024D01*
X1107000Y917998D02*
Y913000D01*
X1109499D01*
X1110332Y913833D01*
Y917165D01*
X1109499Y917998D01*
X1107000D01*
X1111998Y913833D02*
X1112831Y913000D01*
X1114498D01*
X1115331Y913833D01*
Y917165D01*
X1114498Y917998D01*
X1112831D01*
X1111998Y917165D01*
Y916332D01*
X1112831Y915499D01*
X1115331D01*
X1068000Y913498D02*
Y908500D01*
X1070499D01*
X1071332Y909333D01*
Y912665D01*
X1070499Y913498D01*
X1068000D01*
X1072998Y912665D02*
X1073831Y913498D01*
X1075498D01*
X1076331Y912665D01*
Y911832D01*
X1075498Y910999D01*
X1076331Y910166D01*
Y909333D01*
X1075498Y908500D01*
X1073831D01*
X1072998Y909333D01*
Y910166D01*
X1073831Y910999D01*
X1072998Y911832D01*
Y912665D01*
X1073831Y910999D02*
X1075498D01*
X1056500Y860498D02*
Y855500D01*
X1058999D01*
X1059832Y856333D01*
Y859665D01*
X1058999Y860498D01*
X1056500D01*
X1061498D02*
X1064831D01*
Y859665D01*
X1061498Y856333D01*
Y855500D01*
X977500Y863998D02*
Y859000D01*
X979999D01*
X980832Y859833D01*
Y863165D01*
X979999Y863998D01*
X977500D01*
X985831D02*
X984165Y863165D01*
X982498Y861499D01*
Y859833D01*
X983331Y859000D01*
X984998D01*
X985831Y859833D01*
Y860666D01*
X984998Y861499D01*
X982498D01*
X929000Y892998D02*
Y888000D01*
X931499D01*
X932332Y888833D01*
Y892165D01*
X931499Y892998D01*
X929000D01*
X937331D02*
X933998D01*
Y890499D01*
X935664Y891332D01*
X936498D01*
X937331Y890499D01*
Y888833D01*
X936498Y888000D01*
X934831D01*
X933998Y888833D01*
X955000Y836498D02*
Y831500D01*
X957499D01*
X958332Y832333D01*
Y835665D01*
X957499Y836498D01*
X955000D01*
X962498Y831500D02*
Y836498D01*
X959998Y833999D01*
X963331D01*
X905000Y848498D02*
Y843500D01*
X907499D01*
X908332Y844333D01*
Y847665D01*
X907499Y848498D01*
X905000D01*
X909998Y847665D02*
X910831Y848498D01*
X912498D01*
X913331Y847665D01*
Y846832D01*
X912498Y845999D01*
X911664D01*
X912498D01*
X913331Y845166D01*
Y844333D01*
X912498Y843500D01*
X910831D01*
X909998Y844333D01*
X927500Y917498D02*
Y912500D01*
X929999D01*
X930832Y913333D01*
Y916665D01*
X929999Y917498D01*
X927500D01*
X935831Y912500D02*
X932498D01*
X935831Y915832D01*
Y916665D01*
X934998Y917498D01*
X933331D01*
X932498Y916665D01*
X966000Y911998D02*
Y907000D01*
X968499D01*
X969332Y907833D01*
Y911165D01*
X968499Y911998D01*
X966000D01*
X970998Y907000D02*
X972665D01*
X971831D01*
Y911998D01*
X970998Y911165D01*
X1160000Y847500D02*
X1162499D01*
X1163332Y848333D01*
X1162499Y849166D01*
X1160833D01*
X1160000Y849999D01*
X1160833Y850832D01*
X1163332D01*
X1164998Y845834D02*
Y850832D01*
X1167498D01*
X1168331Y849999D01*
Y848333D01*
X1167498Y847500D01*
X1164998D01*
X1170830Y850832D02*
X1172496D01*
X1173329Y849999D01*
Y847500D01*
X1170830D01*
X1169997Y848333D01*
X1170830Y849166D01*
X1173329D01*
X1178327Y850832D02*
X1175828D01*
X1174995Y849999D01*
Y848333D01*
X1175828Y847500D01*
X1178327D01*
X1182493D02*
X1180827D01*
X1179994Y848333D01*
Y849999D01*
X1180827Y850832D01*
X1182493D01*
X1183326Y849999D01*
Y849166D01*
X1179994D01*
X1184992Y849999D02*
X1188324D01*
X1192490Y847500D02*
X1190823D01*
X1189990Y848333D01*
Y849999D01*
X1190823Y850832D01*
X1192490D01*
X1193322Y849999D01*
Y849166D01*
X1189990D01*
X1194989Y847500D02*
X1196655D01*
X1195822D01*
Y850832D01*
X1194989D01*
X1200820Y845834D02*
X1201653D01*
X1202486Y846667D01*
Y850832D01*
X1199987D01*
X1199154Y849999D01*
Y848333D01*
X1199987Y847500D01*
X1202486D01*
X1204152Y852498D02*
Y847500D01*
Y849999D01*
X1204985Y850832D01*
X1206651D01*
X1207485Y849999D01*
Y847500D01*
X1209984Y851665D02*
Y850832D01*
X1209151D01*
X1210817D01*
X1209984D01*
Y848333D01*
X1210817Y847500D01*
X1213316D02*
Y848333D01*
X1214149D01*
Y847500D01*
X1213316D01*
X1220814Y850832D02*
X1218314D01*
X1217481Y849999D01*
Y848333D01*
X1218314Y847500D01*
X1220814D01*
X1223313D02*
X1224979D01*
X1225812Y848333D01*
Y849999D01*
X1224979Y850832D01*
X1223313D01*
X1222480Y849999D01*
Y848333D01*
X1223313Y847500D01*
X1227478D02*
Y850832D01*
X1228311D01*
X1229144Y849999D01*
Y847500D01*
Y849999D01*
X1229977Y850832D01*
X1230810Y849999D01*
Y847500D01*
X1017500Y890832D02*
Y887500D01*
Y889166D01*
X1018333Y889999D01*
X1019166Y890832D01*
X1019999D01*
X1024998Y887500D02*
X1023331D01*
X1022498Y888333D01*
Y889999D01*
X1023331Y890832D01*
X1024998D01*
X1025831Y889999D01*
Y889166D01*
X1022498D01*
X1027497Y890832D02*
X1029163Y887500D01*
X1030829Y890832D01*
X1035827Y887500D02*
X1032495D01*
X1035827Y890832D01*
Y891665D01*
X1034994Y892498D01*
X1033328D01*
X1032495Y891665D01*
X1037494Y887500D02*
Y888333D01*
X1038327D01*
Y887500D01*
X1037494D01*
X1041659Y891665D02*
X1042492Y892498D01*
X1044158D01*
X1044991Y891665D01*
Y888333D01*
X1044158Y887500D01*
X1042492D01*
X1041659Y888333D01*
Y891665D01*
X1046657Y887500D02*
X1048323D01*
X1047490D01*
Y892498D01*
X1046657Y891665D01*
X1172721Y878304D02*
Y873306D01*
X1175220D01*
X1176053Y874139D01*
Y874972D01*
X1175220Y875805D01*
X1172721D01*
X1175220D01*
X1176053Y876638D01*
Y877471D01*
X1175220Y878304D01*
X1172721D01*
X1177719Y873306D02*
Y878304D01*
X1180218D01*
X1181051Y877471D01*
Y875805D01*
X1180218Y874972D01*
X1177719D01*
X1179385D02*
X1181051Y873306D01*
X1182717Y878304D02*
X1184383D01*
X1183550D01*
Y873306D01*
X1182717D01*
X1184383D01*
X1186883D02*
Y876638D01*
X1188549Y878304D01*
X1190215Y876638D01*
Y873306D01*
Y875805D01*
X1186883D01*
X1191881Y873306D02*
Y878304D01*
X1195213Y873306D01*
Y878304D01*
X1205210Y877471D02*
X1204377Y878304D01*
X1202711D01*
X1201878Y877471D01*
Y874139D01*
X1202711Y873306D01*
X1204377D01*
X1205210Y874139D01*
X1209375Y878304D02*
X1207709D01*
X1206876Y877471D01*
Y874139D01*
X1207709Y873306D01*
X1209375D01*
X1210209Y874139D01*
Y877471D01*
X1209375Y878304D01*
X1211875D02*
X1215207Y873306D01*
Y878304D02*
X1211875Y873306D01*
X1183332Y860832D02*
X1180833D01*
X1180000Y859999D01*
Y858333D01*
X1180833Y857500D01*
X1183332D01*
X1193329D02*
X1189997D01*
X1193329Y860832D01*
Y861665D01*
X1192496Y862498D01*
X1190830D01*
X1189997Y861665D01*
X1194995D02*
X1195828Y862498D01*
X1197494D01*
X1198327Y861665D01*
Y858333D01*
X1197494Y857500D01*
X1195828D01*
X1194995Y858333D01*
Y861665D01*
X1203326Y857500D02*
X1199994D01*
X1203326Y860832D01*
Y861665D01*
X1202493Y862498D01*
X1200827D01*
X1199994Y861665D01*
X1208324Y857500D02*
X1204992D01*
X1208324Y860832D01*
Y861665D01*
X1207491Y862498D01*
X1205825D01*
X1204992Y861665D01*
D23*
X985832Y917498D02*
X982500D01*
Y912500D01*
X985832D01*
X982500Y914999D02*
X984166D01*
X987498Y917498D02*
X989165D01*
X988331D01*
Y912500D01*
X987498D01*
X989165D01*
X994996Y916665D02*
X994163Y917498D01*
X992497D01*
X991664Y916665D01*
Y913333D01*
X992497Y912500D01*
X994163D01*
X994996Y913333D01*
Y914999D01*
X993330D01*
X996662Y917498D02*
Y912500D01*
Y914999D01*
X999994D01*
Y917498D01*
Y912500D01*
X1001661Y917498D02*
X1004993D01*
X1003327D01*
Y912500D01*
X1011657Y917498D02*
Y912500D01*
X1014156D01*
X1014989Y913333D01*
Y914166D01*
X1014156Y914999D01*
X1011657D01*
X1014156D01*
X1014989Y915832D01*
Y916665D01*
X1014156Y917498D01*
X1011657D01*
X1016656Y912500D02*
Y915832D01*
X1018322Y917498D01*
X1019988Y915832D01*
Y912500D01*
Y914999D01*
X1016656D01*
X1021654Y917498D02*
Y912500D01*
X1024986D01*
X1026652Y917498D02*
Y912500D01*
X1029985D01*
X1039981Y916665D02*
X1039148Y917498D01*
X1037482D01*
X1036649Y916665D01*
Y915832D01*
X1037482Y914999D01*
X1039148D01*
X1039981Y914166D01*
Y913333D01*
X1039148Y912500D01*
X1037482D01*
X1036649Y913333D01*
X1041648Y917498D02*
X1044980D01*
X1043314D01*
Y912500D01*
X1046646D02*
Y917498D01*
X1049145D01*
X1049978Y916665D01*
Y914999D01*
X1049145Y914166D01*
X1046646D01*
X1048312D02*
X1049978Y912500D01*
X1051644Y917498D02*
X1053310D01*
X1052477D01*
Y912500D01*
X1051644D01*
X1053310D01*
X1055810D02*
Y917498D01*
X1058309D01*
X1059142Y916665D01*
Y914999D01*
X1058309Y914166D01*
X1055810D01*
X991747Y903498D02*
X987748D01*
Y900499D01*
X989747Y901499D01*
X990747D01*
X991747Y900499D01*
Y898500D01*
X990747Y897500D01*
X988748D01*
X987748Y898500D01*
X993746Y902498D02*
X994746Y903498D01*
X996745D01*
X997745Y902498D01*
Y898500D01*
X996745Y897500D01*
X994746D01*
X993746Y898500D01*
Y902498D01*
X1003743Y903498D02*
X999744D01*
Y900499D01*
X1001744Y901499D01*
X1002743D01*
X1003743Y900499D01*
Y898500D01*
X1002743Y897500D01*
X1000744D01*
X999744Y898500D01*
X1005742Y897500D02*
X1007742D01*
X1006742D01*
Y903498D01*
X1005742Y902498D01*
X1010741Y898500D02*
X1011740Y897500D01*
X1013740D01*
X1014739Y898500D01*
Y902498D01*
X1013740Y903498D01*
X1011740D01*
X1010741Y902498D01*
Y901499D01*
X1011740Y900499D01*
X1014739D01*
X1016739Y902498D02*
X1017738Y903498D01*
X1019738D01*
X1020737Y902498D01*
Y901499D01*
X1019738Y900499D01*
X1018738D01*
X1019738D01*
X1020737Y899499D01*
Y898500D01*
X1019738Y897500D01*
X1017738D01*
X1016739Y898500D01*
M02*
