M48
;Layer_Color=8847372
;FILE_FORMAT=2:5
INCH,TZ
;TYPE=PLATED
T1F00S00C0.02100
T2F00S00C0.12500
%
T01
X1250000Y840000
X1252500Y865500
Y883000
X1282500Y893000
X1280000Y910000
X1302500Y907500
X1315000Y868000
X1287500Y860000
X1285000Y840500
X1218496Y840996
X1202748Y866500
X1187000Y866500
X1171252
Y841894
X1157500Y832500
X1125000Y842500
X1127500Y853500
X1115000Y861000
X1150000Y883500
Y907500
X1165000Y910000
X1220000
X1213216Y885716
X1245000Y895500
X1062500Y905000
X1027500Y900000
X1012252Y890000
X996504Y883894
X972500Y886000
X950000Y910000
X937500Y871000
X1027500Y870000
X1045000Y857500
X1075000Y843500
X1087500Y846000
X930000Y848500
X895000Y858500
X905000Y871000
X895000Y893500
X927500Y903500
T02
X1195000Y906000
X1020000Y844000
M30
