%FSLAX25Y25*%
%MOIN*%
G70*
G01*
G75*
G04 Layer_Color=8421504*
%ADD10P,0.08352X4X360.0*%
%ADD11P,0.08352X4X270.0*%
%ADD12P,0.08352X4X75.0*%
%ADD13P,0.08352X4X115.0*%
%ADD14P,0.08352X4X155.0*%
%ADD15P,0.08352X4X195.0*%
%ADD16P,0.08352X4X235.0*%
%ADD17P,0.08352X4X275.0*%
%ADD18R,0.05906X0.05906*%
%ADD19P,0.08352X4X355.0*%
%ADD20P,0.08352X4X395.0*%
%ADD21R,0.05906X0.05906*%
%ADD22C,0.02500*%
%ADD23C,0.04000*%
%ADD24R,0.12205X0.17716*%
%ADD25R,0.08000X0.05000*%
%ADD26C,0.05000*%
%ADD27C,0.01000*%
%ADD28C,0.01200*%
%ADD29C,0.01500*%
%ADD30P,0.06937X4X360.0*%
%ADD31P,0.06937X4X270.0*%
%ADD32P,0.06937X4X75.0*%
%ADD33P,0.06937X4X115.0*%
%ADD34P,0.06937X4X155.0*%
%ADD35P,0.06937X4X195.0*%
%ADD36P,0.06937X4X235.0*%
%ADD37P,0.06937X4X275.0*%
%ADD38R,0.04906X0.04906*%
%ADD39P,0.06937X4X355.0*%
%ADD40P,0.06937X4X395.0*%
%ADD41R,0.04906X0.04906*%
D30*
X1382192Y1027551D02*
D03*
X1372449Y1017808D02*
D03*
X1368551Y1041192D02*
D03*
X1358808Y1031449D02*
D03*
X1441192Y968551D02*
D03*
X1431449Y958808D02*
D03*
X1427551Y982192D02*
D03*
X1417808Y972449D02*
D03*
D31*
X1427551Y1017308D02*
D03*
X1417808Y1027051D02*
D03*
X1441192Y1030949D02*
D03*
X1431449Y1040692D02*
D03*
X1372949Y982192D02*
D03*
X1382692Y972449D02*
D03*
X1359308Y968551D02*
D03*
X1369051Y958808D02*
D03*
D32*
X1446408Y939289D02*
D03*
X1453298Y927356D02*
D03*
X1429702Y929644D02*
D03*
X1436592Y917710D02*
D03*
D33*
X1474325Y982920D02*
D03*
X1487273Y978207D02*
D03*
X1467727Y964793D02*
D03*
X1480675Y960080D02*
D03*
D34*
X1467727Y1035207D02*
D03*
X1480675Y1039920D02*
D03*
X1474325Y1017080D02*
D03*
X1487273Y1021793D02*
D03*
D35*
X1429202Y1070356D02*
D03*
X1436092Y1082290D02*
D03*
X1445909Y1060711D02*
D03*
X1452798Y1072644D02*
D03*
D36*
X1377697Y1073040D02*
D03*
X1375305Y1086610D02*
D03*
X1396696Y1076390D02*
D03*
X1394303Y1089960D02*
D03*
D37*
X1335578Y1041682D02*
D03*
X1325022Y1050540D02*
D03*
X1347978Y1056460D02*
D03*
X1337422Y1065318D02*
D03*
D38*
X1323890Y990354D02*
D03*
X1310110D02*
D03*
X1323890Y1009646D02*
D03*
X1310110D02*
D03*
D39*
X1347978Y944040D02*
D03*
X1337422Y935182D02*
D03*
X1335578Y958818D02*
D03*
X1325022Y949960D02*
D03*
D40*
X1396196Y923610D02*
D03*
X1393803Y910040D02*
D03*
X1377197Y926960D02*
D03*
X1374804Y913390D02*
D03*
D41*
X1409646Y1006890D02*
D03*
Y993110D02*
D03*
X1390354Y1006890D02*
D03*
Y993110D02*
D03*
M02*
