  0
SECTION
  2
HEADER
  9
$ACADVER
  1
AC1015
  9
$ACADMAINTVER
 70
         6
  9
$DWGCODEPAGE
  3
ANSI_1252
  9
$INSBASE
 10
0.0
 20
0.0
 30
0.0
  9
$EXTMIN
 10
-0.93969262
 20
-0.98480775
 30
0.0
  9
$EXTMAX
 10
13.0
 20
12.98480775
 30
0.0
  9
$LIMMIN
 10
0.0
 20
0.0
  9
$LIMMAX
 10
0.0
 20
0.0
  9
$ORTHOMODE
 70
         0
  9
$REGENMODE
 70
         1
  9
$FILLMODE
 70
         1
  9
$QTEXTMODE
 70
         0
  9
$MIRRTEXT
 70
         1
  9
$LTSCALE
 40
5.0
  9
$ATTMODE
 70
         1
  9
$TEXTSIZE
 40
0.2
  9
$TRACEWID
 40
0.05
  9
$TEXTSTYLE
  7
Standard
  9
$CLAYER
  8
0
  9
$CELTYPE
  6
Continuous
  9
$CECOLOR
 62
       256
  9
$CELTSCALE
 40
1.0
  9
$DISPSILH
 70
         0
  9
$DIMSCALE
 40
1.0
  9
$DIMASZ
 40
0.18
  9
$DIMEXO
 40
0.0625
  9
$DIMDLI
 40
0.38
  9
$DIMRND
 40
0.0
  9
$DIMDLE
 40
0.0
  9
$DIMEXE
 40
0.18
  9
$DIMTP
 40
0.0
  9
$DIMTM
 40
0.0
  9
$DIMTXT
 40
0.18
  9
$DIMCEN
 40
0.09
  9
$DIMTSZ
 40
0.0
  9
$DIMTOL
 70
         0
  9
$DIMLIM
 70
         0
  9
$DIMTIH
 70
         1
  9
$DIMTOH
 70
         1
  9
$DIMSE1
 70
         0
  9
$DIMSE2
 70
         0
  9
$DIMTAD
 70
         0
  9
$DIMZIN
 70
         0
  9
$DIMBLK
  1

  9
$DIMASO
 70
         1
  9
$DIMSHO
 70
         1
  9
$DIMPOST
  1

  9
$DIMAPOST
  1

  9
$DIMALT
 70
         0
  9
$DIMALTD
 70
         2
  9
$DIMALTF
 40
25.4
  9
$DIMLFAC
 40
1.0
  9
$DIMTOFL
 70
         0
  9
$DIMTVP
 40
0.0
  9
$DIMTIX
 70
         0
  9
$DIMSOXD
 70
         0
  9
$DIMSAH
 70
         0
  9
$DIMBLK1
  1

  9
$DIMBLK2
  1

  9
$DIMSTYLE
  2
Standard
  9
$DIMCLRD
 70
         0
  9
$DIMCLRE
 70
         0
  9
$DIMCLRT
 70
         0
  9
$DIMTFAC
 40
1.0
  9
$DIMGAP
 40
0.09
  9
$DIMJUST
 70
         0
  9
$DIMSD1
 70
         0
  9
$DIMSD2
 70
         0
  9
$DIMTOLJ
 70
         1
  9
$DIMTZIN
 70
         0
  9
$DIMALTZ
 70
         0
  9
$DIMALTTZ
 70
         0
  9
$DIMUPT
 70
         0
  9
$DIMDEC
 70
         4
  9
$DIMTDEC
 70
         4
  9
$DIMALTU
 70
         2
  9
$DIMALTTD
 70
         2
  9
$DIMTXSTY
  7
Standard
  9
$DIMAUNIT
 70
         0
  9
$DIMADEC
 70
         0
  9
$DIMALTRND
 40
0.0
  9
$DIMAZIN
 70
         0
  9
$DIMDSEP
 70
         0
  9
$DIMATFIT
 70
         3
  9
$DIMFRAC
 70
         0
  9
$DIMLDRBLK
  1

  9
$DIMLUNIT
 70
         2
  9
$DIMLWD
 70
         0
  9
$DIMLWE
 70
         0
  9
$DIMTMOVE
 70
         0
  9
$LUNITS
 70
         2
  9
$LUPREC
 70
         4
  9
$SKETCHINC
 40
0.1
  9
$FILLETRAD
 40
0.0
  9
$AUNITS
 70
         0
  9
$AUPREC
 70
         0
  9
$MENU
  1
acad
  9
$ELEVATION
 40
0.0
  9
$PELEVATION
 40
0.0
  9
$THICKNESS
 40
0.0
  9
$LIMCHECK
 70
         0
  9
$CHAMFERA
 40
0.0
  9
$CHAMFERB
 40
0.0
  9
$CHAMFERC
 40
0.0
  9
$CHAMFERD
 40
0.0
  9
$SKPOLY
 70
         0
  9
$TDCREATE
 40
2460903.887453704
  9
$TDUCREATE
 40
0.000000000
  9
$TDUPDATE
 40
2460903.887453704
  9
$TDUUPDATE
 40
0.000000000
  9
$TDINDWG
 40
0.0000000000
  9
$TDUSRTIMER
 40
0.0000000000
  9
$USRTIMER
 70
         1
  9
$ANGBASE
 50
0.0
  9
$ANGDIR
 70
         0
  9
$PDMODE
 70
         0
  9
$PDSIZE
 40
0.0
  9
$PLINEWID
 40
0.0
  9
$SPLFRAME
 70
         0
  9
$SPLINETYPE
 70
         6
  9
$SPLINESEGS
 70
         8
  9
$HANDSEED
  5
D4
  9
$SURFTAB1
 70
         6
  9
$SURFTAB2
 70
         6
  9
$SURFTYPE
 70
         6
  9
$SURFU
 70
         6
  9
$SURFV
 70
         6
  9
$UCSBASE
  2

  9
$UCSNAME
  2

  9
$UCSORG
 10
0.0
 20
0.0
 30
0.0
  9
$UCSXDIR
 10
1.0
 20
0.0
 30
0.0
  9
$UCSYDIR
 10
0.0
 20
1.0
 30
0.0
  9
$UCSORTHOREF
  2

  9
$UCSORTHOVIEW
 70
         0
  9
$UCSORGTOP
 10
0.0
 20
0.0
 30
0.0
  9
$UCSORGBOTTOM
 10
0.0
 20
0.0
 30
0.0
  9
$UCSORGLEFT
 10
0.0
 20
0.0
 30
0.0
  9
$UCSORGRIGHT
 10
0.0
 20
0.0
 30
0.0
  9
$UCSORGFRONT
 10
0.0
 20
0.0
 30
0.0
  9
$UCSORGBACK
 10
0.0
 20
0.0
 30
0.0
  9
$PUCSBASE
  2

  9
$PUCSNAME
  2

  9
$PUCSORG
 10
0.0
 20
0.0
 30
0.0
  9
$PUCSXDIR
 10
1.0
 20
0.0
 30
0.0
  9
$PUCSYDIR
 10
0.0
 20
1.0
 30
0.0
  9
$PUCSORTHOREF
  2

  9
$PUCSORTHOVIEW
 70
         0
  9
$PUCSORGTOP
 10
0.0
 20
0.0
 30
0.0
  9
$PUCSORGBOTTOM
 10
0.0
 20
0.0
 30
0.0
  9
$PUCSORGLEFT
 10
0.0
 20
0.0
 30
0.0
  9
$PUCSORGRIGHT
 10
0.0
 20
0.0
 30
0.0
  9
$PUCSORGFRONT
 10
0.0
 20
0.0
 30
0.0
  9
$PUCSORGBACK
 10
0.0
 20
0.0
 30
0.0
  9
$USERI1
 70
         0
  9
$USERI2
 70
         0
  9
$USERI3
 70
         0
  9
$USERI4
 70
         0
  9
$USERI5
 70
         0
  9
$USERR1
 40
0.0
  9
$USERR2
 40
0.0
  9
$USERR3
 40
0.0
  9
$USERR4
 40
0.0
  9
$USERR5
 40
0.0
  9
$WORLDVIEW
 70
         1
  9
$SHADEDGE
 70
         3
  9
$SHADEDIF
 70
        70
  9
$TILEMODE
 70
         1
  9
$MAXACTVP
 70
        16
  9
$PINSBASE
 10
0.0
 20
0.0
 30
0.0
  9
$PLIMCHECK
 70
         0
  9
$PEXTMIN
 10
1.0000000000E+20
 20
1.0000000000E+20
 30
1.0000000000E+20
  9
$PEXTMAX
 10
-1.0000000000E+20
 20
-1.0000000000E+20
 30
-1.0000000000E+20
  9
$PLIMMIN
 10
0.0
 20
0.0
  9
$PLIMMAX
 10
12.0
 20
9.0
  9
$UNITMODE
 70
         0
  9
$VISRETAIN
 70
         0
  9
$PLINEGEN
 70
         1
  9
$PSLTSCALE
 70
         0
  9
$TREEDEPTH
 70
      3020
  9
$CMLSTYLE
  2
Standard
  9
$CMLJUST
 70
         0
  9
$CMLSCALE
 40
1.0
  9
$PROXYGRAPHICS
 70
         0
  9
$MEASUREMENT
 70
         0
  9
$CELWEIGHT
370
         0
  9
$ENDCAPS
280
         0
  9
$JOINSTYLE
280
         0
  9
$LWDISPLAY
290
         0
  9
$INSUNITS
 70
         0
  9
$HYPERLINKBASE
  1

  9
$XEDIT
290
         1
  9
$CEPSNTYPE
380
         0
  9
$PSTYLEMODE
290
         1
  9
$FINGERPRINTGUID
  2

  9
$VERSIONGUID
  2

  9
$EXTNAMES
290
         1
  9
$PSVPSCALE
 40
0.0
  0
ENDSEC
  0
SECTION
  2
CLASSES
  0
CLASS
  1
LWPOLYLINE
  2
AcDbPolyline
  3
AutoCAD 2000
 90
    32768
280
         0
281
         1
  0
CLASS
  1
IMAGE
  2
AcDbRasterImage
  3
ISM
 90
    32895
280
         0
281
         1
  0
CLASS
  1
OLE2FRAME
  2
AcDbOle2Frame
  3
AutoCAD 2000
 90
    32768
280
         0
281
         1
  0
CLASS
  1
HATCH
  2
AcDbHatch
  3
AutoCAD 2000
 90
    32768
280
         0
281
         1
  0
CLASS
  1
DICTIONARYVAR
  2
AcDbDictionaryVar
  3
AutoCAD 2000
 90
    32768
280
         0
281
         0
  0
CLASS
  1
RASTERVARIABLES
  2
AcDbRasterVariables
  3
ISM
 90
    32768
280
         0
281
         0
  0
CLASS
  1
IMAGEDEF
  2
AcDbRasterImageDef
  3
ISM
 90
    32768
280
         0
281
         0
  0
CLASS
  1
IMAGEDEF_REACTOR
  2
AcDbRasterImageDefReactor
  3
ISM
 90
    32769
280
         0
281
         0
  0
CLASS
  1
IDBUFFER
  2
AcDbIdBuffer
  3
AutoCAD 2000
 90
    32768
280
         0
281
         0
  0
CLASS
  1
SPATIAL_FILTER
  2
AcDbSpatialFilter
  3
AutoCAD 2000
 90
    32768
280
         0
281
         0
  0
CLASS
  1
XRECORD
  2
AcDbXrecord
  3
AutoCAD 2000
 90
    32768
280
         0
281
         0
  0
CLASS
  1
SORTENTSTABLE
  2
AcDbSortentsTable
  3
AutoCAD 2000
 90
    32768
280
         0
281
         0
  0
CLASS
  1
LAYER_INDEX
  2
AcDbLayerIndex
  3
AutoCAD 2000
 90
    32768
280
         0
281
         0
  0
CLASS
  1
SPATIAL_INDEX
  2
AcDbSpatialIndex
  3
AutoCAD 2000
 90
    32768
280
         0
281
         0
  0
CLASS
  1
OBJECT_PTR
  2
CAseDLPNTableRecord
  3
"ASE-LPNTableRecord"
 90
    32769
280
         0
281
         0
  0
CLASS
  1
LAYOUT
  2
AcDbLayout
  3
AutoCAD 2000
 90
        0
280
         0
281
         0
  0
CLASS
  1
PLOTSETTINGS
  2
AcDbPlotSettings
  3
AutoCAD 2000
 90
    32768
280
         0
281
         0
  0
CLASS
  1
ACDBDICTIONARYWDFLT
  2
AcDbDictionaryWithDefault
  3
AutoCAD 2000
 90
        0
280
         0
281
         0
  0
CLASS
  1
ACDBPLACEHOLDER
  2
AcDbPlaceHolder
  3
AutoCAD 2000
 90
        0
280
         0
281
         0
  0
CLASS
  1
VBA_PROJECT
  2
AcDbVbaProject
  3
acadvba
 90
    32768
280
         0
281
         0
  0
CLASS
  1
WIPEOUT
  2
AcDbWipeout
  3
WipeOut|AutoCAD Express Tool|expresstools@autodesk.com
 90
    32895
280
         0
281
         1
  0
CLASS
  1
WIPEOUTVARIABLES
  2
AcDbWipeoutVariables
  3
WipeOut|AutoCAD Express Tool|expresstools@autodesk.com
 90
        0
280
         0
281
         0
  0
CLASS
  1
RTEXT
  2
RText
  3
RText|AutoCAD Express Tool|expresstools@autodesk.com
 90
    32768
280
         0
281
         1
  0
CLASS
  1
ARCALIGNEDTEXT
  2
AcDbArcAlignedText
  3
ATEXT|AutoCAD Express Tool|expresstools@autodesk.com
 90
    32768
280
         0
281
         1
  0
ENDSEC
  0
SECTION
  2
TABLES
  0
TABLE
  2
VPORT
  5
7
100
AcDbSymbolTable
 70
         1
  0
VPORT
  5
15
100
AcDbSymbolTableRecord
100
AcDbViewportTableRecord
  2
*ACTIVE
 70
         0
 10
0.0
 20
0.0
 11
1.0
 21
1.0
 12
6.591288
 22
4.579184
 13
0.0
 23
0.0
 14
1.0
 24
1.0
 15
0.0
 25
0.0
 16
0.0
 26
0.0
 36
1.0
 17
0.0
 27
0.0
 37
0.0
 40
9.158369
 41
0.688564
 42
50.0
 43
0.0
 44
0.0
 50
0.0
 51
0.0
 71
         0
 72
       100
 73
         1
 74
         1
 75
         0
 76
         0
 77
         0
 78
         0
281
         0
 65
         0
110
0.0
120
0.0
130
0.0
111
1.0
121
0.0
131
0.0
112
0.0
122
1.0
132
0.0
345
0
346
0
 79
         0
146
0.0
  0
ENDTAB
  0
TABLE
  2
LTYPE
  5
4
100
AcDbSymbolTable
 70
        13
  0
LTYPE
  5
11
100
AcDbSymbolTableRecord
100
AcDbLinetypeTableRecord
  2
ByBlock
 70
        64
  3

 72
        65
 73
         0
 40
0.0
  0
LTYPE
  5
12
100
AcDbSymbolTableRecord
100
AcDbLinetypeTableRecord
  2
ByLayer
 70
        64
  3

 72
        65
 73
         0
 40
0.0
  0
LTYPE
  5
13
100
AcDbSymbolTableRecord
100
AcDbLinetypeTableRecord
  2
Continuous
 70
        64
  3
Solid line
 72
        65
 73
         0
 40
0.0
  0
LTYPE
  5
25
100
AcDbSymbolTableRecord
100
AcDbLinetypeTableRecord
  2
Dotted
 70
        64
  3
Dotted
 72
        65
 73
         2
 40
0.125
 49
0.0
 74
         0
 49
-0.125
 74
         0
  0
LTYPE
  5
26
100
AcDbSymbolTableRecord
100
AcDbLinetypeTableRecord
  2
Center
 70
        64
  3
Center
 72
        65
 73
         4
 40
0.7699999809
 49
0.5
 74
         0
 49
-0.0724999979
 74
         0
 49
0.125
 74
         0
 49
-0.0724999979
 74
         0
  0
LTYPE
  5
27
100
AcDbSymbolTableRecord
100
AcDbLinetypeTableRecord
  2
Dashed
 70
        64
  3
Dashed
 72
        65
 73
         2
 40
0.375
 49
0.25
 74
         0
 49
-0.125
 74
         0
  0
LTYPE
  5
28
100
AcDbSymbolTableRecord
100
AcDbLinetypeTableRecord
  2
Hidden
 70
        64
  3
Hidden
 72
        65
 73
         2
 40
0.1974999905
 49
0.125
 74
         0
 49
-0.0724999979
 74
         0
  0
LTYPE
  5
29
100
AcDbSymbolTableRecord
100
AcDbLinetypeTableRecord
  2
Phantom
 70
        64
  3
Phantom
 72
        65
 73
         6
 40
0.9674999714
 49
0.5
 74
         0
 49
-0.0724999979
 74
         0
 49
0.125
 74
         0
 49
-0.0724999979
 74
         0
 49
0.125
 74
         0
 49
-0.0724999979
 74
         0
  0
LTYPE
  5
2A
100
AcDbSymbolTableRecord
100
AcDbLinetypeTableRecord
  2
Dashdot
 70
        64
  3
Dashdot
 72
        65
 73
         4
 40
0.6762499809
 49
0.5
 74
         0
 49
-0.0724999979
 74
         0
 49
0.03125
 74
         0
 49
-0.0724999979
 74
         0
  0
LTYPE
  5
2B
100
AcDbSymbolTableRecord
100
AcDbLinetypeTableRecord
  2
Border
 70
        64
  3
Border
 72
        65
 73
         6
 40
1.2487499714
 49
0.5
 74
         0
 49
-0.0724999979
 74
         0
 49
0.5
 74
         0
 49
-0.0724999979
 74
         0
 49
0.03125
 74
         0
 49
-0.0724999979
 74
         0
  0
LTYPE
  5
2C
100
AcDbSymbolTableRecord
100
AcDbLinetypeTableRecord
  2
Divide
 70
        64
  3
Divide
 72
        65
 73
         6
 40
0.7799999714
 49
0.5
 74
         0
 49
-0.0724999979
 74
         0
 49
0.03125
 74
         0
 49
-0.0724999979
 74
         0
 49
0.03125
 74
         0
 49
-0.0724999979
 74
         0
  0
LTYPE
  5
2D
100
AcDbSymbolTableRecord
100
AcDbLinetypeTableRecord
  2
Cutting
 70
        64
  3
Cutting
 72
        65
 73
         6
 40
1.4674999714
 49
1.0
 74
         0
 49
-0.0724999979
 74
         0
 49
0.125
 74
         0
 49
-0.0724999979
 74
         0
 49
0.125
 74
         0
 49
-0.0724999979
 74
         0
  0
LTYPE
  5
2E
100
AcDbSymbolTableRecord
100
AcDbLinetypeTableRecord
  2
Stitch
 70
        64
  3
Stitch
 72
        65
 73
         2
 40
0.1449999958
 49
0.0724999979
 74
         0
 49
-0.0724999979
 74
         0
  0
ENDTAB
  0
TABLE
  2
LAYER
  5
2
100
AcDbSymbolTable
 70
        42
  0
LAYER
  5
14
100
AcDbSymbolTableRecord
100
AcDbLayerTableRecord
  2
0
 70
         0
 62
         7
  6
Continuous
290
         1
370
        -3
390
1D
  0
LAYER
  5
2F
100
AcDbSymbolTableRecord
100
AcDbLayerTableRecord
  2
DF_COMP
 70
         0
 62
         4
  6
Continuous
290
         1
370
         2
390
1F
  0
LAYER
  5
30
100
AcDbSymbolTableRecord
100
AcDbLayerTableRecord
  2
1_250BIT_500DEP
 70
         0
 62
         5
  6
Continuous
290
         1
370
         2
390
1F
  0
LAYER
  5
31
100
AcDbSymbolTableRecord
100
AcDbLayerTableRecord
  2
2_250BIT_250DEP
 70
         0
 62
         3
  6
Continuous
290
         1
370
         2
390
1F
  0
LAYER
  5
32
100
AcDbSymbolTableRecord
100
AcDbLayerTableRecord
  2
3_250BIT_500TAB
 70
         0
 62
         5
  6
Continuous
290
         1
370
         2
390
1F
  0
LAYER
  5
33
100
AcDbSymbolTableRecord
100
AcDbLayerTableRecord
  2
4_250BIT_250TAB
 70
         0
 62
         5
  6
Continuous
290
         1
370
         2
390
1F
  0
LAYER
  5
34
100
AcDbSymbolTableRecord
100
AcDbLayerTableRecord
  2
5_250BIT_250SPEC
 70
         0
 62
         5
  6
Continuous
290
         1
370
         2
390
1F
  0
LAYER
  5
35
100
AcDbSymbolTableRecord
100
AcDbLayerTableRecord
  2
6_125BIT_500DEP
 70
         0
 62
         5
  6
Continuous
290
         1
370
         2
390
1F
  0
LAYER
  5
36
100
AcDbSymbolTableRecord
100
AcDbLayerTableRecord
  2
7_VCARVE_BIT
 70
         0
 62
         5
  6
Continuous
290
         1
370
         2
390
1F
  0
LAYER
  5
37
100
AcDbSymbolTableRecord
100
AcDbLayerTableRecord
  2
8_250BIT_500OUTLINE
 70
         0
 62
         5
  6
Continuous
290
         1
370
         2
390
1F
  0
LAYER
  5
38
100
AcDbSymbolTableRecord
100
AcDbLayerTableRecord
  2
PLASTICS
 70
         0
 62
        37
  6
Continuous
290
         1
370
         2
390
1F
  0
LAYER
  5
39
100
AcDbSymbolTableRecord
100
AcDbLayerTableRecord
  2
7A_1250BALL
 70
         0
 62
         5
  6
Continuous
290
         1
370
         2
390
1F
  0
LAYER
  5
3A
100
AcDbSymbolTableRecord
100
AcDbLayerTableRecord
  2
CONSTRUCTION
 70
         0
 62
         7
  6
Continuous
290
         1
370
         0
390
1F
  0
LAYER
  5
3B
100
AcDbSymbolTableRecord
100
AcDbLayerTableRecord
  2
0_WOOD
 70
         0
 62
         5
  6
Continuous
290
         1
370
         2
390
1F
  0
LAYER
  5
3C
100
AcDbSymbolTableRecord
100
AcDbLayerTableRecord
  2
Z_TATTOOMYSTIQUE
 70
         0
 62
        37
  6
Continuous
290
         1
370
         2
390
1F
  0
LAYER
  5
3D
100
AcDbSymbolTableRecord
100
AcDbLayerTableRecord
  2
Z_ROLLRGIRLZ
 70
         0
 62
        37
  6
Continuous
290
         1
370
         2
390
1F
  0
LAYER
  5
3E
100
AcDbSymbolTableRecord
100
AcDbLayerTableRecord
  2
Z_MISSADV
 70
         0
 62
         5
  6
Continuous
290
         1
370
         2
390
1F
  0
LAYER
  5
3F
100
AcDbSymbolTableRecord
100
AcDbLayerTableRecord
  2
Z_JUPITERCRUSH
 70
         0
 62
        37
  6
Continuous
290
         1
370
         2
390
1F
  0
LAYER
  5
40
100
AcDbSymbolTableRecord
100
AcDbLayerTableRecord
  2
Z_MODULAR
 70
         0
 62
         5
  6
Continuous
290
         1
370
         2
390
1F
  0
LAYER
  5
41
100
AcDbSymbolTableRecord
100
AcDbLayerTableRecord
  2
Z_GENERIC
 70
         0
 62
        27
  6
Continuous
290
         1
370
         2
390
1F
  0
LAYER
  5
42
100
AcDbSymbolTableRecord
100
AcDbLayerTableRecord
  2
UNASSIGNED
 70
         0
 62
         7
  6
Continuous
290
         1
370
         0
390
1F
  0
LAYER
  5
43
100
AcDbSymbolTableRecord
100
AcDbLayerTableRecord
  2
0
 70
         0
 62
        42
  6
Continuous
290
         1
370
         2
390
1F
  0
LAYER
  5
44
100
AcDbSymbolTableRecord
100
AcDbLayerTableRecord
  2
LAYER_1
 70
         0
 62
        42
  6
Continuous
290
         1
370
         2
390
1F
  0
LAYER
  5
45
100
AcDbSymbolTableRecord
100
AcDbLayerTableRecord
  2
LAYER_3
 70
         0
 62
         4
  6
Continuous
290
         1
370
         2
390
1F
  0
LAYER
  5
46
100
AcDbSymbolTableRecord
100
AcDbLayerTableRecord
  2
LAYER_2
 70
         0
 62
        42
  6
Continuous
290
         1
370
         2
390
1F
  0
LAYER
  5
47
100
AcDbSymbolTableRecord
100
AcDbLayerTableRecord
  2
X_POSTS
 70
         0
 62
         4
  6
Continuous
290
         1
370
         2
390
1F
  0
LAYER
  5
48
100
AcDbSymbolTableRecord
100
AcDbLayerTableRecord
  2
X_THUMPER
 70
         0
 62
         4
  6
Continuous
290
         1
370
         2
390
1F
  0
LAYER
  5
49
100
AcDbSymbolTableRecord
100
AcDbLayerTableRecord
  2
X_STANDUPS
 70
         0
 62
         4
  6
Continuous
290
         1
370
         2
390
1F
  0
LAYER
  5
4A
100
AcDbSymbolTableRecord
100
AcDbLayerTableRecord
  2
X_DROPS
 70
         0
 62
         4
  6
Continuous
290
         1
370
         2
390
1F
  0
LAYER
  5
4B
100
AcDbSymbolTableRecord
100
AcDbLayerTableRecord
  2
X_SMPOSTS
 70
         0
 62
         4
  6
Continuous
290
         1
370
         2
390
1F
  0
LAYER
  5
4C
100
AcDbSymbolTableRecord
100
AcDbLayerTableRecord
  2
X_ROLLOVER
 70
         0
 62
         4
  6
Continuous
290
         1
370
         2
390
1F
  0
LAYER
  5
4D
100
AcDbSymbolTableRecord
100
AcDbLayerTableRecord
  2
X_WALLS
 70
         0
 62
         4
  6
Continuous
290
         1
370
         2
390
1F
  0
LAYER
  5
4E
100
AcDbSymbolTableRecord
100
AcDbLayerTableRecord
  2
Z0_BOTCOMP
 70
         0
 62
         4
  6
Continuous
290
         1
370
         2
390
1F
  0
LAYER
  5
4F
100
AcDbSymbolTableRecord
100
AcDbLayerTableRecord
  2
Z0_TOPCOMP
 70
         0
 62
         6
  6
Continuous
290
         1
370
         2
390
1F
  0
LAYER
  5
50
100
AcDbSymbolTableRecord
100
AcDbLayerTableRecord
  2
Z0_CUT250
 70
         0
 62
         4
  6
Continuous
290
         1
370
         2
390
1F
  0
LAYER
  5
51
100
AcDbSymbolTableRecord
100
AcDbLayerTableRecord
  2
Z0_CUT500
 70
         0
 62
         4
  6
Continuous
290
         1
370
         2
390
1F
  0
LAYER
  5
52
100
AcDbSymbolTableRecord
100
AcDbLayerTableRecord
  2
Z0_PLASTICS
 70
         0
 62
        37
  6
Continuous
290
         1
370
         2
390
1F
  0
LAYER
  5
53
100
AcDbSymbolTableRecord
100
AcDbLayerTableRecord
  2
Z0_RUBBER
 70
         0
 62
         4
  6
Continuous
290
         1
370
         2
390
1F
  0
LAYER
  5
54
100
AcDbSymbolTableRecord
100
AcDbLayerTableRecord
  2
Z0_ZONES
 70
         0
 62
         6
  6
Continuous
290
         1
370
         2
390
1F
  0
LAYER
  5
55
100
AcDbSymbolTableRecord
100
AcDbLayerTableRecord
  2
Z0_WOODOUTLINE
 70
         0
 62
         5
  6
Continuous
290
         1
370
         2
390
1F
  0
LAYER
  5
56
100
AcDbSymbolTableRecord
100
AcDbLayerTableRecord
  2
Z0_LOWERTHIRD
 70
         0
 62
         4
  6
Continuous
290
         1
370
         2
390
1F
  0
LAYER
  5
57
100
AcDbSymbolTableRecord
100
AcDbLayerTableRecord
  2
PART_A
 70
         0
 62
         4
  6
Continuous
290
         1
370
         2
390
1F
  0
ENDTAB
  0
TABLE
  2
STYLE
  5
3
100
AcDbSymbolTable
 70
         2
  0
STYLE
  5
17
100
AcDbSymbolTableRecord
100
AcDbTextStyleTableRecord
  2
Standard
 70
         0
 40
0.0
 41
1.0
 50
0.0
 71
         0
 42
0.0
  3
txt
  4

  0
STYLE
  5
24
100
AcDbSymbolTableRecord
100
AcDbTextStyleTableRecord
  2
Plotter
 70
         0
 40
0.0
 41
0.98
 50
0.0
 71
         0
 42
0.0
  3
SIMPLEX
  4

  0
ENDTAB
  0
TABLE
  2
VIEW
  5
5
100
AcDbSymbolTable
 70
         0
  0
ENDTAB
  0
TABLE
  2
UCS
  5
6
100
AcDbSymbolTable
 70
         0
  0
ENDTAB
  0
TABLE
  2
APPID
  5
8
100
AcDbSymbolTable
 70
         1
  0
APPID
  5
16
100
AcDbSymbolTableRecord
100
AcDbRegAppTableRecord
  2
ACAD
 70
         0
  0
ENDTAB
  0
TABLE
  2
DIMSTYLE
  5
9
100
AcDbSymbolTable
 70
         1
100
AcDbDimStyleTable
 71
         0
  0
DIMSTYLE
105
18
100
AcDbSymbolTableRecord
100
AcDbDimStyleTableRecord
  2
Standard
 70
         0
  3

  4

 40
1.0
 41
0.18
 42
0.0625
 43
0.38
 44
0.18
 45
0.0
 46
0.0
 47
0.0
 48
0.0
 71
         0
 72
         0
 73
         1
 74
         1
 75
         0
 76
         0
 77
         0
 78
         0
 79
         0
140
0.18
141
0.09
142
0.0
143
25.4
144
1.0
145
0.0
146
1.0
147
0.09
148
0.0
170
         0
171
         2
172
         0
173
         0
174
         0
175
         0
176
         0
177
         0
178
         0
179
         0
271
         4
272
         4
273
         2
274
         2
275
         0
276
         0
277
         2
278
        46
279
         0
280
         0
281
         0
282
         0
283
         1
284
         0
285
         0
286
         0
288
         0
340
17
341
0
342
0
343
0
344
0
371
        -2
372
        -2
  0
ENDTAB
  0
TABLE
  2
BLOCK_RECORD
  5
1
100
AcDbSymbolTable
 70
         0
  0
BLOCK_RECORD
  5
A
100
AcDbSymbolTableRecord
100
AcDbBlockTableRecord
  2
*MODEL_SPACE
340
20
  0
BLOCK_RECORD
  5
B
100
AcDbSymbolTableRecord
100
AcDbBlockTableRecord
  2
*PAPER_SPACE
340
21
  0
ENDTAB
  0
ENDSEC
  0
SECTION
  2
BLOCKS
  0
BLOCK
  5
D
100
AcDbEntity
  8
0
100
AcDbBlockBegin
  2
*MODEL_SPACE
 70
         0
 10
0.0
 20
0.0
 30
0.0
  3
*MODEL_SPACE
  1

  0
ENDBLK
  5
E
100
AcDbEntity
  8
0
100
AcDbBlockEnd
  0
BLOCK
  5
F
100
AcDbEntity
 67
         1
  8
0
100
AcDbBlockBegin
  2
*PAPER_SPACE
 70
         0
 10
0.0
 20
0.0
 30
0.0
  3
*PAPER_SPACE
  1

  0
ENDBLK
  5
10
100
AcDbEntity
 67
         1
  8
0
100
AcDbBlockEnd
  0
ENDSEC
  0
SECTION
  2
ENTITIES
  0
SPLINE
  5
58
100
AcDbEntity
  8
Z0_LOWERTHIRD
370
         5
  6
Continuous
 62
         4
100
AcDbSpline
210
0.0
220
0.0
230
1.0
 70
         0
 71
         3
 72
         8
 73
         4
 74
         0
 42
0.000001
 43
0.000001
 40
0.0
 40
0.0
 40
0.0
 40
0.0
 40
1.0
 40
1.0
 40
1.0
 40
1.0
 10
6.0402072739568666
 20
6.4191635538926448
 30
0.0
 10
6.0589788546190562
 20
6.4003919732305121
 30
0.0
 10
6.0695246147545276
 20
6.3749322500782455
 30
0.0
 10
6.0695246147548119
 20
6.348385223798573
 30
0.0
  0
SPLINE
  5
59
100
AcDbEntity
  8
Z0_LOWERTHIRD
370
         5
  6
Continuous
 62
         4
100
AcDbSpline
210
0.0
220
0.0
230
1.0
 70
         0
 71
         3
 72
         8
 73
         4
 74
         0
 42
0.000001
 43
0.000001
 40
0.0
 40
0.0
 40
0.0
 40
0.0
 40
1.0
 40
1.0
 40
1.0
 40
1.0
 10
7.6002770189334115
 20
7.2335205507248475
 30
0.0
 10
7.5815054382707672
 20
7.2522921313875486
 30
0.0
 10
7.5709596781356936
 20
7.2777518545399289
 30
0.0
 10
7.570959678135921
 20
7.3042988808194877
 30
0.0
  0
SPLINE
  5
5A
100
AcDbEntity
  8
Z0_LOWERTHIRD
370
         5
  6
Continuous
 62
         4
100
AcDbSpline
210
0.0
220
0.0
230
1.0
 70
         0
 71
         3
 72
         8
 73
         4
 74
         0
 42
0.000001
 43
0.000001
 40
0.0
 40
0.0
 40
0.0
 40
0.0
 40
1.0
 40
1.0
 40
1.0
 40
1.0
 10
5.028529637475458
 20
7.3042988808177824
 30
0.0
 10
5.0285296374755717
 20
7.2777518545375415
 30
0.0
 10
5.0179838773402139
 20
7.2522921313853885
 30
0.0
 10
4.9992122966780812
 20
7.2335205507230285
 30
0.0
  0
SPLINE
  5
5B
100
AcDbEntity
  8
Z0_LOWERTHIRD
370
         5
  6
Continuous
 62
         4
100
AcDbSpline
210
0.0
220
0.0
230
1.0
 70
         0
 71
         3
 72
         8
 73
         4
 74
         0
 42
0.000001
 43
0.000001
 40
0.0
 40
0.0
 40
0.0
 40
0.0
 40
1.0
 40
1.0
 40
1.0
 40
1.0
 10
6.0301977068644419
 20
10.551692040798002
 30
0.0
 10
6.0114261262019113
 20
10.532920460135415
 30
0.0
 10
5.9859664030490194
 20
10.522374700000114
 30
0.0
 10
5.9594193767698584
 20
10.522374700000228
 30
0.0
  0
SPLINE
  5
5C
100
AcDbEntity
  8
Z0_LOWERTHIRD
370
         5
  6
Continuous
 62
         4
100
AcDbSpline
210
0.0
220
0.0
230
1.0
 70
         0
 71
         3
 72
         8
 73
         4
 74
         0
 42
0.000001
 43
0.000001
 40
0.0
 40
0.0
 40
0.0
 40
0.0
 40
1.0
 40
1.0
 40
1.0
 40
1.0
 10
6.0595150476621598
 20
10.622470370892529
 30
0.0
 10
6.0595150476621598
 20
10.595923344612743
 30
0.0
 10
6.048969287527143
 20
10.570463621460362
 30
0.0
 10
6.0301977068644419
 20
10.551692040798002
 30
0.0
  0
SPLINE
  5
5D
100
AcDbEntity
  8
Z0_LOWERTHIRD
370
         5
  6
Continuous
 62
         4
100
AcDbSpline
210
0.0
220
0.0
230
1.0
 70
         0
 71
         3
 72
         8
 73
         4
 74
         0
 42
0.000001
 43
0.000001
 40
0.0
 40
0.0
 40
0.0
 40
0.0
 40
1.0
 40
1.0
 40
1.0
 40
1.0
 10
4.9992122966758643
 20
9.7373350439664819
 30
0.0
 10
5.0179838773385654
 20
9.718563463303667
 30
0.0
 10
5.0285296374735822
 20
9.6931037401516278
 30
0.0
 10
5.0285296374739801
 20
9.6665567138717279
 30
0.0
  0
SPLINE
  5
5E
100
AcDbEntity
  8
Z0_LOWERTHIRD
370
         5
  6
Continuous
 62
         4
100
AcDbSpline
210
0.0
220
0.0
230
1.0
 70
         0
 71
         3
 72
         8
 73
         4
 74
         0
 42
0.000001
 43
0.000001
 40
0.0
 40
0.0
 40
0.0
 40
0.0
 40
1.0
 40
1.0
 40
1.0
 40
1.0
 10
5.9694289438626811
 20
6.4484808946903058
 30
0.0
 10
5.9959759701416147
 20
6.4484808946907606
 30
0.0
 10
6.0214356932941087
 20
6.4379351345560281
 30
0.0
 10
6.0402072739568666
 20
6.4191635538926448
 30
0.0
  0
SPLINE
  5
5F
100
AcDbEntity
  8
Z0_LOWERTHIRD
370
         5
  6
Continuous
 62
         4
100
AcDbSpline
210
0.0
220
0.0
230
1.0
 70
         0
 71
         3
 72
         8
 73
         4
 74
         0
 42
0.000001
 43
0.000001
 40
0.0
 40
0.0
 40
0.0
 40
0.0
 40
1.0
 40
1.0
 40
1.0
 40
1.0
 10
4.9992122966780812
 20
7.2335205507230285
 30
0.0
 10
4.9804407160153801
 20
7.2147489700606684
 30
0.0
 10
4.954980992863284
 20
7.2042032099255948
 30
0.0
 10
4.9284339665834977
 20
7.2042032099253674
 30
0.0
  0
SPLINE
  5
60
100
AcDbEntity
  8
Z0_LOWERTHIRD
370
         5
  6
Continuous
 62
         4
100
AcDbSpline
210
0.0
220
0.0
230
1.0
 70
         0
 71
         3
 72
         8
 73
         4
 74
         0
 42
0.000001
 43
0.000001
 40
0.0
 40
0.0
 40
0.0
 40
0.0
 40
1.0
 40
1.0
 40
1.0
 40
1.0
 10
4.9284339665813377
 20
9.7666523847640292
 30
0.0
 10
4.9549809928611239
 20
9.7666523847636881
 30
0.0
 10
4.9804407160135611
 20
9.7561066246288419
 30
0.0
 10
4.9992122966758643
 20
9.7373350439664819
 30
0.0
  0
ELLIPSE
  5
61
100
AcDbEntity
  8
Z0_LOWERTHIRD
370
        25
  6
Continuous
 62
         4
100
AcDbEllipse
 10
4.5630187549
 20
7.0215286105
 30
0.0
 11
0.0690000000000007
 21
0.0000000000000541
 31
0.0
210
0.0
220
0.0
230
-1.0
 40
1.0
 41
4.7123889803846897
 42
10.995574287564276
  0
CIRCLE
  5
62
100
AcDbEntity
  8
Z0_LOWERTHIRD
370
        25
  6
Continuous
 62
         5
100
AcDbCircle
 10
12.4570614436
 20
7.1646654199
 30
0.0
 40
0.25
  0
ELLIPSE
  5
63
100
AcDbEntity
  8
Z0_LOWERTHIRD
370
        25
  6
Continuous
 62
         4
100
AcDbEllipse
 10
13.811922362
 20
6.6461698447
 30
0.0
 11
-0.0690000000000007
 21
-0.0000000000000488
 31
0.0
210
0.0
220
0.0
230
1.0
 40
1.0
 41
4.7123889803846897
 42
10.995574287564276
  0
ELLIPSE
  5
64
100
AcDbEntity
  8
Z0_LOWERTHIRD
370
        25
  6
Continuous
 62
         4
100
AcDbEllipse
 10
13.811922362
 20
9.9493269841
 30
0.0
 11
0.0000000000000927
 21
0.069000000000263
 31
0.0
210
0.0
220
0.0
230
1.0
 40
1.0
 41
0.0
 42
6.2831853071791564
  0
ELLIPSE
  5
65
100
AcDbEntity
  8
Z0_LOWERTHIRD
370
        25
  6
Continuous
 62
         4
100
AcDbEllipse
 10
13.811922362
 20
10.32468575
 30
0.0
 11
-0.0690000000000007
 21
-0.0000000000000488
 31
0.0
210
0.0
220
0.0
230
1.0
 40
1.0
 41
4.7123889803846897
 42
10.995574287564276
  0
LINE
  5
66
100
AcDbEntity
  8
Z0_LOWERTHIRD
370
         5
  6
Continuous
 62
         4
100
AcDbLine
 10
13.4465071503
 20
9.7666523848
 30
0.0
 11
14.0020381238
 21
9.7666523848
 31
0.0
  0
LINE
  5
67
100
AcDbEntity
  8
Z0_LOWERTHIRD
370
         5
  6
Continuous
 62
         4
100
AcDbLine
 10
14.0020381238
 20
10.5223747
 30
0.0
 11
14.0020381238
 21
9.7666523848
 31
0.0
  0
LINE
  5
68
100
AcDbEntity
  8
Z0_LOWERTHIRD
370
         5
  6
Continuous
 62
         4
100
AcDbLine
 10
13.3464114794
 20
7.3042988808
 30
0.0
 11
13.3464114794
 21
9.6665567139
 31
0.0
  0
LINE
  5
69
100
AcDbEntity
  8
Z0_LOWERTHIRD
370
         5
  6
Continuous
 62
         4
100
AcDbLine
 10
14.0020381238
 20
7.2042032099
 30
0.0
 11
13.4465071503
 21
7.2042032099
 31
0.0
  0
LINE
  5
6A
100
AcDbEntity
  8
Z0_LOWERTHIRD
370
         5
  6
Continuous
 62
         4
100
AcDbLine
 10
14.0020381238
 20
6.4484808947
 30
0.0
 11
14.0020381238
 21
7.2042032099
 31
0.0
  0
SPLINE
  5
6B
100
AcDbEntity
  8
Z0_LOWERTHIRD
370
         5
  6
Continuous
 62
         4
100
AcDbSpline
210
0.0
220
0.0
230
1.0
 70
         0
 71
         3
 72
         8
 73
         4
 74
         0
 42
0.000001
 43
0.000001
 40
0.0
 40
0.0
 40
0.0
 40
0.0
 40
1.0
 40
1.0
 40
1.0
 40
1.0
 10
13.34641147944393
 20
7.3042988808193741
 30
0.0
 10
13.346411479443873
 20
7.2777518545391331
 30
0.0
 10
13.356957239579287
 20
7.2522921313869801
 30
0.0
 10
13.37572882024142
 20
7.2335205507246201
 30
0.0
  0
SPLINE
  5
6C
100
AcDbEntity
  8
Z0_LOWERTHIRD
370
         5
  6
Continuous
 62
         4
100
AcDbSpline
210
0.0
220
0.0
230
1.0
 70
         0
 71
         3
 72
         8
 73
         4
 74
         0
 42
0.000001
 43
0.000001
 40
0.0
 40
0.0
 40
0.0
 40
0.0
 40
1.0
 40
1.0
 40
1.0
 40
1.0
 10
13.375728820239885
 20
9.7373350439680735
 30
0.0
 10
13.356957239577241
 20
9.7185634633052587
 30
0.0
 10
13.346411479442281
 20
9.6931037401532194
 30
0.0
 10
13.346411479441883
 20
9.6665567138733195
 30
0.0
  0
SPLINE
  5
6D
100
AcDbEntity
  8
Z0_LOWERTHIRD
370
         5
  6
Continuous
 62
         4
100
AcDbSpline
210
0.0
220
0.0
230
1.0
 70
         0
 71
         3
 72
         8
 73
         4
 74
         0
 42
0.000001
 43
0.000001
 40
0.0
 40
0.0
 40
0.0
 40
0.0
 40
1.0
 40
1.0
 40
1.0
 40
1.0
 10
13.37572882024142
 20
7.2335205507246201
 30
0.0
 10
13.394500400904178
 20
7.21474897006226
 30
0.0
 10
13.419960124056274
 20
7.2042032099273001
 30
0.0
 10
13.44650715033606
 20
7.2042032099270727
 30
0.0
  0
SPLINE
  5
6E
100
AcDbEntity
  8
Z0_LOWERTHIRD
370
         5
  6
Continuous
 62
         4
100
AcDbSpline
210
0.0
220
0.0
230
1.0
 70
         0
 71
         3
 72
         8
 73
         4
 74
         0
 42
0.000001
 43
0.000001
 40
0.0
 40
0.0
 40
0.0
 40
0.0
 40
1.0
 40
1.0
 40
1.0
 40
1.0
 10
13.446507150334412
 20
9.7666523847657345
 30
0.0
 10
13.419960124054626
 20
9.7666523847653934
 30
0.0
 10
13.394500400902189
 20
9.7561066246304335
 30
0.0
 10
13.375728820239885
 20
9.7373350439680735
 30
0.0
  0
ELLIPSE
  5
6F
100
AcDbEntity
  8
Z0_LOWERTHIRD
370
        25
  6
Continuous
 62
         4
100
AcDbEllipse
 10
13.811922362
 20
7.0215286105
 30
0.0
 11
-0.0690000000000007
 21
-0.0000000000000488
 31
0.0
210
0.0
220
0.0
230
1.0
 40
1.0
 41
4.7123889803846897
 42
10.995574287564276
  0
LINE
  5
70
100
AcDbEntity
  8
Z0_LOWERTHIRD
370
         5
  6
Continuous
 62
         4
100
AcDbLine
 10
5.9178796734
 20
6.8518664484
 30
0.0
 11
5.9178796734
 21
7.4774643915
 31
0.0
  0
LINE
  5
71
100
AcDbEntity
  8
Z0_LOWERTHIRD
370
         5
  6
Continuous
 62
         4
100
AcDbLine
 10
5.0285296375
 20
7.3042988808
 30
0.0
 11
5.0285296375
 21
9.6665567139
 31
0.0
  0
LINE
  5
72
100
AcDbEntity
  8
Z0_LOWERTHIRD
370
         5
  6
Continuous
 62
         4
100
AcDbLine
 10
6.0595150477
 20
11.2130348292
 30
0.0
 11
6.0595150477
 21
10.6224703709
 31
0.0
  0
LINE
  5
73
100
AcDbEntity
  8
Z0_LOWERTHIRD
370
         5
  6
Continuous
 62
         4
100
AcDbLine
 10
6.0695246148
 20
6.1381843149
 30
0.0
 11
6.0695246148
 21
6.3483852238
 31
0.0
  0
LINE
  5
74
100
AcDbEntity
  8
Z0_LOWERTHIRD
370
         5
  6
Continuous
 62
         4
100
AcDbLine
 10
5.6050807018
 20
7.1646654199
 30
0.0
 11
6.2306786449
 21
7.1646654199
 31
0.0
  0
LINE
  5
75
100
AcDbEntity
  8
Z0_LOWERTHIRD
370
         5
  6
Continuous
 62
         4
100
AcDbLine
 10
7.671055349
 20
7.2042032099
 30
0.0
 11
8.2265863225
 21
7.2042032099
 31
0.0
  0
LINE
  5
76
100
AcDbEntity
  8
Z0_LOWERTHIRD
370
         5
  6
Continuous
 62
         4
100
AcDbLine
 10
8.2265863225
 20
6.4484808947
 30
0.0
 11
7.671055349
 21
6.4484808947
 31
0.0
  0
LINE
  5
77
100
AcDbEntity
  8
Z0_LOWERTHIRD
370
         5
  6
Continuous
 62
         4
100
AcDbLine
 10
7.5709596781
 20
6.3483852238
 30
0.0
 11
7.5709596781
 21
6.1381843149
 31
0.0
  0
LINE
  5
78
100
AcDbEntity
  8
Z0_LOWERTHIRD
370
         5
  6
Continuous
 62
         4
100
AcDbLine
 10
4.3729029931
 20
10.5223747
 30
0.0
 11
5.9594193768
 21
10.5223747
 31
0.0
  0
LINE
  5
79
100
AcDbEntity
  8
Z0_LOWERTHIRD
370
         5
  6
Continuous
 62
         4
100
AcDbLine
 10
7.5709596781
 20
7.3042988808
 30
0.0
 11
7.5709596781
 21
9.6665567139
 31
0.0
  0
LINE
  5
7A
100
AcDbEntity
  8
Z0_LOWERTHIRD
370
         5
  6
Continuous
 62
         4
100
AcDbLine
 10
4.3729029931
 20
7.2042032099
 30
0.0
 11
4.9284339666
 21
7.2042032099
 31
0.0
  0
LINE
  5
7B
100
AcDbEntity
  8
Z0_LOWERTHIRD
370
         5
  6
Continuous
 62
         4
100
AcDbLine
 10
4.3729029931
 20
6.4484808947
 30
0.0
 11
4.3729029931
 21
7.2042032099
 31
0.0
  0
LINE
  5
7C
100
AcDbEntity
  8
Z0_LOWERTHIRD
370
         5
  6
Continuous
 62
         4
100
AcDbLine
 10
8.2265863225
 20
6.4484808947
 30
0.0
 11
8.2265863225
 21
7.2042032099
 31
0.0
  0
LINE
  5
7D
100
AcDbEntity
  8
Z0_LOWERTHIRD
370
         5
  6
Continuous
 62
         4
100
AcDbLine
 10
7.5709596781
 20
10.6224703709
 30
0.0
 11
7.5709596781
 21
11.2130348292
 31
0.0
  0
LINE
  5
7E
100
AcDbEntity
  8
Z0_LOWERTHIRD
370
         5
  6
Continuous
 62
         4
100
AcDbLine
 10
7.671055349
 20
10.5223747
 30
0.0
 11
8.2265863225
 21
10.5223747
 31
0.0
  0
LINE
  5
7F
100
AcDbEntity
  8
Z0_LOWERTHIRD
370
         5
  6
Continuous
 62
         4
100
AcDbLine
 10
8.2265863225
 20
9.7666523848
 30
0.0
 11
7.671055349
 21
9.7666523848
 31
0.0
  0
LINE
  5
80
100
AcDbEntity
  8
Z0_LOWERTHIRD
370
         5
  6
Continuous
 62
         4
100
AcDbLine
 10
8.2265863225
 20
9.7666523848
 30
0.0
 11
8.2265863225
 21
10.5223747
 31
0.0
  0
ELLIPSE
  5
81
100
AcDbEntity
  8
Z0_LOWERTHIRD
370
        25
  6
Continuous
 62
         4
100
AcDbEllipse
 10
5.9178796734
 20
7.1646654199
 30
0.0
 11
0.2499999999999998
 21
0.000000000000196
 31
0.0
210
0.0
220
0.0
230
-1.0
 40
1.0
 41
4.7123889803846897
 42
10.995574287564276
  0
SPLINE
  5
82
100
AcDbEntity
  8
Z0_LOWERTHIRD
370
         5
  6
Continuous
 62
         4
100
AcDbSpline
210
0.0
220
0.0
230
1.0
 70
         0
 71
         3
 72
         8
 73
         4
 74
         0
 42
0.000001
 43
0.000001
 40
0.0
 40
0.0
 40
0.0
 40
0.0
 40
1.0
 40
1.0
 40
1.0
 40
1.0
 10
7.6710553490280518
 20
7.2042032099273001
 30
0.0
 10
7.6445083227483792
 20
7.2042032099269591
 30
0.0
 10
7.6190485995963968
 20
7.2147489700630558
 30
0.0
 10
7.6002770189334115
 20
7.2335205507248475
 30
0.0
  0
SPLINE
  5
83
100
AcDbEntity
  8
Z0_LOWERTHIRD
370
         5
  6
Continuous
 62
         4
100
AcDbSpline
210
0.0
220
0.0
230
1.0
 70
         0
 71
         3
 72
         8
 73
         4
 74
         0
 42
0.000001
 43
0.000001
 40
0.0
 40
0.0
 40
0.0
 40
0.0
 40
1.0
 40
1.0
 40
1.0
 40
1.0
 10
7.6002770189344346
 20
6.4191635538944638
 30
0.0
 10
7.6190485995967379
 20
6.4379351345570512
 30
0.0
 10
7.6445083227490045
 20
6.4484808946916701
 30
0.0
 10
7.671055349028336
 20
6.4484808946918974
 30
0.0
  0
SPLINE
  5
84
100
AcDbEntity
  8
Z0_LOWERTHIRD
370
         5
  6
Continuous
 62
         4
100
AcDbSpline
210
0.0
220
0.0
230
1.0
 70
         0
 71
         3
 72
         8
 73
         4
 74
         0
 42
0.000001
 43
0.000001
 40
0.0
 40
0.0
 40
0.0
 40
0.0
 40
1.0
 40
1.0
 40
1.0
 40
1.0
 10
7.5709596781367736
 20
6.3483852237998235
 30
0.0
 10
7.5709596781365462
 20
6.374932250079496
 30
0.0
 10
7.5815054382715061
 20
6.4003919732314216
 30
0.0
 10
7.6002770189344346
 20
6.4191635538944638
 30
0.0
  0
SPLINE
  5
85
100
AcDbEntity
  8
Z0_LOWERTHIRD
370
         5
  6
Continuous
 62
         4
100
AcDbSpline
210
0.0
220
0.0
230
1.0
 70
         0
 71
         3
 72
         8
 73
         4
 74
         0
 42
0.000001
 43
0.000001
 40
0.0
 40
0.0
 40
0.0
 40
0.0
 40
1.0
 40
1.0
 40
1.0
 40
1.0
 10
7.6002770189309672
 20
10.551692040799139
 30
0.0
 10
7.5815054382683797
 20
10.570463621461613
 30
0.0
 10
7.5709596781330788
 20
10.595923344613766
 30
0.0
 10
7.5709596781333062
 20
10.622470370893666
 30
0.0
  0
SPLINE
  5
86
100
AcDbEntity
  8
Z0_LOWERTHIRD
370
         5
  6
Continuous
 62
         4
100
AcDbSpline
210
0.0
220
0.0
230
1.0
 70
         0
 71
         3
 72
         8
 73
         4
 74
         0
 42
0.000001
 43
0.000001
 40
0.0
 40
0.0
 40
0.0
 40
0.0
 40
1.0
 40
1.0
 40
1.0
 40
1.0
 10
7.6710553490250959
 20
10.522374700001592
 30
0.0
 10
7.6445083227458781
 20
10.522374700001933
 30
0.0
 10
7.6190485995936115
 20
10.532920460136779
 30
0.0
 10
7.6002770189309672
 20
10.551692040799139
 30
0.0
  0
SPLINE
  5
87
100
AcDbEntity
  8
Z0_LOWERTHIRD
370
         5
  6
Continuous
 62
         4
100
AcDbSpline
210
0.0
220
0.0
230
1.0
 70
         0
 71
         3
 72
         8
 73
         4
 74
         0
 42
0.000001
 43
0.000001
 40
0.0
 40
0.0
 40
0.0
 40
0.0
 40
1.0
 40
1.0
 40
1.0
 40
1.0
 10
7.6002770189315925
 20
9.7373350439679598
 30
0.0
 10
7.6190485995940094
 20
9.7561066246303199
 30
0.0
 10
7.6445083227462192
 20
9.7666523847658482
 30
0.0
 10
7.6710553490258917
 20
9.7666523847661892
 30
0.0
  0
SPLINE
  5
88
100
AcDbEntity
  8
Z0_LOWERTHIRD
370
         5
  6
Continuous
 62
         4
100
AcDbSpline
210
0.0
220
0.0
230
1.0
 70
         0
 71
         3
 72
         8
 73
         4
 74
         0
 42
0.000001
 43
0.000001
 40
0.0
 40
0.0
 40
0.0
 40
0.0
 40
1.0
 40
1.0
 40
1.0
 40
1.0
 10
7.5709596781336472
 20
9.6665567138741153
 30
0.0
 10
7.5709596781342725
 20
9.6931037401534468
 30
0.0
 10
7.5815054382691756
 20
9.7185634633055997
 30
0.0
 10
7.6002770189315925
 20
9.7373350439679598
 30
0.0
  0
CIRCLE
  5
89
100
AcDbEntity
  8
Z0_LOWERTHIRD
370
        25
  6
Continuous
 62
         6
100
AcDbCircle
 10
12.4570614436
 20
7.1646654199
 30
0.0
 40
0.125
  0
LINE
  5
8A
100
AcDbEntity
  8
Z0_LOWERTHIRD
370
        25
  6
Continuous
 62
         6
100
AcDbLine
 10
8.1648122517
 20
5.9682164151
 30
0.0
 11
6.2122147572
 21
7.5321481726
 31
0.0
  0
ARC
  5
8B
100
AcDbEntity
  8
Z0_LOWERTHIRD
370
        25
  6
Continuous
 62
         6
100
AcDbCircle
 10
5.9178796734
 20
7.1646654199
 30
0.0
 40
0.4708255675
100
AcDbArc
 50
51.3070390494
 51
-119.9270456785
  0
ARC
  5
8C
100
AcDbEntity
  8
Z0_LOWERTHIRD
370
        25
  6
Continuous
 62
         6
100
AcDbCircle
 10
5.9178796734
 20
7.1646654199
 30
0.0
 40
0.3563678145
100
AcDbArc
 50
51.3070390494
 51
-119.9270456785
  0
ARC
  5
8D
100
AcDbEntity
  8
Z0_LOWERTHIRD
370
        25
  6
Continuous
 62
         6
100
AcDbCircle
 10
5.9178796734
 20
7.1646654199
 30
0.0
 40
0.2946859661
100
AcDbArc
 50
51.3070390494
 51
-119.9270456785
  0
ARC
  5
8E
100
AcDbEntity
  8
Z0_LOWERTHIRD
370
        25
  6
Continuous
 62
         6
100
AcDbCircle
 10
7.9903472306
 20
5.750393635
 30
0.0
 40
0.2790784964
100
AcDbArc
 50
-119.9270456785
 51
51.3070390494
  0
ARC
  5
8F
100
AcDbEntity
  8
Z0_LOWERTHIRD
370
        25
  6
Continuous
 62
         6
100
AcDbCircle
 10
7.9903472306
 20
5.750393635
 30
0.0
 40
0.1763775123
100
AcDbArc
 50
-119.9270456785
 51
51.3070390494
  0
ARC
  5
90
100
AcDbEntity
  8
Z0_LOWERTHIRD
370
        25
  6
Continuous
 62
         6
100
AcDbCircle
 10
7.9903472306
 20
5.750393635
 30
0.0
 40
0.127949224
100
AcDbArc
 50
-119.9270456785
 51
51.3070390494
  0
LINE
  5
91
100
AcDbEntity
  8
Z0_LOWERTHIRD
370
        25
  6
Continuous
 62
         6
100
AcDbLine
 10
6.1406618623
 20
7.4428130705
 30
0.0
 11
8.100609063
 21
5.888057556
 31
0.0
  0
LINE
  5
92
100
AcDbEntity
  8
Z0_LOWERTHIRD
370
        25
  6
Continuous
 62
         6
100
AcDbLine
 10
6.1021016539
 20
7.3946699427
 30
0.0
 11
8.0703342749
 21
5.8502589275
 31
0.0
  0
LINE
  5
93
100
AcDbEntity
  8
Z0_LOWERTHIRD
370
        25
  6
Continuous
 62
         6
100
AcDbLine
 10
5.7708617611
 20
6.9092724833
 30
0.0
 11
7.9265137605
 21
5.6395049881
 31
0.0
  0
LINE
  5
94
100
AcDbEntity
  8
Z0_LOWERTHIRD
370
        25
  6
Continuous
 62
         6
100
AcDbLine
 10
5.7400888787
 20
6.8558152094
 30
0.0
 11
7.9023530381
 21
5.5975340625
 31
0.0
  0
CIRCLE
  5
95
100
AcDbEntity
  8
Z0_LOWERTHIRD
370
        25
  6
Continuous
 62
         6
100
AcDbCircle
 10
5.9178796734
 20
7.1646654199
 30
0.0
 40
0.125
  0
ELLIPSE
  5
96
100
AcDbEntity
  8
Z0_LOWERTHIRD
370
        25
  6
Continuous
 62
         4
100
AcDbEllipse
 10
4.5630187549
 20
6.6461698447
 30
0.0
 11
0.0690000000000007
 21
0.0000000000000541
 31
0.0
210
0.0
220
0.0
230
-1.0
 40
1.0
 41
4.7123889803846897
 42
10.995574287564276
  0
ELLIPSE
  5
97
100
AcDbEntity
  8
Z0_LOWERTHIRD
370
        25
  6
Continuous
 62
         4
100
AcDbEllipse
 10
4.5630187549
 20
9.9493269841
 30
0.0
 11
-0.0000000000001956
 21
0.069000000000263
 31
0.0
210
0.0
220
0.0
230
-1.0
 40
1.0
 41
0.0
 42
6.2831853071791564
  0
ELLIPSE
  5
98
100
AcDbEntity
  8
Z0_LOWERTHIRD
370
        25
  6
Continuous
 62
         4
100
AcDbEllipse
 10
8.0364045478
 20
7.0215286105
 30
0.0
 11
0.0000000000000158
 21
0.0690000000000846
 31
0.0
210
0.0
220
0.0
230
-1.0
 40
1.0
 41
0.0
 42
6.2831853071795862
  0
ELLIPSE
  5
99
100
AcDbEntity
  8
Z0_LOWERTHIRD
370
        25
  6
Continuous
 62
         4
100
AcDbEllipse
 10
4.5630187549
 20
10.32468575
 30
0.0
 11
0.0690000000000007
 21
0.0000000000000541
 31
0.0
210
0.0
220
0.0
230
-1.0
 40
1.0
 41
4.7123889803846897
 42
10.995574287564276
  0
ELLIPSE
  5
9A
100
AcDbEntity
  8
Z0_LOWERTHIRD
370
        25
  6
Continuous
 62
         4
100
AcDbEllipse
 10
8.0364705607
 20
10.32468575
 30
0.0
 11
-0.0000000000001346
 21
0.0690000000001444
 31
0.0
210
0.0
220
0.0
230
-1.0
 40
1.0
 41
0.0
 42
6.2831853071793162
  0
ELLIPSE
  5
9B
100
AcDbEntity
  8
Z0_LOWERTHIRD
370
        25
  6
Continuous
 62
         4
100
AcDbEllipse
 10
8.0364705607
 20
9.9493269841
 30
0.0
 11
-0.0000000000001553
 21
0.0690000000000446
 31
0.0
210
0.0
220
0.0
230
-1.0
 40
1.0
 41
0.0
 42
6.2831853071785986
  0
ELLIPSE
  5
9C
100
AcDbEntity
  8
Z0_LOWERTHIRD
370
        25
  6
Continuous
 62
         4
100
AcDbEllipse
 10
8.0364045478
 20
6.6461698447
 30
0.0
 11
-0.0000000000001767
 21
0.0690000000000342
 31
0.0
210
0.0
220
0.0
230
-1.0
 40
1.0
 41
0.0
 42
6.2831853071789245
  0
LINE
  5
9D
100
AcDbEntity
  8
Z0_LOWERTHIRD
370
         5
  6
Continuous
 62
         4
100
AcDbLine
 10
4.9284339666
 20
9.7666523848
 30
0.0
 11
4.3729029931
 21
9.7666523848
 31
0.0
  0
LINE
  5
9E
100
AcDbEntity
  8
Z0_LOWERTHIRD
370
         5
  6
Continuous
 62
         4
100
AcDbLine
 10
4.3729029931
 20
10.5223747
 30
0.0
 11
4.3729029931
 21
9.7666523848
 31
0.0
  0
LINE
  5
9F
100
AcDbEntity
  8
Z0_LOWERTHIRD
370
         5
  6
Continuous
 62
         4
100
AcDbLine
 10
7.5709596781
 20
6.2312732889
 30
0.0
 11
6.0695246148
 21
6.2312732889
 31
0.0
  0
LINE
  5
A0
100
AcDbEntity
  8
Z0_LOWERTHIRD
370
         5
  6
Continuous
 62
         4
100
AcDbLine
 10
7.5709596781
 20
6.1381843149
 30
0.0
 11
6.0695246148
 21
6.1381843149
 31
0.0
  0
LINE
  5
A1
100
AcDbEntity
  8
Z0_LOWERTHIRD
370
         5
  6
Continuous
 62
         4
100
AcDbLine
 10
7.5709596781
 20
11.2130348292
 30
0.0
 11
6.0595150477
 21
11.2130348292
 31
0.0
  0
ELLIPSE
  5
A2
100
AcDbEntity
  8
Z0_LOWERTHIRD
370
        25
  6
Continuous
 62
         4
100
AcDbEllipse
 10
12.4570614436
 20
7.1646654199
 30
0.0
 11
-0.2499999999999998
 21
-0.000000000000177
 31
0.0
210
0.0
220
0.0
230
1.0
 40
1.0
 41
4.7123889803846897
 42
10.995574287564276
  0
SPLINE
  5
A3
100
AcDbEntity
  8
Z0_LOWERTHIRD
370
         5
  6
Continuous
 62
         4
100
AcDbSpline
210
0.0
220
0.0
230
1.0
 70
         0
 71
         3
 72
         8
 73
         4
 74
         0
 42
0.000001
 43
0.000001
 40
0.0
 40
0.0
 40
0.0
 40
0.0
 40
1.0
 40
1.0
 40
1.0
 40
1.0
 10
10.703885767891506
 20
7.2042032099249127
 30
0.0
 10
10.730432794171179
 20
7.2042032099245716
 30
0.0
 10
10.755892517323161
 20
7.2147489700607821
 30
0.0
 10
10.77466409798609
 20
7.2335205507225737
 30
0.0
  0
SPLINE
  5
A4
100
AcDbEntity
  8
Z0_LOWERTHIRD
370
         5
  6
Continuous
 62
         4
100
AcDbSpline
210
0.0
220
0.0
230
1.0
 70
         0
 71
         3
 72
         8
 73
         4
 74
         0
 42
0.000001
 43
0.000001
 40
0.0
 40
0.0
 40
0.0
 40
0.0
 40
1.0
 40
1.0
 40
1.0
 40
1.0
 10
10.77466409798626
 20
6.4191635538921901
 30
0.0
 10
10.755892517323957
 20
6.4379351345547775
 30
0.0
 10
10.730432794171691
 20
6.4484808946892826
 30
0.0
 10
10.703885767892359
 20
6.44848089468951
 30
0.0
  0
SPLINE
  5
A5
100
AcDbEntity
  8
Z0_LOWERTHIRD
370
         5
  6
Continuous
 62
         4
100
AcDbSpline
210
0.0
220
0.0
230
1.0
 70
         0
 71
         3
 72
         8
 73
         4
 74
         0
 42
0.000001
 43
0.000001
 40
0.0
 40
0.0
 40
0.0
 40
0.0
 40
1.0
 40
1.0
 40
1.0
 40
1.0
 10
10.803981438784035
 20
6.3483852237975498
 30
0.0
 10
10.803981438784263
 20
6.3749322500772223
 30
0.0
 10
10.793435678649246
 20
6.4003919732291479
 30
0.0
 10
10.77466409798626
 20
6.4191635538921901
 30
0.0
  0
SPLINE
  5
A6
100
AcDbEntity
  8
Z0_LOWERTHIRD
370
         5
  6
Continuous
 62
         4
100
AcDbSpline
210
0.0
220
0.0
230
1.0
 70
         0
 71
         3
 72
         8
 73
         4
 74
         0
 42
0.000001
 43
0.000001
 40
0.0
 40
0.0
 40
0.0
 40
0.0
 40
1.0
 40
1.0
 40
1.0
 40
1.0
 10
10.774664097983589
 20
10.551692040796866
 30
0.0
 10
10.793435678646119
 20
10.570463621459339
 30
0.0
 10
10.80398143878142
 20
10.595923344611492
 30
0.0
 10
10.803981438781136
 20
10.622470370891392
 30
0.0
  0
SPLINE
  5
A7
100
AcDbEntity
  8
Z0_LOWERTHIRD
370
         5
  6
Continuous
 62
         4
100
AcDbSpline
210
0.0
220
0.0
230
1.0
 70
         0
 71
         3
 72
         8
 73
         4
 74
         0
 42
0.000001
 43
0.000001
 40
0.0
 40
0.0
 40
0.0
 40
0.0
 40
1.0
 40
1.0
 40
1.0
 40
1.0
 10
10.703885767889517
 20
10.522374699999204
 30
0.0
 10
10.730432794168735
 20
10.522374699999546
 30
0.0
 10
10.755892517320945
 20
10.532920460134505
 30
0.0
 10
10.774664097983589
 20
10.551692040796866
 30
0.0
  0
SPLINE
  5
A8
100
AcDbEntity
  8
Z0_LOWERTHIRD
370
         5
  6
Continuous
 62
         4
100
AcDbSpline
210
0.0
220
0.0
230
1.0
 70
         0
 71
         3
 72
         8
 73
         4
 74
         0
 42
0.000001
 43
0.000001
 40
0.0
 40
0.0
 40
0.0
 40
0.0
 40
1.0
 40
1.0
 40
1.0
 40
1.0
 10
10.774664097984157
 20
9.7373350439656861
 30
0.0
 10
10.75589251732174
 20
9.7561066246280461
 30
0.0
 10
10.730432794169531
 20
9.7666523847634608
 30
0.0
 10
10.703885767889858
 20
9.7666523847638018
 30
0.0
  0
SPLINE
  5
A9
100
AcDbEntity
  8
Z0_LOWERTHIRD
370
         5
  6
Continuous
 62
         4
100
AcDbSpline
210
0.0
220
0.0
230
1.0
 70
         0
 71
         3
 72
         8
 73
         4
 74
         0
 42
0.000001
 43
0.000001
 40
0.0
 40
0.0
 40
0.0
 40
0.0
 40
1.0
 40
1.0
 40
1.0
 40
1.0
 10
10.803981438782216
 20
9.6665567138718416
 30
0.0
 10
10.803981438781591
 20
9.693103740151173
 30
0.0
 10
10.793435678646631
 20
9.718563463303326
 30
0.0
 10
10.774664097984157
 20
9.7373350439656861
 30
0.0
  0
SPLINE
  5
AA
100
AcDbEntity
  8
Z0_LOWERTHIRD
370
         5
  6
Continuous
 62
         4
100
AcDbSpline
210
0.0
220
0.0
230
1.0
 70
         0
 71
         3
 72
         8
 73
         4
 74
         0
 42
0.000001
 43
0.000001
 40
0.0
 40
0.0
 40
0.0
 40
0.0
 40
1.0
 40
1.0
 40
1.0
 40
1.0
 10
12.334733842963828
 20
6.4191635538926448
 30
0.0
 10
12.315962262301696
 20
6.4003919732305121
 30
0.0
 10
12.305416502166281
 20
6.3749322500782455
 30
0.0
 10
12.305416502165997
 20
6.348385223798573
 30
0.0
  0
SPLINE
  5
AB
100
AcDbEntity
  8
Z0_LOWERTHIRD
370
         5
  6
Continuous
 62
         4
100
AcDbSpline
210
0.0
220
0.0
230
1.0
 70
         0
 71
         3
 72
         8
 73
         4
 74
         0
 42
0.000001
 43
0.000001
 40
0.0
 40
0.0
 40
0.0
 40
0.0
 40
1.0
 40
1.0
 40
1.0
 40
1.0
 10
10.77466409798609
 20
7.2335205507225737
 30
0.0
 10
10.793435678648734
 20
7.2522921313852748
 30
0.0
 10
10.803981438783751
 20
7.2777518545376552
 30
0.0
 10
10.803981438783467
 20
7.304298880817214
 30
0.0
  0
SPLINE
  5
AC
100
AcDbEntity
  8
Z0_LOWERTHIRD
370
         5
  6
Continuous
 62
         4
100
AcDbSpline
210
0.0
220
0.0
230
1.0
 70
         0
 71
         3
 72
         8
 73
         4
 74
         0
 42
0.000001
 43
0.000001
 40
0.0
 40
0.0
 40
0.0
 40
0.0
 40
1.0
 40
1.0
 40
1.0
 40
1.0
 10
12.344743410050114
 20
10.551692040798002
 30
0.0
 10
12.363514990712645
 20
10.532920460135529
 30
0.0
 10
12.388974713865593
 20
10.522374700000228
 30
0.0
 10
12.415521740144754
 20
10.522374700000341
 30
0.0
  0
SPLINE
  5
AD
100
AcDbEntity
  8
Z0_LOWERTHIRD
370
         5
  6
Continuous
 62
         4
100
AcDbSpline
210
0.0
220
0.0
230
1.0
 70
         0
 71
         3
 72
         8
 73
         4
 74
         0
 42
0.000001
 43
0.000001
 40
0.0
 40
0.0
 40
0.0
 40
0.0
 40
1.0
 40
1.0
 40
1.0
 40
1.0
 10
12.315426069252283
 20
10.622470370892529
 30
0.0
 10
12.315426069252339
 20
10.595923344612743
 30
0.0
 10
12.325971829387356
 20
10.570463621460362
 30
0.0
 10
12.344743410050114
 20
10.551692040798002
 30
0.0
  0
SPLINE
  5
AE
100
AcDbEntity
  8
Z0_LOWERTHIRD
370
         5
  6
Continuous
 62
         4
100
AcDbSpline
210
0.0
220
0.0
230
1.0
 70
         0
 71
         3
 72
         8
 73
         4
 74
         0
 42
0.000001
 43
0.000001
 40
0.0
 40
0.0
 40
0.0
 40
0.0
 40
1.0
 40
1.0
 40
1.0
 40
1.0
 10
12.405512173058014
 20
6.4484808946904195
 30
0.0
 10
12.37896514677908
 20
6.4484808946908743
 30
0.0
 10
12.353505423626586
 20
6.4379351345561417
 30
0.0
 10
12.334733842963828
 20
6.4191635538926448
 30
0.0
  0
LINE
  5
AF
100
AcDbEntity
  8
Z0_LOWERTHIRD
370
        25
  6
Continuous
 62
         6
100
AcDbLine
 10
10.2101288652
 20
5.9682164151
 30
0.0
 11
12.1627263598
 21
7.5321481726
 31
0.0
  0
LINE
  5
B0
100
AcDbEntity
  8
Z0_LOWERTHIRD
370
        25
  6
Continuous
 62
         6
100
AcDbLine
 10
10.5238252805
 20
5.5085270891
 30
0.0
 11
12.6919548553
 21
6.7566190988
 31
0.0
  0
ARC
  5
B1
100
AcDbEntity
  8
Z0_LOWERTHIRD
370
        25
  6
Continuous
 62
         6
100
AcDbCircle
 10
12.4570614436
 20
7.1646654199
 30
0.0
 40
0.4708255675
100
AcDbArc
 50
-60.0729543214
 51
128.6929609507
  0
ARC
  5
B2
100
AcDbEntity
  8
Z0_LOWERTHIRD
370
        25
  6
Continuous
 62
         6
100
AcDbCircle
 10
12.4570614436
 20
7.1646654199
 30
0.0
 40
0.3563678145
100
AcDbArc
 50
-60.0729543214
 51
128.6929609507
  0
ARC
  5
B3
100
AcDbEntity
  8
Z0_LOWERTHIRD
370
        25
  6
Continuous
 62
         6
100
AcDbCircle
 10
12.4570614436
 20
7.1646654199
 30
0.0
 40
0.2946859661
100
AcDbArc
 50
-60.0729543214
 51
128.6929609507
  0
ARC
  5
B4
100
AcDbEntity
  8
Z0_LOWERTHIRD
370
        25
  6
Continuous
 62
         6
100
AcDbCircle
 10
10.3845938864
 20
5.750393635
 30
0.0
 40
0.2790784964
100
AcDbArc
 50
128.6929609507
 51
-60.0729543214
  0
ARC
  5
B5
100
AcDbEntity
  8
Z0_LOWERTHIRD
370
        25
  6
Continuous
 62
         6
100
AcDbCircle
 10
10.3845938864
 20
5.750393635
 30
0.0
 40
0.1763775123
100
AcDbArc
 50
128.6929609507
 51
-60.0729543214
  0
ARC
  5
B6
100
AcDbEntity
  8
Z0_LOWERTHIRD
370
        25
  6
Continuous
 62
         6
100
AcDbCircle
 10
10.3845938864
 20
5.750393635
 30
0.0
 40
0.127949224
100
AcDbArc
 50
128.6929609507
 51
-60.0729543214
  0
LINE
  5
B7
100
AcDbEntity
  8
Z0_LOWERTHIRD
370
        25
  6
Continuous
 62
         6
100
AcDbLine
 10
12.2342792546
 20
7.4428130705
 30
0.0
 11
10.2743320539
 21
5.888057556
 31
0.0
  0
LINE
  5
B8
100
AcDbEntity
  8
Z0_LOWERTHIRD
370
        25
  6
Continuous
 62
         6
100
AcDbLine
 10
12.272839463
 20
7.3946699427
 30
0.0
 11
10.304606842
 21
5.8502589275
 31
0.0
  0
LINE
  5
B9
100
AcDbEntity
  8
Z0_LOWERTHIRD
370
        25
  6
Continuous
 62
         6
100
AcDbLine
 10
12.6040793558
 20
6.9092724833
 30
0.0
 11
10.4484273564
 21
5.6395049881
 31
0.0
  0
LINE
  5
BA
100
AcDbEntity
  8
Z0_LOWERTHIRD
370
        25
  6
Continuous
 62
         6
100
AcDbLine
 10
12.6348522382
 20
6.8558152094
 30
0.0
 11
10.4725880788
 21
5.5975340625
 31
0.0
  0
LINE
  5
BB
100
AcDbEntity
  8
Z0_LOWERTHIRD
370
         5
  6
Continuous
 62
         4
100
AcDbLine
 10
12.4055121731
 20
6.4484808947
 30
0.0
 11
14.0020381238
 21
6.4484808947
 31
0.0
  0
LINE
  5
BC
100
AcDbEntity
  8
Z0_LOWERTHIRD
370
         5
  6
Continuous
 62
         4
100
AcDbLine
 10
14.0020381238
 20
10.5223747
 30
0.0
 11
12.4155217401
 21
10.5223747
 31
0.0
  0
CIRCLE
  5
BD
100
AcDbEntity
  8
Z0_LOWERTHIRD
370
        25
  6
Continuous
 62
         5
100
AcDbCircle
 10
5.9178796734
 20
7.1646654199
 30
0.0
 40
0.25
  0
LINE
  5
BE
100
AcDbEntity
  8
Z0_LOWERTHIRD
370
        25
  6
Continuous
 62
         6
100
AcDbLine
 10
7.8511158364
 20
5.5085270891
 30
0.0
 11
5.6829862616
 21
6.7566190988
 31
0.0
  0
LINE
  5
BF
100
AcDbEntity
  8
Z0_LOWERTHIRD
370
         5
  6
Continuous
 62
         4
100
AcDbLine
 10
5.9694289439
 20
6.4484808947
 30
0.0
 11
4.3729029931
 21
6.4484808947
 31
0.0
  0
ELLIPSE
  5
C0
100
AcDbEntity
  8
Z0_LOWERTHIRD
370
        25
  6
Continuous
 62
         4
100
AcDbEllipse
 10
10.3385365691
 20
7.0215286105
 30
0.0
 11
-0.0000000000001187
 21
0.0690000000000846
 31
0.0
210
0.0
220
0.0
230
1.0
 40
1.0
 41
0.0
 42
6.2831853071795862
  0
ELLIPSE
  5
C1
100
AcDbEntity
  8
Z0_LOWERTHIRD
370
        25
  6
Continuous
 62
         4
100
AcDbEllipse
 10
10.3384705562
 20
10.32468575
 30
0.0
 11
0.0000000000000316
 21
0.0690000000001444
 31
0.0
210
0.0
220
0.0
230
1.0
 40
1.0
 41
0.0
 42
6.2831853071793162
  0
ELLIPSE
  5
C2
100
AcDbEntity
  8
Z0_LOWERTHIRD
370
        25
  6
Continuous
 62
         4
100
AcDbEllipse
 10
10.3384705562
 20
9.9493269841
 30
0.0
 11
0.0000000000000524
 21
0.0690000000000446
 31
0.0
210
0.0
220
0.0
230
1.0
 40
1.0
 41
0.0
 42
6.2831853071785986
  0
ELLIPSE
  5
C3
100
AcDbEntity
  8
Z0_LOWERTHIRD
370
        25
  6
Continuous
 62
         4
100
AcDbEllipse
 10
10.3385365691
 20
6.6461698447
 30
0.0
 11
0.0000000000000738
 21
0.0690000000000342
 31
0.0
210
0.0
220
0.0
230
1.0
 40
1.0
 41
0.0
 42
6.2831853071789245
  0
LINE
  5
C4
100
AcDbEntity
  8
Z0_LOWERTHIRD
370
         5
  6
Continuous
 62
         4
100
AcDbLine
 10
10.8039814388
 20
6.2312732889
 30
0.0
 11
12.3054165022
 21
6.2312732889
 31
0.0
  0
LINE
  5
C5
100
AcDbEntity
  8
Z0_LOWERTHIRD
370
         5
  6
Continuous
 62
         4
100
AcDbLine
 10
10.8039814388
 20
6.1381843149
 30
0.0
 11
12.3054165022
 21
6.1381843149
 31
0.0
  0
LINE
  5
C6
100
AcDbEntity
  8
Z0_LOWERTHIRD
370
         5
  6
Continuous
 62
         4
100
AcDbLine
 10
10.8039814388
 20
11.2130348292
 30
0.0
 11
12.3154260693
 21
11.2130348292
 31
0.0
  0
LINE
  5
C7
100
AcDbEntity
  8
Z0_LOWERTHIRD
370
         5
  6
Continuous
 62
         4
100
AcDbLine
 10
12.4570614436
 20
6.8518664484
 30
0.0
 11
12.4570614436
 21
7.4774643915
 31
0.0
  0
LINE
  5
C8
100
AcDbEntity
  8
Z0_LOWERTHIRD
370
         5
  6
Continuous
 62
         4
100
AcDbLine
 10
12.3154260693
 20
11.2130348292
 30
0.0
 11
12.3154260693
 21
10.6224703709
 31
0.0
  0
LINE
  5
C9
100
AcDbEntity
  8
Z0_LOWERTHIRD
370
         5
  6
Continuous
 62
         4
100
AcDbLine
 10
12.3054165022
 20
6.1381843149
 30
0.0
 11
12.3054165022
 21
6.3483852238
 31
0.0
  0
LINE
  5
CA
100
AcDbEntity
  8
Z0_LOWERTHIRD
370
         5
  6
Continuous
 62
         4
100
AcDbLine
 10
12.7698604151
 20
7.1646654199
 30
0.0
 11
12.144262472
 21
7.1646654199
 31
0.0
  0
LINE
  5
CB
100
AcDbEntity
  8
Z0_LOWERTHIRD
370
         5
  6
Continuous
 62
         4
100
AcDbLine
 10
10.7038857679
 20
7.2042032099
 30
0.0
 11
10.1483547944
 21
7.2042032099
 31
0.0
  0
LINE
  5
CC
100
AcDbEntity
  8
Z0_LOWERTHIRD
370
         5
  6
Continuous
 62
         4
100
AcDbLine
 10
10.1483547944
 20
6.4484808947
 30
0.0
 11
10.7038857679
 21
6.4484808947
 31
0.0
  0
LINE
  5
CD
100
AcDbEntity
  8
Z0_LOWERTHIRD
370
         5
  6
Continuous
 62
         4
100
AcDbLine
 10
10.8039814388
 20
6.3483852238
 30
0.0
 11
10.8039814388
 21
6.1381843149
 31
0.0
  0
LINE
  5
CE
100
AcDbEntity
  8
Z0_LOWERTHIRD
370
         5
  6
Continuous
 62
         4
100
AcDbLine
 10
10.8039814388
 20
7.3042988808
 30
0.0
 11
10.8039814388
 21
9.6665567139
 31
0.0
  0
LINE
  5
CF
100
AcDbEntity
  8
Z0_LOWERTHIRD
370
         5
  6
Continuous
 62
         4
100
AcDbLine
 10
10.1483547944
 20
6.4484808947
 30
0.0
 11
10.1483547944
 21
7.2042032099
 31
0.0
  0
LINE
  5
D0
100
AcDbEntity
  8
Z0_LOWERTHIRD
370
         5
  6
Continuous
 62
         4
100
AcDbLine
 10
10.8039814388
 20
10.6224703709
 30
0.0
 11
10.8039814388
 21
11.2130348292
 31
0.0
  0
LINE
  5
D1
100
AcDbEntity
  8
Z0_LOWERTHIRD
370
         5
  6
Continuous
 62
         4
100
AcDbLine
 10
10.7038857679
 20
10.5223747
 30
0.0
 11
10.1483547944
 21
10.5223747
 31
0.0
  0
LINE
  5
D2
100
AcDbEntity
  8
Z0_LOWERTHIRD
370
         5
  6
Continuous
 62
         4
100
AcDbLine
 10
10.1483547944
 20
9.7666523848
 30
0.0
 11
10.7038857679
 21
9.7666523848
 31
0.0
  0
LINE
  5
D3
100
AcDbEntity
  8
Z0_LOWERTHIRD
370
         5
  6
Continuous
 62
         4
100
AcDbLine
 10
10.1483547944
 20
9.7666523848
 30
0.0
 11
10.1483547944
 21
10.5223747
 31
0.0
  0
ENDSEC
  0
SECTION
  2
OBJECTS
  0
DICTIONARY
  5
19
100
AcDbDictionary
280
         0
281
         1
  3
ACAD_GROUP
350
1A
  3
ACAD_MLINESTYLE
350
1B
  3
ACAD_LAYOUT
350
1E
  3
ACAD_PLOTSETTINGS
350
22
  3
ACAD_PLOTSTYLENAME
350
1F
  3
ACAD_WIPEOUT_VARS
350
23
  0
DICTIONARY
  5
1A
102
{ACAD_REACTORS
330
19
102
}
100
AcDbDictionary
280
         0
281
         1
  0
DICTIONARY
  5
1B
102
{ACAD_REACTORS
330
19
102
}
100
AcDbDictionary
280
         0
281
         1
  3
Standard
350
1C
  0
MLINESTYLE
  5
1C
102
{ACAD_REACTORS
330
1B
102
}
100
AcDbMlineStyle
  2
Standard
 70
         0
  3

 62
         0
 51
90.0
 52
90.0
 71
         2
 49
0.5
 62
       256
  6
BYLAYER
 49
-0.5
 62
       256
  6
BYLAYER
  0
ACDBDICTIONARYWDFLT
  5
1F
102
{ACAD_REACTORS
330
19
102
}
100
AcDbDictionary
281
         1
  3
Normal
350
1D
100
AcDbDictionaryWithDefault
340
1D
  0
ACDBPLACEHOLDER
  5
1D
102
{ACAD_REACTORS
330
1F
102
}
  0
LAYOUT
  5
20
102
{ACAD_REACTORS
330
1E
102
}
100
AcDbPlotSettings
  1

  2

  4

  6

 40
0.0
 41
0.0
 42
0.0
 43
0.0
 44
0.0
 45
0.0
 46
0.0
 47
0.0
 48
0.0
 49
0.0
140
0.0
141
0.0
142
1.0
143
1.0
 70
      1024
 72
         0
 73
         0
 74
         0
  7

 75
         0
147
1.0
148
0.0
149
0.0
100
AcDbLayout
  1
Model
 70
         0
 71
         0
 10
0.0
 20
0.0
 11
0.0
 21
0.0
 12
0.0
 22
0.0
 32
0.0
 14
0.0
 24
0.0
 34
0.0
 15
0.0
 25
0.0
 35
0.0
146
0.0
 13
0.0
 23
0.0
 33
0.0
 16
0.0
 26
0.0
 36
0.0
 17
0.0
 27
0.0
 37
0.0
 76
         0
330
A
331
0
345
0
346
0
  0
LAYOUT
  5
21
102
{ACAD_REACTORS
330
1E
102
}
100
AcDbPlotSettings
  1

  2

  4

  6

 40
0.0
 41
0.0
 42
0.0
 43
0.0
 44
0.0
 45
0.0
 46
0.0
 47
0.0
 48
0.0
 49
0.0
140
0.0
141
0.0
142
1.0
143
1.0
 70
         0
 72
         0
 73
         0
 74
         0
  7

 75
         0
147
1.0
148
0.0
149
0.0
100
AcDbLayout
  1
Layout1
 70
         0
 71
         0
 10
0.0
 20
0.0
 11
0.0
 21
0.0
 12
0.0
 22
0.0
 32
0.0
 14
0.0
 24
0.0
 34
0.0
 15
0.0
 25
0.0
 35
0.0
146
0.0
 13
0.0
 23
0.0
 33
0.0
 16
0.0
 26
0.0
 36
0.0
 17
0.0
 27
0.0
 37
0.0
 76
         0
330
B
331
0
345
0
346
0
  0
DICTIONARY
  5
1E
102
{ACAD_REACTORS
330
19
102
}
100
AcDbDictionary
280
         0
281
         1
  3
Layout1
350
21
  3
Model
350
20
  0
DICTIONARY
  5
22
102
{ACAD_REACTORS
330
19
102
}
100
AcDbDictionary
280
         0
281
         1
  0
WIPEOUTVARIABLES
  5
23
100
AcDbWipeoutVariables
 70
         1
  0
ENDSEC
  0
EOF
