  0
SECTION
  2
HEADER
  9
$ACADVER
  1
AC1015
  9
$ACADMAINTVER
 70
         6
  9
$DWGCODEPAGE
  3
ANSI_1252
  9
$INSBASE
 10
0.0
 20
0.0
 30
0.0
  9
$EXTMIN
 10
-0.93969262
 20
-0.98480775
 30
0.0
  9
$EXTMAX
 10
13.0
 20
12.98480775
 30
0.0
  9
$LIMMIN
 10
0.0
 20
0.0
  9
$LIMMAX
 10
0.0
 20
0.0
  9
$ORTHOMODE
 70
         0
  9
$REGENMODE
 70
         1
  9
$FILLMODE
 70
         1
  9
$QTEXTMODE
 70
         0
  9
$MIRRTEXT
 70
         1
  9
$LTSCALE
 40
5.0
  9
$ATTMODE
 70
         1
  9
$TEXTSIZE
 40
0.2
  9
$TRACEWID
 40
0.05
  9
$TEXTSTYLE
  7
Standard
  9
$CLAYER
  8
0
  9
$CELTYPE
  6
Continuous
  9
$CECOLOR
 62
       256
  9
$CELTSCALE
 40
1.0
  9
$DISPSILH
 70
         0
  9
$DIMSCALE
 40
1.0
  9
$DIMASZ
 40
0.18
  9
$DIMEXO
 40
0.0625
  9
$DIMDLI
 40
0.38
  9
$DIMRND
 40
0.0
  9
$DIMDLE
 40
0.0
  9
$DIMEXE
 40
0.18
  9
$DIMTP
 40
0.0
  9
$DIMTM
 40
0.0
  9
$DIMTXT
 40
0.18
  9
$DIMCEN
 40
0.09
  9
$DIMTSZ
 40
0.0
  9
$DIMTOL
 70
         0
  9
$DIMLIM
 70
         0
  9
$DIMTIH
 70
         1
  9
$DIMTOH
 70
         1
  9
$DIMSE1
 70
         0
  9
$DIMSE2
 70
         0
  9
$DIMTAD
 70
         0
  9
$DIMZIN
 70
         0
  9
$DIMBLK
  1

  9
$DIMASO
 70
         1
  9
$DIMSHO
 70
         1
  9
$DIMPOST
  1

  9
$DIMAPOST
  1

  9
$DIMALT
 70
         0
  9
$DIMALTD
 70
         2
  9
$DIMALTF
 40
25.4
  9
$DIMLFAC
 40
1.0
  9
$DIMTOFL
 70
         0
  9
$DIMTVP
 40
0.0
  9
$DIMTIX
 70
         0
  9
$DIMSOXD
 70
         0
  9
$DIMSAH
 70
         0
  9
$DIMBLK1
  1

  9
$DIMBLK2
  1

  9
$DIMSTYLE
  2
Standard
  9
$DIMCLRD
 70
         0
  9
$DIMCLRE
 70
         0
  9
$DIMCLRT
 70
         0
  9
$DIMTFAC
 40
1.0
  9
$DIMGAP
 40
0.09
  9
$DIMJUST
 70
         0
  9
$DIMSD1
 70
         0
  9
$DIMSD2
 70
         0
  9
$DIMTOLJ
 70
         1
  9
$DIMTZIN
 70
         0
  9
$DIMALTZ
 70
         0
  9
$DIMALTTZ
 70
         0
  9
$DIMUPT
 70
         0
  9
$DIMDEC
 70
         4
  9
$DIMTDEC
 70
         4
  9
$DIMALTU
 70
         2
  9
$DIMALTTD
 70
         2
  9
$DIMTXSTY
  7
Standard
  9
$DIMAUNIT
 70
         0
  9
$DIMADEC
 70
         0
  9
$DIMALTRND
 40
0.0
  9
$DIMAZIN
 70
         0
  9
$DIMDSEP
 70
         0
  9
$DIMATFIT
 70
         3
  9
$DIMFRAC
 70
         0
  9
$DIMLDRBLK
  1

  9
$DIMLUNIT
 70
         2
  9
$DIMLWD
 70
         0
  9
$DIMLWE
 70
         0
  9
$DIMTMOVE
 70
         0
  9
$LUNITS
 70
         2
  9
$LUPREC
 70
         4
  9
$SKETCHINC
 40
0.1
  9
$FILLETRAD
 40
0.0
  9
$AUNITS
 70
         0
  9
$AUPREC
 70
         0
  9
$MENU
  1
acad
  9
$ELEVATION
 40
0.0
  9
$PELEVATION
 40
0.0
  9
$THICKNESS
 40
0.0
  9
$LIMCHECK
 70
         0
  9
$CHAMFERA
 40
0.0
  9
$CHAMFERB
 40
0.0
  9
$CHAMFERC
 40
0.0
  9
$CHAMFERD
 40
0.0
  9
$SKPOLY
 70
         0
  9
$TDCREATE
 40
2460903.606250000
  9
$TDUCREATE
 40
0.000000000
  9
$TDUPDATE
 40
2460903.606250000
  9
$TDUUPDATE
 40
0.000000000
  9
$TDINDWG
 40
0.0000000000
  9
$TDUSRTIMER
 40
0.0000000000
  9
$USRTIMER
 70
         1
  9
$ANGBASE
 50
0.0
  9
$ANGDIR
 70
         0
  9
$PDMODE
 70
         0
  9
$PDSIZE
 40
0.0
  9
$PLINEWID
 40
0.0
  9
$SPLFRAME
 70
         0
  9
$SPLINETYPE
 70
         6
  9
$SPLINESEGS
 70
         8
  9
$HANDSEED
  5
1D2
  9
$SURFTAB1
 70
         6
  9
$SURFTAB2
 70
         6
  9
$SURFTYPE
 70
         6
  9
$SURFU
 70
         6
  9
$SURFV
 70
         6
  9
$UCSBASE
  2

  9
$UCSNAME
  2

  9
$UCSORG
 10
0.0
 20
0.0
 30
0.0
  9
$UCSXDIR
 10
1.0
 20
0.0
 30
0.0
  9
$UCSYDIR
 10
0.0
 20
1.0
 30
0.0
  9
$UCSORTHOREF
  2

  9
$UCSORTHOVIEW
 70
         0
  9
$UCSORGTOP
 10
0.0
 20
0.0
 30
0.0
  9
$UCSORGBOTTOM
 10
0.0
 20
0.0
 30
0.0
  9
$UCSORGLEFT
 10
0.0
 20
0.0
 30
0.0
  9
$UCSORGRIGHT
 10
0.0
 20
0.0
 30
0.0
  9
$UCSORGFRONT
 10
0.0
 20
0.0
 30
0.0
  9
$UCSORGBACK
 10
0.0
 20
0.0
 30
0.0
  9
$PUCSBASE
  2

  9
$PUCSNAME
  2

  9
$PUCSORG
 10
0.0
 20
0.0
 30
0.0
  9
$PUCSXDIR
 10
1.0
 20
0.0
 30
0.0
  9
$PUCSYDIR
 10
0.0
 20
1.0
 30
0.0
  9
$PUCSORTHOREF
  2

  9
$PUCSORTHOVIEW
 70
         0
  9
$PUCSORGTOP
 10
0.0
 20
0.0
 30
0.0
  9
$PUCSORGBOTTOM
 10
0.0
 20
0.0
 30
0.0
  9
$PUCSORGLEFT
 10
0.0
 20
0.0
 30
0.0
  9
$PUCSORGRIGHT
 10
0.0
 20
0.0
 30
0.0
  9
$PUCSORGFRONT
 10
0.0
 20
0.0
 30
0.0
  9
$PUCSORGBACK
 10
0.0
 20
0.0
 30
0.0
  9
$USERI1
 70
         0
  9
$USERI2
 70
         0
  9
$USERI3
 70
         0
  9
$USERI4
 70
         0
  9
$USERI5
 70
         0
  9
$USERR1
 40
0.0
  9
$USERR2
 40
0.0
  9
$USERR3
 40
0.0
  9
$USERR4
 40
0.0
  9
$USERR5
 40
0.0
  9
$WORLDVIEW
 70
         1
  9
$SHADEDGE
 70
         3
  9
$SHADEDIF
 70
        70
  9
$TILEMODE
 70
         1
  9
$MAXACTVP
 70
        16
  9
$PINSBASE
 10
0.0
 20
0.0
 30
0.0
  9
$PLIMCHECK
 70
         0
  9
$PEXTMIN
 10
1.0000000000E+20
 20
1.0000000000E+20
 30
1.0000000000E+20
  9
$PEXTMAX
 10
-1.0000000000E+20
 20
-1.0000000000E+20
 30
-1.0000000000E+20
  9
$PLIMMIN
 10
0.0
 20
0.0
  9
$PLIMMAX
 10
12.0
 20
9.0
  9
$UNITMODE
 70
         0
  9
$VISRETAIN
 70
         0
  9
$PLINEGEN
 70
         1
  9
$PSLTSCALE
 70
         0
  9
$TREEDEPTH
 70
      3020
  9
$CMLSTYLE
  2
Standard
  9
$CMLJUST
 70
         0
  9
$CMLSCALE
 40
1.0
  9
$PROXYGRAPHICS
 70
         0
  9
$MEASUREMENT
 70
         0
  9
$CELWEIGHT
370
         0
  9
$ENDCAPS
280
         0
  9
$JOINSTYLE
280
         0
  9
$LWDISPLAY
290
         0
  9
$INSUNITS
 70
         0
  9
$HYPERLINKBASE
  1

  9
$XEDIT
290
         1
  9
$CEPSNTYPE
380
         0
  9
$PSTYLEMODE
290
         1
  9
$FINGERPRINTGUID
  2

  9
$VERSIONGUID
  2

  9
$EXTNAMES
290
         1
  9
$PSVPSCALE
 40
0.0
  0
ENDSEC
  0
SECTION
  2
CLASSES
  0
CLASS
  1
LWPOLYLINE
  2
AcDbPolyline
  3
AutoCAD 2000
 90
    32768
280
         0
281
         1
  0
CLASS
  1
IMAGE
  2
AcDbRasterImage
  3
ISM
 90
    32895
280
         0
281
         1
  0
CLASS
  1
OLE2FRAME
  2
AcDbOle2Frame
  3
AutoCAD 2000
 90
    32768
280
         0
281
         1
  0
CLASS
  1
HATCH
  2
AcDbHatch
  3
AutoCAD 2000
 90
    32768
280
         0
281
         1
  0
CLASS
  1
DICTIONARYVAR
  2
AcDbDictionaryVar
  3
AutoCAD 2000
 90
    32768
280
         0
281
         0
  0
CLASS
  1
RASTERVARIABLES
  2
AcDbRasterVariables
  3
ISM
 90
    32768
280
         0
281
         0
  0
CLASS
  1
IMAGEDEF
  2
AcDbRasterImageDef
  3
ISM
 90
    32768
280
         0
281
         0
  0
CLASS
  1
IMAGEDEF_REACTOR
  2
AcDbRasterImageDefReactor
  3
ISM
 90
    32769
280
         0
281
         0
  0
CLASS
  1
IDBUFFER
  2
AcDbIdBuffer
  3
AutoCAD 2000
 90
    32768
280
         0
281
         0
  0
CLASS
  1
SPATIAL_FILTER
  2
AcDbSpatialFilter
  3
AutoCAD 2000
 90
    32768
280
         0
281
         0
  0
CLASS
  1
XRECORD
  2
AcDbXrecord
  3
AutoCAD 2000
 90
    32768
280
         0
281
         0
  0
CLASS
  1
SORTENTSTABLE
  2
AcDbSortentsTable
  3
AutoCAD 2000
 90
    32768
280
         0
281
         0
  0
CLASS
  1
LAYER_INDEX
  2
AcDbLayerIndex
  3
AutoCAD 2000
 90
    32768
280
         0
281
         0
  0
CLASS
  1
SPATIAL_INDEX
  2
AcDbSpatialIndex
  3
AutoCAD 2000
 90
    32768
280
         0
281
         0
  0
CLASS
  1
OBJECT_PTR
  2
CAseDLPNTableRecord
  3
"ASE-LPNTableRecord"
 90
    32769
280
         0
281
         0
  0
CLASS
  1
LAYOUT
  2
AcDbLayout
  3
AutoCAD 2000
 90
        0
280
         0
281
         0
  0
CLASS
  1
PLOTSETTINGS
  2
AcDbPlotSettings
  3
AutoCAD 2000
 90
    32768
280
         0
281
         0
  0
CLASS
  1
ACDBDICTIONARYWDFLT
  2
AcDbDictionaryWithDefault
  3
AutoCAD 2000
 90
        0
280
         0
281
         0
  0
CLASS
  1
ACDBPLACEHOLDER
  2
AcDbPlaceHolder
  3
AutoCAD 2000
 90
        0
280
         0
281
         0
  0
CLASS
  1
VBA_PROJECT
  2
AcDbVbaProject
  3
acadvba
 90
    32768
280
         0
281
         0
  0
CLASS
  1
WIPEOUT
  2
AcDbWipeout
  3
WipeOut|AutoCAD Express Tool|expresstools@autodesk.com
 90
    32895
280
         0
281
         1
  0
CLASS
  1
WIPEOUTVARIABLES
  2
AcDbWipeoutVariables
  3
WipeOut|AutoCAD Express Tool|expresstools@autodesk.com
 90
        0
280
         0
281
         0
  0
CLASS
  1
RTEXT
  2
RText
  3
RText|AutoCAD Express Tool|expresstools@autodesk.com
 90
    32768
280
         0
281
         1
  0
CLASS
  1
ARCALIGNEDTEXT
  2
AcDbArcAlignedText
  3
ATEXT|AutoCAD Express Tool|expresstools@autodesk.com
 90
    32768
280
         0
281
         1
  0
ENDSEC
  0
SECTION
  2
TABLES
  0
TABLE
  2
VPORT
  5
7
100
AcDbSymbolTable
 70
         1
  0
VPORT
  5
15
100
AcDbSymbolTableRecord
100
AcDbViewportTableRecord
  2
*ACTIVE
 70
         0
 10
0.0
 20
0.0
 11
1.0
 21
1.0
 12
6.591288
 22
4.579184
 13
0.0
 23
0.0
 14
1.0
 24
1.0
 15
0.0
 25
0.0
 16
0.0
 26
0.0
 36
1.0
 17
0.0
 27
0.0
 37
0.0
 40
9.158369
 41
0.688564
 42
50.0
 43
0.0
 44
0.0
 50
0.0
 51
0.0
 71
         0
 72
       100
 73
         1
 74
         1
 75
         0
 76
         0
 77
         0
 78
         0
281
         0
 65
         0
110
0.0
120
0.0
130
0.0
111
1.0
121
0.0
131
0.0
112
0.0
122
1.0
132
0.0
345
0
346
0
 79
         0
146
0.0
  0
ENDTAB
  0
TABLE
  2
LTYPE
  5
4
100
AcDbSymbolTable
 70
        13
  0
LTYPE
  5
11
100
AcDbSymbolTableRecord
100
AcDbLinetypeTableRecord
  2
ByBlock
 70
        64
  3

 72
        65
 73
         0
 40
0.0
  0
LTYPE
  5
12
100
AcDbSymbolTableRecord
100
AcDbLinetypeTableRecord
  2
ByLayer
 70
        64
  3

 72
        65
 73
         0
 40
0.0
  0
LTYPE
  5
13
100
AcDbSymbolTableRecord
100
AcDbLinetypeTableRecord
  2
Continuous
 70
        64
  3
Solid line
 72
        65
 73
         0
 40
0.0
  0
LTYPE
  5
25
100
AcDbSymbolTableRecord
100
AcDbLinetypeTableRecord
  2
Dotted
 70
        64
  3
Dotted
 72
        65
 73
         2
 40
0.125
 49
0.0
 74
         0
 49
-0.125
 74
         0
  0
LTYPE
  5
26
100
AcDbSymbolTableRecord
100
AcDbLinetypeTableRecord
  2
Center
 70
        64
  3
Center
 72
        65
 73
         4
 40
0.7699999809
 49
0.5
 74
         0
 49
-0.0724999979
 74
         0
 49
0.125
 74
         0
 49
-0.0724999979
 74
         0
  0
LTYPE
  5
27
100
AcDbSymbolTableRecord
100
AcDbLinetypeTableRecord
  2
Dashed
 70
        64
  3
Dashed
 72
        65
 73
         2
 40
0.375
 49
0.25
 74
         0
 49
-0.125
 74
         0
  0
LTYPE
  5
28
100
AcDbSymbolTableRecord
100
AcDbLinetypeTableRecord
  2
Hidden
 70
        64
  3
Hidden
 72
        65
 73
         2
 40
0.1974999905
 49
0.125
 74
         0
 49
-0.0724999979
 74
         0
  0
LTYPE
  5
29
100
AcDbSymbolTableRecord
100
AcDbLinetypeTableRecord
  2
Phantom
 70
        64
  3
Phantom
 72
        65
 73
         6
 40
0.9674999714
 49
0.5
 74
         0
 49
-0.0724999979
 74
         0
 49
0.125
 74
         0
 49
-0.0724999979
 74
         0
 49
0.125
 74
         0
 49
-0.0724999979
 74
         0
  0
LTYPE
  5
2A
100
AcDbSymbolTableRecord
100
AcDbLinetypeTableRecord
  2
Dashdot
 70
        64
  3
Dashdot
 72
        65
 73
         4
 40
0.6762499809
 49
0.5
 74
         0
 49
-0.0724999979
 74
         0
 49
0.03125
 74
         0
 49
-0.0724999979
 74
         0
  0
LTYPE
  5
2B
100
AcDbSymbolTableRecord
100
AcDbLinetypeTableRecord
  2
Border
 70
        64
  3
Border
 72
        65
 73
         6
 40
1.2487499714
 49
0.5
 74
         0
 49
-0.0724999979
 74
         0
 49
0.5
 74
         0
 49
-0.0724999979
 74
         0
 49
0.03125
 74
         0
 49
-0.0724999979
 74
         0
  0
LTYPE
  5
2C
100
AcDbSymbolTableRecord
100
AcDbLinetypeTableRecord
  2
Divide
 70
        64
  3
Divide
 72
        65
 73
         6
 40
0.7799999714
 49
0.5
 74
         0
 49
-0.0724999979
 74
         0
 49
0.03125
 74
         0
 49
-0.0724999979
 74
         0
 49
0.03125
 74
         0
 49
-0.0724999979
 74
         0
  0
LTYPE
  5
2D
100
AcDbSymbolTableRecord
100
AcDbLinetypeTableRecord
  2
Cutting
 70
        64
  3
Cutting
 72
        65
 73
         6
 40
1.4674999714
 49
1.0
 74
         0
 49
-0.0724999979
 74
         0
 49
0.125
 74
         0
 49
-0.0724999979
 74
         0
 49
0.125
 74
         0
 49
-0.0724999979
 74
         0
  0
LTYPE
  5
2E
100
AcDbSymbolTableRecord
100
AcDbLinetypeTableRecord
  2
Stitch
 70
        64
  3
Stitch
 72
        65
 73
         2
 40
0.1449999958
 49
0.0724999979
 74
         0
 49
-0.0724999979
 74
         0
  0
ENDTAB
  0
TABLE
  2
LAYER
  5
2
100
AcDbSymbolTable
 70
        42
  0
LAYER
  5
14
100
AcDbSymbolTableRecord
100
AcDbLayerTableRecord
  2
0
 70
         0
 62
         7
  6
Continuous
290
         1
370
        -3
390
1D
  0
LAYER
  5
2F
100
AcDbSymbolTableRecord
100
AcDbLayerTableRecord
  2
DF_COMP
 70
         0
 62
         4
  6
Continuous
290
         1
370
         2
390
1F
  0
LAYER
  5
30
100
AcDbSymbolTableRecord
100
AcDbLayerTableRecord
  2
1_250BIT_500DEP
 70
         0
 62
         5
  6
Continuous
290
         1
370
         2
390
1F
  0
LAYER
  5
31
100
AcDbSymbolTableRecord
100
AcDbLayerTableRecord
  2
2_250BIT_250DEP
 70
         0
 62
         3
  6
Continuous
290
         1
370
         2
390
1F
  0
LAYER
  5
32
100
AcDbSymbolTableRecord
100
AcDbLayerTableRecord
  2
3_250BIT_500TAB
 70
         0
 62
         5
  6
Continuous
290
         1
370
         2
390
1F
  0
LAYER
  5
33
100
AcDbSymbolTableRecord
100
AcDbLayerTableRecord
  2
4_250BIT_250TAB
 70
         0
 62
         5
  6
Continuous
290
         1
370
         2
390
1F
  0
LAYER
  5
34
100
AcDbSymbolTableRecord
100
AcDbLayerTableRecord
  2
5_250BIT_250SPEC
 70
         0
 62
         5
  6
Continuous
290
         1
370
         2
390
1F
  0
LAYER
  5
35
100
AcDbSymbolTableRecord
100
AcDbLayerTableRecord
  2
6_125BIT_500DEP
 70
         0
 62
         5
  6
Continuous
290
         1
370
         2
390
1F
  0
LAYER
  5
36
100
AcDbSymbolTableRecord
100
AcDbLayerTableRecord
  2
7_VCARVE_BIT
 70
         0
 62
         5
  6
Continuous
290
         1
370
         2
390
1F
  0
LAYER
  5
37
100
AcDbSymbolTableRecord
100
AcDbLayerTableRecord
  2
8_250BIT_500OUTLINE
 70
         0
 62
         5
  6
Continuous
290
         1
370
         2
390
1F
  0
LAYER
  5
38
100
AcDbSymbolTableRecord
100
AcDbLayerTableRecord
  2
PLASTICS
 70
         0
 62
        37
  6
Continuous
290
         1
370
         2
390
1F
  0
LAYER
  5
39
100
AcDbSymbolTableRecord
100
AcDbLayerTableRecord
  2
7A_1250BALL
 70
         0
 62
         5
  6
Continuous
290
         1
370
         2
390
1F
  0
LAYER
  5
3A
100
AcDbSymbolTableRecord
100
AcDbLayerTableRecord
  2
CONSTRUCTION
 70
         0
 62
         7
  6
Continuous
290
         1
370
         0
390
1F
  0
LAYER
  5
3B
100
AcDbSymbolTableRecord
100
AcDbLayerTableRecord
  2
0_WOOD
 70
         0
 62
         5
  6
Continuous
290
         1
370
         2
390
1F
  0
LAYER
  5
3C
100
AcDbSymbolTableRecord
100
AcDbLayerTableRecord
  2
Z_TATTOOMYSTIQUE
 70
         0
 62
        37
  6
Continuous
290
         1
370
         2
390
1F
  0
LAYER
  5
3D
100
AcDbSymbolTableRecord
100
AcDbLayerTableRecord
  2
Z_ROLLRGIRLZ
 70
         0
 62
        37
  6
Continuous
290
         1
370
         2
390
1F
  0
LAYER
  5
3E
100
AcDbSymbolTableRecord
100
AcDbLayerTableRecord
  2
Z_MISSADV
 70
         0
 62
         5
  6
Continuous
290
         1
370
         2
390
1F
  0
LAYER
  5
3F
100
AcDbSymbolTableRecord
100
AcDbLayerTableRecord
  2
Z_JUPITERCRUSH
 70
         0
 62
        37
  6
Continuous
290
         1
370
         2
390
1F
  0
LAYER
  5
40
100
AcDbSymbolTableRecord
100
AcDbLayerTableRecord
  2
Z_MODULAR
 70
         0
 62
         5
  6
Continuous
290
         1
370
         2
390
1F
  0
LAYER
  5
41
100
AcDbSymbolTableRecord
100
AcDbLayerTableRecord
  2
Z_GENERIC
 70
         0
 62
        27
  6
Continuous
290
         1
370
         2
390
1F
  0
LAYER
  5
42
100
AcDbSymbolTableRecord
100
AcDbLayerTableRecord
  2
UNASSIGNED
 70
         0
 62
         7
  6
Continuous
290
         1
370
         0
390
1F
  0
LAYER
  5
43
100
AcDbSymbolTableRecord
100
AcDbLayerTableRecord
  2
0
 70
         0
 62
        42
  6
Continuous
290
         1
370
         2
390
1F
  0
LAYER
  5
44
100
AcDbSymbolTableRecord
100
AcDbLayerTableRecord
  2
LAYER_1
 70
         0
 62
        42
  6
Continuous
290
         1
370
         2
390
1F
  0
LAYER
  5
45
100
AcDbSymbolTableRecord
100
AcDbLayerTableRecord
  2
LAYER_3
 70
         0
 62
         4
  6
Continuous
290
         1
370
         2
390
1F
  0
LAYER
  5
46
100
AcDbSymbolTableRecord
100
AcDbLayerTableRecord
  2
LAYER_2
 70
         0
 62
        42
  6
Continuous
290
         1
370
         2
390
1F
  0
LAYER
  5
47
100
AcDbSymbolTableRecord
100
AcDbLayerTableRecord
  2
X_POSTS
 70
         0
 62
         4
  6
Continuous
290
         1
370
         2
390
1F
  0
LAYER
  5
48
100
AcDbSymbolTableRecord
100
AcDbLayerTableRecord
  2
X_THUMPER
 70
         0
 62
         4
  6
Continuous
290
         1
370
         2
390
1F
  0
LAYER
  5
49
100
AcDbSymbolTableRecord
100
AcDbLayerTableRecord
  2
X_STANDUPS
 70
         0
 62
         4
  6
Continuous
290
         1
370
         2
390
1F
  0
LAYER
  5
4A
100
AcDbSymbolTableRecord
100
AcDbLayerTableRecord
  2
X_DROPS
 70
         0
 62
         4
  6
Continuous
290
         1
370
         2
390
1F
  0
LAYER
  5
4B
100
AcDbSymbolTableRecord
100
AcDbLayerTableRecord
  2
X_SMPOSTS
 70
         0
 62
         4
  6
Continuous
290
         1
370
         2
390
1F
  0
LAYER
  5
4C
100
AcDbSymbolTableRecord
100
AcDbLayerTableRecord
  2
X_ROLLOVER
 70
         0
 62
         4
  6
Continuous
290
         1
370
         2
390
1F
  0
LAYER
  5
4D
100
AcDbSymbolTableRecord
100
AcDbLayerTableRecord
  2
X_WALLS
 70
         0
 62
         4
  6
Continuous
290
         1
370
         2
390
1F
  0
LAYER
  5
4E
100
AcDbSymbolTableRecord
100
AcDbLayerTableRecord
  2
Z0_BOTCOMP
 70
         0
 62
         4
  6
Continuous
290
         1
370
         2
390
1F
  0
LAYER
  5
4F
100
AcDbSymbolTableRecord
100
AcDbLayerTableRecord
  2
Z0_TOPCOMP
 70
         0
 62
         6
  6
Continuous
290
         1
370
         2
390
1F
  0
LAYER
  5
50
100
AcDbSymbolTableRecord
100
AcDbLayerTableRecord
  2
Z0_CUT250
 70
         0
 62
         4
  6
Continuous
290
         1
370
         2
390
1F
  0
LAYER
  5
51
100
AcDbSymbolTableRecord
100
AcDbLayerTableRecord
  2
Z0_CUT500
 70
         0
 62
         4
  6
Continuous
290
         1
370
         2
390
1F
  0
LAYER
  5
52
100
AcDbSymbolTableRecord
100
AcDbLayerTableRecord
  2
Z0_PLASTICS
 70
         0
 62
        37
  6
Continuous
290
         1
370
         2
390
1F
  0
LAYER
  5
53
100
AcDbSymbolTableRecord
100
AcDbLayerTableRecord
  2
Z0_RUBBER
 70
         0
 62
         4
  6
Continuous
290
         1
370
         2
390
1F
  0
LAYER
  5
54
100
AcDbSymbolTableRecord
100
AcDbLayerTableRecord
  2
Z0_ZONES
 70
         0
 62
         6
  6
Continuous
290
         1
370
         2
390
1F
  0
LAYER
  5
55
100
AcDbSymbolTableRecord
100
AcDbLayerTableRecord
  2
Z0_WOODOUTLINE
 70
         0
 62
         5
  6
Continuous
290
         1
370
         2
390
1F
  0
LAYER
  5
56
100
AcDbSymbolTableRecord
100
AcDbLayerTableRecord
  2
Z0_LOWERTHIRD
 70
         0
 62
         4
  6
Continuous
290
         1
370
         2
390
1F
  0
LAYER
  5
57
100
AcDbSymbolTableRecord
100
AcDbLayerTableRecord
  2
PART_A
 70
         0
 62
         4
  6
Continuous
290
         1
370
         2
390
1F
  0
ENDTAB
  0
TABLE
  2
STYLE
  5
3
100
AcDbSymbolTable
 70
         2
  0
STYLE
  5
17
100
AcDbSymbolTableRecord
100
AcDbTextStyleTableRecord
  2
Standard
 70
         0
 40
0.0
 41
1.0
 50
0.0
 71
         0
 42
0.0
  3
txt
  4

  0
STYLE
  5
24
100
AcDbSymbolTableRecord
100
AcDbTextStyleTableRecord
  2
Plotter
 70
         0
 40
0.0
 41
0.98
 50
0.0
 71
         0
 42
0.0
  3
SIMPLEX
  4

  0
ENDTAB
  0
TABLE
  2
VIEW
  5
5
100
AcDbSymbolTable
 70
         0
  0
ENDTAB
  0
TABLE
  2
UCS
  5
6
100
AcDbSymbolTable
 70
         0
  0
ENDTAB
  0
TABLE
  2
APPID
  5
8
100
AcDbSymbolTable
 70
         1
  0
APPID
  5
16
100
AcDbSymbolTableRecord
100
AcDbRegAppTableRecord
  2
ACAD
 70
         0
  0
ENDTAB
  0
TABLE
  2
DIMSTYLE
  5
9
100
AcDbSymbolTable
 70
         1
100
AcDbDimStyleTable
 71
         0
  0
DIMSTYLE
105
18
100
AcDbSymbolTableRecord
100
AcDbDimStyleTableRecord
  2
Standard
 70
         0
  3

  4

 40
1.0
 41
0.18
 42
0.0625
 43
0.38
 44
0.18
 45
0.0
 46
0.0
 47
0.0
 48
0.0
 71
         0
 72
         0
 73
         1
 74
         1
 75
         0
 76
         0
 77
         0
 78
         0
 79
         0
140
0.18
141
0.09
142
0.0
143
25.4
144
1.0
145
0.0
146
1.0
147
0.09
148
0.0
170
         0
171
         2
172
         0
173
         0
174
         0
175
         0
176
         0
177
         0
178
         0
179
         0
271
         4
272
         4
273
         2
274
         2
275
         0
276
         0
277
         2
278
        46
279
         0
280
         0
281
         0
282
         0
283
         1
284
         0
285
         0
286
         0
288
         0
340
17
341
0
342
0
343
0
344
0
371
        -2
372
        -2
  0
ENDTAB
  0
TABLE
  2
BLOCK_RECORD
  5
1
100
AcDbSymbolTable
 70
         0
  0
BLOCK_RECORD
  5
A
100
AcDbSymbolTableRecord
100
AcDbBlockTableRecord
  2
*MODEL_SPACE
340
20
  0
BLOCK_RECORD
  5
B
100
AcDbSymbolTableRecord
100
AcDbBlockTableRecord
  2
*PAPER_SPACE
340
21
  0
ENDTAB
  0
ENDSEC
  0
SECTION
  2
BLOCKS
  0
BLOCK
  5
D
100
AcDbEntity
  8
0
100
AcDbBlockBegin
  2
*MODEL_SPACE
 70
         0
 10
0.0
 20
0.0
 30
0.0
  3
*MODEL_SPACE
  1

  0
ENDBLK
  5
E
100
AcDbEntity
  8
0
100
AcDbBlockEnd
  0
BLOCK
  5
F
100
AcDbEntity
 67
         1
  8
0
100
AcDbBlockBegin
  2
*PAPER_SPACE
 70
         0
 10
0.0
 20
0.0
 30
0.0
  3
*PAPER_SPACE
  1

  0
ENDBLK
  5
10
100
AcDbEntity
 67
         1
  8
0
100
AcDbBlockEnd
  0
ENDSEC
  0
SECTION
  2
ENTITIES
  0
LINE
  5
58
102
{ACAD_REACTORS
330
6C
102
}
100
AcDbEntity
  8
Z0_TOPCOMP
370
         5
  6
Continuous
 62
         6
100
AcDbLine
 10
15.8235219166
 20
22.2287092819
 30
0.0
 11
16.2735219166
 21
22.2287092819
 31
0.0
  0
LINE
  5
59
102
{ACAD_REACTORS
330
6C
102
}
100
AcDbEntity
  8
Z0_TOPCOMP
370
         5
  6
Continuous
 62
         6
100
AcDbLine
 10
16.2735219166
 20
22.6287092819
 30
0.0
 11
15.8235219166
 21
22.6287092819
 31
0.0
  0
LINE
  5
5A
102
{ACAD_REACTORS
330
6C
102
}
100
AcDbEntity
  8
Z0_TOPCOMP
370
         5
  6
Continuous
 62
         6
100
AcDbLine
 10
15.9235219166
 20
21.9287092819
 30
0.0
 11
15.8235219166
 21
21.9287092819
 31
0.0
  0
LINE
  5
5B
102
{ACAD_REACTORS
330
6C
102
}
100
AcDbEntity
  8
Z0_TOPCOMP
370
         5
  6
Continuous
 62
         6
100
AcDbLine
 10
15.9235219166
 20
22.9287092819
 30
0.0
 11
15.9235219166
 21
21.9287092819
 31
0.0
  0
LINE
  5
5C
102
{ACAD_REACTORS
330
6C
102
}
100
AcDbEntity
  8
Z0_TOPCOMP
370
         5
  6
Continuous
 62
         6
100
AcDbLine
 10
15.8235219166
 20
21.9287092819
 30
0.0
 11
15.8235219166
 21
22.9287092819
 31
0.0
  0
LINE
  5
5D
102
{ACAD_REACTORS
330
6C
102
}
100
AcDbEntity
  8
Z0_TOPCOMP
370
         5
  6
Continuous
 62
         6
100
AcDbLine
 10
15.9797719166
 20
21.8662092819
 30
0.0
 11
15.9797719166
 21
21.8662092819
 31
0.0
  0
LINE
  5
5E
102
{ACAD_REACTORS
330
6C
102
}
100
AcDbEntity
  8
Z0_TOPCOMP
370
         5
  6
Continuous
 62
         6
100
AcDbLine
 10
15.9797719166
 20
22.9912092819
 30
0.0
 11
15.9797719166
 21
22.9912092819
 31
0.0
  0
LINE
  5
5F
102
{ACAD_REACTORS
330
6C
102
}
100
AcDbEntity
  8
Z0_TOPCOMP
370
         5
  6
Continuous
 62
         6
100
AcDbLine
 10
15.8235219166
 20
22.9287092819
 30
0.0
 11
15.9235219166
 21
22.9287092819
 31
0.0
  0
LINE
  5
60
102
{ACAD_REACTORS
330
6C
102
}
100
AcDbEntity
  8
Z0_TOPCOMP
370
         5
  6
Continuous
 62
         6
100
AcDbLine
 10
15.8235219166
 20
22.6287092819
 30
0.0
 11
15.8235219166
 21
22.2287092819
 31
0.0
  0
LINE
  5
61
102
{ACAD_REACTORS
330
6C
102
}
100
AcDbEntity
  8
Z0_TOPCOMP
370
         5
  6
Continuous
 62
         6
100
AcDbLine
 10
15.9797719166
 20
22.3662092819
 30
0.0
 11
15.9797719166
 21
22.3662092819
 31
0.0
  0
LINE
  5
62
102
{ACAD_REACTORS
330
6C
102
}
100
AcDbEntity
  8
Z0_TOPCOMP
370
         5
  6
Continuous
 62
         6
100
AcDbLine
 10
16.2735219166
 20
22.3187092819
 30
0.0
 11
16.3735219166
 21
22.3187092819
 31
0.0
  0
LINE
  5
63
102
{ACAD_REACTORS
330
6C
102
}
100
AcDbEntity
  8
Z0_TOPCOMP
370
         5
  6
Continuous
 62
         6
100
AcDbLine
 10
16.3735219166
 20
22.5387092819
 30
0.0
 11
16.2735219166
 21
22.5387092819
 31
0.0
  0
LINE
  5
64
102
{ACAD_REACTORS
330
6C
102
}
100
AcDbEntity
  8
Z0_TOPCOMP
370
         5
  6
Continuous
 62
         6
100
AcDbLine
 10
16.3735219166
 20
22.3187092819
 30
0.0
 11
16.3735219166
 21
22.5387092819
 31
0.0
  0
LINE
  5
65
102
{ACAD_REACTORS
330
6C
102
}
100
AcDbEntity
  8
Z0_TOPCOMP
370
         5
  6
Continuous
 62
         6
100
AcDbLine
 10
16.1672719166
 20
22.2287092819
 30
0.0
 11
16.2297719166
 21
22.2287092819
 31
0.0
  0
LINE
  5
66
102
{ACAD_REACTORS
330
6C
102
}
100
AcDbEntity
  8
Z0_TOPCOMP
370
         5
  6
Continuous
 62
         6
100
AcDbLine
 10
16.1672719166
 20
22.6287092819
 30
0.0
 11
16.1672719166
 21
22.2287092819
 31
0.0
  0
LINE
  5
67
102
{ACAD_REACTORS
330
6C
102
}
100
AcDbEntity
  8
Z0_TOPCOMP
370
         5
  6
Continuous
 62
         6
100
AcDbLine
 10
16.2297719166
 20
22.6287092819
 30
0.0
 11
16.1672719166
 21
22.6287092819
 31
0.0
  0
LINE
  5
68
102
{ACAD_REACTORS
330
6C
102
}
100
AcDbEntity
  8
Z0_TOPCOMP
370
         5
  6
Continuous
 62
         6
100
AcDbLine
 10
16.2297719166
 20
22.2287092819
 30
0.0
 11
16.2297719166
 21
22.6287092819
 31
0.0
  0
LINE
  5
69
102
{ACAD_REACTORS
330
6C
102
}
100
AcDbEntity
  8
Z0_TOPCOMP
370
         5
  6
Continuous
 62
         6
100
AcDbLine
 10
16.2735219166
 20
22.5387092819
 30
0.0
 11
16.2735219166
 21
22.3187092819
 31
0.0
  0
LINE
  5
6A
102
{ACAD_REACTORS
330
6C
102
}
100
AcDbEntity
  8
Z0_TOPCOMP
370
         5
  6
Continuous
 62
         6
100
AcDbLine
 10
16.2735219166
 20
22.2287092819
 30
0.0
 11
16.2735219166
 21
22.6287092819
 31
0.0
  0
LINE
  5
6B
102
{ACAD_REACTORS
330
6C
102
}
100
AcDbEntity
  8
Z0_TOPCOMP
370
         5
  6
Continuous
 62
         6
100
AcDbLine
 10
15.9797719166
 20
22.9912092819
 30
0.0
 11
15.9797719166
 21
22.9912092819
 31
0.0
  0
ARC
  5
6D
102
{ACAD_REACTORS
330
71
102
}
100
AcDbEntity
  8
Z0_CUT500
370
        25
  6
Continuous
 62
         5
100
AcDbCircle
 10
15.9797676383
 20
22.1161531196
 30
0.0
 40
0.25
100
AcDbArc
 50
180.0
 51
0.0
  0
LINE
  5
6E
102
{ACAD_REACTORS
330
71
102
}
100
AcDbEntity
  8
Z0_CUT500
370
        25
  6
Continuous
 62
         5
100
AcDbLine
 10
16.2297676383
 20
22.1161531196
 30
0.0
 11
16.2297676383
 21
22.7411531196
 31
0.0
  0
LINE
  5
6F
102
{ACAD_REACTORS
330
71
102
}
100
AcDbEntity
  8
Z0_CUT500
370
        25
  6
Continuous
 62
         5
100
AcDbLine
 10
15.7297676383
 20
22.7411531196
 30
0.0
 11
15.7297676383
 21
22.1161531196
 31
0.0
  0
ARC
  5
70
102
{ACAD_REACTORS
330
71
102
}
100
AcDbEntity
  8
Z0_CUT500
370
        25
  6
Continuous
 62
         5
100
AcDbCircle
 10
15.9797676383
 20
22.7411531196
 30
0.0
 40
0.25
100
AcDbArc
 50
0.0
 51
180.0
  0
CIRCLE
  5
72
100
AcDbEntity
  8
Z0_TOPCOMP
370
        25
  6
Continuous
 62
         6
100
AcDbCircle
 10
16.3392559012
 20
23.245157312
 30
0.0
 40
0.35
  0
CIRCLE
  5
73
100
AcDbEntity
  8
Z0_CUT500
370
        25
  6
Continuous
 62
         5
100
AcDbCircle
 10
2.0357440988
 20
24.8814118606
 30
0.0
 40
0.0825
  0
LINE
  5
74
102
{ACAD_REACTORS
330
88
102
}
100
AcDbEntity
  8
Z0_TOPCOMP
370
         5
  6
Continuous
 62
         6
100
AcDbLine
 10
2.5514780834
 20
23.864963831
 30
0.0
 11
2.1014780834
 21
23.864963831
 31
0.0
  0
LINE
  5
75
102
{ACAD_REACTORS
330
88
102
}
100
AcDbEntity
  8
Z0_TOPCOMP
370
         5
  6
Continuous
 62
         6
100
AcDbLine
 10
2.1014780834
 20
24.264963831
 30
0.0
 11
2.5514780834
 21
24.264963831
 31
0.0
  0
LINE
  5
76
102
{ACAD_REACTORS
330
88
102
}
100
AcDbEntity
  8
Z0_TOPCOMP
370
         5
  6
Continuous
 62
         6
100
AcDbLine
 10
2.4514780834
 20
23.564963831
 30
0.0
 11
2.5514780834
 21
23.564963831
 31
0.0
  0
LINE
  5
77
102
{ACAD_REACTORS
330
88
102
}
100
AcDbEntity
  8
Z0_TOPCOMP
370
         5
  6
Continuous
 62
         6
100
AcDbLine
 10
2.4514780834
 20
24.564963831
 30
0.0
 11
2.4514780834
 21
23.564963831
 31
0.0
  0
LINE
  5
78
102
{ACAD_REACTORS
330
88
102
}
100
AcDbEntity
  8
Z0_TOPCOMP
370
         5
  6
Continuous
 62
         6
100
AcDbLine
 10
2.5514780834
 20
23.564963831
 30
0.0
 11
2.5514780834
 21
24.564963831
 31
0.0
  0
LINE
  5
79
102
{ACAD_REACTORS
330
88
102
}
100
AcDbEntity
  8
Z0_TOPCOMP
370
         5
  6
Continuous
 62
         6
100
AcDbLine
 10
2.3952280834
 20
23.502463831
 30
0.0
 11
2.3952280834
 21
23.502463831
 31
0.0
  0
LINE
  5
7A
102
{ACAD_REACTORS
330
88
102
}
100
AcDbEntity
  8
Z0_TOPCOMP
370
         5
  6
Continuous
 62
         6
100
AcDbLine
 10
2.3952280834
 20
24.627463831
 30
0.0
 11
2.3952280834
 21
24.627463831
 31
0.0
  0
LINE
  5
7B
102
{ACAD_REACTORS
330
88
102
}
100
AcDbEntity
  8
Z0_TOPCOMP
370
         5
  6
Continuous
 62
         6
100
AcDbLine
 10
2.5514780834
 20
24.564963831
 30
0.0
 11
2.4514780834
 21
24.564963831
 31
0.0
  0
LINE
  5
7C
102
{ACAD_REACTORS
330
88
102
}
100
AcDbEntity
  8
Z0_TOPCOMP
370
         5
  6
Continuous
 62
         6
100
AcDbLine
 10
2.5514780834
 20
24.264963831
 30
0.0
 11
2.5514780834
 21
23.864963831
 31
0.0
  0
LINE
  5
7D
102
{ACAD_REACTORS
330
88
102
}
100
AcDbEntity
  8
Z0_TOPCOMP
370
         5
  6
Continuous
 62
         6
100
AcDbLine
 10
2.3952280834
 20
24.002463831
 30
0.0
 11
2.3952280834
 21
24.002463831
 31
0.0
  0
LINE
  5
7E
102
{ACAD_REACTORS
330
88
102
}
100
AcDbEntity
  8
Z0_TOPCOMP
370
         5
  6
Continuous
 62
         6
100
AcDbLine
 10
2.1014780834
 20
23.954963831
 30
0.0
 11
2.0014780834
 21
23.954963831
 31
0.0
  0
LINE
  5
7F
102
{ACAD_REACTORS
330
88
102
}
100
AcDbEntity
  8
Z0_TOPCOMP
370
         5
  6
Continuous
 62
         6
100
AcDbLine
 10
2.0014780834
 20
24.174963831
 30
0.0
 11
2.1014780834
 21
24.174963831
 31
0.0
  0
LINE
  5
80
102
{ACAD_REACTORS
330
88
102
}
100
AcDbEntity
  8
Z0_TOPCOMP
370
         5
  6
Continuous
 62
         6
100
AcDbLine
 10
2.0014780834
 20
23.954963831
 30
0.0
 11
2.0014780834
 21
24.174963831
 31
0.0
  0
LINE
  5
81
102
{ACAD_REACTORS
330
88
102
}
100
AcDbEntity
  8
Z0_TOPCOMP
370
         5
  6
Continuous
 62
         6
100
AcDbLine
 10
2.2077280834
 20
23.864963831
 30
0.0
 11
2.1452280834
 21
23.864963831
 31
0.0
  0
LINE
  5
82
102
{ACAD_REACTORS
330
88
102
}
100
AcDbEntity
  8
Z0_TOPCOMP
370
         5
  6
Continuous
 62
         6
100
AcDbLine
 10
2.2077280834
 20
24.264963831
 30
0.0
 11
2.2077280834
 21
23.864963831
 31
0.0
  0
LINE
  5
83
102
{ACAD_REACTORS
330
88
102
}
100
AcDbEntity
  8
Z0_TOPCOMP
370
         5
  6
Continuous
 62
         6
100
AcDbLine
 10
2.1452280834
 20
24.264963831
 30
0.0
 11
2.2077280834
 21
24.264963831
 31
0.0
  0
LINE
  5
84
102
{ACAD_REACTORS
330
88
102
}
100
AcDbEntity
  8
Z0_TOPCOMP
370
         5
  6
Continuous
 62
         6
100
AcDbLine
 10
2.1452280834
 20
23.864963831
 30
0.0
 11
2.1452280834
 21
24.264963831
 31
0.0
  0
LINE
  5
85
102
{ACAD_REACTORS
330
88
102
}
100
AcDbEntity
  8
Z0_TOPCOMP
370
         5
  6
Continuous
 62
         6
100
AcDbLine
 10
2.1014780834
 20
24.174963831
 30
0.0
 11
2.1014780834
 21
23.954963831
 31
0.0
  0
LINE
  5
86
102
{ACAD_REACTORS
330
88
102
}
100
AcDbEntity
  8
Z0_TOPCOMP
370
         5
  6
Continuous
 62
         6
100
AcDbLine
 10
2.1014780834
 20
23.864963831
 30
0.0
 11
2.1014780834
 21
24.264963831
 31
0.0
  0
LINE
  5
87
102
{ACAD_REACTORS
330
88
102
}
100
AcDbEntity
  8
Z0_TOPCOMP
370
         5
  6
Continuous
 62
         6
100
AcDbLine
 10
2.3952280834
 20
24.627463831
 30
0.0
 11
2.3952280834
 21
24.627463831
 31
0.0
  0
CIRCLE
  5
89
100
AcDbEntity
  8
Z0_CUT500
370
        25
  6
Continuous
 62
         5
100
AcDbCircle
 10
2.0357440988
 20
23.245157312
 30
0.0
 40
0.0825
  0
CIRCLE
  5
8A
100
AcDbEntity
  8
Z0_TOPCOMP
370
        25
  6
Continuous
 62
         6
100
AcDbCircle
 10
2.0357440988
 20
21.6089027571
 30
0.0
 40
0.35
  0
ARC
  5
8B
102
{ACAD_REACTORS
330
8F
102
}
100
AcDbEntity
  8
Z0_CUT500
370
        25
  6
Continuous
 62
         5
100
AcDbCircle
 10
2.3952323617
 20
20.4798985705
 30
0.0
 40
0.25
100
AcDbArc
 50
180.0
 51
0.0
  0
LINE
  5
8C
102
{ACAD_REACTORS
330
8F
102
}
100
AcDbEntity
  8
Z0_CUT500
370
        25
  6
Continuous
 62
         5
100
AcDbLine
 10
2.1452323617
 20
20.4798985705
 30
0.0
 11
2.1452323617
 21
21.1048985705
 31
0.0
  0
LINE
  5
8D
102
{ACAD_REACTORS
330
8F
102
}
100
AcDbEntity
  8
Z0_CUT500
370
        25
  6
Continuous
 62
         5
100
AcDbLine
 10
2.6452323617
 20
21.1048985705
 30
0.0
 11
2.6452323617
 21
20.4798985705
 31
0.0
  0
ARC
  5
8E
102
{ACAD_REACTORS
330
8F
102
}
100
AcDbEntity
  8
Z0_CUT500
370
        25
  6
Continuous
 62
         5
100
AcDbCircle
 10
2.3952323617
 20
21.1048985705
 30
0.0
 40
0.25
100
AcDbArc
 50
0.0
 51
180.0
  0
LINE
  5
90
102
{ACAD_REACTORS
330
A4
102
}
100
AcDbEntity
  8
Z0_TOPCOMP
370
         5
  6
Continuous
 62
         6
100
AcDbLine
 10
2.5514780834
 20
20.5924547329
 30
0.0
 11
2.1014780834
 21
20.5924547329
 31
0.0
  0
LINE
  5
91
102
{ACAD_REACTORS
330
A4
102
}
100
AcDbEntity
  8
Z0_TOPCOMP
370
         5
  6
Continuous
 62
         6
100
AcDbLine
 10
2.1014780834
 20
20.9924547329
 30
0.0
 11
2.5514780834
 21
20.9924547329
 31
0.0
  0
LINE
  5
92
102
{ACAD_REACTORS
330
A4
102
}
100
AcDbEntity
  8
Z0_TOPCOMP
370
         5
  6
Continuous
 62
         6
100
AcDbLine
 10
2.4514780834
 20
20.2924547329
 30
0.0
 11
2.5514780834
 21
20.2924547329
 31
0.0
  0
LINE
  5
93
102
{ACAD_REACTORS
330
A4
102
}
100
AcDbEntity
  8
Z0_TOPCOMP
370
         5
  6
Continuous
 62
         6
100
AcDbLine
 10
2.4514780834
 20
21.2924547329
 30
0.0
 11
2.4514780834
 21
20.2924547329
 31
0.0
  0
LINE
  5
94
102
{ACAD_REACTORS
330
A4
102
}
100
AcDbEntity
  8
Z0_TOPCOMP
370
         5
  6
Continuous
 62
         6
100
AcDbLine
 10
2.5514780834
 20
20.2924547329
 30
0.0
 11
2.5514780834
 21
21.2924547329
 31
0.0
  0
LINE
  5
95
102
{ACAD_REACTORS
330
A4
102
}
100
AcDbEntity
  8
Z0_TOPCOMP
370
         5
  6
Continuous
 62
         6
100
AcDbLine
 10
2.3952280834
 20
20.2299547329
 30
0.0
 11
2.3952280834
 21
20.2299547329
 31
0.0
  0
LINE
  5
96
102
{ACAD_REACTORS
330
A4
102
}
100
AcDbEntity
  8
Z0_TOPCOMP
370
         5
  6
Continuous
 62
         6
100
AcDbLine
 10
2.3952280834
 20
21.3549547329
 30
0.0
 11
2.3952280834
 21
21.3549547329
 31
0.0
  0
LINE
  5
97
102
{ACAD_REACTORS
330
A4
102
}
100
AcDbEntity
  8
Z0_TOPCOMP
370
         5
  6
Continuous
 62
         6
100
AcDbLine
 10
2.5514780834
 20
21.2924547329
 30
0.0
 11
2.4514780834
 21
21.2924547329
 31
0.0
  0
LINE
  5
98
102
{ACAD_REACTORS
330
A4
102
}
100
AcDbEntity
  8
Z0_TOPCOMP
370
         5
  6
Continuous
 62
         6
100
AcDbLine
 10
2.5514780834
 20
20.9924547329
 30
0.0
 11
2.5514780834
 21
20.5924547329
 31
0.0
  0
LINE
  5
99
102
{ACAD_REACTORS
330
A4
102
}
100
AcDbEntity
  8
Z0_TOPCOMP
370
         5
  6
Continuous
 62
         6
100
AcDbLine
 10
2.3952280834
 20
20.7299547329
 30
0.0
 11
2.3952280834
 21
20.7299547329
 31
0.0
  0
LINE
  5
9A
102
{ACAD_REACTORS
330
A4
102
}
100
AcDbEntity
  8
Z0_TOPCOMP
370
         5
  6
Continuous
 62
         6
100
AcDbLine
 10
2.1014780834
 20
20.6824547329
 30
0.0
 11
2.0014780834
 21
20.6824547329
 31
0.0
  0
LINE
  5
9B
102
{ACAD_REACTORS
330
A4
102
}
100
AcDbEntity
  8
Z0_TOPCOMP
370
         5
  6
Continuous
 62
         6
100
AcDbLine
 10
2.0014780834
 20
20.9024547329
 30
0.0
 11
2.1014780834
 21
20.9024547329
 31
0.0
  0
LINE
  5
9C
102
{ACAD_REACTORS
330
A4
102
}
100
AcDbEntity
  8
Z0_TOPCOMP
370
         5
  6
Continuous
 62
         6
100
AcDbLine
 10
2.0014780834
 20
20.6824547329
 30
0.0
 11
2.0014780834
 21
20.9024547329
 31
0.0
  0
LINE
  5
9D
102
{ACAD_REACTORS
330
A4
102
}
100
AcDbEntity
  8
Z0_TOPCOMP
370
         5
  6
Continuous
 62
         6
100
AcDbLine
 10
2.2077280834
 20
20.5924547329
 30
0.0
 11
2.1452280834
 21
20.5924547329
 31
0.0
  0
LINE
  5
9E
102
{ACAD_REACTORS
330
A4
102
}
100
AcDbEntity
  8
Z0_TOPCOMP
370
         5
  6
Continuous
 62
         6
100
AcDbLine
 10
2.2077280834
 20
20.9924547329
 30
0.0
 11
2.2077280834
 21
20.5924547329
 31
0.0
  0
LINE
  5
9F
102
{ACAD_REACTORS
330
A4
102
}
100
AcDbEntity
  8
Z0_TOPCOMP
370
         5
  6
Continuous
 62
         6
100
AcDbLine
 10
2.1452280834
 20
20.9924547329
 30
0.0
 11
2.2077280834
 21
20.9924547329
 31
0.0
  0
LINE
  5
A0
102
{ACAD_REACTORS
330
A4
102
}
100
AcDbEntity
  8
Z0_TOPCOMP
370
         5
  6
Continuous
 62
         6
100
AcDbLine
 10
2.1452280834
 20
20.5924547329
 30
0.0
 11
2.1452280834
 21
20.9924547329
 31
0.0
  0
LINE
  5
A1
102
{ACAD_REACTORS
330
A4
102
}
100
AcDbEntity
  8
Z0_TOPCOMP
370
         5
  6
Continuous
 62
         6
100
AcDbLine
 10
2.1014780834
 20
20.9024547329
 30
0.0
 11
2.1014780834
 21
20.6824547329
 31
0.0
  0
LINE
  5
A2
102
{ACAD_REACTORS
330
A4
102
}
100
AcDbEntity
  8
Z0_TOPCOMP
370
         5
  6
Continuous
 62
         6
100
AcDbLine
 10
2.1014780834
 20
20.5924547329
 30
0.0
 11
2.1014780834
 21
20.9924547329
 31
0.0
  0
LINE
  5
A3
102
{ACAD_REACTORS
330
A4
102
}
100
AcDbEntity
  8
Z0_TOPCOMP
370
         5
  6
Continuous
 62
         6
100
AcDbLine
 10
2.3952280834
 20
21.3549547329
 30
0.0
 11
2.3952280834
 21
21.3549547329
 31
0.0
  0
CIRCLE
  5
A5
102
{ACAD_REACTORS
330
A7
102
}
100
AcDbEntity
  8
Z0_RUBBER
370
        25
  6
Continuous
 62
         2
100
AcDbCircle
 10
2.0357440988
 20
24.8814118606
 30
0.0
 40
0.4
  0
CIRCLE
  5
A6
102
{ACAD_REACTORS
330
A7
102
}
100
AcDbEntity
  8
Z0_RUBBER
370
        25
  6
Continuous
 62
         2
100
AcDbCircle
 10
2.0357440988
 20
24.8814118606
 30
0.0
 40
0.215
  0
CIRCLE
  5
A8
100
AcDbEntity
  8
Z0_TOPCOMP
370
        25
  6
Continuous
 62
         6
100
AcDbCircle
 10
2.0357440988
 20
24.8814118606
 30
0.0
 40
0.35
  0
ARC
  5
A9
102
{ACAD_REACTORS
330
B4
102
}
100
AcDbEntity
  8
Z0_BOTCOMP
370
        25
  6
Continuous
 62
         4
100
AcDbCircle
 10
2.0357440988
 20
24.8814118606
 30
0.0
 40
0.285
100
AcDbArc
 50
90.0
 51
164.5679286494
  0
ARC
  5
AA
102
{ACAD_REACTORS
330
B4
102
}
100
AcDbEntity
  8
Z0_BOTCOMP
370
        25
  6
Continuous
 62
         4
100
AcDbCircle
 10
2.0357440988
 20
24.8814118606
 30
0.0
 40
0.285
100
AcDbArc
 50
-150.0
 51
-75.4320713506
  0
ARC
  5
AB
102
{ACAD_REACTORS
330
B4
102
}
100
AcDbEntity
  8
Z0_BOTCOMP
370
        25
  6
Continuous
 62
         4
100
AcDbCircle
 10
2.0357440988
 20
24.8814118606
 30
0.0
 40
0.285
100
AcDbArc
 50
-30.0
 51
44.5679286494
  0
LINE
  5
AC
102
{ACAD_REACTORS
330
B4
102
}
100
AcDbEntity
  8
Z0_BOTCOMP
370
        25
  6
Continuous
 62
         4
100
AcDbLine
 10
1.7889268587
 20
24.7389118606
 30
0.0
 11
1.862539018
 21
24.7814118606
 31
0.0
  0
LINE
  5
AD
102
{ACAD_REACTORS
330
B4
102
}
100
AcDbEntity
  8
Z0_BOTCOMP
370
        25
  6
Continuous
 62
         4
100
AcDbLine
 10
1.862539018
 20
24.7814118606
 30
0.0
 11
1.7610193155
 21
24.9572491434
 31
0.0
  0
LINE
  5
AE
102
{ACAD_REACTORS
330
B4
102
}
100
AcDbEntity
  8
Z0_BOTCOMP
370
        25
  6
Continuous
 62
         4
100
AcDbLine
 10
2.2825613389
 20
24.7389118606
 30
0.0
 11
2.2089491796
 21
24.7814118606
 31
0.0
  0
LINE
  5
AF
102
{ACAD_REACTORS
330
B4
102
}
100
AcDbEntity
  8
Z0_BOTCOMP
370
        25
  6
Continuous
 62
         4
100
AcDbLine
 10
2.2089491796
 20
24.7814118606
 30
0.0
 11
2.107429477
 21
24.6055745779
 31
0.0
  0
LINE
  5
B0
102
{ACAD_REACTORS
330
B4
102
}
100
AcDbEntity
  8
Z0_BOTCOMP
370
        25
  6
Continuous
 62
         4
100
AcDbLine
 10
2.0357440988
 20
25.0814118606
 30
0.0
 11
2.2387835038
 21
25.0814118606
 31
0.0
  0
LINE
  5
B1
102
{ACAD_REACTORS
330
B4
102
}
100
AcDbEntity
  8
Z0_BOTCOMP
370
        25
  6
Continuous
 62
         4
100
AcDbLine
 10
2.0357440988
 20
25.1664118606
 30
0.0
 11
2.0357440988
 21
25.0814118606
 31
0.0
  0
CIRCLE
  5
B2
102
{ACAD_REACTORS
330
B4
102
}
100
AcDbEntity
  8
Z0_BOTCOMP
370
        25
  6
Continuous
 62
         4
100
AcDbCircle
 10
2.0357440988
 20
24.8814118606
 30
0.0
 40
0.059
  0
CIRCLE
  5
B3
102
{ACAD_REACTORS
330
B4
102
}
100
AcDbEntity
  8
Z0_BOTCOMP
370
        25
  6
Continuous
 62
         4
100
AcDbCircle
 10
2.0357440988
 20
24.8814118606
 30
0.0
 40
0.085
  0
ARC
  5
B5
102
{ACAD_REACTORS
330
B9
102
}
100
AcDbEntity
  8
Z0_CUT500
370
        25
  6
Continuous
 62
         5
100
AcDbCircle
 10
2.3952323617
 20
23.7524076687
 30
0.0
 40
0.25
100
AcDbArc
 50
180.0
 51
0.0
  0
LINE
  5
B6
102
{ACAD_REACTORS
330
B9
102
}
100
AcDbEntity
  8
Z0_CUT500
370
        25
  6
Continuous
 62
         5
100
AcDbLine
 10
2.1452323617
 20
23.7524076687
 30
0.0
 11
2.1452323617
 21
24.3774076687
 31
0.0
  0
LINE
  5
B7
102
{ACAD_REACTORS
330
B9
102
}
100
AcDbEntity
  8
Z0_CUT500
370
        25
  6
Continuous
 62
         5
100
AcDbLine
 10
2.6452323617
 20
24.3774076687
 30
0.0
 11
2.6452323617
 21
23.7524076687
 31
0.0
  0
ARC
  5
B8
102
{ACAD_REACTORS
330
B9
102
}
100
AcDbEntity
  8
Z0_CUT500
370
        25
  6
Continuous
 62
         5
100
AcDbCircle
 10
2.3952323617
 20
24.3774076687
 30
0.0
 40
0.25
100
AcDbArc
 50
0.0
 51
180.0
  0
CIRCLE
  5
BA
102
{ACAD_REACTORS
330
BC
102
}
100
AcDbEntity
  8
Z0_RUBBER
370
        25
  6
Continuous
 62
         2
100
AcDbCircle
 10
2.0357440988
 20
21.6089027571
 30
0.0
 40
0.4
  0
CIRCLE
  5
BB
102
{ACAD_REACTORS
330
BC
102
}
100
AcDbEntity
  8
Z0_RUBBER
370
        25
  6
Continuous
 62
         2
100
AcDbCircle
 10
2.0357440988
 20
21.6089027571
 30
0.0
 40
0.215
  0
CIRCLE
  5
BD
100
AcDbEntity
  8
Z0_CUT500
370
        25
  6
Continuous
 62
         5
100
AcDbCircle
 10
2.0357440988
 20
21.6089027571
 30
0.0
 40
0.0825
  0
CIRCLE
  5
BE
102
{ACAD_REACTORS
330
C0
102
}
100
AcDbEntity
  8
Z0_RUBBER
370
        25
  6
Continuous
 62
         2
100
AcDbCircle
 10
2.0357440988
 20
23.245157312
 30
0.0
 40
0.4
  0
CIRCLE
  5
BF
102
{ACAD_REACTORS
330
C0
102
}
100
AcDbEntity
  8
Z0_RUBBER
370
        25
  6
Continuous
 62
         2
100
AcDbCircle
 10
2.0357440988
 20
23.245157312
 30
0.0
 40
0.215
  0
ARC
  5
C1
102
{ACAD_REACTORS
330
CC
102
}
100
AcDbEntity
  8
Z0_BOTCOMP
370
        25
  6
Continuous
 62
         4
100
AcDbCircle
 10
16.3392559012
 20
23.245157312
 30
0.0
 40
0.285
100
AcDbArc
 50
15.4320713506
 51
90.0
  0
ARC
  5
C2
102
{ACAD_REACTORS
330
CC
102
}
100
AcDbEntity
  8
Z0_BOTCOMP
370
        25
  6
Continuous
 62
         4
100
AcDbCircle
 10
16.3392559012
 20
23.245157312
 30
0.0
 40
0.285
100
AcDbArc
 50
-104.5679286494
 51
-30.0
  0
ARC
  5
C3
102
{ACAD_REACTORS
330
CC
102
}
100
AcDbEntity
  8
Z0_BOTCOMP
370
        25
  6
Continuous
 62
         4
100
AcDbCircle
 10
16.3392559012
 20
23.245157312
 30
0.0
 40
0.285
100
AcDbArc
 50
135.4320713506
 51
-150.0
  0
LINE
  5
C4
102
{ACAD_REACTORS
330
CC
102
}
100
AcDbEntity
  8
Z0_BOTCOMP
370
        25
  6
Continuous
 62
         4
100
AcDbLine
 10
16.5860731413
 20
23.102657312
 30
0.0
 11
16.512460982
 21
23.145157312
 31
0.0
  0
LINE
  5
C5
102
{ACAD_REACTORS
330
CC
102
}
100
AcDbEntity
  8
Z0_BOTCOMP
370
        25
  6
Continuous
 62
         4
100
AcDbLine
 10
16.512460982
 20
23.145157312
 30
0.0
 11
16.6139806845
 21
23.3209945948
 31
0.0
  0
LINE
  5
C6
102
{ACAD_REACTORS
330
CC
102
}
100
AcDbEntity
  8
Z0_BOTCOMP
370
        25
  6
Continuous
 62
         4
100
AcDbLine
 10
16.0924386611
 20
23.102657312
 30
0.0
 11
16.1660508204
 21
23.145157312
 31
0.0
  0
LINE
  5
C7
102
{ACAD_REACTORS
330
CC
102
}
100
AcDbEntity
  8
Z0_BOTCOMP
370
        25
  6
Continuous
 62
         4
100
AcDbLine
 10
16.1660508204
 20
23.145157312
 30
0.0
 11
16.267570523
 21
22.9693200293
 31
0.0
  0
LINE
  5
C8
102
{ACAD_REACTORS
330
CC
102
}
100
AcDbEntity
  8
Z0_BOTCOMP
370
        25
  6
Continuous
 62
         4
100
AcDbLine
 10
16.3392559012
 20
23.445157312
 30
0.0
 11
16.1362164962
 21
23.445157312
 31
0.0
  0
LINE
  5
C9
102
{ACAD_REACTORS
330
CC
102
}
100
AcDbEntity
  8
Z0_BOTCOMP
370
        25
  6
Continuous
 62
         4
100
AcDbLine
 10
16.3392559012
 20
23.530157312
 30
0.0
 11
16.3392559012
 21
23.445157312
 31
0.0
  0
CIRCLE
  5
CA
102
{ACAD_REACTORS
330
CC
102
}
100
AcDbEntity
  8
Z0_BOTCOMP
370
        25
  6
Continuous
 62
         4
100
AcDbCircle
 10
16.3392559012
 20
23.245157312
 30
0.0
 40
0.059
  0
CIRCLE
  5
CB
102
{ACAD_REACTORS
330
CC
102
}
100
AcDbEntity
  8
Z0_BOTCOMP
370
        25
  6
Continuous
 62
         4
100
AcDbCircle
 10
16.3392559012
 20
23.245157312
 30
0.0
 40
0.085
  0
CIRCLE
  5
CD
102
{ACAD_REACTORS
330
CF
102
}
100
AcDbEntity
  8
Z0_RUBBER
370
        25
  6
Continuous
 62
         2
100
AcDbCircle
 10
16.3392559012
 20
23.245157312
 30
0.0
 40
0.4
  0
CIRCLE
  5
CE
102
{ACAD_REACTORS
330
CF
102
}
100
AcDbEntity
  8
Z0_RUBBER
370
        25
  6
Continuous
 62
         2
100
AcDbCircle
 10
16.3392559012
 20
23.245157312
 30
0.0
 40
0.215
  0
CIRCLE
  5
D0
100
AcDbEntity
  8
Z0_CUT500
370
        25
  6
Continuous
 62
         5
100
AcDbCircle
 10
16.3392559012
 20
21.6089027571
 30
0.0
 40
0.0825
  0
CIRCLE
  5
D1
102
{ACAD_REACTORS
330
D3
102
}
100
AcDbEntity
  8
Z0_RUBBER
370
        25
  6
Continuous
 62
         2
100
AcDbCircle
 10
16.3392559012
 20
21.6089027571
 30
0.0
 40
0.4
  0
CIRCLE
  5
D2
102
{ACAD_REACTORS
330
D3
102
}
100
AcDbEntity
  8
Z0_RUBBER
370
        25
  6
Continuous
 62
         2
100
AcDbCircle
 10
16.3392559012
 20
21.6089027571
 30
0.0
 40
0.215
  0
ARC
  5
D4
102
{ACAD_REACTORS
330
D8
102
}
100
AcDbEntity
  8
Z0_CUT500
370
        25
  6
Continuous
 62
         5
100
AcDbCircle
 10
15.9797676383
 20
23.7524076687
 30
0.0
 40
0.25
100
AcDbArc
 50
180.0
 51
0.0
  0
LINE
  5
D5
102
{ACAD_REACTORS
330
D8
102
}
100
AcDbEntity
  8
Z0_CUT500
370
        25
  6
Continuous
 62
         5
100
AcDbLine
 10
16.2297676383
 20
23.7524076687
 30
0.0
 11
16.2297676383
 21
24.3774076687
 31
0.0
  0
LINE
  5
D6
102
{ACAD_REACTORS
330
D8
102
}
100
AcDbEntity
  8
Z0_CUT500
370
        25
  6
Continuous
 62
         5
100
AcDbLine
 10
15.7297676383
 20
24.3774076687
 30
0.0
 11
15.7297676383
 21
23.7524076687
 31
0.0
  0
ARC
  5
D7
102
{ACAD_REACTORS
330
D8
102
}
100
AcDbEntity
  8
Z0_CUT500
370
        25
  6
Continuous
 62
         5
100
AcDbCircle
 10
15.9797676383
 20
24.3774076687
 30
0.0
 40
0.25
100
AcDbArc
 50
0.0
 51
180.0
  0
ARC
  5
D9
102
{ACAD_REACTORS
330
E4
102
}
100
AcDbEntity
  8
Z0_BOTCOMP
370
        25
  6
Continuous
 62
         4
100
AcDbCircle
 10
16.3392559012
 20
24.8814118606
 30
0.0
 40
0.285
100
AcDbArc
 50
15.4320713506
 51
90.0
  0
ARC
  5
DA
102
{ACAD_REACTORS
330
E4
102
}
100
AcDbEntity
  8
Z0_BOTCOMP
370
        25
  6
Continuous
 62
         4
100
AcDbCircle
 10
16.3392559012
 20
24.8814118606
 30
0.0
 40
0.285
100
AcDbArc
 50
-104.5679286494
 51
-30.0
  0
ARC
  5
DB
102
{ACAD_REACTORS
330
E4
102
}
100
AcDbEntity
  8
Z0_BOTCOMP
370
        25
  6
Continuous
 62
         4
100
AcDbCircle
 10
16.3392559012
 20
24.8814118606
 30
0.0
 40
0.285
100
AcDbArc
 50
135.4320713506
 51
-150.0
  0
LINE
  5
DC
102
{ACAD_REACTORS
330
E4
102
}
100
AcDbEntity
  8
Z0_BOTCOMP
370
        25
  6
Continuous
 62
         4
100
AcDbLine
 10
16.5860731413
 20
24.7389118606
 30
0.0
 11
16.512460982
 21
24.7814118606
 31
0.0
  0
LINE
  5
DD
102
{ACAD_REACTORS
330
E4
102
}
100
AcDbEntity
  8
Z0_BOTCOMP
370
        25
  6
Continuous
 62
         4
100
AcDbLine
 10
16.512460982
 20
24.7814118606
 30
0.0
 11
16.6139806845
 21
24.9572491434
 31
0.0
  0
LINE
  5
DE
102
{ACAD_REACTORS
330
E4
102
}
100
AcDbEntity
  8
Z0_BOTCOMP
370
        25
  6
Continuous
 62
         4
100
AcDbLine
 10
16.0924386611
 20
24.7389118606
 30
0.0
 11
16.1660508204
 21
24.7814118606
 31
0.0
  0
LINE
  5
DF
102
{ACAD_REACTORS
330
E4
102
}
100
AcDbEntity
  8
Z0_BOTCOMP
370
        25
  6
Continuous
 62
         4
100
AcDbLine
 10
16.1660508204
 20
24.7814118606
 30
0.0
 11
16.267570523
 21
24.6055745779
 31
0.0
  0
LINE
  5
E0
102
{ACAD_REACTORS
330
E4
102
}
100
AcDbEntity
  8
Z0_BOTCOMP
370
        25
  6
Continuous
 62
         4
100
AcDbLine
 10
16.3392559012
 20
25.0814118606
 30
0.0
 11
16.1362164962
 21
25.0814118606
 31
0.0
  0
LINE
  5
E1
102
{ACAD_REACTORS
330
E4
102
}
100
AcDbEntity
  8
Z0_BOTCOMP
370
        25
  6
Continuous
 62
         4
100
AcDbLine
 10
16.3392559012
 20
25.1664118606
 30
0.0
 11
16.3392559012
 21
25.0814118606
 31
0.0
  0
CIRCLE
  5
E2
102
{ACAD_REACTORS
330
E4
102
}
100
AcDbEntity
  8
Z0_BOTCOMP
370
        25
  6
Continuous
 62
         4
100
AcDbCircle
 10
16.3392559012
 20
24.8814118606
 30
0.0
 40
0.059
  0
CIRCLE
  5
E3
102
{ACAD_REACTORS
330
E4
102
}
100
AcDbEntity
  8
Z0_BOTCOMP
370
        25
  6
Continuous
 62
         4
100
AcDbCircle
 10
16.3392559012
 20
24.8814118606
 30
0.0
 40
0.085
  0
CIRCLE
  5
E5
100
AcDbEntity
  8
Z0_TOPCOMP
370
        25
  6
Continuous
 62
         6
100
AcDbCircle
 10
16.3392559012
 20
24.8814118606
 30
0.0
 40
0.35
  0
ARC
  5
E6
102
{ACAD_REACTORS
330
EA
102
}
100
AcDbEntity
  8
Z0_CUT500
370
        25
  6
Continuous
 62
         5
100
AcDbCircle
 10
15.9797676395
 20
18.8436420153
 30
0.0
 40
0.25
100
AcDbArc
 50
180.0
 51
0.0
  0
LINE
  5
E7
102
{ACAD_REACTORS
330
EA
102
}
100
AcDbEntity
  8
Z0_CUT500
370
        25
  6
Continuous
 62
         5
100
AcDbLine
 10
16.2297676395
 20
18.8436420153
 30
0.0
 11
16.2297676395
 21
19.4686420153
 31
0.0
  0
LINE
  5
E8
102
{ACAD_REACTORS
330
EA
102
}
100
AcDbEntity
  8
Z0_CUT500
370
        25
  6
Continuous
 62
         5
100
AcDbLine
 10
15.7297676395
 20
19.4686420153
 30
0.0
 11
15.7297676395
 21
18.8436420153
 31
0.0
  0
ARC
  5
E9
102
{ACAD_REACTORS
330
EA
102
}
100
AcDbEntity
  8
Z0_CUT500
370
        25
  6
Continuous
 62
         5
100
AcDbCircle
 10
15.9797676395
 20
19.4686420153
 30
0.0
 40
0.25
100
AcDbArc
 50
0.0
 51
180.0
  0
ARC
  5
EB
102
{ACAD_REACTORS
330
F6
102
}
100
AcDbEntity
  8
Z0_BOTCOMP
370
        25
  6
Continuous
 62
         4
100
AcDbCircle
 10
16.2665357501
 20
18.3276169486
 30
0.0
 40
0.285
100
AcDbArc
 50
15.4320713506
 51
90.0
  0
ARC
  5
EC
102
{ACAD_REACTORS
330
F6
102
}
100
AcDbEntity
  8
Z0_BOTCOMP
370
        25
  6
Continuous
 62
         4
100
AcDbCircle
 10
16.2665357501
 20
18.3276169486
 30
0.0
 40
0.285
100
AcDbArc
 50
-104.5679286494
 51
-30.0
  0
ARC
  5
ED
102
{ACAD_REACTORS
330
F6
102
}
100
AcDbEntity
  8
Z0_BOTCOMP
370
        25
  6
Continuous
 62
         4
100
AcDbCircle
 10
16.2665357501
 20
18.3276169486
 30
0.0
 40
0.285
100
AcDbArc
 50
135.4320713506
 51
-150.0
  0
LINE
  5
EE
102
{ACAD_REACTORS
330
F6
102
}
100
AcDbEntity
  8
Z0_BOTCOMP
370
        25
  6
Continuous
 62
         4
100
AcDbLine
 10
16.5133529901
 20
18.1851169486
 30
0.0
 11
16.4397408308
 21
18.2276169486
 31
0.0
  0
LINE
  5
EF
102
{ACAD_REACTORS
330
F6
102
}
100
AcDbEntity
  8
Z0_BOTCOMP
370
        25
  6
Continuous
 62
         4
100
AcDbLine
 10
16.4397408308
 20
18.2276169486
 30
0.0
 11
16.5412605333
 21
18.4034542313
 31
0.0
  0
LINE
  5
F0
102
{ACAD_REACTORS
330
F6
102
}
100
AcDbEntity
  8
Z0_BOTCOMP
370
        25
  6
Continuous
 62
         4
100
AcDbLine
 10
16.01971851
 20
18.1851169486
 30
0.0
 11
16.0933306693
 21
18.2276169486
 31
0.0
  0
LINE
  5
F1
102
{ACAD_REACTORS
330
F6
102
}
100
AcDbEntity
  8
Z0_BOTCOMP
370
        25
  6
Continuous
 62
         4
100
AcDbLine
 10
16.0933306693
 20
18.2276169486
 30
0.0
 11
16.1948503718
 21
18.0517796658
 31
0.0
  0
LINE
  5
F2
102
{ACAD_REACTORS
330
F6
102
}
100
AcDbEntity
  8
Z0_BOTCOMP
370
        25
  6
Continuous
 62
         4
100
AcDbLine
 10
16.2665357501
 20
18.5276169486
 30
0.0
 11
16.063496345
 21
18.5276169486
 31
0.0
  0
LINE
  5
F3
102
{ACAD_REACTORS
330
F6
102
}
100
AcDbEntity
  8
Z0_BOTCOMP
370
        25
  6
Continuous
 62
         4
100
AcDbLine
 10
16.2665357501
 20
18.6126169486
 30
0.0
 11
16.2665357501
 21
18.5276169486
 31
0.0
  0
CIRCLE
  5
F4
102
{ACAD_REACTORS
330
F6
102
}
100
AcDbEntity
  8
Z0_BOTCOMP
370
        25
  6
Continuous
 62
         4
100
AcDbCircle
 10
16.2665357501
 20
18.3276169486
 30
0.0
 40
0.059
  0
CIRCLE
  5
F5
102
{ACAD_REACTORS
330
F6
102
}
100
AcDbEntity
  8
Z0_BOTCOMP
370
        25
  6
Continuous
 62
         4
100
AcDbCircle
 10
16.2665357501
 20
18.3276169486
 30
0.0
 40
0.085
  0
CIRCLE
  5
F7
100
AcDbEntity
  8
Z0_CUT500
370
        25
  6
Continuous
 62
         5
100
AcDbCircle
 10
16.2665357501
 20
18.3276169486
 30
0.0
 40
0.0825
  0
CIRCLE
  5
F8
100
AcDbEntity
  8
Z0_CUT500
370
        25
  6
Continuous
 62
         5
100
AcDbCircle
 10
2.1084642499
 20
18.3276169486
 30
0.0
 40
0.0825
  0
ARC
  5
F9
102
{ACAD_REACTORS
330
104
102
}
100
AcDbEntity
  8
Z0_BOTCOMP
370
        25
  6
Continuous
 62
         4
100
AcDbCircle
 10
2.1084642499
 20
18.3276169486
 30
0.0
 40
0.285
100
AcDbArc
 50
90.0
 51
164.5679286494
  0
ARC
  5
FA
102
{ACAD_REACTORS
330
104
102
}
100
AcDbEntity
  8
Z0_BOTCOMP
370
        25
  6
Continuous
 62
         4
100
AcDbCircle
 10
2.1084642499
 20
18.3276169486
 30
0.0
 40
0.285
100
AcDbArc
 50
-150.0
 51
-75.4320713506
  0
ARC
  5
FB
102
{ACAD_REACTORS
330
104
102
}
100
AcDbEntity
  8
Z0_BOTCOMP
370
        25
  6
Continuous
 62
         4
100
AcDbCircle
 10
2.1084642499
 20
18.3276169486
 30
0.0
 40
0.285
100
AcDbArc
 50
-30.0
 51
44.5679286494
  0
LINE
  5
FC
102
{ACAD_REACTORS
330
104
102
}
100
AcDbEntity
  8
Z0_BOTCOMP
370
        25
  6
Continuous
 62
         4
100
AcDbLine
 10
1.8616470099
 20
18.1851169486
 30
0.0
 11
1.9352591692
 21
18.2276169486
 31
0.0
  0
LINE
  5
FD
102
{ACAD_REACTORS
330
104
102
}
100
AcDbEntity
  8
Z0_BOTCOMP
370
        25
  6
Continuous
 62
         4
100
AcDbLine
 10
1.9352591692
 20
18.2276169486
 30
0.0
 11
1.8337394667
 21
18.4034542313
 31
0.0
  0
LINE
  5
FE
102
{ACAD_REACTORS
330
104
102
}
100
AcDbEntity
  8
Z0_BOTCOMP
370
        25
  6
Continuous
 62
         4
100
AcDbLine
 10
2.35528149
 20
18.1851169486
 30
0.0
 11
2.2816693307
 21
18.2276169486
 31
0.0
  0
LINE
  5
FF
102
{ACAD_REACTORS
330
104
102
}
100
AcDbEntity
  8
Z0_BOTCOMP
370
        25
  6
Continuous
 62
         4
100
AcDbLine
 10
2.2816693307
 20
18.2276169486
 30
0.0
 11
2.1801496282
 21
18.0517796658
 31
0.0
  0
LINE
  5
100
102
{ACAD_REACTORS
330
104
102
}
100
AcDbEntity
  8
Z0_BOTCOMP
370
        25
  6
Continuous
 62
         4
100
AcDbLine
 10
2.1084642499
 20
18.5276169486
 30
0.0
 11
2.311503655
 21
18.5276169486
 31
0.0
  0
LINE
  5
101
102
{ACAD_REACTORS
330
104
102
}
100
AcDbEntity
  8
Z0_BOTCOMP
370
        25
  6
Continuous
 62
         4
100
AcDbLine
 10
2.1084642499
 20
18.6126169486
 30
0.0
 11
2.1084642499
 21
18.5276169486
 31
0.0
  0
CIRCLE
  5
102
102
{ACAD_REACTORS
330
104
102
}
100
AcDbEntity
  8
Z0_BOTCOMP
370
        25
  6
Continuous
 62
         4
100
AcDbCircle
 10
2.1084642499
 20
18.3276169486
 30
0.0
 40
0.059
  0
CIRCLE
  5
103
102
{ACAD_REACTORS
330
104
102
}
100
AcDbEntity
  8
Z0_BOTCOMP
370
        25
  6
Continuous
 62
         4
100
AcDbCircle
 10
2.1084642499
 20
18.3276169486
 30
0.0
 40
0.085
  0
ARC
  5
105
102
{ACAD_REACTORS
330
109
102
}
100
AcDbEntity
  8
Z0_CUT500
370
        25
  6
Continuous
 62
         5
100
AcDbCircle
 10
2.3952323605
 20
18.8436420153
 30
0.0
 40
0.25
100
AcDbArc
 50
180.0
 51
0.0
  0
LINE
  5
106
102
{ACAD_REACTORS
330
109
102
}
100
AcDbEntity
  8
Z0_CUT500
370
        25
  6
Continuous
 62
         5
100
AcDbLine
 10
2.1452323605
 20
18.8436420153
 30
0.0
 11
2.1452323605
 21
19.4686420153
 31
0.0
  0
LINE
  5
107
102
{ACAD_REACTORS
330
109
102
}
100
AcDbEntity
  8
Z0_CUT500
370
        25
  6
Continuous
 62
         5
100
AcDbLine
 10
2.6452323605
 20
19.4686420153
 30
0.0
 11
2.6452323605
 21
18.8436420153
 31
0.0
  0
ARC
  5
108
102
{ACAD_REACTORS
330
109
102
}
100
AcDbEntity
  8
Z0_CUT500
370
        25
  6
Continuous
 62
         5
100
AcDbCircle
 10
2.3952323605
 20
19.4686420153
 30
0.0
 40
0.25
100
AcDbArc
 50
0.0
 51
180.0
  0
LINE
  5
10A
102
{ACAD_REACTORS
330
11E
102
}
100
AcDbEntity
  8
Z0_TOPCOMP
370
         5
  6
Continuous
 62
         6
100
AcDbLine
 10
2.5514780822
 20
18.9561981777
 30
0.0
 11
2.1014780822
 21
18.9561981777
 31
0.0
  0
LINE
  5
10B
102
{ACAD_REACTORS
330
11E
102
}
100
AcDbEntity
  8
Z0_TOPCOMP
370
         5
  6
Continuous
 62
         6
100
AcDbLine
 10
2.1014780822
 20
19.3561981777
 30
0.0
 11
2.5514780822
 21
19.3561981777
 31
0.0
  0
LINE
  5
10C
102
{ACAD_REACTORS
330
11E
102
}
100
AcDbEntity
  8
Z0_TOPCOMP
370
         5
  6
Continuous
 62
         6
100
AcDbLine
 10
2.4514780822
 20
18.6561981777
 30
0.0
 11
2.5514780822
 21
18.6561981777
 31
0.0
  0
LINE
  5
10D
102
{ACAD_REACTORS
330
11E
102
}
100
AcDbEntity
  8
Z0_TOPCOMP
370
         5
  6
Continuous
 62
         6
100
AcDbLine
 10
2.4514780822
 20
19.6561981777
 30
0.0
 11
2.4514780822
 21
18.6561981777
 31
0.0
  0
LINE
  5
10E
102
{ACAD_REACTORS
330
11E
102
}
100
AcDbEntity
  8
Z0_TOPCOMP
370
         5
  6
Continuous
 62
         6
100
AcDbLine
 10
2.5514780822
 20
18.6561981777
 30
0.0
 11
2.5514780822
 21
19.6561981777
 31
0.0
  0
LINE
  5
10F
102
{ACAD_REACTORS
330
11E
102
}
100
AcDbEntity
  8
Z0_TOPCOMP
370
         5
  6
Continuous
 62
         6
100
AcDbLine
 10
2.3952280822
 20
18.5936981777
 30
0.0
 11
2.3952280822
 21
18.5936981777
 31
0.0
  0
LINE
  5
110
102
{ACAD_REACTORS
330
11E
102
}
100
AcDbEntity
  8
Z0_TOPCOMP
370
         5
  6
Continuous
 62
         6
100
AcDbLine
 10
2.3952280822
 20
19.7186981777
 30
0.0
 11
2.3952280822
 21
19.7186981777
 31
0.0
  0
LINE
  5
111
102
{ACAD_REACTORS
330
11E
102
}
100
AcDbEntity
  8
Z0_TOPCOMP
370
         5
  6
Continuous
 62
         6
100
AcDbLine
 10
2.5514780822
 20
19.6561981777
 30
0.0
 11
2.4514780822
 21
19.6561981777
 31
0.0
  0
LINE
  5
112
102
{ACAD_REACTORS
330
11E
102
}
100
AcDbEntity
  8
Z0_TOPCOMP
370
         5
  6
Continuous
 62
         6
100
AcDbLine
 10
2.5514780822
 20
19.3561981777
 30
0.0
 11
2.5514780822
 21
18.9561981777
 31
0.0
  0
LINE
  5
113
102
{ACAD_REACTORS
330
11E
102
}
100
AcDbEntity
  8
Z0_TOPCOMP
370
         5
  6
Continuous
 62
         6
100
AcDbLine
 10
2.3952280822
 20
19.0936981777
 30
0.0
 11
2.3952280822
 21
19.0936981777
 31
0.0
  0
LINE
  5
114
102
{ACAD_REACTORS
330
11E
102
}
100
AcDbEntity
  8
Z0_TOPCOMP
370
         5
  6
Continuous
 62
         6
100
AcDbLine
 10
2.1014780822
 20
19.0461981777
 30
0.0
 11
2.0014780822
 21
19.0461981777
 31
0.0
  0
LINE
  5
115
102
{ACAD_REACTORS
330
11E
102
}
100
AcDbEntity
  8
Z0_TOPCOMP
370
         5
  6
Continuous
 62
         6
100
AcDbLine
 10
2.0014780822
 20
19.2661981777
 30
0.0
 11
2.1014780822
 21
19.2661981777
 31
0.0
  0
LINE
  5
116
102
{ACAD_REACTORS
330
11E
102
}
100
AcDbEntity
  8
Z0_TOPCOMP
370
         5
  6
Continuous
 62
         6
100
AcDbLine
 10
2.0014780822
 20
19.0461981777
 30
0.0
 11
2.0014780822
 21
19.2661981777
 31
0.0
  0
LINE
  5
117
102
{ACAD_REACTORS
330
11E
102
}
100
AcDbEntity
  8
Z0_TOPCOMP
370
         5
  6
Continuous
 62
         6
100
AcDbLine
 10
2.2077280822
 20
18.9561981777
 30
0.0
 11
2.1452280822
 21
18.9561981777
 31
0.0
  0
LINE
  5
118
102
{ACAD_REACTORS
330
11E
102
}
100
AcDbEntity
  8
Z0_TOPCOMP
370
         5
  6
Continuous
 62
         6
100
AcDbLine
 10
2.2077280822
 20
19.3561981777
 30
0.0
 11
2.2077280822
 21
18.9561981777
 31
0.0
  0
LINE
  5
119
102
{ACAD_REACTORS
330
11E
102
}
100
AcDbEntity
  8
Z0_TOPCOMP
370
         5
  6
Continuous
 62
         6
100
AcDbLine
 10
2.1452280822
 20
19.3561981777
 30
0.0
 11
2.2077280822
 21
19.3561981777
 31
0.0
  0
LINE
  5
11A
102
{ACAD_REACTORS
330
11E
102
}
100
AcDbEntity
  8
Z0_TOPCOMP
370
         5
  6
Continuous
 62
         6
100
AcDbLine
 10
2.1452280822
 20
18.9561981777
 30
0.0
 11
2.1452280822
 21
19.3561981777
 31
0.0
  0
LINE
  5
11B
102
{ACAD_REACTORS
330
11E
102
}
100
AcDbEntity
  8
Z0_TOPCOMP
370
         5
  6
Continuous
 62
         6
100
AcDbLine
 10
2.1014780822
 20
19.2661981777
 30
0.0
 11
2.1014780822
 21
19.0461981777
 31
0.0
  0
LINE
  5
11C
102
{ACAD_REACTORS
330
11E
102
}
100
AcDbEntity
  8
Z0_TOPCOMP
370
         5
  6
Continuous
 62
         6
100
AcDbLine
 10
2.1014780822
 20
18.9561981777
 30
0.0
 11
2.1014780822
 21
19.3561981777
 31
0.0
  0
LINE
  5
11D
102
{ACAD_REACTORS
330
11E
102
}
100
AcDbEntity
  8
Z0_TOPCOMP
370
         5
  6
Continuous
 62
         6
100
AcDbLine
 10
2.3952280822
 20
19.7186981777
 30
0.0
 11
2.3952280822
 21
19.7186981777
 31
0.0
  0
CIRCLE
  5
11F
100
AcDbEntity
  8
Z0_CUT500
370
        25
  6
Continuous
 62
         5
100
AcDbCircle
 10
16.3392559012
 20
24.8814118606
 30
0.0
 40
0.0825
  0
CIRCLE
  5
120
102
{ACAD_REACTORS
330
122
102
}
100
AcDbEntity
  8
Z0_RUBBER
370
        25
  6
Continuous
 62
         2
100
AcDbCircle
 10
2.1084642499
 20
18.3276169486
 30
0.0
 40
0.4
  0
CIRCLE
  5
121
102
{ACAD_REACTORS
330
122
102
}
100
AcDbEntity
  8
Z0_RUBBER
370
        25
  6
Continuous
 62
         2
100
AcDbCircle
 10
2.1084642499
 20
18.3276169486
 30
0.0
 40
0.215
  0
CIRCLE
  5
123
100
AcDbEntity
  8
Z0_TOPCOMP
370
        25
  6
Continuous
 62
         6
100
AcDbCircle
 10
2.1084642499
 20
18.3276169486
 30
0.0
 40
0.35
  0
CIRCLE
  5
124
102
{ACAD_REACTORS
330
126
102
}
100
AcDbEntity
  8
Z0_RUBBER
370
        25
  6
Continuous
 62
         2
100
AcDbCircle
 10
2.0357439406
 20
19.9800437162
 30
0.0
 40
0.4
  0
CIRCLE
  5
125
102
{ACAD_REACTORS
330
126
102
}
100
AcDbEntity
  8
Z0_RUBBER
370
        25
  6
Continuous
 62
         2
100
AcDbCircle
 10
2.0357439406
 20
19.9800437162
 30
0.0
 40
0.215
  0
CIRCLE
  5
127
100
AcDbEntity
  8
Z0_CUT500
370
        25
  6
Continuous
 62
         5
100
AcDbCircle
 10
2.0357439406
 20
19.9800437162
 30
0.0
 40
0.0825
  0
ARC
  5
128
102
{ACAD_REACTORS
330
133
102
}
100
AcDbEntity
  8
Z0_BOTCOMP
370
        25
  6
Continuous
 62
         4
100
AcDbCircle
 10
2.0357439406
 20
19.9800437162
 30
0.0
 40
0.285
100
AcDbArc
 50
90.0
 51
164.5679286494
  0
ARC
  5
129
102
{ACAD_REACTORS
330
133
102
}
100
AcDbEntity
  8
Z0_BOTCOMP
370
        25
  6
Continuous
 62
         4
100
AcDbCircle
 10
2.0357439406
 20
19.9800437162
 30
0.0
 40
0.285
100
AcDbArc
 50
-150.0
 51
-75.4320713506
  0
ARC
  5
12A
102
{ACAD_REACTORS
330
133
102
}
100
AcDbEntity
  8
Z0_BOTCOMP
370
        25
  6
Continuous
 62
         4
100
AcDbCircle
 10
2.0357439406
 20
19.9800437162
 30
0.0
 40
0.285
100
AcDbArc
 50
-30.0
 51
44.5679286494
  0
LINE
  5
12B
102
{ACAD_REACTORS
330
133
102
}
100
AcDbEntity
  8
Z0_BOTCOMP
370
        25
  6
Continuous
 62
         4
100
AcDbLine
 10
1.7889267005
 20
19.8375437162
 30
0.0
 11
1.8625388598
 21
19.8800437162
 31
0.0
  0
LINE
  5
12C
102
{ACAD_REACTORS
330
133
102
}
100
AcDbEntity
  8
Z0_BOTCOMP
370
        25
  6
Continuous
 62
         4
100
AcDbLine
 10
1.8625388598
 20
19.8800437162
 30
0.0
 11
1.7610191573
 21
20.0558809989
 31
0.0
  0
LINE
  5
12D
102
{ACAD_REACTORS
330
133
102
}
100
AcDbEntity
  8
Z0_BOTCOMP
370
        25
  6
Continuous
 62
         4
100
AcDbLine
 10
2.2825611806
 20
19.8375437162
 30
0.0
 11
2.2089490213
 21
19.8800437162
 31
0.0
  0
LINE
  5
12E
102
{ACAD_REACTORS
330
133
102
}
100
AcDbEntity
  8
Z0_BOTCOMP
370
        25
  6
Continuous
 62
         4
100
AcDbLine
 10
2.2089490213
 20
19.8800437162
 30
0.0
 11
2.1074293188
 21
19.7042064334
 31
0.0
  0
LINE
  5
12F
102
{ACAD_REACTORS
330
133
102
}
100
AcDbEntity
  8
Z0_BOTCOMP
370
        25
  6
Continuous
 62
         4
100
AcDbLine
 10
2.0357439406
 20
20.1800437162
 30
0.0
 11
2.2387833456
 21
20.1800437162
 31
0.0
  0
LINE
  5
130
102
{ACAD_REACTORS
330
133
102
}
100
AcDbEntity
  8
Z0_BOTCOMP
370
        25
  6
Continuous
 62
         4
100
AcDbLine
 10
2.0357439406
 20
20.2650437162
 30
0.0
 11
2.0357439406
 21
20.1800437162
 31
0.0
  0
CIRCLE
  5
131
102
{ACAD_REACTORS
330
133
102
}
100
AcDbEntity
  8
Z0_BOTCOMP
370
        25
  6
Continuous
 62
         4
100
AcDbCircle
 10
2.0357439406
 20
19.9800437162
 30
0.0
 40
0.059
  0
CIRCLE
  5
132
102
{ACAD_REACTORS
330
133
102
}
100
AcDbEntity
  8
Z0_BOTCOMP
370
        25
  6
Continuous
 62
         4
100
AcDbCircle
 10
2.0357439406
 20
19.9800437162
 30
0.0
 40
0.085
  0
CIRCLE
  5
134
100
AcDbEntity
  8
Z0_TOPCOMP
370
        25
  6
Continuous
 62
         6
100
AcDbCircle
 10
2.0357439406
 20
19.9800437162
 30
0.0
 40
0.35
  0
CIRCLE
  5
135
100
AcDbEntity
  8
Z0_TOPCOMP
370
        25
  6
Continuous
 62
         6
100
AcDbCircle
 10
16.3392560594
 20
19.9800437162
 30
0.0
 40
0.35
  0
ARC
  5
136
102
{ACAD_REACTORS
330
141
102
}
100
AcDbEntity
  8
Z0_BOTCOMP
370
        25
  6
Continuous
 62
         4
100
AcDbCircle
 10
16.3392560594
 20
19.9800437162
 30
0.0
 40
0.285
100
AcDbArc
 50
15.4320713506
 51
90.0
  0
ARC
  5
137
102
{ACAD_REACTORS
330
141
102
}
100
AcDbEntity
  8
Z0_BOTCOMP
370
        25
  6
Continuous
 62
         4
100
AcDbCircle
 10
16.3392560594
 20
19.9800437162
 30
0.0
 40
0.285
100
AcDbArc
 50
-104.5679286494
 51
-30.0
  0
ARC
  5
138
102
{ACAD_REACTORS
330
141
102
}
100
AcDbEntity
  8
Z0_BOTCOMP
370
        25
  6
Continuous
 62
         4
100
AcDbCircle
 10
16.3392560594
 20
19.9800437162
 30
0.0
 40
0.285
100
AcDbArc
 50
135.4320713506
 51
-150.0
  0
LINE
  5
139
102
{ACAD_REACTORS
330
141
102
}
100
AcDbEntity
  8
Z0_BOTCOMP
370
        25
  6
Continuous
 62
         4
100
AcDbLine
 10
16.5860732995
 20
19.8375437162
 30
0.0
 11
16.5124611402
 21
19.8800437162
 31
0.0
  0
LINE
  5
13A
102
{ACAD_REACTORS
330
141
102
}
100
AcDbEntity
  8
Z0_BOTCOMP
370
        25
  6
Continuous
 62
         4
100
AcDbLine
 10
16.5124611402
 20
19.8800437162
 30
0.0
 11
16.6139808427
 21
20.0558809989
 31
0.0
  0
LINE
  5
13B
102
{ACAD_REACTORS
330
141
102
}
100
AcDbEntity
  8
Z0_BOTCOMP
370
        25
  6
Continuous
 62
         4
100
AcDbLine
 10
16.0924388194
 20
19.8375437162
 30
0.0
 11
16.1660509787
 21
19.8800437162
 31
0.0
  0
LINE
  5
13C
102
{ACAD_REACTORS
330
141
102
}
100
AcDbEntity
  8
Z0_BOTCOMP
370
        25
  6
Continuous
 62
         4
100
AcDbLine
 10
16.1660509787
 20
19.8800437162
 30
0.0
 11
16.2675706812
 21
19.7042064334
 31
0.0
  0
LINE
  5
13D
102
{ACAD_REACTORS
330
141
102
}
100
AcDbEntity
  8
Z0_BOTCOMP
370
        25
  6
Continuous
 62
         4
100
AcDbLine
 10
16.3392560594
 20
20.1800437162
 30
0.0
 11
16.1362166544
 21
20.1800437162
 31
0.0
  0
LINE
  5
13E
102
{ACAD_REACTORS
330
141
102
}
100
AcDbEntity
  8
Z0_BOTCOMP
370
        25
  6
Continuous
 62
         4
100
AcDbLine
 10
16.3392560594
 20
20.2650437162
 30
0.0
 11
16.3392560594
 21
20.1800437162
 31
0.0
  0
CIRCLE
  5
13F
102
{ACAD_REACTORS
330
141
102
}
100
AcDbEntity
  8
Z0_BOTCOMP
370
        25
  6
Continuous
 62
         4
100
AcDbCircle
 10
16.3392560594
 20
19.9800437162
 30
0.0
 40
0.059
  0
CIRCLE
  5
140
102
{ACAD_REACTORS
330
141
102
}
100
AcDbEntity
  8
Z0_BOTCOMP
370
        25
  6
Continuous
 62
         4
100
AcDbCircle
 10
16.3392560594
 20
19.9800437162
 30
0.0
 40
0.085
  0
CIRCLE
  5
142
100
AcDbEntity
  8
Z0_CUT500
370
        25
  6
Continuous
 62
         5
100
AcDbCircle
 10
16.3392560594
 20
19.9800437162
 30
0.0
 40
0.0825
  0
CIRCLE
  5
143
102
{ACAD_REACTORS
330
145
102
}
100
AcDbEntity
  8
Z0_RUBBER
370
        25
  6
Continuous
 62
         2
100
AcDbCircle
 10
16.3392560594
 20
19.9800437162
 30
0.0
 40
0.4
  0
CIRCLE
  5
144
102
{ACAD_REACTORS
330
145
102
}
100
AcDbEntity
  8
Z0_RUBBER
370
        25
  6
Continuous
 62
         2
100
AcDbCircle
 10
16.3392560594
 20
19.9800437162
 30
0.0
 40
0.215
  0
CIRCLE
  5
146
102
{ACAD_REACTORS
330
148
102
}
100
AcDbEntity
  8
Z0_RUBBER
370
        25
  6
Continuous
 62
         2
100
AcDbCircle
 10
16.3392559012
 20
24.8814118606
 30
0.0
 40
0.4
  0
CIRCLE
  5
147
102
{ACAD_REACTORS
330
148
102
}
100
AcDbEntity
  8
Z0_RUBBER
370
        25
  6
Continuous
 62
         2
100
AcDbCircle
 10
16.3392559012
 20
24.8814118606
 30
0.0
 40
0.215
  0
LINE
  5
149
102
{ACAD_REACTORS
330
15D
102
}
100
AcDbEntity
  8
Z0_TOPCOMP
370
         5
  6
Continuous
 62
         6
100
AcDbLine
 10
15.8235219166
 20
20.5924547329
 30
0.0
 11
16.2735219166
 21
20.5924547329
 31
0.0
  0
LINE
  5
14A
102
{ACAD_REACTORS
330
15D
102
}
100
AcDbEntity
  8
Z0_TOPCOMP
370
         5
  6
Continuous
 62
         6
100
AcDbLine
 10
16.2735219166
 20
20.9924547329
 30
0.0
 11
15.8235219166
 21
20.9924547329
 31
0.0
  0
LINE
  5
14B
102
{ACAD_REACTORS
330
15D
102
}
100
AcDbEntity
  8
Z0_TOPCOMP
370
         5
  6
Continuous
 62
         6
100
AcDbLine
 10
15.9235219166
 20
20.2924547329
 30
0.0
 11
15.8235219166
 21
20.2924547329
 31
0.0
  0
LINE
  5
14C
102
{ACAD_REACTORS
330
15D
102
}
100
AcDbEntity
  8
Z0_TOPCOMP
370
         5
  6
Continuous
 62
         6
100
AcDbLine
 10
15.9235219166
 20
21.2924547329
 30
0.0
 11
15.9235219166
 21
20.2924547329
 31
0.0
  0
LINE
  5
14D
102
{ACAD_REACTORS
330
15D
102
}
100
AcDbEntity
  8
Z0_TOPCOMP
370
         5
  6
Continuous
 62
         6
100
AcDbLine
 10
15.8235219166
 20
20.2924547329
 30
0.0
 11
15.8235219166
 21
21.2924547329
 31
0.0
  0
LINE
  5
14E
102
{ACAD_REACTORS
330
15D
102
}
100
AcDbEntity
  8
Z0_TOPCOMP
370
         5
  6
Continuous
 62
         6
100
AcDbLine
 10
15.9797719166
 20
20.2299547329
 30
0.0
 11
15.9797719166
 21
20.2299547329
 31
0.0
  0
LINE
  5
14F
102
{ACAD_REACTORS
330
15D
102
}
100
AcDbEntity
  8
Z0_TOPCOMP
370
         5
  6
Continuous
 62
         6
100
AcDbLine
 10
15.9797719166
 20
21.3549547329
 30
0.0
 11
15.9797719166
 21
21.3549547329
 31
0.0
  0
LINE
  5
150
102
{ACAD_REACTORS
330
15D
102
}
100
AcDbEntity
  8
Z0_TOPCOMP
370
         5
  6
Continuous
 62
         6
100
AcDbLine
 10
15.8235219166
 20
21.2924547329
 30
0.0
 11
15.9235219166
 21
21.2924547329
 31
0.0
  0
LINE
  5
151
102
{ACAD_REACTORS
330
15D
102
}
100
AcDbEntity
  8
Z0_TOPCOMP
370
         5
  6
Continuous
 62
         6
100
AcDbLine
 10
15.8235219166
 20
20.9924547329
 30
0.0
 11
15.8235219166
 21
20.5924547329
 31
0.0
  0
LINE
  5
152
102
{ACAD_REACTORS
330
15D
102
}
100
AcDbEntity
  8
Z0_TOPCOMP
370
         5
  6
Continuous
 62
         6
100
AcDbLine
 10
15.9797719166
 20
20.7299547329
 30
0.0
 11
15.9797719166
 21
20.7299547329
 31
0.0
  0
LINE
  5
153
102
{ACAD_REACTORS
330
15D
102
}
100
AcDbEntity
  8
Z0_TOPCOMP
370
         5
  6
Continuous
 62
         6
100
AcDbLine
 10
16.2735219166
 20
20.6824547329
 30
0.0
 11
16.3735219166
 21
20.6824547329
 31
0.0
  0
LINE
  5
154
102
{ACAD_REACTORS
330
15D
102
}
100
AcDbEntity
  8
Z0_TOPCOMP
370
         5
  6
Continuous
 62
         6
100
AcDbLine
 10
16.3735219166
 20
20.9024547329
 30
0.0
 11
16.2735219166
 21
20.9024547329
 31
0.0
  0
LINE
  5
155
102
{ACAD_REACTORS
330
15D
102
}
100
AcDbEntity
  8
Z0_TOPCOMP
370
         5
  6
Continuous
 62
         6
100
AcDbLine
 10
16.3735219166
 20
20.6824547329
 30
0.0
 11
16.3735219166
 21
20.9024547329
 31
0.0
  0
LINE
  5
156
102
{ACAD_REACTORS
330
15D
102
}
100
AcDbEntity
  8
Z0_TOPCOMP
370
         5
  6
Continuous
 62
         6
100
AcDbLine
 10
16.1672719166
 20
20.5924547329
 30
0.0
 11
16.2297719166
 21
20.5924547329
 31
0.0
  0
LINE
  5
157
102
{ACAD_REACTORS
330
15D
102
}
100
AcDbEntity
  8
Z0_TOPCOMP
370
         5
  6
Continuous
 62
         6
100
AcDbLine
 10
16.1672719166
 20
20.9924547329
 30
0.0
 11
16.1672719166
 21
20.5924547329
 31
0.0
  0
LINE
  5
158
102
{ACAD_REACTORS
330
15D
102
}
100
AcDbEntity
  8
Z0_TOPCOMP
370
         5
  6
Continuous
 62
         6
100
AcDbLine
 10
16.2297719166
 20
20.9924547329
 30
0.0
 11
16.1672719166
 21
20.9924547329
 31
0.0
  0
LINE
  5
159
102
{ACAD_REACTORS
330
15D
102
}
100
AcDbEntity
  8
Z0_TOPCOMP
370
         5
  6
Continuous
 62
         6
100
AcDbLine
 10
16.2297719166
 20
20.5924547329
 30
0.0
 11
16.2297719166
 21
20.9924547329
 31
0.0
  0
LINE
  5
15A
102
{ACAD_REACTORS
330
15D
102
}
100
AcDbEntity
  8
Z0_TOPCOMP
370
         5
  6
Continuous
 62
         6
100
AcDbLine
 10
16.2735219166
 20
20.9024547329
 30
0.0
 11
16.2735219166
 21
20.6824547329
 31
0.0
  0
LINE
  5
15B
102
{ACAD_REACTORS
330
15D
102
}
100
AcDbEntity
  8
Z0_TOPCOMP
370
         5
  6
Continuous
 62
         6
100
AcDbLine
 10
16.2735219166
 20
20.5924547329
 30
0.0
 11
16.2735219166
 21
20.9924547329
 31
0.0
  0
LINE
  5
15C
102
{ACAD_REACTORS
330
15D
102
}
100
AcDbEntity
  8
Z0_TOPCOMP
370
         5
  6
Continuous
 62
         6
100
AcDbLine
 10
15.9797719166
 20
21.3549547329
 30
0.0
 11
15.9797719166
 21
21.3549547329
 31
0.0
  0
ARC
  5
15E
102
{ACAD_REACTORS
330
162
102
}
100
AcDbEntity
  8
Z0_CUT500
370
        25
  6
Continuous
 62
         5
100
AcDbCircle
 10
15.9797676383
 20
20.4798985705
 30
0.0
 40
0.25
100
AcDbArc
 50
180.0
 51
0.0
  0
LINE
  5
15F
102
{ACAD_REACTORS
330
162
102
}
100
AcDbEntity
  8
Z0_CUT500
370
        25
  6
Continuous
 62
         5
100
AcDbLine
 10
16.2297676383
 20
20.4798985705
 30
0.0
 11
16.2297676383
 21
21.1048985705
 31
0.0
  0
LINE
  5
160
102
{ACAD_REACTORS
330
162
102
}
100
AcDbEntity
  8
Z0_CUT500
370
        25
  6
Continuous
 62
         5
100
AcDbLine
 10
15.7297676383
 20
21.1048985705
 30
0.0
 11
15.7297676383
 21
20.4798985705
 31
0.0
  0
ARC
  5
161
102
{ACAD_REACTORS
330
162
102
}
100
AcDbEntity
  8
Z0_CUT500
370
        25
  6
Continuous
 62
         5
100
AcDbCircle
 10
15.9797676383
 20
21.1048985705
 30
0.0
 40
0.25
100
AcDbArc
 50
0.0
 51
180.0
  0
CIRCLE
  5
163
100
AcDbEntity
  8
Z0_TOPCOMP
370
        25
  6
Continuous
 62
         6
100
AcDbCircle
 10
16.3392559012
 20
21.6089027571
 30
0.0
 40
0.35
  0
ARC
  5
164
102
{ACAD_REACTORS
330
16F
102
}
100
AcDbEntity
  8
Z0_BOTCOMP
370
        25
  6
Continuous
 62
         4
100
AcDbCircle
 10
16.3392559012
 20
21.6089027571
 30
0.0
 40
0.285
100
AcDbArc
 50
15.4320713506
 51
90.0
  0
ARC
  5
165
102
{ACAD_REACTORS
330
16F
102
}
100
AcDbEntity
  8
Z0_BOTCOMP
370
        25
  6
Continuous
 62
         4
100
AcDbCircle
 10
16.3392559012
 20
21.6089027571
 30
0.0
 40
0.285
100
AcDbArc
 50
-104.5679286494
 51
-30.0
  0
ARC
  5
166
102
{ACAD_REACTORS
330
16F
102
}
100
AcDbEntity
  8
Z0_BOTCOMP
370
        25
  6
Continuous
 62
         4
100
AcDbCircle
 10
16.3392559012
 20
21.6089027571
 30
0.0
 40
0.285
100
AcDbArc
 50
135.4320713506
 51
-150.0
  0
LINE
  5
167
102
{ACAD_REACTORS
330
16F
102
}
100
AcDbEntity
  8
Z0_BOTCOMP
370
        25
  6
Continuous
 62
         4
100
AcDbLine
 10
16.5860731413
 20
21.4664027571
 30
0.0
 11
16.512460982
 21
21.5089027571
 31
0.0
  0
LINE
  5
168
102
{ACAD_REACTORS
330
16F
102
}
100
AcDbEntity
  8
Z0_BOTCOMP
370
        25
  6
Continuous
 62
         4
100
AcDbLine
 10
16.512460982
 20
21.5089027571
 30
0.0
 11
16.6139806845
 21
21.6847400399
 31
0.0
  0
LINE
  5
169
102
{ACAD_REACTORS
330
16F
102
}
100
AcDbEntity
  8
Z0_BOTCOMP
370
        25
  6
Continuous
 62
         4
100
AcDbLine
 10
16.0924386611
 20
21.4664027571
 30
0.0
 11
16.1660508204
 21
21.5089027571
 31
0.0
  0
LINE
  5
16A
102
{ACAD_REACTORS
330
16F
102
}
100
AcDbEntity
  8
Z0_BOTCOMP
370
        25
  6
Continuous
 62
         4
100
AcDbLine
 10
16.1660508204
 20
21.5089027571
 30
0.0
 11
16.267570523
 21
21.3330654744
 31
0.0
  0
LINE
  5
16B
102
{ACAD_REACTORS
330
16F
102
}
100
AcDbEntity
  8
Z0_BOTCOMP
370
        25
  6
Continuous
 62
         4
100
AcDbLine
 10
16.3392559012
 20
21.8089027571
 30
0.0
 11
16.1362164962
 21
21.8089027571
 31
0.0
  0
LINE
  5
16C
102
{ACAD_REACTORS
330
16F
102
}
100
AcDbEntity
  8
Z0_BOTCOMP
370
        25
  6
Continuous
 62
         4
100
AcDbLine
 10
16.3392559012
 20
21.8939027571
 30
0.0
 11
16.3392559012
 21
21.8089027571
 31
0.0
  0
CIRCLE
  5
16D
102
{ACAD_REACTORS
330
16F
102
}
100
AcDbEntity
  8
Z0_BOTCOMP
370
        25
  6
Continuous
 62
         4
100
AcDbCircle
 10
16.3392559012
 20
21.6089027571
 30
0.0
 40
0.059
  0
CIRCLE
  5
16E
102
{ACAD_REACTORS
330
16F
102
}
100
AcDbEntity
  8
Z0_BOTCOMP
370
        25
  6
Continuous
 62
         4
100
AcDbCircle
 10
16.3392559012
 20
21.6089027571
 30
0.0
 40
0.085
  0
CIRCLE
  5
170
100
AcDbEntity
  8
Z0_CUT500
370
        25
  6
Continuous
 62
         5
100
AcDbCircle
 10
16.3392559012
 20
23.245157312
 30
0.0
 40
0.0825
  0
LINE
  5
171
102
{ACAD_REACTORS
330
185
102
}
100
AcDbEntity
  8
Z0_TOPCOMP
370
         5
  6
Continuous
 62
         6
100
AcDbLine
 10
15.8235219166
 20
23.864963831
 30
0.0
 11
16.2735219166
 21
23.864963831
 31
0.0
  0
LINE
  5
172
102
{ACAD_REACTORS
330
185
102
}
100
AcDbEntity
  8
Z0_TOPCOMP
370
         5
  6
Continuous
 62
         6
100
AcDbLine
 10
16.2735219166
 20
24.264963831
 30
0.0
 11
15.8235219166
 21
24.264963831
 31
0.0
  0
LINE
  5
173
102
{ACAD_REACTORS
330
185
102
}
100
AcDbEntity
  8
Z0_TOPCOMP
370
         5
  6
Continuous
 62
         6
100
AcDbLine
 10
15.9235219166
 20
23.564963831
 30
0.0
 11
15.8235219166
 21
23.564963831
 31
0.0
  0
LINE
  5
174
102
{ACAD_REACTORS
330
185
102
}
100
AcDbEntity
  8
Z0_TOPCOMP
370
         5
  6
Continuous
 62
         6
100
AcDbLine
 10
15.9235219166
 20
24.564963831
 30
0.0
 11
15.9235219166
 21
23.564963831
 31
0.0
  0
LINE
  5
175
102
{ACAD_REACTORS
330
185
102
}
100
AcDbEntity
  8
Z0_TOPCOMP
370
         5
  6
Continuous
 62
         6
100
AcDbLine
 10
15.8235219166
 20
23.564963831
 30
0.0
 11
15.8235219166
 21
24.564963831
 31
0.0
  0
LINE
  5
176
102
{ACAD_REACTORS
330
185
102
}
100
AcDbEntity
  8
Z0_TOPCOMP
370
         5
  6
Continuous
 62
         6
100
AcDbLine
 10
15.9797719166
 20
23.502463831
 30
0.0
 11
15.9797719166
 21
23.502463831
 31
0.0
  0
LINE
  5
177
102
{ACAD_REACTORS
330
185
102
}
100
AcDbEntity
  8
Z0_TOPCOMP
370
         5
  6
Continuous
 62
         6
100
AcDbLine
 10
15.9797719166
 20
24.627463831
 30
0.0
 11
15.9797719166
 21
24.627463831
 31
0.0
  0
LINE
  5
178
102
{ACAD_REACTORS
330
185
102
}
100
AcDbEntity
  8
Z0_TOPCOMP
370
         5
  6
Continuous
 62
         6
100
AcDbLine
 10
15.8235219166
 20
24.564963831
 30
0.0
 11
15.9235219166
 21
24.564963831
 31
0.0
  0
LINE
  5
179
102
{ACAD_REACTORS
330
185
102
}
100
AcDbEntity
  8
Z0_TOPCOMP
370
         5
  6
Continuous
 62
         6
100
AcDbLine
 10
15.8235219166
 20
24.264963831
 30
0.0
 11
15.8235219166
 21
23.864963831
 31
0.0
  0
LINE
  5
17A
102
{ACAD_REACTORS
330
185
102
}
100
AcDbEntity
  8
Z0_TOPCOMP
370
         5
  6
Continuous
 62
         6
100
AcDbLine
 10
15.9797719166
 20
24.002463831
 30
0.0
 11
15.9797719166
 21
24.002463831
 31
0.0
  0
LINE
  5
17B
102
{ACAD_REACTORS
330
185
102
}
100
AcDbEntity
  8
Z0_TOPCOMP
370
         5
  6
Continuous
 62
         6
100
AcDbLine
 10
16.2735219166
 20
23.954963831
 30
0.0
 11
16.3735219166
 21
23.954963831
 31
0.0
  0
LINE
  5
17C
102
{ACAD_REACTORS
330
185
102
}
100
AcDbEntity
  8
Z0_TOPCOMP
370
         5
  6
Continuous
 62
         6
100
AcDbLine
 10
16.3735219166
 20
24.174963831
 30
0.0
 11
16.2735219166
 21
24.174963831
 31
0.0
  0
LINE
  5
17D
102
{ACAD_REACTORS
330
185
102
}
100
AcDbEntity
  8
Z0_TOPCOMP
370
         5
  6
Continuous
 62
         6
100
AcDbLine
 10
16.3735219166
 20
23.954963831
 30
0.0
 11
16.3735219166
 21
24.174963831
 31
0.0
  0
LINE
  5
17E
102
{ACAD_REACTORS
330
185
102
}
100
AcDbEntity
  8
Z0_TOPCOMP
370
         5
  6
Continuous
 62
         6
100
AcDbLine
 10
16.1672719166
 20
23.864963831
 30
0.0
 11
16.2297719166
 21
23.864963831
 31
0.0
  0
LINE
  5
17F
102
{ACAD_REACTORS
330
185
102
}
100
AcDbEntity
  8
Z0_TOPCOMP
370
         5
  6
Continuous
 62
         6
100
AcDbLine
 10
16.1672719166
 20
24.264963831
 30
0.0
 11
16.1672719166
 21
23.864963831
 31
0.0
  0
LINE
  5
180
102
{ACAD_REACTORS
330
185
102
}
100
AcDbEntity
  8
Z0_TOPCOMP
370
         5
  6
Continuous
 62
         6
100
AcDbLine
 10
16.2297719166
 20
24.264963831
 30
0.0
 11
16.1672719166
 21
24.264963831
 31
0.0
  0
LINE
  5
181
102
{ACAD_REACTORS
330
185
102
}
100
AcDbEntity
  8
Z0_TOPCOMP
370
         5
  6
Continuous
 62
         6
100
AcDbLine
 10
16.2297719166
 20
23.864963831
 30
0.0
 11
16.2297719166
 21
24.264963831
 31
0.0
  0
LINE
  5
182
102
{ACAD_REACTORS
330
185
102
}
100
AcDbEntity
  8
Z0_TOPCOMP
370
         5
  6
Continuous
 62
         6
100
AcDbLine
 10
16.2735219166
 20
24.174963831
 30
0.0
 11
16.2735219166
 21
23.954963831
 31
0.0
  0
LINE
  5
183
102
{ACAD_REACTORS
330
185
102
}
100
AcDbEntity
  8
Z0_TOPCOMP
370
         5
  6
Continuous
 62
         6
100
AcDbLine
 10
16.2735219166
 20
23.864963831
 30
0.0
 11
16.2735219166
 21
24.264963831
 31
0.0
  0
LINE
  5
184
102
{ACAD_REACTORS
330
185
102
}
100
AcDbEntity
  8
Z0_TOPCOMP
370
         5
  6
Continuous
 62
         6
100
AcDbLine
 10
15.9797719166
 20
24.627463831
 30
0.0
 11
15.9797719166
 21
24.627463831
 31
0.0
  0
ARC
  5
186
102
{ACAD_REACTORS
330
191
102
}
100
AcDbEntity
  8
Z0_BOTCOMP
370
        25
  6
Continuous
 62
         4
100
AcDbCircle
 10
2.0357440988
 20
23.245157312
 30
0.0
 40
0.285
100
AcDbArc
 50
90.0
 51
164.5679286494
  0
ARC
  5
187
102
{ACAD_REACTORS
330
191
102
}
100
AcDbEntity
  8
Z0_BOTCOMP
370
        25
  6
Continuous
 62
         4
100
AcDbCircle
 10
2.0357440988
 20
23.245157312
 30
0.0
 40
0.285
100
AcDbArc
 50
-150.0
 51
-75.4320713506
  0
ARC
  5
188
102
{ACAD_REACTORS
330
191
102
}
100
AcDbEntity
  8
Z0_BOTCOMP
370
        25
  6
Continuous
 62
         4
100
AcDbCircle
 10
2.0357440988
 20
23.245157312
 30
0.0
 40
0.285
100
AcDbArc
 50
-30.0
 51
44.5679286494
  0
LINE
  5
189
102
{ACAD_REACTORS
330
191
102
}
100
AcDbEntity
  8
Z0_BOTCOMP
370
        25
  6
Continuous
 62
         4
100
AcDbLine
 10
1.7889268587
 20
23.102657312
 30
0.0
 11
1.862539018
 21
23.145157312
 31
0.0
  0
LINE
  5
18A
102
{ACAD_REACTORS
330
191
102
}
100
AcDbEntity
  8
Z0_BOTCOMP
370
        25
  6
Continuous
 62
         4
100
AcDbLine
 10
1.862539018
 20
23.145157312
 30
0.0
 11
1.7610193155
 21
23.3209945948
 31
0.0
  0
LINE
  5
18B
102
{ACAD_REACTORS
330
191
102
}
100
AcDbEntity
  8
Z0_BOTCOMP
370
        25
  6
Continuous
 62
         4
100
AcDbLine
 10
2.2825613389
 20
23.102657312
 30
0.0
 11
2.2089491796
 21
23.145157312
 31
0.0
  0
LINE
  5
18C
102
{ACAD_REACTORS
330
191
102
}
100
AcDbEntity
  8
Z0_BOTCOMP
370
        25
  6
Continuous
 62
         4
100
AcDbLine
 10
2.2089491796
 20
23.145157312
 30
0.0
 11
2.107429477
 21
22.9693200293
 31
0.0
  0
LINE
  5
18D
102
{ACAD_REACTORS
330
191
102
}
100
AcDbEntity
  8
Z0_BOTCOMP
370
        25
  6
Continuous
 62
         4
100
AcDbLine
 10
2.0357440988
 20
23.445157312
 30
0.0
 11
2.2387835038
 21
23.445157312
 31
0.0
  0
LINE
  5
18E
102
{ACAD_REACTORS
330
191
102
}
100
AcDbEntity
  8
Z0_BOTCOMP
370
        25
  6
Continuous
 62
         4
100
AcDbLine
 10
2.0357440988
 20
23.530157312
 30
0.0
 11
2.0357440988
 21
23.445157312
 31
0.0
  0
CIRCLE
  5
18F
102
{ACAD_REACTORS
330
191
102
}
100
AcDbEntity
  8
Z0_BOTCOMP
370
        25
  6
Continuous
 62
         4
100
AcDbCircle
 10
2.0357440988
 20
23.245157312
 30
0.0
 40
0.059
  0
CIRCLE
  5
190
102
{ACAD_REACTORS
330
191
102
}
100
AcDbEntity
  8
Z0_BOTCOMP
370
        25
  6
Continuous
 62
         4
100
AcDbCircle
 10
2.0357440988
 20
23.245157312
 30
0.0
 40
0.085
  0
CIRCLE
  5
192
100
AcDbEntity
  8
Z0_TOPCOMP
370
        25
  6
Continuous
 62
         6
100
AcDbCircle
 10
2.0357440988
 20
23.245157312
 30
0.0
 40
0.35
  0
ARC
  5
193
102
{ACAD_REACTORS
330
197
102
}
100
AcDbEntity
  8
Z0_CUT500
370
        25
  6
Continuous
 62
         5
100
AcDbCircle
 10
2.3952323617
 20
22.1161531196
 30
0.0
 40
0.25
100
AcDbArc
 50
180.0
 51
0.0
  0
LINE
  5
194
102
{ACAD_REACTORS
330
197
102
}
100
AcDbEntity
  8
Z0_CUT500
370
        25
  6
Continuous
 62
         5
100
AcDbLine
 10
2.1452323617
 20
22.1161531196
 30
0.0
 11
2.1452323617
 21
22.7411531196
 31
0.0
  0
LINE
  5
195
102
{ACAD_REACTORS
330
197
102
}
100
AcDbEntity
  8
Z0_CUT500
370
        25
  6
Continuous
 62
         5
100
AcDbLine
 10
2.6452323617
 20
22.7411531196
 30
0.0
 11
2.6452323617
 21
22.1161531196
 31
0.0
  0
ARC
  5
196
102
{ACAD_REACTORS
330
197
102
}
100
AcDbEntity
  8
Z0_CUT500
370
        25
  6
Continuous
 62
         5
100
AcDbCircle
 10
2.3952323617
 20
22.7411531196
 30
0.0
 40
0.25
100
AcDbArc
 50
0.0
 51
180.0
  0
LINE
  5
198
102
{ACAD_REACTORS
330
1AC
102
}
100
AcDbEntity
  8
Z0_TOPCOMP
370
         5
  6
Continuous
 62
         6
100
AcDbLine
 10
2.5514780834
 20
22.2287092819
 30
0.0
 11
2.1014780834
 21
22.2287092819
 31
0.0
  0
LINE
  5
199
102
{ACAD_REACTORS
330
1AC
102
}
100
AcDbEntity
  8
Z0_TOPCOMP
370
         5
  6
Continuous
 62
         6
100
AcDbLine
 10
2.1014780834
 20
22.6287092819
 30
0.0
 11
2.5514780834
 21
22.6287092819
 31
0.0
  0
LINE
  5
19A
102
{ACAD_REACTORS
330
1AC
102
}
100
AcDbEntity
  8
Z0_TOPCOMP
370
         5
  6
Continuous
 62
         6
100
AcDbLine
 10
2.4514780834
 20
21.9287092819
 30
0.0
 11
2.5514780834
 21
21.9287092819
 31
0.0
  0
LINE
  5
19B
102
{ACAD_REACTORS
330
1AC
102
}
100
AcDbEntity
  8
Z0_TOPCOMP
370
         5
  6
Continuous
 62
         6
100
AcDbLine
 10
2.4514780834
 20
22.9287092819
 30
0.0
 11
2.4514780834
 21
21.9287092819
 31
0.0
  0
LINE
  5
19C
102
{ACAD_REACTORS
330
1AC
102
}
100
AcDbEntity
  8
Z0_TOPCOMP
370
         5
  6
Continuous
 62
         6
100
AcDbLine
 10
2.5514780834
 20
21.9287092819
 30
0.0
 11
2.5514780834
 21
22.9287092819
 31
0.0
  0
LINE
  5
19D
102
{ACAD_REACTORS
330
1AC
102
}
100
AcDbEntity
  8
Z0_TOPCOMP
370
         5
  6
Continuous
 62
         6
100
AcDbLine
 10
2.3952280834
 20
21.8662092819
 30
0.0
 11
2.3952280834
 21
21.8662092819
 31
0.0
  0
LINE
  5
19E
102
{ACAD_REACTORS
330
1AC
102
}
100
AcDbEntity
  8
Z0_TOPCOMP
370
         5
  6
Continuous
 62
         6
100
AcDbLine
 10
2.3952280834
 20
22.9912092819
 30
0.0
 11
2.3952280834
 21
22.9912092819
 31
0.0
  0
LINE
  5
19F
102
{ACAD_REACTORS
330
1AC
102
}
100
AcDbEntity
  8
Z0_TOPCOMP
370
         5
  6
Continuous
 62
         6
100
AcDbLine
 10
2.5514780834
 20
22.9287092819
 30
0.0
 11
2.4514780834
 21
22.9287092819
 31
0.0
  0
LINE
  5
1A0
102
{ACAD_REACTORS
330
1AC
102
}
100
AcDbEntity
  8
Z0_TOPCOMP
370
         5
  6
Continuous
 62
         6
100
AcDbLine
 10
2.5514780834
 20
22.6287092819
 30
0.0
 11
2.5514780834
 21
22.2287092819
 31
0.0
  0
LINE
  5
1A1
102
{ACAD_REACTORS
330
1AC
102
}
100
AcDbEntity
  8
Z0_TOPCOMP
370
         5
  6
Continuous
 62
         6
100
AcDbLine
 10
2.3952280834
 20
22.3662092819
 30
0.0
 11
2.3952280834
 21
22.3662092819
 31
0.0
  0
LINE
  5
1A2
102
{ACAD_REACTORS
330
1AC
102
}
100
AcDbEntity
  8
Z0_TOPCOMP
370
         5
  6
Continuous
 62
         6
100
AcDbLine
 10
2.1014780834
 20
22.3187092819
 30
0.0
 11
2.0014780834
 21
22.3187092819
 31
0.0
  0
LINE
  5
1A3
102
{ACAD_REACTORS
330
1AC
102
}
100
AcDbEntity
  8
Z0_TOPCOMP
370
         5
  6
Continuous
 62
         6
100
AcDbLine
 10
2.0014780834
 20
22.5387092819
 30
0.0
 11
2.1014780834
 21
22.5387092819
 31
0.0
  0
LINE
  5
1A4
102
{ACAD_REACTORS
330
1AC
102
}
100
AcDbEntity
  8
Z0_TOPCOMP
370
         5
  6
Continuous
 62
         6
100
AcDbLine
 10
2.0014780834
 20
22.3187092819
 30
0.0
 11
2.0014780834
 21
22.5387092819
 31
0.0
  0
LINE
  5
1A5
102
{ACAD_REACTORS
330
1AC
102
}
100
AcDbEntity
  8
Z0_TOPCOMP
370
         5
  6
Continuous
 62
         6
100
AcDbLine
 10
2.2077280834
 20
22.2287092819
 30
0.0
 11
2.1452280834
 21
22.2287092819
 31
0.0
  0
LINE
  5
1A6
102
{ACAD_REACTORS
330
1AC
102
}
100
AcDbEntity
  8
Z0_TOPCOMP
370
         5
  6
Continuous
 62
         6
100
AcDbLine
 10
2.2077280834
 20
22.6287092819
 30
0.0
 11
2.2077280834
 21
22.2287092819
 31
0.0
  0
LINE
  5
1A7
102
{ACAD_REACTORS
330
1AC
102
}
100
AcDbEntity
  8
Z0_TOPCOMP
370
         5
  6
Continuous
 62
         6
100
AcDbLine
 10
2.1452280834
 20
22.6287092819
 30
0.0
 11
2.2077280834
 21
22.6287092819
 31
0.0
  0
LINE
  5
1A8
102
{ACAD_REACTORS
330
1AC
102
}
100
AcDbEntity
  8
Z0_TOPCOMP
370
         5
  6
Continuous
 62
         6
100
AcDbLine
 10
2.1452280834
 20
22.2287092819
 30
0.0
 11
2.1452280834
 21
22.6287092819
 31
0.0
  0
LINE
  5
1A9
102
{ACAD_REACTORS
330
1AC
102
}
100
AcDbEntity
  8
Z0_TOPCOMP
370
         5
  6
Continuous
 62
         6
100
AcDbLine
 10
2.1014780834
 20
22.5387092819
 30
0.0
 11
2.1014780834
 21
22.3187092819
 31
0.0
  0
LINE
  5
1AA
102
{ACAD_REACTORS
330
1AC
102
}
100
AcDbEntity
  8
Z0_TOPCOMP
370
         5
  6
Continuous
 62
         6
100
AcDbLine
 10
2.1014780834
 20
22.2287092819
 30
0.0
 11
2.1014780834
 21
22.6287092819
 31
0.0
  0
LINE
  5
1AB
102
{ACAD_REACTORS
330
1AC
102
}
100
AcDbEntity
  8
Z0_TOPCOMP
370
         5
  6
Continuous
 62
         6
100
AcDbLine
 10
2.3952280834
 20
22.9912092819
 30
0.0
 11
2.3952280834
 21
22.9912092819
 31
0.0
  0
CIRCLE
  5
1AD
100
AcDbEntity
  8
Z0_TOPCOMP
370
        25
  6
Continuous
 62
         6
100
AcDbCircle
 10
16.2665357501
 20
18.3276169486
 30
0.0
 40
0.35
  0
CIRCLE
  5
1AE
102
{ACAD_REACTORS
330
1B0
102
}
100
AcDbEntity
  8
Z0_RUBBER
370
        25
  6
Continuous
 62
         2
100
AcDbCircle
 10
16.2665357501
 20
18.3276169486
 30
0.0
 40
0.4
  0
CIRCLE
  5
1AF
102
{ACAD_REACTORS
330
1B0
102
}
100
AcDbEntity
  8
Z0_RUBBER
370
        25
  6
Continuous
 62
         2
100
AcDbCircle
 10
16.2665357501
 20
18.3276169486
 30
0.0
 40
0.215
  0
LINE
  5
1B1
102
{ACAD_REACTORS
330
1C5
102
}
100
AcDbEntity
  8
Z0_TOPCOMP
370
         5
  6
Continuous
 62
         6
100
AcDbLine
 10
15.8235219178
 20
18.9561981777
 30
0.0
 11
16.2735219178
 21
18.9561981777
 31
0.0
  0
LINE
  5
1B2
102
{ACAD_REACTORS
330
1C5
102
}
100
AcDbEntity
  8
Z0_TOPCOMP
370
         5
  6
Continuous
 62
         6
100
AcDbLine
 10
16.2735219178
 20
19.3561981777
 30
0.0
 11
15.8235219178
 21
19.3561981777
 31
0.0
  0
LINE
  5
1B3
102
{ACAD_REACTORS
330
1C5
102
}
100
AcDbEntity
  8
Z0_TOPCOMP
370
         5
  6
Continuous
 62
         6
100
AcDbLine
 10
15.9235219178
 20
18.6561981777
 30
0.0
 11
15.8235219178
 21
18.6561981777
 31
0.0
  0
LINE
  5
1B4
102
{ACAD_REACTORS
330
1C5
102
}
100
AcDbEntity
  8
Z0_TOPCOMP
370
         5
  6
Continuous
 62
         6
100
AcDbLine
 10
15.9235219178
 20
19.6561981777
 30
0.0
 11
15.9235219178
 21
18.6561981777
 31
0.0
  0
LINE
  5
1B5
102
{ACAD_REACTORS
330
1C5
102
}
100
AcDbEntity
  8
Z0_TOPCOMP
370
         5
  6
Continuous
 62
         6
100
AcDbLine
 10
15.8235219178
 20
18.6561981777
 30
0.0
 11
15.8235219178
 21
19.6561981777
 31
0.0
  0
LINE
  5
1B6
102
{ACAD_REACTORS
330
1C5
102
}
100
AcDbEntity
  8
Z0_TOPCOMP
370
         5
  6
Continuous
 62
         6
100
AcDbLine
 10
15.9797719178
 20
18.5936981777
 30
0.0
 11
15.9797719178
 21
18.5936981777
 31
0.0
  0
LINE
  5
1B7
102
{ACAD_REACTORS
330
1C5
102
}
100
AcDbEntity
  8
Z0_TOPCOMP
370
         5
  6
Continuous
 62
         6
100
AcDbLine
 10
15.9797719178
 20
19.7186981777
 30
0.0
 11
15.9797719178
 21
19.7186981777
 31
0.0
  0
LINE
  5
1B8
102
{ACAD_REACTORS
330
1C5
102
}
100
AcDbEntity
  8
Z0_TOPCOMP
370
         5
  6
Continuous
 62
         6
100
AcDbLine
 10
15.8235219178
 20
19.6561981777
 30
0.0
 11
15.9235219178
 21
19.6561981777
 31
0.0
  0
LINE
  5
1B9
102
{ACAD_REACTORS
330
1C5
102
}
100
AcDbEntity
  8
Z0_TOPCOMP
370
         5
  6
Continuous
 62
         6
100
AcDbLine
 10
15.8235219178
 20
19.3561981777
 30
0.0
 11
15.8235219178
 21
18.9561981777
 31
0.0
  0
LINE
  5
1BA
102
{ACAD_REACTORS
330
1C5
102
}
100
AcDbEntity
  8
Z0_TOPCOMP
370
         5
  6
Continuous
 62
         6
100
AcDbLine
 10
15.9797719178
 20
19.0936981777
 30
0.0
 11
15.9797719178
 21
19.0936981777
 31
0.0
  0
LINE
  5
1BB
102
{ACAD_REACTORS
330
1C5
102
}
100
AcDbEntity
  8
Z0_TOPCOMP
370
         5
  6
Continuous
 62
         6
100
AcDbLine
 10
16.2735219178
 20
19.0461981777
 30
0.0
 11
16.3735219178
 21
19.0461981777
 31
0.0
  0
LINE
  5
1BC
102
{ACAD_REACTORS
330
1C5
102
}
100
AcDbEntity
  8
Z0_TOPCOMP
370
         5
  6
Continuous
 62
         6
100
AcDbLine
 10
16.3735219178
 20
19.2661981777
 30
0.0
 11
16.2735219178
 21
19.2661981777
 31
0.0
  0
LINE
  5
1BD
102
{ACAD_REACTORS
330
1C5
102
}
100
AcDbEntity
  8
Z0_TOPCOMP
370
         5
  6
Continuous
 62
         6
100
AcDbLine
 10
16.3735219178
 20
19.0461981777
 30
0.0
 11
16.3735219178
 21
19.2661981777
 31
0.0
  0
LINE
  5
1BE
102
{ACAD_REACTORS
330
1C5
102
}
100
AcDbEntity
  8
Z0_TOPCOMP
370
         5
  6
Continuous
 62
         6
100
AcDbLine
 10
16.1672719178
 20
18.9561981777
 30
0.0
 11
16.2297719178
 21
18.9561981777
 31
0.0
  0
LINE
  5
1BF
102
{ACAD_REACTORS
330
1C5
102
}
100
AcDbEntity
  8
Z0_TOPCOMP
370
         5
  6
Continuous
 62
         6
100
AcDbLine
 10
16.1672719178
 20
19.3561981777
 30
0.0
 11
16.1672719178
 21
18.9561981777
 31
0.0
  0
LINE
  5
1C0
102
{ACAD_REACTORS
330
1C5
102
}
100
AcDbEntity
  8
Z0_TOPCOMP
370
         5
  6
Continuous
 62
         6
100
AcDbLine
 10
16.2297719178
 20
19.3561981777
 30
0.0
 11
16.1672719178
 21
19.3561981777
 31
0.0
  0
LINE
  5
1C1
102
{ACAD_REACTORS
330
1C5
102
}
100
AcDbEntity
  8
Z0_TOPCOMP
370
         5
  6
Continuous
 62
         6
100
AcDbLine
 10
16.2297719178
 20
18.9561981777
 30
0.0
 11
16.2297719178
 21
19.3561981777
 31
0.0
  0
LINE
  5
1C2
102
{ACAD_REACTORS
330
1C5
102
}
100
AcDbEntity
  8
Z0_TOPCOMP
370
         5
  6
Continuous
 62
         6
100
AcDbLine
 10
16.2735219178
 20
19.2661981777
 30
0.0
 11
16.2735219178
 21
19.0461981777
 31
0.0
  0
LINE
  5
1C3
102
{ACAD_REACTORS
330
1C5
102
}
100
AcDbEntity
  8
Z0_TOPCOMP
370
         5
  6
Continuous
 62
         6
100
AcDbLine
 10
16.2735219178
 20
18.9561981777
 30
0.0
 11
16.2735219178
 21
19.3561981777
 31
0.0
  0
LINE
  5
1C4
102
{ACAD_REACTORS
330
1C5
102
}
100
AcDbEntity
  8
Z0_TOPCOMP
370
         5
  6
Continuous
 62
         6
100
AcDbLine
 10
15.9797719178
 20
19.7186981777
 30
0.0
 11
15.9797719178
 21
19.7186981777
 31
0.0
  0
ARC
  5
1C6
102
{ACAD_REACTORS
330
1D1
102
}
100
AcDbEntity
  8
Z0_BOTCOMP
370
        25
  6
Continuous
 62
         4
100
AcDbCircle
 10
2.0357440988
 20
21.6089027571
 30
0.0
 40
0.285
100
AcDbArc
 50
90.0
 51
164.5679286494
  0
ARC
  5
1C7
102
{ACAD_REACTORS
330
1D1
102
}
100
AcDbEntity
  8
Z0_BOTCOMP
370
        25
  6
Continuous
 62
         4
100
AcDbCircle
 10
2.0357440988
 20
21.6089027571
 30
0.0
 40
0.285
100
AcDbArc
 50
-150.0
 51
-75.4320713506
  0
ARC
  5
1C8
102
{ACAD_REACTORS
330
1D1
102
}
100
AcDbEntity
  8
Z0_BOTCOMP
370
        25
  6
Continuous
 62
         4
100
AcDbCircle
 10
2.0357440988
 20
21.6089027571
 30
0.0
 40
0.285
100
AcDbArc
 50
-30.0
 51
44.5679286494
  0
LINE
  5
1C9
102
{ACAD_REACTORS
330
1D1
102
}
100
AcDbEntity
  8
Z0_BOTCOMP
370
        25
  6
Continuous
 62
         4
100
AcDbLine
 10
1.7889268587
 20
21.4664027571
 30
0.0
 11
1.862539018
 21
21.5089027571
 31
0.0
  0
LINE
  5
1CA
102
{ACAD_REACTORS
330
1D1
102
}
100
AcDbEntity
  8
Z0_BOTCOMP
370
        25
  6
Continuous
 62
         4
100
AcDbLine
 10
1.862539018
 20
21.5089027571
 30
0.0
 11
1.7610193155
 21
21.6847400399
 31
0.0
  0
LINE
  5
1CB
102
{ACAD_REACTORS
330
1D1
102
}
100
AcDbEntity
  8
Z0_BOTCOMP
370
        25
  6
Continuous
 62
         4
100
AcDbLine
 10
2.2825613389
 20
21.4664027571
 30
0.0
 11
2.2089491796
 21
21.5089027571
 31
0.0
  0
LINE
  5
1CC
102
{ACAD_REACTORS
330
1D1
102
}
100
AcDbEntity
  8
Z0_BOTCOMP
370
        25
  6
Continuous
 62
         4
100
AcDbLine
 10
2.2089491796
 20
21.5089027571
 30
0.0
 11
2.107429477
 21
21.3330654744
 31
0.0
  0
LINE
  5
1CD
102
{ACAD_REACTORS
330
1D1
102
}
100
AcDbEntity
  8
Z0_BOTCOMP
370
        25
  6
Continuous
 62
         4
100
AcDbLine
 10
2.0357440988
 20
21.8089027571
 30
0.0
 11
2.2387835038
 21
21.8089027571
 31
0.0
  0
LINE
  5
1CE
102
{ACAD_REACTORS
330
1D1
102
}
100
AcDbEntity
  8
Z0_BOTCOMP
370
        25
  6
Continuous
 62
         4
100
AcDbLine
 10
2.0357440988
 20
21.8939027571
 30
0.0
 11
2.0357440988
 21
21.8089027571
 31
0.0
  0
CIRCLE
  5
1CF
102
{ACAD_REACTORS
330
1D1
102
}
100
AcDbEntity
  8
Z0_BOTCOMP
370
        25
  6
Continuous
 62
         4
100
AcDbCircle
 10
2.0357440988
 20
21.6089027571
 30
0.0
 40
0.059
  0
CIRCLE
  5
1D0
102
{ACAD_REACTORS
330
1D1
102
}
100
AcDbEntity
  8
Z0_BOTCOMP
370
        25
  6
Continuous
 62
         4
100
AcDbCircle
 10
2.0357440988
 20
21.6089027571
 30
0.0
 40
0.085
  0
ENDSEC
  0
SECTION
  2
OBJECTS
  0
DICTIONARY
  5
19
100
AcDbDictionary
280
         0
281
         1
  3
ACAD_GROUP
350
1A
  3
ACAD_MLINESTYLE
350
1B
  3
ACAD_LAYOUT
350
1E
  3
ACAD_PLOTSETTINGS
350
22
  3
ACAD_PLOTSTYLENAME
350
1F
  3
ACAD_WIPEOUT_VARS
350
23
  0
DICTIONARY
  5
1A
102
{ACAD_REACTORS
330
19
102
}
100
AcDbDictionary
280
         0
281
         1
  3
VELLUMGRP1
350
6C
  3
VELLUMGRP2
350
71
  3
VELLUMGRP3
350
88
  3
VELLUMGRP4
350
8F
  3
VELLUMGRP5
350
A4
  3
VELLUMGRP6
350
A7
  3
VELLUMGRP7
350
B4
  3
VELLUMGRP8
350
B9
  3
VELLUMGRP9
350
BC
  3
VELLUMGRP10
350
C0
  3
VELLUMGRP11
350
CC
  3
VELLUMGRP12
350
CF
  3
VELLUMGRP13
350
D3
  3
VELLUMGRP14
350
D8
  3
VELLUMGRP15
350
E4
  3
VELLUMGRP16
350
EA
  3
VELLUMGRP17
350
F6
  3
VELLUMGRP18
350
104
  3
VELLUMGRP19
350
109
  3
VELLUMGRP20
350
11E
  3
VELLUMGRP21
350
122
  3
VELLUMGRP22
350
126
  3
VELLUMGRP23
350
133
  3
VELLUMGRP24
350
141
  3
VELLUMGRP25
350
145
  3
VELLUMGRP26
350
148
  3
VELLUMGRP27
350
15D
  3
VELLUMGRP28
350
162
  3
VELLUMGRP29
350
16F
  3
VELLUMGRP30
350
185
  3
VELLUMGRP31
350
191
  3
VELLUMGRP32
350
197
  3
VELLUMGRP33
350
1AC
  3
VELLUMGRP34
350
1B0
  3
VELLUMGRP35
350
1C5
  3
VELLUMGRP36
350
1D1
  0
DICTIONARY
  5
1B
102
{ACAD_REACTORS
330
19
102
}
100
AcDbDictionary
280
         0
281
         1
  3
Standard
350
1C
  0
MLINESTYLE
  5
1C
102
{ACAD_REACTORS
330
1B
102
}
100
AcDbMlineStyle
  2
Standard
 70
         0
  3

 62
         0
 51
90.0
 52
90.0
 71
         2
 49
0.5
 62
       256
  6
BYLAYER
 49
-0.5
 62
       256
  6
BYLAYER
  0
ACDBDICTIONARYWDFLT
  5
1F
102
{ACAD_REACTORS
330
19
102
}
100
AcDbDictionary
281
         1
  3
Normal
350
1D
100
AcDbDictionaryWithDefault
340
1D
  0
ACDBPLACEHOLDER
  5
1D
102
{ACAD_REACTORS
330
1F
102
}
  0
LAYOUT
  5
20
102
{ACAD_REACTORS
330
1E
102
}
100
AcDbPlotSettings
  1

  2

  4

  6

 40
0.0
 41
0.0
 42
0.0
 43
0.0
 44
0.0
 45
0.0
 46
0.0
 47
0.0
 48
0.0
 49
0.0
140
0.0
141
0.0
142
1.0
143
1.0
 70
      1024
 72
         0
 73
         0
 74
         0
  7

 75
         0
147
1.0
148
0.0
149
0.0
100
AcDbLayout
  1
Model
 70
         0
 71
         0
 10
0.0
 20
0.0
 11
0.0
 21
0.0
 12
0.0
 22
0.0
 32
0.0
 14
0.0
 24
0.0
 34
0.0
 15
0.0
 25
0.0
 35
0.0
146
0.0
 13
0.0
 23
0.0
 33
0.0
 16
0.0
 26
0.0
 36
0.0
 17
0.0
 27
0.0
 37
0.0
 76
         0
330
A
331
0
345
0
346
0
  0
LAYOUT
  5
21
102
{ACAD_REACTORS
330
1E
102
}
100
AcDbPlotSettings
  1

  2

  4

  6

 40
0.0
 41
0.0
 42
0.0
 43
0.0
 44
0.0
 45
0.0
 46
0.0
 47
0.0
 48
0.0
 49
0.0
140
0.0
141
0.0
142
1.0
143
1.0
 70
         0
 72
         0
 73
         0
 74
         0
  7

 75
         0
147
1.0
148
0.0
149
0.0
100
AcDbLayout
  1
Layout1
 70
         0
 71
         0
 10
0.0
 20
0.0
 11
0.0
 21
0.0
 12
0.0
 22
0.0
 32
0.0
 14
0.0
 24
0.0
 34
0.0
 15
0.0
 25
0.0
 35
0.0
146
0.0
 13
0.0
 23
0.0
 33
0.0
 16
0.0
 26
0.0
 36
0.0
 17
0.0
 27
0.0
 37
0.0
 76
         0
330
B
331
0
345
0
346
0
  0
DICTIONARY
  5
1E
102
{ACAD_REACTORS
330
19
102
}
100
AcDbDictionary
280
         0
281
         1
  3
Layout1
350
21
  3
Model
350
20
  0
DICTIONARY
  5
22
102
{ACAD_REACTORS
330
19
102
}
100
AcDbDictionary
280
         0
281
         1
  0
WIPEOUTVARIABLES
  5
23
100
AcDbWipeoutVariables
 70
         1
  0
GROUP
  5
6C
102
{ACAD_XDICTIONARY
360
5CEB210060EB2100
102
}
102
{ACAD_REACTORS
330
1A
102
}
100
AcDbGroup
300
This is Vellum Group Number 1
 70
         0
 71
         1
340
58
340
59
340
5A
340
5B
340
5C
340
5D
340
5E
340
5F
340
60
340
61
340
62
340
63
340
64
340
65
340
66
340
67
340
68
340
69
340
6A
340
6B
  0
GROUP
  5
71
102
{ACAD_XDICTIONARY
360
5CEB210060EB2100
102
}
102
{ACAD_REACTORS
330
1A
102
}
100
AcDbGroup
300
This is Vellum Group Number 2
 70
         0
 71
         1
340
6D
340
6E
340
6F
340
70
  0
GROUP
  5
88
102
{ACAD_XDICTIONARY
360
5CEB210060EB2100
102
}
102
{ACAD_REACTORS
330
1A
102
}
100
AcDbGroup
300
This is Vellum Group Number 3
 70
         0
 71
         1
340
74
340
75
340
76
340
77
340
78
340
79
340
7A
340
7B
340
7C
340
7D
340
7E
340
7F
340
80
340
81
340
82
340
83
340
84
340
85
340
86
340
87
  0
GROUP
  5
8F
102
{ACAD_XDICTIONARY
360
5CEB210060EB2100
102
}
102
{ACAD_REACTORS
330
1A
102
}
100
AcDbGroup
300
This is Vellum Group Number 4
 70
         0
 71
         1
340
8B
340
8C
340
8D
340
8E
  0
GROUP
  5
A4
102
{ACAD_XDICTIONARY
360
3207917C60EB2100
102
}
102
{ACAD_REACTORS
330
1A
102
}
100
AcDbGroup
300
This is Vellum Group Number 5
 70
         0
 71
         1
340
90
340
91
340
92
340
93
340
94
340
95
340
96
340
97
340
98
340
99
340
9A
340
9B
340
9C
340
9D
340
9E
340
9F
340
A0
340
A1
340
A2
340
A3
  0
GROUP
  5
A7
102
{ACAD_XDICTIONARY
360
3207917C60EB2100
102
}
102
{ACAD_REACTORS
330
1A
102
}
100
AcDbGroup
300
This is Vellum Group Number 6
 70
         0
 71
         1
340
A5
340
A6
  0
GROUP
  5
B4
102
{ACAD_XDICTIONARY
360
3207917C60EB2100
102
}
102
{ACAD_REACTORS
330
1A
102
}
100
AcDbGroup
300
This is Vellum Group Number 7
 70
         0
 71
         1
340
A9
340
AA
340
AB
340
AC
340
AD
340
AE
340
AF
340
B0
340
B1
340
B2
340
B3
  0
GROUP
  5
B9
102
{ACAD_XDICTIONARY
360
3207917C60EB2100
102
}
102
{ACAD_REACTORS
330
1A
102
}
100
AcDbGroup
300
This is Vellum Group Number 8
 70
         0
 71
         1
340
B5
340
B6
340
B7
340
B8
  0
GROUP
  5
BC
102
{ACAD_XDICTIONARY
360
3207917C60EB2100
102
}
102
{ACAD_REACTORS
330
1A
102
}
100
AcDbGroup
300
This is Vellum Group Number 9
 70
         0
 71
         1
340
BA
340
BB
  0
GROUP
  5
C0
102
{ACAD_XDICTIONARY
360
3207917C60EB2100
102
}
102
{ACAD_REACTORS
330
1A
102
}
100
AcDbGroup
300
This is Vellum Group Number 10
 70
         0
 71
         1
340
BE
340
BF
  0
GROUP
  5
CC
102
{ACAD_XDICTIONARY
360
3207917C60EB2100
102
}
102
{ACAD_REACTORS
330
1A
102
}
100
AcDbGroup
300
This is Vellum Group Number 11
 70
         0
 71
         1
340
C1
340
C2
340
C3
340
C4
340
C5
340
C6
340
C7
340
C8
340
C9
340
CA
340
CB
  0
GROUP
  5
CF
102
{ACAD_XDICTIONARY
360
3207917C60EB2100
102
}
102
{ACAD_REACTORS
330
1A
102
}
100
AcDbGroup
300
This is Vellum Group Number 12
 70
         0
 71
         1
340
CD
340
CE
  0
GROUP
  5
D3
102
{ACAD_XDICTIONARY
360
3207917C60EB2100
102
}
102
{ACAD_REACTORS
330
1A
102
}
100
AcDbGroup
300
This is Vellum Group Number 13
 70
         0
 71
         1
340
D1
340
D2
  0
GROUP
  5
D8
102
{ACAD_XDICTIONARY
360
3207917C60EB2100
102
}
102
{ACAD_REACTORS
330
1A
102
}
100
AcDbGroup
300
This is Vellum Group Number 14
 70
         0
 71
         1
340
D4
340
D5
340
D6
340
D7
  0
GROUP
  5
E4
102
{ACAD_XDICTIONARY
360
3207917C60EB2100
102
}
102
{ACAD_REACTORS
330
1A
102
}
100
AcDbGroup
300
This is Vellum Group Number 15
 70
         0
 71
         1
340
D9
340
DA
340
DB
340
DC
340
DD
340
DE
340
DF
340
E0
340
E1
340
E2
340
E3
  0
GROUP
  5
EA
102
{ACAD_XDICTIONARY
360
3207917C60EB2100
102
}
102
{ACAD_REACTORS
330
1A
102
}
100
AcDbGroup
300
This is Vellum Group Number 16
 70
         0
 71
         1
340
E6
340
E7
340
E8
340
E9
  0
GROUP
  5
F6
102
{ACAD_XDICTIONARY
360
3207917C60EB2100
102
}
102
{ACAD_REACTORS
330
1A
102
}
100
AcDbGroup
300
This is Vellum Group Number 17
 70
         0
 71
         1
340
EB
340
EC
340
ED
340
EE
340
EF
340
F0
340
F1
340
F2
340
F3
340
F4
340
F5
  0
GROUP
  5
104
102
{ACAD_XDICTIONARY
360
3207917C60EB2100
102
}
102
{ACAD_REACTORS
330
1A
102
}
100
AcDbGroup
300
This is Vellum Group Number 18
 70
         0
 71
         1
340
F9
340
FA
340
FB
340
FC
340
FD
340
FE
340
FF
340
100
340
101
340
102
340
103
  0
GROUP
  5
109
102
{ACAD_XDICTIONARY
360
3207917C60EB2100
102
}
102
{ACAD_REACTORS
330
1A
102
}
100
AcDbGroup
300
This is Vellum Group Number 19
 70
         0
 71
         1
340
105
340
106
340
107
340
108
  0
GROUP
  5
11E
102
{ACAD_XDICTIONARY
360
3207917C60EB2100
102
}
102
{ACAD_REACTORS
330
1A
102
}
100
AcDbGroup
300
This is Vellum Group Number 20
 70
         0
 71
         1
340
10A
340
10B
340
10C
340
10D
340
10E
340
10F
340
110
340
111
340
112
340
113
340
114
340
115
340
116
340
117
340
118
340
119
340
11A
340
11B
340
11C
340
11D
  0
GROUP
  5
122
102
{ACAD_XDICTIONARY
360
3207917C60EB2100
102
}
102
{ACAD_REACTORS
330
1A
102
}
100
AcDbGroup
300
This is Vellum Group Number 21
 70
         0
 71
         1
340
120
340
121
  0
GROUP
  5
126
102
{ACAD_XDICTIONARY
360
3207917C60EB2100
102
}
102
{ACAD_REACTORS
330
1A
102
}
100
AcDbGroup
300
This is Vellum Group Number 22
 70
         0
 71
         1
340
124
340
125
  0
GROUP
  5
133
102
{ACAD_XDICTIONARY
360
3207917C60EB2100
102
}
102
{ACAD_REACTORS
330
1A
102
}
100
AcDbGroup
300
This is Vellum Group Number 23
 70
         0
 71
         1
340
128
340
129
340
12A
340
12B
340
12C
340
12D
340
12E
340
12F
340
130
340
131
340
132
  0
GROUP
  5
141
102
{ACAD_XDICTIONARY
360
3207917C60EB2100
102
}
102
{ACAD_REACTORS
330
1A
102
}
100
AcDbGroup
300
This is Vellum Group Number 24
 70
         0
 71
         1
340
136
340
137
340
138
340
139
340
13A
340
13B
340
13C
340
13D
340
13E
340
13F
340
140
  0
GROUP
  5
145
102
{ACAD_XDICTIONARY
360
3207917C60EB2100
102
}
102
{ACAD_REACTORS
330
1A
102
}
100
AcDbGroup
300
This is Vellum Group Number 25
 70
         0
 71
         1
340
143
340
144
  0
GROUP
  5
148
102
{ACAD_XDICTIONARY
360
3207917C60EB2100
102
}
102
{ACAD_REACTORS
330
1A
102
}
100
AcDbGroup
300
This is Vellum Group Number 26
 70
         0
 71
         1
340
146
340
147
  0
GROUP
  5
15D
102
{ACAD_XDICTIONARY
360
3207917C60EB2100
102
}
102
{ACAD_REACTORS
330
1A
102
}
100
AcDbGroup
300
This is Vellum Group Number 27
 70
         0
 71
         1
340
149
340
14A
340
14B
340
14C
340
14D
340
14E
340
14F
340
150
340
151
340
152
340
153
340
154
340
155
340
156
340
157
340
158
340
159
340
15A
340
15B
340
15C
  0
GROUP
  5
162
102
{ACAD_XDICTIONARY
360
3207917C60EB2100
102
}
102
{ACAD_REACTORS
330
1A
102
}
100
AcDbGroup
300
This is Vellum Group Number 28
 70
         0
 71
         1
340
15E
340
15F
340
160
340
161
  0
GROUP
  5
16F
102
{ACAD_XDICTIONARY
360
3207917C60EB2100
102
}
102
{ACAD_REACTORS
330
1A
102
}
100
AcDbGroup
300
This is Vellum Group Number 29
 70
         0
 71
         1
340
164
340
165
340
166
340
167
340
168
340
169
340
16A
340
16B
340
16C
340
16D
340
16E
  0
GROUP
  5
185
102
{ACAD_XDICTIONARY
360
3207917C60EB2100
102
}
102
{ACAD_REACTORS
330
1A
102
}
100
AcDbGroup
300
This is Vellum Group Number 30
 70
         0
 71
         1
340
171
340
172
340
173
340
174
340
175
340
176
340
177
340
178
340
179
340
17A
340
17B
340
17C
340
17D
340
17E
340
17F
340
180
340
181
340
182
340
183
340
184
  0
GROUP
  5
191
102
{ACAD_XDICTIONARY
360
3207917C60EB2100
102
}
102
{ACAD_REACTORS
330
1A
102
}
100
AcDbGroup
300
This is Vellum Group Number 31
 70
         0
 71
         1
340
186
340
187
340
188
340
189
340
18A
340
18B
340
18C
340
18D
340
18E
340
18F
340
190
  0
GROUP
  5
197
102
{ACAD_XDICTIONARY
360
3207917C60EB2100
102
}
102
{ACAD_REACTORS
330
1A
102
}
100
AcDbGroup
300
This is Vellum Group Number 32
 70
         0
 71
         1
340
193
340
194
340
195
340
196
  0
GROUP
  5
1AC
102
{ACAD_XDICTIONARY
360
3207917C60EB2100
102
}
102
{ACAD_REACTORS
330
1A
102
}
100
AcDbGroup
300
This is Vellum Group Number 33
 70
         0
 71
         1
340
198
340
199
340
19A
340
19B
340
19C
340
19D
340
19E
340
19F
340
1A0
340
1A1
340
1A2
340
1A3
340
1A4
340
1A5
340
1A6
340
1A7
340
1A8
340
1A9
340
1AA
340
1AB
  0
GROUP
  5
1B0
102
{ACAD_XDICTIONARY
360
3207917C60EB2100
102
}
102
{ACAD_REACTORS
330
1A
102
}
100
AcDbGroup
300
This is Vellum Group Number 34
 70
         0
 71
         1
340
1AE
340
1AF
  0
GROUP
  5
1C5
102
{ACAD_XDICTIONARY
360
3207917C60EB2100
102
}
102
{ACAD_REACTORS
330
1A
102
}
100
AcDbGroup
300
This is Vellum Group Number 35
 70
         0
 71
         1
340
1B1
340
1B2
340
1B3
340
1B4
340
1B5
340
1B6
340
1B7
340
1B8
340
1B9
340
1BA
340
1BB
340
1BC
340
1BD
340
1BE
340
1BF
340
1C0
340
1C1
340
1C2
340
1C3
340
1C4
  0
GROUP
  5
1D1
102
{ACAD_XDICTIONARY
360
3207917C60EB2100
102
}
102
{ACAD_REACTORS
330
1A
102
}
100
AcDbGroup
300
This is Vellum Group Number 36
 70
         0
 71
         1
340
1C6
340
1C7
340
1C8
340
1C9
340
1CA
340
1CB
340
1CC
340
1CD
340
1CE
340
1CF
340
1D0
  0
ENDSEC
  0
EOF
