  0
SECTION
  2
HEADER
  9
$ACADVER
  1
AC1015
  9
$ACADMAINTVER
 70
         6
  9
$DWGCODEPAGE
  3
ANSI_1252
  9
$INSBASE
 10
0.0
 20
0.0
 30
0.0
  9
$EXTMIN
 10
-0.93969262
 20
-0.98480775
 30
0.0
  9
$EXTMAX
 10
13.0
 20
12.98480775
 30
0.0
  9
$LIMMIN
 10
0.0
 20
0.0
  9
$LIMMAX
 10
0.0
 20
0.0
  9
$ORTHOMODE
 70
         0
  9
$REGENMODE
 70
         1
  9
$FILLMODE
 70
         1
  9
$QTEXTMODE
 70
         0
  9
$MIRRTEXT
 70
         1
  9
$LTSCALE
 40
5.0
  9
$ATTMODE
 70
         1
  9
$TEXTSIZE
 40
0.2
  9
$TRACEWID
 40
0.05
  9
$TEXTSTYLE
  7
Standard
  9
$CLAYER
  8
0
  9
$CELTYPE
  6
Continuous
  9
$CECOLOR
 62
       256
  9
$CELTSCALE
 40
1.0
  9
$DISPSILH
 70
         0
  9
$DIMSCALE
 40
1.0
  9
$DIMASZ
 40
0.18
  9
$DIMEXO
 40
0.0625
  9
$DIMDLI
 40
0.38
  9
$DIMRND
 40
0.0
  9
$DIMDLE
 40
0.0
  9
$DIMEXE
 40
0.18
  9
$DIMTP
 40
0.0
  9
$DIMTM
 40
0.0
  9
$DIMTXT
 40
0.18
  9
$DIMCEN
 40
0.09
  9
$DIMTSZ
 40
0.0
  9
$DIMTOL
 70
         0
  9
$DIMLIM
 70
         0
  9
$DIMTIH
 70
         1
  9
$DIMTOH
 70
         1
  9
$DIMSE1
 70
         0
  9
$DIMSE2
 70
         0
  9
$DIMTAD
 70
         0
  9
$DIMZIN
 70
         0
  9
$DIMBLK
  1

  9
$DIMASO
 70
         1
  9
$DIMSHO
 70
         1
  9
$DIMPOST
  1

  9
$DIMAPOST
  1

  9
$DIMALT
 70
         0
  9
$DIMALTD
 70
         2
  9
$DIMALTF
 40
25.4
  9
$DIMLFAC
 40
1.0
  9
$DIMTOFL
 70
         0
  9
$DIMTVP
 40
0.0
  9
$DIMTIX
 70
         0
  9
$DIMSOXD
 70
         0
  9
$DIMSAH
 70
         0
  9
$DIMBLK1
  1

  9
$DIMBLK2
  1

  9
$DIMSTYLE
  2
Standard
  9
$DIMCLRD
 70
         0
  9
$DIMCLRE
 70
         0
  9
$DIMCLRT
 70
         0
  9
$DIMTFAC
 40
1.0
  9
$DIMGAP
 40
0.09
  9
$DIMJUST
 70
         0
  9
$DIMSD1
 70
         0
  9
$DIMSD2
 70
         0
  9
$DIMTOLJ
 70
         1
  9
$DIMTZIN
 70
         0
  9
$DIMALTZ
 70
         0
  9
$DIMALTTZ
 70
         0
  9
$DIMUPT
 70
         0
  9
$DIMDEC
 70
         4
  9
$DIMTDEC
 70
         4
  9
$DIMALTU
 70
         2
  9
$DIMALTTD
 70
         2
  9
$DIMTXSTY
  7
Standard
  9
$DIMAUNIT
 70
         0
  9
$DIMADEC
 70
         0
  9
$DIMALTRND
 40
0.0
  9
$DIMAZIN
 70
         0
  9
$DIMDSEP
 70
         0
  9
$DIMATFIT
 70
         3
  9
$DIMFRAC
 70
         0
  9
$DIMLDRBLK
  1

  9
$DIMLUNIT
 70
         2
  9
$DIMLWD
 70
         0
  9
$DIMLWE
 70
         0
  9
$DIMTMOVE
 70
         0
  9
$LUNITS
 70
         2
  9
$LUPREC
 70
         4
  9
$SKETCHINC
 40
0.1
  9
$FILLETRAD
 40
0.0
  9
$AUNITS
 70
         0
  9
$AUPREC
 70
         0
  9
$MENU
  1
acad
  9
$ELEVATION
 40
0.0
  9
$PELEVATION
 40
0.0
  9
$THICKNESS
 40
0.0
  9
$LIMCHECK
 70
         0
  9
$CHAMFERA
 40
0.0
  9
$CHAMFERB
 40
0.0
  9
$CHAMFERC
 40
0.0
  9
$CHAMFERD
 40
0.0
  9
$SKPOLY
 70
         0
  9
$TDCREATE
 40
2460903.872511574
  9
$TDUCREATE
 40
0.000000000
  9
$TDUPDATE
 40
2460903.872511574
  9
$TDUUPDATE
 40
0.000000000
  9
$TDINDWG
 40
0.0000000000
  9
$TDUSRTIMER
 40
0.0000000000
  9
$USRTIMER
 70
         1
  9
$ANGBASE
 50
0.0
  9
$ANGDIR
 70
         0
  9
$PDMODE
 70
         0
  9
$PDSIZE
 40
0.0
  9
$PLINEWID
 40
0.0
  9
$SPLFRAME
 70
         0
  9
$SPLINETYPE
 70
         6
  9
$SPLINESEGS
 70
         8
  9
$HANDSEED
  5
2C0
  9
$SURFTAB1
 70
         6
  9
$SURFTAB2
 70
         6
  9
$SURFTYPE
 70
         6
  9
$SURFU
 70
         6
  9
$SURFV
 70
         6
  9
$UCSBASE
  2

  9
$UCSNAME
  2

  9
$UCSORG
 10
0.0
 20
0.0
 30
0.0
  9
$UCSXDIR
 10
1.0
 20
0.0
 30
0.0
  9
$UCSYDIR
 10
0.0
 20
1.0
 30
0.0
  9
$UCSORTHOREF
  2

  9
$UCSORTHOVIEW
 70
         0
  9
$UCSORGTOP
 10
0.0
 20
0.0
 30
0.0
  9
$UCSORGBOTTOM
 10
0.0
 20
0.0
 30
0.0
  9
$UCSORGLEFT
 10
0.0
 20
0.0
 30
0.0
  9
$UCSORGRIGHT
 10
0.0
 20
0.0
 30
0.0
  9
$UCSORGFRONT
 10
0.0
 20
0.0
 30
0.0
  9
$UCSORGBACK
 10
0.0
 20
0.0
 30
0.0
  9
$PUCSBASE
  2

  9
$PUCSNAME
  2

  9
$PUCSORG
 10
0.0
 20
0.0
 30
0.0
  9
$PUCSXDIR
 10
1.0
 20
0.0
 30
0.0
  9
$PUCSYDIR
 10
0.0
 20
1.0
 30
0.0
  9
$PUCSORTHOREF
  2

  9
$PUCSORTHOVIEW
 70
         0
  9
$PUCSORGTOP
 10
0.0
 20
0.0
 30
0.0
  9
$PUCSORGBOTTOM
 10
0.0
 20
0.0
 30
0.0
  9
$PUCSORGLEFT
 10
0.0
 20
0.0
 30
0.0
  9
$PUCSORGRIGHT
 10
0.0
 20
0.0
 30
0.0
  9
$PUCSORGFRONT
 10
0.0
 20
0.0
 30
0.0
  9
$PUCSORGBACK
 10
0.0
 20
0.0
 30
0.0
  9
$USERI1
 70
         0
  9
$USERI2
 70
         0
  9
$USERI3
 70
         0
  9
$USERI4
 70
         0
  9
$USERI5
 70
         0
  9
$USERR1
 40
0.0
  9
$USERR2
 40
0.0
  9
$USERR3
 40
0.0
  9
$USERR4
 40
0.0
  9
$USERR5
 40
0.0
  9
$WORLDVIEW
 70
         1
  9
$SHADEDGE
 70
         3
  9
$SHADEDIF
 70
        70
  9
$TILEMODE
 70
         1
  9
$MAXACTVP
 70
        16
  9
$PINSBASE
 10
0.0
 20
0.0
 30
0.0
  9
$PLIMCHECK
 70
         0
  9
$PEXTMIN
 10
1.0000000000E+20
 20
1.0000000000E+20
 30
1.0000000000E+20
  9
$PEXTMAX
 10
-1.0000000000E+20
 20
-1.0000000000E+20
 30
-1.0000000000E+20
  9
$PLIMMIN
 10
0.0
 20
0.0
  9
$PLIMMAX
 10
12.0
 20
9.0
  9
$UNITMODE
 70
         0
  9
$VISRETAIN
 70
         0
  9
$PLINEGEN
 70
         1
  9
$PSLTSCALE
 70
         0
  9
$TREEDEPTH
 70
      3020
  9
$CMLSTYLE
  2
Standard
  9
$CMLJUST
 70
         0
  9
$CMLSCALE
 40
1.0
  9
$PROXYGRAPHICS
 70
         0
  9
$MEASUREMENT
 70
         0
  9
$CELWEIGHT
370
         0
  9
$ENDCAPS
280
         0
  9
$JOINSTYLE
280
         0
  9
$LWDISPLAY
290
         0
  9
$INSUNITS
 70
         0
  9
$HYPERLINKBASE
  1

  9
$XEDIT
290
         1
  9
$CEPSNTYPE
380
         0
  9
$PSTYLEMODE
290
         1
  9
$FINGERPRINTGUID
  2

  9
$VERSIONGUID
  2

  9
$EXTNAMES
290
         1
  9
$PSVPSCALE
 40
0.0
  0
ENDSEC
  0
SECTION
  2
CLASSES
  0
CLASS
  1
LWPOLYLINE
  2
AcDbPolyline
  3
AutoCAD 2000
 90
    32768
280
         0
281
         1
  0
CLASS
  1
IMAGE
  2
AcDbRasterImage
  3
ISM
 90
    32895
280
         0
281
         1
  0
CLASS
  1
OLE2FRAME
  2
AcDbOle2Frame
  3
AutoCAD 2000
 90
    32768
280
         0
281
         1
  0
CLASS
  1
HATCH
  2
AcDbHatch
  3
AutoCAD 2000
 90
    32768
280
         0
281
         1
  0
CLASS
  1
DICTIONARYVAR
  2
AcDbDictionaryVar
  3
AutoCAD 2000
 90
    32768
280
         0
281
         0
  0
CLASS
  1
RASTERVARIABLES
  2
AcDbRasterVariables
  3
ISM
 90
    32768
280
         0
281
         0
  0
CLASS
  1
IMAGEDEF
  2
AcDbRasterImageDef
  3
ISM
 90
    32768
280
         0
281
         0
  0
CLASS
  1
IMAGEDEF_REACTOR
  2
AcDbRasterImageDefReactor
  3
ISM
 90
    32769
280
         0
281
         0
  0
CLASS
  1
IDBUFFER
  2
AcDbIdBuffer
  3
AutoCAD 2000
 90
    32768
280
         0
281
         0
  0
CLASS
  1
SPATIAL_FILTER
  2
AcDbSpatialFilter
  3
AutoCAD 2000
 90
    32768
280
         0
281
         0
  0
CLASS
  1
XRECORD
  2
AcDbXrecord
  3
AutoCAD 2000
 90
    32768
280
         0
281
         0
  0
CLASS
  1
SORTENTSTABLE
  2
AcDbSortentsTable
  3
AutoCAD 2000
 90
    32768
280
         0
281
         0
  0
CLASS
  1
LAYER_INDEX
  2
AcDbLayerIndex
  3
AutoCAD 2000
 90
    32768
280
         0
281
         0
  0
CLASS
  1
SPATIAL_INDEX
  2
AcDbSpatialIndex
  3
AutoCAD 2000
 90
    32768
280
         0
281
         0
  0
CLASS
  1
OBJECT_PTR
  2
CAseDLPNTableRecord
  3
"ASE-LPNTableRecord"
 90
    32769
280
         0
281
         0
  0
CLASS
  1
LAYOUT
  2
AcDbLayout
  3
AutoCAD 2000
 90
        0
280
         0
281
         0
  0
CLASS
  1
PLOTSETTINGS
  2
AcDbPlotSettings
  3
AutoCAD 2000
 90
    32768
280
         0
281
         0
  0
CLASS
  1
ACDBDICTIONARYWDFLT
  2
AcDbDictionaryWithDefault
  3
AutoCAD 2000
 90
        0
280
         0
281
         0
  0
CLASS
  1
ACDBPLACEHOLDER
  2
AcDbPlaceHolder
  3
AutoCAD 2000
 90
        0
280
         0
281
         0
  0
CLASS
  1
VBA_PROJECT
  2
AcDbVbaProject
  3
acadvba
 90
    32768
280
         0
281
         0
  0
CLASS
  1
WIPEOUT
  2
AcDbWipeout
  3
WipeOut|AutoCAD Express Tool|expresstools@autodesk.com
 90
    32895
280
         0
281
         1
  0
CLASS
  1
WIPEOUTVARIABLES
  2
AcDbWipeoutVariables
  3
WipeOut|AutoCAD Express Tool|expresstools@autodesk.com
 90
        0
280
         0
281
         0
  0
CLASS
  1
RTEXT
  2
RText
  3
RText|AutoCAD Express Tool|expresstools@autodesk.com
 90
    32768
280
         0
281
         1
  0
CLASS
  1
ARCALIGNEDTEXT
  2
AcDbArcAlignedText
  3
ATEXT|AutoCAD Express Tool|expresstools@autodesk.com
 90
    32768
280
         0
281
         1
  0
ENDSEC
  0
SECTION
  2
TABLES
  0
TABLE
  2
VPORT
  5
7
100
AcDbSymbolTable
 70
         1
  0
VPORT
  5
15
100
AcDbSymbolTableRecord
100
AcDbViewportTableRecord
  2
*ACTIVE
 70
         0
 10
0.0
 20
0.0
 11
1.0
 21
1.0
 12
6.591288
 22
4.579184
 13
0.0
 23
0.0
 14
1.0
 24
1.0
 15
0.0
 25
0.0
 16
0.0
 26
0.0
 36
1.0
 17
0.0
 27
0.0
 37
0.0
 40
9.158369
 41
0.688564
 42
50.0
 43
0.0
 44
0.0
 50
0.0
 51
0.0
 71
         0
 72
       100
 73
         1
 74
         1
 75
         0
 76
         0
 77
         0
 78
         0
281
         0
 65
         0
110
0.0
120
0.0
130
0.0
111
1.0
121
0.0
131
0.0
112
0.0
122
1.0
132
0.0
345
0
346
0
 79
         0
146
0.0
  0
ENDTAB
  0
TABLE
  2
LTYPE
  5
4
100
AcDbSymbolTable
 70
        13
  0
LTYPE
  5
11
100
AcDbSymbolTableRecord
100
AcDbLinetypeTableRecord
  2
ByBlock
 70
        64
  3

 72
        65
 73
         0
 40
0.0
  0
LTYPE
  5
12
100
AcDbSymbolTableRecord
100
AcDbLinetypeTableRecord
  2
ByLayer
 70
        64
  3

 72
        65
 73
         0
 40
0.0
  0
LTYPE
  5
13
100
AcDbSymbolTableRecord
100
AcDbLinetypeTableRecord
  2
Continuous
 70
        64
  3
Solid line
 72
        65
 73
         0
 40
0.0
  0
LTYPE
  5
25
100
AcDbSymbolTableRecord
100
AcDbLinetypeTableRecord
  2
Dotted
 70
        64
  3
Dotted
 72
        65
 73
         2
 40
0.125
 49
0.0
 74
         0
 49
-0.125
 74
         0
  0
LTYPE
  5
26
100
AcDbSymbolTableRecord
100
AcDbLinetypeTableRecord
  2
Center
 70
        64
  3
Center
 72
        65
 73
         4
 40
0.7699999809
 49
0.5
 74
         0
 49
-0.0724999979
 74
         0
 49
0.125
 74
         0
 49
-0.0724999979
 74
         0
  0
LTYPE
  5
27
100
AcDbSymbolTableRecord
100
AcDbLinetypeTableRecord
  2
Dashed
 70
        64
  3
Dashed
 72
        65
 73
         2
 40
0.375
 49
0.25
 74
         0
 49
-0.125
 74
         0
  0
LTYPE
  5
28
100
AcDbSymbolTableRecord
100
AcDbLinetypeTableRecord
  2
Hidden
 70
        64
  3
Hidden
 72
        65
 73
         2
 40
0.1974999905
 49
0.125
 74
         0
 49
-0.0724999979
 74
         0
  0
LTYPE
  5
29
100
AcDbSymbolTableRecord
100
AcDbLinetypeTableRecord
  2
Phantom
 70
        64
  3
Phantom
 72
        65
 73
         6
 40
0.9674999714
 49
0.5
 74
         0
 49
-0.0724999979
 74
         0
 49
0.125
 74
         0
 49
-0.0724999979
 74
         0
 49
0.125
 74
         0
 49
-0.0724999979
 74
         0
  0
LTYPE
  5
2A
100
AcDbSymbolTableRecord
100
AcDbLinetypeTableRecord
  2
Dashdot
 70
        64
  3
Dashdot
 72
        65
 73
         4
 40
0.6762499809
 49
0.5
 74
         0
 49
-0.0724999979
 74
         0
 49
0.03125
 74
         0
 49
-0.0724999979
 74
         0
  0
LTYPE
  5
2B
100
AcDbSymbolTableRecord
100
AcDbLinetypeTableRecord
  2
Border
 70
        64
  3
Border
 72
        65
 73
         6
 40
1.2487499714
 49
0.5
 74
         0
 49
-0.0724999979
 74
         0
 49
0.5
 74
         0
 49
-0.0724999979
 74
         0
 49
0.03125
 74
         0
 49
-0.0724999979
 74
         0
  0
LTYPE
  5
2C
100
AcDbSymbolTableRecord
100
AcDbLinetypeTableRecord
  2
Divide
 70
        64
  3
Divide
 72
        65
 73
         6
 40
0.7799999714
 49
0.5
 74
         0
 49
-0.0724999979
 74
         0
 49
0.03125
 74
         0
 49
-0.0724999979
 74
         0
 49
0.03125
 74
         0
 49
-0.0724999979
 74
         0
  0
LTYPE
  5
2D
100
AcDbSymbolTableRecord
100
AcDbLinetypeTableRecord
  2
Cutting
 70
        64
  3
Cutting
 72
        65
 73
         6
 40
1.4674999714
 49
1.0
 74
         0
 49
-0.0724999979
 74
         0
 49
0.125
 74
         0
 49
-0.0724999979
 74
         0
 49
0.125
 74
         0
 49
-0.0724999979
 74
         0
  0
LTYPE
  5
2E
100
AcDbSymbolTableRecord
100
AcDbLinetypeTableRecord
  2
Stitch
 70
        64
  3
Stitch
 72
        65
 73
         2
 40
0.1449999958
 49
0.0724999979
 74
         0
 49
-0.0724999979
 74
         0
  0
ENDTAB
  0
TABLE
  2
LAYER
  5
2
100
AcDbSymbolTable
 70
        42
  0
LAYER
  5
14
100
AcDbSymbolTableRecord
100
AcDbLayerTableRecord
  2
0
 70
         0
 62
         7
  6
Continuous
290
         1
370
        -3
390
1D
  0
LAYER
  5
2F
100
AcDbSymbolTableRecord
100
AcDbLayerTableRecord
  2
DF_COMP
 70
         0
 62
         4
  6
Continuous
290
         1
370
         2
390
1F
  0
LAYER
  5
30
100
AcDbSymbolTableRecord
100
AcDbLayerTableRecord
  2
1_250BIT_500DEP
 70
         0
 62
         5
  6
Continuous
290
         1
370
         2
390
1F
  0
LAYER
  5
31
100
AcDbSymbolTableRecord
100
AcDbLayerTableRecord
  2
2_250BIT_250DEP
 70
         0
 62
         3
  6
Continuous
290
         1
370
         2
390
1F
  0
LAYER
  5
32
100
AcDbSymbolTableRecord
100
AcDbLayerTableRecord
  2
3_250BIT_500TAB
 70
         0
 62
         5
  6
Continuous
290
         1
370
         2
390
1F
  0
LAYER
  5
33
100
AcDbSymbolTableRecord
100
AcDbLayerTableRecord
  2
4_250BIT_250TAB
 70
         0
 62
         5
  6
Continuous
290
         1
370
         2
390
1F
  0
LAYER
  5
34
100
AcDbSymbolTableRecord
100
AcDbLayerTableRecord
  2
5_250BIT_250SPEC
 70
         0
 62
         5
  6
Continuous
290
         1
370
         2
390
1F
  0
LAYER
  5
35
100
AcDbSymbolTableRecord
100
AcDbLayerTableRecord
  2
6_125BIT_500DEP
 70
         0
 62
         5
  6
Continuous
290
         1
370
         2
390
1F
  0
LAYER
  5
36
100
AcDbSymbolTableRecord
100
AcDbLayerTableRecord
  2
7_VCARVE_BIT
 70
         0
 62
         5
  6
Continuous
290
         1
370
         2
390
1F
  0
LAYER
  5
37
100
AcDbSymbolTableRecord
100
AcDbLayerTableRecord
  2
8_250BIT_500OUTLINE
 70
         0
 62
         5
  6
Continuous
290
         1
370
         2
390
1F
  0
LAYER
  5
38
100
AcDbSymbolTableRecord
100
AcDbLayerTableRecord
  2
PLASTICS
 70
         0
 62
        37
  6
Continuous
290
         1
370
         2
390
1F
  0
LAYER
  5
39
100
AcDbSymbolTableRecord
100
AcDbLayerTableRecord
  2
7A_1250BALL
 70
         0
 62
         5
  6
Continuous
290
         1
370
         2
390
1F
  0
LAYER
  5
3A
100
AcDbSymbolTableRecord
100
AcDbLayerTableRecord
  2
CONSTRUCTION
 70
         0
 62
         7
  6
Continuous
290
         1
370
         0
390
1F
  0
LAYER
  5
3B
100
AcDbSymbolTableRecord
100
AcDbLayerTableRecord
  2
0_WOOD
 70
         0
 62
         5
  6
Continuous
290
         1
370
         2
390
1F
  0
LAYER
  5
3C
100
AcDbSymbolTableRecord
100
AcDbLayerTableRecord
  2
Z_TATTOOMYSTIQUE
 70
         0
 62
        37
  6
Continuous
290
         1
370
         2
390
1F
  0
LAYER
  5
3D
100
AcDbSymbolTableRecord
100
AcDbLayerTableRecord
  2
Z_ROLLRGIRLZ
 70
         0
 62
        37
  6
Continuous
290
         1
370
         2
390
1F
  0
LAYER
  5
3E
100
AcDbSymbolTableRecord
100
AcDbLayerTableRecord
  2
Z_MISSADV
 70
         0
 62
         5
  6
Continuous
290
         1
370
         2
390
1F
  0
LAYER
  5
3F
100
AcDbSymbolTableRecord
100
AcDbLayerTableRecord
  2
Z_JUPITERCRUSH
 70
         0
 62
        37
  6
Continuous
290
         1
370
         2
390
1F
  0
LAYER
  5
40
100
AcDbSymbolTableRecord
100
AcDbLayerTableRecord
  2
Z_MODULAR
 70
         0
 62
         5
  6
Continuous
290
         1
370
         2
390
1F
  0
LAYER
  5
41
100
AcDbSymbolTableRecord
100
AcDbLayerTableRecord
  2
Z_GENERIC
 70
         0
 62
        27
  6
Continuous
290
         1
370
         2
390
1F
  0
LAYER
  5
42
100
AcDbSymbolTableRecord
100
AcDbLayerTableRecord
  2
UNASSIGNED
 70
         0
 62
         7
  6
Continuous
290
         1
370
         0
390
1F
  0
LAYER
  5
43
100
AcDbSymbolTableRecord
100
AcDbLayerTableRecord
  2
0
 70
         0
 62
        42
  6
Continuous
290
         1
370
         2
390
1F
  0
LAYER
  5
44
100
AcDbSymbolTableRecord
100
AcDbLayerTableRecord
  2
LAYER_1
 70
         0
 62
        42
  6
Continuous
290
         1
370
         2
390
1F
  0
LAYER
  5
45
100
AcDbSymbolTableRecord
100
AcDbLayerTableRecord
  2
LAYER_3
 70
         0
 62
         4
  6
Continuous
290
         1
370
         2
390
1F
  0
LAYER
  5
46
100
AcDbSymbolTableRecord
100
AcDbLayerTableRecord
  2
LAYER_2
 70
         0
 62
        42
  6
Continuous
290
         1
370
         2
390
1F
  0
LAYER
  5
47
100
AcDbSymbolTableRecord
100
AcDbLayerTableRecord
  2
X_POSTS
 70
         0
 62
         4
  6
Continuous
290
         1
370
         2
390
1F
  0
LAYER
  5
48
100
AcDbSymbolTableRecord
100
AcDbLayerTableRecord
  2
X_THUMPER
 70
         0
 62
         4
  6
Continuous
290
         1
370
         2
390
1F
  0
LAYER
  5
49
100
AcDbSymbolTableRecord
100
AcDbLayerTableRecord
  2
X_STANDUPS
 70
         0
 62
         4
  6
Continuous
290
         1
370
         2
390
1F
  0
LAYER
  5
4A
100
AcDbSymbolTableRecord
100
AcDbLayerTableRecord
  2
X_DROPS
 70
         0
 62
         4
  6
Continuous
290
         1
370
         2
390
1F
  0
LAYER
  5
4B
100
AcDbSymbolTableRecord
100
AcDbLayerTableRecord
  2
X_SMPOSTS
 70
         0
 62
         4
  6
Continuous
290
         1
370
         2
390
1F
  0
LAYER
  5
4C
100
AcDbSymbolTableRecord
100
AcDbLayerTableRecord
  2
X_ROLLOVER
 70
         0
 62
         4
  6
Continuous
290
         1
370
         2
390
1F
  0
LAYER
  5
4D
100
AcDbSymbolTableRecord
100
AcDbLayerTableRecord
  2
X_WALLS
 70
         0
 62
         4
  6
Continuous
290
         1
370
         2
390
1F
  0
LAYER
  5
4E
100
AcDbSymbolTableRecord
100
AcDbLayerTableRecord
  2
Z0_BOTCOMP
 70
         0
 62
         4
  6
Continuous
290
         1
370
         2
390
1F
  0
LAYER
  5
4F
100
AcDbSymbolTableRecord
100
AcDbLayerTableRecord
  2
Z0_TOPCOMP
 70
         0
 62
         6
  6
Continuous
290
         1
370
         2
390
1F
  0
LAYER
  5
50
100
AcDbSymbolTableRecord
100
AcDbLayerTableRecord
  2
Z0_CUT250
 70
         0
 62
         4
  6
Continuous
290
         1
370
         2
390
1F
  0
LAYER
  5
51
100
AcDbSymbolTableRecord
100
AcDbLayerTableRecord
  2
Z0_CUT500
 70
         0
 62
         4
  6
Continuous
290
         1
370
         2
390
1F
  0
LAYER
  5
52
100
AcDbSymbolTableRecord
100
AcDbLayerTableRecord
  2
Z0_PLASTICS
 70
         0
 62
        37
  6
Continuous
290
         1
370
         2
390
1F
  0
LAYER
  5
53
100
AcDbSymbolTableRecord
100
AcDbLayerTableRecord
  2
Z0_RUBBER
 70
         0
 62
         4
  6
Continuous
290
         1
370
         2
390
1F
  0
LAYER
  5
54
100
AcDbSymbolTableRecord
100
AcDbLayerTableRecord
  2
Z0_ZONES
 70
         0
 62
         6
  6
Continuous
290
         1
370
         2
390
1F
  0
LAYER
  5
55
100
AcDbSymbolTableRecord
100
AcDbLayerTableRecord
  2
Z0_WOODOUTLINE
 70
         0
 62
         5
  6
Continuous
290
         1
370
         2
390
1F
  0
LAYER
  5
56
100
AcDbSymbolTableRecord
100
AcDbLayerTableRecord
  2
Z0_LOWERTHIRD
 70
         0
 62
         4
  6
Continuous
290
         1
370
         2
390
1F
  0
LAYER
  5
57
100
AcDbSymbolTableRecord
100
AcDbLayerTableRecord
  2
PART_A
 70
         0
 62
         4
  6
Continuous
290
         1
370
         2
390
1F
  0
ENDTAB
  0
TABLE
  2
STYLE
  5
3
100
AcDbSymbolTable
 70
         2
  0
STYLE
  5
17
100
AcDbSymbolTableRecord
100
AcDbTextStyleTableRecord
  2
Standard
 70
         0
 40
0.0
 41
1.0
 50
0.0
 71
         0
 42
0.0
  3
txt
  4

  0
STYLE
  5
24
100
AcDbSymbolTableRecord
100
AcDbTextStyleTableRecord
  2
Plotter
 70
         0
 40
0.0
 41
0.98
 50
0.0
 71
         0
 42
0.0
  3
SIMPLEX
  4

  0
ENDTAB
  0
TABLE
  2
VIEW
  5
5
100
AcDbSymbolTable
 70
         0
  0
ENDTAB
  0
TABLE
  2
UCS
  5
6
100
AcDbSymbolTable
 70
         0
  0
ENDTAB
  0
TABLE
  2
APPID
  5
8
100
AcDbSymbolTable
 70
         1
  0
APPID
  5
16
100
AcDbSymbolTableRecord
100
AcDbRegAppTableRecord
  2
ACAD
 70
         0
  0
ENDTAB
  0
TABLE
  2
DIMSTYLE
  5
9
100
AcDbSymbolTable
 70
         1
100
AcDbDimStyleTable
 71
         0
  0
DIMSTYLE
105
18
100
AcDbSymbolTableRecord
100
AcDbDimStyleTableRecord
  2
Standard
 70
         0
  3

  4

 40
1.0
 41
0.18
 42
0.0625
 43
0.38
 44
0.18
 45
0.0
 46
0.0
 47
0.0
 48
0.0
 71
         0
 72
         0
 73
         1
 74
         1
 75
         0
 76
         0
 77
         0
 78
         0
 79
         0
140
0.18
141
0.09
142
0.0
143
25.4
144
1.0
145
0.0
146
1.0
147
0.09
148
0.0
170
         0
171
         2
172
         0
173
         0
174
         0
175
         0
176
         0
177
         0
178
         0
179
         0
271
         4
272
         4
273
         2
274
         2
275
         0
276
         0
277
         2
278
        46
279
         0
280
         0
281
         0
282
         0
283
         1
284
         0
285
         0
286
         0
288
         0
340
17
341
0
342
0
343
0
344
0
371
        -2
372
        -2
  0
ENDTAB
  0
TABLE
  2
BLOCK_RECORD
  5
1
100
AcDbSymbolTable
 70
         0
  0
BLOCK_RECORD
  5
A
100
AcDbSymbolTableRecord
100
AcDbBlockTableRecord
  2
*MODEL_SPACE
340
20
  0
BLOCK_RECORD
  5
B
100
AcDbSymbolTableRecord
100
AcDbBlockTableRecord
  2
*PAPER_SPACE
340
21
  0
ENDTAB
  0
ENDSEC
  0
SECTION
  2
BLOCKS
  0
BLOCK
  5
D
100
AcDbEntity
  8
0
100
AcDbBlockBegin
  2
*MODEL_SPACE
 70
         0
 10
0.0
 20
0.0
 30
0.0
  3
*MODEL_SPACE
  1

  0
ENDBLK
  5
E
100
AcDbEntity
  8
0
100
AcDbBlockEnd
  0
BLOCK
  5
F
100
AcDbEntity
 67
         1
  8
0
100
AcDbBlockBegin
  2
*PAPER_SPACE
 70
         0
 10
0.0
 20
0.0
 30
0.0
  3
*PAPER_SPACE
  1

  0
ENDBLK
  5
10
100
AcDbEntity
 67
         1
  8
0
100
AcDbBlockEnd
  0
ENDSEC
  0
SECTION
  2
ENTITIES
  0
LINE
  5
58
100
AcDbEntity
  8
Z0_LOWERTHIRD
370
        25
  6
Continuous
 62
         4
100
AcDbLine
 10
14.1143398167
 20
4.1723606418
 30
0.0
 11
14.1106746474
 21
4.2061129269
 31
0.0
  0
LINE
  5
59
100
AcDbEntity
  8
Z0_LOWERTHIRD
370
        25
  6
Continuous
 62
         4
100
AcDbLine
 10
14.8723352367
 20
3.5749194849
 30
0.0
 11
14.7802310645
 21
3.7643444525
 31
0.0
  0
LINE
  5
5A
100
AcDbEntity
  8
Z0_LOWERTHIRD
370
        25
  6
Continuous
 62
         4
100
AcDbLine
 10
14.8930434717
 20
3.4185882274
 30
0.0
 11
14.9522301209
 21
3.2968626982
 31
0.0
  0
ELLIPSE
  5
5B
100
AcDbEntity
  8
Z0_LOWERTHIRD
370
        25
  6
Continuous
 62
         4
100
AcDbEllipse
 10
14.9277373855
 20
3.2828689272
 30
0.0
 11
0.0142466380504873
 21
-0.0243465196716741
 31
0.0
210
0.0
220
0.0
230
1.0
 40
1.0
 41
0.0
 42
1.5604413450726238
  0
LINE
  5
5C
100
AcDbEntity
  8
Z0_LOWERTHIRD
370
        25
  6
Continuous
 62
         4
100
AcDbLine
 10
14.6582233895
 20
3.1205493693
 30
0.0
 11
14.6975785407
 21
3.0396100582
 31
0.0
  0
ELLIPSE
  5
5D
100
AcDbEntity
  8
Z0_LOWERTHIRD
370
        25
  6
Continuous
 62
         4
100
AcDbEllipse
 10
15.3007068074
 20
4.0543298729
 30
0.0
 11
1.28365206107187
 21
0.6221624786485985
 31
0.0
210
0.0
220
0.0
230
1.0
 40
0.9999999999
 41
0.0
 42
0.035247108250969
  0
ELLIPSE
  5
5E
100
AcDbEntity
  8
Z0_LOWERTHIRD
370
        25
  6
Continuous
 62
         4
100
AcDbEllipse
 10
15.6024704817
 20
3.9271535551
 30
0.0
 11
-0.0866403317650003
 21
-0.0619332199954931
 31
0.0
210
0.0
220
0.0
230
1.0
 40
1.0
 41
4.7123889803846897
 42
7.5179030303028096
  0
LINE
  5
5F
100
AcDbEntity
  8
Z0_LOWERTHIRD
370
        25
  6
Continuous
 62
         4
100
AcDbLine
 10
15.3812880714
 20
3.541621892
 30
0.0
 11
15.9995744753
 21
3.8422515192
 31
0.0
  0
LINE
  5
60
100
AcDbEntity
  8
Z0_LOWERTHIRD
370
        25
  6
Continuous
 62
         4
100
AcDbLine
 10
14.7716967228
 20
3.8706886947
 30
0.0
 11
14.7979334903
 21
3.816729154
 31
0.0
  0
LINE
  5
61
100
AcDbEntity
  8
Z0_LOWERTHIRD
370
        25
  6
Continuous
 62
         4
100
AcDbLine
 10
14.7979334903
 20
3.816729154
 30
0.0
 11
14.8214715413
 21
3.8281740692
 31
0.0
  0
LINE
  5
62
100
AcDbEntity
  8
Z0_LOWERTHIRD
370
        25
  6
Continuous
 62
         4
100
AcDbLine
 10
14.2272369046
 20
5.3433686567
 30
0.0
 11
15.0471358881
 21
3.6571330098
 31
0.0
  0
LINE
  5
63
100
AcDbEntity
  8
Z0_LOWERTHIRD
370
        25
  6
Continuous
 62
         4
100
AcDbLine
 10
14.8386872336
 20
3.7927676173
 30
0.0
 11
14.7952347738
 21
3.8821336099
 31
0.0
  0
ELLIPSE
  5
64
100
AcDbEntity
  8
Z0_LOWERTHIRD
370
        25
  6
Continuous
 62
         4
100
AcDbEllipse
 10
14.6475029259
 20
3.4655999285
 30
0.0
 11
0.2248317276710934
 21
0.1093207556935128
 31
0.0
210
0.0
220
0.0
230
1.0
 40
1.0
 41
4.7123889803846897
 42
6.2831799729222508
  0
LINE
  5
65
100
AcDbEntity
  8
Z0_LOWERTHIRD
370
        25
  6
Continuous
 62
         4
100
AcDbLine
 10
14.7979334903
 20
3.816729154
 30
0.0
 11
14.7630153722
 21
3.7997509045
 31
0.0
  0
LINE
  5
66
100
AcDbEntity
  8
Z0_LOWERTHIRD
370
        25
  6
Continuous
 62
         4
100
AcDbLine
 10
14.8386872336
 20
3.7927676173
 30
0.0
 11
14.9307914058
 21
3.6033426496
 31
0.0
  0
LINE
  5
67
100
AcDbEntity
  8
Z0_LOWERTHIRD
370
        25
  6
Continuous
 62
         4
100
AcDbLine
 10
14.8386872336
 20
3.7927676173
 30
0.0
 11
14.9539385172
 21
3.8488062916
 31
0.0
  0
ELLIPSE
  5
68
100
AcDbEntity
  8
Z0_LOWERTHIRD
370
        25
  6
Continuous
 62
         4
100
AcDbEllipse
 10
15.3574455937
 20
4.0820079426
 30
0.0
 11
1.2807981714533263
 21
0.6206848822268516
 31
0.0
210
0.0
220
0.0
230
1.0
 40
0.9999999999
 41
0.0
 42
0.0353266645520962
  0
LINE
  5
69
100
AcDbEntity
  8
Z0_LOWERTHIRD
370
        25
  6
Continuous
 62
         4
100
AcDbLine
 10
13.929892128
 20
4.1848664724
 30
0.0
 11
13.9375865619
 21
4.1600841465
 31
0.0
  0
LINE
  5
6A
100
AcDbEntity
  8
Z0_LOWERTHIRD
370
        25
  6
Continuous
 62
         4
100
AcDbLine
 10
13.9301719095
 20
4.2100846368
 30
0.0
 11
13.929892128
 21
4.1848664724
 31
0.0
  0
LINE
  5
6B
100
AcDbEntity
  8
Z0_LOWERTHIRD
370
        25
  6
Continuous
 62
         4
100
AcDbLine
 10
14.7276996557
 20
3.0542558591
 30
0.0
 11
14.6975785407
 21
3.0396100582
 31
0.0
  0
LINE
  5
6C
100
AcDbEntity
  8
Z0_LOWERTHIRD
370
        25
  6
Continuous
 62
         4
100
AcDbLine
 10
14.6582233895
 20
3.1205493693
 30
0.0
 11
14.6883445045
 21
3.1351951701
 31
0.0
  0
ELLIPSE
  5
6D
100
AcDbEntity
  8
Z0_LOWERTHIRD
370
        25
  6
Continuous
 62
         4
100
AcDbEllipse
 10
13.8841701891
 20
3.091663767
 30
0.0
 11
0.0843117823447471
 21
0.0409949491748922
 31
0.0
210
0.0
220
0.0
230
1.0
 40
1.0
 41
4.7123889803846897
 42
10.995574287564276
  0
LINE
  5
6E
100
AcDbEntity
  8
Z0_LOWERTHIRD
370
        25
  6
Continuous
 62
         4
100
AcDbLine
 10
14.198860633
 20
5.0488053333
 30
0.0
 11
14.222398684
 21
5.0602502486
 31
0.0
  0
LINE
  5
6F
100
AcDbEntity
  8
Z0_LOWERTHIRD
370
        25
  6
Continuous
 62
         4
100
AcDbLine
 10
14.2285903747
 20
5.6192329522
 30
0.0
 11
14.312126039
 21
5.6598505292
 31
0.0
  0
LINE
  5
70
100
AcDbEntity
  8
Z0_LOWERTHIRD
370
        25
  6
Continuous
 62
         4
100
AcDbLine
 10
14.2250974005
 20
4.9948457926
 30
0.0
 11
14.198860633
 21
5.0488053333
 31
0.0
  0
LINE
  5
71
100
AcDbEntity
  8
Z0_LOWERTHIRD
370
        25
  6
Continuous
 62
         4
100
AcDbLine
 10
14.2051829918
 20
5.0956567005
 30
0.0
 11
14.3204342754
 21
5.1516953749
 31
0.0
  0
LINE
  5
72
100
AcDbEntity
  8
Z0_LOWERTHIRD
370
        25
  6
Continuous
 62
         4
100
AcDbLine
 10
14.2051829918
 20
5.0956567005
 30
0.0
 11
14.2486354515
 21
5.0062907079
 31
0.0
  0
LINE
  5
73
100
AcDbEntity
  8
Z0_LOWERTHIRD
370
        25
  6
Continuous
 62
         4
100
AcDbLine
 10
14.2051829918
 20
5.0956567005
 30
0.0
 11
14.1130788196
 21
5.2850816681
 31
0.0
  0
LINE
  5
74
100
AcDbEntity
  8
Z0_LOWERTHIRD
370
        25
  6
Continuous
 62
         4
100
AcDbLine
 10
14.7367786047
 20
3.8537104452
 30
0.0
 11
14.7802310645
 21
3.7643444525
 31
0.0
  0
LINE
  5
75
100
AcDbEntity
  8
Z0_LOWERTHIRD
370
        25
  6
Continuous
 62
         4
100
AcDbLine
 10
13.5453059436
 20
4.2023455261
 30
0.0
 11
13.7285632052
 21
3.8254516242
 31
0.0
  0
LINE
  5
76
100
AcDbEntity
  8
Z0_LOWERTHIRD
370
        25
  6
Continuous
 62
         4
100
AcDbLine
 10
13.5052611842
 20
4.1806506594
 30
0.0
 11
13.6867693279
 21
3.8073540602
 31
0.0
  0
ELLIPSE
  5
77
100
AcDbEntity
  8
Z0_LOWERTHIRD
370
        25
  6
Continuous
 62
         5
100
AcDbEllipse
 10
15.6024704864
 20
3.9271535574
 30
0.0
 11
0.0041159654351233
 21
0.0849002875645131
 31
0.0
210
0.0
220
0.0
230
1.0
 40
1.0
 41
4.7123889803846897
 42
10.995574287563418
  0
CIRCLE
  5
78
100
AcDbEntity
  8
Z0_LOWERTHIRD
370
        25
  6
Continuous
 62
         5
100
AcDbCircle
 10
14.7825715029
 20
5.6133892043
 30
0.0
 40
0.085
  0
ELLIPSE
  5
79
100
AcDbEntity
  8
Z0_LOWERTHIRD
370
        25
  6
Continuous
 62
         5
100
AcDbEllipse
 10
16.951458912
 20
4.5830726995
 30
0.0
 11
0.0041159654351233
 21
0.0849002875645131
 31
0.0
210
0.0
220
0.0
230
1.0
 40
1.0
 41
4.7123889803846897
 42
10.995574287563349
  0
CIRCLE
  5
7A
100
AcDbEntity
  8
Z0_LOWERTHIRD
370
        25
  6
Continuous
 62
         5
100
AcDbCircle
 10
16.1315599501
 20
6.2693083568
 30
0.0
 40
0.085
  0
ARC
  5
7B
100
AcDbEntity
  8
Z0_LOWERTHIRD
370
        25
  6
Continuous
 62
         4
100
AcDbCircle
 10
14.452067833
 20
5.4526894391
 30
0.0
 40
0.2499989597
100
AcDbArc
 50
115.9301898346
 51
-154.0693333172
  0
LINE
  5
7C
100
AcDbEntity
  8
Z0_LOWERTHIRD
370
        25
  6
Continuous
 62
         4
100
AcDbLine
 10
14.1355193502
 20
5.0902832529
 30
0.0
 11
14.1939755193
 21
5.1187064176
 31
0.0
  0
LINE
  5
7D
100
AcDbEntity
  8
Z0_LOWERTHIRD
370
        25
  6
Continuous
 62
         4
100
AcDbLine
 10
13.9380600352
 20
4.3076469742
 30
0.0
 11
13.9133252786
 21
4.2905997562
 31
0.0
  0
LINE
  5
7E
100
AcDbEntity
  8
Z0_LOWERTHIRD
370
        25
  6
Continuous
 62
         4
100
AcDbLine
 10
13.9667434253
 20
4.3165732814
 30
0.0
 11
13.9380600352
 21
4.3076469742
 31
0.0
  0
LINE
  5
7F
100
AcDbEntity
  8
Z0_LOWERTHIRD
370
        25
  6
Continuous
 62
         4
100
AcDbLine
 10
14.2486354515
 20
5.0062907079
 30
0.0
 11
14.3638867351
 21
5.0623293822
 31
0.0
  0
LINE
  5
80
100
AcDbEntity
  8
Z0_LOWERTHIRD
370
        25
  6
Continuous
 62
         4
100
AcDbLine
 10
13.9375865619
 20
4.1600841465
 30
0.0
 11
13.952325876
 21
4.1387283672
 31
0.0
  0
LINE
  5
81
100
AcDbEntity
  8
Z0_LOWERTHIRD
370
        25
  6
Continuous
 62
         4
100
AcDbLine
 10
13.953558171
 20
4.2499793408
 30
0.0
 11
13.9383908873
 21
4.2326982356
 31
0.0
  0
LINE
  5
82
100
AcDbEntity
  8
Z0_LOWERTHIRD
370
        25
  6
Continuous
 62
         4
100
AcDbLine
 10
13.9512541581
 20
3.9678829839
 30
0.0
 11
13.9140854597
 21
3.9714911225
 31
0.0
  0
LINE
  5
83
100
AcDbEntity
  8
Z0_LOWERTHIRD
370
        25
  6
Continuous
 62
         4
100
AcDbLine
 10
13.9873617796
 20
3.9730569951
 30
0.0
 11
13.9512541581
 21
3.9678829839
 31
0.0
  0
LINE
  5
84
100
AcDbEntity
  8
Z0_LOWERTHIRD
370
        25
  6
Continuous
 62
         4
100
AcDbLine
 10
14.0127264331
 20
3.9825701694
 30
0.0
 11
13.9873617796
 21
3.9730569951
 31
0.0
  0
LINE
  5
85
100
AcDbEntity
  8
Z0_LOWERTHIRD
370
        25
  6
Continuous
 62
         4
100
AcDbLine
 10
14.0806829612
 20
4.2677949772
 30
0.0
 11
14.0564002886
 21
4.2915212942
 31
0.0
  0
LINE
  5
86
100
AcDbEntity
  8
Z0_LOWERTHIRD
370
        25
  6
Continuous
 62
         4
100
AcDbLine
 10
14.0991962856
 20
4.2386637024
 30
0.0
 11
14.0806829612
 21
4.2677949772
 31
0.0
  0
LINE
  5
87
100
AcDbEntity
  8
Z0_LOWERTHIRD
370
        25
  6
Continuous
 62
         4
100
AcDbLine
 10
14.1106746474
 20
4.2061129269
 30
0.0
 11
14.0991962856
 21
4.2386637024
 31
0.0
  0
LINE
  5
88
100
AcDbEntity
  8
Z0_LOWERTHIRD
370
        25
  6
Continuous
 62
         4
100
AcDbLine
 10
13.9738451597
 20
4.2598434908
 30
0.0
 11
13.953558171
 21
4.2499793408
 31
0.0
  0
LINE
  5
89
100
AcDbEntity
  8
Z0_LOWERTHIRD
370
        25
  6
Continuous
 62
         4
100
AcDbLine
 10
13.9968038888
 20
4.261100411
 30
0.0
 11
13.9738451597
 21
4.2598434908
 31
0.0
  0
LINE
  5
8A
100
AcDbEntity
  8
Z0_LOWERTHIRD
370
        25
  6
Continuous
 62
         4
100
AcDbLine
 10
14.0181535298
 20
4.1171300522
 30
0.0
 11
14.0384405185
 21
4.1269942023
 31
0.0
  0
LINE
  5
8B
100
AcDbEntity
  8
Z0_LOWERTHIRD
370
        25
  6
Continuous
 62
         4
100
AcDbLine
 10
14.0252557015
 20
4.0603993623
 30
0.0
 11
14.0539390915
 21
4.0693256695
 31
0.0
  0
LINE
  5
8C
100
AcDbEntity
  8
Z0_LOWERTHIRD
370
        25
  6
Continuous
 62
         4
100
AcDbLine
 10
13.9355988382
 20
4.0854513495
 30
0.0
 11
13.9639974275
 21
4.0687467445
 31
0.0
  0
LINE
  5
8D
100
AcDbEntity
  8
Z0_LOWERTHIRD
370
        25
  6
Continuous
 62
         4
100
AcDbLine
 10
14.6883445045
 20
3.1351951701
 30
0.0
 11
14.7276996557
 21
3.0542558591
 31
0.0
  0
LINE
  5
8E
100
AcDbEntity
  8
Z0_LOWERTHIRD
370
        25
  6
Continuous
 62
         4
100
AcDbLine
 10
14.791438537
 20
3.7412947354
 30
0.0
 11
14.8498947061
 21
3.7697179001
 31
0.0
  0
LINE
  5
8F
100
AcDbEntity
  8
Z0_LOWERTHIRD
370
        25
  6
Continuous
 62
         4
100
AcDbLine
 10
14.9522301209
 20
3.2968626982
 30
0.0
 11
17.5377914461
 21
4.5540411395
 31
0.0
  0
LINE
  5
90
100
AcDbEntity
  8
Z0_LOWERTHIRD
370
        25
  6
Continuous
 62
         4
100
AcDbLine
 10
15.4089384303
 20
5.7094582841
 30
0.0
 11
15.377176046
 21
5.6940144482
 31
0.0
  0
LINE
  5
91
100
AcDbEntity
  8
Z0_LOWERTHIRD
370
        25
  6
Continuous
 62
         4
100
AcDbLine
 10
15.377176046
 20
5.6940144482
 30
0.0
 11
16.0330952327
 21
4.3450259307
 31
0.0
  0
ELLIPSE
  5
92
100
AcDbEntity
  8
Z0_LOWERTHIRD
370
        25
  6
Continuous
 62
         4
100
AcDbEllipse
 10
15.7392586686
 20
6.0813405767
 30
0.0
 11
-0.10931847397353
 21
0.2248309389114476
 31
0.0
210
0.0
220
0.0
230
1.0
 40
1.0
 41
0.0
 42
1.5708046493651326
  0
LINE
  5
93
100
AcDbEntity
  8
Z0_LOWERTHIRD
370
        25
  6
Continuous
 62
         4
100
AcDbLine
 10
15.377176046
 20
5.6940144482
 30
0.0
 11
15.2951861476
 21
5.8626380129
 31
0.0
  0
LINE
  5
94
100
AcDbEntity
  8
Z0_LOWERTHIRD
370
        25
  6
Continuous
 62
         4
100
AcDbLine
 10
14.9938454802
 20
5.9913232258
 30
0.0
 11
15.5873851394
 21
6.2799202342
 31
0.0
  0
LINE
  5
95
100
AcDbEntity
  8
Z0_LOWERTHIRD
370
        25
  6
Continuous
 62
         4
100
AcDbLine
 10
14.7276996557
 20
3.0542558591
 30
0.0
 11
17.0884295613
 21
4.202114436
 31
0.0
  0
LINE
  5
96
100
AcDbEntity
  8
Z0_LOWERTHIRD
370
        25
  6
Continuous
 62
         4
100
AcDbLine
 10
14.6883445045
 20
3.1351951701
 30
0.0
 11
17.0490744101
 21
4.283053747
 31
0.0
  0
LINE
  5
97
100
AcDbEntity
  8
Z0_LOWERTHIRD
370
        25
  6
Continuous
 62
         4
100
AcDbLine
 10
13.5557907086
 20
5.4644486771
 30
0.0
 11
15.9165206143
 21
6.612307254
 31
0.0
  0
LINE
  5
98
100
AcDbEntity
  8
Z0_LOWERTHIRD
370
        25
  6
Continuous
 62
         4
100
AcDbLine
 10
13.8852682437
 20
5.4912173533
 30
0.0
 11
16.4708295689
 21
6.7483957947
 31
0.0
  0
LINE
  5
99
100
AcDbEntity
  8
Z0_LOWERTHIRD
370
        25
  6
Continuous
 62
         4
100
AcDbLine
 10
13.5951458598
 20
5.383509366
 30
0.0
 11
15.9558757655
 21
6.5313679429
 31
0.0
  0
LINE
  5
9A
100
AcDbEntity
  8
Z0_LOWERTHIRD
370
        25
  6
Continuous
 62
         4
100
AcDbLine
 10
14.0536082395
 20
4.1442744081
 30
0.0
 11
14.0618272172
 21
4.1668880069
 31
0.0
  0
LINE
  5
9B
100
AcDbEntity
  8
Z0_LOWERTHIRD
370
        25
  6
Continuous
 62
         4
100
AcDbLine
 10
14.7952347738
 20
3.8821336099
 30
0.0
 11
14.9104860575
 21
3.9381722843
 31
0.0
  0
LINE
  5
9C
100
AcDbEntity
  8
Z0_LOWERTHIRD
370
        25
  6
Continuous
 62
         4
100
AcDbLine
 10
14.7716967228
 20
3.8706886947
 30
0.0
 11
14.7367786047
 21
3.8537104452
 31
0.0
  0
ELLIPSE
  5
9D
100
AcDbEntity
  8
Z0_LOWERTHIRD
370
        25
  6
Continuous
 62
         4
100
AcDbEllipse
 10
13.986088473
 20
4.1689022863
 30
0.0
 11
0.0664332065649912
 21
-0.1669952638365092
 31
0.0
210
0.0
220
0.0
230
1.0
 40
1.0
 41
4.7123889803846897
 42
6.2821001082844345
  0
ELLIPSE
  5
9E
100
AcDbEntity
  8
Z0_LOWERTHIRD
370
        25
  6
Continuous
 62
         4
100
AcDbEllipse
 10
13.9742886176
 20
4.1927698659
 30
0.0
 11
-0.0891213629715509
 21
0.1558756858786082
 31
0.0
210
0.0
220
0.0
230
1.0
 40
1.0
 41
0.0
 42
1.5783792724736816
  0
LINE
  5
9F
100
AcDbEntity
  8
Z0_LOWERTHIRD
370
        25
  6
Continuous
 62
         4
100
AcDbLine
 10
13.8434815248
 20
4.0039736262
 30
0.0
 11
13.8133493507
 21
4.0313305891
 31
0.0
  0
LINE
  5
A0
100
AcDbEntity
  8
Z0_LOWERTHIRD
370
        25
  6
Continuous
 62
         4
100
AcDbLine
 10
13.8775917805
 20
3.9837114605
 30
0.0
 11
13.8434815248
 21
4.0039736262
 31
0.0
  0
LINE
  5
A1
100
AcDbEntity
  8
Z0_LOWERTHIRD
370
        25
  6
Continuous
 62
         4
100
AcDbLine
 10
13.5256695937
 20
5.4498028762
 30
0.0
 11
13.5650247449
 21
5.3688635651
 31
0.0
  0
LINE
  5
A2
100
AcDbEntity
  8
Z0_LOWERTHIRD
370
        25
  6
Continuous
 62
         4
100
AcDbLine
 10
13.8852682437
 20
5.4912173533
 30
0.0
 11
13.9444548929
 21
5.3694918241
 31
0.0
  0
ELLIPSE
  5
A3
100
AcDbEntity
  8
Z0_LOWERTHIRD
370
        25
  6
Continuous
 62
         4
100
AcDbEllipse
 10
13.8591367868
 20
5.4805977519
 30
0.0
 11
-0.0106196013805242
 21
0.0261314568609052
 31
0.0
210
0.0
220
0.0
230
1.0
 40
1.0
 41
4.7123889803846897
 42
6.2729432044905753
  0
LINE
  5
A4
100
AcDbEntity
  8
Z0_LOWERTHIRD
370
        25
  6
Continuous
 62
         4
100
AcDbLine
 10
13.8212270697
 20
4.3147360014
 30
0.0
 11
13.8443738419
 21
4.3288105556
 31
0.0
  0
ELLIPSE
  5
A5
100
AcDbEntity
  8
Z0_LOWERTHIRD
370
        25
  6
Continuous
 62
         4
100
AcDbEllipse
 10
14.3379088486
 20
5.3944020133
 30
0.0
 11
-0.1093184739736444
 21
0.224830938911623
 31
0.0
210
0.0
220
0.0
230
1.0
 40
1.0
 41
0.0
 42
1.5708046493642487
  0
LINE
  5
A6
100
AcDbEntity
  8
Z0_LOWERTHIRD
370
        25
  6
Continuous
 62
         4
100
AcDbLine
 10
14.0977744181
 20
4.1103789705
 30
0.0
 11
14.1099390993
 21
4.1397080177
 31
0.0
  0
LINE
  5
A7
100
AcDbEntity
  8
Z0_LOWERTHIRD
370
        25
  6
Continuous
 62
         4
100
AcDbLine
 10
14.0621065615
 20
4.1921070706
 30
0.0
 11
14.0544125648
 21
4.2168884972
 31
0.0
  0
LINE
  5
A8
100
AcDbEntity
  8
Z0_LOWERTHIRD
370
        25
  6
Continuous
 62
         4
100
AcDbLine
 10
14.0280003626
 20
4.3082263612
 30
0.0
 11
13.9974200943
 21
4.3167715157
 31
0.0
  0
LINE
  5
A9
100
AcDbEntity
  8
Z0_LOWERTHIRD
370
        25
  6
Continuous
 62
         4
100
AcDbLine
 10
14.0564002886
 20
4.2915212942
 30
0.0
 11
14.0280003626
 21
4.3082263612
 31
0.0
  0
LINE
  5
AA
100
AcDbEntity
  8
Z0_LOWERTHIRD
370
        25
  6
Continuous
 62
         4
100
AcDbLine
 10
13.952325876
 20
4.1387283672
 30
0.0
 11
13.9723335203
 21
4.1233734535
 31
0.0
  0
LINE
  5
AB
100
AcDbEntity
  8
Z0_LOWERTHIRD
370
        25
  6
Continuous
 62
         4
100
AcDbLine
 10
14.2732013224
 20
4.5966928745
 30
0.0
 11
14.4882518615
 21
4.1544117005
 31
0.0
  0
LINE
  5
AC
100
AcDbEntity
  8
Z0_LOWERTHIRD
370
        25
  6
Continuous
 62
         4
100
AcDbLine
 10
14.0786738481
 20
4.0863728875
 30
0.0
 11
14.0977744181
 21
4.1103789705
 31
0.0
  0
LINE
  5
AD
100
AcDbEntity
  8
Z0_LOWERTHIRD
370
        25
  6
Continuous
 62
         4
100
AcDbLine
 10
14.0539390915
 20
4.0693256695
 30
0.0
 11
14.0786738481
 21
4.0863728875
 31
0.0
  0
LINE
  5
AE
100
AcDbEntity
  8
Z0_LOWERTHIRD
370
        25
  6
Continuous
 62
         4
100
AcDbLine
 10
14.0384405185
 20
4.1269942023
 30
0.0
 11
14.0536082395
 21
4.1442744081
 31
0.0
  0
ELLIPSE
  5
AF
100
AcDbEntity
  8
Z0_LOWERTHIRD
370
        25
  6
Continuous
 62
         4
100
AcDbEllipse
 10
15.6024664538
 20
3.92715595
 30
0.0
 11
-0.0880748371567069
 21
-0.0589740079365107
 31
0.0
210
0.0
220
0.0
230
1.0
 40
1.0
 41
4.7123889803846897
 42
5.5670426235383248
  0
ELLIPSE
  5
B0
100
AcDbEntity
  8
Z0_LOWERTHIRD
370
        25
  6
Continuous
 62
         4
100
AcDbEllipse
 10
15.6024705136
 20
3.9271535706
 30
0.0
 11
0.0880777703607281
 21
0.0589769287338574
 31
0.0
210
0.0
220
0.0
230
1.0
 40
1.0
 41
4.7123889803846897
 42
7.5790622424720597
  0
ELLIPSE
  5
B1
100
AcDbEntity
  8
Z0_LOWERTHIRD
370
        25
  6
Continuous
 62
         4
100
AcDbEllipse
 10
15.6024704864
 20
3.9271535574
 30
0.0
 11
0.0866408568642083
 21
0.0619321400563539
 31
0.0
210
0.0
220
0.0
230
1.0
 40
1.0
 41
4.7123889803846897
 42
7.5179252635243614
  0
LINE
  5
B2
100
AcDbEntity
  8
Z0_LOWERTHIRD
370
        25
  6
Continuous
 62
         4
100
AcDbLine
 10
13.9383908873
 20
4.2326982356
 30
0.0
 11
13.9301719095
 21
4.2100846368
 31
0.0
  0
LINE
  5
B3
100
AcDbEntity
  8
Z0_LOWERTHIRD
370
        25
  6
Continuous
 62
         4
100
AcDbLine
 10
13.9140854597
 20
3.9714911225
 30
0.0
 11
13.8775917805
 21
3.9837114605
 31
0.0
  0
SPLINE
  5
B4
100
AcDbEntity
  8
Z0_LOWERTHIRD
370
        25
  6
Continuous
 62
         4
100
AcDbSpline
210
0.0
220
0.0
230
1.0
 70
         0
 71
         3
 72
        12
 73
         8
 74
         0
 42
0.000001
 43
0.000001
 40
0.0
 40
0.0
 40
0.0
 40
0.0
 40
0.151889
 40
0.285791
 40
0.50097
 40
0.719492
 40
1.0
 40
1.0
 40
1.0
 40
1.0
 10
16.077873168607368
 20
5.8777804207800273
 30
0.0
 10
16.071767538987842
 20
5.874761640737006
 30
0.0
 10
16.060281623058302
 20
5.8690801004299828
 30
0.0
 10
16.042050692919361
 20
5.8617679426590712
 30
0.0
 10
16.024393219674096
 20
5.8573310068256887
 30
0.0
 10
16.006496714992124
 20
5.8651904801013188
 30
0.0
 10
15.999520052519642
 20
5.8781782653916252
 30
0.0
 10
15.995597667226775
 20
5.8854790927155136
 30
0.0
  0
SPLINE
  5
B5
100
AcDbEntity
  8
Z0_LOWERTHIRD
370
        25
  6
Continuous
 62
         4
100
AcDbSpline
210
0.0
220
0.0
230
1.0
 70
         0
 71
         3
 72
        12
 73
         8
 74
         0
 42
0.000001
 43
0.000001
 40
0.0
 40
0.0
 40
0.0
 40
0.0
 40
0.064265
 40
0.182494
 40
0.321973
 40
0.502958
 40
1.0
 40
1.0
 40
1.0
 40
1.0
 10
16.077729392366848
 20
5.8802646483045464
 30
0.0
 10
16.07686599258227
 20
5.8802039950937797
 30
0.0
 10
16.074412746121311
 20
5.8800308050181229
 30
0.0
 10
16.070538844201792
 20
5.8814530064514656
 30
0.0
 10
16.065726370398295
 20
5.885274318515485
 30
0.0
 10
16.057909741707988
 20
5.8947046606574531
 30
0.0
 10
16.053048050850805
 20
5.9044998690785633
 30
0.0
 10
16.049483463221804
 20
5.9116800032718402
 30
0.0
  0
SPLINE
  5
B6
100
AcDbEntity
  8
Z0_LOWERTHIRD
370
        25
  6
Continuous
 62
         4
100
AcDbSpline
210
0.0
220
0.0
230
1.0
 70
         0
 71
         3
 72
        12
 73
         8
 74
         0
 42
0.000001
 43
0.000001
 40
0.0
 40
0.0
 40
0.0
 40
0.0
 40
0.518904
 40
0.707406
 40
0.852179
 40
0.980964
 40
1.0
 40
1.0
 40
1.0
 40
1.0
 10
16.615522481132587
 20
4.7475424829854092
 30
0.0
 10
16.612446898171527
 20
4.7540919576554188
 30
0.0
 10
16.608254520519438
 20
4.7630206022681705
 30
0.0
 10
16.606339117251366
 20
4.7738936749858567
 30
0.0
 10
16.60669624280348
 20
4.7794457945215072
 30
0.0
 10
16.607821167427574
 20
4.7825246640527439
 30
0.0
 10
16.609080252144224
 20
4.7837451027755833
 30
0.0
 10
16.609242997602962
 20
4.7839020706564952
 30
0.0
  0
LINE
  5
B7
100
AcDbEntity
  8
Z0_LOWERTHIRD
370
        25
  6
Continuous
 62
         4
100
AcDbLine
 10
16.6217159229
 20
5.5855651071
 30
0.0
 11
16.6390381466
 21
5.6149711979
 31
0.0
  0
LINE
  5
B8
100
AcDbEntity
  8
Z0_LOWERTHIRD
370
        25
  6
Continuous
 62
         4
100
AcDbLine
 10
16.612208245
 20
5.552395241
 30
0.0
 11
16.6217159229
 21
5.5855651071
 31
0.0
  0
LINE
  5
B9
100
AcDbEntity
  8
Z0_LOWERTHIRD
370
        25
  6
Continuous
 62
         4
100
AcDbLine
 10
16.6111111051
 20
5.5175449555
 30
0.0
 11
16.612208245
 21
5.552395241
 31
0.0
  0
LINE
  5
BA
100
AcDbEntity
  8
Z0_LOWERTHIRD
370
        25
  6
Continuous
 62
         4
100
AcDbLine
 10
16.5029403424
 20
6.4383216746
 30
0.0
 11
16.4886732391
 21
6.4659693771
 31
0.0
  0
LINE
  5
BB
100
AcDbEntity
  8
Z0_LOWERTHIRD
370
        25
  6
Continuous
 62
         4
100
AcDbLine
 10
16.5128723308
 20
6.4095023646
 30
0.0
 11
16.5029403424
 21
6.4383216746
 31
0.0
  0
LINE
  5
BC
100
AcDbEntity
  8
Z0_LOWERTHIRD
370
        25
  6
Continuous
 62
         4
100
AcDbLine
 10
16.5176627583
 20
6.3818469278
 30
0.0
 11
16.5128723308
 21
6.4095023646
 31
0.0
  0
LINE
  5
BD
100
AcDbEntity
  8
Z0_LOWERTHIRD
370
        25
  6
Continuous
 62
         4
100
AcDbLine
 10
16.6563446041
 20
5.4245160093
 30
0.0
 11
16.6338962747
 21
5.4515315914
 31
0.0
  0
LINE
  5
BE
100
AcDbEntity
  8
Z0_LOWERTHIRD
370
        25
  6
Continuous
 62
         4
100
AcDbLine
 10
16.4145308926
 20
6.525114886
 30
0.0
 11
16.4015846188
 21
6.5222492505
 31
0.0
  0
LINE
  5
BF
100
AcDbEntity
  8
Z0_LOWERTHIRD
370
        25
  6
Continuous
 62
         4
100
AcDbLine
 10
13.911314829
 20
4.1091781285
 30
0.0
 11
13.9355988382
 21
4.0854513495
 31
0.0
  0
LINE
  5
C0
100
AcDbEntity
  8
Z0_LOWERTHIRD
370
        25
  6
Continuous
 62
         4
100
AcDbLine
 10
13.8928028411
 20
4.1383089413
 30
0.0
 11
13.911314829
 21
4.1091781285
 31
0.0
  0
LINE
  5
C1
100
AcDbEntity
  8
Z0_LOWERTHIRD
370
        25
  6
Continuous
 62
         4
100
AcDbLine
 10
14.3273022421
 20
4.6260028581
 30
0.0
 11
14.5447158394
 21
4.1788617281
 31
0.0
  0
LINE
  5
C2
100
AcDbEntity
  8
Z0_LOWERTHIRD
370
        25
  6
Continuous
 62
         4
100
AcDbLine
 10
14.0544125648
 20
4.2168884972
 30
0.0
 11
14.0396728135
 21
4.2382451759
 31
0.0
  0
LINE
  5
C3
100
AcDbEntity
  8
Z0_LOWERTHIRD
370
        25
  6
Continuous
 62
         4
100
AcDbLine
 10
13.9133252786
 20
4.2905997562
 30
0.0
 11
13.8942233721
 21
4.2665941352
 31
0.0
  0
ELLIPSE
  5
C4
100
AcDbEntity
  8
Z0_LOWERTHIRD
370
        25
  6
Continuous
 62
         4
100
AcDbEllipse
 10
14.836530951
 20
5.6396259267
 30
0.0
 11
0.0459143430757649
 21
-0.0944291962262014
 31
0.0
210
0.0
220
0.0
230
-1.0
 40
1.0
 41
0.0
 42
3.14159265358871
  0
LINE
  5
C5
100
AcDbEntity
  8
Z0_LOWERTHIRD
370
        25
  6
Continuous
 62
         4
100
AcDbLine
 10
14.7902635127
 20
5.5003751487
 30
0.0
 11
14.882445294
 21
5.5451967305
 31
0.0
  0
ELLIPSE
  5
C6
100
AcDbEntity
  8
Z0_LOWERTHIRD
370
        25
  6
Continuous
 62
         4
100
AcDbEllipse
 10
14.7443500689
 20
5.5948047823
 30
0.0
 11
0.0944291962261179
 21
0.0459143430758779
 31
0.0
210
0.0
220
0.0
230
-0.9999999999999999
 40
1.0
 41
4.7123889803846897
 42
7.8539816339753514
  0
LINE
  5
C7
100
AcDbEntity
  8
Z0_LOWERTHIRD
370
        25
  6
Continuous
 62
         4
100
AcDbLine
 10
13.5256695937
 20
5.4498028762
 30
0.0
 11
13.5557907086
 21
5.4644486771
 31
0.0
  0
LINE
  5
C8
100
AcDbEntity
  8
Z0_LOWERTHIRD
370
        25
  6
Continuous
 62
         4
100
AcDbLine
 10
13.5557907086
 20
5.4644486771
 30
0.0
 11
13.5951458598
 21
5.383509366
 31
0.0
  0
LINE
  5
C9
100
AcDbEntity
  8
Z0_LOWERTHIRD
370
        25
  6
Continuous
 62
         4
100
AcDbLine
 10
13.5951458598
 20
5.383509366
 30
0.0
 11
13.5650247449
 21
5.3688635651
 31
0.0
  0
LINE
  5
CA
100
AcDbEntity
  8
Z0_LOWERTHIRD
370
        25
  6
Continuous
 62
         4
100
AcDbLine
 10
14.1099390993
 20
4.1397080177
 30
0.0
 11
14.1143398167
 21
4.1723606418
 31
0.0
  0
LINE
  5
CB
100
AcDbEntity
  8
Z0_LOWERTHIRD
370
        25
  6
Continuous
 62
         4
100
AcDbLine
 10
14.0618272172
 20
4.1668880069
 30
0.0
 11
14.0621065615
 21
4.1921070706
 31
0.0
  0
LINE
  5
CC
100
AcDbEntity
  8
Z0_LOWERTHIRD
370
        25
  6
Continuous
 62
         4
100
AcDbLine
 10
14.7952347738
 20
3.8821336099
 30
0.0
 11
14.7716967228
 21
3.8706886947
 31
0.0
  0
LINE
  5
CD
100
AcDbEntity
  8
Z0_LOWERTHIRD
370
        25
  6
Continuous
 62
         4
100
AcDbLine
 10
16.4710709041
 20
6.4901306581
 30
0.0
 11
16.4518575004
 21
6.5089929832
 31
0.0
  0
LINE
  5
CE
100
AcDbEntity
  8
Z0_LOWERTHIRD
370
        25
  6
Continuous
 62
         4
100
AcDbLine
 10
15.6105155914
 20
4.047819476
 30
0.0
 11
15.51833381
 21
4.0029978943
 31
0.0
  0
LINE
  5
CF
100
AcDbEntity
  8
Z0_LOWERTHIRD
370
        25
  6
Continuous
 62
         4
100
AcDbLine
 10
16.5954166002
 20
5.4259775883
 30
0.0
 11
16.5746335821
 21
5.4687207391
 31
0.0
  0
LINE
  5
D0
100
AcDbEntity
  8
Z0_LOWERTHIRD
370
        25
  6
Continuous
 62
         4
100
AcDbLine
 10
16.6235599947
 20
5.3877684361
 30
0.0
 11
16.5954166002
 21
5.4259775883
 31
0.0
  0
LINE
  5
D1
100
AcDbEntity
  8
Z0_LOWERTHIRD
370
        25
  6
Continuous
 62
         4
100
AcDbLine
 10
16.5127167475
 20
6.4094267153
 30
0.0
 11
16.5027847591
 21
6.4382460252
 31
0.0
  0
LINE
  5
D2
100
AcDbEntity
  8
Z0_LOWERTHIRD
370
        25
  6
Continuous
 62
         4
100
AcDbLine
 10
16.517507175
 20
6.3817712785
 30
0.0
 11
16.5127167475
 21
6.4094267153
 31
0.0
  0
LINE
  5
D3
100
AcDbEntity
  8
Z0_LOWERTHIRD
370
        25
  6
Continuous
 62
         4
100
AcDbLine
 10
16.5167698342
 20
6.3575193033
 30
0.0
 11
16.517507175
 21
6.3817712785
 31
0.0
  0
LINE
  5
D4
100
AcDbEntity
  8
Z0_LOWERTHIRD
370
        25
  6
Continuous
 62
         4
100
AcDbLine
 10
16.5127099147
 20
6.3429958446
 30
0.0
 11
16.5167698342
 21
6.3575193033
 31
0.0
  0
LINE
  5
D5
100
AcDbEntity
  8
Z0_LOWERTHIRD
370
        25
  6
Continuous
 62
         4
100
AcDbLine
 10
16.5169254176
 20
6.3575949527
 30
0.0
 11
16.5176627583
 21
6.3818469278
 31
0.0
  0
LINE
  5
D6
100
AcDbEntity
  8
Z0_LOWERTHIRD
370
        25
  6
Continuous
 62
         4
100
AcDbLine
 10
16.5127750694
 20
6.3428618451
 30
0.0
 11
16.5169254176
 21
6.3575949527
 31
0.0
  0
ELLIPSE
  5
D7
100
AcDbEntity
  8
Z0_LOWERTHIRD
370
        25
  6
Continuous
 62
         4
100
AcDbEllipse
 10
16.2428821308
 20
6.3262157012
 30
0.0
 11
-0.1093207556935087
 21
0.2248317276710914
 31
0.0
210
0.0
220
0.0
230
1.0
 40
1.0
 41
4.7123889803846897
 42
6.2831799729220688
  0
LINE
  5
D8
100
AcDbEntity
  8
Z0_LOWERTHIRD
370
        25
  6
Continuous
 62
         4
100
AcDbLine
 10
14.0546226505
 20
5.2566585034
 30
0.0
 11
14.1467268227
 21
5.0672335357
 31
0.0
  0
LINE
  5
D9
100
AcDbEntity
  8
Z0_LOWERTHIRD
370
        25
  6
Continuous
 62
         4
100
AcDbLine
 10
13.995195238
 20
4.1158722327
 30
0.0
 11
14.0181535298
 21
4.1171300522
 31
0.0
  0
LINE
  5
DA
100
AcDbEntity
  8
Z0_LOWERTHIRD
370
        25
  6
Continuous
 62
         4
100
AcDbLine
 10
13.9723335203
 20
4.1233734535
 30
0.0
 11
13.995195238
 21
4.1158722327
 31
0.0
  0
ELLIPSE
  5
DB
100
AcDbEntity
  8
Z0_LOWERTHIRD
370
        25
  6
Continuous
 62
         4
100
AcDbEllipse
 10
14.7825715029
 20
5.6133892043
 30
0.0
 11
0.0866408568642066
 21
0.0619321400563531
 31
0.0
210
0.0
220
0.0
230
1.0
 40
1.0
 41
4.7123889803846897
 42
7.5179252635250471
  0
ELLIPSE
  5
DC
100
AcDbEntity
  8
Z0_LOWERTHIRD
370
        25
  6
Continuous
 62
         4
100
AcDbEllipse
 10
14.7825714982
 20
5.613389202
 30
0.0
 11
-0.0619332199956941
 21
0.0866403317650222
 31
0.0
210
0.0
220
0.0
230
1.0
 40
1.0
 41
0.0
 42
2.8055140499157365
  0
LINE
  5
DD
100
AcDbEntity
  8
Z0_LOWERTHIRD
370
        25
  6
Continuous
 62
         4
100
AcDbLine
 10
14.1901792824
 20
4.9778675431
 30
0.0
 11
14.1467268227
 21
5.0672335357
 31
0.0
  0
LINE
  5
DE
100
AcDbEntity
  8
Z0_LOWERTHIRD
370
        25
  6
Continuous
 62
         4
100
AcDbLine
 10
14.2486354515
 20
5.0062907079
 30
0.0
 11
14.2250974005
 21
4.9948457926
 31
0.0
  0
LINE
  5
DF
100
AcDbEntity
  8
Z0_LOWERTHIRD
370
        25
  6
Continuous
 62
         4
100
AcDbLine
 10
13.7595941497
 20
4.1418855941
 30
0.0
 11
13.7566867998
 21
4.1824789814
 31
0.0
  0
LINE
  5
E0
100
AcDbEntity
  8
Z0_LOWERTHIRD
370
        25
  6
Continuous
 62
         4
100
AcDbLine
 10
13.7704010975
 20
4.1019363915
 30
0.0
 11
13.7595941497
 21
4.1418855941
 31
0.0
  0
LINE
  5
E1
100
AcDbEntity
  8
Z0_LOWERTHIRD
370
        25
  6
Continuous
 62
         4
100
AcDbLine
 10
13.7886032922
 20
4.0645010608
 30
0.0
 11
13.7704010975
 21
4.1019363915
 31
0.0
  0
LINE
  5
E2
100
AcDbEntity
  8
Z0_LOWERTHIRD
370
        25
  6
Continuous
 62
         4
100
AcDbLine
 10
13.8942233721
 20
4.2665941352
 30
0.0
 11
13.8820586909
 21
4.2372650881
 31
0.0
  0
SPLINE
  5
E3
100
AcDbEntity
  8
Z0_LOWERTHIRD
370
        25
  6
Continuous
 62
         4
100
AcDbSpline
210
0.0
220
0.0
230
1.0
 70
         0
 71
         3
 72
        23
 73
        19
 74
         0
 42
0.000001
 43
0.000001
 40
0.0
 40
0.0
 40
0.0
 40
0.0
 40
0.060458
 40
0.122957
 40
0.185468
 40
0.248373
 40
0.311897
 40
0.376093
 40
0.440885
 40
0.5061520000000001
 40
0.571783
 40
0.637665
 40
0.703659
 40
0.76955
 40
0.835043
 40
0.89984
 40
0.963781
 40
1.0
 40
1.0
 40
1.0
 40
1.0
 10
14.052262135891624
 20
4.0019548607463094
 30
0.0
 10
14.06218562139469
 20
4.0074148809358121
 30
0.0
 10
14.082368288546263
 20
4.0185203858616205
 30
0.0
 10
14.107347967492387
 20
4.04326459255185
 30
0.0
 10
14.127284713316385
 20
4.0728277753298698
 30
0.0
 10
14.140884305022439
 20
4.1064916891014036
 30
0.0
 10
14.14775723604663
 20
4.142887171116854
 30
0.0
 10
14.147566152992113
 20
4.1807504770642936
 30
0.0
 10
14.140230866194543
 20
4.2186159918448993
 30
0.0
 10
14.125935330749314
 20
4.254961952821759
 30
0.0
 10
14.105148413824395
 20
4.2882683611203447
 30
0.0
 10
14.078623400124854
 20
4.3170934653221593
 30
0.0
 10
14.047368306424403
 20
4.3401393874726182
 30
0.0
 10
14.012680592285903
 20
4.3562767840980996
 30
0.0
 10
13.976029565177839
 20
4.3648301468244881
 30
0.0
 10
13.939307873417647
 20
4.3649851057439264
 30
0.0
 10
13.908490890601797
 20
4.3593468440319612
 30
0.0
 10
13.891760353383802
 20
4.3508950446143899
 30
0.0
 10
13.88571066304587
 20
4.3478389711835916
 30
0.0
  0
LINE
  5
E4
100
AcDbEntity
  8
Z0_LOWERTHIRD
370
        25
  6
Continuous
 62
         4
100
AcDbLine
 10
14.013176096
 20
3.9827888092
 30
0.0
 11
14.0531960887
 21
4.002247745
 31
0.0
  0
SPLINE
  5
E5
100
AcDbEntity
  8
Z0_LOWERTHIRD
370
        25
  6
Continuous
 62
         4
100
AcDbSpline
210
0.0
220
0.0
230
1.0
 70
         0
 71
         3
 72
        15
 73
        11
 74
         0
 42
0.000001
 43
0.000001
 40
0.0
 40
0.0
 40
0.0
 40
0.0
 40
0.148994
 40
0.281429
 40
0.398041
 40
0.499918
 40
0.59916
 40
0.715052
 40
0.848475
 40
1.0
 40
1.0
 40
1.0
 40
1.0
 10
16.090940259778563
 20
6.0410682864326191
 30
0.0
 10
16.091772586354864
 20
6.0409481512151615
 30
0.0
 10
16.093343916293065
 20
6.0407214372435192
 30
0.0
 10
16.096734340742273
 20
6.0348165274169787
 30
0.0
 10
16.100139805503773
 20
6.0263125333694916
 30
0.0
 10
16.103186071261973
 20
6.015622378743501
 30
0.0
 10
16.105409571179678
 20
6.0022815952538622
 30
0.0
 10
16.107768524905623
 20
5.9855841091762159
 30
0.0
 10
16.110837652403859
 20
5.9647641392336936
 30
0.0
 10
16.113501593924525
 20
5.9495982061080213
 30
0.0
 10
16.114918114343027
 20
5.9415326244238713
 30
0.0
  0
LINE
  5
E6
100
AcDbEntity
  8
Z0_LOWERTHIRD
370
        25
  6
Continuous
 62
         4
100
AcDbLine
 10
16.4325592608
 20
6.5212057738
 30
0.0
 11
16.4144663076
 21
6.5253003119
 31
0.0
  0
LINE
  5
E7
100
AcDbEntity
  8
Z0_LOWERTHIRD
370
        25
  6
Continuous
 62
         4
100
AcDbLine
 10
16.4520174907
 20
6.5092242236
 30
0.0
 11
16.4325592608
 21
6.5212057738
 31
0.0
  0
ELLIPSE
  5
E8
100
AcDbEntity
  8
Z0_LOWERTHIRD
370
        25
  6
Continuous
 62
         4
100
AcDbEllipse
 10
16.4363973714
 20
6.7399956433
 30
0.0
 11
0.1045274395584798
 21
0.0424825868479561
 31
0.0
210
0.0
220
0.0
230
1.0
 40
1.0
 41
0.0
 42
1.5605248910106828
  0
LINE
  5
E9
100
AcDbEntity
  8
Z0_LOWERTHIRD
370
        25
  6
Continuous
 62
         4
100
AcDbLine
 10
16.031040673
 20
6.0119432881
 30
0.0
 11
16.0910205471
 21
5.8885863821
 31
0.0
  0
LINE
  5
EA
100
AcDbEntity
  8
Z0_LOWERTHIRD
370
        25
  6
Continuous
 62
         4
100
AcDbLine
 10
15.9165206143
 20
6.612307254
 30
0.0
 11
16.2236466287
 21
6.7616412498
 31
0.0
  0
LINE
  5
EB
100
AcDbEntity
  8
Z0_LOWERTHIRD
370
        25
  6
Continuous
 62
         4
100
AcDbLine
 10
15.9558757655
 20
6.5313679429
 30
0.0
 11
15.9165206143
 21
6.612307254
 31
0.0
  0
ELLIPSE
  5
EC
100
AcDbEntity
  8
Z0_LOWERTHIRD
370
        25
  6
Continuous
 62
         4
100
AcDbEllipse
 10
16.4032489356
 20
6.4179032399
 30
0.0
 11
0.0876122851670354
 21
0.0261083069760576
 31
0.0
210
0.0
220
0.0
230
1.0
 40
1.0
 41
0.0
 42
1.1661551011219087
  0
ELLIPSE
  5
ED
100
AcDbEntity
  8
Z0_LOWERTHIRD
370
        25
  6
Continuous
 62
         4
100
AcDbEllipse
 10
16.3869274734
 20
6.3839628387
 30
0.0
 11
0.1175869497278888
 21
-0.0241118321911338
 31
0.0
210
0.0
220
0.0
230
1.0
 40
1.0
 41
0.0
 42
0.7261573382931152
  0
LINE
  5
EE
100
AcDbEntity
  8
Z0_LOWERTHIRD
370
        25
  6
Continuous
 62
         4
100
AcDbLine
 10
16.4631242032
 20
6.7057311637
 30
0.0
 11
16.1804895249
 21
6.5683055994
 31
0.0
  0
LINE
  5
EF
100
AcDbEntity
  8
Z0_LOWERTHIRD
370
        25
  6
Continuous
 62
         4
100
AcDbLine
 10
16.5098540647
 20
6.7284526416
 30
0.0
 11
16.4631242032
 21
6.7057311637
 31
0.0
  0
ELLIPSE
  5
F0
100
AcDbEntity
  8
Z0_LOWERTHIRD
370
        25
  6
Continuous
 62
         4
100
AcDbEllipse
 10
16.1042299847
 20
6.3255162121
 30
0.0
 11
-0.0589779708654055
 21
0.0880772636449053
 31
0.0
210
0.0
220
0.0
230
1.0
 40
1.0
 41
0.0
 42
2.8666516043240016
  0
LINE
  5
F1
100
AcDbEntity
  8
Z0_LOWERTHIRD
370
        25
  6
Continuous
 62
         4
100
AcDbLine
 10
14.0196656064
 20
4.2535991902
 30
0.0
 11
13.9968038888
 21
4.261100411
 31
0.0
  0
LINE
  5
F2
100
AcDbEntity
  8
Z0_LOWERTHIRD
370
        25
  6
Continuous
 62
         4
100
AcDbLine
 10
14.0396728135
 20
4.2382451759
 30
0.0
 11
14.0196656064
 21
4.2535991902
 31
0.0
  0
LINE
  5
F3
100
AcDbEntity
  8
Z0_LOWERTHIRD
370
        25
  6
Continuous
 62
         4
100
AcDbLine
 10
13.9945776958
 20
4.06020159
 30
0.0
 11
14.0252557015
 21
4.0603993623
 31
0.0
  0
LINE
  5
F4
100
AcDbEntity
  8
Z0_LOWERTHIRD
370
        25
  6
Continuous
 62
         4
100
AcDbLine
 10
13.9639974275
 20
4.0687467445
 30
0.0
 11
13.9945776958
 21
4.06020159
 31
0.0
  0
LINE
  5
F5
100
AcDbEntity
  8
Z0_LOWERTHIRD
370
        25
  6
Continuous
 62
         4
100
AcDbLine
 10
14.9610357629
 20
5.9781500053
 30
0.0
 11
14.342749359
 21
5.677520378
 31
0.0
  0
ELLIPSE
  5
F6
100
AcDbEntity
  8
Z0_LOWERTHIRD
370
        25
  6
Continuous
 62
         4
100
AcDbEllipse
 10
14.7825674703
 20
5.6133915969
 30
0.0
 11
-0.0589740079368774
 21
0.0880748371568501
 31
0.0
210
0.0
220
0.0
230
1.0
 40
1.0
 41
0.0
 42
0.8546536431464076
  0
ELLIPSE
  5
F7
100
AcDbEntity
  8
Z0_LOWERTHIRD
370
        25
  6
Continuous
 62
         4
100
AcDbEllipse
 10
14.7825715301
 20
5.6133892175
 30
0.0
 11
0.0880777703607264
 21
0.0589769287338567
 31
0.0
210
0.0
220
0.0
230
1.0
 40
1.0
 41
4.7123889803846897
 42
7.5790622424710348
  0
LINE
  5
F8
100
AcDbEntity
  8
Z0_LOWERTHIRD
370
        25
  6
Continuous
 62
         4
100
AcDbLine
 10
14.7906166079
 20
5.7340551229
 30
0.0
 11
14.6984348265
 21
5.6892335412
 31
0.0
  0
ELLIPSE
  5
F9
100
AcDbEntity
  8
Z0_LOWERTHIRD
370
        25
  6
Continuous
 62
         4
100
AcDbEllipse
 10
14.7825714103
 20
5.6133891592
 30
0.0
 11
0.0611541461273896
 21
0.029735003134855
 31
0.0
210
0.0
220
0.0
230
1.0
 40
1.0
 41
4.7123889803846897
 42
10.995574287563874
  0
ELLIPSE
  5
FA
100
AcDbEntity
  8
Z0_LOWERTHIRD
370
        25
  6
Continuous
 62
         4
100
AcDbEllipse
 10
14.7825714103
 20
5.6133891592
 30
0.0
 11
0.0737447056242053
 21
0.0358569155449723
 31
0.0
210
0.0
220
0.0
230
1.0
 40
1.0
 41
4.7123889803846897
 42
10.995574287564276
  0
ELLIPSE
  5
FB
100
AcDbEntity
  8
Z0_LOWERTHIRD
370
        25
  6
Continuous
 62
         4
100
AcDbEllipse
 10
14.7825712783
 20
5.6133889974
 30
0.0
 11
-0.1051577425483151
 21
0.0133352882607196
 31
0.0
210
0.0
220
0.0
230
1.0
 40
1.0
 41
0.0
 42
2.0120379959345009
  0
LINE
  5
FC
100
AcDbEntity
  8
Z0_LOWERTHIRD
370
        25
  6
Continuous
 62
         4
100
AcDbLine
 10
15.2649426898
 20
3.4878310945
 30
0.0
 11
15.3484783541
 21
3.5284486715
 31
0.0
  0
ELLIPSE
  5
FD
100
AcDbEntity
  8
Z0_LOWERTHIRD
370
        25
  6
Continuous
 62
         4
100
AcDbEllipse
 10
15.0703553193
 20
5.7533176945
 30
0.0
 11
-0.1093207556935103
 21
0.2248317276710926
 31
0.0
210
0.0
220
0.0
230
1.0
 40
1.0
 41
4.7123889803846897
 42
6.2831799729237892
  0
LINE
  5
FE
100
AcDbEntity
  8
Z0_LOWERTHIRD
370
        25
  6
Continuous
 62
         4
100
AcDbLine
 10
16.4518575004
 20
6.5089929832
 30
0.0
 11
16.4324347978
 21
6.5209517778
 31
0.0
  0
LINE
  5
FF
100
AcDbEntity
  8
Z0_LOWERTHIRD
370
        25
  6
Continuous
 62
         4
100
AcDbLine
 10
16.5968815501
 20
5.6938578438
 30
0.0
 11
16.6254300626
 21
5.7296921126
 31
0.0
  0
LINE
  5
100
100
AcDbEntity
  8
Z0_LOWERTHIRD
370
        25
  6
Continuous
 62
         4
100
AcDbLine
 10
16.6390381466
 20
5.6149711979
 30
0.0
 11
16.6630850978
 21
5.6387659569
 31
0.0
  0
LINE
  5
101
100
AcDbEntity
  8
Z0_LOWERTHIRD
370
        25
  6
Continuous
 62
         4
100
AcDbLine
 10
16.0075008233
 20
6.0004974983
 30
0.0
 11
16.0360681755
 21
5.9406036412
 31
0.0
  0
LINE
  5
102
100
AcDbEntity
  8
Z0_LOWERTHIRD
370
        25
  6
Continuous
 62
         4
100
AcDbLine
 10
15.9821823795
 20
5.9144027306
 30
0.0
 11
16.0360681755
 21
5.9406036412
 31
0.0
  0
LINE
  5
103
100
AcDbEntity
  8
Z0_LOWERTHIRD
370
        25
  6
Continuous
 62
         4
100
AcDbLine
 10
16.5333057772
 20
6.3006376052
 30
0.0
 11
15.5800205582
 21
5.8371213798
 31
0.0
  0
LINE
  5
104
100
AcDbEntity
  8
Z0_LOWERTHIRD
370
        25
  6
Continuous
 62
         4
100
AcDbLine
 10
15.5800205582
 20
5.8371213798
 30
0.0
 11
15.5975117365
 21
5.8011483527
 31
0.0
  0
LINE
  5
105
100
AcDbEntity
  8
Z0_LOWERTHIRD
370
        25
  6
Continuous
 62
         4
100
AcDbLine
 10
16.2534309233
 20
4.4521598352
 30
0.0
 11
16.2709221016
 21
4.416186808
 31
0.0
  0
LINE
  5
106
100
AcDbEntity
  8
Z0_LOWERTHIRD
370
        25
  6
Continuous
 62
         4
100
AcDbLine
 10
16.2236466287
 20
6.7616412498
 30
0.0
 11
16.2630017799
 21
6.6807019387
 31
0.0
  0
LINE
  5
107
100
AcDbEntity
  8
Z0_LOWERTHIRD
370
        25
  6
Continuous
 62
         4
100
AcDbLine
 10
16.3365140203
 20
4.2812879563
 30
0.0
 11
16.2709221016
 21
4.416186808
 31
0.0
  0
LINE
  5
108
100
AcDbEntity
  8
Z0_LOWERTHIRD
370
        25
  6
Continuous
 62
         4
100
AcDbLine
 10
16.5333057772
 20
6.3006376052
 30
0.0
 11
16.4677138585
 21
6.4355364569
 31
0.0
  0
LINE
  5
109
100
AcDbEntity
  8
Z0_LOWERTHIRD
370
        25
  6
Continuous
 62
         4
100
AcDbLine
 10
16.9572053729
 20
6.3597558831
 30
0.0
 11
16.9545229788
 21
6.3667956511
 31
0.0
  0
LINE
  5
10A
100
AcDbEntity
  8
Z0_LOWERTHIRD
370
        25
  6
Continuous
 62
         4
100
AcDbLine
 10
13.7948585363
 20
4.2895322087
 30
0.0
 11
13.8212270697
 21
4.3147360014
 31
0.0
  0
LINE
  5
10B
100
AcDbEntity
  8
Z0_LOWERTHIRD
370
        25
  6
Continuous
 62
         4
100
AcDbLine
 10
13.7747419876
 20
4.2580702432
 30
0.0
 11
13.7948585363
 21
4.2895322087
 31
0.0
  0
LINE
  5
10C
100
AcDbEntity
  8
Z0_LOWERTHIRD
370
        25
  6
Continuous
 62
         4
100
AcDbLine
 10
14.2250974005
 20
4.9948457926
 30
0.0
 11
14.1901792824
 21
4.9778675431
 31
0.0
  0
LINE
  5
10D
100
AcDbEntity
  8
Z0_LOWERTHIRD
370
        25
  6
Continuous
 62
         4
100
AcDbLine
 10
14.198860633
 20
5.0488053333
 30
0.0
 11
14.1639425149
 21
5.0318270838
 31
0.0
  0
LINE
  5
10E
100
AcDbEntity
  8
Z0_LOWERTHIRD
370
        25
  6
Continuous
 62
         4
100
AcDbLine
 10
13.8848434974
 20
4.3484881312
 30
0.0
 11
13.8448235047
 21
4.3290291953
 31
0.0
  0
LINE
  5
10F
100
AcDbEntity
  8
Z0_LOWERTHIRD
370
        25
  6
Continuous
 62
         4
100
AcDbLine
 10
13.8133493507
 20
4.0313305891
 30
0.0
 11
13.7886032922
 21
4.0645010608
 31
0.0
  0
LINE
  5
110
100
AcDbEntity
  8
Z0_LOWERTHIRD
370
        25
  6
Continuous
 62
         4
100
AcDbLine
 10
13.7566867998
 20
4.1824789814
 30
0.0
 11
13.7618159221
 21
4.2218205244
 31
0.0
  0
ELLIPSE
  5
111
100
AcDbEntity
  8
Z0_LOWERTHIRD
370
        25
  6
Continuous
 62
         4
100
AcDbEllipse
 10
13.8297909228
 20
5.1473377477
 30
0.0
 11
0.2248317276710245
 21
0.1093207556937819
 31
0.0
210
0.0
220
0.0
230
1.0
 40
1.0
 41
0.0
 42
1.5707909925352206
  0
LINE
  5
112
100
AcDbEntity
  8
Z0_LOWERTHIRD
370
        25
  6
Continuous
 62
         4
100
AcDbLine
 10
13.8813231428
 20
4.1708601788
 30
0.0
 11
13.8928028411
 21
4.1383089413
 31
0.0
  0
LINE
  5
113
100
AcDbEntity
  8
Z0_LOWERTHIRD
370
        25
  6
Continuous
 62
         4
100
AcDbLine
 10
13.87765931
 20
4.2046120019
 30
0.0
 11
13.8813231428
 21
4.1708601788
 31
0.0
  0
LINE
  5
114
100
AcDbEntity
  8
Z0_LOWERTHIRD
370
        25
  6
Continuous
 62
         4
100
AcDbLine
 10
13.8820586909
 20
4.2372650881
 30
0.0
 11
13.87765931
 21
4.2046120019
 31
0.0
  0
SPLINE
  5
115
100
AcDbEntity
  8
Z0_LOWERTHIRD
370
        25
  6
Continuous
 62
         4
100
AcDbSpline
210
0.0
220
0.0
230
1.0
 70
         0
 71
         3
 72
        15
 73
        11
 74
         0
 42
0.000001
 43
0.000001
 40
0.0
 40
0.0
 40
0.0
 40
0.0
 40
0.151212
 40
0.284538
 40
0.40055
 40
0.500131
 40
0.601478
 40
0.717891
 40
0.850483
 40
1.0
 40
1.0
 40
1.0
 40
1.0
 10
16.68234628571247
 20
4.7719059339210617
 30
0.0
 10
16.687652108733062
 20
4.7656658445725952
 30
0.0
 10
16.697637723713342
 20
4.7539220503617798
 30
0.0
 10
16.711689242228033
 20
4.7383052833331476
 30
0.0
 10
16.722972237149236
 20
4.7258691010165421
 30
0.0
 10
16.731699520294399
 20
4.7157184530617542
 30
0.0
 10
16.737763337949048
 20
4.7066044943471752
 30
0.0
 10
16.741777432616402
 20
4.6985387635058942
 30
0.0
 10
16.743680736172735
 20
4.6920241886484746
 30
0.0
 10
16.742445006756725
 20
4.6904492763301278
 30
0.0
 10
16.741789048402325
 20
4.6896143873329947
 30
0.0
  0
SPLINE
  5
116
100
AcDbEntity
  8
Z0_LOWERTHIRD
370
        25
  6
Continuous
 62
         4
100
AcDbSpline
210
0.0
220
0.0
230
1.0
 70
         0
 71
         3
 72
        12
 73
         8
 74
         0
 42
0.000001
 43
0.000001
 40
0.0
 40
0.0
 40
0.0
 40
0.0
 40
0.282736
 40
0.498991
 40
0.716433
 40
0.849778
 40
1.0
 40
1.0
 40
1.0
 40
1.0
 10
16.561636685137614
 20
4.7213415724290826
 30
0.0
 10
16.558744640515215
 20
4.7282293645209847
 30
0.0
 10
16.553638530964065
 20
4.7403864767295545
 30
0.0
 10
16.559632065380185
 20
4.7581574020630342
 30
0.0
 10
16.574333825891472
 20
4.7685794083413384
 30
0.0
 10
16.591499920094634
 20
4.7776721992665898
 30
0.0
 10
16.602970873177469
 20
4.7826893051428669
 30
0.0
 10
16.609047458063117
 20
4.7853470361537802
 30
0.0
  0
LINE
  5
117
100
AcDbEntity
  8
Z0_LOWERTHIRD
370
        25
  6
Continuous
 62
         4
100
AcDbLine
 10
16.4144663076
 20
6.5253003119
 30
0.0
 11
16.3993027579
 21
6.5212364796
 31
0.0
  0
ELLIPSE
  5
118
100
AcDbEntity
  8
Z0_LOWERTHIRD
370
        25
  6
Continuous
 62
         4
100
AcDbEllipse
 10
16.1042300496
 20
6.3255162437
 30
0.0
 11
-0.0866403317649999
 21
-0.061933219995492
 31
0.0
210
0.0
220
0.0
230
1.0
 40
1.0
 41
4.7123889803846897
 42
7.5179030303013601
  0
LINE
  5
119
100
AcDbEntity
  8
Z0_LOWERTHIRD
370
        25
  6
Continuous
 62
         4
100
AcDbLine
 10
16.540924811
 20
6.7824782302
 30
0.0
 11
16.4708295689
 21
6.7483957947
 31
0.0
  0
LINE
  5
11A
100
AcDbEntity
  8
Z0_LOWERTHIRD
370
        25
  6
Continuous
 62
         4
100
AcDbLine
 10
16.5843588685
 20
4.6764923516
 30
0.0
 11
16.6093012888
 21
4.6251948149
 31
0.0
  0
LINE
  5
11B
100
AcDbEntity
  8
Z0_LOWERTHIRD
370
        25
  6
Continuous
 62
         4
100
AcDbLine
 10
15.9954084304
 20
5.8855549836
 30
0.0
 11
16.5615795067
 21
4.721145867
 31
0.0
  0
LINE
  5
11C
100
AcDbEntity
  8
Z0_LOWERTHIRD
370
        25
  6
Continuous
 62
         4
100
AcDbLine
 10
16.6155224811
 20
4.747542483
 30
0.0
 11
16.5616366851
 21
4.7213415724
 31
0.0
  0
LINE
  5
11D
100
AcDbEntity
  8
Z0_LOWERTHIRD
370
        25
  6
Continuous
 62
         4
100
AcDbLine
 10
16.1024525161
 20
6.0173917393
 30
0.0
 11
16.0909402598
 21
6.0410682864
 31
0.0
  0
LINE
  5
11E
100
AcDbEntity
  8
Z0_LOWERTHIRD
370
        25
  6
Continuous
 62
         4
100
AcDbLine
 10
16.0909402598
 20
6.0410682864
 30
0.0
 11
16.0412920864
 21
6.0169278367
 31
0.0
  0
LINE
  5
11F
100
AcDbEntity
  8
Z0_LOWERTHIRD
370
        25
  6
Continuous
 62
         4
100
AcDbLine
 10
16.1095219671
 20
5.983386623
 30
0.0
 11
16.0675288539
 21
5.962968296
 31
0.0
  0
ELLIPSE
  5
120
100
AcDbEntity
  8
Z0_LOWERTHIRD
370
        25
  6
Continuous
 62
         4
100
AcDbEllipse
 10
16.1042299617
 20
6.3255162009
 30
0.0
 11
0.0611541461273896
 21
0.029735003134855
 31
0.0
210
0.0
220
0.0
230
1.0
 40
1.0
 41
4.7123889803846897
 42
10.995574287564276
  0
ELLIPSE
  5
121
100
AcDbEntity
  8
Z0_LOWERTHIRD
370
        25
  6
Continuous
 62
         4
100
AcDbEllipse
 10
16.1042330023
 20
6.325513326
 30
0.0
 11
0.0880748371567106
 21
0.0589740079365175
 31
0.0
210
0.0
220
0.0
230
1.0
 40
1.0
 41
4.7123889803846897
 42
5.5670426235420631
  0
LINE
  5
122
100
AcDbEntity
  8
Z0_LOWERTHIRD
370
        25
  6
Continuous
 62
         4
100
AcDbLine
 10
16.7249862048
 20
5.6639849438
 30
0.0
 11
16.7589505976
 21
5.6638247474
 31
0.0
  0
LINE
  5
123
100
AcDbEntity
  8
Z0_LOWERTHIRD
370
        25
  6
Continuous
 62
         4
100
AcDbLine
 10
16.4712662977
 20
6.4903279633
 30
0.0
 11
16.4520174907
 21
6.5092242236
 31
0.0
  0
LINE
  5
124
100
AcDbEntity
  8
Z0_LOWERTHIRD
370
        25
  6
Continuous
 62
         4
100
AcDbLine
 10
16.4887447564
 20
6.4660464048
 30
0.0
 11
16.4712662977
 21
6.4903279633
 31
0.0
  0
LINE
  5
125
100
AcDbEntity
  8
Z0_LOWERTHIRD
370
        25
  6
Continuous
 62
         4
100
AcDbLine
 10
16.5030385833
 20
6.4383483153
 30
0.0
 11
16.4887447564
 21
6.4660464048
 31
0.0
  0
LINE
  5
126
100
AcDbEntity
  8
Z0_LOWERTHIRD
370
        25
  6
Continuous
 62
         4
100
AcDbLine
 10
16.5129874275
 20
6.4094760442
 30
0.0
 11
16.5030385833
 21
6.4383483153
 31
0.0
  0
LINE
  5
127
100
AcDbEntity
  8
Z0_LOWERTHIRD
370
        25
  6
Continuous
 62
         4
100
AcDbLine
 10
16.5177871284
 20
6.3817695192
 30
0.0
 11
16.5129874275
 21
6.4094760442
 31
0.0
  0
LINE
  5
128
100
AcDbEntity
  8
Z0_LOWERTHIRD
370
        25
  6
Continuous
 62
         4
100
AcDbLine
 10
16.517048855
 20
6.3574737248
 30
0.0
 11
16.5177871284
 21
6.3817695192
 31
0.0
  0
LINE
  5
129
100
AcDbEntity
  8
Z0_LOWERTHIRD
370
        25
  6
Continuous
 62
         4
100
AcDbLine
 10
16.512869959
 20
6.3426666914
 30
0.0
 11
16.517048855
 21
6.3574737248
 31
0.0
  0
LINE
  5
12A
100
AcDbEntity
  8
Z0_LOWERTHIRD
370
        25
  6
Continuous
 62
         4
100
AcDbLine
 10
16.6533407673
 20
6.3145244936
 30
0.0
 11
16.4631242032
 21
6.7057311637
 31
0.0
  0
LINE
  5
12B
100
AcDbEntity
  8
Z0_LOWERTHIRD
370
        25
  6
Continuous
 62
         4
100
AcDbLine
 10
16.7000706289
 20
6.3372459716
 30
0.0
 11
16.5098540647
 21
6.7284526416
 31
0.0
  0
LINE
  5
12C
100
AcDbEntity
  8
Z0_LOWERTHIRD
370
        25
  6
Continuous
 62
         4
100
AcDbLine
 10
13.9974200943
 20
4.3167715157
 30
0.0
 11
13.9667434253
 21
4.3165732814
 31
0.0
  0
LINE
  5
12D
100
AcDbEntity
  8
Z0_LOWERTHIRD
370
        25
  6
Continuous
 62
         4
100
AcDbLine
 10
16.5619621866
 20
5.5144528471
 30
0.0
 11
16.5578599764
 21
5.5615216552
 31
0.0
  0
LINE
  5
12E
100
AcDbEntity
  8
Z0_LOWERTHIRD
370
        25
  6
Continuous
 62
         4
100
AcDbLine
 10
16.5746335821
 20
5.4687207391
 30
0.0
 11
16.5619621866
 21
5.5144528471
 31
0.0
  0
LINE
  5
12F
100
AcDbEntity
  8
Z0_LOWERTHIRD
370
        25
  6
Continuous
 62
         4
100
AcDbLine
 10
16.4324347978
 20
6.5209517778
 30
0.0
 11
16.4143753093
 21
6.5250392366
 31
0.0
  0
LINE
  5
130
100
AcDbEntity
  8
Z0_LOWERTHIRD
370
        25
  6
Continuous
 62
         4
100
AcDbLine
 10
16.6254300626
 20
5.7296921126
 30
0.0
 11
16.6602531242
 21
5.7590845898
 31
0.0
  0
ELLIPSE
  5
131
100
AcDbEntity
  8
Z0_LOWERTHIRD
370
        25
  6
Continuous
 62
         4
100
AcDbEllipse
 10
16.0311687632
 20
5.947558368
 30
0.0
 11
0.0697779472181785
 21
0.0467044054066428
 31
0.0
210
0.0
220
0.0
230
1.0
 40
1.0
 41
4.7123889803846897
 42
5.6215158332985844
  0
LINE
  5
132
100
AcDbEntity
  8
Z0_LOWERTHIRD
370
        25
  6
Continuous
 62
         4
100
AcDbLine
 10
16.035105625
 20
6.0139197913
 30
0.0
 11
16.0311638806
 21
6.0120031954
 31
0.0
  0
LINE
  5
133
100
AcDbEntity
  8
Z0_LOWERTHIRD
370
        25
  6
Continuous
 62
         4
100
AcDbLine
 10
16.0613423925
 20
5.9599602506
 30
0.0
 11
16.0574006481
 21
5.9580436547
 31
0.0
  0
LINE
  5
134
100
AcDbEntity
  8
Z0_LOWERTHIRD
370
        25
  6
Continuous
 62
         4
100
AcDbLine
 10
16.2630017799
 20
6.6807019387
 30
0.0
 11
15.9558757655
 21
6.5313679429
 31
0.0
  0
LINE
  5
135
100
AcDbEntity
  8
Z0_LOWERTHIRD
370
        25
  6
Continuous
 62
         4
100
AcDbLine
 10
16.031040673
 20
6.0119432881
 30
0.0
 11
16.0075008233
 21
6.0004974983
 31
0.0
  0
LINE
  5
136
100
AcDbEntity
  8
Z0_LOWERTHIRD
370
        25
  6
Continuous
 62
         4
100
AcDbLine
 10
16.8762187875
 20
5.4819906984
 30
0.0
 11
16.8626977727
 21
5.4504543343
 31
0.0
  0
LINE
  5
137
100
AcDbEntity
  8
Z0_LOWERTHIRD
370
        25
  6
Continuous
 62
         4
100
AcDbLine
 10
16.8815633343
 20
5.5162720063
 30
0.0
 11
16.8762187875
 21
5.4819906984
 31
0.0
  0
LINE
  5
138
100
AcDbEntity
  8
Z0_LOWERTHIRD
370
        25
  6
Continuous
 62
         4
100
AcDbLine
 10
16.9505467709
 20
6.384822809
 30
0.0
 11
16.9507481232
 21
6.3890304585
 31
0.0
  0
LINE
  5
139
100
AcDbEntity
  8
Z0_LOWERTHIRD
370
        25
  6
Continuous
 62
         4
100
AcDbLine
 10
16.9511286311
 20
6.3795738045
 30
0.0
 11
16.9505467709
 21
6.384822809
 31
0.0
  0
LINE
  5
13A
100
AcDbEntity
  8
Z0_LOWERTHIRD
370
        25
  6
Continuous
 62
         4
100
AcDbLine
 10
16.9524704631
 20
6.37348675
 30
0.0
 11
16.9511286311
 21
6.3795738045
 31
0.0
  0
LINE
  5
13B
100
AcDbEntity
  8
Z0_LOWERTHIRD
370
        25
  6
Continuous
 62
         4
100
AcDbLine
 10
16.9545229788
 20
6.3667956511
 30
0.0
 11
16.9524704631
 21
6.37348675
 31
0.0
  0
LINE
  5
13C
100
AcDbEntity
  8
Z0_LOWERTHIRD
370
        25
  6
Continuous
 62
         4
100
AcDbLine
 10
16.1335625745
 20
6.551048012
 30
0.0
 11
15.6299401946
 21
6.3061715156
 31
0.0
  0
LINE
  5
13D
100
AcDbEntity
  8
Z0_LOWERTHIRD
370
        25
  6
Continuous
 62
         4
100
AcDbLine
 10
15.9536159267
 20
5.9742970251
 30
0.0
 11
16.0075008233
 21
6.0004974983
 31
0.0
  0
LINE
  5
13E
100
AcDbEntity
  8
Z0_LOWERTHIRD
370
        25
  6
Continuous
 62
         4
100
AcDbLine
 10
16.6184957294
 20
5.4832049425
 30
0.0
 11
16.6111111051
 21
5.5175449555
 31
0.0
  0
LINE
  5
13F
100
AcDbEntity
  8
Z0_LOWERTHIRD
370
        25
  6
Continuous
 62
         4
100
AcDbLine
 10
16.6338962747
 20
5.4515315914
 30
0.0
 11
16.6184957294
 21
5.4832049425
 31
0.0
  0
LINE
  5
140
100
AcDbEntity
  8
Z0_LOWERTHIRD
370
        25
  6
Continuous
 62
         4
100
AcDbLine
 10
16.4712264874
 20
6.4902063075
 30
0.0
 11
16.4520130838
 21
6.5090686325
 31
0.0
  0
LINE
  5
141
100
AcDbEntity
  8
Z0_LOWERTHIRD
370
        25
  6
Continuous
 62
         4
100
AcDbLine
 10
16.4886732391
 20
6.4659693771
 30
0.0
 11
16.4712264874
 21
6.4902063075
 31
0.0
  0
LINE
  5
142
100
AcDbEntity
  8
Z0_LOWERTHIRD
370
        25
  6
Continuous
 62
         4
100
AcDbLine
 10
16.4708295689
 20
6.7483957947
 30
0.0
 11
16.48613435
 21
6.7169193959
 31
0.0
  0
LINE
  5
143
100
AcDbEntity
  8
Z0_LOWERTHIRD
370
        25
  6
Continuous
 62
         4
100
AcDbLine
 10
16.0330952327
 20
4.3450259307
 30
0.0
 11
16.0648576171
 21
4.3604697666
 31
0.0
  0
LINE
  5
144
100
AcDbEntity
  8
Z0_LOWERTHIRD
370
        25
  6
Continuous
 62
         4
100
AcDbLine
 10
16.5507969555
 20
6.264664578
 30
0.0
 11
16.5333057772
 21
6.3006376052
 31
0.0
  0
LINE
  5
145
100
AcDbEntity
  8
Z0_LOWERTHIRD
370
        25
  6
Continuous
 62
         4
100
AcDbLine
 10
13.7618159221
 20
4.2218205244
 30
0.0
 11
13.7747419876
 21
4.2580702432
 31
0.0
  0
LINE
  5
146
100
AcDbEntity
  8
Z0_LOWERTHIRD
370
        25
  6
Continuous
 62
         4
100
AcDbLine
 10
16.2630017799
 20
6.6807019387
 30
0.0
 11
16.4343458048
 21
6.7640146074
 31
0.0
  0
LINE
  5
147
100
AcDbEntity
  8
Z0_LOWERTHIRD
370
        25
  6
Continuous
 62
         4
100
AcDbLine
 10
16.4325903811
 20
6.5210274272
 30
0.0
 11
16.4145308926
 21
6.525114886
 31
0.0
  0
LINE
  5
148
100
AcDbEntity
  8
Z0_LOWERTHIRD
370
        25
  6
Continuous
 62
         4
100
AcDbLine
 10
16.4520130838
 20
6.5090686325
 30
0.0
 11
16.4325903811
 21
6.5210274272
 31
0.0
  0
ELLIPSE
  5
149
100
AcDbEntity
  8
Z0_LOWERTHIRD
370
        25
  6
Continuous
 62
         4
100
AcDbEllipse
 10
16.1042300543
 20
6.325516246
 30
0.0
 11
0.0866408568642082
 21
0.0619321400563519
 31
0.0
210
0.0
220
0.0
230
1.0
 40
1.0
 41
4.7123889803846897
 42
7.5179252635226952
  0
LINE
  5
14A
100
AcDbEntity
  8
Z0_LOWERTHIRD
370
        25
  6
Continuous
 62
         4
100
AcDbLine
 10
16.6976296966
 20
5.3302610813
 30
0.0
 11
16.6580463849
 21
5.3554744511
 31
0.0
  0
LINE
  5
14B
100
AcDbEntity
  8
Z0_LOWERTHIRD
370
        25
  6
Continuous
 62
         4
100
AcDbLine
 10
16.7408772487
 20
5.3130418088
 30
0.0
 11
16.6976296966
 21
5.3302610813
 31
0.0
  0
LINE
  5
14C
100
AcDbEntity
  8
Z0_LOWERTHIRD
370
        25
  6
Continuous
 62
         4
100
AcDbLine
 10
16.78622924
 20
5.3044381338
 30
0.0
 11
16.7408772487
 21
5.3130418088
 31
0.0
  0
LINE
  5
14D
100
AcDbEntity
  8
Z0_LOWERTHIRD
370
        25
  6
Continuous
 62
         4
100
AcDbLine
 10
16.091122328
 20
5.8886903564
 30
0.0
 11
16.0311638806
 21
6.0120031954
 31
0.0
  0
LINE
  5
14E
100
AcDbEntity
  8
Z0_LOWERTHIRD
370
        25
  6
Continuous
 62
         4
100
AcDbLine
 10
15.9536159267
 20
5.9742970251
 30
0.0
 11
15.9821823795
 21
5.9144027306
 31
0.0
  0
LINE
  5
14F
100
AcDbEntity
  8
Z0_LOWERTHIRD
370
        25
  6
Continuous
 62
         4
100
AcDbLine
 10
16.8523388073
 20
6.6397123116
 30
0.0
 11
16.8368352102
 21
6.6599826052
 31
0.0
  0
LINE
  5
150
100
AcDbEntity
  8
Z0_LOWERTHIRD
370
        25
  6
Continuous
 62
         4
100
AcDbLine
 10
16.8647925622
 20
6.6157985846
 30
0.0
 11
16.8523388073
 21
6.6397123116
 31
0.0
  0
LINE
  5
151
100
AcDbEntity
  8
Z0_LOWERTHIRD
370
        25
  6
Continuous
 62
         4
100
AcDbLine
 10
16.743510443
 20
5.7945597419
 30
0.0
 11
16.7889357887
 21
5.7993617515
 31
0.0
  0
LINE
  5
152
100
AcDbEntity
  8
Z0_LOWERTHIRD
370
        25
  6
Continuous
 62
         4
100
AcDbLine
 10
16.7000929218
 20
5.7809700152
 30
0.0
 11
16.743510443
 21
5.7945597419
 31
0.0
  0
LINE
  5
153
100
AcDbEntity
  8
Z0_LOWERTHIRD
370
        25
  6
Continuous
 62
         4
100
AcDbLine
 10
16.6602531242
 20
5.7590845898
 30
0.0
 11
16.7000929218
 21
5.7809700152
 31
0.0
  0
LINE
  5
154
100
AcDbEntity
  8
Z0_LOWERTHIRD
370
        25
  6
Continuous
 62
         4
100
AcDbLine
 10
16.7589505976
 20
5.6638247474
 30
0.0
 11
16.7921045855
 21
5.6549831872
 31
0.0
  0
ELLIPSE
  5
155
100
AcDbEntity
  8
Z0_LOWERTHIRD
370
        25
  6
Continuous
 62
         4
100
AcDbEllipse
 10
16.1042304421
 20
6.3255174345
 30
0.0
 11
0.1051564947597095
 21
-0.0133367972972192
 31
0.0
210
0.0
220
0.0
230
1.0
 40
1.0
 41
0.0
 42
2.0120692042853534
  0
CIRCLE
  5
156
100
AcDbEntity
  8
Z0_LOWERTHIRD
370
        25
  6
Continuous
 62
         4
100
AcDbCircle
 10
16.1042299617
 20
6.3255162009
 30
0.0
 40
0.082
  0
LINE
  5
157
100
AcDbEntity
  8
Z0_LOWERTHIRD
370
        25
  6
Continuous
 62
         4
100
AcDbLine
 10
16.4143753093
 20
6.5250392366
 30
0.0
 11
16.399456137
 21
6.5211131311
 31
0.0
  0
LINE
  5
158
100
AcDbEntity
  8
Z0_LOWERTHIRD
370
        25
  6
Continuous
 62
         4
100
AcDbLine
 10
16.5756402736
 20
5.6528744995
 30
0.0
 11
16.5968815501
 21
5.6938578438
 31
0.0
  0
LINE
  5
159
100
AcDbEntity
  8
Z0_LOWERTHIRD
370
        25
  6
Continuous
 62
         4
100
AcDbLine
 10
16.5624753618
 20
5.6082246619
 30
0.0
 11
16.5756402736
 21
5.6528744995
 31
0.0
  0
LINE
  5
15A
100
AcDbEntity
  8
Z0_LOWERTHIRD
370
        25
  6
Continuous
 62
         4
100
AcDbLine
 10
16.5578599764
 20
5.5615216552
 30
0.0
 11
16.5624753618
 21
5.6082246619
 31
0.0
  0
LINE
  5
15B
100
AcDbEntity
  8
Z0_LOWERTHIRD
370
        25
  6
Continuous
 62
         4
100
AcDbLine
 10
16.6093012888
 20
4.6251948149
 30
0.0
 11
16.0648576171
 21
4.3604697666
 31
0.0
  0
LINE
  5
15C
100
AcDbEntity
  8
Z0_LOWERTHIRD
370
        25
  6
Continuous
 62
         4
100
AcDbLine
 10
16.031040673
 20
6.0119432881
 30
0.0
 11
16.0311638806
 21
6.0120031954
 31
0.0
  0
LINE
  5
15D
100
AcDbEntity
  8
Z0_LOWERTHIRD
370
        25
  6
Continuous
 62
         4
100
AcDbLine
 10
16.0675288539
 20
5.962968296
 30
0.0
 11
16.0412920864
 21
6.0169278367
 31
0.0
  0
LINE
  5
15E
100
AcDbEntity
  8
Z0_LOWERTHIRD
370
        25
  6
Continuous
 62
         4
100
AcDbLine
 10
16.0858238128
 20
5.8995874856
 30
0.0
 11
16.1059237417
 21
5.9093606815
 31
0.0
  0
LINE
  5
15F
100
AcDbEntity
  8
Z0_LOWERTHIRD
370
        25
  6
Continuous
 62
         4
100
AcDbLine
 10
16.1150851311
 20
4.176402366
 30
0.0
 11
16.0330952327
 21
4.3450259307
 31
0.0
  0
LINE
  5
160
100
AcDbEntity
  8
Z0_LOWERTHIRD
370
        25
  6
Continuous
 62
         4
100
AcDbLine
 10
16.4885176558
 20
6.4658937277
 30
0.0
 11
16.4710709041
 21
6.4901306581
 31
0.0
  0
LINE
  5
161
100
AcDbEntity
  8
Z0_LOWERTHIRD
370
        25
  6
Continuous
 62
         4
100
AcDbLine
 10
16.5027847591
 20
6.4382460252
 30
0.0
 11
16.4885176558
 21
6.4658937277
 31
0.0
  0
LINE
  5
162
100
AcDbEntity
  8
Z0_LOWERTHIRD
370
        25
  6
Continuous
 62
         4
100
AcDbLine
 10
16.9229154817
 20
6.4434638621
 30
0.0
 11
16.9272052216
 21
6.4476857087
 31
0.0
  0
LINE
  5
163
100
AcDbEntity
  8
Z0_LOWERTHIRD
370
        25
  6
Continuous
 62
         4
100
AcDbLine
 10
16.6983552154
 20
4.6684955386
 30
0.0
 11
16.672118448
 21
4.7224550793
 31
0.0
  0
LINE
  5
164
100
AcDbEntity
  8
Z0_LOWERTHIRD
370
        25
  6
Continuous
 62
         4
100
AcDbLine
 10
16.9446395825
 20
6.3449684014
 30
0.0
 11
16.1149181143
 21
5.9415326244
 31
0.0
  0
ELLIPSE
  5
165
100
AcDbEntity
  8
Z0_LOWERTHIRD
370
        25
  6
Continuous
 62
         4
100
AcDbEllipse
 10
16.6319924405
 20
4.7038916356
 30
0.0
 11
0.0503538451740436
 21
0.0680142983106092
 31
0.0
210
0.0
220
0.0
230
1.0
 40
1.0
 41
0.0
 42
0.911864311821145
  0
LINE
  5
166
100
AcDbEntity
  8
Z0_LOWERTHIRD
370
        25
  6
Continuous
 62
         4
100
AcDbLine
 10
16.9204712378
 20
6.4359473218
 30
0.0
 11
16.9229154817
 21
6.4434638621
 31
0.0
  0
LINE
  5
167
100
AcDbEntity
  8
Z0_LOWERTHIRD
370
        25
  6
Continuous
 62
         4
100
AcDbLine
 10
16.9199669453
 20
6.4254266428
 30
0.0
 11
16.9204712378
 21
6.4359473218
 31
0.0
  0
LINE
  5
168
100
AcDbEntity
  8
Z0_LOWERTHIRD
370
        25
  6
Continuous
 62
         4
100
AcDbLine
 10
16.8149814811
 20
5.4032407885
 30
0.0
 11
16.7837842856
 21
5.3905313852
 31
0.0
  0
LINE
  5
169
100
AcDbEntity
  8
Z0_LOWERTHIRD
370
        25
  6
Continuous
 62
         4
100
AcDbLine
 10
16.8418478281
 20
5.4236428543
 30
0.0
 11
16.8149814811
 21
5.4032407885
 31
0.0
  0
LINE
  5
16A
100
AcDbEntity
  8
Z0_LOWERTHIRD
370
        25
  6
Continuous
 62
         4
100
AcDbLine
 10
16.8626977727
 20
5.4504543343
 30
0.0
 11
16.8418478281
 21
5.4236428543
 31
0.0
  0
LINE
  5
16B
100
AcDbEntity
  8
Z0_LOWERTHIRD
370
        25
  6
Continuous
 62
         4
100
AcDbLine
 10
16.9272052216
 20
6.4476857087
 30
0.0
 11
16.0909402598
 21
6.0410682864
 31
0.0
  0
LINE
  5
16C
100
AcDbEntity
  8
Z0_LOWERTHIRD
370
        25
  6
Continuous
 62
         4
100
AcDbLine
 10
16.6909438725
 20
4.6648919186
 30
0.0
 11
16.6870830674
 21
4.6630146779
 31
0.0
  0
LINE
  5
16D
100
AcDbEntity
  8
Z0_LOWERTHIRD
370
        25
  6
Continuous
 62
         4
100
AcDbLine
 10
16.6647071051
 20
4.7188514593
 30
0.0
 11
16.6608462999
 21
4.7169742186
 31
0.0
  0
LINE
  5
16E
100
AcDbEntity
  8
Z0_LOWERTHIRD
370
        25
  6
Continuous
 62
         4
100
AcDbLine
 10
16.9214200405
 20
6.4123050434
 30
0.0
 11
16.9199669453
 21
6.4254266428
 31
0.0
  0
LINE
  5
16F
100
AcDbEntity
  8
Z0_LOWERTHIRD
370
        25
  6
Continuous
 62
         4
100
AcDbLine
 10
16.9247766253
 20
6.397086714
 30
0.0
 11
16.9214200405
 21
6.4123050434
 31
0.0
  0
LINE
  5
170
100
AcDbEntity
  8
Z0_LOWERTHIRD
370
        25
  6
Continuous
 62
         4
100
AcDbLine
 10
16.9299072339
 20
6.3803580798
 30
0.0
 11
16.9247766253
 21
6.397086714
 31
0.0
  0
LINE
  5
171
100
AcDbEntity
  8
Z0_LOWERTHIRD
370
        25
  6
Continuous
 62
         4
100
AcDbLine
 10
16.9366141186
 20
6.3627590971
 30
0.0
 11
16.9299072339
 21
6.3803580798
 31
0.0
  0
LINE
  5
172
100
AcDbEntity
  8
Z0_LOWERTHIRD
370
        25
  6
Continuous
 62
         4
100
AcDbLine
 10
16.2041038454
 20
6.2573237722
 30
0.0
 11
16.1119229634
 21
6.2125026277
 31
0.0
  0
ELLIPSE
  5
173
100
AcDbEntity
  8
Z0_LOWERTHIRD
370
        25
  6
Continuous
 62
         4
100
AcDbEllipse
 10
16.0660086203
 20
6.3069318239
 30
0.0
 11
0.0944291962261156
 21
0.0459143430758787
 31
0.0
210
0.0
220
0.0
230
-1.0
 40
1.0
 41
4.7123889803846897
 42
7.8539816339753692
  0
LINE
  5
174
100
AcDbEntity
  8
Z0_LOWERTHIRD
370
        25
  6
Continuous
 62
         4
100
AcDbLine
 10
16.0200942773
 20
6.4013610202
 30
0.0
 11
16.1122751593
 21
6.4461821646
 31
0.0
  0
ELLIPSE
  5
175
100
AcDbEntity
  8
Z0_LOWERTHIRD
370
        25
  6
Continuous
 62
         4
100
AcDbEllipse
 10
16.1581895024
 20
6.3517529684
 30
0.0
 11
0.0459143430758165
 21
-0.0944291962263283
 31
0.0
210
0.0
220
0.0
230
1.0
 40
1.0
 41
0.0
 42
3.1415926535906475
  0
LINE
  5
176
100
AcDbEntity
  8
Z0_LOWERTHIRD
370
        25
  6
Continuous
 62
         4
100
AcDbLine
 10
16.7837842856
 20
5.3905313852
 30
0.0
 11
16.7502190724
 21
5.3863122482
 31
0.0
  0
ELLIPSE
  5
177
100
AcDbEntity
  8
Z0_LOWERTHIRD
370
        25
  6
Continuous
 62
         4
100
AcDbEllipse
 10
16.444697186
 20
6.7377738914
 30
0.0
 11
0.0261323829818954
 21
0.0106219032394402
 31
0.0
210
0.0
220
0.0
230
1.0
 40
1.0
 41
0.0
 42
1.5604658466146593
  0
LINE
  5
178
100
AcDbEntity
  8
Z0_LOWERTHIRD
370
        25
  6
Continuous
 62
         4
100
AcDbLine
 10
16.9507481232
 20
6.3890304585
 30
0.0
 11
16.9517264578
 21
6.3920380514
 31
0.0
  0
LINE
  5
179
100
AcDbEntity
  8
Z0_LOWERTHIRD
370
        25
  6
Continuous
 62
         4
100
AcDbLine
 10
16.2236466287
 20
6.7616412498
 30
0.0
 11
16.3949906536
 21
6.8449539185
 31
0.0
  0
LINE
  5
17A
100
AcDbEntity
  8
Z0_LOWERTHIRD
370
        25
  6
Continuous
 62
         4
100
AcDbLine
 10
16.4343458048
 20
6.7640146074
 30
0.0
 11
16.3949906536
 21
6.8449539185
 31
0.0
  0
LINE
  5
17B
100
AcDbEntity
  8
Z0_LOWERTHIRD
370
        25
  6
Continuous
 62
         4
100
AcDbLine
 10
16.8600567963
 20
6.5323462214
 30
0.0
 11
16.8647820324
 21
6.5355077554
 31
0.0
  0
LINE
  5
17C
100
AcDbEntity
  8
Z0_LOWERTHIRD
370
        25
  6
Continuous
 62
         4
100
AcDbLine
 10
17.3086437399
 20
4.7798107579
 30
0.0
 11
17.2911652812
 21
4.8040923164
 31
0.0
  0
LINE
  5
17D
100
AcDbEntity
  8
Z0_LOWERTHIRD
370
        25
  6
Continuous
 62
         4
100
AcDbLine
 10
17.3229375668
 20
4.7521126684
 30
0.0
 11
17.3086437399
 21
4.7798107579
 31
0.0
  0
LINE
  5
17E
100
AcDbEntity
  8
Z0_LOWERTHIRD
370
        25
  6
Continuous
 62
         4
100
AcDbLine
 10
16.540924811
 20
6.7824782302
 30
0.0
 11
16.7464461562
 21
6.3597951614
 31
0.0
  0
LINE
  5
17F
100
AcDbEntity
  8
Z0_LOWERTHIRD
370
        25
  6
Continuous
 62
         4
100
AcDbLine
 10
16.8728490095
 20
6.5908320106
 30
0.0
 11
16.8647925622
 21
6.6157985846
 31
0.0
  0
LINE
  5
180
100
AcDbEntity
  8
Z0_LOWERTHIRD
370
        25
  6
Continuous
 62
         4
100
AcDbLine
 10
16.8756320286
 20
6.5675200521
 30
0.0
 11
16.8728490095
 21
6.5908320106
 31
0.0
  0
LINE
  5
181
100
AcDbEntity
  8
Z0_LOWERTHIRD
370
        25
  6
Continuous
 62
         4
100
AcDbLine
 10
16.8728426486
 20
6.5483871184
 30
0.0
 11
16.8756320286
 21
6.5675200521
 31
0.0
  0
LINE
  5
182
100
AcDbEntity
  8
Z0_LOWERTHIRD
370
        25
  6
Continuous
 62
         4
100
AcDbLine
 10
16.8320446065
 20
5.3047607295
 30
0.0
 11
16.78622924
 21
5.3044381338
 31
0.0
  0
LINE
  5
183
100
AcDbEntity
  8
Z0_LOWERTHIRD
370
        25
  6
Continuous
 62
         4
100
AcDbLine
 10
16.876667538
 20
5.313998419
 30
0.0
 11
16.8320446065
 21
5.3047607295
 31
0.0
  0
LINE
  5
184
100
AcDbEntity
  8
Z0_LOWERTHIRD
370
        25
  6
Continuous
 62
         4
100
AcDbLine
 10
17.551723834
 20
5.1159981248
 30
0.0
 11
17.5418277902
 21
5.1280356587
 31
0.0
  0
LINE
  5
185
100
AcDbEntity
  8
Z0_LOWERTHIRD
370
        25
  6
Continuous
 62
         4
100
AcDbLine
 10
17.5611471907
 20
5.1067507966
 30
0.0
 11
17.551723834
 21
5.1159981248
 31
0.0
  0
LINE
  5
186
100
AcDbEntity
  8
Z0_LOWERTHIRD
370
        25
  6
Continuous
 62
         4
100
AcDbLine
 10
17.5697332821
 20
5.1006501384
 30
0.0
 11
17.5611471907
 21
5.1067507966
 31
0.0
  0
LINE
  5
187
100
AcDbEntity
  8
Z0_LOWERTHIRD
370
        25
  6
Continuous
 62
         4
100
AcDbLine
 10
16.6923482063
 20
5.6554530777
 30
0.0
 11
16.7249862048
 21
5.6639849438
 31
0.0
  0
LINE
  5
188
100
AcDbEntity
  8
Z0_LOWERTHIRD
370
        25
  6
Continuous
 62
         4
100
AcDbLine
 10
16.6630850978
 20
5.6387659569
 30
0.0
 11
16.6923482063
 21
5.6554530777
 31
0.0
  0
LINE
  5
189
100
AcDbEntity
  8
Z0_LOWERTHIRD
370
        25
  6
Continuous
 62
         4
100
AcDbLine
 10
16.8783944583
 20
5.5511418164
 30
0.0
 11
16.8815633343
 21
5.5162720063
 31
0.0
  0
LINE
  5
18A
100
AcDbEntity
  8
Z0_LOWERTHIRD
370
        25
  6
Continuous
 62
         4
100
AcDbLine
 10
16.8669115304
 20
5.5844109115
 30
0.0
 11
16.8783944583
 21
5.5511418164
 31
0.0
  0
LINE
  5
18B
100
AcDbEntity
  8
Z0_LOWERTHIRD
370
        25
  6
Continuous
 62
         4
100
AcDbLine
 10
16.6090474581
 20
4.7853470362
 30
0.0
 11
16.0778731686
 21
5.8777804208
 31
0.0
  0
LINE
  5
18C
100
AcDbEntity
  8
Z0_LOWERTHIRD
370
        25
  6
Continuous
 62
         4
100
AcDbLine
 10
16.0412920864
 20
6.0169278367
 30
0.0
 11
16.035105625
 21
6.0139197913
 31
0.0
  0
LINE
  5
18D
100
AcDbEntity
  8
Z0_LOWERTHIRD
370
        25
  6
Continuous
 62
         4
100
AcDbLine
 10
16.0675288539
 20
5.962968296
 30
0.0
 11
16.0613423925
 21
5.9599602506
 31
0.0
  0
LINE
  5
18E
100
AcDbEntity
  8
Z0_LOWERTHIRD
370
        25
  6
Continuous
 62
         4
100
AcDbLine
 10
16.0613423925
 20
5.9599602506
 30
0.0
 11
16.035105625
 21
6.0139197913
 31
0.0
  0
LINE
  5
18F
100
AcDbEntity
  8
Z0_LOWERTHIRD
370
        25
  6
Continuous
 62
         4
100
AcDbLine
 10
16.7889357887
 20
5.7993617515
 30
0.0
 11
16.8347265551
 21
5.7952023701
 31
0.0
  0
LINE
  5
190
100
AcDbEntity
  8
Z0_LOWERTHIRD
370
        25
  6
Continuous
 62
         4
100
AcDbLine
 10
15.9955976672
 20
5.8854790927
 30
0.0
 11
16.0494834632
 21
5.9116800033
 31
0.0
  0
LINE
  5
191
100
AcDbEntity
  8
Z0_LOWERTHIRD
370
        25
  6
Continuous
 62
         4
100
AcDbLine
 10
16.8478364952
 20
5.6139884935
 30
0.0
 11
16.8669115304
 21
5.5844109115
 31
0.0
  0
LINE
  5
192
100
AcDbEntity
  8
Z0_LOWERTHIRD
370
        25
  6
Continuous
 62
         4
100
AcDbLine
 10
16.8223675023
 20
5.6380164214
 30
0.0
 11
16.8478364952
 21
5.6139884935
 31
0.0
  0
LINE
  5
193
100
AcDbEntity
  8
Z0_LOWERTHIRD
370
        25
  6
Continuous
 62
         4
100
AcDbLine
 10
16.7921045855
 20
5.6549831872
 30
0.0
 11
16.8223675023
 21
5.6380164214
 31
0.0
  0
LINE
  5
194
100
AcDbEntity
  8
Z0_LOWERTHIRD
370
        25
  6
Continuous
 62
         4
100
AcDbLine
 10
16.672118448
 20
4.7224550793
 30
0.0
 11
16.7105538288
 21
4.7411435288
 31
0.0
  0
LINE
  5
195
100
AcDbEntity
  8
Z0_LOWERTHIRD
370
        25
  6
Continuous
 62
         4
100
AcDbLine
 10
17.3085722226
 20
4.7797337302
 30
0.0
 11
17.2911254709
 21
4.8039706606
 31
0.0
  0
LINE
  5
196
100
AcDbEntity
  8
Z0_LOWERTHIRD
370
        25
  6
Continuous
 62
         4
100
AcDbLine
 10
17.3228393259
 20
4.7520860277
 30
0.0
 11
17.3085722226
 21
4.7797337302
 31
0.0
  0
LINE
  5
197
100
AcDbEntity
  8
Z0_LOWERTHIRD
370
        25
  6
Continuous
 62
         4
100
AcDbLine
 10
17.3327713143
 20
4.7232667177
 30
0.0
 11
17.3228393259
 21
4.7520860277
 31
0.0
  0
LINE
  5
198
100
AcDbEntity
  8
Z0_LOWERTHIRD
370
        25
  6
Continuous
 62
         4
100
AcDbLine
 10
17.3375617418
 20
4.6956112809
 30
0.0
 11
17.3327713143
 21
4.7232667177
 31
0.0
  0
LINE
  5
199
100
AcDbEntity
  8
Z0_LOWERTHIRD
370
        25
  6
Continuous
 62
         4
100
AcDbLine
 10
17.336824401
 20
4.6713593058
 30
0.0
 11
17.3375617418
 21
4.6956112809
 31
0.0
  0
LINE
  5
19A
100
AcDbEntity
  8
Z0_LOWERTHIRD
370
        25
  6
Continuous
 62
         4
100
AcDbLine
 10
16.6631861855
 20
4.6513952882
 30
0.0
 11
16.6093012888
 21
4.6251948149
 31
0.0
  0
LINE
  5
19B
100
AcDbEntity
  8
Z0_LOWERTHIRD
370
        25
  6
Continuous
 62
         4
100
AcDbLine
 10
17.6234471315
 20
4.9952044258
 30
0.0
 11
17.6092717424
 21
4.9940662325
 31
0.0
  0
LINE
  5
19C
100
AcDbEntity
  8
Z0_LOWERTHIRD
370
        25
  6
Continuous
 62
         4
100
AcDbLine
 10
16.9184851506
 20
5.3318161944
 30
0.0
 11
16.876667538
 21
5.313998419
 31
0.0
  0
LINE
  5
19D
100
AcDbEntity
  8
Z0_LOWERTHIRD
370
        25
  6
Continuous
 62
         4
100
AcDbLine
 10
16.9559871553
 20
5.3575719988
 30
0.0
 11
16.9184851506
 21
5.3318161944
 31
0.0
  0
LINE
  5
19E
100
AcDbEntity
  8
Z0_LOWERTHIRD
370
        25
  6
Continuous
 62
         4
100
AcDbLine
 10
16.9878174826
 20
5.3903340438
 30
0.0
 11
16.9559871553
 21
5.3575719988
 31
0.0
  0
LINE
  5
19F
100
AcDbEntity
  8
Z0_LOWERTHIRD
370
        25
  6
Continuous
 62
         4
100
AcDbLine
 10
17.012825231
 20
5.4289178132
 30
0.0
 11
16.9878174826
 21
5.3903340438
 31
0.0
  0
LINE
  5
1A0
100
AcDbEntity
  8
Z0_LOWERTHIRD
370
        25
  6
Continuous
 62
         4
100
AcDbLine
 10
16.6647071051
 20
4.7188514593
 30
0.0
 11
16.672118448
 21
4.7224550793
 31
0.0
  0
LINE
  5
1A1
100
AcDbEntity
  8
Z0_LOWERTHIRD
370
        25
  6
Continuous
 62
         4
100
AcDbLine
 10
16.6909438725
 20
4.6648919186
 30
0.0
 11
16.6647071051
 21
4.7188514593
 31
0.0
  0
LINE
  5
1A2
100
AcDbEntity
  8
Z0_LOWERTHIRD
370
        25
  6
Continuous
 62
         4
100
AcDbLine
 10
16.6631861855
 20
4.6513952882
 30
0.0
 11
16.6869598598
 21
4.6629547706
 31
0.0
  0
LINE
  5
1A3
100
AcDbEntity
  8
Z0_LOWERTHIRD
370
        25
  6
Continuous
 62
         4
100
AcDbLine
 10
16.953441989
 20
6.393726168
 30
0.0
 11
16.9272052216
 21
6.4476857087
 31
0.0
  0
LINE
  5
1A4
100
AcDbEntity
  8
Z0_LOWERTHIRD
370
        25
  6
Continuous
 62
         4
100
AcDbLine
 10
16.6382437652
 20
4.7026928248
 30
0.0
 11
16.6631861855
 21
4.6513952882
 31
0.0
  0
LINE
  5
1A5
100
AcDbEntity
  8
Z0_LOWERTHIRD
370
        25
  6
Continuous
 62
         4
100
AcDbLine
 10
16.6324231352
 20
4.7754303877
 30
0.0
 11
16.6535428994
 21
4.7856994585
 31
0.0
  0
LINE
  5
1A6
100
AcDbEntity
  8
Z0_LOWERTHIRD
370
        25
  6
Continuous
 62
         4
100
AcDbLine
 10
16.6259816767
 20
4.7883648371
 30
0.0
 11
16.6869598598
 21
4.6629547706
 31
0.0
  0
LINE
  5
1A7
100
AcDbEntity
  8
Z0_LOWERTHIRD
370
        25
  6
Continuous
 62
         4
100
AcDbLine
 10
16.9446395825
 20
6.3449684014
 30
0.0
 11
16.9366141186
 21
6.3627590971
 31
0.0
  0
LINE
  5
1A8
100
AcDbEntity
  8
Z0_LOWERTHIRD
370
        25
  6
Continuous
 62
         4
100
AcDbLine
 10
16.6844328184
 20
5.4038554174
 30
0.0
 11
16.6563446041
 21
5.4245160093
 31
0.0
  0
LINE
  5
1A9
100
AcDbEntity
  8
Z0_LOWERTHIRD
370
        25
  6
Continuous
 62
         4
100
AcDbLine
 10
16.9517264578
 20
6.3920380514
 30
0.0
 11
16.953441989
 21
6.393726168
 31
0.0
  0
LINE
  5
1AA
100
AcDbEntity
  8
Z0_LOWERTHIRD
370
        25
  6
Continuous
 62
         4
100
AcDbLine
 10
16.7163930475
 20
5.3908485072
 30
0.0
 11
16.6844328184
 21
5.4038554174
 31
0.0
  0
LINE
  5
1AB
100
AcDbEntity
  8
Z0_LOWERTHIRD
370
        25
  6
Continuous
 62
         4
100
AcDbLine
 10
16.7502190724
 20
5.3863122482
 30
0.0
 11
16.7163930475
 21
5.3908485072
 31
0.0
  0
LINE
  5
1AC
100
AcDbEntity
  8
Z0_LOWERTHIRD
370
        25
  6
Continuous
 62
         4
100
AcDbLine
 10
16.8647820324
 20
6.5355077554
 30
0.0
 11
16.8728426486
 21
6.5483871184
 31
0.0
  0
LINE
  5
1AD
100
AcDbEntity
  8
Z0_LOWERTHIRD
370
        25
  6
Continuous
 62
         4
100
AcDbLine
 10
17.2911652812
 20
4.8040923164
 30
0.0
 11
17.2719164742
 21
4.8229885767
 31
0.0
  0
LINE
  5
1AE
100
AcDbEntity
  8
Z0_LOWERTHIRD
370
        25
  6
Continuous
 62
         4
100
AcDbLine
 10
17.0392952611
 20
5.5649128185
 30
0.0
 11
17.0390378759
 21
5.517813586
 31
0.0
  0
LINE
  5
1AF
100
AcDbEntity
  8
Z0_LOWERTHIRD
370
        25
  6
Continuous
 62
         4
100
AcDbLine
 10
17.0308703086
 20
5.6115232316
 30
0.0
 11
17.0392952611
 21
5.5649128185
 31
0.0
  0
LINE
  5
1B0
100
AcDbEntity
  8
Z0_LOWERTHIRD
370
        25
  6
Continuous
 62
         4
100
AcDbLine
 10
17.0140663925
 20
5.6559620747
 30
0.0
 11
17.0308703086
 21
5.6115232316
 31
0.0
  0
LINE
  5
1B1
100
AcDbEntity
  8
Z0_LOWERTHIRD
370
        25
  6
Continuous
 62
         4
100
AcDbLine
 10
16.9894923026
 20
5.6966228232
 30
0.0
 11
17.0140663925
 21
5.6559620747
 31
0.0
  0
LINE
  5
1B2
100
AcDbEntity
  8
Z0_LOWERTHIRD
370
        25
  6
Continuous
 62
         4
100
AcDbLine
 10
17.531838587
 20
5.1424030085
 30
0.0
 11
17.5221391837
 21
5.1585458259
 31
0.0
  0
LINE
  5
1B3
100
AcDbEntity
  8
Z0_LOWERTHIRD
370
        25
  6
Continuous
 62
         4
100
AcDbLine
 10
17.5418277902
 20
5.1280356587
 30
0.0
 11
17.531838587
 21
5.1424030085
 31
0.0
  0
LINE
  5
1B4
100
AcDbEntity
  8
Z0_LOWERTHIRD
370
        25
  6
Continuous
 62
         4
100
AcDbLine
 10
17.3391406158
 20
6.0920090925
 30
0.0
 11
17.1353273367
 21
5.9929088863
 31
0.0
  0
LINE
  5
1B5
100
AcDbEntity
  8
Z0_LOWERTHIRD
370
        25
  6
Continuous
 62
         4
100
AcDbLine
 10
17.3539670656
 20
5.5432460471
 30
0.0
 11
17.5577803448
 21
5.6423462534
 31
0.0
  0
ELLIPSE
  5
1B6
100
AcDbEntity
  8
Z0_LOWERTHIRD
370
        25
  6
Continuous
 62
         4
100
AcDbEllipse
 10
17.1993443845
 20
4.7131151083
 30
0.0
 11
-0.044660791626781
 21
0.1114158197431674
 31
0.0
210
0.0
220
0.0
230
1.0
 40
1.0
 41
4.7123889803846897
 42
5.4385463186873695
  0
LINE
  5
1B7
100
AcDbEntity
  8
Z0_LOWERTHIRD
370
        25
  6
Continuous
 62
         4
100
AcDbLine
 10
17.4994765183
 20
4.574329306
 30
0.0
 11
17.2168418401
 21
4.4369037417
 31
0.0
  0
LINE
  5
1B8
100
AcDbEntity
  8
Z0_LOWERTHIRD
370
        25
  6
Continuous
 62
         4
100
AcDbLine
 10
17.3092599541
 20
4.9655359761
 30
0.0
 11
17.4994765183
 21
4.574329306
 31
0.0
  0
LINE
  5
1B9
100
AcDbEntity
  8
Z0_LOWERTHIRD
370
        25
  6
Continuous
 62
         4
100
AcDbLine
 10
16.803548148
 20
6.6814400727
 30
0.0
 11
16.7893727589
 21
6.6803018793
 31
0.0
  0
LINE
  5
1BA
100
AcDbEntity
  8
Z0_LOWERTHIRD
370
        25
  6
Continuous
 62
         4
100
AcDbLine
 10
16.8199623267
 20
6.6744132336
 30
0.0
 11
16.803548148
 21
6.6814400727
 31
0.0
  0
LINE
  5
1BB
100
AcDbEntity
  8
Z0_LOWERTHIRD
370
        25
  6
Continuous
 62
         4
100
AcDbLine
 10
16.8368352102
 20
6.6599826052
 30
0.0
 11
16.8199623267
 21
6.6744132336
 31
0.0
  0
LINE
  5
1BC
100
AcDbEntity
  8
Z0_LOWERTHIRD
370
         5
  6
Continuous
 62
         4
100
AcDbLine
 10
17.4800514533
 20
4.2374802151
 30
0.0
 11
17.4800514533
 21
4.2374802151
 31
0.0
  0
LINE
  5
1BD
100
AcDbEntity
  8
Z0_LOWERTHIRD
370
         5
  6
Continuous
 62
         4
100
AcDbLine
 10
17.4800514533
 20
4.2374802151
 30
0.0
 11
17.4800514533
 21
4.2374802151
 31
0.0
  0
LINE
  5
1BE
100
AcDbEntity
  8
Z0_LOWERTHIRD
370
        25
  6
Continuous
 62
         4
100
AcDbLine
 10
16.9604155535
 20
6.3526391576
 30
0.0
 11
16.9446395825
 21
6.3449684014
 31
0.0
  0
LINE
  5
1BF
100
AcDbEntity
  8
Z0_LOWERTHIRD
370
        25
  6
Continuous
 62
         4
100
AcDbLine
 10
16.9604155535
 20
6.3526391576
 30
0.0
 11
16.9572053729
 21
6.3597558831
 31
0.0
  0
LINE
  5
1C0
100
AcDbEntity
  8
Z0_LOWERTHIRD
370
        25
  6
Continuous
 62
         4
100
AcDbLine
 10
16.6870830674
 20
4.6630146779
 30
0.0
 11
16.6261293719
 21
4.7883743822
 31
0.0
  0
LINE
  5
1C1
100
AcDbEntity
  8
Z0_LOWERTHIRD
370
        25
  6
Continuous
 62
         4
100
AcDbLine
 10
16.6580463849
 20
5.3554744511
 30
0.0
 11
16.6235599947
 21
5.3877684361
 31
0.0
  0
LINE
  5
1C2
100
AcDbEntity
  8
Z0_LOWERTHIRD
370
        25
  6
Continuous
 62
         4
100
AcDbLine
 10
16.7893727589
 20
6.6803018793
 30
0.0
 11
16.7883429652
 21
6.6798356327
 31
0.0
  0
LINE
  5
1C3
100
AcDbEntity
  8
Z0_LOWERTHIRD
370
        25
  6
Continuous
 62
         4
100
AcDbLine
 10
16.8792273787
 20
5.7822318698
 30
0.0
 11
16.9208324928
 21
5.7609193034
 31
0.0
  0
LINE
  5
1C4
100
AcDbEntity
  8
Z0_LOWERTHIRD
370
        25
  6
Continuous
 62
         4
100
AcDbLine
 10
16.8347265551
 20
5.7952023701
 30
0.0
 11
16.8792273787
 21
5.7822318698
 31
0.0
  0
ELLIPSE
  5
1C5
100
AcDbEntity
  8
Z0_LOWERTHIRD
370
        25
  6
Continuous
 62
         4
100
AcDbEllipse
 10
16.7798752799
 20
6.5845389599
 30
0.0
 11
0.0979066058745345
 21
-0.0099557398140298
 31
0.0
210
0.0
220
0.0
230
1.0
 40
1.0
 41
0.0
 42
1.1078182333338622
  0
LINE
  5
1C6
100
AcDbEntity
  8
Z0_LOWERTHIRD
370
        25
  6
Continuous
 62
         4
100
AcDbLine
 10
17.3369478385
 20
4.6712380779
 30
0.0
 11
17.3376861119
 21
4.6955338723
 31
0.0
  0
LINE
  5
1C7
100
AcDbEntity
  8
Z0_LOWERTHIRD
370
        25
  6
Continuous
 62
         4
100
AcDbLine
 10
17.5324932886
 20
5.1765967254
 30
0.0
 11
17.5288788488
 21
5.1835157758
 31
0.0
  0
LINE
  5
1C8
100
AcDbEntity
  8
Z0_LOWERTHIRD
370
        25
  6
Continuous
 62
         4
100
AcDbLine
 10
17.5363735846
 20
5.1701394136
 30
0.0
 11
17.5324932886
 21
5.1765967254
 31
0.0
  0
LINE
  5
1C9
100
AcDbEntity
  8
Z0_LOWERTHIRD
370
        25
  6
Continuous
 62
         4
100
AcDbLine
 10
17.5403690811
 20
5.164391939
 30
0.0
 11
17.5363735846
 21
5.1701394136
 31
0.0
  0
LINE
  5
1CA
100
AcDbEntity
  8
Z0_LOWERTHIRD
370
        25
  6
Continuous
 62
         4
100
AcDbLine
 10
17.2523337813
 20
4.8347161309
 30
0.0
 11
17.2448031831
 21
4.8373447939
 31
0.0
  0
LINE
  5
1CB
100
AcDbEntity
  8
Z0_LOWERTHIRD
370
        25
  6
Continuous
 62
         4
100
AcDbLine
 10
17.2717564839
 20
4.8227573363
 30
0.0
 11
17.2523337813
 21
4.8347161309
 31
0.0
  0
LINE
  5
1CC
100
AcDbEntity
  8
Z0_LOWERTHIRD
370
        25
  6
Continuous
 62
         4
100
AcDbLine
 10
17.6092717424
 20
4.9940662325
 30
0.0
 11
17.6082419487
 21
4.9935999858
 31
0.0
  0
ELLIPSE
  5
1CD
100
AcDbEntity
  8
Z0_LOWERTHIRD
370
        25
  6
Continuous
 62
         4
100
AcDbEllipse
 10
16.9787849375
 20
4.5268672819
 30
0.0
 11
-0.0589740079367106
 21
0.0880748371567829
 31
0.0
210
0.0
220
0.0
230
1.0
 40
1.0
 41
0.0
 42
0.8546536431478852
  0
ELLIPSE
  5
1CE
100
AcDbEntity
  8
Z0_LOWERTHIRD
370
        25
  6
Continuous
 62
         4
100
AcDbEllipse
 10
16.9787889972
 20
4.5268649025
 30
0.0
 11
0.0880777703607284
 21
0.0589769287338566
 31
0.0
210
0.0
220
0.0
230
1.0
 40
1.0
 41
4.7123889803846897
 42
7.5790622424717355
  0
LINE
  5
1CF
100
AcDbEntity
  8
Z0_LOWERTHIRD
370
        25
  6
Continuous
 62
         4
100
AcDbLine
 10
17.5224866651
 20
4.5855175383
 30
0.0
 11
17.5377914461
 21
4.5540411395
 31
0.0
  0
LINE
  5
1D0
100
AcDbEntity
  8
Z0_LOWERTHIRD
370
        25
  6
Continuous
 62
         4
100
AcDbLine
 10
17.0823072024
 20
6.1019521248
 30
0.0
 11
17.3805550738
 21
6.2469692978
 31
0.0
  0
LINE
  5
1D1
100
AcDbEntity
  8
Z0_LOWERTHIRD
370
        25
  6
Continuous
 62
         4
100
AcDbLine
 10
16.2709221016
 20
4.416186808
 30
0.0
 11
17.2242073206
 21
4.8797030334
 31
0.0
  0
LINE
  5
1D2
100
AcDbEntity
  8
Z0_LOWERTHIRD
370
        25
  6
Continuous
 62
         4
100
AcDbLine
 10
16.6909438725
 20
4.6648919186
 30
0.0
 11
16.6983552154
 21
4.6684955386
 31
0.0
  0
LINE
  5
1D3
100
AcDbEntity
  8
Z0_LOWERTHIRD
370
        25
  6
Continuous
 62
         4
100
AcDbLine
 10
16.8325094689
 20
6.6676922062
 30
0.0
 11
16.8162106473
 21
6.6766543212
 31
0.0
  0
LINE
  5
1D4
100
AcDbEntity
  8
Z0_LOWERTHIRD
370
        25
  6
Continuous
 62
         4
100
AcDbLine
 10
16.8747649904
 20
6.5562292169
 30
0.0
 11
16.8777818858
 21
6.5745832201
 31
0.0
  0
LINE
  5
1D5
100
AcDbEntity
  8
Z0_LOWERTHIRD
370
        25
  6
Continuous
 62
         4
100
AcDbLine
 10
17.3307304971
 20
4.6523197749
 30
0.0
 11
17.3369478385
 21
4.6712380779
 31
0.0
  0
LINE
  5
1D6
100
AcDbEntity
  8
Z0_LOWERTHIRD
370
        25
  6
Continuous
 62
         4
100
AcDbLine
 10
17.319538123
 20
4.640312784
 30
0.0
 11
17.3307304971
 21
4.6523197749
 31
0.0
  0
LINE
  5
1D7
100
AcDbEntity
  8
Z0_LOWERTHIRD
370
        25
  6
Continuous
 62
         4
100
AcDbLine
 10
17.3204874407
 20
4.6646845079
 30
0.0
 11
17.3140259712
 21
4.6571583491
 31
0.0
  0
LINE
  5
1D8
100
AcDbEntity
  8
Z0_LOWERTHIRD
370
        25
  6
Continuous
 62
         4
100
AcDbLine
 10
17.3263379312
 20
4.6821390293
 30
0.0
 11
17.3204874407
 21
4.6646845079
 31
0.0
  0
LINE
  5
1D9
100
AcDbEntity
  8
Z0_LOWERTHIRD
370
        25
  6
Continuous
 62
         4
100
AcDbLine
 10
17.3265913447
 20
4.7050170734
 30
0.0
 11
17.3263379312
 21
4.6821390293
 31
0.0
  0
LINE
  5
1DA
100
AcDbEntity
  8
Z0_LOWERTHIRD
370
        25
  6
Continuous
 62
         4
100
AcDbLine
 10
16.6870830674
 20
4.6630146779
 30
0.0
 11
16.6869598598
 21
4.6629547706
 31
0.0
  0
LINE
  5
1DB
100
AcDbEntity
  8
Z0_LOWERTHIRD
370
        25
  6
Continuous
 62
         4
100
AcDbLine
 10
16.7883429652
 20
6.6798356327
 30
0.0
 11
16.6285993423
 21
6.6021634317
 31
0.0
  0
LINE
  5
1DC
100
AcDbEntity
  8
Z0_LOWERTHIRD
370
        25
  6
Continuous
 62
         4
100
AcDbLine
 10
16.7003131734
 20
6.4546740204
 30
0.0
 11
16.8600567963
 21
6.5323462214
 31
0.0
  0
LINE
  5
1DD
100
AcDbEntity
  8
Z0_LOWERTHIRD
370
        25
  6
Continuous
 62
         4
100
AcDbLine
 10
16.6382437652
 20
4.7026928248
 30
0.0
 11
16.5843588685
 21
4.6764923516
 31
0.0
  0
LINE
  5
1DE
100
AcDbEntity
  8
Z0_LOWERTHIRD
370
        25
  6
Continuous
 62
         4
100
AcDbLine
 10
16.6983552154
 20
4.6684955386
 30
0.0
 11
16.7417890484
 21
4.6896143873
 31
0.0
  0
LINE
  5
1DF
100
AcDbEntity
  8
Z0_LOWERTHIRD
370
        25
  6
Continuous
 62
         4
100
AcDbLine
 10
17.0390378759
 20
5.517813586
 30
0.0
 11
17.0301062828
 21
5.4719285377
 31
0.0
  0
ELLIPSE
  5
1E0
100
AcDbEntity
  8
Z0_LOWERTHIRD
370
        25
  6
Continuous
 62
         4
100
AcDbEllipse
 10
16.9787889653
 20
4.526864887
 30
0.0
 11
-0.0619332199954034
 21
0.0866403317651183
 31
0.0
210
0.0
220
0.0
230
1.0
 40
1.0
 41
0.0
 42
2.8055140499188798
  0
LINE
  5
1E1
100
AcDbEntity
  8
Z0_LOWERTHIRD
370
        25
  6
Continuous
 62
         4
100
AcDbLine
 10
17.6082419487
 20
4.9935999858
 30
0.0
 11
17.4484983258
 21
4.9159277848
 31
0.0
  0
ELLIPSE
  5
1E2
100
AcDbEntity
  8
Z0_LOWERTHIRD
370
        25
  6
Continuous
 62
         4
100
AcDbEllipse
 10
16.9787887454
 20
4.5268646824
 30
0.0
 11
-0.0133352882609113
 21
-0.1051577425480929
 31
0.0
210
0.0
220
0.0
230
1.0
 40
1.0
 41
4.7123889803846897
 42
6.724426976325061
  0
CIRCLE
  5
1E3
100
AcDbEntity
  8
Z0_LOWERTHIRD
370
        25
  6
Continuous
 62
         4
100
AcDbCircle
 10
16.9787888774
 20
4.5268648442
 30
0.0
 40
0.082
  0
LINE
  5
1E4
100
AcDbEntity
  8
Z0_LOWERTHIRD
370
        25
  6
Continuous
 62
         4
100
AcDbLine
 10
17.3805550738
 20
6.2469692978
 30
0.0
 11
17.3807493281
 21
6.2470637502
 31
0.0
  0
LINE
  5
1E5
100
AcDbEntity
  8
Z0_LOWERTHIRD
370
        25
  6
Continuous
 62
         4
100
AcDbLine
 10
17.402365343
 20
5.0108066438
 30
0.0
 11
17.6078866882
 21
4.588123575
 31
0.0
  0
LINE
  5
1E6
100
AcDbEntity
  8
Z0_LOWERTHIRD
370
        25
  6
Continuous
 62
         4
100
AcDbLine
 10
16.979169128
 20
6.3958299102
 30
0.0
 11
17.4166365735
 21
6.2758683933
 31
0.0
  0
ELLIPSE
  5
1E7
100
AcDbEntity
  8
Z0_LOWERTHIRD
370
        25
  6
Continuous
 62
         4
100
AcDbEllipse
 10
16.9691627068
 20
6.3599317435
 30
0.0
 11
-0.0358981667290893
 21
0.0100064212449584
 31
0.0
210
0.0
220
0.0
230
1.0
 40
1.0
 41
4.7123889803846897
 42
5.4338914242298459
  0
LINE
  5
1E8
100
AcDbEntity
  8
Z0_LOWERTHIRD
370
        25
  6
Continuous
 62
         4
100
AcDbLine
 10
16.7417890484
 20
4.6896143873
 30
0.0
 11
17.5831244084
 21
5.0986971912
 31
0.0
  0
ELLIPSE
  5
1E9
100
AcDbEntity
  8
Z0_LOWERTHIRD
370
        25
  6
Continuous
 62
         4
100
AcDbEllipse
 10
17.0327484181
 20
4.5531016117
 30
0.0
 11
0.0459143430760006
 21
-0.0944291962261117
 31
0.0
210
0.0
220
0.0
230
1.0
 40
1.0
 41
0.0
 42
3.1415926535879035
  0
LINE
  5
1EA
100
AcDbEntity
  8
Z0_LOWERTHIRD
370
        25
  6
Continuous
 62
         4
100
AcDbLine
 10
17.4297068274
 20
6.3333318404
 30
0.0
 11
17.4166365735
 21
6.2758683933
 31
0.0
  0
LINE
  5
1EB
100
AcDbEntity
  8
Z0_LOWERTHIRD
370
        25
  6
Continuous
 62
         4
100
AcDbLine
 10
17.5515307432
 20
5.1534379157
 30
0.0
 11
17.5480970211
 21
5.1558780817
 31
0.0
  0
LINE
  5
1EC
100
AcDbEntity
  8
Z0_LOWERTHIRD
370
        25
  6
Continuous
 62
         4
100
AcDbLine
 10
17.5545000111
 20
5.1523508789
 30
0.0
 11
17.5515307432
 21
5.1534379157
 31
0.0
  0
LINE
  5
1ED
100
AcDbEntity
  8
Z0_LOWERTHIRD
370
        25
  6
Continuous
 62
         4
100
AcDbLine
 10
17.5568876409
 20
5.1526567319
 30
0.0
 11
17.5545000111
 21
5.1523508789
 31
0.0
  0
LINE
  5
1EE
100
AcDbEntity
  8
Z0_LOWERTHIRD
370
        25
  6
Continuous
 62
         4
100
AcDbLine
 10
17.332615731
 20
4.7231910684
 30
0.0
 11
17.3226837426
 21
4.7520103783
 31
0.0
  0
LINE
  5
1EF
100
AcDbEntity
  8
Z0_LOWERTHIRD
370
        25
  6
Continuous
 62
         4
100
AcDbLine
 10
17.3374061585
 20
4.6955356316
 30
0.0
 11
17.332615731
 21
4.7231910684
 31
0.0
  0
LINE
  5
1F0
100
AcDbEntity
  8
Z0_LOWERTHIRD
370
        25
  6
Continuous
 62
         4
100
AcDbLine
 10
17.2455069565
 20
5.7684955059
 30
0.0
 11
17.258468293
 21
5.73965248
 31
0.0
  0
LINE
  5
1F1
100
AcDbEntity
  8
Z0_LOWERTHIRD
370
        25
  6
Continuous
 62
         4
100
AcDbLine
 10
17.2308261093
 20
5.7965024534
 30
0.0
 11
17.2455069565
 21
5.7684955059
 31
0.0
  0
LINE
  5
1F2
100
AcDbEntity
  8
Z0_LOWERTHIRD
370
        25
  6
Continuous
 62
         4
100
AcDbLine
 10
17.2524893646
 20
4.8347917803
 30
0.0
 11
17.2447380285
 21
4.8374787934
 31
0.0
  0
LINE
  5
1F3
100
AcDbEntity
  8
Z0_LOWERTHIRD
370
        25
  6
Continuous
 62
         4
100
AcDbLine
 10
17.5443279507
 20
5.1595773677
 30
0.0
 11
17.5403690811
 21
5.164391939
 31
0.0
  0
LINE
  5
1F4
100
AcDbEntity
  8
Z0_LOWERTHIRD
370
        25
  6
Continuous
 62
         4
100
AcDbLine
 10
17.5480970211
 20
5.1558780817
 30
0.0
 11
17.5443279507
 21
5.1595773677
 31
0.0
  0
LINE
  5
1F5
100
AcDbEntity
  8
Z0_LOWERTHIRD
370
        25
  6
Continuous
 62
         4
100
AcDbLine
 10
17.3107602043
 20
4.7577759
 30
0.0
 11
17.321223327
 21
4.7310795741
 31
0.0
  0
LINE
  5
1F6
100
AcDbEntity
  8
Z0_LOWERTHIRD
370
        25
  6
Continuous
 62
         4
100
AcDbLine
 10
17.332886411
 20
4.7232403973
 30
0.0
 11
17.3229375668
 21
4.7521126684
 31
0.0
  0
LINE
  5
1F7
100
AcDbEntity
  8
Z0_LOWERTHIRD
370
        25
  6
Continuous
 62
         4
100
AcDbLine
 10
17.3376861119
 20
4.6955338723
 30
0.0
 11
17.332886411
 21
4.7232403973
 31
0.0
  0
LINE
  5
1F8
100
AcDbEntity
  8
Z0_LOWERTHIRD
370
        25
  6
Continuous
 62
         4
100
AcDbLine
 10
17.3149541361
 20
4.6380727909
 30
0.0
 11
17.319538123
 21
4.640312784
 31
0.0
  0
LINE
  5
1F9
100
AcDbEntity
  8
Z0_LOWERTHIRD
370
        25
  6
Continuous
 62
         4
100
AcDbLine
 10
17.6955310121
 20
4.8812844052
 30
0.0
 11
17.6927475557
 21
4.904597263
 31
0.0
  0
LINE
  5
1FA
100
AcDbEntity
  8
Z0_LOWERTHIRD
370
        25
  6
Continuous
 62
         4
100
AcDbLine
 10
17.6927416321
 20
4.8621514715
 30
0.0
 11
17.6955310121
 21
4.8812844052
 31
0.0
  0
LINE
  5
1FB
100
AcDbEntity
  8
Z0_LOWERTHIRD
370
        25
  6
Continuous
 62
         4
100
AcDbLine
 10
17.3559898157
 20
4.988257454
 30
0.0
 11
17.5462063799
 21
4.597050784
 31
0.0
  0
LINE
  5
1FC
100
AcDbEntity
  8
Z0_LOWERTHIRD
370
        25
  6
Continuous
 62
         4
100
AcDbLine
 10
17.2242073206
 20
4.8797030334
 30
0.0
 11
17.2897992393
 21
4.7448041816
 31
0.0
  0
LINE
  5
1FD
100
AcDbEntity
  8
Z0_LOWERTHIRD
370
        25
  6
Continuous
 62
         4
100
AcDbLine
 10
17.6398613102
 20
4.9881775867
 30
0.0
 11
17.6234471315
 21
4.9952044258
 31
0.0
  0
LINE
  5
1FE
100
AcDbEntity
  8
Z0_LOWERTHIRD
370
        25
  6
Continuous
 62
         4
100
AcDbLine
 10
16.986834075
 20
4.6475308079
 30
0.0
 11
16.894653193
 21
4.6027096635
 31
0.0
  0
LINE
  5
1FF
100
AcDbEntity
  8
Z0_LOWERTHIRD
370
        25
  6
Continuous
 62
         4
100
AcDbLine
 10
17.5275444494
 20
4.5157004116
 30
0.0
 11
17.3562004246
 21
4.4323877429
 31
0.0
  0
LINE
  5
200
100
AcDbEntity
  8
Z0_LOWERTHIRD
370
        25
  6
Continuous
 62
         4
100
AcDbLine
 10
16.9864818791
 20
4.413851271
 30
0.0
 11
17.0786627612
 21
4.4586724155
 31
0.0
  0
ARC
  5
201
100
AcDbEntity
  8
Z0_LOWERTHIRD
370
        25
  6
Continuous
 62
         4
100
AcDbCircle
 10
17.0649669285
 20
4.6354846252
 30
0.0
 40
0.2500006668
100
AcDbArc
 50
-64.069418926
 51
25.9302754434
  0
ELLIPSE
  5
202
100
AcDbEntity
  8
Z0_LOWERTHIRD
370
        25
  6
Continuous
 62
         4
100
AcDbEllipse
 10
16.8108484909
 20
5.5574419891
 30
0.0
 11
0.4675261211439913
 21
0.2270347690560594
 31
0.0
210
0.0
220
0.0
230
1.0
 40
1.0
 41
0.0
 42
0.3827143801835961
  0
ELLIPSE
  5
203
100
AcDbEntity
  8
Z0_LOWERTHIRD
370
        25
  6
Continuous
 62
         4
100
AcDbEllipse
 10
16.8110770753
 20
5.5569718737
 30
0.0
 11
0.5184500040879529
 21
0.0365383849389357
 31
0.0
210
0.0
220
0.0
230
1.0
 40
1.0
 41
0.0
 42
0.3827143801827902
  0
LINE
  5
204
100
AcDbEntity
  8
Z0_LOWERTHIRD
370
        25
  6
Continuous
 62
         4
100
AcDbLine
 10
17.0301062828
 20
5.4719285377
 30
0.0
 11
17.012825231
 21
5.4289178132
 31
0.0
  0
LINE
  5
205
100
AcDbEntity
  8
Z0_LOWERTHIRD
370
        25
  6
Continuous
 62
         4
100
AcDbLine
 10
16.9580351822
 20
5.7320354087
 30
0.0
 11
16.9894923026
 21
5.6966228232
 31
0.0
  0
LINE
  5
206
100
AcDbEntity
  8
Z0_LOWERTHIRD
370
        25
  6
Continuous
 62
         4
100
AcDbLine
 10
16.9208324928
 20
5.7609193034
 30
0.0
 11
16.9580351822
 21
5.7320354087
 31
0.0
  0
LINE
  5
207
100
AcDbEntity
  8
Z0_LOWERTHIRD
370
        25
  6
Continuous
 62
         4
100
AcDbLine
 10
17.5771542036
 20
5.0979314531
 30
0.0
 11
17.5697332821
 21
5.1006501384
 31
0.0
  0
LINE
  5
208
100
AcDbEntity
  8
Z0_LOWERTHIRD
370
        25
  6
Continuous
 62
         4
100
AcDbLine
 10
17.5831244084
 20
5.0986971912
 30
0.0
 11
17.5771542036
 21
5.0979314531
 31
0.0
  0
LINE
  5
209
100
AcDbEntity
  8
Z0_LOWERTHIRD
370
        25
  6
Continuous
 62
         4
100
AcDbLine
 10
17.5668996006
 20
4.4347611005
 30
0.0
 11
17.3955555758
 21
4.3514484318
 31
0.0
  0
LINE
  5
20A
100
AcDbEntity
  8
Z0_LOWERTHIRD
370
        25
  6
Continuous
 62
         4
100
AcDbLine
 10
17.3955555758
 20
4.3514484318
 30
0.0
 11
17.0884295613
 21
4.202114436
 31
0.0
  0
LINE
  5
20B
100
AcDbEntity
  8
Z0_LOWERTHIRD
370
        25
  6
Continuous
 62
         4
100
AcDbLine
 10
17.3562004246
 20
4.4323877429
 30
0.0
 11
17.3955555758
 21
4.3514484318
 31
0.0
  0
LINE
  5
20C
100
AcDbEntity
  8
Z0_LOWERTHIRD
370
        25
  6
Continuous
 62
         4
100
AcDbLine
 10
17.0490744101
 20
4.283053747
 30
0.0
 11
17.3562004246
 21
4.4323877429
 31
0.0
  0
LINE
  5
20D
100
AcDbEntity
  8
Z0_LOWERTHIRD
370
        25
  6
Continuous
 62
         4
100
AcDbLine
 10
17.0884295613
 20
4.202114436
 30
0.0
 11
17.0490744101
 21
4.283053747
 31
0.0
  0
LINE
  5
20E
100
AcDbEntity
  8
Z0_LOWERTHIRD
370
        25
  6
Continuous
 62
         4
100
AcDbLine
 10
17.321223327
 20
4.7310795741
 30
0.0
 11
17.3265913447
 21
4.7050170734
 31
0.0
  0
LINE
  5
20F
100
AcDbEntity
  8
Z0_LOWERTHIRD
370
        25
  6
Continuous
 62
         4
100
AcDbLine
 10
17.2524582443
 20
4.8349701269
 30
0.0
 11
17.2446427015
 21
4.8376748464
 31
0.0
  0
LINE
  5
210
100
AcDbEntity
  8
Z0_LOWERTHIRD
370
        25
  6
Continuous
 62
         4
100
AcDbLine
 10
17.2719164742
 20
4.8229885767
 30
0.0
 11
17.2524582443
 21
4.8349701269
 31
0.0
  0
ELLIPSE
  5
211
100
AcDbEntity
  8
Z0_LOWERTHIRD
370
        25
  6
Continuous
 62
         4
100
AcDbEllipse
 10
16.9787889701
 20
4.5268648893
 30
0.0
 11
0.0619321400562998
 21
-0.0866408568643299
 31
0.0
210
0.0
220
0.0
230
1.0
 40
1.0
 41
0.0
 42
2.8055362831402748
  0
ELLIPSE
  5
212
100
AcDbEntity
  8
Z0_LOWERTHIRD
370
        25
  6
Continuous
 62
         4
100
AcDbEllipse
 10
15.8902537196
 20
4.0670832469
 30
0.0
 11
0.109320755693927
 21
-0.2248317276712958
 31
0.0
210
0.0
220
0.0
230
1.0
 40
1.0
 41
0.0
 42
1.5707909925335481
  0
LINE
  5
213
100
AcDbEntity
  8
Z0_LOWERTHIRD
370
        25
  6
Continuous
 62
         4
100
AcDbLine
 10
16.0301977954
 20
3.8599213681
 30
0.0
 11
16.6237374545
 21
4.1485183765
 31
0.0
  0
LINE
  5
214
100
AcDbEntity
  8
Z0_LOWERTHIRD
370
        25
  6
Continuous
 62
         4
100
AcDbLine
 10
17.8340274247
 20
5.4214598366
 30
0.0
 11
17.8297718835
 21
5.4434208899
 31
0.0
  0
LINE
  5
215
100
AcDbEntity
  8
Z0_LOWERTHIRD
370
        25
  6
Continuous
 62
         4
100
AcDbLine
 10
17.8353199137
 20
5.4010258363
 30
0.0
 11
17.8340274247
 21
5.4214598366
 31
0.0
  0
LINE
  5
216
100
AcDbEntity
  8
Z0_LOWERTHIRD
370
        25
  6
Continuous
 62
         4
100
AcDbLine
 10
15.5144286395
 20
5.9720202316
 30
0.0
 11
15.5800205582
 21
5.8371213798
 31
0.0
  0
LINE
  5
217
100
AcDbEntity
  8
Z0_LOWERTHIRD
370
        25
  6
Continuous
 62
         4
100
AcDbLine
 10
17.8990293898
 20
5.4018729656
 30
0.0
 11
17.8915960643
 21
5.3903493977
 31
0.0
  0
LINE
  5
218
100
AcDbEntity
  8
Z0_LOWERTHIRD
370
        25
  6
Continuous
 62
         4
100
AcDbLine
 10
17.9036960508
 20
5.4169872177
 30
0.0
 11
17.8990293898
 21
5.4018729656
 31
0.0
  0
LINE
  5
219
100
AcDbEntity
  8
Z0_LOWERTHIRD
370
        25
  6
Continuous
 62
         4
100
AcDbLine
 10
17.9054160551
 20
5.4351087091
 30
0.0
 11
17.9036960508
 21
5.4169872177
 31
0.0
  0
LINE
  5
21A
100
AcDbEntity
  8
Z0_LOWERTHIRD
370
        25
  6
Continuous
 62
         4
100
AcDbLine
 10
17.9041235661
 20
5.4555427093
 30
0.0
 11
17.9054160551
 21
5.4351087091
 31
0.0
  0
LINE
  5
21B
100
AcDbEntity
  8
Z0_LOWERTHIRD
370
        25
  6
Continuous
 62
         4
100
AcDbLine
 10
17.8998671255
 20
5.4775033254
 30
0.0
 11
17.9041235661
 21
5.4555427093
 31
0.0
  0
LINE
  5
21C
100
AcDbEntity
  8
Z0_LOWERTHIRD
370
        25
  6
Continuous
 62
         4
100
AcDbLine
 10
17.821499923
 20
5.3562665249
 30
0.0
 11
17.8289341478
 21
5.3677905301
 31
0.0
  0
LINE
  5
21D
100
AcDbEntity
  8
Z0_LOWERTHIRD
370
        25
  6
Continuous
 62
         4
100
AcDbLine
 10
17.0534467582
 20
6.1613076196
 30
0.0
 11
17.3350616011
 21
6.298237309
 31
0.0
  0
LINE
  5
21E
100
AcDbEntity
  8
Z0_LOWERTHIRD
370
        25
  6
Continuous
 62
         4
100
AcDbLine
 10
17.3366688177
 20
4.6712836565
 30
0.0
 11
17.3374061585
 21
4.6955356316
 31
0.0
  0
LINE
  5
21F
100
AcDbEntity
  8
Z0_LOWERTHIRD
370
        25
  6
Continuous
 62
         4
100
AcDbLine
 10
17.3304625902
 20
4.6523996679
 30
0.0
 11
17.3366688177
 21
4.6712836565
 31
0.0
  0
LINE
  5
220
100
AcDbEntity
  8
Z0_LOWERTHIRD
370
        25
  6
Continuous
 62
         4
100
AcDbLine
 10
17.3192905871
 20
4.6404148134
 30
0.0
 11
17.3304625902
 21
4.6523996679
 31
0.0
  0
LINE
  5
221
100
AcDbEntity
  8
Z0_LOWERTHIRD
370
        25
  6
Continuous
 62
         4
100
AcDbLine
 10
17.3149518438
 20
4.6382696024
 30
0.0
 11
17.3192905871
 21
4.6404148134
 31
0.0
  0
LINE
  5
222
100
AcDbEntity
  8
Z0_LOWERTHIRD
370
        25
  6
Continuous
 62
         4
100
AcDbLine
 10
17.2909698876
 20
4.8038950113
 30
0.0
 11
17.2717564839
 21
4.8227573363
 31
0.0
  0
LINE
  5
223
100
AcDbEntity
  8
Z0_LOWERTHIRD
370
        25
  6
Continuous
 62
         4
100
AcDbLine
 10
17.3084166393
 20
4.7796580808
 30
0.0
 11
17.2909698876
 21
4.8038950113
 31
0.0
  0
LINE
  5
224
100
AcDbEntity
  8
Z0_LOWERTHIRD
370
        25
  6
Continuous
 62
         4
100
AcDbLine
 10
17.3226837426
 20
4.7520103783
 30
0.0
 11
17.3084166393
 21
4.7796580808
 31
0.0
  0
ELLIPSE
  5
225
100
AcDbEntity
  8
Z0_LOWERTHIRD
370
        25
  6
Continuous
 62
         4
100
AcDbEllipse
 10
17.4381306335
 20
6.1485674414
 30
0.0
 11
-0.0575755597469062
 21
0.0984018563941332
 31
0.0
210
0.0
220
0.0
230
1.0
 40
1.0
 41
0.0
 42
1.5604899057229362
  0
LINE
  5
226
100
AcDbEntity
  8
Z0_LOWERTHIRD
370
        25
  6
Continuous
 62
         4
100
AcDbLine
 10
16.9272052216
 20
6.4476857087
 30
0.0
 11
17.1950217106
 21
6.5779062194
 31
0.0
  0
ELLIPSE
  5
227
100
AcDbEntity
  8
Z0_LOWERTHIRD
370
        25
  6
Continuous
 62
         4
100
AcDbEllipse
 10
16.9672250177
 20
6.3635289955
 30
0.0
 11
0.025014364312014
 21
0.0897643618837326
 31
0.0
210
0.0
220
0.0
230
1.0
 40
1.0
 41
0.0
 42
0.7213583493158997
  0
ELLIPSE
  5
228
100
AcDbEntity
  8
Z0_LOWERTHIRD
370
        25
  6
Continuous
 62
         4
100
AcDbEllipse
 10
17.235520441
 20
6.4939766558
 30
0.0
 11
0.025013871269943
 21
0.0897698449731109
 31
0.0
210
0.0
220
0.0
230
1.0
 40
1.0
 41
0.0
 42
0.7213273835575881
  0
LINE
  5
229
100
AcDbEntity
  8
Z0_LOWERTHIRD
370
        25
  6
Continuous
 62
         4
100
AcDbLine
 10
17.5221391837
 20
5.1585458259
 30
0.0
 11
17.5131028777
 21
5.1758450195
 31
0.0
  0
LINE
  5
22A
100
AcDbEntity
  8
Z0_LOWERTHIRD
370
        25
  6
Continuous
 62
         4
100
AcDbLine
 10
17.6927475557
 20
4.904597263
 30
0.0
 11
17.6846915457
 21
4.9295629377
 31
0.0
  0
ARC
  5
22B
100
AcDbEntity
  8
Z0_LOWERTHIRD
370
        25
  6
Continuous
 62
         4
100
AcDbCircle
 10
16.561345387
 20
4.3906076678
 30
0.0
 40
0.2499998856
100
AcDbArc
 50
-154.0695979603
 51
-64.0695455224
  0
ELLIPSE
  5
22C
100
AcDbEntity
  8
Z0_LOWERTHIRD
370
        25
  6
Continuous
 62
         4
100
AcDbEllipse
 10
16.9405675361
 20
4.5082804673
 30
0.0
 11
-0.0944291962260877
 21
-0.0459143430757081
 31
0.0
210
0.0
220
0.0
230
1.0
 40
1.0
 41
4.7123889803846897
 42
7.853981633976904
  0
LINE
  5
22D
100
AcDbEntity
  8
Z0_LOWERTHIRD
370
        25
  6
Continuous
 62
         4
100
AcDbLine
 10
17.7856934269
 20
5.5449529585
 30
0.0
 11
17.4358476441
 21
5.3748473138
 31
0.0
  0
ELLIPSE
  5
22E
100
AcDbEntity
  8
Z0_LOWERTHIRD
370
        25
  6
Continuous
 62
         4
100
AcDbEllipse
 10
17.6633978348
 20
5.6852742888
 30
0.0
 11
0.0429280354244638
 21
-0.1056174900125321
 31
0.0
210
0.0
220
0.0
230
1.0
 40
1.0
 41
4.7123889803846897
 42
6.2728788861118732
  0
LINE
  5
22F
100
AcDbEntity
  8
Z0_LOWERTHIRD
370
        25
  6
Continuous
 62
         4
100
AcDbLine
 10
15.4089384303
 20
5.7094582841
 30
0.0
 11
15.9536159267
 21
5.9742970251
 31
0.0
  0
LINE
  5
230
100
AcDbEntity
  8
Z0_LOWERTHIRD
370
        25
  6
Continuous
 62
         4
100
AcDbLine
 10
16.0648576171
 20
4.3604697666
 30
0.0
 11
15.4089384303
 21
5.7094582841
 31
0.0
  0
ELLIPSE
  5
231
100
AcDbEntity
  8
Z0_LOWERTHIRD
370
        25
  6
Continuous
 62
         4
100
AcDbEllipse
 10
15.6024703938
 20
3.9271535123
 30
0.0
 11
0.035856915544909
 21
-0.0737447056243736
 31
0.0
210
0.0
220
0.0
230
1.0
 40
1.0
 41
0.0
 42
6.2831853071788117
  0
LINE
  5
232
100
AcDbEntity
  8
Z0_LOWERTHIRD
370
        25
  6
Continuous
 62
         4
100
AcDbLine
 10
15.6101624962
 20
3.8141395019
 30
0.0
 11
15.7023442775
 21
3.8589610836
 31
0.0
  0
ELLIPSE
  5
233
100
AcDbEntity
  8
Z0_LOWERTHIRD
370
        25
  6
Continuous
 62
         4
100
AcDbEllipse
 10
15.6564299345
 20
3.9533902798
 30
0.0
 11
0.0459143430760006
 21
-0.0944291962261117
 31
0.0
210
0.0
220
0.0
230
1.0
 40
1.0
 41
0.0
 42
3.1415926535891812
  0
ELLIPSE
  5
234
100
AcDbEntity
  8
Z0_LOWERTHIRD
370
        25
  6
Continuous
 62
         4
100
AcDbEllipse
 10
15.6024702618
 20
3.9271533505
 30
0.0
 11
-0.0133352882609137
 21
-0.105157742548092
 31
0.0
210
0.0
220
0.0
230
1.0
 40
1.0
 41
4.7123889803846897
 42
6.7244269763254625
  0
LINE
  5
235
100
AcDbEntity
  8
Z0_LOWERTHIRD
370
        25
  6
Continuous
 62
         4
100
AcDbLine
 10
17.6567341937
 20
4.9737469583
 30
0.0
 11
17.6398613102
 21
4.9881775867
 31
0.0
  0
LINE
  5
236
100
AcDbEntity
  8
Z0_LOWERTHIRD
370
        25
  6
Continuous
 62
         4
100
AcDbLine
 10
17.2242073206
 20
4.8797030334
 30
0.0
 11
17.2067161423
 21
4.9156760605
 31
0.0
  0
LINE
  5
237
100
AcDbEntity
  8
Z0_LOWERTHIRD
370
        25
  6
Continuous
 62
         4
100
AcDbLine
 10
17.2719120673
 20
4.8228329856
 30
0.0
 11
17.2524893646
 21
4.8347917803
 31
0.0
  0
LINE
  5
238
100
AcDbEntity
  8
Z0_LOWERTHIRD
370
        25
  6
Continuous
 62
         4
100
AcDbLine
 10
17.2911254709
 20
4.8039706606
 30
0.0
 11
17.2719120673
 21
4.8228329856
 31
0.0
  0
LINE
  5
239
100
AcDbEntity
  8
Z0_LOWERTHIRD
370
        25
  6
Continuous
 62
         4
100
AcDbLine
 10
17.3306190729
 20
4.6524757546
 30
0.0
 11
17.336824401
 21
4.6713593058
 31
0.0
  0
LINE
  5
23A
100
AcDbEntity
  8
Z0_LOWERTHIRD
370
        25
  6
Continuous
 62
         4
100
AcDbLine
 10
17.3194470698
 20
4.6404909
 30
0.0
 11
17.3306190729
 21
4.6524757546
 31
0.0
  0
LINE
  5
23B
100
AcDbEntity
  8
Z0_LOWERTHIRD
370
        25
  6
Continuous
 62
         4
100
AcDbLine
 10
17.3171603477
 20
4.6392411452
 30
0.0
 11
17.3194470698
 21
4.6404909
 31
0.0
  0
LINE
  5
23C
100
AcDbEntity
  8
Z0_LOWERTHIRD
370
        25
  6
Continuous
 62
         4
100
AcDbLine
 10
17.0605300702
 20
6.3735192704
 30
0.0
 11
16.97134754
 21
6.3301560157
 31
0.0
  0
ELLIPSE
  5
23D
100
AcDbEntity
  8
Z0_LOWERTHIRD
370
        25
  6
Continuous
 62
         4
100
AcDbEllipse
 10
17.3547233273
 20
6.2868015048
 30
0.0
 11
0.065381151991938
 21
-0.1206770656940279
 31
0.0
210
0.0
220
0.0
230
1.0
 40
1.0
 41
0.0
 42
1.2546078189172072
  0
ELLIPSE
  5
23E
100
AcDbEntity
  8
Z0_LOWERTHIRD
370
        25
  6
Continuous
 62
         4
100
AcDbEllipse
 10
17.3568201557
 20
6.2946133971
 30
0.0
 11
0.0475496469551695
 21
0.0239291724229934
 31
0.0
210
0.0
220
0.0
230
1.0
 40
1.0
 41
4.7123889803846897
 42
5.506864732996303
  0
LINE
  5
23F
100
AcDbEntity
  8
Z0_LOWERTHIRD
370
        25
  6
Continuous
 62
         4
100
AcDbLine
 10
17.66587992
 20
5.6601592927
 30
0.0
 11
17.6660741744
 21
5.660253745
 31
0.0
  0
LINE
  5
240
100
AcDbEntity
  8
Z0_LOWERTHIRD
370
        25
  6
Continuous
 62
         4
100
AcDbLine
 10
17.6278764861
 20
5.6764291261
 30
0.0
 11
17.4092367572
 21
6.1260919653
 31
0.0
  0
LINE
  5
241
100
AcDbEntity
  8
Z0_LOWERTHIRD
370
        25
  6
Continuous
 62
         4
100
AcDbLine
 10
17.5377914461
 20
4.5540411395
 30
0.0
 11
17.6078866882
 21
4.588123575
 31
0.0
  0
ELLIPSE
  5
242
100
AcDbEntity
  8
Z0_LOWERTHIRD
370
        25
  6
Continuous
 62
         4
100
AcDbEllipse
 10
17.513296328
 20
4.5400480618
 30
0.0
 11
0.0142481214026203
 21
-0.02434765023285
 31
0.0
210
0.0
220
0.0
230
1.0
 40
1.0
 41
0.0
 42
1.5603529641023015
  0
LINE
  5
243
100
AcDbEntity
  8
Z0_LOWERTHIRD
370
        25
  6
Continuous
 62
         4
100
AcDbLine
 10
17.5179468623
 20
5.2059989177
 30
0.0
 11
17.8115847902
 21
5.3487745962
 31
0.0
  0
LINE
  5
244
100
AcDbEntity
  8
Z0_LOWERTHIRD
370
        25
  6
Continuous
 62
         4
100
AcDbLine
 10
17.7052350712
 20
5.5792199816
 30
0.0
 11
17.4069871999
 21
5.4342028086
 31
0.0
  0
ELLIPSE
  5
245
100
AcDbEntity
  8
Z0_LOWERTHIRD
370
        25
  6
Continuous
 62
         4
100
AcDbEllipse
 10
15.6024703938
 20
3.9271535123
 30
0.0
 11
0.0297350031348174
 21
-0.0611541461274783
 31
0.0
210
0.0
220
0.0
230
1.0
 40
1.0
 41
0.0
 42
6.2831853071786838
  0
LINE
  5
246
100
AcDbEntity
  8
Z0_LOWERTHIRD
370
        25
  6
Continuous
 62
         4
100
AcDbLine
 10
17.892812261
 20
5.5001470163
 30
0.0
 11
17.8998671255
 21
5.4775033254
 31
0.0
  0
LINE
  5
247
100
AcDbEntity
  8
Z0_LOWERTHIRD
370
        25
  6
Continuous
 62
         4
100
AcDbLine
 10
17.8832279549
 20
5.5226027077
 30
0.0
 11
17.892812261
 21
5.5001470163
 31
0.0
  0
LINE
  5
248
100
AcDbEntity
  8
Z0_LOWERTHIRD
370
        25
  6
Continuous
 62
         4
100
AcDbLine
 10
17.8335999094
 20
5.3829043449
 30
0.0
 11
17.8353199137
 21
5.4010258363
 31
0.0
  0
LINE
  5
249
100
AcDbEntity
  8
Z0_LOWERTHIRD
370
        25
  6
Continuous
 62
         4
100
AcDbLine
 10
17.8289341478
 20
5.3677905301
 30
0.0
 11
17.8335999094
 21
5.3829043449
 31
0.0
  0
LINE
  5
24A
100
AcDbEntity
  8
Z0_LOWERTHIRD
370
        25
  6
Continuous
 62
         4
100
AcDbLine
 10
17.8227161196
 20
5.4660641435
 30
0.0
 11
17.8131327129
 21
5.4885202721
 31
0.0
  0
LINE
  5
24B
100
AcDbEntity
  8
Z0_LOWERTHIRD
370
        25
  6
Continuous
 62
         4
100
AcDbLine
 10
17.5202121569
 20
4.7684383735
 30
0.0
 11
17.6799557798
 21
4.8461105745
 31
0.0
  0
LINE
  5
24C
100
AcDbEntity
  8
Z0_LOWERTHIRD
370
        25
  6
Continuous
 62
         4
100
AcDbLine
 10
17.6524084524
 20
4.9814565593
 30
0.0
 11
17.6361096308
 21
4.9904186743
 31
0.0
  0
LINE
  5
24D
100
AcDbEntity
  8
Z0_LOWERTHIRD
370
        25
  6
Continuous
 62
         4
100
AcDbLine
 10
17.6946639739
 20
4.86999357
 30
0.0
 11
17.6976808693
 21
4.8883475732
 31
0.0
  0
LINE
  5
24E
100
AcDbEntity
  8
Z0_LOWERTHIRD
370
        25
  6
Continuous
 62
         4
100
AcDbLine
 10
17.8816809316
 20
5.382857469
 30
0.0
 11
17.8115847902
 21
5.3487745962
 31
0.0
  0
LINE
  5
24F
100
AcDbEntity
  8
Z0_LOWERTHIRD
370
        25
  6
Continuous
 62
         4
100
AcDbLine
 10
16.992239382
 20
6.4532933574
 30
0.0
 11
17.2605343123
 21
6.5837465007
 31
0.0
  0
LINE
  5
250
100
AcDbEntity
  8
Z0_LOWERTHIRD
370
        25
  6
Continuous
 62
         4
100
AcDbLine
 10
16.992239382
 20
6.4532933574
 30
0.0
 11
17.4297068274
 21
6.3333318404
 31
0.0
  0
LINE
  5
251
100
AcDbEntity
  8
Z0_LOWERTHIRD
370
        25
  6
Continuous
 62
         4
100
AcDbLine
 10
17.4297068274
 20
6.3333318404
 30
0.0
 11
17.6980017577
 21
6.4637849838
 31
0.0
  0
LINE
  5
252
100
AcDbEntity
  8
Z0_LOWERTHIRD
370
        25
  6
Continuous
 62
         4
100
AcDbLine
 10
17.6980017577
 20
6.4637849838
 30
0.0
 11
17.2605343123
 21
6.5837465007
 31
0.0
  0
LINE
  5
253
100
AcDbEntity
  8
Z0_LOWERTHIRD
370
        25
  6
Continuous
 62
         4
100
AcDbLine
 10
17.5577803448
 20
5.6423462534
 30
0.0
 11
17.3391406158
 21
6.0920090925
 31
0.0
  0
LINE
  5
254
100
AcDbEntity
  8
Z0_LOWERTHIRD
370
        25
  6
Continuous
 62
         4
100
AcDbLine
 10
17.5131028777
 20
5.1758450195
 30
0.0
 11
16.9446395825
 21
6.3449684014
 31
0.0
  0
LINE
  5
255
100
AcDbEntity
  8
Z0_LOWERTHIRD
370
        25
  6
Continuous
 62
         4
100
AcDbLine
 10
17.5288788488
 20
5.1835157758
 30
0.0
 11
16.9604155535
 21
6.3526391576
 31
0.0
  0
LINE
  5
256
100
AcDbEntity
  8
Z0_LOWERTHIRD
370
        25
  6
Continuous
 62
         4
100
AcDbLine
 10
17.5288788488
 20
5.1835157758
 30
0.0
 11
17.5131028777
 21
5.1758450195
 31
0.0
  0
LINE
  5
257
100
AcDbEntity
  8
Z0_LOWERTHIRD
370
        25
  6
Continuous
 62
         4
100
AcDbLine
 10
17.5568876409
 20
5.1526567319
 30
0.0
 11
17.5831244084
 21
5.0986971912
 31
0.0
  0
LINE
  5
258
100
AcDbEntity
  8
Z0_LOWERTHIRD
370
        25
  6
Continuous
 62
         4
100
AcDbLine
 10
17.5462063799
 20
4.597050784
 30
0.0
 11
17.4994765183
 21
4.574329306
 31
0.0
  0
ELLIPSE
  5
259
100
AcDbEntity
  8
Z0_LOWERTHIRD
370
        25
  6
Continuous
 62
         4
100
AcDbEllipse
 10
17.5997742634
 20
4.898303313
 30
0.0
 11
0.0099557398141613
 21
0.0979066058744082
 31
0.0
210
0.0
220
0.0
230
1.0
 40
1.0
 41
4.7123889803846897
 42
5.8202072137221812
  0
LINE
  5
25A
100
AcDbEntity
  8
Z0_LOWERTHIRD
370
        25
  6
Continuous
 62
         4
100
AcDbLine
 10
17.6722377908
 20
4.9534766648
 30
0.0
 11
17.6567341937
 21
4.9737469583
 31
0.0
  0
LINE
  5
25B
100
AcDbEntity
  8
Z0_LOWERTHIRD
370
        25
  6
Continuous
 62
         4
100
AcDbLine
 10
17.6846915457
 20
4.9295629377
 30
0.0
 11
17.6722377908
 21
4.9534766648
 31
0.0
  0
LINE
  5
25C
100
AcDbEntity
  8
Z0_LOWERTHIRD
370
        25
  6
Continuous
 62
         4
100
AcDbLine
 10
17.7052350712
 20
5.5792199816
 30
0.0
 11
17.7054293256
 21
5.579314434
 31
0.0
  0
LINE
  5
25D
100
AcDbEntity
  8
Z0_LOWERTHIRD
370
        25
  6
Continuous
 62
         4
100
AcDbLine
 10
17.8115847902
 20
5.3487745962
 30
0.0
 11
17.821499923
 21
5.3562665249
 31
0.0
  0
LINE
  5
25E
100
AcDbEntity
  8
Z0_LOWERTHIRD
370
        25
  6
Continuous
 62
         4
100
AcDbLine
 10
17.8915960643
 20
5.3903493977
 30
0.0
 11
17.8816809316
 21
5.382857469
 31
0.0
  0
LINE
  5
25F
100
AcDbEntity
  8
Z0_LOWERTHIRD
370
        25
  6
Continuous
 62
         4
100
AcDbLine
 10
17.6846810159
 20
4.8492721085
 30
0.0
 11
17.6927416321
 21
4.8621514715
 31
0.0
  0
LINE
  5
260
100
AcDbEntity
  8
Z0_LOWERTHIRD
370
        25
  6
Continuous
 62
         4
100
AcDbLine
 10
17.6799557798
 20
4.8461105745
 30
0.0
 11
17.6846810159
 21
4.8492721085
 31
0.0
  0
LINE
  5
261
100
AcDbEntity
  8
Z0_LOWERTHIRD
370
        25
  6
Continuous
 62
         4
100
AcDbLine
 10
17.8131327129
 20
5.4885202721
 30
0.0
 11
17.7856934269
 21
5.5449529585
 31
0.0
  0
LINE
  5
262
100
AcDbEntity
  8
Z0_LOWERTHIRD
370
        25
  6
Continuous
 62
         4
100
AcDbLine
 10
17.8131327129
 20
5.4885202721
 30
0.0
 11
17.8832279549
 21
5.5226027077
 31
0.0
  0
LINE
  5
263
100
AcDbEntity
  8
Z0_LOWERTHIRD
370
        25
  6
Continuous
 62
         4
100
AcDbLine
 10
17.8832279549
 20
5.5226027077
 30
0.0
 11
17.8557886689
 21
5.579035394
 31
0.0
  0
ELLIPSE
  5
264
100
AcDbEntity
  8
Z0_LOWERTHIRD
370
        25
  6
Continuous
 62
         4
100
AcDbEllipse
 10
17.7199026101
 20
5.5238071124
 30
0.0
 11
0.1358860587985397
 21
0.0552282816073821
 31
0.0
210
0.0
220
0.0
230
1.0
 40
1.0
 41
0.0
 42
1.5605160075387032
  0
ELLIPSE
  5
265
100
AcDbEntity
  8
Z0_LOWERTHIRD
370
        25
  6
Continuous
 62
         4
100
AcDbEllipse
 10
17.6550969649
 20
5.6874917737
 30
0.0
 11
-0.0272204788297774
 21
-0.0110626475322219
 31
0.0
210
0.0
220
0.0
230
1.0
 40
1.0
 41
0.0
 42
1.5605424369653842
  0
ELLIPSE
  5
266
100
AcDbEntity
  8
Z0_LOWERTHIRD
370
        25
  6
Continuous
 62
         4
100
AcDbEllipse
 10
17.5099180214
 20
4.5321480525
 30
0.0
 11
0.0973869519732876
 21
0.0569815792038592
 31
0.0
210
0.0
220
0.0
230
1.0
 40
1.0
 41
4.7123889803846897
 42
6.2728856517227216
  0
ARC
  5
267
100
AcDbEntity
  8
Z0_LOWERTHIRD
370
        25
  6
Continuous
 62
         4
100
AcDbCircle
 10
15.1556228253
 20
3.7126625141
 30
0.0
 40
0.25
100
AcDbArc
 50
-154.0695717414
 51
-64.0695717413
  0
ARC
  5
268
100
AcDbEntity
  8
Z0_LOWERTHIRD
370
        25
  6
Continuous
 62
         4
100
AcDbCircle
 10
15.2719677697
 20
3.7664542109
 30
0.0
 40
0.250001
100
AcDbArc
 50
-154.0693425587
 51
-64.0695717413
  0
ELLIPSE
  5
269
100
AcDbEntity
  8
Z0_LOWERTHIRD
370
        25
  6
Continuous
 62
         4
100
AcDbEllipse
 10
15.5642481531
 20
3.9085686981
 30
0.0
 11
-0.0944291962260877
 21
-0.0459143430759923
 31
0.0
210
0.0
220
0.0
230
1.0
 40
1.0
 41
4.7123889803846897
 42
7.8539816339715891
  0
CIRCLE
  5
26A
100
AcDbEntity
  8
Z0_LOWERTHIRD
370
        25
  6
Continuous
 62
         4
100
AcDbCircle
 10
16.9787888774
 20
4.5268648442
 30
0.0
 40
0.068
  0
LINE
  5
26B
100
AcDbEntity
  8
Z0_LOWERTHIRD
370
        25
  6
Continuous
 62
         4
100
AcDbLine
 10
16.979169128
 20
6.3958299102
 30
0.0
 11
16.992239382
 21
6.4532933574
 31
0.0
  0
LINE
  5
26C
100
AcDbEntity
  8
Z0_LOWERTHIRD
370
        25
  6
Continuous
 62
         4
100
AcDbLine
 10
17.4166365735
 20
6.2758683933
 30
0.0
 11
17.6849315038
 21
6.4063215366
 31
0.0
  0
ELLIPSE
  5
26D
100
AcDbEntity
  8
Z0_LOWERTHIRD
370
        25
  6
Continuous
 62
         4
100
AcDbEllipse
 10
17.4347483188
 20
6.1406692374
 30
0.0
 11
-0.0253607493652499
 21
-0.0148380938725311
 31
0.0
210
0.0
220
0.0
230
1.0
 40
1.0
 41
4.7123889803846897
 42
6.2729314173688797
  0
LINE
  5
26E
100
AcDbEntity
  8
Z0_LOWERTHIRD
370
        25
  6
Continuous
 62
         4
100
AcDbLine
 10
17.419910225
 20
6.1660299867
 30
0.0
 11
17.4201044793
 21
6.1661244391
 31
0.0
  0
LINE
  5
26F
100
AcDbEntity
  8
Z0_LOWERTHIRD
370
        25
  6
Continuous
 62
         4
100
AcDbLine
 10
17.5668996006
 20
4.4347611005
 30
0.0
 11
17.5275444494
 21
4.5157004116
 31
0.0
  0
LINE
  5
270
100
AcDbEntity
  8
Z0_LOWERTHIRD
370
        25
  6
Continuous
 62
         4
100
AcDbLine
 10
17.6980017577
 20
6.4637849838
 30
0.0
 11
17.6849315038
 21
6.4063215366
 31
0.0
  0
LINE
  5
271
100
AcDbEntity
  8
Z0_LOWERTHIRD
370
        25
  6
Continuous
 62
         4
100
AcDbLine
 10
16.6823462857
 20
4.7719059339
 30
0.0
 11
17.5131028777
 21
5.1758450195
 31
0.0
  0
LINE
  5
272
100
AcDbEntity
  8
Z0_LOWERTHIRD
370
        25
  6
Continuous
 62
         4
100
AcDbLine
 10
17.1742876842
 20
4.4106528976
 30
0.0
 11
16.6706653043
 21
4.1657764012
 31
0.0
  0
LINE
  5
273
100
AcDbEntity
  8
Z0_LOWERTHIRD
370
        25
  6
Continuous
 62
         4
100
AcDbLine
 10
17.8297718835
 20
5.4434208899
 30
0.0
 11
17.8227161196
 21
5.4660641435
 31
0.0
  0
ELLIPSE
  5
274
100
AcDbEntity
  8
Z0_LOWERTHIRD
370
        25
  6
Continuous
 62
         4
100
AcDbEllipse
 10
17.7282034531
 20
5.5215877628
 30
0.0
 11
0.0574899737640028
 21
0.0233651956511075
 31
0.0
210
0.0
220
0.0
230
1.0
 40
1.0
 41
0.0
 42
1.5605363007633457
  0
LINE
  5
275
100
AcDbEntity
  8
Z0_LOWERTHIRD
370
        25
  6
Continuous
 62
         4
100
AcDbLine
 10
9.1052355742
 20
2.5721301333
 30
0.0
 11
9.1051735208
 21
2.572099961
 31
0.0
  0
ELLIPSE
  5
276
100
AcDbEntity
  8
Z0_LOWERTHIRD
370
        25
  6
Continuous
 62
         4
100
AcDbEllipse
 10
9.2248588655
 20
2.5306199339
 30
0.0
 11
-0.0934485772534098
 21
-0.0124795136073484
 31
0.0
210
0.0
220
0.0
230
1.0
 40
1.0
 41
0.0
 42
0.4232020149237724
  0
LINE
  5
277
100
AcDbEntity
  8
Z0_LOWERTHIRD
370
        25
  6
Continuous
 62
         4
100
AcDbLine
 10
9.1447795646
 20
2.4808637241
 30
0.0
 11
9.1389159612
 21
2.4780126621
 31
0.0
  0
LINE
  5
278
100
AcDbEntity
  8
Z0_LOWERTHIRD
370
        25
  6
Continuous
 62
         4
100
AcDbLine
 10
9.088019882
 20
2.6075365853
 30
0.0
 11
9.1314723417
 21
2.5181705926
 31
0.0
  0
LINE
  5
279
100
AcDbEntity
  8
Z0_LOWERTHIRD
370
        25
  6
Continuous
 62
         4
100
AcDbLine
 10
11.3424384425
 20
3.84960156
 30
0.0
 11
11.2707945761
 21
3.9969470791
 31
0.0
  0
CIRCLE
  5
27A
100
AcDbEntity
  8
Z0_LOWERTHIRD
370
        25
  6
Continuous
 62
         4
100
AcDbCircle
 10
11.265619849
 20
3.9033404982
 30
0.0
 40
0.09375
  0
LINE
  5
27B
100
AcDbEntity
  8
Z0_LOWERTHIRD
370
        25
  6
Continuous
 62
         4
100
AcDbLine
 10
9.088019882
 20
2.6075365853
 30
0.0
 11
8.9959157098
 21
2.7969615529
 31
0.0
  0
ELLIPSE
  5
27C
100
AcDbEntity
  8
Z0_LOWERTHIRD
370
        25
  6
Continuous
 62
         5
100
AcDbEllipse
 10
11.265619849
 20
3.9033404982
 30
0.0
 11
0.0038159459205929
 21
0.0623901643063067
 31
0.0
210
0.0
220
0.0
230
1.0
 40
1.0
 41
4.7123889803846897
 42
10.995574287564276
  0
ELLIPSE
  5
27D
100
AcDbEntity
  8
Z0_LOWERTHIRD
370
        25
  6
Continuous
 62
         5
100
AcDbEllipse
 10
10.2868674758
 20
1.3425459356
 30
0.0
 11
0.0038159459205929
 21
0.0623901643063067
 31
0.0
210
0.0
220
0.0
230
1.0
 40
1.0
 41
4.7123889803846897
 42
10.99557428756366
  0
ELLIPSE
  5
27E
100
AcDbEntity
  8
Z0_LOWERTHIRD
370
        25
  6
Continuous
 62
         5
100
AcDbEllipse
 10
12.0855188324
 20
2.2171048513
 30
0.0
 11
0.0038159459205929
 21
0.0623901643063067
 31
0.0
210
0.0
220
0.0
230
1.0
 40
1.0
 41
4.7123889803846897
 42
10.995574287564276
  0
CIRCLE
  5
27F
100
AcDbEntity
  8
Z0_LOWERTHIRD
370
        25
  6
Continuous
 62
         5
100
AcDbCircle
 10
12.9044933587
 20
2.6153151387
 30
0.0
 40
0.085
  0
CIRCLE
  5
280
100
AcDbEntity
  8
Z0_LOWERTHIRD
370
        25
  6
Continuous
 62
         5
100
AcDbCircle
 10
12.0845943752
 20
4.3015507856
 30
0.0
 40
0.085
  0
CIRCLE
  5
281
100
AcDbEntity
  8
Z0_LOWERTHIRD
370
        25
  6
Continuous
 62
         2
100
AcDbCircle
 10
17.9502455282
 20
4.6395146279
 30
0.0
 40
0.215
  0
CIRCLE
  5
282
100
AcDbEntity
  8
Z0_LOWERTHIRD
370
        25
  6
Continuous
 62
         5
100
AcDbCircle
 10
17.9502455282
 20
4.6395146279
 30
0.0
 40
0.0445
  0
CIRCLE
  5
283
100
AcDbEntity
  8
Z0_LOWERTHIRD
370
        25
  6
Continuous
 62
         2
100
AcDbCircle
 10
17.9502455282
 20
4.6395146279
 30
0.0
 40
0.4
  0
CIRCLE
  5
284
100
AcDbEntity
  8
Z0_LOWERTHIRD
370
        25
  6
Continuous
 62
         6
100
AcDbCircle
 10
17.9502455282
 20
4.6395146279
 30
0.0
 40
0.35
  0
CIRCLE
  5
285
100
AcDbEntity
  8
Z0_LOWERTHIRD
370
        25
  6
Continuous
 62
         5
100
AcDbCircle
 10
17.9502455282
 20
4.6395146279
 30
0.0
 40
0.0445
  0
LINE
  5
286
100
AcDbEntity
  8
Z0_LOWERTHIRD
370
        25
  6
Continuous
 62
         5
100
AcDbLine
 10
16.0284984492
 20
4.325699529
 30
0.0
 11
17.9253249019
 21
5.2389611411
 31
0.0
  0
ARC
  5
287
100
AcDbEntity
  8
Z0_LOWERTHIRD
370
        25
  6
Continuous
 62
         5
100
AcDbCircle
 10
17.3434510845
 20
6.4475016416
 30
0.0
 40
0.1875
100
AcDbArc
 50
25.7093359521
 51
115.7093361451
  0
ARC
  5
288
100
AcDbEntity
  8
Z0_LOWERTHIRD
370
        25
  6
Continuous
 62
         5
100
AcDbCircle
 10
15.9471598426
 20
4.4946382192
 30
0.0
 40
0.1875
100
AcDbArc
 50
-154.2906638102
 51
-64.290664126
  0
LINE
  5
289
100
AcDbEntity
  8
Z0_LOWERTHIRD
370
        25
  6
Continuous
 62
         5
100
AcDbLine
 10
17.2621124771
 20
6.6164403315
 30
0.0
 11
15.3652860242
 21
5.7031787085
 31
0.0
  0
ARC
  5
28A
100
AcDbEntity
  8
Z0_LOWERTHIRD
370
        25
  6
Continuous
 62
         5
100
AcDbCircle
 10
15.4466246316
 20
5.5342400186
 30
0.0
 40
0.1875
100
AcDbArc
 50
115.7093361451
 51
-154.2906638102
  0
LINE
  5
28B
100
AcDbEntity
  8
Z0_LOWERTHIRD
370
        25
  6
Continuous
 62
         5
100
AcDbLine
 10
15.2776859418
 20
5.4529014111
 30
0.0
 11
15.7782211527
 21
4.4132996117
 31
0.0
  0
LINE
  5
28C
100
AcDbEntity
  8
Z0_LOWERTHIRD
370
        25
  6
Continuous
 62
         5
100
AcDbLine
 10
18.0129249855
 20
5.4892384382
 30
0.0
 11
17.5123897747
 21
6.5288402484
 31
0.0
  0
ARC
  5
28D
100
AcDbEntity
  8
Z0_LOWERTHIRD
370
        25
  6
Continuous
 62
         5
100
AcDbCircle
 10
17.8439862953
 20
5.4078998314
 30
0.0
 40
0.1875
100
AcDbArc
 50
-64.290664126
 51
25.709335952
  0
CIRCLE
  5
28E
100
AcDbEntity
  8
Z0_LOWERTHIRD
370
        25
  6
Continuous
 62
         4
100
AcDbCircle
 10
10.2868674758
 20
1.3425459356
 30
0.0
 40
0.09375
  0
ELLIPSE
  5
28F
100
AcDbEntity
  8
Z0_LOWERTHIRD
370
        25
  6
Continuous
 62
         4
100
AcDbEllipse
 10
10.6299546535
 20
2.5518136138
 30
0.0
 11
-0.054828940671599
 21
-0.0300298253243619
 31
0.0
210
0.0
220
0.0
230
1.0
 40
1.0
 41
4.7123889803846897
 42
7.7569726033719988
  0
ELLIPSE
  5
290
100
AcDbEntity
  8
Z0_LOWERTHIRD
370
        25
  6
Continuous
 62
         4
100
AcDbEllipse
 10
12.0845943752
 20
4.3015507856
 30
0.0
 11
0.0737447056242053
 21
0.0358569155449723
 31
0.0
210
0.0
220
0.0
230
1.0
 40
1.0
 41
4.7123889803846897
 42
10.995574287564276
  0
ELLIPSE
  5
291
100
AcDbEntity
  8
Z0_LOWERTHIRD
370
        25
  6
Continuous
 62
         4
100
AcDbEllipse
 10
12.0845943752
 20
4.3015507856
 30
0.0
 11
0.0297350031349496
 21
-0.0611541461274201
 31
0.0
210
0.0
220
0.0
230
1.0
 40
1.0
 41
0.0
 42
6.2831853071795862
  0
CIRCLE
  5
292
100
AcDbEntity
  8
Z0_LOWERTHIRD
370
        25
  6
Continuous
 62
         4
100
AcDbCircle
 10
12.0845943752
 20
4.3015507856
 30
0.0
 40
0.106
  0
CIRCLE
  5
293
100
AcDbEntity
  8
Z0_LOWERTHIRD
370
        25
  6
Continuous
 62
         4
100
AcDbCircle
 10
12.0845943752
 20
4.3015507856
 30
0.0
 40
0.1065
  0
CIRCLE
  5
294
100
AcDbEntity
  8
Z0_LOWERTHIRD
370
        25
  6
Continuous
 62
         4
100
AcDbCircle
 10
12.9044933587
 20
2.6153151387
 30
0.0
 40
0.1065
  0
ELLIPSE
  5
295
100
AcDbEntity
  8
Z0_LOWERTHIRD
370
        25
  6
Continuous
 62
         4
100
AcDbEllipse
 10
9.2207457389
 20
2.906281898
 30
0.0
 11
-0.1093184739735875
 21
0.2248309389115093
 31
0.0
210
0.0
220
0.0
230
1.0
 40
1.0
 41
0.0
 42
1.5708046493641128
  0
LINE
  5
296
100
AcDbEntity
  8
Z0_LOWERTHIRD
370
        25
  6
Continuous
 62
         4
100
AcDbLine
 10
9.1314723417
 20
2.5181705926
 30
0.0
 11
9.1314102882
 21
2.5181404203
 31
0.0
  0
ELLIPSE
  5
297
100
AcDbEntity
  8
Z0_LOWERTHIRD
370
        25
  6
Continuous
 62
         4
100
AcDbEllipse
 10
9.8747163988
 20
1.5061073904
 30
0.0
 11
-0.223632499860484
 21
-0.0814389223645821
 31
0.0
210
0.0
220
0.0
230
1.0
 40
1.0
 41
0.0
 42
0.4231285735068679
  0
LINE
  5
298
100
AcDbEntity
  8
Z0_LOWERTHIRD
370
        25
  6
Continuous
 62
         4
100
AcDbLine
 10
9.7215241238
 20
1.304647502
 30
0.0
 11
9.678071664
 21
1.3940134947
 31
0.0
  0
CIRCLE
  5
299
100
AcDbEntity
  8
Z0_LOWERTHIRD
370
        25
  6
Continuous
 62
         4
100
AcDbCircle
 10
9.4669684923
 20
3.0287815825
 30
0.0
 40
0.09375
  0
LINE
  5
29A
100
AcDbEntity
  8
Z0_LOWERTHIRD
370
        25
  6
Continuous
 62
         4
100
AcDbLine
 10
9.651083899
 20
1.424668468
 30
0.0
 11
9.1389159612
 21
2.4780126621
 31
0.0
  0
LINE
  5
29B
100
AcDbEntity
  8
Z0_LOWERTHIRD
370
        25
  6
Continuous
 62
         4
100
AcDbLine
 10
9.6569475024
 20
1.4275195301
 30
0.0
 11
9.1447795646
 21
2.4808637241
 31
0.0
  0
ELLIPSE
  5
29C
100
AcDbEntity
  8
Z0_LOWERTHIRD
370
        25
  6
Continuous
 62
         4
100
AcDbEllipse
 10
9.7455362649
 20
1.4597748553
 30
0.0
 11
-0.0885887625332403
 21
-0.032255325197024
 31
0.0
210
0.0
220
0.0
230
1.0
 40
1.0
 41
0.0
 42
0.423202014917831
  0
LINE
  5
29D
100
AcDbEntity
  8
Z0_LOWERTHIRD
370
        25
  6
Continuous
 62
         4
100
AcDbLine
 10
9.678071664
 20
1.3940134947
 30
0.0
 11
9.6780096106
 21
1.3939833224
 31
0.0
  0
LINE
  5
29E
100
AcDbEntity
  8
Z0_LOWERTHIRD
370
        25
  6
Continuous
 62
         4
100
AcDbLine
 10
9.7043084315
 20
1.340053954
 30
0.0
 11
9.704246378
 21
1.3400237817
 31
0.0
  0
LINE
  5
29F
100
AcDbEntity
  8
Z0_LOWERTHIRD
370
        25
  6
Continuous
 62
         4
100
AcDbLine
 10
9.6780096106
 20
1.3939833224
 30
0.0
 11
9.704246378
 21
1.3400237817
 31
0.0
  0
ELLIPSE
  5
2A0
100
AcDbEntity
  8
Z0_LOWERTHIRD
370
        25
  6
Continuous
 62
         4
100
AcDbEllipse
 10
9.3410782284
 20
2.6036080871
 30
0.0
 11
0.0315081260600731
 21
-0.2359047075874064
 31
0.0
210
0.0
220
0.0
230
1.0
 40
1.0
 41
4.7123889803846897
 42
5.1355175538951636
  0
LINE
  5
2A1
100
AcDbEntity
  8
Z0_LOWERTHIRD
370
        25
  6
Continuous
 62
         4
100
AcDbLine
 10
9.6569475024
 20
1.4275195301
 30
0.0
 11
9.651083899
 21
1.424668468
 31
0.0
  0
LINE
  5
2A2
100
AcDbEntity
  8
Z0_LOWERTHIRD
370
        25
  6
Continuous
 62
         4
100
AcDbLine
 10
9.7215241238
 20
1.304647502
 30
0.0
 11
9.813628296
 21
1.1152225344
 31
0.0
  0
LINE
  5
2A3
100
AcDbEntity
  8
Z0_LOWERTHIRD
370
        25
  6
Continuous
 62
         4
100
AcDbLine
 10
12.162337426
 20
2.1633659131
 30
0.0
 11
12.0906935596
 21
2.3107114322
 31
0.0
  0
CIRCLE
  5
2A4
100
AcDbEntity
  8
Z0_LOWERTHIRD
370
        25
  6
Continuous
 62
         4
100
AcDbCircle
 10
12.0855188324
 20
2.2171048513
 30
0.0
 40
0.09375
  0
ELLIPSE
  5
2A5
100
AcDbEntity
  8
Z0_LOWERTHIRD
370
        25
  6
Continuous
 62
         4
100
AcDbEllipse
 10
12.9044933587
 20
2.6153151387
 30
0.0
 11
0.0611541461273896
 21
0.029735003134855
 31
0.0
210
0.0
220
0.0
230
1.0
 40
1.0
 41
4.7123889803846897
 42
10.995574287564276
  0
LINE
  5
2A6
100
AcDbEntity
  8
Z0_LOWERTHIRD
370
        25
  6
Continuous
 62
         4
100
AcDbLine
 10
9.1314102882
 20
2.5181404203
 30
0.0
 11
9.1051735208
 21
2.572099961
 31
0.0
  0
ELLIPSE
  5
2A7
100
AcDbEntity
  8
Z0_LOWERTHIRD
370
        25
  6
Continuous
 62
         4
100
AcDbEllipse
 10
12.9044933587
 20
2.6153151387
 30
0.0
 11
0.0463516225336538
 21
-0.0953285219045402
 31
0.0
210
0.0
220
0.0
230
1.0
 40
1.0
 41
0.0
 42
6.2831853071794805
  0
LINE
  5
2A8
100
AcDbEntity
  8
Z0_LOWERTHIRD
370
        25
  6
Continuous
 62
         4
100
AcDbLine
 10
14.5241798287
 20
4.7326644676
 30
0.0
 11
10.5999248281
 21
2.6066425545
 31
0.0
  0
LINE
  5
2A9
100
AcDbEntity
  8
Z0_LOWERTHIRD
370
        25
  6
Continuous
 62
         4
100
AcDbLine
 10
9.678071664
 20
1.3940134947
 30
0.0
 11
14.7367786047
 21
3.8537104452
 31
0.0
  0
LINE
  5
2AA
100
AcDbEntity
  8
Z0_LOWERTHIRD
370
        25
  6
Continuous
 62
         4
100
AcDbLine
 10
10.14777958
 20
0.9997109793
 30
0.0
 11
14.7568236816
 21
3.2407682008
 31
0.0
  0
LINE
  5
2AB
100
AcDbEntity
  8
Z0_LOWERTHIRD
370
        25
  6
Continuous
 62
         4
100
AcDbLine
 10
9.1114272649
 20
3.1311128369
 30
0.0
 11
13.7204713664
 21
5.3721700585
 31
0.0
  0
LINE
  5
2AC
100
AcDbEntity
  8
Z0_LOWERTHIRD
370
        25
  6
Continuous
 62
         4
100
AcDbLine
 10
9.1314723417
 20
2.5181705926
 30
0.0
 11
14.1901792824
 21
4.9778675431
 31
0.0
  0
LINE
  5
2AD
100
AcDbEntity
  8
Z0_LOWERTHIRD
370
        25
  6
Continuous
 62
         4
100
AcDbLine
 10
9.7215241238
 20
1.304647502
 30
0.0
 11
14.7802310645
 21
3.7643444525
 31
0.0
  0
ELLIPSE
  5
2AE
100
AcDbEntity
  8
Z0_LOWERTHIRD
370
        25
  6
Continuous
 62
         4
100
AcDbEllipse
 10
14.7155008449
 20
5.3093208027
 30
0.0
 11
1.2800968223243594
 21
0.5761582900227176
 31
0.0
210
0.0
220
0.0
230
1.0
 40
0.9999999999
 41
0.0
 42
0.0227129262244378
  0
ELLIPSE
  5
2AF
100
AcDbEntity
  8
Z0_LOWERTHIRD
370
        25
  6
Continuous
 62
         4
100
AcDbEllipse
 10
14.7693866409
 20
5.3355217132
 30
0.0
 11
1.2800968223280487
 21
0.5761582900243712
 31
0.0
210
0.0
220
0.0
230
1.0
 40
0.9999999999
 41
0.0
 42
0.0227129262243028
  0
LINE
  5
2B0
100
AcDbEntity
  8
Z0_LOWERTHIRD
370
        25
  6
Continuous
 62
         4
100
AcDbLine
 10
14.3811024274
 20
5.0269229303
 30
0.0
 11
9.1447795646
 21
2.4808637241
 31
0.0
  0
LINE
  5
2B1
100
AcDbEntity
  8
Z0_LOWERTHIRD
370
        25
  6
Continuous
 62
         4
100
AcDbLine
 10
9.088019882
 20
2.6075365853
 30
0.0
 11
14.1467268227
 21
5.0672335357
 31
0.0
  0
LINE
  5
2B2
100
AcDbEntity
  8
Z0_LOWERTHIRD
370
        25
  6
Continuous
 62
         4
100
AcDbLine
 10
10.6545327241
 20
2.4943338645
 30
0.0
 11
14.7501929639
 21
4.2678371989
 31
0.0
  0
LINE
  5
2B3
100
AcDbEntity
  8
Z0_LOWERTHIRD
370
        25
  6
Continuous
 62
         4
100
AcDbLine
 10
14.8932703652
 20
3.9735787362
 30
0.0
 11
9.6569475024
 21
1.4275195301
 31
0.0
  0
ELLIPSE
  5
2B4
100
AcDbEntity
  8
Z0_LOWERTHIRD
370
        25
  6
Continuous
 62
         5
100
AcDbEllipse
 10
13.0642712056
 20
4.7778994139
 30
0.0
 11
0.0623901643063505
 21
-0.0038159459207918
 31
0.0
210
0.0
220
0.0
230
1.0
 40
1.0
 41
0.0
 42
6.2831853071790187
  0
CIRCLE
  5
2B5
100
AcDbEntity
  8
Z0_LOWERTHIRD
370
        25
  6
Continuous
 62
         4
100
AcDbCircle
 10
13.0642712056
 20
4.7778994139
 30
0.0
 40
0.09375
  0
ARC
  5
2B6
100
AcDbEntity
  8
Z0_LOWERTHIRD
370
        25
  6
Continuous
 62
         5
100
AcDbCircle
 10
10.3970515979
 20
1.8637921119
 30
0.0
 40
0.25
100
AcDbArc
 50
-140.1104261263
 51
-64.2907837355
  0
ARC
  5
2B7
100
AcDbEntity
  8
Z0_LOWERTHIRD
370
        25
  6
Continuous
 62
         5
100
AcDbCircle
 10
9.7176087997
 20
2.6766971352
 30
0.0
 40
0.25
100
AcDbArc
 50
115.7092162645
 51
-140.1104261263
  0
LINE
  5
2B8
100
AcDbEntity
  8
Z0_LOWERTHIRD
370
        25
  6
Continuous
 62
         5
100
AcDbLine
 10
10.5055026031
 20
1.6385402984
 30
0.0
 11
12.2932569839
 21
2.4992825795
 31
0.0
  0
LINE
  5
2B9
100
AcDbEntity
  8
Z0_LOWERTHIRD
370
        25
  6
Continuous
 62
         5
100
AcDbLine
 10
10.2052311319
 20
1.7034646069
 30
0.0
 11
9.5257883337
 21
2.5163696303
 31
0.0
  0
LINE
  5
2BA
100
AcDbEntity
  8
Z0_LOWERTHIRD
370
        25
  6
Continuous
 62
         5
100
AcDbLine
 10
11.6307608773
 20
3.8752813413
 30
0.0
 11
9.6091577945
 21
2.9019489487
 31
0.0
  0
ARC
  5
2BB
100
AcDbEntity
  8
Z0_LOWERTHIRD
370
        25
  6
Continuous
 62
         5
100
AcDbCircle
 10
12.1848059787
 20
2.7245343929
 30
0.0
 40
0.25
100
AcDbArc
 50
-64.2907837355
 51
25.709216376
  0
LINE
  5
2BC
100
AcDbEntity
  8
Z0_LOWERTHIRD
370
        25
  6
Continuous
 62
         5
100
AcDbLine
 10
12.4100577919
 20
2.8329853986
 30
0.0
 11
11.9644636957
 21
3.7584805335
 31
0.0
  0
ARC
  5
2BD
100
AcDbEntity
  8
Z0_LOWERTHIRD
370
        25
  6
Continuous
 62
         5
100
AcDbCircle
 10
11.7392118825
 20
3.6500295278
 30
0.0
 40
0.25
100
AcDbArc
 50
25.709216376
 51
115.7092162644
  0
ARC
  5
2BE
100
AcDbEntity
  8
Z0_LOWERTHIRD
370
        25
  6
Continuous
 62
         4
100
AcDbCircle
 10
10.0384590763
 20
1.2245405495
 30
0.0
 40
0.2499986164
100
AcDbArc
 50
-154.0698888451
 51
-64.0692546375
  0
ELLIPSE
  5
2BF
100
AcDbEntity
  8
Z0_LOWERTHIRD
370
        25
  6
Continuous
 62
         4
100
AcDbEllipse
 10
12.9044933587
 20
2.6153151387
 30
0.0
 11
0.0358569155450823
 21
-0.0737447056242218
 31
0.0
210
0.0
220
0.0
230
1.0
 40
1.0
 41
0.0
 42
6.2831853071795862
  0
ENDSEC
  0
SECTION
  2
OBJECTS
  0
DICTIONARY
  5
19
100
AcDbDictionary
280
         0
281
         1
  3
ACAD_GROUP
350
1A
  3
ACAD_MLINESTYLE
350
1B
  3
ACAD_LAYOUT
350
1E
  3
ACAD_PLOTSETTINGS
350
22
  3
ACAD_PLOTSTYLENAME
350
1F
  3
ACAD_WIPEOUT_VARS
350
23
  0
DICTIONARY
  5
1A
102
{ACAD_REACTORS
330
19
102
}
100
AcDbDictionary
280
         0
281
         1
  0
DICTIONARY
  5
1B
102
{ACAD_REACTORS
330
19
102
}
100
AcDbDictionary
280
         0
281
         1
  3
Standard
350
1C
  0
MLINESTYLE
  5
1C
102
{ACAD_REACTORS
330
1B
102
}
100
AcDbMlineStyle
  2
Standard
 70
         0
  3

 62
         0
 51
90.0
 52
90.0
 71
         2
 49
0.5
 62
       256
  6
BYLAYER
 49
-0.5
 62
       256
  6
BYLAYER
  0
ACDBDICTIONARYWDFLT
  5
1F
102
{ACAD_REACTORS
330
19
102
}
100
AcDbDictionary
281
         1
  3
Normal
350
1D
100
AcDbDictionaryWithDefault
340
1D
  0
ACDBPLACEHOLDER
  5
1D
102
{ACAD_REACTORS
330
1F
102
}
  0
LAYOUT
  5
20
102
{ACAD_REACTORS
330
1E
102
}
100
AcDbPlotSettings
  1

  2

  4

  6

 40
0.0
 41
0.0
 42
0.0
 43
0.0
 44
0.0
 45
0.0
 46
0.0
 47
0.0
 48
0.0
 49
0.0
140
0.0
141
0.0
142
1.0
143
1.0
 70
      1024
 72
         0
 73
         0
 74
         0
  7

 75
         0
147
1.0
148
0.0
149
0.0
100
AcDbLayout
  1
Model
 70
         0
 71
         0
 10
0.0
 20
0.0
 11
0.0
 21
0.0
 12
0.0
 22
0.0
 32
0.0
 14
0.0
 24
0.0
 34
0.0
 15
0.0
 25
0.0
 35
0.0
146
0.0
 13
0.0
 23
0.0
 33
0.0
 16
0.0
 26
0.0
 36
0.0
 17
0.0
 27
0.0
 37
0.0
 76
         0
330
A
331
0
345
0
346
0
  0
LAYOUT
  5
21
102
{ACAD_REACTORS
330
1E
102
}
100
AcDbPlotSettings
  1

  2

  4

  6

 40
0.0
 41
0.0
 42
0.0
 43
0.0
 44
0.0
 45
0.0
 46
0.0
 47
0.0
 48
0.0
 49
0.0
140
0.0
141
0.0
142
1.0
143
1.0
 70
         0
 72
         0
 73
         0
 74
         0
  7

 75
         0
147
1.0
148
0.0
149
0.0
100
AcDbLayout
  1
Layout1
 70
         0
 71
         0
 10
0.0
 20
0.0
 11
0.0
 21
0.0
 12
0.0
 22
0.0
 32
0.0
 14
0.0
 24
0.0
 34
0.0
 15
0.0
 25
0.0
 35
0.0
146
0.0
 13
0.0
 23
0.0
 33
0.0
 16
0.0
 26
0.0
 36
0.0
 17
0.0
 27
0.0
 37
0.0
 76
         0
330
B
331
0
345
0
346
0
  0
DICTIONARY
  5
1E
102
{ACAD_REACTORS
330
19
102
}
100
AcDbDictionary
280
         0
281
         1
  3
Layout1
350
21
  3
Model
350
20
  0
DICTIONARY
  5
22
102
{ACAD_REACTORS
330
19
102
}
100
AcDbDictionary
280
         0
281
         1
  0
WIPEOUTVARIABLES
  5
23
100
AcDbWipeoutVariables
 70
         1
  0
ENDSEC
  0
EOF
