%FSLAX25Y25*%
%MOIN*%
G70*
G01*
G75*
G04 Layer_Physical_Order=2*
G04 Layer_Color=65280*
%ADD10R,0.05906X0.05906*%
%ADD11R,0.05906X0.05906*%
%ADD12C,0.02500*%
%ADD13C,0.16500*%
%ADD14C,0.04000*%
%ADD15R,0.17716X0.12205*%
%ADD16R,0.05000X0.08000*%
G36*
X572500Y577741D02*
Y551235D01*
X571114Y550661D01*
X569791Y551985D01*
Y572205D01*
D01*
D01*
D01*
D01*
X569791D01*
D01*
D01*
D01*
D01*
D01*
X569791D01*
Y572205D01*
D01*
D01*
Y572205D01*
D01*
D01*
D01*
D01*
D01*
D01*
D01*
D01*
D01*
D01*
D01*
D01*
Y572205D01*
D01*
X569791D01*
D01*
D01*
D01*
D01*
D01*
D01*
D01*
X569791Y572205D01*
D01*
D01*
D01*
X569628Y573445D01*
X569289Y574262D01*
X569149Y574600D01*
X568388Y575593D01*
X568388Y575593D01*
X568388D01*
X568388Y575593D01*
Y575593D01*
X567528Y576452D01*
X567615Y576759D01*
X570014Y577753D01*
X571191Y578474D01*
X572500Y577741D01*
D02*
G37*
G36*
X548474Y601191D02*
X547753Y600014D01*
X546759Y597614D01*
X546153Y595089D01*
X545949Y592500D01*
X546068Y590989D01*
X544667Y590452D01*
X543923Y591423D01*
X542774Y592304D01*
X541436Y592858D01*
X540000Y593048D01*
X538564Y592858D01*
X537226Y592304D01*
X536077Y591423D01*
X535196Y590274D01*
X534642Y588936D01*
X534452Y587500D01*
X534642Y586064D01*
X535196Y584726D01*
X536077Y583577D01*
X536500Y583253D01*
Y574000D01*
D01*
Y574000D01*
X536246Y573746D01*
X512557D01*
Y571348D01*
X511429Y570359D01*
X510000Y570547D01*
X508564Y570358D01*
X507226Y569804D01*
X506077Y568923D01*
X505196Y567774D01*
X504642Y566436D01*
X504453Y565000D01*
X504642Y563564D01*
X505196Y562226D01*
X506077Y561077D01*
X507226Y560196D01*
X508564Y559642D01*
X510000Y559452D01*
X510049Y559459D01*
X510856Y559353D01*
X511429Y559428D01*
X512557Y558439D01*
Y554541D01*
Y553076D01*
X512156Y553023D01*
X511339Y552685D01*
X511000Y552545D01*
X510008Y551783D01*
X506612Y548388D01*
X505851Y547396D01*
X505711Y547057D01*
X505372Y546240D01*
X505209Y545000D01*
Y540291D01*
X505196Y540274D01*
X504642Y538936D01*
X504453Y537500D01*
X504642Y536064D01*
X505196Y534726D01*
X506077Y533577D01*
X507226Y532696D01*
X508564Y532142D01*
X510000Y531952D01*
X511436Y532142D01*
X512774Y532696D01*
X513923Y533577D01*
X514804Y534726D01*
X515358Y536064D01*
X515548Y537500D01*
X515526Y537666D01*
X516515Y538793D01*
X561879D01*
Y544385D01*
X563265Y544959D01*
X565209Y543015D01*
Y521181D01*
X563962Y520348D01*
X563936Y520358D01*
X562500Y520547D01*
X561879Y521092D01*
Y526502D01*
X512557D01*
Y507297D01*
X561879D01*
Y507297D01*
X561979D01*
X562142Y506064D01*
X562696Y504726D01*
X563372Y503845D01*
X562708Y502500D01*
X502500D01*
Y577741D01*
X503809Y578474D01*
X504986Y577753D01*
X507385Y576759D01*
X509911Y576153D01*
X512500Y575949D01*
X515089Y576153D01*
X517615Y576759D01*
X520014Y577753D01*
X522228Y579110D01*
X524203Y580797D01*
X525890Y582772D01*
X527247Y584986D01*
X528241Y587386D01*
X528847Y589911D01*
X529051Y592500D01*
X528847Y595089D01*
X528241Y597614D01*
X527247Y600014D01*
X525890Y602228D01*
X526015Y602500D01*
X547741D01*
X548474Y601191D01*
D02*
G37*
D12*
X512814Y575000D02*
X530000D01*
X504919Y567105D02*
X512814Y575000D01*
X505000Y532500D02*
Y567205D01*
X507500Y530000D02*
X517500D01*
X510000Y512500D02*
Y530000D01*
X513396Y548396D02*
X549521D01*
X510000Y545000D02*
X513396Y548396D01*
X510000Y537500D02*
Y545000D01*
X549521Y548396D02*
X551126Y550000D01*
X565000D01*
X542500Y580000D02*
X547500Y575000D01*
X542500Y580000D02*
Y582500D01*
X547500Y575000D02*
X562205D01*
X565000Y572205D01*
X531500Y576500D02*
Y581500D01*
X530000Y575000D02*
X531500Y576500D01*
X524767Y532500D02*
X524915Y532648D01*
X565000Y550000D02*
Y572205D01*
X524915Y532648D02*
X549521D01*
X524915Y516900D02*
X549521D01*
X520000Y532500D02*
X524767D01*
X517500Y530000D02*
X520000Y532500D01*
X505000D02*
X507500Y530000D01*
X510000Y565000D02*
X510856Y564144D01*
X510000Y565000D02*
X524059D01*
X524915Y564144D02*
X549521D01*
X524059Y565000D02*
X524915Y564144D01*
X554374Y537500D02*
X562500D01*
X549521Y532648D02*
X554374Y537500D01*
X551421Y515000D02*
X562500D01*
X549521Y516900D02*
X551421Y515000D01*
X532500Y582500D02*
Y587500D01*
X540000D02*
X542500Y585000D01*
X567500Y507500D02*
X570000Y510000D01*
X565000Y550000D02*
X570000Y545000D01*
Y510000D02*
Y545000D01*
D13*
X512500Y592500D02*
D03*
X562500D02*
D03*
D14*
Y537500D02*
D03*
Y515000D02*
D03*
X510000Y537500D02*
D03*
Y565000D02*
D03*
Y512500D02*
D03*
X532500Y587500D02*
D03*
X540000D02*
D03*
X567500Y507500D02*
D03*
D15*
X524915Y516900D02*
D03*
Y532648D02*
D03*
Y548396D02*
D03*
X549521Y516900D02*
D03*
Y532648D02*
D03*
Y548396D02*
D03*
X524915Y564144D02*
D03*
X549521D02*
D03*
D16*
X531500Y581500D02*
D03*
X542500D02*
D03*
M02*
