%FSLAX25Y25*%
%MOIN*%
G70*
G01*
G75*
G04 Layer_Color=65535*
%ADD10R,0.05906X0.05906*%
%ADD11R,0.05906X0.05906*%
%ADD12C,0.02500*%
%ADD13C,0.16500*%
%ADD14C,0.04000*%
%ADD15R,0.17716X0.12205*%
%ADD16R,0.05000X0.08000*%
%ADD17C,0.01000*%
D17*
X523721Y545374D02*
G03*
X523721Y545374I-984J0D01*
G01*
Y520374D02*
G03*
X523721Y520374I-984J0D01*
G01*
X521358Y552264D02*
G03*
X521358Y552264I-984J0D01*
G01*
X524500Y592500D02*
G03*
X524500Y592500I-12000J0D01*
G01*
X574500D02*
G03*
X574500Y592500I-12000J0D01*
G01*
X571358Y552264D02*
G03*
X571358Y552264I-984J0D01*
G01*
X523721Y570374D02*
G03*
X523721Y570374I-984J0D01*
G01*
X527658Y539468D02*
X535532Y547342D01*
X531595Y527658D02*
X543405D01*
X531595Y547342D02*
X543405D01*
X547342Y535532D02*
Y539468D01*
X527658Y535532D02*
Y539468D01*
Y514468D02*
X535532Y522342D01*
X531595Y502658D02*
X543405D01*
X531595Y522342D02*
X543405D01*
X547342Y510532D02*
Y514468D01*
X527658Y510532D02*
Y514468D01*
X514468Y547342D02*
X522342Y539468D01*
X502658Y531595D02*
Y543405D01*
X522342Y531595D02*
Y543405D01*
X510532Y527658D02*
X514468D01*
X510532Y547342D02*
X514468D01*
X500000Y500000D02*
Y605000D01*
Y500000D02*
X575000D01*
Y605000D01*
X500000D02*
X575000D01*
X560532Y547342D02*
X564468D01*
X560532Y527658D02*
X564468D01*
X572342Y531595D02*
Y543405D01*
X552658Y531595D02*
Y543405D01*
X564468Y547342D02*
X572342Y539468D01*
X527658Y560532D02*
Y564468D01*
X547342Y560532D02*
Y564468D01*
X531595Y572342D02*
X543405D01*
X531595Y552658D02*
X543405D01*
X527658Y564468D02*
X535532Y572342D01*
X534000Y539998D02*
Y535000D01*
X536499D01*
X537332Y535833D01*
Y539165D01*
X536499Y539998D01*
X534000D01*
X538998Y539165D02*
X539831Y539998D01*
X541498D01*
X542331Y539165D01*
Y538332D01*
X541498Y537499D01*
X540664D01*
X541498D01*
X542331Y536666D01*
Y535833D01*
X541498Y535000D01*
X539831D01*
X538998Y535833D01*
X512500Y509998D02*
Y505000D01*
X514999D01*
X515832Y505833D01*
Y509165D01*
X514999Y509998D01*
X512500D01*
X520831Y505000D02*
X517498D01*
X520831Y508332D01*
Y509165D01*
X519998Y509998D01*
X518331D01*
X517498Y509165D01*
X505000Y557498D02*
Y552500D01*
X507499D01*
X508332Y553333D01*
Y556665D01*
X507499Y557498D01*
X505000D01*
X509998Y552500D02*
X511664D01*
X510831D01*
Y557498D01*
X509998Y556665D01*
X552500Y564998D02*
Y560000D01*
X554999D01*
X555832Y560833D01*
Y564165D01*
X554999Y564998D01*
X552500D01*
X559998Y560000D02*
Y564998D01*
X557498Y562499D01*
X560831D01*
X562500Y522498D02*
Y517500D01*
X564999D01*
X565832Y518333D01*
Y521665D01*
X564999Y522498D01*
X562500D01*
X570831D02*
X567498D01*
Y519999D01*
X569165Y520832D01*
X569998D01*
X570831Y519999D01*
Y518333D01*
X569998Y517500D01*
X568331D01*
X567498Y518333D01*
X534832Y594165D02*
X533999Y594998D01*
X532333D01*
X531500Y594165D01*
Y590833D01*
X532333Y590000D01*
X533999D01*
X534832Y590833D01*
X538998Y594998D02*
X537331D01*
X536498Y594165D01*
Y590833D01*
X537331Y590000D01*
X538998D01*
X539831Y590833D01*
Y594165D01*
X538998Y594998D01*
X541497D02*
X544829Y590000D01*
Y594998D02*
X541497Y590000D01*
X528332Y583332D02*
X525833D01*
X525000Y582499D01*
Y580833D01*
X525833Y580000D01*
X528332D01*
X533331D02*
X529998D01*
X533331Y583332D01*
Y584165D01*
X532498Y584998D01*
X530831D01*
X529998Y584165D01*
X534997D02*
X535830Y584998D01*
X537496D01*
X538329Y584165D01*
Y580833D01*
X537496Y580000D01*
X535830D01*
X534997Y580833D01*
Y584165D01*
X543327Y580000D02*
X539995D01*
X543327Y583332D01*
Y584165D01*
X542494Y584998D01*
X540828D01*
X539995Y584165D01*
X548326Y580000D02*
X544993D01*
X548326Y583332D01*
Y584165D01*
X547493Y584998D01*
X545827D01*
X544993Y584165D01*
X526500Y602498D02*
Y597500D01*
X528999D01*
X529832Y598333D01*
Y599166D01*
X528999Y599999D01*
X526500D01*
X528999D01*
X529832Y600832D01*
Y601665D01*
X528999Y602498D01*
X526500D01*
X531498Y597500D02*
Y602498D01*
X533998D01*
X534831Y601665D01*
Y599999D01*
X533998Y599166D01*
X531498D01*
X533165D02*
X534831Y597500D01*
X536497Y602498D02*
X538163D01*
X537330D01*
Y597500D01*
X536497D01*
X538163D01*
X540662D02*
Y600832D01*
X542328Y602498D01*
X543994Y600832D01*
Y597500D01*
Y599999D01*
X540662D01*
X545660Y597500D02*
Y602498D01*
X548993Y597500D01*
Y602498D01*
M02*
