<?xml version="1.0" encoding="UTF-8" standalone="no"?>
<!-- Created with Inkscape (http://www.inkscape.org/) -->

<svg
   width="11in"
   height="8.5in"
   viewBox="0 0 279.4 215.9"
   version="1.1"
   id="svg5"
   xml:space="preserve"
   inkscape:version="1.2.2 (b0a84865, 2022-12-01)"
   sodipodi:docname="251203_MillineryTech_7_FlangeBase_2.svg"
   xmlns:inkscape="http://www.inkscape.org/namespaces/inkscape"
   xmlns:sodipodi="http://sodipodi.sourceforge.net/DTD/sodipodi-0.dtd"
   xmlns="http://www.w3.org/2000/svg"
   xmlns:svg="http://www.w3.org/2000/svg"><sodipodi:namedview
     id="namedview7"
     pagecolor="#ffffff"
     bordercolor="#000000"
     borderopacity="0.25"
     inkscape:showpageshadow="2"
     inkscape:pageopacity="0.0"
     inkscape:pagecheckerboard="0"
     inkscape:deskcolor="#d1d1d1"
     inkscape:document-units="mm"
     showgrid="false"
     inkscape:zoom="0.24291344"
     inkscape:cx="389.02746"
     inkscape:cy="520.76163"
     inkscape:window-width="1630"
     inkscape:window-height="867"
     inkscape:window-x="0"
     inkscape:window-y="38"
     inkscape:window-maximized="0"
     inkscape:current-layer="layer1" /><defs
     id="defs2"><marker
       id="DistanceX"
       orient="auto"
       refX="0"
       refY="0"
       style="overflow:visible"><path
         d="M 3,-3 -3,3 M 0,-5 V 5"
         style="stroke:#000000;stroke-width:0.5"
         id="path164" /></marker><pattern
       id="Hatch"
       patternUnits="userSpaceOnUse"
       width="8"
       height="8"
       x="0"
       y="0"><path
         d="M8 4 l-4,4"
         stroke="#000000"
         stroke-width="0.25"
         linecap="square"
         id="path167" /><path
         d="M6 2 l-4,4"
         stroke="#000000"
         stroke-width="0.25"
         linecap="square"
         id="path169" /><path
         d="M4 0 l-4,4"
         stroke="#000000"
         stroke-width="0.25"
         linecap="square"
         id="path171" /></pattern><symbol
       id="*MODEL_SPACE" /><symbol
       id="*PAPER_SPACE" /><marker
       id="DistanceX-2"
       orient="auto"
       refX="0"
       refY="0"
       style="overflow:visible"><path
         d="M 3,-3 -3,3 M 0,-5 V 5"
         style="stroke:#000000;stroke-width:0.5"
         id="path413" /></marker><pattern
       id="Hatch-6"
       patternUnits="userSpaceOnUse"
       width="8"
       height="8"
       x="0"
       y="0"><path
         d="M8 4 l-4,4"
         stroke="#000000"
         stroke-width="0.25"
         linecap="square"
         id="path416" /><path
         d="M6 2 l-4,4"
         stroke="#000000"
         stroke-width="0.25"
         linecap="square"
         id="path418" /><path
         d="M4 0 l-4,4"
         stroke="#000000"
         stroke-width="0.25"
         linecap="square"
         id="path420" /></pattern><symbol
       id="*MODEL_SPACE-1" /><symbol
       id="*PAPER_SPACE-7" /></defs><g
     inkscape:label="Layer 1"
     inkscape:groupmode="layer"
     id="layer1"><g
       inkscape:label="0"
       id="g427"
       transform="matrix(0.26458333,0,0,0.26458333,24.539632,-73.616137)" /><g
       inkscape:label="LAYER1"
       id="g429"
       transform="matrix(0.26458333,0,0,0.26458333,24.539632,-73.616137)" /><g
       inkscape:label="CONSTRUCTION"
       id="g431"
       transform="matrix(0.26458333,0,0,0.26458333,24.539632,-73.616137)" /><g
       inkscape:label="DIMENSION"
       id="g433"
       transform="matrix(0.26458333,0,0,0.26458333,24.539632,-73.616137)" /><g
       inkscape:label="CONSTRAINTS"
       id="g435"
       transform="matrix(0.26458333,0,0,0.26458333,24.539632,-73.616137)" /><g
       inkscape:label="1_BRIMFORM_1"
       id="g437"
       transform="matrix(0.26458333,0,0,0.26458333,24.539632,-73.616137)" /><g
       inkscape:label="2_CROWN_1"
       id="g439"
       transform="matrix(0.26458333,0,0,0.26458333,24.539632,-73.616137)" /><g
       inkscape:label="LAYER2"
       id="g441"
       transform="matrix(0.26458333,0,0,0.26458333,24.539632,-73.616137)" /><g
       inkscape:label="3_XY_1"
       id="g443"
       transform="matrix(0.26458333,0,0,0.26458333,24.539632,-73.616137)" /><g
       inkscape:label="4_XZ_1"
       id="g445"
       transform="matrix(0.26458333,0,0,0.26458333,24.539632,-73.616137)" /><g
       inkscape:label="5_YZ_1"
       id="g447"
       transform="matrix(0.26458333,0,0,0.26458333,24.539632,-73.616137)" /><path
       style="fill:none;stroke:#000000;stroke-width:0.944827;stroke-linecap:round"
       d="m 190.06164,107.69456 h -88.9"
       id="path457" /><path
       style="fill:none;stroke:#000000;stroke-width:0.944827;stroke-linecap:round"
       d="m 101.16164,88.644573 h 88.9"
       id="path459" /><path
       style="fill:none;stroke:#000000;stroke-width:0.944827;stroke-linecap:round"
       d="M 145.61164,69.594573 V 107.69456"
       id="path461" /><path
       style="fill:none;stroke:#000000;stroke-width:0.944827;stroke-linecap:round"
       d="M 101.16164,107.69456 V 69.594573"
       id="path463" /><path
       style="fill:none;stroke:#000000;stroke-width:0.944827;stroke-linecap:round"
       d="M 190.06164,69.594573 V 107.69456"
       id="path465" /><path
       style="fill:none;stroke:#000000;stroke-width:0.944827;stroke-linecap:round"
       d="m 101.16164,69.594573 h 88.9"
       id="path467" /><path
       style="fill:none;stroke:#000000;stroke-width:0.944827;stroke-linecap:round"
       d="m 195.24482,148.96956 h 69.977"
       id="path469" /><path
       style="fill:none;stroke:#000000;stroke-width:0.944827;stroke-linecap:round"
       d="m 26.002768,148.96956 h 69.97568"
       id="path471" /><path
       style="fill:none;stroke:#000000;stroke-width:0.944827;stroke-linecap:round"
       d="m 226.65042,-110.52755 v 69.974873"
       id="path473" /><path
       style="fill:none;stroke:#000000;stroke-width:0.944827;stroke-linecap:round"
       d="M 48.850424,-40.552677 V -110.52755"
       id="path475" /><path
       d="m 167.89913,88.644493 a 0.06249987,0.06249987 0 0 0 -0.12499,0 0.06249987,0.06249987 0 0 0 0.12499,0 z"
       style="fill:none;stroke:#000000;stroke-width:0.944827;stroke-linecap:round"
       id="path477" /><path
       style="fill:none;stroke:#000000;stroke-width:0.944827;stroke-linecap:round"
       d="m 140.84914,114.04456 h 9.525"
       id="path479" /><path
       style="fill:none;stroke:#000000;stroke-width:0.944827;stroke-linecap:round"
       d="m 145.61164,109.28206 v 9.525"
       id="path481" /><path
       d="m 150.37414,114.04448 a 4.7625,4.7625 0 0 0 -9.525,0 4.7625,4.7625 0 0 0 9.525,0 z"
       style="fill:none;stroke:#000000;stroke-width:0.944827;stroke-linecap:round"
       id="path483" /><path
       d="m 169.36164,88.644493 a 1.5875,1.5875 0 0 0 -3.175,0 1.5875,1.5875 0 0 0 3.175,0 z"
       style="fill:none;stroke:#000000;stroke-width:0.944827;stroke-linecap:round"
       id="path485" /><path
       d="m 124.97414,88.644493 a 1.5875,1.5875 0 0 0 -3.175,0 1.5875,1.5875 0 0 0 3.175,0 z"
       style="fill:none;stroke:#000000;stroke-width:0.944827;stroke-linecap:round"
       id="path487" /><path
       d="m 48.851668,-110.52756 a 177.8,138.1125 0 0 1 177.799992,0"
       style="fill:none;stroke:#000000;stroke-width:0.944827;stroke-linecap:round"
       id="path655" /><path
       d="m 95.978738,148.96948 a 88.899999,107.15625 0 0 1 99.268282,0"
       style="fill:none;stroke:#000000;stroke-width:0.944827;stroke-linecap:round"
       id="path657" /><path
       d="m 26.003948,148.96948 a 138.1125,177.8 0 0 1 239.217872,0"
       style="fill:none;stroke:#000000;stroke-width:0.944827;stroke-linecap:round"
       id="path659" /><path
       d="m 48.851668,-40.552757 a 107.15625,88.899999 0 0 1 177.799992,0"
       style="fill:none;stroke:#000000;stroke-width:0.944827;stroke-linecap:round"
       id="path661" /></g></svg>
