M48
;Layer_Color=8847372
;FILE_FORMAT=2:5
INCH,TZ
;TYPE=PLATED
T1F00S00C0.02100
%
T01
X1052500Y777500
X1075000Y772500
X1085000Y777500
X1082500Y750000
X1102500Y757500
X1105000Y770000
X1122500Y752500
X1140000Y780000
X1150000Y782500
X1137500Y800000
X1135000Y815000
X1145000Y812500
X1147500Y822500
X1127500Y830000
X1117500Y850000
X1120000Y800000
X1100000Y797500
X1085000Y800000
X1067500Y802500
X1052500Y800000
X1050000Y817500
X1077500Y827500
X1076326Y848674
X1090000Y845000
M30
