%FSLAX25Y25*%
%MOIN*%
G70*
G01*
G75*
G04 Layer_Color=128*
%ADD10R,0.05906X0.05906*%
%ADD11R,0.05906X0.05906*%
%ADD12P,0.08352X4X337.5*%
%ADD13P,0.08352X4X382.5*%
%ADD14P,0.08352X4X67.5*%
%ADD15P,0.08352X4X112.5*%
%ADD16C,0.02500*%
%ADD17C,0.04000*%
%ADD18R,0.05000X0.08000*%
%ADD19R,0.12205X0.17716*%
%ADD20C,0.05000*%
%ADD21C,0.01000*%
%ADD22C,0.01200*%
%ADD23C,0.01500*%
%ADD24R,0.04906X0.04906*%
%ADD25R,0.04906X0.04906*%
%ADD26P,0.06937X4X337.5*%
%ADD27P,0.06937X4X382.5*%
%ADD28P,0.06937X4X67.5*%
%ADD29P,0.06937X4X112.5*%
%ADD30R,0.04000X0.07000*%
%ADD31R,0.11205X0.16716*%
%ADD32R,0.06706X0.06706*%
%ADD33R,0.06706X0.06706*%
%ADD34P,0.09483X4X337.5*%
%ADD35P,0.09483X4X382.5*%
%ADD36P,0.09483X4X67.5*%
%ADD37P,0.09483X4X112.5*%
%ADD38C,0.04800*%
D32*
X1106890Y790354D02*
D03*
X1093110Y790354D02*
D03*
X1106890Y809646D02*
D03*
X1093110D02*
D03*
X1119610D02*
D03*
X1133390D02*
D03*
X1119610Y790354D02*
D03*
X1133390D02*
D03*
X1080890D02*
D03*
X1067110Y790354D02*
D03*
X1080890Y809646D02*
D03*
X1067110D02*
D03*
D33*
X1109646Y780390D02*
D03*
Y766610D02*
D03*
X1090354Y780390D02*
D03*
Y766610D02*
D03*
Y819610D02*
D03*
Y833390D02*
D03*
X1109646Y819610D02*
D03*
Y833390D02*
D03*
D34*
X1064057Y774725D02*
D03*
X1051326Y769452D02*
D03*
X1056674Y792548D02*
D03*
X1043943Y787275D02*
D03*
X1136444Y825275D02*
D03*
X1149174Y830548D02*
D03*
X1143826Y807452D02*
D03*
X1156557Y812725D02*
D03*
D35*
X1092548Y756674D02*
D03*
X1087275Y743944D02*
D03*
X1074725Y764056D02*
D03*
X1069452Y751326D02*
D03*
X1107452Y843326D02*
D03*
X1112725Y856057D02*
D03*
X1125275Y835943D02*
D03*
X1130548Y848674D02*
D03*
D36*
X1125275Y764056D02*
D03*
X1130548Y751326D02*
D03*
X1107452Y756674D02*
D03*
X1112725Y743944D02*
D03*
X1074225Y835943D02*
D03*
X1068952Y848674D02*
D03*
X1092048Y843326D02*
D03*
X1086775Y856057D02*
D03*
D37*
X1143826Y792548D02*
D03*
X1156557Y787275D02*
D03*
X1136443Y774725D02*
D03*
X1149174Y769452D02*
D03*
X1056674Y807452D02*
D03*
X1043944Y812725D02*
D03*
X1064057Y825275D02*
D03*
X1051326Y830548D02*
D03*
D38*
X1127500Y830000D02*
D03*
X1145000Y812500D02*
D03*
X1135000Y815000D02*
D03*
X1077500Y827500D02*
D03*
X1090000Y845000D02*
D03*
X1140000Y780000D02*
D03*
X1137500Y800000D02*
D03*
X1105000Y770000D02*
D03*
X1102500Y757500D02*
D03*
X1085000Y800000D02*
D03*
Y777500D02*
D03*
X1075000Y772500D02*
D03*
X1050000Y817500D02*
D03*
X1052500Y777500D02*
D03*
X1082500Y750000D02*
D03*
X1122500Y752500D02*
D03*
X1150000Y782500D02*
D03*
X1147500Y822500D02*
D03*
X1117500Y850000D02*
D03*
X1076326Y848674D02*
D03*
X1100000Y797500D02*
D03*
X1120000Y800000D02*
D03*
X1067500Y802500D02*
D03*
X1052500Y800000D02*
D03*
M02*
