M48
;Layer_Color=8847372
;FILE_FORMAT=2:5
INCH,TZ
;TYPE=PLATED
T1F00S00C0.02100
T2F00S00C0.07500
T3F00S00C0.12500
%
T01
X420000Y372500
X335000Y467500
X505000Y380000
X542500Y347500
X657500Y402500
X722500Y502500
X557500Y510000
X492500Y505000
X493504Y468996
X510000Y547500
X497500Y600000
X482500Y587500
X567500Y572500
X322500Y592500
X392500Y705000
X470000Y660000
X490000
X502500Y730000
X507500Y750000
X540000Y720000
X625000Y725000
X710000Y627500
T02
X648500Y548000
X668500
X620500
X600500
X445000
X425000
X393500
X373500
T03
X403000Y460500
X643500
X403000Y635500
X643500
M30
