%FSLAX25Y25*%
%MOIN*%
G70*
G01*
G75*
G04 Layer_Color=33789*
%ADD10R,0.05000X0.08000*%
%ADD11R,0.05000X0.04000*%
%ADD12R,0.05906X0.05906*%
%ADD13C,0.02500*%
%ADD14C,0.04000*%
%ADD15R,0.12000X0.03000*%
%ADD16C,0.04500*%
%ADD17C,0.01000*%
D13*
X402500Y512500D02*
X407500Y507500D01*
X402500Y502500D02*
X407500Y507500D01*
X395000D02*
X407500D01*
X1001777Y512519D02*
X1006777Y507519D01*
X1001777Y502519D02*
X1006777Y507519D01*
X994277D02*
X1006777D01*
D17*
X102500Y522500D02*
X112500D01*
X102500Y500000D02*
X112500D01*
X1126500D02*
X1136500D01*
X1126500Y522500D02*
X1136500D01*
X292500Y495000D02*
X1042500D01*
Y517500D01*
X292500D02*
X1042500D01*
X292500Y495000D02*
Y517500D01*
X1133568Y530998D02*
X1135234D01*
X1134401D01*
Y526833D01*
X1135234Y526000D01*
X1136067D01*
X1136900Y526833D01*
X1131902D02*
X1131069Y526000D01*
X1129402D01*
X1128569Y526833D01*
Y530165D01*
X1129402Y530998D01*
X1131069D01*
X1131902Y530165D01*
Y529332D01*
X1131069Y528499D01*
X1128569D01*
X109568Y530998D02*
X111234D01*
X110401D01*
Y526833D01*
X111234Y526000D01*
X112067D01*
X112900Y526833D01*
X107902Y530165D02*
X107069Y530998D01*
X105402D01*
X104569Y530165D01*
Y529332D01*
X105402Y528499D01*
X104569Y527666D01*
Y526833D01*
X105402Y526000D01*
X107069D01*
X107902Y526833D01*
Y527666D01*
X107069Y528499D01*
X107902Y529332D01*
Y530165D01*
X107069Y528499D02*
X105402D01*
X611782Y508045D02*
Y502047D01*
X608783D01*
X607783Y503047D01*
Y504046D01*
X608783Y505046D01*
X611782D01*
X608783D01*
X607783Y506046D01*
Y507045D01*
X608783Y508045D01*
X611782D01*
X605784Y502047D02*
Y508045D01*
X602785D01*
X601785Y507045D01*
Y505046D01*
X602785Y504046D01*
X605784D01*
X603785D02*
X601785Y502047D01*
X599786Y508045D02*
X597787D01*
X598786D01*
Y502047D01*
X599786D01*
X597787D01*
X594788D02*
Y506046D01*
X592788Y508045D01*
X590789Y506046D01*
Y502047D01*
Y505046D01*
X594788D01*
X588790Y502047D02*
Y508045D01*
X584791Y502047D01*
Y508045D01*
X572795Y507045D02*
X573794Y508045D01*
X575794D01*
X576793Y507045D01*
Y503047D01*
X575794Y502047D01*
X573794D01*
X572795Y503047D01*
X567796Y508045D02*
X569796D01*
X570795Y507045D01*
Y503047D01*
X569796Y502047D01*
X567796D01*
X566797Y503047D01*
Y507045D01*
X567796Y508045D01*
X564797D02*
X560799Y502047D01*
Y508045D02*
X564797Y502047D01*
X488501Y506499D02*
X491500D01*
X492500Y505499D01*
Y503500D01*
X491500Y502500D01*
X488501D01*
X482503D02*
X486502D01*
X482503Y506499D01*
Y507498D01*
X483503Y508498D01*
X485502D01*
X486502Y507498D01*
X480504D02*
X479504Y508498D01*
X477505D01*
X476505Y507498D01*
Y503500D01*
X477505Y502500D01*
X479504D01*
X480504Y503500D01*
Y507498D01*
X474506Y502500D02*
X472507D01*
X473506D01*
Y508498D01*
X474506Y507498D01*
X465509Y508498D02*
X469507D01*
Y505499D01*
X467508Y506499D01*
X466508D01*
X465509Y505499D01*
Y503500D01*
X466508Y502500D01*
X468508D01*
X469507Y503500D01*
X809501Y505286D02*
X813500D01*
Y502287D01*
X811501Y503287D01*
X810501D01*
X809501Y502287D01*
Y500287D01*
X810501Y499288D01*
X812500D01*
X813500Y500287D01*
X807502Y504286D02*
X806502Y505286D01*
X804503D01*
X803503Y504286D01*
Y500287D01*
X804503Y499288D01*
X806502D01*
X807502Y500287D01*
Y504286D01*
X797505Y505286D02*
X801504D01*
Y502287D01*
X799505Y503287D01*
X798505D01*
X797505Y502287D01*
Y500287D01*
X798505Y499288D01*
X800504D01*
X801504Y500287D01*
X795506Y499288D02*
X793506D01*
X794506D01*
Y505286D01*
X795506Y504286D01*
X786509Y505286D02*
X790507D01*
Y502287D01*
X788508Y503287D01*
X787508D01*
X786509Y502287D01*
Y500287D01*
X787508Y499288D01*
X789508D01*
X790507Y500287D01*
X784509Y504286D02*
X783510Y505286D01*
X781510D01*
X780511Y504286D01*
Y503287D01*
X781510Y502287D01*
X782510D01*
X781510D01*
X780511Y501287D01*
Y500287D01*
X781510Y499288D01*
X783510D01*
X784509Y500287D01*
X778511Y503287D02*
X776512Y499288D01*
X774513Y503287D01*
X772513Y499288D02*
X770514D01*
X771514D01*
Y505286D01*
X772513Y504286D01*
X767515D02*
X766515Y505286D01*
X764516D01*
X763516Y504286D01*
Y500287D01*
X764516Y499288D01*
X766515D01*
X767515Y500287D01*
Y504286D01*
X761517D02*
X760517Y505286D01*
X758518D01*
X757518Y504286D01*
Y503287D01*
X758518Y502287D01*
X759517D01*
X758518D01*
X757518Y501287D01*
Y500287D01*
X758518Y499288D01*
X760517D01*
X761517Y500287D01*
X908501Y504998D02*
X909501Y505998D01*
X911500D01*
X912500Y504998D01*
Y503999D01*
X911500Y502999D01*
X909501D01*
X908501Y501999D01*
Y501000D01*
X909501Y500000D01*
X911500D01*
X912500Y501000D01*
X906502Y505998D02*
X902503D01*
X904503D01*
Y500000D01*
X900504D02*
Y505998D01*
X897505D01*
X896505Y504998D01*
Y502999D01*
X897505Y501999D01*
X900504D01*
X898505D02*
X896505Y500000D01*
X894506Y505998D02*
X892507D01*
X893506D01*
Y500000D01*
X894506D01*
X892507D01*
X889507D02*
Y505998D01*
X886508D01*
X885509Y504998D01*
Y502999D01*
X886508Y501999D01*
X889507D01*
X877511Y500000D02*
Y505998D01*
X874512D01*
X873513Y504998D01*
Y502999D01*
X874512Y501999D01*
X877511D01*
X875512D02*
X873513Y500000D01*
X867515Y504998D02*
X868514Y505998D01*
X870514D01*
X871513Y504998D01*
Y501000D01*
X870514Y500000D01*
X868514D01*
X867515Y501000D01*
Y502999D01*
X869514D01*
X865515Y505998D02*
Y500000D01*
X862516D01*
X861516Y501000D01*
Y501999D01*
X862516Y502999D01*
X865515D01*
X862516D01*
X861516Y503999D01*
Y504998D01*
X862516Y505998D01*
X865515D01*
M02*
