M48
;Layer_Color=8847372
;FILE_FORMAT=2:5
INCH,LZ
;TYPE=PLATED
T1F00S00C0.02362
%
T01
X11295Y05082
X11294Y05202
X10897Y05143
X10583Y05082
X10281Y05143
X10154Y05202
X09895Y05082
X09497Y05143
X09183Y05081
X08881Y05142
X08754Y05202
X08495Y05082
X08097Y05143
X07776Y05082
X07474Y05143
X07354Y05202
X07095Y05082
X06697Y05143
X06369Y05083
X06067Y05144
X05954Y05202
X05695Y05082
X05297Y05143
X04982Y05082
X0468Y05143
X04554Y05202
X04295Y05082
X03897Y05143
X03583Y05082
X03281Y05143
X03154Y05202
X02895Y05082
X02497Y05143
X02163Y05082
X01861Y05143
X01754Y05202
X01495Y05082
X01097Y05143
X01093Y05023
M30
