  0
SECTION
  2
HEADER
  9
$ACADVER
  1
AC1014
  9
$HANDSEED
  5
FFFF
  9
$INSUNITS
 70
     1
  9
$MEASUREMENT
 70
     1
  0
ENDSEC
  0
SECTION
  2
TABLES
  0
TABLE
  2
VPORT
  5
8
330
0
100
AcDbSymbolTable
 70
     4
  0
VPORT
  5
2E
330
8
100
AcDbSymbolTableRecord
100
AcDbViewportTableRecord
  2
*ACTIVE
 70
     0
 10
0.0
 20
0.0
 11
1.0
 21
1.0
 12
210.0
 22
148.5
 13
0.0
 23
0.0
 14
10.0
 24
10.0
 15
10.0
 25
10.0
 16
0.0
 26
0.0
 36
1.0
 17
0.0
 27
0.0
 37
0.0
 40
341.0
 41
1.24
 42
50.0
 43
0.0
 44
0.0
 50
0.0
 51
0.0
 71
     0
 72
   100
 73
     1
 74
     3
 75
     0
 76
     0
 77
     0
 78
     0
  0
ENDTAB
  0
TABLE
  2
LTYPE
  5
5
330
0
100
AcDbSymbolTable
 70
     1
  0
LTYPE
  5
14
330
5
100
AcDbSymbolTableRecord
100
AcDbLinetypeTableRecord
  2
BYBLOCK
 70
     0
  3

 72
    65
 73
     0
 40
0.0
  0
LTYPE
  5
15
330
5
100
AcDbSymbolTableRecord
100
AcDbLinetypeTableRecord
  2
BYLAYER
 70
     0
  3

 72
    65
 73
     0
 40
0.0
  0
LTYPE
  5
16
330
5
100
AcDbSymbolTableRecord
100
AcDbLinetypeTableRecord
  2
CONTINUOUS
 70
     0
  3
Solid line
 72
    65
 73
     0
 40
0.0
  0
ENDTAB
  0
TABLE
  2
LAYER
  5
2
100
AcDbSymbolTable
 70
8
  0
LAYER
  5
50
100
AcDbSymbolTableRecord
100
AcDbLayerTableRecord
  2
0
 70
0
  6
CONTINUOUS
  0
LAYER
  5
51
100
AcDbSymbolTableRecord
100
AcDbLayerTableRecord
  2
0_SCANS_1
 70
0
  6
CONTINUOUS
  0
LAYER
  5
52
100
AcDbSymbolTableRecord
100
AcDbLayerTableRecord
  2
1_TOE_1
 70
0
  6
CONTINUOUS
  0
LAYER
  5
53
100
AcDbSymbolTableRecord
100
AcDbLayerTableRecord
  2
1_TOE_2
 70
0
  6
CONTINUOUS
  0
LAYER
  5
54
100
AcDbSymbolTableRecord
100
AcDbLayerTableRecord
  2
2_SIDES_1
 70
0
  6
CONTINUOUS
  0
LAYER
  5
55
100
AcDbSymbolTableRecord
100
AcDbLayerTableRecord
  2
2_SIDES_2
 70
0
  6
CONTINUOUS
  0
LAYER
  5
56
100
AcDbSymbolTableRecord
100
AcDbLayerTableRecord
  2
3_HEEL_1
 70
0
  6
CONTINUOUS
  0
LAYER
  5
57
100
AcDbSymbolTableRecord
100
AcDbLayerTableRecord
  2
4_NOTCHES_1
 70
0
  6
CONTINUOUS
  0
ENDTAB
  0
TABLE
  2
STYLE
  5
3
330
0
100
AcDbSymbolTable
 70
     1
  0
STYLE
  5
11
330
3
100
AcDbSymbolTableRecord
100
AcDbTextStyleTableRecord
  2
STANDARD
 70
     0
 40
0.0
 41
1.0
 50
0.0
 71
     0
 42
2.5
  3
txt
  4

  0
ENDTAB
  0
TABLE
  2
VIEW
  5
6
330
0
100
AcDbSymbolTable
 70
     0
  0
ENDTAB
  0
TABLE
  2
UCS
  5
7
330
0
100
AcDbSymbolTable
 70
     0
  0
ENDTAB
  0
TABLE
  2
APPID
  5
9
330
0
100
AcDbSymbolTable
 70
     2
  0
APPID
  5
12
330
9
100
AcDbSymbolTableRecord
100
AcDbRegAppTableRecord
  2
ACAD
 70
     0
  0
ENDTAB
  0
TABLE
  2
DIMSTYLE
  5
A
330
0
100
AcDbSymbolTable
 70
     1
  0
DIMSTYLE
105
27
330
A
100
AcDbSymbolTableRecord
100
AcDbDimStyleTableRecord
  2
ISO-25
 70
     0
  3

  4

  5

  6

  7

 40
1.0
 41
2.5
 42
0.625
 43
3.75
 44
1.25
 45
0.0
 46
0.0
 47
0.0
 48
0.0
140
2.5
141
2.5
142
0.0
143
0.03937007874016
144
1.0
145
0.0
146
1.0
147
0.625
 71
     0
 72
     0
 73
     0
 74
     0
 75
     0
 76
     0
 77
     1
 78
     8
170
     0
171
     3
172
     1
173
     0
174
     0
175
     0
176
     0
177
     0
178
     0
270
     2
271
     2
272
     2
273
     2
274
     3
340
11
275
     0
280
     0
281
     0
282
     0
283
     0
284
     8
285
     0
286
     0
287
     3
288
     0
  0
ENDTAB
  0
TABLE
  2
BLOCK_RECORD
  5
1
330
0
100
AcDbSymbolTable
 70
     1
  0
BLOCK_RECORD
  5
1F
330
1
100
AcDbSymbolTableRecord
100
AcDbBlockTableRecord
  2
*MODEL_SPACE
  0
BLOCK_RECORD
  5
1B
330
1
100
AcDbSymbolTableRecord
100
AcDbBlockTableRecord
  2
*PAPER_SPACE
  0
ENDTAB
  0
ENDSEC
  0
SECTION
  2
BLOCKS
  0
BLOCK
  5
20
330
1F
100
AcDbEntity
  8
0
100
AcDbBlockBegin
  2
*MODEL_SPACE
 70
     0
 10
0.0
 20
0.0
 30
0.0
  3
*MODEL_SPACE
  1

  0
ENDBLK
  5
21
330
1F
100
AcDbEntity
  8
0
100
AcDbBlockEnd
  0
BLOCK
  5
1C
330
1B
100
AcDbEntity
 67
     1
  8
0
100
AcDbBlockBegin
  2
*PAPER_SPACE
  1

  0
ENDBLK
  5
1D
330
1B
100
AcDbEntity
 67
     1
  8
0
100
AcDbBlockEnd
  0
ENDSEC
  0
SECTION
  2
ENTITIES
  0
LINE
  5
100
100
AcDbEntity
  8
1_TOE_1
 62
6
100
AcDbLine
 10
182.574790
 20
463.417861
 30
0.0
 11
182.038050
 21
438.459676
 31
0.0
  0
LINE
  5
101
100
AcDbEntity
  8
1_TOE_1
 62
6
100
AcDbLine
 10
182.038050
 20
438.459676
 30
0.0
 11
179.622750
 21
413.501489
 31
0.0
  0
LINE
  5
102
100
AcDbEntity
  8
1_TOE_1
 62
6
100
AcDbLine
 10
179.622750
 20
413.501489
 30
0.0
 11
173.718660
 21
386.664730
 31
0.0
  0
LINE
  5
103
100
AcDbEntity
  8
1_TOE_1
 62
6
100
AcDbLine
 10
173.718660
 20
386.664730
 30
0.0
 11
164.862530
 21
364.390221
 31
0.0
  0
LINE
  5
104
100
AcDbEntity
  8
1_TOE_1
 62
6
100
AcDbLine
 10
164.862530
 20
364.390221
 30
0.0
 11
151.175780
 21
334.333049
 31
0.0
  0
LINE
  5
105
100
AcDbEntity
  8
1_TOE_1
 62
6
100
AcDbLine
 10
151.175780
 20
334.333049
 30
0.0
 11
137.220670
 21
312.058538
 31
0.0
  0
LINE
  5
106
100
AcDbEntity
  8
1_TOE_1
 62
6
100
AcDbLine
 10
137.220670
 20
312.058538
 30
0.0
 11
126.754330
 21
298.103424
 31
0.0
  0
LINE
  5
107
100
AcDbEntity
  8
1_TOE_1
 62
6
100
AcDbLine
 10
126.754330
 20
298.103424
 30
0.0
 11
114.946150
 21
291.394240
 31
0.0
  0
LINE
  5
108
100
AcDbEntity
  8
1_TOE_1
 62
6
100
AcDbLine
 10
114.946150
 20
291.394240
 30
0.0
 11
103.406350
 21
289.784030
 31
0.0
  0
LINE
  5
109
100
AcDbEntity
  8
1_TOE_1
 62
6
100
AcDbLine
 10
103.406350
 20
289.784030
 30
0.0
 11
91.061439
 21
290.320760
 31
0.0
  0
LINE
  5
10a
100
AcDbEntity
  8
1_TOE_1
 62
6
100
AcDbLine
 10
91.061439
 20
290.320760
 30
0.0
 11
77.911426
 21
294.614647
 31
0.0
  0
LINE
  5
10b
100
AcDbEntity
  8
1_TOE_1
 62
6
100
AcDbLine
 10
77.911426
 20
294.614647
 30
0.0
 11
69.592031
 21
305.617717
 31
0.0
  0
LINE
  5
10c
100
AcDbEntity
  8
1_TOE_1
 62
6
100
AcDbLine
 10
69.592031
 20
305.617717
 30
0.0
 11
58.588961
 21
330.039169
 31
0.0
  0
LINE
  5
10d
100
AcDbEntity
  8
1_TOE_1
 62
6
100
AcDbLine
 10
58.588961
 20
330.039169
 30
0.0
 11
50.269564
 21
354.192251
 31
0.0
  0
LINE
  5
10e
100
AcDbEntity
  8
1_TOE_1
 62
6
100
AcDbLine
 10
50.269564
 20
354.192251
 30
0.0
 11
41.681803
 21
383.175951
 31
0.0
  0
LINE
  5
10f
100
AcDbEntity
  8
1_TOE_1
 62
6
100
AcDbLine
 10
41.681803
 20
383.175951
 30
0.0
 11
36.314449
 21
405.718829
 31
0.0
  0
LINE
  5
110
100
AcDbEntity
  8
1_TOE_1
 62
6
100
AcDbLine
 10
36.314449
 20
405.718829
 30
0.0
 11
31.215466
 21
432.823956
 31
0.0
  0
LINE
  5
111
100
AcDbEntity
  8
1_TOE_1
 62
6
100
AcDbLine
 10
31.215466
 20
432.823956
 30
0.0
 11
28.800158
 21
452.951524
 31
0.0
  0
LINE
  5
112
100
AcDbEntity
  8
1_TOE_1
 62
6
100
AcDbLine
 10
28.800158
 20
452.951524
 30
0.0
 11
27.754582
 21
475.784884
 31
0.0
  0
LINE
  5
113
100
AcDbEntity
  8
1_TOE_1
 62
6
100
AcDbLine
 10
27.754582
 20
475.784884
 30
0.0
 11
33.912308
 21
474.878238
 31
0.0
  0
LINE
  5
114
100
AcDbEntity
  8
1_TOE_1
 62
6
100
AcDbLine
 10
33.912308
 20
474.878238
 30
0.0
 11
39.856389
 21
471.534693
 31
0.0
  0
LINE
  5
115
100
AcDbEntity
  8
1_TOE_1
 62
6
100
AcDbLine
 10
39.856389
 20
471.534693
 30
0.0
 11
43.757194
 21
465.404858
 31
0.0
  0
LINE
  5
116
100
AcDbEntity
  8
1_TOE_1
 62
6
100
AcDbLine
 10
43.757194
 20
465.404858
 30
0.0
 11
47.657997
 21
455.745728
 31
0.0
  0
LINE
  5
117
100
AcDbEntity
  8
1_TOE_1
 62
6
100
AcDbLine
 10
47.657997
 20
455.745728
 30
0.0
 11
53.602078
 21
443.486058
 31
0.0
  0
LINE
  5
118
100
AcDbEntity
  8
1_TOE_1
 62
6
100
AcDbLine
 10
53.602078
 20
443.486058
 30
0.0
 11
57.874387
 21
436.427462
 31
0.0
  0
LINE
  5
119
100
AcDbEntity
  8
1_TOE_1
 62
6
100
AcDbLine
 10
57.874387
 20
436.427462
 30
0.0
 11
63.261208
 21
432.340906
 31
0.0
  0
LINE
  5
11a
100
AcDbEntity
  8
1_TOE_1
 62
6
100
AcDbLine
 10
63.261208
 20
432.340906
 30
0.0
 11
69.205290
 21
431.226391
 31
0.0
  0
LINE
  5
11b
100
AcDbEntity
  8
1_TOE_1
 62
6
100
AcDbLine
 10
69.205290
 20
431.226391
 30
0.0
 11
75.149371
 21
433.083917
 31
0.0
  0
LINE
  5
11c
100
AcDbEntity
  8
1_TOE_1
 62
6
100
AcDbLine
 10
75.149371
 20
433.083917
 30
0.0
 11
77.378401
 21
438.470741
 31
0.0
  0
LINE
  5
11d
100
AcDbEntity
  8
1_TOE_1
 62
6
100
AcDbLine
 10
77.378401
 20
438.470741
 30
0.0
 11
77.378401
 21
448.315625
 31
0.0
  0
LINE
  5
11e
100
AcDbEntity
  8
1_TOE_1
 62
6
100
AcDbLine
 10
77.378401
 20
448.315625
 30
0.0
 11
77.192651
 21
453.702449
 31
0.0
  0
LINE
  5
11f
100
AcDbEntity
  8
1_TOE_1
 62
6
100
AcDbLine
 10
77.192651
 20
453.702449
 30
0.0
 11
80.350442
 21
458.160508
 31
0.0
  0
LINE
  5
120
100
AcDbEntity
  8
1_TOE_1
 62
6
100
AcDbLine
 10
80.350442
 20
458.160508
 30
0.0
 11
85.923019
 21
460.018034
 31
0.0
  0
LINE
  5
121
100
AcDbEntity
  8
1_TOE_1
 62
6
100
AcDbLine
 10
85.923019
 20
460.018034
 30
0.0
 11
94.467635
 21
459.089273
 31
0.0
  0
LINE
  5
122
100
AcDbEntity
  8
1_TOE_1
 62
6
100
AcDbLine
 10
94.467635
 20
459.089273
 30
0.0
 11
104.869780
 21
456.860243
 31
0.0
  0
LINE
  5
123
100
AcDbEntity
  8
1_TOE_1
 62
6
100
AcDbLine
 10
104.869780
 20
456.860243
 30
0.0
 11
115.829180
 21
456.860243
 31
0.0
  0
LINE
  5
124
100
AcDbEntity
  8
1_TOE_1
 62
6
100
AcDbLine
 10
115.829180
 20
456.860243
 30
0.0
 11
128.088840
 21
458.903519
 31
0.0
  0
LINE
  5
125
100
AcDbEntity
  8
1_TOE_1
 62
6
100
AcDbLine
 10
128.088840
 20
458.903519
 30
0.0
 11
134.404430
 21
457.974758
 31
0.0
  0
LINE
  5
126
100
AcDbEntity
  8
1_TOE_1
 62
6
100
AcDbLine
 10
134.404430
 20
457.974758
 30
0.0
 11
136.633460
 21
453.516695
 31
0.0
  0
LINE
  5
127
100
AcDbEntity
  8
1_TOE_1
 62
6
100
AcDbLine
 10
136.633460
 20
453.516695
 30
0.0
 11
137.562220
 21
446.829606
 31
0.0
  0
LINE
  5
128
100
AcDbEntity
  8
1_TOE_1
 62
6
100
AcDbLine
 10
137.562220
 20
446.829606
 30
0.0
 11
134.404430
 21
443.857565
 31
0.0
  0
LINE
  5
129
100
AcDbEntity
  8
1_TOE_1
 62
6
100
AcDbLine
 10
134.404430
 20
443.857565
 30
0.0
 11
134.590180
 21
436.427462
 31
0.0
  0
LINE
  5
12a
100
AcDbEntity
  8
1_TOE_1
 62
6
100
AcDbLine
 10
134.590180
 20
436.427462
 30
0.0
 11
138.490990
 21
429.368865
 31
0.0
  0
LINE
  5
12b
100
AcDbEntity
  8
1_TOE_1
 62
6
100
AcDbLine
 10
138.490990
 20
429.368865
 30
0.0
 11
144.620820
 21
427.882846
 31
0.0
  0
LINE
  5
12c
100
AcDbEntity
  8
1_TOE_1
 62
6
100
AcDbLine
 10
144.620820
 20
427.882846
 30
0.0
 11
152.422430
 21
431.969402
 31
0.0
  0
LINE
  5
12d
100
AcDbEntity
  8
1_TOE_1
 62
6
100
AcDbLine
 10
152.422430
 20
431.969402
 30
0.0
 11
159.295270
 21
442.557297
 31
0.0
  0
LINE
  5
12e
100
AcDbEntity
  8
1_TOE_1
 62
6
100
AcDbLine
 10
159.295270
 20
442.557297
 30
0.0
 11
165.610860
 21
456.674489
 31
0.0
  0
LINE
  5
12f
100
AcDbEntity
  8
1_TOE_1
 62
6
100
AcDbLine
 10
165.610860
 20
456.674489
 30
0.0
 11
171.183430
 21
469.677167
 31
0.0
  0
LINE
  5
130
100
AcDbEntity
  8
1_TOE_1
 62
6
100
AcDbLine
 10
171.183430
 20
469.677167
 30
0.0
 11
176.013000
 21
473.949476
 31
0.0
  0
LINE
  5
131
100
AcDbEntity
  8
1_TOE_1
 62
6
100
AcDbLine
 10
176.013000
 20
473.949476
 30
0.0
 11
179.728050
 21
474.692485
 31
0.0
  0
LINE
  5
132
100
AcDbEntity
  8
1_TOE_1
 62
6
100
AcDbLine
 10
179.728050
 20
474.692485
 30
0.0
 11
182.864500
 21
474.556709
 31
0.0
  0
LINE
  5
133
100
AcDbEntity
  8
1_TOE_1
 62
6
100
AcDbLine
 10
182.864500
 20
474.556709
 30
0.0
 11
182.574790
 21
463.417861
 31
0.0
  0
LINE
  5
134
100
AcDbEntity
  8
1_TOE_2
 62
4
100
AcDbLine
 10
13.162979
 20
475.181294
 30
0.0
 11
15.073841
 21
443.413218
 31
0.0
  0
LINE
  5
135
100
AcDbEntity
  8
1_TOE_2
 62
4
100
AcDbLine
 10
15.073841
 20
443.413218
 30
0.0
 11
19.612137
 21
415.705726
 31
0.0
  0
LINE
  5
136
100
AcDbEntity
  8
1_TOE_2
 62
4
100
AcDbLine
 10
19.612137
 20
415.705726
 30
0.0
 11
30.599592
 21
376.055347
 31
0.0
  0
LINE
  5
137
100
AcDbEntity
  8
1_TOE_2
 62
4
100
AcDbLine
 10
30.599592
 20
376.055347
 30
0.0
 11
43.736766
 21
336.643825
 31
0.0
  0
LINE
  5
138
100
AcDbEntity
  8
1_TOE_2
 62
4
100
AcDbLine
 10
43.736766
 20
336.643825
 30
0.0
 11
57.112797
 21
304.398036
 31
0.0
  0
LINE
  5
139
100
AcDbEntity
  8
1_TOE_2
 62
4
100
AcDbLine
 10
57.112797
 20
304.398036
 30
0.0
 11
64.995100
 21
289.827720
 31
0.0
  0
LINE
  5
13a
100
AcDbEntity
  8
1_TOE_2
 62
4
100
AcDbLine
 10
64.995100
 20
289.827720
 30
0.0
 11
72.877405
 21
283.139700
 31
0.0
  0
LINE
  5
13b
100
AcDbEntity
  8
1_TOE_2
 62
4
100
AcDbLine
 10
72.877405
 20
283.139700
 30
0.0
 11
91.269447
 21
278.362550
 31
0.0
  0
LINE
  5
13c
100
AcDbEntity
  8
1_TOE_2
 62
4
100
AcDbLine
 10
91.269447
 20
278.362550
 30
0.0
 11
113.722070
 21
278.601400
 31
0.0
  0
LINE
  5
13d
100
AcDbEntity
  8
1_TOE_2
 62
4
100
AcDbLine
 10
113.722070
 20
278.601400
 30
0.0
 11
129.486680
 21
284.095130
 31
0.0
  0
LINE
  5
13e
100
AcDbEntity
  8
1_TOE_2
 62
4
100
AcDbLine
 10
129.486680
 20
284.095130
 30
0.0
 11
139.518700
 21
291.260860
 31
0.0
  0
LINE
  5
13f
100
AcDbEntity
  8
1_TOE_2
 62
4
100
AcDbLine
 10
139.518700
 20
291.260860
 30
0.0
 11
148.117580
 21
307.025470
 31
0.0
  0
LINE
  5
140
100
AcDbEntity
  8
1_TOE_2
 62
4
100
AcDbLine
 10
148.117580
 20
307.025470
 30
0.0
 11
164.359900
 21
336.643825
 31
0.0
  0
LINE
  5
141
100
AcDbEntity
  8
1_TOE_2
 62
4
100
AcDbLine
 10
164.359900
 20
336.643825
 30
0.0
 11
176.302790
 21
362.440459
 31
0.0
  0
LINE
  5
142
100
AcDbEntity
  8
1_TOE_2
 62
4
100
AcDbLine
 10
176.302790
 20
362.440459
 30
0.0
 11
185.140520
 21
385.370797
 31
0.0
  0
LINE
  5
143
100
AcDbEntity
  8
1_TOE_2
 62
4
100
AcDbLine
 10
185.140520
 20
385.370797
 30
0.0
 11
189.917680
 21
402.329694
 31
0.0
  0
LINE
  5
144
100
AcDbEntity
  8
1_TOE_2
 62
4
100
AcDbLine
 10
189.917680
 20
402.329694
 30
0.0
 11
192.783970
 21
427.170895
 31
0.0
  0
LINE
  5
145
100
AcDbEntity
  8
1_TOE_2
 62
4
100
AcDbLine
 10
192.783970
 20
427.170895
 30
0.0
 11
194.933690
 21
460.372116
 31
0.0
  0
LINE
  5
146
100
AcDbEntity
  8
1_TOE_2
 62
4
100
AcDbLine
 10
194.933690
 20
460.372116
 30
0.0
 11
194.694830
 21
472.553857
 31
0.0
  0
LINE
  5
147
100
AcDbEntity
  8
2_SIDES_1
 62
6
100
AcDbLine
 10
88.093809
 20
17.824850
 30
0.0
 11
76.166416
 21
43.903370
 31
0.0
  0
LINE
  5
148
100
AcDbEntity
  8
2_SIDES_1
 62
6
100
AcDbLine
 10
76.166416
 20
43.903370
 30
0.0
 11
61.206639
 21
75.642360
 31
0.0
  0
LINE
  5
149
100
AcDbEntity
  8
2_SIDES_1
 62
6
100
AcDbLine
 10
61.206639
 20
75.642360
 30
0.0
 11
46.651178
 21
103.338180
 31
0.0
  0
LINE
  5
14a
100
AcDbEntity
  8
2_SIDES_1
 62
6
100
AcDbLine
 10
46.651178
 20
103.338180
 30
0.0
 11
37.351857
 21
121.330350
 31
0.0
  0
LINE
  5
14b
100
AcDbEntity
  8
2_SIDES_1
 62
6
100
AcDbLine
 10
37.351857
 20
121.330350
 30
0.0
 11
42.203677
 21
124.362740
 31
0.0
  0
LINE
  5
14c
100
AcDbEntity
  8
2_SIDES_1
 62
6
100
AcDbLine
 10
42.203677
 20
124.362740
 30
0.0
 11
44.831747
 21
130.427510
 31
0.0
  0
LINE
  5
14d
100
AcDbEntity
  8
2_SIDES_1
 62
6
100
AcDbLine
 10
44.831747
 20
130.427510
 30
0.0
 11
44.225269
 21
139.726830
 31
0.0
  0
LINE
  5
14e
100
AcDbEntity
  8
2_SIDES_1
 62
6
100
AcDbLine
 10
44.225269
 20
139.726830
 30
0.0
 11
40.788561
 21
164.390250
 31
0.0
  0
LINE
  5
14f
100
AcDbEntity
  8
2_SIDES_1
 62
6
100
AcDbLine
 10
40.788561
 20
164.390250
 30
0.0
 11
40.788561
 21
172.678770
 31
0.0
  0
LINE
  5
150
100
AcDbEntity
  8
2_SIDES_1
 62
6
100
AcDbLine
 10
40.788561
 20
172.678770
 30
0.0
 11
42.001517
 21
177.530590
 31
0.0
  0
LINE
  5
151
100
AcDbEntity
  8
2_SIDES_1
 62
6
100
AcDbLine
 10
42.001517
 20
177.530590
 30
0.0
 11
44.427426
 21
181.573780
 31
0.0
  0
LINE
  5
152
100
AcDbEntity
  8
2_SIDES_1
 62
6
100
AcDbLine
 10
44.427426
 20
181.573780
 30
0.0
 11
62.419593
 21
155.090930
 31
0.0
  0
LINE
  5
153
100
AcDbEntity
  8
2_SIDES_1
 62
6
100
AcDbLine
 10
62.419593
 20
155.090930
 30
0.0
 11
77.783690
 21
132.449100
 31
0.0
  0
LINE
  5
154
100
AcDbEntity
  8
2_SIDES_1
 62
6
100
AcDbLine
 10
77.783690
 20
132.449100
 30
0.0
 11
90.721878
 21
114.659090
 31
0.0
  0
LINE
  5
155
100
AcDbEntity
  8
2_SIDES_1
 62
6
100
AcDbLine
 10
90.721878
 20
114.659090
 30
0.0
 11
88.295969
 21
110.615910
 31
0.0
  0
LINE
  5
156
100
AcDbEntity
  8
2_SIDES_1
 62
6
100
AcDbLine
 10
88.295969
 20
110.615910
 30
0.0
 11
85.061422
 21
101.518750
 31
0.0
  0
LINE
  5
157
100
AcDbEntity
  8
2_SIDES_1
 62
6
100
AcDbLine
 10
85.061422
 20
101.518750
 30
0.0
 11
82.635511
 21
89.995660
 31
0.0
  0
LINE
  5
158
100
AcDbEntity
  8
2_SIDES_1
 62
6
100
AcDbLine
 10
82.635511
 20
89.995660
 30
0.0
 11
82.029033
 21
80.494190
 31
0.0
  0
LINE
  5
159
100
AcDbEntity
  8
2_SIDES_1
 62
6
100
AcDbLine
 10
82.029033
 20
80.494190
 30
0.0
 11
82.635511
 21
66.140880
 31
0.0
  0
LINE
  5
15a
100
AcDbEntity
  8
2_SIDES_1
 62
6
100
AcDbLine
 10
82.635511
 20
66.140880
 30
0.0
 11
84.859262
 21
51.989750
 31
0.0
  0
LINE
  5
15b
100
AcDbEntity
  8
2_SIDES_1
 62
6
100
AcDbLine
 10
84.859262
 20
51.989750
 30
0.0
 11
87.487331
 21
41.477460
 31
0.0
  0
LINE
  5
15c
100
AcDbEntity
  8
2_SIDES_1
 62
6
100
AcDbLine
 10
87.487331
 20
41.477460
 30
0.0
 11
92.743470
 21
25.709060
 31
0.0
  0
LINE
  5
15d
100
AcDbEntity
  8
2_SIDES_1
 62
6
100
AcDbLine
 10
92.743470
 20
25.709060
 30
0.0
 11
94.158583
 21
20.655070
 31
0.0
  0
LINE
  5
15e
100
AcDbEntity
  8
2_SIDES_1
 62
6
100
AcDbLine
 10
94.158583
 20
20.655070
 30
0.0
 11
88.093809
 21
17.824850
 31
0.0
  0
LINE
  5
15f
100
AcDbEntity
  8
2_SIDES_1
 62
6
100
AcDbLine
 10
133.579620
 20
21.665880
 30
0.0
 11
137.218490
 21
34.604060
 31
0.0
  0
LINE
  5
160
100
AcDbEntity
  8
2_SIDES_1
 62
6
100
AcDbLine
 10
137.218490
 20
34.604060
 30
0.0
 11
144.294060
 21
53.607020
 31
0.0
  0
LINE
  5
161
100
AcDbEntity
  8
2_SIDES_1
 62
6
100
AcDbLine
 10
144.294060
 20
53.607020
 30
0.0
 11
152.582590
 21
73.216450
 31
0.0
  0
LINE
  5
162
100
AcDbEntity
  8
2_SIDES_1
 62
6
100
AcDbLine
 10
152.582590
 20
73.216450
 30
0.0
 11
162.892700
 21
97.071230
 31
0.0
  0
LINE
  5
163
100
AcDbEntity
  8
2_SIDES_1
 62
6
100
AcDbLine
 10
162.892700
 20
97.071230
 30
0.0
 11
170.372590
 21
114.254780
 31
0.0
  0
LINE
  5
164
100
AcDbEntity
  8
2_SIDES_1
 62
6
100
AcDbLine
 10
170.372590
 20
114.254780
 30
0.0
 11
175.022250
 21
123.958400
 31
0.0
  0
LINE
  5
165
100
AcDbEntity
  8
2_SIDES_1
 62
6
100
AcDbLine
 10
175.022250
 20
123.958400
 30
0.0
 11
170.574750
 21
126.788650
 31
0.0
  0
LINE
  5
166
100
AcDbEntity
  8
2_SIDES_1
 62
6
100
AcDbLine
 10
170.574750
 20
126.788650
 30
0.0
 11
166.531570
 21
132.044780
 31
0.0
  0
LINE
  5
167
100
AcDbEntity
  8
2_SIDES_1
 62
6
100
AcDbLine
 10
166.531570
 20
132.044780
 30
0.0
 11
164.712140
 21
138.311710
 31
0.0
  0
LINE
  5
168
100
AcDbEntity
  8
2_SIDES_1
 62
6
100
AcDbLine
 10
164.712140
 20
138.311710
 30
0.0
 11
166.935890
 21
152.462860
 31
0.0
  0
LINE
  5
169
100
AcDbEntity
  8
2_SIDES_1
 62
6
100
AcDbLine
 10
166.935890
 20
152.462860
 30
0.0
 11
169.159640
 21
163.177290
 31
0.0
  0
LINE
  5
16a
100
AcDbEntity
  8
2_SIDES_1
 62
6
100
AcDbLine
 10
169.159640
 20
163.177290
 30
0.0
 11
169.766120
 21
172.678770
 31
0.0
  0
LINE
  5
16b
100
AcDbEntity
  8
2_SIDES_1
 62
6
100
AcDbLine
 10
169.766120
 20
172.678770
 30
0.0
 11
168.553160
 21
178.339230
 31
0.0
  0
LINE
  5
16c
100
AcDbEntity
  8
2_SIDES_1
 62
6
100
AcDbLine
 10
168.553160
 20
178.339230
 30
0.0
 11
167.138050
 21
180.967300
 31
0.0
  0
LINE
  5
16d
100
AcDbEntity
  8
2_SIDES_1
 62
6
100
AcDbLine
 10
167.138050
 20
180.967300
 30
0.0
 11
164.509980
 21
182.786730
 31
0.0
  0
LINE
  5
16e
100
AcDbEntity
  8
2_SIDES_1
 62
6
100
AcDbLine
 10
164.509980
 20
182.786730
 30
0.0
 11
153.189060
 21
167.018320
 31
0.0
  0
LINE
  5
16f
100
AcDbEntity
  8
2_SIDES_1
 62
6
100
AcDbLine
 10
153.189060
 20
167.018320
 30
0.0
 11
134.590420
 21
137.907400
 31
0.0
  0
LINE
  5
170
100
AcDbEntity
  8
2_SIDES_1
 62
6
100
AcDbLine
 10
134.590420
 20
137.907400
 30
0.0
 11
121.247910
 21
117.691480
 31
0.0
  0
LINE
  5
171
100
AcDbEntity
  8
2_SIDES_1
 62
6
100
AcDbLine
 10
121.247910
 20
117.691480
 30
0.0
 11
123.471660
 21
112.839660
 31
0.0
  0
LINE
  5
172
100
AcDbEntity
  8
2_SIDES_1
 62
6
100
AcDbLine
 10
123.471660
 20
112.839660
 30
0.0
 11
125.493260
 21
103.540350
 31
0.0
  0
LINE
  5
173
100
AcDbEntity
  8
2_SIDES_1
 62
6
100
AcDbLine
 10
125.493260
 20
103.540350
 30
0.0
 11
127.514850
 21
89.995660
 31
0.0
  0
LINE
  5
174
100
AcDbEntity
  8
2_SIDES_1
 62
6
100
AcDbLine
 10
127.514850
 20
89.995660
 30
0.0
 11
127.919170
 21
74.429410
 31
0.0
  0
LINE
  5
175
100
AcDbEntity
  8
2_SIDES_1
 62
6
100
AcDbLine
 10
127.919170
 20
74.429410
 30
0.0
 11
128.121320
 21
58.256670
 31
0.0
  0
LINE
  5
176
100
AcDbEntity
  8
2_SIDES_1
 62
6
100
AcDbLine
 10
128.121320
 20
58.256670
 30
0.0
 11
128.525650
 21
45.116330
 31
0.0
  0
LINE
  5
177
100
AcDbEntity
  8
2_SIDES_1
 62
6
100
AcDbLine
 10
128.525650
 20
45.116330
 30
0.0
 11
127.919170
 21
34.604060
 31
0.0
  0
LINE
  5
178
100
AcDbEntity
  8
2_SIDES_1
 62
6
100
AcDbLine
 10
127.919170
 20
34.604060
 30
0.0
 11
125.493260
 21
23.283150
 31
0.0
  0
LINE
  5
179
100
AcDbEntity
  8
2_SIDES_1
 62
6
100
AcDbLine
 10
125.493260
 20
23.283150
 30
0.0
 11
133.579620
 21
21.665880
 31
0.0
  0
LINE
  5
17a
100
AcDbEntity
  8
2_SIDES_2
 62
4
100
AcDbLine
 10
25.222305
 20
115.467740
 30
0.0
 11
35.330263
 21
95.858280
 31
0.0
  0
LINE
  5
17b
100
AcDbEntity
  8
2_SIDES_2
 62
4
100
AcDbLine
 10
35.330263
 20
95.858280
 30
0.0
 11
47.257656
 21
69.577580
 31
0.0
  0
LINE
  5
17c
100
AcDbEntity
  8
2_SIDES_2
 62
4
100
AcDbLine
 10
47.257656
 20
69.577580
 30
0.0
 11
60.600162
 21
43.499060
 31
0.0
  0
LINE
  5
17d
100
AcDbEntity
  8
2_SIDES_2
 62
4
100
AcDbLine
 10
60.600162
 20
43.499060
 30
0.0
 11
68.888687
 21
21.261550
 31
0.0
  0
LINE
  5
17e
100
AcDbEntity
  8
2_SIDES_2
 62
4
100
AcDbLine
 10
68.888687
 20
21.261550
 30
0.0
 11
71.921074
 21
13.579500
 31
0.0
  0
LINE
  5
17f
100
AcDbEntity
  8
2_SIDES_2
 62
4
100
AcDbLine
 10
186.141010
 20
117.085000
 30
0.0
 11
177.852480
 21
96.464750
 31
0.0
  0
LINE
  5
180
100
AcDbEntity
  8
2_SIDES_2
 62
4
100
AcDbLine
 10
177.852480
 20
96.464750
 30
0.0
 11
167.744530
 21
72.812140
 31
0.0
  0
LINE
  5
181
100
AcDbEntity
  8
2_SIDES_2
 62
4
100
AcDbLine
 10
167.744530
 20
72.812140
 30
0.0
 11
157.434410
 21
49.159530
 31
0.0
  0
LINE
  5
182
100
AcDbEntity
  8
2_SIDES_2
 62
4
100
AcDbLine
 10
157.434410
 20
49.159530
 30
0.0
 11
152.582590
 21
35.008370
 31
0.0
  0
LINE
  5
183
100
AcDbEntity
  8
2_SIDES_2
 62
4
100
AcDbLine
 10
152.582590
 20
35.008370
 30
0.0
 11
148.337240
 21
18.835630
 31
0.0
  0
LINE
  5
184
100
AcDbEntity
  8
3_HEEL_1
 62
6
100
AcDbLine
 10
30.949173
 20
225.492880
 30
0.0
 11
33.172260
 21
217.573140
 31
0.0
  0
LINE
  5
185
100
AcDbEntity
  8
3_HEEL_1
 62
6
100
AcDbLine
 10
33.172260
 20
217.573140
 30
0.0
 11
37.340546
 21
207.152430
 31
0.0
  0
LINE
  5
186
100
AcDbEntity
  8
3_HEEL_1
 62
6
100
AcDbLine
 10
37.340546
 20
207.152430
 30
0.0
 11
41.369888
 21
200.205280
 31
0.0
  0
LINE
  5
187
100
AcDbEntity
  8
3_HEEL_1
 62
6
100
AcDbLine
 10
41.369888
 20
200.205280
 30
0.0
 11
45.955001
 21
193.813910
 31
0.0
  0
LINE
  5
188
100
AcDbEntity
  8
3_HEEL_1
 62
6
100
AcDbLine
 10
45.955001
 20
193.813910
 30
0.0
 11
52.485317
 21
186.866770
 31
0.0
  0
LINE
  5
189
100
AcDbEntity
  8
3_HEEL_1
 62
6
100
AcDbLine
 10
52.485317
 20
186.866770
 30
0.0
 11
60.405058
 21
179.502800
 31
0.0
  0
LINE
  5
18a
100
AcDbEntity
  8
3_HEEL_1
 62
6
100
AcDbLine
 10
60.405058
 20
179.502800
 30
0.0
 11
68.324802
 21
174.639800
 31
0.0
  0
LINE
  5
18b
100
AcDbEntity
  8
3_HEEL_1
 62
6
100
AcDbLine
 10
68.324802
 20
174.639800
 30
0.0
 11
75.688772
 21
170.610460
 31
0.0
  0
LINE
  5
18c
100
AcDbEntity
  8
3_HEEL_1
 62
6
100
AcDbLine
 10
75.688772
 20
170.610460
 30
0.0
 11
84.164286
 21
167.553710
 31
0.0
  0
LINE
  5
18d
100
AcDbEntity
  8
3_HEEL_1
 62
6
100
AcDbLine
 10
84.164286
 20
167.553710
 30
0.0
 11
95.418656
 21
164.635920
 31
0.0
  0
LINE
  5
18e
100
AcDbEntity
  8
3_HEEL_1
 62
6
100
AcDbLine
 10
95.418656
 20
164.635920
 30
0.0
 11
99.447998
 21
164.358030
 31
0.0
  0
LINE
  5
18f
100
AcDbEntity
  8
3_HEEL_1
 62
6
100
AcDbLine
 10
99.447998
 20
164.358030
 30
0.0
 11
108.618230
 21
165.330630
 31
0.0
  0
LINE
  5
190
100
AcDbEntity
  8
3_HEEL_1
 62
6
100
AcDbLine
 10
108.618230
 20
165.330630
 30
0.0
 11
118.344230
 21
167.553710
 31
0.0
  0
LINE
  5
191
100
AcDbEntity
  8
3_HEEL_1
 62
6
100
AcDbLine
 10
118.344230
 20
167.553710
 30
0.0
 11
129.598600
 21
173.667200
 31
0.0
  0
LINE
  5
192
100
AcDbEntity
  8
3_HEEL_1
 62
6
100
AcDbLine
 10
129.598600
 20
173.667200
 30
0.0
 11
138.490940
 21
180.336460
 31
0.0
  0
LINE
  5
193
100
AcDbEntity
  8
3_HEEL_1
 62
6
100
AcDbLine
 10
138.490940
 20
180.336460
 30
0.0
 11
146.827510
 21
187.978310
 31
0.0
  0
LINE
  5
194
100
AcDbEntity
  8
3_HEEL_1
 62
6
100
AcDbLine
 10
146.827510
 20
187.978310
 30
0.0
 11
152.941000
 21
193.674970
 31
0.0
  0
LINE
  5
195
100
AcDbEntity
  8
3_HEEL_1
 62
6
100
AcDbLine
 10
152.941000
 20
193.674970
 30
0.0
 11
160.027080
 21
202.706260
 31
0.0
  0
LINE
  5
196
100
AcDbEntity
  8
3_HEEL_1
 62
6
100
AcDbLine
 10
160.027080
 20
202.706260
 30
0.0
 11
165.584790
 21
210.209170
 31
0.0
  0
LINE
  5
197
100
AcDbEntity
  8
3_HEEL_1
 62
6
100
AcDbLine
 10
165.584790
 20
210.209170
 30
0.0
 11
170.725680
 21
218.823630
 31
0.0
  0
LINE
  5
198
100
AcDbEntity
  8
3_HEEL_1
 62
6
100
AcDbLine
 10
170.725680
 20
218.823630
 30
0.0
 11
162.111230
 21
217.295260
 31
0.0
  0
LINE
  5
199
100
AcDbEntity
  8
3_HEEL_1
 62
6
100
AcDbLine
 10
162.111230
 20
217.295260
 30
0.0
 11
146.271740
 21
215.766890
 31
0.0
  0
LINE
  5
19a
100
AcDbEntity
  8
3_HEEL_1
 62
6
100
AcDbLine
 10
146.271740
 20
215.766890
 30
0.0
 11
135.573140
 21
215.905830
 31
0.0
  0
LINE
  5
19b
100
AcDbEntity
  8
3_HEEL_1
 62
6
100
AcDbLine
 10
135.573140
 20
215.905830
 30
0.0
 11
129.042830
 21
219.101510
 31
0.0
  0
LINE
  5
19c
100
AcDbEntity
  8
3_HEEL_1
 62
6
100
AcDbLine
 10
129.042830
 20
219.101510
 30
0.0
 11
122.373570
 21
222.019310
 31
0.0
  0
LINE
  5
19d
100
AcDbEntity
  8
3_HEEL_1
 62
6
100
AcDbLine
 10
122.373570
 20
222.019310
 30
0.0
 11
117.788460
 21
221.602490
 31
0.0
  0
LINE
  5
19e
100
AcDbEntity
  8
3_HEEL_1
 62
6
100
AcDbLine
 10
117.788460
 20
221.602490
 30
0.0
 11
104.727830
 21
220.213050
 31
0.0
  0
LINE
  5
19f
100
AcDbEntity
  8
3_HEEL_1
 62
6
100
AcDbLine
 10
104.727830
 20
220.213050
 30
0.0
 11
97.224913
 21
221.046710
 31
0.0
  0
LINE
  5
1a0
100
AcDbEntity
  8
3_HEEL_1
 62
6
100
AcDbLine
 10
97.224913
 20
221.046710
 30
0.0
 11
88.888342
 21
221.880370
 31
0.0
  0
LINE
  5
1a1
100
AcDbEntity
  8
3_HEEL_1
 62
6
100
AcDbLine
 10
88.888342
 20
221.880370
 30
0.0
 11
80.690715
 21
219.935170
 31
0.0
  0
LINE
  5
1a2
100
AcDbEntity
  8
3_HEEL_1
 62
6
100
AcDbLine
 10
80.690715
 20
219.935170
 30
0.0
 11
74.299344
 21
216.322660
 31
0.0
  0
LINE
  5
1a3
100
AcDbEntity
  8
3_HEEL_1
 62
6
100
AcDbLine
 10
74.299344
 20
216.322660
 30
0.0
 11
67.907972
 21
216.461600
 31
0.0
  0
LINE
  5
1a4
100
AcDbEntity
  8
3_HEEL_1
 62
6
100
AcDbLine
 10
67.907972
 20
216.461600
 30
0.0
 11
56.653602
 21
218.267860
 31
0.0
  0
LINE
  5
1a5
100
AcDbEntity
  8
3_HEEL_1
 62
6
100
AcDbLine
 10
56.653602
 20
218.267860
 30
0.0
 11
42.620372
 21
222.158260
 31
0.0
  0
LINE
  5
1a6
100
AcDbEntity
  8
3_HEEL_1
 62
6
100
AcDbLine
 10
42.620372
 20
222.158260
 30
0.0
 11
30.949173
 21
225.492880
 31
0.0
  0
LINE
  5
1a7
100
AcDbEntity
  8
4_NOTCHES_1
 62
3
100
AcDbLine
 10
82.897950
 20
91.402600
 30
0.0
 11
75.864883
 21
93.939110
 31
0.0
  0
LINE
  5
1a8
100
AcDbEntity
  8
4_NOTCHES_1
 62
3
100
AcDbLine
 10
82.667358
 20
86.098970
 30
0.0
 11
76.095475
 21
87.943700
 31
0.0
  0
LINE
  5
1a9
100
AcDbEntity
  8
4_NOTCHES_1
 62
3
100
AcDbLine
 10
81.860283
 20
79.065900
 30
0.0
 11
73.789552
 21
81.948300
 31
0.0
  0
LINE
  5
1aa
100
AcDbEntity
  8
4_NOTCHES_1
 62
3
100
AcDbLine
 10
127.517570
 20
91.517880
 30
0.0
 11
133.743560
 21
93.939110
 31
0.0
  0
LINE
  5
1ab
100
AcDbEntity
  8
4_NOTCHES_1
 62
3
100
AcDbLine
 10
127.863460
 20
85.637780
 30
0.0
 11
135.242410
 21
88.750790
 31
0.0
  0
LINE
  5
1ac
100
AcDbEntity
  8
4_NOTCHES_1
 62
3
100
AcDbLine
 10
127.863460
 20
79.988260
 30
0.0
 11
137.894220
 21
82.985970
 31
0.0
  0
LINE
  5
1ad
100
AcDbEntity
  8
4_NOTCHES_1
 62
3
100
AcDbLine
 10
101.756790
 20
220.072810
 30
0.0
 11
98.592107
 21
164.082210
 31
0.0
  0
LINE
  5
1ae
100
AcDbEntity
  8
4_NOTCHES_1
 62
3
100
AcDbLine
 10
155.534540
 20
197.129200
 30
0.0
 11
150.000320
 21
201.049270
 31
0.0
  0
LINE
  5
1af
100
AcDbEntity
  8
4_NOTCHES_1
 62
3
100
AcDbLine
 10
151.268580
 20
192.517330
 30
0.0
 11
144.350810
 21
197.359780
 31
0.0
  0
LINE
  5
1b0
100
AcDbEntity
  8
4_NOTCHES_1
 62
3
100
AcDbLine
 10
147.579100
 20
188.943150
 30
0.0
 11
139.738960
 21
194.246780
 31
0.0
  0
LINE
  5
1b1
100
AcDbEntity
  8
4_NOTCHES_1
 62
3
100
AcDbLine
 10
46.810247
 20
192.632630
 30
0.0
 11
52.113870
 21
195.169140
 31
0.0
  0
LINE
  5
1b2
100
AcDbEntity
  8
4_NOTCHES_1
 62
3
100
AcDbLine
 10
42.774880
 20
198.397450
 30
0.0
 11
47.847914
 21
200.588070
 31
0.0
  0
LINE
  5
1b3
100
AcDbEntity
  8
4_NOTCHES_1
 62
3
100
AcDbLine
 10
39.892477
 20
202.778690
 30
0.0
 11
45.080803
 21
204.508140
 31
0.0
  0
LINE
  5
1b4
100
AcDbEntity
  8
4_NOTCHES_1
 62
3
100
AcDbLine
 10
167.064160
 20
153.431940
 30
0.0
 11
161.068760
 21
154.123720
 31
0.0
  0
LINE
  5
1b5
100
AcDbEntity
  8
4_NOTCHES_1
 62
3
100
AcDbLine
 10
166.257080
 20
148.935370
 30
0.0
 11
161.068760
 21
148.935370
 31
0.0
  0
LINE
  5
1b6
100
AcDbEntity
  8
4_NOTCHES_1
 62
3
100
AcDbLine
 10
41.737216
 20
157.006120
 30
0.0
 11
46.579654
 21
155.737860
 31
0.0
  0
LINE
  5
1b7
100
AcDbEntity
  8
4_NOTCHES_1
 62
3
100
AcDbLine
 10
42.544288
 20
151.471910
 30
0.0
 11
46.464360
 21
150.780130
 31
0.0
  0
LINE
  5
1b8
100
AcDbEntity
  8
4_NOTCHES_1
 62
3
100
AcDbLine
 10
67.909447
 20
431.295717
 30
0.0
 11
68.024742
 21
422.417912
 31
0.0
  0
LINE
  5
1b9
100
AcDbEntity
  8
4_NOTCHES_1
 62
3
100
AcDbLine
 10
144.120220
 20
427.836833
 30
0.0
 11
143.428440
 21
417.460176
 31
0.0
  0
LINE
  5
1ba
100
AcDbEntity
  8
4_NOTCHES_1
 62
3
100
AcDbLine
 10
163.259380
 20
451.126659
 30
0.0
 11
168.332420
 21
446.399515
 31
0.0
  0
LINE
  5
1bb
100
AcDbEntity
  8
4_NOTCHES_1
 62
3
100
AcDbLine
 10
48.193801
 20
453.778472
 30
0.0
 11
43.581954
 21
450.088995
 31
0.0
  0
LINE
  5
1bc
100
AcDbEntity
  8
4_NOTCHES_1
 62
3
100
AcDbLine
 10
46.694952
 20
457.352654
 30
0.0
 11
40.584254
 21
454.931433
 31
0.0
  0
LINE
  5
1bd
100
AcDbEntity
  8
4_NOTCHES_1
 62
3
100
AcDbLine
 10
164.412350
 20
442.594743
 30
0.0
 11
160.953460
 21
446.514812
 31
0.0
  0
LINE
  5
1be
100
AcDbEntity
  8
4_NOTCHES_1
 62
3
100
AcDbLine
 10
102.498300
 20
289.942610
 30
0.0
 11
103.881850
 21
315.192470
 31
0.0
  0
LINE
  5
1bf
100
AcDbEntity
  8
4_NOTCHES_1
 62
3
100
AcDbLine
 10
103.881850
 20
315.192470
 30
0.0
 11
107.225440
 21
354.047280
 31
0.0
  0
LINE
  5
1c0
100
AcDbEntity
  8
4_NOTCHES_1
 62
3
100
AcDbLine
 10
107.225440
 20
354.047280
 30
0.0
 11
109.070180
 21
379.181840
 31
0.0
  0
LINE
  5
1c1
100
AcDbEntity
  8
4_NOTCHES_1
 62
3
100
AcDbLine
 10
109.070180
 20
379.181840
 30
0.0
 11
109.761960
 21
400.396343
 31
0.0
  0
LINE
  5
1c2
100
AcDbEntity
  8
4_NOTCHES_1
 62
3
100
AcDbLine
 10
109.761960
 20
400.396343
 30
0.0
 11
109.531370
 21
433.947528
 31
0.0
  0
LINE
  5
1c3
100
AcDbEntity
  8
4_NOTCHES_1
 62
3
100
AcDbLine
 10
109.531370
 20
433.947528
 30
0.0
 11
108.493700
 21
456.545579
 31
0.0
  0
ENDSEC
  0
SECTION
  2
OBJECTS
  0
DICTIONARY
  5
C
330
0
100
AcDbDictionary
  3
ACAD_GROUP
350
D
  3
ACAD_MLINESTYLE
350
17
  0
DICTIONARY
  5
D
330
C
100
AcDbDictionary
  0
DICTIONARY
  5
1A
330
C
100
AcDbDictionary
  0
DICTIONARY
  5
17
330
C
100
AcDbDictionary
  3
STANDARD
350
18
  0
DICTIONARY
  5
19
330
C
100
AcDbDictionary
  0
ENDSEC
  0
EOF
