<?xml version="1.0" encoding="UTF-8" standalone="no"?>
<!-- Created with Inkscape (http://www.inkscape.org/) -->

<svg
   width="205.48601mm"
   height="495.40039mm"
   viewBox="0 0 205.48601 495.40039"
   version="1.1"
   id="svg5"
   xml:space="preserve"
   inkscape:version="1.2.2 (b0a84865, 2022-12-01)"
   sodipodi:docname="250318_RacingSlipper_Scans_1.svg"
   xmlns:inkscape="http://www.inkscape.org/namespaces/inkscape"
   xmlns:sodipodi="http://sodipodi.sourceforge.net/DTD/sodipodi-0.dtd"
   xmlns:xlink="http://www.w3.org/1999/xlink"
   xmlns="http://www.w3.org/2000/svg"
   xmlns:svg="http://www.w3.org/2000/svg"><sodipodi:namedview
     id="namedview7"
     pagecolor="#ffffff"
     bordercolor="#000000"
     borderopacity="0.25"
     inkscape:showpageshadow="2"
     inkscape:pageopacity="0.0"
     inkscape:pagecheckerboard="0"
     inkscape:deskcolor="#d1d1d1"
     inkscape:document-units="mm"
     showgrid="false"
     inkscape:zoom="0.78376013"
     inkscape:cx="172.24658"
     inkscape:cy="1417.5255"
     inkscape:window-width="1709"
     inkscape:window-height="1048"
     inkscape:window-x="0"
     inkscape:window-y="38"
     inkscape:window-maximized="0"
     inkscape:current-layer="layer7" /><defs
     id="defs2" /><g
     inkscape:label="0_SCANS_1"
     inkscape:groupmode="layer"
     id="layer1"
     transform="translate(-0.45190999,100.95325)"><image
       width="205.48601"
       height="240.19934"
       preserveAspectRatio="none"
       xlink:href="250318_RacingSlipper_2.png"
       id="image270"
       x="0.45190999"
       y="154.24779" /><image
       width="204.38533"
       height="227.076"
       preserveAspectRatio="none"
       xlink:href="250318_RacingSlipper_1.png"
       id="image282"
       x="1.0022519"
       y="-100.95325" /></g><g
     inkscape:groupmode="layer"
     id="layer2"
     inkscape:label="1_TOE_1"
     transform="translate(-0.45190999,100.95325)"><path
       id="path1135"
       style="opacity:1;fill:none;stroke:#ff00ff;stroke-width:1;stroke-linecap:round;stroke-linejoin:round;stroke-miterlimit:10;stroke-dasharray:none;paint-order:stroke fill markers"
       d="m 183.0267,-68.970471 -0.53674,24.958185 -2.4153,24.958187 -5.90409,26.8367592 -8.85613,22.2745088 -13.68675,30.057172 -13.95511,22.274511 -10.46634,13.955114 -11.80818,6.709184 -11.5398,1.61021 -12.344911,-0.53673 -13.150013,-4.293887 -8.319395,-11.00307 -11.00307,-24.421452 -8.319397,-24.153082 -8.587761,-28.9837 -5.367354,-22.542878 -5.098983,-27.105127 -2.415308,-20.127568 -1.045576,-22.83336 6.157726,0.906646 5.944081,3.343545 3.900805,6.129835 3.900803,9.65913 5.944081,12.25967 4.272309,7.058596 5.386821,4.086556 5.944082,1.114515 5.944081,-1.857526 2.22903,-5.386824 v -9.844884 l -0.18575,-5.386824 3.157791,-4.458059 5.572577,-1.857526 8.544616,0.928761 10.402145,2.22903 h 10.9594 l 12.25966,-2.043276 6.31559,0.928761 2.22903,4.458063 0.92876,6.687089 -3.15779,2.972041 0.18575,7.430103 3.90081,7.058597 6.12983,1.486019 7.80161,-4.086556 6.87284,-10.587895 6.31559,-14.117192 5.57257,-13.002678 4.82957,-4.272309 3.71505,-0.743009 3.13645,0.135776 z"
       sodipodi:nodetypes="ccccccccccccccccccccccccccccccccccccccccccccccccccccc" /></g><g
     inkscape:groupmode="layer"
     id="layer3"
     inkscape:label="1_TOE_2"
     transform="translate(-0.45190999,100.95325)"><path
       style="opacity:1;fill:none;stroke:#00ffff;stroke-width:1;stroke-linecap:round;stroke-linejoin:round;stroke-miterlimit:10;stroke-dasharray:none;paint-order:stroke fill markers"
       d="m 13.614889,-80.733904 1.910862,31.768076 4.538296,27.707492 10.987455,39.650379 13.137174,39.411522 13.376031,32.245789 7.882303,14.570316 7.882305,6.68802 18.392042,4.77715 22.452623,-0.23885 15.76461,-5.49373 10.03202,-7.16573 8.59888,-15.76461 16.24232,-29.618355 11.94289,-25.796634 8.83773,-22.9303382 4.77716,-16.9588969 2.86629,-24.8412009 2.14972,-33.201221 -0.23886,-12.181741"
       id="path1243" /></g><g
     inkscape:groupmode="layer"
     id="layer4"
     inkscape:label="2_SIDES_1"
     transform="translate(-0.45190999,100.95325)"><path
       style="opacity:1;fill:none;stroke:#ff00ff;stroke-width:1;stroke-linecap:round;stroke-linejoin:round;stroke-miterlimit:10;stroke-dasharray:none;paint-order:stroke fill markers"
       d="M 88.545719,376.62254 76.618326,350.54402 61.658549,318.80503 47.103088,291.10921 l -9.299321,-17.99217 4.85182,-3.03239 2.62807,-6.06477 -0.606478,-9.29932 -3.436708,-24.66342 v -8.28852 l 1.212956,-4.85182 2.425909,-4.04319 17.992167,26.48285 15.364097,22.64183 12.938188,17.79001 -2.425909,4.04318 -3.234547,9.09716 -2.425911,11.52309 -0.606478,9.50147 0.606478,14.35331 2.223751,14.15113 2.628069,10.51229 5.256139,15.7684 1.415113,5.05399 z"
       id="path1310" /><path
       style="opacity:1;fill:none;stroke:#ff00ff;stroke-width:1;stroke-linecap:round;stroke-linejoin:round;stroke-miterlimit:10;stroke-dasharray:none;paint-order:stroke fill markers"
       d="m 134.03153,372.78151 3.63887,-12.93818 7.07557,-19.00296 8.28853,-19.60943 10.31011,-23.85478 7.47989,-17.18355 4.64966,-9.70362 -4.4475,-2.83025 -4.04318,-5.25613 -1.81943,-6.26693 2.22375,-14.15115 2.22375,-10.71443 0.60648,-9.50148 -1.21296,-5.66046 -1.41511,-2.62807 -2.62807,-1.81943 -11.32092,15.76841 -18.59864,29.11092 -13.34251,20.21592 2.22375,4.85182 2.0216,9.29931 2.02159,13.54469 0.40432,15.56625 0.20215,16.17274 0.40433,13.14034 -0.60648,10.51227 -2.42591,11.32091 z"
       id="path1312" /></g><g
     inkscape:groupmode="layer"
     id="layer5"
     inkscape:label="2_SIDES_2"
     transform="translate(-0.45190999,100.95325)"><path
       style="opacity:1;fill:none;stroke:#00ffff;stroke-width:1;stroke-linecap:round;stroke-linejoin:round;stroke-miterlimit:10;stroke-dasharray:none;paint-order:stroke fill markers"
       d="m 25.674215,278.97965 10.107958,19.60946 11.927393,26.2807 13.342506,26.07852 8.288525,22.23751 3.032387,7.68205"
       id="path1317" /><path
       style="opacity:1;fill:none;stroke:#00ffff;stroke-width:1;stroke-linecap:round;stroke-linejoin:round;stroke-miterlimit:10;stroke-dasharray:none;paint-order:stroke fill markers"
       d="m 186.59292,277.36239 -8.28853,20.62025 -10.10795,23.65261 -10.31012,23.65261 -4.85182,14.15116 -4.24535,16.17274"
       id="path1319" /></g><g
     inkscape:groupmode="layer"
     id="layer6"
     inkscape:label="3_HEEL_1"
     transform="translate(-0.45190999,100.95325)"><path
       style="opacity:1;fill:none;stroke:#ff00ff;stroke-width:1;stroke-linecap:round;stroke-linejoin:round;stroke-miterlimit:10;stroke-dasharray:none;paint-order:stroke fill markers"
       d="m 31.401083,168.95451 2.223087,7.91974 4.168286,10.42071 4.029342,6.94715 4.585113,6.39137 6.530316,6.94714 7.919741,7.36397 7.919744,4.863 7.36397,4.02934 8.475514,3.05675 11.25437,2.91779 4.029342,0.27789 9.170232,-0.9726 9.726,-2.22308 11.25437,-6.11349 8.89234,-6.66926 8.33657,-7.64185 6.11349,-5.69666 7.08608,-9.03129 5.55771,-7.50291 5.14089,-8.61446 -8.61445,1.52837 -15.83949,1.52837 -10.6986,-0.13894 -6.53031,-3.19568 -6.66926,-2.9178 -4.58511,0.41682 -13.06063,1.38944 -7.502917,-0.83366 -8.336571,-0.83366 -8.197627,1.9452 -6.391371,3.61251 -6.391372,-0.13894 -11.25437,-1.80626 -14.03323,-3.8904 z"
       id="path1338" /></g><g
     inkscape:groupmode="layer"
     id="layer7"
     inkscape:label="4_NOTCHES_1"
     style="display:inline"><path
       style="opacity:1;fill:none;stroke:#00ff00;stroke-width:1;stroke-linecap:round;stroke-linejoin:round;stroke-miterlimit:10;stroke-dasharray:none;paint-order:stroke fill markers"
       d="m 83.34986,303.04454 -7.033067,-2.53651"
       id="path1433"
       transform="translate(-0.45191,100.95325)" /><path
       style="opacity:1;fill:none;stroke:#00ff00;stroke-width:1;stroke-linecap:round;stroke-linejoin:round;stroke-miterlimit:10;stroke-dasharray:none;paint-order:stroke fill markers"
       d="m 83.119268,308.34817 -6.571883,-1.84473"
       id="path1435"
       transform="translate(-0.45191,100.95325)" /><path
       style="opacity:1;fill:none;stroke:#00ff00;stroke-width:1;stroke-linecap:round;stroke-linejoin:round;stroke-miterlimit:10;stroke-dasharray:none;paint-order:stroke fill markers"
       d="m 82.312193,315.38124 -8.070731,-2.8824"
       id="path1437"
       transform="translate(-0.45191,100.95325)" /><path
       style="opacity:1;fill:none;stroke:#00ff00;stroke-width:1;stroke-linecap:round;stroke-linejoin:round;stroke-miterlimit:10;stroke-dasharray:none;paint-order:stroke fill markers"
       d="m 127.96948,302.92926 6.22599,-2.42123"
       id="path1439"
       transform="translate(-0.45191,100.95325)" /><path
       style="opacity:1;fill:none;stroke:#00ff00;stroke-width:1;stroke-linecap:round;stroke-linejoin:round;stroke-miterlimit:10;stroke-dasharray:none;paint-order:stroke fill markers"
       d="m 128.31537,308.80936 7.37895,-3.11301"
       id="path1441"
       transform="translate(-0.45191,100.95325)" /><path
       style="opacity:1;fill:none;stroke:#00ff00;stroke-width:1;stroke-linecap:round;stroke-linejoin:round;stroke-miterlimit:10;stroke-dasharray:none;paint-order:stroke fill markers"
       d="m 128.31537,314.45888 10.03076,-2.99771"
       id="path1443"
       transform="translate(-0.45191,100.95325)" /><path
       style="opacity:1;fill:none;stroke:#00ff00;stroke-width:1;stroke-linecap:round;stroke-linejoin:round;stroke-miterlimit:10;stroke-dasharray:none;paint-order:stroke fill markers"
       d="m 101.75679,275.32758 -3.164683,55.9906"
       id="path1377" /><path
       style="opacity:1;fill:none;stroke:#00ff00;stroke-width:1;stroke-linecap:round;stroke-linejoin:round;stroke-miterlimit:10;stroke-dasharray:none;paint-order:stroke fill markers"
       d="m 155.53454,298.27119 -5.53422,-3.92007"
       id="path1481" /><path
       style="opacity:1;fill:none;stroke:#00ff00;stroke-width:1;stroke-linecap:round;stroke-linejoin:round;stroke-miterlimit:10;stroke-dasharray:none;paint-order:stroke fill markers"
       d="m 151.26858,302.88306 -6.91777,-4.84245"
       id="path1483" /><path
       style="opacity:1;fill:none;stroke:#00ff00;stroke-width:1;stroke-linecap:round;stroke-linejoin:round;stroke-miterlimit:10;stroke-dasharray:none;paint-order:stroke fill markers"
       d="m 147.5791,306.45724 -7.84014,-5.30363"
       id="path1485" /><path
       style="opacity:1;fill:none;stroke:#00ff00;stroke-width:1;stroke-linecap:round;stroke-linejoin:round;stroke-miterlimit:10;stroke-dasharray:none;paint-order:stroke fill markers"
       d="m 46.810247,302.76776 5.303623,-2.53651"
       id="path1487" /><path
       style="opacity:1;fill:none;stroke:#00ff00;stroke-width:1;stroke-linecap:round;stroke-linejoin:round;stroke-miterlimit:10;stroke-dasharray:none;paint-order:stroke fill markers"
       d="m 42.77488,297.00294 5.073034,-2.19062"
       id="path1489" /><path
       style="opacity:1;fill:none;stroke:#00ff00;stroke-width:1;stroke-linecap:round;stroke-linejoin:round;stroke-miterlimit:10;stroke-dasharray:none;paint-order:stroke fill markers"
       d="m 39.892477,292.6217 5.188326,-1.72945"
       id="path1491" /><path
       style="opacity:1;fill:none;stroke:#00ff00;stroke-width:1;stroke-linecap:round;stroke-linejoin:round;stroke-miterlimit:10;stroke-dasharray:none;paint-order:stroke fill markers"
       d="m 167.06416,341.96845 -5.9954,-0.69178"
       id="path1493" /><path
       style="opacity:1;fill:none;stroke:#00ff00;stroke-width:1;stroke-linecap:round;stroke-linejoin:round;stroke-miterlimit:10;stroke-dasharray:none;paint-order:stroke fill markers"
       d="m 166.25708,346.46502 h -5.18832"
       id="path1495" /><path
       style="opacity:1;fill:none;stroke:#00ff00;stroke-width:1;stroke-linecap:round;stroke-linejoin:round;stroke-miterlimit:10;stroke-dasharray:none;paint-order:stroke fill markers"
       d="m 41.737216,338.39427 4.842438,1.26826"
       id="path1497" /><path
       style="opacity:1;fill:none;stroke:#00ff00;stroke-width:1;stroke-linecap:round;stroke-linejoin:round;stroke-miterlimit:10;stroke-dasharray:none;paint-order:stroke fill markers"
       d="m 42.544288,343.92848 3.920072,0.69178"
       id="path1499" /><path
       style="opacity:1;fill:none;stroke:#00ff00;stroke-width:1;stroke-linecap:round;stroke-linejoin:round;stroke-miterlimit:10;stroke-dasharray:none;paint-order:stroke fill markers"
       d="m 67.909447,64.104673 0.115295,8.877805"
       id="path1501" /><path
       style="opacity:1;fill:none;stroke:#00ff00;stroke-width:1;stroke-linecap:round;stroke-linejoin:round;stroke-miterlimit:10;stroke-dasharray:none;paint-order:stroke fill markers"
       d="m 144.12022,67.563557 -0.69178,10.376657"
       id="path1503" /><path
       style="opacity:1;fill:none;stroke:#00ff00;stroke-width:1;stroke-linecap:round;stroke-linejoin:round;stroke-miterlimit:10;stroke-dasharray:none;paint-order:stroke fill markers"
       d="m 163.25938,44.273731 5.07304,4.727144"
       id="path1505" /><path
       style="opacity:1;fill:none;stroke:#00ff00;stroke-width:1;stroke-linecap:round;stroke-linejoin:round;stroke-miterlimit:10;stroke-dasharray:none;paint-order:stroke fill markers"
       d="m 48.193801,41.621918 -4.611847,3.689477"
       id="path1507" /><path
       style="opacity:1;fill:none;stroke:#00ff00;stroke-width:1;stroke-linecap:round;stroke-linejoin:round;stroke-miterlimit:10;stroke-dasharray:none;paint-order:stroke fill markers"
       d="m 46.694952,38.047736 -6.110698,2.421221"
       id="path1509" /><path
       style="opacity:1;fill:none;stroke:#00ff00;stroke-width:1;stroke-linecap:round;stroke-linejoin:round;stroke-miterlimit:10;stroke-dasharray:none;paint-order:stroke fill markers"
       d="m 164.41235,52.805647 -3.45889,-3.920069"
       id="path1511" /><path
       style="opacity:1;fill:none;stroke:#00ff00;stroke-width:1;stroke-linecap:round;stroke-linejoin:round;stroke-miterlimit:10;stroke-dasharray:none;paint-order:stroke fill markers"
       d="m 102.4983,205.45778 1.38355,-25.24986 3.34359,-38.85481 1.84474,-25.13456 0.69178,-21.214503 -0.23059,-33.551185 -1.03767,-22.598051"
       id="path1513" /></g></svg>
