%FSLAX25Y25*%
%MOIN*%
G70*
G01*
G75*
G04 Layer_Color=33789*
%ADD10R,0.05000X0.08000*%
%ADD11R,0.08000X0.05000*%
%ADD12R,0.05906X0.05906*%
%ADD13P,0.08352X4X255.0*%
%ADD14P,0.08352X4X195.0*%
%ADD15C,0.02500*%
%ADD16C,0.16500*%
%ADD17C,0.04000*%
%ADD18R,0.17716X0.12205*%
%ADD19C,0.01000*%
D15*
X485000Y462500D02*
X497500D01*
X492500Y457500D02*
X497500Y462500D01*
X492500Y467500D02*
X497500Y462500D01*
X415000Y512500D02*
X427500D01*
X422500Y507500D02*
X427500Y512500D01*
X422500Y517500D02*
X427500Y512500D01*
D19*
X400000Y400000D02*
Y575000D01*
X512500D01*
Y400000D02*
Y575000D01*
X400000Y400000D02*
X512500D01*
X440747Y519018D02*
Y520987D01*
X471259D01*
Y519018D02*
Y520987D01*
X440747Y454058D02*
Y456026D01*
Y454058D02*
X471259D01*
Y456026D01*
X473274Y529498D02*
X474940D01*
X474107D01*
Y525333D01*
X474940Y524500D01*
X475773D01*
X476606Y525333D01*
X471608Y524500D02*
X469942D01*
X470775D01*
Y529498D01*
X471608Y528665D01*
X493501Y482498D02*
X494501Y483498D01*
X496500D01*
X497500Y482498D01*
Y478500D01*
X496500Y477500D01*
X494501D01*
X493501Y478500D01*
Y480499D01*
X495501D01*
X491502Y477500D02*
Y483498D01*
X487503Y477500D01*
Y483498D01*
X485504D02*
Y477500D01*
X482505D01*
X481505Y478500D01*
Y482498D01*
X482505Y483498D01*
X485504D01*
X497500Y498498D02*
Y494499D01*
X495501Y492500D01*
X493501Y494499D01*
Y498498D01*
X491502D02*
Y492500D01*
X488503D01*
X487503Y493500D01*
Y497498D01*
X488503Y498498D01*
X491502D01*
X485504D02*
Y492500D01*
X482505D01*
X481505Y493500D01*
Y497498D01*
X482505Y498498D01*
X485504D01*
X427500Y468498D02*
Y462500D01*
X424501D01*
X423501Y463500D01*
Y467498D01*
X424501Y468498D01*
X427500D01*
X418503D02*
X420502D01*
X421502Y467498D01*
Y463500D01*
X420502Y462500D01*
X418503D01*
X417503Y463500D01*
Y467498D01*
X418503Y468498D01*
X430000Y498498D02*
Y494499D01*
X428001Y492500D01*
X426001Y494499D01*
Y498498D01*
X424002D02*
Y492500D01*
X421003D01*
X420003Y493500D01*
Y497498D01*
X421003Y498498D01*
X424002D01*
X418004D02*
Y492500D01*
X415005D01*
X414005Y493500D01*
Y497498D01*
X415005Y498498D01*
X418004D01*
X490000Y513498D02*
Y507500D01*
X487001D01*
X486001Y508500D01*
Y512498D01*
X487001Y513498D01*
X490000D01*
X484002D02*
X482003D01*
X483002D01*
Y507500D01*
X484002D01*
X482003D01*
X426001Y482498D02*
X427001Y483498D01*
X429000D01*
X430000Y482498D01*
Y478500D01*
X429000Y477500D01*
X427001D01*
X426001Y478500D01*
Y480499D01*
X428001D01*
X424002Y477500D02*
Y483498D01*
X420003Y477500D01*
Y483498D01*
X418004D02*
Y477500D01*
X415005D01*
X414005Y478500D01*
Y482498D01*
X415005Y483498D01*
X418004D01*
X477500Y418498D02*
Y412500D01*
X474501D01*
X473501Y413500D01*
Y414499D01*
X474501Y415499D01*
X477500D01*
X474501D01*
X473501Y416499D01*
Y417498D01*
X474501Y418498D01*
X477500D01*
X471502Y412500D02*
Y418498D01*
X468503D01*
X467503Y417498D01*
Y415499D01*
X468503Y414499D01*
X471502D01*
X469503D02*
X467503Y412500D01*
X465504Y418498D02*
X463505D01*
X464504D01*
Y412500D01*
X465504D01*
X463505D01*
X460505D02*
Y416499D01*
X458506Y418498D01*
X456507Y416499D01*
Y412500D01*
Y415499D01*
X460505D01*
X454507Y412500D02*
Y418498D01*
X450509Y412500D01*
Y418498D01*
X438513Y417498D02*
X439512Y418498D01*
X441512D01*
X442511Y417498D01*
Y413500D01*
X441512Y412500D01*
X439512D01*
X438513Y413500D01*
X433514Y418498D02*
X435514D01*
X436513Y417498D01*
Y413500D01*
X435514Y412500D01*
X433514D01*
X432514Y413500D01*
Y417498D01*
X433514Y418498D01*
X430515D02*
X426516Y412500D01*
Y418498D02*
X430515Y412500D01*
X482500Y422500D02*
X479501D01*
X478501Y423500D01*
X479501Y424499D01*
X481500D01*
X482500Y425499D01*
X481500Y426499D01*
X478501D01*
X476502Y420501D02*
Y426499D01*
X473503D01*
X472503Y425499D01*
Y423500D01*
X473503Y422500D01*
X476502D01*
X469504Y426499D02*
X467505D01*
X466505Y425499D01*
Y422500D01*
X469504D01*
X470504Y423500D01*
X469504Y424499D01*
X466505D01*
X460507Y426499D02*
X463506D01*
X464506Y425499D01*
Y423500D01*
X463506Y422500D01*
X460507D01*
X455509D02*
X457508D01*
X458508Y423500D01*
Y425499D01*
X457508Y426499D01*
X455509D01*
X454509Y425499D01*
Y424499D01*
X458508D01*
X452510Y425499D02*
X448511D01*
X443513Y422500D02*
X445512D01*
X446512Y423500D01*
Y425499D01*
X445512Y426499D01*
X443513D01*
X442513Y425499D01*
Y424499D01*
X446512D01*
X440514Y422500D02*
X438514D01*
X439514D01*
Y426499D01*
X440514D01*
X433516Y420501D02*
X432516D01*
X431517Y421500D01*
Y426499D01*
X434515D01*
X435515Y425499D01*
Y423500D01*
X434515Y422500D01*
X431517D01*
X429517Y428498D02*
Y422500D01*
Y425499D01*
X428517Y426499D01*
X426518D01*
X425518Y425499D01*
Y422500D01*
X422519Y427498D02*
Y426499D01*
X423519D01*
X421520D01*
X422519D01*
Y423500D01*
X421520Y422500D01*
X463501Y408999D02*
X466500D01*
X467500Y407999D01*
Y406000D01*
X466500Y405000D01*
X463501D01*
X457503D02*
X461502D01*
X457503Y408999D01*
Y409998D01*
X458503Y410998D01*
X460502D01*
X461502Y409998D01*
X455504D02*
X454504Y410998D01*
X452505D01*
X451505Y409998D01*
Y406000D01*
X452505Y405000D01*
X454504D01*
X455504Y406000D01*
Y409998D01*
X449506Y405000D02*
X447507D01*
X448506D01*
Y410998D01*
X449506Y409998D01*
X440509Y410998D02*
X444507D01*
Y407999D01*
X442508Y408999D01*
X441508D01*
X440509Y407999D01*
Y406000D01*
X441508Y405000D01*
X443508D01*
X444507Y406000D01*
X503501Y570998D02*
X507500D01*
Y567999D01*
X505501Y568999D01*
X504501D01*
X503501Y567999D01*
Y566000D01*
X504501Y565000D01*
X506500D01*
X507500Y566000D01*
X501502Y569998D02*
X500502Y570998D01*
X498503D01*
X497503Y569998D01*
Y566000D01*
X498503Y565000D01*
X500502D01*
X501502Y566000D01*
Y569998D01*
X491505Y570998D02*
X495504D01*
Y567999D01*
X493504Y568999D01*
X492505D01*
X491505Y567999D01*
Y566000D01*
X492505Y565000D01*
X494504D01*
X495504Y566000D01*
X489506Y565000D02*
X487506D01*
X488506D01*
Y570998D01*
X489506Y569998D01*
X480509Y570998D02*
X484507D01*
Y567999D01*
X482508Y568999D01*
X481508D01*
X480509Y567999D01*
Y566000D01*
X481508Y565000D01*
X483508D01*
X484507Y566000D01*
X478509Y569998D02*
X477510Y570998D01*
X475510D01*
X474511Y569998D01*
Y566000D01*
X475510Y565000D01*
X477510D01*
X478509Y566000D01*
Y569998D01*
X472511Y568999D02*
X470512Y565000D01*
X468513Y568999D01*
X462514Y565000D02*
X466513D01*
X462514Y568999D01*
Y569998D01*
X463514Y570998D01*
X465514D01*
X466513Y569998D01*
X460515D02*
X459515Y570998D01*
X457516D01*
X456517Y569998D01*
Y566000D01*
X457516Y565000D01*
X459515D01*
X460515Y566000D01*
Y569998D01*
X454517Y565000D02*
X452518D01*
X453517D01*
Y570998D01*
X454517Y569998D01*
X503501Y557498D02*
X504501Y558498D01*
X506500D01*
X507500Y557498D01*
Y553500D01*
X506500Y552500D01*
X504501D01*
X503501Y553500D01*
X501502Y558498D02*
X499503D01*
X500502D01*
Y552500D01*
X501502D01*
X499503D01*
X496504D02*
Y558498D01*
X493504D01*
X492505Y557498D01*
Y555499D01*
X493504Y554499D01*
X496504D01*
X494504D02*
X492505Y552500D01*
X486507Y557498D02*
X487506Y558498D01*
X489506D01*
X490506Y557498D01*
Y553500D01*
X489506Y552500D01*
X487506D01*
X486507Y553500D01*
X484507Y558498D02*
Y552500D01*
X480509D01*
X474511Y558498D02*
X478509D01*
Y552500D01*
X474511D01*
X478509Y555499D02*
X476510D01*
X466513Y552500D02*
Y558498D01*
X463514D01*
X462514Y557498D01*
Y555499D01*
X463514Y554499D01*
X466513D01*
X464514D02*
X462514Y552500D01*
X456517Y557498D02*
X457516Y558498D01*
X459515D01*
X460515Y557498D01*
Y553500D01*
X459515Y552500D01*
X457516D01*
X456517Y553500D01*
Y555499D01*
X458516D01*
X454517Y558498D02*
Y552500D01*
X451518D01*
X450518Y553500D01*
Y554499D01*
X451518Y555499D01*
X454517D01*
X451518D01*
X450518Y556499D01*
Y557498D01*
X451518Y558498D01*
X454517D01*
M02*
