%FSLAX25Y25*%
%MOIN*%
G70*
G01*
G75*
G04 Layer_Physical_Order=1*
G04 Layer_Color=255*
%ADD10R,0.05000X0.08000*%
%ADD11R,0.08000X0.05000*%
%ADD12R,0.05906X0.05906*%
%ADD13P,0.08352X4X255.0*%
%ADD14P,0.08352X4X195.0*%
%ADD15C,0.02500*%
%ADD16C,0.16500*%
%ADD17C,0.04000*%
G36*
X510000Y516015D02*
X508753Y515181D01*
X508326Y515358D01*
X506890Y515548D01*
X505454Y515358D01*
X504116Y514804D01*
X503636Y514436D01*
X502291Y515100D01*
Y518942D01*
X502128Y520182D01*
X501649Y521338D01*
X500888Y522330D01*
X497102Y526116D01*
X498713Y528906D01*
X487536Y535358D01*
X481084Y524182D01*
X491497Y518170D01*
X492709Y516958D01*
Y504485D01*
X491823Y503598D01*
X486657D01*
Y490693D01*
X499563D01*
Y490693D01*
X499563D01*
X499563Y490693D01*
X500437D01*
Y490693D01*
X510000D01*
Y484307D01*
X500437D01*
Y477212D01*
X488825Y465601D01*
X487338Y465796D01*
X485370Y469204D01*
X474194Y462751D01*
X480647Y451575D01*
X480647Y451575D01*
X481084Y450818D01*
X481084D01*
X481084Y450818D01*
X487536Y439642D01*
X494506Y443665D01*
X495956D01*
X497196Y443828D01*
X498352Y444307D01*
X499344Y445068D01*
Y445068D01*
X499344D01*
D01*
D01*
D01*
D01*
D01*
D01*
X499344D01*
D01*
X499344D01*
Y445068D01*
D01*
D01*
D01*
D01*
Y445068D01*
D01*
D01*
D01*
D01*
D01*
D01*
Y445068D01*
D01*
D01*
X499344D01*
D01*
D01*
D01*
X501414Y447139D01*
X501436Y447142D01*
X502774Y447696D01*
X503923Y448577D01*
X504804Y449726D01*
X505358Y451064D01*
X505548Y452500D01*
X505358Y453936D01*
X504804Y455274D01*
X503923Y456423D01*
X502774Y457304D01*
X501436Y457858D01*
X500000Y458047D01*
X498564Y457858D01*
X497226Y457304D01*
X496077Y456423D01*
X495196Y455274D01*
X495100Y455043D01*
X493603Y454945D01*
X492834Y456278D01*
X493777Y457002D01*
X508177Y471402D01*
X510000D01*
Y427254D01*
X508677Y426546D01*
X508268Y426820D01*
X506328Y427777D01*
X504280Y428472D01*
X502158Y428894D01*
X500000Y429035D01*
X497842Y428894D01*
X495720Y428472D01*
X493672Y427777D01*
X491732Y426820D01*
X489934Y425618D01*
X488308Y424192D01*
X486882Y422566D01*
X485680Y420768D01*
X484723Y418828D01*
X484028Y416780D01*
X483606Y414658D01*
X483465Y412500D01*
X483606Y410342D01*
X484028Y408220D01*
X484723Y406172D01*
X485680Y404232D01*
X485954Y403823D01*
X485246Y402500D01*
X402500D01*
Y459595D01*
X403747Y460429D01*
X404174Y460252D01*
X405610Y460063D01*
X407046Y460252D01*
X408384Y460806D01*
X409533Y461688D01*
X410415Y462837D01*
X410969Y464174D01*
X411158Y465610D01*
X410969Y467046D01*
X410415Y468384D01*
X410401Y468401D01*
Y469955D01*
X411805Y470483D01*
X411989Y470274D01*
X411952Y470000D01*
X412142Y468564D01*
X412696Y467226D01*
X413577Y466077D01*
X414726Y465196D01*
X416064Y464642D01*
X417500Y464453D01*
X418936Y464642D01*
X420274Y465196D01*
X421423Y466077D01*
X422304Y467226D01*
X422858Y468564D01*
X423047Y470000D01*
X423011Y470274D01*
X424000Y471402D01*
X425843D01*
Y484307D01*
X413124D01*
X413124Y484307D01*
X413124Y484307D01*
X412937Y484307D01*
X412500D01*
X412063D01*
X411876Y484307D01*
X411876Y484307D01*
X411876Y484307D01*
X402500D01*
Y490693D01*
X412063D01*
Y502787D01*
X419485Y510209D01*
X424582D01*
X427130Y505796D01*
X438306Y512249D01*
X431853Y523425D01*
X431853Y523425D01*
X431416Y524182D01*
D01*
D01*
D01*
X431416Y524182D01*
D01*
D01*
X431416D01*
X424964Y535358D01*
X417478Y531037D01*
X416648Y530693D01*
X415936Y530147D01*
X413787Y528906D01*
X414096Y528371D01*
X411086Y525361D01*
X411064Y525358D01*
X409726Y524804D01*
X408577Y523923D01*
X407696Y522774D01*
X407142Y521436D01*
X406952Y520000D01*
X407142Y518564D01*
X407696Y517226D01*
X408577Y516077D01*
X409499Y515370D01*
X409597Y513873D01*
X403886Y508161D01*
X402500Y508735D01*
Y547746D01*
X403823Y548454D01*
X404232Y548180D01*
X406172Y547223D01*
X408220Y546528D01*
X410342Y546106D01*
X412500Y545965D01*
X414658Y546106D01*
X416780Y546528D01*
X418828Y547223D01*
X420768Y548180D01*
X422566Y549382D01*
X424192Y550808D01*
X425618Y552434D01*
X426820Y554232D01*
X427777Y556172D01*
X428472Y558220D01*
X428894Y560342D01*
X429035Y562500D01*
X428894Y564658D01*
X428472Y566780D01*
X427777Y568828D01*
X426820Y570768D01*
X426546Y571177D01*
X427254Y572500D01*
X510000D01*
Y516015D01*
D02*
G37*
%LPC*%
G36*
X443836Y459558D02*
X437384Y448382D01*
X437384D01*
D01*
D01*
X437384Y448382D01*
X437384D01*
X436947Y447625D01*
X436947Y447625D01*
X431024Y437367D01*
Y437367D01*
X430494Y436449D01*
X431413Y435918D01*
Y435918D01*
X440752Y430526D01*
X440752D01*
X441670Y429996D01*
X442201Y430914D01*
X442201D01*
X442540Y431502D01*
X444027Y431698D01*
Y431698D01*
X444642Y431064D01*
X445196Y429726D01*
X446077Y428577D01*
X447226Y427696D01*
X448564Y427142D01*
X450000Y426953D01*
X451436Y427142D01*
X452774Y427696D01*
X453923Y428577D01*
X454804Y429726D01*
X455358Y431064D01*
X455548Y432500D01*
X455358Y433936D01*
X456189Y434020D01*
Y434020D01*
X456189D01*
X456190D01*
Y434020D01*
D01*
D01*
X468507D01*
X470299Y430914D01*
X470299D01*
X470830Y429996D01*
X471748Y430526D01*
X471748D01*
X482006Y436449D01*
X476084Y446706D01*
X476084D01*
X475553Y447625D01*
X474635Y447095D01*
X474635D01*
X468584Y443602D01*
X458174D01*
X452691Y449084D01*
X455013Y453106D01*
X443836Y459558D01*
D02*
G37*
G36*
X415000Y458047D02*
X413564Y457858D01*
X412226Y457304D01*
X411077Y456423D01*
X410196Y455274D01*
X409642Y453936D01*
X409452Y452500D01*
X409642Y451064D01*
X410196Y449726D01*
X411077Y448577D01*
X412226Y447696D01*
X413564Y447142D01*
D01*
D01*
X413787Y446094D01*
Y446094D01*
X415936Y444853D01*
X416648Y444307D01*
X417478Y443963D01*
X424045Y440172D01*
X424045D01*
X424964Y439642D01*
X425494Y440560D01*
X425494D01*
X431416Y450818D01*
X420543Y457096D01*
X420543D01*
X420240Y457271D01*
X420065Y456968D01*
X418594Y456675D01*
X417774Y457304D01*
X416436Y457858D01*
X415000Y458047D01*
D02*
G37*
G36*
X441670Y545004D02*
X440752Y544474D01*
X440752D01*
X430494Y538551D01*
X436416Y528294D01*
X436416D01*
X436947Y527375D01*
X437865Y527905D01*
X437865D01*
X443916Y531399D01*
X446826D01*
X457356Y520868D01*
X458348Y520107D01*
X458827Y519909D01*
X459504Y519628D01*
X460744Y519465D01*
X461694D01*
X468664Y515442D01*
X475116Y526618D01*
Y526618D01*
D01*
D01*
X475116D01*
D01*
D01*
D01*
D01*
D01*
D01*
D01*
X475116D01*
Y526618D01*
D01*
D01*
D01*
D01*
D01*
D01*
D01*
D01*
D01*
X475116Y526618D01*
D01*
Y526618D01*
X475116D01*
D01*
D01*
X475553Y527375D01*
X475647Y527537D01*
X475647D01*
Y527537D01*
D01*
X475647D01*
D01*
X482006Y538551D01*
X470830Y545004D01*
X469263Y542291D01*
X465291D01*
X465274Y542304D01*
X463936Y542858D01*
X462500Y543048D01*
X461064Y542858D01*
X459726Y542304D01*
X458577Y541423D01*
X457696Y540274D01*
X457142Y538936D01*
X456952Y537500D01*
X457054Y536730D01*
X455709Y536067D01*
X452198Y539577D01*
X451206Y540339D01*
X450050Y540817D01*
X448810Y540980D01*
X443993D01*
X442201Y544086D01*
X442201D01*
X441670Y545004D01*
D02*
G37*
G36*
X465000Y505500D02*
X450000D01*
Y495000D01*
X449000D01*
Y495000D01*
X437000D01*
Y480000D01*
X449000D01*
D01*
Y480000D01*
X449000D01*
Y480000D01*
Y480000D01*
X450000D01*
Y469500D01*
X465000D01*
Y476259D01*
X465017Y476272D01*
X466386Y476839D01*
X469112Y474112D01*
X470105Y473351D01*
X471260Y472872D01*
X472500Y472709D01*
X479709D01*
X479726Y472696D01*
X481064Y472142D01*
X482500Y471952D01*
X483936Y472142D01*
X485274Y472696D01*
X486423Y473577D01*
X487304Y474726D01*
X487858Y476064D01*
X488048Y477500D01*
X487858Y478936D01*
X487304Y480274D01*
X486423Y481423D01*
X485274Y482304D01*
X483936Y482858D01*
X482500Y483047D01*
X481064Y482858D01*
X479726Y482304D01*
X479709Y482291D01*
X475500D01*
Y495000D01*
X465000D01*
Y505500D01*
D02*
G37*
%LPD*%
D10*
X432000Y487500D02*
D03*
X443000D02*
D03*
X480500D02*
D03*
X469500D02*
D03*
D11*
X457500Y510500D02*
D03*
Y499500D02*
D03*
Y464500D02*
D03*
Y475500D02*
D03*
D12*
X419390Y477854D02*
D03*
X405610D02*
D03*
X419390Y497146D02*
D03*
X405610D02*
D03*
X493110D02*
D03*
X506890D02*
D03*
X493110Y477854D02*
D03*
X506890D02*
D03*
D13*
X429492Y514610D02*
D03*
X422602Y526544D02*
D03*
X446198Y524256D02*
D03*
X439309Y536190D02*
D03*
X483008Y460390D02*
D03*
X489898Y448456D02*
D03*
X466302Y450744D02*
D03*
X473191Y438810D02*
D03*
D14*
X466302Y524256D02*
D03*
X473191Y536190D02*
D03*
X483008Y514610D02*
D03*
X489898Y526544D02*
D03*
X446198Y450744D02*
D03*
X439309Y438810D02*
D03*
X429492Y460390D02*
D03*
X422602Y448456D02*
D03*
D15*
X480500Y487500D02*
Y512102D01*
X472500Y505000D02*
X480500D01*
X483008Y514610D02*
X490000Y507619D01*
Y507500D02*
Y507619D01*
X457500Y475500D02*
Y499500D01*
X443000Y487500D02*
X469500D01*
X472500Y477500D02*
X482500D01*
X469500Y480500D02*
X472500Y477500D01*
X469500Y480500D02*
Y487500D01*
X487500D02*
X493110Y481890D01*
Y477854D02*
Y481890D01*
X480500Y487500D02*
X487500D01*
X433602Y464500D02*
X474500D01*
X457500D02*
X466302Y455698D01*
X492500Y477244D02*
X493110Y477854D01*
X492500Y475000D02*
Y477244D01*
X487500Y470000D02*
X492500Y475000D01*
X480000Y470000D02*
X487500D01*
X474500Y464500D02*
X480000Y470000D01*
X417500D02*
Y475965D01*
X419390Y477854D01*
X415000Y452500D02*
X419044Y448456D01*
X422602D01*
X412500Y520000D02*
X419044Y526544D01*
X422602D01*
X497500Y502500D02*
Y518942D01*
X493110Y498110D02*
X497500Y502500D01*
X489898Y526544D02*
X497500Y518942D01*
X462500Y537500D02*
X471881D01*
X473191Y536190D01*
X448810D02*
X460744Y524256D01*
X466302D01*
X439309Y536190D02*
X448810D01*
X443689Y438810D02*
X450000Y432500D01*
X439309Y438810D02*
X443689D01*
X495956Y448456D02*
X500000Y452500D01*
X489898Y448456D02*
X495956D01*
X506890Y497146D02*
Y510000D01*
X471311Y536190D02*
X473191D01*
X405610Y465610D02*
Y477854D01*
X493110Y497146D02*
Y498110D01*
X432000Y466102D02*
X433602Y464500D01*
X432000Y466102D02*
Y487500D01*
X467000Y510500D02*
X472500Y505000D01*
X457500Y510500D02*
X467000D01*
X419390Y497146D02*
X427854D01*
X430000Y489500D02*
Y495000D01*
Y489500D02*
X432000Y487500D01*
X427854Y497146D02*
X430000Y495000D01*
X446198Y521802D02*
X457500Y510500D01*
X446198Y521802D02*
Y524256D01*
X480500Y512102D02*
X483008Y514610D01*
X429492Y460390D02*
X433602Y464500D01*
X466302Y450744D02*
Y455698D01*
X446198Y450744D02*
X447500Y449442D01*
Y447500D02*
Y449442D01*
Y447500D02*
X456189Y438810D01*
X473191D01*
X490389Y460390D02*
X506890Y476890D01*
X483008Y460390D02*
X490389D01*
X506890Y476890D02*
Y477854D01*
X429102Y515000D02*
X429492Y514610D01*
X417500Y515000D02*
X429102D01*
X405610Y503110D02*
X417500Y515000D01*
X405610Y497146D02*
Y503110D01*
D16*
X412500Y562500D02*
D03*
X500000Y412500D02*
D03*
D17*
X482500Y477500D02*
D03*
X462500Y537500D02*
D03*
X506890Y510000D02*
D03*
X412500Y520000D02*
D03*
X405610Y465610D02*
D03*
X500000Y452500D02*
D03*
X450000Y432500D02*
D03*
X490000Y507500D02*
D03*
X415000Y452500D02*
D03*
X417500Y470000D02*
D03*
M02*
