%FSLAX25Y25*%
%MOIN*%
G70*
G01*
G75*
G04 Layer_Physical_Order=2*
G04 Layer_Color=65280*
%ADD10R,0.05000X0.08000*%
%ADD11R,0.08000X0.05000*%
%ADD12R,0.05906X0.05906*%
%ADD13P,0.08352X4X255.0*%
%ADD14P,0.08352X4X195.0*%
%ADD15C,0.02500*%
%ADD16C,0.16500*%
%ADD17C,0.04000*%
%ADD18R,0.17716X0.12205*%
G36*
X510000Y427254D02*
X508677Y426546D01*
X508268Y426820D01*
X506328Y427777D01*
X504280Y428472D01*
X502158Y428894D01*
X500000Y429035D01*
X497842Y428894D01*
X495720Y428472D01*
X493672Y427777D01*
X491732Y426820D01*
X489934Y425618D01*
X488308Y424192D01*
X486882Y422566D01*
X485680Y420768D01*
X484723Y418828D01*
X484028Y416780D01*
X483606Y414658D01*
X483465Y412500D01*
X483606Y410342D01*
X484028Y408220D01*
X484723Y406172D01*
X485680Y404232D01*
X485954Y403823D01*
X485246Y402500D01*
X402500D01*
Y547746D01*
X403823Y548454D01*
X404232Y548180D01*
X406172Y547223D01*
X408220Y546528D01*
X410342Y546106D01*
X412500Y545965D01*
X414658Y546106D01*
X416780Y546528D01*
X418828Y547223D01*
X420768Y548180D01*
X422566Y549382D01*
X424192Y550808D01*
X425618Y552434D01*
X426820Y554232D01*
X427777Y556172D01*
X428472Y558220D01*
X428894Y560342D01*
X429035Y562500D01*
X428894Y564658D01*
X428472Y566780D01*
X427777Y568828D01*
X426820Y570768D01*
X426546Y571177D01*
X427254Y572500D01*
X510000D01*
Y427254D01*
D02*
G37*
%LPC*%
G36*
X480665Y473502D02*
X431342D01*
Y454791D01*
X420004D01*
X419804Y455274D01*
X418923Y456423D01*
X417774Y457304D01*
X416436Y457858D01*
X415000Y458047D01*
X413564Y457858D01*
X412226Y457304D01*
X411077Y456423D01*
X410196Y455274D01*
X409642Y453936D01*
X409452Y452500D01*
X409642Y451064D01*
X410196Y449726D01*
X411077Y448577D01*
X412226Y447696D01*
X413564Y447142D01*
X413586Y447139D01*
X414112Y446612D01*
X415104Y445851D01*
X416260Y445372D01*
X417500Y445209D01*
X440000D01*
X441240Y445372D01*
X442057Y445711D01*
X442395Y445851D01*
X443388Y446612D01*
Y446612D01*
X443388D01*
D01*
D01*
D01*
D01*
D01*
D01*
X443388D01*
D01*
X443388D01*
Y446612D01*
D01*
D01*
D01*
D01*
Y446612D01*
D01*
D01*
D01*
Y446612D01*
D01*
D01*
X443388D01*
D01*
D01*
D01*
X447088Y450312D01*
Y450312D01*
D01*
D01*
D01*
X447088Y450312D01*
Y450312D01*
D01*
D01*
Y450312D01*
X447088D01*
D01*
D01*
X447088D01*
D01*
D01*
Y450312D01*
D01*
D01*
D01*
Y450312D01*
D01*
D01*
X447088D01*
D01*
X447088Y450312D01*
D01*
D01*
X447849Y451304D01*
X448328Y452460D01*
X448491Y453700D01*
Y454298D01*
X480665D01*
Y473502D01*
D02*
G37*
G36*
Y520747D02*
X431342D01*
Y515935D01*
X428644D01*
X427404Y515772D01*
X426249Y515293D01*
X425256Y514532D01*
X414112Y503388D01*
X413351Y502395D01*
X413211Y502057D01*
X412872Y501240D01*
X412709Y500000D01*
Y472791D01*
X412696Y472774D01*
X412142Y471436D01*
X411952Y470000D01*
X412142Y468564D01*
X412696Y467226D01*
X413577Y466077D01*
X414726Y465196D01*
X416064Y464642D01*
X417500Y464453D01*
X418936Y464642D01*
X420274Y465196D01*
X421423Y466077D01*
X422304Y467226D01*
X422858Y468564D01*
X423047Y470000D01*
X422858Y471436D01*
X422304Y472774D01*
X422291Y472791D01*
Y498015D01*
X429956Y505680D01*
X431342Y505106D01*
Y501542D01*
Y485794D01*
X480665D01*
Y491533D01*
X481284Y492008D01*
X491414Y502139D01*
X491436Y502142D01*
X492774Y502696D01*
X493923Y503577D01*
X494804Y504726D01*
X495358Y506064D01*
X495547Y507500D01*
X495358Y508936D01*
X494804Y510274D01*
X493923Y511423D01*
X492774Y512304D01*
X491436Y512858D01*
X490000Y513048D01*
X488564Y512858D01*
X487226Y512304D01*
X486077Y511423D01*
X485196Y510274D01*
X484642Y508936D01*
X484639Y508914D01*
X482050Y506326D01*
X480665Y506900D01*
Y520747D01*
D02*
G37*
%LPD*%
D15*
X443700Y495396D02*
X477896D01*
X430000Y537500D02*
X479390D01*
X429648Y479648D02*
X480352D01*
X405610Y513110D02*
X430000Y537500D01*
X405610Y464390D02*
Y513110D01*
X422500Y462500D02*
X427500Y467500D01*
X450000Y432500D02*
X480000D01*
X500000Y452500D01*
Y503110D01*
X506890Y510000D01*
X479390Y537500D02*
X506890Y510000D01*
X405610Y464390D02*
X407500Y462500D01*
X422500D01*
X427500Y467500D02*
Y477500D01*
X429648Y479648D01*
X480352D02*
X482500Y477500D01*
X428644Y511144D02*
X468306D01*
X477896Y495396D02*
X490000Y507500D01*
X443700Y463900D02*
X468306D01*
X443700Y453700D02*
Y463900D01*
X415000Y452500D02*
X417500Y450000D01*
X440000D01*
X443700Y453700D01*
X417500Y470000D02*
Y500000D01*
X428644Y511144D01*
D16*
X412500Y562500D02*
D03*
X500000Y412500D02*
D03*
D17*
X482500Y477500D02*
D03*
X462500Y537500D02*
D03*
X506890Y510000D02*
D03*
X412500Y520000D02*
D03*
X405610Y465610D02*
D03*
X500000Y452500D02*
D03*
X450000Y432500D02*
D03*
X490000Y507500D02*
D03*
X415000Y452500D02*
D03*
X417500Y470000D02*
D03*
D18*
X468306Y463900D02*
D03*
Y479648D02*
D03*
Y495396D02*
D03*
Y511144D02*
D03*
X443700D02*
D03*
Y495396D02*
D03*
Y479648D02*
D03*
Y463900D02*
D03*
M02*
