  0
SECTION
  2
HEADER
  9
$ACADVER
  1
AC1015
  9
$ACADMAINTVER
 70
         6
  9
$DWGCODEPAGE
  3
ANSI_1252
  9
$INSBASE
 10
0.0
 20
0.0
 30
0.0
  9
$EXTMIN
 10
-0.93969262
 20
-0.98480775
 30
0.0
  9
$EXTMAX
 10
13.0
 20
12.98480775
 30
0.0
  9
$LIMMIN
 10
0.0
 20
0.0
  9
$LIMMAX
 10
0.0
 20
0.0
  9
$ORTHOMODE
 70
         0
  9
$REGENMODE
 70
         1
  9
$FILLMODE
 70
         1
  9
$QTEXTMODE
 70
         0
  9
$MIRRTEXT
 70
         1
  9
$LTSCALE
 40
6.96367
  9
$ATTMODE
 70
         1
  9
$TEXTSIZE
 40
0.2
  9
$TRACEWID
 40
0.05
  9
$TEXTSTYLE
  7
Standard
  9
$CLAYER
  8
0
  9
$CELTYPE
  6
Continuous
  9
$CECOLOR
 62
       256
  9
$CELTSCALE
 40
1.0
  9
$DISPSILH
 70
         0
  9
$DIMSCALE
 40
1.0
  9
$DIMASZ
 40
0.18
  9
$DIMEXO
 40
0.0625
  9
$DIMDLI
 40
0.38
  9
$DIMRND
 40
0.0
  9
$DIMDLE
 40
0.0
  9
$DIMEXE
 40
0.18
  9
$DIMTP
 40
0.0
  9
$DIMTM
 40
0.0
  9
$DIMTXT
 40
0.18
  9
$DIMCEN
 40
0.09
  9
$DIMTSZ
 40
0.0
  9
$DIMTOL
 70
         0
  9
$DIMLIM
 70
         0
  9
$DIMTIH
 70
         1
  9
$DIMTOH
 70
         1
  9
$DIMSE1
 70
         0
  9
$DIMSE2
 70
         0
  9
$DIMTAD
 70
         0
  9
$DIMZIN
 70
         0
  9
$DIMBLK
  1

  9
$DIMASO
 70
         1
  9
$DIMSHO
 70
         1
  9
$DIMPOST
  1

  9
$DIMAPOST
  1

  9
$DIMALT
 70
         0
  9
$DIMALTD
 70
         2
  9
$DIMALTF
 40
25.4
  9
$DIMLFAC
 40
1.0
  9
$DIMTOFL
 70
         0
  9
$DIMTVP
 40
0.0
  9
$DIMTIX
 70
         0
  9
$DIMSOXD
 70
         0
  9
$DIMSAH
 70
         0
  9
$DIMBLK1
  1

  9
$DIMBLK2
  1

  9
$DIMSTYLE
  2
Standard
  9
$DIMCLRD
 70
         0
  9
$DIMCLRE
 70
         0
  9
$DIMCLRT
 70
         0
  9
$DIMTFAC
 40
1.0
  9
$DIMGAP
 40
0.09
  9
$DIMJUST
 70
         0
  9
$DIMSD1
 70
         0
  9
$DIMSD2
 70
         0
  9
$DIMTOLJ
 70
         1
  9
$DIMTZIN
 70
         0
  9
$DIMALTZ
 70
         0
  9
$DIMALTTZ
 70
         0
  9
$DIMUPT
 70
         0
  9
$DIMDEC
 70
         4
  9
$DIMTDEC
 70
         4
  9
$DIMALTU
 70
         2
  9
$DIMALTTD
 70
         2
  9
$DIMTXSTY
  7
Standard
  9
$DIMAUNIT
 70
         0
  9
$DIMADEC
 70
         0
  9
$DIMALTRND
 40
0.0
  9
$DIMAZIN
 70
         0
  9
$DIMDSEP
 70
         0
  9
$DIMATFIT
 70
         3
  9
$DIMFRAC
 70
         0
  9
$DIMLDRBLK
  1

  9
$DIMLUNIT
 70
         2
  9
$DIMLWD
 70
         0
  9
$DIMLWE
 70
         0
  9
$DIMTMOVE
 70
         0
  9
$LUNITS
 70
         2
  9
$LUPREC
 70
         4
  9
$SKETCHINC
 40
0.1
  9
$FILLETRAD
 40
0.0
  9
$AUNITS
 70
         0
  9
$AUPREC
 70
         0
  9
$MENU
  1
acad
  9
$ELEVATION
 40
0.0
  9
$PELEVATION
 40
0.0
  9
$THICKNESS
 40
0.0
  9
$LIMCHECK
 70
         0
  9
$CHAMFERA
 40
0.0
  9
$CHAMFERB
 40
0.0
  9
$CHAMFERC
 40
0.0
  9
$CHAMFERD
 40
0.0
  9
$SKPOLY
 70
         0
  9
$TDCREATE
 40
2461255.673217593
  9
$TDUCREATE
 40
0.000000000
  9
$TDUPDATE
 40
2461255.673217593
  9
$TDUUPDATE
 40
0.000000000
  9
$TDINDWG
 40
0.0000000000
  9
$TDUSRTIMER
 40
0.0000000000
  9
$USRTIMER
 70
         1
  9
$ANGBASE
 50
0.0
  9
$ANGDIR
 70
         0
  9
$PDMODE
 70
         0
  9
$PDSIZE
 40
0.0
  9
$PLINEWID
 40
0.0
  9
$SPLFRAME
 70
         0
  9
$SPLINETYPE
 70
         6
  9
$SPLINESEGS
 70
         8
  9
$HANDSEED
  5
79
  9
$SURFTAB1
 70
         6
  9
$SURFTAB2
 70
         6
  9
$SURFTYPE
 70
         6
  9
$SURFU
 70
         6
  9
$SURFV
 70
         6
  9
$UCSBASE
  2

  9
$UCSNAME
  2

  9
$UCSORG
 10
0.0
 20
0.0
 30
0.0
  9
$UCSXDIR
 10
1.0
 20
0.0
 30
0.0
  9
$UCSYDIR
 10
0.0
 20
1.0
 30
0.0
  9
$UCSORTHOREF
  2

  9
$UCSORTHOVIEW
 70
         0
  9
$UCSORGTOP
 10
0.0
 20
0.0
 30
0.0
  9
$UCSORGBOTTOM
 10
0.0
 20
0.0
 30
0.0
  9
$UCSORGLEFT
 10
0.0
 20
0.0
 30
0.0
  9
$UCSORGRIGHT
 10
0.0
 20
0.0
 30
0.0
  9
$UCSORGFRONT
 10
0.0
 20
0.0
 30
0.0
  9
$UCSORGBACK
 10
0.0
 20
0.0
 30
0.0
  9
$PUCSBASE
  2

  9
$PUCSNAME
  2

  9
$PUCSORG
 10
0.0
 20
0.0
 30
0.0
  9
$PUCSXDIR
 10
1.0
 20
0.0
 30
0.0
  9
$PUCSYDIR
 10
0.0
 20
1.0
 30
0.0
  9
$PUCSORTHOREF
  2

  9
$PUCSORTHOVIEW
 70
         0
  9
$PUCSORGTOP
 10
0.0
 20
0.0
 30
0.0
  9
$PUCSORGBOTTOM
 10
0.0
 20
0.0
 30
0.0
  9
$PUCSORGLEFT
 10
0.0
 20
0.0
 30
0.0
  9
$PUCSORGRIGHT
 10
0.0
 20
0.0
 30
0.0
  9
$PUCSORGFRONT
 10
0.0
 20
0.0
 30
0.0
  9
$PUCSORGBACK
 10
0.0
 20
0.0
 30
0.0
  9
$USERI1
 70
         0
  9
$USERI2
 70
         0
  9
$USERI3
 70
         0
  9
$USERI4
 70
         0
  9
$USERI5
 70
         0
  9
$USERR1
 40
0.0
  9
$USERR2
 40
0.0
  9
$USERR3
 40
0.0
  9
$USERR4
 40
0.0
  9
$USERR5
 40
0.0
  9
$WORLDVIEW
 70
         1
  9
$SHADEDGE
 70
         3
  9
$SHADEDIF
 70
        70
  9
$TILEMODE
 70
         1
  9
$MAXACTVP
 70
        16
  9
$PINSBASE
 10
0.0
 20
0.0
 30
0.0
  9
$PLIMCHECK
 70
         0
  9
$PEXTMIN
 10
1.0000000000E+20
 20
1.0000000000E+20
 30
1.0000000000E+20
  9
$PEXTMAX
 10
-1.0000000000E+20
 20
-1.0000000000E+20
 30
-1.0000000000E+20
  9
$PLIMMIN
 10
0.0
 20
0.0
  9
$PLIMMAX
 10
12.0
 20
9.0
  9
$UNITMODE
 70
         0
  9
$VISRETAIN
 70
         0
  9
$PLINEGEN
 70
         1
  9
$PSLTSCALE
 70
         0
  9
$TREEDEPTH
 70
      3020
  9
$CMLSTYLE
  2
Standard
  9
$CMLJUST
 70
         0
  9
$CMLSCALE
 40
1.0
  9
$PROXYGRAPHICS
 70
         0
  9
$MEASUREMENT
 70
         0
  9
$CELWEIGHT
370
         0
  9
$ENDCAPS
280
         0
  9
$JOINSTYLE
280
         0
  9
$LWDISPLAY
290
         0
  9
$INSUNITS
 70
         0
  9
$HYPERLINKBASE
  1

  9
$XEDIT
290
         1
  9
$CEPSNTYPE
380
         0
  9
$PSTYLEMODE
290
         1
  9
$FINGERPRINTGUID
  2

  9
$VERSIONGUID
  2

  9
$EXTNAMES
290
         1
  9
$PSVPSCALE
 40
0.0
  0
ENDSEC
  0
SECTION
  2
CLASSES
  0
CLASS
  1
LWPOLYLINE
  2
AcDbPolyline
  3
AutoCAD 2000
 90
    32768
280
         0
281
         1
  0
CLASS
  1
IMAGE
  2
AcDbRasterImage
  3
ISM
 90
    32895
280
         0
281
         1
  0
CLASS
  1
OLE2FRAME
  2
AcDbOle2Frame
  3
AutoCAD 2000
 90
    32768
280
         0
281
         1
  0
CLASS
  1
HATCH
  2
AcDbHatch
  3
AutoCAD 2000
 90
    32768
280
         0
281
         1
  0
CLASS
  1
DICTIONARYVAR
  2
AcDbDictionaryVar
  3
AutoCAD 2000
 90
    32768
280
         0
281
         0
  0
CLASS
  1
RASTERVARIABLES
  2
AcDbRasterVariables
  3
ISM
 90
    32768
280
         0
281
         0
  0
CLASS
  1
IMAGEDEF
  2
AcDbRasterImageDef
  3
ISM
 90
    32768
280
         0
281
         0
  0
CLASS
  1
IMAGEDEF_REACTOR
  2
AcDbRasterImageDefReactor
  3
ISM
 90
    32769
280
         0
281
         0
  0
CLASS
  1
IDBUFFER
  2
AcDbIdBuffer
  3
AutoCAD 2000
 90
    32768
280
         0
281
         0
  0
CLASS
  1
SPATIAL_FILTER
  2
AcDbSpatialFilter
  3
AutoCAD 2000
 90
    32768
280
         0
281
         0
  0
CLASS
  1
XRECORD
  2
AcDbXrecord
  3
AutoCAD 2000
 90
    32768
280
         0
281
         0
  0
CLASS
  1
SORTENTSTABLE
  2
AcDbSortentsTable
  3
AutoCAD 2000
 90
    32768
280
         0
281
         0
  0
CLASS
  1
LAYER_INDEX
  2
AcDbLayerIndex
  3
AutoCAD 2000
 90
    32768
280
         0
281
         0
  0
CLASS
  1
SPATIAL_INDEX
  2
AcDbSpatialIndex
  3
AutoCAD 2000
 90
    32768
280
         0
281
         0
  0
CLASS
  1
OBJECT_PTR
  2
CAseDLPNTableRecord
  3
"ASE-LPNTableRecord"
 90
    32769
280
         0
281
         0
  0
CLASS
  1
LAYOUT
  2
AcDbLayout
  3
AutoCAD 2000
 90
        0
280
         0
281
         0
  0
CLASS
  1
PLOTSETTINGS
  2
AcDbPlotSettings
  3
AutoCAD 2000
 90
    32768
280
         0
281
         0
  0
CLASS
  1
ACDBDICTIONARYWDFLT
  2
AcDbDictionaryWithDefault
  3
AutoCAD 2000
 90
        0
280
         0
281
         0
  0
CLASS
  1
ACDBPLACEHOLDER
  2
AcDbPlaceHolder
  3
AutoCAD 2000
 90
        0
280
         0
281
         0
  0
CLASS
  1
VBA_PROJECT
  2
AcDbVbaProject
  3
acadvba
 90
    32768
280
         0
281
         0
  0
CLASS
  1
WIPEOUT
  2
AcDbWipeout
  3
WipeOut|AutoCAD Express Tool|expresstools@autodesk.com
 90
    32895
280
         0
281
         1
  0
CLASS
  1
WIPEOUTVARIABLES
  2
AcDbWipeoutVariables
  3
WipeOut|AutoCAD Express Tool|expresstools@autodesk.com
 90
        0
280
         0
281
         0
  0
CLASS
  1
RTEXT
  2
RText
  3
RText|AutoCAD Express Tool|expresstools@autodesk.com
 90
    32768
280
         0
281
         1
  0
CLASS
  1
ARCALIGNEDTEXT
  2
AcDbArcAlignedText
  3
ATEXT|AutoCAD Express Tool|expresstools@autodesk.com
 90
    32768
280
         0
281
         1
  0
ENDSEC
  0
SECTION
  2
TABLES
  0
TABLE
  2
VPORT
  5
7
100
AcDbSymbolTable
 70
         1
  0
VPORT
  5
15
100
AcDbSymbolTableRecord
100
AcDbViewportTableRecord
  2
*ACTIVE
 70
         0
 10
0.0
 20
0.0
 11
1.0
 21
1.0
 12
6.591288
 22
4.579184
 13
0.0
 23
0.0
 14
1.0
 24
1.0
 15
0.0
 25
0.0
 16
0.0
 26
0.0
 36
1.0
 17
0.0
 27
0.0
 37
0.0
 40
9.158369
 41
0.688564
 42
50.0
 43
0.0
 44
0.0
 50
0.0
 51
0.0
 71
         0
 72
       100
 73
         1
 74
         1
 75
         0
 76
         0
 77
         0
 78
         0
281
         0
 65
         0
110
0.0
120
0.0
130
0.0
111
1.0
121
0.0
131
0.0
112
0.0
122
1.0
132
0.0
345
0
346
0
 79
         0
146
0.0
  0
ENDTAB
  0
TABLE
  2
LTYPE
  5
4
100
AcDbSymbolTable
 70
        13
  0
LTYPE
  5
11
100
AcDbSymbolTableRecord
100
AcDbLinetypeTableRecord
  2
ByBlock
 70
        64
  3

 72
        65
 73
         0
 40
0.0
  0
LTYPE
  5
12
100
AcDbSymbolTableRecord
100
AcDbLinetypeTableRecord
  2
ByLayer
 70
        64
  3

 72
        65
 73
         0
 40
0.0
  0
LTYPE
  5
13
100
AcDbSymbolTableRecord
100
AcDbLinetypeTableRecord
  2
Continuous
 70
        64
  3
Solid line
 72
        65
 73
         0
 40
0.0
  0
LTYPE
  5
25
100
AcDbSymbolTableRecord
100
AcDbLinetypeTableRecord
  2
Dotted
 70
        64
  3
Dotted
 72
        65
 73
         2
 40
3.175
 49
0.0
 74
         0
 49
-3.175
 74
         0
  0
LTYPE
  5
26
100
AcDbSymbolTableRecord
100
AcDbLinetypeTableRecord
  2
Center
 70
        64
  3
Center
 72
        65
 73
         4
 40
19.5579995155
 49
12.7
 74
         0
 49
-1.841499947
 74
         0
 49
3.175
 74
         0
 49
-1.841499947
 74
         0
  0
LTYPE
  5
27
100
AcDbSymbolTableRecord
100
AcDbLinetypeTableRecord
  2
Dashed
 70
        64
  3
Dashed
 72
        65
 73
         2
 40
9.525
 49
6.35
 74
         0
 49
-3.175
 74
         0
  0
LTYPE
  5
28
100
AcDbSymbolTableRecord
100
AcDbLinetypeTableRecord
  2
Hidden
 70
        64
  3
Hidden
 72
        65
 73
         2
 40
5.0164997578
 49
3.175
 74
         0
 49
-1.841499947
 74
         0
  0
LTYPE
  5
29
100
AcDbSymbolTableRecord
100
AcDbLinetypeTableRecord
  2
Phantom
 70
        64
  3
Phantom
 72
        65
 73
         6
 40
24.5744992733
 49
12.7
 74
         0
 49
-1.841499947
 74
         0
 49
3.175
 74
         0
 49
-1.841499947
 74
         0
 49
3.175
 74
         0
 49
-1.841499947
 74
         0
  0
LTYPE
  5
2A
100
AcDbSymbolTableRecord
100
AcDbLinetypeTableRecord
  2
Dashdot
 70
        64
  3
Dashdot
 72
        65
 73
         4
 40
17.1767495155
 49
12.7
 74
         0
 49
-1.841499947
 74
         0
 49
0.79375
 74
         0
 49
-1.841499947
 74
         0
  0
LTYPE
  5
2B
100
AcDbSymbolTableRecord
100
AcDbLinetypeTableRecord
  2
Border
 70
        64
  3
Border
 72
        65
 73
         6
 40
31.7182492733
 49
12.7
 74
         0
 49
-1.841499947
 74
         0
 49
12.7
 74
         0
 49
-1.841499947
 74
         0
 49
0.79375
 74
         0
 49
-1.841499947
 74
         0
  0
LTYPE
  5
2C
100
AcDbSymbolTableRecord
100
AcDbLinetypeTableRecord
  2
Divide
 70
        64
  3
Divide
 72
        65
 73
         6
 40
19.8119992733
 49
12.7
 74
         0
 49
-1.841499947
 74
         0
 49
0.79375
 74
         0
 49
-1.841499947
 74
         0
 49
0.79375
 74
         0
 49
-1.841499947
 74
         0
  0
LTYPE
  5
2D
100
AcDbSymbolTableRecord
100
AcDbLinetypeTableRecord
  2
Cutting
 70
        64
  3
Cutting
 72
        65
 73
         6
 40
37.2744992733
 49
25.4
 74
         0
 49
-1.841499947
 74
         0
 49
3.175
 74
         0
 49
-1.841499947
 74
         0
 49
3.175
 74
         0
 49
-1.841499947
 74
         0
  0
LTYPE
  5
2E
100
AcDbSymbolTableRecord
100
AcDbLinetypeTableRecord
  2
Stitch
 70
        64
  3
Stitch
 72
        65
 73
         2
 40
3.682999894
 49
1.841499947
 74
         0
 49
-1.841499947
 74
         0
  0
ENDTAB
  0
TABLE
  2
LAYER
  5
2
100
AcDbSymbolTable
 70
        25
  0
LAYER
  5
14
100
AcDbSymbolTableRecord
100
AcDbLayerTableRecord
  2
0
 70
         0
 62
         7
  6
Continuous
290
         1
370
        -3
390
1D
  0
LAYER
  5
2F
100
AcDbSymbolTableRecord
100
AcDbLayerTableRecord
  2
LAYER1
 70
         0
 62
        -7
  6
Continuous
290
         1
370
         2
390
1F
  0
LAYER
  5
30
100
AcDbSymbolTableRecord
100
AcDbLayerTableRecord
  2
CONSTRUCTION
 70
         0
 62
        -7
  6
Continuous
290
         1
370
         0
390
1F
  0
LAYER
  5
31
100
AcDbSymbolTableRecord
100
AcDbLayerTableRecord
  2
DIMENSION
 70
         0
 62
        -7
  6
Continuous
290
         1
370
         0
390
1F
  0
LAYER
  5
32
100
AcDbSymbolTableRecord
100
AcDbLayerTableRecord
  2
CONSTRAINTS
 70
         0
 62
        -7
  6
Continuous
290
         1
370
         0
390
1F
  0
LAYER
  5
33
100
AcDbSymbolTableRecord
100
AcDbLayerTableRecord
  2
0
 70
         0
 62
        -7
  6
Continuous
290
         1
370
         2
390
1F
  0
LAYER
  5
34
100
AcDbSymbolTableRecord
100
AcDbLayerTableRecord
  2
0_PHOTOS_1
 70
         0
 62
        -7
  6
Continuous
290
         1
370
         2
390
1F
  0
LAYER
  5
35
100
AcDbSymbolTableRecord
100
AcDbLayerTableRecord
  2
1_TRACE_1
 70
         0
 62
        -7
  6
Continuous
290
         1
370
         2
390
1F
  0
LAYER
  5
36
100
AcDbSymbolTableRecord
100
AcDbLayerTableRecord
  2
1_TRACE_2
 70
         0
 62
        -7
  6
Continuous
290
         1
370
         2
390
1F
  0
LAYER
  5
37
100
AcDbSymbolTableRecord
100
AcDbLayerTableRecord
  2
1_TRACE_3
 70
         0
 62
        -7
  6
Continuous
290
         1
370
         2
390
1F
  0
LAYER
  5
38
100
AcDbSymbolTableRecord
100
AcDbLayerTableRecord
  2
1_TRACE_4
 70
         0
 62
        -7
  6
Continuous
290
         1
370
         2
390
1F
  0
LAYER
  5
39
100
AcDbSymbolTableRecord
100
AcDbLayerTableRecord
  2
2_SPLINE_SLEEVE_1
 70
         0
 62
        -7
  6
Continuous
290
         1
370
         2
390
1F
  0
LAYER
  5
3A
100
AcDbSymbolTableRecord
100
AcDbLayerTableRecord
  2
2_SPLINE_FRONT_1
 70
         0
 62
        -7
  6
Continuous
290
         1
370
         2
390
1F
  0
LAYER
  5
3B
100
AcDbSymbolTableRecord
100
AcDbLayerTableRecord
  2
2_SPLINE_BACK_1
 70
         0
 62
        -7
  6
Continuous
290
         1
370
         2
390
1F
  0
LAYER
  5
3C
100
AcDbSymbolTableRecord
100
AcDbLayerTableRecord
  2
3_MOD_FRONT_1
 70
         0
 62
        -4
  6
Continuous
290
         1
370
         2
390
1F
  0
LAYER
  5
3D
100
AcDbSymbolTableRecord
100
AcDbLayerTableRecord
  2
3_MOD_BACK_1
 70
         0
 62
        -7
  6
Continuous
290
         1
370
         2
390
1F
  0
LAYER
  5
3E
100
AcDbSymbolTableRecord
100
AcDbLayerTableRecord
  2
3_MOD_SLEEVE_1
 70
         0
 62
        -7
  6
Continuous
290
         1
370
         2
390
1F
  0
LAYER
  5
3F
100
AcDbSymbolTableRecord
100
AcDbLayerTableRecord
  2
3_MOD_SLEEVE_BACK_1
 70
         0
 62
        -7
  6
Continuous
290
         1
370
         2
390
1F
  0
LAYER
  5
40
100
AcDbSymbolTableRecord
100
AcDbLayerTableRecord
  2
3_MOD_SLEEVE_FRONT_1
 70
         0
 62
        -7
  6
Continuous
290
         1
370
         2
390
1F
  0
LAYER
  5
41
100
AcDbSymbolTableRecord
100
AcDbLayerTableRecord
  2
0_MATERIAL_1
 70
         0
 62
       -55
  6
Continuous
290
         1
370
         2
390
1F
  0
LAYER
  5
42
100
AcDbSymbolTableRecord
100
AcDbLayerTableRecord
  2
4_FOLD_1
 70
         0
 62
       -55
  6
Continuous
290
         1
370
         2
390
1F
  0
LAYER
  5
43
100
AcDbSymbolTableRecord
100
AcDbLayerTableRecord
  2
5_SEW_1
 70
         0
 62
       -55
  6
Continuous
290
         1
370
         2
390
1F
  0
LAYER
  5
44
100
AcDbSymbolTableRecord
100
AcDbLayerTableRecord
  2
6_CUT_1
 70
         0
 62
         5
  6
Continuous
290
         1
370
         2
390
1F
  0
LAYER
  5
45
100
AcDbSymbolTableRecord
100
AcDbLayerTableRecord
  2
7_NOTCHES_1
 70
         0
 62
         3
  6
Continuous
290
         1
370
         2
390
1F
  0
LAYER
  5
46
100
AcDbSymbolTableRecord
100
AcDbLayerTableRecord
  2
8_CONST_1
 70
         0
 62
        -3
  6
Continuous
290
         1
370
         2
390
1F
  0
ENDTAB
  0
TABLE
  2
STYLE
  5
3
100
AcDbSymbolTable
 70
         2
  0
STYLE
  5
17
100
AcDbSymbolTableRecord
100
AcDbTextStyleTableRecord
  2
Standard
 70
         0
 40
0.0
 41
1.0
 50
0.0
 71
         0
 42
0.0
  3
txt
  4

  0
STYLE
  5
24
100
AcDbSymbolTableRecord
100
AcDbTextStyleTableRecord
  2
Plotter
 70
         0
 40
0.0
 41
0.98
 50
0.0
 71
         0
 42
0.0
  3
SIMPLEX
  4

  0
ENDTAB
  0
TABLE
  2
VIEW
  5
5
100
AcDbSymbolTable
 70
         0
  0
ENDTAB
  0
TABLE
  2
UCS
  5
6
100
AcDbSymbolTable
 70
         0
  0
ENDTAB
  0
TABLE
  2
APPID
  5
8
100
AcDbSymbolTable
 70
         1
  0
APPID
  5
16
100
AcDbSymbolTableRecord
100
AcDbRegAppTableRecord
  2
ACAD
 70
         0
  0
ENDTAB
  0
TABLE
  2
DIMSTYLE
  5
9
100
AcDbSymbolTable
 70
         1
100
AcDbDimStyleTable
 71
         0
  0
DIMSTYLE
105
18
100
AcDbSymbolTableRecord
100
AcDbDimStyleTableRecord
  2
Standard
 70
         0
  3

  4

 40
1.0
 41
0.18
 42
0.0625
 43
0.38
 44
0.18
 45
0.0
 46
0.0
 47
0.0
 48
0.0
 71
         0
 72
         0
 73
         1
 74
         1
 75
         0
 76
         0
 77
         0
 78
         0
 79
         0
140
0.18
141
0.09
142
0.0
143
25.4
144
1.0
145
0.0
146
1.0
147
0.09
148
0.0
170
         0
171
         2
172
         0
173
         0
174
         0
175
         0
176
         0
177
         0
178
         0
179
         0
271
         4
272
         4
273
         2
274
         2
275
         0
276
         0
277
         2
278
        46
279
         0
280
         0
281
         0
282
         0
283
         1
284
         0
285
         0
286
         0
288
         0
340
17
341
0
342
0
343
0
344
0
371
        -2
372
        -2
  0
ENDTAB
  0
TABLE
  2
BLOCK_RECORD
  5
1
100
AcDbSymbolTable
 70
         0
  0
BLOCK_RECORD
  5
A
100
AcDbSymbolTableRecord
100
AcDbBlockTableRecord
  2
*MODEL_SPACE
340
20
  0
BLOCK_RECORD
  5
B
100
AcDbSymbolTableRecord
100
AcDbBlockTableRecord
  2
*PAPER_SPACE
340
21
  0
ENDTAB
  0
ENDSEC
  0
SECTION
  2
BLOCKS
  0
BLOCK
  5
D
100
AcDbEntity
  8
0
100
AcDbBlockBegin
  2
*MODEL_SPACE
 70
         0
 10
0.0
 20
0.0
 30
0.0
  3
*MODEL_SPACE
  1

  0
ENDBLK
  5
E
100
AcDbEntity
  8
0
100
AcDbBlockEnd
  0
BLOCK
  5
F
100
AcDbEntity
 67
         1
  8
0
100
AcDbBlockBegin
  2
*PAPER_SPACE
 70
         0
 10
0.0
 20
0.0
 30
0.0
  3
*PAPER_SPACE
  1

  0
ENDBLK
  5
10
100
AcDbEntity
 67
         1
  8
0
100
AcDbBlockEnd
  0
ENDSEC
  0
SECTION
  2
ENTITIES
  0
LINE
  5
47
100
AcDbEntity
  8
6_CUT_1
370
        25
  6
Continuous
 62
         5
100
AcDbLine
 10
10319.0553103622
 20
884.23898987
 30
0.0
 11
10325.8024065442
 21
892.9713676215
 31
-0.0
  0
LINE
  5
48
100
AcDbEntity
  8
6_CUT_1
370
        25
  6
Continuous
 62
         5
100
AcDbLine
 10
10301.9572771216
 20
868.8156693142
 30
0.0
 11
10319.0553103622
 21
884.23898987
 31
0.0
  0
LINE
  5
49
100
AcDbEntity
  8
6_CUT_1
370
        25
  6
Continuous
 62
         5
100
AcDbLine
 10
10153.2515394188
 20
768.5349759504
 30
0.0
 11
10168.915692958
 21
779.4676056719
 31
0.0
  0
LINE
  5
4A
100
AcDbEntity
  8
6_CUT_1
370
        25
  6
Continuous
 62
         5
100
AcDbLine
 10
10133.1685487312
 20
753.3719891198
 30
0.0
 11
10153.2515394188
 21
768.5349759504
 31
0.0
  0
LINE
  5
4B
100
AcDbEntity
  8
6_CUT_1
370
        25
  6
Continuous
 62
         5
100
AcDbLine
 10
10101.27803725
 20
728.8160947293
 30
0.0
 11
10133.1685487312
 21
753.3719891198
 31
0.0
  0
LINE
  5
4C
100
AcDbEntity
  8
6_CUT_1
370
        25
  6
Continuous
 62
         5
100
AcDbLine
 10
10078.2441163912
 20
711.2303489384
 30
0.0
 11
10101.27803725
 21
728.8160947293
 31
0.0
  0
LINE
  5
4D
100
AcDbEntity
  8
6_CUT_1
370
        25
  6
Continuous
 62
         5
100
AcDbLine
 10
10057.5724431777
 20
695.4635498276
 30
0.0
 11
10078.2441163912
 21
711.2303489384
 31
0.0
  0
LINE
  5
4E
100
AcDbEntity
  8
6_CUT_1
370
        25
  6
Continuous
 62
         5
100
AcDbLine
 10
10042.2442322535
 20
681.5535182967
 30
0.0
 11
10057.5724431777
 21
695.4635498276
 31
0.0
  0
LINE
  5
4F
100
AcDbEntity
  8
6_CUT_1
370
        25
  6
Continuous
 62
         5
100
AcDbLine
 10
10285.4252800848
 20
855.7848814448
 30
0.0
 11
10301.9572771216
 21
868.8156693142
 31
0.0
  0
LINE
  5
50
100
AcDbEntity
  8
6_CUT_1
370
        25
  6
Continuous
 62
         5
100
AcDbLine
 10
10266.2252624868
 20
841.5275707628
 30
0.0
 11
10285.4252800848
 21
855.7848814448
 31
0.0
  0
LINE
  5
51
100
AcDbEntity
  8
6_CUT_1
370
        25
  6
Continuous
 62
         5
100
AcDbLine
 10
10239.0215023181
 20
823.5907789471
 30
0.0
 11
10266.2252624868
 21
841.5275707628
 31
0.0
  0
LINE
  5
52
100
AcDbEntity
  8
6_CUT_1
370
        25
  6
Continuous
 62
         5
100
AcDbLine
 10
10218.3119892382
 20
810.8051750263
 30
0.0
 11
10239.0215023181
 21
823.5907789471
 31
0.0
  0
LINE
  5
53
100
AcDbEntity
  8
6_CUT_1
370
        25
  6
Continuous
 62
         5
100
AcDbLine
 10
10258.3144295609
 20
951.8746007974
 30
-0.0
 11
10256.4884107784
 21
962.025
 31
-0.0
  0
LINE
  5
54
100
AcDbEntity
  8
6_CUT_1
370
        25
  6
Continuous
 62
         5
100
AcDbLine
 10
10262.3296351303
 20
941.3533623465
 30
-0.0
 11
10258.3144295609
 21
951.8746007974
 31
-0.0
  0
CIRCLE
  5
55
100
AcDbEntity
  8
7_NOTCHES_1
370
        25
  6
Continuous
 62
         3
100
AcDbCircle
 10
10185.4
 20
947.7375
 30
-0.0
 40
2.0
  0
CIRCLE
  5
56
100
AcDbEntity
  8
7_NOTCHES_1
370
        25
  6
Continuous
 62
         3
100
AcDbCircle
 10
10083.8
 20
947.7375
 30
-0.0
 40
2.0
  0
CIRCLE
  5
57
100
AcDbEntity
  8
7_NOTCHES_1
370
        25
  6
Continuous
 62
         3
100
AcDbCircle
 10
9982.2
 20
947.7375
 30
-0.0
 40
2.0
  0
CIRCLE
  5
58
100
AcDbEntity
  8
7_NOTCHES_1
370
        25
  6
Continuous
 62
         3
100
AcDbCircle
 10
9880.6
 20
947.7375
 30
0.0
 40
2.0
  0
LINE
  5
59
100
AcDbEntity
  8
7_NOTCHES_1
370
        25
  6
Continuous
 62
         3
100
AcDbLine
 10
9702.8
 20
962.025
 30
0.0
 11
9715.5
 21
962.025
 31
-0.0
  0
LINE
  5
5A
100
AcDbEntity
  8
6_CUT_1
370
        25
  6
Continuous
 62
         5
100
AcDbLine
 10
9709.5823034033
 20
651.3417724936
 30
0.0
 11
9702.8
 21
962.025
 31
0.0
  0
LINE
  5
5B
100
AcDbEntity
  8
7_NOTCHES_1
370
        25
  6
Continuous
 62
         3
100
AcDbLine
 10
9709.2349459899
 20
667.7410544734
 30
0.0
 11
9721.8508657293
 21
666.711127379
 31
0.0
  0
CIRCLE
  5
5C
100
AcDbEntity
  8
7_NOTCHES_1
370
        25
  6
Continuous
 62
         3
100
AcDbCircle
 10
9779.0
 20
947.7375
 30
0.0
 40
2.0
  0
LINE
  5
5D
100
AcDbEntity
  8
6_CUT_1
370
        25
  6
Continuous
 62
         5
100
AcDbLine
 10
10008.049288563
 20
603.5966928747
 30
0.0
 11
9709.5823034033
 21
651.3417724936
 31
0.0
  0
LINE
  5
5E
100
AcDbEntity
  8
6_CUT_1
370
        25
  6
Continuous
 62
         5
100
AcDbLine
 10
10256.4884107784
 20
1041.4
 30
-0.0
 11
10256.4884107784
 21
962.025
 31
-0.0
  0
LINE
  5
5F
100
AcDbEntity
  8
6_CUT_1
370
        25
  6
Continuous
 62
         5
100
AcDbLine
 10
9702.8
 20
962.025
 30
0.0
 11
9702.8
 21
1025.525
 31
0.0
  0
LINE
  5
60
100
AcDbEntity
  8
7_NOTCHES_1
370
        25
  6
Continuous
 62
         3
100
AcDbLine
 10
10256.4884107784
 20
1025.525
 30
-0.0
 11
10250.1384107784
 21
1025.525
 31
-0.0
  0
LINE
  5
61
100
AcDbEntity
  8
7_NOTCHES_1
370
        25
  6
Continuous
 62
         3
100
AcDbLine
 10
9718.8175491514
 20
1041.4
 30
-0.0
 11
9718.8175491514
 21
1028.7
 31
-0.0
  0
LINE
  5
62
100
AcDbEntity
  8
7_NOTCHES_1
370
        25
  6
Continuous
 62
         3
100
AcDbLine
 10
9702.8
 20
1025.525
 30
0.0
 11
9715.5
 21
1025.525
 31
-0.0
  0
LINE
  5
63
100
AcDbEntity
  8
6_CUT_1
370
        25
  6
Continuous
 62
         5
100
AcDbLine
 10
9702.8
 20
1025.525
 30
0.0
 11
9702.8
 21
1041.4
 31
0.0
  0
LINE
  5
64
100
AcDbEntity
  8
6_CUT_1
370
        25
  6
Continuous
 62
         5
100
AcDbLine
 10
9702.8
 20
1041.4
 30
0.0
 11
10256.4884107784
 21
1041.4
 31
-0.0
  0
LINE
  5
65
100
AcDbEntity
  8
7_NOTCHES_1
370
        25
  6
Continuous
 62
         3
100
AcDbLine
 10
10256.4884107784
 20
962.025
 30
-0.0
 11
10250.1384107784
 21
962.025
 31
-0.0
  0
LINE
  5
66
100
AcDbEntity
  8
6_CUT_1
370
        25
  6
Continuous
 62
         5
100
AcDbLine
 10
10269.7119871303
 20
930.8951690403
 30
-0.0
 11
10262.3296351303
 21
941.3533623465
 31
-0.0
  0
LINE
  5
67
100
AcDbEntity
  8
6_CUT_1
370
        25
  6
Continuous
 62
         5
100
AcDbLine
 10
10276.9636352629
 20
921.9692806209
 30
-0.0
 11
10269.7119871303
 21
930.8951690403
 31
-0.0
  0
LINE
  5
68
100
AcDbEntity
  8
6_CUT_1
370
        25
  6
Continuous
 62
         5
100
AcDbLine
 10
10196.7157227385
 20
797.4119786575
 30
0.0
 11
10218.3119892382
 21
810.8051750263
 31
0.0
  0
LINE
  5
69
100
AcDbEntity
  8
7_NOTCHES_1
370
        25
  6
Continuous
 62
         3
100
AcDbLine
 10
9861.9907959832
 20
627.4692326841
 30
0.0
 11
9862.5029383905
 21
630.6026549593
 31
0.0
  0
LINE
  5
6A
100
AcDbEntity
  8
6_CUT_1
370
        25
  6
Continuous
 62
         5
100
AcDbLine
 10
10168.915692958
 20
779.4676056719
 30
0.0
 11
10196.7157227385
 21
797.4119786575
 31
0.0
  0
LINE
  5
6B
100
AcDbEntity
  8
6_CUT_1
370
        25
  6
Continuous
 62
         5
100
AcDbLine
 10
10033.7197775714
 20
671.9041088938
 30
0.0
 11
10042.2442322535
 21
681.5535182967
 31
0.0
  0
LINE
  5
6C
100
AcDbEntity
  8
6_CUT_1
370
        25
  6
Continuous
 62
         5
100
AcDbLine
 10
10026.09348312
 20
661.9679007745
 30
0.0
 11
10033.7197775714
 21
671.9041088938
 31
0.0
  0
LINE
  5
6D
100
AcDbEntity
  8
6_CUT_1
370
        25
  6
Continuous
 62
         5
100
AcDbLine
 10
10017.3578704658
 20
645.4579850973
 30
0.0
 11
10026.09348312
 21
661.9679007745
 31
0.0
  0
LINE
  5
6E
100
AcDbEntity
  8
6_CUT_1
370
        25
  6
Continuous
 62
         5
100
AcDbLine
 10
10011.5883303003
 20
630.1783529467
 30
0.0
 11
10017.3578704658
 21
645.4579850973
 31
0.0
  0
LINE
  5
6F
100
AcDbEntity
  8
6_CUT_1
370
        25
  6
Continuous
 62
         5
100
AcDbLine
 10
10008.4980766327
 20
615.2308506579
 30
0.0
 11
10011.5883303003
 21
630.1783529467
 31
0.0
  0
LINE
  5
70
100
AcDbEntity
  8
6_CUT_1
370
        25
  6
Continuous
 62
         5
100
AcDbLine
 10
10008.049288563
 20
603.5966928747
 30
0.0
 11
10008.4980766327
 21
615.2308506579
 31
0.0
  0
LINE
  5
71
100
AcDbEntity
  8
7_NOTCHES_1
370
        25
  6
Continuous
 62
         3
100
AcDbLine
 10
9992.0299423789
 20
606.2149759525
 30
0.0
 11
9993.1182422316
 21
618.8682602468
 31
0.0
  0
LINE
  5
72
100
AcDbEntity
  8
7_NOTCHES_1
370
        25
  6
Continuous
 62
         3
100
AcDbLine
 10
10009.0641050642
 20
619.4986506012
 30
0.0
 11
9996.5326926289
 21
621.5611011767
 31
0.0
  0
LINE
  5
73
100
AcDbEntity
  8
7_NOTCHES_1
370
        25
  6
Continuous
 62
         3
100
AcDbLine
 10
10147.2742489282
 20
764.1253533734
 30
0.0
 11
10145.3726391085
 21
766.667892477
 31
0.0
  0
LINE
  5
74
100
AcDbEntity
  8
6_CUT_1
370
        25
  6
Continuous
 62
         5
100
AcDbLine
 10
10285.4957503379
 20
914.8742399789
 30
-0.0
 11
10276.9636352629
 21
921.9692806209
 31
-0.0
  0
LINE
  5
75
100
AcDbEntity
  8
6_CUT_1
370
        25
  6
Continuous
 62
         5
100
AcDbLine
 10
10293.2132985181
 20
908.3854567405
 30
-0.0
 11
10285.4957503379
 21
914.8742399789
 31
-0.0
  0
LINE
  5
76
100
AcDbEntity
  8
6_CUT_1
370
        25
  6
Continuous
 62
         5
100
AcDbLine
 10
10304.5497259307
 20
901.6530903937
 30
-0.0
 11
10293.2132985181
 21
908.3854567405
 31
-0.0
  0
LINE
  5
77
100
AcDbEntity
  8
6_CUT_1
370
        25
  6
Continuous
 62
         5
100
AcDbLine
 10
10315.6163820507
 20
897.0171857044
 30
-0.0
 11
10304.5497259307
 21
901.6530903937
 31
-0.0
  0
LINE
  5
78
100
AcDbEntity
  8
6_CUT_1
370
        25
  6
Continuous
 62
         5
100
AcDbLine
 10
10325.8024065442
 20
892.9713676215
 30
-0.0
 11
10315.6163820507
 21
897.0171857044
 31
-0.0
  0
ENDSEC
  0
SECTION
  2
OBJECTS
  0
DICTIONARY
  5
19
100
AcDbDictionary
280
         0
281
         1
  3
ACAD_GROUP
350
1A
  3
ACAD_MLINESTYLE
350
1B
  3
ACAD_LAYOUT
350
1E
  3
ACAD_PLOTSETTINGS
350
22
  3
ACAD_PLOTSTYLENAME
350
1F
  3
ACAD_WIPEOUT_VARS
350
23
  0
DICTIONARY
  5
1A
102
{ACAD_REACTORS
330
19
102
}
100
AcDbDictionary
280
         0
281
         1
  0
DICTIONARY
  5
1B
102
{ACAD_REACTORS
330
19
102
}
100
AcDbDictionary
280
         0
281
         1
  3
Standard
350
1C
  0
MLINESTYLE
  5
1C
102
{ACAD_REACTORS
330
1B
102
}
100
AcDbMlineStyle
  2
Standard
 70
         0
  3

 62
         0
 51
90.0
 52
90.0
 71
         2
 49
0.5
 62
       256
  6
BYLAYER
 49
-0.5
 62
       256
  6
BYLAYER
  0
ACDBDICTIONARYWDFLT
  5
1F
102
{ACAD_REACTORS
330
19
102
}
100
AcDbDictionary
281
         1
  3
Normal
350
1D
100
AcDbDictionaryWithDefault
340
1D
  0
ACDBPLACEHOLDER
  5
1D
102
{ACAD_REACTORS
330
1F
102
}
  0
LAYOUT
  5
20
102
{ACAD_REACTORS
330
1E
102
}
100
AcDbPlotSettings
  1

  2

  4

  6

 40
0.0
 41
0.0
 42
0.0
 43
0.0
 44
0.0
 45
0.0
 46
0.0
 47
0.0
 48
0.0
 49
0.0
140
0.0
141
0.0
142
1.0
143
1.0
 70
      1024
 72
         0
 73
         0
 74
         0
  7

 75
         0
147
1.0
148
0.0
149
0.0
100
AcDbLayout
  1
Model
 70
         0
 71
         0
 10
0.0
 20
0.0
 11
0.0
 21
0.0
 12
0.0
 22
0.0
 32
0.0
 14
0.0
 24
0.0
 34
0.0
 15
0.0
 25
0.0
 35
0.0
146
0.0
 13
0.0
 23
0.0
 33
0.0
 16
0.0
 26
0.0
 36
0.0
 17
0.0
 27
0.0
 37
0.0
 76
         0
330
A
331
0
345
0
346
0
  0
LAYOUT
  5
21
102
{ACAD_REACTORS
330
1E
102
}
100
AcDbPlotSettings
  1

  2

  4

  6

 40
0.0
 41
0.0
 42
0.0
 43
0.0
 44
0.0
 45
0.0
 46
0.0
 47
0.0
 48
0.0
 49
0.0
140
0.0
141
0.0
142
1.0
143
1.0
 70
         0
 72
         0
 73
         0
 74
         0
  7

 75
         0
147
1.0
148
0.0
149
0.0
100
AcDbLayout
  1
Layout1
 70
         0
 71
         0
 10
0.0
 20
0.0
 11
0.0
 21
0.0
 12
0.0
 22
0.0
 32
0.0
 14
0.0
 24
0.0
 34
0.0
 15
0.0
 25
0.0
 35
0.0
146
0.0
 13
0.0
 23
0.0
 33
0.0
 16
0.0
 26
0.0
 36
0.0
 17
0.0
 27
0.0
 37
0.0
 76
         0
330
B
331
0
345
0
346
0
  0
DICTIONARY
  5
1E
102
{ACAD_REACTORS
330
19
102
}
100
AcDbDictionary
280
         0
281
         1
  3
Layout1
350
21
  3
Model
350
20
  0
DICTIONARY
  5
22
102
{ACAD_REACTORS
330
19
102
}
100
AcDbDictionary
280
         0
281
         1
  0
WIPEOUTVARIABLES
  5
23
100
AcDbWipeoutVariables
 70
         1
  0
ENDSEC
  0
EOF
