%FSLAX25Y25*%
%MOIN*%
G70*
G01*
G75*
G04 Layer_Color=48896*
%ADD10P,0.08352X4X369.0*%
%ADD11P,0.08352X4X81.0*%
%ADD12P,0.08352X4X153.0*%
%ADD13R,0.05906X0.05906*%
%ADD14P,0.08352X4X117.0*%
%ADD15R,0.05906X0.05906*%
%ADD16C,0.02500*%
%ADD17C,0.05000*%
%ADD18C,0.16500*%
%ADD19C,0.04000*%
%ADD20R,0.08000X0.05000*%
%ADD21R,0.05000X0.08000*%
%ADD22R,0.12205X0.17716*%
G04:AMPARAMS|DCode=23|XSize=122.05mil|YSize=177.16mil|CornerRadius=0mil|HoleSize=0mil|Usage=FLASHONLY|Rotation=240.000|XOffset=0mil|YOffset=0mil|HoleType=Round|Shape=Rectangle|*
%AMROTATEDRECTD23*
4,1,4,-0.04620,0.09714,0.10723,0.00856,0.04620,-0.09714,-0.10723,-0.00856,-0.04620,0.09714,0.0*
%
%ADD23ROTATEDRECTD23*%

G04:AMPARAMS|DCode=24|XSize=122.05mil|YSize=177.16mil|CornerRadius=0mil|HoleSize=0mil|Usage=FLASHONLY|Rotation=120.000|XOffset=0mil|YOffset=0mil|HoleType=Round|Shape=Rectangle|*
%AMROTATEDRECTD24*
4,1,4,0.10723,-0.00856,-0.04620,-0.09714,-0.10723,0.00856,0.04620,0.09714,0.10723,-0.00856,0.0*
%
%ADD24ROTATEDRECTD24*%

%ADD25C,0.01000*%
%ADD26C,0.01200*%
%ADD27C,0.01500*%
%ADD28P,0.06937X4X369.0*%
%ADD29P,0.06937X4X81.0*%
%ADD30P,0.06937X4X153.0*%
%ADD31R,0.04906X0.04906*%
%ADD32P,0.06937X4X117.0*%
%ADD33R,0.04906X0.04906*%
%ADD34R,0.07000X0.04000*%
%ADD35R,0.04000X0.07000*%
%ADD36R,0.11205X0.16716*%
G04:AMPARAMS|DCode=37|XSize=112.05mil|YSize=167.16mil|CornerRadius=0mil|HoleSize=0mil|Usage=FLASHONLY|Rotation=240.000|XOffset=0mil|YOffset=0mil|HoleType=Round|Shape=Rectangle|*
%AMROTATEDRECTD37*
4,1,4,-0.04437,0.09031,0.10040,0.00673,0.04437,-0.09031,-0.10040,-0.00673,-0.04437,0.09031,0.0*
%
%ADD37ROTATEDRECTD37*%

G04:AMPARAMS|DCode=38|XSize=112.05mil|YSize=167.16mil|CornerRadius=0mil|HoleSize=0mil|Usage=FLASHONLY|Rotation=120.000|XOffset=0mil|YOffset=0mil|HoleType=Round|Shape=Rectangle|*
%AMROTATEDRECTD38*
4,1,4,0.10040,-0.00673,-0.04437,-0.09031,-0.10040,0.00673,0.04437,0.09031,0.10040,-0.00673,0.0*
%
%ADD38ROTATEDRECTD38*%

%ADD39P,0.09483X4X369.0*%
%ADD40P,0.09483X4X81.0*%
%ADD41P,0.09483X4X153.0*%
%ADD42R,0.06706X0.06706*%
%ADD43P,0.09483X4X117.0*%
%ADD44R,0.06706X0.06706*%
%ADD45C,0.17300*%
%ADD46C,0.04800*%
%ADD47R,0.08800X0.05800*%
%ADD48R,0.05800X0.08800*%
%ADD49R,0.13005X0.18517*%
G04:AMPARAMS|DCode=50|XSize=130.05mil|YSize=185.17mil|CornerRadius=0mil|HoleSize=0mil|Usage=FLASHONLY|Rotation=240.000|XOffset=0mil|YOffset=0mil|HoleType=Round|Shape=Rectangle|*
%AMROTATEDRECTD50*
4,1,4,-0.04767,0.10260,0.11269,0.01002,0.04767,-0.10260,-0.11269,-0.01002,-0.04767,0.10260,0.0*
%
%ADD50ROTATEDRECTD50*%

G04:AMPARAMS|DCode=51|XSize=130.05mil|YSize=185.17mil|CornerRadius=0mil|HoleSize=0mil|Usage=FLASHONLY|Rotation=120.000|XOffset=0mil|YOffset=0mil|HoleType=Round|Shape=Rectangle|*
%AMROTATEDRECTD51*
4,1,4,0.11269,-0.01002,-0.04767,-0.10260,-0.11269,0.01002,0.04767,0.10260,0.11269,-0.01002,0.0*
%
%ADD51ROTATEDRECTD51*%

D45*
X1100000Y873000D02*
D03*
X1126500Y919000D02*
D03*
X1073000Y919500D02*
D03*
D46*
X1052500Y965000D02*
D03*
X1017500Y950000D02*
D03*
X975000Y937500D02*
D03*
Y972500D02*
D03*
X985000Y950000D02*
D03*
X1010000Y927500D02*
D03*
X1007500Y982500D02*
D03*
X1022500Y990000D02*
D03*
X1057500Y992500D02*
D03*
X1155000Y922500D02*
D03*
X1195000Y940000D02*
D03*
X1207500Y917500D02*
D03*
X1167500Y925000D02*
D03*
X1152500Y972500D02*
D03*
X1170000Y957500D02*
D03*
X1205000Y982500D02*
D03*
X1230000Y962500D02*
D03*
X1207500Y932500D02*
D03*
X1070000Y792500D02*
D03*
X1100000Y820000D02*
D03*
X1090000Y785000D02*
D03*
X1117500Y845000D02*
D03*
X1090000Y857500D02*
D03*
X1132500Y795000D02*
D03*
X1102500Y767500D02*
D03*
X1062500Y822500D02*
D03*
X1070000Y810000D02*
D03*
X1117500Y882500D02*
D03*
X1100000Y900000D02*
D03*
X1057874Y851362D02*
D03*
X1072500Y885000D02*
D03*
X1100000Y942500D02*
D03*
Y922500D02*
D03*
X1165374Y893638D02*
D03*
X1157500Y880000D02*
D03*
X1149626Y866362D02*
D03*
X1141752Y852724D02*
D03*
X1050000Y865000D02*
D03*
X1034252Y892276D02*
D03*
X1042126Y878638D02*
D03*
X1123248Y965394D02*
D03*
X1107500D02*
D03*
X1091752D02*
D03*
X1076004D02*
D03*
X1106890Y786402D02*
D03*
D47*
X1064500Y809500D02*
D03*
Y820500D02*
D03*
X1204500Y931500D02*
D03*
X1204500Y920500D02*
D03*
D48*
X1020500Y988500D02*
D03*
X1009500D02*
D03*
D49*
X1123248Y965394D02*
D03*
X1107500D02*
D03*
X1091752D02*
D03*
X1123248Y990000D02*
D03*
X1107500D02*
D03*
X1091752D02*
D03*
X1076004Y965394D02*
D03*
Y990000D02*
D03*
D50*
X1141752Y852724D02*
D03*
X1149626Y866362D02*
D03*
X1157500Y880000D02*
D03*
X1163062Y840421D02*
D03*
X1170936Y854059D02*
D03*
X1178810Y867697D02*
D03*
X1165374Y893638D02*
D03*
X1186684Y881335D02*
D03*
D51*
X1034252Y892276D02*
D03*
X1042126Y878638D02*
D03*
X1050000Y865000D02*
D03*
X1012942Y879973D02*
D03*
X1020816Y866335D02*
D03*
X1028690Y852697D02*
D03*
X1057874Y851362D02*
D03*
X1036564Y839059D02*
D03*
M02*
