%FSLAX25Y25*%
%MOIN*%
G70*
G01*
G75*
G04 Layer_Color=33789*
%ADD10R,0.05906X0.05906*%
%ADD11R,0.08000X0.05000*%
%ADD12C,0.02500*%
%ADD13C,0.00100*%
%ADD14C,0.16500*%
%ADD15C,0.04000*%
%ADD16R,0.17716X0.12205*%
%ADD17C,0.01000*%
D12*
X537500Y450000D02*
Y462500D01*
X532500Y455000D02*
X537500Y450000D01*
X532500Y455000D02*
X537500Y450000D01*
X542500Y455000D01*
X537500Y537500D02*
X542500Y542500D01*
X532500D02*
X537500Y537500D01*
Y550000D01*
D13*
X500000Y400000D02*
Y600000D01*
Y400000D02*
X575000D01*
Y600000D01*
X500000D02*
X575000D01*
D17*
X500000D02*
X575000D01*
Y400000D02*
Y600000D01*
X500000Y400000D02*
X575000D01*
X500000D02*
Y600000D01*
X522247Y531574D02*
Y533542D01*
X552759D01*
Y531574D02*
Y533542D01*
X522247Y466613D02*
Y468582D01*
Y466613D02*
X552759D01*
Y468582D01*
X560002Y534168D02*
Y535834D01*
Y535001D01*
X564167D01*
X565000Y535834D01*
Y536667D01*
X564167Y537500D01*
X565000Y532502D02*
Y530835D01*
Y531669D01*
X560002D01*
X560835Y532502D01*
X565002Y481000D02*
X571000D01*
Y478001D01*
X570000Y477001D01*
X566002D01*
X565002Y478001D01*
Y481000D01*
Y472003D02*
Y474002D01*
X566002Y475002D01*
X570000D01*
X571000Y474002D01*
Y472003D01*
X570000Y471003D01*
X566002D01*
X565002Y472003D01*
Y516000D02*
X569001D01*
X571000Y514001D01*
X569001Y512001D01*
X565002D01*
Y510002D02*
X571000D01*
Y507003D01*
X570000Y506003D01*
X566002D01*
X565002Y507003D01*
Y510002D01*
Y504004D02*
X571000D01*
Y501005D01*
X570000Y500005D01*
X566002D01*
X565002Y501005D01*
Y504004D01*
X504319Y527817D02*
X510317D01*
Y524818D01*
X509318Y523819D01*
X505319D01*
X504319Y524818D01*
Y527817D01*
Y521819D02*
Y519820D01*
Y520820D01*
X510317D01*
Y521819D01*
Y519820D01*
X505002Y496001D02*
X504002Y497001D01*
Y499000D01*
X505002Y500000D01*
X509000D01*
X510000Y499000D01*
Y497001D01*
X509000Y496001D01*
X507001D01*
Y498001D01*
X510000Y494002D02*
X504002D01*
X510000Y490003D01*
X504002D01*
Y488004D02*
X510000D01*
Y485005D01*
X509000Y484005D01*
X505002D01*
X504002Y485005D01*
Y488004D01*
X560000Y440998D02*
Y435000D01*
X557001D01*
X556001Y436000D01*
Y436999D01*
X557001Y437999D01*
X560000D01*
X557001D01*
X556001Y438999D01*
Y439998D01*
X557001Y440998D01*
X560000D01*
X554002Y435000D02*
Y440998D01*
X551003D01*
X550003Y439998D01*
Y437999D01*
X551003Y436999D01*
X554002D01*
X552003D02*
X550003Y435000D01*
X548004Y440998D02*
X546004D01*
X547004D01*
Y435000D01*
X548004D01*
X546004D01*
X543006D02*
Y438999D01*
X541006Y440998D01*
X539007Y438999D01*
Y435000D01*
Y437999D01*
X543006D01*
X537007Y435000D02*
Y440998D01*
X533009Y435000D01*
Y440998D01*
X521013Y439998D02*
X522012Y440998D01*
X524012D01*
X525011Y439998D01*
Y436000D01*
X524012Y435000D01*
X522012D01*
X521013Y436000D01*
X516014Y440998D02*
X518014D01*
X519013Y439998D01*
Y436000D01*
X518014Y435000D01*
X516014D01*
X515015Y436000D01*
Y439998D01*
X516014Y440998D01*
X513015D02*
X509017Y435000D01*
Y440998D02*
X513015Y435000D01*
X567500Y427500D02*
X564501D01*
X563501Y428500D01*
X564501Y429499D01*
X566500D01*
X567500Y430499D01*
X566500Y431499D01*
X563501D01*
X561502Y425501D02*
Y431499D01*
X558503D01*
X557503Y430499D01*
Y428500D01*
X558503Y427500D01*
X561502D01*
X554504Y431499D02*
X552505D01*
X551505Y430499D01*
Y427500D01*
X554504D01*
X555504Y428500D01*
X554504Y429499D01*
X551505D01*
X545507Y431499D02*
X548506D01*
X549506Y430499D01*
Y428500D01*
X548506Y427500D01*
X545507D01*
X540509D02*
X542508D01*
X543508Y428500D01*
Y430499D01*
X542508Y431499D01*
X540509D01*
X539509Y430499D01*
Y429499D01*
X543508D01*
X537510Y430499D02*
X533511D01*
X528513Y427500D02*
X530512D01*
X531512Y428500D01*
Y430499D01*
X530512Y431499D01*
X528513D01*
X527513Y430499D01*
Y429499D01*
X531512D01*
X525514Y427500D02*
X523514D01*
X524514D01*
Y431499D01*
X525514D01*
X518516Y425501D02*
X517516D01*
X516516Y426500D01*
Y431499D01*
X519516D01*
X520515Y430499D01*
Y428500D01*
X519516Y427500D01*
X516516D01*
X514517Y433498D02*
Y427500D01*
Y430499D01*
X513518Y431499D01*
X511518D01*
X510518Y430499D01*
Y427500D01*
X507519Y432498D02*
Y431499D01*
X508519D01*
X506520D01*
X507519D01*
Y428500D01*
X506520Y427500D01*
X545000Y421001D02*
Y425000D01*
X541001Y421001D01*
X540002D01*
X539002Y422001D01*
Y424000D01*
X540002Y425000D01*
Y419002D02*
X539002Y418002D01*
Y416003D01*
X540002Y415003D01*
X544000D01*
X545000Y416003D01*
Y418002D01*
X544000Y419002D01*
X540002D01*
X545000Y413004D02*
Y411004D01*
Y412004D01*
X539002D01*
X540002Y413004D01*
X539002Y404007D02*
Y408006D01*
X542001D01*
X541001Y406006D01*
Y405007D01*
X542001Y404007D01*
X544000D01*
X545000Y405007D01*
Y407006D01*
X544000Y408006D01*
X561001Y570998D02*
X565000D01*
Y567999D01*
X563001Y568999D01*
X562001D01*
X561001Y567999D01*
Y566000D01*
X562001Y565000D01*
X564000D01*
X565000Y566000D01*
X559002Y569998D02*
X558002Y570998D01*
X556003D01*
X555003Y569998D01*
Y566000D01*
X556003Y565000D01*
X558002D01*
X559002Y566000D01*
Y569998D01*
X549005Y570998D02*
X553004D01*
Y567999D01*
X551005Y568999D01*
X550005D01*
X549005Y567999D01*
Y566000D01*
X550005Y565000D01*
X552004D01*
X553004Y566000D01*
X547006Y565000D02*
X545007D01*
X546006D01*
Y570998D01*
X547006Y569998D01*
X539008Y565000D02*
Y570998D01*
X542007Y567999D01*
X538009D01*
X536009Y566000D02*
X535010Y565000D01*
X533010D01*
X532011Y566000D01*
Y569998D01*
X533010Y570998D01*
X535010D01*
X536009Y569998D01*
Y568999D01*
X535010Y567999D01*
X532011D01*
X524013Y568999D02*
X522014Y565000D01*
X520014Y568999D01*
X514016Y565000D02*
X518015D01*
X514016Y568999D01*
Y569998D01*
X515016Y570998D01*
X517016D01*
X518015Y569998D01*
X512017D02*
X511018Y570998D01*
X509018D01*
X508018Y569998D01*
Y566000D01*
X509018Y565000D01*
X511018D01*
X512017Y566000D01*
Y569998D01*
X506019Y565000D02*
X504020D01*
X505019D01*
Y570998D01*
X506019Y569998D01*
X569501Y560998D02*
X571500D01*
X572500Y559998D01*
Y556000D01*
X571500Y555000D01*
X569501D01*
X568501Y556000D01*
Y559998D01*
X569501Y560998D01*
X566502D02*
Y556999D01*
X564503Y555000D01*
X562503Y556999D01*
Y560998D01*
X560504Y555000D02*
Y558999D01*
X558504Y560998D01*
X556505Y558999D01*
Y555000D01*
Y557999D01*
X560504D01*
X554506Y560998D02*
Y555000D01*
X550507D01*
X548508Y557999D02*
X544509D01*
X538511Y559998D02*
X539511Y560998D01*
X541510D01*
X542510Y559998D01*
Y558999D01*
X541510Y557999D01*
X539511D01*
X538511Y556999D01*
Y556000D01*
X539511Y555000D01*
X541510D01*
X542510Y556000D01*
X532513D02*
Y559998D01*
X533513Y560998D01*
X535512D01*
X536512Y559998D01*
Y556000D01*
X535512Y555000D01*
X533513D01*
X534512Y556999D02*
X532513Y555000D01*
X533513D02*
X532513Y556000D01*
X530514Y555000D02*
Y560998D01*
X527515D01*
X526515Y559998D01*
Y557999D01*
X527515Y556999D01*
X530514D01*
X528514D02*
X526515Y555000D01*
X518517D02*
Y560998D01*
X515518D01*
X514519Y559998D01*
Y557999D01*
X515518Y556999D01*
X518517D01*
X516518D02*
X514519Y555000D01*
X508521Y559998D02*
X509520Y560998D01*
X511520D01*
X512519Y559998D01*
Y556000D01*
X511520Y555000D01*
X509520D01*
X508521Y556000D01*
Y557999D01*
X510520D01*
X506521Y560998D02*
Y555000D01*
X503522D01*
X502523Y556000D01*
Y556999D01*
X503522Y557999D01*
X506521D01*
X503522D01*
X502523Y558999D01*
Y559998D01*
X503522Y560998D01*
X506521D01*
M02*
