%FSLAX25Y25*%
%MOIN*%
G70*
G01*
G75*
G04 Layer_Color=65535*
%ADD10R,0.05906X0.05906*%
%ADD11R,0.08000X0.05000*%
%ADD12C,0.02500*%
%ADD13C,0.00100*%
%ADD14C,0.16500*%
%ADD15C,0.04000*%
%ADD16R,0.17716X0.12205*%
%ADD17C,0.01000*%
D13*
X500000Y400000D02*
Y600000D01*
Y400000D02*
X575000D01*
Y600000D01*
X500000D02*
X575000D01*
D17*
X524500Y587500D02*
G03*
X524500Y587500I-12000J0D01*
G01*
X574500D02*
G03*
X574500Y587500I-12000J0D01*
G01*
X500300Y456300D02*
G03*
X574700Y456300I37200J0D01*
G01*
X506550D02*
G03*
X568450Y456300I30950J0D01*
G01*
X499650Y437250D02*
G03*
X512150Y424750I12500J0D01*
G01*
X562850D02*
G03*
X575350Y437250I-0J12500D01*
G01*
X505900Y437250D02*
G03*
X512150Y431000I6250J0D01*
G01*
X562850D02*
G03*
X569100Y437250I-0J6250D01*
G01*
X574700Y543800D02*
G03*
X500300Y543800I-37200J0D01*
G01*
X568450D02*
G03*
X506550Y543800I-30950J0D01*
G01*
X575350Y562850D02*
G03*
X562860Y575695I-12850J0D01*
G01*
X512150Y575350D02*
G03*
X499650Y562850I0J-12500D01*
G01*
X569100D02*
G03*
X562685Y569447I-6600J0D01*
G01*
X512150Y569100D02*
G03*
X505900Y562850I0J-6250D01*
G01*
X553248Y539626D02*
G03*
X553248Y539626I-984J0D01*
G01*
Y492126D02*
G03*
X553248Y492126I-984J0D01*
G01*
Y444626D02*
G03*
X553248Y444626I-984J0D01*
G01*
X524500Y412500D02*
G03*
X524500Y412500I-12000J0D01*
G01*
X574500D02*
G03*
X574500Y412500I-12000J0D01*
G01*
X500000Y600000D02*
X575000D01*
Y400000D02*
Y600000D01*
X500000Y400000D02*
X575000D01*
X500000D02*
Y600000D01*
X569100Y437250D02*
Y562850D01*
X505900Y437250D02*
Y562850D01*
X512150Y424750D02*
X562850D01*
X512150Y431000D02*
X562850D01*
X512150Y575350D02*
X562850D01*
X512150Y569100D02*
X562850D01*
X547342Y545532D02*
Y549469D01*
X527658Y545532D02*
Y549469D01*
X531595Y537657D02*
X543405D01*
X531595Y557342D02*
X543405D01*
X539468Y537657D02*
X547342Y545532D01*
Y498032D02*
Y501968D01*
X527658Y498032D02*
Y501968D01*
X531595Y490158D02*
X543405D01*
X531595Y509842D02*
X543405D01*
X539468Y490158D02*
X547342Y498032D01*
Y450531D02*
Y454468D01*
X527658Y450531D02*
Y454468D01*
X531595Y442658D02*
X543405D01*
X531595Y462343D02*
X543405D01*
X539468Y442658D02*
X547342Y450531D01*
X523784Y515184D02*
Y532216D01*
Y515184D02*
X532816D01*
Y532216D01*
X523784D02*
X532816D01*
X524084Y467684D02*
Y484716D01*
Y467684D02*
X533116D01*
Y484716D01*
X524084D02*
X533116D01*
X515835Y523332D02*
X515002Y522499D01*
Y520833D01*
X515835Y520000D01*
X519167D01*
X520000Y520833D01*
Y522499D01*
X519167Y523332D01*
X520000Y524998D02*
Y526664D01*
Y525831D01*
X515002D01*
X515835Y524998D01*
Y475832D02*
X515002Y474999D01*
Y473333D01*
X515835Y472500D01*
X519167D01*
X520000Y473333D01*
Y474999D01*
X519167Y475832D01*
X520000Y480831D02*
Y477498D01*
X516668Y480831D01*
X515835D01*
X515002Y479998D01*
Y478331D01*
X515835Y477498D01*
X555002Y545000D02*
X560000D01*
Y547499D01*
X559167Y548332D01*
X555835D01*
X555002Y547499D01*
Y545000D01*
X560000Y549998D02*
Y551664D01*
Y550831D01*
X555002D01*
X555835Y549998D01*
X555002Y497500D02*
X560000D01*
Y499999D01*
X559167Y500832D01*
X555835D01*
X555002Y499999D01*
Y497500D01*
X560000Y505831D02*
Y502498D01*
X556668Y505831D01*
X555835D01*
X555002Y504998D01*
Y503331D01*
X555835Y502498D01*
X555002Y450000D02*
X560000D01*
Y452499D01*
X559167Y453332D01*
X555835D01*
X555002Y452499D01*
Y450000D01*
X555835Y454998D02*
X555002Y455831D01*
Y457498D01*
X555835Y458331D01*
X556668D01*
X557501Y457498D01*
Y456665D01*
Y457498D01*
X558334Y458331D01*
X559167D01*
X560000Y457498D01*
Y455831D01*
X559167Y454998D01*
M02*
