%FSLAX25Y25*%
%MOIN*%
G70*
G01*
G75*
G04 Layer_Color=32896*
%ADD10R,0.05000X0.08000*%
%ADD11R,0.05906X0.05906*%
%ADD12P,0.08352X4X297.0*%
%ADD13P,0.08352X4X207.0*%
%ADD14R,0.05906X0.05906*%
%ADD15P,0.08352X4X153.0*%
%ADD16C,0.02500*%
%ADD17C,0.16500*%
%ADD18C,0.04000*%
%ADD19R,0.17716X0.12205*%
G04:AMPARAMS|DCode=20|XSize=80mil|YSize=50mil|CornerRadius=0mil|HoleSize=0mil|Usage=FLASHONLY|Rotation=288.000|XOffset=0mil|YOffset=0mil|HoleType=Round|Shape=Rectangle|*
%AMROTATEDRECTD20*
4,1,4,-0.03614,0.03032,0.01142,0.04577,0.03614,-0.03032,-0.01142,-0.04577,-0.03614,0.03032,0.0*
%
%ADD20ROTATEDRECTD20*%

G04:AMPARAMS|DCode=21|XSize=80mil|YSize=50mil|CornerRadius=0mil|HoleSize=0mil|Usage=FLASHONLY|Rotation=252.000|XOffset=0mil|YOffset=0mil|HoleType=Round|Shape=Rectangle|*
%AMROTATEDRECTD21*
4,1,4,-0.01142,0.04577,0.03614,0.03032,0.01142,-0.04577,-0.03614,-0.03032,-0.01142,0.04577,0.0*
%
%ADD21ROTATEDRECTD21*%

%ADD22C,0.01000*%
%ADD23C,0.01200*%
%ADD24R,0.04000X0.07000*%
%ADD25R,0.04906X0.04906*%
%ADD26P,0.06937X4X297.0*%
%ADD27P,0.06937X4X207.0*%
%ADD28R,0.04906X0.04906*%
%ADD29P,0.06937X4X153.0*%
%ADD30R,0.16716X0.11205*%
G04:AMPARAMS|DCode=31|XSize=70mil|YSize=40mil|CornerRadius=0mil|HoleSize=0mil|Usage=FLASHONLY|Rotation=288.000|XOffset=0mil|YOffset=0mil|HoleType=Round|Shape=Rectangle|*
%AMROTATEDRECTD31*
4,1,4,-0.02984,0.02711,0.00821,0.03947,0.02984,-0.02711,-0.00821,-0.03947,-0.02984,0.02711,0.0*
%
%ADD31ROTATEDRECTD31*%

G04:AMPARAMS|DCode=32|XSize=70mil|YSize=40mil|CornerRadius=0mil|HoleSize=0mil|Usage=FLASHONLY|Rotation=252.000|XOffset=0mil|YOffset=0mil|HoleType=Round|Shape=Rectangle|*
%AMROTATEDRECTD32*
4,1,4,-0.00821,0.03947,0.02984,0.02711,0.00821,-0.03947,-0.02984,-0.02711,-0.00821,0.03947,0.0*
%
%ADD32ROTATEDRECTD32*%

%ADD33R,0.05800X0.08800*%
%ADD34R,0.06706X0.06706*%
%ADD35P,0.09483X4X297.0*%
%ADD36P,0.09483X4X207.0*%
%ADD37R,0.06706X0.06706*%
%ADD38P,0.09483X4X153.0*%
%ADD39C,0.17300*%
%ADD40C,0.04800*%
%ADD41R,0.18517X0.13005*%
G04:AMPARAMS|DCode=42|XSize=88mil|YSize=58mil|CornerRadius=0mil|HoleSize=0mil|Usage=FLASHONLY|Rotation=288.000|XOffset=0mil|YOffset=0mil|HoleType=Round|Shape=Rectangle|*
%AMROTATEDRECTD42*
4,1,4,-0.04118,0.03289,0.01398,0.05081,0.04118,-0.03289,-0.01398,-0.05081,-0.04118,0.03289,0.0*
%
%ADD42ROTATEDRECTD42*%

G04:AMPARAMS|DCode=43|XSize=88mil|YSize=58mil|CornerRadius=0mil|HoleSize=0mil|Usage=FLASHONLY|Rotation=252.000|XOffset=0mil|YOffset=0mil|HoleType=Round|Shape=Rectangle|*
%AMROTATEDRECTD43*
4,1,4,-0.01398,0.05081,0.04118,0.03289,0.01398,-0.05081,-0.04118,-0.03289,-0.01398,0.05081,0.0*
%
%ADD43ROTATEDRECTD43*%

%ADD44C,0.00500*%
D44*
X537808Y520706D02*
G03*
X529578Y497099I-4115J-11803D01*
G01*
X501513Y374972D02*
G03*
X536679Y362867I17675J-5783D01*
G01*
X538943Y520310D02*
G03*
X554861Y527999I4115J11803D01*
G01*
X538402Y480786D02*
G03*
X530713Y496704I-11803J4115D01*
G01*
X563125Y411770D02*
G03*
X551369Y403519I0J-12500D01*
G01*
X609286D02*
G03*
X597530Y411770I-11756J-4248D01*
G01*
X629942Y496704D02*
G03*
X622254Y480786I4115J-11803D01*
G01*
X605794Y527999D02*
G03*
X621712Y520310I11803J4115D01*
G01*
X623977Y362867D02*
G03*
X659143Y374972I17491J6321D01*
G01*
X631077Y497099D02*
G03*
X622847Y520706I-4115J11803D01*
G01*
X591680Y568485D02*
G03*
X568975Y568485I-11353J-3958D01*
G01*
X537808Y520706D02*
X538943Y520310D01*
X554861Y527999D02*
X568975Y568485D01*
X529578Y497099D02*
X530713Y496704D01*
X501513Y374972D02*
X538402Y480786D01*
X563125Y411770D02*
X580328D01*
X536679Y362867D02*
X551369Y403519D01*
X609286D02*
X623977Y362867D01*
X580328Y411770D02*
X597530D01*
X622254Y480786D02*
X659143Y374972D01*
X629942Y496704D02*
X631077Y497099D01*
X591680Y568485D02*
X605794Y527999D01*
X621712Y520310D02*
X622847Y520706D01*
M02*
