M48
;Layer_Color=8847372
;FILE_FORMAT=2:5
INCH,TZ
;TYPE=PLATED
T1F00S00C0.02100
T2F00S00C0.12500
%
T01
X870000Y995000
X887500Y982500
X900000Y1000000
X910000Y1032500
X925000Y972500
X935000Y980000
X942500Y985000
X946752Y1015000
X962500
X975000Y1032500
X1006086Y989139
X1005000Y967500
X1062500Y972000
X1037500Y999500
X1047500Y1027500
X1097500Y1000000
X1115000Y992500
X1144902Y991572
X1145000Y1022500
X1185000Y1032500
X1175000Y1000000
X1200000Y972500
X1140000Y965000
T02
X970000Y976000
X1108000Y1021500
M30
