%FSLAX25Y25*%
%MOIN*%
G70*
G01*
G75*
G04 Layer_Physical_Order=2*
G04 Layer_Color=65280*
%ADD10R,0.05906X0.05906*%
%ADD11P,0.08352X4X195.0*%
%ADD12P,0.08352X4X75.0*%
%ADD13R,0.05000X0.04000*%
%ADD14C,0.02500*%
%ADD15C,0.16500*%
%ADD16C,0.04000*%
%ADD17R,0.08000X0.05000*%
%ADD18R,0.12205X0.17716*%
%ADD19C,0.05000*%
G36*
X1125219Y1016031D02*
Y1006858D01*
X1121646D01*
Y982142D01*
Y959035D01*
X1109354D01*
Y982142D01*
Y1005056D01*
X1110589Y1005153D01*
X1113115Y1005759D01*
X1115514Y1006753D01*
X1117728Y1008110D01*
X1119703Y1009797D01*
X1121390Y1011772D01*
X1122747Y1013986D01*
X1123741Y1016385D01*
X1125219Y1016031D01*
D02*
G37*
G36*
X901250Y1038465D02*
X937150D01*
Y1014642D01*
Y992291D01*
X914485D01*
X905361Y1001414D01*
X905358Y1001436D01*
X904804Y1002774D01*
X903923Y1003923D01*
X902774Y1004804D01*
X901436Y1005358D01*
X900000Y1005548D01*
X898564Y1005358D01*
X897226Y1004804D01*
X896077Y1003923D01*
X895196Y1002774D01*
X894642Y1001436D01*
X894452Y1000000D01*
X894642Y998564D01*
X895196Y997226D01*
X896077Y996077D01*
X897226Y995196D01*
X898564Y994642D01*
X898586Y994639D01*
X904548Y988677D01*
X903974Y987291D01*
X890291D01*
X890274Y987304D01*
X888936Y987858D01*
X887500Y988048D01*
X886064Y987858D01*
X884726Y987304D01*
X883577Y986423D01*
X882696Y985274D01*
X882142Y983936D01*
X881952Y982500D01*
X882142Y981064D01*
X882696Y979726D01*
X883577Y978577D01*
X884726Y977696D01*
X886064Y977142D01*
X887500Y976952D01*
X888936Y977142D01*
X890274Y977696D01*
X890291Y977709D01*
X929996D01*
X930196Y977226D01*
X931077Y976077D01*
X932226Y975196D01*
X933564Y974642D01*
X935000Y974452D01*
X936436Y974642D01*
X937774Y975196D01*
X938923Y976077D01*
X939804Y977226D01*
X940358Y978564D01*
X940371Y978663D01*
X941562Y979576D01*
X942500Y979453D01*
X942843Y979498D01*
X943971Y978509D01*
Y962500D01*
X943971Y962500D01*
X943971D01*
X944087Y961324D01*
X944416Y960239D01*
X944349Y960150D01*
X942263Y959035D01*
X901250D01*
X901077Y959012D01*
X897354Y959195D01*
X893496Y959767D01*
X889712Y960715D01*
X886040Y962029D01*
X882514Y963697D01*
X879168Y965702D01*
X876035Y968025D01*
X873145Y970645D01*
X870525Y973535D01*
X868202Y976668D01*
X866197Y980013D01*
X864529Y983540D01*
X863215Y987212D01*
X862267Y990996D01*
X861695Y994854D01*
X861503Y998750D01*
X861695Y1002646D01*
X862267Y1006504D01*
X863215Y1010288D01*
X864529Y1013960D01*
X866197Y1017486D01*
X868202Y1020832D01*
X870525Y1023965D01*
X873145Y1026855D01*
X876035Y1029475D01*
X879168Y1031798D01*
X882514Y1033803D01*
X886040Y1035471D01*
X889712Y1036785D01*
X893496Y1037733D01*
X897354Y1038305D01*
X901077Y1038488D01*
X901250Y1038465D01*
D02*
G37*
G36*
X1180146Y1038305D02*
X1184004Y1037733D01*
X1187788Y1036785D01*
X1191460Y1035471D01*
X1194987Y1033803D01*
X1198332Y1031798D01*
X1201465Y1029475D01*
X1204355Y1026855D01*
X1206975Y1023965D01*
X1209298Y1020832D01*
X1211303Y1017486D01*
X1212971Y1013960D01*
X1214285Y1010288D01*
X1215233Y1006504D01*
X1215805Y1002646D01*
X1215997Y998750D01*
X1215805Y994854D01*
X1215233Y990996D01*
X1214285Y987212D01*
X1212971Y983540D01*
X1211303Y980013D01*
X1209298Y976668D01*
X1206975Y973535D01*
X1204355Y970645D01*
X1201465Y968025D01*
X1198332Y965702D01*
X1194987Y963697D01*
X1191460Y962029D01*
X1187788Y960715D01*
X1184004Y959767D01*
X1180146Y959195D01*
X1176423Y959012D01*
X1176250Y959035D01*
X1143594D01*
X1143112Y960455D01*
X1143923Y961077D01*
X1144804Y962226D01*
X1145358Y963564D01*
X1145547Y965000D01*
X1145358Y966436D01*
X1144804Y967774D01*
X1143923Y968923D01*
X1142774Y969804D01*
X1141436Y970358D01*
X1140850Y970436D01*
Y982142D01*
Y1006858D01*
X1137277D01*
Y1033752D01*
X1137161Y1034928D01*
X1137161Y1034928D01*
Y1034928D01*
X1137161D01*
X1137161Y1034928D01*
D01*
D01*
D01*
D01*
X1137161Y1034928D01*
D01*
D01*
X1136818Y1036059D01*
X1136624Y1036422D01*
X1136261Y1037101D01*
X1135511Y1038015D01*
X1135511Y1038015D01*
X1135698Y1038465D01*
X1176250D01*
X1176423Y1038488D01*
X1180146Y1038305D01*
D02*
G37*
G36*
X984394Y1014642D02*
Y990035D01*
X1003598D01*
Y1014642D01*
Y1031823D01*
X1004484Y1032709D01*
X1094083D01*
X1094711Y1031347D01*
X1094610Y1031228D01*
X1093253Y1029014D01*
X1092259Y1026615D01*
X1091653Y1024089D01*
X1091449Y1021500D01*
X1091489Y1020989D01*
X1090957Y1020457D01*
X1090289Y1020094D01*
X1089531Y1020545D01*
X1089396Y1020649D01*
X1089267Y1020702D01*
X1089000Y1020861D01*
Y1022500D01*
X1074000D01*
Y1021291D01*
X1054500D01*
X1053260Y1021128D01*
X1052104Y1020649D01*
X1051112Y1019888D01*
X1036086Y1004861D01*
X1036064Y1004858D01*
X1034726Y1004304D01*
X1033577Y1003423D01*
X1032696Y1002274D01*
X1032142Y1000936D01*
X1031952Y999500D01*
X1032142Y998064D01*
X1032696Y996726D01*
X1033577Y995577D01*
X1034726Y994696D01*
X1036064Y994142D01*
X1037500Y993952D01*
X1038936Y994142D01*
X1040274Y994696D01*
X1041423Y995577D01*
X1042304Y996726D01*
X1042858Y998064D01*
X1042861Y998086D01*
X1056485Y1011709D01*
X1074000D01*
Y1010500D01*
X1086224D01*
X1088480Y1008244D01*
X1087906Y1006858D01*
X1074402D01*
Y982142D01*
Y964791D01*
X1011181D01*
X1010348Y966038D01*
X1010358Y966064D01*
X1010548Y967500D01*
X1010358Y968936D01*
X1009804Y970274D01*
X1008923Y971423D01*
X1007774Y972304D01*
X1006436Y972858D01*
X1005000Y973048D01*
X1004128Y972933D01*
X1003000Y973922D01*
Y977500D01*
X988000D01*
Y976692D01*
X986501Y976634D01*
X986347Y978589D01*
X985741Y981115D01*
X984747Y983514D01*
X983390Y985728D01*
X981703Y987703D01*
X979728Y989390D01*
X977514Y990747D01*
X975115Y991741D01*
X972589Y992347D01*
X972102Y992386D01*
Y1014642D01*
Y1038465D01*
X984394D01*
Y1014642D01*
D02*
G37*
%LPC*%
G36*
X1145000Y1028047D02*
X1143564Y1027858D01*
X1142226Y1027304D01*
X1141077Y1026423D01*
X1140196Y1025274D01*
X1139642Y1023936D01*
X1139452Y1022500D01*
X1139642Y1021064D01*
X1140196Y1019726D01*
X1141077Y1018577D01*
X1142226Y1017696D01*
X1143564Y1017142D01*
X1143586Y1017139D01*
X1164112Y996612D01*
Y996612D01*
X1164112D01*
X1164112Y996612D01*
X1164112D01*
D01*
D01*
D01*
Y996612D01*
X1164112Y996612D01*
D01*
X1165104Y995851D01*
X1166260Y995372D01*
X1166260Y995372D01*
D01*
D01*
D01*
X1166260D01*
D01*
D01*
D01*
X1166260D01*
Y995372D01*
D01*
X1167500Y995209D01*
X1172209D01*
X1172226Y995196D01*
X1173564Y994642D01*
X1175000Y994452D01*
X1176436Y994642D01*
X1177774Y995196D01*
X1178923Y996077D01*
X1179804Y997226D01*
X1180358Y998564D01*
X1180548Y1000000D01*
X1180358Y1001436D01*
X1179804Y1002774D01*
X1178923Y1003923D01*
X1177774Y1004804D01*
X1176436Y1005358D01*
X1175000Y1005548D01*
X1173564Y1005358D01*
X1172226Y1004804D01*
X1172209Y1004791D01*
X1169485D01*
X1150361Y1023914D01*
X1150358Y1023936D01*
X1149804Y1025274D01*
X1148923Y1026423D01*
X1147774Y1027304D01*
X1146436Y1027858D01*
X1145000Y1028047D01*
D02*
G37*
%LPD*%
D14*
X1002500Y1037500D02*
X1127500D01*
X1131248Y1033752D01*
X952500Y960000D02*
X1077500D01*
X950000Y962500D02*
X952500Y960000D01*
X1007500Y985000D02*
Y1015000D01*
X990000Y982500D02*
X1005000D01*
X1047500Y1027500D02*
X1081500D01*
X1025000Y1032500D02*
X1042500D01*
X1047500Y1027500D01*
X1054500Y1016500D02*
X1087000D01*
X1037500Y999500D02*
X1054500Y1016500D01*
X1030000Y1010000D02*
X1047500Y1027500D01*
X1030000Y987500D02*
Y1010000D01*
Y987500D02*
X1045500Y972000D01*
X1062500D01*
X995500Y971500D02*
X999500Y967500D01*
X1005000D01*
X1007500Y1015000D02*
X1025000Y1032500D01*
X1005000Y982500D02*
X1007500Y985000D01*
X978248Y994252D02*
X990000Y982500D01*
X978248Y994252D02*
Y1002394D01*
X1097500Y1000000D02*
Y1006000D01*
X1087000Y1016500D02*
X1097500Y1006000D01*
X993996Y1027000D02*
X997500Y1030504D01*
Y1032500D01*
X1002500Y1037500D01*
X1084004Y969894D02*
X1085000Y968898D01*
Y967500D02*
Y968898D01*
X1077500Y960000D02*
X1085000Y967500D01*
X1131248Y969894D02*
X1136142Y965000D01*
X1140000D01*
X1152500Y987500D02*
X1185000D01*
X1144902Y991572D02*
X1152500Y987500D01*
X1185000D02*
Y1032500D01*
Y987500D02*
X1200000Y972500D01*
X870000Y987500D02*
Y1007500D01*
X895000Y1032500D02*
X910000D01*
X870000Y987500D02*
X885000Y972500D01*
X870000Y1007500D02*
X895000Y1032500D01*
X885000Y972500D02*
X925000D01*
X912500Y987500D02*
X940000D01*
X942500Y985000D01*
X900000Y1000000D02*
X912500Y987500D01*
X932500Y982500D02*
X935000Y980000D01*
X887500Y982500D02*
X932500D01*
X1145000Y1022500D02*
X1167500Y1000000D01*
X1175000D01*
X1099752Y994500D02*
Y997748D01*
X1097500Y1000000D02*
X1099752Y997748D01*
D15*
X1108000Y1021500D02*
D03*
X970000Y976000D02*
D03*
D16*
X1115000Y992500D02*
D03*
X1005000Y967500D02*
D03*
X975000Y1032500D02*
D03*
X946752Y1015000D02*
D03*
X962500D02*
D03*
X942500Y985000D02*
D03*
X935000Y980000D02*
D03*
X887500Y982500D02*
D03*
X1097500Y1000000D02*
D03*
X1145000Y1022500D02*
D03*
X870000Y995000D02*
D03*
X910000Y1032500D02*
D03*
X925000Y972500D02*
D03*
X1006086Y989139D02*
D03*
X1047500Y1027500D02*
D03*
X1062500Y972000D02*
D03*
X900000Y1000000D02*
D03*
X1037500Y999500D02*
D03*
X1175000Y1000000D02*
D03*
X1200000Y972500D02*
D03*
X1185000Y1032500D02*
D03*
X1144902Y991572D02*
D03*
X1140000Y965000D02*
D03*
D17*
X995500Y971500D02*
D03*
Y982500D02*
D03*
X1081500Y1016500D02*
D03*
Y1027500D02*
D03*
D18*
X993996Y1002394D02*
D03*
X978248D02*
D03*
X962500D02*
D03*
X993996Y1027000D02*
D03*
X978248D02*
D03*
X962500D02*
D03*
X946752Y1002394D02*
D03*
Y1027000D02*
D03*
X1131248Y969894D02*
D03*
X1115500D02*
D03*
X1099752D02*
D03*
X1131248Y994500D02*
D03*
X1115500D02*
D03*
X1099752D02*
D03*
X1084004Y969894D02*
D03*
Y994500D02*
D03*
D19*
X1131248Y969894D02*
Y1033752D01*
X962500Y1002394D02*
Y1027000D01*
X946752Y1002394D02*
Y1027000D01*
X950000Y962500D02*
Y999146D01*
X946752Y1002394D02*
X950000Y999146D01*
X1115500Y969894D02*
Y994500D01*
X1099752Y969894D02*
Y994500D01*
X1084004Y969894D02*
Y994500D01*
X993996Y1002394D02*
Y1027000D01*
X978248Y1002394D02*
Y1027000D01*
M02*
