%FSLAX25Y25*%
%MOIN*%
G70*
G01*
G75*
G04 Layer_Color=48896*
%ADD10R,0.05906X0.05906*%
%ADD11P,0.08352X4X195.0*%
%ADD12P,0.08352X4X75.0*%
%ADD13R,0.05000X0.04000*%
%ADD14C,0.02500*%
%ADD15C,0.16500*%
%ADD16C,0.04000*%
%ADD17R,0.08000X0.05000*%
%ADD18R,0.12205X0.17716*%
%ADD19C,0.05000*%
%ADD20C,0.01000*%
%ADD21C,0.01200*%
%ADD22R,0.04906X0.04906*%
%ADD23P,0.06937X4X195.0*%
%ADD24P,0.06937X4X75.0*%
%ADD25R,0.04000X0.03000*%
%ADD26R,0.07000X0.04000*%
%ADD27R,0.11205X0.16716*%
%ADD28R,0.06706X0.06706*%
%ADD29P,0.09483X4X195.0*%
%ADD30P,0.09483X4X75.0*%
%ADD31R,0.05800X0.04800*%
%ADD32C,0.17300*%
%ADD33C,0.04800*%
%ADD34R,0.08800X0.05800*%
%ADD35R,0.13005X0.18517*%
D32*
X1108000Y1021500D02*
D03*
X970000Y976000D02*
D03*
D33*
X1115000Y992500D02*
D03*
X1005000Y967500D02*
D03*
X975000Y1032500D02*
D03*
X946752Y1015000D02*
D03*
X962500D02*
D03*
X942500Y985000D02*
D03*
X935000Y980000D02*
D03*
X887500Y982500D02*
D03*
X1097500Y1000000D02*
D03*
X1145000Y1022500D02*
D03*
X870000Y995000D02*
D03*
X910000Y1032500D02*
D03*
X925000Y972500D02*
D03*
X1006086Y989139D02*
D03*
X1047500Y1027500D02*
D03*
X1062500Y972000D02*
D03*
X900000Y1000000D02*
D03*
X1037500Y999500D02*
D03*
X1175000Y1000000D02*
D03*
X1200000Y972500D02*
D03*
X1185000Y1032500D02*
D03*
X1144902Y991572D02*
D03*
X1140000Y965000D02*
D03*
D34*
X995500Y971500D02*
D03*
Y982500D02*
D03*
X1081500Y1016500D02*
D03*
Y1027500D02*
D03*
D35*
X993996Y1002394D02*
D03*
X978248D02*
D03*
X962500D02*
D03*
X993996Y1027000D02*
D03*
X978248D02*
D03*
X962500D02*
D03*
X946752Y1002394D02*
D03*
Y1027000D02*
D03*
X1131248Y969894D02*
D03*
X1115500D02*
D03*
X1099752D02*
D03*
X1131248Y994500D02*
D03*
X1115500D02*
D03*
X1099752D02*
D03*
X1084004Y969894D02*
D03*
Y994500D02*
D03*
M02*
