%FSLAX25Y25*%
%MOIN*%
G70*
G01*
G75*
G04 Layer_Color=65535*
%ADD10R,0.05906X0.05906*%
%ADD11C,0.05000*%
%ADD12C,0.16500*%
%ADD13C,0.04000*%
%ADD14R,0.08000X0.05000*%
%ADD15R,0.12205X0.17716*%
%ADD16C,0.01000*%
%ADD17C,0.01200*%
D16*
X799500Y525000D02*
G03*
X799500Y525000I-12000J0D01*
G01*
X324500D02*
G03*
X324500Y525000I-12000J0D01*
G01*
X371358Y539764D02*
G03*
X371358Y539764I-984J0D01*
G01*
X496358D02*
G03*
X496358Y539764I-984J0D01*
G01*
X621358D02*
G03*
X621358Y539764I-984J0D01*
G01*
X746358D02*
G03*
X746358Y539764I-984J0D01*
G01*
X300000Y550000D02*
X800000D01*
Y500000D02*
Y550000D01*
X300000Y500000D02*
X800000D01*
X300000D02*
Y550000D01*
X364469Y534842D02*
X372342Y526968D01*
X352658Y519095D02*
Y530905D01*
X372342Y519095D02*
Y530905D01*
X360531Y515158D02*
X364469D01*
X360531Y534842D02*
X364469D01*
X489468D02*
X497342Y526968D01*
X477658Y519095D02*
Y530905D01*
X497342Y519095D02*
Y530905D01*
X485532Y515158D02*
X489468D01*
X485532Y534842D02*
X489468D01*
X614468D02*
X622342Y526968D01*
X602658Y519095D02*
Y530905D01*
X622342Y519095D02*
Y530905D01*
X610532Y515158D02*
X614468D01*
X610532Y534842D02*
X614468D01*
X739468D02*
X747342Y526968D01*
X727658Y519095D02*
Y530905D01*
X747342Y519095D02*
Y530905D01*
X735532Y515158D02*
X739468D01*
X735532Y534842D02*
X739468D01*
X377500Y527498D02*
Y522500D01*
X379999D01*
X380832Y523333D01*
Y526665D01*
X379999Y527498D01*
X377500D01*
X382498Y522500D02*
X384165D01*
X383331D01*
Y527498D01*
X382498Y526665D01*
X502500Y527498D02*
Y522500D01*
X504999D01*
X505832Y523333D01*
Y526665D01*
X504999Y527498D01*
X502500D01*
X510831Y522500D02*
X507498D01*
X510831Y525832D01*
Y526665D01*
X509998Y527498D01*
X508331D01*
X507498Y526665D01*
X627500Y527498D02*
Y522500D01*
X629999D01*
X630832Y523333D01*
Y526665D01*
X629999Y527498D01*
X627500D01*
X632498Y526665D02*
X633331Y527498D01*
X634998D01*
X635831Y526665D01*
Y525832D01*
X634998Y524999D01*
X634164D01*
X634998D01*
X635831Y524166D01*
Y523333D01*
X634998Y522500D01*
X633331D01*
X632498Y523333D01*
X752500Y527498D02*
Y522500D01*
X754999D01*
X755832Y523333D01*
Y526665D01*
X754999Y527498D01*
X752500D01*
X759998Y522500D02*
Y527498D01*
X757498Y524999D01*
X760831D01*
X413332Y525832D02*
X410833D01*
X410000Y524999D01*
Y523333D01*
X410833Y522500D01*
X413332D01*
X423329D02*
X419997D01*
X423329Y525832D01*
Y526665D01*
X422496Y527498D01*
X420830D01*
X419997Y526665D01*
X424995D02*
X425828Y527498D01*
X427494D01*
X428327Y526665D01*
Y523333D01*
X427494Y522500D01*
X425828D01*
X424995Y523333D01*
Y526665D01*
X433326Y522500D02*
X429993D01*
X433326Y525832D01*
Y526665D01*
X432493Y527498D01*
X430827D01*
X429993Y526665D01*
X434992Y522500D02*
X436658D01*
X435825D01*
Y527498D01*
X434992Y526665D01*
X402500Y537498D02*
Y532500D01*
X404999D01*
X405832Y533333D01*
Y534166D01*
X404999Y534999D01*
X402500D01*
X404999D01*
X405832Y535832D01*
Y536665D01*
X404999Y537498D01*
X402500D01*
X407498Y532500D02*
Y537498D01*
X409998D01*
X410831Y536665D01*
Y534999D01*
X409998Y534166D01*
X407498D01*
X409164D02*
X410831Y532500D01*
X412497Y537498D02*
X414163D01*
X413330D01*
Y532500D01*
X412497D01*
X414163D01*
X416662D02*
Y535832D01*
X418328Y537498D01*
X419994Y535832D01*
Y532500D01*
Y534999D01*
X416662D01*
X421661Y532500D02*
Y537498D01*
X424993Y532500D01*
Y537498D01*
X434990Y536665D02*
X434156Y537498D01*
X432490D01*
X431657Y536665D01*
Y533333D01*
X432490Y532500D01*
X434156D01*
X434990Y533333D01*
X439155Y537498D02*
X437489D01*
X436656Y536665D01*
Y533333D01*
X437489Y532500D01*
X439155D01*
X439988Y533333D01*
Y536665D01*
X439155Y537498D01*
X441654D02*
X444986Y532500D01*
Y537498D02*
X441654Y532500D01*
X562500Y528332D02*
Y525000D01*
Y526666D01*
X563333Y527499D01*
X564166Y528332D01*
X564999D01*
X569998Y525000D02*
X568331D01*
X567498Y525833D01*
Y527499D01*
X568331Y528332D01*
X569998D01*
X570831Y527499D01*
Y526666D01*
X567498D01*
X572497Y528332D02*
X574163Y525000D01*
X575829Y528332D01*
X580827Y525000D02*
X577495D01*
X580827Y528332D01*
Y529165D01*
X579994Y529998D01*
X578328D01*
X577495Y529165D01*
X582493Y525000D02*
Y525833D01*
X583327D01*
Y525000D01*
X582493D01*
X586659Y529165D02*
X587492Y529998D01*
X589158D01*
X589991Y529165D01*
Y525833D01*
X589158Y525000D01*
X587492D01*
X586659Y525833D01*
Y529165D01*
X591657Y525000D02*
X593323D01*
X592490D01*
Y529998D01*
X591657Y529165D01*
X645000Y535000D02*
X647499D01*
X648332Y535833D01*
X647499Y536666D01*
X645833D01*
X645000Y537499D01*
X645833Y538332D01*
X648332D01*
X649998Y533334D02*
Y538332D01*
X652498D01*
X653331Y537499D01*
Y535833D01*
X652498Y535000D01*
X649998D01*
X655830Y538332D02*
X657496D01*
X658329Y537499D01*
Y535000D01*
X655830D01*
X654997Y535833D01*
X655830Y536666D01*
X658329D01*
X663327Y538332D02*
X660828D01*
X659995Y537499D01*
Y535833D01*
X660828Y535000D01*
X663327D01*
X667493D02*
X665827D01*
X664993Y535833D01*
Y537499D01*
X665827Y538332D01*
X667493D01*
X668326Y537499D01*
Y536666D01*
X664993D01*
X669992Y537499D02*
X673324D01*
X677490Y535000D02*
X675823D01*
X674990Y535833D01*
Y537499D01*
X675823Y538332D01*
X677490D01*
X678323Y537499D01*
Y536666D01*
X674990D01*
X679989Y535000D02*
X681655D01*
X680822D01*
Y538332D01*
X679989D01*
X685820Y533334D02*
X686653D01*
X687486Y534167D01*
Y538332D01*
X684987D01*
X684154Y537499D01*
Y535833D01*
X684987Y535000D01*
X687486D01*
X689152Y539998D02*
Y535000D01*
Y537499D01*
X689985Y538332D01*
X691652D01*
X692485Y537499D01*
Y535000D01*
X694984Y539165D02*
Y538332D01*
X694151D01*
X695817D01*
X694984D01*
Y535833D01*
X695817Y535000D01*
X698316D02*
Y535833D01*
X699149D01*
Y535000D01*
X698316D01*
X705814Y538332D02*
X703314D01*
X702481Y537499D01*
Y535833D01*
X703314Y535000D01*
X705814D01*
X708313D02*
X709979D01*
X710812Y535833D01*
Y537499D01*
X709979Y538332D01*
X708313D01*
X707480Y537499D01*
Y535833D01*
X708313Y535000D01*
X712478D02*
Y538332D01*
X713311D01*
X714144Y537499D01*
Y535000D01*
Y537499D01*
X714977Y538332D01*
X715810Y537499D01*
Y535000D01*
D17*
X526499Y530998D02*
X522500D01*
Y527999D01*
X524499Y528999D01*
X525499D01*
X526499Y527999D01*
Y526000D01*
X525499Y525000D01*
X523500D01*
X522500Y526000D01*
X528498Y529998D02*
X529498Y530998D01*
X531497D01*
X532497Y529998D01*
Y526000D01*
X531497Y525000D01*
X529498D01*
X528498Y526000D01*
Y529998D01*
X538495Y530998D02*
X534496D01*
Y527999D01*
X536495Y528999D01*
X537495D01*
X538495Y527999D01*
Y526000D01*
X537495Y525000D01*
X535496D01*
X534496Y526000D01*
X540494Y525000D02*
X542493D01*
X541494D01*
Y530998D01*
X540494Y529998D01*
X545493D02*
X546492Y530998D01*
X548492D01*
X549491Y529998D01*
Y528999D01*
X548492Y527999D01*
X549491Y526999D01*
Y526000D01*
X548492Y525000D01*
X546492D01*
X545493Y526000D01*
Y526999D01*
X546492Y527999D01*
X545493Y528999D01*
Y529998D01*
X546492Y527999D02*
X548492D01*
X551491Y530998D02*
X555489D01*
Y529998D01*
X551491Y526000D01*
Y525000D01*
X517500Y543498D02*
Y537500D01*
Y539499D01*
X521499Y543498D01*
X518500Y540499D01*
X521499Y537500D01*
X523498Y543498D02*
X525497D01*
X524498D01*
Y537500D01*
X523498D01*
X525497D01*
X532495Y542498D02*
X531496Y543498D01*
X529496D01*
X528496Y542498D01*
Y541499D01*
X529496Y540499D01*
X531496D01*
X532495Y539499D01*
Y538500D01*
X531496Y537500D01*
X529496D01*
X528496Y538500D01*
X538493Y542498D02*
X537494Y543498D01*
X535494D01*
X534494Y542498D01*
Y541499D01*
X535494Y540499D01*
X537494D01*
X538493Y539499D01*
Y538500D01*
X537494Y537500D01*
X535494D01*
X534494Y538500D01*
X550489Y542498D02*
X549490Y543498D01*
X547490D01*
X546491Y542498D01*
Y541499D01*
X547490Y540499D01*
X549490D01*
X550489Y539499D01*
Y538500D01*
X549490Y537500D01*
X547490D01*
X546491Y538500D01*
X552489Y543498D02*
X554488D01*
X553488D01*
Y537500D01*
X552489D01*
X554488D01*
X557487Y543498D02*
Y537500D01*
X560486D01*
X561486Y538500D01*
Y542498D01*
X560486Y543498D01*
X557487D01*
X567484D02*
X563485D01*
Y537500D01*
X567484D01*
X563485Y540499D02*
X565485D01*
X575481Y543498D02*
Y537500D01*
X579480D01*
X585478Y543498D02*
X581479D01*
Y537500D01*
X585478D01*
X581479Y540499D02*
X583479D01*
X587477Y543498D02*
Y537500D01*
X590476D01*
X591476Y538500D01*
Y542498D01*
X590476Y543498D01*
X587477D01*
M02*
