%FSLAX25Y25*%
%MOIN*%
G70*
G01*
G75*
G04 Layer_Physical_Order=2*
G04 Layer_Color=65280*
%ADD10R,0.05906X0.05906*%
%ADD11C,0.05000*%
%ADD12C,0.16500*%
%ADD13C,0.04000*%
%ADD14R,0.08000X0.05000*%
%ADD15R,0.12205X0.17716*%
G36*
X688646Y524748D02*
Y502500D01*
X676354D01*
Y524748D01*
Y547500D01*
X688646D01*
Y524748D01*
D02*
G37*
G36*
X641402Y506323D02*
Y502500D01*
X632986D01*
X632412Y503886D01*
X634997Y506471D01*
X637500D01*
X638676Y506587D01*
X639807Y506930D01*
X640115Y507094D01*
X641402Y506323D01*
D02*
G37*
G36*
X438646Y525142D02*
Y502500D01*
X426354D01*
Y525142D01*
Y547500D01*
X438646D01*
Y525142D01*
D02*
G37*
G36*
X391402D02*
Y502500D01*
X302500D01*
Y510241D01*
X303809Y510974D01*
X304986Y510253D01*
X307385Y509259D01*
X309911Y508653D01*
X312500Y508449D01*
X315089Y508653D01*
X317615Y509259D01*
X320014Y510253D01*
X322229Y511610D01*
X324203Y513297D01*
X325890Y515272D01*
X327247Y517486D01*
X328241Y519885D01*
X328847Y522411D01*
X329051Y525000D01*
X328847Y527589D01*
X328241Y530115D01*
X327247Y532514D01*
X325890Y534728D01*
X324203Y536703D01*
X322229Y538390D01*
X320014Y539747D01*
X317615Y540741D01*
X315089Y541347D01*
X312500Y541551D01*
X309911Y541347D01*
X307385Y540741D01*
X304986Y539747D01*
X303809Y539026D01*
X302500Y539759D01*
Y547500D01*
X391402D01*
Y525142D01*
D02*
G37*
G36*
X717588Y546114D02*
X714609Y543135D01*
X707850D01*
Y547500D01*
X717014D01*
X717588Y546114D01*
D02*
G37*
G36*
X797500Y539759D02*
X796191Y539026D01*
X795014Y539747D01*
X792615Y540741D01*
X790089Y541347D01*
X787500Y541551D01*
X784911Y541347D01*
X782385Y540741D01*
X779986Y539747D01*
X777772Y538390D01*
X775797Y536703D01*
X774110Y534728D01*
X772753Y532514D01*
X771759Y530115D01*
X771153Y527589D01*
X770949Y525000D01*
X771153Y522411D01*
X771759Y519885D01*
X772753Y517486D01*
X774110Y515272D01*
X775797Y513297D01*
X777772Y511610D01*
X779986Y510253D01*
X782385Y509259D01*
X784911Y508653D01*
X787500Y508449D01*
X790089Y508653D01*
X792615Y509259D01*
X795014Y510253D01*
X796191Y510974D01*
X797500Y510241D01*
Y502500D01*
X707850D01*
Y524748D01*
Y531077D01*
X717106D01*
X718283Y531193D01*
X719414Y531536D01*
X720456Y532093D01*
X721370Y532843D01*
X724997Y536471D01*
X750003D01*
X751471Y535003D01*
Y522497D01*
X750737Y521763D01*
X749987Y520850D01*
X749430Y519807D01*
X749087Y518676D01*
X748971Y517500D01*
X749087Y516324D01*
X749430Y515193D01*
X749987Y514150D01*
X750737Y513237D01*
X751650Y512487D01*
X752693Y511930D01*
X753824Y511587D01*
X755000Y511471D01*
X756176Y511587D01*
X757307Y511930D01*
X758350Y512487D01*
X759263Y513237D01*
X761763Y515737D01*
X762513Y516650D01*
X763070Y517693D01*
X763413Y518824D01*
X763529Y520000D01*
Y537500D01*
X763413Y538676D01*
X763070Y539807D01*
X762513Y540849D01*
X761763Y541763D01*
X756763Y546763D01*
X757027Y547500D01*
X797500D01*
Y539759D01*
D02*
G37*
G36*
X641402Y524748D02*
Y518677D01*
X640115Y517906D01*
X639807Y518070D01*
X638676Y518413D01*
X637500Y518529D01*
X632500D01*
X631324Y518413D01*
X630193Y518070D01*
X629150Y517513D01*
X628237Y516763D01*
X622503Y511029D01*
X592001D01*
X590994Y512141D01*
X591029Y512500D01*
X591029Y512500D01*
Y513500D01*
X592500D01*
Y525500D01*
X585295D01*
X585000Y525529D01*
X584705Y525500D01*
X577500D01*
Y513500D01*
X578388D01*
X578996Y512129D01*
X577999Y511029D01*
X522001D01*
X520994Y512141D01*
X521029Y512500D01*
X521029Y512500D01*
Y513500D01*
X522500D01*
Y525500D01*
X515295D01*
X515000Y525529D01*
X514705Y525500D01*
X507500D01*
Y513500D01*
X508388D01*
X508996Y512129D01*
X507999Y511029D01*
X472497D01*
X466369Y517157D01*
X465456Y517907D01*
X464413Y518464D01*
X463282Y518807D01*
X462106Y518923D01*
X457850D01*
Y525142D01*
Y547500D01*
X641402D01*
Y524748D01*
D02*
G37*
D11*
X465354Y534646D02*
X510854D01*
X462500Y537500D02*
X465354Y534646D01*
X462106Y512894D02*
X470000Y505000D01*
X448248Y512894D02*
X462106D01*
X470000Y505000D02*
X625000D01*
X632500Y512500D01*
X637500D01*
X757500Y520000D02*
Y537500D01*
X755000Y517500D02*
X757500Y520000D01*
X752500Y542500D02*
X757500Y537500D01*
X722500Y542500D02*
X752500D01*
X717106Y537106D02*
X722500Y542500D01*
X698248Y537106D02*
X717106D01*
X515000Y512500D02*
Y519500D01*
Y512500D02*
X515000Y512500D01*
X585000Y512500D02*
X585000Y512500D01*
X585000Y512500D02*
Y519500D01*
X537500Y545000D02*
X620000D01*
X585000Y530500D02*
Y545000D01*
X523000Y530500D02*
X537500Y545000D01*
X620000D02*
X630000Y535000D01*
X515000Y530500D02*
X523000D01*
X510854Y534646D02*
X515000Y530500D01*
X698248Y512500D02*
Y537106D01*
X682500Y512500D02*
Y537106D01*
X666752Y512500D02*
Y537106D01*
X651004Y512500D02*
Y537106D01*
X448248Y512894D02*
Y537500D01*
X432500Y512894D02*
Y537500D01*
X416752Y512894D02*
Y537500D01*
X401004Y512894D02*
Y537500D01*
D12*
X787500Y525000D02*
D03*
X312500D02*
D03*
D13*
X462500Y537500D02*
D03*
X432500D02*
D03*
X637500Y512500D02*
D03*
X698248D02*
D03*
X755000Y517500D02*
D03*
X515000Y512500D02*
D03*
X585000D02*
D03*
X682500Y532500D02*
D03*
X630000Y535000D02*
D03*
X507146Y534646D02*
D03*
X400000Y545000D02*
D03*
X415000Y507500D02*
D03*
X667500Y505000D02*
D03*
X652500Y540000D02*
D03*
D14*
X515000Y519500D02*
D03*
Y530500D02*
D03*
X585000Y519500D02*
D03*
Y530500D02*
D03*
D15*
X698248Y512500D02*
D03*
X682500D02*
D03*
X666752D02*
D03*
X698248Y537106D02*
D03*
X682500D02*
D03*
X666752D02*
D03*
X651004Y512500D02*
D03*
Y537106D02*
D03*
X448248Y512894D02*
D03*
X432500D02*
D03*
X416752D02*
D03*
X448248Y537500D02*
D03*
X432500D02*
D03*
X416752D02*
D03*
X401004Y512894D02*
D03*
Y537500D02*
D03*
M02*
