<?xml version="1.0" encoding="UTF-8" standalone="no"?>
<svg
   viewBox="0 0 1151.9999 2304.0001"
   width="12in"
   height="24in"
   version="1.1"
   id="svg16702"
   sodipodi:docname="240421_TattooMystiqueV2_10E_Nested_4_DXF_1.svg"
   inkscape:version="1.2.2 (b0a84865, 2022-12-01)"
   xml:space="preserve"
   inkscape:export-filename="240421_TattooMystiqueV2_10E_Nested_4A.png"
   inkscape:export-xdpi="300"
   inkscape:export-ydpi="300"
   xmlns:inkscape="http://www.inkscape.org/namespaces/inkscape"
   xmlns:sodipodi="http://sodipodi.sourceforge.net/DTD/sodipodi-0.dtd"
   xmlns="http://www.w3.org/2000/svg"
   xmlns:svg="http://www.w3.org/2000/svg"><sodipodi:namedview
     id="namedview16704"
     pagecolor="#ffffff"
     bordercolor="#000000"
     borderopacity="0.25"
     inkscape:showpageshadow="2"
     inkscape:pageopacity="0.0"
     inkscape:pagecheckerboard="0"
     inkscape:deskcolor="#d1d1d1"
     showgrid="false"
     inkscape:zoom="0.27492767"
     inkscape:cx="325.54017"
     inkscape:cy="1140.2999"
     inkscape:window-width="1728"
     inkscape:window-height="1051"
     inkscape:window-x="0"
     inkscape:window-y="38"
     inkscape:window-maximized="0"
     inkscape:current-layer="g16688"
     showguides="false"
     inkscape:lockguides="false"
     inkscape:document-units="in" /><desc
     id="desc15976">240420_TattooMystiqueV2_10D_Nested_1.dxf - scale = 25.400000, origin = (0.000000, 0.000000), method = manual</desc><defs
     id="defs15990"><marker
       id="DistanceX"
       orient="auto"
       refX="0"
       refY="0"
       style="overflow:visible"><path
         d="M 3,-3 -3,3 M 0,-5 V 5"
         style="stroke:#000000;stroke-width:0.5"
         id="path15978" /></marker><pattern
       id="Hatch"
       patternUnits="userSpaceOnUse"
       width="8"
       height="8"
       x="0"
       y="0"><path
         d="M8 4 l-4,4"
         stroke="#000000"
         stroke-width="0.25"
         linecap="square"
         id="path15981" /><path
         d="M6 2 l-4,4"
         stroke="#000000"
         stroke-width="0.25"
         linecap="square"
         id="path15983" /><path
         d="M4 0 l-4,4"
         stroke="#000000"
         stroke-width="0.25"
         linecap="square"
         id="path15985" /></pattern><symbol
       id="*MODEL_SPACE" /><symbol
       id="*PAPER_SPACE" /><clipPath
       clipPathUnits="userSpaceOnUse"
       id="clipPath21262"><path
         style="fill:none;stroke:#ff00ff;stroke-width:2;stroke-linecap:round;stroke-dasharray:none"
         d="m -1137.071,-2289.071 v 1426.59 h 47.999 c 22.416,-38.5061 61.83,-64.0398 106.138,-68.7582 28.532,-3.0384 43.774,-35.1564 28.073,-59.1814 l -53.216,-81.5105 c -4.542,-6.9498 -6.347,-15.3341 -5.084,-23.5384 l 14.289,-92.0031 3.902,-1.4902 c 8.636,-3.3185 10.426,-14.7484 3.208,-20.5487 l -3.21,-2.5911 15.401,-98.67 3.906,-1.4875 c 8.641,-3.3176 10.432,-14.7475 3.21,-20.5447 l -3.215,-2.5966 15.5,-98.67 3.812,-1.4809 c 8.647,-3.3204 10.437,-14.7503 3.209,-20.5498 l -3.221,-2.5993 7.8,-49.43 4.887,-31.3788 c 1.719,-11.0502 8.836,-20.5154 18.993,-25.2487 l 34.833,-16.2724 c 14.085,-6.5677 19.03,-24.1073 10.474,-37.0589 l -14.087,-21.2612 -31.113,-49.7192 c -107.485,-181.6135 -163.691,-388.9747 -162.667,-600.003 z"
         id="path21264" /></clipPath><clipPath
       clipPathUnits="userSpaceOnUse"
       id="clipPath26848"><path
         style="fill:none;stroke:#000000;stroke-width:2;stroke-linecap:round;stroke-linejoin:round;stroke-dasharray:none"
         d="m 3374.2334,1170.6773 -1.2194,14.0237 -25.9677,26.8796 -10.0286,1.8804 -5.4321,2.5071 -5.6411,4.1786 -4.3876,5.85 -3.7607,6.2679 -4.1786,7.5215 -5.0143,4.3875 -5.2232,5.2232 -4.3875,3.9697 -4.3875,7.9393 -5.2233,11.2822 -1.8803,6.6857 -8.1483,6.8947 -15.2518,18.8036 -5.2232,9.6107 4.8517,79.9341 15.3624,89.1015 -128.3566,157.3899 340.7045,183.3761 161.496,-83.3528 -61.4726,-269.8547 -15.6287,-187.5438 -8.3353,-159.4122 -161.496,3.1258 z"
         id="path26850" /></clipPath><clipPath
       clipPathUnits="userSpaceOnUse"
       id="clipPath26916"><path
         style="fill:none;stroke:#000000;stroke-width:2;stroke-linecap:round;stroke-linejoin:round;stroke-dasharray:none"
         d="m 3966.5505,1604.8572 -10.9795,2.047 -5.9549,1.8609 -7.0715,5.955 -8.002,13.2125 -4.8384,6.5132 -6.6993,4.6523 -7.2576,10.049 -7.6297,14.5152 -6.1411,9.8628 -8.188,6.6993 -13.3986,-10.6072 24.0058,-72.0176 7.0715,-50.617 -5.7688,-57.5024 68.854,-19.3536 22.8893,53.9667 -1.1165,43.3594 -5.955,11.9099 -14.5151,14.7013 z"
         id="path26918" /></clipPath><clipPath
       clipPathUnits="userSpaceOnUse"
       id="clipPath26942"><path
         style="display:inline;fill:none;stroke:#ff00ff;stroke-width:2;stroke-linecap:round;stroke-dasharray:none"
         d="m 3395.5735,1048.9974 c 0.1306,-0.1168 0.2579,-0.2363 0.3796,-0.3733 l 71.3689,-71.13269 c 10.4582,-10.41347 25.9623,-13.91878 39.886,-9.0042 l 100.9349,35.58319 c 12.2329,4.3249 18.8241,17.5769 14.8821,29.9293 l -29.4865,92.4762 -70.877,222.3432 c -4.4197,13.857 -18.2146,22.4953 -32.6146,20.4402 l -132.6304,-19.1733 c -17.0696,-2.4458 -28.4828,-18.8524 -24.8573,-35.726 l 53.621,-249.2359 c 1.3442,-6.219 4.6331,-11.8733 9.3933,-16.1267 z"
         id="path26944" /></clipPath><clipPath
       clipPathUnits="userSpaceOnUse"
       id="clipPath12623"><path
         style="display:inline;fill:#ff00ff;stroke:#ff00ff;stroke-width:2;stroke-linecap:round;stroke-dasharray:none"
         d="m -3340.8466,-988.59256 c -24.3997,-23.04284 -29.6012,-59.91014 -12.5277,-88.80534 l 116.0595,-158.9526 c 12.6271,-17.2915 -1.9965,-41.2102 -23.1576,-37.8552 l -39.8928,6.3305 c -13.0842,2.078 -25.3799,-6.8505 -27.4667,-19.9444 l -19.1695,-120.8517 -63.1607,-18.093 -162.5404,567.40933 72.6702,20.81713 c 4.0106,1.149 7.7778,3.0389 11.1009,5.57154 l 35.5139,27.04696 c 6.3158,4.81641 15.3506,3.59452 20.1566,-2.73544 l 110.5375,-145.10812 c 4.4778,-5.85208 3.8002,-14.13388 -1.5724,-19.19617 z"
         id="path12625" /></clipPath><clipPath
       clipPathUnits="userSpaceOnUse"
       id="clipPath45479"><path
         style="fill:none;stroke:#ff00ff;stroke-width:2;stroke-linecap:round;stroke-dasharray:none"
         d="m -4662.4052,-1937.9032 -276.9163,-123.1846 c -25.3267,-11.265 -53.8719,7.17 -53.9988,34.8799 l -0.4015,69.9011 c -0.1372,26.695 29.7193,42.5983 51.7908,27.5863 35.2407,-24.0464 80.4053,-28.1744 119.4212,-10.9147 39.0149,17.2595 66.3419,53.4558 72.2536,95.7071 3.3629,24.0264 32.663,33.9643 49.9287,16.9382 l 49.1178,-48.3821 c 19.4209,-18.9571 13.572,-51.5103 -11.1955,-62.5312 z"
         id="path45481" /></clipPath><clipPath
       clipPathUnits="userSpaceOnUse"
       id="clipPath46388"><path
         style="fill:none;stroke:#ff00ff;stroke-width:2;stroke-linecap:round;stroke-dasharray:none"
         d="m -4662.4052,-1937.9032 -276.9163,-123.1846 c -25.3267,-11.265 -53.8719,7.17 -53.9988,34.8799 l -0.4015,69.9011 c -0.1372,26.695 29.7193,42.5983 51.7908,27.5863 35.2407,-24.0464 80.4053,-28.1744 119.4212,-10.9147 39.0149,17.2595 66.3419,53.4558 72.2536,95.7071 3.3629,24.0264 32.663,33.9643 49.9287,16.9382 l 49.1178,-48.3821 c 19.4209,-18.9571 13.572,-51.5103 -11.1955,-62.5312 z"
         id="path46390" /></clipPath><clipPath
       clipPathUnits="userSpaceOnUse"
       id="clipPath56110"><path
         style="fill:none;stroke:#ff00ff;stroke-width:2;stroke-linecap:round;stroke-dasharray:none"
         d="m -855.87529,-105.19546 c 12.96212,-5.35698 27.60881,-4.75519 40.06617,1.65002 l 128.26732,65.464177 c -23.95952,-87.006487 -63.40946,-168.976747 -116.46114,-241.974987 l -80.38995,109.04984 c -4.52657,6.13837 -10.43816,11.10451 -17.24169,14.48663 l -66.96043,33.31203 10.68176,21.50945 c 8.96891,18.063454 30.3824,26.091178 49.00322,18.412233 z"
         id="path56112" /></clipPath><clipPath
       clipPathUnits="userSpaceOnUse"
       id="clipPath57020"><path
         style="fill:none;stroke:#ff00ff;stroke-width:2;stroke-linecap:round;stroke-dasharray:none"
         d="m 5171.6973,-2530.1342 c 9.3224,9.9118 12.6793,24.0244 8.8456,37.0815 l -88.6808,301.9056 c -0.5175,1.7491 -2.7153,2.3088 -4.0033,1.0215 -18.7399,-18.7614 -46.8033,-24.664 -71.5147,-15.0425 -1.9633,0.7644 -3.8878,-1.1913 -3.0895,-3.1425 l 123.4765,-303.0819 c 8.4813,-20.8311 4.0573,-44.7083 -11.3474,-61.1133 l -19.5654,-20.864 c -2.1833,-2.3428 1.3216,-5.6297 3.5006,-3.2827 z"
         id="path57022" /></clipPath><clipPath
       clipPathUnits="userSpaceOnUse"
       id="clipPath10798"><path
         style="display:inline;fill:none;stroke:#ff00ff;stroke-width:2;stroke-linecap:round;stroke-dasharray:none"
         d="m -612.881,2044.3315 c 3.647,-10.9979 2.135,-23.0568 -4.109,-32.8134 l -46.175,-72 c -15.093,-23.5708 -49.535,-23.5708 -64.628,0 l -46.175,72 c -6.244,9.7554 -7.756,21.8143 -4.109,32.8122 l 46.175,139.0967 c 5.188,15.7036 19.875,26.3045 36.423,26.3045 16.548,0 31.235,-10.6009 36.423,-26.3045 z"
         id="path10800"
         inkscape:export-filename="240429_Plastic_TopCenterLane_1.png"
         inkscape:export-xdpi="300"
         inkscape:export-ydpi="300" /></clipPath><clipPath
       clipPathUnits="userSpaceOnUse"
       id="clipPath58259"><path
         style="display:inline;opacity:1;fill:none;fill-opacity:1;stroke:#ff00ff;stroke-width:2;stroke-linecap:round;stroke-dasharray:none"
         d="m -678.401,651.1382 h 60.099 v 723.1111 h -48.001 v -96.0001 c -28.45,-137.2627 -110.563,-257.469 -228.089,-333.891 l -8.814,-5.7425 c -20.939,-13.614 -24.37,-42.89 -7.173,-60.9762 z"
         id="path58261" /></clipPath><clipPath
       clipPathUnits="userSpaceOnUse"
       id="clipPath18619"><path
         style="display:inline;opacity:1;fill:none;stroke:#ff00ff;stroke-width:1.88976;stroke-linecap:round;stroke-dasharray:none"
         d="m -464.49682,-6835.9986 c 4.68612,13.4059 4.25467,28.067 -1.20837,41.1706 l -116.53745,279.5158 c -0.81246,1.9256 1.09682,3.8973 3.06637,3.1482 24.7892,-9.42 52.80307,-3.2874 71.39019,15.6268 1.2768,1.3002 3.48039,0.7588 4.01038,-0.9751 l 91.1417,-301.1822 c 3.94198,-13.0316 0.69706,-27.1681 -8.52294,-37.1492 l -61.83961,-67.0386 c -1.76834,-1.9235 -4.89167,-0.048 -4.02533,2.4319 z"
         id="path18621" /></clipPath><clipPath
       clipPathUnits="userSpaceOnUse"
       id="clipPath18939"><path
         style="display:inline;opacity:1;fill:none;stroke:#ff00ff;stroke-width:1.88976;stroke-linecap:round;stroke-dasharray:none"
         d="m -4700.3228,-1826.9874 c -11.5935,11.4408 -30.2794,11.301 -41.7203,-0.3068 -0.182,-51.5976 -30.7833,-98.2335 -78.0475,-118.9404 -47.2633,-20.7068 -102.2926,-11.5867 -140.3511,23.2573 -18.4236,0.067 -33.3689,-14.9014 -33.2765,-33.3273 l 0.4026,-69.9009 c 0.1269,-27.7098 28.672,-46.1449 53.9988,-34.8799 l 276.9163,123.1847 c 24.7675,11.0208 30.6164,43.574 11.1955,62.5311 z"
         id="path18941" /></clipPath><clipPath
       clipPathUnits="userSpaceOnUse"
       id="clipPath32690"><path
         style="display:inline;opacity:1;fill:none;stroke:#ff00ff;stroke-width:1.88976;stroke-linecap:round;stroke-dasharray:none"
         d="m -857.1872,-105.10781 c 12.96212,-5.35698 27.60881,-4.75519 40.06625,1.65008 l 128.26724,65.464115 c -27.60698,-100.249535 -75.73677,-193.668155 -141.333,-274.345985 l -32.36755,17.82235 c -4.39453,2.42648 -7.20932,6.93737 -7.45145,11.93157 -2.83217,58.51263 -41.8045,109.07098 -97.66918,126.70487 -8.43591,2.66278 -12.4988,12.23023 -8.56586,20.16134 l 6.33377,12.59944 10.68183,21.50952 c 8.96884,18.063387 30.38233,26.091111 49.00315,18.412166 z"
         id="path32692" /></clipPath><marker
       id="DistanceX-9"
       orient="auto"
       refX="0.0"
       refY="0.0"
       style="overflow:visible"><path
         d="M 3,-3 L -3,3 M 0,-5 L  0,5"
         style="stroke:#000000; stroke-width:0.5"
         id="path6219" /></marker><pattern
       id="Hatch-1"
       patternUnits="userSpaceOnUse"
       width="8"
       height="8"
       x="0"
       y="0"><path
         d="M8 4 l-4,4"
         stroke="#000000"
         stroke-width="0.25"
         linecap="square"
         id="path6222" /><path
         d="M6 2 l-4,4"
         stroke="#000000"
         stroke-width="0.25"
         linecap="square"
         id="path6224" /><path
         d="M4 0 l-4,4"
         stroke="#000000"
         stroke-width="0.25"
         linecap="square"
         id="path6226" /></pattern><symbol
       id="*MODEL_SPACE-5" /><symbol
       id="*PAPER_SPACE-5" /><marker
       id="DistanceX-8"
       orient="auto"
       refX="0.0"
       refY="0.0"
       style="overflow:visible"><path
         d="M 3,-3 L -3,3 M 0,-5 L  0,5"
         style="stroke:#000000; stroke-width:0.5"
         id="path7648" /></marker><pattern
       id="Hatch-4"
       patternUnits="userSpaceOnUse"
       width="8"
       height="8"
       x="0"
       y="0"><path
         d="M8 4 l-4,4"
         stroke="#000000"
         stroke-width="0.25"
         linecap="square"
         id="path7651" /><path
         d="M6 2 l-4,4"
         stroke="#000000"
         stroke-width="0.25"
         linecap="square"
         id="path7653" /><path
         d="M4 0 l-4,4"
         stroke="#000000"
         stroke-width="0.25"
         linecap="square"
         id="path7655" /></pattern><symbol
       id="*MODEL_SPACE-0" /><symbol
       id="*PAPER_SPACE-4" /></defs><g
     inkscape:groupmode="layer"
     inkscape:label="9_PLASTICS_1"
     id="g16408"
     transform="translate(-25178.733,4418.0764)"
     style="display:inline"><path
       d="m 26102.744,-2605.7749 a 8.64,8.64 0 0 0 -13.619,-10.6357 8.64,8.64 0 0 0 13.619,10.6357 z"
       style="display:inline;fill:none;stroke:#00ff00;stroke-width:1.88976;stroke-linecap:round;stroke-dasharray:none"
       id="path36332"
       inkscape:transform-center-x="30.458207"
       inkscape:transform-center-y="-64.14453" /><path
       d="m 26168.146,-2477.4842 a 8.64,8.64 0 0 0 -13.619,-10.6357 8.64,8.64 0 0 0 13.619,10.6357 z"
       style="display:inline;fill:none;stroke:#00ff00;stroke-width:1.88976;stroke-linecap:round;stroke-dasharray:none"
       id="path36338"
       inkscape:transform-center-x="-34.943797"
       inkscape:transform-center-y="64.146178" /><path
       id="path36368"
       style="display:inline;fill:none;stroke:#ff00ff;stroke-width:1.88976;stroke-linecap:round;stroke-dasharray:none"
       d="m 26175.507,-2455.0053 c 15.352,-7.8263 21.453,-26.6153 13.621,-41.9718 l 6.451,-3.2362 -65.473,-128.3497 -6.375,3.2964 c -7.826,-15.3481 -26.614,-21.4485 -41.966,-13.6229 -15.352,7.8264 -21.453,26.6153 -13.641,41.9574 l -6.392,3.2819 65.394,128.2881 6.396,-3.2806 c 7.844,15.3627 26.633,21.4631 41.985,13.6374 z"
       sodipodi:nodetypes="sccccsccccs"
       inkscape:transform-center-x="-2.262795"
       inkscape:transform-center-y="0.00066777946" /><path
       style="display:inline;opacity:1;fill:none;stroke:#00ff00;stroke-width:1.88976;stroke-linecap:round;stroke-dasharray:none"
       d="m 7233.6944,1352.4572 c 0,-3.9765 -3.224,-7.2 -7.2,-7.2 -3.976,0 -7.2,3.2235 -7.2,7.2 0,3.9765 3.224,7.2 7.2,7.2 3.976,0 7.2,-3.2235 7.2,-7.2 z"
       id="path12865"
       transform="translate(18758.929,-4310.551)" /><path
       style="display:inline;opacity:1;fill:none;stroke:#ff00ff;stroke-width:1.88976;stroke-linecap:round;stroke-dasharray:none"
       d="m 7217.5134,1380.8455 c 16.455,5.1978 33.862,-4.622 37.902,-21.3871 l 31.562,-130.2411 c 3.402,-14.1427 -3.901,-28.6883 -17.28,-34.3926 l -214.695,-91.4745 -89.295,-38.0508 c -11.924,-5.0809 -25.737,0.2351 -31.192,12.0064 l -44.917,97.1466 c -6.203,13.3962 -4.171,29.161 5.214,40.5511 l 64.105,77.7414 c 0.125,0.135 0.232,0.2728 0.336,0.4134 3.787,5.1398 9.107,8.9454 15.173,10.8677 z"
       id="path12863"
       transform="translate(18758.929,-4310.551)" /><path
       style="display:inline;opacity:1;fill:none;stroke:#ff00ff;stroke-width:1.88976;stroke-linecap:round;stroke-dasharray:none"
       d="m 7047.0894,836.10638 -15.412,39.5281 c -118.472,-30.0361 -240.08,-45.8407 -362.273,-47.0806 v -48.0838 l 517.101,0.25 v 47.7445 h -128.223 c -4.967,0 -9.405,3.0342 -11.192,7.64 z"
       id="path12861"
       transform="translate(18758.929,-4310.551)" /><path
       style="display:inline;opacity:1;fill:none;stroke:#00ff00;stroke-width:1.88976;stroke-linecap:round;stroke-dasharray:none"
       d="m 7143.2634,804.46568 c 0,-3.9765 -3.224,-7.2 -7.2,-7.2 -3.976,0 -7.2,3.2235 -7.2,7.2 0,3.9765 3.224,7.2 7.2,7.2 3.976,0 7.2,-3.2235 7.2,-7.2 z"
       id="path12859"
       transform="translate(18758.929,-4310.551)" /><path
       style="display:inline;opacity:1;fill:none;stroke:#ff00ff;stroke-width:1.88976;stroke-linecap:round;stroke-dasharray:none"
       d="m 7262.8994,227.95528 8.815,5.7415 c 117.527,76.4231 199.64,196.6293 228.09,333.8898 v 95.998 h 48 V -59.525421 h -60.1 l -231.978,226.509601 c -17.197,18.0834 -13.766,47.3593 7.173,60.9711 z"
       id="path12857"
       transform="translate(18758.929,-4310.551)" /><path
       style="display:inline;opacity:1;fill:none;stroke:#00ff00;stroke-width:1.88976;stroke-linecap:round;stroke-dasharray:none"
       d="m 7291.8484,194.50148 c 0,-3.9765 -3.224,-7.2 -7.2,-7.2 -3.976,0 -7.2,3.2235 -7.2,7.2 0,3.9765 3.224,7.2 7.2,7.2 3.976,0 7.2,-3.2235 7.2,-7.2 z"
       id="path12855"
       transform="translate(18758.929,-4310.551)" /><path
       style="display:inline;opacity:1;fill:none;stroke:#00ff00;stroke-width:1.88976;stroke-linecap:round;stroke-dasharray:none"
       d="m 7531.0044,567.58858 c 0,-3.9765 -3.224,-7.2 -7.2,-7.2 -3.976,0 -7.2,3.2235 -7.2,7.2 0,3.9765 3.224,7.2 7.2,7.2 3.976,0 7.2,-3.2235 7.2,-7.2 z"
       id="path12853"
       transform="translate(18758.929,-4310.551)" /><path
       style="display:inline;opacity:1;fill:none;stroke:#00ff00;stroke-width:1.88976;stroke-linecap:round;stroke-dasharray:none"
       d="m 7531.0044,6.6567788 c 0,-3.9765 -3.224,-7.20000002 -7.2,-7.20000002 -3.976,0 -7.2,3.22350002 -7.2,7.20000002 0,3.9765002 3.224,7.2000002 7.2,7.2000002 3.976,0 7.2,-3.2235 7.2,-7.2000002 z"
       id="path12851"
       transform="translate(18758.929,-4310.551)" /><path
       style="display:inline;opacity:1;fill:none;stroke:#00ff00;stroke-width:1.88976;stroke-linecap:round;stroke-dasharray:none"
       d="m 7272.9994,-59.525421 c 0,-3.9765 -3.224,-7.2 -7.2,-7.2 -3.976,0 -7.2,3.2235 -7.2,7.2 0,3.9765 3.224,7.2 7.2,7.2 3.976,0 7.2,-3.2235 7.2,-7.2 z"
       id="path12849"
       transform="translate(18758.929,-4310.551)" /><path
       style="display:inline;opacity:1;fill:none;stroke:#ff00ff;stroke-width:1.88976;stroke-linecap:round;stroke-dasharray:none"
       d="m 7127.9044,732.47348 h -60.1 V 9.3634788 h 48 V 105.36118 c 28.45,137.2601 110.563,257.4664 228.09,333.8899 l 8.815,5.7402 c 20.939,13.6104 24.37,42.8864 7.174,60.9701 z"
       id="path12847"
       transform="translate(18758.929,-4310.551)" /><path
       style="display:inline;opacity:1;fill:none;stroke:#00ff00;stroke-width:1.88976;stroke-linecap:round;stroke-dasharray:none"
       d="m 7527.9504,880.58168 c 0,-4.3741 -3.546,-7.92 -7.92,-7.92 -4.374,0 -7.92,3.5459 -7.92,7.92 0,4.3741 3.546,7.92 7.92,7.92 4.374,0 7.92,-3.5459 7.92,-7.92 z"
       id="path12845"
       transform="translate(18758.929,-4310.551)" /><path
       style="display:inline;opacity:1;fill:none;stroke:#00ff00;stroke-width:1.88976;stroke-linecap:round;stroke-dasharray:none"
       d="m 7517.9884,1024.0362 c 0,-4.3741 -3.546,-7.92 -7.92,-7.92 -4.374,0 -7.92,3.5459 -7.92,7.92 0,4.3741 3.546,7.92 7.92,7.92 4.374,0 7.92,-3.5459 7.92,-7.92 z"
       id="path12843"
       transform="translate(18758.929,-4310.551)" /><path
       style="display:inline;opacity:1;fill:none;stroke:#ff00ff;stroke-width:1.88976;stroke-linecap:round;stroke-dasharray:none"
       d="m 7437.5124,749.95148 c -1.526,-2.1075 0.919,-4.8059 3.178,-3.4864 l 78.6,46.2463 c 11.713,6.8965 18.914,19.4871 18.914,33.0924 v 314.66842 c 0,1.8225 -1.952,2.9799 -3.551,2.1058 -23.269,-12.7196 -51.858,-10.4742 -72.856,5.7231 -1.668,1.2886 -4.067,-0.045 -3.874,-2.1451 l 30.592,-301.27012 c 1.445,-14.1219 -2.389,-28.2793 -10.733,-39.7513 z"
       id="path12841"
       transform="translate(18758.929,-4310.551)" /><path
       style="display:inline;opacity:1;fill:none;stroke:#00ff00;stroke-width:1.88976;stroke-linecap:round;stroke-dasharray:none"
       d="m 7531.0044,1289.9403 c 0,-3.9765 -3.224,-7.2 -7.2,-7.2 -3.976,0 -7.2,3.2235 -7.2,7.2 0,3.9765 3.224,7.2 7.2,7.2 3.976,0 7.2,-3.2235 7.2,-7.2 z"
       id="path12839"
       transform="translate(18758.929,-4310.551)" /><path
       style="display:inline;opacity:1;fill:none;stroke:#00ff00;stroke-width:1.88976;stroke-linecap:round;stroke-dasharray:none"
       d="m 7099.0044,666.28958 c 0,-3.9765 -3.224,-7.2 -7.2,-7.2 -3.976,0 -7.2,3.2235 -7.2,7.2 0,3.9765 3.224,7.2 7.2,7.2 3.976,0 7.2,-3.2235 7.2,-7.2 z"
       id="path12837"
       transform="translate(18758.929,-4310.551)" /><path
       style="display:inline;opacity:1;fill:none;stroke:#00ff00;stroke-width:1.88976;stroke-linecap:round;stroke-dasharray:none"
       d="m 7099.0044,105.35768 c 0,-3.9765 -3.224,-7.200001 -7.2,-7.200001 -3.976,0 -7.2,3.223501 -7.2,7.200001 0,3.9765 3.224,7.2 7.2,7.2 3.976,0 7.2,-3.2235 7.2,-7.2 z"
       id="path12835"
       transform="translate(18758.929,-4310.551)" /><path
       style="display:inline;opacity:1;fill:none;stroke:#00ff00;stroke-width:1.88976;stroke-linecap:round;stroke-dasharray:none"
       d="m 7338.1604,478.44488 c 0,-3.9765 -3.224,-7.2 -7.2,-7.2 -3.976,0 -7.2,3.2235 -7.2,7.2 0,3.9765 3.224,7.2 7.2,7.2 3.976,0 7.2,-3.2235 7.2,-7.2 z"
       id="path12833"
       transform="translate(18758.929,-4310.551)" /><path
       style="display:inline;opacity:1;fill:none;stroke:#ff00ff;stroke-width:1.88976;stroke-linecap:round;stroke-dasharray:none"
       d="m 7350.5904,1172.6507 -242.869,-181.33992 c -21.719,-16.2329 -20.229,-49.2735 2.882,-63.48 l 58.599,-36.3277 c 13.852,-8.5878 32.046,-4.3214 40.638,9.5309 -11.226,50.3647 8.312,102.61082 49.83,133.25152 41.519,30.6407 97.203,33.9087 142.02,8.3348 17.983,4.0042 29.25,21.9054 25.098,39.8518 l -15.808,68.0984 c -6.292,26.9848 -38.205,38.6552 -60.39,22.0802 z"
       id="path12831"
       transform="translate(18758.929,-4310.551)" /><path
       style="display:inline;opacity:1;fill:none;stroke:#00ff00;stroke-width:1.88976;stroke-linecap:round;stroke-dasharray:none"
       d="m 7380.7524,1141.8811 c 0,-3.9765 -3.224,-7.2 -7.2,-7.2 -3.976,0 -7.2,3.2235 -7.2,7.2 0,3.9765 3.224,7.2 7.2,7.2 3.976,0 7.2,-3.2235 7.2,-7.2 z"
       id="path12829"
       transform="translate(18758.929,-4310.551)" /><path
       style="display:inline;opacity:1;fill:none;stroke:#00ff00;stroke-width:1.88976;stroke-linecap:round;stroke-dasharray:none"
       d="m 7137.9144,960.54128 c 0,-3.9765 -3.224,-7.2 -7.2,-7.2 -3.976,0 -7.2,3.2235 -7.2,7.2 0,3.9765 3.224,7.2 7.2,7.2 3.976,0 7.2,-3.2235 7.2,-7.2 z"
       id="path12827"
       transform="translate(18758.929,-4310.551)" /><path
       style="display:inline;opacity:1;fill:none;stroke:#00ff00;stroke-width:1.88976;stroke-linecap:round;stroke-dasharray:none"
       d="m 7344.2804,972.47208 c 0,-3.9765 -3.224,-7.2 -7.2,-7.2 -3.976,0 -7.2,3.2235 -7.2,7.2 0,3.9765 3.224,7.2 7.2,7.2 3.976,0 7.2,-3.2235 7.2,-7.2 z"
       id="path12825"
       transform="translate(18758.929,-4310.551)" /><path
       style="display:inline;opacity:1;fill:none;stroke:#ff00ff;stroke-width:1.88976;stroke-linecap:round;stroke-dasharray:none"
       d="m 7258.6034,812.65458 c -6.256,9.7588 -7.768,21.8177 -4.109,32.8183 l 46.125,139.0917 c 5.226,15.70662 19.913,26.30822 36.461,26.30822 16.549,0 31.236,-10.6016 36.436,-26.30822 l 46.175,-139.0917 c 3.635,-11.0008 2.122,-23.0597 -4.109,-32.8183 l -46.176,-72 c -15.105,-23.5686 -49.547,-23.5686 -64.678,0 z"
       id="path12823"
       transform="translate(18758.929,-4310.551)" /><path
       style="display:inline;opacity:1;fill:none;stroke:#00ff00;stroke-width:1.88976;stroke-linecap:round;stroke-dasharray:none"
       d="m 7344.2804,761.37878 c 0,-3.9765 -3.224,-7.2 -7.2,-7.2 -3.976,0 -7.2,3.2235 -7.2,7.2 0,3.9765 3.224,7.2 7.2,7.2 3.976,0 7.2,-3.2235 7.2,-7.2 z"
       id="path12821"
       transform="translate(18758.929,-4310.551)" /><path
       style="display:inline;opacity:1;fill:none;stroke:#00ff00;stroke-width:1.88976;stroke-linecap:round;stroke-dasharray:none"
       d="m 6711.2634,804.47428 c 0,-3.9765 -3.224,-7.2 -7.2,-7.2 -3.976,0 -7.2,3.2235 -7.2,7.2 0,3.9765 3.224,7.2 7.2,7.2 3.976,0 7.2,-3.2235 7.2,-7.2 z"
       id="path12819"
       transform="translate(18758.929,-4310.551)" /><path
       style="display:inline;opacity:1;fill:none;stroke:#00ff00;stroke-width:1.88976;stroke-linecap:round;stroke-dasharray:none"
       d="m 6931.6444,1190.571 c 0,-3.9765 -3.224,-7.2 -7.2,-7.2 -3.976,0 -7.2,3.2235 -7.2,7.2 0,3.9765 3.224,7.2 7.2,7.2 3.976,0 7.2,-3.2235 7.2,-7.2 z"
       id="path12817"
       transform="translate(18758.929,-4310.551)" /><path
       style="display:inline;opacity:1;fill:none;stroke:#00ff00;stroke-width:1.88976;stroke-linecap:round;stroke-dasharray:none"
       d="m 6692.4394,1048.4785 c 0,-4.3741 -3.546,-7.92 -7.92,-7.92 -4.374,0 -7.92,3.5459 -7.92,7.92 0,4.3741 3.546,7.92 7.92,7.92 4.374,0 7.92,-3.5459 7.92,-7.92 z"
       id="path12815"
       transform="translate(18758.929,-4310.551)" /><path
       style="display:inline;opacity:1;fill:none;stroke:#00ff00;stroke-width:1.88976;stroke-linecap:round;stroke-dasharray:none"
       d="m 6572.5304,969.10428 c 0,-4.3741 -3.546,-7.92 -7.92,-7.92 -4.374,0 -7.92,3.5459 -7.92,7.92 0,4.3741 3.546,7.92 7.92,7.92 4.374,0 7.92,-3.5459 7.92,-7.92 z"
       id="path12813"
       transform="translate(18758.929,-4310.551)" /><path
       style="display:inline;opacity:1;fill:none;stroke:#ff00ff;stroke-width:1.88976;stroke-linecap:round;stroke-dasharray:none"
       d="m 6771.0024,1048.886 c -14.108,1.626 -28.316,-2.0163 -39.899,-10.225 l -247.079,-175.10582 c -1.7,-1.2157 -4.043,0.2137 -3.745,2.2997 3.743,26.2532 -8.395,52.235 -30.931,66.212 -1.549,0.9599 -1.505,3.2286 0.07,4.1266 l 273.796,155.09132 c 11.847,6.709 26.351,6.6495 38.114,-0.1521 l 78.988,-45.5984 c 2.265,-1.3025 1.122,-4.7615 -1.488,-4.4613 z"
       id="path12811"
       transform="translate(18758.929,-4310.551)" /><path
       style="display:inline;opacity:1;fill:none;stroke:#ff00ff;stroke-width:1.88976;stroke-linecap:round;stroke-dasharray:none"
       d="m 7004.1104,-35.525521 405.694,10e-5 v -48 h -966 V 787.96458 l 49.909,5e-4 c -3.744,-170.3573 39.035,-338.5128 123.741,-486.3666 60.572,-96.5582 155.434,-166.6235 265.542,-196.1243 l 67.4,-18.059801 c 20.476,-5.489 32.633,-26.5452 27.126,-47.0301 l -8.199,-30.5911002 c -6.106,-22.8656998 11.122,-45.3186998 34.787,-45.3186998 z"
       id="path12809"
       transform="translate(18758.929,-4310.551)" /><path
       style="display:inline;opacity:1;fill:none;stroke:#00ff00;stroke-width:1.88976;stroke-linecap:round;stroke-dasharray:none"
       d="m 6475.0044,108.47428 c 0,-3.9765 -3.224,-7.2 -7.2,-7.2 -3.976,0 -7.2,3.2235 -7.2,7.2 0,3.9765 3.224,7.2 7.2,7.2 3.976,0 7.2,-3.2235 7.2,-7.2 z"
       id="path12807"
       transform="translate(18758.929,-4310.551)" /><path
       style="display:inline;opacity:1;fill:none;stroke:#00ff00;stroke-width:1.88976;stroke-linecap:round;stroke-dasharray:none"
       d="m 6947.6484,50.322779 c 0,-3.9765 -3.224,-7.2 -7.2,-7.2 -3.976,0 -7.2,3.2235 -7.2,7.2 0,3.9765 3.224,7.2 7.2,7.2 3.976,0 7.2,-3.2235 7.2,-7.2 z"
       id="path12805"
       transform="translate(18758.929,-4310.551)" /><path
       style="display:inline;opacity:1;fill:none;stroke:#00ff00;stroke-width:1.88976;stroke-linecap:round;stroke-dasharray:none"
       d="m 6475.9634,643.96548 c 0,-3.9765 -3.224,-7.2 -7.2,-7.2 -3.976,0 -7.2,3.2235 -7.2,7.2 0,3.9765 3.224,7.2 7.2,7.2 3.976,0 7.2,-3.2235 7.2,-7.2 z"
       id="path12803"
       transform="translate(18758.929,-4310.551)" /><path
       style="display:inline;opacity:1;fill:none;stroke:#00ff00;stroke-width:1.88976;stroke-linecap:round;stroke-dasharray:none"
       d="m 6948.2154,648.81998 c 0,-3.9765 -3.224,-7.2 -7.2,-7.2 -3.976,0 -7.2,3.2235 -7.2,7.2 0,3.9765 3.224,7.2 7.2,7.2 3.976,0 7.2,-3.2235 7.2,-7.2 z"
       id="path12801"
       transform="translate(18758.929,-4310.551)" /><path
       style="display:inline;opacity:1;fill:none;stroke:#ff00ff;stroke-width:1.88976;stroke-linecap:round;stroke-dasharray:none"
       d="m 6905.7924,589.45258 c -12.659,-6.0385 -22.021,-17.3186 -25.607,-30.8595 l -37.285,-139.0966 c -55.96,87.639 -93.103,185.9442 -109.087,288.688 l 34.912,12.1015 c 4.745,1.6385 9.98,0.7079 13.851,-2.4569 45.35,-37.0827 108.996,-41.9996 159.504,-12.3222 7.627,4.4815 17.453,1.0914 20.709,-7.1408 l 5.115,-13.1415 8.82,-22.3376 c 7.408,-18.7576 -0.971,-40.0361 -19.144,-48.7219 z"
       id="path12799"
       transform="translate(18758.929,-4310.551)" /><path
       style="display:inline;opacity:1;fill:none;stroke:#ff00ff;stroke-width:1.88976;stroke-linecap:round;stroke-dasharray:none"
       d="m 7091.8844,1865.7061 c 8.824,-13.6908 27.092,-17.6232 40.786,-8.7852 11.413,50.3199 51.435,89.1733 102.074,99.0916 50.638,9.9183 102.361,-10.9655 131.919,-53.2607 17.967,-4.077 35.813,7.2778 39.735,25.2817 l 14.828,68.3112 c 5.91,27.0726 -17.936,51.281 -45.108,45.8012 l -297.095,-59.9304 c -26.573,-5.3632 -39.37,-35.8617 -24.543,-58.5928 z"
       id="path12797"
       transform="translate(18758.929,-4310.551)" /><path
       style="display:inline;opacity:1;fill:none;stroke:#00ff00;stroke-width:1.88976;stroke-linecap:round;stroke-dasharray:none"
       d="m 7390.9264,2004.5055 c 0,-3.9765 -3.224,-7.2 -7.2,-7.2 -3.976,0 -7.2,3.2235 -7.2,7.2 0,3.9765 3.224,7.2 7.2,7.2 3.976,0 7.2,-3.2235 7.2,-7.2 z"
       id="path12795"
       transform="translate(18758.929,-4310.551)" /><path
       style="display:inline;opacity:1;fill:none;stroke:#00ff00;stroke-width:1.88976;stroke-linecap:round;stroke-dasharray:none"
       d="m 7093.8354,1944.5748 c 0,-3.9765 -3.224,-7.2 -7.2,-7.2 -3.976,0 -7.2,3.2235 -7.2,7.2 0,3.9765 3.224,7.2 7.2,7.2 3.976,0 7.2,-3.2235 7.2,-7.2 z"
       id="path12793"
       transform="translate(18758.929,-4310.551)" /><path
       style="display:inline;opacity:1;fill:none;stroke:#ff00ff;stroke-width:1.88976;stroke-linecap:round;stroke-dasharray:none"
       d="m 6842.0164,1316.5983 220.897,148.9943 c 8.5,5.7259 12.421,16.2122 9.781,26.1053 l -10.389,38.6577 -37.226,139.099 c -5.77,21.4412 3.936,44.0248 23.436,54.6119 l 19.966,10.8115 c 11.626,6.3236 15.945,20.8927 9.623,32.5397 l -71.507,131.7852 c -6.01,11.062 -19.542,15.6072 -31.001,10.4091 l -138.919,-62.9704 c -9.682,-4.3757 -21.061,-0.094 -25.458,9.5641 l -62.108,137.0605 c -4.366,9.6591 -0.08,21.0371 9.581,25.4117 l 159.588,72.3205 c 12.054,5.4744 26.277,0.1229 31.734,-11.9494 l 0.782,-1.688 c 4.796,-10.5897 16.497,-16.2164 27.768,-13.3501 141.098,35.8558 285.71,56.0761 431.234,60.2959 v 48.1678 h -966 v -948.41 h 48 c 0,59.6449 48.353,107.9981 108,107.9981 59.647,0 108,-48.3532 108,-108 0,-17.6323 12.008,-32.9988 29.117,-37.2613 17.109,-4.2625 34.923,3.6747 43.189,19.2457 l 54.169,101.9194 c 1.82,3.4726 4.49,6.4387 7.737,8.6337 z"
       id="path12791"
       transform="translate(18758.929,-4310.551)" /><path
       style="display:inline;opacity:1;fill:none;stroke:#00ff00;stroke-width:1.88976;stroke-linecap:round;stroke-dasharray:none"
       d="m 6753.4044,1224.0608 c 0,-3.9765 -3.224,-7.2 -7.2,-7.2 -3.976,0 -7.2,3.2235 -7.2,7.2 0,3.9765 3.224,7.2 7.2,7.2 3.976,0 7.2,-3.2235 7.2,-7.2 z"
       id="path12789"
       transform="translate(18758.929,-4310.551)" /><path
       style="display:inline;opacity:1;fill:none;stroke:#00ff00;stroke-width:1.88976;stroke-linecap:round;stroke-dasharray:none"
       d="m 6474.9924,1368.0608 c 0,-3.9765 -3.224,-7.2 -7.2,-7.2 -3.976,0 -7.2,3.2235 -7.2,7.2 0,3.9765 3.224,7.2 7.2,7.2 3.976,0 7.2,-3.2235 7.2,-7.2 z"
       id="path12787"
       transform="translate(18758.929,-4310.551)" /><path
       style="display:inline;opacity:1;fill:none;stroke:#00ff00;stroke-width:1.88976;stroke-linecap:round;stroke-dasharray:none"
       d="m 6883.2984,1385.896 c 0,-3.9765 -3.224,-7.2 -7.2,-7.2 -3.976,0 -7.2,3.2235 -7.2,7.2 0,3.9765 3.224,7.2 7.2,7.2 3.976,0 7.2,-3.2235 7.2,-7.2 z"
       id="path12785"
       transform="translate(18758.929,-4310.551)" /><path
       style="display:inline;opacity:1;fill:none;stroke:#00ff00;stroke-width:1.88976;stroke-linecap:round;stroke-dasharray:none"
       d="m 6595.0054,-59.524021 c 0,-3.9765 -3.224,-7.2 -7.2,-7.2 -3.976,0 -7.2,3.2235 -7.2,7.2 0,3.9765 3.224,7.2 7.2,7.2 3.976,0 7.2,-3.2235 7.2,-7.2 z"
       id="path12783"
       transform="translate(18758.929,-4310.551)" /><path
       style="display:inline;opacity:1;fill:none;stroke:#00ff00;stroke-width:1.88976;stroke-linecap:round;stroke-dasharray:none"
       d="m 7195.0054,1776.3695 c 0,-3.9765 -3.224,-7.2 -7.2,-7.2 -3.976,0 -7.2,3.2235 -7.2,7.2 0,3.9765 3.224,7.2 7.2,7.2 3.976,0 7.2,-3.2235 7.2,-7.2 z"
       id="path12781"
       transform="translate(18758.929,-4310.551)" /><path
       style="display:inline;opacity:1;fill:none;stroke:#00ff00;stroke-width:1.88976;stroke-linecap:round;stroke-dasharray:none"
       d="m 7272.9934,2148.3917 c 0,-3.9765 -3.224,-7.2 -7.2,-7.2 -3.976,0 -7.2,3.2235 -7.2,7.2 0,3.9765 3.224,7.2 7.2,7.2 3.976,0 7.2,-3.2235 7.2,-7.2 z"
       id="path12779"
       transform="translate(18758.929,-4310.551)" /><path
       style="display:inline;opacity:1;fill:none;stroke:#ff00ff;stroke-width:1.88976;stroke-linecap:round;stroke-dasharray:none"
       d="m 7187.7994,1814.758 c 16.548,0 31.235,-10.6009 36.423,-26.3045 l 46.175,-139.0967 c 3.647,-10.9979 2.135,-23.0568 -4.109,-32.8134 l -46.175,-72 c -15.093,-23.5708 -49.535,-23.5708 -64.626,0.01 l -46.175,72 c -6.246,9.7501 -7.758,21.809 -4.111,32.8069 l 46.175,139.0967 c 5.188,15.7036 19.875,26.3045 36.423,26.3045 z"
       id="path12777"
       transform="translate(18758.929,-4310.551)" /><path
       style="display:inline;opacity:1;fill:none;stroke:#00ff00;stroke-width:1.88976;stroke-linecap:round;stroke-dasharray:none"
       d="m 7194.9994,1565.2654 c 0,-3.9765 -3.224,-7.2 -7.2,-7.2 -3.976,0 -7.2,3.2235 -7.2,7.2 0,3.9765 3.224,7.2 7.2,7.2 3.976,0 7.2,-3.2235 7.2,-7.2 z"
       id="path12775"
       transform="translate(18758.929,-4310.551)" /><path
       style="display:inline;opacity:1;fill:none;stroke:#00ff00;stroke-width:1.88976;stroke-linecap:round;stroke-dasharray:none"
       d="m 6595.0014,2148.4691 c 0,-3.9765 -3.224,-7.2 -7.2,-7.2 -3.976,0 -7.2,3.2235 -7.2,7.2 0,3.9765 3.224,7.2 7.2,7.2 3.976,0 7.2,-3.2235 7.2,-7.2 z"
       id="path12773"
       transform="translate(18758.929,-4310.551)" /><path
       style="display:inline;opacity:1;fill:none;stroke:#00ff00;stroke-width:1.88976;stroke-linecap:round;stroke-dasharray:none"
       d="m 6475.0014,1980.4695 c 0,-3.9765 -3.224,-7.2 -7.2,-7.2 -3.976,0 -7.2,3.2235 -7.2,7.2 0,3.9765 3.224,7.2 7.2,7.2 3.976,0 7.2,-3.2235 7.2,-7.2 z"
       id="path12771"
       transform="translate(18758.929,-4310.551)" /><path
       style="display:inline;opacity:1;fill:none;stroke:#00ff00;stroke-width:1.88976;stroke-linecap:round;stroke-dasharray:none"
       d="m 6985.3464,1871.0986 c 0,-3.9765 -3.224,-7.2 -7.2,-7.2 -3.976,0 -7.2,3.2235 -7.2,7.2 0,3.9765 3.224,7.2 7.2,7.2 3.976,0 7.2,-3.2235 7.2,-7.2 z"
       id="path12769"
       transform="translate(18758.929,-4310.551)" /><path
       style="display:inline;opacity:1;fill:none;stroke:#00ff00;stroke-width:1.88976;stroke-linecap:round;stroke-dasharray:none"
       d="m 7531.0014,1850.8695 c 0,-3.9765 -3.224,-7.2 -7.2,-7.2 -3.976,0 -7.2,3.2235 -7.2,7.2 0,3.9765 3.224,7.2 7.2,7.2 3.976,0 7.2,-3.2235 7.2,-7.2 z"
       id="path12767"
       transform="translate(18758.929,-4310.551)" /><path
       style="display:inline;opacity:1;fill:none;stroke:#00ff00;stroke-width:1.88976;stroke-linecap:round;stroke-dasharray:none"
       d="m 7291.8454,1477.7823 c 0,-3.9765 -3.224,-7.2 -7.2,-7.2 -3.976,0 -7.2,3.2235 -7.2,7.2 0,3.9765 3.224,7.2 7.2,7.2 3.976,0 7.2,-3.2235 7.2,-7.2 z"
       id="path12765"
       transform="translate(18758.929,-4310.551)" /><path
       style="display:inline;opacity:1;fill:none;stroke:#ff00ff;stroke-width:1.88976;stroke-linecap:round;stroke-dasharray:none"
       d="m 7262.8974,1511.2407 8.814,5.7394 c 117.525,76.4165 199.638,196.6228 228.09,333.8899 v 96.0046 h 48 v -723.1111 h -60.1 l -231.98,226.5011 c -17.198,18.0838 -13.767,47.3598 7.173,60.9761 z"
       id="path10996"
       transform="translate(18758.929,-4310.551)" /><path
       d="m 7538.3914,967.06348 a 24,24 0 0 0 -48,0 24,24 0 0 0 48,0 z"
       style="display:inline;opacity:1;fill:none;stroke:#000000;stroke-width:1.88976;stroke-linecap:round;stroke-dasharray:none"
       id="path11076"
       transform="translate(18758.929,-4310.551)" /><path
       d="m 6636.0514,1000.9466 a 24,24 0 0 0 -48,0 24,24 0 0 0 48,0 z"
       style="display:inline;opacity:1;fill:none;stroke:#000000;stroke-width:1.88976;stroke-linecap:round;stroke-dasharray:none"
       id="path11116"
       transform="translate(18758.929,-4310.551)" /><path
       d="m 25309.224,-3209.9567 a 8.64,8.64 0 0 0 -13.619,-10.6357 8.64,8.64 0 0 0 13.619,10.6357 z"
       style="display:inline;fill:none;stroke:#00ff00;stroke-width:1.88976;stroke-linecap:round;stroke-dasharray:none"
       id="path36936"
       inkscape:transform-center-x="30.458207"
       inkscape:transform-center-y="-64.14453" /><path
       d="m 25374.626,-3081.666 a 8.64,8.64 0 0 0 -13.619,-10.6357 8.64,8.64 0 0 0 13.619,10.6357 z"
       style="display:inline;fill:none;stroke:#00ff00;stroke-width:1.88976;stroke-linecap:round;stroke-dasharray:none"
       id="path36938"
       inkscape:transform-center-x="-34.943797"
       inkscape:transform-center-y="64.146178" /><path
       id="path36940"
       style="display:inline;fill:none;stroke:#ff00ff;stroke-width:1.88976;stroke-linecap:round;stroke-dasharray:none"
       d="m 25381.987,-3059.1871 c 15.352,-7.8263 21.453,-26.6153 13.621,-41.9718 l 6.451,-3.2362 -65.473,-128.3497 -6.375,3.2964 c -7.826,-15.3481 -26.614,-21.4485 -41.966,-13.6229 -15.352,7.8264 -21.453,26.6153 -13.641,41.9574 l -6.392,3.2819 65.394,128.2881 6.396,-3.2806 c 7.844,15.3627 26.633,21.4631 41.985,13.6374 z"
       sodipodi:nodetypes="sccccsccccs"
       inkscape:transform-center-x="-2.262795"
       inkscape:transform-center-y="0.00066777946" /><path
       style="display:inline;opacity:1;fill:none;stroke:#00ff00;stroke-width:1.88976;stroke-linecap:round;stroke-dasharray:none"
       d="m 25272.58,-2223.4755 c 0,-3.9765 -3.224,-7.2 -7.2,-7.2 -3.976,0 -7.2,3.2235 -7.2,7.2 0,3.9765 3.224,7.2 7.2,7.2 3.976,0 7.2,-3.2235 7.2,-7.2 z"
       id="path9851" /><path
       style="display:inline;opacity:1;fill:none;stroke:#00ff00;stroke-width:1.88976;stroke-linecap:round;stroke-dasharray:none"
       d="m 25450.115,-2294.4046 c 0,-3.9765 -3.224,-7.2 -7.2,-7.2 -3.976,0 -7.2,3.2235 -7.2,7.2 0,3.9765 3.224,7.2 7.2,7.2 3.976,0 7.2,-3.2235 7.2,-7.2 z"
       id="path9853" /><path
       style="display:inline;opacity:1;fill:none;stroke:#00ff00;stroke-width:1.88976;stroke-linecap:round;stroke-dasharray:none"
       d="m 25458.609,-2395.0644 c 0,-3.9765 -3.224,-7.2 -7.2,-7.2 -3.976,0 -7.2,3.2235 -7.2,7.2 0,3.9765 3.224,7.2 7.2,7.2 3.976,0 7.2,-3.2235 7.2,-7.2 z"
       id="path9855" /><path
       style="display:inline;opacity:1;fill:none;stroke:#00ff00;stroke-width:1.88976;stroke-linecap:round;stroke-dasharray:none"
       d="m 25310.366,-4209.72 c 0,-3.9765 -3.224,-7.2 -7.2,-7.2 -3.976,0 -7.2,3.2235 -7.2,7.2 0,3.9765 3.224,7.2 7.2,7.2 3.976,0 7.2,-3.2235 7.2,-7.2 z"
       id="path11489" /><path
       style="display:inline;opacity:1;fill:none;stroke:#00ff00;stroke-width:1.88976;stroke-linecap:round;stroke-dasharray:none"
       d="m 25353.55,-4070.2305 c 0,-3.9765 -3.224,-7.2 -7.2,-7.2 -3.976,0 -7.2,3.2235 -7.2,7.2 0,3.9765 3.224,7.2 7.2,7.2 3.976,0 7.2,-3.2235 7.2,-7.2 z"
       id="path11491" /><path
       style="display:inline;opacity:1;fill:none;stroke:#00ff00;stroke-width:1.88976;stroke-linecap:round;stroke-dasharray:none"
       d="m 25536.988,-4319.7829 c 0,-3.9765 -3.224,-7.2 -7.2,-7.2 -3.976,0 -7.2,3.2235 -7.2,7.2 0,3.9765 3.224,7.2 7.2,7.2 3.976,0 7.2,-3.2235 7.2,-7.2 z"
       id="path11540" /></g><g
     inkscape:groupmode="layer"
     inkscape:label="10_PLASTIC_EDGE_1"
     id="g16688"
     transform="translate(-25178.733,4418.0764)"
     style="display:inline"><path
       id="path36342"
       style="display:inline;fill:none;stroke:#0000ff;stroke-width:1.88976;stroke-linecap:round;stroke-dasharray:none"
       d="m 26195.563,-2500.2284 c 9.582,18.8743 2.067,41.9678 -16.809,51.591 -18.876,9.6232 -41.98,2.1392 -51.628,-16.7245 l -65.399,-128.2901 c -9.601,-18.8899 -2.086,-41.9834 16.79,-51.6066 18.876,-9.6232 41.979,-2.1392 51.608,16.7094 z"
       sodipodi:nodetypes="csccscc"
       inkscape:transform-center-x="-2.2461244"
       inkscape:transform-center-y="2.8172378e-05" /><path
       id="path11310"
       style="display:inline;opacity:1;fill:none;stroke:#0000ff;stroke-width:1.88976;stroke-linecap:round;stroke-dasharray:none"
       d="m 7214.6204,1389.9965 c 21.763,6.8743 44.782,-6.1118 50.166,-28.2808 l 31.51,-130.2402 c 4.517,-18.7034 -5.14,-37.9391 -22.868,-45.4816 l -214.624,-91.4693 -33.116,-14.1097 c -11.946,-5.0827 -17.68,-18.7224 -12.976,-30.8015 l 56.985,-146.00872 c 2.402,-6.1739 -0.65,-13.1318 -6.809,-15.5405 l -11.189,-4.3609 c -6.179,-2.4105 -9.231,-9.3684 -6.809,-15.5405 l 12.504,-32.0573 c 1.786,-4.6052 6.225,-7.6375 11.19,-7.639 h 127.52 v -47.99 h -536.3 v 48 9.5997 c 80.231,0 155.141,40.1434 199.577,106.946 44.435,66.80252 52.502,151.40642 21.492,225.40272 -7.747,16.7478 -5.207,36.4538 6.529,50.6923 l 64.109,77.74 c 5.006,6.773 12.019,11.7897 20.068,14.3276 z m -233.69,664.7125 c -15.777,-4.0092 -32.159,3.8681 -38.903,18.6955 l -4.713,10.43 c -3.273,7.2435 -11.806,10.4543 -19.03,7.1708 l -159.588,-72.3205 c -4.837,-2.1881 -6.978,-7.8771 -4.791,-12.7083 l 66.09,-145.8025 c 2.18,-4.83 7.869,-6.9706 12.704,-4.7806 l 138.917,62.9629 c 16.063,7.2765 35.008,0.9132 43.4,-14.574 l 71.507,-131.7863 c 7.85,-14.4318 4.103,-32.412 -8.844,-42.5142 -33.926,4.4609 -61.498,-26.984 -52.659,-60.0368 l 37.286,-139.0917 c 2.692,-10.0448 8.571,-18.9436 16.776,-25.3592 l 2.898,-10.8098 c 3.687,-13.8525 -1.802,-28.5335 -13.684,-36.5511 l -220.895,-148.9974 c -1.958,-1.3179 -3.56,-3.0976 -4.682,-5.1812 l -54.12,-101.9095 c -10.345,-19.4638 -32.612,-29.3852 -53.999,-24.0571 -21.386,5.328 -36.396,24.5362 -36.396,46.5766 0,54.3449 -44.055,98.4 -98.4,98.4 -54.345,0 -98.4,-44.0551 -98.4,-98.4 h -57.6 v 948.41 h 966 l 0.134,-57.7607 c -144.681,-4.2023 -288.594,-24.3248 -429.008,-60.0049 z m 267.869,-611.0569 225.605,-219.8875 h 73.4 v 732.71 l -48,-2e-4 c -5.302,-10e-5 -9.6,-4.2982 -9.6,-9.5999 v -95.0115 c -28.121,-134.3708 -108.632,-251.9927 -223.707,-326.8304 l -8.811,-5.7405 c -25.992,-16.8897 -30.248,-53.2084 -8.883,-75.64 z m 125.42,607.9059 c 33.963,6.8515 63.77,-23.409 56.397,-57.2515 l -14.828,-68.3112 c -4.351,-19.9299 -22.163,-34.0213 -42.556,-33.6532 -27.618,48.7551 -83.303,74.407 -138.308,63.713 -55.004,-10.694 -97.021,-55.3413 -104.36,-110.8928 -17.255,-6.5606 -36.748,-0.1662 -46.762,15.3363 l -37.399,57.8976 c -18.49,28.4184 -2.492,66.5268 30.721,73.2296 z m -186.415,-227.1899 c 20.685,0 39.044,-13.2518 45.575,-32.8851 l 46.125,-139.0903 c 4.57,-13.7489 2.678,-28.8225 -5.119,-41.0181 l -46.176,-72 c -18.879,-29.463 -61.931,-29.463 -80.81,0 l -46.175,72 c -7.798,12.1956 -9.69,27.2692 -5.128,41.0181 l 46.125,139.0903 c 6.539,19.6333 24.898,32.8851 45.583,32.8851 z M 6842.8904,419.50308 c -2.701,-10.0436 -2.06,-20.6895 1.816,-30.3379 l -37.3,-139.2087 c -15.779,-58.8925 19.172,-119.4288 78.08,-135.2116 l 67.399,-18.059701 c 25.593,-6.8588 40.789,-33.1791 33.924,-58.7882 l -8.2,-30.5911002 c -4.487,-16.7663 8.148,-33.2319998 25.501,-33.2313998 l 405.694,10e-5 v -57.6 h -966 V 787.96458 l 59.507,-3e-4 c 0,-73.1669 72.136,-124.5077 141.281,-100.5491 l 121.009,41.9405 c 7.871,2.7297 16.597,1.1787 23.05,-4.0956 42.242,-34.5387 101.523,-39.1183 148.564,-11.477 12.709,7.4683 29.086,1.8182 34.486,-11.8998 l 5.201,-13.1495 8.786,-22.3289 c 9.219,-23.4497 -1.256,-50.0478 -23.992,-60.9024 l -25.69,-12.2591 c -24.843,5.0001 -49.297,-10.1675 -55.881,-34.6486 z m -353.294,436.2236 c -8.596,-6.0925 -20.308,1.0543 -18.824,11.4846 3.202,22.4827 -7.192,44.7315 -26.487,56.6987 -7.742,4.8018 -7.517,16.1456 0.413,20.6376 l 273.795,155.09732 c 14.794,8.3807 32.924,8.3064 47.632,-0.1992 l 78.985,-45.5918 c 4.933,-2.8448 7.186,-8.7568 5.401,-14.1579 -1.785,-5.4011 -7.116,-8.8071 -12.79,-8.1574 l -67.822,7.8154 c -11.753,1.3501 -23.593,-1.6851 -33.274,-8.5266 z m 887.902,-120.2502 c -18.891,-29.4621 -61.944,-29.4621 -80.812,0 l -46.175,72 c -7.809,12.1978 -9.7,27.2714 -5.123,41.0191 l 46.125,139.0967 c 6.523,19.63072 24.882,32.88252 45.567,32.88252 20.685,0 39.044,-13.2518 45.541,-32.88252 l 46.175,-139.0967 c 4.554,-13.7478 2.662,-28.8215 -5.174,-41.0191 z m 92.506,75.3162 c 6.971,9.5581 10.166,21.3559 8.985,33.1295 l -30.591,301.27002 c -1.07,10.4782 10.921,17.1457 19.262,10.7115 17.981,-13.8691 42.462,-15.7918 62.388,-4.8999 7.997,4.3715 17.756,-1.4158 17.756,-10.5294 V 825.80588 c 0,-17.0068 -9.001,-32.7451 -23.68,-41.3705 l -78.6,-46.2413 c -11.204,-6.6042 -23.434,6.8905 -15.741,17.4116 z m -305.881,72.5529 c 15.709,-9.7254 36.063,-7.1597 48.849,6.1563 -17.148,53.346 1.712,111.68262 46.844,144.89342 45.132,33.2108 106.438,33.8654 152.269,1.6258 18.587,8.3974 28.652,28.7573 24.029,48.6241 l -15.808,68.0984 c -7.834,33.7325 -47.725,48.3204 -75.488,27.6003 l -242.819,-181.33992 c -27.169,-20.285 -25.314,-61.5737 3.582,-79.3402 z m 84.676,-722.9813 225.605,-219.889701 h 73.4 V 673.18458 h -48 c -5.302,0 -9.6,-4.2961 -9.6,-9.6 v -95.0105 c -28.117,-134.3677 -108.628,-251.9896 -223.707,-326.8304 l -8.815,-5.7414 c -25.992,-16.8875 -30.248,-53.2062 -8.883,-75.64 z m 100.312,270.8412 c -115.079,-74.8435 -195.59,-192.4654 -223.707,-326.8327 V 9.3645788 c 0,-5.3019 -4.298,-9.60000002 -9.6,-9.60000002 h -48 V 732.47458 h 73.4 l 225.605,-219.8877 c 21.365,-22.4317 17.109,-58.7504 -8.883,-75.6376 z"
       sodipodi:nodetypes="ccccccccccccccccccscccccccccccccccccccccccccscsccccccccccccccccccccscccccsccccccccscccccccccccccccccccccccccccccccccscccccccccscccccccccccccccccsccccccccccccccccccccccccccc"
       transform="translate(18758.929,-4310.551)" /><path
       id="path36942"
       style="display:inline;fill:none;stroke:#0000ff;stroke-width:1.88976;stroke-linecap:round;stroke-dasharray:none"
       d="m 25402.043,-3104.4102 c 9.582,18.8743 2.067,41.9678 -16.809,51.591 -18.876,9.6232 -41.98,2.1392 -51.628,-16.7245 l -65.399,-128.2901 c -9.601,-18.8899 -2.086,-41.9834 16.79,-51.6066 18.876,-9.6232 41.979,-2.1392 51.608,16.7094 z"
       sodipodi:nodetypes="csccscc"
       inkscape:transform-center-x="-2.2461244"
       inkscape:transform-center-y="2.8172378e-05" /></g><g
     inkscape:groupmode="layer"
     inkscape:label="12_PLASTICS_NESTED_1"
     id="g16700"
     transform="translate(-25178.733,4418.0764)"
     style="display:inline"><path
       id="path11322"
       style="display:inline;opacity:1;fill:none;stroke:#000000;stroke-width:1.88976;stroke-linecap:round;stroke-dasharray:none"
       d="M 6419.8044,-107.52542 V 2196.4746 h 1152 V -107.52542 Z"
       sodipodi:nodetypes="ccccc"
       transform="translate(18758.929,-4310.551)" /><path
       id="path36352"
       style="display:inline;fill:none;stroke:#000000;stroke-width:1.88976;stroke-linecap:round;stroke-dasharray:none"
       d="m 26105.194,-2592.9262 31.969,41.5996 14.875,50.3278 -31.969,-41.5996 z"
       sodipodi:nodetypes="ccccc"
       inkscape:transform-center-x="-2.223295"
       inkscape:transform-center-y="-0.014276139" /><path
       id="path36944"
       style="display:inline;fill:none;stroke:#000000;stroke-width:1.88976;stroke-linecap:round;stroke-dasharray:none"
       d="m 25311.674,-3197.108 31.969,41.5996 14.875,50.3278 -31.969,-41.5996 z"
       sodipodi:nodetypes="ccccc"
       inkscape:transform-center-x="-2.223295"
       inkscape:transform-center-y="-0.014276139" /></g></svg>
