  0
SECTION
  2
HEADER
  9
$ACADVER
  1
AC1014
  9
$HANDSEED
  5
FFFF
  9
$INSUNITS
 70
     1
  9
$MEASUREMENT
 70
     1
  0
ENDSEC
  0
SECTION
  2
TABLES
  0
TABLE
  2
VPORT
  5
8
330
0
100
AcDbSymbolTable
 70
     4
  0
VPORT
  5
2E
330
8
100
AcDbSymbolTableRecord
100
AcDbViewportTableRecord
  2
*ACTIVE
 70
     0
 10
0.0
 20
0.0
 11
1.0
 21
1.0
 12
210.0
 22
148.5
 13
0.0
 23
0.0
 14
10.0
 24
10.0
 15
10.0
 25
10.0
 16
0.0
 26
0.0
 36
1.0
 17
0.0
 27
0.0
 37
0.0
 40
341.0
 41
1.24
 42
50.0
 43
0.0
 44
0.0
 50
0.0
 51
0.0
 71
     0
 72
   100
 73
     1
 74
     3
 75
     0
 76
     0
 77
     0
 78
     0
  0
ENDTAB
  0
TABLE
  2
LTYPE
  5
5
330
0
100
AcDbSymbolTable
 70
     1
  0
LTYPE
  5
14
330
5
100
AcDbSymbolTableRecord
100
AcDbLinetypeTableRecord
  2
BYBLOCK
 70
     0
  3

 72
    65
 73
     0
 40
0.0
  0
LTYPE
  5
15
330
5
100
AcDbSymbolTableRecord
100
AcDbLinetypeTableRecord
  2
BYLAYER
 70
     0
  3

 72
    65
 73
     0
 40
0.0
  0
LTYPE
  5
16
330
5
100
AcDbSymbolTableRecord
100
AcDbLinetypeTableRecord
  2
CONTINUOUS
 70
     0
  3
Solid line
 72
    65
 73
     0
 40
0.0
  0
ENDTAB
  0
TABLE
  2
LAYER
  5
2
100
AcDbSymbolTable
 70
4
  0
LAYER
  5
50
100
AcDbSymbolTableRecord
100
AcDbLayerTableRecord
  2
0
 70
0
  6
CONTINUOUS
  0
LAYER
  5
51
100
AcDbSymbolTableRecord
100
AcDbLayerTableRecord
  2
9_PLASTICS_1
 70
0
  6
CONTINUOUS
  0
LAYER
  5
52
100
AcDbSymbolTableRecord
100
AcDbLayerTableRecord
  2
10_PLASTIC_EDGE_1
 70
0
  6
CONTINUOUS
  0
LAYER
  5
53
100
AcDbSymbolTableRecord
100
AcDbLayerTableRecord
  2
12_PLASTICS_NESTED_1
 70
0
  6
CONTINUOUS
  0
ENDTAB
  0
TABLE
  2
STYLE
  5
3
330
0
100
AcDbSymbolTable
 70
     1
  0
STYLE
  5
11
330
3
100
AcDbSymbolTableRecord
100
AcDbTextStyleTableRecord
  2
STANDARD
 70
     0
 40
0.0
 41
1.0
 50
0.0
 71
     0
 42
2.5
  3
txt
  4

  0
ENDTAB
  0
TABLE
  2
VIEW
  5
6
330
0
100
AcDbSymbolTable
 70
     0
  0
ENDTAB
  0
TABLE
  2
UCS
  5
7
330
0
100
AcDbSymbolTable
 70
     0
  0
ENDTAB
  0
TABLE
  2
APPID
  5
9
330
0
100
AcDbSymbolTable
 70
     2
  0
APPID
  5
12
330
9
100
AcDbSymbolTableRecord
100
AcDbRegAppTableRecord
  2
ACAD
 70
     0
  0
ENDTAB
  0
TABLE
  2
DIMSTYLE
  5
A
330
0
100
AcDbSymbolTable
 70
     1
  0
DIMSTYLE
105
27
330
A
100
AcDbSymbolTableRecord
100
AcDbDimStyleTableRecord
  2
ISO-25
 70
     0
  3

  4

  5

  6

  7

 40
1.0
 41
2.5
 42
0.625
 43
3.75
 44
1.25
 45
0.0
 46
0.0
 47
0.0
 48
0.0
140
2.5
141
2.5
142
0.0
143
0.03937007874016
144
1.0
145
0.0
146
1.0
147
0.625
 71
     0
 72
     0
 73
     0
 74
     0
 75
     0
 76
     0
 77
     1
 78
     8
170
     0
171
     3
172
     1
173
     0
174
     0
175
     0
176
     0
177
     0
178
     0
270
     2
271
     2
272
     2
273
     2
274
     3
340
11
275
     0
280
     0
281
     0
282
     0
283
     0
284
     8
285
     0
286
     0
287
     3
288
     0
  0
ENDTAB
  0
TABLE
  2
BLOCK_RECORD
  5
1
330
0
100
AcDbSymbolTable
 70
     1
  0
BLOCK_RECORD
  5
1F
330
1
100
AcDbSymbolTableRecord
100
AcDbBlockTableRecord
  2
*MODEL_SPACE
  0
BLOCK_RECORD
  5
1B
330
1
100
AcDbSymbolTableRecord
100
AcDbBlockTableRecord
  2
*PAPER_SPACE
  0
ENDTAB
  0
ENDSEC
  0
SECTION
  2
BLOCKS
  0
BLOCK
  5
20
330
1F
100
AcDbEntity
  8
0
100
AcDbBlockBegin
  2
*MODEL_SPACE
 70
     0
 10
0.0
 20
0.0
 30
0.0
  3
*MODEL_SPACE
  1

  0
ENDBLK
  5
21
330
1F
100
AcDbEntity
  8
0
100
AcDbBlockEnd
  0
BLOCK
  5
1C
330
1B
100
AcDbEntity
 67
     1
  8
0
100
AcDbBlockBegin
  2
*PAPER_SPACE
  1

  0
ENDBLK
  5
1D
330
1B
100
AcDbEntity
 67
     1
  8
0
100
AcDbBlockEnd
  0
ENDSEC
  0
SECTION
  2
ENTITIES
  0
SPLINE
  5
100
100
AcDbEntity
  8
9_PLASTICS_1
 62
3
100
AcDbSpline
 70
8
 71
3
 72
8
 73
4
 74
0
 40
0
 40
0
 40
0
 40
0
 40
1
 40
1
 40
1
 40
1
 10
9.625459
 20
5.121823
 30
0.0
 10
9.655856
 20
5.161007
 30
0.0
 10
9.648828
 20
5.217397
 30
0.0
 10
9.609742
 20
5.247921
 30
0.0
  0
SPLINE
  5
101
100
AcDbEntity
  8
9_PLASTICS_1
 62
3
100
AcDbSpline
 70
8
 71
3
 72
8
 73
4
 74
0
 40
0
 40
0
 40
0
 40
0
 40
1
 40
1
 40
1
 40
1
 10
9.609742
 20
5.247921
 30
0.0
 10
9.570657
 20
5.278444
 30
0.0
 10
9.514244
 20
5.271598
 30
0.0
 10
9.483595
 20
5.232612
 30
0.0
  0
SPLINE
  5
102
100
AcDbEntity
  8
9_PLASTICS_1
 62
3
100
AcDbSpline
 70
8
 71
3
 72
8
 73
4
 74
0
 40
0
 40
0
 40
0
 40
0
 40
1
 40
1
 40
1
 40
1
 10
9.483595
 20
5.232612
 30
0.0
 10
9.453198
 20
5.193428
 30
0.0
 10
9.460226
 20
5.137038
 30
0.0
 10
9.499311
 20
5.106514
 30
0.0
  0
SPLINE
  5
103
100
AcDbEntity
  8
9_PLASTICS_1
 62
3
100
AcDbSpline
 70
8
 71
3
 72
8
 73
4
 74
0
 40
0
 40
0
 40
0
 40
0
 40
1
 40
1
 40
1
 40
1
 10
9.499311
 20
5.106514
 30
0.0
 10
9.538397
 20
5.075991
 30
0.0
 10
9.594809
 20
5.082837
 30
0.0
 10
9.625459
 20
5.121823
 30
0.0
  0
LINE
  5
104
100
AcDbEntity
  8
9_PLASTICS_1
 62
3
100
AcDbLine
 10
9.625459
 20
5.121823
 30
0.0
 11
9.625459
 21
5.121823
 31
0.0
  0
SPLINE
  5
105
100
AcDbEntity
  8
9_PLASTICS_1
 62
3
100
AcDbSpline
 70
8
 71
3
 72
8
 73
4
 74
0
 40
0
 40
0
 40
0
 40
0
 40
1
 40
1
 40
1
 40
1
 10
10.306730
 20
3.785462
 30
0.0
 10
10.337127
 20
3.824646
 30
0.0
 10
10.330099
 20
3.881036
 30
0.0
 10
10.291013
 20
3.911559
 30
0.0
  0
SPLINE
  5
106
100
AcDbEntity
  8
9_PLASTICS_1
 62
3
100
AcDbSpline
 70
8
 71
3
 72
8
 73
4
 74
0
 40
0
 40
0
 40
0
 40
0
 40
1
 40
1
 40
1
 40
1
 10
10.291013
 20
3.911559
 30
0.0
 10
10.251928
 20
3.942083
 30
0.0
 10
10.195515
 20
3.935237
 30
0.0
 10
10.164865
 20
3.896250
 30
0.0
  0
SPLINE
  5
107
100
AcDbEntity
  8
9_PLASTICS_1
 62
3
100
AcDbSpline
 70
8
 71
3
 72
8
 73
4
 74
0
 40
0
 40
0
 40
0
 40
0
 40
1
 40
1
 40
1
 40
1
 10
10.164865
 20
3.896250
 30
0.0
 10
10.134468
 20
3.857066
 30
0.0
 10
10.141497
 20
3.800676
 30
0.0
 10
10.180582
 20
3.770153
 30
0.0
  0
SPLINE
  5
108
100
AcDbEntity
  8
9_PLASTICS_1
 62
3
100
AcDbSpline
 70
8
 71
3
 72
8
 73
4
 74
0
 40
0
 40
0
 40
0
 40
0
 40
1
 40
1
 40
1
 40
1
 10
10.180582
 20
3.770153
 30
0.0
 10
10.219668
 20
3.739629
 30
0.0
 10
10.276080
 20
3.746475
 30
0.0
 10
10.306730
 20
3.785462
 30
0.0
  0
LINE
  5
109
100
AcDbEntity
  8
9_PLASTICS_1
 62
3
100
AcDbLine
 10
10.306730
 20
3.785462
 30
0.0
 11
10.306730
 21
3.785462
 31
0.0
  0
SPLINE
  5
10a
100
AcDbEntity
  8
9_PLASTICS_1
 62
6
100
AcDbSpline
 70
8
 71
3
 72
8
 73
4
 74
0
 40
0
 40
0
 40
0
 40
0
 40
1
 40
1
 40
1
 40
1
 10
10.383407
 20
3.551307
 30
0.0
 10
10.543324
 20
3.632831
 30
0.0
 10
10.606876
 20
3.828549
 30
0.0
 10
10.525293
 20
3.988513
 30
0.0
  0
LINE
  5
10b
100
AcDbEntity
  8
9_PLASTICS_1
 62
6
100
AcDbLine
 10
10.525293
 20
3.988513
 30
0.0
 11
10.592491
 21
4.022223
 31
0.0
  0
LINE
  5
10c
100
AcDbEntity
  8
9_PLASTICS_1
 62
6
100
AcDbLine
 10
10.592491
 20
4.022223
 30
0.0
 11
9.910480
 21
5.359199
 31
0.0
  0
LINE
  5
10d
100
AcDbEntity
  8
9_PLASTICS_1
 62
6
100
AcDbLine
 10
9.910480
 20
5.359199
 30
0.0
 11
9.844074
 21
5.324862
 31
0.0
  0
SPLINE
  5
10e
100
AcDbEntity
  8
9_PLASTICS_1
 62
6
100
AcDbSpline
 70
8
 71
3
 72
8
 73
4
 74
0
 40
0
 40
0
 40
0
 40
0
 40
1
 40
1
 40
1
 40
1
 10
9.844074
 20
5.324862
 30
0.0
 10
9.762553
 20
5.484738
 30
0.0
 10
9.566845
 20
5.548284
 30
0.0
 10
9.406928
 20
5.466767
 30
0.0
  0
SPLINE
  5
10f
100
AcDbEntity
  8
9_PLASTICS_1
 62
6
100
AcDbSpline
 70
8
 71
3
 72
8
 73
4
 74
0
 40
0
 40
0
 40
0
 40
0
 40
1
 40
1
 40
1
 40
1
 10
9.406928
 20
5.466767
 30
0.0
 10
9.247011
 20
5.385242
 30
0.0
 10
9.183459
 20
5.189524
 30
0.0
 10
9.264834
 20
5.029711
 30
0.0
  0
LINE
  5
110
100
AcDbEntity
  8
9_PLASTICS_1
 62
6
100
AcDbLine
 10
9.264834
 20
5.029711
 30
0.0
 11
9.198251
 21
4.995524
 31
0.0
  0
LINE
  5
111
100
AcDbEntity
  8
9_PLASTICS_1
 62
6
100
AcDbLine
 10
9.198251
 20
4.995524
 30
0.0
 11
9.879438
 21
3.659190
 31
0.0
  0
LINE
  5
112
100
AcDbEntity
  8
9_PLASTICS_1
 62
6
100
AcDbLine
 10
9.879438
 20
3.659190
 30
0.0
 11
9.946063
 21
3.693363
 31
0.0
  0
SPLINE
  5
113
100
AcDbEntity
  8
9_PLASTICS_1
 62
6
100
AcDbSpline
 70
8
 71
3
 72
8
 73
4
 74
0
 40
0
 40
0
 40
0
 40
0
 40
1
 40
1
 40
1
 40
1
 10
9.946063
 20
3.693363
 30
0.0
 10
10.027772
 20
3.533335
 30
0.0
 10
10.223490
 20
3.469789
 30
0.0
 10
10.383407
 20
3.551307
 30
0.0
  0
LINE
  5
114
100
AcDbEntity
  8
9_PLASTICS_1
 62
6
100
AcDbLine
 10
10.383407
 20
3.551307
 30
0.0
 11
10.383407
 21
3.551307
 31
0.0
  0
SPLINE
  5
115
100
AcDbEntity
  8
9_PLASTICS_1
 62
3
100
AcDbSpline
 70
8
 71
3
 72
8
 73
4
 74
0
 40
0
 40
0
 40
0
 40
0
 40
1
 40
1
 40
1
 40
1
 10
8.478369
 20
8.791812
 30
0.0
 10
8.478369
 20
8.833234
 30
0.0
 10
8.444786
 20
8.866812
 30
0.0
 10
8.403369
 20
8.866812
 30
0.0
  0
SPLINE
  5
116
100
AcDbEntity
  8
9_PLASTICS_1
 62
3
100
AcDbSpline
 70
8
 71
3
 72
8
 73
4
 74
0
 40
0
 40
0
 40
0
 40
0
 40
1
 40
1
 40
1
 40
1
 10
8.403369
 20
8.866812
 30
0.0
 10
8.361953
 20
8.866812
 30
0.0
 10
8.328369
 20
8.833234
 30
0.0
 10
8.328369
 20
8.791812
 30
0.0
  0
SPLINE
  5
117
100
AcDbEntity
  8
9_PLASTICS_1
 62
3
100
AcDbSpline
 70
8
 71
3
 72
8
 73
4
 74
0
 40
0
 40
0
 40
0
 40
0
 40
1
 40
1
 40
1
 40
1
 10
8.328369
 20
8.791812
 30
0.0
 10
8.328369
 20
8.750390
 30
0.0
 10
8.361953
 20
8.716812
 30
0.0
 10
8.403369
 20
8.716812
 30
0.0
  0
SPLINE
  5
118
100
AcDbEntity
  8
9_PLASTICS_1
 62
3
100
AcDbSpline
 70
8
 71
3
 72
8
 73
4
 74
0
 40
0
 40
0
 40
0
 40
0
 40
1
 40
1
 40
1
 40
1
 10
8.403369
 20
8.716812
 30
0.0
 10
8.444786
 20
8.716812
 30
0.0
 10
8.478369
 20
8.750390
 30
0.0
 10
8.478369
 20
8.791812
 30
0.0
  0
LINE
  5
119
100
AcDbEntity
  8
9_PLASTICS_1
 62
3
100
AcDbLine
 10
8.478369
 20
8.791812
 30
0.0
 11
8.478369
 21
8.791812
 31
0.0
  0
SPLINE
  5
11a
100
AcDbEntity
  8
9_PLASTICS_1
 62
6
100
AcDbSpline
 70
8
 71
3
 72
8
 73
4
 74
0
 40
0
 40
0
 40
0
 40
0
 40
1
 40
1
 40
1
 40
1
 10
8.309817
 20
8.496101
 30
0.0
 10
8.481224
 20
8.441957
 30
0.0
 10
8.662547
 20
8.544247
 30
0.0
 10
8.704630
 20
8.718883
 30
0.0
  0
LINE
  5
11b
100
AcDbEntity
  8
9_PLASTICS_1
 62
6
100
AcDbLine
 10
8.704630
 20
8.718883
 30
0.0
 11
9.033401
 21
10.075561
 31
0.0
  0
SPLINE
  5
11c
100
AcDbEntity
  8
9_PLASTICS_1
 62
6
100
AcDbSpline
 70
8
 71
3
 72
8
 73
4
 74
0
 40
0
 40
0
 40
0
 40
0
 40
1
 40
1
 40
1
 40
1
 10
9.033401
 20
10.075561
 30
0.0
 10
9.068838
 20
10.222881
 30
0.0
 10
8.992765
 20
10.374398
 30
0.0
 10
8.853401
 20
10.433818
 30
0.0
  0
LINE
  5
11d
100
AcDbEntity
  8
9_PLASTICS_1
 62
6
100
AcDbLine
 10
8.853401
 20
10.433818
 30
0.0
 11
6.616994
 21
11.386677
 31
0.0
  0
LINE
  5
11e
100
AcDbEntity
  8
9_PLASTICS_1
 62
6
100
AcDbLine
 10
6.616994
 20
11.386677
 30
0.0
 11
5.686838
 21
11.783040
 31
0.0
  0
SPLINE
  5
11f
100
AcDbEntity
  8
9_PLASTICS_1
 62
6
100
AcDbSpline
 70
8
 71
3
 72
8
 73
4
 74
0
 40
0
 40
0
 40
0
 40
0
 40
1
 40
1
 40
1
 40
1
 10
5.686838
 20
11.783040
 30
0.0
 10
5.562630
 20
11.835966
 30
0.0
 10
5.418744
 20
11.780591
 30
0.0
 10
5.361921
 20
11.657973
 30
0.0
  0
LINE
  5
120
100
AcDbEntity
  8
9_PLASTICS_1
 62
6
100
AcDbLine
 10
5.361921
 20
11.657973
 30
0.0
 11
4.894036
 21
10.646029
 31
0.0
  0
SPLINE
  5
121
100
AcDbEntity
  8
9_PLASTICS_1
 62
6
100
AcDbSpline
 70
8
 71
3
 72
8
 73
4
 74
0
 40
0
 40
0
 40
0
 40
0
 40
1
 40
1
 40
1
 40
1
 10
4.894036
 20
10.646029
 30
0.0
 10
4.829421
 20
10.506485
 30
0.0
 10
4.850588
 20
10.342269
 30
0.0
 10
4.948348
 20
10.223622
 30
0.0
  0
LINE
  5
122
100
AcDbEntity
  8
9_PLASTICS_1
 62
6
100
AcDbLine
 10
4.948348
 20
10.223622
 30
0.0
 11
5.616109
 21
9.413815
 31
0.0
  0
SPLINE
  5
123
100
AcDbEntity
  8
9_PLASTICS_1
 62
6
100
AcDbSpline
 70
8
 71
3
 72
8
 73
4
 74
0
 40
0
 40
0
 40
0
 40
0
 40
1
 40
1
 40
1
 40
1
 10
5.616109
 20
9.413815
 30
0.0
 10
5.617411
 20
9.412409
 30
0.0
 10
5.618525
 20
9.410974
 30
0.0
 10
5.619609
 20
9.409509
 30
0.0
  0
SPLINE
  5
124
100
AcDbEntity
  8
9_PLASTICS_1
 62
6
100
AcDbSpline
 70
8
 71
3
 72
8
 73
4
 74
0
 40
0
 40
0
 40
0
 40
0
 40
1
 40
1
 40
1
 40
1
 10
5.619609
 20
9.409509
 30
0.0
 10
5.659057
 20
9.355970
 30
0.0
 10
5.714473
 20
9.316328
 30
0.0
 10
5.777661
 20
9.296304
 30
0.0
  0
LINE
  5
125
100
AcDbEntity
  8
9_PLASTICS_1
 62
6
100
AcDbLine
 10
5.777661
 20
9.296304
 30
0.0
 11
8.309817
 21
8.496101
 31
0.0
  0
LINE
  5
126
100
AcDbEntity
  8
9_PLASTICS_1
 62
6
100
AcDbLine
 10
6.534567
 20
14.170467
 30
0.0
 11
6.374026
 21
13.758716
 31
0.0
  0
SPLINE
  5
127
100
AcDbEntity
  8
9_PLASTICS_1
 62
6
100
AcDbSpline
 70
8
 71
3
 72
8
 73
4
 74
0
 40
0
 40
0
 40
0
 40
0
 40
1
 40
1
 40
1
 40
1
 10
6.374026
 20
13.758716
 30
0.0
 10
5.139942
 20
14.071592
 30
0.0
 10
3.873192
 20
14.236223
 30
0.0
 10
2.600348
 20
14.249139
 30
0.0
  0
LINE
  5
128
100
AcDbEntity
  8
9_PLASTICS_1
 62
6
100
AcDbLine
 10
2.600348
 20
14.249139
 30
0.0
 11
2.600348
 21
14.750012
 31
0.0
  0
LINE
  5
129
100
AcDbEntity
  8
9_PLASTICS_1
 62
6
100
AcDbLine
 10
2.600348
 20
14.750012
 30
0.0
 11
7.986817
 21
14.747408
 31
0.0
  0
LINE
  5
12a
100
AcDbEntity
  8
9_PLASTICS_1
 62
6
100
AcDbLine
 10
7.986817
 20
14.747408
 30
0.0
 11
7.986817
 21
14.250069
 31
0.0
  0
LINE
  5
12b
100
AcDbEntity
  8
9_PLASTICS_1
 62
6
100
AcDbLine
 10
7.986817
 20
14.250069
 30
0.0
 11
6.651161
 21
14.250069
 31
0.0
  0
SPLINE
  5
12c
100
AcDbEntity
  8
9_PLASTICS_1
 62
6
100
AcDbSpline
 70
8
 71
3
 72
8
 73
4
 74
0
 40
0
 40
0
 40
0
 40
0
 40
1
 40
1
 40
1
 40
1
 10
6.651161
 20
14.250069
 30
0.0
 10
6.599421
 20
14.250069
 30
0.0
 10
6.553192
 20
14.218463
 30
0.0
 10
6.534578
 20
14.170486
 30
0.0
  0
LINE
  5
12d
100
AcDbEntity
  8
9_PLASTICS_1
 62
6
100
AcDbLine
 10
6.534578
 20
14.170486
 30
0.0
 11
6.534567
 21
14.170467
 31
0.0
  0
SPLINE
  5
12e
100
AcDbEntity
  8
9_PLASTICS_1
 62
3
100
AcDbSpline
 70
8
 71
3
 72
8
 73
4
 74
0
 40
0
 40
0
 40
0
 40
0
 40
1
 40
1
 40
1
 40
1
 10
7.536380
 20
14.500058
 30
0.0
 10
7.536380
 20
14.541480
 30
0.0
 10
7.502796
 20
14.575058
 30
0.0
 10
7.461380
 20
14.575058
 30
0.0
  0
SPLINE
  5
12f
100
AcDbEntity
  8
9_PLASTICS_1
 62
3
100
AcDbSpline
 70
8
 71
3
 72
8
 73
4
 74
0
 40
0
 40
0
 40
0
 40
0
 40
1
 40
1
 40
1
 40
1
 10
7.461380
 20
14.575058
 30
0.0
 10
7.419963
 20
14.575058
 30
0.0
 10
7.386380
 20
14.541480
 30
0.0
 10
7.386380
 20
14.500058
 30
0.0
  0
SPLINE
  5
130
100
AcDbEntity
  8
9_PLASTICS_1
 62
3
100
AcDbSpline
 70
8
 71
3
 72
8
 73
4
 74
0
 40
0
 40
0
 40
0
 40
0
 40
1
 40
1
 40
1
 40
1
 10
7.386380
 20
14.500058
 30
0.0
 10
7.386380
 20
14.458636
 30
0.0
 10
7.419963
 20
14.425058
 30
0.0
 10
7.461380
 20
14.425058
 30
0.0
  0
SPLINE
  5
131
100
AcDbEntity
  8
9_PLASTICS_1
 62
3
100
AcDbSpline
 70
8
 71
3
 72
8
 73
4
 74
0
 40
0
 40
0
 40
0
 40
0
 40
1
 40
1
 40
1
 40
1
 10
7.461380
 20
14.425058
 30
0.0
 10
7.502796
 20
14.425058
 30
0.0
 10
7.536380
 20
14.458636
 30
0.0
 10
7.536380
 20
14.500058
 30
0.0
  0
LINE
  5
132
100
AcDbEntity
  8
9_PLASTICS_1
 62
3
100
AcDbLine
 10
7.536380
 20
14.500058
 30
0.0
 11
7.536380
 21
14.500058
 31
0.0
  0
LINE
  5
133
100
AcDbEntity
  8
9_PLASTICS_1
 62
6
100
AcDbLine
 10
8.782588
 20
20.505375
 30
0.0
 11
8.874411
 21
20.445568
 31
0.0
  0
SPLINE
  5
134
100
AcDbEntity
  8
9_PLASTICS_1
 62
6
100
AcDbSpline
 70
8
 71
3
 72
8
 73
4
 74
0
 40
0
 40
0
 40
0
 40
0
 40
1
 40
1
 40
1
 40
1
 10
8.874411
 20
20.445568
 30
0.0
 10
10.098651
 20
19.649494
 30
0.0
 10
10.953995
 20
18.397346
 30
0.0
 10
11.250349
 20
16.967549
 30
0.0
  0
LINE
  5
135
100
AcDbEntity
  8
9_PLASTICS_1
 62
6
100
AcDbLine
 10
11.250349
 20
16.967549
 30
0.0
 11
11.250349
 21
15.967569
 31
0.0
  0
LINE
  5
136
100
AcDbEntity
  8
9_PLASTICS_1
 62
6
100
AcDbLine
 10
11.250349
 20
15.967569
 30
0.0
 11
11.750349
 21
15.967569
 31
0.0
  0
LINE
  5
137
100
AcDbEntity
  8
9_PLASTICS_1
 62
6
100
AcDbLine
 10
11.750349
 20
15.967569
 30
0.0
 11
11.750349
 21
23.499966
 31
0.0
  0
LINE
  5
138
100
AcDbEntity
  8
9_PLASTICS_1
 62
6
100
AcDbLine
 10
11.750349
 20
23.499966
 30
0.0
 11
11.124307
 21
23.499966
 31
0.0
  0
LINE
  5
139
100
AcDbEntity
  8
9_PLASTICS_1
 62
6
100
AcDbLine
 10
11.124307
 20
23.499966
 30
0.0
 11
8.707870
 21
21.140491
 31
0.0
  0
SPLINE
  5
13a
100
AcDbEntity
  8
9_PLASTICS_1
 62
6
100
AcDbSpline
 70
8
 71
3
 72
8
 73
4
 74
0
 40
0
 40
0
 40
0
 40
0
 40
1
 40
1
 40
1
 40
1
 10
8.707870
 20
21.140491
 30
0.0
 10
8.528734
 20
20.952122
 30
0.0
 10
8.564474
 20
20.647165
 30
0.0
 10
8.782588
 20
20.505375
 30
0.0
  0
LINE
  5
13b
100
AcDbEntity
  8
9_PLASTICS_1
 62
6
100
AcDbLine
 10
8.782588
 20
20.505375
 30
0.0
 11
8.782588
 21
20.505375
 31
0.0
  0
SPLINE
  5
13c
100
AcDbEntity
  8
9_PLASTICS_1
 62
3
100
AcDbSpline
 70
8
 71
3
 72
8
 73
4
 74
0
 40
0
 40
0
 40
0
 40
0
 40
1
 40
1
 40
1
 40
1
 10
9.084140
 20
20.853852
 30
0.0
 10
9.084140
 20
20.895274
 30
0.0
 10
9.050557
 20
20.928852
 30
0.0
 10
9.009140
 20
20.928852
 30
0.0
  0
SPLINE
  5
13d
100
AcDbEntity
  8
9_PLASTICS_1
 62
3
100
AcDbSpline
 70
8
 71
3
 72
8
 73
4
 74
0
 40
0
 40
0
 40
0
 40
0
 40
1
 40
1
 40
1
 40
1
 10
9.009140
 20
20.928852
 30
0.0
 10
8.967724
 20
20.928852
 30
0.0
 10
8.934140
 20
20.895274
 30
0.0
 10
8.934140
 20
20.853852
 30
0.0
  0
SPLINE
  5
13e
100
AcDbEntity
  8
9_PLASTICS_1
 62
3
100
AcDbSpline
 70
8
 71
3
 72
8
 73
4
 74
0
 40
0
 40
0
 40
0
 40
0
 40
1
 40
1
 40
1
 40
1
 10
8.934140
 20
20.853852
 30
0.0
 10
8.934140
 20
20.812430
 30
0.0
 10
8.967724
 20
20.778852
 30
0.0
 10
9.009140
 20
20.778852
 30
0.0
  0
SPLINE
  5
13f
100
AcDbEntity
  8
9_PLASTICS_1
 62
3
100
AcDbSpline
 70
8
 71
3
 72
8
 73
4
 74
0
 40
0
 40
0
 40
0
 40
0
 40
1
 40
1
 40
1
 40
1
 10
9.009140
 20
20.778852
 30
0.0
 10
9.050557
 20
20.778852
 30
0.0
 10
9.084140
 20
20.812430
 30
0.0
 10
9.084140
 20
20.853852
 30
0.0
  0
LINE
  5
140
100
AcDbEntity
  8
9_PLASTICS_1
 62
3
100
AcDbLine
 10
9.084140
 20
20.853852
 30
0.0
 11
9.084140
 21
20.853852
 31
0.0
  0
SPLINE
  5
141
100
AcDbEntity
  8
9_PLASTICS_1
 62
3
100
AcDbSpline
 70
8
 71
3
 72
8
 73
4
 74
0
 40
0
 40
0
 40
0
 40
0
 40
1
 40
1
 40
1
 40
1
 10
11.575349
 20
16.967528
 30
0.0
 10
11.575349
 20
17.008950
 30
0.0
 10
11.541766
 20
17.042528
 30
0.0
 10
11.500349
 20
17.042528
 30
0.0
  0
SPLINE
  5
142
100
AcDbEntity
  8
9_PLASTICS_1
 62
3
100
AcDbSpline
 70
8
 71
3
 72
8
 73
4
 74
0
 40
0
 40
0
 40
0
 40
0
 40
1
 40
1
 40
1
 40
1
 10
11.500349
 20
17.042528
 30
0.0
 10
11.458932
 20
17.042528
 30
0.0
 10
11.425349
 20
17.008950
 30
0.0
 10
11.425349
 20
16.967528
 30
0.0
  0
SPLINE
  5
143
100
AcDbEntity
  8
9_PLASTICS_1
 62
3
100
AcDbSpline
 70
8
 71
3
 72
8
 73
4
 74
0
 40
0
 40
0
 40
0
 40
0
 40
1
 40
1
 40
1
 40
1
 10
11.425349
 20
16.967528
 30
0.0
 10
11.425349
 20
16.926106
 30
0.0
 10
11.458932
 20
16.892528
 30
0.0
 10
11.500349
 20
16.892528
 30
0.0
  0
SPLINE
  5
144
100
AcDbEntity
  8
9_PLASTICS_1
 62
3
100
AcDbSpline
 70
8
 71
3
 72
8
 73
4
 74
0
 40
0
 40
0
 40
0
 40
0
 40
1
 40
1
 40
1
 40
1
 10
11.500349
 20
16.892528
 30
0.0
 10
11.541766
 20
16.892528
 30
0.0
 10
11.575349
 20
16.926106
 30
0.0
 10
11.575349
 20
16.967528
 30
0.0
  0
LINE
  5
145
100
AcDbEntity
  8
9_PLASTICS_1
 62
3
100
AcDbLine
 10
11.575349
 20
16.967528
 30
0.0
 11
11.575349
 21
16.967528
 31
0.0
  0
SPLINE
  5
146
100
AcDbEntity
  8
9_PLASTICS_1
 62
3
100
AcDbSpline
 70
8
 71
3
 72
8
 73
4
 74
0
 40
0
 40
0
 40
0
 40
0
 40
1
 40
1
 40
1
 40
1
 10
11.575349
 20
22.810568
 30
0.0
 10
11.575349
 20
22.851990
 30
0.0
 10
11.541766
 20
22.885568
 30
0.0
 10
11.500349
 20
22.885568
 30
0.0
  0
SPLINE
  5
147
100
AcDbEntity
  8
9_PLASTICS_1
 62
3
100
AcDbSpline
 70
8
 71
3
 72
8
 73
4
 74
0
 40
0
 40
0
 40
0
 40
0
 40
1
 40
1
 40
1
 40
1
 10
11.500349
 20
22.885568
 30
0.0
 10
11.458932
 20
22.885568
 30
0.0
 10
11.425349
 20
22.851990
 30
0.0
 10
11.425349
 20
22.810568
 30
0.0
  0
SPLINE
  5
148
100
AcDbEntity
  8
9_PLASTICS_1
 62
3
100
AcDbSpline
 70
8
 71
3
 72
8
 73
4
 74
0
 40
0
 40
0
 40
0
 40
0
 40
1
 40
1
 40
1
 40
1
 10
11.425349
 20
22.810568
 30
0.0
 10
11.425349
 20
22.769146
 30
0.0
 10
11.458932
 20
22.735568
 30
0.0
 10
11.500349
 20
22.735568
 30
0.0
  0
SPLINE
  5
149
100
AcDbEntity
  8
9_PLASTICS_1
 62
3
100
AcDbSpline
 70
8
 71
3
 72
8
 73
4
 74
0
 40
0
 40
0
 40
0
 40
0
 40
1
 40
1
 40
1
 40
1
 10
11.500349
 20
22.735568
 30
0.0
 10
11.541766
 20
22.735568
 30
0.0
 10
11.575349
 20
22.769146
 30
0.0
 10
11.575349
 20
22.810568
 30
0.0
  0
LINE
  5
14a
100
AcDbEntity
  8
9_PLASTICS_1
 62
3
100
AcDbLine
 10
11.575349
 20
22.810568
 30
0.0
 11
11.575349
 21
22.810568
 31
0.0
  0
SPLINE
  5
14b
100
AcDbEntity
  8
9_PLASTICS_1
 62
3
100
AcDbSpline
 70
8
 71
3
 72
8
 73
4
 74
0
 40
0
 40
0
 40
0
 40
0
 40
1
 40
1
 40
1
 40
1
 10
8.887797
 20
23.499966
 30
0.0
 10
8.887797
 20
23.541388
 30
0.0
 10
8.854213
 20
23.574966
 30
0.0
 10
8.812797
 20
23.574966
 30
0.0
  0
SPLINE
  5
14c
100
AcDbEntity
  8
9_PLASTICS_1
 62
3
100
AcDbSpline
 70
8
 71
3
 72
8
 73
4
 74
0
 40
0
 40
0
 40
0
 40
0
 40
1
 40
1
 40
1
 40
1
 10
8.812797
 20
23.574966
 30
0.0
 10
8.771380
 20
23.574966
 30
0.0
 10
8.737797
 20
23.541388
 30
0.0
 10
8.737797
 20
23.499966
 30
0.0
  0
SPLINE
  5
14d
100
AcDbEntity
  8
9_PLASTICS_1
 62
3
100
AcDbSpline
 70
8
 71
3
 72
8
 73
4
 74
0
 40
0
 40
0
 40
0
 40
0
 40
1
 40
1
 40
1
 40
1
 10
8.737797
 20
23.499966
 30
0.0
 10
8.737797
 20
23.458544
 30
0.0
 10
8.771380
 20
23.424966
 30
0.0
 10
8.812797
 20
23.424966
 30
0.0
  0
SPLINE
  5
14e
100
AcDbEntity
  8
9_PLASTICS_1
 62
3
100
AcDbSpline
 70
8
 71
3
 72
8
 73
4
 74
0
 40
0
 40
0
 40
0
 40
0
 40
1
 40
1
 40
1
 40
1
 10
8.812797
 20
23.424966
 30
0.0
 10
8.854213
 20
23.424966
 30
0.0
 10
8.887797
 20
23.458544
 30
0.0
 10
8.887797
 20
23.499966
 30
0.0
  0
LINE
  5
14f
100
AcDbEntity
  8
9_PLASTICS_1
 62
3
100
AcDbLine
 10
8.887797
 20
23.499966
 30
0.0
 11
8.887797
 21
23.499966
 31
0.0
  0
LINE
  5
150
100
AcDbEntity
  8
9_PLASTICS_1
 62
6
100
AcDbLine
 10
7.376390
 20
15.249977
 30
0.0
 11
6.750349
 21
15.249977
 31
0.0
  0
LINE
  5
151
100
AcDbEntity
  8
9_PLASTICS_1
 62
6
100
AcDbLine
 10
6.750349
 20
15.249977
 30
0.0
 11
6.750349
 21
22.782373
 31
0.0
  0
LINE
  5
152
100
AcDbEntity
  8
9_PLASTICS_1
 62
6
100
AcDbLine
 10
6.750349
 20
22.782373
 30
0.0
 11
7.250349
 21
22.782373
 31
0.0
  0
LINE
  5
153
100
AcDbEntity
  8
9_PLASTICS_1
 62
6
100
AcDbLine
 10
7.250349
 20
22.782373
 30
0.0
 11
7.250349
 21
21.782397
 31
0.0
  0
SPLINE
  5
154
100
AcDbEntity
  8
9_PLASTICS_1
 62
6
100
AcDbSpline
 70
8
 71
3
 72
8
 73
4
 74
0
 40
0
 40
0
 40
0
 40
0
 40
1
 40
1
 40
1
 40
1
 10
7.250349
 20
21.782397
 30
0.0
 10
7.546703
 20
20.352604
 30
0.0
 10
8.402047
 20
19.100455
 30
0.0
 10
9.626286
 20
18.304377
 30
0.0
  0
LINE
  5
155
100
AcDbEntity
  8
9_PLASTICS_1
 62
6
100
AcDbLine
 10
9.626286
 20
18.304377
 30
0.0
 11
9.718109
 21
18.244583
 31
0.0
  0
SPLINE
  5
156
100
AcDbEntity
  8
9_PLASTICS_1
 62
6
100
AcDbSpline
 70
8
 71
3
 72
8
 73
4
 74
0
 40
0
 40
0
 40
0
 40
0
 40
1
 40
1
 40
1
 40
1
 10
9.718109
 20
18.244583
 30
0.0
 10
9.936224
 20
18.102808
 30
0.0
 10
9.971963
 20
17.797850
 30
0.0
 10
9.792838
 20
17.609478
 30
0.0
  0
LINE
  5
157
100
AcDbEntity
  8
9_PLASTICS_1
 62
6
100
AcDbLine
 10
9.792838
 20
17.609478
 30
0.0
 11
7.376390
 21
15.249977
 31
0.0
  0
SPLINE
  5
158
100
AcDbEntity
  8
9_PLASTICS_1
 62
3
100
AcDbSpline
 70
8
 71
3
 72
8
 73
4
 74
0
 40
0
 40
0
 40
0
 40
0
 40
1
 40
1
 40
1
 40
1
 10
11.543536
 20
13.707183
 30
0.0
 10
11.543536
 20
13.752746
 30
0.0
 10
11.506599
 20
13.789683
 30
0.0
 10
11.461036
 20
13.789683
 30
0.0
  0
SPLINE
  5
159
100
AcDbEntity
  8
9_PLASTICS_1
 62
3
100
AcDbSpline
 70
8
 71
3
 72
8
 73
4
 74
0
 40
0
 40
0
 40
0
 40
0
 40
1
 40
1
 40
1
 40
1
 10
11.461036
 20
13.789683
 30
0.0
 10
11.415474
 20
13.789683
 30
0.0
 10
11.378536
 20
13.752746
 30
0.0
 10
11.378536
 20
13.707183
 30
0.0
  0
SPLINE
  5
15a
100
AcDbEntity
  8
9_PLASTICS_1
 62
3
100
AcDbSpline
 70
8
 71
3
 72
8
 73
4
 74
0
 40
0
 40
0
 40
0
 40
0
 40
1
 40
1
 40
1
 40
1
 10
11.378536
 20
13.707183
 30
0.0
 10
11.378536
 20
13.661619
 30
0.0
 10
11.415474
 20
13.624683
 30
0.0
 10
11.461036
 20
13.624683
 30
0.0
  0
SPLINE
  5
15b
100
AcDbEntity
  8
9_PLASTICS_1
 62
3
100
AcDbSpline
 70
8
 71
3
 72
8
 73
4
 74
0
 40
0
 40
0
 40
0
 40
0
 40
1
 40
1
 40
1
 40
1
 10
11.461036
 20
13.624683
 30
0.0
 10
11.506599
 20
13.624683
 30
0.0
 10
11.543536
 20
13.661619
 30
0.0
 10
11.543536
 20
13.707183
 30
0.0
  0
LINE
  5
15c
100
AcDbEntity
  8
9_PLASTICS_1
 62
3
100
AcDbLine
 10
11.543536
 20
13.707183
 30
0.0
 11
11.543536
 21
13.707183
 31
0.0
  0
SPLINE
  5
15d
100
AcDbEntity
  8
9_PLASTICS_1
 62
3
100
AcDbSpline
 70
8
 71
3
 72
8
 73
4
 74
0
 40
0
 40
0
 40
0
 40
0
 40
1
 40
1
 40
1
 40
1
 10
11.439766
 20
12.212865
 30
0.0
 10
11.439766
 20
12.258428
 30
0.0
 10
11.402828
 20
12.295365
 30
0.0
 10
11.357266
 20
12.295365
 30
0.0
  0
SPLINE
  5
15e
100
AcDbEntity
  8
9_PLASTICS_1
 62
3
100
AcDbSpline
 70
8
 71
3
 72
8
 73
4
 74
0
 40
0
 40
0
 40
0
 40
0
 40
1
 40
1
 40
1
 40
1
 10
11.357266
 20
12.295365
 30
0.0
 10
11.311703
 20
12.295365
 30
0.0
 10
11.274766
 20
12.258428
 30
0.0
 10
11.274766
 20
12.212865
 30
0.0
  0
SPLINE
  5
15f
100
AcDbEntity
  8
9_PLASTICS_1
 62
3
100
AcDbSpline
 70
8
 71
3
 72
8
 73
4
 74
0
 40
0
 40
0
 40
0
 40
0
 40
1
 40
1
 40
1
 40
1
 10
11.274766
 20
12.212865
 30
0.0
 10
11.274766
 20
12.167301
 30
0.0
 10
11.311703
 20
12.130365
 30
0.0
 10
11.357266
 20
12.130365
 30
0.0
  0
SPLINE
  5
160
100
AcDbEntity
  8
9_PLASTICS_1
 62
3
100
AcDbSpline
 70
8
 71
3
 72
8
 73
4
 74
0
 40
0
 40
0
 40
0
 40
0
 40
1
 40
1
 40
1
 40
1
 10
11.357266
 20
12.130365
 30
0.0
 10
11.402828
 20
12.130365
 30
0.0
 10
11.439766
 20
12.167301
 30
0.0
 10
11.439766
 20
12.212865
 30
0.0
  0
LINE
  5
161
100
AcDbEntity
  8
9_PLASTICS_1
 62
3
100
AcDbLine
 10
11.439766
 20
12.212865
 30
0.0
 11
11.439766
 21
12.212865
 31
0.0
  0
SPLINE
  5
162
100
AcDbEntity
  8
9_PLASTICS_1
 62
6
100
AcDbSpline
 70
8
 71
3
 72
8
 73
4
 74
0
 40
0
 40
0
 40
0
 40
0
 40
1
 40
1
 40
1
 40
1
 10
10.601474
 20
15.067914
 30
0.0
 10
10.585578
 20
15.089867
 30
0.0
 10
10.611047
 20
15.117975
 30
0.0
 10
10.634578
 20
15.104231
 30
0.0
  0
LINE
  5
163
100
AcDbEntity
  8
9_PLASTICS_1
 62
6
100
AcDbLine
 10
10.634578
 20
15.104231
 30
0.0
 11
11.453328
 21
14.622498
 31
0.0
  0
SPLINE
  5
164
100
AcDbEntity
  8
9_PLASTICS_1
 62
6
100
AcDbSpline
 70
8
 71
3
 72
8
 73
4
 74
0
 40
0
 40
0
 40
0
 40
0
 40
1
 40
1
 40
1
 40
1
 10
11.453328
 20
14.622498
 30
0.0
 10
11.575339
 20
14.550660
 30
0.0
 10
11.650349
 20
14.419508
 30
0.0
 10
11.650349
 20
14.277786
 30
0.0
  0
LINE
  5
165
100
AcDbEntity
  8
9_PLASTICS_1
 62
6
100
AcDbLine
 10
11.650349
 20
14.277786
 30
0.0
 11
11.650349
 21
10.999989
 31
0.0
  0
SPLINE
  5
166
100
AcDbEntity
  8
9_PLASTICS_1
 62
6
100
AcDbSpline
 70
8
 71
3
 72
8
 73
4
 74
0
 40
0
 40
0
 40
0
 40
0
 40
1
 40
1
 40
1
 40
1
 10
11.650349
 20
10.999989
 30
0.0
 10
11.650349
 20
10.981005
 30
0.0
 10
11.630016
 20
10.968949
 30
0.0
 10
11.613359
 20
10.978054
 30
0.0
  0
SPLINE
  5
167
100
AcDbEntity
  8
9_PLASTICS_1
 62
6
100
AcDbSpline
 70
8
 71
3
 72
8
 73
4
 74
0
 40
0
 40
0
 40
0
 40
0
 40
1
 40
1
 40
1
 40
1
 10
11.613359
 20
10.978054
 30
0.0
 10
11.370974
 20
11.110550
 30
0.0
 10
11.073172
 20
11.087160
 30
0.0
 10
10.854443
 20
10.918438
 30
0.0
  0
SPLINE
  5
168
100
AcDbEntity
  8
9_PLASTICS_1
 62
6
100
AcDbSpline
 70
8
 71
3
 72
8
 73
4
 74
0
 40
0
 40
0
 40
0
 40
0
 40
1
 40
1
 40
1
 40
1
 10
10.854443
 20
10.918438
 30
0.0
 10
10.837068
 20
10.905016
 30
0.0
 10
10.812078
 20
10.918907
 30
0.0
 10
10.814088
 20
10.940783
 30
0.0
  0
LINE
  5
169
100
AcDbEntity
  8
9_PLASTICS_1
 62
6
100
AcDbLine
 10
10.814088
 20
10.940783
 30
0.0
 11
11.132755
 21
14.079014
 31
0.0
  0
SPLINE
  5
16a
100
AcDbEntity
  8
9_PLASTICS_1
 62
6
100
AcDbSpline
 70
8
 71
3
 72
8
 73
4
 74
0
 40
0
 40
0
 40
0
 40
0
 40
1
 40
1
 40
1
 40
1
 10
11.132755
 20
14.079014
 30
0.0
 10
11.147807
 20
14.226117
 30
0.0
 10
11.107870
 20
14.373590
 30
0.0
 10
11.020953
 20
14.493090
 30
0.0
  0
LINE
  5
16b
100
AcDbEntity
  8
9_PLASTICS_1
 62
6
100
AcDbLine
 10
11.020953
 20
14.493090
 30
0.0
 11
10.601474
 21
15.067914
 31
0.0
  0
SPLINE
  5
16c
100
AcDbEntity
  8
9_PLASTICS_1
 62
3
100
AcDbSpline
 70
8
 71
3
 72
8
 73
4
 74
0
 40
0
 40
0
 40
0
 40
0
 40
1
 40
1
 40
1
 40
1
 10
11.575349
 20
9.443030
 30
0.0
 10
11.575349
 20
9.484452
 30
0.0
 10
11.541766
 20
9.518030
 30
0.0
 10
11.500349
 20
9.518030
 30
0.0
  0
SPLINE
  5
16d
100
AcDbEntity
  8
9_PLASTICS_1
 62
3
100
AcDbSpline
 70
8
 71
3
 72
8
 73
4
 74
0
 40
0
 40
0
 40
0
 40
0
 40
1
 40
1
 40
1
 40
1
 10
11.500349
 20
9.518030
 30
0.0
 10
11.458932
 20
9.518030
 30
0.0
 10
11.425349
 20
9.484452
 30
0.0
 10
11.425349
 20
9.443030
 30
0.0
  0
SPLINE
  5
16e
100
AcDbEntity
  8
9_PLASTICS_1
 62
3
100
AcDbSpline
 70
8
 71
3
 72
8
 73
4
 74
0
 40
0
 40
0
 40
0
 40
0
 40
1
 40
1
 40
1
 40
1
 10
11.425349
 20
9.443030
 30
0.0
 10
11.425349
 20
9.401608
 30
0.0
 10
11.458932
 20
9.368030
 30
0.0
 10
11.500349
 20
9.368030
 30
0.0
  0
SPLINE
  5
16f
100
AcDbEntity
  8
9_PLASTICS_1
 62
3
100
AcDbSpline
 70
8
 71
3
 72
8
 73
4
 74
0
 40
0
 40
0
 40
0
 40
0
 40
1
 40
1
 40
1
 40
1
 10
11.500349
 20
9.368030
 30
0.0
 10
11.541766
 20
9.368030
 30
0.0
 10
11.575349
 20
9.401608
 30
0.0
 10
11.575349
 20
9.443030
 30
0.0
  0
LINE
  5
170
100
AcDbEntity
  8
9_PLASTICS_1
 62
3
100
AcDbLine
 10
11.575349
 20
9.443030
 30
0.0
 11
11.575349
 21
9.443030
 31
0.0
  0
SPLINE
  5
171
100
AcDbEntity
  8
9_PLASTICS_1
 62
3
100
AcDbSpline
 70
8
 71
3
 72
8
 73
4
 74
0
 40
0
 40
0
 40
0
 40
0
 40
1
 40
1
 40
1
 40
1
 10
7.075349
 20
15.939392
 30
0.0
 10
7.075349
 20
15.980814
 30
0.0
 10
7.041765
 20
16.014392
 30
0.0
 10
7.000349
 20
16.014392
 30
0.0
  0
SPLINE
  5
172
100
AcDbEntity
  8
9_PLASTICS_1
 62
3
100
AcDbSpline
 70
8
 71
3
 72
8
 73
4
 74
0
 40
0
 40
0
 40
0
 40
0
 40
1
 40
1
 40
1
 40
1
 10
7.000349
 20
16.014392
 30
0.0
 10
6.958932
 20
16.014392
 30
0.0
 10
6.925349
 20
15.980814
 30
0.0
 10
6.925349
 20
15.939392
 30
0.0
  0
SPLINE
  5
173
100
AcDbEntity
  8
9_PLASTICS_1
 62
3
100
AcDbSpline
 70
8
 71
3
 72
8
 73
4
 74
0
 40
0
 40
0
 40
0
 40
0
 40
1
 40
1
 40
1
 40
1
 10
6.925349
 20
15.939392
 30
0.0
 10
6.925349
 20
15.897970
 30
0.0
 10
6.958932
 20
15.864392
 30
0.0
 10
7.000349
 20
15.864392
 30
0.0
  0
SPLINE
  5
174
100
AcDbEntity
  8
9_PLASTICS_1
 62
3
100
AcDbSpline
 70
8
 71
3
 72
8
 73
4
 74
0
 40
0
 40
0
 40
0
 40
0
 40
1
 40
1
 40
1
 40
1
 10
7.000349
 20
15.864392
 30
0.0
 10
7.041765
 20
15.864392
 30
0.0
 10
7.075349
 20
15.897970
 30
0.0
 10
7.075349
 20
15.939392
 30
0.0
  0
LINE
  5
175
100
AcDbEntity
  8
9_PLASTICS_1
 62
3
100
AcDbLine
 10
7.075349
 20
15.939392
 30
0.0
 11
7.075349
 21
15.939392
 31
0.0
  0
SPLINE
  5
176
100
AcDbEntity
  8
9_PLASTICS_1
 62
3
100
AcDbSpline
 70
8
 71
3
 72
8
 73
4
 74
0
 40
0
 40
0
 40
0
 40
0
 40
1
 40
1
 40
1
 40
1
 10
7.075349
 20
21.782433
 30
0.0
 10
7.075349
 20
21.823855
 30
0.0
 10
7.041765
 20
21.857433
 30
0.0
 10
7.000349
 20
21.857433
 30
0.0
  0
SPLINE
  5
177
100
AcDbEntity
  8
9_PLASTICS_1
 62
3
100
AcDbSpline
 70
8
 71
3
 72
8
 73
4
 74
0
 40
0
 40
0
 40
0
 40
0
 40
1
 40
1
 40
1
 40
1
 10
7.000349
 20
21.857433
 30
0.0
 10
6.958932
 20
21.857433
 30
0.0
 10
6.925349
 20
21.823855
 30
0.0
 10
6.925349
 20
21.782433
 30
0.0
  0
SPLINE
  5
178
100
AcDbEntity
  8
9_PLASTICS_1
 62
3
100
AcDbSpline
 70
8
 71
3
 72
8
 73
4
 74
0
 40
0
 40
0
 40
0
 40
0
 40
1
 40
1
 40
1
 40
1
 10
6.925349
 20
21.782433
 30
0.0
 10
6.925349
 20
21.741011
 30
0.0
 10
6.958932
 20
21.707433
 30
0.0
 10
7.000349
 20
21.707433
 30
0.0
  0
SPLINE
  5
179
100
AcDbEntity
  8
9_PLASTICS_1
 62
3
100
AcDbSpline
 70
8
 71
3
 72
8
 73
4
 74
0
 40
0
 40
0
 40
0
 40
0
 40
1
 40
1
 40
1
 40
1
 10
7.000349
 20
21.707433
 30
0.0
 10
7.041765
 20
21.707433
 30
0.0
 10
7.075349
 20
21.741011
 30
0.0
 10
7.075349
 20
21.782433
 30
0.0
  0
LINE
  5
17a
100
AcDbEntity
  8
9_PLASTICS_1
 62
3
100
AcDbLine
 10
7.075349
 20
21.782433
 30
0.0
 11
7.075349
 21
21.782433
 31
0.0
  0
SPLINE
  5
17b
100
AcDbEntity
  8
9_PLASTICS_1
 62
3
100
AcDbSpline
 70
8
 71
3
 72
8
 73
4
 74
0
 40
0
 40
0
 40
0
 40
0
 40
1
 40
1
 40
1
 40
1
 10
9.566557
 20
17.896108
 30
0.0
 10
9.566557
 20
17.937530
 30
0.0
 10
9.532974
 20
17.971108
 30
0.0
 10
9.491557
 20
17.971108
 30
0.0
  0
SPLINE
  5
17c
100
AcDbEntity
  8
9_PLASTICS_1
 62
3
100
AcDbSpline
 70
8
 71
3
 72
8
 73
4
 74
0
 40
0
 40
0
 40
0
 40
0
 40
1
 40
1
 40
1
 40
1
 10
9.491557
 20
17.971108
 30
0.0
 10
9.450140
 20
17.971108
 30
0.0
 10
9.416557
 20
17.937530
 30
0.0
 10
9.416557
 20
17.896108
 30
0.0
  0
SPLINE
  5
17d
100
AcDbEntity
  8
9_PLASTICS_1
 62
3
100
AcDbSpline
 70
8
 71
3
 72
8
 73
4
 74
0
 40
0
 40
0
 40
0
 40
0
 40
1
 40
1
 40
1
 40
1
 10
9.416557
 20
17.896108
 30
0.0
 10
9.416557
 20
17.854686
 30
0.0
 10
9.450140
 20
17.821108
 30
0.0
 10
9.491557
 20
17.821108
 30
0.0
  0
SPLINE
  5
17e
100
AcDbEntity
  8
9_PLASTICS_1
 62
3
100
AcDbSpline
 70
8
 71
3
 72
8
 73
4
 74
0
 40
0
 40
0
 40
0
 40
0
 40
1
 40
1
 40
1
 40
1
 10
9.491557
 20
17.821108
 30
0.0
 10
9.532974
 20
17.821108
 30
0.0
 10
9.566557
 20
17.854686
 30
0.0
 10
9.566557
 20
17.896108
 30
0.0
  0
LINE
  5
17f
100
AcDbEntity
  8
9_PLASTICS_1
 62
3
100
AcDbLine
 10
9.566557
 20
17.896108
 30
0.0
 11
9.566557
 21
17.896108
 31
0.0
  0
LINE
  5
180
100
AcDbEntity
  8
9_PLASTICS_1
 62
6
100
AcDbLine
 10
9.696036
 20
10.664797
 30
0.0
 11
7.166151
 21
12.553754
 31
0.0
  0
SPLINE
  5
181
100
AcDbEntity
  8
9_PLASTICS_1
 62
6
100
AcDbSpline
 70
8
 71
3
 72
8
 73
4
 74
0
 40
0
 40
0
 40
0
 40
0
 40
1
 40
1
 40
1
 40
1
 10
7.166151
 20
12.553754
 30
0.0
 10
6.939911
 20
12.722847
 30
0.0
 10
6.955432
 20
13.067020
 30
0.0
 10
7.196171
 20
13.215004
 30
0.0
  0
LINE
  5
182
100
AcDbEntity
  8
9_PLASTICS_1
 62
6
100
AcDbLine
 10
7.196171
 20
13.215004
 30
0.0
 11
7.806578
 21
13.593418
 31
0.0
  0
SPLINE
  5
183
100
AcDbEntity
  8
9_PLASTICS_1
 62
6
100
AcDbSpline
 70
8
 71
3
 72
8
 73
4
 74
0
 40
0
 40
0
 40
0
 40
0
 40
1
 40
1
 40
1
 40
1
 10
7.806578
 20
13.593418
 30
0.0
 10
7.950869
 20
13.682874
 30
0.0
 10
8.140390
 20
13.638433
 30
0.0
 10
8.229890
 20
13.494138
 30
0.0
  0
SPLINE
  5
184
100
AcDbEntity
  8
9_PLASTICS_1
 62
6
100
AcDbSpline
 70
8
 71
3
 72
8
 73
4
 74
0
 40
0
 40
0
 40
0
 40
0
 40
1
 40
1
 40
1
 40
1
 10
8.229890
 20
13.494138
 30
0.0
 10
8.112953
 20
12.969506
 30
0.0
 10
8.316474
 20
12.425275
 30
0.0
 10
8.748953
 20
12.106101
 30
0.0
  0
SPLINE
  5
185
100
AcDbEntity
  8
9_PLASTICS_1
 62
6
100
AcDbSpline
 70
8
 71
3
 72
8
 73
4
 74
0
 40
0
 40
0
 40
0
 40
0
 40
1
 40
1
 40
1
 40
1
 10
8.748953
 20
12.106101
 30
0.0
 10
9.181442
 20
11.786927
 30
0.0
 10
9.761484
 20
11.752885
 30
0.0
 10
10.228328
 20
12.019280
 30
0.0
  0
SPLINE
  5
186
100
AcDbEntity
  8
9_PLASTICS_1
 62
6
100
AcDbSpline
 70
8
 71
3
 72
8
 73
4
 74
0
 40
0
 40
0
 40
0
 40
0
 40
1
 40
1
 40
1
 40
1
 10
10.228328
 20
12.019280
 30
0.0
 10
10.415651
 20
11.977570
 30
0.0
 10
10.533015
 20
11.791099
 30
0.0
 10
10.489765
 20
11.604157
 30
0.0
  0
LINE
  5
187
100
AcDbEntity
  8
9_PLASTICS_1
 62
6
100
AcDbLine
 10
10.489765
 20
11.604157
 30
0.0
 11
10.325099
 21
10.894799
 31
0.0
  0
SPLINE
  5
188
100
AcDbEntity
  8
9_PLASTICS_1
 62
6
100
AcDbSpline
 70
8
 71
3
 72
8
 73
4
 74
0
 40
0
 40
0
 40
0
 40
0
 40
1
 40
1
 40
1
 40
1
 10
10.325099
 20
10.894799
 30
0.0
 10
10.259557
 20
10.613707
 30
0.0
 10
9.927130
 20
10.492140
 30
0.0
 10
9.696036
 20
10.664797
 30
0.0
  0
LINE
  5
189
100
AcDbEntity
  8
9_PLASTICS_1
 62
6
100
AcDbLine
 10
9.696036
 20
10.664797
 30
0.0
 11
9.696036
 21
10.664797
 31
0.0
  0
SPLINE
  5
18a
100
AcDbEntity
  8
9_PLASTICS_1
 62
3
100
AcDbSpline
 70
8
 71
3
 72
8
 73
4
 74
0
 40
0
 40
0
 40
0
 40
0
 40
1
 40
1
 40
1
 40
1
 10
10.010224
 20
10.985313
 30
0.0
 10
10.010224
 20
11.026735
 30
0.0
 10
9.976640
 20
11.060313
 30
0.0
 10
9.935224
 20
11.060313
 30
0.0
  0
SPLINE
  5
18b
100
AcDbEntity
  8
9_PLASTICS_1
 62
3
100
AcDbSpline
 70
8
 71
3
 72
8
 73
4
 74
0
 40
0
 40
0
 40
0
 40
0
 40
1
 40
1
 40
1
 40
1
 10
9.935224
 20
11.060313
 30
0.0
 10
9.893807
 20
11.060313
 30
0.0
 10
9.860224
 20
11.026735
 30
0.0
 10
9.860224
 20
10.985313
 30
0.0
  0
SPLINE
  5
18c
100
AcDbEntity
  8
9_PLASTICS_1
 62
3
100
AcDbSpline
 70
8
 71
3
 72
8
 73
4
 74
0
 40
0
 40
0
 40
0
 40
0
 40
1
 40
1
 40
1
 40
1
 10
9.860224
 20
10.985313
 30
0.0
 10
9.860224
 20
10.943892
 30
0.0
 10
9.893807
 20
10.910313
 30
0.0
 10
9.935224
 20
10.910313
 30
0.0
  0
SPLINE
  5
18d
100
AcDbEntity
  8
9_PLASTICS_1
 62
3
100
AcDbSpline
 70
8
 71
3
 72
8
 73
4
 74
0
 40
0
 40
0
 40
0
 40
0
 40
1
 40
1
 40
1
 40
1
 10
9.935224
 20
10.910313
 30
0.0
 10
9.976640
 20
10.910313
 30
0.0
 10
10.010224
 20
10.943892
 30
0.0
 10
10.010224
 20
10.985313
 30
0.0
  0
LINE
  5
18e
100
AcDbEntity
  8
9_PLASTICS_1
 62
3
100
AcDbLine
 10
10.010224
 20
10.985313
 30
0.0
 11
10.010224
 21
10.985313
 31
0.0
  0
SPLINE
  5
18f
100
AcDbEntity
  8
9_PLASTICS_1
 62
3
100
AcDbSpline
 70
8
 71
3
 72
8
 73
4
 74
0
 40
0
 40
0
 40
0
 40
0
 40
1
 40
1
 40
1
 40
1
 10
7.480661
 20
12.874270
 30
0.0
 10
7.480661
 20
12.915692
 30
0.0
 10
7.447078
 20
12.949270
 30
0.0
 10
7.405661
 20
12.949270
 30
0.0
  0
SPLINE
  5
190
100
AcDbEntity
  8
9_PLASTICS_1
 62
3
100
AcDbSpline
 70
8
 71
3
 72
8
 73
4
 74
0
 40
0
 40
0
 40
0
 40
0
 40
1
 40
1
 40
1
 40
1
 10
7.405661
 20
12.949270
 30
0.0
 10
7.364244
 20
12.949270
 30
0.0
 10
7.330661
 20
12.915692
 30
0.0
 10
7.330661
 20
12.874270
 30
0.0
  0
SPLINE
  5
191
100
AcDbEntity
  8
9_PLASTICS_1
 62
3
100
AcDbSpline
 70
8
 71
3
 72
8
 73
4
 74
0
 40
0
 40
0
 40
0
 40
0
 40
1
 40
1
 40
1
 40
1
 10
7.330661
 20
12.874270
 30
0.0
 10
7.330661
 20
12.832848
 30
0.0
 10
7.364244
 20
12.799270
 30
0.0
 10
7.405661
 20
12.799270
 30
0.0
  0
SPLINE
  5
192
100
AcDbEntity
  8
9_PLASTICS_1
 62
3
100
AcDbSpline
 70
8
 71
3
 72
8
 73
4
 74
0
 40
0
 40
0
 40
0
 40
0
 40
1
 40
1
 40
1
 40
1
 10
7.405661
 20
12.799270
 30
0.0
 10
7.447078
 20
12.799270
 30
0.0
 10
7.480661
 20
12.832848
 30
0.0
 10
7.480661
 20
12.874270
 30
0.0
  0
LINE
  5
193
100
AcDbEntity
  8
9_PLASTICS_1
 62
3
100
AcDbLine
 10
7.480661
 20
12.874270
 30
0.0
 11
7.480661
 21
12.874270
 31
0.0
  0
SPLINE
  5
194
100
AcDbEntity
  8
9_PLASTICS_1
 62
3
100
AcDbSpline
 70
8
 71
3
 72
8
 73
4
 74
0
 40
0
 40
0
 40
0
 40
0
 40
1
 40
1
 40
1
 40
1
 10
9.630307
 20
12.749991
 30
0.0
 10
9.630307
 20
12.791413
 30
0.0
 10
9.596724
 20
12.824991
 30
0.0
 10
9.555307
 20
12.824991
 30
0.0
  0
SPLINE
  5
195
100
AcDbEntity
  8
9_PLASTICS_1
 62
3
100
AcDbSpline
 70
8
 71
3
 72
8
 73
4
 74
0
 40
0
 40
0
 40
0
 40
0
 40
1
 40
1
 40
1
 40
1
 10
9.555307
 20
12.824991
 30
0.0
 10
9.513890
 20
12.824991
 30
0.0
 10
9.480307
 20
12.791413
 30
0.0
 10
9.480307
 20
12.749991
 30
0.0
  0
SPLINE
  5
196
100
AcDbEntity
  8
9_PLASTICS_1
 62
3
100
AcDbSpline
 70
8
 71
3
 72
8
 73
4
 74
0
 40
0
 40
0
 40
0
 40
0
 40
1
 40
1
 40
1
 40
1
 10
9.480307
 20
12.749991
 30
0.0
 10
9.480307
 20
12.708569
 30
0.0
 10
9.513890
 20
12.674991
 30
0.0
 10
9.555307
 20
12.674991
 30
0.0
  0
SPLINE
  5
197
100
AcDbEntity
  8
9_PLASTICS_1
 62
3
100
AcDbSpline
 70
8
 71
3
 72
8
 73
4
 74
0
 40
0
 40
0
 40
0
 40
0
 40
1
 40
1
 40
1
 40
1
 10
9.555307
 20
12.674991
 30
0.0
 10
9.596724
 20
12.674991
 30
0.0
 10
9.630307
 20
12.708569
 30
0.0
 10
9.630307
 20
12.749991
 30
0.0
  0
LINE
  5
198
100
AcDbEntity
  8
9_PLASTICS_1
 62
3
100
AcDbLine
 10
9.630307
 20
12.749991
 30
0.0
 11
9.630307
 21
12.749991
 31
0.0
  0
SPLINE
  5
199
100
AcDbEntity
  8
9_PLASTICS_1
 62
6
100
AcDbSpline
 70
8
 71
3
 72
8
 73
4
 74
0
 40
0
 40
0
 40
0
 40
0
 40
1
 40
1
 40
1
 40
1
 10
8.737838
 20
14.414757
 30
0.0
 10
8.672672
 20
14.313102
 30
0.0
 10
8.656922
 20
14.187489
 30
0.0
 10
8.695036
 20
14.072899
 30
0.0
  0
LINE
  5
19a
100
AcDbEntity
  8
9_PLASTICS_1
 62
6
100
AcDbLine
 10
8.695036
 20
14.072899
 30
0.0
 11
9.175505
 21
12.624027
 31
0.0
  0
SPLINE
  5
19b
100
AcDbEntity
  8
9_PLASTICS_1
 62
6
100
AcDbSpline
 70
8
 71
3
 72
8
 73
4
 74
0
 40
0
 40
0
 40
0
 40
0
 40
1
 40
1
 40
1
 40
1
 10
9.175505
 20
12.624027
 30
0.0
 10
9.229942
 20
12.460417
 30
0.0
 10
9.382932
 20
12.349983
 30
0.0
 10
9.555307
 20
12.349983
 30
0.0
  0
SPLINE
  5
19c
100
AcDbEntity
  8
9_PLASTICS_1
 62
6
100
AcDbSpline
 70
8
 71
3
 72
8
 73
4
 74
0
 40
0
 40
0
 40
0
 40
0
 40
1
 40
1
 40
1
 40
1
 10
9.555307
 20
12.349983
 30
0.0
 10
9.727693
 20
12.349983
 30
0.0
 10
9.880682
 20
12.460417
 30
0.0
 10
9.934849
 20
12.624027
 30
0.0
  0
LINE
  5
19d
100
AcDbEntity
  8
9_PLASTICS_1
 62
6
100
AcDbLine
 10
9.934849
 20
12.624027
 30
0.0
 11
10.415838
 21
14.072899
 31
0.0
  0
SPLINE
  5
19e
100
AcDbEntity
  8
9_PLASTICS_1
 62
6
100
AcDbSpline
 70
8
 71
3
 72
8
 73
4
 74
0
 40
0
 40
0
 40
0
 40
0
 40
1
 40
1
 40
1
 40
1
 10
10.415838
 20
14.072899
 30
0.0
 10
10.453703
 20
14.187491
 30
0.0
 10
10.437943
 20
14.313105
 30
0.0
 10
10.373036
 20
14.414757
 30
0.0
  0
LINE
  5
19f
100
AcDbEntity
  8
9_PLASTICS_1
 62
6
100
AcDbLine
 10
10.373036
 20
14.414757
 30
0.0
 11
9.892036
 21
15.164757
 31
0.0
  0
SPLINE
  5
1a0
100
AcDbEntity
  8
9_PLASTICS_1
 62
6
100
AcDbSpline
 70
8
 71
3
 72
8
 73
4
 74
0
 40
0
 40
0
 40
0
 40
0
 40
1
 40
1
 40
1
 40
1
 10
9.892036
 20
15.164757
 30
0.0
 10
9.734693
 20
15.410263
 30
0.0
 10
9.375922
 20
15.410263
 30
0.0
 10
9.218307
 20
15.164757
 30
0.0
  0
LINE
  5
1a1
100
AcDbEntity
  8
9_PLASTICS_1
 62
6
100
AcDbLine
 10
9.218307
 20
15.164757
 30
0.0
 11
8.737838
 21
14.414757
 31
0.0
  0
SPLINE
  5
1a2
100
AcDbEntity
  8
9_PLASTICS_1
 62
3
100
AcDbSpline
 70
8
 71
3
 72
8
 73
4
 74
0
 40
0
 40
0
 40
0
 40
0
 40
1
 40
1
 40
1
 40
1
 10
9.630307
 20
14.948880
 30
0.0
 10
9.630307
 20
14.990302
 30
0.0
 10
9.596724
 20
15.023880
 30
0.0
 10
9.555307
 20
15.023880
 30
0.0
  0
SPLINE
  5
1a3
100
AcDbEntity
  8
9_PLASTICS_1
 62
3
100
AcDbSpline
 70
8
 71
3
 72
8
 73
4
 74
0
 40
0
 40
0
 40
0
 40
0
 40
1
 40
1
 40
1
 40
1
 10
9.555307
 20
15.023880
 30
0.0
 10
9.513890
 20
15.023880
 30
0.0
 10
9.480307
 20
14.990302
 30
0.0
 10
9.480307
 20
14.948880
 30
0.0
  0
SPLINE
  5
1a4
100
AcDbEntity
  8
9_PLASTICS_1
 62
3
100
AcDbSpline
 70
8
 71
3
 72
8
 73
4
 74
0
 40
0
 40
0
 40
0
 40
0
 40
1
 40
1
 40
1
 40
1
 10
9.480307
 20
14.948880
 30
0.0
 10
9.480307
 20
14.907458
 30
0.0
 10
9.513890
 20
14.873880
 30
0.0
 10
9.555307
 20
14.873880
 30
0.0
  0
SPLINE
  5
1a5
100
AcDbEntity
  8
9_PLASTICS_1
 62
3
100
AcDbSpline
 70
8
 71
3
 72
8
 73
4
 74
0
 40
0
 40
0
 40
0
 40
0
 40
1
 40
1
 40
1
 40
1
 10
9.555307
 20
14.873880
 30
0.0
 10
9.596724
 20
14.873880
 30
0.0
 10
9.630307
 20
14.907458
 30
0.0
 10
9.630307
 20
14.948880
 30
0.0
  0
LINE
  5
1a6
100
AcDbEntity
  8
9_PLASTICS_1
 62
3
100
AcDbLine
 10
9.630307
 20
14.948880
 30
0.0
 11
9.630307
 21
14.948880
 31
0.0
  0
SPLINE
  5
1a7
100
AcDbEntity
  8
9_PLASTICS_1
 62
3
100
AcDbSpline
 70
8
 71
3
 72
8
 73
4
 74
0
 40
0
 40
0
 40
0
 40
0
 40
1
 40
1
 40
1
 40
1
 10
3.036379
 20
14.499968
 30
0.0
 10
3.036379
 20
14.541390
 30
0.0
 10
3.002796
 20
14.574968
 30
0.0
 10
2.961379
 20
14.574968
 30
0.0
  0
SPLINE
  5
1a8
100
AcDbEntity
  8
9_PLASTICS_1
 62
3
100
AcDbSpline
 70
8
 71
3
 72
8
 73
4
 74
0
 40
0
 40
0
 40
0
 40
0
 40
1
 40
1
 40
1
 40
1
 10
2.961379
 20
14.574968
 30
0.0
 10
2.919963
 20
14.574968
 30
0.0
 10
2.886379
 20
14.541390
 30
0.0
 10
2.886379
 20
14.499968
 30
0.0
  0
SPLINE
  5
1a9
100
AcDbEntity
  8
9_PLASTICS_1
 62
3
100
AcDbSpline
 70
8
 71
3
 72
8
 73
4
 74
0
 40
0
 40
0
 40
0
 40
0
 40
1
 40
1
 40
1
 40
1
 10
2.886379
 20
14.499968
 30
0.0
 10
2.886379
 20
14.458546
 30
0.0
 10
2.919963
 20
14.424968
 30
0.0
 10
2.961379
 20
14.424968
 30
0.0
  0
SPLINE
  5
1aa
100
AcDbEntity
  8
9_PLASTICS_1
 62
3
100
AcDbSpline
 70
8
 71
3
 72
8
 73
4
 74
0
 40
0
 40
0
 40
0
 40
0
 40
1
 40
1
 40
1
 40
1
 10
2.961379
 20
14.424968
 30
0.0
 10
3.002796
 20
14.424968
 30
0.0
 10
3.036379
 20
14.458546
 30
0.0
 10
3.036379
 20
14.499968
 30
0.0
  0
LINE
  5
1ab
100
AcDbEntity
  8
9_PLASTICS_1
 62
3
100
AcDbLine
 10
3.036379
 20
14.499968
 30
0.0
 11
3.036379
 21
14.499968
 31
0.0
  0
SPLINE
  5
1ac
100
AcDbEntity
  8
9_PLASTICS_1
 62
3
100
AcDbSpline
 70
8
 71
3
 72
8
 73
4
 74
0
 40
0
 40
0
 40
0
 40
0
 40
1
 40
1
 40
1
 40
1
 10
5.332015
 20
10.478127
 30
0.0
 10
5.332015
 20
10.519549
 30
0.0
 10
5.298432
 20
10.553127
 30
0.0
 10
5.257015
 20
10.553127
 30
0.0
  0
SPLINE
  5
1ad
100
AcDbEntity
  8
9_PLASTICS_1
 62
3
100
AcDbSpline
 70
8
 71
3
 72
8
 73
4
 74
0
 40
0
 40
0
 40
0
 40
0
 40
1
 40
1
 40
1
 40
1
 10
5.257015
 20
10.553127
 30
0.0
 10
5.215598
 20
10.553127
 30
0.0
 10
5.182015
 20
10.519549
 30
0.0
 10
5.182015
 20
10.478127
 30
0.0
  0
SPLINE
  5
1ae
100
AcDbEntity
  8
9_PLASTICS_1
 62
3
100
AcDbSpline
 70
8
 71
3
 72
8
 73
4
 74
0
 40
0
 40
0
 40
0
 40
0
 40
1
 40
1
 40
1
 40
1
 10
5.182015
 20
10.478127
 30
0.0
 10
5.182015
 20
10.436705
 30
0.0
 10
5.215598
 20
10.403127
 30
0.0
 10
5.257015
 20
10.403127
 30
0.0
  0
SPLINE
  5
1af
100
AcDbEntity
  8
9_PLASTICS_1
 62
3
100
AcDbSpline
 70
8
 71
3
 72
8
 73
4
 74
0
 40
0
 40
0
 40
0
 40
0
 40
1
 40
1
 40
1
 40
1
 10
5.257015
 20
10.403127
 30
0.0
 10
5.298432
 20
10.403127
 30
0.0
 10
5.332015
 20
10.436705
 30
0.0
 10
5.332015
 20
10.478127
 30
0.0
  0
LINE
  5
1b0
100
AcDbEntity
  8
9_PLASTICS_1
 62
3
100
AcDbLine
 10
5.332015
 20
10.478127
 30
0.0
 11
5.332015
 21
10.478127
 31
0.0
  0
SPLINE
  5
1b1
100
AcDbEntity
  8
9_PLASTICS_1
 62
3
100
AcDbSpline
 70
8
 71
3
 72
8
 73
4
 74
0
 40
0
 40
0
 40
0
 40
0
 40
1
 40
1
 40
1
 40
1
 10
2.840296
 20
11.958257
 30
0.0
 10
2.840296
 20
12.003821
 30
0.0
 10
2.803359
 20
12.040757
 30
0.0
 10
2.757796
 20
12.040757
 30
0.0
  0
SPLINE
  5
1b2
100
AcDbEntity
  8
9_PLASTICS_1
 62
3
100
AcDbSpline
 70
8
 71
3
 72
8
 73
4
 74
0
 40
0
 40
0
 40
0
 40
0
 40
1
 40
1
 40
1
 40
1
 10
2.757796
 20
12.040757
 30
0.0
 10
2.712234
 20
12.040757
 30
0.0
 10
2.675296
 20
12.003821
 30
0.0
 10
2.675296
 20
11.958257
 30
0.0
  0
SPLINE
  5
1b3
100
AcDbEntity
  8
9_PLASTICS_1
 62
3
100
AcDbSpline
 70
8
 71
3
 72
8
 73
4
 74
0
 40
0
 40
0
 40
0
 40
0
 40
1
 40
1
 40
1
 40
1
 10
2.675296
 20
11.958257
 30
0.0
 10
2.675296
 20
11.912694
 30
0.0
 10
2.712234
 20
11.875757
 30
0.0
 10
2.757796
 20
11.875757
 30
0.0
  0
SPLINE
  5
1b4
100
AcDbEntity
  8
9_PLASTICS_1
 62
3
100
AcDbSpline
 70
8
 71
3
 72
8
 73
4
 74
0
 40
0
 40
0
 40
0
 40
0
 40
1
 40
1
 40
1
 40
1
 10
2.757796
 20
11.875757
 30
0.0
 10
2.803359
 20
11.875757
 30
0.0
 10
2.840296
 20
11.912694
 30
0.0
 10
2.840296
 20
11.958257
 30
0.0
  0
LINE
  5
1b5
100
AcDbEntity
  8
9_PLASTICS_1
 62
3
100
AcDbLine
 10
2.840296
 20
11.958257
 30
0.0
 11
2.840296
 21
11.958257
 31
0.0
  0
SPLINE
  5
1b6
100
AcDbEntity
  8
9_PLASTICS_1
 62
3
100
AcDbSpline
 70
8
 71
3
 72
8
 73
4
 74
0
 40
0
 40
0
 40
0
 40
0
 40
1
 40
1
 40
1
 40
1
 10
1.591244
 20
12.785072
 30
0.0
 10
1.591244
 20
12.830636
 30
0.0
 10
1.554306
 20
12.867572
 30
0.0
 10
1.508744
 20
12.867572
 30
0.0
  0
SPLINE
  5
1b7
100
AcDbEntity
  8
9_PLASTICS_1
 62
3
100
AcDbSpline
 70
8
 71
3
 72
8
 73
4
 74
0
 40
0
 40
0
 40
0
 40
0
 40
1
 40
1
 40
1
 40
1
 10
1.508744
 20
12.867572
 30
0.0
 10
1.463181
 20
12.867572
 30
0.0
 10
1.426244
 20
12.830636
 30
0.0
 10
1.426244
 20
12.785072
 30
0.0
  0
SPLINE
  5
1b8
100
AcDbEntity
  8
9_PLASTICS_1
 62
3
100
AcDbSpline
 70
8
 71
3
 72
8
 73
4
 74
0
 40
0
 40
0
 40
0
 40
0
 40
1
 40
1
 40
1
 40
1
 10
1.426244
 20
12.785072
 30
0.0
 10
1.426244
 20
12.739509
 30
0.0
 10
1.463181
 20
12.702572
 30
0.0
 10
1.508744
 20
12.702572
 30
0.0
  0
SPLINE
  5
1b9
100
AcDbEntity
  8
9_PLASTICS_1
 62
3
100
AcDbSpline
 70
8
 71
3
 72
8
 73
4
 74
0
 40
0
 40
0
 40
0
 40
0
 40
1
 40
1
 40
1
 40
1
 10
1.508744
 20
12.702572
 30
0.0
 10
1.554306
 20
12.702572
 30
0.0
 10
1.591244
 20
12.739509
 30
0.0
 10
1.591244
 20
12.785072
 30
0.0
  0
LINE
  5
1ba
100
AcDbEntity
  8
9_PLASTICS_1
 62
3
100
AcDbLine
 10
1.591244
 20
12.785072
 30
0.0
 11
1.591244
 21
12.785072
 31
0.0
  0
SPLINE
  5
1bb
100
AcDbEntity
  8
9_PLASTICS_1
 62
6
100
AcDbSpline
 70
8
 71
3
 72
8
 73
4
 74
0
 40
0
 40
0
 40
0
 40
0
 40
1
 40
1
 40
1
 40
1
 10
3.658661
 20
11.954012
 30
0.0
 10
3.511702
 20
11.937075
 30
0.0
 10
3.363702
 20
11.975016
 30
0.0
 10
3.243046
 20
12.060523
 30
0.0
  0
LINE
  5
1bc
100
AcDbEntity
  8
9_PLASTICS_1
 62
6
100
AcDbLine
 10
3.243046
 20
12.060523
 30
0.0
 11
0.669306
 21
13.884542
 31
0.0
  0
SPLINE
  5
1bd
100
AcDbEntity
  8
9_PLASTICS_1
 62
6
100
AcDbSpline
 70
8
 71
3
 72
8
 73
4
 74
0
 40
0
 40
0
 40
0
 40
0
 40
1
 40
1
 40
1
 40
1
 10
0.669306
 20
13.884542
 30
0.0
 10
0.651598
 20
13.897206
 30
0.0
 10
0.627192
 20
13.882316
 30
0.0
 10
0.630296
 20
13.860587
 30
0.0
  0
SPLINE
  5
1be
100
AcDbEntity
  8
9_PLASTICS_1
 62
6
100
AcDbSpline
 70
8
 71
3
 72
8
 73
4
 74
0
 40
0
 40
0
 40
0
 40
0
 40
1
 40
1
 40
1
 40
1
 10
0.630296
 20
13.860587
 30
0.0
 10
0.669285
 20
13.587116
 30
0.0
 10
0.542848
 20
13.316472
 30
0.0
 10
0.308098
 20
13.170878
 30
0.0
  0
SPLINE
  5
1bf
100
AcDbEntity
  8
9_PLASTICS_1
 62
6
100
AcDbSpline
 70
8
 71
3
 72
8
 73
4
 74
0
 40
0
 40
0
 40
0
 40
0
 40
1
 40
1
 40
1
 40
1
 10
0.308098
 20
13.170878
 30
0.0
 10
0.291963
 20
13.160879
 30
0.0
 10
0.292421
 20
13.137247
 30
0.0
 10
0.308827
 20
13.127893
 30
0.0
  0
LINE
  5
1c0
100
AcDbEntity
  8
9_PLASTICS_1
 62
6
100
AcDbLine
 10
0.308827
 20
13.127893
 30
0.0
 11
3.160869
 21
11.512358
 31
0.0
  0
SPLINE
  5
1c1
100
AcDbEntity
  8
9_PLASTICS_1
 62
6
100
AcDbSpline
 70
8
 71
3
 72
8
 73
4
 74
0
 40
0
 40
0
 40
0
 40
0
 40
1
 40
1
 40
1
 40
1
 10
3.160869
 20
11.512358
 30
0.0
 10
3.284275
 20
11.442473
 30
0.0
 10
3.435359
 20
11.443093
 30
0.0
 10
3.557890
 20
11.513943
 30
0.0
  0
LINE
  5
1c2
100
AcDbEntity
  8
9_PLASTICS_1
 62
6
100
AcDbLine
 10
3.557890
 20
11.513943
 30
0.0
 11
4.380682
 21
11.988926
 31
0.0
  0
SPLINE
  5
1c3
100
AcDbEntity
  8
9_PLASTICS_1
 62
6
100
AcDbSpline
 70
8
 71
3
 72
8
 73
4
 74
0
 40
0
 40
0
 40
0
 40
0
 40
1
 40
1
 40
1
 40
1
 10
4.380682
 20
11.988926
 30
0.0
 10
4.404275
 20
12.002494
 30
0.0
 10
4.392369
 20
12.038525
 30
0.0
 10
4.365182
 20
12.035398
 30
0.0
  0
LINE
  5
1c4
100
AcDbEntity
  8
9_PLASTICS_1
 62
6
100
AcDbLine
 10
4.365182
 20
12.035398
 30
0.0
 11
3.658661
 21
11.954012
 31
0.0
  0
LINE
  5
1c5
100
AcDbEntity
  8
9_PLASTICS_1
 62
6
100
AcDbLine
 10
6.086869
 20
23.249967
 30
0.0
 11
10.312849
 21
23.249966
 31
0.0
  0
LINE
  5
1c6
100
AcDbEntity
  8
9_PLASTICS_1
 62
6
100
AcDbLine
 10
10.312849
 20
23.249966
 30
0.0
 11
10.312849
 21
23.749966
 31
0.0
  0
LINE
  5
1c7
100
AcDbEntity
  8
9_PLASTICS_1
 62
6
100
AcDbLine
 10
10.312849
 20
23.749966
 30
0.0
 11
0.250348
 21
23.749966
 31
0.0
  0
LINE
  5
1c8
100
AcDbEntity
  8
9_PLASTICS_1
 62
6
100
AcDbLine
 10
0.250348
 20
23.749966
 30
0.0
 11
0.250348
 21
14.671944
 31
0.0
  0
LINE
  5
1c9
100
AcDbEntity
  8
9_PLASTICS_1
 62
6
100
AcDbLine
 10
0.250348
 20
14.671944
 30
0.0
 11
0.770233
 21
14.671939
 31
0.0
  0
SPLINE
  5
1ca
100
AcDbEntity
  8
9_PLASTICS_1
 62
6
100
AcDbSpline
 70
8
 71
3
 72
8
 73
4
 74
0
 40
0
 40
0
 40
0
 40
0
 40
1
 40
1
 40
1
 40
1
 10
0.770233
 20
14.671939
 30
0.0
 10
0.731233
 20
16.446494
 30
0.0
 10
1.176848
 20
18.198114
 30
0.0
 10
2.059202
 20
19.738258
 30
0.0
  0
SPLINE
  5
1cb
100
AcDbEntity
  8
9_PLASTICS_1
 62
6
100
AcDbSpline
 70
8
 71
3
 72
8
 73
4
 74
0
 40
0
 40
0
 40
0
 40
0
 40
1
 40
1
 40
1
 40
1
 10
2.059202
 20
19.738258
 30
0.0
 10
2.690161
 20
20.744073
 30
0.0
 10
3.678307
 20
21.473920
 30
0.0
 10
4.825265
 20
21.781220
 30
0.0
  0
LINE
  5
1cc
100
AcDbEntity
  8
9_PLASTICS_1
 62
6
100
AcDbLine
 10
4.825265
 20
21.781220
 30
0.0
 11
5.527348
 21
21.969343
 31
0.0
  0
SPLINE
  5
1cd
100
AcDbEntity
  8
9_PLASTICS_1
 62
6
100
AcDbSpline
 70
8
 71
3
 72
8
 73
4
 74
0
 40
0
 40
0
 40
0
 40
0
 40
1
 40
1
 40
1
 40
1
 10
5.527348
 20
21.969343
 30
0.0
 10
5.740640
 20
22.026520
 30
0.0
 10
5.867276
 20
22.245855
 30
0.0
 10
5.809911
 20
22.459240
 30
0.0
  0
LINE
  5
1ce
100
AcDbEntity
  8
9_PLASTICS_1
 62
6
100
AcDbLine
 10
5.809911
 20
22.459240
 30
0.0
 11
5.724505
 21
22.777897
 31
0.0
  0
SPLINE
  5
1cf
100
AcDbEntity
  8
9_PLASTICS_1
 62
6
100
AcDbSpline
 70
8
 71
3
 72
8
 73
4
 74
0
 40
0
 40
0
 40
0
 40
0
 40
1
 40
1
 40
1
 40
1
 10
5.724505
 20
22.777897
 30
0.0
 10
5.660900
 20
23.016081
 30
0.0
 10
5.840359
 20
23.249967
 30
0.0
 10
6.086869
 20
23.249967
 30
0.0
  0
LINE
  5
1d0
100
AcDbEntity
  8
9_PLASTICS_1
 62
6
100
AcDbLine
 10
6.086869
 20
23.249967
 30
0.0
 11
6.086869
 21
23.249967
 31
0.0
  0
SPLINE
  5
1d1
100
AcDbEntity
  8
9_PLASTICS_1
 62
3
100
AcDbSpline
 70
8
 71
3
 72
8
 73
4
 74
0
 40
0
 40
0
 40
0
 40
0
 40
1
 40
1
 40
1
 40
1
 10
0.575348
 20
21.749969
 30
0.0
 10
0.575348
 20
21.791391
 30
0.0
 10
0.541765
 20
21.824969
 30
0.0
 10
0.500348
 20
21.824969
 30
0.0
  0
SPLINE
  5
1d2
100
AcDbEntity
  8
9_PLASTICS_1
 62
3
100
AcDbSpline
 70
8
 71
3
 72
8
 73
4
 74
0
 40
0
 40
0
 40
0
 40
0
 40
1
 40
1
 40
1
 40
1
 10
0.500348
 20
21.824969
 30
0.0
 10
0.458931
 20
21.824969
 30
0.0
 10
0.425348
 20
21.791391
 30
0.0
 10
0.425348
 20
21.749969
 30
0.0
  0
SPLINE
  5
1d3
100
AcDbEntity
  8
9_PLASTICS_1
 62
3
100
AcDbSpline
 70
8
 71
3
 72
8
 73
4
 74
0
 40
0
 40
0
 40
0
 40
0
 40
1
 40
1
 40
1
 40
1
 10
0.425348
 20
21.749969
 30
0.0
 10
0.425348
 20
21.708547
 30
0.0
 10
0.458931
 20
21.674969
 30
0.0
 10
0.500348
 20
21.674969
 30
0.0
  0
SPLINE
  5
1d4
100
AcDbEntity
  8
9_PLASTICS_1
 62
3
100
AcDbSpline
 70
8
 71
3
 72
8
 73
4
 74
0
 40
0
 40
0
 40
0
 40
0
 40
1
 40
1
 40
1
 40
1
 10
0.500348
 20
21.674969
 30
0.0
 10
0.541765
 20
21.674969
 30
0.0
 10
0.575348
 20
21.708547
 30
0.0
 10
0.575348
 20
21.749969
 30
0.0
  0
LINE
  5
1d5
100
AcDbEntity
  8
9_PLASTICS_1
 62
3
100
AcDbLine
 10
0.575348
 20
21.749969
 30
0.0
 11
0.575348
 21
21.749969
 31
0.0
  0
SPLINE
  5
1d6
100
AcDbEntity
  8
9_PLASTICS_1
 62
3
100
AcDbSpline
 70
8
 71
3
 72
8
 73
4
 74
0
 40
0
 40
0
 40
0
 40
0
 40
1
 40
1
 40
1
 40
1
 10
5.498723
 20
22.355714
 30
0.0
 10
5.498723
 20
22.397135
 30
0.0
 10
5.465140
 20
22.430714
 30
0.0
 10
5.423723
 20
22.430714
 30
0.0
  0
SPLINE
  5
1d7
100
AcDbEntity
  8
9_PLASTICS_1
 62
3
100
AcDbSpline
 70
8
 71
3
 72
8
 73
4
 74
0
 40
0
 40
0
 40
0
 40
0
 40
1
 40
1
 40
1
 40
1
 10
5.423723
 20
22.430714
 30
0.0
 10
5.382307
 20
22.430714
 30
0.0
 10
5.348723
 20
22.397135
 30
0.0
 10
5.348723
 20
22.355714
 30
0.0
  0
SPLINE
  5
1d8
100
AcDbEntity
  8
9_PLASTICS_1
 62
3
100
AcDbSpline
 70
8
 71
3
 72
8
 73
4
 74
0
 40
0
 40
0
 40
0
 40
0
 40
1
 40
1
 40
1
 40
1
 10
5.348723
 20
22.355714
 30
0.0
 10
5.348723
 20
22.314292
 30
0.0
 10
5.382307
 20
22.280714
 30
0.0
 10
5.423723
 20
22.280714
 30
0.0
  0
SPLINE
  5
1d9
100
AcDbEntity
  8
9_PLASTICS_1
 62
3
100
AcDbSpline
 70
8
 71
3
 72
8
 73
4
 74
0
 40
0
 40
0
 40
0
 40
0
 40
1
 40
1
 40
1
 40
1
 10
5.423723
 20
22.280714
 30
0.0
 10
5.465140
 20
22.280714
 30
0.0
 10
5.498723
 20
22.314292
 30
0.0
 10
5.498723
 20
22.355714
 30
0.0
  0
LINE
  5
1da
100
AcDbEntity
  8
9_PLASTICS_1
 62
3
100
AcDbLine
 10
5.498723
 20
22.355714
 30
0.0
 11
5.498723
 21
22.355714
 31
0.0
  0
SPLINE
  5
1db
100
AcDbEntity
  8
9_PLASTICS_1
 62
3
100
AcDbSpline
 70
8
 71
3
 72
8
 73
4
 74
0
 40
0
 40
0
 40
0
 40
0
 40
1
 40
1
 40
1
 40
1
 10
0.585338
 20
16.171935
 30
0.0
 10
0.585338
 20
16.213357
 30
0.0
 10
0.551754
 20
16.246935
 30
0.0
 10
0.510338
 20
16.246935
 30
0.0
  0
SPLINE
  5
1dc
100
AcDbEntity
  8
9_PLASTICS_1
 62
3
100
AcDbSpline
 70
8
 71
3
 72
8
 73
4
 74
0
 40
0
 40
0
 40
0
 40
0
 40
1
 40
1
 40
1
 40
1
 10
0.510338
 20
16.246935
 30
0.0
 10
0.468921
 20
16.246935
 30
0.0
 10
0.435338
 20
16.213357
 30
0.0
 10
0.435338
 20
16.171935
 30
0.0
  0
SPLINE
  5
1dd
100
AcDbEntity
  8
9_PLASTICS_1
 62
3
100
AcDbSpline
 70
8
 71
3
 72
8
 73
4
 74
0
 40
0
 40
0
 40
0
 40
0
 40
1
 40
1
 40
1
 40
1
 10
0.435338
 20
16.171935
 30
0.0
 10
0.435338
 20
16.130513
 30
0.0
 10
0.468921
 20
16.096935
 30
0.0
 10
0.510338
 20
16.096935
 30
0.0
  0
SPLINE
  5
1de
100
AcDbEntity
  8
9_PLASTICS_1
 62
3
100
AcDbSpline
 70
8
 71
3
 72
8
 73
4
 74
0
 40
0
 40
0
 40
0
 40
0
 40
1
 40
1
 40
1
 40
1
 10
0.510338
 20
16.096935
 30
0.0
 10
0.551754
 20
16.096935
 30
0.0
 10
0.585338
 20
16.130513
 30
0.0
 10
0.585338
 20
16.171935
 30
0.0
  0
LINE
  5
1df
100
AcDbEntity
  8
9_PLASTICS_1
 62
3
100
AcDbLine
 10
0.585338
 20
16.171935
 30
0.0
 11
0.585338
 21
16.171935
 31
0.0
  0
SPLINE
  5
1e0
100
AcDbEntity
  8
9_PLASTICS_1
 62
3
100
AcDbSpline
 70
8
 71
3
 72
8
 73
4
 74
0
 40
0
 40
0
 40
0
 40
0
 40
1
 40
1
 40
1
 40
1
 10
5.504630
 20
16.121367
 30
0.0
 10
5.504630
 20
16.162789
 30
0.0
 10
5.471046
 20
16.196367
 30
0.0
 10
5.429630
 20
16.196367
 30
0.0
  0
SPLINE
  5
1e1
100
AcDbEntity
  8
9_PLASTICS_1
 62
3
100
AcDbSpline
 70
8
 71
3
 72
8
 73
4
 74
0
 40
0
 40
0
 40
0
 40
0
 40
1
 40
1
 40
1
 40
1
 10
5.429630
 20
16.196367
 30
0.0
 10
5.388213
 20
16.196367
 30
0.0
 10
5.354630
 20
16.162789
 30
0.0
 10
5.354630
 20
16.121367
 30
0.0
  0
SPLINE
  5
1e2
100
AcDbEntity
  8
9_PLASTICS_1
 62
3
100
AcDbSpline
 70
8
 71
3
 72
8
 73
4
 74
0
 40
0
 40
0
 40
0
 40
0
 40
1
 40
1
 40
1
 40
1
 10
5.354630
 20
16.121367
 30
0.0
 10
5.354630
 20
16.079945
 30
0.0
 10
5.388213
 20
16.046367
 30
0.0
 10
5.429630
 20
16.046367
 30
0.0
  0
SPLINE
  5
1e3
100
AcDbEntity
  8
9_PLASTICS_1
 62
3
100
AcDbSpline
 70
8
 71
3
 72
8
 73
4
 74
0
 40
0
 40
0
 40
0
 40
0
 40
1
 40
1
 40
1
 40
1
 10
5.429630
 20
16.046367
 30
0.0
 10
5.471046
 20
16.046367
 30
0.0
 10
5.504630
 20
16.079945
 30
0.0
 10
5.504630
 20
16.121367
 30
0.0
  0
LINE
  5
1e4
100
AcDbEntity
  8
9_PLASTICS_1
 62
3
100
AcDbLine
 10
5.504630
 20
16.121367
 30
0.0
 11
5.504630
 21
16.121367
 31
0.0
  0
SPLINE
  5
1e5
100
AcDbEntity
  8
9_PLASTICS_1
 62
6
100
AcDbSpline
 70
8
 71
3
 72
8
 73
4
 74
0
 40
0
 40
0
 40
0
 40
0
 40
1
 40
1
 40
1
 40
1
 10
5.062723
 20
16.739778
 30
0.0
 10
4.930859
 20
16.802679
 30
0.0
 10
4.833338
 20
16.920180
 30
0.0
 10
4.795984
 20
17.061231
 30
0.0
  0
LINE
  5
1e6
100
AcDbEntity
  8
9_PLASTICS_1
 62
6
100
AcDbLine
 10
4.795984
 20
17.061231
 30
0.0
 11
4.407598
 21
18.510154
 31
0.0
  0
SPLINE
  5
1e7
100
AcDbEntity
  8
9_PLASTICS_1
 62
6
100
AcDbSpline
 70
8
 71
3
 72
8
 73
4
 74
0
 40
0
 40
0
 40
0
 40
0
 40
1
 40
1
 40
1
 40
1
 10
4.407598
 20
18.510154
 30
0.0
 10
3.824682
 20
17.597248
 30
0.0
 10
3.437775
 20
16.573235
 30
0.0
 10
3.271275
 20
15.502987
 30
0.0
  0
LINE
  5
1e8
100
AcDbEntity
  8
9_PLASTICS_1
 62
6
100
AcDbLine
 10
3.271275
 20
15.502987
 30
0.0
 11
3.634942
 21
15.376930
 31
0.0
  0
SPLINE
  5
1e9
100
AcDbEntity
  8
9_PLASTICS_1
 62
6
100
AcDbSpline
 70
8
 71
3
 72
8
 73
4
 74
0
 40
0
 40
0
 40
0
 40
0
 40
1
 40
1
 40
1
 40
1
 10
3.634942
 20
15.376930
 30
0.0
 10
3.684369
 20
15.359862
 30
0.0
 10
3.738900
 20
15.369556
 30
0.0
 10
3.779223
 20
15.402522
 30
0.0
  0
SPLINE
  5
1ea
100
AcDbEntity
  8
9_PLASTICS_1
 62
6
100
AcDbSpline
 70
8
 71
3
 72
8
 73
4
 74
0
 40
0
 40
0
 40
0
 40
0
 40
1
 40
1
 40
1
 40
1
 10
3.779223
 20
15.402522
 30
0.0
 10
4.251619
 20
15.788801
 30
0.0
 10
4.914598
 20
15.840018
 30
0.0
 10
5.440723
 20
15.530879
 30
0.0
  0
SPLINE
  5
1eb
100
AcDbEntity
  8
9_PLASTICS_1
 62
6
100
AcDbSpline
 70
8
 71
3
 72
8
 73
4
 74
0
 40
0
 40
0
 40
0
 40
0
 40
1
 40
1
 40
1
 40
1
 10
5.440723
 20
15.530879
 30
0.0
 10
5.520171
 20
15.484196
 30
0.0
 10
5.622525
 20
15.519510
 30
0.0
 10
5.656442
 20
15.605262
 30
0.0
  0
LINE
  5
1ec
100
AcDbEntity
  8
9_PLASTICS_1
 62
6
100
AcDbLine
 10
5.656442
 20
15.605262
 30
0.0
 11
5.709723
 21
15.742153
 31
0.0
  0
LINE
  5
1ed
100
AcDbEntity
  8
9_PLASTICS_1
 62
6
100
AcDbLine
 10
5.709723
 20
15.742153
 30
0.0
 11
5.801598
 21
15.974836
 31
0.0
  0
SPLINE
  5
1ee
100
AcDbEntity
  8
9_PLASTICS_1
 62
6
100
AcDbSpline
 70
8
 71
3
 72
8
 73
4
 74
0
 40
0
 40
0
 40
0
 40
0
 40
1
 40
1
 40
1
 40
1
 10
5.801598
 20
15.974836
 30
0.0
 10
5.878765
 20
16.170228
 30
0.0
 10
5.791484
 20
16.391879
 30
0.0
 10
5.602182
 20
16.482356
 30
0.0
  0
LINE
  5
1ef
100
AcDbEntity
  8
9_PLASTICS_1
 62
6
100
AcDbLine
 10
5.602182
 20
16.482356
 30
0.0
 11
5.062723
 21
16.739778
 31
0.0
  0
SPLINE
  5
1f0
100
AcDbEntity
  8
9_PLASTICS_1
 62
6
100
AcDbSpline
 70
8
 71
3
 72
8
 73
4
 74
0
 40
0
 40
0
 40
0
 40
0
 40
1
 40
1
 40
1
 40
1
 10
7.001182
 20
3.445469
 30
0.0
 10
7.093099
 20
3.588082
 30
0.0
 10
7.283390
 20
3.629044
 30
0.0
 10
7.426036
 20
3.536982
 30
0.0
  0
SPLINE
  5
1f1
100
AcDbEntity
  8
9_PLASTICS_1
 62
6
100
AcDbSpline
 70
8
 71
3
 72
8
 73
4
 74
0
 40
0
 40
0
 40
0
 40
0
 40
1
 40
1
 40
1
 40
1
 10
7.426036
 20
3.536982
 30
0.0
 10
7.544921
 20
3.012816
 30
0.0
 10
7.961817
 20
2.608093
 30
0.0
 10
8.489307
 20
2.504777
 30
0.0
  0
SPLINE
  5
1f2
100
AcDbEntity
  8
9_PLASTICS_1
 62
6
100
AcDbSpline
 70
8
 71
3
 72
8
 73
4
 74
0
 40
0
 40
0
 40
0
 40
0
 40
1
 40
1
 40
1
 40
1
 10
8.489307
 20
2.504777
 30
0.0
 10
9.016786
 20
2.401462
 30
0.0
 10
9.555567
 20
2.619001
 30
0.0
 10
9.863463
 20
3.059576
 30
0.0
  0
SPLINE
  5
1f3
100
AcDbEntity
  8
9_PLASTICS_1
 62
6
100
AcDbSpline
 70
8
 71
3
 72
8
 73
4
 74
0
 40
0
 40
0
 40
0
 40
0
 40
1
 40
1
 40
1
 40
1
 10
9.863463
 20
3.059576
 30
0.0
 10
10.050620
 20
3.102045
 30
0.0
 10
10.236515
 20
2.983766
 30
0.0
 10
10.277370
 20
2.796225
 30
0.0
  0
LINE
  5
1f4
100
AcDbEntity
  8
9_PLASTICS_1
 62
6
100
AcDbLine
 10
10.277370
 20
2.796225
 30
0.0
 11
10.431828
 21
2.084650
 31
0.0
  0
SPLINE
  5
1f5
100
AcDbEntity
  8
9_PLASTICS_1
 62
6
100
AcDbSpline
 70
8
 71
3
 72
8
 73
4
 74
0
 40
0
 40
0
 40
0
 40
0
 40
1
 40
1
 40
1
 40
1
 10
10.431828
 20
2.084650
 30
0.0
 10
10.493390
 20
1.802644
 30
0.0
 10
10.244995
 20
1.550473
 30
0.0
 10
9.961953
 20
1.607554
 30
0.0
  0
LINE
  5
1f6
100
AcDbEntity
  8
9_PLASTICS_1
 62
6
100
AcDbLine
 10
9.961953
 20
1.607554
 30
0.0
 11
6.867213
 21
2.231829
 31
0.0
  0
SPLINE
  5
1f7
100
AcDbEntity
  8
9_PLASTICS_1
 62
6
100
AcDbSpline
 70
8
 71
3
 72
8
 73
4
 74
0
 40
0
 40
0
 40
0
 40
0
 40
1
 40
1
 40
1
 40
1
 10
6.867213
 20
2.231829
 30
0.0
 10
6.590411
 20
2.287696
 30
0.0
 10
6.457109
 20
2.605389
 30
0.0
 10
6.611557
 20
2.842171
 30
0.0
  0
LINE
  5
1f8
100
AcDbEntity
  8
9_PLASTICS_1
 62
6
100
AcDbLine
 10
6.611557
 20
2.842171
 30
0.0
 11
7.001182
 21
3.445469
 31
0.0
  0
SPLINE
  5
1f9
100
AcDbEntity
  8
9_PLASTICS_1
 62
3
100
AcDbSpline
 70
8
 71
3
 72
8
 73
4
 74
0
 40
0
 40
0
 40
0
 40
0
 40
1
 40
1
 40
1
 40
1
 10
10.116203
 20
1.999642
 30
0.0
 10
10.116203
 20
2.041064
 30
0.0
 10
10.082620
 20
2.074642
 30
0.0
 10
10.041203
 20
2.074642
 30
0.0
  0
SPLINE
  5
1fa
100
AcDbEntity
  8
9_PLASTICS_1
 62
3
100
AcDbSpline
 70
8
 71
3
 72
8
 73
4
 74
0
 40
0
 40
0
 40
0
 40
0
 40
1
 40
1
 40
1
 40
1
 10
10.041203
 20
2.074642
 30
0.0
 10
9.999786
 20
2.074642
 30
0.0
 10
9.966203
 20
2.041064
 30
0.0
 10
9.966203
 20
1.999642
 30
0.0
  0
SPLINE
  5
1fb
100
AcDbEntity
  8
9_PLASTICS_1
 62
3
100
AcDbSpline
 70
8
 71
3
 72
8
 73
4
 74
0
 40
0
 40
0
 40
0
 40
0
 40
1
 40
1
 40
1
 40
1
 10
9.966203
 20
1.999642
 30
0.0
 10
9.966203
 20
1.958220
 30
0.0
 10
9.999786
 20
1.924642
 30
0.0
 10
10.041203
 20
1.924642
 30
0.0
  0
SPLINE
  5
1fc
100
AcDbEntity
  8
9_PLASTICS_1
 62
3
100
AcDbSpline
 70
8
 71
3
 72
8
 73
4
 74
0
 40
0
 40
0
 40
0
 40
0
 40
1
 40
1
 40
1
 40
1
 10
10.041203
 20
1.924642
 30
0.0
 10
10.082620
 20
1.924642
 30
0.0
 10
10.116203
 20
1.958220
 30
0.0
 10
10.116203
 20
1.999642
 30
0.0
  0
LINE
  5
1fd
100
AcDbEntity
  8
9_PLASTICS_1
 62
3
100
AcDbLine
 10
10.116203
 20
1.999642
 30
0.0
 11
10.116203
 21
1.999642
 31
0.0
  0
SPLINE
  5
1fe
100
AcDbEntity
  8
9_PLASTICS_1
 62
3
100
AcDbSpline
 70
8
 71
3
 72
8
 73
4
 74
0
 40
0
 40
0
 40
0
 40
0
 40
1
 40
1
 40
1
 40
1
 10
7.021505
 20
2.623920
 30
0.0
 10
7.021505
 20
2.665342
 30
0.0
 10
6.987921
 20
2.698920
 30
0.0
 10
6.946505
 20
2.698920
 30
0.0
  0
SPLINE
  5
1ff
100
AcDbEntity
  8
9_PLASTICS_1
 62
3
100
AcDbSpline
 70
8
 71
3
 72
8
 73
4
 74
0
 40
0
 40
0
 40
0
 40
0
 40
1
 40
1
 40
1
 40
1
 10
6.946505
 20
2.698920
 30
0.0
 10
6.905088
 20
2.698920
 30
0.0
 10
6.871505
 20
2.665342
 30
0.0
 10
6.871505
 20
2.623920
 30
0.0
  0
SPLINE
  5
200
100
AcDbEntity
  8
9_PLASTICS_1
 62
3
100
AcDbSpline
 70
8
 71
3
 72
8
 73
4
 74
0
 40
0
 40
0
 40
0
 40
0
 40
1
 40
1
 40
1
 40
1
 10
6.871505
 20
2.623920
 30
0.0
 10
6.871505
 20
2.582498
 30
0.0
 10
6.905088
 20
2.548920
 30
0.0
 10
6.946505
 20
2.548920
 30
0.0
  0
SPLINE
  5
201
100
AcDbEntity
  8
9_PLASTICS_1
 62
3
100
AcDbSpline
 70
8
 71
3
 72
8
 73
4
 74
0
 40
0
 40
0
 40
0
 40
0
 40
1
 40
1
 40
1
 40
1
 10
6.946505
 20
2.548920
 30
0.0
 10
6.987921
 20
2.548920
 30
0.0
 10
7.021505
 20
2.582498
 30
0.0
 10
7.021505
 20
2.623920
 30
0.0
  0
LINE
  5
202
100
AcDbEntity
  8
9_PLASTICS_1
 62
3
100
AcDbLine
 10
7.021505
 20
2.623920
 30
0.0
 11
7.021505
 21
2.623920
 31
0.0
  0
LINE
  5
203
100
AcDbEntity
  8
9_PLASTICS_1
 62
6
100
AcDbLine
 10
4.398390
 20
9.165342
 30
0.0
 11
6.699401
 21
7.613318
 31
0.0
  0
SPLINE
  5
204
100
AcDbEntity
  8
9_PLASTICS_1
 62
6
100
AcDbSpline
 70
8
 71
3
 72
8
 73
4
 74
0
 40
0
 40
0
 40
0
 40
0
 40
1
 40
1
 40
1
 40
1
 10
6.699401
 20
7.613318
 30
0.0
 10
6.787942
 20
7.553674
 30
0.0
 10
6.828786
 20
7.444441
 30
0.0
 10
6.801286
 20
7.341388
 30
0.0
  0
LINE
  5
205
100
AcDbEntity
  8
9_PLASTICS_1
 62
6
100
AcDbLine
 10
6.801286
 20
7.341388
 30
0.0
 11
6.693067
 21
6.938704
 31
0.0
  0
LINE
  5
206
100
AcDbEntity
  8
9_PLASTICS_1
 62
6
100
AcDbLine
 10
6.693067
 20
6.938704
 30
0.0
 11
6.305296
 21
5.489756
 31
0.0
  0
SPLINE
  5
207
100
AcDbEntity
  8
9_PLASTICS_1
 62
6
100
AcDbSpline
 70
8
 71
3
 72
8
 73
4
 74
0
 40
0
 40
0
 40
0
 40
0
 40
1
 40
1
 40
1
 40
1
 10
6.305296
 20
5.489756
 30
0.0
 10
6.245192
 20
5.266410
 30
0.0
 10
6.346296
 20
5.031164
 30
0.0
 10
6.549421
 20
4.920882
 30
0.0
  0
LINE
  5
208
100
AcDbEntity
  8
9_PLASTICS_1
 62
6
100
AcDbLine
 10
6.549421
 20
4.920882
 30
0.0
 11
6.757401
 21
4.808262
 31
0.0
  0
SPLINE
  5
209
100
AcDbEntity
  8
9_PLASTICS_1
 62
6
100
AcDbSpline
 70
8
 71
3
 72
8
 73
4
 74
0
 40
0
 40
0
 40
0
 40
0
 40
1
 40
1
 40
1
 40
1
 10
6.757401
 20
4.808262
 30
0.0
 10
6.878505
 20
4.742391
 30
0.0
 10
6.923494
 20
4.590630
 30
0.0
 10
6.857640
 20
4.469307
 30
0.0
  0
LINE
  5
20a
100
AcDbEntity
  8
9_PLASTICS_1
 62
6
100
AcDbLine
 10
6.857640
 20
4.469307
 30
0.0
 11
6.112776
 21
3.096544
 31
0.0
  0
SPLINE
  5
20b
100
AcDbEntity
  8
9_PLASTICS_1
 62
6
100
AcDbSpline
 70
8
 71
3
 72
8
 73
4
 74
0
 40
0
 40
0
 40
0
 40
0
 40
1
 40
1
 40
1
 40
1
 10
6.112776
 20
3.096544
 30
0.0
 10
6.050171
 20
2.981315
 30
0.0
 10
5.909213
 20
2.933969
 30
0.0
 10
5.789848
 20
2.988116
 30
0.0
  0
LINE
  5
20c
100
AcDbEntity
  8
9_PLASTICS_1
 62
6
100
AcDbLine
 10
5.789848
 20
2.988116
 30
0.0
 11
4.342775
 21
3.644058
 31
0.0
  0
SPLINE
  5
20d
100
AcDbEntity
  8
9_PLASTICS_1
 62
6
100
AcDbSpline
 70
8
 71
3
 72
8
 73
4
 74
0
 40
0
 40
0
 40
0
 40
0
 40
1
 40
1
 40
1
 40
1
 10
4.342775
 20
3.644058
 30
0.0
 10
4.241921
 20
3.689638
 30
0.0
 10
4.123390
 20
3.645037
 30
0.0
 10
4.077588
 20
3.544432
 30
0.0
  0
LINE
  5
20e
100
AcDbEntity
  8
9_PLASTICS_1
 62
6
100
AcDbLine
 10
4.077588
 20
3.544432
 30
0.0
 11
3.430629
 21
2.116718
 31
0.0
  0
SPLINE
  5
20f
100
AcDbEntity
  8
9_PLASTICS_1
 62
6
100
AcDbSpline
 70
8
 71
3
 72
8
 73
4
 74
0
 40
0
 40
0
 40
0
 40
0
 40
1
 40
1
 40
1
 40
1
 10
3.430629
 20
2.116718
 30
0.0
 10
3.385150
 20
2.016102
 30
0.0
 10
3.429796
 20
1.897581
 30
0.0
 10
3.530432
 20
1.852013
 30
0.0
  0
LINE
  5
210
100
AcDbEntity
  8
9_PLASTICS_1
 62
6
100
AcDbLine
 10
3.530432
 20
1.852013
 30
0.0
 11
5.192807
 21
1.098674
 31
0.0
  0
SPLINE
  5
211
100
AcDbEntity
  8
9_PLASTICS_1
 62
6
100
AcDbSpline
 70
8
 71
3
 72
8
 73
4
 74
0
 40
0
 40
0
 40
0
 40
0
 40
1
 40
1
 40
1
 40
1
 10
5.192807
 20
1.098674
 30
0.0
 10
5.318369
 20
1.041649
 30
0.0
 10
5.466525
 20
1.097394
 30
0.0
 10
5.523369
 20
1.223147
 30
0.0
  0
LINE
  5
212
100
AcDbEntity
  8
9_PLASTICS_1
 62
6
100
AcDbLine
 10
5.523369
 20
1.223147
 30
0.0
 11
5.531515
 21
1.240730
 31
0.0
  0
SPLINE
  5
213
100
AcDbEntity
  8
9_PLASTICS_1
 62
6
100
AcDbSpline
 70
8
 71
3
 72
8
 73
4
 74
0
 40
0
 40
0
 40
0
 40
0
 40
1
 40
1
 40
1
 40
1
 10
5.531515
 20
1.240730
 30
0.0
 10
5.581473
 20
1.351040
 30
0.0
 10
5.703359
 20
1.409651
 30
0.0
 10
5.820765
 20
1.379794
 30
0.0
  0
SPLINE
  5
214
100
AcDbEntity
  8
9_PLASTICS_1
 62
6
100
AcDbSpline
 70
8
 71
3
 72
8
 73
4
 74
0
 40
0
 40
0
 40
0
 40
0
 40
1
 40
1
 40
1
 40
1
 10
5.820765
 20
1.379794
 30
0.0
 10
7.290536
 20
1.006296
 30
0.0
 10
8.796911
 20
0.795668
 30
0.0
 10
10.312786
 20
0.751712
 30
0.0
  0
LINE
  5
215
100
AcDbEntity
  8
9_PLASTICS_1
 62
6
100
AcDbLine
 10
10.312786
 20
0.751712
 30
0.0
 11
10.312786
 21
0.249964
 31
0.0
  0
LINE
  5
216
100
AcDbEntity
  8
9_PLASTICS_1
 62
6
100
AcDbLine
 10
10.312786
 20
0.249964
 30
0.0
 11
0.250285
 21
0.249964
 31
0.0
  0
LINE
  5
217
100
AcDbEntity
  8
9_PLASTICS_1
 62
6
100
AcDbLine
 10
0.250285
 20
0.249964
 30
0.0
 11
0.250285
 21
10.129235
 31
0.0
  0
LINE
  5
218
100
AcDbEntity
  8
9_PLASTICS_1
 62
6
100
AcDbLine
 10
0.250285
 20
10.129235
 30
0.0
 11
0.750285
 21
10.129235
 31
0.0
  0
SPLINE
  5
219
100
AcDbEntity
  8
9_PLASTICS_1
 62
6
100
AcDbSpline
 70
8
 71
3
 72
8
 73
4
 74
0
 40
0
 40
0
 40
0
 40
0
 40
1
 40
1
 40
1
 40
1
 10
0.750285
 20
10.129235
 30
0.0
 10
0.750285
 20
9.507934
 30
0.0
 10
1.253963
 20
9.004255
 30
0.0
 10
1.875286
 20
9.004255
 30
0.0
  0
SPLINE
  5
21a
100
AcDbEntity
  8
9_PLASTICS_1
 62
6
100
AcDbSpline
 70
8
 71
3
 72
8
 73
4
 74
0
 40
0
 40
0
 40
0
 40
0
 40
1
 40
1
 40
1
 40
1
 10
1.875286
 20
9.004255
 30
0.0
 10
2.496609
 20
9.004255
 30
0.0
 10
3.000286
 20
9.507934
 30
0.0
 10
3.000286
 20
10.129255
 30
0.0
  0
SPLINE
  5
21b
100
AcDbEntity
  8
9_PLASTICS_1
 62
6
100
AcDbSpline
 70
8
 71
3
 72
8
 73
4
 74
0
 40
0
 40
0
 40
0
 40
0
 40
1
 40
1
 40
1
 40
1
 10
3.000286
 20
10.129255
 30
0.0
 10
3.000286
 20
10.312925
 30
0.0
 10
3.125369
 20
10.472993
 30
0.0
 10
3.303588
 20
10.517394
 30
0.0
  0
SPLINE
  5
21c
100
AcDbEntity
  8
9_PLASTICS_1
 62
6
100
AcDbSpline
 70
8
 71
3
 72
8
 73
4
 74
0
 40
0
 40
0
 40
0
 40
0
 40
1
 40
1
 40
1
 40
1
 10
3.303588
 20
10.517394
 30
0.0
 10
3.481807
 20
10.561795
 30
0.0
 10
3.667369
 20
10.479115
 30
0.0
 10
3.753473
 20
10.316918
 30
0.0
  0
LINE
  5
21d
100
AcDbEntity
  8
9_PLASTICS_1
 62
6
100
AcDbLine
 10
3.753473
 20
10.316918
 30
0.0
 11
4.317734
 21
9.255257
 31
0.0
  0
SPLINE
  5
21e
100
AcDbEntity
  8
9_PLASTICS_1
 62
6
100
AcDbSpline
 70
8
 71
3
 72
8
 73
4
 74
0
 40
0
 40
0
 40
0
 40
0
 40
1
 40
1
 40
1
 40
1
 10
4.317734
 20
9.255257
 30
0.0
 10
4.336692
 20
9.219084
 30
0.0
 10
4.364505
 20
9.188187
 30
0.0
 10
4.398327
 20
9.165323
 30
0.0
  0
LINE
  5
21f
100
AcDbEntity
  8
9_PLASTICS_1
 62
6
100
AcDbLine
 10
4.398327
 20
9.165323
 30
0.0
 11
4.398390
 21
9.165342
 31
0.0
  0
SPLINE
  5
220
100
AcDbEntity
  8
9_PLASTICS_1
 62
3
100
AcDbSpline
 70
8
 71
3
 72
8
 73
4
 74
0
 40
0
 40
0
 40
0
 40
0
 40
1
 40
1
 40
1
 40
1
 10
3.475348
 20
10.129275
 30
0.0
 10
3.475348
 20
10.170697
 30
0.0
 10
3.441765
 20
10.204275
 30
0.0
 10
3.400348
 20
10.204275
 30
0.0
  0
SPLINE
  5
221
100
AcDbEntity
  8
9_PLASTICS_1
 62
3
100
AcDbSpline
 70
8
 71
3
 72
8
 73
4
 74
0
 40
0
 40
0
 40
0
 40
0
 40
1
 40
1
 40
1
 40
1
 10
3.400348
 20
10.204275
 30
0.0
 10
3.358932
 20
10.204275
 30
0.0
 10
3.325348
 20
10.170697
 30
0.0
 10
3.325348
 20
10.129275
 30
0.0
  0
SPLINE
  5
222
100
AcDbEntity
  8
9_PLASTICS_1
 62
3
100
AcDbSpline
 70
8
 71
3
 72
8
 73
4
 74
0
 40
0
 40
0
 40
0
 40
0
 40
1
 40
1
 40
1
 40
1
 10
3.325348
 20
10.129275
 30
0.0
 10
3.325348
 20
10.087853
 30
0.0
 10
3.358932
 20
10.054275
 30
0.0
 10
3.400348
 20
10.054275
 30
0.0
  0
SPLINE
  5
223
100
AcDbEntity
  8
9_PLASTICS_1
 62
3
100
AcDbSpline
 70
8
 71
3
 72
8
 73
4
 74
0
 40
0
 40
0
 40
0
 40
0
 40
1
 40
1
 40
1
 40
1
 10
3.400348
 20
10.054275
 30
0.0
 10
3.441765
 20
10.054275
 30
0.0
 10
3.475348
 20
10.087853
 30
0.0
 10
3.475348
 20
10.129275
 30
0.0
  0
LINE
  5
224
100
AcDbEntity
  8
9_PLASTICS_1
 62
3
100
AcDbLine
 10
3.475348
 20
10.129275
 30
0.0
 11
3.475348
 21
10.129275
 31
0.0
  0
SPLINE
  5
225
100
AcDbEntity
  8
9_PLASTICS_1
 62
3
100
AcDbSpline
 70
8
 71
3
 72
8
 73
4
 74
0
 40
0
 40
0
 40
0
 40
0
 40
1
 40
1
 40
1
 40
1
 10
0.575223
 20
8.629275
 30
0.0
 10
0.575223
 20
8.670697
 30
0.0
 10
0.541640
 20
8.704275
 30
0.0
 10
0.500223
 20
8.704275
 30
0.0
  0
SPLINE
  5
226
100
AcDbEntity
  8
9_PLASTICS_1
 62
3
100
AcDbSpline
 70
8
 71
3
 72
8
 73
4
 74
0
 40
0
 40
0
 40
0
 40
0
 40
1
 40
1
 40
1
 40
1
 10
0.500223
 20
8.704275
 30
0.0
 10
0.458806
 20
8.704275
 30
0.0
 10
0.425223
 20
8.670697
 30
0.0
 10
0.425223
 20
8.629275
 30
0.0
  0
SPLINE
  5
227
100
AcDbEntity
  8
9_PLASTICS_1
 62
3
100
AcDbSpline
 70
8
 71
3
 72
8
 73
4
 74
0
 40
0
 40
0
 40
0
 40
0
 40
1
 40
1
 40
1
 40
1
 10
0.425223
 20
8.629275
 30
0.0
 10
0.425223
 20
8.587853
 30
0.0
 10
0.458806
 20
8.554275
 30
0.0
 10
0.500223
 20
8.554275
 30
0.0
  0
SPLINE
  5
228
100
AcDbEntity
  8
9_PLASTICS_1
 62
3
100
AcDbSpline
 70
8
 71
3
 72
8
 73
4
 74
0
 40
0
 40
0
 40
0
 40
0
 40
1
 40
1
 40
1
 40
1
 10
0.500223
 20
8.554275
 30
0.0
 10
0.541640
 20
8.554275
 30
0.0
 10
0.575223
 20
8.587853
 30
0.0
 10
0.575223
 20
8.629275
 30
0.0
  0
LINE
  5
229
100
AcDbEntity
  8
9_PLASTICS_1
 62
3
100
AcDbLine
 10
0.575223
 20
8.629275
 30
0.0
 11
0.575223
 21
8.629275
 31
0.0
  0
SPLINE
  5
22a
100
AcDbEntity
  8
9_PLASTICS_1
 62
3
100
AcDbSpline
 70
8
 71
3
 72
8
 73
4
 74
0
 40
0
 40
0
 40
0
 40
0
 40
1
 40
1
 40
1
 40
1
 10
4.828411
 20
8.443491
 30
0.0
 10
4.828411
 20
8.484913
 30
0.0
 10
4.794827
 20
8.518491
 30
0.0
 10
4.753411
 20
8.518491
 30
0.0
  0
SPLINE
  5
22b
100
AcDbEntity
  8
9_PLASTICS_1
 62
3
100
AcDbSpline
 70
8
 71
3
 72
8
 73
4
 74
0
 40
0
 40
0
 40
0
 40
0
 40
1
 40
1
 40
1
 40
1
 10
4.753411
 20
8.518491
 30
0.0
 10
4.711994
 20
8.518491
 30
0.0
 10
4.678411
 20
8.484913
 30
0.0
 10
4.678411
 20
8.443491
 30
0.0
  0
SPLINE
  5
22c
100
AcDbEntity
  8
9_PLASTICS_1
 62
3
100
AcDbSpline
 70
8
 71
3
 72
8
 73
4
 74
0
 40
0
 40
0
 40
0
 40
0
 40
1
 40
1
 40
1
 40
1
 10
4.678411
 20
8.443491
 30
0.0
 10
4.678411
 20
8.402069
 30
0.0
 10
4.711994
 20
8.368491
 30
0.0
 10
4.753411
 20
8.368491
 30
0.0
  0
SPLINE
  5
22d
100
AcDbEntity
  8
9_PLASTICS_1
 62
3
100
AcDbSpline
 70
8
 71
3
 72
8
 73
4
 74
0
 40
0
 40
0
 40
0
 40
0
 40
1
 40
1
 40
1
 40
1
 10
4.753411
 20
8.368491
 30
0.0
 10
4.794827
 20
8.368491
 30
0.0
 10
4.828411
 20
8.402069
 30
0.0
 10
4.828411
 20
8.443491
 30
0.0
  0
LINE
  5
22e
100
AcDbEntity
  8
9_PLASTICS_1
 62
3
100
AcDbLine
 10
4.828411
 20
8.443491
 30
0.0
 11
4.828411
 21
8.443491
 31
0.0
  0
SPLINE
  5
22f
100
AcDbEntity
  8
9_PLASTICS_1
 62
3
100
AcDbSpline
 70
8
 71
3
 72
8
 73
4
 74
0
 40
0
 40
0
 40
0
 40
0
 40
1
 40
1
 40
1
 40
1
 10
1.825358
 20
23.499951
 30
0.0
 10
1.825358
 20
23.541373
 30
0.0
 10
1.791775
 20
23.574951
 30
0.0
 10
1.750358
 20
23.574951
 30
0.0
  0
SPLINE
  5
230
100
AcDbEntity
  8
9_PLASTICS_1
 62
3
100
AcDbSpline
 70
8
 71
3
 72
8
 73
4
 74
0
 40
0
 40
0
 40
0
 40
0
 40
1
 40
1
 40
1
 40
1
 10
1.750358
 20
23.574951
 30
0.0
 10
1.708942
 20
23.574951
 30
0.0
 10
1.675358
 20
23.541373
 30
0.0
 10
1.675358
 20
23.499951
 30
0.0
  0
SPLINE
  5
231
100
AcDbEntity
  8
9_PLASTICS_1
 62
3
100
AcDbSpline
 70
8
 71
3
 72
8
 73
4
 74
0
 40
0
 40
0
 40
0
 40
0
 40
1
 40
1
 40
1
 40
1
 10
1.675358
 20
23.499951
 30
0.0
 10
1.675358
 20
23.458529
 30
0.0
 10
1.708942
 20
23.424951
 30
0.0
 10
1.750358
 20
23.424951
 30
0.0
  0
SPLINE
  5
232
100
AcDbEntity
  8
9_PLASTICS_1
 62
3
100
AcDbSpline
 70
8
 71
3
 72
8
 73
4
 74
0
 40
0
 40
0
 40
0
 40
0
 40
1
 40
1
 40
1
 40
1
 10
1.750358
 20
23.424951
 30
0.0
 10
1.791775
 20
23.424951
 30
0.0
 10
1.825358
 20
23.458529
 30
0.0
 10
1.825358
 20
23.499951
 30
0.0
  0
LINE
  5
233
100
AcDbEntity
  8
9_PLASTICS_1
 62
3
100
AcDbLine
 10
1.825358
 20
23.499951
 30
0.0
 11
1.825358
 21
23.499951
 31
0.0
  0
SPLINE
  5
234
100
AcDbEntity
  8
9_PLASTICS_1
 62
3
100
AcDbSpline
 70
8
 71
3
 72
8
 73
4
 74
0
 40
0
 40
0
 40
0
 40
0
 40
1
 40
1
 40
1
 40
1
 10
8.075359
 20
4.376059
 30
0.0
 10
8.075359
 20
4.417481
 30
0.0
 10
8.041776
 20
4.451059
 30
0.0
 10
8.000359
 20
4.451059
 30
0.0
  0
SPLINE
  5
235
100
AcDbEntity
  8
9_PLASTICS_1
 62
3
100
AcDbSpline
 70
8
 71
3
 72
8
 73
4
 74
0
 40
0
 40
0
 40
0
 40
0
 40
1
 40
1
 40
1
 40
1
 10
8.000359
 20
4.451059
 30
0.0
 10
7.958942
 20
4.451059
 30
0.0
 10
7.925359
 20
4.417481
 30
0.0
 10
7.925359
 20
4.376059
 30
0.0
  0
SPLINE
  5
236
100
AcDbEntity
  8
9_PLASTICS_1
 62
3
100
AcDbSpline
 70
8
 71
3
 72
8
 73
4
 74
0
 40
0
 40
0
 40
0
 40
0
 40
1
 40
1
 40
1
 40
1
 10
7.925359
 20
4.376059
 30
0.0
 10
7.925359
 20
4.334637
 30
0.0
 10
7.958942
 20
4.301059
 30
0.0
 10
8.000359
 20
4.301059
 30
0.0
  0
SPLINE
  5
237
100
AcDbEntity
  8
9_PLASTICS_1
 62
3
100
AcDbSpline
 70
8
 71
3
 72
8
 73
4
 74
0
 40
0
 40
0
 40
0
 40
0
 40
1
 40
1
 40
1
 40
1
 10
8.000359
 20
4.301059
 30
0.0
 10
8.041776
 20
4.301059
 30
0.0
 10
8.075359
 20
4.334637
 30
0.0
 10
8.075359
 20
4.376059
 30
0.0
  0
LINE
  5
238
100
AcDbEntity
  8
9_PLASTICS_1
 62
3
100
AcDbLine
 10
8.075359
 20
4.376059
 30
0.0
 11
8.075359
 21
4.376059
 31
0.0
  0
SPLINE
  5
239
100
AcDbEntity
  8
9_PLASTICS_1
 62
3
100
AcDbSpline
 70
8
 71
3
 72
8
 73
4
 74
0
 40
0
 40
0
 40
0
 40
0
 40
1
 40
1
 40
1
 40
1
 10
8.887734
 20
0.500827
 30
0.0
 10
8.887734
 20
0.542249
 30
0.0
 10
8.854151
 20
0.575827
 30
0.0
 10
8.812734
 20
0.575827
 30
0.0
  0
SPLINE
  5
23a
100
AcDbEntity
  8
9_PLASTICS_1
 62
3
100
AcDbSpline
 70
8
 71
3
 72
8
 73
4
 74
0
 40
0
 40
0
 40
0
 40
0
 40
1
 40
1
 40
1
 40
1
 10
8.812734
 20
0.575827
 30
0.0
 10
8.771317
 20
0.575827
 30
0.0
 10
8.737734
 20
0.542249
 30
0.0
 10
8.737734
 20
0.500827
 30
0.0
  0
SPLINE
  5
23b
100
AcDbEntity
  8
9_PLASTICS_1
 62
3
100
AcDbSpline
 70
8
 71
3
 72
8
 73
4
 74
0
 40
0
 40
0
 40
0
 40
0
 40
1
 40
1
 40
1
 40
1
 10
8.737734
 20
0.500827
 30
0.0
 10
8.737734
 20
0.459405
 30
0.0
 10
8.771317
 20
0.425827
 30
0.0
 10
8.812734
 20
0.425827
 30
0.0
  0
SPLINE
  5
23c
100
AcDbEntity
  8
9_PLASTICS_1
 62
3
100
AcDbSpline
 70
8
 71
3
 72
8
 73
4
 74
0
 40
0
 40
0
 40
0
 40
0
 40
1
 40
1
 40
1
 40
1
 10
8.812734
 20
0.425827
 30
0.0
 10
8.854151
 20
0.425827
 30
0.0
 10
8.887734
 20
0.459405
 30
0.0
 10
8.887734
 20
0.500827
 30
0.0
  0
LINE
  5
23d
100
AcDbEntity
  8
9_PLASTICS_1
 62
3
100
AcDbLine
 10
8.887734
 20
0.500827
 30
0.0
 11
8.887734
 21
0.500827
 31
0.0
  0
SPLINE
  5
23e
100
AcDbEntity
  8
9_PLASTICS_1
 62
6
100
AcDbSpline
 70
8
 71
3
 72
8
 73
4
 74
0
 40
0
 40
0
 40
0
 40
0
 40
1
 40
1
 40
1
 40
1
 10
8.000297
 20
3.976178
 30
0.0
 10
8.172672
 20
3.976178
 30
0.0
 10
8.325661
 20
4.086605
 30
0.0
 10
8.379703
 20
4.250184
 30
0.0
  0
LINE
  5
23f
100
AcDbEntity
  8
9_PLASTICS_1
 62
6
100
AcDbLine
 10
8.379703
 20
4.250184
 30
0.0
 11
8.860692
 21
5.699108
 31
0.0
  0
SPLINE
  5
240
100
AcDbEntity
  8
9_PLASTICS_1
 62
6
100
AcDbSpline
 70
8
 71
3
 72
8
 73
4
 74
0
 40
0
 40
0
 40
0
 40
0
 40
1
 40
1
 40
1
 40
1
 10
8.860692
 20
5.699108
 30
0.0
 10
8.898682
 20
5.813669
 30
0.0
 10
8.882932
 20
5.939283
 30
0.0
 10
8.817890
 20
6.040914
 30
0.0
  0
LINE
  5
241
100
AcDbEntity
  8
9_PLASTICS_1
 62
6
100
AcDbLine
 10
8.817890
 20
6.040914
 30
0.0
 11
8.336901
 21
6.790914
 31
0.0
  0
SPLINE
  5
242
100
AcDbEntity
  8
9_PLASTICS_1
 62
6
100
AcDbSpline
 70
8
 71
3
 72
8
 73
4
 74
0
 40
0
 40
0
 40
0
 40
0
 40
1
 40
1
 40
1
 40
1
 10
8.336901
 20
6.790914
 30
0.0
 10
8.179682
 20
7.036443
 30
0.0
 10
7.820911
 20
7.036443
 30
0.0
 10
7.663713
 20
6.790810
 30
0.0
  0
LINE
  5
243
100
AcDbEntity
  8
9_PLASTICS_1
 62
6
100
AcDbLine
 10
7.663713
 20
6.790810
 30
0.0
 11
7.182724
 21
6.040810
 31
0.0
  0
SPLINE
  5
244
100
AcDbEntity
  8
9_PLASTICS_1
 62
6
100
AcDbSpline
 70
8
 71
3
 72
8
 73
4
 74
0
 40
0
 40
0
 40
0
 40
0
 40
1
 40
1
 40
1
 40
1
 10
7.182724
 20
6.040810
 30
0.0
 10
7.117661
 20
5.939246
 30
0.0
 10
7.101911
 20
5.813633
 30
0.0
 10
7.139901
 20
5.699071
 30
0.0
  0
LINE
  5
245
100
AcDbEntity
  8
9_PLASTICS_1
 62
6
100
AcDbLine
 10
7.139901
 20
5.699071
 30
0.0
 11
7.620890
 21
4.250147
 31
0.0
  0
SPLINE
  5
246
100
AcDbEntity
  8
9_PLASTICS_1
 62
6
100
AcDbSpline
 70
8
 71
3
 72
8
 73
4
 74
0
 40
0
 40
0
 40
0
 40
0
 40
1
 40
1
 40
1
 40
1
 10
7.620890
 20
4.250147
 30
0.0
 10
7.674932
 20
4.086568
 30
0.0
 10
7.827922
 20
3.976142
 30
0.0
 10
8.000297
 20
3.976142
 30
0.0
  0
LINE
  5
247
100
AcDbEntity
  8
9_PLASTICS_1
 62
6
100
AcDbLine
 10
8.000297
 20
3.976142
 30
0.0
 11
8.000297
 21
3.976178
 31
0.0
  0
SPLINE
  5
248
100
AcDbEntity
  8
9_PLASTICS_1
 62
3
100
AcDbSpline
 70
8
 71
3
 72
8
 73
4
 74
0
 40
0
 40
0
 40
0
 40
0
 40
1
 40
1
 40
1
 40
1
 10
8.075297
 20
6.575060
 30
0.0
 10
8.075297
 20
6.616482
 30
0.0
 10
8.041713
 20
6.650060
 30
0.0
 10
8.000297
 20
6.650060
 30
0.0
  0
SPLINE
  5
249
100
AcDbEntity
  8
9_PLASTICS_1
 62
3
100
AcDbSpline
 70
8
 71
3
 72
8
 73
4
 74
0
 40
0
 40
0
 40
0
 40
0
 40
1
 40
1
 40
1
 40
1
 10
8.000297
 20
6.650060
 30
0.0
 10
7.958880
 20
6.650060
 30
0.0
 10
7.925297
 20
6.616482
 30
0.0
 10
7.925297
 20
6.575060
 30
0.0
  0
SPLINE
  5
24a
100
AcDbEntity
  8
9_PLASTICS_1
 62
3
100
AcDbSpline
 70
8
 71
3
 72
8
 73
4
 74
0
 40
0
 40
0
 40
0
 40
0
 40
1
 40
1
 40
1
 40
1
 10
7.925297
 20
6.575060
 30
0.0
 10
7.925297
 20
6.533638
 30
0.0
 10
7.958880
 20
6.500060
 30
0.0
 10
8.000297
 20
6.500060
 30
0.0
  0
SPLINE
  5
24b
100
AcDbEntity
  8
9_PLASTICS_1
 62
3
100
AcDbSpline
 70
8
 71
3
 72
8
 73
4
 74
0
 40
0
 40
0
 40
0
 40
0
 40
1
 40
1
 40
1
 40
1
 10
8.000297
 20
6.500060
 30
0.0
 10
8.041713
 20
6.500060
 30
0.0
 10
8.075297
 20
6.533638
 30
0.0
 10
8.075297
 20
6.575060
 30
0.0
  0
LINE
  5
24c
100
AcDbEntity
  8
9_PLASTICS_1
 62
3
100
AcDbLine
 10
8.075297
 20
6.575060
 30
0.0
 11
8.075297
 21
6.575060
 31
0.0
  0
SPLINE
  5
24d
100
AcDbEntity
  8
9_PLASTICS_1
 62
3
100
AcDbSpline
 70
8
 71
3
 72
8
 73
4
 74
0
 40
0
 40
0
 40
0
 40
0
 40
1
 40
1
 40
1
 40
1
 10
1.825317
 20
0.500021
 30
0.0
 10
1.825317
 20
0.541443
 30
0.0
 10
1.791733
 20
0.575021
 30
0.0
 10
1.750317
 20
0.575021
 30
0.0
  0
SPLINE
  5
24e
100
AcDbEntity
  8
9_PLASTICS_1
 62
3
100
AcDbSpline
 70
8
 71
3
 72
8
 73
4
 74
0
 40
0
 40
0
 40
0
 40
0
 40
1
 40
1
 40
1
 40
1
 10
1.750317
 20
0.575021
 30
0.0
 10
1.708900
 20
0.575021
 30
0.0
 10
1.675317
 20
0.541443
 30
0.0
 10
1.675317
 20
0.500021
 30
0.0
  0
SPLINE
  5
24f
100
AcDbEntity
  8
9_PLASTICS_1
 62
3
100
AcDbSpline
 70
8
 71
3
 72
8
 73
4
 74
0
 40
0
 40
0
 40
0
 40
0
 40
1
 40
1
 40
1
 40
1
 10
1.675317
 20
0.500021
 30
0.0
 10
1.675317
 20
0.458599
 30
0.0
 10
1.708900
 20
0.425021
 30
0.0
 10
1.750317
 20
0.425021
 30
0.0
  0
SPLINE
  5
250
100
AcDbEntity
  8
9_PLASTICS_1
 62
3
100
AcDbSpline
 70
8
 71
3
 72
8
 73
4
 74
0
 40
0
 40
0
 40
0
 40
0
 40
1
 40
1
 40
1
 40
1
 10
1.750317
 20
0.425021
 30
0.0
 10
1.791733
 20
0.425021
 30
0.0
 10
1.825317
 20
0.458599
 30
0.0
 10
1.825317
 20
0.500021
 30
0.0
  0
LINE
  5
251
100
AcDbEntity
  8
9_PLASTICS_1
 62
3
100
AcDbLine
 10
1.825317
 20
0.500021
 30
0.0
 11
1.825317
 21
0.500021
 31
0.0
  0
SPLINE
  5
252
100
AcDbEntity
  8
9_PLASTICS_1
 62
3
100
AcDbSpline
 70
8
 71
3
 72
8
 73
4
 74
0
 40
0
 40
0
 40
0
 40
0
 40
1
 40
1
 40
1
 40
1
 10
0.575317
 20
2.250017
 30
0.0
 10
0.575317
 20
2.291439
 30
0.0
 10
0.541733
 20
2.325017
 30
0.0
 10
0.500317
 20
2.325017
 30
0.0
  0
SPLINE
  5
253
100
AcDbEntity
  8
9_PLASTICS_1
 62
3
100
AcDbSpline
 70
8
 71
3
 72
8
 73
4
 74
0
 40
0
 40
0
 40
0
 40
0
 40
1
 40
1
 40
1
 40
1
 10
0.500317
 20
2.325017
 30
0.0
 10
0.458900
 20
2.325017
 30
0.0
 10
0.425317
 20
2.291439
 30
0.0
 10
0.425317
 20
2.250017
 30
0.0
  0
SPLINE
  5
254
100
AcDbEntity
  8
9_PLASTICS_1
 62
3
100
AcDbSpline
 70
8
 71
3
 72
8
 73
4
 74
0
 40
0
 40
0
 40
0
 40
0
 40
1
 40
1
 40
1
 40
1
 10
0.425317
 20
2.250017
 30
0.0
 10
0.425317
 20
2.208595
 30
0.0
 10
0.458900
 20
2.175017
 30
0.0
 10
0.500317
 20
2.175017
 30
0.0
  0
SPLINE
  5
255
100
AcDbEntity
  8
9_PLASTICS_1
 62
3
100
AcDbSpline
 70
8
 71
3
 72
8
 73
4
 74
0
 40
0
 40
0
 40
0
 40
0
 40
1
 40
1
 40
1
 40
1
 10
0.500317
 20
2.175017
 30
0.0
 10
0.541733
 20
2.175017
 30
0.0
 10
0.575317
 20
2.208595
 30
0.0
 10
0.575317
 20
2.250017
 30
0.0
  0
LINE
  5
256
100
AcDbEntity
  8
9_PLASTICS_1
 62
3
100
AcDbLine
 10
0.575317
 20
2.250017
 30
0.0
 11
0.575317
 21
2.250017
 31
0.0
  0
SPLINE
  5
257
100
AcDbEntity
  8
9_PLASTICS_1
 62
3
100
AcDbSpline
 70
8
 71
3
 72
8
 73
4
 74
0
 40
0
 40
0
 40
0
 40
0
 40
1
 40
1
 40
1
 40
1
 10
5.891411
 20
3.389297
 30
0.0
 10
5.891411
 20
3.430719
 30
0.0
 10
5.857828
 20
3.464297
 30
0.0
 10
5.816411
 20
3.464297
 30
0.0
  0
SPLINE
  5
258
100
AcDbEntity
  8
9_PLASTICS_1
 62
3
100
AcDbSpline
 70
8
 71
3
 72
8
 73
4
 74
0
 40
0
 40
0
 40
0
 40
0
 40
1
 40
1
 40
1
 40
1
 10
5.816411
 20
3.464297
 30
0.0
 10
5.774994
 20
3.464297
 30
0.0
 10
5.741411
 20
3.430719
 30
0.0
 10
5.741411
 20
3.389297
 30
0.0
  0
SPLINE
  5
259
100
AcDbEntity
  8
9_PLASTICS_1
 62
3
100
AcDbSpline
 70
8
 71
3
 72
8
 73
4
 74
0
 40
0
 40
0
 40
0
 40
0
 40
1
 40
1
 40
1
 40
1
 10
5.741411
 20
3.389297
 30
0.0
 10
5.741411
 20
3.347875
 30
0.0
 10
5.774994
 20
3.314297
 30
0.0
 10
5.816411
 20
3.314297
 30
0.0
  0
SPLINE
  5
25a
100
AcDbEntity
  8
9_PLASTICS_1
 62
3
100
AcDbSpline
 70
8
 71
3
 72
8
 73
4
 74
0
 40
0
 40
0
 40
0
 40
0
 40
1
 40
1
 40
1
 40
1
 10
5.816411
 20
3.314297
 30
0.0
 10
5.857828
 20
3.314297
 30
0.0
 10
5.891411
 20
3.347875
 30
0.0
 10
5.891411
 20
3.389297
 30
0.0
  0
LINE
  5
25b
100
AcDbEntity
  8
9_PLASTICS_1
 62
3
100
AcDbLine
 10
5.891411
 20
3.389297
 30
0.0
 11
5.891411
 21
3.389297
 31
0.0
  0
SPLINE
  5
25c
100
AcDbEntity
  8
9_PLASTICS_1
 62
3
100
AcDbSpline
 70
8
 71
3
 72
8
 73
4
 74
0
 40
0
 40
0
 40
0
 40
0
 40
1
 40
1
 40
1
 40
1
 10
11.575318
 20
3.600017
 30
0.0
 10
11.575318
 20
3.641439
 30
0.0
 10
11.541734
 20
3.675017
 30
0.0
 10
11.500318
 20
3.675017
 30
0.0
  0
SPLINE
  5
25d
100
AcDbEntity
  8
9_PLASTICS_1
 62
3
100
AcDbSpline
 70
8
 71
3
 72
8
 73
4
 74
0
 40
0
 40
0
 40
0
 40
0
 40
1
 40
1
 40
1
 40
1
 10
11.500318
 20
3.675017
 30
0.0
 10
11.458901
 20
3.675017
 30
0.0
 10
11.425318
 20
3.641439
 30
0.0
 10
11.425318
 20
3.600017
 30
0.0
  0
SPLINE
  5
25e
100
AcDbEntity
  8
9_PLASTICS_1
 62
3
100
AcDbSpline
 70
8
 71
3
 72
8
 73
4
 74
0
 40
0
 40
0
 40
0
 40
0
 40
1
 40
1
 40
1
 40
1
 10
11.425318
 20
3.600017
 30
0.0
 10
11.425318
 20
3.558595
 30
0.0
 10
11.458901
 20
3.525017
 30
0.0
 10
11.500318
 20
3.525017
 30
0.0
  0
SPLINE
  5
25f
100
AcDbEntity
  8
9_PLASTICS_1
 62
3
100
AcDbSpline
 70
8
 71
3
 72
8
 73
4
 74
0
 40
0
 40
0
 40
0
 40
0
 40
1
 40
1
 40
1
 40
1
 10
11.500318
 20
3.525017
 30
0.0
 10
11.541734
 20
3.525017
 30
0.0
 10
11.575318
 20
3.558595
 30
0.0
 10
11.575318
 20
3.600017
 30
0.0
  0
LINE
  5
260
100
AcDbEntity
  8
9_PLASTICS_1
 62
3
100
AcDbLine
 10
11.575318
 20
3.600017
 30
0.0
 11
11.575318
 21
3.600017
 31
0.0
  0
SPLINE
  5
261
100
AcDbEntity
  8
9_PLASTICS_1
 62
3
100
AcDbSpline
 70
8
 71
3
 72
8
 73
4
 74
0
 40
0
 40
0
 40
0
 40
0
 40
1
 40
1
 40
1
 40
1
 10
9.084109
 20
7.486342
 30
0.0
 10
9.084109
 20
7.527764
 30
0.0
 10
9.050526
 20
7.561342
 30
0.0
 10
9.009109
 20
7.561342
 30
0.0
  0
SPLINE
  5
262
100
AcDbEntity
  8
9_PLASTICS_1
 62
3
100
AcDbSpline
 70
8
 71
3
 72
8
 73
4
 74
0
 40
0
 40
0
 40
0
 40
0
 40
1
 40
1
 40
1
 40
1
 10
9.009109
 20
7.561342
 30
0.0
 10
8.967692
 20
7.561342
 30
0.0
 10
8.934109
 20
7.527764
 30
0.0
 10
8.934109
 20
7.486342
 30
0.0
  0
SPLINE
  5
263
100
AcDbEntity
  8
9_PLASTICS_1
 62
3
100
AcDbSpline
 70
8
 71
3
 72
8
 73
4
 74
0
 40
0
 40
0
 40
0
 40
0
 40
1
 40
1
 40
1
 40
1
 10
8.934109
 20
7.486342
 30
0.0
 10
8.934109
 20
7.444920
 30
0.0
 10
8.967692
 20
7.411342
 30
0.0
 10
9.009109
 20
7.411342
 30
0.0
  0
SPLINE
  5
264
100
AcDbEntity
  8
9_PLASTICS_1
 62
3
100
AcDbSpline
 70
8
 71
3
 72
8
 73
4
 74
0
 40
0
 40
0
 40
0
 40
0
 40
1
 40
1
 40
1
 40
1
 10
9.009109
 20
7.411342
 30
0.0
 10
9.050526
 20
7.411342
 30
0.0
 10
9.084109
 20
7.444920
 30
0.0
 10
9.084109
 20
7.486342
 30
0.0
  0
LINE
  5
265
100
AcDbEntity
  8
9_PLASTICS_1
 62
3
100
AcDbLine
 10
9.084109
 20
7.486342
 30
0.0
 11
9.084109
 21
7.486342
 31
0.0
  0
LINE
  5
266
100
AcDbEntity
  8
9_PLASTICS_1
 62
6
100
AcDbLine
 10
8.782567
 20
7.137817
 30
0.0
 11
8.874380
 21
7.078032
 31
0.0
  0
SPLINE
  5
267
100
AcDbEntity
  8
9_PLASTICS_1
 62
6
100
AcDbSpline
 70
8
 71
3
 72
8
 73
4
 74
0
 40
0
 40
0
 40
0
 40
0
 40
1
 40
1
 40
1
 40
1
 10
8.874380
 20
7.078032
 30
0.0
 10
10.098599
 20
6.282027
 30
0.0
 10
10.953943
 20
5.029878
 30
0.0
 10
11.250318
 20
3.600012
 30
0.0
  0
LINE
  5
268
100
AcDbEntity
  8
9_PLASTICS_1
 62
6
100
AcDbLine
 10
11.250318
 20
3.600012
 30
0.0
 11
11.250318
 21
2.599964
 31
0.0
  0
LINE
  5
269
100
AcDbEntity
  8
9_PLASTICS_1
 62
6
100
AcDbLine
 10
11.250318
 20
2.599964
 30
0.0
 11
11.750318
 21
2.599964
 31
0.0
  0
LINE
  5
26a
100
AcDbEntity
  8
9_PLASTICS_1
 62
6
100
AcDbLine
 10
11.750318
 20
2.599964
 30
0.0
 11
11.750318
 21
10.132372
 31
0.0
  0
LINE
  5
26b
100
AcDbEntity
  8
9_PLASTICS_1
 62
6
100
AcDbLine
 10
11.750318
 20
10.132372
 30
0.0
 11
11.124276
 21
10.132372
 31
0.0
  0
LINE
  5
26c
100
AcDbEntity
  8
9_PLASTICS_1
 62
6
100
AcDbLine
 10
11.124276
 20
10.132372
 30
0.0
 11
8.707817
 21
7.772985
 31
0.0
  0
SPLINE
  5
26d
100
AcDbEntity
  8
9_PLASTICS_1
 62
6
100
AcDbSpline
 70
8
 71
3
 72
8
 73
4
 74
0
 40
0
 40
0
 40
0
 40
0
 40
1
 40
1
 40
1
 40
1
 10
8.707817
 20
7.772985
 30
0.0
 10
8.528672
 20
7.584612
 30
0.0
 10
8.564411
 20
7.279654
 30
0.0
 10
8.782536
 20
7.137817
 30
0.0
  0
LINE
  5
26e
100
AcDbEntity
  8
9_PLASTICS_1
 62
6
100
AcDbLine
 10
8.782536
 20
7.137817
 30
0.0
 11
8.782567
 21
7.137817
 31
0.0
  0
SPLINE
  5
26f
100
AcDbEntity
  8
9_PLASTICS_1
 62
7
100
AcDbSpline
 70
8
 71
3
 72
8
 73
4
 74
0
 40
0
 40
0
 40
0
 40
0
 40
1
 40
1
 40
1
 40
1
 10
11.652297
 20
12.806330
 30
0.0
 10
11.652297
 20
12.895647
 30
0.0
 10
11.604647
 20
12.978179
 30
0.0
 10
11.527297
 20
13.022837
 30
0.0
  0
SPLINE
  5
270
100
AcDbEntity
  8
9_PLASTICS_1
 62
7
100
AcDbSpline
 70
8
 71
3
 72
8
 73
4
 74
0
 40
0
 40
0
 40
0
 40
0
 40
1
 40
1
 40
1
 40
1
 10
11.527297
 20
13.022837
 30
0.0
 10
11.449947
 20
13.067495
 30
0.0
 10
11.354647
 20
13.067495
 30
0.0
 10
11.277297
 20
13.022837
 30
0.0
  0
SPLINE
  5
271
100
AcDbEntity
  8
9_PLASTICS_1
 62
7
100
AcDbSpline
 70
8
 71
3
 72
8
 73
4
 74
0
 40
0
 40
0
 40
0
 40
0
 40
1
 40
1
 40
1
 40
1
 10
11.277297
 20
13.022837
 30
0.0
 10
11.199947
 20
12.978179
 30
0.0
 10
11.152297
 20
12.895647
 30
0.0
 10
11.152297
 20
12.806330
 30
0.0
  0
SPLINE
  5
272
100
AcDbEntity
  8
9_PLASTICS_1
 62
7
100
AcDbSpline
 70
8
 71
3
 72
8
 73
4
 74
0
 40
0
 40
0
 40
0
 40
0
 40
1
 40
1
 40
1
 40
1
 10
11.152297
 20
12.806330
 30
0.0
 10
11.152297
 20
12.717014
 30
0.0
 10
11.199947
 20
12.634482
 30
0.0
 10
11.277297
 20
12.589824
 30
0.0
  0
SPLINE
  5
273
100
AcDbEntity
  8
9_PLASTICS_1
 62
7
100
AcDbSpline
 70
8
 71
3
 72
8
 73
4
 74
0
 40
0
 40
0
 40
0
 40
0
 40
1
 40
1
 40
1
 40
1
 10
11.277297
 20
12.589824
 30
0.0
 10
11.354647
 20
12.545166
 30
0.0
 10
11.449947
 20
12.545166
 30
0.0
 10
11.527297
 20
12.589824
 30
0.0
  0
SPLINE
  5
274
100
AcDbEntity
  8
9_PLASTICS_1
 62
7
100
AcDbSpline
 70
8
 71
3
 72
8
 73
4
 74
0
 40
0
 40
0
 40
0
 40
0
 40
1
 40
1
 40
1
 40
1
 10
11.527297
 20
12.589824
 30
0.0
 10
11.604647
 20
12.634482
 30
0.0
 10
11.652297
 20
12.717014
 30
0.0
 10
11.652297
 20
12.806330
 30
0.0
  0
LINE
  5
275
100
AcDbEntity
  8
9_PLASTICS_1
 62
7
100
AcDbLine
 10
11.652297
 20
12.806330
 30
0.0
 11
11.652297
 21
12.806330
 31
0.0
  0
SPLINE
  5
276
100
AcDbEntity
  8
9_PLASTICS_1
 62
7
100
AcDbSpline
 70
8
 71
3
 72
8
 73
4
 74
0
 40
0
 40
0
 40
0
 40
0
 40
1
 40
1
 40
1
 40
1
 10
2.252921
 20
12.453381
 30
0.0
 10
2.252921
 20
12.542698
 30
0.0
 10
2.205271
 20
12.625229
 30
0.0
 10
2.127921
 20
12.669888
 30
0.0
  0
SPLINE
  5
277
100
AcDbEntity
  8
9_PLASTICS_1
 62
7
100
AcDbSpline
 70
8
 71
3
 72
8
 73
4
 74
0
 40
0
 40
0
 40
0
 40
0
 40
1
 40
1
 40
1
 40
1
 10
2.127921
 20
12.669888
 30
0.0
 10
2.050571
 20
12.714546
 30
0.0
 10
1.955271
 20
12.714546
 30
0.0
 10
1.877921
 20
12.669888
 30
0.0
  0
SPLINE
  5
278
100
AcDbEntity
  8
9_PLASTICS_1
 62
7
100
AcDbSpline
 70
8
 71
3
 72
8
 73
4
 74
0
 40
0
 40
0
 40
0
 40
0
 40
1
 40
1
 40
1
 40
1
 10
1.877921
 20
12.669888
 30
0.0
 10
1.800571
 20
12.625229
 30
0.0
 10
1.752921
 20
12.542698
 30
0.0
 10
1.752921
 20
12.453381
 30
0.0
  0
SPLINE
  5
279
100
AcDbEntity
  8
9_PLASTICS_1
 62
7
100
AcDbSpline
 70
8
 71
3
 72
8
 73
4
 74
0
 40
0
 40
0
 40
0
 40
0
 40
1
 40
1
 40
1
 40
1
 10
1.752921
 20
12.453381
 30
0.0
 10
1.752921
 20
12.364065
 30
0.0
 10
1.800571
 20
12.281533
 30
0.0
 10
1.877921
 20
12.236875
 30
0.0
  0
SPLINE
  5
27a
100
AcDbEntity
  8
9_PLASTICS_1
 62
7
100
AcDbSpline
 70
8
 71
3
 72
8
 73
4
 74
0
 40
0
 40
0
 40
0
 40
0
 40
1
 40
1
 40
1
 40
1
 10
1.877921
 20
12.236875
 30
0.0
 10
1.955271
 20
12.192217
 30
0.0
 10
2.050571
 20
12.192217
 30
0.0
 10
2.127921
 20
12.236875
 30
0.0
  0
SPLINE
  5
27b
100
AcDbEntity
  8
9_PLASTICS_1
 62
7
100
AcDbSpline
 70
8
 71
3
 72
8
 73
4
 74
0
 40
0
 40
0
 40
0
 40
0
 40
1
 40
1
 40
1
 40
1
 10
2.127921
 20
12.236875
 30
0.0
 10
2.205271
 20
12.281533
 30
0.0
 10
2.252921
 20
12.364065
 30
0.0
 10
2.252921
 20
12.453381
 30
0.0
  0
LINE
  5
27c
100
AcDbEntity
  8
9_PLASTICS_1
 62
7
100
AcDbLine
 10
2.252921
 20
12.453381
 30
0.0
 11
2.252921
 21
12.453381
 31
0.0
  0
SPLINE
  5
27d
100
AcDbEntity
  8
9_PLASTICS_1
 62
3
100
AcDbSpline
 70
8
 71
3
 72
8
 73
4
 74
0
 40
0
 40
0
 40
0
 40
0
 40
1
 40
1
 40
1
 40
1
 10
1.359625
 20
11.415384
 30
0.0
 10
1.390022
 20
11.454568
 30
0.0
 10
1.382994
 20
11.510958
 30
0.0
 10
1.343908
 20
11.541482
 30
0.0
  0
SPLINE
  5
27e
100
AcDbEntity
  8
9_PLASTICS_1
 62
3
100
AcDbSpline
 70
8
 71
3
 72
8
 73
4
 74
0
 40
0
 40
0
 40
0
 40
0
 40
1
 40
1
 40
1
 40
1
 10
1.343908
 20
11.541482
 30
0.0
 10
1.304823
 20
11.572005
 30
0.0
 10
1.248410
 20
11.565159
 30
0.0
 10
1.217761
 20
11.526173
 30
0.0
  0
SPLINE
  5
27f
100
AcDbEntity
  8
9_PLASTICS_1
 62
3
100
AcDbSpline
 70
8
 71
3
 72
8
 73
4
 74
0
 40
0
 40
0
 40
0
 40
0
 40
1
 40
1
 40
1
 40
1
 10
1.217761
 20
11.526173
 30
0.0
 10
1.187363
 20
11.486989
 30
0.0
 10
1.194392
 20
11.430599
 30
0.0
 10
1.233477
 20
11.400075
 30
0.0
  0
SPLINE
  5
280
100
AcDbEntity
  8
9_PLASTICS_1
 62
3
100
AcDbSpline
 70
8
 71
3
 72
8
 73
4
 74
0
 40
0
 40
0
 40
0
 40
0
 40
1
 40
1
 40
1
 40
1
 10
1.233477
 20
11.400075
 30
0.0
 10
1.272563
 20
11.369552
 30
0.0
 10
1.328975
 20
11.376398
 30
0.0
 10
1.359625
 20
11.415384
 30
0.0
  0
LINE
  5
281
100
AcDbEntity
  8
9_PLASTICS_1
 62
3
100
AcDbLine
 10
1.359625
 20
11.415384
 30
0.0
 11
1.359625
 21
11.415384
 31
0.0
  0
SPLINE
  5
282
100
AcDbEntity
  8
9_PLASTICS_1
 62
3
100
AcDbSpline
 70
8
 71
3
 72
8
 73
4
 74
0
 40
0
 40
0
 40
0
 40
0
 40
1
 40
1
 40
1
 40
1
 10
2.040896
 20
10.079023
 30
0.0
 10
2.071293
 20
10.118207
 30
0.0
 10
2.064265
 20
10.174597
 30
0.0
 10
2.025179
 20
10.205120
 30
0.0
  0
SPLINE
  5
283
100
AcDbEntity
  8
9_PLASTICS_1
 62
3
100
AcDbSpline
 70
8
 71
3
 72
8
 73
4
 74
0
 40
0
 40
0
 40
0
 40
0
 40
1
 40
1
 40
1
 40
1
 10
2.025179
 20
10.205120
 30
0.0
 10
1.986094
 20
10.235644
 30
0.0
 10
1.929681
 20
10.228798
 30
0.0
 10
1.899031
 20
10.189811
 30
0.0
  0
SPLINE
  5
284
100
AcDbEntity
  8
9_PLASTICS_1
 62
3
100
AcDbSpline
 70
8
 71
3
 72
8
 73
4
 74
0
 40
0
 40
0
 40
0
 40
0
 40
1
 40
1
 40
1
 40
1
 10
1.899031
 20
10.189811
 30
0.0
 10
1.868634
 20
10.150627
 30
0.0
 10
1.875663
 20
10.094237
 30
0.0
 10
1.914748
 20
10.063714
 30
0.0
  0
SPLINE
  5
285
100
AcDbEntity
  8
9_PLASTICS_1
 62
3
100
AcDbSpline
 70
8
 71
3
 72
8
 73
4
 74
0
 40
0
 40
0
 40
0
 40
0
 40
1
 40
1
 40
1
 40
1
 10
1.914748
 20
10.063714
 30
0.0
 10
1.953834
 20
10.033190
 30
0.0
 10
2.010246
 20
10.040036
 30
0.0
 10
2.040896
 20
10.079023
 30
0.0
  0
LINE
  5
286
100
AcDbEntity
  8
9_PLASTICS_1
 62
3
100
AcDbLine
 10
2.040896
 20
10.079023
 30
0.0
 11
2.040896
 21
10.079023
 31
0.0
  0
SPLINE
  5
287
100
AcDbEntity
  8
9_PLASTICS_1
 62
6
100
AcDbSpline
 70
8
 71
3
 72
8
 73
4
 74
0
 40
0
 40
0
 40
0
 40
0
 40
1
 40
1
 40
1
 40
1
 10
2.117573
 20
9.844868
 30
0.0
 10
2.277490
 20
9.926391
 30
0.0
 10
2.341042
 20
10.122110
 30
0.0
 10
2.259459
 20
10.282074
 30
0.0
  0
LINE
  5
288
100
AcDbEntity
  8
9_PLASTICS_1
 62
6
100
AcDbLine
 10
2.259459
 20
10.282074
 30
0.0
 11
2.326656
 21
10.315784
 31
0.0
  0
LINE
  5
289
100
AcDbEntity
  8
9_PLASTICS_1
 62
6
100
AcDbLine
 10
2.326656
 20
10.315784
 30
0.0
 11
1.644646
 21
11.652760
 31
0.0
  0
LINE
  5
28a
100
AcDbEntity
  8
9_PLASTICS_1
 62
6
100
AcDbLine
 10
1.644646
 20
11.652760
 30
0.0
 11
1.578240
 21
11.618423
 31
0.0
  0
SPLINE
  5
28b
100
AcDbEntity
  8
9_PLASTICS_1
 62
6
100
AcDbSpline
 70
8
 71
3
 72
8
 73
4
 74
0
 40
0
 40
0
 40
0
 40
0
 40
1
 40
1
 40
1
 40
1
 10
1.578240
 20
11.618423
 30
0.0
 10
1.496719
 20
11.778299
 30
0.0
 10
1.301011
 20
11.841845
 30
0.0
 10
1.141094
 20
11.760328
 30
0.0
  0
SPLINE
  5
28c
100
AcDbEntity
  8
9_PLASTICS_1
 62
6
100
AcDbSpline
 70
8
 71
3
 72
8
 73
4
 74
0
 40
0
 40
0
 40
0
 40
0
 40
1
 40
1
 40
1
 40
1
 10
1.141094
 20
11.760328
 30
0.0
 10
0.981177
 20
11.678803
 30
0.0
 10
0.917625
 20
11.483085
 30
0.0
 10
0.999000
 20
11.323272
 30
0.0
  0
LINE
  5
28d
100
AcDbEntity
  8
9_PLASTICS_1
 62
6
100
AcDbLine
 10
0.999000
 20
11.323272
 30
0.0
 11
0.932417
 21
11.289085
 31
0.0
  0
LINE
  5
28e
100
AcDbEntity
  8
9_PLASTICS_1
 62
6
100
AcDbLine
 10
0.932417
 20
11.289085
 30
0.0
 11
1.613604
 21
9.952751
 31
0.0
  0
LINE
  5
28f
100
AcDbEntity
  8
9_PLASTICS_1
 62
6
100
AcDbLine
 10
1.613604
 20
9.952751
 30
0.0
 11
1.680229
 21
9.986924
 31
0.0
  0
SPLINE
  5
290
100
AcDbEntity
  8
9_PLASTICS_1
 62
6
100
AcDbSpline
 70
8
 71
3
 72
8
 73
4
 74
0
 40
0
 40
0
 40
0
 40
0
 40
1
 40
1
 40
1
 40
1
 10
1.680229
 20
9.986924
 30
0.0
 10
1.761938
 20
9.826896
 30
0.0
 10
1.957656
 20
9.763350
 30
0.0
 10
2.117573
 20
9.844868
 30
0.0
  0
LINE
  5
291
100
AcDbEntity
  8
9_PLASTICS_1
 62
6
100
AcDbLine
 10
2.117573
 20
9.844868
 30
0.0
 11
2.117573
 21
9.844868
 31
0.0
  0
SPLINE
  5
292
100
AcDbEntity
  8
9_PLASTICS_1
 62
3
100
AcDbSpline
 70
8
 71
3
 72
8
 73
4
 74
0
 40
0
 40
0
 40
0
 40
0
 40
1
 40
1
 40
1
 40
1
 10
0.977917
 20
1.139538
 30
0.0
 10
0.977917
 20
1.180959
 30
0.0
 10
0.944333
 20
1.214538
 30
0.0
 10
0.902917
 20
1.214538
 30
0.0
  0
SPLINE
  5
293
100
AcDbEntity
  8
9_PLASTICS_1
 62
3
100
AcDbSpline
 70
8
 71
3
 72
8
 73
4
 74
0
 40
0
 40
0
 40
0
 40
0
 40
1
 40
1
 40
1
 40
1
 10
0.902917
 20
1.214538
 30
0.0
 10
0.861500
 20
1.214538
 30
0.0
 10
0.827917
 20
1.180959
 30
0.0
 10
0.827917
 20
1.139538
 30
0.0
  0
SPLINE
  5
294
100
AcDbEntity
  8
9_PLASTICS_1
 62
3
100
AcDbSpline
 70
8
 71
3
 72
8
 73
4
 74
0
 40
0
 40
0
 40
0
 40
0
 40
1
 40
1
 40
1
 40
1
 10
0.827917
 20
1.139538
 30
0.0
 10
0.827917
 20
1.098116
 30
0.0
 10
0.861500
 20
1.064538
 30
0.0
 10
0.902917
 20
1.064538
 30
0.0
  0
SPLINE
  5
295
100
AcDbEntity
  8
9_PLASTICS_1
 62
3
100
AcDbSpline
 70
8
 71
3
 72
8
 73
4
 74
0
 40
0
 40
0
 40
0
 40
0
 40
1
 40
1
 40
1
 40
1
 10
0.902917
 20
1.064538
 30
0.0
 10
0.944333
 20
1.064538
 30
0.0
 10
0.977917
 20
1.098116
 30
0.0
 10
0.977917
 20
1.139538
 30
0.0
  0
LINE
  5
296
100
AcDbEntity
  8
9_PLASTICS_1
 62
3
100
AcDbLine
 10
0.977917
 20
1.139538
 30
0.0
 11
0.977917
 21
1.139538
 31
0.0
  0
SPLINE
  5
297
100
AcDbEntity
  8
9_PLASTICS_1
 62
3
100
AcDbSpline
 70
8
 71
3
 72
8
 73
4
 74
0
 40
0
 40
0
 40
0
 40
0
 40
1
 40
1
 40
1
 40
1
 10
2.827240
 20
1.878382
 30
0.0
 10
2.827240
 20
1.919804
 30
0.0
 10
2.793656
 20
1.953382
 30
0.0
 10
2.752240
 20
1.953382
 30
0.0
  0
SPLINE
  5
298
100
AcDbEntity
  8
9_PLASTICS_1
 62
3
100
AcDbSpline
 70
8
 71
3
 72
8
 73
4
 74
0
 40
0
 40
0
 40
0
 40
0
 40
1
 40
1
 40
1
 40
1
 10
2.752240
 20
1.953382
 30
0.0
 10
2.710823
 20
1.953382
 30
0.0
 10
2.677240
 20
1.919804
 30
0.0
 10
2.677240
 20
1.878382
 30
0.0
  0
SPLINE
  5
299
100
AcDbEntity
  8
9_PLASTICS_1
 62
3
100
AcDbSpline
 70
8
 71
3
 72
8
 73
4
 74
0
 40
0
 40
0
 40
0
 40
0
 40
1
 40
1
 40
1
 40
1
 10
2.677240
 20
1.878382
 30
0.0
 10
2.677240
 20
1.836961
 30
0.0
 10
2.710823
 20
1.803382
 30
0.0
 10
2.752240
 20
1.803382
 30
0.0
  0
SPLINE
  5
29a
100
AcDbEntity
  8
9_PLASTICS_1
 62
3
100
AcDbSpline
 70
8
 71
3
 72
8
 73
4
 74
0
 40
0
 40
0
 40
0
 40
0
 40
1
 40
1
 40
1
 40
1
 10
2.752240
 20
1.803382
 30
0.0
 10
2.793656
 20
1.803382
 30
0.0
 10
2.827240
 20
1.836961
 30
0.0
 10
2.827240
 20
1.878382
 30
0.0
  0
LINE
  5
29b
100
AcDbEntity
  8
9_PLASTICS_1
 62
3
100
AcDbLine
 10
2.827240
 20
1.878382
 30
0.0
 11
2.827240
 21
1.878382
 31
0.0
  0
SPLINE
  5
29c
100
AcDbEntity
  8
9_PLASTICS_1
 62
3
100
AcDbSpline
 70
8
 71
3
 72
8
 73
4
 74
0
 40
0
 40
0
 40
0
 40
0
 40
1
 40
1
 40
1
 40
1
 10
2.915719
 20
2.926922
 30
0.0
 10
2.915719
 20
2.968344
 30
0.0
 10
2.882136
 20
3.001922
 30
0.0
 10
2.840719
 20
3.001922
 30
0.0
  0
SPLINE
  5
29d
100
AcDbEntity
  8
9_PLASTICS_1
 62
3
100
AcDbSpline
 70
8
 71
3
 72
8
 73
4
 74
0
 40
0
 40
0
 40
0
 40
0
 40
1
 40
1
 40
1
 40
1
 10
2.840719
 20
3.001922
 30
0.0
 10
2.799302
 20
3.001922
 30
0.0
 10
2.765719
 20
2.968344
 30
0.0
 10
2.765719
 20
2.926922
 30
0.0
  0
SPLINE
  5
29e
100
AcDbEntity
  8
9_PLASTICS_1
 62
3
100
AcDbSpline
 70
8
 71
3
 72
8
 73
4
 74
0
 40
0
 40
0
 40
0
 40
0
 40
1
 40
1
 40
1
 40
1
 10
2.765719
 20
2.926922
 30
0.0
 10
2.765719
 20
2.885500
 30
0.0
 10
2.799302
 20
2.851922
 30
0.0
 10
2.840719
 20
2.851922
 30
0.0
  0
SPLINE
  5
29f
100
AcDbEntity
  8
9_PLASTICS_1
 62
3
100
AcDbSpline
 70
8
 71
3
 72
8
 73
4
 74
0
 40
0
 40
0
 40
0
 40
0
 40
1
 40
1
 40
1
 40
1
 10
2.840719
 20
2.851922
 30
0.0
 10
2.882136
 20
2.851922
 30
0.0
 10
2.915719
 20
2.885500
 30
0.0
 10
2.915719
 20
2.926922
 30
0.0
  0
LINE
  5
2a0
100
AcDbEntity
  8
9_PLASTICS_1
 62
3
100
AcDbLine
 10
2.915719
 20
2.926922
 30
0.0
 11
2.915719
 21
2.926922
 31
0.0
  0
SPLINE
  5
2a1
100
AcDbEntity
  8
9_PLASTICS_1
 62
3
100
AcDbSpline
 70
8
 71
3
 72
8
 73
4
 74
0
 40
0
 40
0
 40
0
 40
0
 40
1
 40
1
 40
1
 40
1
 10
1.371521
 20
21.829586
 30
0.0
 10
1.371521
 20
21.871008
 30
0.0
 10
1.337938
 20
21.904586
 30
0.0
 10
1.296521
 20
21.904586
 30
0.0
  0
SPLINE
  5
2a2
100
AcDbEntity
  8
9_PLASTICS_1
 62
3
100
AcDbSpline
 70
8
 71
3
 72
8
 73
4
 74
0
 40
0
 40
0
 40
0
 40
0
 40
1
 40
1
 40
1
 40
1
 10
1.296521
 20
21.904586
 30
0.0
 10
1.255104
 20
21.904586
 30
0.0
 10
1.221521
 20
21.871008
 30
0.0
 10
1.221521
 20
21.829586
 30
0.0
  0
SPLINE
  5
2a3
100
AcDbEntity
  8
9_PLASTICS_1
 62
3
100
AcDbSpline
 70
8
 71
3
 72
8
 73
4
 74
0
 40
0
 40
0
 40
0
 40
0
 40
1
 40
1
 40
1
 40
1
 10
1.221521
 20
21.829586
 30
0.0
 10
1.221521
 20
21.788164
 30
0.0
 10
1.255104
 20
21.754586
 30
0.0
 10
1.296521
 20
21.754586
 30
0.0
  0
SPLINE
  5
2a4
100
AcDbEntity
  8
9_PLASTICS_1
 62
3
100
AcDbSpline
 70
8
 71
3
 72
8
 73
4
 74
0
 40
0
 40
0
 40
0
 40
0
 40
1
 40
1
 40
1
 40
1
 10
1.296521
 20
21.754586
 30
0.0
 10
1.337938
 20
21.754586
 30
0.0
 10
1.371521
 20
21.788164
 30
0.0
 10
1.371521
 20
21.829586
 30
0.0
  0
LINE
  5
2a5
100
AcDbEntity
  8
9_PLASTICS_1
 62
3
100
AcDbLine
 10
1.371521
 20
21.829586
 30
0.0
 11
1.371521
 21
21.829586
 31
0.0
  0
SPLINE
  5
2a6
100
AcDbEntity
  8
9_PLASTICS_1
 62
3
100
AcDbSpline
 70
8
 71
3
 72
8
 73
4
 74
0
 40
0
 40
0
 40
0
 40
0
 40
1
 40
1
 40
1
 40
1
 10
1.821354
 20
20.376571
 30
0.0
 10
1.821354
 20
20.417992
 30
0.0
 10
1.787771
 20
20.451571
 30
0.0
 10
1.746354
 20
20.451571
 30
0.0
  0
SPLINE
  5
2a7
100
AcDbEntity
  8
9_PLASTICS_1
 62
3
100
AcDbSpline
 70
8
 71
3
 72
8
 73
4
 74
0
 40
0
 40
0
 40
0
 40
0
 40
1
 40
1
 40
1
 40
1
 10
1.746354
 20
20.451571
 30
0.0
 10
1.704938
 20
20.451571
 30
0.0
 10
1.671354
 20
20.417992
 30
0.0
 10
1.671354
 20
20.376571
 30
0.0
  0
SPLINE
  5
2a8
100
AcDbEntity
  8
9_PLASTICS_1
 62
3
100
AcDbSpline
 70
8
 71
3
 72
8
 73
4
 74
0
 40
0
 40
0
 40
0
 40
0
 40
1
 40
1
 40
1
 40
1
 10
1.671354
 20
20.376571
 30
0.0
 10
1.671354
 20
20.335149
 30
0.0
 10
1.704938
 20
20.301571
 30
0.0
 10
1.746354
 20
20.301571
 30
0.0
  0
SPLINE
  5
2a9
100
AcDbEntity
  8
9_PLASTICS_1
 62
3
100
AcDbSpline
 70
8
 71
3
 72
8
 73
4
 74
0
 40
0
 40
0
 40
0
 40
0
 40
1
 40
1
 40
1
 40
1
 10
1.746354
 20
20.301571
 30
0.0
 10
1.787771
 20
20.301571
 30
0.0
 10
1.821354
 20
20.335149
 30
0.0
 10
1.821354
 20
20.376571
 30
0.0
  0
LINE
  5
2aa
100
AcDbEntity
  8
9_PLASTICS_1
 62
3
100
AcDbLine
 10
1.821354
 20
20.376571
 30
0.0
 11
1.821354
 21
20.376571
 31
0.0
  0
SPLINE
  5
2ab
100
AcDbEntity
  8
9_PLASTICS_1
 62
3
100
AcDbSpline
 70
8
 71
3
 72
8
 73
4
 74
0
 40
0
 40
0
 40
0
 40
0
 40
1
 40
1
 40
1
 40
1
 10
3.732167
 20
22.976075
 30
0.0
 10
3.732167
 20
23.017497
 30
0.0
 10
3.698584
 20
23.051075
 30
0.0
 10
3.657167
 20
23.051075
 30
0.0
  0
SPLINE
  5
2ac
100
AcDbEntity
  8
9_PLASTICS_1
 62
3
100
AcDbSpline
 70
8
 71
3
 72
8
 73
4
 74
0
 40
0
 40
0
 40
0
 40
0
 40
1
 40
1
 40
1
 40
1
 10
3.657167
 20
23.051075
 30
0.0
 10
3.615750
 20
23.051075
 30
0.0
 10
3.582167
 20
23.017497
 30
0.0
 10
3.582167
 20
22.976075
 30
0.0
  0
SPLINE
  5
2ad
100
AcDbEntity
  8
9_PLASTICS_1
 62
3
100
AcDbSpline
 70
8
 71
3
 72
8
 73
4
 74
0
 40
0
 40
0
 40
0
 40
0
 40
1
 40
1
 40
1
 40
1
 10
3.582167
 20
22.976075
 30
0.0
 10
3.582167
 20
22.934653
 30
0.0
 10
3.615750
 20
22.901075
 30
0.0
 10
3.657167
 20
22.901075
 30
0.0
  0
SPLINE
  5
2ae
100
AcDbEntity
  8
9_PLASTICS_1
 62
3
100
AcDbSpline
 70
8
 71
3
 72
8
 73
4
 74
0
 40
0
 40
0
 40
0
 40
0
 40
1
 40
1
 40
1
 40
1
 10
3.657167
 20
22.901075
 30
0.0
 10
3.698584
 20
22.901075
 30
0.0
 10
3.732167
 20
22.934653
 30
0.0
 10
3.732167
 20
22.976075
 30
0.0
  0
LINE
  5
2af
100
AcDbEntity
  8
9_PLASTICS_1
 62
3
100
AcDbLine
 10
3.732167
 20
22.976075
 30
0.0
 11
3.732167
 21
22.976075
 31
0.0
  0
SPLINE
  5
2b0
100
AcDbEntity
  8
10_PLASTIC_EDGE_1
 62
5
100
AcDbSpline
 70
8
 71
3
 72
8
 73
4
 74
0
 40
0
 40
0
 40
0
 40
0
 40
1
 40
1
 40
1
 40
1
 10
10.592324
 20
4.022381
 30
0.0
 10
10.692136
 20
3.825773
 30
0.0
 10
10.613855
 20
3.585216
 30
0.0
 10
10.417230
 20
3.484974
 30
0.0
  0
SPLINE
  5
2b1
100
AcDbEntity
  8
10_PLASTIC_EDGE_1
 62
5
100
AcDbSpline
 70
8
 71
3
 72
8
 73
4
 74
0
 40
0
 40
0
 40
0
 40
0
 40
1
 40
1
 40
1
 40
1
 10
10.417230
 20
3.484974
 30
0.0
 10
10.220605
 20
3.384733
 30
0.0
 10
9.979938
 20
3.462691
 30
0.0
 10
9.879438
 20
3.659188
 30
0.0
  0
LINE
  5
2b2
100
AcDbEntity
  8
10_PLASTIC_EDGE_1
 62
5
100
AcDbLine
 10
9.879438
 20
3.659188
 30
0.0
 11
9.198199
 21
4.995543
 31
0.0
  0
SPLINE
  5
2b3
100
AcDbEntity
  8
10_PLASTIC_EDGE_1
 62
5
100
AcDbSpline
 70
8
 71
3
 72
8
 73
4
 74
0
 40
0
 40
0
 40
0
 40
0
 40
1
 40
1
 40
1
 40
1
 10
9.198199
 20
4.995543
 30
0.0
 10
9.098188
 20
5.192313
 30
0.0
 10
9.176470
 20
5.432870
 30
0.0
 10
9.373095
 20
5.533112
 30
0.0
  0
SPLINE
  5
2b4
100
AcDbEntity
  8
10_PLASTIC_EDGE_1
 62
5
100
AcDbSpline
 70
8
 71
3
 72
8
 73
4
 74
0
 40
0
 40
0
 40
0
 40
0
 40
1
 40
1
 40
1
 40
1
 10
9.373095
 20
5.533112
 30
0.0
 10
9.569720
 20
5.633354
 30
0.0
 10
9.810376
 20
5.555395
 30
0.0
 10
9.910678
 20
5.359056
 30
0.0
  0
LINE
  5
2b5
100
AcDbEntity
  8
10_PLASTIC_EDGE_1
 62
5
100
AcDbLine
 10
9.910678
 20
5.359056
 30
0.0
 11
10.592324
 21
4.022381
 31
0.0
  0
SPLINE
  5
2b6
100
AcDbEntity
  8
10_PLASTIC_EDGE_1
 62
5
100
AcDbSpline
 70
8
 71
3
 72
8
 73
4
 74
0
 40
0
 40
0
 40
0
 40
0
 40
1
 40
1
 40
1
 40
1
 10
8.279682
 20
8.400778
 30
0.0
 10
8.506380
 20
8.329171
 30
0.0
 10
8.746161
 20
8.464442
 30
0.0
 10
8.802245
 20
8.695370
 30
0.0
  0
LINE
  5
2b7
100
AcDbEntity
  8
10_PLASTIC_EDGE_1
 62
5
100
AcDbLine
 10
8.802245
 20
8.695370
 30
0.0
 11
9.130474
 21
10.052038
 31
0.0
  0
SPLINE
  5
2b8
100
AcDbEntity
  8
10_PLASTIC_EDGE_1
 62
5
100
AcDbSpline
 70
8
 71
3
 72
8
 73
4
 74
0
 40
0
 40
0
 40
0
 40
0
 40
1
 40
1
 40
1
 40
1
 10
9.130474
 20
10.052038
 30
0.0
 10
9.177526
 20
10.246865
 30
0.0
 10
9.076932
 20
10.447237
 30
0.0
 10
8.892265
 20
10.525805
 30
0.0
  0
LINE
  5
2b9
100
AcDbEntity
  8
10_PLASTIC_EDGE_1
 62
5
100
AcDbLine
 10
8.892265
 20
10.525805
 30
0.0
 11
6.656598
 21
11.478610
 31
0.0
  0
LINE
  5
2ba
100
AcDbEntity
  8
10_PLASTIC_EDGE_1
 62
5
100
AcDbLine
 10
6.656598
 20
11.478610
 30
0.0
 11
6.311640
 21
11.625586
 31
0.0
  0
SPLINE
  5
2bb
100
AcDbEntity
  8
10_PLASTIC_EDGE_1
 62
5
100
AcDbSpline
 70
8
 71
3
 72
8
 73
4
 74
0
 40
0
 40
0
 40
0
 40
0
 40
1
 40
1
 40
1
 40
1
 10
6.311640
 20
11.625586
 30
0.0
 10
6.187203
 20
11.678531
 30
0.0
 10
6.127473
 20
11.820611
 30
0.0
 10
6.176473
 20
11.946435
 30
0.0
  0
LINE
  5
2bc
100
AcDbEntity
  8
10_PLASTIC_EDGE_1
 62
5
100
AcDbLine
 10
6.176473
 20
11.946435
 30
0.0
 11
6.770067
 21
13.467360
 31
0.0
  0
SPLINE
  5
2bd
100
AcDbEntity
  8
10_PLASTIC_EDGE_1
 62
5
100
AcDbSpline
 70
8
 71
3
 72
8
 73
4
 74
0
 40
0
 40
0
 40
0
 40
0
 40
1
 40
1
 40
1
 40
1
 10
6.770067
 20
13.467360
 30
0.0
 10
6.795088
 20
13.531671
 30
0.0
 10
6.763296
 20
13.604149
 30
0.0
 10
6.699140
 20
13.629240
 30
0.0
  0
LINE
  5
2be
100
AcDbEntity
  8
10_PLASTIC_EDGE_1
 62
5
100
AcDbLine
 10
6.699140
 20
13.629240
 30
0.0
 11
6.582588
 21
13.674666
 31
0.0
  0
SPLINE
  5
2bf
100
AcDbEntity
  8
10_PLASTIC_EDGE_1
 62
5
100
AcDbSpline
 70
8
 71
3
 72
8
 73
4
 74
0
 40
0
 40
0
 40
0
 40
0
 40
1
 40
1
 40
1
 40
1
 10
6.582588
 20
13.674666
 30
0.0
 10
6.518223
 20
13.699775
 30
0.0
 10
6.486432
 20
13.772253
 30
0.0
 10
6.511661
 20
13.836546
 30
0.0
  0
LINE
  5
2c0
100
AcDbEntity
  8
10_PLASTIC_EDGE_1
 62
5
100
AcDbLine
 10
6.511661
 20
13.836546
 30
0.0
 11
6.641911
 21
14.170476
 31
0.0
  0
SPLINE
  5
2c1
100
AcDbEntity
  8
10_PLASTIC_EDGE_1
 62
5
100
AcDbSpline
 70
8
 71
3
 72
8
 73
4
 74
0
 40
0
 40
0
 40
0
 40
0
 40
1
 40
1
 40
1
 40
1
 10
6.641911
 20
14.170476
 30
0.0
 10
6.660515
 20
14.218447
 30
0.0
 10
6.706755
 20
14.250034
 30
0.0
 10
6.758474
 20
14.250049
 30
0.0
  0
LINE
  5
2c2
100
AcDbEntity
  8
10_PLASTIC_EDGE_1
 62
5
100
AcDbLine
 10
6.758474
 20
14.250049
 30
0.0
 11
8.086807
 21
14.250049
 31
0.0
  0
LINE
  5
2c3
100
AcDbEntity
  8
10_PLASTIC_EDGE_1
 62
5
100
AcDbLine
 10
8.086807
 20
14.250049
 30
0.0
 11
8.086807
 21
14.749945
 31
0.0
  0
LINE
  5
2c4
100
AcDbEntity
  8
10_PLASTIC_EDGE_1
 62
5
100
AcDbLine
 10
8.086807
 20
14.749945
 30
0.0
 11
2.500348
 21
14.749945
 31
0.0
  0
LINE
  5
2c5
100
AcDbEntity
  8
10_PLASTIC_EDGE_1
 62
5
100
AcDbLine
 10
2.500348
 20
14.749945
 30
0.0
 11
2.500348
 21
14.249945
 31
0.0
  0
LINE
  5
2c6
100
AcDbEntity
  8
10_PLASTIC_EDGE_1
 62
5
100
AcDbLine
 10
2.500348
 20
14.249945
 30
0.0
 11
2.500348
 21
14.149948
 31
0.0
  0
SPLINE
  5
2c7
100
AcDbEntity
  8
10_PLASTIC_EDGE_1
 62
5
100
AcDbSpline
 70
8
 71
3
 72
8
 73
4
 74
0
 40
0
 40
0
 40
0
 40
0
 40
1
 40
1
 40
1
 40
1
 10
2.500348
 20
14.149948
 30
0.0
 10
3.336088
 20
14.149948
 30
0.0
 10
4.116400
 20
13.731788
 30
0.0
 10
4.579275
 20
13.035927
 30
0.0
  0
SPLINE
  5
2c8
100
AcDbEntity
  8
10_PLASTIC_EDGE_1
 62
5
100
AcDbSpline
 70
8
 71
3
 72
8
 73
4
 74
0
 40
0
 40
0
 40
0
 40
0
 40
1
 40
1
 40
1
 40
1
 10
4.579275
 20
13.035927
 30
0.0
 10
5.042140
 20
12.340068
 30
0.0
 10
5.126171
 20
11.458777
 30
0.0
 10
4.803150
 20
10.687982
 30
0.0
  0
SPLINE
  5
2c9
100
AcDbEntity
  8
10_PLASTIC_EDGE_1
 62
5
100
AcDbSpline
 70
8
 71
3
 72
8
 73
4
 74
0
 40
0
 40
0
 40
0
 40
0
 40
1
 40
1
 40
1
 40
1
 10
4.803150
 20
10.687982
 30
0.0
 10
4.722452
 20
10.513526
 30
0.0
 10
4.748911
 20
10.308255
 30
0.0
 10
4.871161
 20
10.159937
 30
0.0
  0
LINE
  5
2ca
100
AcDbEntity
  8
10_PLASTIC_EDGE_1
 62
5
100
AcDbLine
 10
4.871161
 20
10.159937
 30
0.0
 11
5.538963
 21
9.350146
 31
0.0
  0
SPLINE
  5
2cb
100
AcDbEntity
  8
10_PLASTIC_EDGE_1
 62
5
100
AcDbSpline
 70
8
 71
3
 72
8
 73
4
 74
0
 40
0
 40
0
 40
0
 40
0
 40
1
 40
1
 40
1
 40
1
 10
5.538963
 20
9.350146
 30
0.0
 10
5.591109
 20
9.279594
 30
0.0
 10
5.664161
 20
9.227336
 30
0.0
 10
5.748005
 20
9.200900
 30
0.0
  0
LINE
  5
2cc
100
AcDbEntity
  8
10_PLASTIC_EDGE_1
 62
5
100
AcDbLine
 10
5.748005
 20
9.200900
 30
0.0
 11
8.279682
 21
8.400778
 31
0.0
  0
SPLINE
  5
2cd
100
AcDbEntity
  8
10_PLASTIC_EDGE_1
 62
5
100
AcDbSpline
 70
8
 71
3
 72
8
 73
4
 74
0
 40
0
 40
0
 40
0
 40
0
 40
1
 40
1
 40
1
 40
1
 10
5.845411
 20
1.476689
 30
0.0
 10
5.681067
 20
1.518451
 30
0.0
 10
5.510421
 20
1.436396
 30
0.0
 10
5.440171
 20
1.281944
 30
0.0
  0
LINE
  5
2ce
100
AcDbEntity
  8
10_PLASTIC_EDGE_1
 62
5
100
AcDbLine
 10
5.440171
 20
1.281944
 30
0.0
 11
5.391078
 21
1.173298
 31
0.0
  0
SPLINE
  5
2cf
100
AcDbEntity
  8
10_PLASTIC_EDGE_1
 62
5
100
AcDbSpline
 70
8
 71
3
 72
8
 73
4
 74
0
 40
0
 40
0
 40
0
 40
0
 40
1
 40
1
 40
1
 40
1
 10
5.391078
 20
1.173298
 30
0.0
 10
5.356984
 20
1.097845
 30
0.0
 10
5.268098
 20
1.064399
 30
0.0
 10
5.192848
 20
1.098602
 30
0.0
  0
LINE
  5
2d0
100
AcDbEntity
  8
10_PLASTIC_EDGE_1
 62
5
100
AcDbLine
 10
5.192848
 20
1.098602
 30
0.0
 11
3.530473
 21
1.851941
 31
0.0
  0
SPLINE
  5
2d1
100
AcDbEntity
  8
10_PLASTIC_EDGE_1
 62
5
100
AcDbSpline
 70
8
 71
3
 72
8
 73
4
 74
0
 40
0
 40
0
 40
0
 40
0
 40
1
 40
1
 40
1
 40
1
 10
3.530473
 20
1.851941
 30
0.0
 10
3.480088
 20
1.874733
 30
0.0
 10
3.457786
 20
1.933994
 30
0.0
 10
3.480567
 20
1.984319
 30
0.0
  0
LINE
  5
2d2
100
AcDbEntity
  8
10_PLASTIC_EDGE_1
 62
5
100
AcDbLine
 10
3.480567
 20
1.984319
 30
0.0
 11
4.169005
 21
3.503095
 31
0.0
  0
SPLINE
  5
2d3
100
AcDbEntity
  8
10_PLASTIC_EDGE_1
 62
5
100
AcDbSpline
 70
8
 71
3
 72
8
 73
4
 74
0
 40
0
 40
0
 40
0
 40
0
 40
1
 40
1
 40
1
 40
1
 10
4.169005
 20
3.503095
 30
0.0
 10
4.191713
 20
3.553408
 30
0.0
 10
4.250973
 20
3.575706
 30
0.0
 10
4.301338
 20
3.552893
 30
0.0
  0
LINE
  5
2d4
100
AcDbEntity
  8
10_PLASTIC_EDGE_1
 62
5
100
AcDbLine
 10
4.301338
 20
3.552893
 30
0.0
 11
5.748390
 21
2.897029
 31
0.0
  0
SPLINE
  5
2d5
100
AcDbEntity
  8
10_PLASTIC_EDGE_1
 62
5
100
AcDbSpline
 70
8
 71
3
 72
8
 73
4
 74
0
 40
0
 40
0
 40
0
 40
0
 40
1
 40
1
 40
1
 40
1
 10
5.748390
 20
2.897029
 30
0.0
 10
5.915713
 20
2.821233
 30
0.0
 10
6.113057
 20
2.887517
 30
0.0
 10
6.200473
 20
3.048842
 30
0.0
  0
LINE
  5
2d6
100
AcDbEntity
  8
10_PLASTIC_EDGE_1
 62
5
100
AcDbLine
 10
6.200473
 20
3.048842
 30
0.0
 11
6.945338
 21
4.421616
 31
0.0
  0
SPLINE
  5
2d7
100
AcDbEntity
  8
10_PLASTIC_EDGE_1
 62
5
100
AcDbSpline
 70
8
 71
3
 72
8
 73
4
 74
0
 40
0
 40
0
 40
0
 40
0
 40
1
 40
1
 40
1
 40
1
 10
6.945338
 20
4.421616
 30
0.0
 10
7.027109
 20
4.571947
 30
0.0
 10
6.988078
 20
4.759241
 30
0.0
 10
6.853213
 20
4.864472
 30
0.0
  0
SPLINE
  5
2d8
100
AcDbEntity
  8
10_PLASTIC_EDGE_1
 62
5
100
AcDbSpline
 70
8
 71
3
 72
8
 73
4
 74
0
 40
0
 40
0
 40
0
 40
0
 40
1
 40
1
 40
1
 40
1
 10
6.853213
 20
4.864472
 30
0.0
 10
6.499817
 20
4.818005
 30
0.0
 10
6.212609
 20
5.145556
 30
0.0
 10
6.304682
 20
5.489856
 30
0.0
  0
LINE
  5
2d9
100
AcDbEntity
  8
10_PLASTIC_EDGE_1
 62
5
100
AcDbLine
 10
6.304682
 20
5.489856
 30
0.0
 11
6.693078
 21
6.938728
 31
0.0
  0
SPLINE
  5
2da
100
AcDbEntity
  8
10_PLASTIC_EDGE_1
 62
5
100
AcDbSpline
 70
8
 71
3
 72
8
 73
4
 74
0
 40
0
 40
0
 40
0
 40
0
 40
1
 40
1
 40
1
 40
1
 10
6.693078
 20
6.938728
 30
0.0
 10
6.721119
 20
7.043361
 30
0.0
 10
6.782359
 20
7.136057
 30
0.0
 10
6.867828
 20
7.202886
 30
0.0
  0
LINE
  5
2db
100
AcDbEntity
  8
10_PLASTIC_EDGE_1
 62
5
100
AcDbLine
 10
6.867828
 20
7.202886
 30
0.0
 11
6.898015
 21
7.315488
 31
0.0
  0
SPLINE
  5
2dc
100
AcDbEntity
  8
10_PLASTIC_EDGE_1
 62
5
100
AcDbSpline
 70
8
 71
3
 72
8
 73
4
 74
0
 40
0
 40
0
 40
0
 40
0
 40
1
 40
1
 40
1
 40
1
 10
6.898015
 20
7.315488
 30
0.0
 10
6.936421
 20
7.459785
 30
0.0
 10
6.879244
 20
7.612712
 30
0.0
 10
6.755474
 20
7.696229
 30
0.0
  0
LINE
  5
2dd
100
AcDbEntity
  8
10_PLASTIC_EDGE_1
 62
5
100
AcDbLine
 10
6.755474
 20
7.696229
 30
0.0
 11
4.454484
 21
9.248285
 31
0.0
  0
SPLINE
  5
2de
100
AcDbEntity
  8
10_PLASTIC_EDGE_1
 62
5
100
AcDbSpline
 70
8
 71
3
 72
8
 73
4
 74
0
 40
0
 40
0
 40
0
 40
0
 40
1
 40
1
 40
1
 40
1
 10
4.454484
 20
9.248285
 30
0.0
 10
4.434088
 20
9.262013
 30
0.0
 10
4.417400
 20
9.280552
 30
0.0
 10
4.405713
 20
9.302256
 30
0.0
  0
LINE
  5
2df
100
AcDbEntity
  8
10_PLASTIC_EDGE_1
 62
5
100
AcDbLine
 10
4.405713
 20
9.302256
 30
0.0
 11
3.841963
 21
10.363813
 31
0.0
  0
SPLINE
  5
2e0
100
AcDbEntity
  8
10_PLASTIC_EDGE_1
 62
5
100
AcDbSpline
 70
8
 71
3
 72
8
 73
4
 74
0
 40
0
 40
0
 40
0
 40
0
 40
1
 40
1
 40
1
 40
1
 10
3.841963
 20
10.363813
 30
0.0
 10
3.734202
 20
10.566561
 30
0.0
 10
3.502254
 20
10.669909
 30
0.0
 10
3.279473
 20
10.614408
 30
0.0
  0
SPLINE
  5
2e1
100
AcDbEntity
  8
10_PLASTIC_EDGE_1
 62
5
100
AcDbSpline
 70
8
 71
3
 72
8
 73
4
 74
0
 40
0
 40
0
 40
0
 40
0
 40
1
 40
1
 40
1
 40
1
 10
3.279473
 20
10.614408
 30
0.0
 10
3.056702
 20
10.558908
 30
0.0
 10
2.900348
 20
10.358823
 30
0.0
 10
2.900348
 20
10.129235
 30
0.0
  0
SPLINE
  5
2e2
100
AcDbEntity
  8
10_PLASTIC_EDGE_1
 62
5
100
AcDbSpline
 70
8
 71
3
 72
8
 73
4
 74
0
 40
0
 40
0
 40
0
 40
0
 40
1
 40
1
 40
1
 40
1
 10
2.900348
 20
10.129235
 30
0.0
 10
2.900348
 20
9.563142
 30
0.0
 10
2.441442
 20
9.104235
 30
0.0
 10
1.875348
 20
9.104235
 30
0.0
  0
SPLINE
  5
2e3
100
AcDbEntity
  8
10_PLASTIC_EDGE_1
 62
5
100
AcDbSpline
 70
8
 71
3
 72
8
 73
4
 74
0
 40
0
 40
0
 40
0
 40
0
 40
1
 40
1
 40
1
 40
1
 10
1.875348
 20
9.104235
 30
0.0
 10
1.309254
 20
9.104235
 30
0.0
 10
0.850348
 20
9.563142
 30
0.0
 10
0.850348
 20
10.129235
 30
0.0
  0
LINE
  5
2e4
100
AcDbEntity
  8
10_PLASTIC_EDGE_1
 62
5
100
AcDbLine
 10
0.850348
 20
10.129235
 30
0.0
 11
0.250348
 21
10.129235
 31
0.0
  0
LINE
  5
2e5
100
AcDbEntity
  8
10_PLASTIC_EDGE_1
 62
5
100
AcDbLine
 10
0.250348
 20
10.129235
 30
0.0
 11
0.250348
 21
0.249964
 31
0.0
  0
LINE
  5
2e6
100
AcDbEntity
  8
10_PLASTIC_EDGE_1
 62
5
100
AcDbLine
 10
0.250348
 20
0.249964
 30
0.0
 11
10.312849
 21
0.249964
 31
0.0
  0
LINE
  5
2e7
100
AcDbEntity
  8
10_PLASTIC_EDGE_1
 62
5
100
AcDbLine
 10
10.312849
 20
0.249964
 30
0.0
 11
10.314245
 21
0.851638
 31
0.0
  0
SPLINE
  5
2e8
100
AcDbEntity
  8
10_PLASTIC_EDGE_1
 62
5
100
AcDbSpline
 70
8
 71
3
 72
8
 73
4
 74
0
 40
0
 40
0
 40
0
 40
0
 40
1
 40
1
 40
1
 40
1
 10
10.314245
 20
0.851638
 30
0.0
 10
8.807151
 20
0.895412
 30
0.0
 10
7.308057
 20
1.105021
 30
0.0
 10
5.845411
 20
1.476689
 30
0.0
  0
LINE
  5
2e9
100
AcDbEntity
  8
10_PLASTIC_EDGE_1
 62
5
100
AcDbLine
 10
5.845411
 20
1.476689
 30
0.0
 11
5.845411
 21
1.476689
 31
0.0
  0
LINE
  5
2ea
100
AcDbEntity
  8
10_PLASTIC_EDGE_1
 62
5
100
AcDbLine
 10
8.635713
 20
7.841865
 30
0.0
 11
10.985766
 21
10.132360
 31
0.0
  0
LINE
  5
2eb
100
AcDbEntity
  8
10_PLASTIC_EDGE_1
 62
5
100
AcDbLine
 10
10.985766
 20
10.132360
 30
0.0
 11
11.750349
 21
10.132360
 31
0.0
  0
LINE
  5
2ec
100
AcDbEntity
  8
10_PLASTIC_EDGE_1
 62
5
100
AcDbLine
 10
11.750349
 20
10.132360
 30
0.0
 11
11.750349
 21
2.499964
 31
0.0
  0
LINE
  5
2ed
100
AcDbEntity
  8
10_PLASTIC_EDGE_1
 62
5
100
AcDbLine
 10
11.750349
 20
2.499964
 30
0.0
 11
11.250349
 21
2.499966
 31
0.0
  0
SPLINE
  5
2ee
100
AcDbEntity
  8
10_PLASTIC_EDGE_1
 62
5
100
AcDbSpline
 70
8
 71
3
 72
8
 73
4
 74
0
 40
0
 40
0
 40
0
 40
0
 40
1
 40
1
 40
1
 40
1
 10
11.250349
 20
2.499966
 30
0.0
 10
11.195120
 20
2.499967
 30
0.0
 10
11.150349
 20
2.544739
 30
0.0
 10
11.150349
 20
2.599965
 30
0.0
  0
LINE
  5
2ef
100
AcDbEntity
  8
10_PLASTIC_EDGE_1
 62
5
100
AcDbLine
 10
11.150349
 20
2.599965
 30
0.0
 11
11.150349
 21
3.589668
 31
0.0
  0
SPLINE
  5
2f0
100
AcDbEntity
  8
10_PLASTIC_EDGE_1
 62
5
100
AcDbSpline
 70
8
 71
3
 72
8
 73
4
 74
0
 40
0
 40
0
 40
0
 40
0
 40
1
 40
1
 40
1
 40
1
 10
11.150349
 20
3.589668
 30
0.0
 10
10.857422
 20
4.989364
 30
0.0
 10
10.018765
 20
6.214592
 30
0.0
 10
8.820067
 20
6.994152
 30
0.0
  0
LINE
  5
2f1
100
AcDbEntity
  8
10_PLASTIC_EDGE_1
 62
5
100
AcDbLine
 10
8.820067
 20
6.994152
 30
0.0
 11
8.728286
 21
7.053949
 31
0.0
  0
SPLINE
  5
2f2
100
AcDbEntity
  8
10_PLASTIC_EDGE_1
 62
5
100
AcDbSpline
 70
8
 71
3
 72
8
 73
4
 74
0
 40
0
 40
0
 40
0
 40
0
 40
1
 40
1
 40
1
 40
1
 10
8.728286
 20
7.053949
 30
0.0
 10
8.457536
 20
7.229883
 30
0.0
 10
8.413203
 20
7.608203
 30
0.0
 10
8.635755
 20
7.841865
 30
0.0
  0
LINE
  5
2f3
100
AcDbEntity
  8
10_PLASTIC_EDGE_1
 62
5
100
AcDbLine
 10
8.635755
 20
7.841865
 30
0.0
 11
8.635713
 21
7.841865
 31
0.0
  0
SPLINE
  5
2f4
100
AcDbEntity
  8
10_PLASTIC_EDGE_1
 62
5
100
AcDbSpline
 70
8
 71
3
 72
8
 73
4
 74
0
 40
0
 40
0
 40
0
 40
0
 40
1
 40
1
 40
1
 40
1
 10
9.942172
 20
1.509512
 30
0.0
 10
10.295953
 20
1.438142
 30
0.0
 10
10.606443
 20
1.753355
 30
0.0
 10
10.529640
 20
2.105881
 30
0.0
  0
LINE
  5
2f5
100
AcDbEntity
  8
10_PLASTIC_EDGE_1
 62
5
100
AcDbLine
 10
10.529640
 20
2.105881
 30
0.0
 11
10.375182
 21
2.817456
 31
0.0
  0
SPLINE
  5
2f6
100
AcDbEntity
  8
10_PLASTIC_EDGE_1
 62
5
100
AcDbSpline
 70
8
 71
3
 72
8
 73
4
 74
0
 40
0
 40
0
 40
0
 40
0
 40
1
 40
1
 40
1
 40
1
 10
10.375182
 20
2.817456
 30
0.0
 10
10.329859
 20
3.025060
 30
0.0
 10
10.144318
 20
3.171845
 30
0.0
 10
9.931890
 20
3.168011
 30
0.0
  0
SPLINE
  5
2f7
100
AcDbEntity
  8
10_PLASTIC_EDGE_1
 62
5
100
AcDbSpline
 70
8
 71
3
 72
8
 73
4
 74
0
 40
0
 40
0
 40
0
 40
0
 40
1
 40
1
 40
1
 40
1
 10
9.931890
 20
3.168011
 30
0.0
 10
9.644203
 20
2.660145
 30
0.0
 10
9.064151
 20
2.392938
 30
0.0
 10
8.491182
 20
2.504334
 30
0.0
  0
SPLINE
  5
2f8
100
AcDbEntity
  8
10_PLASTIC_EDGE_1
 62
5
100
AcDbSpline
 70
8
 71
3
 72
8
 73
4
 74
0
 40
0
 40
0
 40
0
 40
0
 40
1
 40
1
 40
1
 40
1
 10
8.491182
 20
2.504334
 30
0.0
 10
7.918224
 20
2.615729
 30
0.0
 10
7.480546
 20
3.080805
 30
0.0
 10
7.404099
 20
3.659467
 30
0.0
  0
SPLINE
  5
2f9
100
AcDbEntity
  8
10_PLASTIC_EDGE_1
 62
5
100
AcDbSpline
 70
8
 71
3
 72
8
 73
4
 74
0
 40
0
 40
0
 40
0
 40
0
 40
1
 40
1
 40
1
 40
1
 10
7.404099
 20
3.659467
 30
0.0
 10
7.224359
 20
3.727807
 30
0.0
 10
7.021307
 20
3.661198
 30
0.0
 10
6.916994
 20
3.499714
 30
0.0
  0
LINE
  5
2fa
100
AcDbEntity
  8
10_PLASTIC_EDGE_1
 62
5
100
AcDbLine
 10
6.916994
 20
3.499714
 30
0.0
 11
6.527421
 21
2.896614
 31
0.0
  0
SPLINE
  5
2fb
100
AcDbEntity
  8
10_PLASTIC_EDGE_1
 62
5
100
AcDbSpline
 70
8
 71
3
 72
8
 73
4
 74
0
 40
0
 40
0
 40
0
 40
0
 40
1
 40
1
 40
1
 40
1
 10
6.527421
 20
2.896614
 30
0.0
 10
6.334817
 20
2.600589
 30
0.0
 10
6.501463
 20
2.203626
 30
0.0
 10
6.847432
 20
2.133805
 30
0.0
  0
LINE
  5
2fc
100
AcDbEntity
  8
10_PLASTIC_EDGE_1
 62
5
100
AcDbLine
 10
6.847432
 20
2.133805
 30
0.0
 11
9.942172
 21
1.509512
 31
0.0
  0
SPLINE
  5
2fd
100
AcDbEntity
  8
10_PLASTIC_EDGE_1
 62
5
100
AcDbSpline
 70
8
 71
3
 72
8
 73
4
 74
0
 40
0
 40
0
 40
0
 40
0
 40
1
 40
1
 40
1
 40
1
 10
8.000349
 20
3.876073
 30
0.0
 10
8.215817
 20
3.876073
 30
0.0
 10
8.407057
 20
4.014113
 30
0.0
 10
8.475088
 20
4.218626
 30
0.0
  0
LINE
  5
2fe
100
AcDbEntity
  8
10_PLASTIC_EDGE_1
 62
5
100
AcDbLine
 10
8.475088
 20
4.218626
 30
0.0
 11
8.955557
 21
5.667484
 31
0.0
  0
SPLINE
  5
2ff
100
AcDbEntity
  8
10_PLASTIC_EDGE_1
 62
5
100
AcDbSpline
 70
8
 71
3
 72
8
 73
4
 74
0
 40
0
 40
0
 40
0
 40
0
 40
1
 40
1
 40
1
 40
1
 10
8.955557
 20
5.667484
 30
0.0
 10
9.003161
 20
5.810702
 30
0.0
 10
8.983453
 20
5.967718
 30
0.0
 10
8.902234
 20
6.094756
 30
0.0
  0
LINE
  5
300
100
AcDbEntity
  8
10_PLASTIC_EDGE_1
 62
5
100
AcDbLine
 10
8.902234
 20
6.094756
 30
0.0
 11
8.421234
 21
6.844756
 31
0.0
  0
SPLINE
  5
301
100
AcDbEntity
  8
10_PLASTIC_EDGE_1
 62
5
100
AcDbSpline
 70
8
 71
3
 72
8
 73
4
 74
0
 40
0
 40
0
 40
0
 40
0
 40
1
 40
1
 40
1
 40
1
 10
8.421234
 20
6.844756
 30
0.0
 10
8.224578
 20
7.151662
 30
0.0
 10
7.776119
 20
7.151662
 30
0.0
 10
7.579463
 20
6.844756
 30
0.0
  0
LINE
  5
302
100
AcDbEntity
  8
10_PLASTIC_EDGE_1
 62
5
100
AcDbLine
 10
7.579463
 20
6.844756
 30
0.0
 11
7.098474
 21
6.094756
 31
0.0
  0
SPLINE
  5
303
100
AcDbEntity
  8
10_PLASTIC_EDGE_1
 62
5
100
AcDbSpline
 70
8
 71
3
 72
8
 73
4
 74
0
 40
0
 40
0
 40
0
 40
0
 40
1
 40
1
 40
1
 40
1
 10
7.098474
 20
6.094756
 30
0.0
 10
7.017244
 20
5.967718
 30
0.0
 10
6.997536
 20
5.810702
 30
0.0
 10
7.045057
 20
5.667484
 30
0.0
  0
LINE
  5
304
100
AcDbEntity
  8
10_PLASTIC_EDGE_1
 62
5
100
AcDbLine
 10
7.045057
 20
5.667484
 30
0.0
 11
7.525526
 21
4.218626
 31
0.0
  0
SPLINE
  5
305
100
AcDbEntity
  8
10_PLASTIC_EDGE_1
 62
5
100
AcDbSpline
 70
8
 71
3
 72
8
 73
4
 74
0
 40
0
 40
0
 40
0
 40
0
 40
1
 40
1
 40
1
 40
1
 10
7.525526
 20
4.218626
 30
0.0
 10
7.593640
 20
4.014113
 30
0.0
 10
7.784880
 20
3.876073
 30
0.0
 10
8.000349
 20
3.876073
 30
0.0
  0
LINE
  5
306
100
AcDbEntity
  8
10_PLASTIC_EDGE_1
 62
5
100
AcDbLine
 10
8.000349
 20
3.876073
 30
0.0
 11
8.000349
 21
3.876073
 31
0.0
  0
SPLINE
  5
307
100
AcDbEntity
  8
10_PLASTIC_EDGE_1
 62
5
100
AcDbSpline
 70
8
 71
3
 72
8
 73
4
 74
0
 40
0
 40
0
 40
0
 40
0
 40
1
 40
1
 40
1
 40
1
 10
4.407494
 20
18.510085
 30
0.0
 10
4.379359
 20
18.614706
 30
0.0
 10
4.386036
 20
18.725601
 30
0.0
 10
4.426411
 20
18.826105
 30
0.0
  0
LINE
  5
308
100
AcDbEntity
  8
10_PLASTIC_EDGE_1
 62
5
100
AcDbLine
 10
4.426411
 20
18.826105
 30
0.0
 11
4.037869
 21
20.276196
 31
0.0
  0
SPLINE
  5
309
100
AcDbEntity
  8
10_PLASTIC_EDGE_1
 62
5
100
AcDbSpline
 70
8
 71
3
 72
8
 73
4
 74
0
 40
0
 40
0
 40
0
 40
0
 40
1
 40
1
 40
1
 40
1
 10
4.037869
 20
20.276196
 30
0.0
 10
3.873505
 20
20.889659
 30
0.0
 10
4.237577
 20
21.520246
 30
0.0
 10
4.851203
 20
21.684650
 30
0.0
  0
LINE
  5
30a
100
AcDbEntity
  8
10_PLASTIC_EDGE_1
 62
5
100
AcDbLine
 10
4.851203
 20
21.684650
 30
0.0
 11
5.553275
 21
21.872772
 31
0.0
  0
SPLINE
  5
30b
100
AcDbEntity
  8
10_PLASTIC_EDGE_1
 62
5
100
AcDbSpline
 70
8
 71
3
 72
8
 73
4
 74
0
 40
0
 40
0
 40
0
 40
0
 40
1
 40
1
 40
1
 40
1
 10
5.553275
 20
21.872772
 30
0.0
 10
5.819869
 20
21.944218
 30
0.0
 10
5.978161
 20
22.218388
 30
0.0
 10
5.906651
 20
22.485149
 30
0.0
  0
LINE
  5
30c
100
AcDbEntity
  8
10_PLASTIC_EDGE_1
 62
5
100
AcDbLine
 10
5.906651
 20
22.485149
 30
0.0
 11
5.821234
 21
22.803806
 31
0.0
  0
SPLINE
  5
30d
100
AcDbEntity
  8
10_PLASTIC_EDGE_1
 62
5
100
AcDbSpline
 70
8
 71
3
 72
8
 73
4
 74
0
 40
0
 40
0
 40
0
 40
0
 40
1
 40
1
 40
1
 40
1
 10
5.821234
 20
22.803806
 30
0.0
 10
5.774494
 20
22.978455
 30
0.0
 10
5.906109
 20
23.149973
 30
0.0
 10
6.086869
 20
23.149967
 30
0.0
  0
LINE
  5
30e
100
AcDbEntity
  8
10_PLASTIC_EDGE_1
 62
5
100
AcDbLine
 10
6.086869
 20
23.149967
 30
0.0
 11
10.312849
 21
23.149966
 31
0.0
  0
LINE
  5
30f
100
AcDbEntity
  8
10_PLASTIC_EDGE_1
 62
5
100
AcDbLine
 10
10.312849
 20
23.149966
 30
0.0
 11
10.312849
 21
23.749966
 31
0.0
  0
LINE
  5
310
100
AcDbEntity
  8
10_PLASTIC_EDGE_1
 62
5
100
AcDbLine
 10
10.312849
 20
23.749966
 30
0.0
 11
0.250348
 21
23.749966
 31
0.0
  0
LINE
  5
311
100
AcDbEntity
  8
10_PLASTIC_EDGE_1
 62
5
100
AcDbLine
 10
0.250348
 20
23.749966
 30
0.0
 11
0.250348
 21
14.671944
 31
0.0
  0
LINE
  5
312
100
AcDbEntity
  8
10_PLASTIC_EDGE_1
 62
5
100
AcDbLine
 10
0.250348
 20
14.671944
 30
0.0
 11
0.870213
 21
14.671947
 31
0.0
  0
SPLINE
  5
313
100
AcDbEntity
  8
10_PLASTIC_EDGE_1
 62
5
100
AcDbSpline
 70
8
 71
3
 72
8
 73
4
 74
0
 40
0
 40
0
 40
0
 40
0
 40
1
 40
1
 40
1
 40
1
 10
0.870213
 20
14.671947
 30
0.0
 10
0.870213
 20
15.434103
 30
0.0
 10
1.621629
 20
15.968903
 30
0.0
 10
2.341890
 20
15.719334
 30
0.0
  0
LINE
  5
314
100
AcDbEntity
  8
10_PLASTIC_EDGE_1
 62
5
100
AcDbLine
 10
2.341890
 20
15.719334
 30
0.0
 11
3.602400
 21
15.282454
 31
0.0
  0
SPLINE
  5
315
100
AcDbEntity
  8
10_PLASTIC_EDGE_1
 62
5
100
AcDbSpline
 70
8
 71
3
 72
8
 73
4
 74
0
 40
0
 40
0
 40
0
 40
0
 40
1
 40
1
 40
1
 40
1
 10
3.602400
 20
15.282454
 30
0.0
 10
3.684390
 20
15.254019
 30
0.0
 10
3.775286
 20
15.270175
 30
0.0
 10
3.842505
 20
15.325116
 30
0.0
  0
SPLINE
  5
316
100
AcDbEntity
  8
10_PLASTIC_EDGE_1
 62
5
100
AcDbSpline
 70
8
 71
3
 72
8
 73
4
 74
0
 40
0
 40
0
 40
0
 40
0
 40
1
 40
1
 40
1
 40
1
 10
3.842505
 20
15.325116
 30
0.0
 10
4.282525
 20
15.684894
 30
0.0
 10
4.900036
 20
15.732598
 30
0.0
 10
5.390046
 20
15.444668
 30
0.0
  0
SPLINE
  5
317
100
AcDbEntity
  8
10_PLASTIC_EDGE_1
 62
5
100
AcDbSpline
 70
8
 71
3
 72
8
 73
4
 74
0
 40
0
 40
0
 40
0
 40
0
 40
1
 40
1
 40
1
 40
1
 10
5.390046
 20
15.444668
 30
0.0
 10
5.522432
 20
15.366873
 30
0.0
 10
5.693025
 20
15.425729
 30
0.0
 10
5.749275
 20
15.568624
 30
0.0
  0
LINE
  5
318
100
AcDbEntity
  8
10_PLASTIC_EDGE_1
 62
5
100
AcDbLine
 10
5.749275
 20
15.568624
 30
0.0
 11
5.803453
 21
15.705598
 31
0.0
  0
LINE
  5
319
100
AcDbEntity
  8
10_PLASTIC_EDGE_1
 62
5
100
AcDbLine
 10
5.803453
 20
15.705598
 30
0.0
 11
5.894973
 21
15.938191
 31
0.0
  0
SPLINE
  5
31a
100
AcDbEntity
  8
10_PLASTIC_EDGE_1
 62
5
100
AcDbSpline
 70
8
 71
3
 72
8
 73
4
 74
0
 40
0
 40
0
 40
0
 40
0
 40
1
 40
1
 40
1
 40
1
 10
5.894973
 20
15.938191
 30
0.0
 10
5.991005
 20
16.182459
 30
0.0
 10
5.881890
 20
16.459522
 30
0.0
 10
5.645057
 20
16.572591
 30
0.0
  0
LINE
  5
31b
100
AcDbEntity
  8
10_PLASTIC_EDGE_1
 62
5
100
AcDbLine
 10
5.645057
 20
16.572591
 30
0.0
 11
5.377453
 21
16.700290
 31
0.0
  0
SPLINE
  5
31c
100
AcDbEntity
  8
10_PLASTIC_EDGE_1
 62
5
100
AcDbSpline
 70
8
 71
3
 72
8
 73
4
 74
0
 40
0
 40
0
 40
0
 40
0
 40
1
 40
1
 40
1
 40
1
 10
5.377453
 20
16.700290
 30
0.0
 10
5.118671
 20
16.648206
 30
0.0
 10
4.863942
 20
16.806202
 30
0.0
 10
4.795359
 20
17.061213
 30
0.0
  0
LINE
  5
31d
100
AcDbEntity
  8
10_PLASTIC_EDGE_1
 62
5
100
AcDbLine
 10
4.795359
 20
17.061213
 30
0.0
 11
4.407494
 21
18.510085
 31
0.0
  0
SPLINE
  5
31e
100
AcDbEntity
  8
10_PLASTIC_EDGE_1
 62
5
100
AcDbSpline
 70
8
 71
3
 72
8
 73
4
 74
0
 40
0
 40
0
 40
0
 40
0
 40
1
 40
1
 40
1
 40
1
 10
0.727348
 20
13.966089
 30
0.0
 10
0.637806
 20
14.029552
 30
0.0
 10
0.515806
 20
13.955107
 30
0.0
 10
0.531265
 20
13.846458
 30
0.0
  0
SPLINE
  5
31f
100
AcDbEntity
  8
10_PLASTIC_EDGE_1
 62
5
100
AcDbSpline
 70
8
 71
3
 72
8
 73
4
 74
0
 40
0
 40
0
 40
0
 40
0
 40
1
 40
1
 40
1
 40
1
 10
0.531265
 20
13.846458
 30
0.0
 10
0.564619
 20
13.612263
 30
0.0
 10
0.456348
 20
13.380504
 30
0.0
 10
0.255358
 20
13.255846
 30
0.0
  0
SPLINE
  5
320
100
AcDbEntity
  8
10_PLASTIC_EDGE_1
 62
5
100
AcDbSpline
 70
8
 71
3
 72
8
 73
4
 74
0
 40
0
 40
0
 40
0
 40
0
 40
1
 40
1
 40
1
 40
1
 10
0.255358
 20
13.255846
 30
0.0
 10
0.174713
 20
13.205827
 30
0.0
 10
0.177056
 20
13.087663
 30
0.0
 10
0.259660
 20
13.040871
 30
0.0
  0
LINE
  5
321
100
AcDbEntity
  8
10_PLASTIC_EDGE_1
 62
5
100
AcDbLine
 10
0.259660
 20
13.040871
 30
0.0
 11
3.111692
 21
11.425274
 31
0.0
  0
SPLINE
  5
322
100
AcDbEntity
  8
10_PLASTIC_EDGE_1
 62
5
100
AcDbSpline
 70
8
 71
3
 72
8
 73
4
 74
0
 40
0
 40
0
 40
0
 40
0
 40
1
 40
1
 40
1
 40
1
 10
3.111692
 20
11.425274
 30
0.0
 10
3.265796
 20
11.337975
 30
0.0
 10
3.454650
 20
11.338749
 30
0.0
 10
3.607859
 20
11.427349
 30
0.0
  0
LINE
  5
323
100
AcDbEntity
  8
10_PLASTIC_EDGE_1
 62
5
100
AcDbLine
 10
3.607859
 20
11.427349
 30
0.0
 11
4.430619
 21
11.902264
 31
0.0
  0
SPLINE
  5
324
100
AcDbEntity
  8
10_PLASTIC_EDGE_1
 62
5
100
AcDbSpline
 70
8
 71
3
 72
8
 73
4
 74
0
 40
0
 40
0
 40
0
 40
0
 40
1
 40
1
 40
1
 40
1
 10
4.430619
 20
11.902264
 30
0.0
 10
4.482005
 20
11.931897
 30
0.0
 10
4.505473
 20
11.993480
 30
0.0
 10
4.486880
 20
12.049742
 30
0.0
  0
SPLINE
  5
325
100
AcDbEntity
  8
10_PLASTIC_EDGE_1
 62
5
100
AcDbSpline
 70
8
 71
3
 72
8
 73
4
 74
0
 40
0
 40
0
 40
0
 40
0
 40
1
 40
1
 40
1
 40
1
 10
4.486880
 20
12.049742
 30
0.0
 10
4.468286
 20
12.106003
 30
0.0
 10
4.412755
 20
12.141482
 30
0.0
 10
4.353650
 20
12.134715
 30
0.0
  0
LINE
  5
326
100
AcDbEntity
  8
10_PLASTIC_EDGE_1
 62
5
100
AcDbLine
 10
4.353650
 20
12.134715
 30
0.0
 11
3.647171
 21
12.053304
 31
0.0
  0
SPLINE
  5
327
100
AcDbEntity
  8
10_PLASTIC_EDGE_1
 62
5
100
AcDbSpline
 70
8
 71
3
 72
8
 73
4
 74
0
 40
0
 40
0
 40
0
 40
0
 40
1
 40
1
 40
1
 40
1
 10
3.647171
 20
12.053304
 30
0.0
 10
3.524744
 20
12.039241
 30
0.0
 10
3.401411
 20
12.070857
 30
0.0
 10
3.300567
 20
12.142123
 30
0.0
  0
LINE
  5
328
100
AcDbEntity
  8
10_PLASTIC_EDGE_1
 62
5
100
AcDbLine
 10
3.300567
 20
12.142123
 30
0.0
 11
0.727348
 21
13.966089
 31
0.0
  0
SPLINE
  5
329
100
AcDbEntity
  8
10_PLASTIC_EDGE_1
 62
5
100
AcDbSpline
 70
8
 71
3
 72
8
 73
4
 74
0
 40
0
 40
0
 40
0
 40
0
 40
1
 40
1
 40
1
 40
1
 10
9.976328
 20
15.218695
 30
0.0
 10
9.779547
 20
15.525592
 30
0.0
 10
9.331078
 20
15.525592
 30
0.0
 10
9.134536
 20
15.218695
 30
0.0
  0
LINE
  5
32a
100
AcDbEntity
  8
10_PLASTIC_EDGE_1
 62
5
100
AcDbLine
 10
9.134536
 20
15.218695
 30
0.0
 11
8.653547
 21
14.468695
 31
0.0
  0
SPLINE
  5
32b
100
AcDbEntity
  8
10_PLASTIC_EDGE_1
 62
5
100
AcDbSpline
 70
8
 71
3
 72
8
 73
4
 74
0
 40
0
 40
0
 40
0
 40
0
 40
1
 40
1
 40
1
 40
1
 10
8.653547
 20
14.468695
 30
0.0
 10
8.572203
 20
14.341635
 30
0.0
 10
8.552505
 20
14.184618
 30
0.0
 10
8.600182
 20
14.041413
 30
0.0
  0
LINE
  5
32c
100
AcDbEntity
  8
10_PLASTIC_EDGE_1
 62
5
100
AcDbLine
 10
8.600182
 20
14.041413
 30
0.0
 11
9.080651
 21
12.592489
 31
0.0
  0
SPLINE
  5
32d
100
AcDbEntity
  8
10_PLASTIC_EDGE_1
 62
5
100
AcDbSpline
 70
8
 71
3
 72
8
 73
4
 74
0
 40
0
 40
0
 40
0
 40
0
 40
1
 40
1
 40
1
 40
1
 10
9.080651
 20
12.592489
 30
0.0
 10
9.148599
 20
12.388002
 30
0.0
 10
9.339838
 20
12.249963
 30
0.0
 10
9.555307
 20
12.249963
 30
0.0
  0
SPLINE
  5
32e
100
AcDbEntity
  8
10_PLASTIC_EDGE_1
 62
5
100
AcDbSpline
 70
8
 71
3
 72
8
 73
4
 74
0
 40
0
 40
0
 40
0
 40
0
 40
1
 40
1
 40
1
 40
1
 10
9.555307
 20
12.249963
 30
0.0
 10
9.770776
 20
12.249963
 30
0.0
 10
9.962015
 20
12.388002
 30
0.0
 10
10.029693
 20
12.592489
 30
0.0
  0
LINE
  5
32f
100
AcDbEntity
  8
10_PLASTIC_EDGE_1
 62
5
100
AcDbLine
 10
10.029693
 20
12.592489
 30
0.0
 11
10.510682
 21
14.041413
 31
0.0
  0
SPLINE
  5
330
100
AcDbEntity
  8
10_PLASTIC_EDGE_1
 62
5
100
AcDbSpline
 70
8
 71
3
 72
8
 73
4
 74
0
 40
0
 40
0
 40
0
 40
0
 40
1
 40
1
 40
1
 40
1
 10
10.510682
 20
14.041413
 30
0.0
 10
10.558120
 20
14.184619
 30
0.0
 10
10.538411
 20
14.341637
 30
0.0
 10
10.456786
 20
14.468695
 30
0.0
  0
LINE
  5
331
100
AcDbEntity
  8
10_PLASTIC_EDGE_1
 62
5
100
AcDbLine
 10
10.456786
 20
14.468695
 30
0.0
 11
9.976328
 21
15.218695
 31
0.0
  0
SPLINE
  5
332
100
AcDbEntity
  8
10_PLASTIC_EDGE_1
 62
5
100
AcDbSpline
 70
8
 71
3
 72
8
 73
4
 74
0
 40
0
 40
0
 40
0
 40
0
 40
1
 40
1
 40
1
 40
1
 10
10.939932
 20
14.434151
 30
0.0
 10
11.012547
 20
14.334588
 30
0.0
 10
11.045828
 20
14.211694
 30
0.0
 10
11.033526
 20
14.089052
 30
0.0
  0
LINE
  5
333
100
AcDbEntity
  8
10_PLASTIC_EDGE_1
 62
5
100
AcDbLine
 10
11.033526
 20
14.089052
 30
0.0
 11
10.714870
 21
10.950823
 31
0.0
  0
SPLINE
  5
334
100
AcDbEntity
  8
10_PLASTIC_EDGE_1
 62
5
100
AcDbSpline
 70
8
 71
3
 72
8
 73
4
 74
0
 40
0
 40
0
 40
0
 40
0
 40
1
 40
1
 40
1
 40
1
 10
10.714870
 20
10.950823
 30
0.0
 10
10.703724
 20
10.841675
 30
0.0
 10
10.828630
 20
10.772222
 30
0.0
 10
10.915516
 20
10.839245
 30
0.0
  0
SPLINE
  5
335
100
AcDbEntity
  8
10_PLASTIC_EDGE_1
 62
5
100
AcDbSpline
 70
8
 71
3
 72
8
 73
4
 74
0
 40
0
 40
0
 40
0
 40
0
 40
1
 40
1
 40
1
 40
1
 10
10.915516
 20
10.839245
 30
0.0
 10
11.102818
 20
10.983714
 30
0.0
 10
11.357828
 20
11.003743
 30
0.0
 10
11.565391
 20
10.890285
 30
0.0
  0
SPLINE
  5
336
100
AcDbEntity
  8
10_PLASTIC_EDGE_1
 62
5
100
AcDbSpline
 70
8
 71
3
 72
8
 73
4
 74
0
 40
0
 40
0
 40
0
 40
0
 40
1
 40
1
 40
1
 40
1
 10
11.565391
 20
10.890285
 30
0.0
 10
11.648693
 20
10.844749
 30
0.0
 10
11.750349
 20
10.905033
 30
0.0
 10
11.750349
 20
10.999967
 30
0.0
  0
LINE
  5
337
100
AcDbEntity
  8
10_PLASTIC_EDGE_1
 62
5
100
AcDbLine
 10
11.750349
 20
10.999967
 30
0.0
 11
11.750349
 21
14.277764
 31
0.0
  0
SPLINE
  5
338
100
AcDbEntity
  8
10_PLASTIC_EDGE_1
 62
5
100
AcDbSpline
 70
8
 71
3
 72
8
 73
4
 74
0
 40
0
 40
0
 40
0
 40
0
 40
1
 40
1
 40
1
 40
1
 10
11.750349
 20
14.277764
 30
0.0
 10
11.750349
 20
14.454918
 30
0.0
 10
11.656589
 20
14.618859
 30
0.0
 10
11.503682
 20
14.708707
 30
0.0
  0
LINE
  5
339
100
AcDbEntity
  8
10_PLASTIC_EDGE_1
 62
5
100
AcDbLine
 10
11.503682
 20
14.708707
 30
0.0
 11
10.684932
 21
15.190387
 31
0.0
  0
SPLINE
  5
33a
100
AcDbEntity
  8
10_PLASTIC_EDGE_1
 62
5
100
AcDbSpline
 70
8
 71
3
 72
8
 73
4
 74
0
 40
0
 40
0
 40
0
 40
0
 40
1
 40
1
 40
1
 40
1
 10
10.684932
 20
15.190387
 30
0.0
 10
10.568224
 20
15.259181
 30
0.0
 10
10.440828
 20
15.118611
 30
0.0
 10
10.520963
 20
15.009016
 30
0.0
  0
LINE
  5
33b
100
AcDbEntity
  8
10_PLASTIC_EDGE_1
 62
5
100
AcDbLine
 10
10.520963
 20
15.009016
 30
0.0
 11
10.939932
 21
14.434151
 31
0.0
  0
SPLINE
  5
33c
100
AcDbEntity
  8
10_PLASTIC_EDGE_1
 62
5
100
AcDbSpline
 70
8
 71
3
 72
8
 73
4
 74
0
 40
0
 40
0
 40
0
 40
0
 40
1
 40
1
 40
1
 40
1
 10
7.753672
 20
13.678392
 30
0.0
 10
7.917307
 20
13.779698
 30
0.0
 10
8.129328
 20
13.752972
 30
0.0
 10
8.262515
 20
13.614264
 30
0.0
  0
SPLINE
  5
33d
100
AcDbEntity
  8
10_PLASTIC_EDGE_1
 62
5
100
AcDbSpline
 70
8
 71
3
 72
8
 73
4
 74
0
 40
0
 40
0
 40
0
 40
0
 40
1
 40
1
 40
1
 40
1
 10
8.262515
 20
13.614264
 30
0.0
 10
8.083890
 20
13.058576
 30
0.0
 10
8.280349
 20
12.450903
 30
0.0
 10
8.750474
 20
12.104957
 30
0.0
  0
SPLINE
  5
33e
100
AcDbEntity
  8
10_PLASTIC_EDGE_1
 62
5
100
AcDbSpline
 70
8
 71
3
 72
8
 73
4
 74
0
 40
0
 40
0
 40
0
 40
0
 40
1
 40
1
 40
1
 40
1
 10
8.750474
 20
12.104957
 30
0.0
 10
9.220599
 20
11.759011
 30
0.0
 10
9.859203
 20
11.752193
 30
0.0
 10
10.336609
 20
12.088022
 30
0.0
  0
SPLINE
  5
33f
100
AcDbEntity
  8
10_PLASTIC_EDGE_1
 62
5
100
AcDbSpline
 70
8
 71
3
 72
8
 73
4
 74
0
 40
0
 40
0
 40
0
 40
0
 40
1
 40
1
 40
1
 40
1
 10
10.336609
 20
12.088022
 30
0.0
 10
10.530224
 20
12.000549
 30
0.0
 10
10.635068
 20
11.788467
 30
0.0
 10
10.586911
 20
11.581521
 30
0.0
  0
LINE
  5
340
100
AcDbEntity
  8
10_PLASTIC_EDGE_1
 62
5
100
AcDbLine
 10
10.586911
 20
11.581521
 30
0.0
 11
10.422245
 21
10.872162
 31
0.0
  0
SPLINE
  5
341
100
AcDbEntity
  8
10_PLASTIC_EDGE_1
 62
5
100
AcDbSpline
 70
8
 71
3
 72
8
 73
4
 74
0
 40
0
 40
0
 40
0
 40
0
 40
1
 40
1
 40
1
 40
1
 10
10.422245
 20
10.872162
 30
0.0
 10
10.340640
 20
10.520782
 30
0.0
 10
9.925109
 20
10.368825
 30
0.0
 10
9.635911
 20
10.584659
 30
0.0
  0
LINE
  5
342
100
AcDbEntity
  8
10_PLASTIC_EDGE_1
 62
5
100
AcDbLine
 10
9.635911
 20
10.584659
 30
0.0
 11
7.106546
 21
12.473617
 31
0.0
  0
SPLINE
  5
343
100
AcDbEntity
  8
10_PLASTIC_EDGE_1
 62
5
100
AcDbSpline
 70
8
 71
3
 72
8
 73
4
 74
0
 40
0
 40
0
 40
0
 40
0
 40
1
 40
1
 40
1
 40
1
 10
7.106546
 20
12.473617
 30
0.0
 10
6.823536
 20
12.684919
 30
0.0
 10
6.842859
 20
13.115010
 30
0.0
 10
7.143859
 20
13.300077
 30
0.0
  0
LINE
  5
344
100
AcDbEntity
  8
10_PLASTIC_EDGE_1
 62
5
100
AcDbLine
 10
7.143859
 20
13.300077
 30
0.0
 11
7.753672
 21
13.678392
 31
0.0
  0
LINE
  5
345
100
AcDbEntity
  8
10_PLASTIC_EDGE_1
 62
5
100
AcDbLine
 10
8.635713
 20
21.209448
 30
0.0
 11
10.985766
 21
23.499966
 31
0.0
  0
LINE
  5
346
100
AcDbEntity
  8
10_PLASTIC_EDGE_1
 62
5
100
AcDbLine
 10
10.985766
 20
23.499966
 30
0.0
 11
11.750349
 21
23.499966
 31
0.0
  0
LINE
  5
347
100
AcDbEntity
  8
10_PLASTIC_EDGE_1
 62
5
100
AcDbLine
 10
11.750349
 20
23.499966
 30
0.0
 11
11.750349
 21
15.867569
 31
0.0
  0
LINE
  5
348
100
AcDbEntity
  8
10_PLASTIC_EDGE_1
 62
5
100
AcDbLine
 10
11.750349
 20
15.867569
 30
0.0
 11
11.250349
 21
15.867569
 31
0.0
  0
SPLINE
  5
349
100
AcDbEntity
  8
10_PLASTIC_EDGE_1
 62
5
100
AcDbSpline
 70
8
 71
3
 72
8
 73
4
 74
0
 40
0
 40
0
 40
0
 40
0
 40
1
 40
1
 40
1
 40
1
 10
11.250349
 20
15.867569
 30
0.0
 10
11.195120
 20
15.867569
 30
0.0
 10
11.150349
 20
15.912320
 30
0.0
 10
11.150349
 20
15.967569
 30
0.0
  0
LINE
  5
34a
100
AcDbEntity
  8
10_PLASTIC_EDGE_1
 62
5
100
AcDbLine
 10
11.150349
 20
15.967569
 30
0.0
 11
11.150349
 21
16.957262
 31
0.0
  0
SPLINE
  5
34b
100
AcDbEntity
  8
10_PLASTIC_EDGE_1
 62
5
100
AcDbSpline
 70
8
 71
3
 72
8
 73
4
 74
0
 40
0
 40
0
 40
0
 40
0
 40
1
 40
1
 40
1
 40
1
 10
11.150349
 20
16.957262
 30
0.0
 10
10.857463
 20
18.356926
 30
0.0
 10
10.018807
 20
19.582154
 30
0.0
 10
8.820067
 20
20.361746
 30
0.0
  0
LINE
  5
34c
100
AcDbEntity
  8
10_PLASTIC_EDGE_1
 62
5
100
AcDbLine
 10
8.820067
 20
20.361746
 30
0.0
 11
8.728245
 21
20.421552
 31
0.0
  0
SPLINE
  5
34d
100
AcDbEntity
  8
10_PLASTIC_EDGE_1
 62
5
100
AcDbSpline
 70
8
 71
3
 72
8
 73
4
 74
0
 40
0
 40
0
 40
0
 40
0
 40
1
 40
1
 40
1
 40
1
 10
8.728245
 20
20.421552
 30
0.0
 10
8.457494
 20
20.597463
 30
0.0
 10
8.413161
 20
20.975783
 30
0.0
 10
8.635713
 20
21.209469
 30
0.0
  0
LINE
  5
34e
100
AcDbEntity
  8
10_PLASTIC_EDGE_1
 62
5
100
AcDbLine
 10
8.635713
 20
21.209469
 30
0.0
 11
8.635713
 21
21.209448
 31
0.0
  0
SPLINE
  5
34f
100
AcDbEntity
  8
10_PLASTIC_EDGE_1
 62
5
100
AcDbSpline
 70
8
 71
3
 72
8
 73
4
 74
0
 40
0
 40
0
 40
0
 40
0
 40
1
 40
1
 40
1
 40
1
 10
9.680630
 20
18.388185
 30
0.0
 10
8.481890
 20
19.167805
 30
0.0
 10
7.643234
 20
20.393033
 30
0.0
 10
7.350349
 20
21.792693
 30
0.0
  0
LINE
  5
350
100
AcDbEntity
  8
10_PLASTIC_EDGE_1
 62
5
100
AcDbLine
 10
7.350349
 20
21.792693
 30
0.0
 11
7.350349
 21
22.782362
 31
0.0
  0
SPLINE
  5
351
100
AcDbEntity
  8
10_PLASTIC_EDGE_1
 62
5
100
AcDbSpline
 70
8
 71
3
 72
8
 73
4
 74
0
 40
0
 40
0
 40
0
 40
0
 40
1
 40
1
 40
1
 40
1
 10
7.350349
 20
22.782362
 30
0.0
 10
7.350349
 20
22.837590
 30
0.0
 10
7.305578
 20
22.882362
 30
0.0
 10
7.250349
 20
22.882362
 30
0.0
  0
LINE
  5
352
100
AcDbEntity
  8
10_PLASTIC_EDGE_1
 62
5
100
AcDbLine
 10
7.250349
 20
22.882362
 30
0.0
 11
6.750349
 21
22.882362
 31
0.0
  0
LINE
  5
353
100
AcDbEntity
  8
10_PLASTIC_EDGE_1
 62
5
100
AcDbLine
 10
6.750349
 20
22.882362
 30
0.0
 11
6.750349
 21
15.249965
 31
0.0
  0
LINE
  5
354
100
AcDbEntity
  8
10_PLASTIC_EDGE_1
 62
5
100
AcDbLine
 10
6.750349
 20
15.249965
 30
0.0
 11
7.514932
 21
15.249965
 31
0.0
  0
LINE
  5
355
100
AcDbEntity
  8
10_PLASTIC_EDGE_1
 62
5
100
AcDbLine
 10
7.514932
 20
15.249965
 30
0.0
 11
9.864984
 21
17.540462
 31
0.0
  0
SPLINE
  5
356
100
AcDbEntity
  8
10_PLASTIC_EDGE_1
 62
5
100
AcDbSpline
 70
8
 71
3
 72
8
 73
4
 74
0
 40
0
 40
0
 40
0
 40
0
 40
1
 40
1
 40
1
 40
1
 10
9.864984
 20
17.540462
 30
0.0
 10
10.087536
 20
17.774126
 30
0.0
 10
10.043203
 20
18.152446
 30
0.0
 10
9.772453
 20
18.328354
 30
0.0
  0
LINE
  5
357
100
AcDbEntity
  8
10_PLASTIC_EDGE_1
 62
5
100
AcDbLine
 10
9.772453
 20
18.328354
 30
0.0
 11
9.680630
 21
18.388185
 31
0.0
  0
SPLINE
  5
358
100
AcDbEntity
  8
10_PLASTIC_EDGE_1
 62
5
100
AcDbSpline
 70
8
 71
3
 72
8
 73
4
 74
0
 40
0
 40
0
 40
0
 40
0
 40
1
 40
1
 40
1
 40
1
 10
2.326490
 20
10.315942
 30
0.0
 10
2.426302
 20
10.119334
 30
0.0
 10
2.348021
 20
9.878777
 30
0.0
 10
2.151396
 20
9.778535
 30
0.0
  0
SPLINE
  5
359
100
AcDbEntity
  8
10_PLASTIC_EDGE_1
 62
5
100
AcDbSpline
 70
8
 71
3
 72
8
 73
4
 74
0
 40
0
 40
0
 40
0
 40
0
 40
1
 40
1
 40
1
 40
1
 10
2.151396
 20
9.778535
 30
0.0
 10
1.954771
 20
9.678294
 30
0.0
 10
1.714104
 20
9.756252
 30
0.0
 10
1.613604
 20
9.952749
 30
0.0
  0
LINE
  5
35a
100
AcDbEntity
  8
10_PLASTIC_EDGE_1
 62
5
100
AcDbLine
 10
1.613604
 20
9.952749
 30
0.0
 11
0.932365
 21
11.289104
 31
0.0
  0
SPLINE
  5
35b
100
AcDbEntity
  8
10_PLASTIC_EDGE_1
 62
5
100
AcDbSpline
 70
8
 71
3
 72
8
 73
4
 74
0
 40
0
 40
0
 40
0
 40
0
 40
1
 40
1
 40
1
 40
1
 10
0.932365
 20
11.289104
 30
0.0
 10
0.832354
 20
11.485874
 30
0.0
 10
0.910635
 20
11.726431
 30
0.0
 10
1.107261
 20
11.826673
 30
0.0
  0
SPLINE
  5
35c
100
AcDbEntity
  8
10_PLASTIC_EDGE_1
 62
5
100
AcDbSpline
 70
8
 71
3
 72
8
 73
4
 74
0
 40
0
 40
0
 40
0
 40
0
 40
1
 40
1
 40
1
 40
1
 10
1.107261
 20
11.826673
 30
0.0
 10
1.303886
 20
11.926915
 30
0.0
 10
1.544542
 20
11.848956
 30
0.0
 10
1.644844
 20
11.652617
 30
0.0
  0
LINE
  5
35d
100
AcDbEntity
  8
10_PLASTIC_EDGE_1
 62
5
100
AcDbLine
 10
1.644844
 20
11.652617
 30
0.0
 11
2.326490
 21
10.315942
 31
0.0
  0
LINE
  5
35e
100
AcDbEntity
  8
12_PLASTICS_NESTED_1
 62
7
100
AcDbLine
 10
0.000348
 20
23.999966
 30
0.0
 11
0.000348
 21
-0.000036
 31
0.0
  0
LINE
  5
35f
100
AcDbEntity
  8
12_PLASTICS_NESTED_1
 62
7
100
AcDbLine
 10
0.000348
 20
-0.000036
 30
0.0
 11
12.000349
 21
-0.000036
 31
0.0
  0
LINE
  5
360
100
AcDbEntity
  8
12_PLASTICS_NESTED_1
 62
7
100
AcDbLine
 10
12.000349
 20
-0.000036
 30
0.0
 11
12.000349
 21
23.999966
 31
0.0
  0
LINE
  5
361
100
AcDbEntity
  8
12_PLASTICS_NESTED_1
 62
7
100
AcDbLine
 10
12.000349
 20
23.999966
 30
0.0
 11
0.000348
 21
23.999966
 31
0.0
  0
LINE
  5
362
100
AcDbEntity
  8
12_PLASTICS_NESTED_1
 62
7
100
AcDbLine
 10
9.650980
 20
4.987983
 30
0.0
 11
9.983990
 21
4.554654
 31
0.0
  0
LINE
  5
363
100
AcDbEntity
  8
12_PLASTICS_NESTED_1
 62
7
100
AcDbLine
 10
9.983990
 20
4.554654
 30
0.0
 11
10.138938
 21
4.030406
 31
0.0
  0
LINE
  5
364
100
AcDbEntity
  8
12_PLASTICS_NESTED_1
 62
7
100
AcDbLine
 10
10.138938
 20
4.030406
 30
0.0
 11
9.805928
 21
4.463735
 31
0.0
  0
LINE
  5
365
100
AcDbEntity
  8
12_PLASTICS_NESTED_1
 62
7
100
AcDbLine
 10
9.805928
 20
4.463735
 30
0.0
 11
9.650980
 21
4.987983
 31
0.0
  0
LINE
  5
366
100
AcDbEntity
  8
12_PLASTICS_NESTED_1
 62
7
100
AcDbLine
 10
1.385146
 20
11.281544
 30
0.0
 11
1.718156
 21
10.848214
 31
0.0
  0
LINE
  5
367
100
AcDbEntity
  8
12_PLASTICS_NESTED_1
 62
7
100
AcDbLine
 10
1.718156
 20
10.848214
 30
0.0
 11
1.873104
 21
10.323967
 31
0.0
  0
LINE
  5
368
100
AcDbEntity
  8
12_PLASTICS_NESTED_1
 62
7
100
AcDbLine
 10
1.873104
 20
10.323967
 30
0.0
 11
1.540094
 21
10.757296
 31
0.0
  0
LINE
  5
369
100
AcDbEntity
  8
12_PLASTICS_NESTED_1
 62
7
100
AcDbLine
 10
1.540094
 20
10.757296
 30
0.0
 11
1.385146
 21
11.281544
 31
0.0
  0
ENDSEC
  0
SECTION
  2
OBJECTS
  0
DICTIONARY
  5
C
330
0
100
AcDbDictionary
  3
ACAD_GROUP
350
D
  3
ACAD_MLINESTYLE
350
17
  0
DICTIONARY
  5
D
330
C
100
AcDbDictionary
  0
DICTIONARY
  5
1A
330
C
100
AcDbDictionary
  0
DICTIONARY
  5
17
330
C
100
AcDbDictionary
  3
STANDARD
350
18
  0
DICTIONARY
  5
19
330
C
100
AcDbDictionary
  0
ENDSEC
  0
EOF
