%FSLAX25Y25*%
%MOIN*%
G70*
G01*
G75*
G04 Layer_Color=8421504*
%ADD10R,0.05906X0.05906*%
%ADD11P,0.08352X4X189.0*%
%ADD12P,0.08352X4X153.0*%
%ADD13P,0.08352X4X117.0*%
%ADD14P,0.08352X4X81.0*%
%ADD15P,0.08352X4X279.0*%
%ADD16P,0.08352X4X207.0*%
%ADD17R,0.05906X0.05906*%
%ADD18P,0.08352X4X63.0*%
%ADD19P,0.08352X4X351.0*%
%ADD20C,0.05000*%
%ADD21C,0.02500*%
%ADD22C,0.12500*%
%ADD23R,0.12500X0.12500*%
%ADD24C,0.16500*%
%ADD25C,0.04000*%
%ADD26R,0.08000X0.05000*%
%ADD27R,0.05000X0.08000*%
%ADD28R,0.17716X0.12205*%
%ADD29C,0.01000*%
%ADD30C,0.01200*%
%ADD31C,0.01500*%
%ADD32R,0.04906X0.04906*%
%ADD33P,0.06937X4X189.0*%
%ADD34P,0.06937X4X153.0*%
%ADD35P,0.06937X4X117.0*%
%ADD36P,0.06937X4X81.0*%
%ADD37P,0.06937X4X279.0*%
%ADD38P,0.06937X4X207.0*%
%ADD39R,0.04906X0.04906*%
%ADD40P,0.06937X4X63.0*%
%ADD41P,0.06937X4X351.0*%
D32*
X532646Y742390D02*
D03*
Y728610D02*
D03*
X513354Y742390D02*
D03*
Y728610D02*
D03*
X513354Y353610D02*
D03*
Y367390D02*
D03*
X532646Y353610D02*
D03*
Y367390D02*
D03*
D33*
X644853Y699404D02*
D03*
X636754Y688257D02*
D03*
X629246Y710744D02*
D03*
X621147Y699596D02*
D03*
X401147Y396096D02*
D03*
X409246Y407243D02*
D03*
X416754Y384756D02*
D03*
X424853Y395904D02*
D03*
D34*
X711033Y598955D02*
D03*
X697928Y594697D02*
D03*
X705072Y617303D02*
D03*
X691967Y613045D02*
D03*
X334967Y497045D02*
D03*
X348072Y501303D02*
D03*
X340928Y478697D02*
D03*
X354033Y482956D02*
D03*
D35*
X704572Y478697D02*
D03*
X691467Y482956D02*
D03*
X710533Y497045D02*
D03*
X697428Y501303D02*
D03*
X341428Y617303D02*
D03*
X354533Y613045D02*
D03*
X335467Y598955D02*
D03*
X348572Y594697D02*
D03*
D36*
X629246Y385257D02*
D03*
X621147Y396404D02*
D03*
X644853Y396596D02*
D03*
X636754Y407744D02*
D03*
X416754Y711243D02*
D03*
X424853Y700096D02*
D03*
X401147Y699904D02*
D03*
X409246Y688757D02*
D03*
D37*
X498096Y577853D02*
D03*
X509243Y569754D02*
D03*
X486757Y562246D02*
D03*
X497904Y554147D02*
D03*
D38*
X543803Y581072D02*
D03*
X539544Y567967D02*
D03*
X525456Y587033D02*
D03*
X521197Y573928D02*
D03*
D39*
X560890Y538354D02*
D03*
X547110D02*
D03*
X560890Y557646D02*
D03*
X547110D02*
D03*
D40*
X525456Y509467D02*
D03*
X521197Y522572D02*
D03*
X543803Y515428D02*
D03*
X539544Y528533D02*
D03*
D41*
X486757Y533754D02*
D03*
X497904Y541853D02*
D03*
X498096Y518147D02*
D03*
X509243Y526246D02*
D03*
M02*
