%FSLAX25Y25*%
%MOIN*%
G70*
G01*
G75*
G04 Layer_Color=48896*
%ADD10R,0.05906X0.05906*%
%ADD11P,0.08352X4X189.0*%
%ADD12P,0.08352X4X153.0*%
%ADD13P,0.08352X4X117.0*%
%ADD14P,0.08352X4X81.0*%
%ADD15P,0.08352X4X279.0*%
%ADD16P,0.08352X4X207.0*%
%ADD17R,0.05906X0.05906*%
%ADD18P,0.08352X4X63.0*%
%ADD19P,0.08352X4X351.0*%
%ADD20C,0.05000*%
%ADD21C,0.02500*%
%ADD22C,0.12500*%
%ADD23R,0.12500X0.12500*%
%ADD24C,0.16500*%
%ADD25C,0.04000*%
%ADD26R,0.08000X0.05000*%
%ADD27R,0.05000X0.08000*%
%ADD28R,0.17716X0.12205*%
%ADD29C,0.01000*%
%ADD30C,0.01200*%
%ADD31C,0.01500*%
%ADD32R,0.04906X0.04906*%
%ADD33P,0.06937X4X189.0*%
%ADD34P,0.06937X4X153.0*%
%ADD35P,0.06937X4X117.0*%
%ADD36P,0.06937X4X81.0*%
%ADD37P,0.06937X4X279.0*%
%ADD38P,0.06937X4X207.0*%
%ADD39R,0.04906X0.04906*%
%ADD40P,0.06937X4X63.0*%
%ADD41P,0.06937X4X351.0*%
%ADD42R,0.07000X0.04000*%
%ADD43R,0.04000X0.07000*%
%ADD44R,0.16716X0.11205*%
%ADD45R,0.06706X0.06706*%
%ADD46P,0.09483X4X189.0*%
%ADD47P,0.09483X4X153.0*%
%ADD48P,0.09483X4X117.0*%
%ADD49P,0.09483X4X81.0*%
%ADD50P,0.09483X4X279.0*%
%ADD51P,0.09483X4X207.0*%
%ADD52R,0.06706X0.06706*%
%ADD53P,0.09483X4X63.0*%
%ADD54P,0.09483X4X351.0*%
%ADD55C,0.13300*%
%ADD56R,0.13300X0.13300*%
%ADD57C,0.17300*%
%ADD58C,0.04800*%
%ADD59R,0.08800X0.05800*%
%ADD60R,0.05800X0.08800*%
%ADD61R,0.18517X0.13005*%
D55*
X668500Y548000D02*
D03*
X425000D02*
D03*
X373500D02*
D03*
X620500D02*
D03*
D56*
X648500D02*
D03*
X445000D02*
D03*
X393500D02*
D03*
X600500D02*
D03*
D57*
X643500Y460500D02*
D03*
X403000Y635500D02*
D03*
X643500D02*
D03*
X403000Y460500D02*
D03*
D58*
X493504Y468996D02*
D03*
X502500Y730000D02*
D03*
X490000Y660000D02*
D03*
X470000D02*
D03*
X505000Y380000D02*
D03*
X540000Y720000D02*
D03*
X510000Y547500D02*
D03*
X482500Y587500D02*
D03*
X497500Y600000D02*
D03*
X567500Y572500D02*
D03*
X557500Y510000D02*
D03*
X492500Y505000D02*
D03*
X392500Y705000D02*
D03*
X507500Y750000D02*
D03*
X625000Y725000D02*
D03*
X710000Y627500D02*
D03*
X722500Y502500D02*
D03*
X657500Y402500D02*
D03*
X542500Y347500D02*
D03*
X420000Y372500D02*
D03*
X335000Y467500D02*
D03*
X322500Y592500D02*
D03*
D59*
X573000Y543000D02*
D03*
Y554000D02*
D03*
X473000Y542500D02*
D03*
Y553500D02*
D03*
X350000Y553000D02*
D03*
Y542000D02*
D03*
X696000Y553000D02*
D03*
Y542000D02*
D03*
D60*
X528500Y711500D02*
D03*
X517500D02*
D03*
Y385000D02*
D03*
X528500D02*
D03*
D61*
X535000Y468996D02*
D03*
Y453248D02*
D03*
Y437500D02*
D03*
X510394Y468996D02*
D03*
Y453248D02*
D03*
Y437500D02*
D03*
X535000Y421752D02*
D03*
X510394D02*
D03*
X510000Y628504D02*
D03*
Y644252D02*
D03*
Y660000D02*
D03*
X534606Y628504D02*
D03*
Y644252D02*
D03*
Y660000D02*
D03*
X510000Y675748D02*
D03*
X534606D02*
D03*
M02*
