%FSLAX25Y25*%
%MOIN*%
G70*
G01*
G75*
G04 Layer_Physical_Order=1*
G04 Layer_Color=255*
%ADD10R,0.05906X0.05906*%
%ADD11P,0.08352X4X189.0*%
%ADD12P,0.08352X4X153.0*%
%ADD13P,0.08352X4X117.0*%
%ADD14P,0.08352X4X81.0*%
%ADD15P,0.08352X4X279.0*%
%ADD16P,0.08352X4X207.0*%
%ADD17R,0.05906X0.05906*%
%ADD18P,0.08352X4X63.0*%
%ADD19P,0.08352X4X351.0*%
%ADD20C,0.05000*%
%ADD21C,0.02500*%
%ADD22C,0.12500*%
%ADD23R,0.12500X0.12500*%
%ADD24C,0.16500*%
%ADD25C,0.04000*%
G36*
X532133Y768807D02*
X541250Y768241D01*
X550336Y767299D01*
X559375Y765982D01*
X568352Y764292D01*
X577251Y762234D01*
X586058Y759809D01*
X594757Y757022D01*
X603334Y753878D01*
X611773Y750382D01*
X620061Y746541D01*
X628183Y742360D01*
X636125Y737848D01*
X643873Y733010D01*
X651416Y727857D01*
X658739Y722397D01*
X665830Y716639D01*
X672677Y710592D01*
X679268Y704268D01*
X685592Y697677D01*
X691639Y690830D01*
X697397Y683739D01*
X702857Y676416D01*
X708010Y668873D01*
X712848Y661125D01*
X717360Y653183D01*
X721541Y645061D01*
X725382Y636773D01*
X728878Y628334D01*
X732022Y619757D01*
X734809Y611058D01*
X737234Y602251D01*
X739292Y593352D01*
X740982Y584375D01*
X742299Y575336D01*
X743241Y566250D01*
X743807Y557133D01*
X743996Y548000D01*
X743807Y538867D01*
X743241Y529750D01*
X742299Y520664D01*
X740982Y511625D01*
X739292Y502648D01*
X737234Y493749D01*
X734809Y484942D01*
X732022Y476243D01*
X728878Y467666D01*
X725382Y459227D01*
X721541Y450939D01*
X717360Y442817D01*
X712848Y434875D01*
X708010Y427127D01*
X702857Y419584D01*
X697397Y412261D01*
X691639Y405170D01*
X685592Y398323D01*
X679268Y391732D01*
X672677Y385408D01*
X665830Y379362D01*
X658739Y373603D01*
X651416Y368143D01*
X643873Y362990D01*
X636125Y358153D01*
X628183Y353640D01*
X620061Y349459D01*
X611773Y345618D01*
X603334Y342122D01*
X594757Y338978D01*
X586058Y336191D01*
X577251Y333766D01*
X568352Y331708D01*
X559375Y330018D01*
X550336Y328701D01*
X541250Y327759D01*
X532133Y327193D01*
X523000Y327004D01*
X513867Y327193D01*
X504750Y327759D01*
X495664Y328701D01*
X486625Y330018D01*
X477648Y331708D01*
X468749Y333766D01*
X459942Y336191D01*
X451243Y338978D01*
X442666Y342122D01*
X434227Y345618D01*
X425939Y349459D01*
X417817Y353640D01*
X409875Y358153D01*
X402127Y362990D01*
X394584Y368143D01*
X387262Y373603D01*
X380170Y379362D01*
X373323Y385408D01*
X366732Y391732D01*
X360408Y398323D01*
X354362Y405170D01*
X348603Y412261D01*
X343143Y419584D01*
X337990Y427127D01*
X333153Y434875D01*
X328640Y442817D01*
X324459Y450939D01*
X320618Y459227D01*
X317122Y467666D01*
X313978Y476243D01*
X311191Y484942D01*
X308766Y493749D01*
X306708Y502648D01*
X305018Y511625D01*
X303701Y520664D01*
X302759Y529750D01*
X302193Y538867D01*
X302004Y548000D01*
X302151Y555115D01*
X303362Y572061D01*
X303701Y575336D01*
X305018Y584375D01*
X306708Y593352D01*
X308766Y602251D01*
X311191Y611058D01*
X313978Y619757D01*
X317122Y628334D01*
X320618Y636773D01*
X324459Y645061D01*
X328640Y653183D01*
X333153Y661125D01*
X337990Y668873D01*
X343143Y676416D01*
X348603Y683739D01*
X354362Y690830D01*
X360408Y697677D01*
X366732Y704268D01*
X373323Y710592D01*
X380170Y716639D01*
X387262Y722397D01*
X394584Y727857D01*
X402127Y733010D01*
X409875Y737848D01*
X417817Y742360D01*
X425939Y746541D01*
X434227Y750382D01*
X442666Y753878D01*
X451243Y757022D01*
X459942Y759809D01*
X468749Y762234D01*
X477648Y764292D01*
X486625Y765982D01*
X495664Y767299D01*
X504750Y768241D01*
X513867Y768807D01*
X523000Y768996D01*
X532133Y768807D01*
D02*
G37*
%LPC*%
G36*
X510671Y535259D02*
X509813Y534636D01*
D01*
X500230Y527674D01*
X500230Y527674D01*
X499523Y527160D01*
X499523Y527160D01*
Y527160D01*
D01*
D01*
Y527160D01*
X489082Y519574D01*
X493305Y513763D01*
Y512580D01*
X491086Y510361D01*
X491064Y510358D01*
X489726Y509804D01*
X488577Y508923D01*
X487696Y507774D01*
X487142Y506436D01*
X486952Y505000D01*
X487142Y503564D01*
X487696Y502226D01*
X488577Y501077D01*
X489726Y500196D01*
X491064Y499642D01*
X492500Y499452D01*
X493936Y499642D01*
X495274Y500196D01*
X496423Y501077D01*
X497304Y502226D01*
X497858Y503564D01*
X497861Y503586D01*
X501483Y507208D01*
X502245Y508200D01*
X502723Y509356D01*
X502887Y510596D01*
Y513652D01*
X502887Y513652D01*
D01*
X505856Y514869D01*
X505856Y514869D01*
X505856D01*
D01*
X514645Y506079D01*
X515638Y505318D01*
X516793Y504839D01*
X518033Y504676D01*
X520227D01*
X520985Y502345D01*
X520985Y502345D01*
X521313Y501336D01*
X522321Y501664D01*
X522321D01*
X532578Y504996D01*
X532578Y504996D01*
X533586Y505324D01*
X533259Y506333D01*
Y506333D01*
X529926Y516589D01*
X529926Y516589D01*
X529598Y517598D01*
X528590Y517270D01*
X528590D01*
X519846Y514429D01*
X514035Y520241D01*
Y521751D01*
X517399Y524195D01*
Y524195D01*
X518257Y524819D01*
X517633Y525677D01*
D01*
X511295Y534401D01*
X511295D01*
X510671Y535259D01*
D02*
G37*
G36*
X567343Y544807D02*
X554437D01*
Y533712D01*
X553016Y532291D01*
X545108D01*
X543687Y536664D01*
X531414Y532676D01*
X535402Y520402D01*
X535402D01*
Y520402D01*
D01*
Y520402D01*
Y520402D01*
X535672Y519571D01*
D01*
X539660Y507297D01*
X549939Y510637D01*
X550087D01*
X552139Y508586D01*
X552142Y508564D01*
X552696Y507226D01*
X553577Y506077D01*
X554726Y505196D01*
X556064Y504642D01*
X557500Y504453D01*
X558936Y504642D01*
X560274Y505196D01*
X561423Y506077D01*
X562304Y507226D01*
X562858Y508564D01*
X563048Y510000D01*
X562858Y511436D01*
X562304Y512774D01*
X561423Y513923D01*
X560274Y514804D01*
X558936Y515358D01*
X558914Y515361D01*
X555460Y518816D01*
X554467Y519577D01*
X553312Y520056D01*
X552072Y520219D01*
X549341D01*
X548660Y521556D01*
X549498Y522709D01*
X555000D01*
X556240Y522872D01*
X557057Y523211D01*
X557396Y523351D01*
X558388Y524112D01*
Y524112D01*
X558388D01*
D01*
D01*
D01*
D01*
D01*
D01*
X558388D01*
D01*
X558388D01*
Y524112D01*
D01*
D01*
D01*
D01*
Y524112D01*
D01*
D01*
D01*
Y524112D01*
D01*
D01*
X558388D01*
D01*
D01*
D01*
X564278Y530002D01*
Y530002D01*
D01*
D01*
D01*
X564278Y530002D01*
D01*
Y530002D01*
D01*
D01*
D01*
D01*
X564278D01*
Y530002D01*
D01*
D01*
D01*
X564278D01*
D01*
D01*
Y530002D01*
D01*
D01*
D01*
Y530002D01*
D01*
D01*
X564278D01*
D01*
X564278Y530002D01*
D01*
D01*
X565039Y530994D01*
X565179Y531333D01*
X565415Y531902D01*
X567343D01*
Y544807D01*
D02*
G37*
G36*
X403250Y557750D02*
X383750D01*
Y538250D01*
X403250D01*
Y557750D01*
D02*
G37*
G36*
X610250D02*
X590750D01*
Y538250D01*
X610250D01*
Y557750D01*
D02*
G37*
G36*
X454750D02*
X435250D01*
Y538250D01*
X454750D01*
Y557750D01*
D02*
G37*
G36*
X358176Y491086D02*
X346080Y487156D01*
X346080D01*
D01*
D01*
Y487156D01*
Y487156D01*
X345902Y487098D01*
X345487Y486963D01*
X345071Y486828D01*
X344894Y486771D01*
X344894Y486771D01*
Y486771D01*
D01*
D01*
Y486771D01*
X332797Y482840D01*
X334146Y478690D01*
X331612Y476157D01*
X330851Y475165D01*
X330711Y474826D01*
X330372Y474009D01*
X330209Y472769D01*
Y470291D01*
X330196Y470274D01*
X329642Y468936D01*
X329452Y467500D01*
X329642Y466064D01*
X330196Y464726D01*
X331077Y463577D01*
X332226Y462696D01*
X333564Y462142D01*
X335000Y461952D01*
X336436Y462142D01*
X337774Y462696D01*
X338923Y463577D01*
X339804Y464726D01*
X340358Y466064D01*
X340547Y467500D01*
X340358Y468936D01*
X339804Y470274D01*
X339791Y470291D01*
Y470785D01*
X340914Y471908D01*
X348029Y474220D01*
X349242Y473338D01*
Y443209D01*
X349242Y443209D01*
X349242D01*
X349406Y441969D01*
X349744Y441152D01*
X349884Y440814D01*
X350645Y439821D01*
X350645Y439821D01*
X350645Y439821D01*
X393676Y396791D01*
X392134Y394668D01*
X402574Y387082D01*
X410160Y397523D01*
X399719Y405109D01*
X399719D01*
X398968Y405050D01*
X358824Y445194D01*
Y477727D01*
X361155Y478485D01*
X361155Y478485D01*
X362164Y478813D01*
X361836Y479821D01*
Y479821D01*
X358176Y491086D01*
D02*
G37*
G36*
X423426Y404918D02*
X415950Y394628D01*
Y394628D01*
D01*
D01*
X415950D01*
Y394628D01*
X415840Y394477D01*
X415583Y394123D01*
X415326Y393770D01*
X415217Y393619D01*
X415216Y393619D01*
X415217Y393619D01*
D01*
D01*
D01*
X407741Y383329D01*
X411963Y380261D01*
Y375746D01*
X411963Y375746D01*
X411963D01*
X412126Y374506D01*
X412605Y373351D01*
X413366Y372358D01*
X414639Y371086D01*
X414642Y371064D01*
X415196Y369726D01*
X416077Y368577D01*
X417226Y367696D01*
X418564Y367142D01*
X420000Y366952D01*
X421436Y367142D01*
X422774Y367696D01*
X423923Y368577D01*
X424804Y369726D01*
X425358Y371064D01*
X425548Y372500D01*
X425358Y373936D01*
X424804Y375274D01*
X423923Y376423D01*
X422774Y377304D01*
X421545Y377813D01*
Y380373D01*
X425767Y386184D01*
Y386184D01*
X425767Y386184D01*
X425767D01*
X426491Y386908D01*
X427032Y386950D01*
X463760Y350222D01*
X464752Y349461D01*
X465907Y348983D01*
X467147Y348819D01*
X506902D01*
Y347158D01*
X519807D01*
Y360063D01*
X506902D01*
Y358401D01*
X469132D01*
X432324Y395209D01*
X433866Y397332D01*
X423426Y404918D01*
D02*
G37*
G36*
X630674Y394270D02*
X620233Y386684D01*
X621775Y384561D01*
X609395Y372181D01*
X539098D01*
Y373843D01*
X526193D01*
Y361124D01*
D01*
D01*
D01*
X526193Y361124D01*
X526193D01*
X526193Y360937D01*
Y360063D01*
X526193Y360063D01*
X526193Y360063D01*
Y360063D01*
D01*
Y347158D01*
X532323D01*
X535368Y344112D01*
X536360Y343351D01*
X537516Y342872D01*
X538756Y342709D01*
X539709D01*
X539726Y342696D01*
X541064Y342142D01*
X542500Y341952D01*
X543936Y342142D01*
X545274Y342696D01*
X546423Y343577D01*
X547304Y344726D01*
X547858Y346064D01*
X548047Y347500D01*
X547858Y348936D01*
X547304Y350274D01*
X546423Y351423D01*
X545274Y352304D01*
X543936Y352858D01*
X542500Y353047D01*
X541064Y352858D01*
X540434Y352597D01*
X539098Y353933D01*
Y359876D01*
X539098Y359876D01*
D01*
D01*
D01*
D01*
D01*
X539098Y360063D01*
Y360243D01*
Y360500D01*
Y360628D01*
Y360937D01*
X539098Y361072D01*
X539098Y361124D01*
X539098Y361124D01*
D01*
X539098Y362599D01*
X611379D01*
X612619Y362762D01*
X613437Y363101D01*
X613775Y363241D01*
X614767Y364002D01*
Y364002D01*
X614767D01*
D01*
D01*
D01*
D01*
D01*
D01*
X614767D01*
D01*
X614767D01*
Y364002D01*
D01*
D01*
D01*
D01*
Y364002D01*
D01*
D01*
D01*
Y364002D01*
D01*
D01*
X614767D01*
D01*
D01*
D01*
X627068Y376302D01*
X627819Y376243D01*
X627819D01*
X637401Y383206D01*
Y383206D01*
X638259Y383829D01*
X637636Y384687D01*
D01*
X630674Y394270D01*
D02*
G37*
G36*
X403000Y477051D02*
X400411Y476847D01*
X397885Y476241D01*
X395486Y475247D01*
X393271Y473890D01*
X391297Y472203D01*
X389610Y470228D01*
X388253Y468014D01*
X387259Y465615D01*
X386653Y463089D01*
X386449Y460500D01*
X386653Y457911D01*
X387259Y455385D01*
X388253Y452986D01*
X389610Y450772D01*
X391297Y448797D01*
X393271Y447110D01*
X395486Y445753D01*
X397885Y444759D01*
X400411Y444153D01*
X403000Y443949D01*
X405589Y444153D01*
X408115Y444759D01*
X410514Y445753D01*
X412728Y447110D01*
X414703Y448797D01*
X416390Y450772D01*
X417747Y452986D01*
X418741Y455385D01*
X419347Y457911D01*
X419551Y460500D01*
X419347Y463089D01*
X418741Y465615D01*
X417747Y468014D01*
X416390Y470228D01*
X414703Y472203D01*
X412728Y473890D01*
X410514Y475247D01*
X408115Y476241D01*
X405589Y476847D01*
X403000Y477051D01*
D02*
G37*
G36*
X700429Y486828D02*
X700101Y485819D01*
X700101Y485820D01*
X696441Y474554D01*
X696441D01*
Y474554D01*
X696441D01*
X696508Y474273D01*
X638932Y416698D01*
X638181Y416757D01*
X638181D01*
X628599Y409795D01*
Y409795D01*
X627741Y409171D01*
X628364Y408313D01*
D01*
X635217Y398881D01*
X635217D01*
D01*
D01*
Y398881D01*
X635217D01*
X635326Y398730D01*
X635840Y398023D01*
X635840Y398023D01*
X635840Y398023D01*
X635840D01*
D01*
X642802Y388440D01*
X642802D01*
X643426Y387582D01*
X644284Y388206D01*
D01*
X649237Y391805D01*
X651596D01*
X652836Y391968D01*
X653991Y392446D01*
X654983Y393208D01*
Y393208D01*
X654983D01*
D01*
D01*
D01*
D01*
D01*
D01*
X654983D01*
D01*
X654983D01*
Y393208D01*
D01*
D01*
D01*
D01*
Y393208D01*
D01*
D01*
D01*
Y393208D01*
D01*
D01*
X654983D01*
D01*
D01*
D01*
X658914Y397139D01*
X658936Y397142D01*
X660274Y397696D01*
X661423Y398577D01*
X662304Y399726D01*
X662858Y401064D01*
X663048Y402500D01*
X662858Y403936D01*
X662304Y405274D01*
X661423Y406423D01*
X660274Y407304D01*
X658936Y407858D01*
X657500Y408047D01*
X656064Y407858D01*
X654726Y407304D01*
X653577Y406423D01*
X652696Y405274D01*
X652142Y403936D01*
X652139Y403914D01*
X650276Y402051D01*
X648780Y402169D01*
X646390Y405458D01*
D01*
D01*
D01*
Y405458D01*
X646390D01*
X646281Y405609D01*
X645767Y406316D01*
X645767D01*
D01*
Y406316D01*
X645767D01*
D01*
D01*
X645767D01*
Y406316D01*
D01*
X644225Y408439D01*
X706932Y471146D01*
X707706Y470894D01*
X707706D01*
X708715Y470566D01*
X709043Y471575D01*
X709043Y471575D01*
X712703Y482840D01*
X701438Y486501D01*
X701438D01*
X700429Y486828D01*
D02*
G37*
G36*
X643500Y477051D02*
X640911Y476847D01*
X638385Y476241D01*
X635986Y475247D01*
X633772Y473890D01*
X631797Y472203D01*
X630110Y470228D01*
X628753Y468014D01*
X627759Y465615D01*
X627153Y463089D01*
X626949Y460500D01*
X627153Y457911D01*
X627759Y455385D01*
X628753Y452986D01*
X630110Y450772D01*
X631797Y448797D01*
X633772Y447110D01*
X635986Y445753D01*
X638385Y444759D01*
X640911Y444153D01*
X643500Y443949D01*
X646089Y444153D01*
X648615Y444759D01*
X651014Y445753D01*
X653228Y447110D01*
X655203Y448797D01*
X656890Y450772D01*
X658247Y452986D01*
X659241Y455385D01*
X659847Y457911D01*
X660051Y460500D01*
X659847Y463089D01*
X659241Y465615D01*
X658247Y468014D01*
X656890Y470228D01*
X655203Y472203D01*
X653228Y473890D01*
X651014Y475247D01*
X648615Y476241D01*
X646089Y476847D01*
X643500Y477051D01*
D02*
G37*
G36*
X658250Y557750D02*
X638750D01*
Y538250D01*
X658250D01*
Y557750D01*
D02*
G37*
G36*
X392500Y710547D02*
X391064Y710358D01*
X389726Y709804D01*
X388577Y708923D01*
X387696Y707774D01*
X387142Y706436D01*
X386952Y705000D01*
X387142Y703564D01*
X387696Y702226D01*
X388577Y701077D01*
X389726Y700196D01*
X391064Y699642D01*
X392500Y699452D01*
X393412Y699573D01*
X399719Y690891D01*
X399719Y690891D01*
X400233Y690184D01*
X400233Y690184D01*
X400233D01*
D01*
D01*
X400233D01*
X401775Y688061D01*
X338691Y624977D01*
X337285Y625434D01*
X333297Y613160D01*
X344562Y609500D01*
X344562D01*
X345571Y609172D01*
X345899Y610181D01*
X345899Y610181D01*
X349559Y621446D01*
X349559Y621446D01*
X349395Y622130D01*
X407068Y679802D01*
X407819Y679743D01*
X407819D01*
X418259Y687329D01*
X410783Y697619D01*
X410783Y697619D01*
D01*
Y697619D01*
X410783D01*
D01*
D01*
X410674Y697770D01*
X410417Y698123D01*
X410160Y698477D01*
X410050Y698628D01*
Y698628D01*
X410050D01*
D01*
D01*
Y698628D01*
X403198Y708060D01*
X403198D01*
X402574Y708918D01*
X401716Y708294D01*
D01*
X400451Y707375D01*
X399439Y708388D01*
X398447Y709149D01*
X398108Y709289D01*
X397291Y709628D01*
X396051Y709791D01*
X395291D01*
X395274Y709804D01*
X393936Y710358D01*
X392500Y710547D01*
D02*
G37*
G36*
X643426Y708418D02*
X635840Y697977D01*
X646281Y690391D01*
X646281D01*
X646281D01*
D01*
D01*
X646281Y690391D01*
X647032Y690450D01*
X647032Y690450D01*
D01*
X687176Y650306D01*
Y618273D01*
X684845Y617515D01*
X684845Y617515D01*
X683836Y617188D01*
X684164Y616179D01*
Y616179D01*
X687824Y604914D01*
X700098Y608902D01*
X700098Y608902D01*
X700929Y609172D01*
X701107Y609229D01*
X701107D01*
Y609229D01*
D01*
D01*
D01*
X712194Y612832D01*
X712194Y612832D01*
X713203Y613160D01*
X712875Y614169D01*
Y614169D01*
X711854Y617310D01*
X713388Y618843D01*
Y618843D01*
D01*
D01*
D01*
X713388Y618843D01*
D01*
Y618843D01*
D01*
D01*
D01*
D01*
X713388D01*
Y618843D01*
D01*
D01*
D01*
X713388D01*
D01*
D01*
Y618843D01*
D01*
D01*
D01*
Y618843D01*
D01*
D01*
X713388D01*
D01*
X713388Y618843D01*
D01*
D01*
X714149Y619835D01*
X714289Y620174D01*
X714628Y620991D01*
X714791Y622231D01*
D01*
D01*
D01*
D01*
D01*
X714791D01*
D01*
D01*
D01*
Y622231D01*
X714791D01*
D01*
Y622231D01*
D01*
D01*
D01*
D01*
D01*
D01*
D01*
D01*
D01*
D01*
D01*
D01*
Y622231D01*
D01*
X714791D01*
D01*
D01*
D01*
D01*
X714791Y622231D01*
Y624709D01*
X714804Y624726D01*
X715358Y626064D01*
X715548Y627500D01*
X715358Y628936D01*
X714804Y630274D01*
X713923Y631423D01*
X712774Y632304D01*
X711436Y632858D01*
X710000Y633047D01*
X708564Y632858D01*
X707226Y632304D01*
X706077Y631423D01*
X705196Y630274D01*
X704642Y628936D01*
X704453Y627500D01*
X704642Y626064D01*
X704991Y625219D01*
X704528Y624214D01*
X703842Y623688D01*
X697971Y621780D01*
X696758Y622662D01*
Y652291D01*
X696594Y653531D01*
X696116Y654686D01*
X695355Y655679D01*
Y655679D01*
D01*
D01*
X695355D01*
X695355D01*
Y655679D01*
D01*
D01*
D01*
D01*
X695355D01*
D01*
D01*
D01*
X695355D01*
X652324Y698709D01*
X653866Y700832D01*
X643426Y708418D01*
D02*
G37*
G36*
X643500Y652051D02*
X640911Y651847D01*
X638385Y651241D01*
X635986Y650247D01*
X633772Y648890D01*
X631797Y647203D01*
X630110Y645228D01*
X628753Y643014D01*
X627759Y640615D01*
X627153Y638089D01*
X626949Y635500D01*
X627153Y632911D01*
X627759Y630385D01*
X628753Y627986D01*
X630110Y625772D01*
X631797Y623797D01*
X633772Y622110D01*
X635986Y620753D01*
X638385Y619759D01*
X640911Y619153D01*
X643500Y618949D01*
X646089Y619153D01*
X648615Y619759D01*
X651014Y620753D01*
X653228Y622110D01*
X655203Y623797D01*
X656890Y625772D01*
X658247Y627986D01*
X659241Y630385D01*
X659847Y632911D01*
X660051Y635500D01*
X659847Y638089D01*
X659241Y640615D01*
X658247Y643014D01*
X656890Y645228D01*
X655203Y647203D01*
X653228Y648890D01*
X651014Y650247D01*
X648615Y651241D01*
X646089Y651847D01*
X643500Y652051D01*
D02*
G37*
G36*
X539098Y748842D02*
X526193D01*
Y735937D01*
X539098D01*
Y737599D01*
X576368D01*
X613676Y700291D01*
X612134Y698168D01*
X622574Y690582D01*
X630160Y701023D01*
Y701023D01*
X630160Y701023D01*
D01*
D01*
X630160D01*
X630160Y701023D01*
X630674Y701730D01*
X630783Y701881D01*
D01*
X630783D01*
Y701881D01*
D01*
X630783Y701881D01*
X637636Y711313D01*
D01*
X638259Y712171D01*
X637401Y712794D01*
Y712794D01*
X634037Y715239D01*
Y720754D01*
X633874Y721994D01*
X633395Y723149D01*
X632634Y724142D01*
Y724142D01*
D01*
D01*
X632634D01*
X632634D01*
Y724142D01*
D01*
D01*
D01*
D01*
X632634D01*
D01*
D01*
D01*
X632634D01*
X630361Y726414D01*
X630358Y726436D01*
X629804Y727774D01*
X628923Y728923D01*
X627774Y729804D01*
X626436Y730358D01*
X625000Y730548D01*
X623564Y730358D01*
X622226Y729804D01*
X621077Y728923D01*
X620196Y727774D01*
X619642Y726436D01*
X619452Y725000D01*
X619642Y723564D01*
X620196Y722226D01*
X621077Y721077D01*
X622226Y720196D01*
X623564Y719642D01*
X623586Y719639D01*
X624455Y718769D01*
Y715127D01*
X620233Y709316D01*
D01*
D01*
D01*
D01*
D01*
D01*
X619509Y708592D01*
X618968Y708550D01*
X581740Y745778D01*
D01*
X581740Y745778D01*
D01*
D01*
D01*
X581740Y745778D01*
X581740Y745778D01*
X580748Y746539D01*
X580410Y746679D01*
X579593Y747017D01*
X578353Y747181D01*
X539098D01*
Y748842D01*
D02*
G37*
G36*
X507500Y755548D02*
X506064Y755358D01*
X504726Y754804D01*
X503577Y753923D01*
X502696Y752774D01*
X502142Y751436D01*
X501953Y750000D01*
X502142Y748564D01*
X502696Y747226D01*
X503577Y746077D01*
X504726Y745196D01*
X506064Y744642D01*
X506086Y744639D01*
X506902Y743823D01*
Y736124D01*
D01*
D01*
D01*
X506902Y736124D01*
X506902D01*
X506902Y735937D01*
Y735251D01*
X505556Y734587D01*
X505274Y734804D01*
X503936Y735358D01*
X502500Y735547D01*
X501064Y735358D01*
X499726Y734804D01*
X498577Y733923D01*
X497696Y732774D01*
X497142Y731436D01*
X496952Y730000D01*
X497142Y728564D01*
X497696Y727226D01*
X498577Y726077D01*
X499726Y725196D01*
X501064Y724642D01*
X501299Y724611D01*
X501494Y724461D01*
X501973Y724263D01*
X502650Y723982D01*
X503890Y723819D01*
X506902D01*
Y722157D01*
X519807D01*
Y734876D01*
X519807Y734876D01*
D01*
D01*
D01*
D01*
D01*
D01*
Y734876D01*
D01*
X519807Y735063D01*
Y735243D01*
Y735500D01*
Y735628D01*
Y735937D01*
X519807Y736072D01*
X519807Y736124D01*
X519807Y736124D01*
D01*
X519807Y736124D01*
Y748842D01*
X515433D01*
X512861Y751414D01*
X512858Y751436D01*
X512304Y752774D01*
X511423Y753923D01*
X510274Y754804D01*
X508936Y755358D01*
X507500Y755548D01*
D02*
G37*
G36*
X452500Y722291D02*
X423010D01*
X421770Y722128D01*
X420615Y721649D01*
X419623Y720888D01*
X418932Y720198D01*
X418181Y720257D01*
X418181D01*
X407741Y712671D01*
X415326Y702230D01*
X425767Y709816D01*
X424225Y711939D01*
X424995Y712709D01*
X450516D01*
X475209Y688016D01*
Y604485D01*
X469112Y598388D01*
X468351Y597396D01*
X468211Y597057D01*
X467872Y596240D01*
X467709Y595000D01*
Y555000D01*
X467709Y555000D01*
X467709Y555000D01*
X467872Y553760D01*
X468211Y552943D01*
X468351Y552604D01*
X469112Y551612D01*
Y551612D01*
D01*
D01*
X469112Y551612D01*
Y551612D01*
X469112Y551612D01*
X476612Y544112D01*
X477604Y543351D01*
X478760Y542872D01*
X480000Y542709D01*
X485677D01*
X486141Y541282D01*
X482373Y538545D01*
X481254D01*
X480014Y538382D01*
X478858Y537903D01*
X477866Y537142D01*
X469112Y528388D01*
X468351Y527395D01*
X468211Y527057D01*
X467872Y526240D01*
X467709Y525000D01*
Y487500D01*
X467709Y487500D01*
X467709D01*
X467872Y486260D01*
X468211Y485443D01*
X468351Y485105D01*
X469112Y484112D01*
Y484112D01*
D01*
D01*
X469112Y484112D01*
Y484112D01*
X469112Y484112D01*
X486612Y466612D01*
D01*
X486612Y466612D01*
X486612Y466612D01*
D01*
D01*
D01*
Y466612D01*
X486612Y466612D01*
D01*
X487605Y465851D01*
X488083Y465653D01*
X488760Y465372D01*
X489419Y465286D01*
X489581Y465073D01*
X490730Y464192D01*
X492068Y463638D01*
X493504Y463449D01*
X494940Y463638D01*
X496278Y464192D01*
X497427Y465073D01*
X498308Y466222D01*
X498566Y466844D01*
X499149Y467604D01*
X499628Y468760D01*
X499791Y470000D01*
X499628Y471240D01*
X499149Y472396D01*
X498388Y473388D01*
X497396Y474149D01*
X496240Y474628D01*
X495000Y474791D01*
X491985D01*
X477291Y489485D01*
Y523015D01*
X481856Y527580D01*
X483351Y527463D01*
X484705Y525599D01*
X484705D01*
X485329Y524741D01*
X486187Y525364D01*
D01*
X495770Y532326D01*
X489197Y541372D01*
X489878Y542709D01*
X491258D01*
X492498Y542872D01*
X493315Y543211D01*
X493653Y543351D01*
X494645Y544112D01*
X497209Y546676D01*
X499332Y545134D01*
X506918Y555574D01*
X496477Y563160D01*
D01*
X496477Y563160D01*
X496477Y563160D01*
D01*
Y563160D01*
X496477Y563160D01*
X495770Y563674D01*
X495770Y563674D01*
X487291Y569834D01*
Y584709D01*
X487304Y584726D01*
X487858Y586064D01*
X488048Y587500D01*
X487858Y588936D01*
X487304Y590274D01*
X486423Y591423D01*
X485274Y592304D01*
X483936Y592858D01*
X482500Y593048D01*
X481064Y592858D01*
X479726Y592304D01*
X478636Y591468D01*
X478306Y591631D01*
X477291Y592410D01*
Y593015D01*
X483388Y599112D01*
X484149Y600105D01*
X484628Y601260D01*
X484791Y602500D01*
Y690000D01*
X484791Y690000D01*
Y690000D01*
X484791D01*
X484791Y690000D01*
D01*
D01*
D01*
D01*
D01*
D01*
D01*
X484791Y690000D01*
D01*
X484628Y691240D01*
X484149Y692395D01*
X483388Y693388D01*
X455888Y720888D01*
D01*
X455888Y720888D01*
D01*
D01*
D01*
X455888Y720888D01*
X455888Y720888D01*
X454895Y721649D01*
X454557Y721789D01*
X453740Y722128D01*
X452500Y722291D01*
D02*
G37*
G36*
X497500Y605548D02*
X496064Y605358D01*
X494726Y604804D01*
X493577Y603923D01*
X492696Y602774D01*
X492142Y601436D01*
X491953Y600000D01*
X492142Y598564D01*
X492696Y597226D01*
X493577Y596077D01*
X494726Y595196D01*
X496064Y594642D01*
X497500Y594452D01*
X498936Y594642D01*
X500274Y595196D01*
X500291Y595209D01*
X510504D01*
X518673Y587040D01*
X518182Y585528D01*
X516723Y585178D01*
X516013Y585888D01*
X515021Y586649D01*
X513866Y587128D01*
X512626Y587291D01*
X502742D01*
X501502Y587128D01*
X500347Y586649D01*
X499355Y585888D01*
X498791Y585324D01*
X496668Y586866D01*
X489082Y576426D01*
X498665Y569463D01*
D01*
X499523Y568840D01*
X500147Y569698D01*
X500147D01*
X505967Y577709D01*
X510641D01*
X514415Y573935D01*
X513066Y569785D01*
X525340Y565797D01*
X529328Y578071D01*
X529328D01*
D01*
D01*
D01*
X529328D01*
Y578071D01*
D01*
D01*
D01*
X529328Y578071D01*
D01*
Y578071D01*
X529328D01*
D01*
D01*
X529598Y578902D01*
X529656Y579080D01*
X529656Y579080D01*
D01*
D01*
X529656D01*
D01*
D01*
Y579080D01*
X533586Y591176D01*
X525442Y593822D01*
X515876Y603388D01*
X514884Y604149D01*
X513729Y604628D01*
X512489Y604791D01*
X500291D01*
X500274Y604804D01*
X498936Y605358D01*
X497500Y605548D01*
D02*
G37*
G36*
X539660Y589203D02*
X535672Y576929D01*
X547709Y573018D01*
Y569485D01*
X544112Y565888D01*
X543351Y564895D01*
X543021Y564098D01*
X540658D01*
Y551193D01*
X553563D01*
D01*
Y551193D01*
X553563D01*
X553563Y551193D01*
X554437D01*
Y551193D01*
X567343D01*
Y564098D01*
D01*
X567343D01*
Y564098D01*
Y564098D01*
X567343Y564098D01*
X566912Y565137D01*
X568914Y567139D01*
X568936Y567142D01*
X570274Y567696D01*
X571423Y568577D01*
X572304Y569726D01*
X572858Y571064D01*
X573047Y572500D01*
X572858Y573936D01*
X572304Y575274D01*
X571423Y576423D01*
X570274Y577304D01*
X568936Y577858D01*
X567500Y578048D01*
X566064Y577858D01*
X564726Y577304D01*
X563577Y576423D01*
X562696Y575274D01*
X562142Y573936D01*
X562139Y573914D01*
X558677Y570452D01*
X557291Y571026D01*
Y577500D01*
X557128Y578740D01*
X556847Y579417D01*
X556649Y579895D01*
X555888Y580888D01*
X552316Y584460D01*
X551814Y584845D01*
X551934Y585215D01*
X551564Y585335D01*
D01*
X539660Y589203D01*
D02*
G37*
G36*
X331324Y607086D02*
X330239Y603747D01*
X328956D01*
X327715Y603583D01*
X326560Y603105D01*
X325568Y602343D01*
X321086Y597861D01*
X321064Y597858D01*
X319726Y597304D01*
X318577Y596423D01*
X317696Y595274D01*
X317142Y593936D01*
X316952Y592500D01*
X317142Y591064D01*
X317696Y589726D01*
X318577Y588577D01*
X319726Y587696D01*
X321064Y587142D01*
X322500Y586952D01*
X323936Y587142D01*
X325274Y587696D01*
X326423Y588577D01*
X327304Y589726D01*
X327858Y591064D01*
X327861Y591086D01*
X330545Y593770D01*
X336972Y591682D01*
X337322Y590223D01*
X331579Y584480D01*
X330818Y583488D01*
X330678Y583149D01*
X330339Y582332D01*
X330176Y581092D01*
Y502273D01*
X327845Y501515D01*
X327845Y501515D01*
X326836Y501187D01*
X327164Y500179D01*
Y500179D01*
X330824Y488914D01*
X342089Y492574D01*
X342089Y492574D01*
X343098Y492902D01*
X342770Y493910D01*
Y493910D01*
X339758Y503181D01*
Y579108D01*
X348565Y587915D01*
X352715Y586566D01*
X356703Y598840D01*
X344429Y602828D01*
X344429D01*
X344429Y602828D01*
D01*
X343598Y603098D01*
X343598D01*
X343598D01*
D01*
X343598D01*
Y603098D01*
X331324Y607086D01*
D02*
G37*
G36*
X403000Y652051D02*
X400411Y651847D01*
X397885Y651241D01*
X395486Y650247D01*
X393271Y648890D01*
X391297Y647203D01*
X389610Y645228D01*
X388253Y643014D01*
X387259Y640615D01*
X386653Y638089D01*
X386449Y635500D01*
X386653Y632911D01*
X387259Y630385D01*
X388253Y627986D01*
X389610Y625772D01*
X391297Y623797D01*
X393271Y622110D01*
X395486Y620753D01*
X397885Y619759D01*
X400411Y619153D01*
X403000Y618949D01*
X405589Y619153D01*
X408115Y619759D01*
X410514Y620753D01*
X412728Y622110D01*
X414703Y623797D01*
X416390Y625772D01*
X417747Y627986D01*
X418741Y630385D01*
X419347Y632911D01*
X419551Y635500D01*
X419347Y638089D01*
X418741Y640615D01*
X417747Y643014D01*
X416390Y645228D01*
X414703Y647203D01*
X412728Y648890D01*
X410514Y650247D01*
X408115Y651241D01*
X405589Y651847D01*
X403000Y652051D01*
D02*
G37*
G36*
X715176Y607086D02*
X703911Y603426D01*
X703911Y603426D01*
X702902Y603098D01*
X703230Y602090D01*
Y602090D01*
X706242Y592819D01*
Y516892D01*
X697435Y508085D01*
X694294Y509106D01*
X694294D01*
X693285Y509434D01*
X692957Y508425D01*
X692957Y508425D01*
X689297Y497160D01*
X701571Y493172D01*
D01*
X702402Y492902D01*
X702402D01*
X702402D01*
D01*
X702402D01*
Y492902D01*
X713667Y489241D01*
X713667D01*
X714676Y488914D01*
X715004Y489922D01*
X715004Y489922D01*
X715761Y492253D01*
X717044D01*
X718285Y492417D01*
X719102Y492755D01*
X719440Y492895D01*
X720432Y493657D01*
Y493657D01*
X720432D01*
D01*
D01*
D01*
D01*
D01*
D01*
X720432D01*
D01*
X720432D01*
Y493657D01*
D01*
D01*
D01*
D01*
Y493657D01*
D01*
D01*
D01*
Y493657D01*
D01*
D01*
X720432D01*
D01*
D01*
D01*
D01*
D01*
X723914Y497139D01*
X723936Y497142D01*
X725274Y497696D01*
X726423Y498577D01*
X727304Y499726D01*
X727858Y501064D01*
X728048Y502500D01*
X727858Y503936D01*
X727304Y505274D01*
X726423Y506423D01*
X725274Y507304D01*
X723936Y507858D01*
X722500Y508047D01*
X721064Y507858D01*
X719726Y507304D01*
X718577Y506423D01*
X717696Y505274D01*
X717142Y503936D01*
X717139Y503914D01*
X715455Y502230D01*
X709028Y504318D01*
X708678Y505777D01*
X714421Y511520D01*
X715182Y512512D01*
X715661Y513668D01*
X715824Y514908D01*
D01*
D01*
D01*
D01*
D01*
X715824D01*
D01*
D01*
D01*
Y514908D01*
X715824D01*
D01*
Y514908D01*
D01*
D01*
D01*
D01*
D01*
D01*
D01*
D01*
D01*
D01*
D01*
D01*
Y514908D01*
D01*
X715824D01*
D01*
D01*
D01*
D01*
X715824Y514908D01*
Y593727D01*
X718155Y594485D01*
X718155Y594485D01*
X719164Y594812D01*
X718836Y595821D01*
Y595821D01*
X715176Y607086D01*
D02*
G37*
%LPD*%
G36*
X488184Y553233D02*
X488184Y553233D01*
X487242Y552291D01*
X481985D01*
X477291Y556985D01*
Y559495D01*
X478627Y560176D01*
X488184Y553233D01*
D02*
G37*
D10*
X532646Y742390D02*
D03*
Y728610D02*
D03*
X513354Y742390D02*
D03*
Y728610D02*
D03*
X513354Y353610D02*
D03*
Y367390D02*
D03*
X532646Y353610D02*
D03*
Y367390D02*
D03*
D11*
X644853Y699404D02*
D03*
X636754Y688257D02*
D03*
X629246Y710744D02*
D03*
X621147Y699596D02*
D03*
X401147Y396096D02*
D03*
X409246Y407243D02*
D03*
X416754Y384756D02*
D03*
X424853Y395904D02*
D03*
D12*
X711033Y598955D02*
D03*
X697928Y594697D02*
D03*
X705072Y617303D02*
D03*
X691967Y613045D02*
D03*
X334967Y497045D02*
D03*
X348072Y501303D02*
D03*
X340928Y478697D02*
D03*
X354033Y482956D02*
D03*
D13*
X704572Y478697D02*
D03*
X691467Y482956D02*
D03*
X710533Y497045D02*
D03*
X697428Y501303D02*
D03*
X341428Y617303D02*
D03*
X354533Y613045D02*
D03*
X335467Y598955D02*
D03*
X348572Y594697D02*
D03*
D14*
X629246Y385257D02*
D03*
X621147Y396404D02*
D03*
X644853Y396596D02*
D03*
X636754Y407744D02*
D03*
X416754Y711243D02*
D03*
X424853Y700096D02*
D03*
X401147Y699904D02*
D03*
X409246Y688757D02*
D03*
D15*
X498096Y577853D02*
D03*
X509243Y569754D02*
D03*
X486757Y562246D02*
D03*
X497904Y554147D02*
D03*
D16*
X543803Y581072D02*
D03*
X539544Y567967D02*
D03*
X525456Y587033D02*
D03*
X521197Y573928D02*
D03*
D17*
X560890Y538354D02*
D03*
X547110D02*
D03*
X560890Y557646D02*
D03*
X547110D02*
D03*
D18*
X525456Y509467D02*
D03*
X521197Y522572D02*
D03*
X543803Y515428D02*
D03*
X539544Y528533D02*
D03*
D19*
X486757Y533754D02*
D03*
X497904Y541853D02*
D03*
X498096Y518147D02*
D03*
X509243Y526246D02*
D03*
D20*
X620500Y522000D02*
X636578Y505922D01*
X668500D01*
X620500Y522000D02*
Y548000D01*
X373500Y572500D02*
X412500D01*
X425000Y560000D01*
Y548000D02*
Y560000D01*
D21*
X373500Y541000D02*
Y599000D01*
X502500Y730000D02*
X503890Y728610D01*
X513354D01*
X372500Y442500D02*
X407757Y407243D01*
X477610Y367390D02*
X513354D01*
X430000Y415000D02*
X477610Y367390D01*
X417003Y415000D02*
X430000D01*
X409246Y407243D02*
X417003Y415000D01*
X407757Y407243D02*
X409246D01*
X372500Y442500D02*
Y492500D01*
X363697Y501303D02*
X372500Y492500D01*
X348072Y501303D02*
X363697D01*
X347500Y501874D02*
X348072Y501303D01*
X347500Y501874D02*
Y515000D01*
X373500Y541000D01*
X359455Y613045D02*
X373500Y599000D01*
X354533Y613045D02*
X359455D01*
X354533D02*
X382500Y641011D01*
Y647500D01*
X405000Y670000D01*
X412500D01*
X424853Y682353D01*
Y700096D01*
X464949Y660000D01*
X470000D01*
X490000D02*
Y702500D01*
X502500Y715000D01*
X525000D01*
X423010Y717500D02*
X452500D01*
X472500Y595000D02*
X480000Y602500D01*
X472500Y555000D02*
Y595000D01*
X480000Y602500D02*
Y690000D01*
X452500Y717500D02*
X480000Y690000D01*
X525000Y715000D02*
X532646Y722646D01*
Y728610D01*
X540000Y721256D01*
Y720000D02*
Y721256D01*
Y720000D02*
X585000Y675000D01*
X625000D01*
X636754Y686754D01*
Y688257D01*
X657500Y667510D01*
Y662500D02*
Y667510D01*
Y662500D02*
X675000Y645000D01*
Y607500D02*
Y645000D01*
Y607500D02*
X687803Y594697D01*
X697928D01*
X668500Y565269D02*
X697928Y594697D01*
X668500Y548000D02*
Y565269D01*
Y505922D02*
Y548000D01*
Y505922D02*
X691467Y482956D01*
X675000Y466489D02*
X691467Y482956D01*
X675000Y460000D02*
Y466489D01*
X635000Y420000D02*
X675000Y460000D01*
X625000Y420000D02*
X635000D01*
X621147Y416147D02*
X625000Y420000D01*
X621147Y396404D02*
Y416147D01*
X604742Y380000D02*
X621147Y396404D01*
X505000Y380000D02*
X604742D01*
X505000Y375744D02*
Y380000D01*
Y375744D02*
X513354Y367390D01*
X521197Y533697D02*
X530000Y542500D01*
X515000Y552500D02*
Y563997D01*
X504353Y541853D02*
X515000Y552500D01*
Y560000D02*
X531578D01*
X530000Y542500D02*
X535000D01*
X521197Y522572D02*
Y533697D01*
X531578Y560000D02*
X535000Y556578D01*
Y542500D02*
Y556578D01*
Y542500D02*
X539146Y538354D01*
X547110D01*
X531578Y560000D02*
X539544Y567967D01*
X497904Y541853D02*
X504353D01*
X509243Y569754D02*
X515000Y563997D01*
X482500Y566503D02*
Y587500D01*
Y566503D02*
X486757Y562246D01*
X497500Y600000D02*
X512489D01*
X525456Y587033D01*
X560890Y565890D02*
X567500Y572500D01*
X560890Y557646D02*
Y565890D01*
X552072Y515428D02*
X557500Y510000D01*
X543803Y515428D02*
X552072D01*
X492500Y505000D02*
X498096Y510596D01*
Y518147D01*
X392500Y705000D02*
X396051D01*
X401147Y699904D01*
X507500Y750000D02*
X513354Y744146D01*
Y742390D02*
Y744146D01*
X625000Y725000D02*
X629246Y720754D01*
Y710744D02*
Y720754D01*
X710000Y622231D02*
Y627500D01*
X705072Y617303D02*
X710000Y622231D01*
X717044Y497045D02*
X722500Y502500D01*
X710533Y497045D02*
X717044D01*
X651596Y396596D02*
X657500Y402500D01*
X644853Y396596D02*
X651596D01*
X538756Y347500D02*
X542500D01*
X532646Y353610D02*
X538756Y347500D01*
X416754Y375746D02*
X420000Y372500D01*
X416754Y375746D02*
Y384756D01*
X335000Y467500D02*
Y472769D01*
X340928Y478697D01*
X322500Y592500D02*
X328956Y598955D01*
X335467D01*
X532646Y742390D02*
X578353D01*
X621147Y699596D01*
X644853Y699404D02*
X691967Y652291D01*
Y613045D02*
Y652291D01*
X711033Y514908D02*
Y598955D01*
X697428Y501303D02*
X711033Y514908D01*
X704572Y475562D02*
Y478697D01*
X636754Y407744D02*
X704572Y475562D01*
X611379Y367390D02*
X629246Y385257D01*
X532646Y367390D02*
X611379D01*
X467147Y353610D02*
X513354D01*
X424853Y395904D02*
X467147Y353610D01*
X354033Y443209D02*
X401147Y396096D01*
X354033Y443209D02*
Y482956D01*
X334967Y497045D02*
Y581092D01*
X348572Y594697D01*
X341428Y617303D02*
Y620938D01*
X409246Y688757D01*
X416754Y711243D02*
X423010Y717500D01*
X472500Y555000D02*
X480000Y547500D01*
X491258D02*
X497904Y554147D01*
X480000Y547500D02*
X491258D01*
X498096Y577853D02*
X502742Y582500D01*
X512626D02*
X521197Y573928D01*
X502742Y582500D02*
X512626D01*
X543803Y581072D02*
X548928D01*
X552500Y577500D01*
Y567500D02*
Y577500D01*
X547500Y562500D02*
X552500Y567500D01*
X547500Y558035D02*
Y562500D01*
X547110Y557646D02*
X547500Y558035D01*
X560890Y533390D02*
Y538354D01*
X555000Y527500D02*
X560890Y533390D01*
X540578Y527500D02*
X555000D01*
X539544Y528533D02*
X540578Y527500D01*
X518033Y509467D02*
X525456D01*
X509243Y518257D02*
Y526246D01*
Y518257D02*
X518033Y509467D01*
X481254Y533754D02*
X486757D01*
X472500Y525000D02*
X481254Y533754D01*
X472500Y487500D02*
Y525000D01*
Y487500D02*
X490000Y470000D01*
X495000D01*
D22*
X668500Y548000D02*
D03*
X425000D02*
D03*
X373500D02*
D03*
X620500D02*
D03*
D23*
X648500D02*
D03*
X445000D02*
D03*
X393500D02*
D03*
X600500D02*
D03*
D24*
X643500Y460500D02*
D03*
X403000Y635500D02*
D03*
X643500D02*
D03*
X403000Y460500D02*
D03*
D25*
X493504Y468996D02*
D03*
X502500Y730000D02*
D03*
X490000Y660000D02*
D03*
X470000D02*
D03*
X505000Y380000D02*
D03*
X540000Y720000D02*
D03*
X510000Y547500D02*
D03*
X482500Y587500D02*
D03*
X497500Y600000D02*
D03*
X567500Y572500D02*
D03*
X557500Y510000D02*
D03*
X492500Y505000D02*
D03*
X392500Y705000D02*
D03*
X507500Y750000D02*
D03*
X625000Y725000D02*
D03*
X710000Y627500D02*
D03*
X722500Y502500D02*
D03*
X657500Y402500D02*
D03*
X542500Y347500D02*
D03*
X420000Y372500D02*
D03*
X335000Y467500D02*
D03*
X322500Y592500D02*
D03*
M02*
