%FSLAX25Y25*%
%MOIN*%
G70*
G01*
G75*
G04 Layer_Color=8421504*
%ADD10P,0.08352X4X369.0*%
%ADD11P,0.08352X4X81.0*%
%ADD12P,0.08352X4X153.0*%
%ADD13R,0.05906X0.05906*%
%ADD14P,0.08352X4X117.0*%
%ADD15R,0.05906X0.05906*%
%ADD16C,0.02500*%
%ADD17C,0.05000*%
%ADD18C,0.16500*%
%ADD19C,0.04000*%
%ADD20R,0.08000X0.05000*%
%ADD21R,0.05000X0.08000*%
%ADD22R,0.12205X0.17716*%
G04:AMPARAMS|DCode=23|XSize=122.05mil|YSize=177.16mil|CornerRadius=0mil|HoleSize=0mil|Usage=FLASHONLY|Rotation=240.000|XOffset=0mil|YOffset=0mil|HoleType=Round|Shape=Rectangle|*
%AMROTATEDRECTD23*
4,1,4,-0.04620,0.09714,0.10723,0.00856,0.04620,-0.09714,-0.10723,-0.00856,-0.04620,0.09714,0.0*
%
%ADD23ROTATEDRECTD23*%

G04:AMPARAMS|DCode=24|XSize=122.05mil|YSize=177.16mil|CornerRadius=0mil|HoleSize=0mil|Usage=FLASHONLY|Rotation=120.000|XOffset=0mil|YOffset=0mil|HoleType=Round|Shape=Rectangle|*
%AMROTATEDRECTD24*
4,1,4,0.10723,-0.00856,-0.04620,-0.09714,-0.10723,0.00856,0.04620,0.09714,0.10723,-0.00856,0.0*
%
%ADD24ROTATEDRECTD24*%

%ADD25C,0.01000*%
%ADD26C,0.01200*%
%ADD27C,0.01500*%
%ADD28P,0.06937X4X369.0*%
%ADD29P,0.06937X4X81.0*%
%ADD30P,0.06937X4X153.0*%
%ADD31R,0.04906X0.04906*%
%ADD32P,0.06937X4X117.0*%
%ADD33R,0.04906X0.04906*%
D28*
X1018647Y979096D02*
D03*
X1026746Y990244D02*
D03*
X1034254Y967756D02*
D03*
X1042353Y978904D02*
D03*
X1217853Y978904D02*
D03*
X1209754Y967756D02*
D03*
X1202246Y990244D02*
D03*
X1194147Y979096D02*
D03*
X1129853Y827404D02*
D03*
X1121754Y816257D02*
D03*
X1114246Y838743D02*
D03*
X1106147Y827596D02*
D03*
D29*
X990746Y967756D02*
D03*
X982647Y978904D02*
D03*
X1006353Y979096D02*
D03*
X998254Y990244D02*
D03*
X1173254D02*
D03*
X1181353Y979096D02*
D03*
X1157647Y978904D02*
D03*
X1165746Y967756D02*
D03*
X1085754Y838743D02*
D03*
X1093853Y827596D02*
D03*
X1070147Y827404D02*
D03*
X1078246Y816257D02*
D03*
D30*
X992533Y937455D02*
D03*
X979428Y933197D02*
D03*
X986572Y955803D02*
D03*
X973467Y951544D02*
D03*
X1148467D02*
D03*
X1161572Y955803D02*
D03*
X1154428Y933197D02*
D03*
X1167533Y937455D02*
D03*
X1061467Y800045D02*
D03*
X1074572Y804303D02*
D03*
X1067428Y781697D02*
D03*
X1080533Y785955D02*
D03*
D31*
X1022146Y929890D02*
D03*
Y916110D02*
D03*
X1002854Y929890D02*
D03*
Y916110D02*
D03*
X1022146Y960890D02*
D03*
Y947110D02*
D03*
X1002854Y960890D02*
D03*
Y947110D02*
D03*
X1177854D02*
D03*
Y960890D02*
D03*
X1197146Y947110D02*
D03*
Y960890D02*
D03*
X1177854Y915610D02*
D03*
Y929390D02*
D03*
X1197146Y915610D02*
D03*
Y929390D02*
D03*
X1090354Y764110D02*
D03*
Y777890D02*
D03*
X1109646Y764110D02*
D03*
Y777890D02*
D03*
D32*
X1045572Y933197D02*
D03*
X1032467Y937455D02*
D03*
X1051533Y951544D02*
D03*
X1038428Y955803D02*
D03*
X1220572Y933197D02*
D03*
X1207467Y937455D02*
D03*
X1226533Y951544D02*
D03*
X1213428Y955803D02*
D03*
X1132572Y781697D02*
D03*
X1119467Y785955D02*
D03*
X1138533Y800045D02*
D03*
X1125428Y804303D02*
D03*
D33*
X1093110Y792854D02*
D03*
X1106890Y812146D02*
D03*
X1093110D02*
D03*
X1106890Y792854D02*
D03*
M02*
