%FSLAX25Y25*%
%MOIN*%
G70*
G01*
G75*
G04 Layer_Physical_Order=1*
G04 Layer_Color=255*
%ADD10P,0.08352X4X369.0*%
%ADD11P,0.08352X4X81.0*%
%ADD12P,0.08352X4X153.0*%
%ADD13R,0.05906X0.05906*%
%ADD14P,0.08352X4X117.0*%
%ADD15R,0.05906X0.05906*%
%ADD16C,0.02500*%
%ADD17C,0.05000*%
%ADD18C,0.16500*%
%ADD19C,0.04000*%
G36*
X1132709Y983016D02*
Y947500D01*
X1132709Y947500D01*
X1132709D01*
X1132872Y946260D01*
X1133211Y945443D01*
X1133351Y945105D01*
X1134112Y944112D01*
X1134112Y944112D01*
X1134112Y944112D01*
X1139112Y939112D01*
D01*
X1139112Y939112D01*
X1139112Y939112D01*
D01*
D01*
D01*
X1139112Y939112D01*
Y939112D01*
X1140104Y938351D01*
X1141260Y937872D01*
Y937872D01*
X1141260Y937872D01*
D01*
D01*
D01*
X1141260D01*
Y937872D01*
X1141260Y937872D01*
X1141260Y937872D01*
X1142500Y937709D01*
X1146239D01*
X1146297Y937340D01*
X1146297Y937340D01*
X1146297Y937340D01*
X1149637Y927061D01*
Y923902D01*
X1149452Y922500D01*
X1149642Y921064D01*
X1150196Y919726D01*
X1151077Y918577D01*
X1152226Y917696D01*
X1153564Y917142D01*
X1155000Y916953D01*
X1156436Y917142D01*
X1157774Y917696D01*
X1158923Y918577D01*
X1159804Y919726D01*
X1160358Y921064D01*
X1160548Y922500D01*
X1160358Y923936D01*
X1159804Y925274D01*
X1159219Y926036D01*
Y927969D01*
X1162559Y929054D01*
X1162559D01*
D01*
Y929054D01*
X1162559D01*
D01*
D01*
D01*
D01*
X1162559D01*
Y929054D01*
X1162559Y929054D01*
D01*
X1163390Y929325D01*
X1163568Y929382D01*
X1163568Y929382D01*
Y929382D01*
X1175664Y933313D01*
X1175664Y933313D01*
Y933313D01*
X1177062Y933767D01*
X1177604Y933351D01*
X1178760Y932872D01*
X1180000Y932709D01*
X1183016D01*
X1189723Y926002D01*
X1190693Y925257D01*
Y923124D01*
X1190693Y923124D01*
X1190693Y923124D01*
X1190693Y922937D01*
Y922063D01*
D01*
D01*
D01*
D01*
X1190693D01*
Y909157D01*
X1203598D01*
Y910819D01*
X1205610D01*
X1206850Y910983D01*
X1207667Y911321D01*
X1208006Y911461D01*
X1208883Y912135D01*
X1208936Y912142D01*
X1210274Y912696D01*
X1211423Y913577D01*
X1212304Y914726D01*
X1212858Y916064D01*
X1213048Y917500D01*
X1212858Y918936D01*
X1212304Y920274D01*
X1211423Y921423D01*
X1210274Y922304D01*
X1208936Y922858D01*
X1207500Y923048D01*
X1206064Y922858D01*
X1204846Y922354D01*
X1203598Y923187D01*
Y935843D01*
X1200438D01*
X1199775Y937188D01*
X1199804Y937226D01*
X1200358Y938564D01*
X1200361Y938586D01*
X1200533Y938758D01*
X1201295Y939750D01*
X1201671Y940658D01*
X1203598D01*
Y944166D01*
X1204984Y944740D01*
X1208112Y941612D01*
X1209105Y940851D01*
X1210260Y940372D01*
X1211500Y940209D01*
X1214515D01*
X1215685Y939039D01*
X1212441Y929054D01*
X1222845Y925674D01*
X1223382Y924274D01*
X1205090Y892590D01*
X1202500Y890000D01*
Y888104D01*
X1198260Y880760D01*
X1195000Y877500D01*
Y875114D01*
X1188014Y863014D01*
X1187500Y862500D01*
Y862123D01*
X1167524Y827524D01*
X1167500Y827500D01*
Y827483D01*
X1160694Y815694D01*
X1160000Y815000D01*
Y814492D01*
X1147034Y792034D01*
X1145000Y790000D01*
Y788511D01*
X1140744Y781140D01*
X1139374Y781750D01*
X1140703Y785840D01*
X1132380Y788544D01*
X1132500Y789453D01*
X1133936Y789642D01*
X1135274Y790196D01*
X1136423Y791077D01*
X1137304Y792226D01*
X1137827Y793489D01*
X1142676Y791914D01*
X1146664Y804187D01*
X1136451Y807506D01*
X1136149Y808479D01*
X1136628Y809634D01*
X1136791Y810874D01*
Y825258D01*
X1136711Y825865D01*
X1138409Y828202D01*
X1139904Y828320D01*
X1141207Y827018D01*
X1142199Y826256D01*
X1143354Y825778D01*
Y825778D01*
X1143354Y825778D01*
D01*
D01*
D01*
X1143354D01*
Y825778D01*
X1143355Y825778D01*
X1143355Y825778D01*
X1144594Y825615D01*
X1155402D01*
X1156642Y825778D01*
X1157797Y826256D01*
X1158790Y827018D01*
X1160675Y828903D01*
X1161021Y829354D01*
X1161377Y829795D01*
X1196590Y887504D01*
X1196614Y887558D01*
X1196649Y887605D01*
X1196866Y888129D01*
X1197096Y888648D01*
X1197105Y888706D01*
X1197128Y888760D01*
X1197202Y889323D01*
X1197290Y889884D01*
X1197283Y889942D01*
X1197291Y890000D01*
Y895000D01*
D01*
D01*
D01*
D01*
X1197291D01*
D01*
D01*
D01*
D01*
D01*
X1197291D01*
Y895000D01*
D01*
D01*
Y895000D01*
D01*
D01*
D01*
D01*
D01*
D01*
D01*
D01*
D01*
D01*
D01*
D01*
Y895000D01*
D01*
X1197291D01*
D01*
D01*
D01*
D01*
D01*
D01*
D01*
X1197291Y895000D01*
D01*
D01*
D01*
X1197128Y896240D01*
X1196847Y896917D01*
X1196649Y897396D01*
X1195888Y898388D01*
X1195888Y898388D01*
X1195888D01*
X1195888Y898388D01*
Y898388D01*
X1184307Y909968D01*
Y922063D01*
X1171402D01*
Y909157D01*
X1173128D01*
X1173227Y908406D01*
X1173705Y907250D01*
X1174467Y906258D01*
X1187709Y893015D01*
Y891346D01*
X1153495Y835275D01*
X1153417Y835196D01*
X1146579D01*
X1124888Y856888D01*
X1123895Y857649D01*
X1123557Y857789D01*
X1122740Y858128D01*
X1121500Y858291D01*
X1113500D01*
X1112260Y858128D01*
X1111104Y857649D01*
X1110112Y856888D01*
X1099612Y846388D01*
X1098851Y845395D01*
X1098711Y845057D01*
X1098372Y844240D01*
X1098209Y843000D01*
Y830742D01*
X1098372Y829502D01*
X1098711Y828685D01*
X1098802Y828465D01*
X1097134Y826168D01*
Y826168D01*
X1097226Y824804D01*
X1096077Y823923D01*
X1095196Y822774D01*
X1094777Y821762D01*
X1093306Y821470D01*
X1088291Y826484D01*
Y832611D01*
X1094767Y837316D01*
X1087181Y847757D01*
X1076741Y840171D01*
X1078817Y837313D01*
X1078709Y836490D01*
X1078709Y836490D01*
X1078709D01*
X1078709Y836490D01*
X1078709D01*
Y829025D01*
X1077282Y828561D01*
X1071574Y836418D01*
X1061134Y828832D01*
Y828832D01*
X1061064Y827858D01*
X1059726Y827304D01*
X1058577Y826423D01*
X1057696Y825274D01*
X1057142Y823936D01*
X1056952Y822500D01*
X1057142Y821064D01*
X1057696Y819726D01*
X1058577Y818577D01*
X1059499Y817870D01*
X1059597Y816373D01*
X1058079Y814855D01*
X1057318Y813862D01*
X1056839Y812707D01*
X1056676Y811467D01*
Y805273D01*
X1053336Y804187D01*
X1057324Y791914D01*
X1062432Y793573D01*
X1063298Y792348D01*
X1063279Y792324D01*
X1062800Y791168D01*
X1062637Y789928D01*
Y786926D01*
X1059297Y785840D01*
X1060626Y781750D01*
X1059256Y781140D01*
X1057500Y784181D01*
Y785000D01*
X1056382Y786119D01*
X1050000Y797172D01*
Y797500D01*
X1049551Y797949D01*
X1027500Y836143D01*
Y837500D01*
X1025646Y839354D01*
X1020000Y849133D01*
Y850000D01*
X1018816Y851184D01*
X1015000Y857793D01*
Y862500D01*
X1008571Y868929D01*
X1005000Y875114D01*
Y877500D01*
X1001740Y880760D01*
X997500Y888104D01*
Y890000D01*
X994910Y892590D01*
X990000Y901095D01*
Y902500D01*
X988080Y904420D01*
X972693Y931072D01*
X972598Y931195D01*
X970817Y934617D01*
X969281Y938324D01*
X968075Y942151D01*
X967897Y942950D01*
X969324Y943414D01*
D01*
X969324D01*
D01*
Y943414D01*
X969324D01*
D01*
Y943414D01*
X980368Y947002D01*
X981077Y946077D01*
X982226Y945196D01*
X983564Y944642D01*
X985000Y944452D01*
X986436Y944642D01*
X987774Y945196D01*
X988923Y946077D01*
X989804Y947226D01*
X990358Y948564D01*
X990381Y948733D01*
X990721Y949176D01*
X991200Y950332D01*
X991226Y950530D01*
X994703Y951660D01*
X994614Y951932D01*
X995716Y952950D01*
X996402Y952666D01*
Y945497D01*
X984402Y941598D01*
X987742Y931319D01*
Y920467D01*
X987742Y920467D01*
X987742D01*
X987906Y919227D01*
X988384Y918071D01*
X989145Y917079D01*
X993502Y912722D01*
X994494Y911961D01*
X995650Y911483D01*
X996402Y911384D01*
Y909657D01*
X1009307D01*
Y921345D01*
X1010000Y921953D01*
X1011436Y922142D01*
X1012774Y922696D01*
X1013923Y923577D01*
X1014272Y924033D01*
X1015693Y923551D01*
Y923437D01*
X1028598D01*
Y936343D01*
X1022468D01*
X1016923Y941888D01*
X1015931Y942649D01*
X1014775Y943128D01*
X1013535Y943291D01*
X1012984D01*
X1009307Y946968D01*
Y953376D01*
X1009307Y953376D01*
D01*
D01*
D01*
D01*
D01*
D01*
D01*
X1009307Y953563D01*
Y953743D01*
Y954000D01*
Y954128D01*
Y954437D01*
X1009307Y954572D01*
X1009307Y954624D01*
X1009307Y954624D01*
D01*
D01*
D01*
X1009307Y954624D01*
D01*
Y960567D01*
X1009741Y961001D01*
X1010502Y961993D01*
X1010981Y963149D01*
X1011144Y964389D01*
Y965209D01*
X1015693D01*
Y954437D01*
X1021876D01*
X1022451Y953996D01*
X1022640Y953851D01*
X1023795Y953372D01*
X1025035Y953209D01*
X1029525D01*
X1030406Y951995D01*
X1030297Y951660D01*
X1042571Y947672D01*
X1042571Y947672D01*
X1042571D01*
X1043402Y947402D01*
Y947402D01*
X1043402Y947402D01*
X1052137Y944563D01*
X1051902Y943082D01*
X1050777D01*
X1049537Y942919D01*
X1048381Y942440D01*
X1047389Y941679D01*
X1045663Y939953D01*
X1041429Y941328D01*
X1037441Y929054D01*
X1049715Y925066D01*
X1052308Y933046D01*
X1052761Y933500D01*
X1058291D01*
X1059531Y933663D01*
X1060686Y934142D01*
X1061679Y934903D01*
Y934903D01*
X1061679D01*
D01*
D01*
D01*
D01*
D01*
D01*
X1061679D01*
D01*
X1061679D01*
Y934903D01*
D01*
D01*
D01*
D01*
Y934903D01*
D01*
D01*
D01*
D01*
D01*
D01*
Y934903D01*
D01*
D01*
X1061679D01*
D01*
D01*
D01*
X1065888Y939112D01*
Y939112D01*
D01*
D01*
D01*
X1065888Y939112D01*
D01*
Y939112D01*
D01*
X1065888D01*
Y939112D01*
D01*
Y939112D01*
Y939112D01*
X1065888D01*
D01*
D01*
Y939112D01*
D01*
D01*
D01*
D01*
D01*
D01*
Y939112D01*
D01*
D01*
X1065888D01*
D01*
X1065888Y939112D01*
D01*
D01*
X1066649Y940104D01*
X1067128Y941260D01*
X1067291Y942500D01*
Y983016D01*
X1071984Y987709D01*
X1128016D01*
X1132709Y983016D01*
D02*
G37*
G36*
X1075709Y776327D02*
Y768000D01*
X1075709Y768000D01*
X1075709D01*
X1075872Y766760D01*
X1076211Y765943D01*
X1076351Y765604D01*
X1077112Y764612D01*
X1077112Y764612D01*
X1077112Y764612D01*
Y764612D01*
D01*
D01*
X1077410Y763625D01*
X1076067Y763266D01*
X1073620Y764825D01*
X1070436Y767268D01*
X1067478Y769978D01*
X1064768Y772936D01*
X1065152Y774173D01*
X1074496Y777209D01*
X1075709Y776327D01*
D02*
G37*
G36*
X1099726Y762696D02*
X1101064Y762142D01*
X1101086Y762139D01*
X1102502Y760722D01*
X1103193Y760192D01*
Y757657D01*
X1103193D01*
Y756647D01*
X1100000Y756507D01*
X1095992Y756682D01*
X1096807Y757657D01*
X1096807Y757657D01*
D01*
X1097147Y762480D01*
X1098577Y763577D01*
X1099726Y762696D01*
D02*
G37*
G36*
X1124934Y843291D02*
X1134031Y834193D01*
X1133057Y833053D01*
X1128426Y836418D01*
X1120840Y825977D01*
X1127209Y821349D01*
Y812859D01*
X1125435Y811085D01*
X1121285Y812434D01*
X1117297Y800160D01*
X1126857Y797054D01*
X1127142Y796436D01*
X1126952Y795000D01*
X1127142Y793564D01*
X1127696Y792226D01*
X1128577Y791077D01*
X1128783Y790919D01*
X1128429Y789828D01*
X1128429Y789828D01*
X1127683Y787533D01*
X1127683Y787533D01*
X1127683D01*
X1125330Y780291D01*
X1116098D01*
Y784342D01*
X1113304D01*
X1112315Y785470D01*
X1112437Y786402D01*
X1113342D01*
Y799307D01*
X1100437D01*
Y786402D01*
X1101342D01*
X1101531Y784966D01*
X1102086Y783628D01*
X1102967Y782479D01*
X1103193Y782306D01*
Y773655D01*
X1102500Y773047D01*
X1101064Y772858D01*
X1099726Y772304D01*
X1098577Y771423D01*
X1097696Y770274D01*
X1097696Y770274D01*
D01*
D01*
D01*
Y770274D01*
X1096807Y768980D01*
Y770563D01*
X1085291D01*
Y780717D01*
X1088664Y781813D01*
X1084676Y794086D01*
X1076694Y791493D01*
X1075541Y792452D01*
X1075548Y792500D01*
X1075358Y793936D01*
X1074804Y795274D01*
X1073923Y796423D01*
X1072774Y797304D01*
X1071436Y797858D01*
X1070000Y798047D01*
X1068946Y797909D01*
X1066258Y806181D01*
Y809482D01*
X1068241Y811465D01*
X1073751D01*
X1076819Y807243D01*
X1085321Y813421D01*
X1086658Y812740D01*
Y805693D01*
X1099563D01*
Y805693D01*
X1099563D01*
X1099563Y805693D01*
X1100437D01*
Y805693D01*
X1113342D01*
Y818598D01*
X1109238D01*
X1108557Y819935D01*
X1115160Y829023D01*
D01*
D01*
X1115160D01*
D01*
D01*
D01*
D01*
D01*
D01*
X1115160D01*
Y829023D01*
D01*
D01*
D01*
D01*
D01*
D01*
D01*
D01*
X1115160Y829023D01*
D01*
D01*
Y829023D01*
X1115160D01*
D01*
X1115674Y829730D01*
X1115784Y829881D01*
X1115784Y829881D01*
D01*
D01*
X1115784Y829881D01*
X1123259Y840171D01*
X1122503Y840720D01*
X1122288Y842205D01*
X1122304Y842226D01*
X1122858Y843564D01*
X1124934Y843291D01*
D02*
G37*
G36*
X1132591Y770054D02*
X1132522Y769978D01*
X1129564Y767268D01*
X1126380Y764825D01*
X1122996Y762669D01*
X1119437Y760817D01*
X1117346Y759950D01*
X1116098Y760783D01*
Y770563D01*
D01*
Y770563D01*
X1116245Y770709D01*
X1129500D01*
X1130740Y770872D01*
X1131557Y771211D01*
X1131730Y771282D01*
X1132591Y770054D01*
D02*
G37*
G36*
X1230676Y943414D02*
D01*
X1232103Y942950D01*
X1231925Y942151D01*
X1230719Y938324D01*
X1230121Y936880D01*
X1228703Y937340D01*
Y937340D01*
X1228703Y937340D01*
X1225363Y938426D01*
Y940928D01*
X1225200Y942168D01*
X1224721Y943324D01*
X1224191Y944014D01*
X1225057Y945240D01*
X1230676Y943414D01*
D02*
G37*
G36*
X1057709Y983974D02*
Y969910D01*
X1056694Y969131D01*
X1056364Y968968D01*
X1055274Y969804D01*
X1053936Y970358D01*
X1052500Y970547D01*
X1051376Y970399D01*
X1050631Y971144D01*
X1049639Y971906D01*
X1049301Y972046D01*
X1048483Y972384D01*
X1047243Y972548D01*
X1046612Y973787D01*
X1049398Y977622D01*
X1056323Y984548D01*
X1057709Y983974D01*
D02*
G37*
G36*
X1191508Y999872D02*
X1195487Y999348D01*
X1198801Y998613D01*
X1199332Y997211D01*
X1194007Y989882D01*
X1192512Y989764D01*
X1188644Y993631D01*
D01*
X1188644Y993631D01*
D01*
D01*
D01*
X1188644Y993631D01*
X1188644Y993631D01*
X1187652Y994393D01*
X1187313Y994533D01*
X1186497Y994871D01*
X1185256Y995035D01*
X1177749D01*
X1174681Y999257D01*
Y999257D01*
X1175445Y1000020D01*
X1187500D01*
X1187654Y1000040D01*
X1191508Y999872D01*
D02*
G37*
G36*
X1213880Y991729D02*
X1217064Y989287D01*
X1217278Y989090D01*
X1216426Y987918D01*
X1216426Y987918D01*
X1211909Y981700D01*
X1210515Y982256D01*
X1210548Y982500D01*
X1210358Y983936D01*
X1209804Y985274D01*
X1209791Y985291D01*
Y987490D01*
X1209628Y988730D01*
X1209444Y989173D01*
X1211259Y991671D01*
D01*
D01*
X1211259Y991671D01*
D01*
D01*
X1211259D01*
X1212118Y992852D01*
X1213880Y991729D01*
D02*
G37*
G36*
X1012500Y1000020D02*
X1173305D01*
X1173768Y998593D01*
X1164241Y991671D01*
X1171826Y981230D01*
X1177638Y985452D01*
X1183272D01*
X1187626Y981099D01*
X1185134Y977668D01*
X1195574Y970082D01*
X1200974Y977514D01*
X1202226Y977696D01*
X1203564Y977142D01*
X1205000Y976952D01*
X1206436Y977142D01*
X1207774Y977696D01*
X1208146Y977981D01*
X1208840Y977477D01*
X1208840Y977477D01*
X1208840Y977477D01*
X1215709Y972486D01*
Y964859D01*
X1213435Y962585D01*
X1209285Y963934D01*
X1208639Y961945D01*
X1207181Y961595D01*
X1204498Y964277D01*
X1203598Y964968D01*
Y967342D01*
X1190693D01*
Y954437D01*
X1190693Y954437D01*
X1190693Y953563D01*
X1190693D01*
Y943422D01*
X1190196Y942774D01*
X1189642Y941436D01*
X1188388Y940888D01*
X1188388D01*
Y940888D01*
D01*
X1188388D01*
D01*
Y940888D01*
X1187395Y941649D01*
X1187057Y941789D01*
X1186240Y942128D01*
X1185000Y942291D01*
X1184307D01*
Y953563D01*
X1171402D01*
Y945497D01*
X1167526Y944238D01*
X1165876Y945888D01*
X1164884Y946649D01*
X1163729Y947128D01*
X1162489Y947291D01*
X1156615D01*
X1156598Y947402D01*
X1156598Y947402D01*
X1156598Y947402D01*
X1153429Y957154D01*
X1156985Y960709D01*
X1162890D01*
X1164319Y958743D01*
X1174759Y966329D01*
X1167174Y976770D01*
X1167174Y976770D01*
X1166660Y977477D01*
X1166660D01*
D01*
D01*
X1166660Y977477D01*
D01*
D01*
X1166660D01*
X1159074Y987918D01*
X1148634Y980332D01*
X1150036Y978402D01*
X1149726Y977304D01*
X1148577Y976423D01*
X1147696Y975274D01*
X1147142Y973936D01*
X1146953Y972500D01*
X1147142Y971064D01*
X1147696Y969726D01*
X1148577Y968577D01*
X1149216Y968087D01*
X1149315Y966590D01*
X1145079Y962354D01*
X1144318Y961362D01*
X1143839Y960207D01*
X1143788Y959818D01*
X1142291Y959916D01*
Y985000D01*
X1142128Y986240D01*
X1141649Y987395D01*
X1140888Y988388D01*
X1140888Y988388D01*
X1140888D01*
X1140888Y988388D01*
Y988388D01*
X1133388Y995888D01*
D01*
X1133388Y995888D01*
D01*
D01*
D01*
X1133388Y995888D01*
X1133388Y995888D01*
X1132395Y996649D01*
X1132057Y996789D01*
X1131240Y997128D01*
X1130000Y997291D01*
X1070000D01*
X1068760Y997128D01*
X1067605Y996649D01*
X1066612Y995888D01*
X1064933Y994209D01*
X1062858Y993936D01*
X1062304Y995274D01*
X1061423Y996423D01*
X1060274Y997304D01*
X1058936Y997858D01*
X1057500Y998048D01*
X1056064Y997858D01*
X1054726Y997304D01*
X1053577Y996423D01*
X1052696Y995274D01*
X1052142Y993936D01*
X1052139Y993914D01*
X1043947Y985723D01*
X1040926Y987918D01*
X1033340Y977477D01*
X1033340Y977477D01*
X1033340D01*
X1032826Y976770D01*
X1032826Y976770D01*
X1032826Y976770D01*
X1031389Y974791D01*
X1025147D01*
X1024466Y976128D01*
X1027660Y980523D01*
X1023438Y983591D01*
Y983853D01*
X1023275Y985093D01*
X1022936Y985910D01*
X1022796Y986249D01*
X1022034Y987241D01*
X1014388Y994888D01*
X1013396Y995649D01*
X1013057Y995789D01*
X1012240Y996128D01*
X1011000Y996291D01*
X1001836D01*
X1000487Y998148D01*
X1000596Y998480D01*
X1004513Y999348D01*
X1008492Y999872D01*
X1012346Y1000040D01*
X1012500Y1000020D01*
D02*
G37*
G36*
X1226716Y978016D02*
X1227331Y977051D01*
X1229183Y973492D01*
X1230719Y969785D01*
X1230921Y969145D01*
X1230000Y968048D01*
X1228564Y967858D01*
X1227226Y967304D01*
X1226636Y966852D01*
X1225291Y967515D01*
Y976258D01*
X1225204Y976919D01*
X1226087Y977895D01*
X1226402Y978025D01*
X1226716Y978016D01*
D02*
G37*
G36*
X990866Y993487D02*
X991138Y993049D01*
X989241Y991671D01*
X996826Y981230D01*
X996826Y981230D01*
X996826Y981230D01*
X997340Y980523D01*
X997340D01*
X997340Y980523D01*
X1001562Y974712D01*
Y967342D01*
X999023D01*
X992174Y976770D01*
X986362Y972548D01*
X979757D01*
X978516Y972384D01*
X977361Y971906D01*
X976369Y971144D01*
X969612Y964388D01*
X969070Y963681D01*
X967710Y964314D01*
X968075Y965958D01*
X969281Y969785D01*
X970817Y973492D01*
X972669Y977051D01*
X974825Y980435D01*
X977268Y983618D01*
X979978Y986576D01*
X982936Y989287D01*
X986120Y991729D01*
X989404Y993822D01*
X990866Y993487D01*
D02*
G37*
%LPC*%
G36*
X1141752Y858271D02*
X1140316Y858082D01*
X1138978Y857528D01*
X1137829Y856646D01*
X1136948Y855497D01*
X1136394Y854159D01*
X1136205Y852724D01*
X1136394Y851288D01*
X1136948Y849950D01*
X1137829Y848801D01*
X1138978Y847919D01*
X1140316Y847365D01*
X1141752Y847176D01*
X1143188Y847365D01*
X1144526Y847919D01*
X1145675Y848801D01*
X1146556Y849950D01*
X1147110Y851288D01*
X1147299Y852724D01*
X1147110Y854159D01*
X1146556Y855497D01*
X1145675Y856646D01*
X1144526Y857528D01*
X1143188Y858082D01*
X1141752Y858271D01*
D02*
G37*
G36*
X1057874Y856909D02*
X1056438Y856720D01*
X1055100Y856166D01*
X1053951Y855285D01*
X1053070Y854136D01*
X1052516Y852798D01*
X1052326Y851362D01*
X1052516Y849926D01*
X1053070Y848588D01*
X1053951Y847439D01*
X1055100Y846558D01*
X1056438Y846003D01*
X1057874Y845814D01*
X1059310Y846003D01*
X1060648Y846558D01*
X1061797Y847439D01*
X1062678Y848588D01*
X1063232Y849926D01*
X1063422Y851362D01*
X1063232Y852798D01*
X1062678Y854136D01*
X1061797Y855285D01*
X1060648Y856166D01*
X1059310Y856720D01*
X1057874Y856909D01*
D02*
G37*
G36*
X1042126Y884186D02*
X1040690Y883997D01*
X1039352Y883442D01*
X1038203Y882561D01*
X1037322Y881412D01*
X1036767Y880074D01*
X1036578Y878638D01*
X1036767Y877202D01*
X1037322Y875865D01*
X1038203Y874716D01*
X1039352Y873834D01*
X1040690Y873280D01*
X1042126Y873091D01*
X1043562Y873280D01*
X1044900Y873834D01*
X1046049Y874716D01*
X1046930Y875865D01*
X1047484Y877202D01*
X1047673Y878638D01*
X1047484Y880074D01*
X1046930Y881412D01*
X1046049Y882561D01*
X1044900Y883442D01*
X1043562Y883997D01*
X1042126Y884186D01*
D02*
G37*
G36*
X1076004Y971423D02*
X1074828Y971307D01*
X1073697Y970964D01*
X1072654Y970407D01*
X1071741Y969657D01*
X1070991Y968743D01*
X1070434Y967701D01*
X1070091Y966570D01*
X1069975Y965394D01*
Y953996D01*
X1070091Y952820D01*
X1070434Y951689D01*
X1070991Y950646D01*
X1071741Y949733D01*
X1086471Y935003D01*
Y931301D01*
X1085064Y930781D01*
X1084703Y931203D01*
X1082728Y932890D01*
X1080514Y934247D01*
X1078115Y935241D01*
X1075589Y935847D01*
X1073000Y936051D01*
X1070411Y935847D01*
X1067885Y935241D01*
X1065486Y934247D01*
X1063272Y932890D01*
X1061297Y931203D01*
X1059610Y929228D01*
X1058253Y927014D01*
X1057259Y924615D01*
X1056653Y922089D01*
X1056449Y919500D01*
X1056653Y916911D01*
X1057259Y914385D01*
X1058253Y911986D01*
X1059610Y909772D01*
X1061297Y907797D01*
X1063272Y906110D01*
X1065486Y904753D01*
X1067885Y903759D01*
X1070411Y903153D01*
X1072533Y902986D01*
X1073052Y901578D01*
X1068237Y896763D01*
X1067487Y895850D01*
X1066930Y894807D01*
X1066587Y893676D01*
X1066471Y892500D01*
Y885000D01*
X1066587Y883824D01*
X1066930Y882693D01*
X1067487Y881650D01*
X1068237Y880737D01*
X1069150Y879987D01*
X1070193Y879430D01*
X1071324Y879087D01*
X1072500Y878971D01*
X1073676Y879087D01*
X1074807Y879430D01*
X1075850Y879987D01*
X1076763Y880737D01*
X1077513Y881650D01*
X1078070Y882693D01*
X1078413Y883824D01*
X1078529Y885000D01*
Y890003D01*
X1096763Y908237D01*
X1097513Y909150D01*
X1098070Y910193D01*
X1098413Y911324D01*
X1098529Y912500D01*
Y915499D01*
X1099640Y916506D01*
X1100000Y916471D01*
X1101176Y916587D01*
X1102307Y916930D01*
X1103350Y917487D01*
X1104263Y918237D01*
X1105013Y919150D01*
X1105570Y920193D01*
X1105913Y921324D01*
X1106029Y922500D01*
Y942500D01*
X1105913Y943676D01*
X1105570Y944807D01*
X1105013Y945850D01*
X1104263Y946763D01*
X1103350Y947513D01*
X1102307Y948070D01*
X1101176Y948413D01*
X1100000Y948529D01*
X1098824Y948413D01*
X1097693Y948070D01*
X1096650Y947513D01*
X1095737Y946763D01*
X1094987Y945850D01*
X1094776Y945454D01*
X1093292Y945234D01*
X1082033Y956493D01*
Y965394D01*
X1081917Y966570D01*
X1081574Y967701D01*
X1081017Y968743D01*
X1080267Y969657D01*
X1079354Y970407D01*
X1078311Y970964D01*
X1077180Y971307D01*
X1076004Y971423D01*
D02*
G37*
G36*
X1107500Y970941D02*
X1106064Y970752D01*
X1104726Y970198D01*
X1103577Y969316D01*
X1102696Y968167D01*
X1102142Y966829D01*
X1101952Y965394D01*
X1102142Y963958D01*
X1102696Y962620D01*
X1103577Y961471D01*
X1104726Y960590D01*
X1106064Y960035D01*
X1107500Y959846D01*
X1108936Y960035D01*
X1110274Y960590D01*
X1111423Y961471D01*
X1112304Y962620D01*
X1112858Y963958D01*
X1113048Y965394D01*
X1112858Y966829D01*
X1112304Y968167D01*
X1111423Y969316D01*
X1110274Y970198D01*
X1108936Y970752D01*
X1107500Y970941D01*
D02*
G37*
G36*
X1123248D02*
X1121812Y970752D01*
X1120474Y970198D01*
X1119325Y969316D01*
X1118444Y968167D01*
X1117890Y966829D01*
X1117701Y965394D01*
X1117890Y963958D01*
X1118444Y962620D01*
X1119325Y961471D01*
X1120474Y960590D01*
X1121812Y960035D01*
X1123248Y959846D01*
X1124684Y960035D01*
X1126022Y960590D01*
X1127171Y961471D01*
X1128052Y962620D01*
X1128607Y963958D01*
X1128796Y965394D01*
X1128607Y966829D01*
X1128052Y968167D01*
X1127171Y969316D01*
X1126022Y970198D01*
X1124684Y970752D01*
X1123248Y970941D01*
D02*
G37*
G36*
X1034252Y897824D02*
X1032816Y897635D01*
X1031478Y897081D01*
X1030329Y896199D01*
X1029448Y895050D01*
X1028893Y893712D01*
X1028704Y892276D01*
X1028893Y890841D01*
X1029448Y889503D01*
X1030329Y888354D01*
X1031478Y887472D01*
X1032816Y886918D01*
X1034252Y886729D01*
X1035688Y886918D01*
X1037026Y887472D01*
X1038175Y888354D01*
X1039056Y889503D01*
X1039610Y890841D01*
X1039799Y892276D01*
X1039610Y893712D01*
X1039056Y895050D01*
X1038175Y896199D01*
X1037026Y897081D01*
X1035688Y897635D01*
X1034252Y897824D01*
D02*
G37*
G36*
X1100000Y889551D02*
X1097411Y889347D01*
X1094885Y888741D01*
X1092486Y887747D01*
X1090272Y886390D01*
X1088297Y884703D01*
X1086610Y882728D01*
X1085253Y880514D01*
X1084259Y878115D01*
X1083653Y875589D01*
X1083449Y873000D01*
X1083653Y870411D01*
X1084259Y867885D01*
X1085253Y865486D01*
X1086610Y863272D01*
X1088297Y861297D01*
X1090272Y859610D01*
X1092486Y858253D01*
X1094885Y857259D01*
X1097411Y856653D01*
X1100000Y856449D01*
X1102589Y856653D01*
X1105115Y857259D01*
X1107514Y858253D01*
X1109728Y859610D01*
X1111703Y861297D01*
X1113390Y863272D01*
X1114747Y865486D01*
X1115741Y867885D01*
X1116347Y870411D01*
X1116551Y873000D01*
X1116360Y875428D01*
X1117431Y876478D01*
X1117500Y876471D01*
X1130991D01*
X1145363Y862099D01*
X1146276Y861349D01*
X1147319Y860792D01*
X1148450Y860449D01*
X1149626Y860333D01*
X1150802Y860449D01*
X1151933Y860792D01*
X1152975Y861349D01*
X1153889Y862099D01*
X1154639Y863012D01*
X1155196Y864055D01*
X1155539Y865186D01*
X1155655Y866362D01*
X1155539Y867538D01*
X1155196Y868669D01*
X1154639Y869711D01*
X1153889Y870625D01*
X1137751Y886763D01*
D01*
X1137751Y886763D01*
D01*
D01*
D01*
X1137751Y886763D01*
X1137751Y886763D01*
X1136837Y887513D01*
X1135795Y888070D01*
D01*
X1135795Y888070D01*
D01*
D01*
D01*
D01*
X1135795D01*
Y888070D01*
D01*
D01*
X1135795Y888070D01*
X1135795Y888070D01*
X1135795Y888070D01*
D01*
X1134664Y888413D01*
X1133488Y888529D01*
X1117500D01*
X1116324Y888413D01*
X1115193Y888070D01*
X1114150Y887513D01*
X1113237Y886763D01*
X1112487Y885850D01*
X1112385Y885658D01*
X1110911Y885380D01*
X1109728Y886390D01*
X1107514Y887747D01*
X1105115Y888741D01*
X1102589Y889347D01*
X1100000Y889551D01*
D02*
G37*
G36*
X1126500Y935551D02*
X1123911Y935347D01*
X1121385Y934741D01*
X1118986Y933747D01*
X1116772Y932390D01*
X1114797Y930703D01*
X1113110Y928728D01*
X1111753Y926514D01*
X1110759Y924115D01*
X1110153Y921589D01*
X1109949Y919000D01*
X1110153Y916411D01*
X1110759Y913885D01*
X1111753Y911486D01*
X1113110Y909272D01*
X1114716Y907391D01*
X1114088Y906029D01*
X1100000D01*
X1098824Y905913D01*
X1097693Y905570D01*
X1096650Y905013D01*
X1095737Y904263D01*
X1094987Y903350D01*
X1094430Y902307D01*
X1094087Y901176D01*
X1093971Y900000D01*
X1094087Y898824D01*
X1094430Y897693D01*
X1094987Y896650D01*
X1095737Y895737D01*
X1096650Y894987D01*
X1097693Y894430D01*
X1098824Y894087D01*
X1100000Y893971D01*
X1156515D01*
X1161111Y889375D01*
X1162024Y888625D01*
X1163067Y888068D01*
X1164198Y887725D01*
X1165374Y887609D01*
X1166550Y887725D01*
X1167681Y888068D01*
X1168724Y888625D01*
X1169637Y889375D01*
X1170387Y890289D01*
X1170944Y891331D01*
X1171287Y892462D01*
X1171403Y893638D01*
X1171287Y894814D01*
X1170944Y895945D01*
X1170387Y896988D01*
X1169637Y897901D01*
X1163275Y904263D01*
D01*
X1163275Y904263D01*
D01*
D01*
D01*
X1163275Y904263D01*
X1163275Y904263D01*
X1162362Y905013D01*
X1161319Y905570D01*
D01*
X1161319Y905570D01*
D01*
D01*
D01*
D01*
X1161319D01*
Y905570D01*
D01*
D01*
X1161319Y905570D01*
X1161319Y905570D01*
X1161319Y905570D01*
D01*
X1160188Y905913D01*
X1159012Y906029D01*
X1138912D01*
X1138284Y907391D01*
X1139890Y909272D01*
X1141247Y911486D01*
X1142241Y913885D01*
X1142847Y916411D01*
X1143051Y919000D01*
X1142847Y921589D01*
X1142241Y924115D01*
X1141247Y926514D01*
X1139890Y928728D01*
X1138203Y930703D01*
X1136228Y932390D01*
X1134014Y933747D01*
X1131615Y934741D01*
X1129089Y935347D01*
X1126500Y935551D01*
D02*
G37*
%LPD*%
D10*
X1018647Y979096D02*
D03*
X1026746Y990244D02*
D03*
X1034254Y967756D02*
D03*
X1042353Y978904D02*
D03*
X1217853Y978904D02*
D03*
X1209754Y967756D02*
D03*
X1202246Y990244D02*
D03*
X1194147Y979096D02*
D03*
X1129853Y827404D02*
D03*
X1121754Y816257D02*
D03*
X1114246Y838743D02*
D03*
X1106147Y827596D02*
D03*
D11*
X990746Y967756D02*
D03*
X982647Y978904D02*
D03*
X1006353Y979096D02*
D03*
X998254Y990244D02*
D03*
X1173254D02*
D03*
X1181353Y979096D02*
D03*
X1157647Y978904D02*
D03*
X1165746Y967756D02*
D03*
X1085754Y838743D02*
D03*
X1093853Y827596D02*
D03*
X1070147Y827404D02*
D03*
X1078246Y816257D02*
D03*
D12*
X992533Y937455D02*
D03*
X979428Y933197D02*
D03*
X986572Y955803D02*
D03*
X973467Y951544D02*
D03*
X1148467D02*
D03*
X1161572Y955803D02*
D03*
X1154428Y933197D02*
D03*
X1167533Y937455D02*
D03*
X1061467Y800045D02*
D03*
X1074572Y804303D02*
D03*
X1067428Y781697D02*
D03*
X1080533Y785955D02*
D03*
D13*
X1022146Y929890D02*
D03*
Y916110D02*
D03*
X1002854Y929890D02*
D03*
Y916110D02*
D03*
X1022146Y960890D02*
D03*
Y947110D02*
D03*
X1002854Y960890D02*
D03*
Y947110D02*
D03*
X1177854D02*
D03*
Y960890D02*
D03*
X1197146Y947110D02*
D03*
Y960890D02*
D03*
X1177854Y915610D02*
D03*
Y929390D02*
D03*
X1197146Y915610D02*
D03*
Y929390D02*
D03*
X1090354Y764110D02*
D03*
Y777890D02*
D03*
X1109646Y764110D02*
D03*
Y777890D02*
D03*
D14*
X1045572Y933197D02*
D03*
X1032467Y937455D02*
D03*
X1051533Y951544D02*
D03*
X1038428Y955803D02*
D03*
X1220572Y933197D02*
D03*
X1207467Y937455D02*
D03*
X1226533Y951544D02*
D03*
X1213428Y955803D02*
D03*
X1132572Y781697D02*
D03*
X1119467Y785955D02*
D03*
X1138533Y800045D02*
D03*
X1125428Y804303D02*
D03*
D15*
X1093110Y792854D02*
D03*
X1106890Y812146D02*
D03*
X1093110D02*
D03*
X1106890Y792854D02*
D03*
D16*
X985000Y920000D02*
X1005000Y900000D01*
X985000Y920000D02*
Y927500D01*
X979428Y933072D02*
X985000Y927500D01*
X979428Y933072D02*
Y933197D01*
X1022146Y905354D02*
Y916110D01*
Y905354D02*
X1022500Y905000D01*
X1020390Y947110D02*
X1022812D01*
X1017500Y950000D02*
X1020390Y947110D01*
X975000Y937500D02*
X979303Y933197D01*
X979428D01*
X975000Y972500D02*
X981404Y978904D01*
X982647D01*
X1006353Y964389D02*
Y979096D01*
Y970000D02*
X1032010D01*
X1034254Y967756D01*
X1002854Y960890D02*
X1006353Y964389D01*
X985000Y950000D02*
X986572Y951572D01*
Y955803D01*
X1007610Y929890D02*
X1010000Y927500D01*
X1002854Y929890D02*
X1007610D01*
X990803Y955803D02*
X995890Y960890D01*
X1002854D01*
X986572Y955803D02*
X990803D01*
X1043904Y978904D02*
X1057500Y992500D01*
X1042353Y978904D02*
X1043904D01*
X1051533Y951544D02*
X1052500Y952511D01*
Y962500D01*
X1047243Y967756D02*
X1052500Y962500D01*
X1034254Y967756D02*
X1047243D01*
X1154428Y923072D02*
X1155000Y922500D01*
X1154428Y923072D02*
Y933197D01*
X1152500Y907500D02*
X1162500D01*
X1167500Y925000D02*
X1171890Y929390D01*
X1167500Y912500D02*
Y925000D01*
X1145000Y915000D02*
Y927500D01*
X1162500Y907500D02*
X1167500Y912500D01*
X1145000Y915000D02*
X1152500Y907500D01*
X1135000Y937500D02*
X1145000Y927500D01*
X1195000Y940000D02*
X1197146Y942146D01*
Y947110D01*
X1185000Y937500D02*
X1193110Y929390D01*
X1180000Y937500D02*
X1185000D01*
X1177500Y946756D02*
X1177854Y947110D01*
X1177500Y940000D02*
Y946756D01*
Y940000D02*
X1180000Y937500D01*
X1193110Y929390D02*
X1197146D01*
X1196535Y930000D02*
X1197146Y929390D01*
X1171890D02*
X1177854D01*
X1152500Y972500D02*
X1157647Y977647D01*
Y978904D01*
X1202246Y990244D02*
X1205000Y987490D01*
Y982500D02*
Y987490D01*
X1226533Y959033D02*
X1230000Y962500D01*
X1226533Y951544D02*
Y959033D01*
X1207467Y937455D02*
X1207500Y937422D01*
Y932500D02*
Y937422D01*
X1205610Y915610D02*
X1207500Y917500D01*
X1197146Y915610D02*
X1205610D01*
X1067428Y789928D02*
X1070000Y792500D01*
X1067428Y781697D02*
Y789928D01*
X1100000Y820000D02*
X1106890Y813110D01*
Y812146D02*
Y813110D01*
X1097500Y831242D02*
Y850000D01*
X1093853Y827596D02*
X1097500Y831242D01*
X1115000Y790422D02*
Y809503D01*
X1081662Y804303D02*
X1093110Y792854D01*
X1093176Y802500D02*
X1115000D01*
X1088320Y797645D02*
X1093176Y802500D01*
X1132500Y795000D02*
X1137545Y800045D01*
X1138533D01*
X1102500Y767500D02*
X1105890Y764110D01*
X1109646D01*
X1062500Y822500D02*
X1067404Y827404D01*
X1070147D01*
X1066257Y816257D02*
X1078246D01*
X1061467Y811467D02*
X1066257Y816257D01*
X1061467Y800045D02*
Y811467D01*
X1070000Y810000D02*
X1074572Y805428D01*
Y804303D02*
Y805428D01*
X1114246Y841746D02*
X1117500Y845000D01*
X1114246Y838743D02*
Y841746D01*
X1113500Y853500D02*
X1121500D01*
X1137500Y947500D02*
X1142500Y942500D01*
X1162489D01*
X1137500Y947500D02*
Y985000D01*
X1130000Y992500D02*
X1137500Y985000D01*
X1070000Y992500D02*
X1130000D01*
X1062500Y985000D02*
X1070000Y992500D01*
X1029110Y916110D02*
X1032467Y919467D01*
X1022146Y916110D02*
X1029110D01*
X1032467Y919467D02*
Y937455D01*
X1022812Y947110D02*
X1032467Y937455D01*
X1181353Y964609D02*
Y979096D01*
Y970000D02*
X1200500D01*
X1177744Y961000D02*
X1181353Y964609D01*
X1200500Y970000D02*
X1202744Y967756D01*
X1209754D01*
X1177744Y961000D02*
X1177854Y960890D01*
X1172000Y961000D02*
X1177744D01*
X1166803Y955803D02*
X1172000Y961000D01*
X1161572Y955803D02*
X1166803D01*
X1115000Y790422D02*
X1119467Y785955D01*
X1115000Y809503D02*
X1121754Y816257D01*
X1090354Y777890D02*
X1093110Y780646D01*
X1074572Y804303D02*
X1081662D01*
X1083500Y824500D02*
X1093110Y814890D01*
X1083500Y824500D02*
Y836490D01*
X1093110Y812146D02*
Y814890D01*
X1083500Y836490D02*
X1085754Y838743D01*
X1080500Y785922D02*
X1080533Y785955D01*
X1080500Y768000D02*
Y785922D01*
Y768000D02*
X1084390Y764110D01*
X1090354D01*
X1109646Y777890D02*
X1112035Y775500D01*
X1129500D01*
X1132572Y778572D01*
Y781697D01*
X1132000Y810874D02*
Y825258D01*
X1125428Y804303D02*
X1132000Y810874D01*
X1129853Y827404D02*
X1132000Y825258D01*
X1103000Y830742D02*
X1106147Y827596D01*
X1103000Y830742D02*
Y843000D01*
X1113500Y853500D01*
X1204500Y952000D02*
X1211500Y945000D01*
X1197146Y960890D02*
X1201110D01*
X1204500Y957500D01*
Y952000D02*
Y957500D01*
X1211500Y945000D02*
X1216500D01*
X1220572Y940928D01*
Y933197D02*
Y940928D01*
X1220500Y962875D02*
Y976258D01*
X1213428Y955803D02*
X1220500Y962875D01*
X1217853Y978904D02*
X1220500Y976258D01*
X1185256Y990244D02*
X1194147Y981353D01*
Y979096D02*
Y981353D01*
X1173254Y990244D02*
X1185256D01*
X1163490Y965500D02*
X1165746Y967756D01*
X1155000Y965500D02*
X1163490D01*
X1148467Y958967D02*
X1155000Y965500D01*
X1148467Y951544D02*
Y958967D01*
X1162489Y942500D02*
X1167533Y937455D01*
X1036231Y958000D02*
X1038428Y955803D01*
X1031500Y958000D02*
X1036231D01*
X1025035D02*
X1031500D01*
X1022146Y960890D02*
X1025035Y958000D01*
X1013535Y938500D02*
X1022146Y929890D01*
X1011000Y938500D02*
X1013535D01*
X1002854Y946646D02*
X1011000Y938500D01*
X1002854Y946646D02*
Y947110D01*
X1022146Y929890D02*
Y930354D01*
X992533Y920467D02*
X996890Y916110D01*
X1002854D01*
X992533Y920467D02*
Y937455D01*
X973000Y952011D02*
X973467Y951544D01*
X973000Y952011D02*
Y961000D01*
X979757Y967756D01*
X990746D01*
X998254Y990244D02*
X999510Y991500D01*
X1011000D01*
X1018647Y983853D01*
Y979096D02*
Y983853D01*
X1177854Y909646D02*
X1192500Y895000D01*
X1177854Y909646D02*
Y915610D01*
X1155402Y830406D02*
X1157287Y832291D01*
X1192500Y890000D02*
Y895000D01*
X1121500Y853500D02*
X1144594Y830406D01*
X1155402D01*
X1157287Y832291D02*
X1192500Y890000D01*
X1045572Y933197D02*
X1045683D01*
X1050777Y938291D02*
X1058291D01*
X1062500Y942500D01*
X1045683Y933197D02*
X1050777Y938291D01*
X1062500Y942500D02*
Y985000D01*
X1106890Y786402D02*
Y792854D01*
X1090000Y785000D02*
X1093110D01*
X1005000Y900000D02*
X1022500D01*
X1107500Y937500D02*
X1135000D01*
X1072500Y875000D02*
X1097500Y850000D01*
X1093110Y780646D02*
Y792854D01*
D17*
X1022500Y875000D02*
X1032500Y865000D01*
X1133488Y882500D02*
X1149626Y866362D01*
X1117500Y882500D02*
X1133488D01*
X1087786Y897786D02*
X1107500Y917500D01*
X1080000Y890000D02*
X1087786Y897786D01*
Y897214D02*
Y897786D01*
Y897214D02*
X1092500Y892500D01*
X1145000D01*
X1157500Y880000D01*
X1159012Y900000D02*
X1165374Y893638D01*
X1100000Y900000D02*
X1159012D01*
X1080000Y880000D02*
Y890000D01*
X1091752Y960748D02*
X1107500Y945000D01*
X1091752Y960748D02*
Y965394D01*
X1092500Y912500D02*
Y937500D01*
X1072500Y892500D02*
X1092500Y912500D01*
X1072500Y885000D02*
Y892500D01*
X1100000Y922500D02*
Y942500D01*
X1076004Y953996D02*
X1092500Y937500D01*
X1076004Y953996D02*
Y965394D01*
X1032500Y865000D02*
X1065000D01*
X1022500Y875000D02*
Y905000D01*
X1065000Y865000D02*
X1080000Y880000D01*
X1107500Y917500D02*
Y945000D01*
D18*
X1100000Y873000D02*
D03*
X1126500Y919000D02*
D03*
X1073000Y919500D02*
D03*
D19*
X1052500Y965000D02*
D03*
X1017500Y950000D02*
D03*
X975000Y937500D02*
D03*
Y972500D02*
D03*
X985000Y950000D02*
D03*
X1010000Y927500D02*
D03*
X1007500Y982500D02*
D03*
X1022500Y990000D02*
D03*
X1057500Y992500D02*
D03*
X1155000Y922500D02*
D03*
X1195000Y940000D02*
D03*
X1207500Y917500D02*
D03*
X1167500Y925000D02*
D03*
X1152500Y972500D02*
D03*
X1170000Y957500D02*
D03*
X1205000Y982500D02*
D03*
X1230000Y962500D02*
D03*
X1207500Y932500D02*
D03*
X1070000Y792500D02*
D03*
X1100000Y820000D02*
D03*
X1090000Y785000D02*
D03*
X1117500Y845000D02*
D03*
X1090000Y857500D02*
D03*
X1132500Y795000D02*
D03*
X1102500Y767500D02*
D03*
X1062500Y822500D02*
D03*
X1070000Y810000D02*
D03*
X1117500Y882500D02*
D03*
X1100000Y900000D02*
D03*
X1057874Y851362D02*
D03*
X1072500Y885000D02*
D03*
X1100000Y942500D02*
D03*
Y922500D02*
D03*
X1165374Y893638D02*
D03*
X1157500Y880000D02*
D03*
X1149626Y866362D02*
D03*
X1141752Y852724D02*
D03*
X1050000Y865000D02*
D03*
X1034252Y892276D02*
D03*
X1042126Y878638D02*
D03*
X1123248Y965394D02*
D03*
X1107500D02*
D03*
X1091752D02*
D03*
X1076004D02*
D03*
X1106890Y786402D02*
D03*
M02*
