%FSLAX25Y25*%
%MOIN*%
G70*
G01*
G75*
G04 Layer_Color=33789*
%ADD10P,0.08352X4X369.0*%
%ADD11P,0.08352X4X81.0*%
%ADD12P,0.08352X4X153.0*%
%ADD13R,0.05906X0.05906*%
%ADD14P,0.08352X4X117.0*%
%ADD15R,0.05906X0.05906*%
%ADD16C,0.02500*%
%ADD17C,0.05000*%
%ADD18C,0.16500*%
%ADD19C,0.04000*%
%ADD20R,0.08000X0.05000*%
%ADD21R,0.05000X0.08000*%
%ADD22R,0.12205X0.17716*%
G04:AMPARAMS|DCode=23|XSize=122.05mil|YSize=177.16mil|CornerRadius=0mil|HoleSize=0mil|Usage=FLASHONLY|Rotation=240.000|XOffset=0mil|YOffset=0mil|HoleType=Round|Shape=Rectangle|*
%AMROTATEDRECTD23*
4,1,4,-0.04620,0.09714,0.10723,0.00856,0.04620,-0.09714,-0.10723,-0.00856,-0.04620,0.09714,0.0*
%
%ADD23ROTATEDRECTD23*%

G04:AMPARAMS|DCode=24|XSize=122.05mil|YSize=177.16mil|CornerRadius=0mil|HoleSize=0mil|Usage=FLASHONLY|Rotation=120.000|XOffset=0mil|YOffset=0mil|HoleType=Round|Shape=Rectangle|*
%AMROTATEDRECTD24*
4,1,4,0.10723,-0.00856,-0.04620,-0.09714,-0.10723,0.00856,0.04620,0.09714,0.10723,-0.00856,0.0*
%
%ADD24ROTATEDRECTD24*%

%ADD25C,0.01000*%
%ADD26C,0.01200*%
%ADD27C,0.01500*%
D25*
X1230801Y929054D02*
G03*
X1187500Y1004054I-43301J25000D01*
G01*
X1012500D02*
G03*
X969199Y929054I0J-50000D01*
G01*
X1056699Y777500D02*
G03*
X1143301Y777500I43301J25000D01*
G01*
X1059984Y823516D02*
X1069016D01*
X1059984Y806484D02*
X1059984Y823516D01*
X1059984Y806484D02*
X1069016D01*
Y823516D01*
X1199984Y917484D02*
X1209016Y917484D01*
Y934516D01*
X1199984D02*
X1209016D01*
X1199984Y917484D02*
Y934516D01*
X1006484Y983984D02*
Y993016D01*
Y983984D02*
X1023516D01*
Y993016D01*
X1006484D02*
X1023516D01*
X1131122Y992953D02*
X1133090D01*
Y962441D02*
Y992953D01*
X1131122Y962441D02*
X1133090D01*
X1066161Y992953D02*
X1068130D01*
X1066161Y962441D02*
Y992953D01*
Y962441D02*
X1068130D01*
X1160698Y830420D02*
X1161682Y832125D01*
X1134274Y845676D02*
X1160698Y830420D01*
X1134274Y845676D02*
X1135258Y847381D01*
X1193178Y886678D02*
X1194162Y888383D01*
X1167738Y903638D02*
X1194162Y888383D01*
X1166754Y901934D02*
X1167738Y903638D01*
X1005464Y887021D02*
X1006448Y885316D01*
X1005464Y887021D02*
X1031888Y902277D01*
X1032872Y900572D01*
X1037944Y830763D02*
X1038928Y829058D01*
X1065352Y844314D01*
X1064368Y846019D02*
X1065352Y844314D01*
X1012500Y1004054D02*
X1187500D01*
X969199Y929054D02*
X1056699Y777500D01*
X1143301D02*
X1230801Y929054D01*
X1014168Y904998D02*
X1015834D01*
X1015001D01*
Y900833D01*
X1015834Y900000D01*
X1016667D01*
X1017500Y900833D01*
X1012502Y904165D02*
X1011669Y904998D01*
X1010002D01*
X1009169Y904165D01*
Y903332D01*
X1010002Y902499D01*
X1010835D01*
X1010002D01*
X1009169Y901666D01*
Y900833D01*
X1010002Y900000D01*
X1011669D01*
X1012502Y900833D01*
X1186668Y907498D02*
X1188334D01*
X1187501D01*
Y903333D01*
X1188334Y902500D01*
X1189167D01*
X1190000Y903333D01*
X1181669Y902500D02*
X1185002D01*
X1181669Y905832D01*
Y906665D01*
X1182502Y907498D01*
X1184169D01*
X1185002Y906665D01*
X1056668Y984998D02*
X1058334D01*
X1057501D01*
Y980833D01*
X1058334Y980000D01*
X1059167D01*
X1060000Y980833D01*
X1055002Y980000D02*
X1053335D01*
X1054169D01*
Y984998D01*
X1055002Y984165D01*
X1036668Y991665D02*
X1037501Y992498D01*
X1039167D01*
X1040000Y991665D01*
Y988333D01*
X1039167Y987500D01*
X1037501D01*
X1036668Y988333D01*
X1031669Y992498D02*
X1035002D01*
Y989999D01*
X1033335Y990832D01*
X1032502D01*
X1031669Y989999D01*
Y988333D01*
X1032502Y987500D01*
X1034169D01*
X1035002Y988333D01*
X1191668Y926665D02*
X1192501Y927498D01*
X1194167D01*
X1195000Y926665D01*
Y923333D01*
X1194167Y922500D01*
X1192501D01*
X1191668Y923333D01*
X1190002Y926665D02*
X1189169Y927498D01*
X1187502D01*
X1186669Y926665D01*
Y925832D01*
X1187502Y924999D01*
X1188336D01*
X1187502D01*
X1186669Y924166D01*
Y923333D01*
X1187502Y922500D01*
X1189169D01*
X1190002Y923333D01*
X1076668Y819165D02*
X1077501Y819998D01*
X1079167D01*
X1080000Y819165D01*
Y815833D01*
X1079167Y815000D01*
X1077501D01*
X1076668Y815833D01*
X1075002Y815000D02*
X1073335D01*
X1074169D01*
Y819998D01*
X1075002Y819165D01*
X1057500Y937500D02*
X1055001D01*
X1054168Y938333D01*
X1055001Y939166D01*
X1056667D01*
X1057500Y939999D01*
X1056667Y940832D01*
X1054168D01*
X1052502Y935834D02*
Y940832D01*
X1050002D01*
X1049169Y939999D01*
Y938333D01*
X1050002Y937500D01*
X1052502D01*
X1046670Y940832D02*
X1045004D01*
X1044171Y939999D01*
Y937500D01*
X1046670D01*
X1047503Y938333D01*
X1046670Y939166D01*
X1044171D01*
X1039173Y940832D02*
X1041672D01*
X1042505Y939999D01*
Y938333D01*
X1041672Y937500D01*
X1039173D01*
X1035007D02*
X1036673D01*
X1037506Y938333D01*
Y939999D01*
X1036673Y940832D01*
X1035007D01*
X1034174Y939999D01*
Y939166D01*
X1037506D01*
X1032508Y939999D02*
X1029176D01*
X1025010Y937500D02*
X1026677D01*
X1027510Y938333D01*
Y939999D01*
X1026677Y940832D01*
X1025010D01*
X1024177Y939999D01*
Y939166D01*
X1027510D01*
X1022511Y937500D02*
X1020845D01*
X1021678D01*
Y940832D01*
X1022511D01*
X1016680Y935834D02*
X1015847D01*
X1015014Y936667D01*
Y940832D01*
X1017513D01*
X1018346Y939999D01*
Y938333D01*
X1017513Y937500D01*
X1015014D01*
X1013348Y942498D02*
Y937500D01*
Y939999D01*
X1012515Y940832D01*
X1010849D01*
X1010015Y939999D01*
Y937500D01*
X1007516Y941665D02*
Y940832D01*
X1008349D01*
X1006683D01*
X1007516D01*
Y938333D01*
X1006683Y937500D01*
X1004184D02*
Y938333D01*
X1003351D01*
Y937500D01*
X1004184D01*
X996686Y940832D02*
X999186D01*
X1000019Y939999D01*
Y938333D01*
X999186Y937500D01*
X996686D01*
X994187D02*
X992521D01*
X991688Y938333D01*
Y939999D01*
X992521Y940832D01*
X994187D01*
X995020Y939999D01*
Y938333D01*
X994187Y937500D01*
X990022D02*
Y940832D01*
X989189D01*
X988356Y939999D01*
Y937500D01*
Y939999D01*
X987523Y940832D01*
X986690Y939999D01*
Y937500D01*
X1167500Y978332D02*
Y975000D01*
Y976666D01*
X1166667Y977499D01*
X1165834Y978332D01*
X1165001D01*
X1160002Y975000D02*
X1161669D01*
X1162502Y975833D01*
Y977499D01*
X1161669Y978332D01*
X1160002D01*
X1159169Y977499D01*
Y976666D01*
X1162502D01*
X1157503Y978332D02*
X1155837Y975000D01*
X1154171Y978332D01*
X1149173Y975000D02*
X1152505D01*
X1149173Y978332D01*
Y979165D01*
X1150006Y979998D01*
X1151672D01*
X1152505Y979165D01*
X1147507Y975000D02*
Y975833D01*
X1146673D01*
Y975000D01*
X1147507D01*
X1143341Y979165D02*
X1142508Y979998D01*
X1140842D01*
X1140009Y979165D01*
Y975833D01*
X1140842Y975000D01*
X1142508D01*
X1143341Y975833D01*
Y979165D01*
X1138343Y975000D02*
X1136677D01*
X1137510D01*
Y979998D01*
X1138343Y979165D01*
X1062500Y962498D02*
Y957500D01*
X1060001D01*
X1059168Y958333D01*
Y959166D01*
X1060001Y959999D01*
X1062500D01*
X1060001D01*
X1059168Y960832D01*
Y961665D01*
X1060001Y962498D01*
X1062500D01*
X1057502Y957500D02*
Y962498D01*
X1055002D01*
X1054169Y961665D01*
Y959999D01*
X1055002Y959166D01*
X1057502D01*
X1055836D02*
X1054169Y957500D01*
X1052503Y962498D02*
X1050837D01*
X1051670D01*
Y957500D01*
X1052503D01*
X1050837D01*
X1048338D02*
Y960832D01*
X1046672Y962498D01*
X1045006Y960832D01*
Y957500D01*
Y959999D01*
X1048338D01*
X1043340Y957500D02*
Y962498D01*
X1040007Y957500D01*
Y962498D01*
X1030011Y961665D02*
X1030844Y962498D01*
X1032510D01*
X1033343Y961665D01*
Y958333D01*
X1032510Y957500D01*
X1030844D01*
X1030011Y958333D01*
X1025845Y962498D02*
X1027511D01*
X1028344Y961665D01*
Y958333D01*
X1027511Y957500D01*
X1025845D01*
X1025012Y958333D01*
Y961665D01*
X1025845Y962498D01*
X1023346D02*
X1020014Y957500D01*
Y962498D02*
X1023346Y957500D01*
X1006668Y960832D02*
X1009167D01*
X1010000Y959999D01*
Y958333D01*
X1009167Y957500D01*
X1006668D01*
X996671D02*
X1000003D01*
X996671Y960832D01*
Y961665D01*
X997504Y962498D01*
X999170D01*
X1000003Y961665D01*
X995005D02*
X994172Y962498D01*
X992506D01*
X991673Y961665D01*
Y958333D01*
X992506Y957500D01*
X994172D01*
X995005Y958333D01*
Y961665D01*
X986674Y957500D02*
X990007D01*
X986674Y960832D01*
Y961665D01*
X987507Y962498D01*
X989173D01*
X990007Y961665D01*
X981676Y957500D02*
X985008D01*
X981676Y960832D01*
Y961665D01*
X982509Y962498D01*
X984175D01*
X985008Y961665D01*
D26*
X1196001Y995998D02*
X1200000D01*
Y990000D01*
X1196001D01*
X1200000Y992999D02*
X1198001D01*
X1194002Y995998D02*
X1192003D01*
X1193002D01*
Y990000D01*
X1194002D01*
X1192003D01*
X1185005Y994998D02*
X1186005Y995998D01*
X1188004D01*
X1189004Y994998D01*
Y991000D01*
X1188004Y990000D01*
X1186005D01*
X1185005Y991000D01*
Y992999D01*
X1187004D01*
X1183006Y995998D02*
Y990000D01*
Y992999D01*
X1179007D01*
Y995998D01*
Y990000D01*
X1177007Y995998D02*
X1173009D01*
X1175008D01*
Y990000D01*
X1165011Y995998D02*
Y990000D01*
X1162012D01*
X1161013Y991000D01*
Y991999D01*
X1162012Y992999D01*
X1165011D01*
X1162012D01*
X1161013Y993999D01*
Y994998D01*
X1162012Y995998D01*
X1165011D01*
X1159013Y990000D02*
Y993999D01*
X1157014Y995998D01*
X1155015Y993999D01*
Y990000D01*
Y992999D01*
X1159013D01*
X1153015Y995998D02*
Y990000D01*
X1149016D01*
X1147017Y995998D02*
Y990000D01*
X1143018D01*
X1206001Y980998D02*
X1210000D01*
Y977999D01*
X1208001Y978999D01*
X1207001D01*
X1206001Y977999D01*
Y976000D01*
X1207001Y975000D01*
X1209000D01*
X1210000Y976000D01*
X1204002Y979998D02*
X1203002Y980998D01*
X1201003D01*
X1200003Y979998D01*
Y976000D01*
X1201003Y975000D01*
X1203002D01*
X1204002Y976000D01*
Y979998D01*
X1194005Y980998D02*
X1198004D01*
Y977999D01*
X1196004Y978999D01*
X1195005D01*
X1194005Y977999D01*
Y976000D01*
X1195005Y975000D01*
X1197004D01*
X1198004Y976000D01*
X1192006Y975000D02*
X1190007D01*
X1191006D01*
Y980998D01*
X1192006Y979998D01*
X1187007Y976000D02*
X1186008Y975000D01*
X1184008D01*
X1183009Y976000D01*
Y979998D01*
X1184008Y980998D01*
X1186008D01*
X1187007Y979998D01*
Y978999D01*
X1186008Y977999D01*
X1183009D01*
X1177011Y975000D02*
X1181009D01*
X1177011Y978999D01*
Y979998D01*
X1178010Y980998D01*
X1180010D01*
X1181009Y979998D01*
D27*
X1056251Y909493D02*
X1060000Y903000D01*
X1056753Y901126D01*
X1055046Y901583D01*
X1052547Y905912D01*
X1053005Y907619D01*
X1056251Y909493D01*
X1046512Y903870D02*
X1048676Y905120D01*
X1050383Y904662D01*
X1052882Y900333D01*
X1052425Y898626D01*
X1050260Y897377D01*
X1048553Y897834D01*
X1046054Y902163D01*
X1046512Y903870D01*
X1078251Y885493D02*
X1080750Y881164D01*
X1079836Y877750D01*
X1076422Y878665D01*
X1073923Y882994D01*
X1068054Y878163D02*
X1068512Y879870D01*
X1070676Y881120D01*
X1072383Y880662D01*
X1074882Y876333D01*
X1074425Y874626D01*
X1072260Y873377D01*
X1070553Y873834D01*
X1061561Y874414D02*
X1062018Y876121D01*
X1064183Y877371D01*
X1065890Y876913D01*
X1068389Y872585D01*
X1067932Y870878D01*
X1065767Y869628D01*
X1064060Y870085D01*
X1066047Y895912D02*
X1066505Y897619D01*
X1068669Y898868D01*
X1070376Y898411D01*
X1072875Y894082D01*
X1072418Y892375D01*
X1070253Y891126D01*
X1068546Y891583D01*
X1067297Y893747D01*
X1069461Y894997D01*
X1067007Y889251D02*
X1063258Y895744D01*
X1062678Y886752D01*
X1058929Y893245D01*
X1056765Y891996D02*
X1060514Y885502D01*
X1057267Y883628D01*
X1055560Y884085D01*
X1053061Y888414D01*
X1053518Y890121D01*
X1056765Y891996D01*
X1078751Y867993D02*
X1082500Y861500D01*
X1079253Y859626D01*
X1077547Y860083D01*
X1075047Y864412D01*
X1075505Y866119D01*
X1078751Y867993D01*
X1072258Y864244D02*
X1070094Y862995D01*
X1071176Y863620D01*
X1074925Y857126D01*
X1076007Y857751D01*
X1073843Y856502D01*
X1117251Y862507D02*
X1121000Y869000D01*
X1124247Y867126D01*
X1124704Y865419D01*
X1122205Y861090D01*
X1120498Y860633D01*
X1117251Y862507D01*
X1126991Y856884D02*
X1124827Y858133D01*
X1124369Y859840D01*
X1126868Y864169D01*
X1128575Y864626D01*
X1130740Y863377D01*
X1131197Y861670D01*
X1128698Y857341D01*
X1126991Y856884D01*
X1125751Y893507D02*
X1128250Y897836D01*
X1131664Y898750D01*
X1132579Y895336D01*
X1130080Y891008D01*
X1137198Y888341D02*
X1135491Y887884D01*
X1133327Y889133D01*
X1132869Y890840D01*
X1135368Y895169D01*
X1137075Y895626D01*
X1139240Y894377D01*
X1139697Y892670D01*
X1143691Y884592D02*
X1141984Y884135D01*
X1139820Y885384D01*
X1139362Y887092D01*
X1141861Y891420D01*
X1143568Y891878D01*
X1145733Y890628D01*
X1146190Y888921D01*
X1122205Y878590D02*
X1120498Y878133D01*
X1118333Y879382D01*
X1117876Y881089D01*
X1120375Y885418D01*
X1122082Y885875D01*
X1124247Y884626D01*
X1124704Y882919D01*
X1123454Y880754D01*
X1121290Y882004D01*
X1127493Y882751D02*
X1123744Y876258D01*
X1131822Y880252D01*
X1128073Y873759D01*
X1130237Y872509D02*
X1133986Y879002D01*
X1137233Y877128D01*
X1137690Y875421D01*
X1135191Y871092D01*
X1133484Y870635D01*
X1130237Y872509D01*
X1141251Y903007D02*
X1145000Y909500D01*
X1148247Y907626D01*
X1148704Y905919D01*
X1146205Y901590D01*
X1144498Y901132D01*
X1141251Y903007D01*
X1147744Y899258D02*
X1149909Y898009D01*
X1148827Y898633D01*
X1152575Y905126D01*
X1151493Y905751D01*
X1153658Y904502D01*
X1079998Y941000D02*
X1072500D01*
Y944749D01*
X1073750Y945998D01*
X1078748D01*
X1079998Y944749D01*
Y941000D01*
Y948498D02*
Y950997D01*
Y949747D01*
X1072500D01*
Y948498D01*
Y950997D01*
X1110248Y936498D02*
X1111498Y935249D01*
Y932750D01*
X1110248Y931500D01*
X1105250D01*
X1104000Y932750D01*
Y935249D01*
X1105250Y936498D01*
X1107749D01*
Y933999D01*
X1104000Y938998D02*
X1111498D01*
X1104000Y943996D01*
X1111498D01*
Y946495D02*
X1104000D01*
Y950244D01*
X1105250Y951493D01*
X1110248D01*
X1111498Y950244D01*
Y946495D01*
X1095998Y931500D02*
X1090999D01*
X1088500Y933999D01*
X1090999Y936498D01*
X1095998D01*
X1094748Y943996D02*
X1095998Y942746D01*
Y940247D01*
X1094748Y938998D01*
X1089750D01*
X1088500Y940247D01*
Y942746D01*
X1089750Y943996D01*
X1094748Y951493D02*
X1095998Y950244D01*
Y947745D01*
X1094748Y946495D01*
X1089750D01*
X1088500Y947745D01*
Y950244D01*
X1089750Y951493D01*
X1127498Y939000D02*
X1120000D01*
Y942749D01*
X1121250Y943998D01*
X1126248D01*
X1127498Y942749D01*
Y939000D01*
Y950246D02*
Y947747D01*
X1126248Y946498D01*
X1121250D01*
X1120000Y947747D01*
Y950246D01*
X1121250Y951496D01*
X1126248D01*
X1127498Y950246D01*
M02*
