M48
;Layer_Color=8847372
;FILE_FORMAT=2:5
INCH,TZ
;TYPE=PLATED
T1F00S00C0.02100
T2F00S00C0.12500
%
T01
X1102500Y767500
X1106890Y786402
X1132500Y795000
X1100000Y820000
X1117500Y845000
X1141752Y852724
X1149626Y866362
X1157500Y880000
X1165374Y893638
X1167500Y925000
X1155000Y922500
X1100000
Y900000
X1117500Y882500
X1207500Y917500
Y932500
X1072500Y885000
X1042126Y878638
X1034252Y892276
X1050000Y865000
X1057874Y851362
X1062500Y822500
X1070000Y810000
Y792500
X1090000Y785000
Y857500
X1010000Y927500
X1017500Y950000
X985000
X975000Y937500
Y972500
X1007500Y982500
X1022500Y990000
X1057500Y992500
X1052500Y965000
X1076004Y965394
X1091752
X1107500
X1123248
X1152500Y972500
X1170000Y957500
X1195000Y940000
X1205000Y982500
X1230000Y962500
X1100000Y942500
T02
X1100000Y873000
X1126500Y919000
X1073000Y919500
M30
