%FSLAX25Y25*%
%MOIN*%
G70*
G01*
G75*
G04 Layer_Color=65535*
%ADD10P,0.08352X4X369.0*%
%ADD11P,0.08352X4X81.0*%
%ADD12P,0.08352X4X153.0*%
%ADD13R,0.05906X0.05906*%
%ADD14P,0.08352X4X117.0*%
%ADD15R,0.05906X0.05906*%
%ADD16C,0.02500*%
%ADD17C,0.05000*%
%ADD18C,0.16500*%
%ADD19C,0.04000*%
%ADD20R,0.08000X0.05000*%
%ADD21R,0.05000X0.08000*%
%ADD22R,0.12205X0.17716*%
G04:AMPARAMS|DCode=23|XSize=122.05mil|YSize=177.16mil|CornerRadius=0mil|HoleSize=0mil|Usage=FLASHONLY|Rotation=240.000|XOffset=0mil|YOffset=0mil|HoleType=Round|Shape=Rectangle|*
%AMROTATEDRECTD23*
4,1,4,-0.04620,0.09714,0.10723,0.00856,0.04620,-0.09714,-0.10723,-0.00856,-0.04620,0.09714,0.0*
%
%ADD23ROTATEDRECTD23*%

G04:AMPARAMS|DCode=24|XSize=122.05mil|YSize=177.16mil|CornerRadius=0mil|HoleSize=0mil|Usage=FLASHONLY|Rotation=120.000|XOffset=0mil|YOffset=0mil|HoleType=Round|Shape=Rectangle|*
%AMROTATEDRECTD24*
4,1,4,0.10723,-0.00856,-0.04620,-0.09714,-0.10723,0.00856,0.04620,0.09714,0.10723,-0.00856,0.0*
%
%ADD24ROTATEDRECTD24*%

%ADD25C,0.01000*%
%ADD26C,0.01200*%
D25*
X1230801Y929054D02*
G03*
X1187500Y1004054I-43301J25000D01*
G01*
X1012500D02*
G03*
X969199Y929054I0J-50000D01*
G01*
X1056699Y777500D02*
G03*
X1143301Y777500I43301J25000D01*
G01*
X1112000Y873000D02*
G03*
X1112000Y873000I-12000J0D01*
G01*
X1138500Y919000D02*
G03*
X1138500Y919000I-12000J0D01*
G01*
X1085000Y919500D02*
G03*
X1085000Y919500I-12000J0D01*
G01*
X1038800Y963952D02*
G03*
X1038800Y963952I-984J0D01*
G01*
X1012057Y981308D02*
G03*
X1012057Y981308I-984J0D01*
G01*
X986911Y960974D02*
G03*
X986911Y960974I-984J0D01*
G01*
X998720Y930874D02*
G03*
X998720Y930874I-984J0D01*
G01*
Y961874D02*
G03*
X998720Y961874I-984J0D01*
G01*
X1055035Y956108D02*
G03*
X1055035Y956108I-984J0D01*
G01*
X1156058Y928026D02*
G03*
X1156058Y928026I-984J0D01*
G01*
X1153912Y976692D02*
G03*
X1153912Y976692I-984J0D01*
G01*
X1199668Y994048D02*
G03*
X1199668Y994048I-984J0D01*
G01*
X1230035Y956108D02*
G03*
X1230035Y956108I-984J0D01*
G01*
X1203248Y946126D02*
G03*
X1203248Y946126I-984J0D01*
G01*
Y914626D02*
G03*
X1203248Y914626I-984J0D01*
G01*
X1111668Y842548D02*
G03*
X1111668Y842548I-984J0D01*
G01*
X1142035Y804608D02*
G03*
X1142035Y804608I-984J0D01*
G01*
X1115748Y763126D02*
G03*
X1115748Y763126I-984J0D01*
G01*
X1069058Y776526D02*
G03*
X1069058Y776526I-984J0D01*
G01*
X1066412Y825192D02*
G03*
X1066412Y825192I-984J0D01*
G01*
X1108858Y817264D02*
G03*
X1108858Y817264I-984J0D01*
G01*
X1012500Y1004054D02*
X1187500D01*
X969199Y929054D02*
X1056699Y777500D01*
X1143301D02*
X1230801Y929054D01*
X1026307Y969880D02*
X1037306Y971622D01*
X1031508Y990434D02*
X1041063Y983492D01*
X1019937Y974508D02*
X1029492Y967566D01*
X1021380Y983193D02*
X1023694Y986378D01*
X1037306Y971622D02*
X1039620Y974807D01*
X1001878Y972194D02*
X1003620Y983193D01*
X983937Y983492D02*
X993492Y990434D01*
X995508Y967566D02*
X1005063Y974508D01*
X985380Y974807D02*
X987694Y971622D01*
X1001306Y986378D02*
X1003620Y983193D01*
X981831Y954469D02*
X991753Y949414D01*
X971814Y947075D02*
X975464Y935842D01*
X990536Y953158D02*
X994186Y941925D01*
X984169Y934531D02*
X987914Y935748D01*
X978086Y953253D02*
X981831Y954469D01*
X1002658Y924969D02*
X1010532Y932843D01*
X1006594Y913157D02*
X1018406D01*
X1006594Y932843D02*
X1018406D01*
X1022342Y921031D02*
Y924969D01*
X1002658Y921031D02*
Y924969D01*
Y955968D02*
X1010532Y963842D01*
X1006594Y944158D02*
X1018406D01*
X1006594Y963842D02*
X1018406D01*
X1022342Y952032D02*
Y955968D01*
X1002658Y952032D02*
Y955968D01*
X1046914Y953253D02*
X1051969Y943331D01*
X1030814Y941925D02*
X1034464Y953158D01*
X1049536Y935842D02*
X1053186Y947075D01*
X1037086Y935748D02*
X1040831Y934531D01*
X1043169Y954469D02*
X1046914Y953253D01*
X1149247Y939586D02*
X1159169Y934531D01*
X1165536Y953158D02*
X1169186Y941925D01*
X1146814Y947075D02*
X1150464Y935842D01*
X1153086Y953253D02*
X1156831Y954469D01*
X1159169Y934531D02*
X1162914Y935748D01*
X1160380Y974807D02*
X1162122Y985806D01*
X1170508Y967566D02*
X1180063Y974508D01*
X1158937Y983492D02*
X1168492Y990434D01*
X1176306Y986378D02*
X1178620Y983193D01*
X1160380Y974807D02*
X1162694Y971622D01*
X1199194Y986378D02*
X1210193Y988120D01*
X1195437Y974508D02*
X1204992Y967566D01*
X1207008Y990434D02*
X1216563Y983492D01*
X1212806Y971622D02*
X1215120Y974807D01*
X1196880Y983193D02*
X1199194Y986378D01*
X1221914Y953253D02*
X1226969Y943331D01*
X1205814Y941925D02*
X1209464Y953158D01*
X1224536Y935842D02*
X1228186Y947075D01*
X1212086Y935748D02*
X1215831Y934531D01*
X1218169Y954469D02*
X1221914Y953253D01*
X1189468Y944158D02*
X1197342Y952032D01*
X1181594Y963842D02*
X1193406D01*
X1181594Y944158D02*
X1193406D01*
X1177658Y952032D02*
Y955968D01*
X1197342Y952032D02*
Y955968D01*
X1189468Y912658D02*
X1197342Y920531D01*
X1181594Y932343D02*
X1193406D01*
X1181594Y912658D02*
X1193406D01*
X1177658Y920531D02*
Y924469D01*
X1197342Y920531D02*
Y924469D01*
X1111194Y834878D02*
X1122193Y836620D01*
X1107437Y823008D02*
X1116992Y816066D01*
X1119008Y838934D02*
X1128563Y831992D01*
X1124806Y820122D02*
X1127120Y823307D01*
X1108880Y831693D02*
X1111194Y834878D01*
X1133914Y801752D02*
X1138969Y791831D01*
X1117814Y790425D02*
X1121464Y801658D01*
X1136536Y784342D02*
X1140186Y795575D01*
X1124086Y784247D02*
X1127831Y783031D01*
X1130169Y802969D02*
X1133914Y801752D01*
X1101968Y761158D02*
X1109842Y769031D01*
X1094094Y780842D02*
X1105906D01*
X1094094Y761158D02*
X1105906D01*
X1090158Y769031D02*
Y772968D01*
X1109842Y769031D02*
Y772968D01*
X1062247Y788086D02*
X1072169Y783031D01*
X1078536Y801658D02*
X1082186Y790425D01*
X1059814Y795575D02*
X1063464Y784342D01*
X1066086Y801752D02*
X1069831Y802969D01*
X1072169Y783031D02*
X1075914Y784247D01*
X1072880Y823307D02*
X1074622Y834306D01*
X1083008Y816066D02*
X1092563Y823008D01*
X1071437Y831992D02*
X1080992Y838934D01*
X1088806Y834878D02*
X1091120Y831693D01*
X1072880Y823307D02*
X1075194Y820122D01*
X1101968Y812342D02*
X1109842Y804469D01*
X1090158Y796594D02*
Y808405D01*
X1109842Y796594D02*
Y808405D01*
X1098032Y792658D02*
X1101968D01*
X1098032Y812342D02*
X1101968D01*
X1082502Y798500D02*
X1087500D01*
Y800999D01*
X1086667Y801832D01*
X1083335D01*
X1082502Y800999D01*
Y798500D01*
X1087500Y803498D02*
Y805165D01*
Y804331D01*
X1082502D01*
X1083335Y803498D01*
Y807664D02*
X1082502Y808497D01*
Y810163D01*
X1083335Y810996D01*
X1084168D01*
X1085001Y810163D01*
X1085834Y810996D01*
X1086667D01*
X1087500Y810163D01*
Y808497D01*
X1086667Y807664D01*
X1085834D01*
X1085001Y808497D01*
X1084168Y807664D01*
X1083335D01*
X1085001Y808497D02*
Y810163D01*
X1078000Y851998D02*
Y847000D01*
X1080499D01*
X1081332Y847833D01*
Y851165D01*
X1080499Y851998D01*
X1078000D01*
X1082998Y847000D02*
X1084665D01*
X1083831D01*
Y851998D01*
X1082998Y851165D01*
X1087164Y851998D02*
X1090496D01*
Y851165D01*
X1087164Y847833D01*
Y847000D01*
X1050000Y812498D02*
Y807500D01*
X1052499D01*
X1053332Y808333D01*
Y811665D01*
X1052499Y812498D01*
X1050000D01*
X1054998Y807500D02*
X1056664D01*
X1055831D01*
Y812498D01*
X1054998Y811665D01*
X1062496Y812498D02*
X1060830Y811665D01*
X1059164Y809999D01*
Y808333D01*
X1059997Y807500D01*
X1061663D01*
X1062496Y808333D01*
Y809166D01*
X1061663Y809999D01*
X1059164D01*
X1116245Y775707D02*
Y770709D01*
X1118744D01*
X1119577Y771542D01*
Y774874D01*
X1118744Y775707D01*
X1116245D01*
X1121243Y770709D02*
X1122909D01*
X1122076D01*
Y775707D01*
X1121243Y774874D01*
X1128740Y775707D02*
X1125408D01*
Y773208D01*
X1127074Y774041D01*
X1127907D01*
X1128740Y773208D01*
Y771542D01*
X1127907Y770709D01*
X1126241D01*
X1125408Y771542D01*
X1139500Y814498D02*
Y809500D01*
X1141999D01*
X1142832Y810333D01*
Y813665D01*
X1141999Y814498D01*
X1139500D01*
X1144498Y809500D02*
X1146165D01*
X1145331D01*
Y814498D01*
X1144498Y813665D01*
X1151163Y809500D02*
Y814498D01*
X1148664Y811999D01*
X1151996D01*
X1109000Y852498D02*
Y847500D01*
X1111499D01*
X1112332Y848333D01*
Y851665D01*
X1111499Y852498D01*
X1109000D01*
X1113998Y847500D02*
X1115664D01*
X1114831D01*
Y852498D01*
X1113998Y851665D01*
X1118164D02*
X1118997Y852498D01*
X1120663D01*
X1121496Y851665D01*
Y850832D01*
X1120663Y849999D01*
X1119830D01*
X1120663D01*
X1121496Y849166D01*
Y848333D01*
X1120663Y847500D01*
X1118997D01*
X1118164Y848333D01*
X1163275Y909262D02*
Y904263D01*
X1165775D01*
X1166608Y905096D01*
Y908428D01*
X1165775Y909262D01*
X1163275D01*
X1168274Y904263D02*
X1169940D01*
X1169107D01*
Y909262D01*
X1168274Y908428D01*
X1175771Y904263D02*
X1172439D01*
X1175771Y907595D01*
Y908428D01*
X1174938Y909262D01*
X1173272D01*
X1172439Y908428D01*
X1185000Y972498D02*
Y967500D01*
X1187499D01*
X1188332Y968333D01*
Y971665D01*
X1187499Y972498D01*
X1185000D01*
X1189998Y967500D02*
X1191665D01*
X1190831D01*
Y972498D01*
X1189998Y971665D01*
X1194164Y967500D02*
X1195830D01*
X1194997D01*
Y972498D01*
X1194164Y971665D01*
X1206064Y927857D02*
Y922858D01*
X1208563D01*
X1209396Y923691D01*
Y927024D01*
X1208563Y927857D01*
X1206064D01*
X1211063Y922858D02*
X1212729D01*
X1211896D01*
Y927857D01*
X1211063Y927024D01*
X1215228D02*
X1216061Y927857D01*
X1217727D01*
X1218560Y927024D01*
Y923691D01*
X1217727Y922858D01*
X1216061D01*
X1215228Y923691D01*
Y927024D01*
X1187000Y996998D02*
Y992000D01*
X1189499D01*
X1190332Y992833D01*
Y996165D01*
X1189499Y996998D01*
X1187000D01*
X1191998Y992833D02*
X1192831Y992000D01*
X1194498D01*
X1195331Y992833D01*
Y996165D01*
X1194498Y996998D01*
X1192831D01*
X1191998Y996165D01*
Y995332D01*
X1192831Y994499D01*
X1195331D01*
X1148000Y992498D02*
Y987500D01*
X1150499D01*
X1151332Y988333D01*
Y991665D01*
X1150499Y992498D01*
X1148000D01*
X1152998Y991665D02*
X1153831Y992498D01*
X1155498D01*
X1156331Y991665D01*
Y990832D01*
X1155498Y989999D01*
X1156331Y989166D01*
Y988333D01*
X1155498Y987500D01*
X1153831D01*
X1152998Y988333D01*
Y989166D01*
X1153831Y989999D01*
X1152998Y990832D01*
Y991665D01*
X1153831Y989999D02*
X1155498D01*
X1136500Y939498D02*
Y934500D01*
X1138999D01*
X1139832Y935333D01*
Y938665D01*
X1138999Y939498D01*
X1136500D01*
X1141498D02*
X1144831D01*
Y938665D01*
X1141498Y935333D01*
Y934500D01*
X1057500Y942998D02*
Y938000D01*
X1059999D01*
X1060832Y938833D01*
Y942165D01*
X1059999Y942998D01*
X1057500D01*
X1065831D02*
X1064165Y942165D01*
X1062498Y940499D01*
Y938833D01*
X1063331Y938000D01*
X1064998D01*
X1065831Y938833D01*
Y939666D01*
X1064998Y940499D01*
X1062498D01*
X1009000Y971998D02*
Y967000D01*
X1011499D01*
X1012332Y967833D01*
Y971165D01*
X1011499Y971998D01*
X1009000D01*
X1017331D02*
X1013998D01*
Y969499D01*
X1015664Y970332D01*
X1016498D01*
X1017331Y969499D01*
Y967833D01*
X1016498Y967000D01*
X1014831D01*
X1013998Y967833D01*
X1009500Y908998D02*
Y904000D01*
X1011999D01*
X1012832Y904833D01*
Y908165D01*
X1011999Y908998D01*
X1009500D01*
X1016998Y904000D02*
Y908998D01*
X1014498Y906499D01*
X1017831D01*
X985000Y927498D02*
Y922500D01*
X987499D01*
X988332Y923333D01*
Y926665D01*
X987499Y927498D01*
X985000D01*
X989998Y926665D02*
X990831Y927498D01*
X992498D01*
X993331Y926665D01*
Y925832D01*
X992498Y924999D01*
X991665D01*
X992498D01*
X993331Y924166D01*
Y923333D01*
X992498Y922500D01*
X990831D01*
X989998Y923333D01*
X1007500Y996498D02*
Y991500D01*
X1009999D01*
X1010832Y992333D01*
Y995665D01*
X1009999Y996498D01*
X1007500D01*
X1015831Y991500D02*
X1012498D01*
X1015831Y994832D01*
Y995665D01*
X1014998Y996498D01*
X1013331D01*
X1012498Y995665D01*
X1046000Y990998D02*
Y986000D01*
X1048499D01*
X1049332Y986833D01*
Y990165D01*
X1048499Y990998D01*
X1046000D01*
X1050998Y986000D02*
X1052664D01*
X1051831D01*
Y990998D01*
X1050998Y990165D01*
X1182500Y897500D02*
X1181250Y895336D01*
X1181555Y894198D01*
X1182693Y894503D01*
X1183526Y895945D01*
X1184664Y896250D01*
X1184969Y895112D01*
X1183720Y892948D01*
X1178558Y894004D02*
X1182887Y891505D01*
X1181637Y889341D01*
X1180499Y889036D01*
X1179056Y889869D01*
X1178751Y891007D01*
X1180001Y893171D01*
X1179971Y886455D02*
X1179138Y885012D01*
X1178000Y884707D01*
X1175836Y885957D01*
X1177085Y888121D01*
X1178223Y888426D01*
X1178528Y887288D01*
X1177278Y885124D01*
X1176222Y879962D02*
X1177472Y882126D01*
X1177167Y883264D01*
X1175724Y884097D01*
X1174586Y883792D01*
X1173336Y881628D01*
X1171254Y878021D02*
X1172087Y879464D01*
X1173225Y879769D01*
X1174668Y878936D01*
X1174973Y877798D01*
X1174139Y876355D01*
X1173001Y876050D01*
X1172280Y876466D01*
X1173946Y879352D01*
X1172168Y874607D02*
X1170502Y871721D01*
X1166255Y869363D02*
X1167088Y870806D01*
X1168226Y871111D01*
X1169669Y870278D01*
X1169974Y869140D01*
X1169141Y867697D01*
X1168003Y867392D01*
X1167282Y867809D01*
X1168948Y870695D01*
X1165006Y867199D02*
X1164173Y865756D01*
X1164589Y866477D01*
X1167475Y864811D01*
X1167892Y865533D01*
X1160647Y862982D02*
X1160231Y862260D01*
X1160535Y861122D01*
X1164143Y859040D01*
X1165392Y861204D01*
X1165087Y862342D01*
X1163645Y863175D01*
X1162506Y862870D01*
X1161257Y860706D01*
X1164752Y856764D02*
X1160424Y859263D01*
X1162588Y858013D01*
X1162893Y856875D01*
X1162060Y855432D01*
X1160922Y855128D01*
X1158758Y856377D01*
X1161115Y852130D02*
X1160394Y852547D01*
X1160810Y853268D01*
X1159977Y851825D01*
X1160394Y852547D01*
X1158230Y853796D01*
X1157092Y853491D01*
X1155842Y851327D02*
X1156563Y850910D01*
X1156147Y850189D01*
X1155425Y850605D01*
X1155842Y851327D01*
X1154979Y843168D02*
X1156229Y845332D01*
X1155924Y846470D01*
X1154481Y847303D01*
X1153343Y846998D01*
X1152093Y844834D01*
X1150844Y842669D02*
X1150010Y841227D01*
X1150315Y840089D01*
X1151758Y839256D01*
X1152896Y839560D01*
X1153729Y841003D01*
X1153424Y842141D01*
X1151982Y842974D01*
X1150844Y842669D01*
X1148761Y839062D02*
X1151647Y837396D01*
X1151230Y836675D01*
X1150092Y836370D01*
X1147928Y837619D01*
X1150092Y836370D01*
X1150397Y835232D01*
X1149259Y834927D01*
X1147095Y836176D01*
X1027114Y870834D02*
X1030000Y872500D01*
X1028557Y871667D01*
X1027419Y871972D01*
X1026281Y872277D01*
X1025865Y872998D01*
X1026251Y878993D02*
X1027084Y877550D01*
X1026779Y876412D01*
X1025336Y875579D01*
X1024199Y875884D01*
X1023365Y877327D01*
X1023670Y878465D01*
X1024392Y878881D01*
X1026058Y875996D01*
X1022116Y879491D02*
X1024168Y882600D01*
X1020450Y882377D01*
X1020836Y888372D02*
X1022502Y885486D01*
X1017951Y886706D01*
X1017229Y886289D01*
X1016924Y885151D01*
X1017757Y883708D01*
X1018895Y883403D01*
X1020003Y889815D02*
X1019282Y889398D01*
X1018865Y890120D01*
X1019587Y890536D01*
X1020003Y889815D01*
X1014313Y891339D02*
X1013175Y891644D01*
X1012342Y893087D01*
X1012647Y894225D01*
X1015533Y895891D01*
X1016671Y895586D01*
X1017504Y894144D01*
X1017199Y893006D01*
X1014313Y891339D01*
X1015421Y897751D02*
X1014588Y899194D01*
X1015005Y898472D01*
X1010676Y895973D01*
X1011814Y895668D01*
X1198946Y895384D02*
X1194617Y897883D01*
X1193367Y895719D01*
X1193672Y894581D01*
X1194394Y894164D01*
X1195532Y894469D01*
X1196781Y896634D01*
X1195532Y894469D01*
X1195837Y893331D01*
X1196558Y892915D01*
X1197696Y893219D01*
X1198946Y895384D01*
X1192118Y893554D02*
X1196447Y891055D01*
X1195197Y888891D01*
X1194059Y888586D01*
X1192616Y889419D01*
X1192311Y890557D01*
X1193561Y892721D01*
X1192728Y891278D02*
X1190452Y890668D01*
X1193947Y886726D02*
X1193114Y885283D01*
X1193531Y886005D01*
X1189202Y888504D01*
X1189619Y889226D01*
X1188785Y887783D01*
X1187536Y885618D02*
X1190422Y883952D01*
X1191032Y881676D01*
X1188756Y881066D01*
X1185870Y882732D01*
X1188034Y881483D01*
X1189700Y884369D01*
X1185037Y881290D02*
X1189365Y878790D01*
X1183371Y878404D01*
X1187699Y875905D01*
X1181979Y867664D02*
X1183117Y867969D01*
X1183951Y869411D01*
X1183646Y870549D01*
X1180760Y872216D01*
X1179622Y871911D01*
X1178789Y870468D01*
X1179094Y869330D01*
X1180618Y863640D02*
X1181451Y865083D01*
X1181146Y866221D01*
X1178261Y867887D01*
X1177123Y867582D01*
X1176290Y866139D01*
X1176595Y865001D01*
X1179480Y863335D01*
X1180618Y863640D01*
X1179369Y861475D02*
X1173374Y861089D01*
X1177703Y858590D02*
X1175040Y863975D01*
X1168720Y847948D02*
X1169969Y850112D01*
X1169664Y851250D01*
X1168221Y852083D01*
X1167083Y851779D01*
X1165834Y849614D01*
X1160835Y840957D02*
X1162502Y843843D01*
X1163721Y839291D01*
X1164443Y838874D01*
X1165581Y839179D01*
X1166414Y840622D01*
X1166109Y841760D01*
X1163610Y837431D02*
X1163915Y836293D01*
X1163082Y834850D01*
X1161944Y834545D01*
X1159058Y836211D01*
X1158753Y837350D01*
X1159586Y838792D01*
X1160724Y839097D01*
X1163610Y837431D01*
X1155837Y832299D02*
X1157503Y835185D01*
X1158723Y830633D01*
X1159444Y830217D01*
X1160582Y830522D01*
X1161415Y831964D01*
X1161110Y833102D01*
X1153338Y827971D02*
X1155004Y830856D01*
X1156224Y826304D01*
X1156945Y825888D01*
X1158083Y826193D01*
X1158916Y827636D01*
X1158611Y828774D01*
D26*
X1041505Y820387D02*
X1043171Y817501D01*
X1047500Y820000D01*
X1045834Y822886D01*
X1045336Y818750D02*
X1044503Y820193D01*
X1040672Y821830D02*
X1039839Y823272D01*
X1040256Y822551D01*
X1044584Y825050D01*
X1045001Y824329D01*
X1044168Y825772D01*
X1037645Y828739D02*
X1037340Y827601D01*
X1038173Y826158D01*
X1039311Y825853D01*
X1042197Y827520D01*
X1042502Y828658D01*
X1041669Y830100D01*
X1040531Y830405D01*
X1039088Y829572D01*
X1039921Y828129D01*
X1036090Y829766D02*
X1040419Y832265D01*
X1038255Y831015D01*
X1036588Y833901D01*
X1034424Y832651D01*
X1038753Y835151D01*
X1033591Y834094D02*
X1031925Y836980D01*
X1032758Y835537D01*
X1037087Y838036D01*
X1028593Y842752D02*
X1032921Y845251D01*
X1031672Y847415D01*
X1030534Y847720D01*
X1029812Y847304D01*
X1029507Y846166D01*
X1030757Y844001D01*
X1029507Y846166D01*
X1028369Y846471D01*
X1027648Y846054D01*
X1027343Y844916D01*
X1028593Y842752D01*
X1030422Y849580D02*
X1027536Y847913D01*
X1025260Y848523D01*
X1025870Y850799D01*
X1028756Y852465D01*
X1026592Y851216D01*
X1028258Y848330D01*
X1023594Y851409D02*
X1027923Y853908D01*
X1026257Y856794D01*
X1021095Y855738D02*
X1025424Y858237D01*
X1023758Y861123D01*
X1016097Y864395D02*
X1014431Y867281D01*
X1015264Y865838D01*
X1019592Y868337D01*
X1017926Y871223D02*
X1013597Y868724D01*
X1012348Y870888D01*
X1012653Y872026D01*
X1014096Y872859D01*
X1015234Y872554D01*
X1016483Y870390D01*
X1015650Y871833D02*
X1016260Y874109D01*
X1011098Y873053D02*
X1010265Y874496D01*
X1010682Y873774D01*
X1015011Y876273D01*
X1015427Y875552D01*
X1014594Y876995D01*
X1013344Y879159D02*
X1010459Y877493D01*
X1008183Y878103D01*
X1008792Y880379D01*
X1011678Y882045D01*
X1009514Y880795D01*
X1011180Y877910D01*
X1010845Y883488D02*
X1006516Y880989D01*
X1009179Y886374D01*
X1004850Y883875D01*
X1003073Y888620D02*
X1002768Y887482D01*
X1003601Y886039D01*
X1004739Y885734D01*
X1007625Y887400D01*
X1007930Y888538D01*
X1007096Y889981D01*
X1005958Y890286D01*
X1004515Y889453D01*
X1005349Y888010D01*
X1001518Y889646D02*
X1005847Y892145D01*
X1004181Y895031D01*
X997353Y896861D02*
X999019Y893975D01*
X1003348Y896474D01*
X1001682Y899360D01*
X1001183Y895224D02*
X1000350Y896667D01*
X1045306Y837964D02*
X1047305Y834501D01*
X1049903Y836001D01*
X1048037Y837232D01*
X1047538Y838098D01*
X1047903Y839464D01*
X1049635Y840463D01*
X1051000Y840097D01*
X1052000Y838366D01*
X1051634Y837000D01*
X1045172Y840195D02*
X1043807Y840561D01*
X1042807Y842293D01*
X1043173Y843658D01*
X1046636Y845658D01*
X1048001Y845292D01*
X1049001Y843560D01*
X1048635Y842195D01*
X1045172Y840195D01*
X1039308Y848353D02*
X1041308Y844890D01*
X1043905Y846389D01*
X1042039Y847621D01*
X1041539Y848487D01*
X1041905Y849852D01*
X1043637Y850852D01*
X1045002Y850486D01*
X1046002Y848755D01*
X1045636Y847389D01*
X1043503Y853083D02*
X1042503Y854815D01*
X1043003Y853949D01*
X1037809Y850950D01*
X1039174Y850584D01*
X1040138Y856912D02*
X1040504Y858278D01*
X1039504Y860009D01*
X1038139Y860375D01*
X1034676Y858376D01*
X1034310Y857010D01*
X1035309Y855279D01*
X1036675Y854913D01*
X1037541Y855413D01*
X1037907Y856778D01*
X1036407Y859376D01*
X1036005Y866070D02*
X1038005Y862607D01*
X1032542Y864070D01*
X1031677Y863570D01*
X1031311Y862205D01*
X1032310Y860473D01*
X1033676Y860107D01*
M02*
