%FSLAX25Y25*%
%MOIN*%
G70*
G01*
G75*
G04 Layer_Color=48896*
%ADD10R,0.05000X0.08000*%
%ADD11R,0.05000X0.04000*%
%ADD12R,0.05906X0.05906*%
%ADD13C,0.02500*%
%ADD14C,0.04000*%
%ADD15R,0.12000X0.03000*%
%ADD16C,0.04500*%
%ADD17C,0.01000*%
%ADD18R,0.04000X0.07000*%
%ADD19R,0.04000X0.03000*%
%ADD20R,0.04906X0.04906*%
%ADD21R,0.11000X0.02000*%
%ADD22R,0.05800X0.08800*%
%ADD23R,0.05800X0.04800*%
%ADD24R,0.06706X0.06706*%
%ADD25C,0.04800*%
%ADD26R,0.12800X0.03800*%
D25*
X1129400Y520200D02*
D03*
X1129500Y508200D02*
D03*
X1089700Y514300D02*
D03*
X949700D02*
D03*
X809700D02*
D03*
X669700D02*
D03*
X529700D02*
D03*
X389700D02*
D03*
X249700D02*
D03*
X989500Y508200D02*
D03*
X1015400Y520200D02*
D03*
X849500Y508200D02*
D03*
X875400Y520200D02*
D03*
X709500Y508200D02*
D03*
X735400Y520200D02*
D03*
X569500Y508200D02*
D03*
X595400Y520200D02*
D03*
X429500Y508200D02*
D03*
X455400Y520200D02*
D03*
X289500Y508200D02*
D03*
X315400Y520200D02*
D03*
X1028100Y514300D02*
D03*
X1058300Y508200D02*
D03*
X888100Y514200D02*
D03*
X918300Y508100D02*
D03*
X747400Y514300D02*
D03*
X777600Y508200D02*
D03*
X606700Y514400D02*
D03*
X636900Y508300D02*
D03*
X468000Y514300D02*
D03*
X498200Y508200D02*
D03*
X328100Y514300D02*
D03*
X358300Y508200D02*
D03*
X216300D02*
D03*
X186100Y514300D02*
D03*
X175400Y520200D02*
D03*
X109300Y502300D02*
D03*
X149500Y508200D02*
D03*
X109700Y514300D02*
D03*
D26*
X1131500Y502250D02*
D03*
Y508250D02*
D03*
Y514250D02*
D03*
Y520250D02*
D03*
X107500Y502250D02*
D03*
Y508250D02*
D03*
Y514250D02*
D03*
Y520250D02*
D03*
M02*
