solid OBJECT
  facet normal -0.86083208083874763 0.50888911228167555 0
    outer loop
      vertex 231.22149658203125 930.1943359375 -32
      vertex 227.99003601074219 924.72802734375 -32
      vertex 227.99003601074219 924.72802734375 32
    endloop
  endfacet
  facet normal -0.86083208083874763 0.50888911228167555 0
    outer loop
      vertex 231.22149658203125 930.1943359375 -32
      vertex 227.99003601074219 924.72802734375 32
      vertex 231.22149658203125 930.1943359375 32
    endloop
  endfacet
  facet normal -0.77306373208284418 0.63432835829572087 0
    outer loop
      vertex 227.99003601074219 924.72802734375 -32
      vertex 223.96206665039062 919.819091796875 -32
      vertex 223.96206665039062 919.819091796875 32
    endloop
  endfacet
  facet normal -0.77306373208284418 0.63432835829572087 0
    outer loop
      vertex 227.99003601074219 924.72802734375 -32
      vertex 223.96206665039062 919.819091796875 32
      vertex 227.99003601074219 924.72802734375 32
    endloop
  endfacet
  facet normal -0.67610581952382598 0.7368045336492004 -0
    outer loop
      vertex 223.96206665039062 919.819091796875 -32
      vertex 219.28335571289062 915.52581787109375 -32
      vertex 219.28335571289062 915.52581787109375 32
    endloop
  endfacet
  facet normal -0.67610581952382598 0.7368045336492004 0
    outer loop
      vertex 223.96206665039062 919.819091796875 -32
      vertex 219.28335571289062 915.52581787109375 32
      vertex 223.96206665039062 919.819091796875 32
    endloop
  endfacet
  facet normal -0.5758625070199227 0.81754655708939872 -0
    outer loop
      vertex 219.28335571289062 915.52581787109375 -32
      vertex 214.0919189453125 911.86907958984375 -32
      vertex 214.0919189453125 911.86907958984375 32
    endloop
  endfacet
  facet normal -0.5758625070199227 0.81754655708939872 1.838860913117324e-18
    outer loop
      vertex 219.28335571289062 915.52581787109375 -32
      vertex 214.0919189453125 911.86907958984375 32
      vertex 219.28335571289062 915.52581787109375 32
    endloop
  endfacet
  facet normal -0.47685279174426592 0.87898317105943502 -0
    outer loop
      vertex 214.0919189453125 911.86907958984375 -32
      vertex 208.5103759765625 908.841064453125 -32
      vertex 208.5103759765625 908.841064453125 32
    endloop
  endfacet
  facet normal -0.47685279174426592 0.87898317105943502 0
    outer loop
      vertex 214.0919189453125 911.86907958984375 -32
      vertex 208.5103759765625 908.841064453125 32
      vertex 214.0919189453125 911.86907958984375 32
    endloop
  endfacet
  facet normal -0.38268512733877219 0.92387883042837804 -0
    outer loop
      vertex 208.5103759765625 908.841064453125 -32
      vertex 202.64373779296875 906.4110107421875 -32
      vertex 202.64373779296875 906.4110107421875 32
    endloop
  endfacet
  facet normal -0.38268512733877219 0.92387883042837804 -1.2411335125087575e-18
    outer loop
      vertex 208.5103759765625 908.841064453125 -32
      vertex 202.64373779296875 906.4110107421875 32
      vertex 208.5103759765625 908.841064453125 32
    endloop
  endfacet
  facet normal -0.29620798862267739 0.95512346190223385 -0
    outer loop
      vertex 202.64373779296875 906.4110107421875 -32
      vertex 196.57870483398438 904.53009033203125 -32
      vertex 196.57870483398438 904.53009033203125 32
    endloop
  endfacet
  facet normal -0.29620798862267739 0.95512346190223385 9.6402441598684478e-19
    outer loop
      vertex 202.64373779296875 906.4110107421875 -32
      vertex 196.57870483398438 904.53009033203125 32
      vertex 202.64373779296875 906.4110107421875 32
    endloop
  endfacet
  facet normal -0.21915972734139258 0.97568899446065616 -0
    outer loop
      vertex 196.57870483398438 904.53009033203125 -32
      vertex 190.38308715820312 903.138427734375 -32
      vertex 190.38308715820312 903.138427734375 32
    endloop
  endfacet
  facet normal -0.21915972734139258 0.97568899446065616 1.2358646247938448e-18
    outer loop
      vertex 196.57870483398438 904.53009033203125 -32
      vertex 190.38308715820312 903.138427734375 32
      vertex 196.57870483398438 904.53009033203125 32
    endloop
  endfacet
  facet normal -0.1528184179741639 0.98825428464938825 0
    outer loop
      vertex 190.38308715820312 903.138427734375 -32
      vertex 184.107666015625 902.16802978515625 -32
      vertex 184.107666015625 902.16802978515625 32
    endloop
  endfacet
  facet normal -0.1528184179741639 0.98825428464938825 0
    outer loop
      vertex 190.38308715820312 903.138427734375 -32
      vertex 184.107666015625 902.16802978515625 32
      vertex 190.38308715820312 903.138427734375 32
    endloop
  endfacet
  facet normal -0.098098482379312887 0.9951767118230187 -0
    outer loop
      vertex 184.107666015625 902.16802978515625 -32
      vertex 177.78829956054688 901.54510498046875 -32
      vertex 177.78829956054688 901.54510498046875 32
    endloop
  endfacet
  facet normal -0.098098482379312887 0.9951767118230187 0
    outer loop
      vertex 184.107666015625 902.16802978515625 -32
      vertex 177.78829956054688 901.54510498046875 32
      vertex 184.107666015625 902.16802978515625 32
    endloop
  endfacet
  facet normal -0.055123857245427822 0.99847952425795172 -0
    outer loop
      vertex 177.78829956054688 901.54510498046875 -32
      vertex 171.44795227050781 901.195068359375 -32
      vertex 171.44795227050781 901.195068359375 32
    endloop
  endfacet
  facet normal -0.055123857245427822 0.99847952425795172 0
    outer loop
      vertex 177.78829956054688 901.54510498046875 -32
      vertex 171.44795227050781 901.195068359375 32
      vertex 177.78829956054688 901.54510498046875 32
    endloop
  endfacet
  facet normal -0.024606334481964521 0.99969721831330594 -0
    outer loop
      vertex 171.44795227050781 901.195068359375 -32
      vertex 165.09988403320312 901.038818359375 -32
      vertex 165.09988403320312 901.038818359375 32
    endloop
  endfacet
  facet normal -0.024606334481964521 0.99969721831330605 0
    outer loop
      vertex 171.44795227050781 901.195068359375 -32
      vertex 165.09988403320312 901.038818359375 32
      vertex 171.44795227050781 901.195068359375 32
    endloop
  endfacet
  facet normal -0.0061131248757400119 0.99998131467755624 -0
    outer loop
      vertex 165.09988403320312 901.038818359375 -32
      vertex 158.75 901 -32
      vertex 158.75 901 32
    endloop
  endfacet
  facet normal -0.0061131248757400119 0.99998131467755624 3.2767734088863933e-20
    outer loop
      vertex 165.09988403320312 901.038818359375 -32
      vertex 158.75 901 32
      vertex 165.09988403320312 901.038818359375 32
    endloop
  endfacet
  facet normal -0 1 -0
    outer loop
      vertex 158.75 901 -32
      vertex 152.39999389648438 901 -32
      vertex 152.39999389648438 901 32
    endloop
  endfacet
  facet normal 0 1 0
    outer loop
      vertex 158.75 901 -32
      vertex 152.39999389648438 901 32
      vertex 158.75 901 32
    endloop
  endfacet
  facet normal -1 0 0
    outer loop
      vertex 152.39999389648438 901 -32
      vertex 152.39999389648438 889 -32
      vertex 152.39999389648438 889 32
    endloop
  endfacet
  facet normal -1 -0 0
    outer loop
      vertex 152.39999389648438 901 -32
      vertex 152.39999389648438 889 32
      vertex 152.39999389648438 901 32
    endloop
  endfacet
  facet normal 0 -1 -0
    outer loop
      vertex 152.39999389648438 889 -32
      vertex 259.64895629882812 889 -32
      vertex 259.64895629882812 889 32
    endloop
  endfacet
  facet normal 0 -1 -0
    outer loop
      vertex 152.39999389648438 889 -32
      vertex 259.64895629882812 889 32
      vertex 152.39999389648438 889 32
    endloop
  endfacet
  facet normal 1 0 -0
    outer loop
      vertex 259.64895629882812 889 -32
      vertex 259.64895629882812 937.5513916015625 -32
      vertex 259.64895629882812 937.5513916015625 32
    endloop
  endfacet
  facet normal 1 -0 0
    outer loop
      vertex 259.64895629882812 889 -32
      vertex 259.64895629882812 937.5513916015625 32
      vertex 259.64895629882812 889 32
    endloop
  endfacet
  facet normal 0.18909366360384922 0.9819590553505142 -0
    outer loop
      vertex 259.64895629882812 937.5513916015625 -32
      vertex 234.70719909667969 942.3543701171875 -32
      vertex 234.70719909667969 942.3543701171875 32
    endloop
  endfacet
  facet normal 0.18909366360384922 0.9819590553505142 0
    outer loop
      vertex 259.64895629882812 937.5513916015625 -32
      vertex 234.70719909667969 942.3543701171875 32
      vertex 259.64895629882812 937.5513916015625 32
    endloop
  endfacet
  facet normal -0.98195845879450006 0.18909676147922297 0
    outer loop
      vertex 234.70719909667969 942.3543701171875 -32
      vertex 233.50643920898438 936.11895751953125 -32
      vertex 233.50643920898438 936.11895751953125 32
    endloop
  endfacet
  facet normal -0.98195845879450006 0.18909676147922297 0
    outer loop
      vertex 234.70719909667969 942.3543701171875 -32
      vertex 233.50643920898438 936.11895751953125 32
      vertex 234.70719909667969 942.3543701171875 32
    endloop
  endfacet
  facet normal -0.93301585774775064 0.35983525284667267 0
    outer loop
      vertex 233.50643920898438 936.11895751953125 -32
      vertex 231.22149658203125 930.1943359375 -32
      vertex 231.22149658203125 930.1943359375 32
    endloop
  endfacet
  facet normal -0.93301585774775064 0.35983525284667267 0
    outer loop
      vertex 233.50643920898438 936.11895751953125 -32
      vertex 231.22149658203125 930.1943359375 32
      vertex 233.50643920898438 936.11895751953125 32
    endloop
  endfacet
  facet normal -0 0 -1
    outer loop
      vertex 233.50643920898438 936.11895751953125 -32
      vertex 234.70719909667969 942.3543701171875 -32
      vertex 259.64895629882812 937.5513916015625 -32
    endloop
  endfacet
  facet normal 0 -0 -1
    outer loop
      vertex 259.64895629882812 937.5513916015625 -32
      vertex 227.99003601074219 924.72802734375 -32
      vertex 231.22149658203125 930.1943359375 -32
    endloop
  endfacet
  facet normal -0 0 -1
    outer loop
      vertex 259.64895629882812 937.5513916015625 -32
      vertex 231.22149658203125 930.1943359375 -32
      vertex 233.50643920898438 936.11895751953125 -32
    endloop
  endfacet
  facet normal -0 -0 -1
    outer loop
      vertex 259.64895629882812 889 -32
      vertex 227.99003601074219 924.72802734375 -32
      vertex 259.64895629882812 937.5513916015625 -32
    endloop
  endfacet
  facet normal 0 0 -1
    outer loop
      vertex 219.28335571289062 915.52581787109375 -32
      vertex 223.96206665039062 919.819091796875 -32
      vertex 259.64895629882812 889 -32
    endloop
  endfacet
  facet normal 0 0 -1
    outer loop
      vertex 227.99003601074219 924.72802734375 -32
      vertex 259.64895629882812 889 -32
      vertex 223.96206665039062 919.819091796875 -32
    endloop
  endfacet
  facet normal 0 0 -1
    outer loop
      vertex 259.64895629882812 889 -32
      vertex 208.5103759765625 908.841064453125 -32
      vertex 214.0919189453125 911.86907958984375 -32
    endloop
  endfacet
  facet normal -0 -0 -1
    outer loop
      vertex 259.64895629882812 889 -32
      vertex 214.0919189453125 911.86907958984375 -32
      vertex 219.28335571289062 915.52581787109375 -32
    endloop
  endfacet
  facet normal 0 0 -1
    outer loop
      vertex 202.64373779296875 906.4110107421875 -32
      vertex 208.5103759765625 908.841064453125 -32
      vertex 259.64895629882812 889 -32
    endloop
  endfacet
  facet normal -0 -0 -1
    outer loop
      vertex 196.57870483398438 904.53009033203125 -32
      vertex 259.64895629882812 889 -32
      vertex 190.38308715820312 903.138427734375 -32
    endloop
  endfacet
  facet normal 0 -0 -1
    outer loop
      vertex 152.39999389648438 889 -32
      vertex 177.78829956054688 901.54510498046875 -32
      vertex 184.107666015625 902.16802978515625 -32
    endloop
  endfacet
  facet normal -0 0 -1
    outer loop
      vertex 152.39999389648438 889 -32
      vertex 184.107666015625 902.16802978515625 -32
      vertex 190.38308715820312 903.138427734375 -32
    endloop
  endfacet
  facet normal -0 -0 -1
    outer loop
      vertex 259.64895629882812 889 -32
      vertex 152.39999389648438 889 -32
      vertex 190.38308715820312 903.138427734375 -32
    endloop
  endfacet
  facet normal 0 -0 -1
    outer loop
      vertex 152.39999389648438 889 -32
      vertex 165.09988403320312 901.038818359375 -32
      vertex 171.44795227050781 901.195068359375 -32
    endloop
  endfacet
  facet normal -0 0 -1
    outer loop
      vertex 152.39999389648438 889 -32
      vertex 152.39999389648438 901 -32
      vertex 158.75 901 -32
    endloop
  endfacet
  facet normal -0 0 -1
    outer loop
      vertex 165.09988403320312 901.038818359375 -32
      vertex 152.39999389648438 889 -32
      vertex 158.75 901 -32
    endloop
  endfacet
  facet normal 0 -0 -1
    outer loop
      vertex 177.78829956054688 901.54510498046875 -32
      vertex 152.39999389648438 889 -32
      vertex 171.44795227050781 901.195068359375 -32
    endloop
  endfacet
  facet normal -0 -0 -1
    outer loop
      vertex 202.64373779296875 906.4110107421875 -32
      vertex 259.64895629882812 889 -32
      vertex 196.57870483398438 904.53009033203125 -32
    endloop
  endfacet
  facet normal -0 0 1
    outer loop
      vertex 233.50643920898438 936.11895751953125 32
      vertex 259.64895629882812 937.5513916015625 32
      vertex 234.70719909667969 942.3543701171875 32
    endloop
  endfacet
  facet normal 0 -0 1
    outer loop
      vertex 259.64895629882812 937.5513916015625 32
      vertex 231.22149658203125 930.1943359375 32
      vertex 227.99003601074219 924.72802734375 32
    endloop
  endfacet
  facet normal -0 0 1
    outer loop
      vertex 259.64895629882812 937.5513916015625 32
      vertex 233.50643920898438 936.11895751953125 32
      vertex 231.22149658203125 930.1943359375 32
    endloop
  endfacet
  facet normal -0 -0 1
    outer loop
      vertex 259.64895629882812 889 32
      vertex 259.64895629882812 937.5513916015625 32
      vertex 227.99003601074219 924.72802734375 32
    endloop
  endfacet
  facet normal 0 0 1
    outer loop
      vertex 219.28335571289062 915.52581787109375 32
      vertex 259.64895629882812 889 32
      vertex 223.96206665039062 919.819091796875 32
    endloop
  endfacet
  facet normal 0 0 1
    outer loop
      vertex 227.99003601074219 924.72802734375 32
      vertex 223.96206665039062 919.819091796875 32
      vertex 259.64895629882812 889 32
    endloop
  endfacet
  facet normal 0 0 1
    outer loop
      vertex 259.64895629882812 889 32
      vertex 214.0919189453125 911.86907958984375 32
      vertex 208.5103759765625 908.841064453125 32
    endloop
  endfacet
  facet normal -0 -0 1
    outer loop
      vertex 259.64895629882812 889 32
      vertex 219.28335571289062 915.52581787109375 32
      vertex 214.0919189453125 911.86907958984375 32
    endloop
  endfacet
  facet normal 0 0 1
    outer loop
      vertex 202.64373779296875 906.4110107421875 32
      vertex 259.64895629882812 889 32
      vertex 208.5103759765625 908.841064453125 32
    endloop
  endfacet
  facet normal -0 -0 1
    outer loop
      vertex 196.57870483398438 904.53009033203125 32
      vertex 190.38308715820312 903.138427734375 32
      vertex 259.64895629882812 889 32
    endloop
  endfacet
  facet normal 0 -0 1
    outer loop
      vertex 152.39999389648438 889 32
      vertex 184.107666015625 902.16802978515625 32
      vertex 177.78829956054688 901.54510498046875 32
    endloop
  endfacet
  facet normal -0 0 1
    outer loop
      vertex 152.39999389648438 889 32
      vertex 190.38308715820312 903.138427734375 32
      vertex 184.107666015625 902.16802978515625 32
    endloop
  endfacet
  facet normal -0 -0 1
    outer loop
      vertex 259.64895629882812 889 32
      vertex 190.38308715820312 903.138427734375 32
      vertex 152.39999389648438 889 32
    endloop
  endfacet
  facet normal 0 -0 1
    outer loop
      vertex 152.39999389648438 889 32
      vertex 171.44795227050781 901.195068359375 32
      vertex 165.09988403320312 901.038818359375 32
    endloop
  endfacet
  facet normal -0 0 1
    outer loop
      vertex 152.39999389648438 889 32
      vertex 158.75 901 32
      vertex 152.39999389648438 901 32
    endloop
  endfacet
  facet normal -0 0 1
    outer loop
      vertex 165.09988403320312 901.038818359375 32
      vertex 158.75 901 32
      vertex 152.39999389648438 889 32
    endloop
  endfacet
  facet normal 0 -0 1
    outer loop
      vertex 177.78829956054688 901.54510498046875 32
      vertex 171.44795227050781 901.195068359375 32
      vertex 152.39999389648438 889 32
    endloop
  endfacet
  facet normal -0 -0 1
    outer loop
      vertex 202.64373779296875 906.4110107421875 32
      vertex 196.57870483398438 904.53009033203125 32
      vertex 259.64895629882812 889 32
    endloop
  endfacet
endsolid OBJECT
