%FSLAX25Y25*%
%MOIN*%
G70*
G01*
G75*
G04 Layer_Color=65535*
%ADD10R,0.05906X0.05906*%
%ADD11R,0.05906X0.05906*%
%ADD12P,0.08352X4X337.5*%
%ADD13P,0.08352X4X382.5*%
%ADD14P,0.08352X4X67.5*%
%ADD15P,0.08352X4X112.5*%
%ADD16C,0.02500*%
%ADD17C,0.04000*%
%ADD18R,0.05000X0.08000*%
%ADD19R,0.12205X0.17716*%
%ADD20C,0.05000*%
%ADD21C,0.01000*%
D21*
X1162500Y800000D02*
G03*
X1162500Y800000I-62500J0D01*
G01*
X1093110Y785236D02*
G03*
X1093110Y785236I-984J0D01*
G01*
X1115748Y765626D02*
G03*
X1115748Y765626I-984J0D01*
G01*
X1135358Y814764D02*
G03*
X1135358Y814764I-984J0D01*
G01*
X1086220Y834374D02*
G03*
X1086220Y834374I-984J0D01*
G01*
X1067110Y785236D02*
G03*
X1067110Y785236I-984J0D01*
G01*
X1053360Y764347D02*
G03*
X1053360Y764347I-984J0D01*
G01*
X1092611Y741076D02*
G03*
X1092611Y741076I-984J0D01*
G01*
X1136637Y752375D02*
G03*
X1136637Y752375I-984J0D01*
G01*
X1160409Y791627D02*
G03*
X1160409Y791627I-984J0D01*
G01*
X1149109Y835653D02*
G03*
X1149109Y835653I-984J0D01*
G01*
X1109358Y858924D02*
G03*
X1109358Y858924I-984J0D01*
G01*
X1064831Y847625D02*
G03*
X1064831Y847625I-984J0D01*
G01*
X1042060Y808373D02*
G03*
X1042060Y808373I-984J0D01*
G01*
X1098032Y790158D02*
X1101968D01*
X1098032Y809842D02*
X1101968D01*
X1090158Y805906D02*
X1090158Y794095D01*
X1109842Y794095D02*
Y805906D01*
X1090158Y798032D02*
X1098032Y790158D01*
X1109842Y771531D02*
Y775468D01*
X1090158Y771531D02*
Y775468D01*
X1094094Y763658D02*
X1105906D01*
X1094094Y783343D02*
X1105906D01*
X1101968Y763658D02*
X1109842Y771531D01*
X1124531Y809842D02*
X1128469D01*
X1124531Y790158D02*
X1128469D01*
X1136343Y794095D02*
Y805906D01*
X1116658Y794095D02*
Y805906D01*
X1128469Y809842D02*
X1136343Y801968D01*
X1090158Y824531D02*
Y828469D01*
X1109842Y824531D02*
Y828469D01*
X1094094Y836343D02*
X1105906D01*
X1094094Y816658D02*
X1105906D01*
X1090158Y828469D02*
X1098032Y836343D01*
X1072031Y790158D02*
X1075968D01*
X1072031Y809842D02*
X1075968D01*
X1064157Y805906D02*
X1064157Y794095D01*
X1083842Y794095D02*
Y805906D01*
X1064157Y798032D02*
X1072031Y790158D01*
X1055948Y771153D02*
X1059585Y772660D01*
X1048415Y789340D02*
X1052052Y790847D01*
X1042647Y782689D02*
X1047167Y771777D01*
X1060833Y790223D02*
X1065353Y779311D01*
X1045660Y775415D02*
X1055948Y771153D01*
X1089340Y748415D02*
X1090847Y752052D01*
X1071153Y755948D02*
X1072660Y759585D01*
X1071777Y747167D02*
X1082689Y742647D01*
X1079311Y765353D02*
X1090223Y760833D01*
X1079052Y744153D02*
X1089340Y748415D01*
X1127340Y759585D02*
X1128847Y755948D01*
X1109153Y752052D02*
X1110660Y748415D01*
X1117311Y742647D02*
X1128223Y747167D01*
X1109777Y760833D02*
X1120689Y765353D01*
X1124585Y745660D02*
X1128847Y755948D01*
X1148448Y790847D02*
X1152085Y789340D01*
X1140915Y772660D02*
X1144552Y771153D01*
X1153333Y771777D02*
X1157853Y782689D01*
X1135147Y779311D02*
X1139667Y790223D01*
X1152085Y789340D02*
X1156347Y779052D01*
X1140915Y827340D02*
X1144552Y828847D01*
X1148448Y809153D02*
X1152085Y810660D01*
X1153333Y828223D02*
X1157853Y817311D01*
X1135147Y820689D02*
X1139667Y809778D01*
X1144552Y828847D02*
X1154840Y824585D01*
X1109153Y847948D02*
X1110660Y851585D01*
X1127340Y840415D02*
X1128847Y844052D01*
X1117311Y857353D02*
X1128223Y852833D01*
X1109777Y839167D02*
X1120689Y834647D01*
X1110660Y851585D02*
X1120948Y855847D01*
X1070653Y844052D02*
X1072160Y840415D01*
X1088840Y851585D02*
X1090347Y847948D01*
X1071277Y852833D02*
X1082189Y857353D01*
X1078811Y834647D02*
X1089723Y839167D01*
X1070653Y844052D02*
X1074915Y854340D01*
X1048415Y810660D02*
X1052052Y809153D01*
X1055948Y828847D02*
X1059585Y827340D01*
X1042647Y817311D02*
X1047167Y828223D01*
X1060833Y809777D02*
X1065353Y820689D01*
X1044153Y820948D02*
X1048415Y810660D01*
X1042500Y804998D02*
Y800000D01*
X1044999D01*
X1045832Y800833D01*
Y804165D01*
X1044999Y804998D01*
X1042500D01*
X1047498Y800000D02*
X1049164D01*
X1048331D01*
Y804998D01*
X1047498Y804165D01*
X1057500Y839998D02*
Y835000D01*
X1059999D01*
X1060832Y835833D01*
Y839165D01*
X1059999Y839998D01*
X1057500D01*
X1065831Y835000D02*
X1062498D01*
X1065831Y838332D01*
Y839165D01*
X1064998Y839998D01*
X1063331D01*
X1062498Y839165D01*
X1097500Y857498D02*
Y852500D01*
X1099999D01*
X1100832Y853333D01*
Y856665D01*
X1099999Y857498D01*
X1097500D01*
X1102498Y856665D02*
X1103331Y857498D01*
X1104998D01*
X1105831Y856665D01*
Y855832D01*
X1104998Y854999D01*
X1104165D01*
X1104998D01*
X1105831Y854166D01*
Y853333D01*
X1104998Y852500D01*
X1103331D01*
X1102498Y853333D01*
X1135000Y839998D02*
Y835000D01*
X1137499D01*
X1138332Y835833D01*
Y839165D01*
X1137499Y839998D01*
X1135000D01*
X1142498Y835000D02*
Y839998D01*
X1139998Y837499D01*
X1143331D01*
X1150000Y802498D02*
Y797500D01*
X1152499D01*
X1153332Y798333D01*
Y801665D01*
X1152499Y802498D01*
X1150000D01*
X1158331D02*
X1154998D01*
Y799999D01*
X1156664Y800832D01*
X1157498D01*
X1158331Y799999D01*
Y798333D01*
X1157498Y797500D01*
X1155831D01*
X1154998Y798333D01*
X1135000Y764998D02*
Y760000D01*
X1137499D01*
X1138332Y760833D01*
Y764165D01*
X1137499Y764998D01*
X1135000D01*
X1143331D02*
X1141665Y764165D01*
X1139998Y762499D01*
Y760833D01*
X1140831Y760000D01*
X1142498D01*
X1143331Y760833D01*
Y761666D01*
X1142498Y762499D01*
X1139998D01*
X1095000Y747498D02*
Y742500D01*
X1097499D01*
X1098332Y743333D01*
Y746665D01*
X1097499Y747498D01*
X1095000D01*
X1099998D02*
X1103331D01*
Y746665D01*
X1099998Y743333D01*
Y742500D01*
X1057500Y764998D02*
Y760000D01*
X1059999D01*
X1060832Y760833D01*
Y764165D01*
X1059999Y764998D01*
X1057500D01*
X1062498Y764165D02*
X1063331Y764998D01*
X1064998D01*
X1065831Y764165D01*
Y763332D01*
X1064998Y762499D01*
X1065831Y761666D01*
Y760833D01*
X1064998Y760000D01*
X1063331D01*
X1062498Y760833D01*
Y761666D01*
X1063331Y762499D01*
X1062498Y763332D01*
Y764165D01*
X1063331Y762499D02*
X1064998D01*
X1070000Y782498D02*
Y777500D01*
X1072499D01*
X1073332Y778333D01*
Y781665D01*
X1072499Y782498D01*
X1070000D01*
X1074998Y778333D02*
X1075831Y777500D01*
X1077498D01*
X1078331Y778333D01*
Y781665D01*
X1077498Y782498D01*
X1075831D01*
X1074998Y781665D01*
Y780832D01*
X1075831Y779999D01*
X1078331D01*
X1072500Y824998D02*
Y820000D01*
X1074999D01*
X1075832Y820833D01*
Y824165D01*
X1074999Y824998D01*
X1072500D01*
X1077498Y820000D02*
X1079165D01*
X1078331D01*
Y824998D01*
X1077498Y824165D01*
X1081664D02*
X1082497Y824998D01*
X1084163D01*
X1084996Y824165D01*
Y820833D01*
X1084163Y820000D01*
X1082497D01*
X1081664Y820833D01*
Y824165D01*
X1120000Y822498D02*
Y817500D01*
X1122499D01*
X1123332Y818333D01*
Y821665D01*
X1122499Y822498D01*
X1120000D01*
X1124998Y817500D02*
X1126665D01*
X1125831D01*
Y822498D01*
X1124998Y821665D01*
X1129164Y817500D02*
X1130830D01*
X1129997D01*
Y822498D01*
X1129164Y821665D01*
X1117500Y779998D02*
Y775000D01*
X1119999D01*
X1120832Y775833D01*
Y779165D01*
X1119999Y779998D01*
X1117500D01*
X1122498Y775000D02*
X1124164D01*
X1123331D01*
Y779998D01*
X1122498Y779165D01*
X1129996Y775000D02*
X1126664D01*
X1129996Y778332D01*
Y779165D01*
X1129163Y779998D01*
X1127497D01*
X1126664Y779165D01*
X1110002Y795000D02*
X1115000D01*
Y797499D01*
X1114167Y798332D01*
X1110835D01*
X1110002Y797499D01*
Y795000D01*
X1115000Y799998D02*
Y801665D01*
Y800831D01*
X1110002D01*
X1110835Y799998D01*
Y804164D02*
X1110002Y804997D01*
Y806663D01*
X1110835Y807496D01*
X1111668D01*
X1112501Y806663D01*
Y805830D01*
Y806663D01*
X1113334Y807496D01*
X1114167D01*
X1115000Y806663D01*
Y804997D01*
X1114167Y804164D01*
M02*
