%FSLAX25Y25*%
%MOIN*%
G70*
G01*
G75*
G04 Layer_Physical_Order=2*
G04 Layer_Color=65280*
%ADD10R,0.05906X0.05906*%
%ADD11R,0.05906X0.05906*%
%ADD12P,0.08352X4X337.5*%
%ADD13P,0.08352X4X382.5*%
%ADD14P,0.08352X4X67.5*%
%ADD15P,0.08352X4X112.5*%
%ADD16C,0.02500*%
%ADD17C,0.04000*%
%ADD18R,0.05000X0.08000*%
%ADD19R,0.12205X0.17716*%
%ADD20C,0.05000*%
G36*
X1114239Y859311D02*
X1118849Y858010D01*
X1123342Y856353D01*
X1127691Y854348D01*
X1131870Y852007D01*
X1135252Y849748D01*
X1137500Y847500D01*
X1140000Y845000D01*
X1142500Y842500D01*
X1145000Y840000D01*
X1147500Y837500D01*
X1149748Y835252D01*
X1152007Y831870D01*
X1154348Y827691D01*
X1156353Y823342D01*
X1158010Y818849D01*
X1159311Y814239D01*
X1160245Y809542D01*
X1160808Y804786D01*
X1160996Y800000D01*
X1160808Y795214D01*
X1160245Y790458D01*
X1159311Y785761D01*
X1158010Y781151D01*
X1156353Y776658D01*
X1156092Y776092D01*
X1155000Y775000D01*
Y773724D01*
X1154348Y772308D01*
X1152007Y768130D01*
X1149347Y764148D01*
X1146382Y760386D01*
X1143131Y756869D01*
X1139614Y753618D01*
X1135852Y750653D01*
X1131870Y747993D01*
X1127691Y745652D01*
X1126276Y745000D01*
X1125000D01*
X1123908Y743908D01*
X1123342Y743647D01*
X1118849Y741990D01*
X1114239Y740690D01*
X1109542Y739755D01*
X1104786Y739192D01*
X1100000Y739004D01*
X1095214Y739192D01*
X1090458Y739755D01*
X1085761Y740690D01*
X1081151Y741990D01*
X1080136Y742364D01*
X1080000Y742500D01*
X1079768D01*
X1076658Y743647D01*
X1072309Y745652D01*
X1068130Y747993D01*
X1064148Y750653D01*
X1060386Y753618D01*
X1056869Y756869D01*
X1053618Y760386D01*
X1050653Y764148D01*
X1047993Y768130D01*
X1045652Y772308D01*
X1043647Y776658D01*
X1041990Y781151D01*
X1040689Y785761D01*
X1039755Y790458D01*
X1039192Y795214D01*
X1039004Y800000D01*
X1039192Y804786D01*
X1039755Y809542D01*
X1040689Y814239D01*
X1041990Y818849D01*
X1042364Y819864D01*
X1042500Y820000D01*
Y820232D01*
X1043647Y823342D01*
X1045652Y827691D01*
X1047993Y831870D01*
X1050252Y835252D01*
X1060000Y845000D01*
X1064748Y849748D01*
X1068130Y852007D01*
X1072309Y854348D01*
X1076658Y856353D01*
X1081151Y858010D01*
X1085761Y859311D01*
X1089227Y860000D01*
X1110773D01*
X1114239Y859311D01*
D02*
G37*
%LPC*%
G36*
X1137500Y805548D02*
X1136064Y805358D01*
X1134726Y804804D01*
X1133577Y803923D01*
X1132696Y802774D01*
X1132142Y801436D01*
X1131952Y800000D01*
X1132142Y798564D01*
X1132696Y797226D01*
X1132709Y797209D01*
Y782500D01*
X1132872Y781260D01*
X1133211Y780443D01*
X1133351Y780104D01*
X1134112Y779112D01*
X1134639Y778586D01*
X1134642Y778564D01*
X1135196Y777226D01*
X1136077Y776077D01*
X1137226Y775196D01*
X1138564Y774642D01*
X1140000Y774452D01*
X1141436Y774642D01*
X1142774Y775196D01*
X1143923Y776077D01*
X1144804Y777226D01*
X1145358Y778564D01*
X1145547Y780000D01*
X1145358Y781436D01*
X1144804Y782774D01*
X1143923Y783923D01*
X1142774Y784804D01*
X1142291Y785004D01*
Y797209D01*
X1142304Y797226D01*
X1142858Y798564D01*
X1143048Y800000D01*
X1142858Y801436D01*
X1142304Y802774D01*
X1141423Y803923D01*
X1140274Y804804D01*
X1138936Y805358D01*
X1137500Y805548D01*
D02*
G37*
G36*
X1090000Y850548D02*
X1088564Y850358D01*
X1087226Y849804D01*
X1086077Y848923D01*
X1085196Y847774D01*
X1084642Y846436D01*
X1084453Y845000D01*
X1084642Y843564D01*
X1085196Y842226D01*
X1085209Y842209D01*
Y839000D01*
X1085000D01*
Y834026D01*
X1084241Y833267D01*
X1083491Y832353D01*
X1083458Y832291D01*
X1080291D01*
X1080274Y832304D01*
X1078936Y832858D01*
X1077500Y833047D01*
X1076064Y832858D01*
X1074726Y832304D01*
X1073577Y831423D01*
X1072696Y830274D01*
X1072142Y828936D01*
X1071953Y827500D01*
X1072142Y826064D01*
X1072288Y825712D01*
X1071454Y824465D01*
X1063153D01*
Y805870D01*
X1062696Y805274D01*
X1062142Y803936D01*
X1061952Y802500D01*
X1062142Y801064D01*
X1062696Y799726D01*
X1063014Y799312D01*
X1062626Y797863D01*
X1061768Y797508D01*
X1057861Y801414D01*
X1057858Y801436D01*
X1057304Y802774D01*
X1056423Y803923D01*
X1055274Y804804D01*
X1053936Y805358D01*
X1052500Y805548D01*
X1051064Y805358D01*
X1049726Y804804D01*
X1048577Y803923D01*
X1047696Y802774D01*
X1047142Y801436D01*
X1046953Y800000D01*
X1047142Y798564D01*
X1047696Y797226D01*
X1048577Y796077D01*
X1049726Y795196D01*
X1051064Y794642D01*
X1051086Y794639D01*
X1055209Y790516D01*
Y775000D01*
X1055372Y773760D01*
X1055711Y772943D01*
X1055851Y772605D01*
X1056612Y771612D01*
X1061612Y766612D01*
Y766612D01*
X1061612D01*
X1061612Y766612D01*
X1061612D01*
D01*
D01*
D01*
Y766612D01*
X1061612Y766612D01*
D01*
X1062605Y765851D01*
X1063760Y765372D01*
X1065000Y765209D01*
X1077500D01*
X1078740Y765372D01*
X1079895Y765851D01*
X1080888Y766612D01*
X1081649Y767604D01*
X1081792Y767949D01*
X1083290Y768022D01*
X1083491Y767647D01*
X1084241Y766733D01*
X1085000Y765974D01*
Y761000D01*
X1087980D01*
X1088211Y760443D01*
X1088351Y760105D01*
X1089112Y759112D01*
Y759112D01*
D01*
D01*
X1089112Y759112D01*
Y759112D01*
X1089112Y759112D01*
X1094112Y754112D01*
Y754112D01*
X1094112D01*
X1094112Y754112D01*
X1094112D01*
D01*
D01*
D01*
Y754112D01*
X1094112Y754112D01*
D01*
X1095105Y753351D01*
X1096260Y752872D01*
X1096260Y752872D01*
D01*
D01*
D01*
X1096260D01*
D01*
D01*
D01*
X1096260D01*
Y752872D01*
D01*
X1097500Y752709D01*
X1099709D01*
X1099726Y752696D01*
X1101064Y752142D01*
X1102500Y751953D01*
X1103936Y752142D01*
X1105274Y752696D01*
X1106423Y753577D01*
X1107304Y754726D01*
X1107858Y756064D01*
X1108047Y757500D01*
X1107858Y758936D01*
X1107304Y760274D01*
X1106423Y761423D01*
X1105274Y762304D01*
X1103936Y762858D01*
X1102500Y763048D01*
X1101064Y762858D01*
X1099726Y762304D01*
X1099709Y762291D01*
X1099485D01*
X1097291Y764485D01*
Y767000D01*
X1097128Y768240D01*
X1097027Y768482D01*
X1097029Y768500D01*
X1097000Y768795D01*
Y775142D01*
X1098106D01*
Y799748D01*
Y824465D01*
X1097000D01*
Y831205D01*
X1097029Y831500D01*
X1097000Y831795D01*
Y839000D01*
X1094791D01*
Y842209D01*
X1094804Y842226D01*
X1095358Y843564D01*
X1095547Y845000D01*
X1095358Y846436D01*
X1094804Y847774D01*
X1093923Y848923D01*
X1092774Y849804D01*
X1091436Y850358D01*
X1090000Y850548D01*
D02*
G37*
G36*
X1127500Y835548D02*
X1126064Y835358D01*
X1124726Y834804D01*
X1123577Y833923D01*
X1122696Y832774D01*
X1122142Y831436D01*
X1121953Y830000D01*
X1122142Y828564D01*
X1122696Y827226D01*
X1123577Y826077D01*
X1123828Y825885D01*
X1123346Y824465D01*
X1110398D01*
Y799748D01*
Y775142D01*
X1129602D01*
Y799748D01*
Y821662D01*
X1130988Y822236D01*
X1139600Y813624D01*
X1139452Y812500D01*
X1139642Y811064D01*
X1140196Y809726D01*
X1141077Y808577D01*
X1142226Y807696D01*
X1143564Y807142D01*
X1145000Y806952D01*
X1146436Y807142D01*
X1147774Y807696D01*
X1148923Y808577D01*
X1149804Y809726D01*
X1150358Y811064D01*
X1150548Y812500D01*
X1150358Y813936D01*
X1149804Y815274D01*
X1149745Y815351D01*
X1149628Y816240D01*
X1149149Y817395D01*
X1148388Y818388D01*
X1133388Y833388D01*
X1132395Y834149D01*
X1132057Y834289D01*
X1131240Y834628D01*
X1130351Y834745D01*
X1130274Y834804D01*
X1128936Y835358D01*
X1127500Y835548D01*
D02*
G37*
%LPD*%
D16*
X1120000Y850000D02*
X1155000Y815000D01*
Y787500D02*
Y815000D01*
X1135000Y812500D02*
X1150000Y797500D01*
X1082500Y855000D02*
X1112500D01*
X1072500Y750000D02*
X1120000D01*
X1150000Y797500D02*
X1155000D01*
X1135000Y812500D02*
Y815000D01*
X1145000Y812500D02*
Y815000D01*
X1130000Y830000D02*
X1145000Y815000D01*
X1127500Y830000D02*
X1130000D01*
X1150000Y782500D02*
X1155000Y787500D01*
X1150000Y775000D02*
Y782500D01*
X1090000Y832500D02*
X1091000Y831500D01*
X1090000Y832500D02*
Y845000D01*
X1087000Y827500D02*
X1088504Y829004D01*
X1077500Y827500D02*
X1087000D01*
X1076326Y848674D02*
Y848826D01*
X1073674Y848674D02*
X1076326D01*
X1112500Y855000D02*
X1117500Y850000D01*
X1076326Y848826D02*
X1082500Y855000D01*
X1137500Y782500D02*
X1140000Y780000D01*
X1137500Y782500D02*
Y800000D01*
X1103500Y770000D02*
X1105000D01*
X1102000Y768500D02*
X1103500Y770000D01*
X1091000Y768500D02*
X1092500Y767000D01*
Y762500D02*
Y767000D01*
Y762500D02*
X1097500Y757500D01*
X1102500D01*
X1065000Y770000D02*
X1077500D01*
X1052500D02*
X1072500Y750000D01*
X1052500Y770000D02*
Y777500D01*
X1075000Y772500D02*
X1077500Y770000D01*
X1060000Y775000D02*
X1065000Y770000D01*
X1060000Y775000D02*
Y792500D01*
X1052500Y800000D02*
X1060000Y792500D01*
X1050000Y817500D02*
Y825000D01*
X1073674Y848674D01*
X1120000Y750000D02*
X1122500Y752500D01*
X1127500D01*
X1150000Y775000D01*
X1117500Y850000D02*
X1120000D01*
D17*
X1127500Y830000D02*
D03*
X1145000Y812500D02*
D03*
X1135000Y815000D02*
D03*
X1077500Y827500D02*
D03*
X1090000Y845000D02*
D03*
X1140000Y780000D02*
D03*
X1137500Y800000D02*
D03*
X1105000Y770000D02*
D03*
X1102500Y757500D02*
D03*
X1085000Y800000D02*
D03*
Y777500D02*
D03*
X1075000Y772500D02*
D03*
X1050000Y817500D02*
D03*
X1052500Y777500D02*
D03*
X1082500Y750000D02*
D03*
X1122500Y752500D02*
D03*
X1150000Y782500D02*
D03*
X1147500Y822500D02*
D03*
X1117500Y850000D02*
D03*
X1076326Y848674D02*
D03*
X1100000Y797500D02*
D03*
X1120000Y800000D02*
D03*
X1067500Y802500D02*
D03*
X1052500Y800000D02*
D03*
D18*
X1091000Y768500D02*
D03*
X1102000D02*
D03*
X1091000Y831500D02*
D03*
X1102000D02*
D03*
D19*
X1120000Y787500D02*
D03*
X1104252D02*
D03*
X1088504D02*
D03*
X1120000Y812106D02*
D03*
X1104252D02*
D03*
X1088504D02*
D03*
X1072756Y787500D02*
D03*
Y812106D02*
D03*
D20*
X1102000Y854500D02*
X1102500Y855000D01*
X1102000Y831500D02*
Y854500D01*
X1088504Y770996D02*
Y829004D01*
X1104252Y770752D02*
Y829248D01*
X1102000Y831500D02*
X1104252Y829248D01*
X1088504Y829004D02*
X1091000Y831500D01*
X1088504Y770996D02*
X1091000Y768500D01*
X1120000Y787500D02*
Y812106D01*
X1072756Y787500D02*
Y812106D01*
M02*
