%FSLAX25Y25*%
%MOIN*%
G70*
G01*
G75*
G04 Layer_Color=33789*
%ADD10P,0.08352X4X360.0*%
%ADD11P,0.08352X4X270.0*%
%ADD12P,0.08352X4X75.0*%
%ADD13P,0.08352X4X115.0*%
%ADD14P,0.08352X4X155.0*%
%ADD15P,0.08352X4X195.0*%
%ADD16P,0.08352X4X235.0*%
%ADD17P,0.08352X4X275.0*%
%ADD18R,0.05906X0.05906*%
%ADD19P,0.08352X4X355.0*%
%ADD20P,0.08352X4X395.0*%
%ADD21R,0.05906X0.05906*%
%ADD22C,0.02500*%
%ADD23C,0.04000*%
%ADD24R,0.12205X0.17716*%
%ADD25R,0.08000X0.05000*%
%ADD26C,0.05000*%
%ADD27C,0.01000*%
%ADD28C,0.01200*%
%ADD29C,0.01500*%
D27*
X1366409Y984547D02*
X1368378D01*
X1366409D02*
Y1015059D01*
X1368378D01*
X1431370Y984547D02*
X1433339D01*
Y1015059D01*
X1431370D02*
X1433339D01*
X1351516Y990484D02*
Y1007516D01*
X1342484Y990484D02*
X1351516D01*
X1342484D02*
Y1007516D01*
X1351516D01*
X1456516Y992984D02*
Y1010016D01*
X1447484Y992984D02*
X1456516D01*
X1447484D02*
Y1010016D01*
X1456516D01*
X1461668Y984165D02*
X1462501Y984998D01*
X1464167D01*
X1465000Y984165D01*
Y980833D01*
X1464167Y980000D01*
X1462501D01*
X1461668Y980833D01*
X1460002Y980000D02*
X1458335D01*
X1459169D01*
Y984998D01*
X1460002Y984165D01*
X1334168Y981665D02*
X1335001Y982498D01*
X1336667D01*
X1337500Y981665D01*
Y978333D01*
X1336667Y977500D01*
X1335001D01*
X1334168Y978333D01*
X1329169Y977500D02*
X1332502D01*
X1329169Y980832D01*
Y981665D01*
X1330002Y982498D01*
X1331669D01*
X1332502Y981665D01*
X1354830Y1020661D02*
X1356497D01*
X1355663D01*
Y1016496D01*
X1356497Y1015663D01*
X1357330D01*
X1358163Y1016496D01*
X1353164Y1015663D02*
X1351498D01*
X1352331D01*
Y1020661D01*
X1353164Y1019828D01*
X1477500Y1032500D02*
X1475001D01*
X1474168Y1033333D01*
X1475001Y1034166D01*
X1476667D01*
X1477500Y1034999D01*
X1476667Y1035832D01*
X1474168D01*
X1472502Y1030834D02*
Y1035832D01*
X1470002D01*
X1469169Y1034999D01*
Y1033333D01*
X1470002Y1032500D01*
X1472502D01*
X1466670Y1035832D02*
X1465004D01*
X1464171Y1034999D01*
Y1032500D01*
X1466670D01*
X1467503Y1033333D01*
X1466670Y1034166D01*
X1464171D01*
X1459173Y1035832D02*
X1461672D01*
X1462505Y1034999D01*
Y1033333D01*
X1461672Y1032500D01*
X1459173D01*
X1455007D02*
X1456673D01*
X1457506Y1033333D01*
Y1034999D01*
X1456673Y1035832D01*
X1455007D01*
X1454174Y1034999D01*
Y1034166D01*
X1457506D01*
X1452508Y1034999D02*
X1449176D01*
X1445010Y1032500D02*
X1446677D01*
X1447510Y1033333D01*
Y1034999D01*
X1446677Y1035832D01*
X1445010D01*
X1444178Y1034999D01*
Y1034166D01*
X1447510D01*
X1442511Y1032500D02*
X1440845D01*
X1441678D01*
Y1035832D01*
X1442511D01*
X1436680Y1030834D02*
X1435847D01*
X1435014Y1031667D01*
Y1035832D01*
X1437513D01*
X1438346Y1034999D01*
Y1033333D01*
X1437513Y1032500D01*
X1435014D01*
X1433348Y1037498D02*
Y1032500D01*
Y1034999D01*
X1432515Y1035832D01*
X1430849D01*
X1430015Y1034999D01*
Y1032500D01*
X1427516Y1036665D02*
Y1035832D01*
X1428349D01*
X1426683D01*
X1427516D01*
Y1033333D01*
X1426683Y1032500D01*
X1424184D02*
Y1033333D01*
X1423351D01*
Y1032500D01*
X1424184D01*
X1416686Y1035832D02*
X1419186D01*
X1420019Y1034999D01*
Y1033333D01*
X1419186Y1032500D01*
X1416686D01*
X1414187D02*
X1412521D01*
X1411688Y1033333D01*
Y1034999D01*
X1412521Y1035832D01*
X1414187D01*
X1415020Y1034999D01*
Y1033333D01*
X1414187Y1032500D01*
X1410022D02*
Y1035832D01*
X1409189D01*
X1408356Y1034999D01*
Y1032500D01*
Y1034999D01*
X1407523Y1035832D01*
X1406690Y1034999D01*
Y1032500D01*
X1447500Y1063332D02*
Y1060000D01*
Y1061666D01*
X1446667Y1062499D01*
X1445834Y1063332D01*
X1445001D01*
X1440002Y1060000D02*
X1441669D01*
X1442502Y1060833D01*
Y1062499D01*
X1441669Y1063332D01*
X1440002D01*
X1439169Y1062499D01*
Y1061666D01*
X1442502D01*
X1437503Y1063332D02*
X1435837Y1060000D01*
X1434171Y1063332D01*
X1432505Y1060000D02*
X1430839D01*
X1431672D01*
Y1064998D01*
X1432505Y1064165D01*
X1428339Y1060000D02*
Y1060833D01*
X1427507D01*
Y1060000D01*
X1428339D01*
X1424174Y1064165D02*
X1423341Y1064998D01*
X1421675D01*
X1420842Y1064165D01*
Y1060833D01*
X1421675Y1060000D01*
X1423341D01*
X1424174Y1060833D01*
Y1064165D01*
X1419176Y1060000D02*
X1417510D01*
X1418343D01*
Y1064998D01*
X1419176Y1064165D01*
X1375000Y1049998D02*
Y1045000D01*
X1372501D01*
X1371668Y1045833D01*
Y1046666D01*
X1372501Y1047499D01*
X1375000D01*
X1372501D01*
X1371668Y1048332D01*
Y1049165D01*
X1372501Y1049998D01*
X1375000D01*
X1370002Y1045000D02*
Y1049998D01*
X1367502D01*
X1366669Y1049165D01*
Y1047499D01*
X1367502Y1046666D01*
X1370002D01*
X1368336D02*
X1366669Y1045000D01*
X1365003Y1049998D02*
X1363337D01*
X1364170D01*
Y1045000D01*
X1365003D01*
X1363337D01*
X1360838D02*
Y1048332D01*
X1359172Y1049998D01*
X1357506Y1048332D01*
Y1045000D01*
Y1047499D01*
X1360838D01*
X1355840Y1045000D02*
Y1049998D01*
X1352507Y1045000D01*
Y1049998D01*
X1342511Y1049165D02*
X1343344Y1049998D01*
X1345010D01*
X1345843Y1049165D01*
Y1045833D01*
X1345010Y1045000D01*
X1343344D01*
X1342511Y1045833D01*
X1338345Y1049998D02*
X1340011D01*
X1340844Y1049165D01*
Y1045833D01*
X1340011Y1045000D01*
X1338345D01*
X1337512Y1045833D01*
Y1049165D01*
X1338345Y1049998D01*
X1335846D02*
X1332514Y1045000D01*
Y1049998D02*
X1335846Y1045000D01*
X1366668Y1035832D02*
X1369167D01*
X1370000Y1034999D01*
Y1033333D01*
X1369167Y1032500D01*
X1366668D01*
X1356671D02*
X1360003D01*
X1356671Y1035832D01*
Y1036665D01*
X1357504Y1037498D01*
X1359170D01*
X1360003Y1036665D01*
X1355005D02*
X1354172Y1037498D01*
X1352506D01*
X1351673Y1036665D01*
Y1033333D01*
X1352506Y1032500D01*
X1354172D01*
X1355005Y1033333D01*
Y1036665D01*
X1346674Y1032500D02*
X1350006D01*
X1346674Y1035832D01*
Y1036665D01*
X1347507Y1037498D01*
X1349173D01*
X1350006Y1036665D01*
X1345008D02*
X1344175Y1037498D01*
X1342509D01*
X1341676Y1036665D01*
Y1035832D01*
X1342509Y1034999D01*
X1343342D01*
X1342509D01*
X1341676Y1034166D01*
Y1033333D01*
X1342509Y1032500D01*
X1344175D01*
X1345008Y1033333D01*
D28*
X1455000Y1072500D02*
Y1077498D01*
X1453334Y1075832D01*
X1451668Y1077498D01*
Y1072500D01*
X1450002Y1077498D02*
Y1076665D01*
X1448335Y1074999D01*
X1446669Y1076665D01*
Y1077498D01*
X1448335Y1074999D02*
Y1072500D01*
X1441671Y1076665D02*
X1442504Y1077498D01*
X1444170D01*
X1445003Y1076665D01*
Y1075832D01*
X1444170Y1074999D01*
X1442504D01*
X1441671Y1074166D01*
Y1073333D01*
X1442504Y1072500D01*
X1444170D01*
X1445003Y1073333D01*
X1440005Y1077498D02*
X1436673D01*
X1438339D01*
Y1072500D01*
X1435007Y1077498D02*
X1433340D01*
X1434173D01*
Y1072500D01*
X1435007D01*
X1433340D01*
X1427509Y1073333D02*
Y1076665D01*
X1428342Y1077498D01*
X1430008D01*
X1430841Y1076665D01*
Y1073333D01*
X1430008Y1072500D01*
X1428342D01*
X1429175Y1074166D02*
X1427509Y1072500D01*
X1428342D02*
X1427509Y1073333D01*
X1425843Y1077498D02*
Y1073333D01*
X1425010Y1072500D01*
X1423344D01*
X1422511Y1073333D01*
Y1077498D01*
X1417512D02*
X1420844D01*
Y1072500D01*
X1417512D01*
X1420844Y1074999D02*
X1419178D01*
X1410848Y1077498D02*
X1407515D01*
X1409181D01*
Y1072500D01*
X1405849Y1077498D02*
Y1072500D01*
Y1074999D01*
X1402517D01*
Y1077498D01*
Y1072500D01*
X1400851Y1077498D02*
Y1073333D01*
X1400018Y1072500D01*
X1398352D01*
X1397519Y1073333D01*
Y1077498D01*
X1395852Y1072500D02*
Y1077498D01*
X1394186Y1075832D01*
X1392520Y1077498D01*
Y1072500D01*
X1390854D02*
Y1077498D01*
X1388355D01*
X1387522Y1076665D01*
Y1074999D01*
X1388355Y1074166D01*
X1390854D01*
X1382524Y1077498D02*
X1385856D01*
Y1072500D01*
X1382524D01*
X1385856Y1074999D02*
X1384190D01*
X1380857Y1072500D02*
Y1077498D01*
X1378358D01*
X1377525Y1076665D01*
Y1074999D01*
X1378358Y1074166D01*
X1380857D01*
X1379191D02*
X1377525Y1072500D01*
X1418501Y1090998D02*
X1422500D01*
Y1087999D01*
X1420501Y1088999D01*
X1419501D01*
X1418501Y1087999D01*
Y1086000D01*
X1419501Y1085000D01*
X1421500D01*
X1422500Y1086000D01*
X1416502Y1089998D02*
X1415502Y1090998D01*
X1413503D01*
X1412503Y1089998D01*
Y1086000D01*
X1413503Y1085000D01*
X1415502D01*
X1416502Y1086000D01*
Y1089998D01*
X1406505Y1090998D02*
X1410504D01*
Y1087999D01*
X1408504Y1088999D01*
X1407505D01*
X1406505Y1087999D01*
Y1086000D01*
X1407505Y1085000D01*
X1409504D01*
X1410504Y1086000D01*
X1404506Y1085000D02*
X1402507D01*
X1403506D01*
Y1090998D01*
X1404506Y1089998D01*
X1399507Y1086000D02*
X1398508Y1085000D01*
X1396508D01*
X1395509Y1086000D01*
Y1089998D01*
X1396508Y1090998D01*
X1398508D01*
X1399507Y1089998D01*
Y1088999D01*
X1398508Y1087999D01*
X1395509D01*
X1389511Y1090998D02*
X1391510Y1089998D01*
X1393509Y1087999D01*
Y1086000D01*
X1392510Y1085000D01*
X1390510D01*
X1389511Y1086000D01*
Y1086999D01*
X1390510Y1087999D01*
X1393509D01*
D29*
X1432498Y962500D02*
X1425000D01*
Y966249D01*
X1426250Y967498D01*
X1431248D01*
X1432498Y966249D01*
Y962500D01*
Y973746D02*
Y971247D01*
X1431248Y969998D01*
X1426250D01*
X1425000Y971247D01*
Y973746D01*
X1426250Y974996D01*
X1431248D01*
X1432498Y973746D01*
X1387498Y955000D02*
X1382499D01*
X1380000Y957499D01*
X1382499Y959998D01*
X1387498D01*
X1386248Y967496D02*
X1387498Y966246D01*
Y963747D01*
X1386248Y962498D01*
X1381250D01*
X1380000Y963747D01*
Y966246D01*
X1381250Y967496D01*
X1386248Y974994D02*
X1387498Y973744D01*
Y971245D01*
X1386248Y969995D01*
X1381250D01*
X1380000Y971245D01*
Y973744D01*
X1381250Y974994D01*
X1416533Y960283D02*
X1417782Y959033D01*
Y956534D01*
X1416533Y955285D01*
X1411534D01*
X1410285Y956534D01*
Y959033D01*
X1411534Y960283D01*
X1414034D01*
Y957784D01*
X1410285Y962782D02*
X1417782D01*
X1410285Y967781D01*
X1417782D01*
Y970280D02*
X1410285D01*
Y974029D01*
X1411534Y975278D01*
X1416533D01*
X1417782Y974029D01*
Y970280D01*
X1374998Y965000D02*
X1367500D01*
Y968749D01*
X1368750Y969998D01*
X1373748D01*
X1374998Y968749D01*
Y965000D01*
Y972498D02*
Y974997D01*
Y973747D01*
X1367500D01*
Y972498D01*
Y974997D01*
M02*
