%FSLAX25Y25*%
%MOIN*%
G70*
G01*
G75*
G04 Layer_Color=65535*
%ADD10P,0.08352X4X360.0*%
%ADD11P,0.08352X4X270.0*%
%ADD12P,0.08352X4X75.0*%
%ADD13P,0.08352X4X115.0*%
%ADD14P,0.08352X4X155.0*%
%ADD15P,0.08352X4X195.0*%
%ADD16P,0.08352X4X235.0*%
%ADD17P,0.08352X4X275.0*%
%ADD18R,0.05906X0.05906*%
%ADD19P,0.08352X4X355.0*%
%ADD20P,0.08352X4X395.0*%
%ADD21R,0.05906X0.05906*%
%ADD22C,0.02500*%
%ADD23C,0.04000*%
%ADD24R,0.12205X0.17716*%
%ADD25R,0.08000X0.05000*%
%ADD26C,0.05000*%
%ADD27C,0.01000*%
%ADD28C,0.01200*%
D27*
X1376356Y1013493D02*
G03*
X1376356Y1013493I-984J0D01*
G01*
X1414477Y1024128D02*
G03*
X1414477Y1024128I-984J0D01*
G01*
X1435356Y954493D02*
G03*
X1435356Y954493I-984J0D01*
G01*
X1459207Y929063D02*
G03*
X1459207Y929063I-984J0D01*
G01*
X1490933Y982680D02*
G03*
X1490933Y982680I-984J0D01*
G01*
X1480834Y1045067D02*
G03*
X1480834Y1045067I-984J0D01*
G01*
X1433135Y1085701D02*
G03*
X1433135Y1085701I-984J0D01*
G01*
X1371078Y1086691D02*
G03*
X1371078Y1086691I-984J0D01*
G01*
X1321962Y1047252D02*
G03*
X1321962Y1047252I-984J0D01*
G01*
X1310110Y985236D02*
G03*
X1310110Y985236I-984J0D01*
G01*
X1340942Y930629D02*
G03*
X1340942Y930629I-984J0D01*
G01*
X1399656Y908182D02*
G03*
X1399656Y908182I-984J0D01*
G01*
X1387992Y975372D02*
G03*
X1387992Y975372I-984J0D01*
G01*
X1415748Y992126D02*
G03*
X1415748Y992126I-984J0D01*
G01*
X1376068Y1021148D02*
X1378852Y1023932D01*
X1362148Y1035068D02*
X1364932Y1037852D01*
X1359365Y1026716D02*
X1367716Y1018365D01*
X1373284Y1040635D02*
X1381635Y1032284D01*
X1364932Y1021148D02*
X1376068D01*
X1421148Y1023432D02*
X1423932Y1020648D01*
X1435068Y1037352D02*
X1437852Y1034568D01*
X1418365Y1031784D02*
X1426716Y1040135D01*
X1432284Y1017865D02*
X1440635Y1026216D01*
X1421148Y1023432D02*
Y1034568D01*
X1435068Y962148D02*
X1437852Y964932D01*
X1421148Y976068D02*
X1423932Y978852D01*
X1418365Y967716D02*
X1426716Y959365D01*
X1432284Y981635D02*
X1440635Y973284D01*
X1423932Y962148D02*
X1435068D01*
X1449040Y935126D02*
X1451008Y931717D01*
X1431992Y925284D02*
X1433960Y921874D01*
X1441307Y917023D02*
X1451536Y922929D01*
X1431464Y934071D02*
X1441693Y939977D01*
X1448126Y920960D02*
X1451008Y931717D01*
X1479017Y981422D02*
X1482716Y980076D01*
X1472284Y962924D02*
X1475983Y961578D01*
X1484729Y962584D02*
X1488769Y973683D01*
X1466231Y969317D02*
X1470271Y980416D01*
X1482716Y980076D02*
X1487422Y969983D01*
X1472284Y1037076D02*
X1475983Y1038422D01*
X1479017Y1018578D02*
X1482716Y1019924D01*
X1484729Y1037416D02*
X1488769Y1026317D01*
X1466231Y1030683D02*
X1470271Y1019584D01*
X1475983Y1038422D02*
X1486076Y1033716D01*
X1431492Y1074716D02*
X1433460Y1078126D01*
X1448540Y1064874D02*
X1450508Y1068283D01*
X1440807Y1082977D02*
X1451036Y1077071D01*
X1430964Y1065929D02*
X1441193Y1060023D01*
X1433460Y1078126D02*
X1444217Y1081008D01*
X1375965Y1081730D02*
X1376649Y1077852D01*
X1395351Y1085148D02*
X1396035Y1081271D01*
X1378475Y1090168D02*
X1390107Y1092218D01*
X1381893Y1070782D02*
X1393525Y1072832D01*
X1375965Y1081730D02*
X1382352Y1090851D01*
X1328665Y1047225D02*
X1331681Y1044695D01*
X1341319Y1062305D02*
X1344335Y1059774D01*
X1325164Y1055303D02*
X1332756Y1064351D01*
X1340244Y1042649D02*
X1347836Y1051697D01*
X1327695Y1058319D02*
X1328665Y1047225D01*
X1315032Y990158D02*
X1318968D01*
X1315032Y1009842D02*
X1318968D01*
X1307158Y994094D02*
Y1005906D01*
X1326842Y994094D02*
Y1005906D01*
X1307158Y998032D02*
X1315032Y990158D01*
X1341319Y938195D02*
X1344335Y940726D01*
X1328665Y953275D02*
X1331681Y955805D01*
X1325164Y945197D02*
X1332756Y936150D01*
X1340244Y957850D02*
X1347836Y948803D01*
X1330225Y939165D02*
X1341319Y938195D01*
X1394851Y914852D02*
X1395535Y918729D01*
X1375465Y918271D02*
X1376149Y922148D01*
X1377975Y909832D02*
X1389607Y907782D01*
X1381393Y929218D02*
X1393025Y927168D01*
X1385729Y908465D02*
X1394851Y914852D01*
X1376568Y978852D02*
X1379352Y976068D01*
X1362648Y964932D02*
X1365432Y962148D01*
X1373784Y959365D02*
X1382135Y967716D01*
X1359865Y973284D02*
X1368216Y981635D01*
X1379352Y964932D02*
Y976068D01*
X1409842Y998032D02*
Y1001968D01*
X1390158Y998032D02*
Y1001968D01*
X1394094Y990158D02*
X1405906D01*
X1394094Y1009842D02*
X1405906D01*
X1401968Y990158D02*
X1409842Y998032D01*
X1392500Y1017498D02*
Y1012500D01*
X1394999D01*
X1395832Y1013333D01*
Y1016665D01*
X1394999Y1017498D01*
X1392500D01*
X1397498Y1012500D02*
X1399164D01*
X1398331D01*
Y1017498D01*
X1397498Y1016665D01*
X1355000Y957498D02*
Y952500D01*
X1357499D01*
X1358332Y953333D01*
Y956665D01*
X1357499Y957498D01*
X1355000D01*
X1363331Y952500D02*
X1359998D01*
X1363331Y955832D01*
Y956665D01*
X1362498Y957498D01*
X1360831D01*
X1359998Y956665D01*
X1377197Y939998D02*
Y935000D01*
X1379696D01*
X1380529Y935833D01*
Y939165D01*
X1379696Y939998D01*
X1377197D01*
X1382196Y939165D02*
X1383029Y939998D01*
X1384695D01*
X1385528Y939165D01*
Y938332D01*
X1384695Y937499D01*
X1383862D01*
X1384695D01*
X1385528Y936666D01*
Y935833D01*
X1384695Y935000D01*
X1383029D01*
X1382196Y935833D01*
X1321300Y971498D02*
Y966500D01*
X1323799D01*
X1324632Y967333D01*
Y970665D01*
X1323799Y971498D01*
X1321300D01*
X1328798Y966500D02*
Y971498D01*
X1326298Y968999D01*
X1329631D01*
X1320000Y1022498D02*
Y1017500D01*
X1322499D01*
X1323332Y1018333D01*
Y1021665D01*
X1322499Y1022498D01*
X1320000D01*
X1328331D02*
X1324998D01*
Y1019999D01*
X1326665Y1020832D01*
X1327498D01*
X1328331Y1019999D01*
Y1018333D01*
X1327498Y1017500D01*
X1325831D01*
X1324998Y1018333D01*
X1352500Y1052498D02*
Y1047500D01*
X1354999D01*
X1355832Y1048333D01*
Y1051665D01*
X1354999Y1052498D01*
X1352500D01*
X1360831D02*
X1359165Y1051665D01*
X1357498Y1049999D01*
Y1048333D01*
X1358331Y1047500D01*
X1359998D01*
X1360831Y1048333D01*
Y1049166D01*
X1359998Y1049999D01*
X1357498D01*
X1377500Y1064998D02*
Y1060000D01*
X1379999D01*
X1380832Y1060833D01*
Y1064165D01*
X1379999Y1064998D01*
X1377500D01*
X1382498D02*
X1385831D01*
Y1064165D01*
X1382498Y1060833D01*
Y1060000D01*
X1422500Y1062498D02*
Y1057500D01*
X1424999D01*
X1425832Y1058333D01*
Y1061665D01*
X1424999Y1062498D01*
X1422500D01*
X1427498Y1061665D02*
X1428331Y1062498D01*
X1429998D01*
X1430831Y1061665D01*
Y1060832D01*
X1429998Y1059999D01*
X1430831Y1059166D01*
Y1058333D01*
X1429998Y1057500D01*
X1428331D01*
X1427498Y1058333D01*
Y1059166D01*
X1428331Y1059999D01*
X1427498Y1060832D01*
Y1061665D01*
X1428331Y1059999D02*
X1429998D01*
X1460000Y1049998D02*
Y1045000D01*
X1462499D01*
X1463332Y1045833D01*
Y1049165D01*
X1462499Y1049998D01*
X1460000D01*
X1464998Y1045833D02*
X1465831Y1045000D01*
X1467498D01*
X1468331Y1045833D01*
Y1049165D01*
X1467498Y1049998D01*
X1465831D01*
X1464998Y1049165D01*
Y1048332D01*
X1465831Y1047499D01*
X1468331D01*
X1459619Y957498D02*
Y952500D01*
X1462118D01*
X1462951Y953333D01*
Y956665D01*
X1462118Y957498D01*
X1459619D01*
X1464617Y952500D02*
X1466284D01*
X1465450D01*
Y957498D01*
X1464617Y956665D01*
X1468783D02*
X1469616Y957498D01*
X1471282D01*
X1472115Y956665D01*
Y953333D01*
X1471282Y952500D01*
X1469616D01*
X1468783Y953333D01*
Y956665D01*
X1422500Y944998D02*
Y940000D01*
X1424999D01*
X1425832Y940833D01*
Y944165D01*
X1424999Y944998D01*
X1422500D01*
X1427498Y940000D02*
X1429165D01*
X1428331D01*
Y944998D01*
X1427498Y944165D01*
X1431664Y940000D02*
X1433330D01*
X1432497D01*
Y944998D01*
X1431664Y944165D01*
X1405000Y964998D02*
Y960000D01*
X1407499D01*
X1408332Y960833D01*
Y964165D01*
X1407499Y964998D01*
X1405000D01*
X1409998Y960000D02*
X1411664D01*
X1410831D01*
Y964998D01*
X1409998Y964165D01*
X1417496Y960000D02*
X1414164D01*
X1417496Y963332D01*
Y964165D01*
X1416663Y964998D01*
X1414997D01*
X1414164Y964165D01*
X1402500Y1039998D02*
Y1035000D01*
X1404999D01*
X1405832Y1035833D01*
Y1039165D01*
X1404999Y1039998D01*
X1402500D01*
X1407498Y1035000D02*
X1409165D01*
X1408331D01*
Y1039998D01*
X1407498Y1039165D01*
X1411664D02*
X1412497Y1039998D01*
X1414163D01*
X1414996Y1039165D01*
Y1038332D01*
X1414163Y1037499D01*
X1413330D01*
X1414163D01*
X1414996Y1036666D01*
Y1035833D01*
X1414163Y1035000D01*
X1412497D01*
X1411664Y1035833D01*
X1372500Y1049998D02*
Y1045000D01*
X1374999D01*
X1375832Y1045833D01*
Y1049165D01*
X1374999Y1049998D01*
X1372500D01*
X1377498Y1045000D02*
X1379165D01*
X1378331D01*
Y1049998D01*
X1377498Y1049165D01*
X1384163Y1045000D02*
Y1049998D01*
X1381664Y1047499D01*
X1384996D01*
X1450000Y1037500D02*
Y1035001D01*
X1450833Y1034168D01*
X1451666Y1035001D01*
Y1036667D01*
X1452499Y1037500D01*
X1453332Y1036667D01*
Y1034168D01*
X1448334Y1032502D02*
X1453332D01*
Y1030002D01*
X1452499Y1029169D01*
X1450833D01*
X1450000Y1030002D01*
Y1032502D01*
X1453332Y1026670D02*
Y1025004D01*
X1452499Y1024171D01*
X1450000D01*
Y1026670D01*
X1450833Y1027503D01*
X1451666Y1026670D01*
Y1024171D01*
X1453332Y1019173D02*
Y1021672D01*
X1452499Y1022505D01*
X1450833D01*
X1450000Y1021672D01*
Y1019173D01*
Y1015007D02*
Y1016673D01*
X1450833Y1017507D01*
X1452499D01*
X1453332Y1016673D01*
Y1015007D01*
X1452499Y1014174D01*
X1451666D01*
Y1017507D01*
X1452499Y1012508D02*
Y1009176D01*
X1450000Y1005011D02*
Y1006677D01*
X1450833Y1007510D01*
X1452499D01*
X1453332Y1006677D01*
Y1005011D01*
X1452499Y1004177D01*
X1451666D01*
Y1007510D01*
X1450000Y1002511D02*
Y1000845D01*
Y1001678D01*
X1453332D01*
Y1002511D01*
X1448334Y996680D02*
Y995847D01*
X1449167Y995014D01*
X1453332D01*
Y997513D01*
X1452499Y998346D01*
X1450833D01*
X1450000Y997513D01*
Y995014D01*
X1454998Y993348D02*
X1450000D01*
X1452499D01*
X1453332Y992515D01*
Y990849D01*
X1452499Y990015D01*
X1450000D01*
X1454165Y987516D02*
X1453332D01*
Y988349D01*
Y986683D01*
Y987516D01*
X1450833D01*
X1450000Y986683D01*
Y984184D02*
X1450833D01*
Y983351D01*
X1450000D01*
Y984184D01*
X1453332Y976686D02*
Y979186D01*
X1452499Y980019D01*
X1450833D01*
X1450000Y979186D01*
Y976686D01*
Y974187D02*
Y972521D01*
X1450833Y971688D01*
X1452499D01*
X1453332Y972521D01*
Y974187D01*
X1452499Y975020D01*
X1450833D01*
X1450000Y974187D01*
Y970022D02*
X1453332D01*
Y969189D01*
X1452499Y968356D01*
X1450000D01*
X1452499D01*
X1453332Y967523D01*
X1452499Y966690D01*
X1450000D01*
X1354168Y985000D02*
X1357500D01*
X1355834D01*
X1355001Y985833D01*
X1354168Y986666D01*
Y987499D01*
X1357500Y992498D02*
Y990831D01*
X1356667Y989998D01*
X1355001D01*
X1354168Y990831D01*
Y992498D01*
X1355001Y993331D01*
X1355834D01*
Y989998D01*
X1354168Y994997D02*
X1357500Y996663D01*
X1354168Y998329D01*
X1357500Y999995D02*
Y1001661D01*
Y1000828D01*
X1352502D01*
X1353335Y999995D01*
X1357500Y1004160D02*
X1356667D01*
Y1004994D01*
X1357500D01*
Y1004160D01*
X1353335Y1008326D02*
X1352502Y1009159D01*
Y1010825D01*
X1353335Y1011658D01*
X1356667D01*
X1357500Y1010825D01*
Y1009159D01*
X1356667Y1008326D01*
X1353335D01*
X1357500Y1013324D02*
Y1014990D01*
Y1014157D01*
X1352502D01*
X1353335Y1013324D01*
X1464998Y1022500D02*
X1460000D01*
Y1020001D01*
X1460833Y1019168D01*
X1461666D01*
X1462499Y1020001D01*
Y1022500D01*
Y1020001D01*
X1463332Y1019168D01*
X1464165D01*
X1464998Y1020001D01*
Y1022500D01*
X1460000Y1017502D02*
X1464998D01*
Y1015002D01*
X1464165Y1014169D01*
X1462499D01*
X1461666Y1015002D01*
Y1017502D01*
Y1015835D02*
X1460000Y1014169D01*
X1464998Y1012503D02*
Y1010837D01*
Y1011670D01*
X1460000D01*
Y1012503D01*
Y1010837D01*
Y1008338D02*
X1463332D01*
X1464998Y1006672D01*
X1463332Y1005006D01*
X1460000D01*
X1462499D01*
Y1008338D01*
X1460000Y1003339D02*
X1464998D01*
X1460000Y1000007D01*
X1464998D01*
X1464165Y990011D02*
X1464998Y990844D01*
Y992510D01*
X1464165Y993343D01*
X1460833D01*
X1460000Y992510D01*
Y990844D01*
X1460833Y990011D01*
X1464998Y985845D02*
Y987511D01*
X1464165Y988344D01*
X1460833D01*
X1460000Y987511D01*
Y985845D01*
X1460833Y985012D01*
X1464165D01*
X1464998Y985845D01*
Y983346D02*
X1460000Y980014D01*
X1464998D02*
X1460000Y983346D01*
X1440832Y1011668D02*
Y1014167D01*
X1439999Y1015000D01*
X1438333D01*
X1437500Y1014167D01*
Y1011668D01*
Y1001671D02*
Y1005003D01*
X1440832Y1001671D01*
X1441665D01*
X1442498Y1002504D01*
Y1004170D01*
X1441665Y1005003D01*
Y1000005D02*
X1442498Y999172D01*
Y997506D01*
X1441665Y996673D01*
X1438333D01*
X1437500Y997506D01*
Y999172D01*
X1438333Y1000005D01*
X1441665D01*
X1437500Y991674D02*
Y995006D01*
X1440832Y991674D01*
X1441665D01*
X1442498Y992507D01*
Y994173D01*
X1441665Y995006D01*
Y990008D02*
X1442498Y989175D01*
Y987509D01*
X1441665Y986676D01*
X1440832D01*
X1439999Y987509D01*
Y988342D01*
Y987509D01*
X1439166Y986676D01*
X1438333D01*
X1437500Y987509D01*
Y989175D01*
X1438333Y990008D01*
D28*
X1347500Y962500D02*
X1342502D01*
X1344168Y964166D01*
X1342502Y965832D01*
X1347500D01*
X1342502Y967498D02*
X1343335D01*
X1345001Y969164D01*
X1343335Y970831D01*
X1342502D01*
X1345001Y969164D02*
X1347500D01*
X1343335Y975829D02*
X1342502Y974996D01*
Y973330D01*
X1343335Y972497D01*
X1344168D01*
X1345001Y973330D01*
Y974996D01*
X1345834Y975829D01*
X1346667D01*
X1347500Y974996D01*
Y973330D01*
X1346667Y972497D01*
X1342502Y977495D02*
Y980827D01*
Y979161D01*
X1347500D01*
X1342502Y982493D02*
Y984160D01*
Y983327D01*
X1347500D01*
Y982493D01*
Y984160D01*
X1346667Y989991D02*
X1343335D01*
X1342502Y989158D01*
Y987492D01*
X1343335Y986659D01*
X1346667D01*
X1347500Y987492D01*
Y989158D01*
X1345834Y988325D02*
X1347500Y989991D01*
Y989158D02*
X1346667Y989991D01*
X1342502Y991657D02*
X1346667D01*
X1347500Y992490D01*
Y994156D01*
X1346667Y994989D01*
X1342502D01*
Y999988D02*
Y996656D01*
X1347500D01*
Y999988D01*
X1345001Y996656D02*
Y998322D01*
X1342502Y1006652D02*
Y1009985D01*
Y1008319D01*
X1347500D01*
X1342502Y1011651D02*
X1347500D01*
X1345001D01*
Y1014983D01*
X1342502D01*
X1347500D01*
X1342502Y1016649D02*
X1346667D01*
X1347500Y1017482D01*
Y1019148D01*
X1346667Y1019981D01*
X1342502D01*
X1347500Y1021647D02*
X1342502D01*
X1344168Y1023314D01*
X1342502Y1024980D01*
X1347500D01*
Y1026646D02*
X1342502D01*
Y1029145D01*
X1343335Y1029978D01*
X1345001D01*
X1345834Y1029145D01*
Y1026646D01*
X1342502Y1034976D02*
Y1031644D01*
X1347500D01*
Y1034976D01*
X1345001Y1031644D02*
Y1033310D01*
X1347500Y1036643D02*
X1342502D01*
Y1039142D01*
X1343335Y1039975D01*
X1345001D01*
X1345834Y1039142D01*
Y1036643D01*
Y1038309D02*
X1347500Y1039975D01*
X1331502Y986499D02*
Y982500D01*
X1334501D01*
X1333501Y984499D01*
Y985499D01*
X1334501Y986499D01*
X1336500D01*
X1337500Y985499D01*
Y983500D01*
X1336500Y982500D01*
X1332502Y988498D02*
X1331502Y989498D01*
Y991497D01*
X1332502Y992497D01*
X1336500D01*
X1337500Y991497D01*
Y989498D01*
X1336500Y988498D01*
X1332502D01*
X1331502Y998495D02*
Y994496D01*
X1334501D01*
X1333501Y996496D01*
Y997495D01*
X1334501Y998495D01*
X1336500D01*
X1337500Y997495D01*
Y995496D01*
X1336500Y994496D01*
X1337500Y1000494D02*
Y1002493D01*
Y1001494D01*
X1331502D01*
X1332502Y1000494D01*
X1336500Y1005493D02*
X1337500Y1006492D01*
Y1008492D01*
X1336500Y1009491D01*
X1332502D01*
X1331502Y1008492D01*
Y1006492D01*
X1332502Y1005493D01*
X1333501D01*
X1334501Y1006492D01*
Y1009491D01*
X1331502Y1015489D02*
X1332502Y1013490D01*
X1334501Y1011491D01*
X1336500D01*
X1337500Y1012490D01*
Y1014490D01*
X1336500Y1015489D01*
X1335501D01*
X1334501Y1014490D01*
Y1011491D01*
M02*
