%FSLAX25Y25*%
%MOIN*%
G70*
G01*
G75*
G04 Layer_Physical_Order=1*
G04 Layer_Color=255*
%ADD10P,0.08352X4X360.0*%
%ADD11P,0.08352X4X270.0*%
%ADD12P,0.08352X4X75.0*%
%ADD13P,0.08352X4X115.0*%
%ADD14P,0.08352X4X155.0*%
%ADD15P,0.08352X4X195.0*%
%ADD16P,0.08352X4X235.0*%
%ADD17P,0.08352X4X275.0*%
%ADD18R,0.05906X0.05906*%
%ADD19P,0.08352X4X355.0*%
%ADD20P,0.08352X4X395.0*%
%ADD21R,0.05906X0.05906*%
%ADD22C,0.02500*%
%ADD23C,0.04000*%
G36*
X1464922Y946343D02*
X1464031Y945326D01*
X1462823Y943520D01*
X1461863Y941571D01*
X1461493Y940484D01*
X1460127Y939865D01*
X1458936Y940358D01*
X1457500Y940547D01*
X1456292Y940388D01*
X1455628Y941734D01*
X1461604Y947709D01*
X1464303D01*
X1464922Y946343D01*
D02*
G37*
G36*
X1320231Y975585D02*
X1318796Y975149D01*
X1318468Y975640D01*
X1317035Y977273D01*
X1315402Y978706D01*
X1313595Y979913D01*
X1311647Y980874D01*
X1309590Y981572D01*
X1307459Y981996D01*
X1305291Y982138D01*
X1303173Y981999D01*
X1303120Y982246D01*
X1302886Y983784D01*
D01*
X1303658Y983902D01*
X1303856Y983902D01*
Y983902D01*
X1303856Y983902D01*
X1303856Y983902D01*
Y983902D01*
D01*
X1316563D01*
Y983902D01*
X1316563D01*
X1316563Y983902D01*
X1317437D01*
Y983902D01*
X1320231D01*
Y975585D01*
D02*
G37*
G36*
X1481166Y1005863D02*
X1482288Y1005523D01*
X1483321Y1004970D01*
X1484227Y1004227D01*
X1484970Y1003321D01*
X1485523Y1002287D01*
X1485863Y1001166D01*
X1485978Y1000000D01*
X1485863Y998834D01*
X1485523Y997713D01*
X1484970Y996679D01*
X1484227Y995773D01*
X1483321Y995030D01*
X1482288Y994477D01*
X1481166Y994137D01*
X1480000Y994022D01*
X1478834Y994137D01*
X1477713Y994477D01*
X1476679Y995030D01*
X1475773Y995773D01*
X1475030Y996679D01*
X1474477Y997713D01*
X1474137Y998834D01*
X1474022Y1000000D01*
X1474137Y1001166D01*
X1474477Y1002287D01*
X1475030Y1003321D01*
X1475773Y1004227D01*
X1476679Y1004970D01*
X1477713Y1005523D01*
X1478834Y1005863D01*
X1480000Y1005978D01*
X1481166Y1005863D01*
D02*
G37*
G36*
X1401264Y951355D02*
X1402480Y950987D01*
X1403600Y950388D01*
X1404582Y949582D01*
X1405388Y948600D01*
X1405987Y947480D01*
X1406355Y946264D01*
X1406480Y945000D01*
X1406355Y943736D01*
X1405987Y942520D01*
X1405388Y941400D01*
X1404582Y940418D01*
X1403600Y939612D01*
X1402480Y939013D01*
X1401264Y938645D01*
X1400000Y938520D01*
X1398736Y938645D01*
X1397520Y939013D01*
X1396400Y939612D01*
X1395418Y940418D01*
X1394612Y941400D01*
X1394013Y942520D01*
X1393645Y943736D01*
X1393520Y945000D01*
X1393645Y946264D01*
X1394013Y947480D01*
X1394612Y948600D01*
X1395418Y949582D01*
X1396400Y950388D01*
X1397520Y950987D01*
X1398736Y951355D01*
X1400000Y951480D01*
X1401264Y951355D01*
D02*
G37*
G36*
X1430747Y949645D02*
X1430711Y949557D01*
X1430372Y948740D01*
X1430209Y947500D01*
X1430209Y947500D01*
X1430209D01*
X1430209Y947500D01*
X1430209D01*
Y940000D01*
X1430209Y940000D01*
X1430209D01*
X1430372Y938760D01*
X1430711Y937943D01*
X1430851Y937605D01*
X1431612Y936612D01*
X1431612Y936612D01*
X1431612Y936612D01*
X1435209Y933016D01*
Y929484D01*
X1433204Y927479D01*
X1432442Y926487D01*
X1432302Y926149D01*
X1431964Y925331D01*
X1431800Y924092D01*
Y922395D01*
X1427777Y920072D01*
X1434230Y908896D01*
X1434230Y908896D01*
X1434230D01*
X1434263Y908800D01*
X1433606Y907451D01*
X1429302Y905966D01*
X1423571Y904368D01*
X1417754Y903120D01*
X1411872Y902224D01*
X1405947Y901686D01*
X1400032Y901507D01*
X1399051Y902642D01*
X1399510Y905249D01*
X1402540D01*
X1403780Y905412D01*
X1404935Y905891D01*
X1405928Y906652D01*
X1410888Y911612D01*
X1411649Y912605D01*
X1411789Y912943D01*
X1412128Y913760D01*
X1412291Y915000D01*
Y923015D01*
X1420888Y931612D01*
X1421649Y932605D01*
X1421847Y933083D01*
X1422128Y933760D01*
X1422291Y935000D01*
Y950209D01*
X1427641D01*
X1428881Y950372D01*
X1429687Y950706D01*
X1430747Y949645D01*
D02*
G37*
G36*
X1450936Y918542D02*
X1458039Y922642D01*
X1458952Y921452D01*
X1457807Y920307D01*
X1455951Y918941D01*
X1450955Y915711D01*
X1445772Y912788D01*
X1440423Y910184D01*
X1436992Y908762D01*
X1436329Y910108D01*
X1445406Y915349D01*
X1441460Y922184D01*
X1443388Y924112D01*
X1444149Y925105D01*
X1444347Y925583D01*
X1444628Y926260D01*
X1444667Y926559D01*
X1446138Y926852D01*
X1450936Y918542D01*
D02*
G37*
G36*
X1361166Y936581D02*
X1362288Y936240D01*
X1363321Y935688D01*
X1364227Y934945D01*
X1364970Y934039D01*
X1365523Y933006D01*
X1365863Y931884D01*
X1365978Y930718D01*
X1365863Y929552D01*
X1365523Y928430D01*
X1364970Y927397D01*
X1364227Y926491D01*
X1363321Y925748D01*
X1362288Y925195D01*
X1361166Y924855D01*
X1360000Y924740D01*
X1358834Y924855D01*
X1357712Y925195D01*
X1356679Y925748D01*
X1355773Y926491D01*
X1355030Y927397D01*
X1354477Y928430D01*
X1354137Y929552D01*
X1354022Y930718D01*
X1354137Y931884D01*
X1354477Y933006D01*
X1355030Y934039D01*
X1355773Y934945D01*
X1356679Y935688D01*
X1357712Y936240D01*
X1358834Y936581D01*
X1360000Y936696D01*
X1361166Y936581D01*
D02*
G37*
G36*
X1417676Y1018058D02*
X1417676Y1018058D01*
X1417676D01*
X1417808Y1017926D01*
X1418426Y1017308D01*
X1418426Y1017308D01*
X1418426Y1017308D01*
X1418426D01*
X1418426D01*
X1422760Y1012973D01*
Y997036D01*
X1417484Y991760D01*
X1416098Y992334D01*
Y999376D01*
X1416098Y999376D01*
D01*
D01*
D01*
D01*
D01*
D01*
D01*
X1416098Y999563D01*
Y999743D01*
Y1000000D01*
Y1000128D01*
Y1000437D01*
X1416098Y1000572D01*
X1416098Y1000624D01*
X1416098Y1000624D01*
D01*
D01*
D01*
X1416098Y1000624D01*
D01*
Y1013342D01*
X1410933D01*
X1408567Y1015709D01*
X1409230Y1017054D01*
X1410000Y1016953D01*
X1411436Y1017142D01*
X1412774Y1017696D01*
X1413923Y1018577D01*
X1414634Y1019505D01*
X1416131Y1019603D01*
X1417676Y1018058D01*
D02*
G37*
G36*
X1401264Y1061355D02*
X1402480Y1060987D01*
X1403600Y1060388D01*
X1404582Y1059582D01*
X1405388Y1058600D01*
X1405987Y1057480D01*
X1406355Y1056264D01*
X1406480Y1055000D01*
X1406355Y1053736D01*
X1405987Y1052520D01*
X1405388Y1051400D01*
X1404582Y1050418D01*
X1403600Y1049612D01*
X1402480Y1049013D01*
X1401264Y1048645D01*
X1400000Y1048520D01*
X1398736Y1048645D01*
X1397520Y1049013D01*
X1396400Y1049612D01*
X1395418Y1050418D01*
X1394612Y1051400D01*
X1394013Y1052520D01*
X1393645Y1053736D01*
X1393520Y1055000D01*
X1393645Y1056264D01*
X1394013Y1057480D01*
X1394612Y1058600D01*
X1395418Y1059582D01*
X1396400Y1060388D01*
X1397520Y1060987D01*
X1398736Y1061355D01*
X1400000Y1061480D01*
X1401264Y1061355D01*
D02*
G37*
G36*
X1361166Y1075145D02*
X1362288Y1074805D01*
X1363321Y1074252D01*
X1364227Y1073509D01*
X1364970Y1072603D01*
X1365523Y1071570D01*
X1365863Y1070448D01*
X1365978Y1069282D01*
X1365863Y1068116D01*
X1365523Y1066994D01*
X1364970Y1065961D01*
X1364227Y1065055D01*
X1363321Y1064312D01*
X1362288Y1063760D01*
X1361166Y1063419D01*
X1360000Y1063304D01*
X1358834Y1063419D01*
X1357712Y1063760D01*
X1356679Y1064312D01*
X1355773Y1065055D01*
X1355030Y1065961D01*
X1354477Y1066994D01*
X1354137Y1068116D01*
X1354022Y1069282D01*
X1354137Y1070448D01*
X1354477Y1071570D01*
X1355030Y1072603D01*
X1355773Y1073509D01*
X1356679Y1074252D01*
X1357712Y1074805D01*
X1358834Y1075145D01*
X1360000Y1075260D01*
X1361166Y1075145D01*
D02*
G37*
G36*
X1405947Y1098314D02*
X1411872Y1097776D01*
X1412288Y1097712D01*
X1412500Y1097500D01*
X1413683D01*
X1417754Y1096880D01*
X1423571Y1095632D01*
X1429302Y1094034D01*
X1433159Y1092703D01*
X1433816Y1091354D01*
X1433730Y1091104D01*
X1433730D01*
X1433730Y1091104D01*
X1427574Y1080442D01*
X1426087Y1080247D01*
X1412986Y1093348D01*
X1411993Y1094109D01*
X1410838Y1094588D01*
X1409598Y1094751D01*
X1400010D01*
X1399553Y1097343D01*
X1400535Y1098478D01*
X1405947Y1098314D01*
D02*
G37*
G36*
X1467097Y1051608D02*
X1468903Y1050401D01*
X1470852Y1049440D01*
X1472909Y1048742D01*
X1475040Y1048318D01*
X1477208Y1048176D01*
X1479376Y1048318D01*
X1481507Y1048742D01*
X1483564Y1049440D01*
X1484600Y1049951D01*
X1484918Y1049349D01*
X1484606Y1048233D01*
X1484532Y1048191D01*
D01*
X1472405Y1043777D01*
X1472405Y1043777D01*
X1471583Y1043478D01*
D01*
X1471583Y1043478D01*
X1467341Y1041934D01*
X1464791Y1044485D01*
Y1051812D01*
X1466157Y1052431D01*
X1467097Y1051608D01*
D02*
G37*
G36*
X1404453Y1022500D02*
D01*
X1404453Y1022500D01*
X1404642Y1021064D01*
X1404704Y1020914D01*
X1403913Y1019639D01*
X1403740Y1019628D01*
X1403740D01*
Y1019628D01*
D01*
D01*
X1403740Y1019628D01*
D01*
X1402500Y1019791D01*
X1385517D01*
X1384943Y1021177D01*
X1386476Y1022709D01*
X1402500D01*
X1403740Y1022872D01*
X1404453Y1022500D01*
D02*
G37*
G36*
X1325674Y1041569D02*
Y1041569D01*
X1325674Y1041569D01*
X1325817Y1041449D01*
X1326487Y1040887D01*
Y1040887D01*
Y1040887D01*
X1326487D01*
Y1040887D01*
X1329782Y1038122D01*
X1329848Y1036623D01*
X1322874Y1029650D01*
X1321334Y1030173D01*
X1321758Y1032303D01*
X1321900Y1034471D01*
X1321758Y1036639D01*
X1321334Y1038770D01*
X1320636Y1040827D01*
X1319675Y1042776D01*
X1318468Y1044582D01*
X1317035Y1046216D01*
X1315402Y1047648D01*
X1315000Y1047917D01*
Y1048751D01*
X1316360Y1049385D01*
X1325674Y1041569D01*
D02*
G37*
G36*
X1388024Y1088409D02*
X1389069Y1082485D01*
X1401778Y1084726D01*
Y1084726D01*
X1402150Y1085169D01*
X1407613D01*
X1421998Y1070784D01*
X1420387Y1067994D01*
X1431564Y1061541D01*
X1438016Y1072718D01*
Y1072718D01*
X1438016Y1072718D01*
X1438016D01*
X1438453Y1073475D01*
X1438453D01*
X1438453Y1073475D01*
X1440776Y1077499D01*
X1442702D01*
X1443564Y1077142D01*
X1445000Y1076952D01*
X1446387Y1077135D01*
X1446523Y1076932D01*
X1447066Y1075620D01*
X1443984Y1070282D01*
X1454397Y1064270D01*
X1455209Y1063458D01*
Y1042500D01*
X1455372Y1041260D01*
X1455711Y1040443D01*
X1455851Y1040104D01*
X1456612Y1039112D01*
X1461056Y1034668D01*
X1463870Y1026937D01*
X1475997Y1031351D01*
X1475997Y1031351D01*
X1476819Y1031650D01*
D01*
X1476819D01*
D01*
Y1031650D01*
X1476819D01*
D01*
Y1031650D01*
X1482043Y1033551D01*
X1482142Y1033564D01*
X1482696Y1032226D01*
X1483577Y1031077D01*
X1484726Y1030196D01*
X1485980Y1029676D01*
X1485962Y1028869D01*
X1485868Y1028148D01*
X1479003Y1025649D01*
X1482848Y1015085D01*
X1481940Y1013891D01*
X1480000Y1014043D01*
X1477803Y1013870D01*
X1475660Y1013356D01*
X1473625Y1012513D01*
X1471746Y1011361D01*
X1470070Y1009930D01*
X1468639Y1008254D01*
X1467487Y1006376D01*
X1466644Y1004340D01*
X1466130Y1002197D01*
X1465957Y1000000D01*
X1466130Y997803D01*
X1466644Y995660D01*
X1467487Y993624D01*
X1468639Y991746D01*
X1470063Y990078D01*
X1466054Y979064D01*
X1478181Y974650D01*
D01*
X1479003Y974351D01*
X1479003Y974351D01*
X1481761Y973347D01*
X1482365Y971974D01*
X1482142Y971436D01*
X1481952Y970000D01*
X1482142Y968564D01*
X1482478Y967751D01*
X1481441Y966668D01*
X1476819Y968350D01*
X1473756Y959936D01*
X1471111Y957291D01*
X1459619D01*
X1458379Y957128D01*
X1457224Y956649D01*
X1456231Y955888D01*
X1448007Y947663D01*
X1441090Y943670D01*
X1439791Y944420D01*
Y945516D01*
X1448388Y954112D01*
X1449149Y955105D01*
X1449347Y955583D01*
X1449628Y956260D01*
X1449791Y957500D01*
Y964744D01*
D01*
D01*
D01*
D01*
X1449791D01*
D01*
D01*
D01*
D01*
D01*
X1449791D01*
Y964744D01*
D01*
D01*
Y964744D01*
D01*
D01*
D01*
D01*
D01*
D01*
D01*
D01*
D01*
D01*
D01*
D01*
Y964744D01*
D01*
X1449791D01*
D01*
D01*
D01*
D01*
D01*
D01*
D01*
X1449791Y964744D01*
D01*
D01*
D01*
X1449628Y965984D01*
X1449149Y967139D01*
X1449043Y967277D01*
X1450318Y968551D01*
X1441192Y977677D01*
X1432067Y968551D01*
Y968551D01*
X1431449Y967933D01*
Y967933D01*
X1423306Y959791D01*
X1420291D01*
X1420274Y959804D01*
X1418936Y960358D01*
X1418914Y960361D01*
X1416880Y962395D01*
X1417808Y963323D01*
X1417808Y963323D01*
X1417808Y963323D01*
X1426933Y972449D01*
X1422599Y976783D01*
Y983323D01*
X1430939Y991663D01*
Y991663D01*
D01*
D01*
D01*
X1430939Y991663D01*
D01*
Y991663D01*
D01*
X1430939D01*
Y991663D01*
D01*
Y991663D01*
Y991663D01*
X1430939D01*
D01*
D01*
Y991663D01*
D01*
D01*
D01*
D01*
D01*
D01*
Y991664D01*
D01*
D01*
X1430939D01*
D01*
X1430939Y991663D01*
D01*
D01*
X1431700Y992656D01*
X1432179Y993811D01*
X1432342Y995051D01*
Y1012973D01*
X1436677Y1017308D01*
X1427683Y1026301D01*
X1427683Y1026301D01*
X1427683D01*
X1427551Y1026433D01*
X1427242Y1026742D01*
X1426933Y1027051D01*
X1426801Y1027183D01*
Y1027183D01*
X1426801Y1027183D01*
X1419469Y1034515D01*
X1420043Y1035901D01*
X1427114D01*
X1431449Y1031567D01*
X1440574Y1040692D01*
X1431449Y1049818D01*
X1427114Y1045483D01*
X1415692D01*
X1414452Y1045320D01*
X1413297Y1044841D01*
X1412305Y1044080D01*
X1400515Y1032291D01*
X1398681D01*
X1397848Y1033538D01*
X1397858Y1033564D01*
X1398048Y1035000D01*
X1397858Y1036436D01*
X1397304Y1037774D01*
X1396423Y1038923D01*
X1395445Y1039672D01*
X1396091Y1041026D01*
X1397725Y1040634D01*
X1400000Y1040455D01*
X1402275Y1040634D01*
X1404495Y1041167D01*
X1406603Y1042041D01*
X1408549Y1043233D01*
X1410285Y1044715D01*
X1411767Y1046451D01*
X1412959Y1048397D01*
X1413833Y1050505D01*
X1414366Y1052725D01*
X1414545Y1055000D01*
X1414366Y1057275D01*
X1413833Y1059495D01*
X1412959Y1061603D01*
X1411767Y1063549D01*
X1410285Y1065285D01*
X1408549Y1066767D01*
X1406603Y1067959D01*
X1404495Y1068833D01*
X1402275Y1069366D01*
X1400000Y1069545D01*
X1397725Y1069366D01*
X1395505Y1068833D01*
X1393397Y1067959D01*
X1391451Y1066767D01*
X1389715Y1065285D01*
X1388233Y1063549D01*
X1387041Y1061603D01*
X1386167Y1059495D01*
X1385634Y1057275D01*
X1385455Y1055000D01*
X1385634Y1052725D01*
X1386167Y1050505D01*
X1387041Y1048397D01*
X1388233Y1046451D01*
X1389715Y1044715D01*
X1390701Y1043874D01*
X1390090Y1042503D01*
X1389742Y1042549D01*
X1380258D01*
X1379018Y1042386D01*
X1377863Y1041908D01*
X1376871Y1041146D01*
X1371964Y1036240D01*
X1363142D01*
X1358808Y1040574D01*
X1349682Y1031449D01*
X1357983Y1023148D01*
X1357696Y1022774D01*
X1357142Y1021436D01*
X1356952Y1020000D01*
X1357142Y1018564D01*
X1357696Y1017226D01*
X1358577Y1016077D01*
X1359726Y1015196D01*
X1361064Y1014642D01*
X1361086Y1014639D01*
X1361305Y1014420D01*
X1362297Y1013659D01*
X1362775Y1013460D01*
X1363452Y1013180D01*
X1364692Y1013017D01*
X1368114D01*
X1370928Y1010203D01*
X1365516Y1004791D01*
X1365291D01*
X1365274Y1004804D01*
X1363936Y1005358D01*
X1362500Y1005548D01*
X1361064Y1005358D01*
X1359726Y1004804D01*
X1358577Y1003923D01*
X1357696Y1002774D01*
X1357142Y1001436D01*
X1356952Y1000000D01*
X1357142Y998564D01*
X1357696Y997226D01*
X1358577Y996077D01*
X1359726Y995196D01*
X1361064Y994642D01*
X1362500Y994452D01*
X1363936Y994642D01*
X1365274Y995196D01*
X1365291Y995209D01*
X1367500D01*
X1368740Y995372D01*
X1369557Y995711D01*
X1369895Y995851D01*
X1370888Y996612D01*
Y996612D01*
X1370888D01*
D01*
D01*
D01*
D01*
D01*
D01*
X1370888D01*
D01*
X1370888D01*
Y996612D01*
D01*
D01*
D01*
D01*
Y996612D01*
D01*
D01*
D01*
D01*
D01*
D01*
Y996612D01*
D01*
D01*
X1370888D01*
D01*
D01*
D01*
D01*
D01*
X1384484Y1010209D01*
X1400515D01*
X1403193Y1007532D01*
Y1000624D01*
X1403193Y1000624D01*
X1403193Y1000624D01*
X1403193Y1000437D01*
Y999563D01*
D01*
D01*
X1403193D01*
Y986658D01*
X1405209D01*
Y984484D01*
X1397964Y977240D01*
X1387027D01*
X1382824Y981442D01*
X1382824Y981442D01*
X1382824D01*
X1382692Y981574D01*
X1382383Y981883D01*
X1382074Y982192D01*
X1381942Y982324D01*
Y982324D01*
X1381942Y982324D01*
X1380899Y983367D01*
X1384189Y986658D01*
X1396807D01*
Y999563D01*
X1383902D01*
Y997901D01*
X1383867D01*
X1382627Y997738D01*
X1381471Y997259D01*
X1380479Y996498D01*
X1374124Y990143D01*
X1372949Y991318D01*
X1363823Y982192D01*
X1372817Y973199D01*
X1372817Y973199D01*
X1372817D01*
X1372949Y973067D01*
X1373567Y972449D01*
X1373567Y972449D01*
X1373567Y972449D01*
X1373567D01*
X1373567D01*
X1382692Y963323D01*
X1387027Y967658D01*
X1398067D01*
X1405868Y959857D01*
X1405035Y958609D01*
X1404495Y958833D01*
X1402275Y959366D01*
X1400000Y959545D01*
X1397725Y959366D01*
X1395505Y958833D01*
X1393397Y957959D01*
X1391451Y956767D01*
X1389715Y955285D01*
X1388233Y953549D01*
X1387041Y951603D01*
X1386383Y950016D01*
X1384912Y949723D01*
X1377752Y956883D01*
Y958383D01*
X1378177Y958808D01*
X1369051Y967933D01*
X1359926Y958808D01*
X1369051Y949682D01*
X1370226Y950857D01*
X1380209Y940874D01*
Y934806D01*
X1380209Y934806D01*
X1380209D01*
X1380372Y933566D01*
X1380711Y932749D01*
X1380851Y932410D01*
X1381612Y931418D01*
X1381612Y931418D01*
X1381612Y931418D01*
X1389610Y923420D01*
X1388720Y918376D01*
X1388720D01*
X1388568Y917515D01*
X1388568D01*
X1386327Y904806D01*
X1395838Y903129D01*
X1395685Y901637D01*
X1394053Y901686D01*
X1388128Y902224D01*
X1382246Y903120D01*
X1376429Y904368D01*
X1370698Y905966D01*
X1370240Y906124D01*
X1370616Y907576D01*
X1380039Y905915D01*
X1382280Y918624D01*
X1371429Y920537D01*
X1370922Y921949D01*
X1371361Y922464D01*
X1372513Y924342D01*
X1373356Y926378D01*
X1373870Y928521D01*
X1374043Y930718D01*
X1373870Y932915D01*
X1373356Y935058D01*
X1372513Y937094D01*
X1371361Y938972D01*
X1369930Y940648D01*
X1368254Y942079D01*
X1366376Y943231D01*
X1364340Y944074D01*
X1362197Y944588D01*
X1360000Y944761D01*
X1357803Y944588D01*
X1356253Y944216D01*
X1348773Y953131D01*
X1338887Y944835D01*
X1338887Y944835D01*
X1338218Y944273D01*
X1338218Y944273D01*
Y944273D01*
X1334717Y941336D01*
X1333923Y941423D01*
X1332774Y942304D01*
X1331436Y942858D01*
X1330000Y943048D01*
X1328888Y942901D01*
X1328284Y944274D01*
X1334113Y949165D01*
X1329813Y954289D01*
Y983902D01*
X1330342D01*
Y996807D01*
X1317437D01*
D01*
D01*
X1317437Y996807D01*
X1316563D01*
Y996807D01*
X1314901D01*
Y997390D01*
X1314738Y998630D01*
X1314259Y999785D01*
X1313498Y1000778D01*
X1312861Y1001414D01*
X1312858Y1001436D01*
X1312304Y1002774D01*
X1312511Y1003193D01*
X1316563D01*
Y1009787D01*
X1338966Y1032190D01*
X1339727Y1033182D01*
X1340205Y1034338D01*
X1340369Y1035578D01*
D01*
D01*
D01*
D01*
D01*
X1340369D01*
D01*
D01*
D01*
D01*
Y1035578D01*
X1340369D01*
D01*
Y1035578D01*
D01*
D01*
D01*
D01*
D01*
D01*
D01*
D01*
D01*
D01*
D01*
D01*
Y1035578D01*
D01*
X1340369D01*
D01*
D01*
D01*
D01*
X1340369Y1035578D01*
Y1037353D01*
X1344669Y1042478D01*
X1334782Y1050773D01*
X1334782Y1050773D01*
X1334782Y1050773D01*
D01*
X1334113Y1051335D01*
X1334113Y1051335D01*
X1334113Y1051335D01*
X1329813Y1054943D01*
Y1055005D01*
X1330274Y1055196D01*
X1331423Y1056077D01*
X1332304Y1057226D01*
X1332858Y1058564D01*
X1332911Y1058963D01*
X1334309Y1059507D01*
X1338218Y1056227D01*
X1345347Y1064723D01*
X1346829Y1064495D01*
X1347487Y1062906D01*
X1348639Y1061028D01*
X1350070Y1059352D01*
X1351746Y1057921D01*
X1353625Y1056769D01*
X1355660Y1055926D01*
X1357803Y1055412D01*
X1360000Y1055239D01*
X1362197Y1055412D01*
X1364340Y1055926D01*
X1366376Y1056769D01*
X1368254Y1057921D01*
X1369930Y1059352D01*
X1371361Y1061028D01*
X1372513Y1062906D01*
X1373356Y1064942D01*
X1373551Y1065757D01*
X1385172Y1067806D01*
X1382932Y1080515D01*
X1382932D01*
X1382780Y1081376D01*
X1382780Y1081376D01*
X1382780Y1081376D01*
X1382086Y1085310D01*
X1383914Y1087139D01*
X1383936Y1087142D01*
X1385274Y1087696D01*
X1386423Y1088577D01*
X1386567Y1088765D01*
X1388024Y1088409D01*
D02*
G37*
D10*
X1382192Y1027551D02*
D03*
X1372449Y1017808D02*
D03*
X1368551Y1041192D02*
D03*
X1358808Y1031449D02*
D03*
X1441192Y968551D02*
D03*
X1431449Y958808D02*
D03*
X1427551Y982192D02*
D03*
X1417808Y972449D02*
D03*
D11*
X1427551Y1017308D02*
D03*
X1417808Y1027051D02*
D03*
X1441192Y1030949D02*
D03*
X1431449Y1040692D02*
D03*
X1372949Y982192D02*
D03*
X1382692Y972449D02*
D03*
X1359308Y968551D02*
D03*
X1369051Y958808D02*
D03*
D12*
X1446408Y939289D02*
D03*
X1453298Y927356D02*
D03*
X1429702Y929644D02*
D03*
X1436592Y917710D02*
D03*
D13*
X1474325Y982920D02*
D03*
X1487273Y978207D02*
D03*
X1467727Y964793D02*
D03*
X1480675Y960080D02*
D03*
D14*
X1467727Y1035207D02*
D03*
X1480675Y1039920D02*
D03*
X1474325Y1017080D02*
D03*
X1487273Y1021793D02*
D03*
D15*
X1429202Y1070356D02*
D03*
X1436092Y1082290D02*
D03*
X1445909Y1060711D02*
D03*
X1452798Y1072644D02*
D03*
D16*
X1377697Y1073040D02*
D03*
X1375305Y1086610D02*
D03*
X1396696Y1076390D02*
D03*
X1394303Y1089960D02*
D03*
D17*
X1335578Y1041682D02*
D03*
X1325022Y1050540D02*
D03*
X1347978Y1056460D02*
D03*
X1337422Y1065318D02*
D03*
D18*
X1323890Y990354D02*
D03*
X1310110D02*
D03*
X1323890Y1009646D02*
D03*
X1310110D02*
D03*
D19*
X1347978Y944040D02*
D03*
X1337422Y935182D02*
D03*
X1335578Y958818D02*
D03*
X1325022Y949960D02*
D03*
D20*
X1396196Y923610D02*
D03*
X1393803Y910040D02*
D03*
X1377197Y926960D02*
D03*
X1374804Y913390D02*
D03*
D21*
X1409646Y1006890D02*
D03*
Y993110D02*
D03*
X1390354Y1006890D02*
D03*
Y993110D02*
D03*
D22*
X1383867D02*
X1390354D01*
X1372949Y982192D02*
X1383867Y993110D01*
X1369051Y958808D02*
X1385000Y942859D01*
Y934806D02*
X1396196Y923610D01*
X1385000Y934806D02*
Y942859D01*
X1356610Y913390D02*
X1374804D01*
X1345000Y941062D02*
X1347978Y944040D01*
X1345000Y925000D02*
Y941062D01*
Y925000D02*
X1356610Y913390D01*
X1325022Y949960D02*
Y989222D01*
X1323890Y990354D02*
X1325022Y989222D01*
X1310110Y1009646D02*
Y1010110D01*
X1335578Y1035578D02*
Y1041682D01*
X1310110Y1010110D02*
X1335578Y1035578D01*
X1337422Y1065318D02*
Y1067422D01*
X1352500Y1082500D01*
X1355000Y1085000D01*
X1365000D01*
X1376960Y1073040D01*
X1377697D01*
X1394303Y1089960D02*
X1409598D01*
X1429202Y1070356D01*
X1467292Y1035207D02*
X1467727D01*
X1452798Y1072644D02*
X1460000Y1065442D01*
Y1042500D02*
Y1065442D01*
Y1042500D02*
X1467292Y1035207D01*
X1487273Y1021793D02*
X1495000Y1014066D01*
X1490000Y987500D02*
X1495000Y992500D01*
X1484395Y987500D02*
X1490000D01*
X1479815Y982920D02*
X1484395Y987500D01*
X1474325Y982920D02*
X1479815D01*
X1495000Y992500D02*
Y1014066D01*
X1473096Y952500D02*
X1480675Y960080D01*
X1446408Y939289D02*
X1459619Y952500D01*
X1473096D01*
X1436592Y917710D02*
Y924092D01*
X1440000Y927500D01*
X1435000Y940000D02*
X1440000Y935000D01*
X1435000Y940000D02*
Y947500D01*
X1441192Y968551D02*
X1445000Y964744D01*
X1435000Y947500D02*
X1445000Y957500D01*
X1440000Y927500D02*
Y935000D01*
X1445000Y957500D02*
Y964744D01*
X1417808Y972449D02*
Y985308D01*
X1427551Y995051D02*
Y1017308D01*
X1417808Y985308D02*
X1427551Y995051D01*
X1415692Y1040692D02*
X1431449D01*
X1402500Y1027500D02*
X1415692Y1040692D01*
X1382244Y1027500D02*
X1402500D01*
X1382192Y1027551D02*
X1382244Y1027500D01*
X1381890Y1006890D02*
X1390354D01*
X1357500Y972500D02*
Y982500D01*
Y972500D02*
X1359308Y970692D01*
Y968551D02*
Y970692D01*
X1357500Y982500D02*
X1381890Y1006890D01*
X1335578Y958818D02*
Y970578D01*
X1347500Y982500D02*
X1357500D01*
X1323890Y1009646D02*
X1337854D01*
X1347500Y1000000D01*
Y982500D02*
Y1000000D01*
X1347978Y1019769D02*
Y1056460D01*
X1337854Y1009646D02*
X1347978Y1019769D01*
X1363246Y1041192D02*
X1368551D01*
X1347978Y1056460D02*
X1363246Y1041192D01*
X1368551D02*
Y1048551D01*
X1396390Y1076390D01*
X1440198Y1055000D02*
X1445909Y1060711D01*
X1406110Y1076390D02*
X1427500Y1055000D01*
X1440198D01*
X1441192Y1030949D02*
X1445000Y1034756D01*
X1440198Y1055000D02*
X1445000Y1050198D01*
Y1034756D02*
Y1050198D01*
X1441192Y1030949D02*
X1441551D01*
X1455420Y1017080D02*
X1474325D01*
X1396390Y1076390D02*
X1406110D01*
X1441551Y1030949D02*
X1455420Y1017080D01*
X1455000Y1016659D02*
X1455420Y1017080D01*
X1427144Y929644D02*
X1429702D01*
X1422500Y925000D02*
X1427144Y929644D01*
X1422500Y917500D02*
Y925000D01*
X1377197Y926960D02*
Y937803D01*
X1375000Y940000D02*
X1377197Y937803D01*
X1355000Y964244D02*
X1359308Y968551D01*
X1355000Y957500D02*
Y964244D01*
Y957500D02*
X1372500Y940000D01*
X1375000D01*
X1410000Y982500D02*
Y992756D01*
X1409646Y993110D02*
X1410000Y992756D01*
X1427641Y955000D02*
X1431449Y958808D01*
X1310110Y990354D02*
Y997390D01*
X1307500Y1000000D02*
X1310110Y997390D01*
X1325022Y1050540D02*
Y1057522D01*
X1327500Y1060000D01*
X1375305Y1086610D02*
X1376610D01*
X1382500Y1092500D01*
X1436092Y1082290D02*
X1444790D01*
X1480675Y1039920D02*
X1482580D01*
X1487500Y1035000D01*
X1487273Y970227D02*
Y978207D01*
Y970227D02*
X1487500Y970000D01*
X1453298Y927356D02*
Y930798D01*
X1457500Y935000D01*
X1393803Y910040D02*
X1402540D01*
X1407500Y915000D01*
Y925000D01*
X1417500Y935000D01*
X1409646Y1006890D02*
Y1007854D01*
X1402500Y1015000D02*
X1409646Y1007854D01*
X1382500Y1015000D02*
X1402500D01*
X1367500Y1000000D02*
X1382500Y1015000D01*
X1362500Y1000000D02*
X1367500D01*
X1358808Y1031449D02*
X1373949D01*
X1465434Y962500D02*
X1467727Y964793D01*
X1460000Y962500D02*
X1465434D01*
X1447500Y950000D02*
X1460000Y962500D01*
X1332318Y935182D02*
X1337422D01*
X1330000Y937500D02*
X1332318Y935182D01*
X1340000Y980000D02*
Y987500D01*
Y980000D02*
X1342500Y977500D01*
X1335578Y970578D02*
X1347500Y982500D01*
X1414551Y1027051D02*
X1417808D01*
X1410000Y1022500D02*
X1414551Y1027051D01*
X1400051Y972449D02*
X1417500Y955000D01*
X1427641D01*
X1447500Y982192D02*
Y987500D01*
X1455000Y980000D02*
Y1016659D01*
X1427551Y982192D02*
X1452808D01*
X1467727Y967273D01*
X1364692Y1017808D02*
X1372449D01*
X1362500Y1020000D02*
X1364692Y1017808D01*
X1417500Y935000D02*
Y955000D01*
X1399949Y972449D02*
X1410000Y982500D01*
X1382692Y972449D02*
X1400051D01*
X1389742Y1037758D02*
X1392500Y1035000D01*
X1380258Y1037758D02*
X1389742D01*
X1373949Y1031449D02*
X1380258Y1037758D01*
D23*
X1422500Y917500D02*
D03*
X1307500Y1000000D02*
D03*
X1327500Y1060000D02*
D03*
X1382500Y1092500D02*
D03*
X1445000Y1082500D02*
D03*
X1487500Y1035000D02*
D03*
Y970000D02*
D03*
X1457500Y935000D02*
D03*
X1362500Y1000000D02*
D03*
X1392500Y1035000D02*
D03*
X1447500Y987500D02*
D03*
X1340000D02*
D03*
X1447500Y950000D02*
D03*
X1330000Y937500D02*
D03*
X1410000Y1022500D02*
D03*
X1362500Y1020000D02*
D03*
X1417500Y955000D02*
D03*
M02*
