  0
SECTION
  2
HEADER
  9
$ACADVER
  1
AC1015
  9
$ACADMAINTVER
 70
         6
  9
$DWGCODEPAGE
  3
ANSI_1252
  9
$INSBASE
 10
0.0
 20
0.0
 30
0.0
  9
$EXTMIN
 10
-0.93969262
 20
-0.98480775
 30
0.0
  9
$EXTMAX
 10
13.0
 20
12.98480775
 30
0.0
  9
$LIMMIN
 10
0.0
 20
0.0
  9
$LIMMAX
 10
0.0
 20
0.0
  9
$ORTHOMODE
 70
         0
  9
$REGENMODE
 70
         1
  9
$FILLMODE
 70
         1
  9
$QTEXTMODE
 70
         0
  9
$MIRRTEXT
 70
         1
  9
$LTSCALE
 40
1.0
  9
$ATTMODE
 70
         1
  9
$TEXTSIZE
 40
0.2
  9
$TRACEWID
 40
0.05
  9
$TEXTSTYLE
  7
Standard
  9
$CLAYER
  8
0
  9
$CELTYPE
  6
Continuous
  9
$CECOLOR
 62
       256
  9
$CELTSCALE
 40
1.0
  9
$DISPSILH
 70
         0
  9
$DIMSCALE
 40
1.0
  9
$DIMASZ
 40
0.18
  9
$DIMEXO
 40
0.0625
  9
$DIMDLI
 40
0.38
  9
$DIMRND
 40
0.0
  9
$DIMDLE
 40
0.0
  9
$DIMEXE
 40
0.18
  9
$DIMTP
 40
0.0
  9
$DIMTM
 40
0.0
  9
$DIMTXT
 40
0.18
  9
$DIMCEN
 40
0.09
  9
$DIMTSZ
 40
0.0
  9
$DIMTOL
 70
         0
  9
$DIMLIM
 70
         0
  9
$DIMTIH
 70
         1
  9
$DIMTOH
 70
         1
  9
$DIMSE1
 70
         0
  9
$DIMSE2
 70
         0
  9
$DIMTAD
 70
         0
  9
$DIMZIN
 70
         0
  9
$DIMBLK
  1

  9
$DIMASO
 70
         1
  9
$DIMSHO
 70
         1
  9
$DIMPOST
  1

  9
$DIMAPOST
  1

  9
$DIMALT
 70
         0
  9
$DIMALTD
 70
         2
  9
$DIMALTF
 40
25.4
  9
$DIMLFAC
 40
1.0
  9
$DIMTOFL
 70
         0
  9
$DIMTVP
 40
0.0
  9
$DIMTIX
 70
         0
  9
$DIMSOXD
 70
         0
  9
$DIMSAH
 70
         0
  9
$DIMBLK1
  1

  9
$DIMBLK2
  1

  9
$DIMSTYLE
  2
Standard
  9
$DIMCLRD
 70
         0
  9
$DIMCLRE
 70
         0
  9
$DIMCLRT
 70
         0
  9
$DIMTFAC
 40
1.0
  9
$DIMGAP
 40
0.09
  9
$DIMJUST
 70
         0
  9
$DIMSD1
 70
         0
  9
$DIMSD2
 70
         0
  9
$DIMTOLJ
 70
         1
  9
$DIMTZIN
 70
         0
  9
$DIMALTZ
 70
         0
  9
$DIMALTTZ
 70
         0
  9
$DIMUPT
 70
         0
  9
$DIMDEC
 70
         4
  9
$DIMTDEC
 70
         4
  9
$DIMALTU
 70
         2
  9
$DIMALTTD
 70
         2
  9
$DIMTXSTY
  7
Standard
  9
$DIMAUNIT
 70
         0
  9
$DIMADEC
 70
         0
  9
$DIMALTRND
 40
0.0
  9
$DIMAZIN
 70
         0
  9
$DIMDSEP
 70
         0
  9
$DIMATFIT
 70
         3
  9
$DIMFRAC
 70
         0
  9
$DIMLDRBLK
  1

  9
$DIMLUNIT
 70
         2
  9
$DIMLWD
 70
         0
  9
$DIMLWE
 70
         0
  9
$DIMTMOVE
 70
         0
  9
$LUNITS
 70
         2
  9
$LUPREC
 70
         4
  9
$SKETCHINC
 40
0.1
  9
$FILLETRAD
 40
0.0
  9
$AUNITS
 70
         0
  9
$AUPREC
 70
         0
  9
$MENU
  1
acad
  9
$ELEVATION
 40
0.0
  9
$PELEVATION
 40
0.0
  9
$THICKNESS
 40
0.0
  9
$LIMCHECK
 70
         0
  9
$CHAMFERA
 40
0.0
  9
$CHAMFERB
 40
0.0
  9
$CHAMFERC
 40
0.0
  9
$CHAMFERD
 40
0.0
  9
$SKPOLY
 70
         0
  9
$TDCREATE
 40
2461317.771446759
  9
$TDUCREATE
 40
0.000000000
  9
$TDUPDATE
 40
2461317.771446759
  9
$TDUUPDATE
 40
0.000000000
  9
$TDINDWG
 40
0.0000000000
  9
$TDUSRTIMER
 40
0.0000000000
  9
$USRTIMER
 70
         1
  9
$ANGBASE
 50
0.0
  9
$ANGDIR
 70
         0
  9
$PDMODE
 70
         0
  9
$PDSIZE
 40
0.0
  9
$PLINEWID
 40
0.0
  9
$SPLFRAME
 70
         0
  9
$SPLINETYPE
 70
         6
  9
$SPLINESEGS
 70
         8
  9
$HANDSEED
  5
5E
  9
$SURFTAB1
 70
         6
  9
$SURFTAB2
 70
         6
  9
$SURFTYPE
 70
         6
  9
$SURFU
 70
         6
  9
$SURFV
 70
         6
  9
$UCSBASE
  2

  9
$UCSNAME
  2

  9
$UCSORG
 10
0.0
 20
0.0
 30
0.0
  9
$UCSXDIR
 10
1.0
 20
0.0
 30
0.0
  9
$UCSYDIR
 10
0.0
 20
1.0
 30
0.0
  9
$UCSORTHOREF
  2

  9
$UCSORTHOVIEW
 70
         0
  9
$UCSORGTOP
 10
0.0
 20
0.0
 30
0.0
  9
$UCSORGBOTTOM
 10
0.0
 20
0.0
 30
0.0
  9
$UCSORGLEFT
 10
0.0
 20
0.0
 30
0.0
  9
$UCSORGRIGHT
 10
0.0
 20
0.0
 30
0.0
  9
$UCSORGFRONT
 10
0.0
 20
0.0
 30
0.0
  9
$UCSORGBACK
 10
0.0
 20
0.0
 30
0.0
  9
$PUCSBASE
  2

  9
$PUCSNAME
  2

  9
$PUCSORG
 10
0.0
 20
0.0
 30
0.0
  9
$PUCSXDIR
 10
1.0
 20
0.0
 30
0.0
  9
$PUCSYDIR
 10
0.0
 20
1.0
 30
0.0
  9
$PUCSORTHOREF
  2

  9
$PUCSORTHOVIEW
 70
         0
  9
$PUCSORGTOP
 10
0.0
 20
0.0
 30
0.0
  9
$PUCSORGBOTTOM
 10
0.0
 20
0.0
 30
0.0
  9
$PUCSORGLEFT
 10
0.0
 20
0.0
 30
0.0
  9
$PUCSORGRIGHT
 10
0.0
 20
0.0
 30
0.0
  9
$PUCSORGFRONT
 10
0.0
 20
0.0
 30
0.0
  9
$PUCSORGBACK
 10
0.0
 20
0.0
 30
0.0
  9
$USERI1
 70
         0
  9
$USERI2
 70
         0
  9
$USERI3
 70
         0
  9
$USERI4
 70
         0
  9
$USERI5
 70
         0
  9
$USERR1
 40
0.0
  9
$USERR2
 40
0.0
  9
$USERR3
 40
0.0
  9
$USERR4
 40
0.0
  9
$USERR5
 40
0.0
  9
$WORLDVIEW
 70
         1
  9
$SHADEDGE
 70
         3
  9
$SHADEDIF
 70
        70
  9
$TILEMODE
 70
         1
  9
$MAXACTVP
 70
        16
  9
$PINSBASE
 10
0.0
 20
0.0
 30
0.0
  9
$PLIMCHECK
 70
         0
  9
$PEXTMIN
 10
1.0000000000E+20
 20
1.0000000000E+20
 30
1.0000000000E+20
  9
$PEXTMAX
 10
-1.0000000000E+20
 20
-1.0000000000E+20
 30
-1.0000000000E+20
  9
$PLIMMIN
 10
0.0
 20
0.0
  9
$PLIMMAX
 10
12.0
 20
9.0
  9
$UNITMODE
 70
         0
  9
$VISRETAIN
 70
         0
  9
$PLINEGEN
 70
         1
  9
$PSLTSCALE
 70
         0
  9
$TREEDEPTH
 70
      3020
  9
$CMLSTYLE
  2
Standard
  9
$CMLJUST
 70
         0
  9
$CMLSCALE
 40
1.0
  9
$PROXYGRAPHICS
 70
         0
  9
$MEASUREMENT
 70
         0
  9
$CELWEIGHT
370
         0
  9
$ENDCAPS
280
         0
  9
$JOINSTYLE
280
         0
  9
$LWDISPLAY
290
         0
  9
$INSUNITS
 70
         0
  9
$HYPERLINKBASE
  1

  9
$XEDIT
290
         1
  9
$CEPSNTYPE
380
         0
  9
$PSTYLEMODE
290
         1
  9
$FINGERPRINTGUID
  2

  9
$VERSIONGUID
  2

  9
$EXTNAMES
290
         1
  9
$PSVPSCALE
 40
0.0
  0
ENDSEC
  0
SECTION
  2
CLASSES
  0
CLASS
  1
LWPOLYLINE
  2
AcDbPolyline
  3
AutoCAD 2000
 90
    32768
280
         0
281
         1
  0
CLASS
  1
IMAGE
  2
AcDbRasterImage
  3
ISM
 90
    32895
280
         0
281
         1
  0
CLASS
  1
OLE2FRAME
  2
AcDbOle2Frame
  3
AutoCAD 2000
 90
    32768
280
         0
281
         1
  0
CLASS
  1
HATCH
  2
AcDbHatch
  3
AutoCAD 2000
 90
    32768
280
         0
281
         1
  0
CLASS
  1
DICTIONARYVAR
  2
AcDbDictionaryVar
  3
AutoCAD 2000
 90
    32768
280
         0
281
         0
  0
CLASS
  1
RASTERVARIABLES
  2
AcDbRasterVariables
  3
ISM
 90
    32768
280
         0
281
         0
  0
CLASS
  1
IMAGEDEF
  2
AcDbRasterImageDef
  3
ISM
 90
    32768
280
         0
281
         0
  0
CLASS
  1
IMAGEDEF_REACTOR
  2
AcDbRasterImageDefReactor
  3
ISM
 90
    32769
280
         0
281
         0
  0
CLASS
  1
IDBUFFER
  2
AcDbIdBuffer
  3
AutoCAD 2000
 90
    32768
280
         0
281
         0
  0
CLASS
  1
SPATIAL_FILTER
  2
AcDbSpatialFilter
  3
AutoCAD 2000
 90
    32768
280
         0
281
         0
  0
CLASS
  1
XRECORD
  2
AcDbXrecord
  3
AutoCAD 2000
 90
    32768
280
         0
281
         0
  0
CLASS
  1
SORTENTSTABLE
  2
AcDbSortentsTable
  3
AutoCAD 2000
 90
    32768
280
         0
281
         0
  0
CLASS
  1
LAYER_INDEX
  2
AcDbLayerIndex
  3
AutoCAD 2000
 90
    32768
280
         0
281
         0
  0
CLASS
  1
SPATIAL_INDEX
  2
AcDbSpatialIndex
  3
AutoCAD 2000
 90
    32768
280
         0
281
         0
  0
CLASS
  1
OBJECT_PTR
  2
CAseDLPNTableRecord
  3
"ASE-LPNTableRecord"
 90
    32769
280
         0
281
         0
  0
CLASS
  1
LAYOUT
  2
AcDbLayout
  3
AutoCAD 2000
 90
        0
280
         0
281
         0
  0
CLASS
  1
PLOTSETTINGS
  2
AcDbPlotSettings
  3
AutoCAD 2000
 90
    32768
280
         0
281
         0
  0
CLASS
  1
ACDBDICTIONARYWDFLT
  2
AcDbDictionaryWithDefault
  3
AutoCAD 2000
 90
        0
280
         0
281
         0
  0
CLASS
  1
ACDBPLACEHOLDER
  2
AcDbPlaceHolder
  3
AutoCAD 2000
 90
        0
280
         0
281
         0
  0
CLASS
  1
VBA_PROJECT
  2
AcDbVbaProject
  3
acadvba
 90
    32768
280
         0
281
         0
  0
CLASS
  1
WIPEOUT
  2
AcDbWipeout
  3
WipeOut|AutoCAD Express Tool|expresstools@autodesk.com
 90
    32895
280
         0
281
         1
  0
CLASS
  1
WIPEOUTVARIABLES
  2
AcDbWipeoutVariables
  3
WipeOut|AutoCAD Express Tool|expresstools@autodesk.com
 90
        0
280
         0
281
         0
  0
CLASS
  1
RTEXT
  2
RText
  3
RText|AutoCAD Express Tool|expresstools@autodesk.com
 90
    32768
280
         0
281
         1
  0
CLASS
  1
ARCALIGNEDTEXT
  2
AcDbArcAlignedText
  3
ATEXT|AutoCAD Express Tool|expresstools@autodesk.com
 90
    32768
280
         0
281
         1
  0
ENDSEC
  0
SECTION
  2
TABLES
  0
TABLE
  2
VPORT
  5
7
100
AcDbSymbolTable
 70
         1
  0
VPORT
  5
15
100
AcDbSymbolTableRecord
100
AcDbViewportTableRecord
  2
*ACTIVE
 70
         0
 10
0.0
 20
0.0
 11
1.0
 21
1.0
 12
6.591288
 22
4.579184
 13
0.0
 23
0.0
 14
1.0
 24
1.0
 15
0.0
 25
0.0
 16
0.0
 26
0.0
 36
1.0
 17
0.0
 27
0.0
 37
0.0
 40
9.158369
 41
0.688564
 42
50.0
 43
0.0
 44
0.0
 50
0.0
 51
0.0
 71
         0
 72
       100
 73
         1
 74
         1
 75
         0
 76
         0
 77
         0
 78
         0
281
         0
 65
         0
110
0.0
120
0.0
130
0.0
111
1.0
121
0.0
131
0.0
112
0.0
122
1.0
132
0.0
345
0
346
0
 79
         0
146
0.0
  0
ENDTAB
  0
TABLE
  2
LTYPE
  5
4
100
AcDbSymbolTable
 70
        13
  0
LTYPE
  5
11
100
AcDbSymbolTableRecord
100
AcDbLinetypeTableRecord
  2
ByBlock
 70
        64
  3

 72
        65
 73
         0
 40
0.0
  0
LTYPE
  5
12
100
AcDbSymbolTableRecord
100
AcDbLinetypeTableRecord
  2
ByLayer
 70
        64
  3

 72
        65
 73
         0
 40
0.0
  0
LTYPE
  5
13
100
AcDbSymbolTableRecord
100
AcDbLinetypeTableRecord
  2
Continuous
 70
        64
  3
Solid line
 72
        65
 73
         0
 40
0.0
  0
LTYPE
  5
25
100
AcDbSymbolTableRecord
100
AcDbLinetypeTableRecord
  2
Dotted
 70
        64
  3
Dotted
 72
        65
 73
         2
 40
3.175
 49
0.0
 74
         0
 49
-3.175
 74
         0
  0
LTYPE
  5
26
100
AcDbSymbolTableRecord
100
AcDbLinetypeTableRecord
  2
Center
 70
        64
  3
Center
 72
        65
 73
         4
 40
19.5579995155
 49
12.7
 74
         0
 49
-1.841499947
 74
         0
 49
3.175
 74
         0
 49
-1.841499947
 74
         0
  0
LTYPE
  5
27
100
AcDbSymbolTableRecord
100
AcDbLinetypeTableRecord
  2
Dashed
 70
        64
  3
Dashed
 72
        65
 73
         2
 40
9.525
 49
6.35
 74
         0
 49
-3.175
 74
         0
  0
LTYPE
  5
28
100
AcDbSymbolTableRecord
100
AcDbLinetypeTableRecord
  2
Hidden
 70
        64
  3
Hidden
 72
        65
 73
         2
 40
5.0164997578
 49
3.175
 74
         0
 49
-1.841499947
 74
         0
  0
LTYPE
  5
29
100
AcDbSymbolTableRecord
100
AcDbLinetypeTableRecord
  2
Phantom
 70
        64
  3
Phantom
 72
        65
 73
         6
 40
24.5744992733
 49
12.7
 74
         0
 49
-1.841499947
 74
         0
 49
3.175
 74
         0
 49
-1.841499947
 74
         0
 49
3.175
 74
         0
 49
-1.841499947
 74
         0
  0
LTYPE
  5
2A
100
AcDbSymbolTableRecord
100
AcDbLinetypeTableRecord
  2
Dashdot
 70
        64
  3
Dashdot
 72
        65
 73
         4
 40
17.1767495155
 49
12.7
 74
         0
 49
-1.841499947
 74
         0
 49
0.79375
 74
         0
 49
-1.841499947
 74
         0
  0
LTYPE
  5
2B
100
AcDbSymbolTableRecord
100
AcDbLinetypeTableRecord
  2
Border
 70
        64
  3
Border
 72
        65
 73
         6
 40
31.7182492733
 49
12.7
 74
         0
 49
-1.841499947
 74
         0
 49
12.7
 74
         0
 49
-1.841499947
 74
         0
 49
0.79375
 74
         0
 49
-1.841499947
 74
         0
  0
LTYPE
  5
2C
100
AcDbSymbolTableRecord
100
AcDbLinetypeTableRecord
  2
Divide
 70
        64
  3
Divide
 72
        65
 73
         6
 40
19.8119992733
 49
12.7
 74
         0
 49
-1.841499947
 74
         0
 49
0.79375
 74
         0
 49
-1.841499947
 74
         0
 49
0.79375
 74
         0
 49
-1.841499947
 74
         0
  0
LTYPE
  5
2D
100
AcDbSymbolTableRecord
100
AcDbLinetypeTableRecord
  2
Cutting
 70
        64
  3
Cutting
 72
        65
 73
         6
 40
37.2744992733
 49
25.4
 74
         0
 49
-1.841499947
 74
         0
 49
3.175
 74
         0
 49
-1.841499947
 74
         0
 49
3.175
 74
         0
 49
-1.841499947
 74
         0
  0
LTYPE
  5
2E
100
AcDbSymbolTableRecord
100
AcDbLinetypeTableRecord
  2
Stitch
 70
        64
  3
Stitch
 72
        65
 73
         2
 40
3.682999894
 49
1.841499947
 74
         0
 49
-1.841499947
 74
         0
  0
ENDTAB
  0
TABLE
  2
LAYER
  5
2
100
AcDbSymbolTable
 70
        12
  0
LAYER
  5
14
100
AcDbSymbolTableRecord
100
AcDbLayerTableRecord
  2
0
 70
         0
 62
         7
  6
Continuous
290
         1
370
        -3
390
1D
  0
LAYER
  5
2F
100
AcDbSymbolTableRecord
100
AcDbLayerTableRecord
  2
0_M_CONST_1
 70
         0
 62
        -7
  6
Continuous
290
         1
370
         2
390
1F
  0
LAYER
  5
30
100
AcDbSymbolTableRecord
100
AcDbLayerTableRecord
  2
CONSTRUCTION
 70
         0
 62
        -7
  6
Continuous
290
         1
370
         0
390
1F
  0
LAYER
  5
31
100
AcDbSymbolTableRecord
100
AcDbLayerTableRecord
  2
DIMENSION
 70
         0
 62
        -7
  6
Continuous
290
         1
370
         0
390
1F
  0
LAYER
  5
32
100
AcDbSymbolTableRecord
100
AcDbLayerTableRecord
  2
CONSTRAINTS
 70
         0
 62
        -7
  6
Continuous
290
         1
370
         0
390
1F
  0
LAYER
  5
33
100
AcDbSymbolTableRecord
100
AcDbLayerTableRecord
  2
1_M_SEW_YOLK_1
 70
         0
 62
        -7
  6
Continuous
290
         1
370
         2
390
1F
  0
LAYER
  5
34
100
AcDbSymbolTableRecord
100
AcDbLayerTableRecord
  2
0_XL_CONST_2
 70
         0
 62
        -7
  6
Continuous
290
         1
370
         2
390
1F
  0
LAYER
  5
35
100
AcDbSymbolTableRecord
100
AcDbLayerTableRecord
  2
1_XL_SEW_YOLK_2
 70
         0
 62
        -7
  6
Continuous
290
         1
370
         2
390
1F
  0
LAYER
  5
36
100
AcDbSymbolTableRecord
100
AcDbLayerTableRecord
  2
1_L_SEW_LINE_3
 70
         0
 62
       -11
  6
Continuous
290
         1
370
         2
390
1F
  0
LAYER
  5
37
100
AcDbSymbolTableRecord
100
AcDbLayerTableRecord
  2
0_L_CONST_3
 70
         0
 62
        -7
  6
Continuous
290
         1
370
         2
390
1F
  0
LAYER
  5
38
100
AcDbSymbolTableRecord
100
AcDbLayerTableRecord
  2
2_L_SEAM_ALLOWANCE_3
 70
         0
 62
         5
  6
Continuous
290
         1
370
         2
390
1F
  0
LAYER
  5
39
100
AcDbSymbolTableRecord
100
AcDbLayerTableRecord
  2
3_L_COVER_3
 70
         0
 62
       -29
  6
Stitch
290
         1
370
         0
390
1F
  0
ENDTAB
  0
TABLE
  2
STYLE
  5
3
100
AcDbSymbolTable
 70
         2
  0
STYLE
  5
17
100
AcDbSymbolTableRecord
100
AcDbTextStyleTableRecord
  2
Standard
 70
         0
 40
0.0
 41
1.0
 50
0.0
 71
         0
 42
0.0
  3
txt
  4

  0
STYLE
  5
24
100
AcDbSymbolTableRecord
100
AcDbTextStyleTableRecord
  2
Plotter
 70
         0
 40
0.0
 41
0.98
 50
0.0
 71
         0
 42
0.0
  3
SIMPLEX
  4

  0
ENDTAB
  0
TABLE
  2
VIEW
  5
5
100
AcDbSymbolTable
 70
         0
  0
ENDTAB
  0
TABLE
  2
UCS
  5
6
100
AcDbSymbolTable
 70
         0
  0
ENDTAB
  0
TABLE
  2
APPID
  5
8
100
AcDbSymbolTable
 70
         1
  0
APPID
  5
16
100
AcDbSymbolTableRecord
100
AcDbRegAppTableRecord
  2
ACAD
 70
         0
  0
ENDTAB
  0
TABLE
  2
DIMSTYLE
  5
9
100
AcDbSymbolTable
 70
         1
100
AcDbDimStyleTable
 71
         0
  0
DIMSTYLE
105
18
100
AcDbSymbolTableRecord
100
AcDbDimStyleTableRecord
  2
Standard
 70
         0
  3

  4

 40
1.0
 41
0.18
 42
0.0625
 43
0.38
 44
0.18
 45
0.0
 46
0.0
 47
0.0
 48
0.0
 71
         0
 72
         0
 73
         1
 74
         1
 75
         0
 76
         0
 77
         0
 78
         0
 79
         0
140
0.18
141
0.09
142
0.0
143
25.4
144
1.0
145
0.0
146
1.0
147
0.09
148
0.0
170
         0
171
         2
172
         0
173
         0
174
         0
175
         0
176
         0
177
         0
178
         0
179
         0
271
         4
272
         4
273
         2
274
         2
275
         0
276
         0
277
         2
278
        46
279
         0
280
         0
281
         0
282
         0
283
         1
284
         0
285
         0
286
         0
288
         0
340
17
341
0
342
0
343
0
344
0
371
        -2
372
        -2
  0
ENDTAB
  0
TABLE
  2
BLOCK_RECORD
  5
1
100
AcDbSymbolTable
 70
         0
  0
BLOCK_RECORD
  5
A
100
AcDbSymbolTableRecord
100
AcDbBlockTableRecord
  2
*MODEL_SPACE
340
20
  0
BLOCK_RECORD
  5
B
100
AcDbSymbolTableRecord
100
AcDbBlockTableRecord
  2
*PAPER_SPACE
340
21
  0
ENDTAB
  0
ENDSEC
  0
SECTION
  2
BLOCKS
  0
BLOCK
  5
D
100
AcDbEntity
  8
0
100
AcDbBlockBegin
  2
*MODEL_SPACE
 70
         0
 10
0.0
 20
0.0
 30
0.0
  3
*MODEL_SPACE
  1

  0
ENDBLK
  5
E
100
AcDbEntity
  8
0
100
AcDbBlockEnd
  0
BLOCK
  5
F
100
AcDbEntity
 67
         1
  8
0
100
AcDbBlockBegin
  2
*PAPER_SPACE
 70
         0
 10
0.0
 20
0.0
 30
0.0
  3
*PAPER_SPACE
  1

  0
ENDBLK
  5
10
100
AcDbEntity
 67
         1
  8
0
100
AcDbBlockEnd
  0
ENDSEC
  0
SECTION
  2
ENTITIES
  0
LINE
  5
3A
100
AcDbEntity
  8
2_L_SEAM_ALLOWANCE_3
370
        25
  6
Continuous
 62
         5
100
AcDbLine
 10
1748.8350782163
 20
610.8250803009
 30
0.0
 11
1730.2876875
 21
615.172125
 31
0.0
  0
LINE
  5
3B
100
AcDbEntity
  8
2_L_SEAM_ALLOWANCE_3
370
        25
  6
Continuous
 62
         5
100
AcDbLine
 10
1734.6631117674
 20
627.0946105831
 30
0.0
 11
1730.2876875
 21
615.172125
 31
0.0
  0
LINE
  5
3C
100
AcDbEntity
  8
2_L_SEAM_ALLOWANCE_3
370
        25
  6
Continuous
 62
         5
100
AcDbLine
 10
1677.3513315252
 20
810.4114065952
 30
0.0
 11
1664.8779750585
 21
812.8
 31
0.0
  0
LINE
  5
3D
100
AcDbEntity
  8
2_L_SEAM_ALLOWANCE_3
370
        25
  6
Continuous
 62
         5
100
AcDbLine
 10
1664.8779750585
 20
828.675
 30
0.0
 11
1664.8779750585
 21
812.8
 31
0.0
  0
LINE
  5
3E
100
AcDbEntity
  8
2_L_SEAM_ALLOWANCE_3
370
        25
  6
Continuous
 62
         5
100
AcDbLine
 10
1116.6486684748
 20
810.4114065952
 30
0.0
 11
1129.1220249415
 21
812.8
 31
0.0
  0
LINE
  5
3F
100
AcDbEntity
  8
2_L_SEAM_ALLOWANCE_3
370
        25
  6
Continuous
 62
         5
100
AcDbLine
 10
1129.1220249415
 20
828.675
 30
0.0
 11
1129.1220249415
 21
812.8
 31
0.0
  0
LINE
  5
40
100
AcDbEntity
  8
2_L_SEAM_ALLOWANCE_3
370
        25
  6
Continuous
 62
         5
100
AcDbLine
 10
1397.0
 20
828.675
 30
0.0
 11
1664.8779750585
 21
828.675
 31
0.0
  0
LINE
  5
41
100
AcDbEntity
  8
2_L_SEAM_ALLOWANCE_3
370
        25
  6
Continuous
 62
         5
100
AcDbLine
 10
1748.8350782163
 20
610.8250803009
 30
0.0
 11
1723.7128907163
 21
503.6370803009
 31
0.0
  0
ARC
  5
42
100
AcDbEntity
  8
2_L_SEAM_ALLOWANCE_3
370
        25
  6
Continuous
 62
         5
100
AcDbCircle
 10
2127.21825
 20
400.796125
 30
0.0
 40
416.40125
100
AcDbArc
 50
165.7499673022
 51
180.0
  0
LINE
  5
43
100
AcDbEntity
  8
2_L_SEAM_ALLOWANCE_3
370
        25
  6
Continuous
 62
         5
100
AcDbLine
 10
1712.5619959023
 20
176.096276475
 30
0.0
 11
1705.1655
 21
186.420125
 31
0.0
  0
LINE
  5
44
100
AcDbEntity
  8
2_L_SEAM_ALLOWANCE_3
370
        25
  6
Continuous
 62
         5
100
AcDbLine
 10
1723.6293461538
 20
191.1093557692
 30
0.0
 11
1705.1655
 21
186.420125
 31
0.0
  0
LINE
  5
45
100
AcDbEntity
  8
2_L_SEAM_ALLOWANCE_3
370
        25
  6
Continuous
 62
         5
100
AcDbLine
 10
1045.1649217837
 20
610.8250803009
 30
0.0
 11
1063.7123125
 21
615.172125
 31
0.0
  0
LINE
  5
46
100
AcDbEntity
  8
2_L_SEAM_ALLOWANCE_3
370
        25
  6
Continuous
 62
         5
100
AcDbLine
 10
1059.3368882326
 20
627.0946105831
 30
0.0
 11
1063.7123125
 21
615.172125
 31
0.0
  0
LINE
  5
47
100
AcDbEntity
  8
2_L_SEAM_ALLOWANCE_3
370
        25
  6
Continuous
 62
         5
100
AcDbLine
 10
1070.3706538462
 20
191.1093557692
 30
0.0
 11
1088.8345
 21
186.420125
 31
0.0
  0
LINE
  5
48
100
AcDbEntity
  8
2_L_SEAM_ALLOWANCE_3
370
        25
  6
Continuous
 62
         5
100
AcDbLine
 10
1081.4380040977
 20
176.096276475
 30
0.0
 11
1088.8345
 21
186.420125
 31
0.0
  0
LINE
  5
49
100
AcDbEntity
  8
2_L_SEAM_ALLOWANCE_3
370
        25
  6
Continuous
 62
         5
100
AcDbLine
 10
1397.0
 20
828.675
 30
0.0
 11
1129.1220249415
 21
828.675
 31
0.0
  0
ARC
  5
4A
100
AcDbEntity
  8
2_L_SEAM_ALLOWANCE_3
370
        25
  6
Continuous
 62
         5
100
AcDbCircle
 10
666.78175
 20
293.608125
 30
0.0
 40
416.40125
100
AcDbArc
 50
-14.2500326978
 51
0.0
  0
ARC
  5
4B
100
AcDbEntity
  8
2_L_SEAM_ALLOWANCE_3
370
        25
  6
Continuous
 62
         5
100
AcDbCircle
 10
666.78175
 20
400.796125
 30
0.0
 40
416.40125
100
AcDbArc
 50
0.0
 51
14.2500326978
  0
LINE
  5
4C
100
AcDbEntity
  8
2_L_SEAM_ALLOWANCE_3
370
        25
  6
Continuous
 62
         5
100
AcDbLine
 10
1045.1649217837
 20
610.8250803009
 30
0.0
 11
1070.2871092837
 21
503.6370803009
 31
0.0
  0
LINE
  5
4D
100
AcDbEntity
  8
2_L_SEAM_ALLOWANCE_3
370
        25
  6
Continuous
 62
         5
100
AcDbLine
 10
1083.183
 20
400.796125
 30
0.0
 11
1083.183
 21
293.608125
 31
0.0
  0
ARC
  5
4E
100
AcDbEntity
  8
2_L_SEAM_ALLOWANCE_3
370
        25
  6
Continuous
 62
         5
100
AcDbCircle
 10
1088.8345
 20
507.984125
 30
0.0
 40
19.05
100
AcDbArc
 50
-166.8093892878
 51
-165.7499673022
  0
LINE
  5
4F
100
AcDbEntity
  8
2_L_SEAM_ALLOWANCE_3
370
        25
  6
Continuous
 62
         5
100
AcDbLine
 10
1710.817
 20
400.796125
 30
0.0
 11
1710.817
 21
293.608125
 31
0.0
  0
ARC
  5
50
100
AcDbEntity
  8
2_L_SEAM_ALLOWANCE_3
370
        25
  6
Continuous
 62
         5
100
AcDbCircle
 10
2127.21825
 20
293.608125
 30
0.0
 40
416.40125
100
AcDbArc
 50
180.0
 51
-165.7499673022
  0
ARC
  5
51
100
AcDbEntity
  8
2_L_SEAM_ALLOWANCE_3
370
        25
  6
Continuous
 62
         5
100
AcDbCircle
 10
1705.1655
 20
507.984125
 30
0.0
 40
19.05
100
AcDbArc
 50
-14.2500326978
 51
-13.1906107122
  0
ARC
  5
52
100
AcDbEntity
  8
2_L_SEAM_ALLOWANCE_3
370
        25
  6
Continuous
 62
         5
100
AcDbCircle
 10
1567.7467548083
 20
378.2258568771
 30
0.0
 40
248.6520084911
100
AcDbArc
 50
-85.9091830222
 51
-54.3803882391
  0
ARC
  5
53
100
AcDbEntity
  8
2_L_SEAM_ALLOWANCE_3
370
        25
  6
Continuous
 62
         5
100
AcDbCircle
 10
1397.0
 20
2765.631375
 30
0.0
 40
2642.155625
100
AcDbArc
 50
-90.0
 51
-85.9091830222
  0
ARC
  5
54
100
AcDbEntity
  8
2_L_SEAM_ALLOWANCE_3
370
        25
  6
Continuous
 62
         5
100
AcDbCircle
 10
1397.0
 20
2765.631375
 30
0.0
 40
2642.155625
100
AcDbArc
 50
-94.0908169778
 51
-90.0
  0
ARC
  5
55
100
AcDbEntity
  8
2_L_SEAM_ALLOWANCE_3
370
        25
  6
Continuous
 62
         5
100
AcDbCircle
 10
1226.2532451917
 20
378.2258568771
 30
0.0
 40
248.6520084911
100
AcDbArc
 50
-125.6196117609
 51
-94.0908169778
  0
ARC
  5
56
100
AcDbEntity
  8
2_L_SEAM_ALLOWANCE_3
370
        25
  6
Continuous
 62
         5
100
AcDbCircle
 10
1802.6890806398
 20
733.7700613456
 30
0.0
 40
137.4940032982
100
AcDbArc
 50
-166.0832128056
 51
-147.0224925882
  0
ARC
  5
57
100
AcDbEntity
  8
2_L_SEAM_ALLOWANCE_3
370
        25
  6
Continuous
 62
         5
100
AcDbCircle
 10
1740.4466046884
 20
693.3840552745
 30
0.0
 40
63.2972695497
100
AcDbArc
 50
-147.0224925882
 51
-116.2445860849
  0
ARC
  5
58
100
AcDbEntity
  8
2_L_SEAM_ALLOWANCE_3
370
        25
  6
Continuous
 62
         5
100
AcDbCircle
 10
1812.9856094813
 20
840.5136512898
 30
0.0
 40
227.3369758405
100
AcDbArc
 50
-116.2445860849
 51
-110.1525949424
  0
ARC
  5
59
100
AcDbEntity
  8
2_L_SEAM_ALLOWANCE_3
370
        25
  6
Continuous
 62
         5
100
AcDbCircle
 10
2146.8406730857
 20
720.5062437086
 30
0.0
 40
478.0200625
100
AcDbArc
 50
169.1593474378
 51
-177.6254566919
  0
ARC
  5
5A
100
AcDbEntity
  8
2_L_SEAM_ALLOWANCE_3
370
        25
  6
Continuous
 62
         5
100
AcDbCircle
 10
647.1593269143
 20
720.5062437086
 30
0.0
 40
478.0200625
100
AcDbArc
 50
-2.3745433081
 51
10.8406525622
  0
ARC
  5
5B
100
AcDbEntity
  8
2_L_SEAM_ALLOWANCE_3
370
        25
  6
Continuous
 62
         5
100
AcDbCircle
 10
981.0143905187
 20
840.5136512898
 30
0.0
 40
227.3369758405
100
AcDbArc
 50
-69.8474050576
 51
-63.7554139151
  0
ARC
  5
5C
100
AcDbEntity
  8
2_L_SEAM_ALLOWANCE_3
370
        25
  6
Continuous
 62
         5
100
AcDbCircle
 10
1053.5533953116
 20
693.3840552745
 30
0.0
 40
63.2972695497
100
AcDbArc
 50
-63.7554139151
 51
-32.9775074118
  0
ARC
  5
5D
100
AcDbEntity
  8
2_L_SEAM_ALLOWANCE_3
370
        25
  6
Continuous
 62
         5
100
AcDbCircle
 10
991.3109193602
 20
733.7700613456
 30
0.0
 40
137.4940032982
100
AcDbArc
 50
-32.9775074118
 51
-13.9167871944
  0
ENDSEC
  0
SECTION
  2
OBJECTS
  0
DICTIONARY
  5
19
100
AcDbDictionary
280
         0
281
         1
  3
ACAD_GROUP
350
1A
  3
ACAD_MLINESTYLE
350
1B
  3
ACAD_LAYOUT
350
1E
  3
ACAD_PLOTSETTINGS
350
22
  3
ACAD_PLOTSTYLENAME
350
1F
  3
ACAD_WIPEOUT_VARS
350
23
  0
DICTIONARY
  5
1A
102
{ACAD_REACTORS
330
19
102
}
100
AcDbDictionary
280
         0
281
         1
  0
DICTIONARY
  5
1B
102
{ACAD_REACTORS
330
19
102
}
100
AcDbDictionary
280
         0
281
         1
  3
Standard
350
1C
  0
MLINESTYLE
  5
1C
102
{ACAD_REACTORS
330
1B
102
}
100
AcDbMlineStyle
  2
Standard
 70
         0
  3

 62
         0
 51
90.0
 52
90.0
 71
         2
 49
0.5
 62
       256
  6
BYLAYER
 49
-0.5
 62
       256
  6
BYLAYER
  0
ACDBDICTIONARYWDFLT
  5
1F
102
{ACAD_REACTORS
330
19
102
}
100
AcDbDictionary
281
         1
  3
Normal
350
1D
100
AcDbDictionaryWithDefault
340
1D
  0
ACDBPLACEHOLDER
  5
1D
102
{ACAD_REACTORS
330
1F
102
}
  0
LAYOUT
  5
20
102
{ACAD_REACTORS
330
1E
102
}
100
AcDbPlotSettings
  1

  2

  4

  6

 40
0.0
 41
0.0
 42
0.0
 43
0.0
 44
0.0
 45
0.0
 46
0.0
 47
0.0
 48
0.0
 49
0.0
140
0.0
141
0.0
142
1.0
143
1.0
 70
      1024
 72
         0
 73
         0
 74
         0
  7

 75
         0
147
1.0
148
0.0
149
0.0
100
AcDbLayout
  1
Model
 70
         0
 71
         0
 10
0.0
 20
0.0
 11
0.0
 21
0.0
 12
0.0
 22
0.0
 32
0.0
 14
0.0
 24
0.0
 34
0.0
 15
0.0
 25
0.0
 35
0.0
146
0.0
 13
0.0
 23
0.0
 33
0.0
 16
0.0
 26
0.0
 36
0.0
 17
0.0
 27
0.0
 37
0.0
 76
         0
330
A
331
0
345
0
346
0
  0
LAYOUT
  5
21
102
{ACAD_REACTORS
330
1E
102
}
100
AcDbPlotSettings
  1

  2

  4

  6

 40
0.0
 41
0.0
 42
0.0
 43
0.0
 44
0.0
 45
0.0
 46
0.0
 47
0.0
 48
0.0
 49
0.0
140
0.0
141
0.0
142
1.0
143
1.0
 70
         0
 72
         0
 73
         0
 74
         0
  7

 75
         0
147
1.0
148
0.0
149
0.0
100
AcDbLayout
  1
Layout1
 70
         0
 71
         0
 10
0.0
 20
0.0
 11
0.0
 21
0.0
 12
0.0
 22
0.0
 32
0.0
 14
0.0
 24
0.0
 34
0.0
 15
0.0
 25
0.0
 35
0.0
146
0.0
 13
0.0
 23
0.0
 33
0.0
 16
0.0
 26
0.0
 36
0.0
 17
0.0
 27
0.0
 37
0.0
 76
         0
330
B
331
0
345
0
346
0
  0
DICTIONARY
  5
1E
102
{ACAD_REACTORS
330
19
102
}
100
AcDbDictionary
280
         0
281
         1
  3
Layout1
350
21
  3
Model
350
20
  0
DICTIONARY
  5
22
102
{ACAD_REACTORS
330
19
102
}
100
AcDbDictionary
280
         0
281
         1
  0
WIPEOUTVARIABLES
  5
23
100
AcDbWipeoutVariables
 70
         1
  0
ENDSEC
  0
EOF
