%FSLAX25Y25*%
%MOIN*%
G70*
G01*
G75*
G04 Layer_Physical_Order=1*
G04 Layer_Color=255*
%ADD10R,0.05000X0.08000*%
%ADD11R,0.05906X0.05906*%
%ADD12C,0.02500*%
%ADD13C,0.04000*%
%ADD14C,0.16500*%
%ADD15C,0.04000*%
G36*
X505715Y640241D02*
X506870Y639762D01*
X508110Y639599D01*
X508902D01*
Y637937D01*
X508902Y637937D01*
X508902Y637063D01*
X508902D01*
Y630677D01*
X503886Y625661D01*
X502500Y626235D01*
Y633888D01*
X503241Y639521D01*
X504679Y640958D01*
X504744Y640985D01*
X505715Y640241D01*
D02*
G37*
G36*
X547500Y602500D02*
X502500D01*
Y608644D01*
X503628Y609633D01*
X505000Y609452D01*
X506436Y609642D01*
X507774Y610196D01*
X508923Y611077D01*
X509804Y612226D01*
X510358Y613564D01*
X510547Y615000D01*
X510358Y616436D01*
X509804Y617774D01*
X509791Y617791D01*
Y618015D01*
X515933Y624157D01*
X521807D01*
Y637063D01*
D01*
Y637063D01*
X521807Y637063D01*
Y637937D01*
X521807D01*
Y647500D01*
X525500D01*
Y662500D01*
X513500D01*
Y655775D01*
X511967Y654242D01*
X511205Y653250D01*
X510727Y652094D01*
X510643Y651457D01*
X509194Y651069D01*
X508923Y651423D01*
X507774Y652304D01*
X506436Y652858D01*
X505000Y653048D01*
X503628Y652867D01*
X502500Y653856D01*
Y697500D01*
X510246D01*
X510954Y696177D01*
X510680Y695768D01*
X509723Y693828D01*
X509028Y691780D01*
X508606Y689658D01*
X508465Y687500D01*
X508606Y685342D01*
X509028Y683220D01*
X509723Y681172D01*
X510680Y679232D01*
X511882Y677434D01*
X513308Y675808D01*
X514934Y674382D01*
X516732Y673180D01*
X518672Y672223D01*
X520720Y671528D01*
X522842Y671106D01*
X525000Y670965D01*
X527158Y671106D01*
X529280Y671528D01*
X531328Y672223D01*
X533268Y673180D01*
X535066Y674382D01*
X536692Y675808D01*
X538118Y677434D01*
X539320Y679232D01*
X540277Y681172D01*
X540972Y683220D01*
X541394Y685342D01*
X541535Y687500D01*
X541394Y689658D01*
X540972Y691780D01*
X540277Y693828D01*
X539320Y695768D01*
X539046Y696177D01*
X539754Y697500D01*
X547500D01*
Y602500D01*
D02*
G37*
%LPC*%
G36*
X537500Y673047D02*
X536064Y672858D01*
X534726Y672304D01*
X533577Y671423D01*
X532696Y670274D01*
X532142Y668936D01*
X531952Y667500D01*
X532142Y666064D01*
X532696Y664726D01*
X533577Y663577D01*
X534726Y662696D01*
X535209Y662496D01*
Y651729D01*
X534323Y650843D01*
X528193D01*
Y637937D01*
X541098D01*
Y644067D01*
X543388Y646356D01*
Y646356D01*
D01*
D01*
D01*
X543388Y646356D01*
Y646356D01*
D01*
D01*
Y646356D01*
X543388D01*
D01*
D01*
X543388D01*
D01*
D01*
Y646356D01*
D01*
D01*
D01*
Y646356D01*
D01*
D01*
X543388D01*
D01*
X543388Y646356D01*
D01*
D01*
X544149Y647349D01*
X544347Y647827D01*
X544628Y648504D01*
X544791Y649744D01*
D01*
D01*
D01*
D01*
D01*
X544791D01*
D01*
D01*
D01*
Y649744D01*
X544791D01*
D01*
Y649744D01*
D01*
D01*
D01*
D01*
D01*
D01*
D01*
D01*
D01*
D01*
D01*
D01*
Y649744D01*
D01*
X544791D01*
D01*
D01*
D01*
D01*
X544791Y649744D01*
Y665000D01*
X544791Y665000D01*
Y665000D01*
X544791D01*
X544791Y665000D01*
X544791D01*
X544791Y665000D01*
D01*
D01*
D01*
D01*
X544791Y665000D01*
D01*
X544628Y666240D01*
X544149Y667395D01*
X543388Y668388D01*
X542861Y668914D01*
X542858Y668936D01*
X542304Y670274D01*
X541423Y671423D01*
X540274Y672304D01*
X538936Y672858D01*
X537500Y673047D01*
D02*
G37*
%LPD*%
D10*
X530500Y655000D02*
D03*
X519500D02*
D03*
D11*
X534646Y644390D02*
D03*
Y630610D02*
D03*
X515354Y644390D02*
D03*
Y630610D02*
D03*
D12*
X543110D02*
X545000Y632500D01*
X534646Y630610D02*
X543110D01*
X505000Y620000D02*
X515354Y630354D01*
X505000Y615000D02*
Y620000D01*
X515354Y630354D02*
Y630610D01*
X540000Y649744D02*
Y665000D01*
X537500Y667500D02*
X540000Y665000D01*
X534646Y644390D02*
X540000Y649744D01*
X515354Y644390D02*
Y650854D01*
X519500Y655000D01*
X505000Y647500D02*
X508110Y644390D01*
X515354D01*
D13*
X533158Y673158D02*
X541842D01*
X530500Y670500D02*
X533158Y673158D01*
X545000Y632500D02*
Y670000D01*
X541842Y673158D02*
X545000Y670000D01*
X530500Y655000D02*
Y670500D01*
D14*
X525000Y687500D02*
D03*
D15*
X545000Y632500D02*
D03*
X537500Y667500D02*
D03*
X505000Y647500D02*
D03*
Y615000D02*
D03*
M02*
