%FSLAX25Y25*%
%MOIN*%
G70*
G01*
G75*
G04 Layer_Physical_Order=2*
G04 Layer_Color=65280*
%ADD10R,0.05000X0.08000*%
%ADD11R,0.05906X0.05906*%
%ADD12C,0.02500*%
%ADD13C,0.04000*%
%ADD14C,0.16500*%
%ADD15C,0.04000*%
%ADD16R,0.17716X0.12205*%
G36*
X547500Y639250D02*
X502500D01*
Y651542D01*
X547500D01*
Y639250D01*
D02*
G37*
G36*
Y602500D02*
X502500D01*
Y604298D01*
X547500D01*
Y602500D01*
D02*
G37*
G36*
Y670747D02*
X541941D01*
X541423Y671423D01*
X540274Y672304D01*
X538936Y672858D01*
X537500Y673047D01*
X536064Y672858D01*
X534726Y672304D01*
X533577Y671423D01*
X533175Y670898D01*
X531695Y671142D01*
X531328Y672223D01*
X533268Y673180D01*
X535066Y674382D01*
X536692Y675808D01*
X538118Y677434D01*
X539320Y679232D01*
X540277Y681172D01*
X540972Y683220D01*
X541394Y685342D01*
X541535Y687500D01*
X541394Y689658D01*
X540972Y691780D01*
X540277Y693828D01*
X539320Y695768D01*
X539046Y696177D01*
X539754Y697500D01*
X547500D01*
Y670747D01*
D02*
G37*
G36*
X510954Y696177D02*
X510680Y695768D01*
X509723Y693828D01*
X509028Y691780D01*
X508606Y689658D01*
X508465Y687500D01*
X508606Y685342D01*
X509028Y683220D01*
X509723Y681172D01*
X510680Y679232D01*
X511882Y677434D01*
X513308Y675808D01*
X514934Y674382D01*
X516732Y673180D01*
X518672Y672223D01*
X518171Y670747D01*
X502500D01*
Y697500D01*
X510246D01*
X510954Y696177D01*
D02*
G37*
D12*
X512700Y661144D02*
X537306D01*
X512700Y645396D02*
X537306D01*
X512700Y629648D02*
X537306D01*
X537306Y613900D02*
X537306Y613900D01*
X512700Y613900D02*
X537306D01*
D13*
Y645396D02*
X537306Y645396D01*
D14*
X525000Y687500D02*
D03*
D15*
X545000Y632500D02*
D03*
X537500Y667500D02*
D03*
X505000Y647500D02*
D03*
Y615000D02*
D03*
D16*
X537306Y661144D02*
D03*
Y645396D02*
D03*
Y629648D02*
D03*
X512700Y661144D02*
D03*
Y645396D02*
D03*
Y629648D02*
D03*
X537306Y613900D02*
D03*
X512700D02*
D03*
M02*
