%FSLAX25Y25*%
%MOIN*%
G70*
G01*
G75*
G04 Layer_Physical_Order=1*
G04 Layer_Color=255*
%ADD10R,0.05906X0.03937*%
%ADD11R,0.05000X0.08000*%
%ADD12C,0.02500*%
%ADD13C,0.04000*%
%ADD14C,0.05000*%
%ADD15C,0.16500*%
%ADD16C,0.04000*%
D10*
X534680Y631200D02*
D03*
Y637499D02*
D03*
X515400Y631200D02*
D03*
Y637499D02*
D03*
X534680Y643798D02*
D03*
X515400D02*
D03*
D11*
X519500Y620000D02*
D03*
X530500D02*
D03*
X519500Y655000D02*
D03*
X530500D02*
D03*
D12*
X507000Y614000D02*
Y634000D01*
X510499Y637499D02*
X515400D01*
X507000Y634000D02*
X510499Y637499D01*
X507500Y646500D02*
X510202Y643798D01*
X515400D01*
X507500Y646500D02*
Y661000D01*
X519500Y653000D02*
Y655000D01*
Y653000D02*
X524000Y648500D01*
Y634500D02*
Y648500D01*
X515600Y631000D02*
X520500D01*
X519500Y630000D02*
X524000Y634500D01*
D13*
X534680Y643798D02*
X540798D01*
X542500Y645500D01*
X534680Y637499D02*
X540001D01*
X543000Y634500D01*
X539500Y620000D02*
X543000Y623500D01*
X530500Y620000D02*
X539500D01*
X543000Y623500D02*
Y634500D01*
X530500Y647978D02*
Y655000D01*
Y647978D02*
X534680Y643798D01*
D14*
X519500Y620000D02*
Y631000D01*
D15*
X525000Y687500D02*
D03*
D16*
X543000Y630000D02*
D03*
X542500Y645500D02*
D03*
X507500Y661000D02*
D03*
X507000Y614000D02*
D03*
M02*
