%FSLAX25Y25*%
%MOIN*%
G70*
G01*
G75*
G04 Layer_Color=33789*
%ADD10R,0.05000X0.08000*%
%ADD11R,0.05906X0.05906*%
%ADD12P,0.08352X4X297.0*%
%ADD13P,0.08352X4X207.0*%
%ADD14R,0.05906X0.05906*%
%ADD15P,0.08352X4X153.0*%
%ADD16C,0.02500*%
%ADD17C,0.16500*%
%ADD18C,0.04000*%
%ADD19R,0.17716X0.12205*%
G04:AMPARAMS|DCode=20|XSize=80mil|YSize=50mil|CornerRadius=0mil|HoleSize=0mil|Usage=FLASHONLY|Rotation=288.000|XOffset=0mil|YOffset=0mil|HoleType=Round|Shape=Rectangle|*
%AMROTATEDRECTD20*
4,1,4,-0.03614,0.03032,0.01142,0.04577,0.03614,-0.03032,-0.01142,-0.04577,-0.03614,0.03032,0.0*
%
%ADD20ROTATEDRECTD20*%

G04:AMPARAMS|DCode=21|XSize=80mil|YSize=50mil|CornerRadius=0mil|HoleSize=0mil|Usage=FLASHONLY|Rotation=252.000|XOffset=0mil|YOffset=0mil|HoleType=Round|Shape=Rectangle|*
%AMROTATEDRECTD21*
4,1,4,-0.01142,0.04577,0.03614,0.03032,0.01142,-0.04577,-0.03614,-0.03032,-0.01142,0.04577,0.0*
%
%ADD21ROTATEDRECTD21*%

%ADD22C,0.01000*%
%ADD23C,0.01200*%
D22*
X591680Y568485D02*
G03*
X568975Y568485I-11353J-3958D01*
G01*
X631077Y497099D02*
G03*
X622847Y520706I-4115J11803D01*
G01*
X623977Y362867D02*
G03*
X659143Y374972I17491J6321D01*
G01*
X605794Y527999D02*
G03*
X621712Y520310I11803J4115D01*
G01*
X629942Y496704D02*
G03*
X622254Y480786I4115J-11803D01*
G01*
X609286Y403519D02*
G03*
X597530Y411770I-11756J-4248D01*
G01*
X563125D02*
G03*
X551369Y403519I0J-12500D01*
G01*
X538402Y480786D02*
G03*
X530713Y496704I-11803J4115D01*
G01*
X538943Y520310D02*
G03*
X554861Y527999I4115J11803D01*
G01*
X501513Y374972D02*
G03*
X536679Y362867I17675J-5783D01*
G01*
X537808Y520706D02*
G03*
X529578Y497099I-4115J-11803D01*
G01*
X621712Y520310D02*
X622847Y520706D01*
X591680Y568485D02*
X605794Y527999D01*
X629942Y496704D02*
X631077Y497099D01*
X622254Y480786D02*
X659143Y374972D01*
X580328Y411770D02*
X597530D01*
X609286Y403519D02*
X623977Y362867D01*
X536679D02*
X551369Y403519D01*
X563125Y411770D02*
X580328D01*
X501513Y374972D02*
X538402Y480786D01*
X529578Y497099D02*
X530713Y496704D01*
X554861Y527999D02*
X568975Y568485D01*
X537808Y520706D02*
X538943Y520310D01*
X594759Y438209D02*
Y440178D01*
X564247Y438209D02*
X594759D01*
X564247D02*
Y440178D01*
X594759Y503170D02*
Y505139D01*
X564247D02*
X594759D01*
X564247Y503170D02*
Y505139D01*
X571784Y543384D02*
X588816Y543384D01*
X571784Y543384D02*
Y552416D01*
X588816Y552416D01*
Y543384D02*
Y552416D01*
X629906Y380163D02*
X646103Y385426D01*
X648894Y376837D01*
X632696Y371574D02*
X648894Y376837D01*
X629906Y380163D02*
X632696Y371574D01*
X561397Y528426D02*
X577594Y523163D01*
X574803Y514574D02*
X577594Y523163D01*
X558606Y519837D02*
X574803Y514574D01*
X558606Y519837D02*
X561397Y528426D01*
X530266Y433526D02*
X546464Y428263D01*
X543673Y419673D02*
X546464Y428263D01*
X527475Y424936D02*
X543673Y419673D01*
X527475Y424936D02*
X530266Y433526D01*
X514597Y384726D02*
X530794Y379463D01*
X528004Y370874D02*
X530794Y379463D01*
X511806Y376137D02*
X528004Y370874D01*
X511806Y376137D02*
X514597Y384726D01*
X630203Y436726D02*
X632994Y428137D01*
X614006Y431463D02*
X630203Y436726D01*
X614006Y431463D02*
X616796Y422874D01*
X632994Y428137D01*
X622785Y442581D02*
X623320Y443631D01*
X624904Y444146D01*
X625954Y443611D01*
X626984Y440442D01*
X626449Y439392D01*
X624864Y438877D01*
X623815Y439412D01*
X620943Y442859D02*
X617774Y441829D01*
X618031Y441037D01*
X622230Y438897D01*
X622488Y438105D01*
X560168Y434498D02*
X561834D01*
X561001D01*
Y430333D01*
X561834Y429500D01*
X562667D01*
X563500Y430333D01*
X558502Y429500D02*
X556836D01*
X557669D01*
Y434498D01*
X558502Y433665D01*
X525118Y389491D02*
X526168Y390026D01*
X527752Y389511D01*
X528287Y388461D01*
X527257Y385292D01*
X526208Y384757D01*
X524623Y385272D01*
X524088Y386322D01*
X519077Y387074D02*
X522246Y386045D01*
X520107Y390244D01*
X520364Y391036D01*
X521414Y391571D01*
X522999Y391056D01*
X523533Y390006D01*
X535118Y418491D02*
X536168Y419026D01*
X537752Y418511D01*
X538287Y417461D01*
X537257Y414292D01*
X536208Y413757D01*
X534623Y414272D01*
X534088Y415322D01*
X533533Y419006D02*
X532999Y420056D01*
X531414Y420571D01*
X530364Y420036D01*
X530107Y419243D01*
X530642Y418194D01*
X531434Y417936D01*
X530642Y418194D01*
X529592Y417659D01*
X529334Y416867D01*
X529869Y415817D01*
X531454Y415302D01*
X532504Y415837D01*
X567618Y535491D02*
X568668Y536026D01*
X570252Y535511D01*
X570787Y534461D01*
X569757Y531292D01*
X568708Y530757D01*
X567123Y531272D01*
X566588Y532322D01*
X562369Y532817D02*
X563914Y537571D01*
X565519Y534421D01*
X562349Y535451D01*
X643044Y369432D02*
X643578Y370481D01*
X645163Y370996D01*
X646213Y370462D01*
X647243Y367292D01*
X646708Y366243D01*
X645123Y365728D01*
X644073Y366263D01*
X641459Y368917D02*
X640409Y369452D01*
X638825Y368937D01*
X638290Y367887D01*
X638547Y367095D01*
X639597Y366560D01*
X639062Y365510D01*
X639320Y364718D01*
X640369Y364183D01*
X641954Y364698D01*
X642489Y365748D01*
X642231Y366540D01*
X641182Y367075D01*
X641716Y368125D01*
X641459Y368917D01*
X641182Y367075D02*
X639597Y366560D01*
X580586Y561247D02*
X581419Y562080D01*
X583085D01*
X583918Y561247D01*
Y557915D01*
X583085Y557082D01*
X581419D01*
X580586Y557915D01*
X575588Y562080D02*
X578920D01*
Y559581D01*
X577254Y560414D01*
X576421D01*
X575588Y559581D01*
Y557915D01*
X576421Y557082D01*
X578087D01*
X578920Y557915D01*
X551000Y450498D02*
Y445500D01*
X548501D01*
X547668Y446333D01*
Y449665D01*
X548501Y450498D01*
X551000D01*
X546002D02*
X544336D01*
X545169D01*
Y445500D01*
X546002D01*
X544336D01*
X553000Y465498D02*
Y462166D01*
X551334Y460500D01*
X549668Y462166D01*
Y465498D01*
X548002D02*
Y460500D01*
X545502D01*
X544669Y461333D01*
Y464665D01*
X545502Y465498D01*
X548002D01*
X543003D02*
Y460500D01*
X540504D01*
X539671Y461333D01*
Y464665D01*
X540504Y465498D01*
X543003D01*
X551168Y479665D02*
X552001Y480498D01*
X553667D01*
X554500Y479665D01*
Y476333D01*
X553667Y475500D01*
X552001D01*
X551168Y476333D01*
Y477999D01*
X552834D01*
X549502Y475500D02*
Y480498D01*
X546169Y475500D01*
Y480498D01*
X544503D02*
Y475500D01*
X542004D01*
X541171Y476333D01*
Y479665D01*
X542004Y480498D01*
X544503D01*
X553000Y497498D02*
Y492500D01*
X550501D01*
X549668Y493333D01*
Y496665D01*
X550501Y497498D01*
X553000D01*
X545502D02*
X547169D01*
X548002Y496665D01*
Y493333D01*
X547169Y492500D01*
X545502D01*
X544669Y493333D01*
Y496665D01*
X545502Y497498D01*
X624831Y417470D02*
X628000Y418500D01*
X626415Y417985D01*
X625881Y416935D01*
X625346Y415886D01*
X625603Y415093D01*
X630317Y411369D02*
X629802Y412954D01*
X628752Y413489D01*
X627168Y412974D01*
X626633Y411924D01*
X627148Y410340D01*
X628197Y409805D01*
X628990Y410062D01*
X627960Y413231D01*
X627920Y407963D02*
X631604Y407408D01*
X628950Y404794D01*
X633664Y401070D02*
X632634Y404239D01*
X630494Y400040D01*
X629702Y399782D01*
X628652Y400317D01*
X628137Y401902D01*
X628672Y402952D01*
X634178Y399485D02*
X633386Y399228D01*
X633643Y398435D01*
X634436Y398693D01*
X634178Y399485D01*
X631504Y394236D02*
X630969Y393187D01*
X631484Y391602D01*
X632534Y391067D01*
X635703Y392097D01*
X636238Y393147D01*
X635723Y394731D01*
X634673Y395266D01*
X631504Y394236D01*
X638040Y387601D02*
X637010Y390770D01*
X634871Y386571D01*
X634078Y386314D01*
X633029Y386848D01*
X632514Y388433D01*
X633049Y389483D01*
X617700Y498998D02*
Y494000D01*
X615201D01*
X614368Y494833D01*
Y498165D01*
X615201Y498998D01*
X617700D01*
X610202D02*
X611869D01*
X612702Y498165D01*
Y494833D01*
X611869Y494000D01*
X610202D01*
X609369Y494833D01*
Y498165D01*
X610202Y498998D01*
X615868Y481165D02*
X616701Y481998D01*
X618367D01*
X619200Y481165D01*
Y477833D01*
X618367Y477000D01*
X616701D01*
X615868Y477833D01*
Y479499D01*
X617534D01*
X614202Y477000D02*
Y481998D01*
X610869Y477000D01*
Y481998D01*
X609203D02*
Y477000D01*
X606704D01*
X605871Y477833D01*
Y481165D01*
X606704Y481998D01*
X609203D01*
X617700Y466998D02*
Y463666D01*
X616034Y462000D01*
X614368Y463666D01*
Y466998D01*
X612702D02*
Y462000D01*
X610202D01*
X609369Y462833D01*
Y466165D01*
X610202Y466998D01*
X612702D01*
X607703D02*
Y462000D01*
X605204D01*
X604371Y462833D01*
Y466165D01*
X605204Y466998D01*
X607703D01*
X615700Y451998D02*
Y447000D01*
X613201D01*
X612368Y447833D01*
Y451165D01*
X613201Y451998D01*
X615700D01*
X610702D02*
X609035D01*
X609869D01*
Y447000D01*
X610702D01*
X609035D01*
D23*
X613031Y409843D02*
X611796Y413647D01*
X614648Y414573D01*
X614315Y412363D01*
X614624Y411412D01*
X615883Y410770D01*
X617785Y411388D01*
X618427Y412648D01*
X617809Y414549D01*
X616549Y415191D01*
X614600Y408251D02*
X613958Y406991D01*
X614576Y405090D01*
X615835Y404448D01*
X619638Y405684D01*
X620280Y406943D01*
X619662Y408845D01*
X618403Y409487D01*
X614600Y408251D01*
X616738Y398434D02*
X615503Y402238D01*
X618355Y403164D01*
X618022Y400954D01*
X618331Y400003D01*
X619590Y399361D01*
X621492Y399979D01*
X622134Y401239D01*
X621516Y403140D01*
X620256Y403782D01*
X623061Y398387D02*
X623678Y396485D01*
X623369Y397436D01*
X617665Y395582D01*
X618307Y396842D01*
X618901Y391779D02*
X620136Y387976D01*
X621087Y388285D01*
X623654Y393324D01*
X624605Y393633D01*
X627694Y384125D02*
X626459Y387928D01*
X623891Y382890D01*
X622940Y382581D01*
X621681Y383223D01*
X621063Y385124D01*
X621705Y386384D01*
M02*
