M48
;Layer_Color=8847372
;FILE_FORMAT=2:5
INCH,TZ
;TYPE=PLATED
T1F00S00C0.02100
T2F00S00C0.12500
%
T01
X514000Y362000
X533319Y390314
X542684Y411187
X532000Y443000
X579500Y441500
X593395Y437106
X598500Y428000
X621390Y413131
X608500Y464500
X563000Y463500
X625000Y446000
X640500Y398500
X630500Y370500
X613500Y475500
X587500Y476000
X573000Y530500
X556000Y518000
X583000Y569000
T02
X580300Y424300
X626800Y508900
X533800Y509000
M30
