%FSLAX25Y25*%
%MOIN*%
G70*
G01*
G75*
G04 Layer_Color=8421504*
%ADD10R,0.05000X0.08000*%
%ADD11R,0.05906X0.05906*%
%ADD12P,0.08352X4X297.0*%
%ADD13P,0.08352X4X207.0*%
%ADD14R,0.05906X0.05906*%
%ADD15P,0.08352X4X153.0*%
%ADD16C,0.02500*%
%ADD17C,0.16500*%
%ADD18C,0.04000*%
%ADD19R,0.17716X0.12205*%
G04:AMPARAMS|DCode=20|XSize=80mil|YSize=50mil|CornerRadius=0mil|HoleSize=0mil|Usage=FLASHONLY|Rotation=288.000|XOffset=0mil|YOffset=0mil|HoleType=Round|Shape=Rectangle|*
%AMROTATEDRECTD20*
4,1,4,-0.03614,0.03032,0.01142,0.04577,0.03614,-0.03032,-0.01142,-0.04577,-0.03614,0.03032,0.0*
%
%ADD20ROTATEDRECTD20*%

G04:AMPARAMS|DCode=21|XSize=80mil|YSize=50mil|CornerRadius=0mil|HoleSize=0mil|Usage=FLASHONLY|Rotation=252.000|XOffset=0mil|YOffset=0mil|HoleType=Round|Shape=Rectangle|*
%AMROTATEDRECTD21*
4,1,4,-0.01142,0.04577,0.03614,0.03032,0.01142,-0.04577,-0.03614,-0.03032,-0.01142,0.04577,0.0*
%
%ADD21ROTATEDRECTD21*%

%ADD22C,0.01000*%
%ADD23C,0.01200*%
%ADD24R,0.04000X0.07000*%
%ADD25R,0.04906X0.04906*%
%ADD26P,0.06937X4X297.0*%
%ADD27P,0.06937X4X207.0*%
%ADD28R,0.04906X0.04906*%
%ADD29P,0.06937X4X153.0*%
D24*
X585300Y475600D02*
D03*
X574300D02*
D03*
D25*
X570654Y449810D02*
D03*
Y463590D02*
D03*
X589946Y449810D02*
D03*
Y463590D02*
D03*
X589146Y510590D02*
D03*
Y496810D02*
D03*
X569854Y510590D02*
D03*
Y496810D02*
D03*
D26*
X518328Y389303D02*
D03*
X531433Y385045D02*
D03*
X512367Y370955D02*
D03*
X525472Y366697D02*
D03*
D27*
X548603Y430572D02*
D03*
X544345Y417467D02*
D03*
X530256Y436533D02*
D03*
X525997Y423428D02*
D03*
D28*
X587090Y538554D02*
D03*
X573310D02*
D03*
X587090Y557846D02*
D03*
X573310D02*
D03*
D29*
X632633Y422856D02*
D03*
X619528Y418597D02*
D03*
X626672Y441203D02*
D03*
X630267Y385244D02*
D03*
X643372Y389503D02*
D03*
X636228Y366897D02*
D03*
X649333Y371156D02*
D03*
X613567Y436944D02*
D03*
M02*
