%FSLAX25Y25*%
%MOIN*%
G70*
G01*
G75*
G04 Layer_Physical_Order=2*
G04 Layer_Color=65280*
%ADD10R,0.05000X0.08000*%
%ADD11R,0.05906X0.05906*%
%ADD12P,0.08352X4X297.0*%
%ADD13P,0.08352X4X207.0*%
%ADD14R,0.05906X0.05906*%
%ADD15P,0.08352X4X63.0*%
%ADD16P,0.08352X4X153.0*%
%ADD17C,0.02500*%
%ADD18C,0.16500*%
%ADD19C,0.04000*%
%ADD20R,0.17716X0.12205*%
G04:AMPARAMS|DCode=21|XSize=80mil|YSize=50mil|CornerRadius=0mil|HoleSize=0mil|Usage=FLASHONLY|Rotation=108.000|XOffset=0mil|YOffset=0mil|HoleType=Round|Shape=Rectangle|*
%AMROTATEDRECTD21*
4,1,4,0.03614,-0.03032,-0.01142,-0.04577,-0.03614,0.03032,0.01142,0.04577,0.03614,-0.03032,0.0*
%
%ADD21ROTATEDRECTD21*%

G04:AMPARAMS|DCode=22|XSize=80mil|YSize=50mil|CornerRadius=0mil|HoleSize=0mil|Usage=FLASHONLY|Rotation=252.000|XOffset=0mil|YOffset=0mil|HoleType=Round|Shape=Rectangle|*
%AMROTATEDRECTD22*
4,1,4,-0.01142,0.04577,0.03614,0.03032,0.01142,-0.04577,-0.03614,-0.03032,-0.01142,0.04577,0.0*
%
%ADD22ROTATEDRECTD22*%

G36*
X645123Y403697D02*
X643907Y402818D01*
X643274Y403304D01*
X641936Y403858D01*
X640500Y404047D01*
X639064Y403858D01*
X637726Y403304D01*
X636577Y402423D01*
X635696Y401274D01*
X635142Y399936D01*
X634952Y398500D01*
X635142Y397064D01*
X635696Y395726D01*
X636577Y394577D01*
X637726Y393696D01*
X639064Y393142D01*
X639399Y393097D01*
X639709Y392826D01*
Y386486D01*
X636607Y385478D01*
X641242Y371213D01*
X652655Y374921D01*
X649291Y385273D01*
Y387248D01*
X650770Y387498D01*
X655571Y373727D01*
X655616Y373638D01*
X656126Y371510D01*
X656309Y369188D01*
X656126Y366866D01*
X655583Y364602D01*
X654692Y362450D01*
X653475Y360464D01*
X651962Y358693D01*
X650191Y357181D01*
X648205Y355964D01*
X646054Y355072D01*
X643789Y354529D01*
X641467Y354346D01*
X639145Y354529D01*
X636881Y355072D01*
X634729Y355964D01*
X632743Y357181D01*
X630972Y358693D01*
X629459Y360464D01*
X628243Y362450D01*
X627537Y364154D01*
X627537Y364154D01*
X627537D01*
X624824Y371652D01*
X612843Y404804D01*
X612761Y404963D01*
X612053Y406671D01*
X610717Y408851D01*
X609056Y410796D01*
X607111Y412458D01*
X604930Y413794D01*
X602567Y414773D01*
X600080Y415370D01*
X597530Y415571D01*
Y415553D01*
X595886D01*
X595053Y416800D01*
X596041Y419185D01*
X596647Y421711D01*
X597064Y422642D01*
Y422642D01*
X597064Y422642D01*
X598500Y422452D01*
X599936Y422642D01*
X601274Y423196D01*
X601291Y423209D01*
X611748D01*
X612745Y422089D01*
X612741Y422055D01*
X612745Y421776D01*
X612709Y421500D01*
Y415500D01*
X612783Y414935D01*
X612845Y414369D01*
X612865Y414316D01*
X612872Y414260D01*
X613090Y413734D01*
X613296Y413202D01*
X613329Y413157D01*
X613351Y413104D01*
X613698Y412653D01*
X614034Y412192D01*
X614078Y412157D01*
X614112Y412112D01*
X614564Y411765D01*
X615008Y411408D01*
X616536Y410478D01*
X616586Y410357D01*
X617467Y409208D01*
X618616Y408327D01*
X619954Y407773D01*
X621390Y407584D01*
X622826Y407773D01*
X624164Y408327D01*
X625313Y409208D01*
X626194Y410357D01*
X626748Y411695D01*
X626937Y413131D01*
X626748Y414567D01*
X626194Y415905D01*
X625313Y417054D01*
X624164Y417935D01*
X622826Y418490D01*
X622291Y418560D01*
Y421222D01*
X622327Y421533D01*
X626293Y422822D01*
X621658Y437087D01*
X610245Y433379D01*
Y433379D01*
X609818Y432791D01*
X601291D01*
X601274Y432804D01*
X599936Y433358D01*
X598500Y433547D01*
X597064Y433358D01*
X595726Y432804D01*
X594276Y433073D01*
X593690Y434028D01*
X592003Y436003D01*
X590028Y437690D01*
X590243Y438450D01*
X604165D01*
Y454198D01*
Y459709D01*
X605709D01*
X605726Y459696D01*
X607064Y459142D01*
X608500Y458953D01*
X609936Y459142D01*
X611274Y459696D01*
X612423Y460577D01*
X613304Y461726D01*
X613858Y463064D01*
X614047Y464500D01*
X613858Y465936D01*
X613304Y467274D01*
X612423Y468423D01*
X612092Y468677D01*
X612666Y470062D01*
X613500Y469952D01*
X614936Y470142D01*
X616274Y470696D01*
X617423Y471577D01*
X618304Y472726D01*
X618858Y474064D01*
X618910Y474454D01*
X620402Y474608D01*
X645123Y403697D01*
D02*
G37*
G36*
X581939Y572629D02*
X583489Y572159D01*
X584917Y571396D01*
X586169Y570369D01*
X587197Y569117D01*
X587960Y567688D01*
X588097Y567236D01*
X588097D01*
X588109Y567240D01*
X588109D01*
X602223Y526754D01*
X602257Y526685D01*
X603074Y524714D01*
X604410Y522533D01*
X606072Y520588D01*
X608017Y518927D01*
X610197Y517590D01*
X611217Y517168D01*
X611791Y515782D01*
X611059Y514014D01*
X610453Y511489D01*
X610249Y508900D01*
X610453Y506311D01*
X611059Y503786D01*
X612053Y501386D01*
X613410Y499172D01*
X615097Y497197D01*
X617072Y495510D01*
X619286Y494153D01*
X619322Y494138D01*
X619785Y492712D01*
X619533Y492301D01*
X618555Y489938D01*
X617957Y487451D01*
X617790Y485320D01*
X616291Y485379D01*
Y489500D01*
X616265Y489698D01*
X616274Y489898D01*
X616184Y490316D01*
X616128Y490740D01*
X616051Y490925D01*
X616009Y491120D01*
X615813Y491500D01*
X615649Y491895D01*
X615527Y492054D01*
X615436Y492232D01*
X615148Y492548D01*
X614888Y492888D01*
X614729Y493009D01*
X614595Y493157D01*
X608095Y498657D01*
X607735Y498889D01*
X607396Y499149D01*
X607211Y499226D01*
X607043Y499334D01*
X606635Y499464D01*
X606240Y499628D01*
X606042Y499654D01*
X605851Y499715D01*
X605424Y499735D01*
X605000Y499791D01*
X604165D01*
Y504898D01*
X554842D01*
Y485694D01*
X604165D01*
Y487648D01*
X605525Y488279D01*
X606709Y487278D01*
Y481500D01*
X606728Y481357D01*
X606718Y481213D01*
X606809Y480739D01*
X606872Y480260D01*
X606927Y480127D01*
X606955Y479985D01*
X608093Y476570D01*
X607952Y475500D01*
X608142Y474064D01*
X608696Y472726D01*
X609577Y471577D01*
X609908Y471323D01*
X609334Y469938D01*
X608500Y470048D01*
X607064Y469858D01*
X605726Y469304D01*
X605709Y469291D01*
X604165D01*
Y473402D01*
X554842D01*
Y469291D01*
X552500D01*
X551260Y469128D01*
X550105Y468649D01*
X549112Y467888D01*
X542112Y460888D01*
X541351Y459896D01*
X541211Y459557D01*
X540872Y458740D01*
X540709Y457500D01*
Y434842D01*
X540199Y433436D01*
X538811Y433887D01*
X534176Y419621D01*
X535348Y419240D01*
X534939Y417966D01*
X534911Y417811D01*
X534853Y417665D01*
X534799Y417198D01*
X534715Y416736D01*
X534728Y416579D01*
X534710Y416422D01*
X534778Y415958D01*
X534817Y415489D01*
X534870Y415341D01*
X534893Y415185D01*
X535080Y414754D01*
X535238Y414311D01*
X535328Y414182D01*
X535390Y414038D01*
X537147Y411106D01*
X537325Y409751D01*
X537879Y408413D01*
X538761Y407264D01*
X539910Y406382D01*
X541248Y405828D01*
X542684Y405639D01*
X544119Y405828D01*
X545457Y406382D01*
X546606Y407264D01*
X547488Y408413D01*
X548042Y409751D01*
X548231Y411187D01*
X548042Y412622D01*
X547488Y413960D01*
X546606Y415109D01*
X545580Y415897D01*
X545589Y415913D01*
X545589D01*
X545589Y415913D01*
X550224Y430179D01*
X550224Y430179D01*
X549642Y431369D01*
X550004Y432367D01*
X550048Y432569D01*
X550128Y432760D01*
X550183Y433177D01*
X550273Y433588D01*
X550264Y433795D01*
X550291Y434000D01*
Y455515D01*
X553456Y458680D01*
X554842Y458106D01*
Y454198D01*
Y438450D01*
X569294D01*
X569813Y437042D01*
X568597Y436003D01*
X566910Y434028D01*
X565553Y431814D01*
X564559Y429415D01*
X563953Y426889D01*
X563749Y424300D01*
X563953Y421711D01*
X564559Y419185D01*
X565547Y416800D01*
X564714Y415553D01*
X563125D01*
Y415571D01*
X560575Y415370D01*
X558088Y414773D01*
X555725Y413794D01*
X553544Y412458D01*
X551599Y410796D01*
X549938Y408851D01*
X548602Y406671D01*
X547895Y404963D01*
X547812Y404804D01*
X535831Y371652D01*
X533118Y364154D01*
X533118D01*
X533118Y364154D01*
X532413Y362450D01*
X531196Y360464D01*
X529683Y358693D01*
X527912Y357181D01*
X525926Y355964D01*
X523775Y355072D01*
X521510Y354529D01*
X519188Y354346D01*
X516866Y354529D01*
X514602Y355072D01*
X512450Y355964D01*
X510464Y357181D01*
X508693Y358693D01*
X507181Y360464D01*
X505964Y362450D01*
X505072Y364602D01*
X504529Y366866D01*
X504346Y369188D01*
X504529Y371510D01*
X505040Y373638D01*
X505084Y373727D01*
X541973Y479541D01*
X541979Y479570D01*
X542101Y479864D01*
X542698Y482351D01*
X542898Y484901D01*
X542698Y487451D01*
X542101Y489938D01*
X541122Y492301D01*
X540810Y492810D01*
X541273Y494236D01*
X541314Y494253D01*
X543528Y495610D01*
X545503Y497297D01*
X547190Y499272D01*
X548547Y501486D01*
X549541Y503886D01*
X550147Y506411D01*
X550351Y509000D01*
X550147Y511589D01*
X549541Y514115D01*
X548547Y516514D01*
X548654Y516843D01*
X550458Y517590D01*
X552639Y518927D01*
X554584Y520588D01*
X556245Y522533D01*
X557581Y524714D01*
X558398Y526685D01*
X558432Y526754D01*
X567321Y552250D01*
X568800Y552000D01*
Y540400D01*
X568800Y540400D01*
X569240Y539545D01*
X568892Y538965D01*
X568876Y538928D01*
X568851Y538896D01*
X568627Y538354D01*
X568394Y537818D01*
X568388Y537778D01*
X568372Y537740D01*
X568296Y537160D01*
X568210Y536581D01*
X568214Y536540D01*
X568209Y536500D01*
Y533291D01*
X568196Y533274D01*
X567642Y531936D01*
X567452Y530500D01*
X567642Y529064D01*
X568196Y527726D01*
X568689Y527083D01*
X568642Y524785D01*
X565307Y514522D01*
X576720Y510813D01*
X579869Y520506D01*
X581369D01*
X581957Y518696D01*
X581642Y517936D01*
X581453Y516500D01*
X581642Y515064D01*
X582196Y513726D01*
X583077Y512577D01*
X584226Y511696D01*
X584232Y511693D01*
X584681Y510313D01*
X586749Y510986D01*
X587000Y510953D01*
X588436Y511142D01*
X589774Y511696D01*
X590390Y512168D01*
X596093Y514022D01*
X591458Y528287D01*
X581411Y525023D01*
X581355Y525079D01*
Y525079D01*
X581355Y525079D01*
X578253Y526087D01*
X578290Y527901D01*
X578233Y528419D01*
X578213Y528713D01*
X578358Y529064D01*
X578547Y530500D01*
X578358Y531936D01*
X577804Y533274D01*
X577791Y533291D01*
Y535173D01*
X578608Y536535D01*
X578624Y536572D01*
X578649Y536604D01*
X578873Y537146D01*
X579106Y537682D01*
X579112Y537722D01*
X579128Y537760D01*
X579204Y538340D01*
X579290Y538919D01*
X579286Y538960D01*
X579291Y539000D01*
Y540400D01*
X580800D01*
Y555400D01*
X569714D01*
X568845Y556623D01*
X572547Y567240D01*
X572547D01*
D01*
X572558Y567236D01*
X572558D01*
X572695Y567688D01*
X573459Y569117D01*
X574486Y570369D01*
X575738Y571396D01*
X577166Y572159D01*
X578716Y572629D01*
X580328Y572788D01*
X581939Y572629D01*
D02*
G37*
%LPC*%
G36*
X533319Y395862D02*
X531883Y395673D01*
X530545Y395119D01*
X529396Y394237D01*
X528515Y393088D01*
X527960Y391750D01*
X527907Y391347D01*
X526850Y390104D01*
X526728Y389915D01*
X526576Y389749D01*
X526390Y389392D01*
X526171Y389054D01*
X526102Y388839D01*
X525998Y388639D01*
X524539Y384633D01*
X524151Y384760D01*
X524151D01*
X523142Y385087D01*
X522814Y384079D01*
X522814Y384079D01*
X518507Y370822D01*
X528911Y367441D01*
X528911D01*
X529919Y367113D01*
X530247Y368122D01*
X530247Y368122D01*
X534555Y381379D01*
X534555Y381379D01*
X533981Y382557D01*
X534707Y384552D01*
X535212Y385146D01*
X536093Y385510D01*
X537242Y386392D01*
X538123Y387541D01*
X538677Y388879D01*
X538866Y390314D01*
X538677Y391750D01*
X538123Y393088D01*
X537242Y394237D01*
X536093Y395119D01*
X534755Y395673D01*
X533319Y395862D01*
D02*
G37*
%LPD*%
D10*
X585800Y547900D02*
D03*
X574800D02*
D03*
D17*
X567200Y495296D02*
X591806D01*
X567200Y479548D02*
X591806D01*
X567200Y463800D02*
X591806D01*
X529500Y433500D02*
X531738Y428299D01*
X529500Y433500D02*
X531500Y440000D01*
X532000Y443000D01*
X539500Y416500D02*
X542200Y424900D01*
X539500Y416500D02*
X542684Y411187D01*
X526531Y376100D02*
X530500Y387000D01*
X533319Y390314D01*
X512000Y367000D02*
X514000Y362000D01*
X512000Y367000D02*
X516069Y379500D01*
X530500Y421500D01*
Y425000D01*
X531738Y428299D01*
X556000Y518500D02*
X560000Y520500D01*
X562869Y523200D01*
X573331Y519800D02*
X573500Y528000D01*
X573000Y530500D02*
X573500Y528000D01*
X583000Y558000D02*
Y569000D01*
Y558000D02*
X586000Y555000D01*
Y551500D02*
Y555000D01*
X585800Y547900D02*
X586000Y551500D01*
X585500Y543500D02*
X585800Y547900D01*
X585500Y536000D02*
Y543500D01*
Y536000D02*
X596500Y529500D01*
X598531Y522700D01*
X625000Y446000D02*
X628000Y437500D01*
X628731Y431500D01*
X617500Y415500D02*
X621390Y413131D01*
X617500Y415500D02*
Y421500D01*
X618269Y428100D01*
X644500Y384000D02*
X644631Y380200D01*
X644500Y384000D02*
Y395000D01*
X640500Y398500D02*
X644500Y395000D01*
X630500Y370500D02*
X634169Y376800D01*
X628731Y431500D02*
X636000Y412000D01*
X628500Y397500D02*
X636000Y412000D01*
X628500Y397500D02*
X633500Y382500D01*
X634169Y376800D01*
X597000Y437500D02*
X608500D01*
X617500Y446500D01*
X598531Y522700D02*
X600500Y516500D01*
X610000Y511500D01*
X550500Y513000D02*
X556000Y518500D01*
X550500Y481500D02*
X553500Y478500D01*
X557500D01*
X567200Y479548D01*
X550500Y481500D02*
Y513000D01*
X532000Y443000D02*
X544500Y479500D01*
X550500Y481500D01*
X542200Y424900D02*
X545500Y434000D01*
Y457500D01*
X552500Y464500D01*
X557500D01*
X567200Y463800D01*
X574500Y543000D02*
X574800Y547900D01*
X574500Y539000D02*
Y543000D01*
X573000Y536500D02*
X574500Y539000D01*
X573000Y530500D02*
Y536500D01*
X610000Y502500D02*
Y511500D01*
Y502500D02*
X617000Y495500D01*
X591806Y495296D02*
X601000Y495000D01*
X605000D01*
X617000Y483000D02*
X628000Y451500D01*
X625000Y446000D02*
Y446500D01*
X617500D02*
X625000D01*
X628000Y451500D01*
X617000Y483000D02*
Y495500D01*
X611500Y481500D02*
X613500Y475500D01*
X611500Y481500D02*
Y489500D01*
X605000Y495000D02*
X611500Y489500D01*
X593395Y437106D02*
X597000Y437500D01*
X579500Y441500D02*
Y448052D01*
X567200D02*
X591806D01*
X614500Y428000D02*
X618269Y428100D01*
X598500Y428000D02*
X614500D01*
X601000Y464500D02*
X608500D01*
X591806Y463800D02*
X601000Y464500D01*
D18*
X533800Y509000D02*
D03*
X626800Y508900D02*
D03*
X580300Y424300D02*
D03*
D19*
X587000Y516500D02*
D03*
X630500Y370500D02*
D03*
X640500Y398500D02*
D03*
X621390Y413131D02*
D03*
X625000Y446000D02*
D03*
X532000Y443000D02*
D03*
X542684Y411187D02*
D03*
X533319Y390314D02*
D03*
X514000Y362000D02*
D03*
X556000Y518500D02*
D03*
X573000Y530500D02*
D03*
X583000Y569000D02*
D03*
X593395Y437106D02*
D03*
X617000Y491500D02*
D03*
X587500Y476000D02*
D03*
X613500Y475500D02*
D03*
X579500Y441500D02*
D03*
X563000Y463500D02*
D03*
X598500Y428000D02*
D03*
X608500Y464500D02*
D03*
D20*
X567200Y448052D02*
D03*
X591806D02*
D03*
X567200Y463800D02*
D03*
Y479548D02*
D03*
Y495296D02*
D03*
X591806Y463800D02*
D03*
Y479548D02*
D03*
Y495296D02*
D03*
D21*
X598531Y522700D02*
D03*
X634169Y376800D02*
D03*
X588069Y519300D02*
D03*
X644631Y380200D02*
D03*
X618269Y428100D02*
D03*
X628731Y431500D02*
D03*
D22*
X562869Y523200D02*
D03*
X531738Y428299D02*
D03*
X516069Y379500D02*
D03*
X526531Y376100D02*
D03*
X542200Y424900D02*
D03*
X573331Y519800D02*
D03*
M02*
