%FSLAX25Y25*%
%MOIN*%
G70*
G01*
G75*
G04 Layer_Color=65535*
%ADD10P,0.08352X4X90.0*%
%ADD11P,0.08352X4X180.0*%
%ADD12C,0.05000*%
%ADD13C,0.02500*%
%ADD14C,0.16500*%
%ADD15C,0.04000*%
%ADD16C,0.12500*%
%ADD17R,0.05000X0.08000*%
%ADD18R,0.08000X0.05000*%
G04:AMPARAMS|DCode=19|XSize=122.05mil|YSize=177.16mil|CornerRadius=0mil|HoleSize=0mil|Usage=FLASHONLY|Rotation=210.000|XOffset=0mil|YOffset=0mil|HoleType=Round|Shape=Rectangle|*
%AMROTATEDRECTD19*
4,1,4,0.00856,0.10723,0.09714,-0.04620,-0.00856,-0.10723,-0.09714,0.04620,0.00856,0.10723,0.0*
%
%ADD19ROTATEDRECTD19*%

G04:AMPARAMS|DCode=20|XSize=122.05mil|YSize=177.16mil|CornerRadius=0mil|HoleSize=0mil|Usage=FLASHONLY|Rotation=150.000|XOffset=0mil|YOffset=0mil|HoleType=Round|Shape=Rectangle|*
%AMROTATEDRECTD20*
4,1,4,0.09714,0.04620,0.00856,-0.10723,-0.09714,-0.04620,-0.00856,0.10723,0.09714,0.04620,0.0*
%
%ADD20ROTATEDRECTD20*%

%ADD21R,0.17716X0.12205*%
%ADD22C,0.01000*%
%ADD23C,0.01200*%
D22*
X1172500Y1059000D02*
G03*
X1172500Y1059000I-12000J0D01*
G01*
X1254000Y917500D02*
G03*
X1254000Y917500I-12000J0D01*
G01*
X850000Y501000D02*
G03*
X850000Y501000I-12000J0D01*
G01*
X1013500D02*
G03*
X1013500Y501000I-12000J0D01*
G01*
X915992Y851372D02*
G03*
X915992Y851372I-984J0D01*
G01*
X895112Y821007D02*
G03*
X895112Y821007I-984J0D01*
G01*
X925477Y800128D02*
G03*
X925477Y800128I-984J0D01*
G01*
X946356Y830493D02*
G03*
X946356Y830493I-984J0D01*
G01*
X1256112Y1029507D02*
G03*
X1256112Y1029507I-984J0D01*
G01*
X1286477Y1008628D02*
G03*
X1286477Y1008628I-984J0D01*
G01*
X1307356Y1038993D02*
G03*
X1307356Y1038993I-984J0D01*
G01*
X1276992Y1059872D02*
G03*
X1276992Y1059872I-984J0D01*
G01*
X1165977Y800628D02*
G03*
X1165977Y800628I-984J0D01*
G01*
X1187356Y830993D02*
G03*
X1187356Y830993I-984J0D01*
G01*
X1156992Y851872D02*
G03*
X1156992Y851872I-984J0D01*
G01*
X1045477Y1008628D02*
G03*
X1045477Y1008628I-984J0D01*
G01*
X1066356Y1038993D02*
G03*
X1066356Y1038993I-984J0D01*
G01*
X1035992Y1059872D02*
G03*
X1035992Y1059872I-984J0D01*
G01*
X1015112Y1029507D02*
G03*
X1015112Y1029507I-984J0D01*
G01*
X685477Y799628D02*
G03*
X685477Y799628I-984J0D01*
G01*
X655612Y820507D02*
G03*
X655612Y820507I-984J0D01*
G01*
X675992Y850872D02*
G03*
X675992Y850872I-984J0D01*
G01*
X706356Y829993D02*
G03*
X706356Y829993I-984J0D01*
G01*
X946856Y413993D02*
G03*
X946856Y413993I-984J0D01*
G01*
X925477Y383628D02*
G03*
X925477Y383628I-984J0D01*
G01*
X895612Y404507D02*
G03*
X895612Y404507I-984J0D01*
G01*
X916492Y434872D02*
G03*
X916492Y434872I-984J0D01*
G01*
X534612Y1029007D02*
G03*
X534612Y1029007I-984J0D01*
G01*
X555492Y1058872D02*
G03*
X555492Y1058872I-984J0D01*
G01*
X585856Y1037993D02*
G03*
X585856Y1037993I-984J0D01*
G01*
X564977Y1008128D02*
G03*
X564977Y1008128I-984J0D01*
G01*
X804977Y592128D02*
G03*
X804977Y592128I-984J0D01*
G01*
X775112Y613007D02*
G03*
X775112Y613007I-984J0D01*
G01*
X795992Y643372D02*
G03*
X795992Y643372I-984J0D01*
G01*
X825856Y622493D02*
G03*
X825856Y622493I-984J0D01*
G01*
X775112Y1029007D02*
G03*
X775112Y1029007I-984J0D01*
G01*
X795992Y1059872D02*
G03*
X795992Y1059872I-984J0D01*
G01*
X826356Y1038493D02*
G03*
X826356Y1038493I-984J0D01*
G01*
X805477Y1008628D02*
G03*
X805477Y1008628I-984J0D01*
G01*
X1015612Y613007D02*
G03*
X1015612Y613007I-984J0D01*
G01*
X1036492Y643372D02*
G03*
X1036492Y643372I-984J0D01*
G01*
X1066856Y622493D02*
G03*
X1066856Y622493I-984J0D01*
G01*
X1045977Y592128D02*
G03*
X1045977Y592128I-984J0D01*
G01*
X1136112Y821507D02*
G03*
X1136112Y821507I-984J0D01*
G01*
X691500Y1059000D02*
G03*
X691500Y1059000I-12000J0D01*
G01*
X610000Y917500D02*
G03*
X610000Y917500I-12000J0D01*
G01*
X869122Y379880D02*
G03*
X970897Y379880I50888J29380D01*
G01*
X934010Y825818D02*
G03*
X934010Y825818I-14000J0D01*
G01*
Y409260D02*
G03*
X934010Y409260I-14000J0D01*
G01*
X559260Y1092857D02*
G03*
X508372Y1004717I0J-58760D01*
G01*
X813760Y1034097D02*
G03*
X813760Y1034097I-14000J0D01*
G01*
X573260D02*
G03*
X573260Y1034097I-14000J0D01*
G01*
X693510Y825818D02*
G03*
X693510Y825818I-14000J0D01*
G01*
X813760Y617539D02*
G03*
X813760Y617539I-14000J0D01*
G01*
X1294760Y1034097D02*
G03*
X1294760Y1034097I-14000J0D01*
G01*
X1054260D02*
G03*
X1054260Y1034097I-14000J0D01*
G01*
X1174510Y825818D02*
G03*
X1174510Y825818I-14000J0D01*
G01*
X1054260Y617539D02*
G03*
X1054260Y617539I-14000J0D01*
G01*
X1331647Y1004717D02*
G03*
X1280760Y1092857I-50888J29380D01*
G01*
X907352Y840932D02*
Y852068D01*
X887864Y849284D02*
X896216Y857635D01*
X901784Y835365D02*
X910135Y843716D01*
X890648Y840932D02*
X893432Y838148D01*
X904568Y854852D02*
X907352Y852068D01*
X893432Y813352D02*
X904568Y813352D01*
X887864Y802216D02*
X896216Y793864D01*
X901784Y816136D02*
X910135Y807784D01*
X904568Y796648D02*
X907352Y799432D01*
X890648Y810568D02*
X893432Y813352D01*
X932148Y799432D02*
Y810568D01*
X943284Y793864D02*
X951635Y802216D01*
X929364Y807784D02*
X937716Y816136D01*
X946068Y813352D02*
X948852Y810568D01*
X932148Y799432D02*
X934932Y796648D01*
Y838148D02*
X946068D01*
X943284Y857635D02*
X951635Y849284D01*
X929364Y843716D02*
X937716Y835365D01*
X932148Y852068D02*
X934932Y854852D01*
X946068Y838148D02*
X948852Y840932D01*
X1254432Y1021852D02*
X1265568D01*
X1248864Y1010716D02*
X1257216Y1002365D01*
X1262784Y1024636D02*
X1271136Y1016284D01*
X1265568Y1005148D02*
X1268352Y1007932D01*
X1251648Y1019068D02*
X1254432Y1021852D01*
X1293148Y1007932D02*
Y1019068D01*
X1304284Y1002365D02*
X1312636Y1010716D01*
X1290364Y1016284D02*
X1298716Y1024636D01*
X1307068Y1021852D02*
X1309852Y1019068D01*
X1293148Y1007932D02*
X1295932Y1005148D01*
Y1046648D02*
X1307068D01*
X1304284Y1066136D02*
X1312636Y1057784D01*
X1290364Y1052216D02*
X1298716Y1043865D01*
X1293148Y1060568D02*
X1295932Y1063352D01*
X1307068Y1046648D02*
X1309852Y1049432D01*
X1268352D02*
Y1060568D01*
X1248864Y1057784D02*
X1257216Y1066136D01*
X1262784Y1043865D02*
X1271136Y1052216D01*
X1251648Y1049432D02*
X1254432Y1046648D01*
X1265568Y1063352D02*
X1268352Y1060568D01*
X1172648Y799932D02*
Y811068D01*
X1183784Y794365D02*
X1192136Y802716D01*
X1169864Y808284D02*
X1178216Y816636D01*
X1186568Y813852D02*
X1189352Y811068D01*
X1172648Y799932D02*
X1175432Y797148D01*
X1175932Y838648D02*
X1187068D01*
X1184284Y858136D02*
X1192636Y849784D01*
X1170364Y844216D02*
X1178716Y835865D01*
X1173148Y852568D02*
X1175932Y855352D01*
X1187068Y838648D02*
X1189852Y841432D01*
X1148352D02*
Y852568D01*
X1128864Y849784D02*
X1137216Y858136D01*
X1142784Y835865D02*
X1151136Y844216D01*
X1131648Y841432D02*
X1134432Y838648D01*
X1145568Y855352D02*
X1148352Y852568D01*
X1052148Y1007932D02*
Y1019068D01*
X1063284Y1002365D02*
X1071636Y1010716D01*
X1049364Y1016284D02*
X1057716Y1024636D01*
X1066068Y1021852D02*
X1068852Y1019068D01*
X1052148Y1007932D02*
X1054932Y1005148D01*
Y1046648D02*
X1066068D01*
X1063284Y1066136D02*
X1071636Y1057784D01*
X1049364Y1052216D02*
X1057716Y1043865D01*
X1052148Y1060568D02*
X1054932Y1063352D01*
X1066068Y1046648D02*
X1068852Y1049432D01*
X1027352D02*
Y1060568D01*
X1007864Y1057784D02*
X1016216Y1066136D01*
X1021784Y1043865D02*
X1030136Y1052216D01*
X1010648Y1049432D02*
X1013432Y1046648D01*
X1024568Y1063352D02*
X1027352Y1060568D01*
X1013432Y1021852D02*
X1024568D01*
X1007864Y1010716D02*
X1016216Y1002365D01*
X1021784Y1024636D02*
X1030136Y1016284D01*
X1024568Y1005148D02*
X1027352Y1007932D01*
X1010648Y1019068D02*
X1013432Y1021852D01*
X692148Y798932D02*
X694932Y796148D01*
X706068Y812852D02*
X708852Y810068D01*
X689364Y807284D02*
X697716Y815635D01*
X703284Y793364D02*
X711635Y801716D01*
X692148Y798932D02*
Y810068D01*
X651148D02*
X653932Y812852D01*
X665068Y796148D02*
X667852Y798932D01*
X662284Y815635D02*
X670636Y807284D01*
X648364Y801716D02*
X656716Y793364D01*
X653932Y812852D02*
X665068D01*
X664568Y854352D02*
X667352Y851568D01*
X650648Y840432D02*
X653432Y837648D01*
X661784Y834865D02*
X670135Y843216D01*
X647864Y848784D02*
X656216Y857135D01*
X667352Y840432D02*
Y851568D01*
X706068Y837648D02*
X708852Y840432D01*
X692148Y851568D02*
X694932Y854352D01*
X689364Y843216D02*
X697716Y834865D01*
X703284Y857135D02*
X711635Y848784D01*
X694932Y837648D02*
X706068D01*
X946568Y421648D02*
X949352Y424432D01*
X932648Y435568D02*
X935432Y438352D01*
X929865Y427216D02*
X938216Y418864D01*
X943784Y441136D02*
X952135Y432784D01*
X935432Y421648D02*
X946568D01*
X932148Y382932D02*
X934932Y380148D01*
X946068Y396852D02*
X948852Y394068D01*
X929364Y391284D02*
X937716Y399636D01*
X943284Y377364D02*
X951635Y385716D01*
X932148Y382932D02*
Y394068D01*
X891148D02*
X893932Y396852D01*
X905068Y380148D02*
X907852Y382932D01*
X902284Y399636D02*
X910635Y391284D01*
X888365Y385716D02*
X896716Y377364D01*
X893932Y396852D02*
X905068D01*
Y438352D02*
X907852Y435568D01*
X891148Y424432D02*
X893932Y421648D01*
X902284Y418864D02*
X910635Y427216D01*
X888365Y432784D02*
X896716Y441136D01*
X907852Y424432D02*
Y435568D01*
X530148Y1018568D02*
X532932Y1021352D01*
X544068Y1004648D02*
X546852Y1007432D01*
X541284Y1024135D02*
X549636Y1015784D01*
X527364Y1010216D02*
X535716Y1001865D01*
X532932Y1021352D02*
X544068D01*
Y1062352D02*
X546852Y1059568D01*
X530148Y1048432D02*
X532932Y1045648D01*
X541284Y1042865D02*
X549636Y1051216D01*
X527364Y1056784D02*
X535716Y1065135D01*
X546852Y1048432D02*
Y1059568D01*
X585568Y1045648D02*
X588352Y1048432D01*
X571648Y1059568D02*
X574432Y1062352D01*
X568864Y1051216D02*
X577216Y1042865D01*
X582784Y1065135D02*
X591136Y1056784D01*
X574432Y1045648D02*
X585568D01*
X571648Y1007432D02*
X574432Y1004648D01*
X585568Y1021352D02*
X588352Y1018568D01*
X568864Y1015784D02*
X577216Y1024135D01*
X582784Y1001865D02*
X591136Y1010216D01*
X571648Y1007432D02*
Y1018568D01*
X811648Y591432D02*
X814432Y588648D01*
X825568Y605352D02*
X828352Y602568D01*
X808864Y599784D02*
X817216Y608136D01*
X822784Y585864D02*
X831135Y594216D01*
X811648Y591432D02*
Y602568D01*
X770648D02*
X773432Y605352D01*
X784568Y588648D02*
X787352Y591432D01*
X781784Y608136D02*
X790135Y599784D01*
X767865Y594216D02*
X776216Y585864D01*
X773432Y605352D02*
X784568D01*
Y646852D02*
X787352Y644068D01*
X770648Y632932D02*
X773432Y630148D01*
X781784Y627364D02*
X790135Y635716D01*
X767865Y641284D02*
X776216Y649636D01*
X787352Y632932D02*
Y644068D01*
X825568Y630148D02*
X828352Y632932D01*
X811648Y644068D02*
X814432Y646852D01*
X808864Y635716D02*
X817216Y627364D01*
X822784Y649636D02*
X831135Y641284D01*
X814432Y630148D02*
X825568D01*
X770648Y1018568D02*
X773432Y1021352D01*
X784568Y1004648D02*
X787352Y1007432D01*
X781784Y1024135D02*
X790135Y1015784D01*
X767865Y1010216D02*
X776216Y1001865D01*
X773432Y1021352D02*
X784568D01*
Y1063352D02*
X787352Y1060568D01*
X770648Y1049432D02*
X773432Y1046648D01*
X781784Y1043865D02*
X790135Y1052216D01*
X767865Y1057784D02*
X776216Y1066136D01*
X787352Y1049432D02*
Y1060568D01*
X826068Y1046148D02*
X828852Y1048932D01*
X812148Y1060068D02*
X814932Y1062852D01*
X809365Y1051716D02*
X817716Y1043365D01*
X823284Y1065635D02*
X831635Y1057284D01*
X814932Y1046148D02*
X826068D01*
X812148Y1007932D02*
X814932Y1005148D01*
X826068Y1021852D02*
X828852Y1019068D01*
X809365Y1016284D02*
X817716Y1024636D01*
X823284Y1002365D02*
X831635Y1010716D01*
X812148Y1007932D02*
Y1019068D01*
X1011148Y602568D02*
X1013932Y605352D01*
X1025068Y588648D02*
X1027852Y591432D01*
X1022284Y608136D02*
X1030636Y599784D01*
X1008364Y594216D02*
X1016716Y585864D01*
X1013932Y605352D02*
X1025068D01*
Y646852D02*
X1027852Y644068D01*
X1011148Y632932D02*
X1013932Y630148D01*
X1022284Y627364D02*
X1030636Y635716D01*
X1008364Y641284D02*
X1016716Y649636D01*
X1027852Y632932D02*
Y644068D01*
X1066568Y630148D02*
X1069352Y632932D01*
X1052648Y644068D02*
X1055432Y646852D01*
X1049864Y635716D02*
X1058216Y627364D01*
X1063784Y649636D02*
X1072136Y641284D01*
X1055432Y630148D02*
X1066568D01*
X1052648Y591432D02*
X1055432Y588648D01*
X1066568Y605352D02*
X1069352Y602568D01*
X1049864Y599784D02*
X1058216Y608136D01*
X1063784Y585864D02*
X1072136Y594216D01*
X1052648Y591432D02*
Y602568D01*
X1131648Y811068D02*
X1134432Y813852D01*
X1145568Y797148D02*
X1148352Y799932D01*
X1142784Y816636D02*
X1151136Y808284D01*
X1128864Y802716D02*
X1137216Y794365D01*
X1134432Y813852D02*
X1145568D01*
X559260Y1092857D02*
X1280760D01*
X508372Y1004717D02*
X869122Y379880D01*
X970897D02*
X1331647Y1004717D01*
X1175000Y784498D02*
Y779500D01*
X1177499D01*
X1178332Y780333D01*
Y783665D01*
X1177499Y784498D01*
X1175000D01*
X1183331Y779500D02*
X1179998D01*
X1183331Y782832D01*
Y783665D01*
X1182498Y784498D01*
X1180831D01*
X1179998Y783665D01*
X1188329Y784498D02*
X1186663Y783665D01*
X1184997Y781999D01*
Y780333D01*
X1185830Y779500D01*
X1187496D01*
X1188329Y780333D01*
Y781166D01*
X1187496Y781999D01*
X1184997D01*
X1190000Y866498D02*
Y861500D01*
X1192499D01*
X1193332Y862333D01*
Y865665D01*
X1192499Y866498D01*
X1190000D01*
X1198331Y861500D02*
X1194998D01*
X1198331Y864832D01*
Y865665D01*
X1197498Y866498D01*
X1195831D01*
X1194998Y865665D01*
X1199997Y866498D02*
X1203329D01*
Y865665D01*
X1199997Y862333D01*
Y861500D01*
X1113500Y864998D02*
Y860000D01*
X1115999D01*
X1116832Y860833D01*
Y864165D01*
X1115999Y864998D01*
X1113500D01*
X1121831Y860000D02*
X1118498D01*
X1121831Y863332D01*
Y864165D01*
X1120998Y864998D01*
X1119331D01*
X1118498Y864165D01*
X1123497D02*
X1124330Y864998D01*
X1125996D01*
X1126829Y864165D01*
Y863332D01*
X1125996Y862499D01*
X1126829Y861666D01*
Y860833D01*
X1125996Y860000D01*
X1124330D01*
X1123497Y860833D01*
Y861666D01*
X1124330Y862499D01*
X1123497Y863332D01*
Y864165D01*
X1124330Y862499D02*
X1125996D01*
X1071000Y1003998D02*
Y999000D01*
X1073499D01*
X1074332Y999833D01*
Y1003165D01*
X1073499Y1003998D01*
X1071000D01*
X1079331D02*
X1075998D01*
Y1001499D01*
X1077664Y1002332D01*
X1078498D01*
X1079331Y1001499D01*
Y999833D01*
X1078498Y999000D01*
X1076831D01*
X1075998Y999833D01*
X1071000Y1070498D02*
Y1065500D01*
X1073499D01*
X1074332Y1066333D01*
Y1069665D01*
X1073499Y1070498D01*
X1071000D01*
X1079331D02*
X1077664Y1069665D01*
X1075998Y1067999D01*
Y1066333D01*
X1076831Y1065500D01*
X1078498D01*
X1079331Y1066333D01*
Y1067166D01*
X1078498Y1067999D01*
X1075998D01*
X999000Y1071498D02*
Y1066500D01*
X1001499D01*
X1002332Y1067333D01*
Y1070665D01*
X1001499Y1071498D01*
X999000D01*
X1003998D02*
X1007331D01*
Y1070665D01*
X1003998Y1067333D01*
Y1066500D01*
X1001000Y1004498D02*
Y999500D01*
X1003499D01*
X1004332Y1000333D01*
Y1003665D01*
X1003499Y1004498D01*
X1001000D01*
X1005998Y1003665D02*
X1006831Y1004498D01*
X1008498D01*
X1009331Y1003665D01*
Y1002832D01*
X1008498Y1001999D01*
X1009331Y1001166D01*
Y1000333D01*
X1008498Y999500D01*
X1006831D01*
X1005998Y1000333D01*
Y1001166D01*
X1006831Y1001999D01*
X1005998Y1002832D01*
Y1003665D01*
X1006831Y1001999D02*
X1008498D01*
X874000Y860498D02*
Y855500D01*
X876499D01*
X877332Y856333D01*
Y859665D01*
X876499Y860498D01*
X874000D01*
X882331Y855500D02*
X878998D01*
X882331Y858832D01*
Y859665D01*
X881498Y860498D01*
X879831D01*
X878998Y859665D01*
X883997Y855500D02*
X885663D01*
X884830D01*
Y860498D01*
X883997Y859665D01*
X875000Y796498D02*
Y791500D01*
X877499D01*
X878332Y792333D01*
Y795665D01*
X877499Y796498D01*
X875000D01*
X883331Y791500D02*
X879998D01*
X883331Y794832D01*
Y795665D01*
X882498Y796498D01*
X880831D01*
X879998Y795665D01*
X888329Y791500D02*
X884997D01*
X888329Y794832D01*
Y795665D01*
X887496Y796498D01*
X885830D01*
X884997Y795665D01*
X952000Y795498D02*
Y790500D01*
X954499D01*
X955332Y791333D01*
Y794665D01*
X954499Y795498D01*
X952000D01*
X960331Y790500D02*
X956998D01*
X960331Y793832D01*
Y794665D01*
X959498Y795498D01*
X957831D01*
X956998Y794665D01*
X961997D02*
X962830Y795498D01*
X964496D01*
X965329Y794665D01*
Y793832D01*
X964496Y792999D01*
X963663D01*
X964496D01*
X965329Y792166D01*
Y791333D01*
X964496Y790500D01*
X962830D01*
X961997Y791333D01*
X953500Y861498D02*
Y856500D01*
X955999D01*
X956832Y857333D01*
Y860665D01*
X955999Y861498D01*
X953500D01*
X961831Y856500D02*
X958498D01*
X961831Y859832D01*
Y860665D01*
X960998Y861498D01*
X959331D01*
X958498Y860665D01*
X965996Y856500D02*
Y861498D01*
X963497Y858999D01*
X966829D01*
X1244000Y1003498D02*
Y998500D01*
X1246499D01*
X1247332Y999333D01*
Y1002665D01*
X1246499Y1003498D01*
X1244000D01*
X1248998Y998500D02*
X1250665D01*
X1249831D01*
Y1003498D01*
X1248998Y1002665D01*
X1311000Y1003998D02*
Y999000D01*
X1313499D01*
X1314332Y999833D01*
Y1003165D01*
X1313499Y1003998D01*
X1311000D01*
X1319331Y999000D02*
X1315998D01*
X1319331Y1002332D01*
Y1003165D01*
X1318498Y1003998D01*
X1316831D01*
X1315998Y1003165D01*
X1311500Y1068998D02*
Y1064000D01*
X1313999D01*
X1314832Y1064833D01*
Y1068165D01*
X1313999Y1068998D01*
X1311500D01*
X1316498Y1068165D02*
X1317331Y1068998D01*
X1318998D01*
X1319831Y1068165D01*
Y1067332D01*
X1318998Y1066499D01*
X1318165D01*
X1318998D01*
X1319831Y1065666D01*
Y1064833D01*
X1318998Y1064000D01*
X1317331D01*
X1316498Y1064833D01*
X1245500Y1070498D02*
Y1065500D01*
X1247999D01*
X1248832Y1066333D01*
Y1069665D01*
X1247999Y1070498D01*
X1245500D01*
X1252998Y1065500D02*
Y1070498D01*
X1250498Y1067999D01*
X1253831D01*
X1113500Y792998D02*
Y788000D01*
X1115999D01*
X1116832Y788833D01*
Y792165D01*
X1115999Y792998D01*
X1113500D01*
X1121831Y788000D02*
X1118498D01*
X1121831Y791332D01*
Y792165D01*
X1120998Y792998D01*
X1119331D01*
X1118498Y792165D01*
X1126829Y792998D02*
X1123497D01*
Y790499D01*
X1125163Y791332D01*
X1125996D01*
X1126829Y790499D01*
Y788833D01*
X1125996Y788000D01*
X1124330D01*
X1123497Y788833D01*
X754000Y1004998D02*
Y1000000D01*
X756499D01*
X757332Y1000833D01*
Y1004165D01*
X756499Y1004998D01*
X754000D01*
X758998Y1000000D02*
X760665D01*
X759831D01*
Y1004998D01*
X758998Y1004165D01*
X766496Y1000000D02*
X763164D01*
X766496Y1003332D01*
Y1004165D01*
X765663Y1004998D01*
X763997D01*
X763164Y1004165D01*
X755500Y1068498D02*
Y1063500D01*
X757999D01*
X758832Y1064333D01*
Y1067665D01*
X757999Y1068498D01*
X755500D01*
X760498Y1063500D02*
X762164D01*
X761331D01*
Y1068498D01*
X760498Y1067665D01*
X764664Y1063500D02*
X766330D01*
X765497D01*
Y1068498D01*
X764664Y1067665D01*
X833000Y1067998D02*
Y1063000D01*
X835499D01*
X836332Y1063833D01*
Y1067165D01*
X835499Y1067998D01*
X833000D01*
X837998Y1063000D02*
X839664D01*
X838831D01*
Y1067998D01*
X837998Y1067165D01*
X842164D02*
X842997Y1067998D01*
X844663D01*
X845496Y1067165D01*
Y1063833D01*
X844663Y1063000D01*
X842997D01*
X842164Y1063833D01*
Y1067165D01*
X839500Y1016498D02*
Y1011500D01*
X841999D01*
X842832Y1012333D01*
Y1015665D01*
X841999Y1016498D01*
X839500D01*
X844498Y1012333D02*
X845331Y1011500D01*
X846998D01*
X847831Y1012333D01*
Y1015665D01*
X846998Y1016498D01*
X845331D01*
X844498Y1015665D01*
Y1014832D01*
X845331Y1013999D01*
X847831D01*
X993000Y585498D02*
Y580500D01*
X995499D01*
X996332Y581333D01*
Y584665D01*
X995499Y585498D01*
X993000D01*
X997998Y584665D02*
X998831Y585498D01*
X1000498D01*
X1001331Y584665D01*
Y583832D01*
X1000498Y582999D01*
X999664D01*
X1000498D01*
X1001331Y582166D01*
Y581333D01*
X1000498Y580500D01*
X998831D01*
X997998Y581333D01*
X1006329Y580500D02*
X1002997D01*
X1006329Y583832D01*
Y584665D01*
X1005496Y585498D01*
X1003830D01*
X1002997Y584665D01*
X996000Y654998D02*
Y650000D01*
X998499D01*
X999332Y650833D01*
Y654165D01*
X998499Y654998D01*
X996000D01*
X1000998Y654165D02*
X1001831Y654998D01*
X1003498D01*
X1004331Y654165D01*
Y653332D01*
X1003498Y652499D01*
X1002664D01*
X1003498D01*
X1004331Y651666D01*
Y650833D01*
X1003498Y650000D01*
X1001831D01*
X1000998Y650833D01*
X1005997Y650000D02*
X1007663D01*
X1006830D01*
Y654998D01*
X1005997Y654165D01*
X1071500Y657498D02*
Y652500D01*
X1073999D01*
X1074832Y653333D01*
Y656665D01*
X1073999Y657498D01*
X1071500D01*
X1076498Y656665D02*
X1077331Y657498D01*
X1078998D01*
X1079831Y656665D01*
Y655832D01*
X1078998Y654999D01*
X1078164D01*
X1078998D01*
X1079831Y654166D01*
Y653333D01*
X1078998Y652500D01*
X1077331D01*
X1076498Y653333D01*
X1081497Y656665D02*
X1082330Y657498D01*
X1083996D01*
X1084829Y656665D01*
Y653333D01*
X1083996Y652500D01*
X1082330D01*
X1081497Y653333D01*
Y656665D01*
X1052500Y574998D02*
Y570000D01*
X1054999D01*
X1055832Y570833D01*
Y574165D01*
X1054999Y574998D01*
X1052500D01*
X1060831Y570000D02*
X1057498D01*
X1060831Y573332D01*
Y574165D01*
X1059998Y574998D01*
X1058331D01*
X1057498Y574165D01*
X1062497Y570833D02*
X1063330Y570000D01*
X1064996D01*
X1065829Y570833D01*
Y574165D01*
X1064996Y574998D01*
X1063330D01*
X1062497Y574165D01*
Y573332D01*
X1063330Y572499D01*
X1065829D01*
X549000Y997998D02*
Y993000D01*
X551499D01*
X552332Y993833D01*
Y997165D01*
X551499Y997998D01*
X549000D01*
X553998Y993000D02*
X555664D01*
X554831D01*
Y997998D01*
X553998Y997165D01*
X561496Y997998D02*
X559830Y997165D01*
X558164Y995499D01*
Y993833D01*
X558997Y993000D01*
X560663D01*
X561496Y993833D01*
Y994666D01*
X560663Y995499D01*
X558164D01*
X555000Y1080498D02*
Y1075500D01*
X557499D01*
X558332Y1076333D01*
Y1079665D01*
X557499Y1080498D01*
X555000D01*
X559998Y1075500D02*
X561664D01*
X560831D01*
Y1080498D01*
X559998Y1079665D01*
X567496Y1080498D02*
X564164D01*
Y1077999D01*
X565830Y1078832D01*
X566663D01*
X567496Y1077999D01*
Y1076333D01*
X566663Y1075500D01*
X564997D01*
X564164Y1076333D01*
X592500Y1067998D02*
Y1063000D01*
X594999D01*
X595832Y1063833D01*
Y1067165D01*
X594999Y1067998D01*
X592500D01*
X597498Y1063000D02*
X599164D01*
X598331D01*
Y1067998D01*
X597498Y1067165D01*
X604163Y1063000D02*
Y1067998D01*
X601664Y1065499D01*
X604996D01*
X593000Y1005498D02*
Y1000500D01*
X595499D01*
X596332Y1001333D01*
Y1004665D01*
X595499Y1005498D01*
X593000D01*
X597998Y1000500D02*
X599664D01*
X598831D01*
Y1005498D01*
X597998Y1004665D01*
X602164D02*
X602997Y1005498D01*
X604663D01*
X605496Y1004665D01*
Y1003832D01*
X604663Y1002999D01*
X603830D01*
X604663D01*
X605496Y1002166D01*
Y1001333D01*
X604663Y1000500D01*
X602997D01*
X602164Y1001333D01*
X831500Y585498D02*
Y580500D01*
X833999D01*
X834832Y581333D01*
Y584665D01*
X833999Y585498D01*
X831500D01*
X836498Y584665D02*
X837331Y585498D01*
X838998D01*
X839831Y584665D01*
Y583832D01*
X838998Y582999D01*
X838165D01*
X838998D01*
X839831Y582166D01*
Y581333D01*
X838998Y580500D01*
X837331D01*
X836498Y581333D01*
X844829Y585498D02*
X843163Y584665D01*
X841497Y582999D01*
Y581333D01*
X842330Y580500D01*
X843996D01*
X844829Y581333D01*
Y582166D01*
X843996Y582999D01*
X841497D01*
X788000Y578498D02*
Y573500D01*
X790499D01*
X791332Y574333D01*
Y577665D01*
X790499Y578498D01*
X788000D01*
X792998Y577665D02*
X793831Y578498D01*
X795498D01*
X796331Y577665D01*
Y576832D01*
X795498Y575999D01*
X794664D01*
X795498D01*
X796331Y575166D01*
Y574333D01*
X795498Y573500D01*
X793831D01*
X792998Y574333D01*
X801329Y578498D02*
X797997D01*
Y575999D01*
X799663Y576832D01*
X800496D01*
X801329Y575999D01*
Y574333D01*
X800496Y573500D01*
X798830D01*
X797997Y574333D01*
X754500Y653998D02*
Y649000D01*
X756999D01*
X757832Y649833D01*
Y653165D01*
X756999Y653998D01*
X754500D01*
X759498Y653165D02*
X760331Y653998D01*
X761998D01*
X762831Y653165D01*
Y652332D01*
X761998Y651499D01*
X761165D01*
X761998D01*
X762831Y650666D01*
Y649833D01*
X761998Y649000D01*
X760331D01*
X759498Y649833D01*
X766996Y649000D02*
Y653998D01*
X764497Y651499D01*
X767829D01*
X832500Y653998D02*
Y649000D01*
X834999D01*
X835832Y649833D01*
Y653165D01*
X834999Y653998D01*
X832500D01*
X837498Y653165D02*
X838331Y653998D01*
X839998D01*
X840831Y653165D01*
Y652332D01*
X839998Y651499D01*
X839165D01*
X839998D01*
X840831Y650666D01*
Y649833D01*
X839998Y649000D01*
X838331D01*
X837498Y649833D01*
X842497Y653165D02*
X843330Y653998D01*
X844996D01*
X845829Y653165D01*
Y652332D01*
X844996Y651499D01*
X844163D01*
X844996D01*
X845829Y650666D01*
Y649833D01*
X844996Y649000D01*
X843330D01*
X842497Y649833D01*
X710500Y794998D02*
Y790000D01*
X712999D01*
X713832Y790833D01*
Y794165D01*
X712999Y794998D01*
X710500D01*
X718831Y790000D02*
X715498D01*
X718831Y793332D01*
Y794165D01*
X717998Y794998D01*
X716331D01*
X715498Y794165D01*
X720497D02*
X721330Y794998D01*
X722996D01*
X723829Y794165D01*
Y790833D01*
X722996Y790000D01*
X721330D01*
X720497Y790833D01*
Y794165D01*
X666000Y785498D02*
Y780500D01*
X668499D01*
X669332Y781333D01*
Y784665D01*
X668499Y785498D01*
X666000D01*
X670998Y780500D02*
X672664D01*
X671831D01*
Y785498D01*
X670998Y784665D01*
X675164Y781333D02*
X675997Y780500D01*
X677663D01*
X678496Y781333D01*
Y784665D01*
X677663Y785498D01*
X675997D01*
X675164Y784665D01*
Y783832D01*
X675997Y782999D01*
X678496D01*
X634500Y860498D02*
Y855500D01*
X636999D01*
X637832Y856333D01*
Y859665D01*
X636999Y860498D01*
X634500D01*
X639498Y855500D02*
X641164D01*
X640331D01*
Y860498D01*
X639498Y859665D01*
X643664D02*
X644497Y860498D01*
X646163D01*
X646996Y859665D01*
Y858832D01*
X646163Y857999D01*
X646996Y857166D01*
Y856333D01*
X646163Y855500D01*
X644497D01*
X643664Y856333D01*
Y857166D01*
X644497Y857999D01*
X643664Y858832D01*
Y859665D01*
X644497Y857999D02*
X646163D01*
X713000Y860998D02*
Y856000D01*
X715499D01*
X716332Y856833D01*
Y860165D01*
X715499Y860998D01*
X713000D01*
X717998Y856000D02*
X719664D01*
X718831D01*
Y860998D01*
X717998Y860165D01*
X722164Y860998D02*
X725496D01*
Y860165D01*
X722164Y856833D01*
Y856000D01*
X954000Y446998D02*
Y442000D01*
X956499D01*
X957332Y442833D01*
Y446165D01*
X956499Y446998D01*
X954000D01*
X961498Y442000D02*
Y446998D01*
X958998Y444499D01*
X962331D01*
X963997Y446165D02*
X964830Y446998D01*
X966496D01*
X967329Y446165D01*
Y442833D01*
X966496Y442000D01*
X964830D01*
X963997Y442833D01*
Y446165D01*
X957500Y404498D02*
Y399500D01*
X959999D01*
X960832Y400333D01*
Y403665D01*
X959999Y404498D01*
X957500D01*
X962498Y403665D02*
X963331Y404498D01*
X964998D01*
X965831Y403665D01*
Y402832D01*
X964998Y401999D01*
X964165D01*
X964998D01*
X965831Y401166D01*
Y400333D01*
X964998Y399500D01*
X963331D01*
X962498Y400333D01*
X967497D02*
X968330Y399500D01*
X969996D01*
X970829Y400333D01*
Y403665D01*
X969996Y404498D01*
X968330D01*
X967497Y403665D01*
Y402832D01*
X968330Y401999D01*
X970829D01*
X870000Y414498D02*
Y409500D01*
X872499D01*
X873332Y410333D01*
Y413665D01*
X872499Y414498D01*
X870000D01*
X874998Y413665D02*
X875831Y414498D01*
X877498D01*
X878331Y413665D01*
Y412832D01*
X877498Y411999D01*
X876665D01*
X877498D01*
X878331Y411166D01*
Y410333D01*
X877498Y409500D01*
X875831D01*
X874998Y410333D01*
X879997Y413665D02*
X880830Y414498D01*
X882496D01*
X883329Y413665D01*
Y412832D01*
X882496Y411999D01*
X883329Y411166D01*
Y410333D01*
X882496Y409500D01*
X880830D01*
X879997Y410333D01*
Y411166D01*
X880830Y411999D01*
X879997Y412832D01*
Y413665D01*
X880830Y411999D02*
X882496D01*
X878000Y448498D02*
Y443500D01*
X880499D01*
X881332Y444333D01*
Y447665D01*
X880499Y448498D01*
X878000D01*
X882998Y447665D02*
X883831Y448498D01*
X885498D01*
X886331Y447665D01*
Y446832D01*
X885498Y445999D01*
X884665D01*
X885498D01*
X886331Y445166D01*
Y444333D01*
X885498Y443500D01*
X883831D01*
X882998Y444333D01*
X887997Y448498D02*
X891329D01*
Y447665D01*
X887997Y444333D01*
Y443500D01*
X890000Y1057500D02*
X892499D01*
X893332Y1058333D01*
X892499Y1059166D01*
X890833D01*
X890000Y1059999D01*
X890833Y1060832D01*
X893332D01*
X894998Y1055834D02*
Y1060832D01*
X897498D01*
X898331Y1059999D01*
Y1058333D01*
X897498Y1057500D01*
X894998D01*
X900830Y1060832D02*
X902496D01*
X903329Y1059999D01*
Y1057500D01*
X900830D01*
X899997Y1058333D01*
X900830Y1059166D01*
X903329D01*
X908327Y1060832D02*
X905828D01*
X904995Y1059999D01*
Y1058333D01*
X905828Y1057500D01*
X908327D01*
X912493D02*
X910827D01*
X909993Y1058333D01*
Y1059999D01*
X910827Y1060832D01*
X912493D01*
X913326Y1059999D01*
Y1059166D01*
X909993D01*
X914992Y1059999D02*
X918324D01*
X922489Y1057500D02*
X920823D01*
X919990Y1058333D01*
Y1059999D01*
X920823Y1060832D01*
X922489D01*
X923322Y1059999D01*
Y1059166D01*
X919990D01*
X924989Y1057500D02*
X926655D01*
X925822D01*
Y1060832D01*
X924989D01*
X930820Y1055834D02*
X931653D01*
X932486Y1056667D01*
Y1060832D01*
X929987D01*
X929154Y1059999D01*
Y1058333D01*
X929987Y1057500D01*
X932486D01*
X934152Y1062498D02*
Y1057500D01*
Y1059999D01*
X934985Y1060832D01*
X936652D01*
X937485Y1059999D01*
Y1057500D01*
X939984Y1061665D02*
Y1060832D01*
X939151D01*
X940817D01*
X939984D01*
Y1058333D01*
X940817Y1057500D01*
X943316D02*
Y1058333D01*
X944149D01*
Y1057500D01*
X943316D01*
X950814Y1060832D02*
X948314D01*
X947481Y1059999D01*
Y1058333D01*
X948314Y1057500D01*
X950814D01*
X953313D02*
X954979D01*
X955812Y1058333D01*
Y1059999D01*
X954979Y1060832D01*
X953313D01*
X952480Y1059999D01*
Y1058333D01*
X953313Y1057500D01*
X957478D02*
Y1060832D01*
X958311D01*
X959144Y1059999D01*
Y1057500D01*
Y1059999D01*
X959977Y1060832D01*
X960810Y1059999D01*
Y1057500D01*
X934619Y1022836D02*
Y1019504D01*
Y1021170D01*
X935452Y1022003D01*
X936285Y1022836D01*
X937119D01*
X942117Y1019504D02*
X940451D01*
X939618Y1020337D01*
Y1022003D01*
X940451Y1022836D01*
X942117D01*
X942950Y1022003D01*
Y1021170D01*
X939618D01*
X944616Y1022836D02*
X946282Y1019504D01*
X947948Y1022836D01*
X949615Y1019504D02*
X951281D01*
X950447D01*
Y1024502D01*
X949615Y1023669D01*
X953780Y1019504D02*
Y1020337D01*
X954613D01*
Y1019504D01*
X953780D01*
X957945Y1023669D02*
X958778Y1024502D01*
X960444D01*
X961277Y1023669D01*
Y1020337D01*
X960444Y1019504D01*
X958778D01*
X957945Y1020337D01*
Y1023669D01*
X962943Y1019504D02*
X964610D01*
X963776D01*
Y1024502D01*
X962943Y1023669D01*
X887500Y1074998D02*
Y1070000D01*
X889999D01*
X890832Y1070833D01*
Y1071666D01*
X889999Y1072499D01*
X887500D01*
X889999D01*
X890832Y1073332D01*
Y1074165D01*
X889999Y1074998D01*
X887500D01*
X892498Y1070000D02*
Y1074998D01*
X894998D01*
X895831Y1074165D01*
Y1072499D01*
X894998Y1071666D01*
X892498D01*
X894164D02*
X895831Y1070000D01*
X897497Y1074998D02*
X899163D01*
X898330D01*
Y1070000D01*
X897497D01*
X899163D01*
X901662D02*
Y1073332D01*
X903328Y1074998D01*
X904994Y1073332D01*
Y1070000D01*
Y1072499D01*
X901662D01*
X906660Y1070000D02*
Y1074998D01*
X909993Y1070000D01*
Y1074998D01*
X919989Y1074165D02*
X919156Y1074998D01*
X917490D01*
X916657Y1074165D01*
Y1070833D01*
X917490Y1070000D01*
X919156D01*
X919989Y1070833D01*
X924155Y1074998D02*
X922489D01*
X921656Y1074165D01*
Y1070833D01*
X922489Y1070000D01*
X924155D01*
X924988Y1070833D01*
Y1074165D01*
X924155Y1074998D01*
X926654D02*
X929986Y1070000D01*
Y1074998D02*
X926654Y1070000D01*
X940832Y1073332D02*
X938333D01*
X937500Y1072499D01*
Y1070833D01*
X938333Y1070000D01*
X940832D01*
X950829D02*
X947497D01*
X950829Y1073332D01*
Y1074165D01*
X949996Y1074998D01*
X948330D01*
X947497Y1074165D01*
X952495D02*
X953328Y1074998D01*
X954994D01*
X955827Y1074165D01*
Y1070833D01*
X954994Y1070000D01*
X953328D01*
X952495Y1070833D01*
Y1074165D01*
X960826Y1070000D02*
X957493D01*
X960826Y1073332D01*
Y1074165D01*
X959993Y1074998D01*
X958327D01*
X957493Y1074165D01*
X962492Y1070000D02*
X964158D01*
X963325D01*
Y1074998D01*
X962492Y1074165D01*
D23*
X855000Y898498D02*
Y892500D01*
X857999D01*
X858999Y893500D01*
Y894499D01*
X857999Y895499D01*
X855000D01*
X857999D01*
X858999Y896499D01*
Y897498D01*
X857999Y898498D01*
X855000D01*
X860998Y892500D02*
Y896499D01*
X862997Y898498D01*
X864997Y896499D01*
Y892500D01*
Y895499D01*
X860998D01*
X866996Y898498D02*
Y892500D01*
X870995D01*
X872994Y898498D02*
Y892500D01*
X876993D01*
X878992Y898498D02*
Y897498D01*
X880992Y895499D01*
X882991Y897498D01*
Y898498D01*
X880992Y895499D02*
Y892500D01*
X894987Y897498D02*
X893987Y898498D01*
X891988D01*
X890988Y897498D01*
Y896499D01*
X891988Y895499D01*
X893987D01*
X894987Y894499D01*
Y893500D01*
X893987Y892500D01*
X891988D01*
X890988Y893500D01*
X896986Y898498D02*
X900985D01*
X898986D01*
Y892500D01*
X902985D02*
Y898498D01*
X905984D01*
X906983Y897498D01*
Y895499D01*
X905984Y894499D01*
X902985D01*
X904984D02*
X906983Y892500D01*
X908982Y898498D02*
X910982D01*
X909982D01*
Y892500D01*
X908982D01*
X910982D01*
X913981Y898498D02*
Y892500D01*
Y894499D01*
X917980Y898498D01*
X914981Y895499D01*
X917980Y892500D01*
X923978Y898498D02*
X919979D01*
Y892500D01*
X923978D01*
X919979Y895499D02*
X921978D01*
X929976Y897498D02*
X928976Y898498D01*
X926977D01*
X925977Y897498D01*
Y896499D01*
X926977Y895499D01*
X928976D01*
X929976Y894499D01*
Y893500D01*
X928976Y892500D01*
X926977D01*
X925977Y893500D01*
X937973Y892500D02*
Y896499D01*
X939972Y898498D01*
X941972Y896499D01*
Y892500D01*
Y895499D01*
X937973D01*
X943971Y892500D02*
Y898498D01*
X947970Y892500D01*
Y898498D01*
X949969D02*
Y892500D01*
X952968D01*
X953968Y893500D01*
Y897498D01*
X952968Y898498D01*
X949969D01*
X965964Y897498D02*
X964964Y898498D01*
X962965D01*
X961965Y897498D01*
Y896499D01*
X962965Y895499D01*
X964964D01*
X965964Y894499D01*
Y893500D01*
X964964Y892500D01*
X962965D01*
X961965Y893500D01*
X967964Y892500D02*
Y898498D01*
X970963D01*
X971962Y897498D01*
Y895499D01*
X970963Y894499D01*
X967964D01*
X973962Y892500D02*
Y896499D01*
X975961Y898498D01*
X977960Y896499D01*
Y892500D01*
Y895499D01*
X973962D01*
X979960Y892500D02*
Y898498D01*
X982959D01*
X983958Y897498D01*
Y895499D01*
X982959Y894499D01*
X979960D01*
X981959D02*
X983958Y892500D01*
X989956Y898498D02*
X985958D01*
Y892500D01*
X989956D01*
X985958Y895499D02*
X987957D01*
X995954Y897498D02*
X994955Y898498D01*
X992955D01*
X991956Y897498D01*
Y896499D01*
X992955Y895499D01*
X994955D01*
X995954Y894499D01*
Y893500D01*
X994955Y892500D01*
X992955D01*
X991956Y893500D01*
X896118Y1025502D02*
X892119D01*
Y1022503D01*
X894119Y1023503D01*
X895118D01*
X896118Y1022503D01*
Y1020504D01*
X895118Y1019504D01*
X893119D01*
X892119Y1020504D01*
X898117Y1024502D02*
X899117Y1025502D01*
X901116D01*
X902116Y1024502D01*
Y1020504D01*
X901116Y1019504D01*
X899117D01*
X898117Y1020504D01*
Y1024502D01*
X908114Y1025502D02*
X904115D01*
Y1022503D01*
X906115Y1023503D01*
X907115D01*
X908114Y1022503D01*
Y1020504D01*
X907115Y1019504D01*
X905115D01*
X904115Y1020504D01*
X910114Y1019504D02*
X912113D01*
X911113D01*
Y1025502D01*
X910114Y1024502D01*
X915112D02*
X916111Y1025502D01*
X918111D01*
X919111Y1024502D01*
Y1023503D01*
X918111Y1022503D01*
X919111Y1021503D01*
Y1020504D01*
X918111Y1019504D01*
X916111D01*
X915112Y1020504D01*
Y1021503D01*
X916111Y1022503D01*
X915112Y1023503D01*
Y1024502D01*
X916111Y1022503D02*
X918111D01*
X921110Y1024502D02*
X922110Y1025502D01*
X924109D01*
X925109Y1024502D01*
Y1023503D01*
X924109Y1022503D01*
X923109D01*
X924109D01*
X925109Y1021503D01*
Y1020504D01*
X924109Y1019504D01*
X922110D01*
X921110Y1020504D01*
M02*
