%FSLAX25Y25*%
%MOIN*%
G70*
G01*
G75*
G04 Layer_Physical_Order=1*
G04 Layer_Color=255*
%ADD10P,0.08352X4X90.0*%
%ADD11P,0.08352X4X180.0*%
%ADD12C,0.05000*%
%ADD13C,0.02500*%
%ADD14C,0.16500*%
%ADD15C,0.04000*%
%ADD16C,0.12500*%
G36*
X1285056Y1088679D02*
X1289325Y1088174D01*
X1293541Y1087335D01*
X1297679Y1086168D01*
X1301712Y1084680D01*
X1305616Y1082880D01*
X1309367Y1080780D01*
X1312941Y1078391D01*
X1316318Y1075730D01*
X1319475Y1072812D01*
X1322393Y1069655D01*
X1325054Y1066279D01*
X1327442Y1062704D01*
X1329543Y1058953D01*
X1331343Y1055049D01*
X1332831Y1051016D01*
X1333998Y1046878D01*
X1334836Y1042662D01*
X1335342Y1038393D01*
X1335511Y1034097D01*
X1335342Y1029801D01*
X1334836Y1025532D01*
X1333998Y1021316D01*
X1332831Y1017178D01*
X1331343Y1013145D01*
X1329543Y1009241D01*
X1328143Y1006740D01*
X1328143Y1006740D01*
X1328147Y1006724D01*
X967403Y381897D01*
X967393Y381903D01*
X966693Y380653D01*
X964304Y377078D01*
X961643Y373702D01*
X958724Y370545D01*
X955568Y367627D01*
X952192Y364966D01*
X948617Y362577D01*
X944866Y360476D01*
X940962Y358677D01*
X936929Y357189D01*
X932791Y356022D01*
X928575Y355183D01*
X924306Y354678D01*
X920010Y354509D01*
X915714Y354678D01*
X911445Y355183D01*
X907228Y356022D01*
X903091Y357189D01*
X899058Y358677D01*
X895153Y360476D01*
X891403Y362577D01*
X887828Y364966D01*
X884452Y367627D01*
X881295Y370545D01*
X878377Y373702D01*
X875716Y377078D01*
X873327Y380653D01*
X872627Y381903D01*
X872627D01*
X872610Y381908D01*
X511866Y1006734D01*
X511877Y1006740D01*
X511854Y1006780D01*
D01*
X511854Y1006780D01*
X511854Y1006781D01*
D01*
D01*
D01*
D01*
X511854Y1006780D01*
X510476Y1009241D01*
X508677Y1013145D01*
X507189Y1017178D01*
X506022Y1021316D01*
X505183Y1025532D01*
X504678Y1029801D01*
X504509Y1034097D01*
X504678Y1038393D01*
X505183Y1042662D01*
X506022Y1046878D01*
X507189Y1051016D01*
X508677Y1055049D01*
X510476Y1058953D01*
X512577Y1062704D01*
X514965Y1066279D01*
X517627Y1069655D01*
X520545Y1072812D01*
X523702Y1075730D01*
X527078Y1078391D01*
X530653Y1080780D01*
X534403Y1082880D01*
X538308Y1084680D01*
X542341Y1086168D01*
X546479Y1087335D01*
X550695Y1088174D01*
X554964Y1088679D01*
X559110Y1088842D01*
X559260Y1088822D01*
X1280760D01*
X1280909Y1088842D01*
X1285056Y1088679D01*
D02*
G37*
%LPC*%
G36*
X1061531Y749956D02*
X1060095Y749767D01*
X1058757Y749213D01*
X1057608Y748331D01*
X1056727Y747182D01*
X1056172Y745844D01*
X1055983Y744408D01*
X1056172Y742973D01*
X1056727Y741635D01*
X1057608Y740486D01*
X1058757Y739604D01*
X1060095Y739050D01*
X1061531Y738861D01*
X1062967Y739050D01*
X1064305Y739604D01*
X1065454Y740486D01*
X1066335Y741635D01*
X1066889Y742973D01*
X1067078Y744408D01*
X1066889Y745844D01*
X1066335Y747182D01*
X1065454Y748331D01*
X1064305Y749213D01*
X1062967Y749767D01*
X1061531Y749956D01*
D02*
G37*
G36*
X757500Y788529D02*
X756324Y788413D01*
X755193Y788070D01*
X754150Y787513D01*
X753237Y786763D01*
X742503Y776029D01*
X717500D01*
X716324Y775913D01*
X715193Y775570D01*
X714150Y775013D01*
X713237Y774263D01*
X712487Y773350D01*
X711930Y772307D01*
X711587Y771176D01*
X711471Y770000D01*
X711587Y768824D01*
X711930Y767693D01*
X712487Y766650D01*
X713237Y765737D01*
X714150Y764987D01*
X715193Y764430D01*
X716324Y764087D01*
X717500Y763971D01*
X745000D01*
X746176Y764087D01*
X747307Y764430D01*
X748350Y764987D01*
X749263Y765737D01*
X761763Y778237D01*
X762513Y779150D01*
X763070Y780193D01*
X763413Y781324D01*
X763529Y782500D01*
X763413Y783676D01*
X763070Y784807D01*
X762513Y785850D01*
X761763Y786763D01*
X760850Y787513D01*
X759807Y788070D01*
X758676Y788413D01*
X757500Y788529D01*
D02*
G37*
G36*
X840500Y742797D02*
X838589Y742609D01*
X836751Y742051D01*
X835057Y741146D01*
X833572Y739928D01*
X832354Y738443D01*
X831449Y736749D01*
X830891Y734911D01*
X830703Y733000D01*
X830891Y731089D01*
X831449Y729251D01*
X832354Y727557D01*
X833572Y726072D01*
X835057Y724854D01*
X836751Y723949D01*
X838589Y723391D01*
X840500Y723203D01*
X842411Y723391D01*
X844249Y723949D01*
X845943Y724854D01*
X847428Y726072D01*
X848646Y727557D01*
X849551Y729251D01*
X850109Y731089D01*
X850297Y733000D01*
X850109Y734911D01*
X849551Y736749D01*
X848646Y738443D01*
X847428Y739928D01*
X845943Y741146D01*
X844249Y742051D01*
X842411Y742609D01*
X840500Y742797D01*
D02*
G37*
G36*
X999500D02*
X997589Y742609D01*
X995751Y742051D01*
X994057Y741146D01*
X992572Y739928D01*
X991354Y738443D01*
X990449Y736749D01*
X989891Y734911D01*
X989703Y733000D01*
X989891Y731089D01*
X990449Y729251D01*
X991354Y727557D01*
X992572Y726072D01*
X994057Y724854D01*
X995751Y723949D01*
X997589Y723391D01*
X999500Y723203D01*
X1001411Y723391D01*
X1003249Y723949D01*
X1004943Y724854D01*
X1006428Y726072D01*
X1007646Y727557D01*
X1008551Y729251D01*
X1009109Y731089D01*
X1009297Y733000D01*
X1009109Y734911D01*
X1008551Y736749D01*
X1007646Y738443D01*
X1006428Y739928D01*
X1004943Y741146D01*
X1003249Y742051D01*
X1001411Y742609D01*
X999500Y742797D01*
D02*
G37*
G36*
X800000Y812797D02*
X798089Y812609D01*
X796251Y812051D01*
X794557Y811146D01*
X793072Y809928D01*
X791854Y808443D01*
X790949Y806749D01*
X790391Y804911D01*
X790203Y803000D01*
X790391Y801089D01*
X790949Y799251D01*
X791854Y797557D01*
X793072Y796072D01*
X794557Y794854D01*
X796251Y793949D01*
X798089Y793391D01*
X800000Y793203D01*
X801911Y793391D01*
X803749Y793949D01*
X805443Y794854D01*
X806928Y796072D01*
X808146Y797557D01*
X809051Y799251D01*
X809609Y801089D01*
X809797Y803000D01*
X809609Y804911D01*
X809051Y806749D01*
X808146Y808443D01*
X806928Y809928D01*
X805443Y811146D01*
X803749Y812051D01*
X801911Y812609D01*
X800000Y812797D01*
D02*
G37*
G36*
X1040500Y849797D02*
X1038589Y849609D01*
X1036751Y849051D01*
X1035057Y848146D01*
X1033572Y846928D01*
X1032354Y845443D01*
X1031449Y843749D01*
X1030891Y841911D01*
X1030703Y840000D01*
X1030891Y838089D01*
X1031449Y836251D01*
X1032354Y834557D01*
X1033572Y833072D01*
X1035057Y831854D01*
X1036751Y830949D01*
X1038589Y830391D01*
X1040500Y830203D01*
X1042411Y830391D01*
X1044249Y830949D01*
X1045943Y831854D01*
X1047428Y833072D01*
X1048646Y834557D01*
X1049551Y836251D01*
X1050109Y838089D01*
X1050297Y840000D01*
X1050109Y841911D01*
X1049551Y843749D01*
X1048646Y845443D01*
X1047428Y846928D01*
X1045943Y848146D01*
X1044249Y849051D01*
X1042411Y849609D01*
X1040500Y849797D01*
D02*
G37*
G36*
X598000Y934051D02*
X595411Y933847D01*
X592885Y933241D01*
X590486Y932247D01*
X588272Y930890D01*
X586297Y929203D01*
X584610Y927228D01*
X583253Y925014D01*
X582259Y922615D01*
X581653Y920089D01*
X581449Y917500D01*
X581653Y914911D01*
X582259Y912385D01*
X583253Y909986D01*
X584610Y907772D01*
X586297Y905797D01*
X588272Y904110D01*
X590486Y902753D01*
X592885Y901759D01*
X595411Y901153D01*
X598000Y900949D01*
X600589Y901153D01*
X603115Y901759D01*
X605514Y902753D01*
X607728Y904110D01*
X609703Y905797D01*
X611390Y907772D01*
X612747Y909986D01*
X613741Y912385D01*
X614347Y914911D01*
X614551Y917500D01*
X614347Y920089D01*
X613741Y922615D01*
X612747Y925014D01*
X611390Y927228D01*
X609703Y929203D01*
X607728Y930890D01*
X605514Y932247D01*
X603115Y933241D01*
X600589Y933847D01*
X598000Y934051D01*
D02*
G37*
G36*
X1040500Y813297D02*
X1038589Y813109D01*
X1036751Y812551D01*
X1035057Y811646D01*
X1033572Y810428D01*
X1032354Y808943D01*
X1031449Y807249D01*
X1030891Y805411D01*
X1030703Y803500D01*
X1030891Y801589D01*
X1031449Y799751D01*
X1032354Y798057D01*
X1033572Y796572D01*
X1035057Y795354D01*
X1036751Y794449D01*
X1038589Y793891D01*
X1040500Y793703D01*
X1042411Y793891D01*
X1044249Y794449D01*
X1045943Y795354D01*
X1047428Y796572D01*
X1048646Y798057D01*
X1049551Y799751D01*
X1050109Y801589D01*
X1050297Y803500D01*
X1050109Y805411D01*
X1049551Y807249D01*
X1048646Y808943D01*
X1047428Y810428D01*
X1045943Y811646D01*
X1044249Y812551D01*
X1042411Y813109D01*
X1040500Y813297D01*
D02*
G37*
G36*
X800000Y849797D02*
X798089Y849609D01*
X796251Y849051D01*
X794557Y848146D01*
X793072Y846928D01*
X791854Y845443D01*
X790949Y843749D01*
X790391Y841911D01*
X790203Y840000D01*
X790391Y838089D01*
X790949Y836251D01*
X791854Y834557D01*
X793072Y833072D01*
X794557Y831854D01*
X796251Y830949D01*
X798089Y830391D01*
X800000Y830203D01*
X801911Y830391D01*
X803749Y830949D01*
X805443Y831854D01*
X806928Y833072D01*
X808146Y834557D01*
X809051Y836251D01*
X809609Y838089D01*
X809797Y840000D01*
X809609Y841911D01*
X809051Y843749D01*
X808146Y845443D01*
X806928Y846928D01*
X805443Y848146D01*
X803749Y849051D01*
X801911Y849609D01*
X800000Y849797D01*
D02*
G37*
G36*
X1005000Y541029D02*
X952500D01*
X951324Y540913D01*
X950193Y540570D01*
X949150Y540013D01*
X948237Y539263D01*
X947487Y538349D01*
X946930Y537307D01*
X946587Y536176D01*
X946471Y535000D01*
X946587Y533824D01*
X946930Y532693D01*
X947487Y531650D01*
X948237Y530737D01*
X949150Y529987D01*
X950193Y529430D01*
X951324Y529087D01*
X952500Y528971D01*
X1005000D01*
X1006176Y529087D01*
X1007307Y529430D01*
X1008350Y529987D01*
X1009263Y530737D01*
X1010013Y531650D01*
X1010570Y532693D01*
X1010913Y533824D01*
X1011029Y535000D01*
X1010913Y536176D01*
X1010570Y537307D01*
X1010013Y538349D01*
X1009263Y539263D01*
X1008350Y540013D01*
X1007307Y540570D01*
X1006176Y540913D01*
X1005000Y541029D01*
D02*
G37*
G36*
X920000Y604797D02*
X918089Y604609D01*
X916251Y604051D01*
X914557Y603146D01*
X913072Y601928D01*
X911854Y600443D01*
X910949Y598749D01*
X910391Y596911D01*
X910203Y595000D01*
X910391Y593089D01*
X910949Y591251D01*
X911854Y589557D01*
X913072Y588072D01*
X914557Y586854D01*
X916251Y585949D01*
X918089Y585391D01*
X920000Y585203D01*
X921911Y585391D01*
X923749Y585949D01*
X925443Y586854D01*
X926928Y588072D01*
X928146Y589557D01*
X929051Y591251D01*
X929609Y593089D01*
X929797Y595000D01*
X929609Y596911D01*
X929051Y598749D01*
X928146Y600443D01*
X926928Y601928D01*
X925443Y603146D01*
X923749Y604051D01*
X921911Y604609D01*
X920000Y604797D01*
D02*
G37*
G36*
X838000Y517551D02*
X835411Y517347D01*
X832885Y516741D01*
X830486Y515747D01*
X828272Y514390D01*
X826297Y512703D01*
X824610Y510728D01*
X823253Y508514D01*
X822259Y506114D01*
X821653Y503589D01*
X821449Y501000D01*
X821653Y498411D01*
X822259Y495886D01*
X823253Y493486D01*
X824610Y491272D01*
X826297Y489297D01*
X828272Y487610D01*
X830486Y486253D01*
X832885Y485259D01*
X835411Y484653D01*
X838000Y484449D01*
X840589Y484653D01*
X843115Y485259D01*
X845514Y486253D01*
X847728Y487610D01*
X849703Y489297D01*
X851390Y491272D01*
X852747Y493486D01*
X853741Y495886D01*
X854347Y498411D01*
X854551Y501000D01*
X854347Y503589D01*
X853741Y506114D01*
X852747Y508514D01*
X851390Y510728D01*
X849703Y512703D01*
X847728Y514390D01*
X845514Y515747D01*
X843115Y516741D01*
X840589Y517347D01*
X838000Y517551D01*
D02*
G37*
G36*
X1001500D02*
X998911Y517347D01*
X996385Y516741D01*
X993986Y515747D01*
X991772Y514390D01*
X989797Y512703D01*
X988110Y510728D01*
X986753Y508514D01*
X985759Y506114D01*
X985153Y503589D01*
X984949Y501000D01*
X985153Y498411D01*
X985759Y495886D01*
X986753Y493486D01*
X988110Y491272D01*
X989797Y489297D01*
X991772Y487610D01*
X993986Y486253D01*
X996385Y485259D01*
X998911Y484653D01*
X1001500Y484449D01*
X1004089Y484653D01*
X1006615Y485259D01*
X1009014Y486253D01*
X1011228Y487610D01*
X1013203Y489297D01*
X1014890Y491272D01*
X1016247Y493486D01*
X1017241Y495886D01*
X1017847Y498411D01*
X1018051Y501000D01*
X1017847Y503589D01*
X1017241Y506114D01*
X1016247Y508514D01*
X1014890Y510728D01*
X1013203Y512703D01*
X1011228Y514390D01*
X1009014Y515747D01*
X1006615Y516741D01*
X1004089Y517347D01*
X1001500Y517551D01*
D02*
G37*
G36*
X920000Y641797D02*
X918089Y641609D01*
X916251Y641051D01*
X914557Y640146D01*
X913072Y638928D01*
X911854Y637443D01*
X910949Y635749D01*
X910391Y633911D01*
X910203Y632000D01*
X910391Y630089D01*
X910949Y628251D01*
X911854Y626557D01*
X913072Y625072D01*
X914557Y623854D01*
X916251Y622949D01*
X918089Y622391D01*
X920000Y622203D01*
X921911Y622391D01*
X923749Y622949D01*
X925443Y623854D01*
X926928Y625072D01*
X928146Y626557D01*
X929051Y628251D01*
X929609Y630089D01*
X929797Y632000D01*
X929609Y633911D01*
X929051Y635749D01*
X928146Y637443D01*
X926928Y638928D01*
X925443Y640146D01*
X923749Y641051D01*
X921911Y641609D01*
X920000Y641797D01*
D02*
G37*
G36*
X872500Y724297D02*
X870589Y724109D01*
X868751Y723551D01*
X867057Y722646D01*
X865572Y721428D01*
X864354Y719943D01*
X863449Y718249D01*
X862891Y716411D01*
X862703Y714500D01*
X862891Y712589D01*
X863449Y710751D01*
X864354Y709057D01*
X865572Y707572D01*
X867057Y706354D01*
X868751Y705449D01*
X870589Y704891D01*
X872500Y704703D01*
X874411Y704891D01*
X876249Y705449D01*
X877943Y706354D01*
X879428Y707572D01*
X880646Y709057D01*
X881551Y710751D01*
X882109Y712589D01*
X882297Y714500D01*
X882109Y716411D01*
X881551Y718249D01*
X880646Y719943D01*
X879428Y721428D01*
X877943Y722646D01*
X876249Y723551D01*
X874411Y724109D01*
X872500Y724297D01*
D02*
G37*
G36*
X967500D02*
X965589Y724109D01*
X963751Y723551D01*
X962057Y722646D01*
X960572Y721428D01*
X959354Y719943D01*
X958449Y718249D01*
X957891Y716411D01*
X957703Y714500D01*
X957891Y712589D01*
X958449Y710751D01*
X959354Y709057D01*
X960572Y707572D01*
X962057Y706354D01*
X963751Y705449D01*
X965589Y704891D01*
X967500Y704703D01*
X969411Y704891D01*
X971249Y705449D01*
X972943Y706354D01*
X974428Y707572D01*
X975646Y709057D01*
X976551Y710751D01*
X977109Y712589D01*
X977297Y714500D01*
X977109Y716411D01*
X976551Y718249D01*
X975646Y719943D01*
X974428Y721428D01*
X972943Y722646D01*
X971249Y723551D01*
X969411Y724109D01*
X967500Y724297D01*
D02*
G37*
G36*
X895000Y698529D02*
X780000D01*
X778824Y698413D01*
X777693Y698070D01*
X776650Y697513D01*
X775737Y696763D01*
X758237Y679263D01*
X757487Y678349D01*
X756930Y677307D01*
X756587Y676176D01*
X756471Y675000D01*
X756587Y673824D01*
X756930Y672693D01*
X757487Y671651D01*
X758237Y670737D01*
X759151Y669987D01*
X760193Y669430D01*
X761324Y669087D01*
X762500Y668971D01*
X763676Y669087D01*
X764807Y669430D01*
X765849Y669987D01*
X766763Y670737D01*
X782497Y686471D01*
X895000D01*
X896176Y686587D01*
X897307Y686930D01*
X898350Y687487D01*
X899263Y688237D01*
X900013Y689150D01*
X900570Y690193D01*
X900913Y691324D01*
X901029Y692500D01*
X900913Y693676D01*
X900570Y694807D01*
X900013Y695850D01*
X899263Y696763D01*
X898350Y697513D01*
X897307Y698070D01*
X896176Y698413D01*
X895000Y698529D01*
D02*
G37*
G36*
X942500Y672291D02*
X862641D01*
X861401Y672128D01*
X860246Y671649D01*
X859253Y670888D01*
X832867Y644502D01*
X831692Y645677D01*
X823199Y637183D01*
X823199D01*
D01*
D01*
X823199D01*
X823199Y637183D01*
X822567Y636551D01*
X822148Y636132D01*
X821949Y635933D01*
X821583Y635567D01*
Y635567D01*
X821583Y635567D01*
D01*
X821274Y635804D01*
X819936Y636358D01*
X818500Y636548D01*
X817064Y636358D01*
X816631Y636179D01*
X815242Y638258D01*
X816183Y639199D01*
Y639199D01*
X817433Y640449D01*
X816183Y641699D01*
Y641699D01*
X808308Y649574D01*
X807504Y648771D01*
X798388Y657888D01*
X797396Y658649D01*
X797057Y658789D01*
X796240Y659128D01*
X795000Y659291D01*
X785000D01*
X783760Y659128D01*
X782605Y658649D01*
X782046Y658221D01*
X780949Y659318D01*
X771823Y650192D01*
X780949Y641067D01*
Y641067D01*
D01*
D01*
Y641067D01*
X780949D01*
X781567Y640449D01*
Y640449D01*
X781567Y640257D01*
X781196Y639774D01*
X780642Y638436D01*
X780452Y637000D01*
X780622Y635710D01*
X778674Y634749D01*
X778364Y634621D01*
X778301Y634683D01*
X778301D01*
X777051Y635933D01*
X775801Y634683D01*
X775801D01*
X767926Y626808D01*
X768479Y626254D01*
X759112Y616888D01*
X758351Y615896D01*
X758211Y615557D01*
X757872Y614740D01*
X757709Y613500D01*
Y603500D01*
X757872Y602260D01*
X758211Y601443D01*
X758351Y601104D01*
X759112Y600112D01*
X759229Y599996D01*
X758182Y598949D01*
X767308Y589823D01*
X776433Y598949D01*
X776433D01*
D01*
D01*
X776433D01*
Y598949D01*
X777051Y599567D01*
X777051D01*
D01*
D01*
D01*
D01*
X777538Y599567D01*
X778564Y599142D01*
X780000Y598952D01*
X781436Y599142D01*
X782722Y599675D01*
X784111Y597596D01*
X782817Y596301D01*
Y596301D01*
X781567Y595051D01*
X782817Y593801D01*
Y593801D01*
X790692Y585926D01*
X791246Y586479D01*
X800112Y577612D01*
D01*
X800112Y577612D01*
X800112Y577612D01*
D01*
D01*
D01*
Y577612D01*
X800112Y577612D01*
D01*
X801105Y576851D01*
X802260Y576372D01*
X803500Y576209D01*
X813500D01*
X814740Y576372D01*
X815557Y576711D01*
X815895Y576851D01*
X816737Y577496D01*
X818051Y576182D01*
X827177Y585308D01*
X818051Y594433D01*
Y594433D01*
D01*
D01*
Y594433D01*
X818051D01*
X817433Y595051D01*
X817433D01*
X817067Y595417D01*
X817304Y595726D01*
X817858Y597064D01*
X818048Y598500D01*
X817858Y599936D01*
X817679Y600369D01*
X819758Y601758D01*
X821949Y599567D01*
X831074Y608692D01*
X831074D01*
D01*
Y608692D01*
X831074D01*
X831074D01*
X831703Y610209D01*
X843015D01*
X882709Y570515D01*
Y455641D01*
X882709Y455641D01*
X882709D01*
X882872Y454401D01*
X883211Y453584D01*
X883351Y453245D01*
X884112Y452253D01*
D01*
X884112Y452253D01*
X884112Y452253D01*
D01*
D01*
X884112Y452253D01*
Y452253D01*
X893498Y442867D01*
X892323Y441692D01*
X900817Y433199D01*
Y433199D01*
D01*
D01*
Y433199D01*
X900817Y433199D01*
X901449Y432567D01*
X902067Y431949D01*
Y431949D01*
X902067Y431757D01*
X901696Y431274D01*
X901142Y429936D01*
X900953Y428500D01*
X901122Y427210D01*
X899174Y426249D01*
X898864Y426121D01*
X898801Y426183D01*
X898801D01*
X897551Y427433D01*
X896301Y426183D01*
X896301D01*
X888426Y418308D01*
X889229Y417504D01*
X880112Y408388D01*
X879351Y407396D01*
X879211Y407057D01*
X878872Y406240D01*
X878709Y405000D01*
Y395000D01*
X878709Y395000D01*
X878709D01*
X878872Y393760D01*
X879211Y392943D01*
X879351Y392604D01*
X879996Y391763D01*
X878682Y390449D01*
X887808Y381323D01*
X896933Y390449D01*
X896933D01*
D01*
D01*
X896933D01*
Y390449D01*
X897551Y391067D01*
X897551D01*
X898038Y391067D01*
X899064Y390642D01*
X900500Y390453D01*
X901936Y390642D01*
X903222Y391175D01*
X904611Y389096D01*
X903317Y387801D01*
Y387801D01*
X902067Y386551D01*
X903317Y385301D01*
Y385301D01*
X911192Y377426D01*
X911996Y378229D01*
X921112Y369112D01*
Y369112D01*
X921112D01*
X921112Y369112D01*
X921112D01*
D01*
D01*
D01*
Y369112D01*
X921112Y369112D01*
D01*
X922104Y368351D01*
X923260Y367872D01*
X924500Y367709D01*
X934500D01*
X935740Y367872D01*
X936557Y368211D01*
X936895Y368351D01*
X937454Y368779D01*
X938551Y367682D01*
X939649Y368779D01*
X939649D01*
X947677Y376808D01*
X938551Y385933D01*
Y385933D01*
D01*
D01*
Y385933D01*
X938551D01*
X937933Y386551D01*
X937933D01*
X937567Y386917D01*
X937804Y387226D01*
X938358Y388564D01*
X938548Y390000D01*
X938358Y391436D01*
X938179Y391869D01*
X940258Y393258D01*
X942449Y391067D01*
X951574Y400192D01*
X951021Y400746D01*
X960388Y410112D01*
Y410112D01*
D01*
D01*
D01*
X960388Y410112D01*
D01*
Y410112D01*
D01*
D01*
D01*
D01*
X960388D01*
Y410112D01*
D01*
D01*
D01*
X960388D01*
D01*
D01*
Y410112D01*
D01*
D01*
D01*
Y410112D01*
D01*
D01*
X960388D01*
D01*
X960388Y410112D01*
D01*
D01*
X961149Y411104D01*
X961628Y412260D01*
X961791Y413500D01*
Y423500D01*
X961628Y424740D01*
X961149Y425896D01*
X960658Y426536D01*
X960503Y426737D01*
X961818Y428051D01*
X952692Y437177D01*
X943567Y428051D01*
X943567D01*
D01*
D01*
X943567D01*
Y428051D01*
X942949Y427433D01*
Y427433D01*
X942366Y426850D01*
X941774Y427304D01*
X940436Y427858D01*
X939000Y428048D01*
X937710Y427878D01*
X936749Y429826D01*
X936621Y430136D01*
X938433Y431949D01*
X929308Y441074D01*
Y441074D01*
D01*
D01*
Y441074D01*
X929308D01*
X927291Y443091D01*
Y543015D01*
X941984Y557709D01*
X949709D01*
X949726Y557696D01*
X951064Y557142D01*
X952500Y556952D01*
X953936Y557142D01*
X955274Y557696D01*
X956423Y558577D01*
X957304Y559726D01*
X957858Y561064D01*
X958047Y562500D01*
X957858Y563936D01*
X957304Y565274D01*
X956423Y566423D01*
X955274Y567304D01*
X953936Y567858D01*
X952500Y568048D01*
X951064Y567858D01*
X949726Y567304D01*
X949709Y567291D01*
X940000D01*
X938760Y567128D01*
X938083Y566847D01*
X937605Y566649D01*
X936612Y565888D01*
X919112Y548388D01*
X918351Y547396D01*
X917872Y546240D01*
X917709Y545000D01*
Y438756D01*
X917709Y438756D01*
X917709D01*
X917838Y437777D01*
X915596Y436671D01*
X911824Y440442D01*
Y440442D01*
D01*
D01*
Y440442D01*
X911824Y440442D01*
X911192Y441074D01*
X910883Y441383D01*
X910574Y441692D01*
X909942Y442324D01*
X909942Y442324D01*
X909942D01*
D01*
D01*
X909942D01*
X901449Y450818D01*
X900274Y449643D01*
X892291Y457625D01*
Y572500D01*
D01*
X892291Y572500D01*
D01*
D01*
D01*
D01*
D01*
Y572500D01*
D01*
D01*
D01*
D01*
D01*
D01*
D01*
D01*
X892291Y572500D01*
X892128Y573740D01*
X891967Y574127D01*
X891967Y574127D01*
X891649Y574895D01*
Y574895D01*
Y574895D01*
Y574895D01*
X890888Y575888D01*
X848388Y618388D01*
X847396Y619149D01*
X847057Y619289D01*
X846240Y619628D01*
X845000Y619791D01*
X827500D01*
X827391Y619777D01*
X826285Y622019D01*
X831074Y626808D01*
Y626808D01*
X831074D01*
D01*
D01*
X831074D01*
D01*
D01*
D01*
D01*
Y626808D01*
D01*
D01*
D01*
X831074Y626808D01*
D01*
Y626808D01*
X831692Y627426D01*
X832324Y628058D01*
X832324Y628058D01*
Y628058D01*
D01*
D01*
Y628058D01*
X840818Y636551D01*
X839643Y637726D01*
X864625Y662709D01*
X940516D01*
X957709Y645515D01*
Y587500D01*
X957709Y587500D01*
X957709Y587500D01*
X957872Y586260D01*
X958211Y585443D01*
X958351Y585105D01*
X959112Y584112D01*
X959112Y584112D01*
X959112Y584112D01*
X981612Y561612D01*
Y561612D01*
X981612D01*
X981612Y561612D01*
X981612D01*
D01*
D01*
D01*
Y561612D01*
X981612Y561612D01*
D01*
X982605Y560851D01*
X983760Y560372D01*
X983760Y560372D01*
D01*
D01*
D01*
X983760D01*
D01*
D01*
D01*
X983760D01*
Y560372D01*
D01*
X985000Y560209D01*
X1030000D01*
X1031240Y560372D01*
X1032057Y560711D01*
X1032395Y560851D01*
X1033388Y561612D01*
Y561612D01*
X1033388D01*
D01*
D01*
D01*
D01*
D01*
D01*
X1033388D01*
D01*
X1033388D01*
Y561612D01*
D01*
D01*
D01*
D01*
Y561612D01*
D01*
D01*
D01*
Y561612D01*
D01*
D01*
X1033388D01*
D01*
D01*
D01*
D01*
D01*
X1040888Y569112D01*
X1041649Y570105D01*
X1042128Y571260D01*
X1042291Y572500D01*
D01*
D01*
D01*
D01*
D01*
X1042291D01*
D01*
D01*
D01*
Y572500D01*
X1042291D01*
D01*
Y572500D01*
D01*
D01*
D01*
D01*
D01*
D01*
D01*
D01*
D01*
D01*
D01*
D01*
Y572500D01*
D01*
X1042291D01*
D01*
D01*
D01*
D01*
X1042291Y572500D01*
Y588744D01*
X1042162Y589723D01*
X1044404Y590829D01*
X1048676Y586558D01*
Y586558D01*
D01*
D01*
Y586558D01*
X1048676Y586558D01*
X1048783Y586450D01*
X1048620Y583955D01*
X1048577Y583923D01*
X1047696Y582774D01*
X1047142Y581436D01*
X1046953Y580000D01*
X1047142Y578564D01*
X1047696Y577226D01*
X1048577Y576077D01*
X1049726Y575196D01*
X1051064Y574642D01*
X1052500Y574452D01*
X1053936Y574642D01*
X1055274Y575196D01*
X1056423Y576077D01*
X1056455Y576120D01*
X1058950Y576283D01*
X1059051Y576182D01*
X1059153Y576283D01*
D01*
X1066927Y584058D01*
Y584058D01*
X1068177Y585308D01*
X1066927Y586558D01*
Y586558D01*
X1059683Y593801D01*
Y593801D01*
D01*
D01*
Y593801D01*
X1059683Y593801D01*
X1059051Y594433D01*
X1058924Y594561D01*
X1058433Y595051D01*
X1058067Y595417D01*
X1058067D01*
X1058067Y595417D01*
D01*
X1058304Y595726D01*
X1058858Y597064D01*
X1059048Y598500D01*
X1058858Y599936D01*
X1058679Y600369D01*
X1060758Y601758D01*
X1062949Y599567D01*
X1072074Y608692D01*
X1070643Y610124D01*
X1080439Y619920D01*
Y619920D01*
D01*
D01*
D01*
X1080439Y619920D01*
D01*
Y619920D01*
D01*
D01*
D01*
D01*
X1080439D01*
Y619920D01*
D01*
D01*
D01*
X1080439D01*
D01*
D01*
Y619920D01*
D01*
D01*
D01*
Y619920D01*
D01*
D01*
X1080439D01*
D01*
X1080439Y619920D01*
D01*
D01*
X1081200Y620912D01*
X1081679Y622068D01*
X1081842Y623308D01*
Y633308D01*
X1081679Y634548D01*
X1081200Y635703D01*
X1081100Y635834D01*
X1081818Y636551D01*
X1081100Y637269D01*
D01*
X1072692Y645677D01*
X1063567Y636551D01*
X1063567D01*
D01*
D01*
X1063567D01*
Y636551D01*
X1062949Y635933D01*
Y635933D01*
X1062583Y635567D01*
X1062274Y635804D01*
X1060936Y636358D01*
X1059500Y636548D01*
X1058064Y636358D01*
X1057631Y636179D01*
X1056242Y638258D01*
X1058433Y640449D01*
X1049308Y649574D01*
X1049184Y649450D01*
X1039439Y659195D01*
X1038447Y659957D01*
X1038108Y660097D01*
X1037291Y660435D01*
X1036051Y660599D01*
X1026051D01*
X1024811Y660435D01*
X1023656Y659957D01*
X1022663Y659195D01*
X1022117Y658649D01*
X1021449Y659318D01*
X1012323Y650192D01*
X1021449Y641067D01*
X1021449D01*
X1022067Y640449D01*
Y640449D01*
D01*
D01*
X1022433Y640083D01*
Y640083D01*
D01*
X1022196Y639774D01*
X1021642Y638436D01*
X1021453Y637000D01*
X1021642Y635564D01*
X1021821Y635131D01*
X1019742Y633742D01*
X1017551Y635933D01*
X1008426Y626808D01*
X1008601Y626633D01*
X1000163Y618195D01*
X999402Y617203D01*
X999262Y616865D01*
X998923Y616048D01*
X998760Y614808D01*
Y604808D01*
X998923Y603568D01*
X999262Y602751D01*
X999402Y602412D01*
X1000163Y601420D01*
X1000658Y600925D01*
X998682Y598949D01*
X1007808Y589823D01*
X1016933Y598949D01*
X1016933D01*
D01*
D01*
X1016933D01*
Y598949D01*
X1017551Y599567D01*
Y599567D01*
X1017917Y599933D01*
Y599933D01*
X1018226Y599696D01*
X1019564Y599142D01*
X1021000Y598952D01*
X1022436Y599142D01*
X1022869Y599321D01*
X1024258Y597242D01*
X1023317Y596301D01*
Y596301D01*
X1022067Y595051D01*
X1023317Y593801D01*
Y593801D01*
X1031192Y585926D01*
Y585926D01*
D01*
D01*
Y585926D01*
X1031192D01*
X1032709Y584409D01*
Y574484D01*
X1028016Y569791D01*
X986985D01*
X967291Y589485D01*
Y647500D01*
X967128Y648740D01*
X966649Y649895D01*
X965888Y650888D01*
X945888Y670888D01*
D01*
X945888Y670888D01*
D01*
D01*
D01*
X945888Y670888D01*
X945888Y670888D01*
X944895Y671649D01*
X944557Y671789D01*
X943740Y672128D01*
X942500Y672291D01*
D02*
G37*
G36*
X1242000Y934051D02*
X1239411Y933847D01*
X1236885Y933241D01*
X1234486Y932247D01*
X1232272Y930890D01*
X1230297Y929203D01*
X1228610Y927228D01*
X1227253Y925014D01*
X1226259Y922615D01*
X1225653Y920089D01*
X1225449Y917500D01*
X1225653Y914911D01*
X1226259Y912385D01*
X1227253Y909986D01*
X1228610Y907772D01*
X1230297Y905797D01*
X1232272Y904110D01*
X1234486Y902753D01*
X1236885Y901759D01*
X1239411Y901153D01*
X1242000Y900949D01*
X1244589Y901153D01*
X1247115Y901759D01*
X1249514Y902753D01*
X1251728Y904110D01*
X1253703Y905797D01*
X1255390Y907772D01*
X1256747Y909986D01*
X1257741Y912385D01*
X1258347Y914911D01*
X1258551Y917500D01*
X1258347Y920089D01*
X1257741Y922615D01*
X1256747Y925014D01*
X1255390Y927228D01*
X1253703Y929203D01*
X1251728Y930890D01*
X1249514Y932247D01*
X1247115Y933241D01*
X1244589Y933847D01*
X1242000Y934051D01*
D02*
G37*
G36*
X720000Y951297D02*
X718089Y951109D01*
X716251Y950551D01*
X714557Y949646D01*
X713072Y948428D01*
X711854Y946943D01*
X710949Y945249D01*
X710391Y943411D01*
X710203Y941500D01*
X710391Y939589D01*
X710949Y937751D01*
X711854Y936057D01*
X713072Y934572D01*
X714557Y933354D01*
X716251Y932449D01*
X718089Y931891D01*
X720000Y931703D01*
X721911Y931891D01*
X723749Y932449D01*
X725443Y933354D01*
X726928Y934572D01*
X728146Y936057D01*
X729051Y937751D01*
X729609Y939589D01*
X729797Y941500D01*
X729609Y943411D01*
X729051Y945249D01*
X728146Y946943D01*
X726928Y948428D01*
X725443Y949646D01*
X723749Y950551D01*
X721911Y951109D01*
X720000Y951297D01*
D02*
G37*
G36*
X857500Y1018529D02*
X856324Y1018413D01*
X855193Y1018070D01*
X854150Y1017513D01*
X853237Y1016763D01*
X852487Y1015850D01*
X851930Y1014807D01*
X851587Y1013676D01*
X851471Y1012500D01*
Y982500D01*
X851587Y981324D01*
X851930Y980193D01*
X852487Y979150D01*
X853237Y978237D01*
X854150Y977487D01*
X855193Y976930D01*
X856324Y976587D01*
X857500Y976471D01*
X858676Y976587D01*
X859807Y976930D01*
X860850Y977487D01*
X861763Y978237D01*
X862513Y979150D01*
X863070Y980193D01*
X863413Y981324D01*
X863529Y982500D01*
Y1012500D01*
X863413Y1013676D01*
X863070Y1014807D01*
X862513Y1015850D01*
X861763Y1016763D01*
X860850Y1017513D01*
X859807Y1018070D01*
X858676Y1018413D01*
X857500Y1018529D01*
D02*
G37*
G36*
X960500Y950797D02*
X958589Y950609D01*
X956751Y950051D01*
X955057Y949146D01*
X953572Y947928D01*
X952354Y946443D01*
X951449Y944749D01*
X950891Y942911D01*
X950703Y941000D01*
X950891Y939089D01*
X951449Y937251D01*
X952354Y935557D01*
X953572Y934072D01*
X955057Y932854D01*
X956751Y931949D01*
X958589Y931391D01*
X960500Y931203D01*
X962411Y931391D01*
X964249Y931949D01*
X965943Y932854D01*
X967428Y934072D01*
X968646Y935557D01*
X969551Y937251D01*
X970109Y939089D01*
X970297Y941000D01*
X970109Y942911D01*
X969551Y944749D01*
X968646Y946443D01*
X967428Y947928D01*
X965943Y949146D01*
X964249Y950051D01*
X962411Y950609D01*
X960500Y950797D01*
D02*
G37*
G36*
X1120000D02*
X1118089Y950609D01*
X1116251Y950051D01*
X1114557Y949146D01*
X1113072Y947928D01*
X1111854Y946443D01*
X1110949Y944749D01*
X1110391Y942911D01*
X1110203Y941000D01*
X1110391Y939089D01*
X1110949Y937251D01*
X1111854Y935557D01*
X1113072Y934072D01*
X1114557Y932854D01*
X1116251Y931949D01*
X1118089Y931391D01*
X1120000Y931203D01*
X1121911Y931391D01*
X1123749Y931949D01*
X1125443Y932854D01*
X1126928Y934072D01*
X1128146Y935557D01*
X1129051Y937251D01*
X1129609Y939089D01*
X1129797Y941000D01*
X1129609Y942911D01*
X1129051Y944749D01*
X1128146Y946443D01*
X1126928Y947928D01*
X1125443Y949146D01*
X1123749Y950051D01*
X1121911Y950609D01*
X1120000Y950797D01*
D02*
G37*
G36*
X1160500Y1075551D02*
X1157911Y1075347D01*
X1155385Y1074741D01*
X1152986Y1073747D01*
X1150772Y1072390D01*
X1148797Y1070703D01*
X1147110Y1068728D01*
X1145753Y1066514D01*
X1144759Y1064115D01*
X1144153Y1061589D01*
X1143949Y1059000D01*
X1144153Y1056411D01*
X1144759Y1053885D01*
X1145753Y1051486D01*
X1147110Y1049272D01*
X1148797Y1047297D01*
X1150772Y1045610D01*
X1152986Y1044253D01*
X1155385Y1043259D01*
X1157911Y1042653D01*
X1160500Y1042449D01*
X1163089Y1042653D01*
X1165615Y1043259D01*
X1168014Y1044253D01*
X1170228Y1045610D01*
X1172203Y1047297D01*
X1173890Y1049272D01*
X1175247Y1051486D01*
X1176241Y1053885D01*
X1176847Y1056411D01*
X1177051Y1059000D01*
X1176847Y1061589D01*
X1176241Y1064115D01*
X1175247Y1066514D01*
X1173890Y1068728D01*
X1172203Y1070703D01*
X1170228Y1072390D01*
X1168014Y1073747D01*
X1165615Y1074741D01*
X1163089Y1075347D01*
X1160500Y1075551D01*
D02*
G37*
G36*
X1261949Y1075818D02*
X1252823Y1066692D01*
X1261949Y1057567D01*
Y1057567D01*
D01*
D01*
Y1057567D01*
X1261949D01*
X1262567Y1056949D01*
X1262567D01*
X1262933Y1056583D01*
Y1056583D01*
D01*
X1262696Y1056274D01*
X1262142Y1054936D01*
X1261952Y1053500D01*
X1262142Y1052064D01*
X1262321Y1051631D01*
X1260242Y1050242D01*
X1258051Y1052433D01*
X1248926Y1043308D01*
X1250229Y1042004D01*
X1245516Y1037291D01*
X1185000D01*
X1183760Y1037128D01*
X1182605Y1036649D01*
X1181612Y1035888D01*
X1118015Y972291D01*
X1094843D01*
X1066502Y1000633D01*
X1067677Y1001808D01*
X1059183Y1010301D01*
Y1010301D01*
D01*
D01*
Y1010301D01*
X1059183Y1010301D01*
X1058551Y1010933D01*
X1057933Y1011551D01*
Y1011551D01*
D01*
D01*
X1058358Y1013564D01*
Y1013564D01*
X1058547Y1015000D01*
X1058358Y1016436D01*
X1058179Y1016869D01*
X1060258Y1018258D01*
X1062449Y1016067D01*
X1071574Y1025192D01*
X1070771Y1025996D01*
X1079888Y1035112D01*
Y1035112D01*
D01*
D01*
D01*
X1079888Y1035112D01*
D01*
Y1035112D01*
D01*
D01*
D01*
D01*
X1079888D01*
Y1035112D01*
D01*
D01*
D01*
X1079888D01*
D01*
D01*
Y1035112D01*
D01*
D01*
D01*
Y1035112D01*
D01*
D01*
X1079888D01*
D01*
X1079888Y1035112D01*
D01*
D01*
X1080649Y1036104D01*
X1081128Y1037260D01*
X1081291Y1038500D01*
Y1048500D01*
X1081128Y1049740D01*
X1080649Y1050896D01*
X1080004Y1051737D01*
X1081318Y1053051D01*
X1072192Y1062177D01*
X1063067Y1053051D01*
X1063067D01*
D01*
D01*
X1063067D01*
Y1053051D01*
X1062449Y1052433D01*
Y1052433D01*
X1062083Y1052067D01*
X1061774Y1052304D01*
X1060436Y1052858D01*
X1059000Y1053047D01*
X1057564Y1052858D01*
X1057131Y1052679D01*
X1055742Y1054758D01*
X1057933Y1056949D01*
X1048808Y1066074D01*
X1048004Y1065271D01*
X1038888Y1074388D01*
X1037895Y1075149D01*
X1037557Y1075289D01*
X1036740Y1075628D01*
X1035500Y1075791D01*
X1025500D01*
X1024260Y1075628D01*
X1023104Y1075149D01*
X1022263Y1074504D01*
X1020949Y1075818D01*
X1011823Y1066692D01*
X1020949Y1057567D01*
Y1057567D01*
D01*
D01*
Y1057567D01*
X1020949D01*
X1021567Y1056949D01*
X1021567D01*
X1021933Y1056583D01*
Y1056583D01*
D01*
X1021696Y1056274D01*
X1021142Y1054936D01*
X1020953Y1053500D01*
X1021142Y1052064D01*
X1021321Y1051631D01*
X1019242Y1050242D01*
X1017051Y1052433D01*
X1007926Y1043308D01*
X1008729Y1042504D01*
X999612Y1033388D01*
X998851Y1032395D01*
X998711Y1032057D01*
X998372Y1031240D01*
X998209Y1030000D01*
Y1020000D01*
X998372Y1018760D01*
X998711Y1017943D01*
X998851Y1017605D01*
X999496Y1016763D01*
X998182Y1015449D01*
X1007308Y1006323D01*
X1016433Y1015449D01*
X1016433D01*
D01*
D01*
X1016433D01*
Y1015449D01*
X1017051Y1016067D01*
Y1016067D01*
X1017417Y1016433D01*
Y1016433D01*
X1017726Y1016196D01*
X1019064Y1015642D01*
X1020500Y1015452D01*
X1021936Y1015642D01*
X1022369Y1015821D01*
X1023758Y1013742D01*
X1021567Y1011551D01*
X1030692Y1002426D01*
Y1002426D01*
D01*
D01*
Y1002426D01*
X1030692D01*
X1032709Y1000409D01*
Y996984D01*
X1000515Y964791D01*
X862344D01*
X826502Y1000633D01*
X827677Y1001808D01*
X819183Y1010301D01*
Y1010301D01*
D01*
D01*
Y1010301D01*
X819183Y1010301D01*
X818551Y1010933D01*
X817933Y1011551D01*
Y1011551D01*
D01*
D01*
X818358Y1013564D01*
Y1013564D01*
X818548Y1015000D01*
X818358Y1016436D01*
X818179Y1016869D01*
X820258Y1018258D01*
X822449Y1016067D01*
X831574Y1025192D01*
X830771Y1025996D01*
X839888Y1035112D01*
Y1035112D01*
D01*
D01*
D01*
X839888Y1035112D01*
D01*
Y1035112D01*
D01*
D01*
D01*
D01*
X839888D01*
Y1035112D01*
D01*
D01*
D01*
X839888D01*
D01*
D01*
Y1035112D01*
D01*
D01*
D01*
Y1035112D01*
D01*
D01*
X839888D01*
D01*
X839888Y1035112D01*
D01*
D01*
X840649Y1036104D01*
X841128Y1037260D01*
X841291Y1038500D01*
Y1048500D01*
X841128Y1049740D01*
X840649Y1050896D01*
X840300Y1051350D01*
X840221Y1051454D01*
X841318Y1052551D01*
X832192Y1061677D01*
X823067Y1052551D01*
X823067D01*
D01*
D01*
X823067D01*
Y1052551D01*
X822449Y1051933D01*
X822449D01*
X822257Y1051933D01*
X821774Y1052304D01*
X820436Y1052858D01*
X819000Y1053047D01*
X817710Y1052878D01*
X816749Y1054826D01*
X816621Y1055136D01*
X817933Y1056449D01*
X808808Y1065574D01*
X808254Y1065021D01*
X798888Y1074388D01*
X797895Y1075149D01*
X797557Y1075289D01*
X796740Y1075628D01*
X795500Y1075791D01*
X785500D01*
X784260Y1075628D01*
X783105Y1075149D01*
X782263Y1074504D01*
X780949Y1075818D01*
X771823Y1066692D01*
X780949Y1057567D01*
Y1057567D01*
D01*
D01*
Y1057567D01*
X780949D01*
X781567Y1056949D01*
X781567D01*
X781933Y1056583D01*
Y1056583D01*
D01*
X781696Y1056274D01*
X781142Y1054936D01*
X780953Y1053500D01*
X781142Y1052064D01*
X781321Y1051631D01*
X779242Y1050242D01*
X777051Y1052433D01*
X767926Y1043308D01*
X768729Y1042504D01*
X759612Y1033388D01*
X758851Y1032395D01*
X758711Y1032057D01*
X758372Y1031240D01*
X758209Y1030000D01*
Y1020000D01*
X758372Y1018760D01*
X758711Y1017943D01*
X758851Y1017605D01*
X759612Y1016612D01*
X759729Y1016496D01*
X758182Y1014949D01*
X767308Y1005823D01*
X776433Y1014949D01*
X776433D01*
D01*
D01*
X776433D01*
Y1014949D01*
X777051Y1015567D01*
Y1015567D01*
X777726Y1016196D01*
Y1016196D01*
X779064Y1015642D01*
X780500Y1015452D01*
X781936Y1015642D01*
X783222Y1016175D01*
X784611Y1014096D01*
X781567Y1011051D01*
X790209Y1002409D01*
Y994485D01*
X788016Y992291D01*
X697279D01*
X695649Y993629D01*
X695165Y994435D01*
X695570Y995193D01*
X695913Y996324D01*
X696029Y997500D01*
Y1020000D01*
D01*
X696029Y1020000D01*
D01*
D01*
D01*
D01*
D01*
Y1020000D01*
D01*
D01*
D01*
D01*
D01*
D01*
D01*
D01*
X696029Y1020000D01*
X695913Y1021176D01*
X695798Y1021554D01*
X695798Y1021554D01*
X695630Y1022111D01*
X695570Y1022307D01*
D01*
Y1022307D01*
X695570D01*
X695570Y1022307D01*
D01*
D01*
D01*
D01*
D01*
D01*
D01*
X695570Y1022307D01*
D01*
X695570D01*
Y1022307D01*
D01*
D01*
X695013Y1023350D01*
X694263Y1024263D01*
Y1024263D01*
D01*
D01*
D01*
X694263D01*
X694263D01*
Y1024263D01*
D01*
D01*
D01*
D01*
X694263D01*
D01*
D01*
D01*
X694263D01*
X686763Y1031763D01*
X685850Y1032513D01*
X684807Y1033070D01*
X683676Y1033413D01*
X682500Y1033529D01*
X672500D01*
X671324Y1033413D01*
X670193Y1033070D01*
X669150Y1032513D01*
X668237Y1031763D01*
X667487Y1030850D01*
X666930Y1029807D01*
X666587Y1028676D01*
X666471Y1027500D01*
X666587Y1026324D01*
X666930Y1025193D01*
X667487Y1024150D01*
X668237Y1023237D01*
X669150Y1022487D01*
X670193Y1021930D01*
X671324Y1021587D01*
X672500Y1021471D01*
X680003D01*
X683971Y1017503D01*
Y997500D01*
X684087Y996324D01*
X684430Y995193D01*
X684835Y994435D01*
X684351Y993629D01*
X682721Y992291D01*
X593844D01*
X586002Y1000133D01*
X587177Y1001308D01*
X578683Y1009801D01*
Y1009801D01*
D01*
D01*
Y1009801D01*
X578683Y1009801D01*
X578051Y1010433D01*
X577924Y1010561D01*
X577433Y1011051D01*
X577067Y1011417D01*
X577067D01*
X577067Y1011417D01*
D01*
X577304Y1011726D01*
X577858Y1013064D01*
X578048Y1014500D01*
X577858Y1015936D01*
X577679Y1016369D01*
X579758Y1017758D01*
X580699Y1016817D01*
X580699D01*
X581949Y1015567D01*
X583199Y1016817D01*
X583199D01*
X591074Y1024692D01*
X590271Y1025496D01*
X599388Y1034612D01*
Y1034612D01*
D01*
D01*
D01*
X599388Y1034612D01*
D01*
Y1034612D01*
D01*
D01*
D01*
D01*
X599388D01*
Y1034612D01*
D01*
D01*
D01*
X599388D01*
D01*
D01*
Y1034612D01*
D01*
D01*
D01*
Y1034612D01*
D01*
D01*
X599388D01*
D01*
X599388Y1034612D01*
D01*
D01*
X600149Y1035604D01*
X600628Y1036760D01*
X600791Y1038000D01*
Y1048000D01*
X600628Y1049240D01*
X600149Y1050395D01*
X599721Y1050954D01*
X600818Y1052051D01*
X591692Y1061177D01*
X582567Y1052051D01*
X582567D01*
D01*
D01*
X582567D01*
Y1052051D01*
X581949Y1051433D01*
X581949D01*
X581757Y1051433D01*
X581274Y1051804D01*
X579936Y1052358D01*
X578500Y1052547D01*
X577210Y1052378D01*
X576249Y1054326D01*
X576121Y1054636D01*
X576183Y1054699D01*
Y1054699D01*
X577433Y1055949D01*
X576183Y1057199D01*
Y1057199D01*
X568308Y1065074D01*
X567754Y1064521D01*
X558388Y1073888D01*
X557396Y1074649D01*
X557057Y1074789D01*
X556240Y1075128D01*
X555000Y1075291D01*
X545000D01*
X543760Y1075128D01*
X542604Y1074649D01*
X541612Y1073888D01*
X541496Y1073771D01*
X540449Y1074818D01*
X531323Y1065692D01*
X540449Y1056567D01*
Y1056567D01*
D01*
D01*
Y1056567D01*
X540449D01*
X541067Y1055949D01*
Y1055949D01*
D01*
D01*
D01*
D01*
X541067Y1055462D01*
X540642Y1054436D01*
X540452Y1053000D01*
X540642Y1051564D01*
X541175Y1050278D01*
X539096Y1048889D01*
X537801Y1050183D01*
X537801D01*
X536551Y1051433D01*
X535301Y1050183D01*
X535301D01*
X527426Y1042308D01*
X527979Y1041754D01*
X519112Y1032888D01*
X518351Y1031896D01*
X518211Y1031557D01*
X517872Y1030740D01*
X517709Y1029500D01*
Y1019500D01*
X517872Y1018260D01*
X518211Y1017443D01*
X518351Y1017105D01*
X518996Y1016263D01*
X517682Y1014949D01*
X526808Y1005823D01*
X535933Y1014949D01*
X535933D01*
D01*
D01*
X535933D01*
Y1014949D01*
X536551Y1015567D01*
Y1015567D01*
X536917Y1015933D01*
Y1015933D01*
X537226Y1015696D01*
X538564Y1015142D01*
X540000Y1014952D01*
X541436Y1015142D01*
X541869Y1015321D01*
X543258Y1013242D01*
X542317Y1012301D01*
Y1012301D01*
X541067Y1011051D01*
X542317Y1009801D01*
Y1009801D01*
X550192Y1001926D01*
X550192D01*
X550209Y1001919D01*
Y990000D01*
X550209Y990000D01*
X550209D01*
X550372Y988760D01*
X550711Y987943D01*
X550851Y987605D01*
X551612Y986612D01*
Y986612D01*
D01*
D01*
X551612Y986612D01*
Y986612D01*
X551612Y986612D01*
X571612Y966612D01*
Y966612D01*
X571612D01*
X571612Y966612D01*
X571612D01*
D01*
D01*
D01*
Y966612D01*
X571612Y966612D01*
D01*
X572605Y965851D01*
X573760Y965372D01*
X575000Y965209D01*
X605515D01*
X674112Y896612D01*
Y896612D01*
X674112D01*
X674112Y896612D01*
X674112D01*
D01*
D01*
D01*
Y896612D01*
X674112Y896612D01*
D01*
X675105Y895851D01*
X676260Y895372D01*
X677500Y895209D01*
X688016D01*
X715209Y868015D01*
Y854484D01*
X713047Y852322D01*
X712192Y853177D01*
X703699Y844683D01*
X703699D01*
D01*
D01*
X703699D01*
X703699Y844683D01*
X703067Y844051D01*
X702449Y843433D01*
X702449Y843433D01*
X702449Y843433D01*
Y843433D01*
D01*
X702083Y843067D01*
X701774Y843304D01*
X700436Y843858D01*
X699000Y844048D01*
X697564Y843858D01*
X697131Y843679D01*
X695742Y845758D01*
X697933Y847949D01*
X688808Y857074D01*
X688004Y856271D01*
X678888Y865388D01*
X677895Y866149D01*
X677557Y866289D01*
X676740Y866628D01*
X675500Y866791D01*
X665500D01*
X664260Y866628D01*
X663104Y866149D01*
X662263Y865504D01*
X662199Y865568D01*
X662199D01*
X660949Y866818D01*
X659699Y865568D01*
X659699D01*
X651823Y857692D01*
X660949Y848567D01*
Y848567D01*
D01*
D01*
Y848567D01*
X660949D01*
X661567Y847949D01*
X661567D01*
X661933Y847583D01*
Y847583D01*
D01*
X661696Y847274D01*
X661142Y845936D01*
X660953Y844500D01*
X661142Y843064D01*
X661321Y842631D01*
X659242Y841242D01*
X658301Y842183D01*
X658301D01*
X657051Y843433D01*
X655801Y842183D01*
X655801D01*
X647926Y834308D01*
X648729Y833504D01*
X639612Y824388D01*
X638851Y823396D01*
X638711Y823057D01*
X638372Y822240D01*
X638209Y821000D01*
Y811000D01*
X638209Y811000D01*
X638209D01*
X638372Y809760D01*
X638711Y808943D01*
X638851Y808605D01*
X639612Y807612D01*
D01*
D01*
X639379Y807145D01*
X638682Y806449D01*
X647808Y797323D01*
X656933Y806449D01*
Y806449D01*
X657551Y807067D01*
X657551D01*
D01*
D01*
D01*
D01*
X658038Y807067D01*
X659064Y806642D01*
X660500Y806452D01*
X661936Y806642D01*
X663222Y807174D01*
X664611Y805096D01*
X663317Y803801D01*
Y803801D01*
X662067Y802551D01*
X663317Y801301D01*
Y801301D01*
X671192Y793426D01*
X671746Y793979D01*
X680612Y785112D01*
Y785112D01*
X680612D01*
X680612Y785112D01*
X680612D01*
D01*
D01*
D01*
Y785112D01*
X680612Y785112D01*
D01*
X681604Y784351D01*
X682760Y783872D01*
X684000Y783709D01*
X694000D01*
X695240Y783872D01*
X696057Y784211D01*
X696395Y784351D01*
X697237Y784997D01*
X698551Y783682D01*
X707677Y792808D01*
X698551Y801933D01*
Y801933D01*
D01*
D01*
Y801933D01*
X698551D01*
X697933Y802551D01*
X697933D01*
X697567Y802917D01*
X697804Y803226D01*
X698358Y804564D01*
X698548Y806000D01*
X698358Y807436D01*
X698179Y807869D01*
X700258Y809258D01*
X702449Y807067D01*
X711574Y816192D01*
X710399Y817367D01*
X710741Y817709D01*
X720000D01*
X721240Y817872D01*
X722057Y818211D01*
X722396Y818351D01*
X723388Y819112D01*
Y819112D01*
X723388D01*
D01*
D01*
D01*
D01*
D01*
D01*
X723388D01*
D01*
X723388D01*
Y819112D01*
D01*
D01*
D01*
D01*
Y819112D01*
D01*
D01*
D01*
Y819112D01*
D01*
D01*
X723388D01*
D01*
D01*
D01*
X771984Y867709D01*
X884657D01*
X892998Y859367D01*
X891823Y858192D01*
X900317Y849699D01*
Y849699D01*
D01*
D01*
Y849699D01*
X900317Y849699D01*
X900949Y849067D01*
X901567Y848449D01*
X901567D01*
D01*
Y848449D01*
X901567D01*
X901933Y848083D01*
Y848083D01*
D01*
X901696Y847774D01*
X901142Y846436D01*
X900953Y845000D01*
X901142Y843564D01*
X901321Y843131D01*
X899242Y841742D01*
X897051Y843933D01*
X887926Y834808D01*
X888729Y834004D01*
X879612Y824888D01*
X878851Y823895D01*
X878711Y823557D01*
X878372Y822740D01*
X878209Y821500D01*
Y811500D01*
X878372Y810260D01*
X878711Y809443D01*
X878851Y809105D01*
X879496Y808263D01*
X878182Y806949D01*
X887308Y797823D01*
X896433Y806949D01*
X896433D01*
D01*
D01*
X896433D01*
Y806949D01*
X897051Y807567D01*
Y807567D01*
X897417Y807933D01*
Y807933D01*
X897726Y807696D01*
X899064Y807142D01*
X900500Y806952D01*
X901936Y807142D01*
X902369Y807321D01*
X903758Y805242D01*
X901567Y803051D01*
X910692Y793926D01*
X911496Y794729D01*
X920612Y785612D01*
Y785612D01*
X920612D01*
X920612Y785612D01*
X920612D01*
D01*
D01*
D01*
Y785612D01*
X920612Y785612D01*
D01*
X921605Y784851D01*
X922760Y784372D01*
X922760Y784372D01*
D01*
D01*
D01*
X922760D01*
Y784372D01*
X922760Y784372D01*
X922760Y784372D01*
X924000Y784209D01*
X934000D01*
X935240Y784372D01*
X936057Y784711D01*
X936395Y784851D01*
X937237Y785497D01*
X938551Y784182D01*
X947677Y793308D01*
X938551Y802433D01*
Y802433D01*
D01*
D01*
Y802433D01*
X938551D01*
X937933Y803051D01*
X937933D01*
X937567Y803417D01*
X937804Y803726D01*
X938358Y805064D01*
X938548Y806500D01*
X938358Y807936D01*
X938179Y808369D01*
X940258Y809758D01*
X942449Y807567D01*
X951574Y816692D01*
X950771Y817496D01*
X959888Y826612D01*
Y826612D01*
D01*
D01*
D01*
X959888Y826612D01*
D01*
Y826612D01*
D01*
D01*
D01*
D01*
X959888D01*
Y826612D01*
D01*
D01*
D01*
X959888D01*
D01*
D01*
Y826612D01*
D01*
D01*
D01*
Y826612D01*
D01*
D01*
X959888D01*
D01*
X959888Y826612D01*
D01*
D01*
X960649Y827604D01*
X961128Y828760D01*
X961291Y830000D01*
Y840000D01*
X961128Y841240D01*
X960649Y842395D01*
X960003Y843237D01*
X961318Y844551D01*
X952192Y853677D01*
X943067Y844551D01*
X943067D01*
D01*
D01*
X943067D01*
Y844551D01*
X942449Y843933D01*
Y843933D01*
X942083Y843567D01*
X941774Y843804D01*
X940436Y844358D01*
X939000Y844547D01*
X937564Y844358D01*
X937131Y844179D01*
X935742Y846258D01*
X937933Y848449D01*
X928808Y857574D01*
Y857574D01*
D01*
D01*
Y857574D01*
X928808D01*
X927291Y859091D01*
Y860515D01*
X934484Y867709D01*
X1060515D01*
X1065209Y863015D01*
Y827500D01*
X1065209Y827500D01*
X1065209Y827500D01*
X1065372Y826260D01*
X1065711Y825443D01*
X1065851Y825105D01*
X1066612Y824112D01*
Y824112D01*
D01*
D01*
X1066612Y824112D01*
Y824112D01*
X1066612Y824112D01*
X1086664Y804061D01*
X1087656Y803300D01*
X1088811Y802821D01*
X1090051Y802658D01*
X1123973D01*
X1128308Y798323D01*
X1137433Y807449D01*
X1137433Y807449D01*
D01*
D01*
X1137433D01*
D01*
D01*
X1137433D01*
Y807449D01*
X1139564Y807642D01*
Y807642D01*
X1139564D01*
D01*
Y807642D01*
X1139564D01*
D01*
X1141000Y807452D01*
X1142436Y807642D01*
X1143722Y808175D01*
X1145111Y806096D01*
X1142567Y803551D01*
X1151692Y794426D01*
X1152496Y795229D01*
X1161612Y786112D01*
Y786112D01*
X1161612D01*
X1161612Y786112D01*
X1161612D01*
D01*
D01*
D01*
Y786112D01*
X1161612Y786112D01*
D01*
X1162605Y785351D01*
X1163760Y784872D01*
X1165000Y784709D01*
X1175000D01*
X1176240Y784872D01*
X1177057Y785211D01*
X1177396Y785351D01*
X1177954Y785779D01*
X1179051Y784682D01*
X1188177Y793808D01*
X1179051Y802933D01*
Y802933D01*
D01*
D01*
Y802933D01*
X1179051D01*
X1178433Y803551D01*
X1178433D01*
X1178067Y803917D01*
X1178304Y804226D01*
X1178858Y805564D01*
X1179047Y807000D01*
X1178858Y808436D01*
X1178679Y808869D01*
X1180758Y810258D01*
X1182949Y808067D01*
X1192074Y817192D01*
X1191521Y817746D01*
X1200888Y827112D01*
X1201649Y828104D01*
X1202128Y829260D01*
X1202291Y830500D01*
Y840500D01*
X1202128Y841740D01*
X1201649Y842896D01*
X1201628Y842923D01*
X1201003Y843737D01*
X1202318Y845051D01*
X1193192Y854177D01*
X1184067Y845051D01*
X1184067D01*
D01*
D01*
X1184067D01*
Y845051D01*
X1183449Y844433D01*
Y844433D01*
X1182866Y843850D01*
X1182274Y844304D01*
X1180936Y844858D01*
X1179500Y845047D01*
X1178210Y844878D01*
X1177249Y846826D01*
X1177121Y847136D01*
X1178933Y848949D01*
X1169808Y858074D01*
X1169004Y857271D01*
X1159888Y866388D01*
X1158895Y867149D01*
X1158557Y867289D01*
X1157740Y867628D01*
X1156500Y867791D01*
X1146500D01*
X1145260Y867628D01*
X1144104Y867149D01*
X1143263Y866504D01*
X1141949Y867818D01*
X1132823Y858692D01*
X1141949Y849567D01*
Y849567D01*
D01*
D01*
Y849567D01*
X1141949D01*
X1142567Y848949D01*
Y848949D01*
X1142567Y848757D01*
X1142196Y848274D01*
X1141642Y846936D01*
X1141453Y845500D01*
X1141622Y844210D01*
X1139674Y843249D01*
X1139364Y843121D01*
X1138051Y844433D01*
X1128926Y835308D01*
X1129979Y834254D01*
X1128016Y832291D01*
X1122791D01*
X1122774Y832304D01*
X1121436Y832858D01*
X1120000Y833047D01*
X1118564Y832858D01*
X1117226Y832304D01*
X1116077Y831423D01*
X1115196Y830274D01*
X1114642Y828936D01*
X1114452Y827500D01*
X1114642Y826064D01*
X1115196Y824726D01*
X1116077Y823577D01*
X1117226Y822696D01*
X1118564Y822142D01*
X1120000Y821953D01*
X1121436Y822142D01*
X1122774Y822696D01*
X1122791Y822709D01*
X1130000D01*
X1131240Y822872D01*
X1132226Y820492D01*
X1129558Y817824D01*
X1129558D01*
D01*
D01*
X1129558D01*
X1129558Y817824D01*
X1128926Y817192D01*
X1128617Y816883D01*
X1128308Y816574D01*
X1127676Y815942D01*
X1127676Y815942D01*
Y815942D01*
D01*
D01*
Y815942D01*
X1123973Y812240D01*
X1092036D01*
X1074791Y829484D01*
Y865000D01*
X1074628Y866240D01*
X1074149Y867395D01*
X1073388Y868388D01*
Y868388D01*
D01*
D01*
Y868388D01*
D01*
D01*
D01*
D01*
X1073388D01*
D01*
D01*
X1073388D01*
X1065888Y875888D01*
X1064896Y876649D01*
X1064557Y876789D01*
X1063740Y877128D01*
X1062500Y877291D01*
X932500D01*
X931260Y877128D01*
X930583Y876847D01*
X930105Y876649D01*
X929112Y875888D01*
X919112Y865888D01*
X918351Y864896D01*
X917872Y863740D01*
X917709Y862500D01*
Y854756D01*
X917709Y854756D01*
X917709Y854756D01*
X917838Y853776D01*
X915596Y852671D01*
X911324Y856942D01*
Y856942D01*
D01*
D01*
Y856942D01*
X911324Y856942D01*
X910692Y857574D01*
X910383Y857883D01*
X910074Y858192D01*
X909442Y858824D01*
X909442Y858824D01*
X909442D01*
D01*
D01*
X909442D01*
X900949Y867318D01*
X899774Y866143D01*
X890029Y875888D01*
X889036Y876649D01*
X887881Y877128D01*
X886641Y877291D01*
X770000D01*
X768760Y877128D01*
X767943Y876789D01*
X767604Y876649D01*
X766612Y875888D01*
X718015Y827291D01*
X708756D01*
X707776Y827162D01*
X706671Y829404D01*
X711574Y834308D01*
X711574D01*
X712192Y834926D01*
X712824Y835558D01*
X712824Y835558D01*
Y835558D01*
D01*
D01*
Y835558D01*
X721318Y844051D01*
X719822Y845547D01*
X723388Y849112D01*
Y849112D01*
D01*
D01*
D01*
X723388Y849112D01*
D01*
Y849112D01*
D01*
D01*
D01*
D01*
X723388D01*
Y849112D01*
D01*
D01*
D01*
X723388D01*
D01*
D01*
Y849112D01*
D01*
D01*
D01*
Y849112D01*
D01*
D01*
X723388D01*
D01*
X723388Y849112D01*
D01*
D01*
X724149Y850105D01*
X724628Y851260D01*
X724791Y852500D01*
Y870000D01*
X724628Y871240D01*
X724149Y872396D01*
X723388Y873388D01*
Y873388D01*
D01*
D01*
Y873388D01*
D01*
D01*
D01*
D01*
X723388D01*
D01*
D01*
X723388D01*
X693388Y903388D01*
D01*
X693388Y903388D01*
D01*
D01*
D01*
X693388Y903388D01*
X693388Y903388D01*
X692395Y904149D01*
X692057Y904289D01*
X691240Y904628D01*
X690000Y904791D01*
X679485D01*
X610888Y973388D01*
D01*
X610888Y973388D01*
D01*
D01*
D01*
X610888Y973388D01*
X610888Y973388D01*
X609896Y974149D01*
X609557Y974289D01*
X608740Y974628D01*
X607500Y974791D01*
X576985D01*
X559791Y991984D01*
Y1006244D01*
X559662Y1007224D01*
X561904Y1008329D01*
X567676Y1002558D01*
Y1002558D01*
D01*
D01*
Y1002558D01*
X567676Y1002558D01*
X568308Y1001926D01*
X568926Y1001308D01*
X568926Y1001308D01*
X568926Y1001308D01*
X568926D01*
X568926D01*
X576876Y993357D01*
D01*
X578051Y992182D01*
X579226Y993357D01*
X588471Y984112D01*
X589464Y983351D01*
X590619Y982872D01*
X591859Y982709D01*
X790000D01*
X791240Y982872D01*
X792057Y983211D01*
X792395Y983351D01*
X793388Y984112D01*
Y984112D01*
X793388D01*
D01*
D01*
D01*
D01*
D01*
D01*
X793388D01*
D01*
X793388D01*
Y984112D01*
D01*
D01*
D01*
D01*
Y984112D01*
D01*
D01*
D01*
Y984112D01*
D01*
D01*
X793388D01*
D01*
D01*
D01*
X798388Y989112D01*
Y989112D01*
D01*
D01*
D01*
X798388Y989112D01*
D01*
Y989112D01*
D01*
D01*
D01*
D01*
X798388D01*
Y989112D01*
D01*
D01*
D01*
X798388D01*
D01*
D01*
Y989112D01*
D01*
D01*
D01*
Y989112D01*
D01*
D01*
X798388D01*
D01*
X798388Y989112D01*
D01*
D01*
X799149Y990104D01*
X799628Y991260D01*
X799791Y992500D01*
Y1006744D01*
X799628Y1007984D01*
X799518Y1008247D01*
X801597Y1009636D01*
X808176Y1003058D01*
Y1003058D01*
D01*
D01*
Y1003058D01*
X808176Y1003058D01*
X808808Y1002426D01*
X809426Y1001808D01*
D01*
D01*
X809426D01*
X818551Y992682D01*
X819726Y993857D01*
X856971Y956612D01*
X857963Y955851D01*
X859119Y955372D01*
X859119Y955372D01*
D01*
D01*
D01*
X859119D01*
D01*
D01*
D01*
X859119D01*
Y955372D01*
D01*
X860359Y955209D01*
X1002500D01*
X1003740Y955372D01*
X1004557Y955711D01*
X1004895Y955851D01*
X1005888Y956612D01*
Y956612D01*
X1005888D01*
D01*
D01*
D01*
D01*
D01*
D01*
X1005888D01*
D01*
X1005888D01*
Y956612D01*
D01*
D01*
D01*
D01*
Y956612D01*
D01*
D01*
D01*
Y956612D01*
D01*
D01*
X1005888D01*
D01*
D01*
D01*
X1040888Y991612D01*
X1041649Y992605D01*
X1042128Y993760D01*
X1042291Y995000D01*
Y1005000D01*
X1042201Y1005685D01*
X1044443Y1006790D01*
X1048176Y1003058D01*
Y1003058D01*
D01*
D01*
Y1003058D01*
X1048176Y1003058D01*
X1048808Y1002426D01*
X1049426Y1001808D01*
D01*
D01*
X1049426D01*
X1058551Y992682D01*
X1059726Y993857D01*
X1089471Y964112D01*
X1090464Y963351D01*
X1091619Y962872D01*
X1092859Y962709D01*
X1120000D01*
X1121240Y962872D01*
X1122057Y963211D01*
X1122396Y963351D01*
X1123388Y964112D01*
Y964112D01*
X1123388D01*
D01*
D01*
D01*
D01*
D01*
D01*
X1123388D01*
D01*
X1123388D01*
Y964112D01*
D01*
D01*
D01*
D01*
Y964112D01*
D01*
D01*
D01*
Y964112D01*
D01*
D01*
X1123388D01*
D01*
D01*
D01*
X1186985Y1027709D01*
X1247500D01*
X1248185Y1027799D01*
X1249290Y1025557D01*
X1248926Y1025192D01*
X1248617Y1024883D01*
X1248308Y1024574D01*
X1247676Y1023942D01*
X1247676Y1023942D01*
Y1023942D01*
D01*
D01*
Y1023942D01*
X1243973Y1020240D01*
X1223240D01*
X1223223Y1020253D01*
X1221885Y1020807D01*
X1220449Y1020996D01*
X1219013Y1020807D01*
X1217675Y1020253D01*
X1216526Y1019371D01*
X1215644Y1018223D01*
X1215090Y1016885D01*
X1214901Y1015449D01*
X1215090Y1014013D01*
X1215644Y1012675D01*
X1216526Y1011526D01*
X1217675Y1010645D01*
X1219013Y1010090D01*
X1220449Y1009901D01*
X1221885Y1010090D01*
X1223223Y1010645D01*
X1223240Y1010658D01*
X1243973D01*
X1248308Y1006323D01*
X1257277Y1015293D01*
X1259729Y1015780D01*
X1260064Y1015642D01*
X1261500Y1015452D01*
X1262936Y1015642D01*
X1263369Y1015821D01*
X1264758Y1013742D01*
X1262567Y1011551D01*
X1271692Y1002426D01*
X1272496Y1003229D01*
X1281612Y994112D01*
Y994112D01*
X1281612D01*
X1281612Y994112D01*
X1281612D01*
D01*
D01*
D01*
Y994112D01*
X1281612Y994112D01*
D01*
X1282605Y993351D01*
X1283760Y992872D01*
X1283760Y992872D01*
D01*
D01*
D01*
X1283760D01*
Y992872D01*
X1283760Y992872D01*
X1283760Y992872D01*
X1285000Y992709D01*
X1295000D01*
X1296240Y992872D01*
X1297057Y993211D01*
X1297396Y993351D01*
X1298237Y993997D01*
X1299551Y992682D01*
X1308677Y1001808D01*
X1299551Y1010933D01*
Y1010933D01*
D01*
D01*
Y1010933D01*
X1299551D01*
X1298933Y1011551D01*
X1298933D01*
X1298567Y1011917D01*
X1298804Y1012226D01*
X1299358Y1013564D01*
X1299547Y1015000D01*
X1299358Y1016436D01*
X1299179Y1016869D01*
X1301258Y1018258D01*
X1303449Y1016067D01*
X1312574Y1025192D01*
X1311771Y1025996D01*
X1320888Y1035112D01*
Y1035112D01*
D01*
D01*
D01*
X1320888Y1035112D01*
D01*
Y1035112D01*
D01*
D01*
D01*
D01*
X1320888D01*
Y1035112D01*
D01*
D01*
D01*
X1320888D01*
D01*
D01*
Y1035112D01*
D01*
D01*
D01*
Y1035112D01*
D01*
D01*
X1320888D01*
D01*
X1320888Y1035112D01*
D01*
D01*
X1321649Y1036104D01*
X1322128Y1037260D01*
X1322291Y1038500D01*
Y1048500D01*
X1322128Y1049740D01*
X1321649Y1050896D01*
X1321004Y1051737D01*
X1322318Y1053051D01*
X1313192Y1062177D01*
X1304067Y1053051D01*
X1304067D01*
D01*
D01*
X1304067D01*
Y1053051D01*
X1303449Y1052433D01*
Y1052433D01*
X1303083Y1052067D01*
X1302774Y1052304D01*
X1301436Y1052858D01*
X1300000Y1053047D01*
X1298564Y1052858D01*
X1298131Y1052679D01*
X1296742Y1054758D01*
X1298933Y1056949D01*
X1289808Y1066074D01*
X1289004Y1065271D01*
X1279888Y1074388D01*
X1278895Y1075149D01*
X1278557Y1075289D01*
X1277740Y1075628D01*
X1276500Y1075791D01*
X1266500D01*
X1265260Y1075628D01*
X1264104Y1075149D01*
X1263263Y1074504D01*
X1261949Y1075818D01*
D02*
G37*
G36*
X1102500Y1018529D02*
X1101324Y1018413D01*
X1100193Y1018070D01*
X1099150Y1017513D01*
X1098237Y1016763D01*
X1097487Y1015850D01*
X1096930Y1014807D01*
X1096587Y1013676D01*
X1096471Y1012500D01*
Y982500D01*
X1096587Y981324D01*
X1096930Y980193D01*
X1097487Y979150D01*
X1098237Y978237D01*
X1099150Y977487D01*
X1100193Y976930D01*
X1101324Y976587D01*
X1102500Y976471D01*
X1103676Y976587D01*
X1104807Y976930D01*
X1105850Y977487D01*
X1106763Y978237D01*
X1107513Y979150D01*
X1108070Y980193D01*
X1108413Y981324D01*
X1108529Y982500D01*
Y1012500D01*
X1108413Y1013676D01*
X1108070Y1014807D01*
X1107513Y1015850D01*
X1106763Y1016763D01*
X1105850Y1017513D01*
X1104807Y1018070D01*
X1103676Y1018413D01*
X1102500Y1018529D01*
D02*
G37*
G36*
X679500Y1075551D02*
X676911Y1075347D01*
X674385Y1074741D01*
X671986Y1073747D01*
X669772Y1072390D01*
X667797Y1070703D01*
X666110Y1068728D01*
X664753Y1066514D01*
X663759Y1064115D01*
X663153Y1061589D01*
X662949Y1059000D01*
X663153Y1056411D01*
X663759Y1053885D01*
X664753Y1051486D01*
X666110Y1049272D01*
X667797Y1047297D01*
X669772Y1045610D01*
X671986Y1044253D01*
X674385Y1043259D01*
X676911Y1042653D01*
X679500Y1042449D01*
X682089Y1042653D01*
X684615Y1043259D01*
X687014Y1044253D01*
X689228Y1045610D01*
X691203Y1047297D01*
X692890Y1049272D01*
X694247Y1051486D01*
X695241Y1053885D01*
X695847Y1056411D01*
X696051Y1059000D01*
X695847Y1061589D01*
X695241Y1064115D01*
X694247Y1066514D01*
X692890Y1068728D01*
X691203Y1070703D01*
X689228Y1072390D01*
X687014Y1073747D01*
X684615Y1074741D01*
X682089Y1075347D01*
X679500Y1075551D01*
D02*
G37*
G36*
X879500Y950797D02*
X877589Y950609D01*
X875751Y950051D01*
X874057Y949146D01*
X872572Y947928D01*
X871354Y946443D01*
X870449Y944749D01*
X869891Y942911D01*
X869703Y941000D01*
X869891Y939089D01*
X870449Y937251D01*
X871354Y935557D01*
X872572Y934072D01*
X874057Y932854D01*
X875751Y931949D01*
X877589Y931391D01*
X879500Y931203D01*
X881411Y931391D01*
X883249Y931949D01*
X884943Y932854D01*
X886428Y934072D01*
X887646Y935557D01*
X888551Y937251D01*
X889109Y939089D01*
X889297Y941000D01*
X889109Y942911D01*
X888551Y944749D01*
X887646Y946443D01*
X886428Y947928D01*
X884943Y949146D01*
X883249Y950051D01*
X881411Y950609D01*
X879500Y950797D01*
D02*
G37*
G36*
X1180000Y943529D02*
X1178824Y943413D01*
X1177693Y943070D01*
X1176650Y942513D01*
X1175737Y941763D01*
X1174987Y940850D01*
X1174430Y939807D01*
X1174087Y938676D01*
X1173971Y937500D01*
Y930000D01*
X1174087Y928824D01*
X1174430Y927693D01*
X1174987Y926650D01*
X1175737Y925737D01*
X1193237Y908237D01*
X1194151Y907487D01*
X1195193Y906930D01*
X1196324Y906587D01*
X1197500Y906471D01*
X1198676Y906587D01*
X1199807Y906930D01*
X1200850Y907487D01*
X1201763Y908237D01*
X1202513Y909150D01*
X1203070Y910193D01*
X1203413Y911324D01*
X1203529Y912500D01*
X1203413Y913676D01*
X1203070Y914807D01*
X1202513Y915849D01*
X1201763Y916763D01*
X1186029Y932497D01*
Y937500D01*
X1185913Y938676D01*
X1185570Y939807D01*
X1185013Y940850D01*
X1184263Y941763D01*
X1183350Y942513D01*
X1182307Y943070D01*
X1181176Y943413D01*
X1180000Y943529D01*
D02*
G37*
G36*
X847500Y932297D02*
X845589Y932109D01*
X843751Y931551D01*
X842057Y930646D01*
X840572Y929428D01*
X839354Y927943D01*
X838449Y926249D01*
X837891Y924411D01*
X837703Y922500D01*
X837891Y920589D01*
X838449Y918751D01*
X839354Y917057D01*
X840572Y915572D01*
X842057Y914354D01*
X843751Y913449D01*
X845589Y912891D01*
X847500Y912703D01*
X849411Y912891D01*
X851249Y913449D01*
X852943Y914354D01*
X854428Y915572D01*
X855646Y917057D01*
X856551Y918751D01*
X857109Y920589D01*
X857297Y922500D01*
X857109Y924411D01*
X856551Y926249D01*
X855646Y927943D01*
X854428Y929428D01*
X852943Y930646D01*
X851249Y931551D01*
X849411Y932109D01*
X847500Y932297D01*
D02*
G37*
G36*
X992500D02*
X990589Y932109D01*
X988751Y931551D01*
X987057Y930646D01*
X985572Y929428D01*
X984354Y927943D01*
X983449Y926249D01*
X982891Y924411D01*
X982703Y922500D01*
X982891Y920589D01*
X983449Y918751D01*
X984354Y917057D01*
X985572Y915572D01*
X987057Y914354D01*
X988751Y913449D01*
X990589Y912891D01*
X992500Y912703D01*
X994411Y912891D01*
X996249Y913449D01*
X997943Y914354D01*
X999428Y915572D01*
X1000646Y917057D01*
X1001551Y918751D01*
X1002109Y920589D01*
X1002297Y922500D01*
X1002109Y924411D01*
X1001551Y926249D01*
X1000646Y927943D01*
X999428Y929428D01*
X997943Y930646D01*
X996249Y931551D01*
X994411Y932109D01*
X992500Y932297D01*
D02*
G37*
G36*
X752000Y932797D02*
X750089Y932609D01*
X748251Y932051D01*
X746557Y931146D01*
X745072Y929928D01*
X743854Y928443D01*
X742949Y926749D01*
X742391Y924911D01*
X742203Y923000D01*
X742391Y921089D01*
X742949Y919251D01*
X743854Y917557D01*
X745072Y916072D01*
X746557Y914854D01*
X748251Y913949D01*
X750089Y913391D01*
X752000Y913203D01*
X753911Y913391D01*
X755749Y913949D01*
X757443Y914854D01*
X758928Y916072D01*
X760146Y917557D01*
X761051Y919251D01*
X761609Y921089D01*
X761797Y923000D01*
X761609Y924911D01*
X761051Y926749D01*
X760146Y928443D01*
X758928Y929928D01*
X757443Y931146D01*
X755749Y932051D01*
X753911Y932609D01*
X752000Y932797D01*
D02*
G37*
G36*
X1088000Y932297D02*
X1086089Y932109D01*
X1084251Y931551D01*
X1082557Y930646D01*
X1081072Y929428D01*
X1079854Y927943D01*
X1078949Y926249D01*
X1078391Y924411D01*
X1078203Y922500D01*
X1078391Y920589D01*
X1078949Y918751D01*
X1079854Y917057D01*
X1081072Y915572D01*
X1082557Y914354D01*
X1084251Y913449D01*
X1086089Y912891D01*
X1088000Y912703D01*
X1089911Y912891D01*
X1091749Y913449D01*
X1093443Y914354D01*
X1094928Y915572D01*
X1096146Y917057D01*
X1097051Y918751D01*
X1097609Y920589D01*
X1097797Y922500D01*
X1097609Y924411D01*
X1097051Y926249D01*
X1096146Y927943D01*
X1094928Y929428D01*
X1093443Y930646D01*
X1091749Y931551D01*
X1089911Y932109D01*
X1088000Y932297D01*
D02*
G37*
%LPD*%
G36*
X801710Y627344D02*
X803586Y626775D01*
X805314Y625851D01*
X806829Y624608D01*
X808072Y623093D01*
X808996Y621365D01*
X809565Y619489D01*
X809757Y617539D01*
X809565Y615589D01*
X808996Y613713D01*
X808072Y611985D01*
X806829Y610470D01*
X805314Y609227D01*
X803586Y608303D01*
X801710Y607734D01*
X799760Y607542D01*
X797810Y607734D01*
X795934Y608303D01*
X794206Y609227D01*
X792691Y610470D01*
X791448Y611985D01*
X790524Y613713D01*
X789955Y615589D01*
X789763Y617539D01*
X789955Y619489D01*
X790524Y621365D01*
X791448Y623093D01*
X792691Y624608D01*
X794206Y625851D01*
X795934Y626775D01*
X797810Y627344D01*
X799760Y627536D01*
X801710Y627344D01*
D02*
G37*
G36*
X1042210D02*
X1044086Y626775D01*
X1045814Y625851D01*
X1047329Y624608D01*
X1048572Y623093D01*
X1049496Y621365D01*
X1050065Y619489D01*
X1050257Y617539D01*
X1050065Y615589D01*
X1049496Y613713D01*
X1048572Y611985D01*
X1047329Y610470D01*
X1045814Y609227D01*
X1044086Y608303D01*
X1042210Y607734D01*
X1040260Y607542D01*
X1038309Y607734D01*
X1036434Y608303D01*
X1034706Y609227D01*
X1033191Y610470D01*
X1031948Y611985D01*
X1031024Y613713D01*
X1030455Y615589D01*
X1030263Y617539D01*
X1030455Y619489D01*
X1031024Y621365D01*
X1031948Y623093D01*
X1033191Y624608D01*
X1034706Y625851D01*
X1036434Y626775D01*
X1038309Y627344D01*
X1040260Y627536D01*
X1042210Y627344D01*
D02*
G37*
G36*
X921960Y419065D02*
X923835Y418496D01*
X925564Y417572D01*
X927079Y416329D01*
X928322Y414814D01*
X929246Y413086D01*
X929815Y411210D01*
X930007Y409260D01*
X929815Y407309D01*
X929246Y405434D01*
X928322Y403706D01*
X927079Y402191D01*
X925564Y400948D01*
X923835Y400024D01*
X921960Y399455D01*
X920010Y399263D01*
X918060Y399455D01*
X916184Y400024D01*
X914456Y400948D01*
X912941Y402191D01*
X911698Y403706D01*
X910774Y405434D01*
X910205Y407309D01*
X910013Y409260D01*
X910205Y411210D01*
X910774Y413086D01*
X911698Y414814D01*
X912941Y416329D01*
X914456Y417572D01*
X916184Y418496D01*
X918060Y419065D01*
X920010Y419257D01*
X921960Y419065D01*
D02*
G37*
G36*
X1282710Y1043902D02*
X1284585Y1043333D01*
X1286314Y1042409D01*
X1287829Y1041166D01*
X1289072Y1039651D01*
X1289996Y1037923D01*
X1290565Y1036047D01*
X1290757Y1034097D01*
X1290565Y1032147D01*
X1289996Y1030272D01*
X1289072Y1028543D01*
X1287829Y1027028D01*
X1286314Y1025785D01*
X1284585Y1024861D01*
X1282710Y1024292D01*
X1280760Y1024100D01*
X1278810Y1024292D01*
X1276934Y1024861D01*
X1275206Y1025785D01*
X1273691Y1027028D01*
X1272448Y1028543D01*
X1271524Y1030272D01*
X1270955Y1032147D01*
X1270763Y1034097D01*
X1270955Y1036047D01*
X1271524Y1037923D01*
X1272448Y1039651D01*
X1273691Y1041166D01*
X1275206Y1042409D01*
X1276934Y1043333D01*
X1278810Y1043902D01*
X1280760Y1044094D01*
X1282710Y1043902D01*
D02*
G37*
G36*
X1162460Y835623D02*
X1164336Y835054D01*
X1166064Y834130D01*
X1167579Y832887D01*
X1168822Y831372D01*
X1169746Y829644D01*
X1170315Y827768D01*
X1170507Y825818D01*
X1170315Y823868D01*
X1169746Y821992D01*
X1168822Y820264D01*
X1167579Y818749D01*
X1166064Y817506D01*
X1164336Y816582D01*
X1162460Y816013D01*
X1160510Y815821D01*
X1158560Y816013D01*
X1156684Y816582D01*
X1154956Y817506D01*
X1153441Y818749D01*
X1152198Y820264D01*
X1151274Y821992D01*
X1150705Y823868D01*
X1150513Y825818D01*
X1150705Y827768D01*
X1151274Y829644D01*
X1152198Y831372D01*
X1153441Y832887D01*
X1154956Y834130D01*
X1156684Y835054D01*
X1158560Y835623D01*
X1160510Y835815D01*
X1162460Y835623D01*
D02*
G37*
G36*
X921960D02*
X923835Y835054D01*
X925564Y834130D01*
X927079Y832887D01*
X928322Y831372D01*
X929246Y829644D01*
X929815Y827768D01*
X930007Y825818D01*
X929815Y823868D01*
X929246Y821992D01*
X928322Y820264D01*
X927079Y818749D01*
X925564Y817506D01*
X923835Y816582D01*
X921960Y816013D01*
X920010Y815821D01*
X918060Y816013D01*
X916184Y816582D01*
X914456Y817506D01*
X912941Y818749D01*
X911698Y820264D01*
X910774Y821992D01*
X910205Y823868D01*
X910013Y825818D01*
X910205Y827768D01*
X910774Y829644D01*
X911698Y831372D01*
X912941Y832887D01*
X914456Y834130D01*
X916184Y835054D01*
X918060Y835623D01*
X920010Y835815D01*
X921960Y835623D01*
D02*
G37*
G36*
X681460D02*
X683335Y835054D01*
X685064Y834130D01*
X686579Y832887D01*
X687822Y831372D01*
X688746Y829644D01*
X689315Y827768D01*
X689507Y825818D01*
X689315Y823868D01*
X688746Y821992D01*
X687822Y820264D01*
X686579Y818749D01*
X685064Y817506D01*
X683335Y816582D01*
X681460Y816013D01*
X679510Y815821D01*
X677560Y816013D01*
X675684Y816582D01*
X673956Y817506D01*
X672441Y818749D01*
X671198Y820264D01*
X670274Y821992D01*
X669705Y823868D01*
X669513Y825818D01*
X669705Y827768D01*
X670274Y829644D01*
X671198Y831372D01*
X672441Y832887D01*
X673956Y834130D01*
X675684Y835054D01*
X677560Y835623D01*
X679510Y835815D01*
X681460Y835623D01*
D02*
G37*
G36*
X561210Y1043902D02*
X563086Y1043333D01*
X564814Y1042409D01*
X566329Y1041166D01*
X567572Y1039651D01*
X568496Y1037923D01*
X569065Y1036047D01*
X569257Y1034097D01*
X569065Y1032147D01*
X568496Y1030272D01*
X567572Y1028543D01*
X566329Y1027028D01*
X564814Y1025785D01*
X563086Y1024861D01*
X561210Y1024292D01*
X559260Y1024100D01*
X557309Y1024292D01*
X555434Y1024861D01*
X553706Y1025785D01*
X552191Y1027028D01*
X550948Y1028543D01*
X550024Y1030272D01*
X549455Y1032147D01*
X549263Y1034097D01*
X549455Y1036047D01*
X550024Y1037923D01*
X550948Y1039651D01*
X552191Y1041166D01*
X553706Y1042409D01*
X555434Y1043333D01*
X557309Y1043902D01*
X559260Y1044094D01*
X561210Y1043902D01*
D02*
G37*
G36*
X1042210D02*
X1044086Y1043333D01*
X1045814Y1042409D01*
X1047329Y1041166D01*
X1048572Y1039651D01*
X1049496Y1037923D01*
X1050065Y1036047D01*
X1050257Y1034097D01*
X1050065Y1032147D01*
X1049496Y1030272D01*
X1048572Y1028543D01*
X1047329Y1027028D01*
X1045814Y1025785D01*
X1044086Y1024861D01*
X1042210Y1024292D01*
X1040260Y1024100D01*
X1038309Y1024292D01*
X1036434Y1024861D01*
X1034706Y1025785D01*
X1033191Y1027028D01*
X1031948Y1028543D01*
X1031024Y1030272D01*
X1030455Y1032147D01*
X1030263Y1034097D01*
X1030455Y1036047D01*
X1031024Y1037923D01*
X1031948Y1039651D01*
X1033191Y1041166D01*
X1034706Y1042409D01*
X1036434Y1043333D01*
X1038309Y1043902D01*
X1040260Y1044094D01*
X1042210Y1043902D01*
D02*
G37*
G36*
X1042408Y642675D02*
X1040250Y640517D01*
X1032060Y648707D01*
X1032463Y649681D01*
X1034915Y650169D01*
X1042408Y642675D01*
D02*
G37*
G36*
X801710Y1043902D02*
X803586Y1043333D01*
X805314Y1042409D01*
X806829Y1041166D01*
X808072Y1039651D01*
X808996Y1037923D01*
X809565Y1036047D01*
X809757Y1034097D01*
X809565Y1032147D01*
X808996Y1030272D01*
X808072Y1028543D01*
X806829Y1027028D01*
X805314Y1025785D01*
X803586Y1024861D01*
X801710Y1024292D01*
X799760Y1024100D01*
X797810Y1024292D01*
X795934Y1024861D01*
X794206Y1025785D01*
X792691Y1027028D01*
X791448Y1028543D01*
X790524Y1030272D01*
X789955Y1032147D01*
X789763Y1034097D01*
X789955Y1036047D01*
X790524Y1037923D01*
X791448Y1039651D01*
X792691Y1041166D01*
X794206Y1042409D01*
X795934Y1043333D01*
X797810Y1043902D01*
X799760Y1044094D01*
X801710Y1043902D01*
D02*
G37*
D10*
X897051Y834808D02*
D03*
X887308Y844551D02*
D03*
X910692Y848449D02*
D03*
X900949Y858192D02*
D03*
X942449Y816692D02*
D03*
X952192Y806949D02*
D03*
X928808Y803051D02*
D03*
X938551Y793308D02*
D03*
X1303449Y1025192D02*
D03*
X1313192Y1015449D02*
D03*
X1289808Y1011551D02*
D03*
X1299551Y1001808D02*
D03*
X1258051Y1043308D02*
D03*
X1248308Y1053051D02*
D03*
X1271692Y1056949D02*
D03*
X1261949Y1066692D02*
D03*
X1182949Y817192D02*
D03*
X1192692Y807449D02*
D03*
X1169308Y803551D02*
D03*
X1179051Y793808D02*
D03*
X1138051Y835308D02*
D03*
X1128308Y845051D02*
D03*
X1151692Y848949D02*
D03*
X1141949Y858692D02*
D03*
X1062449Y1025192D02*
D03*
X1072192Y1015449D02*
D03*
X1048808Y1011551D02*
D03*
X1058551Y1001808D02*
D03*
X1017051Y1043308D02*
D03*
X1007308Y1053051D02*
D03*
X1030692Y1056949D02*
D03*
X1020949Y1066692D02*
D03*
X698551Y792808D02*
D03*
X688808Y802551D02*
D03*
X712192Y806449D02*
D03*
X702449Y816192D02*
D03*
X660949Y857692D02*
D03*
X670692Y847949D02*
D03*
X647308Y844051D02*
D03*
X657051Y834308D02*
D03*
X938551Y376808D02*
D03*
X928808Y386551D02*
D03*
X952192Y390449D02*
D03*
X942449Y400192D02*
D03*
X911192Y431949D02*
D03*
X887808Y428051D02*
D03*
X897551Y418308D02*
D03*
X540449Y1065692D02*
D03*
X550192Y1055949D02*
D03*
X526808Y1052051D02*
D03*
X536551Y1042308D02*
D03*
X578051Y1001308D02*
D03*
X568308Y1011051D02*
D03*
X591692Y1014949D02*
D03*
X581949Y1024692D02*
D03*
X818051Y585308D02*
D03*
X808308Y595051D02*
D03*
X831692Y598949D02*
D03*
X780949Y650192D02*
D03*
X790692Y640449D02*
D03*
X767308Y636551D02*
D03*
X777051Y626808D02*
D03*
X780949Y1066692D02*
D03*
X790692Y1056949D02*
D03*
X767308Y1053051D02*
D03*
X777051Y1043308D02*
D03*
X818551Y1001808D02*
D03*
X808808Y1011551D02*
D03*
X832192Y1015449D02*
D03*
X822449Y1025192D02*
D03*
X1021449Y650192D02*
D03*
X1031192Y640449D02*
D03*
X1007808Y636551D02*
D03*
X1017551Y626808D02*
D03*
X1059051Y585308D02*
D03*
X1049308Y595051D02*
D03*
X1072692Y598949D02*
D03*
X1062949Y608692D02*
D03*
X821949D02*
D03*
X901449Y441692D02*
D03*
D11*
X910692Y803051D02*
D03*
X900949Y793308D02*
D03*
X897051Y816692D02*
D03*
X887308Y806949D02*
D03*
X928808Y848449D02*
D03*
X938551Y858192D02*
D03*
X942449Y834808D02*
D03*
X952192Y844551D02*
D03*
X1271692Y1011551D02*
D03*
X1261949Y1001808D02*
D03*
X1258051Y1025192D02*
D03*
X1248308Y1015449D02*
D03*
X1289808Y1056949D02*
D03*
X1299551Y1066692D02*
D03*
X1303449Y1043308D02*
D03*
X1313192Y1053051D02*
D03*
X1169808Y848949D02*
D03*
X1179551Y858692D02*
D03*
X1183449Y835308D02*
D03*
X1193192Y845051D02*
D03*
X1048808Y1056949D02*
D03*
X1058551Y1066692D02*
D03*
X1062449Y1043308D02*
D03*
X1072192Y1053051D02*
D03*
X1030692Y1011551D02*
D03*
X1020949Y1001808D02*
D03*
X1017051Y1025192D02*
D03*
X1007308Y1015449D02*
D03*
X647808Y806449D02*
D03*
X657551Y816192D02*
D03*
X661449Y792808D02*
D03*
X671192Y802551D02*
D03*
X712192Y844051D02*
D03*
X702449Y834308D02*
D03*
X698551Y857692D02*
D03*
X688808Y847949D02*
D03*
X952692Y428051D02*
D03*
X942949Y418308D02*
D03*
X939051Y441692D02*
D03*
X929308Y431949D02*
D03*
X887808Y390449D02*
D03*
X897551Y400192D02*
D03*
X901449Y376808D02*
D03*
X911192Y386551D02*
D03*
X526808Y1014949D02*
D03*
X536551Y1024692D02*
D03*
X540449Y1001308D02*
D03*
X550192Y1011051D02*
D03*
X591692Y1052051D02*
D03*
X581949Y1042308D02*
D03*
X578051Y1065692D02*
D03*
X568308Y1055949D02*
D03*
X767308Y598949D02*
D03*
X777051Y608692D02*
D03*
X780949Y585308D02*
D03*
X790692Y595051D02*
D03*
X831692Y636551D02*
D03*
X821949Y626808D02*
D03*
X818051Y650192D02*
D03*
X808308Y640449D02*
D03*
X767308Y1014949D02*
D03*
X777051Y1024692D02*
D03*
X780949Y1001308D02*
D03*
X790692Y1011051D02*
D03*
X832192Y1052551D02*
D03*
X822449Y1042808D02*
D03*
X818551Y1066192D02*
D03*
X808808Y1056449D02*
D03*
X1007808Y598949D02*
D03*
X1017551Y608692D02*
D03*
X1021449Y585308D02*
D03*
X1031192Y595051D02*
D03*
X1072692Y636551D02*
D03*
X1062949Y626808D02*
D03*
X1059051Y650192D02*
D03*
X1049308Y640449D02*
D03*
X1128308Y807449D02*
D03*
X1138051Y817192D02*
D03*
X1141949Y793808D02*
D03*
X1151692Y803551D02*
D03*
D12*
X950276Y445724D02*
Y454724D01*
X762500Y675000D02*
X780000Y692500D01*
X803744Y664500D02*
X816744Y677500D01*
X827500D01*
X717500Y770000D02*
X745000D01*
X757500Y782500D01*
X716224Y795224D02*
X723948Y787500D01*
X840210Y1023467D02*
X845000Y1018677D01*
X601543Y1024799D02*
X618842Y1007500D01*
X672500Y1027500D02*
X682500D01*
X690000Y1020000D01*
Y997500D02*
Y1020000D01*
X618842Y1007500D02*
X677500D01*
X1180000Y930000D02*
X1197500Y912500D01*
X1180000Y930000D02*
Y937500D01*
X1215169D02*
X1270713Y993044D01*
X1195000Y937500D02*
X1215169D01*
X1080577Y1023833D02*
X1087500Y1016910D01*
Y992500D02*
Y1016910D01*
X1102500Y982500D02*
Y1012500D01*
X845000Y992500D02*
Y1018677D01*
X857500Y982500D02*
Y1012500D01*
X947500Y457500D02*
Y515000D01*
Y457500D02*
X950276Y454724D01*
X1075258Y736689D02*
X1113445D01*
X1156256Y779500D01*
X1047244Y708674D02*
X1075258Y736689D01*
X1047244Y662000D02*
Y708674D01*
X952500Y535000D02*
X1005000D01*
X740000Y787500D02*
X755000Y802500D01*
X772500D01*
X797500Y777500D01*
X844000D01*
X873000Y806500D01*
X723948Y787500D02*
X740000D01*
X780000Y692500D02*
X895000D01*
D13*
X591859Y987500D02*
X790000D01*
X832192Y1015449D02*
X846500Y1029756D01*
X591692Y1014949D02*
X606000Y1029256D01*
X1261949Y1001808D02*
X1270713Y993044D01*
Y993044D02*
X1276256Y987500D01*
X1072192Y1015449D02*
X1086500Y1029756D01*
X1120000Y967500D02*
X1185000Y1032500D01*
X1092859Y967500D02*
X1120000D01*
X1058551Y1001808D02*
X1092859Y967500D01*
X607500Y970000D02*
X677500Y900000D01*
X690000D01*
X720000Y870000D01*
X575000Y970000D02*
X607500D01*
X1002500Y960000D02*
X1037500Y995000D01*
X818551Y1001808D02*
X860359Y960000D01*
X1002500D01*
X873500Y390000D02*
X891000Y372500D01*
X897141D01*
X901449Y376808D01*
X952692Y390449D02*
X956000Y387141D01*
Y380000D02*
Y387141D01*
X873500Y413744D02*
X887808Y428051D01*
X873500Y390000D02*
Y413744D01*
X952692Y390449D02*
X966000Y403756D01*
Y430000D01*
X939051Y441692D02*
X943083Y445724D01*
X950276D01*
X966000Y430000D01*
X941000Y365000D02*
X956000Y380000D01*
X901449Y376808D02*
X913256Y365000D01*
X941000D01*
X762500Y647000D02*
X780000Y664500D01*
X762500Y640859D02*
Y647000D01*
Y640859D02*
X766808Y636551D01*
X777141Y582000D02*
X780449Y585308D01*
X770000Y582000D02*
X777141D01*
X803744Y664500D02*
X818051Y650192D01*
X780000Y664500D02*
X803744D01*
X780449Y585308D02*
X793756Y572000D01*
X820000D01*
X831692Y598949D02*
X835724Y594917D01*
Y587724D02*
Y594917D01*
X820000Y572000D02*
X835724Y587724D01*
X755000Y597000D02*
X770000Y582000D01*
X755000Y624744D02*
X766808Y636551D01*
X755000Y597000D02*
Y624744D01*
X1069500Y654500D02*
X1087000Y637000D01*
X1063359Y654500D02*
X1069500D01*
X1059051Y650192D02*
X1063359Y654500D01*
X1004500Y639859D02*
X1007808Y636551D01*
X1004500Y639859D02*
Y647000D01*
X1072692Y598949D02*
X1087000Y613256D01*
Y637000D01*
X994500Y623244D02*
X1007808Y636551D01*
X994500Y597000D02*
Y623244D01*
X1017417Y581276D02*
X1021449Y585308D01*
X1010224Y581276D02*
X1017417D01*
X994500Y597000D02*
X1010224Y581276D01*
X1004500Y647000D02*
X1019500Y662000D01*
X1047244D02*
X1059051Y650192D01*
X1019500Y662000D02*
X1047244D01*
X1180000Y779500D02*
X1197500Y797000D01*
Y803141D01*
X1193192Y807449D02*
X1197500Y803141D01*
X1179551Y858692D02*
X1182859Y862000D01*
X1190000D01*
X1141949Y793808D02*
X1156256Y779500D01*
X1180000D01*
X1166244Y872000D02*
X1179551Y858692D01*
X1140000Y872000D02*
X1166244D01*
X1124276Y849083D02*
X1128308Y845051D01*
X1124276Y849083D02*
Y856276D01*
X1140000Y872000D01*
X1190000Y862000D02*
X1205000Y847000D01*
X1193192Y807449D02*
X1205000Y819256D01*
Y847000D01*
X873000Y806500D02*
X890500Y789000D01*
X896641D01*
X900949Y793308D01*
X952192Y806949D02*
X955500Y803641D01*
Y796500D02*
Y803641D01*
X873000Y830244D02*
X887308Y844551D01*
X873000Y806500D02*
Y830244D01*
X952192Y806949D02*
X965500Y820256D01*
Y846500D01*
X938551Y858192D02*
X942583Y862224D01*
X949776D01*
X965500Y846500D01*
X940500Y781500D02*
X955500Y796500D01*
X900949Y793308D02*
X912756Y781500D01*
X940500D01*
X643000Y854500D02*
X660500Y872000D01*
X643000Y848359D02*
Y854500D01*
Y848359D02*
X647308Y844051D01*
X657641Y789500D02*
X660949Y792808D01*
X650500Y789500D02*
X657641D01*
X684244Y872000D02*
X698551Y857692D01*
X660500Y872000D02*
X684244D01*
X674256Y779500D02*
X700500D01*
X712192Y806449D02*
X716224Y802417D01*
Y795224D02*
Y802417D01*
X700500Y779500D02*
X716224Y795224D01*
X635500Y804500D02*
X650500Y789500D01*
X635500Y832244D02*
X647308Y844051D01*
X635500Y804500D02*
Y832244D01*
X588500Y1070500D02*
X606000Y1053000D01*
X582359Y1070500D02*
X588500D01*
X578051Y1066192D02*
X582359Y1070500D01*
X523500Y1055859D02*
X526808Y1052551D01*
X523500Y1055859D02*
Y1063000D01*
X606000Y1029256D02*
Y1053000D01*
X513500Y1039244D02*
X526808Y1052551D01*
X513500Y1013000D02*
Y1039244D01*
X536417Y997276D02*
X540449Y1001308D01*
X529224Y997276D02*
X536417D01*
X513500Y1013000D02*
X529224Y997276D01*
X523500Y1063000D02*
X538500Y1078000D01*
X566244D02*
X578051Y1066192D01*
X538500Y1078000D02*
X566244D01*
X829000Y1071000D02*
X846500Y1053500D01*
X822859Y1071000D02*
X829000D01*
X818551Y1066692D02*
X822859Y1071000D01*
X764000Y1056359D02*
X767308Y1053051D01*
X764000Y1056359D02*
Y1063500D01*
X846500Y1029756D02*
Y1053500D01*
X754000Y1039744D02*
X767308Y1053051D01*
X754000Y1013500D02*
Y1039744D01*
X776917Y997776D02*
X780949Y1001808D01*
X769724Y997776D02*
X776917D01*
X754000Y1013500D02*
X769724Y997776D01*
X764000Y1063500D02*
X779000Y1078500D01*
X806744D02*
X818551Y1066692D01*
X779000Y1078500D02*
X806744D01*
X1069000Y1071000D02*
X1086500Y1053500D01*
X1062859Y1071000D02*
X1069000D01*
X1058551Y1066692D02*
X1062859Y1071000D01*
X1004000Y1056359D02*
X1007308Y1053051D01*
X1004000Y1056359D02*
Y1063500D01*
X1086500Y1029756D02*
Y1053500D01*
X994000Y1039744D02*
X1007308Y1053051D01*
X994000Y1013500D02*
Y1039744D01*
X1016917Y997776D02*
X1020949Y1001808D01*
X1009724Y997776D02*
X1016917D01*
X994000Y1013500D02*
X1009724Y997776D01*
X1004000Y1063500D02*
X1019000Y1078500D01*
X1046744D02*
X1058551Y1066692D01*
X1019000Y1078500D02*
X1046744D01*
X1325000Y1027256D02*
Y1055000D01*
X1313192Y1015449D02*
X1325000Y1027256D01*
X1310000Y1070000D02*
X1325000Y1055000D01*
X1244276Y1064276D02*
X1260000Y1080000D01*
X1244276Y1057083D02*
Y1064276D01*
Y1057083D02*
X1248308Y1053051D01*
X1260000Y1080000D02*
X1286244D01*
X1299551Y1066692D01*
X1276256Y987500D02*
X1300000D01*
X1302859Y1070000D02*
X1310000D01*
X1299551Y1066692D02*
X1302859Y1070000D01*
X1313192Y1015449D02*
Y1015692D01*
Y1015449D02*
X1317500Y1011141D01*
Y1005000D02*
Y1011141D01*
X1300000Y987500D02*
X1317500Y1005000D01*
X929551Y386551D02*
X933000Y390000D01*
X939000Y422500D02*
X942449Y419051D01*
X906500Y428500D02*
X909949Y431949D01*
X897051Y399449D02*
X900500Y396000D01*
X809051Y595051D02*
X812500Y598500D01*
X818500Y631000D02*
X821949Y627551D01*
X786000Y637000D02*
X789449Y640449D01*
X776551Y607949D02*
X780000Y604500D01*
X1050051Y595051D02*
X1053500Y598500D01*
X1059500Y631000D02*
X1062949Y627551D01*
X1027000Y637000D02*
X1030449Y640449D01*
X1017551Y607949D02*
X1021000Y604500D01*
X1170051Y803551D02*
X1173500Y807000D01*
X1179500Y839500D02*
X1182949Y836051D01*
X1147000Y845500D02*
X1150449Y848949D01*
X1137551Y816449D02*
X1141000Y813000D01*
X929551Y803051D02*
X933000Y806500D01*
X939000Y839000D02*
X942449Y835551D01*
X906500Y845000D02*
X909949Y848449D01*
X897051Y815949D02*
X900500Y812500D01*
X689551Y802551D02*
X693000Y806000D01*
X699000Y838500D02*
X702449Y835051D01*
X666500Y844500D02*
X669949Y847949D01*
X657051Y815449D02*
X660500Y812000D01*
X569051Y1011051D02*
X572500Y1014500D01*
X578500Y1047000D02*
X581949Y1043551D01*
X546000Y1053000D02*
X549449Y1056449D01*
X536551Y1023949D02*
X540000Y1020500D01*
X809551Y1011551D02*
X813000Y1015000D01*
X819000Y1047500D02*
X822449Y1044051D01*
X786500Y1053500D02*
X789949Y1056949D01*
X777051Y1024449D02*
X780500Y1021000D01*
X1017051Y1024449D02*
X1020500Y1021000D01*
X1026500Y1053500D02*
X1029949Y1056949D01*
X1059000Y1047500D02*
X1062449Y1044051D01*
X1049551Y1011551D02*
X1053000Y1015000D01*
X1290551Y1011551D02*
X1294000Y1015000D01*
X1258051Y1024449D02*
X1261500Y1021000D01*
X1267500Y1053500D02*
X1270949Y1056949D01*
X1300000Y1047500D02*
X1303449Y1044051D01*
Y1043308D02*
Y1044051D01*
X1271692Y1010808D02*
Y1011551D01*
X1285000Y997500D02*
X1295000D01*
X1299308Y1001808D01*
X1299551D01*
X1271692Y1010808D02*
X1285000Y997500D01*
X1304192Y1025192D02*
X1317500Y1038500D01*
X1313192Y1052808D02*
X1317500Y1048500D01*
Y1038500D02*
Y1048500D01*
X1303449Y1025192D02*
X1304192D01*
X1276500Y1071000D02*
X1289808Y1057692D01*
X1262192Y1066692D02*
X1266500Y1071000D01*
X1276500D01*
X1289808Y1056949D02*
Y1057692D01*
X1016859Y628115D02*
X1017603D01*
X1003551Y604808D02*
Y614808D01*
Y604808D02*
X1007859Y600500D01*
X1003551Y614808D02*
X1016859Y628115D01*
X1049359Y641756D02*
Y642500D01*
X1026051Y655808D02*
X1036051D01*
X1021744Y651500D02*
X1026051Y655808D01*
X1036051D02*
X1049359Y642500D01*
X1063744Y610000D02*
X1077051Y623308D01*
X1072744Y637615D02*
Y637859D01*
Y637615D02*
X1077051Y633308D01*
Y623308D02*
Y633308D01*
X1063000Y610000D02*
X1063744D01*
X535808Y1042808D02*
X536551D01*
X522500Y1019500D02*
Y1029500D01*
Y1019500D02*
X526808Y1015192D01*
X522500Y1029500D02*
X535808Y1042808D01*
X568308Y1056449D02*
Y1057192D01*
X545000Y1070500D02*
X555000D01*
X540692Y1066192D02*
X545000Y1070500D01*
X555000D02*
X568308Y1057192D01*
X582692Y1024692D02*
X596000Y1038000D01*
X591692Y1052308D02*
Y1052551D01*
Y1052308D02*
X596000Y1048000D01*
Y1038000D02*
Y1048000D01*
X581949Y1024692D02*
X582692D01*
X790192Y594308D02*
Y595051D01*
X803500Y581000D02*
X813500D01*
X817808Y585308D01*
X790192Y594308D02*
X803500Y581000D01*
X775808Y626808D02*
X776551D01*
X762500Y603500D02*
Y613500D01*
Y603500D02*
X766808Y599192D01*
X762500Y613500D02*
X775808Y626808D01*
X795000Y654500D02*
X808308Y641192D01*
X780449Y650192D02*
X780692D01*
X785000Y654500D01*
X795000D01*
X808308Y640449D02*
Y641192D01*
X670692Y801808D02*
Y802551D01*
X684000Y788500D02*
X694000D01*
X698308Y792808D01*
X670692Y801808D02*
X684000Y788500D01*
X656308Y834308D02*
X657051D01*
X643000Y811000D02*
Y821000D01*
Y811000D02*
X647308Y806692D01*
X643000Y821000D02*
X656308Y834308D01*
X675500Y862000D02*
X688808Y848692D01*
X660949Y857692D02*
X661192D01*
X665500Y862000D01*
X675500D01*
X688808Y847949D02*
Y848692D01*
X776308Y1043308D02*
X777051D01*
X763000Y1020000D02*
Y1030000D01*
Y1020000D02*
X767308Y1015692D01*
X763000Y1030000D02*
X776308Y1043308D01*
X808808Y1056949D02*
Y1057692D01*
X785500Y1071000D02*
X795500D01*
X781192Y1066692D02*
X785500Y1071000D01*
X795500D02*
X808808Y1057692D01*
X823192Y1025192D02*
X836500Y1038500D01*
X832192Y1052808D02*
Y1053051D01*
Y1052808D02*
X836500Y1048500D01*
Y1038500D02*
Y1048500D01*
X822449Y1025192D02*
X823192D01*
X1169808Y848949D02*
Y849692D01*
X1146500Y863000D02*
X1156500D01*
X1142192Y858692D02*
X1146500Y863000D01*
X1156500D02*
X1169808Y849692D01*
X1183449Y817192D02*
X1184192D01*
X1197500Y830500D02*
Y840500D01*
X1193192Y844808D02*
X1197500Y840500D01*
X1184192Y817192D02*
X1197500Y830500D01*
X1151692Y802808D02*
X1165000Y789500D01*
X1179308Y793808D02*
X1179551D01*
X1175000Y789500D02*
X1179308Y793808D01*
X1165000Y789500D02*
X1175000D01*
X1151692Y802808D02*
Y803551D01*
X1016308Y1043308D02*
X1017051D01*
X1003000Y1020000D02*
Y1030000D01*
Y1020000D02*
X1007308Y1015692D01*
X1003000Y1030000D02*
X1016308Y1043308D01*
X1048808Y1056949D02*
Y1057692D01*
X1025500Y1071000D02*
X1035500D01*
X1021192Y1066692D02*
X1025500Y1071000D01*
X1035500D02*
X1048808Y1057692D01*
X1063192Y1025192D02*
X1076500Y1038500D01*
X1072192Y1052808D02*
Y1053051D01*
Y1052808D02*
X1076500Y1048500D01*
Y1038500D02*
Y1048500D01*
X1062449Y1025192D02*
X1063192D01*
X942449Y816692D02*
X943192D01*
X956500Y830000D02*
Y840000D01*
X952192Y844308D02*
X956500Y840000D01*
X943192Y816692D02*
X956500Y830000D01*
X910692Y802308D02*
Y803051D01*
X924000Y789000D02*
X934000D01*
X938308Y793308D01*
X910692Y802308D02*
X924000Y789000D01*
X883000Y821500D02*
X896308Y834808D01*
X887308Y806949D02*
Y807192D01*
X883000Y811500D02*
X887308Y807192D01*
X883000Y811500D02*
Y821500D01*
X896308Y834808D02*
X897051D01*
X942949Y400192D02*
X943692D01*
X957000Y413500D02*
Y423500D01*
X952692Y427808D02*
X957000Y423500D01*
X943692Y400192D02*
X957000Y413500D01*
X911192Y385808D02*
Y386551D01*
X924500Y372500D02*
X934500D01*
X938808Y376808D01*
X911192Y385808D02*
X924500Y372500D01*
X883500Y405000D02*
X896808Y418308D01*
X887808Y390449D02*
Y390692D01*
X883500Y395000D02*
X887808Y390692D01*
X883500Y395000D02*
Y405000D01*
X896808Y418308D02*
X897551D01*
X1247500Y1032500D02*
X1258051Y1043051D01*
Y1043308D01*
X1185000Y1032500D02*
X1247500D01*
X1030692Y1011551D02*
X1030949D01*
X1037500Y1005000D01*
Y995000D02*
Y1005000D01*
X790692Y1011051D02*
X795000Y1006744D01*
X790000Y987500D02*
X795000Y992500D01*
X578051Y1001308D02*
X591859Y987500D01*
X795000Y992500D02*
Y1006744D01*
X550192Y1011051D02*
X555000Y1006244D01*
Y990000D02*
Y1006244D01*
Y990000D02*
X575000Y970000D01*
X720000Y852500D02*
Y870000D01*
X712192Y844692D02*
X720000Y852500D01*
X712192Y844051D02*
Y844692D01*
X702449Y816192D02*
X708756Y822500D01*
X720000D01*
X770000Y872500D01*
X886641D02*
X900949Y858192D01*
X770000Y872500D02*
X886641D01*
X922500Y854756D02*
X928808Y848449D01*
X922500Y854756D02*
Y862500D01*
X932500Y872500D01*
X1070000Y827500D02*
X1090051Y807449D01*
X1070000Y827500D02*
Y865000D01*
X1062500Y872500D02*
X1070000Y865000D01*
X932500Y872500D02*
X1062500D01*
X1090051Y807449D02*
X1128308D01*
X1137808Y835308D02*
X1138051D01*
X1130000Y827500D02*
X1137808Y835308D01*
X1120000Y827500D02*
X1130000D01*
X1031192Y595051D02*
X1037500Y588744D01*
X1030000Y565000D02*
X1037500Y572500D01*
X985000Y565000D02*
X1030000D01*
X942500Y667500D02*
X962500Y647500D01*
X862641Y667500D02*
X942500D01*
X831692Y636551D02*
X862641Y667500D01*
X962500Y587500D02*
X985000Y565000D01*
X962500Y587500D02*
Y647500D01*
X1037500Y572500D02*
Y588744D01*
X821949Y608692D02*
Y609449D01*
X827500Y615000D01*
X845000D01*
X887500Y455641D02*
X901449Y441692D01*
X845000Y615000D02*
X887500Y572500D01*
Y455641D02*
Y572500D01*
X1220449Y1015449D02*
X1248308D01*
X1057808Y585308D02*
X1059051D01*
X1052500Y580000D02*
X1057808Y585308D01*
X922500Y438756D02*
X929308Y431949D01*
X922500Y545000D02*
X940000Y562500D01*
X952500D01*
X922500Y438756D02*
Y545000D01*
X660949Y792808D02*
X674256Y779500D01*
D14*
X1160500Y1059000D02*
D03*
X1242000Y917500D02*
D03*
X838000Y501000D02*
D03*
X1001500D02*
D03*
X679500Y1059000D02*
D03*
X598000Y917500D02*
D03*
D15*
X762500Y675000D02*
D03*
X827500Y692500D02*
D03*
Y677500D02*
D03*
X717500Y770000D02*
D03*
X757500Y782500D02*
D03*
X737500Y787500D02*
D03*
X607133Y1019210D02*
D03*
X672500Y1027500D02*
D03*
X690000Y997500D02*
D03*
X677500Y1007500D02*
D03*
X1197500Y912500D02*
D03*
X1102500Y1012500D02*
D03*
X1087500Y992500D02*
D03*
X1102500Y982500D02*
D03*
X857500Y1012500D02*
D03*
X947500Y515000D02*
D03*
X1075258Y736689D02*
D03*
X1195000Y937500D02*
D03*
X845000Y992500D02*
D03*
X1180000Y937500D02*
D03*
X1061531Y744408D02*
D03*
X857500Y982500D02*
D03*
X933000Y390000D02*
D03*
X939000Y422500D02*
D03*
X906500Y428500D02*
D03*
X900500Y396000D02*
D03*
X812500Y598500D02*
D03*
X818500Y631000D02*
D03*
X786000Y637000D02*
D03*
X780000Y604500D02*
D03*
X1053500Y598500D02*
D03*
X1059500Y631000D02*
D03*
X1027000Y637000D02*
D03*
X1021000Y604500D02*
D03*
X1173500Y807000D02*
D03*
X1179500Y839500D02*
D03*
X1147000Y845500D02*
D03*
X1141000Y813000D02*
D03*
X933000Y806500D02*
D03*
X939000Y839000D02*
D03*
X906500Y845000D02*
D03*
X900500Y812500D02*
D03*
X693000Y806000D02*
D03*
X699000Y838500D02*
D03*
X666500Y844500D02*
D03*
X660500Y812000D02*
D03*
X572500Y1014500D02*
D03*
X578500Y1047000D02*
D03*
X546000Y1053000D02*
D03*
X540000Y1020500D02*
D03*
X813000Y1015000D02*
D03*
X819000Y1047500D02*
D03*
X786500Y1053500D02*
D03*
X780500Y1021000D02*
D03*
X1020500D02*
D03*
X1026500Y1053500D02*
D03*
X1059000Y1047500D02*
D03*
X1053000Y1015000D02*
D03*
X1294000D02*
D03*
X1261500Y1021000D02*
D03*
X1267500Y1053500D02*
D03*
X1300000Y1047500D02*
D03*
X1244276Y1064276D02*
D03*
X1220449Y1015449D02*
D03*
X949776Y862224D02*
D03*
X1120000Y827500D02*
D03*
X1052500Y580000D02*
D03*
X950000Y455000D02*
D03*
X952500Y562500D02*
D03*
Y535000D02*
D03*
X1005000D02*
D03*
X895000Y692500D02*
D03*
D16*
X999500Y733000D02*
D03*
X967500Y714500D02*
D03*
X872500D02*
D03*
X840500Y733000D02*
D03*
X1088000Y922500D02*
D03*
X1120000Y941000D02*
D03*
X992500Y922500D02*
D03*
X960500Y941000D02*
D03*
X879500D02*
D03*
X847500Y922500D02*
D03*
X752000Y923000D02*
D03*
X720000Y941500D02*
D03*
X800000Y840000D02*
D03*
Y803000D02*
D03*
X1040500Y840000D02*
D03*
Y803500D02*
D03*
X920000Y632000D02*
D03*
Y595000D02*
D03*
M02*
