%FSLAX25Y25*%
%MOIN*%
G70*
G01*
G75*
G04 Layer_Color=128*
%ADD10P,0.08352X4X90.0*%
%ADD11P,0.08352X4X180.0*%
%ADD12C,0.05000*%
%ADD13C,0.02500*%
%ADD14C,0.16500*%
%ADD15C,0.04000*%
%ADD16C,0.12500*%
%ADD17R,0.05000X0.08000*%
%ADD18R,0.08000X0.05000*%
G04:AMPARAMS|DCode=19|XSize=122.05mil|YSize=177.16mil|CornerRadius=0mil|HoleSize=0mil|Usage=FLASHONLY|Rotation=210.000|XOffset=0mil|YOffset=0mil|HoleType=Round|Shape=Rectangle|*
%AMROTATEDRECTD19*
4,1,4,0.00856,0.10723,0.09714,-0.04620,-0.00856,-0.10723,-0.09714,0.04620,0.00856,0.10723,0.0*
%
%ADD19ROTATEDRECTD19*%

G04:AMPARAMS|DCode=20|XSize=122.05mil|YSize=177.16mil|CornerRadius=0mil|HoleSize=0mil|Usage=FLASHONLY|Rotation=150.000|XOffset=0mil|YOffset=0mil|HoleType=Round|Shape=Rectangle|*
%AMROTATEDRECTD20*
4,1,4,0.09714,0.04620,0.00856,-0.10723,-0.09714,-0.04620,-0.00856,0.10723,0.09714,0.04620,0.0*
%
%ADD20ROTATEDRECTD20*%

%ADD21R,0.17716X0.12205*%
%ADD22C,0.01000*%
%ADD23C,0.01200*%
%ADD24C,0.01500*%
%ADD25P,0.06937X4X90.0*%
%ADD26P,0.06937X4X180.0*%
%ADD27R,0.04000X0.07000*%
%ADD28R,0.07000X0.04000*%
G04:AMPARAMS|DCode=29|XSize=112.05mil|YSize=167.16mil|CornerRadius=0mil|HoleSize=0mil|Usage=FLASHONLY|Rotation=210.000|XOffset=0mil|YOffset=0mil|HoleType=Round|Shape=Rectangle|*
%AMROTATEDRECTD29*
4,1,4,0.00673,0.10040,0.09031,-0.04437,-0.00673,-0.10040,-0.09031,0.04437,0.00673,0.10040,0.0*
%
%ADD29ROTATEDRECTD29*%

G04:AMPARAMS|DCode=30|XSize=112.05mil|YSize=167.16mil|CornerRadius=0mil|HoleSize=0mil|Usage=FLASHONLY|Rotation=150.000|XOffset=0mil|YOffset=0mil|HoleType=Round|Shape=Rectangle|*
%AMROTATEDRECTD30*
4,1,4,0.09031,0.04437,0.00673,-0.10040,-0.09031,-0.04437,-0.00673,0.10040,0.09031,0.04437,0.0*
%
%ADD30ROTATEDRECTD30*%

%ADD31R,0.16716X0.11205*%
%ADD32P,0.09483X4X90.0*%
%ADD33P,0.09483X4X180.0*%
%ADD34C,0.17300*%
%ADD35C,0.04800*%
%ADD36C,0.13300*%
D32*
X897051Y834808D02*
D03*
X887308Y844551D02*
D03*
X910692Y848449D02*
D03*
X900949Y858192D02*
D03*
X942449Y816692D02*
D03*
X952192Y806949D02*
D03*
X928808Y803051D02*
D03*
X938551Y793308D02*
D03*
X1303449Y1025192D02*
D03*
X1313192Y1015449D02*
D03*
X1289808Y1011551D02*
D03*
X1299551Y1001808D02*
D03*
X1258051Y1043308D02*
D03*
X1248308Y1053051D02*
D03*
X1271692Y1056949D02*
D03*
X1261949Y1066692D02*
D03*
X1182949Y817192D02*
D03*
X1192692Y807449D02*
D03*
X1169308Y803551D02*
D03*
X1179051Y793808D02*
D03*
X1138051Y835308D02*
D03*
X1128308Y845051D02*
D03*
X1151692Y848949D02*
D03*
X1141949Y858692D02*
D03*
X1062449Y1025192D02*
D03*
X1072192Y1015449D02*
D03*
X1048808Y1011551D02*
D03*
X1058551Y1001808D02*
D03*
X1017051Y1043308D02*
D03*
X1007308Y1053051D02*
D03*
X1030692Y1056949D02*
D03*
X1020949Y1066692D02*
D03*
X698551Y792808D02*
D03*
X688808Y802551D02*
D03*
X712192Y806449D02*
D03*
X702449Y816192D02*
D03*
X660949Y857692D02*
D03*
X670692Y847949D02*
D03*
X647308Y844051D02*
D03*
X657051Y834308D02*
D03*
X938551Y376808D02*
D03*
X928808Y386551D02*
D03*
X952192Y390449D02*
D03*
X942449Y400192D02*
D03*
X911192Y431949D02*
D03*
X887808Y428051D02*
D03*
X897551Y418308D02*
D03*
X540449Y1065692D02*
D03*
X550192Y1055949D02*
D03*
X526808Y1052051D02*
D03*
X536551Y1042308D02*
D03*
X578051Y1001308D02*
D03*
X568308Y1011051D02*
D03*
X591692Y1014949D02*
D03*
X581949Y1024692D02*
D03*
X818051Y585308D02*
D03*
X808308Y595051D02*
D03*
X831692Y598949D02*
D03*
X780949Y650192D02*
D03*
X790692Y640449D02*
D03*
X767308Y636551D02*
D03*
X777051Y626808D02*
D03*
X780949Y1066692D02*
D03*
X790692Y1056949D02*
D03*
X767308Y1053051D02*
D03*
X777051Y1043308D02*
D03*
X818551Y1001808D02*
D03*
X808808Y1011551D02*
D03*
X832192Y1015449D02*
D03*
X822449Y1025192D02*
D03*
X1021449Y650192D02*
D03*
X1031192Y640449D02*
D03*
X1007808Y636551D02*
D03*
X1017551Y626808D02*
D03*
X1059051Y585308D02*
D03*
X1049308Y595051D02*
D03*
X1072692Y598949D02*
D03*
X1062949Y608692D02*
D03*
X821949D02*
D03*
X901449Y441692D02*
D03*
D33*
X910692Y803051D02*
D03*
X900949Y793308D02*
D03*
X897051Y816692D02*
D03*
X887308Y806949D02*
D03*
X928808Y848449D02*
D03*
X938551Y858192D02*
D03*
X942449Y834808D02*
D03*
X952192Y844551D02*
D03*
X1271692Y1011551D02*
D03*
X1261949Y1001808D02*
D03*
X1258051Y1025192D02*
D03*
X1248308Y1015449D02*
D03*
X1289808Y1056949D02*
D03*
X1299551Y1066692D02*
D03*
X1303449Y1043308D02*
D03*
X1313192Y1053051D02*
D03*
X1169808Y848949D02*
D03*
X1179551Y858692D02*
D03*
X1183449Y835308D02*
D03*
X1193192Y845051D02*
D03*
X1048808Y1056949D02*
D03*
X1058551Y1066692D02*
D03*
X1062449Y1043308D02*
D03*
X1072192Y1053051D02*
D03*
X1030692Y1011551D02*
D03*
X1020949Y1001808D02*
D03*
X1017051Y1025192D02*
D03*
X1007308Y1015449D02*
D03*
X647808Y806449D02*
D03*
X657551Y816192D02*
D03*
X661449Y792808D02*
D03*
X671192Y802551D02*
D03*
X712192Y844051D02*
D03*
X702449Y834308D02*
D03*
X698551Y857692D02*
D03*
X688808Y847949D02*
D03*
X952692Y428051D02*
D03*
X942949Y418308D02*
D03*
X939051Y441692D02*
D03*
X929308Y431949D02*
D03*
X887808Y390449D02*
D03*
X897551Y400192D02*
D03*
X901449Y376808D02*
D03*
X911192Y386551D02*
D03*
X526808Y1014949D02*
D03*
X536551Y1024692D02*
D03*
X540449Y1001308D02*
D03*
X550192Y1011051D02*
D03*
X591692Y1052051D02*
D03*
X581949Y1042308D02*
D03*
X578051Y1065692D02*
D03*
X568308Y1055949D02*
D03*
X767308Y598949D02*
D03*
X777051Y608692D02*
D03*
X780949Y585308D02*
D03*
X790692Y595051D02*
D03*
X831692Y636551D02*
D03*
X821949Y626808D02*
D03*
X818051Y650192D02*
D03*
X808308Y640449D02*
D03*
X767308Y1014949D02*
D03*
X777051Y1024692D02*
D03*
X780949Y1001308D02*
D03*
X790692Y1011051D02*
D03*
X832192Y1052551D02*
D03*
X822449Y1042808D02*
D03*
X818551Y1066192D02*
D03*
X808808Y1056449D02*
D03*
X1007808Y598949D02*
D03*
X1017551Y608692D02*
D03*
X1021449Y585308D02*
D03*
X1031192Y595051D02*
D03*
X1072692Y636551D02*
D03*
X1062949Y626808D02*
D03*
X1059051Y650192D02*
D03*
X1049308Y640449D02*
D03*
X1128308Y807449D02*
D03*
X1138051Y817192D02*
D03*
X1141949Y793808D02*
D03*
X1151692Y803551D02*
D03*
D34*
X1160500Y1059000D02*
D03*
X1242000Y917500D02*
D03*
X838000Y501000D02*
D03*
X1001500D02*
D03*
X679500Y1059000D02*
D03*
X598000Y917500D02*
D03*
D35*
X762500Y675000D02*
D03*
X827500Y692500D02*
D03*
Y677500D02*
D03*
X717500Y770000D02*
D03*
X757500Y782500D02*
D03*
X737500Y787500D02*
D03*
X607133Y1019210D02*
D03*
X672500Y1027500D02*
D03*
X690000Y997500D02*
D03*
X677500Y1007500D02*
D03*
X1197500Y912500D02*
D03*
X1102500Y1012500D02*
D03*
X1087500Y992500D02*
D03*
X1102500Y982500D02*
D03*
X857500Y1012500D02*
D03*
X947500Y515000D02*
D03*
X1075258Y736689D02*
D03*
X1195000Y937500D02*
D03*
X845000Y992500D02*
D03*
X1180000Y937500D02*
D03*
X1061531Y744408D02*
D03*
X857500Y982500D02*
D03*
X933000Y390000D02*
D03*
X939000Y422500D02*
D03*
X906500Y428500D02*
D03*
X900500Y396000D02*
D03*
X812500Y598500D02*
D03*
X818500Y631000D02*
D03*
X786000Y637000D02*
D03*
X780000Y604500D02*
D03*
X1053500Y598500D02*
D03*
X1059500Y631000D02*
D03*
X1027000Y637000D02*
D03*
X1021000Y604500D02*
D03*
X1173500Y807000D02*
D03*
X1179500Y839500D02*
D03*
X1147000Y845500D02*
D03*
X1141000Y813000D02*
D03*
X933000Y806500D02*
D03*
X939000Y839000D02*
D03*
X906500Y845000D02*
D03*
X900500Y812500D02*
D03*
X693000Y806000D02*
D03*
X699000Y838500D02*
D03*
X666500Y844500D02*
D03*
X660500Y812000D02*
D03*
X572500Y1014500D02*
D03*
X578500Y1047000D02*
D03*
X546000Y1053000D02*
D03*
X540000Y1020500D02*
D03*
X813000Y1015000D02*
D03*
X819000Y1047500D02*
D03*
X786500Y1053500D02*
D03*
X780500Y1021000D02*
D03*
X1020500D02*
D03*
X1026500Y1053500D02*
D03*
X1059000Y1047500D02*
D03*
X1053000Y1015000D02*
D03*
X1294000D02*
D03*
X1261500Y1021000D02*
D03*
X1267500Y1053500D02*
D03*
X1300000Y1047500D02*
D03*
X1244276Y1064276D02*
D03*
X1220449Y1015449D02*
D03*
X949776Y862224D02*
D03*
X1120000Y827500D02*
D03*
X1052500Y580000D02*
D03*
X950000Y455000D02*
D03*
X952500Y562500D02*
D03*
Y535000D02*
D03*
X1005000D02*
D03*
X895000Y692500D02*
D03*
D36*
X999500Y733000D02*
D03*
X967500Y714500D02*
D03*
X872500D02*
D03*
X840500Y733000D02*
D03*
X1088000Y922500D02*
D03*
X1120000Y941000D02*
D03*
X992500Y922500D02*
D03*
X960500Y941000D02*
D03*
X879500D02*
D03*
X847500Y922500D02*
D03*
X752000Y923000D02*
D03*
X720000Y941500D02*
D03*
X800000Y840000D02*
D03*
Y803000D02*
D03*
X1040500Y840000D02*
D03*
Y803500D02*
D03*
X920000Y632000D02*
D03*
Y595000D02*
D03*
M02*
