%FSLAX25Y25*%
%MOIN*%
G70*
G01*
G75*
G04 Layer_Color=128*
%ADD10P,0.08352X4X75.0*%
%ADD11P,0.08352X4X195.0*%
%ADD12R,0.05906X0.05906*%
%ADD13R,0.05000X0.04000*%
%ADD14C,0.02500*%
%ADD15C,0.05000*%
%ADD16C,0.16500*%
%ADD17C,0.04000*%
%ADD18R,0.08000X0.05000*%
%ADD19R,0.12205X0.17716*%
%ADD20C,0.01000*%
%ADD21C,0.01200*%
%ADD22P,0.06937X4X75.0*%
%ADD23P,0.06937X4X195.0*%
%ADD24R,0.04906X0.04906*%
%ADD25R,0.04000X0.03000*%
%ADD26R,0.07000X0.04000*%
%ADD27R,0.11205X0.16716*%
%ADD28P,0.09483X4X75.0*%
%ADD29P,0.09483X4X195.0*%
%ADD30R,0.06706X0.06706*%
%ADD31R,0.05800X0.04800*%
%ADD32C,0.17300*%
%ADD33C,0.04800*%
D28*
X1161092Y984498D02*
D03*
X1036202Y984144D02*
D03*
X1059798Y981856D02*
D03*
X1052909Y993789D02*
D03*
X1043091Y972211D02*
D03*
X927798Y993644D02*
D03*
X911092Y983998D02*
D03*
X917981Y972065D02*
D03*
X1184688Y982210D02*
D03*
X1177798Y994144D02*
D03*
X1167981Y972565D02*
D03*
X934688Y981710D02*
D03*
D29*
X1177798Y1004065D02*
D03*
X1059798Y1015644D02*
D03*
X1052909Y1003710D02*
D03*
X1043091Y1025290D02*
D03*
X1036202Y1013356D02*
D03*
X917981Y1025144D02*
D03*
X911092Y1013210D02*
D03*
X927798Y1003565D02*
D03*
X934688Y1015498D02*
D03*
X1167981Y1025644D02*
D03*
X1161092Y1013710D02*
D03*
X1184688Y1015998D02*
D03*
D30*
X1152280Y1009000D02*
D03*
X1013610Y1008146D02*
D03*
X1027390D02*
D03*
X1013610Y988854D02*
D03*
X1027390D02*
D03*
X888500Y989209D02*
D03*
X902280D02*
D03*
Y1008500D02*
D03*
X888500D02*
D03*
X1138500Y989709D02*
D03*
X1152280D02*
D03*
X1138500Y1009000D02*
D03*
D31*
X1124000Y980000D02*
D03*
Y974000D02*
D03*
D32*
X1101500Y1023500D02*
D03*
X977000Y974500D02*
D03*
D33*
X1092500Y962500D02*
D03*
X964835Y992335D02*
D03*
X943254Y985754D02*
D03*
X925000Y1030000D02*
D03*
X882500Y995000D02*
D03*
X1065000Y987500D02*
D03*
X1045000Y1020000D02*
D03*
X1017500Y995000D02*
D03*
X1140000Y985000D02*
D03*
X1185000Y972500D02*
D03*
X1160000Y1032500D02*
D03*
X1162390Y992500D02*
D03*
X912390D02*
D03*
X895000Y980000D02*
D03*
X982500Y1032500D02*
D03*
X952500Y1020000D02*
D03*
X1012500Y1025000D02*
D03*
X1127500Y972500D02*
D03*
X1107500Y1000000D02*
D03*
X1055000Y967500D02*
D03*
X1160000Y970000D02*
D03*
M02*
