M48
;Layer_Color=8847372
;FILE_FORMAT=2:5
INCH,TZ
;TYPE=PLATED
T1F00S00C0.02100
T2F00S00C0.12500
%
T01
X895000Y980000
X882500Y995000
X912390Y992500
X925000Y1030000
X952500Y1020000
X964835Y992335
X943254Y985754
X1017500Y995000
X1012500Y1025000
X1045000Y1020000
X1065000Y987500
X1055000Y967500
X1092500Y962500
X982500Y1032500
X1107500Y1000000
X1140000Y985000
X1127500Y972500
X1160000Y970000
X1162390Y992500
X1160000Y1032500
X1185000Y972500
T02
X977000Y974500
X1101500Y1023500
M30
