%FSLAX25Y25*%
%MOIN*%
G70*
G01*
G75*
G04 Layer_Color=65535*
%ADD10P,0.08352X4X75.0*%
%ADD11P,0.08352X4X195.0*%
%ADD12R,0.05906X0.05906*%
%ADD13R,0.05000X0.04000*%
%ADD14C,0.02500*%
%ADD15C,0.05000*%
%ADD16C,0.16500*%
%ADD17C,0.04000*%
%ADD18R,0.08000X0.05000*%
%ADD19R,0.12205X0.17716*%
%ADD20C,0.01000*%
%ADD21C,0.01200*%
D20*
X1190597Y983917D02*
G03*
X1190597Y983917I-984J0D01*
G01*
X1165025Y1029055D02*
G03*
X1165025Y1029055I-984J0D01*
G01*
X1138500Y984591D02*
G03*
X1138500Y984591I-984J0D01*
G01*
X940597Y983417D02*
G03*
X940597Y983417I-984J0D01*
G01*
X915025Y1028555D02*
G03*
X915025Y1028555I-984J0D01*
G01*
X888500Y984091D02*
G03*
X888500Y984091I-984J0D01*
G01*
X913750Y1042500D02*
G03*
X913750Y955000I0J-43750D01*
G01*
X1163750D02*
G03*
X1163750Y1042500I0J43750D01*
G01*
X1113500Y1023500D02*
G03*
X1113500Y1023500I-12000J0D01*
G01*
X989000Y974500D02*
G03*
X989000Y974500I-12000J0D01*
G01*
X1013610Y983736D02*
G03*
X1013610Y983736I-984J0D01*
G01*
X1040135Y1028701D02*
G03*
X1040135Y1028701I-984J0D01*
G01*
X1065707Y983563D02*
G03*
X1065707Y983563I-984J0D01*
G01*
X1180429Y989980D02*
X1182398Y986571D01*
X1163382Y980138D02*
X1165350Y976728D01*
X1172697Y971878D02*
X1182925Y977783D01*
X1162854Y988925D02*
X1173083Y994831D01*
X1179516Y975815D02*
X1182398Y986571D01*
X1163382Y1018071D02*
X1165350Y1021480D01*
X1180429Y1008228D02*
X1182398Y1011638D01*
X1172697Y1026331D02*
X1182925Y1020425D01*
X1162854Y1009283D02*
X1173083Y1003378D01*
X1165350Y1021480D02*
X1176106Y1024362D01*
X1143421Y989512D02*
X1147358D01*
X1143421Y1009197D02*
X1147358D01*
X1135547Y993449D02*
Y1005260D01*
X1155232Y993449D02*
Y1005260D01*
X1135547Y997386D02*
X1143421Y989512D01*
X930429Y989480D02*
X932398Y986071D01*
X913382Y979638D02*
X915350Y976228D01*
X922697Y971378D02*
X932925Y977283D01*
X912854Y988425D02*
X923083Y994331D01*
X929516Y975315D02*
X932398Y986071D01*
X913382Y1017571D02*
X915350Y1020980D01*
X930429Y1007728D02*
X932398Y1011138D01*
X922697Y1025831D02*
X932925Y1019925D01*
X912854Y1008783D02*
X923083Y1002878D01*
X915350Y1020980D02*
X926106Y1023862D01*
X893421Y989012D02*
X897358D01*
X893421Y1008697D02*
X897358D01*
X885547Y992949D02*
Y1004760D01*
X905232Y992949D02*
Y1004760D01*
X885547Y996886D02*
X893421Y989012D01*
X913750Y955000D02*
X1163750D01*
X913750Y1042500D02*
X1163750D01*
X1010658Y996531D02*
X1018532Y988657D01*
X1030342Y992595D02*
Y1004405D01*
X1010658Y992595D02*
Y1004405D01*
X1018532Y1008342D02*
X1022468D01*
X1018532Y988657D02*
X1022468D01*
X1040460Y1021126D02*
X1051217Y1024008D01*
X1037964Y1008929D02*
X1048193Y1003023D01*
X1047807Y1025977D02*
X1058036Y1020071D01*
X1055540Y1007874D02*
X1057508Y1011283D01*
X1038492Y1017717D02*
X1040460Y1021126D01*
X1054626Y975460D02*
X1057508Y986217D01*
X1037964Y988571D02*
X1048193Y994477D01*
X1047807Y971523D02*
X1058036Y977429D01*
X1038492Y979784D02*
X1040460Y976374D01*
X1055540Y989626D02*
X1057508Y986217D01*
X1121000Y971500D02*
X1127000D01*
X1121000D02*
Y982500D01*
X1127000D01*
Y971500D02*
Y982500D01*
X1187390Y997853D02*
Y992854D01*
X1189889D01*
X1190722Y993687D01*
Y997020D01*
X1189889Y997853D01*
X1187390D01*
X1192388Y993687D02*
X1193221Y992854D01*
X1194887D01*
X1195720Y993687D01*
Y997020D01*
X1194887Y997853D01*
X1193221D01*
X1192388Y997020D01*
Y996187D01*
X1193221Y995354D01*
X1195720D01*
X1149890Y1027853D02*
Y1022854D01*
X1152389D01*
X1153222Y1023687D01*
Y1027020D01*
X1152389Y1027853D01*
X1149890D01*
X1154888Y1027020D02*
X1155721Y1027853D01*
X1157387D01*
X1158220Y1027020D01*
Y1026186D01*
X1157387Y1025354D01*
X1158220Y1024520D01*
Y1023687D01*
X1157387Y1022854D01*
X1155721D01*
X1154888Y1023687D01*
Y1024520D01*
X1155721Y1025354D01*
X1154888Y1026186D01*
Y1027020D01*
X1155721Y1025354D02*
X1157387D01*
X1142390Y980353D02*
Y975354D01*
X1144889D01*
X1145722Y976187D01*
Y979520D01*
X1144889Y980353D01*
X1142390D01*
X1147388D02*
X1150721D01*
Y979520D01*
X1147388Y976187D01*
Y975354D01*
X939890Y994853D02*
Y989854D01*
X942389D01*
X943222Y990687D01*
Y994020D01*
X942389Y994853D01*
X939890D01*
X944888Y994020D02*
X945721Y994853D01*
X947387D01*
X948221Y994020D01*
Y993186D01*
X947387Y992354D01*
X946554D01*
X947387D01*
X948221Y991520D01*
Y990687D01*
X947387Y989854D01*
X945721D01*
X944888Y990687D01*
X899890Y1029853D02*
Y1024854D01*
X902389D01*
X903222Y1025687D01*
Y1029020D01*
X902389Y1029853D01*
X899890D01*
X908220Y1024854D02*
X904888D01*
X908220Y1028187D01*
Y1029020D01*
X907387Y1029853D01*
X905721D01*
X904888Y1029020D01*
X892390Y979853D02*
Y974854D01*
X894889D01*
X895722Y975687D01*
Y979020D01*
X894889Y979853D01*
X892390D01*
X897388Y974854D02*
X899054D01*
X898221D01*
Y979853D01*
X897388Y979020D01*
X1062500Y997498D02*
Y992500D01*
X1064999D01*
X1065832Y993333D01*
Y996665D01*
X1064999Y997498D01*
X1062500D01*
X1070831D02*
X1069164Y996665D01*
X1067498Y994999D01*
Y993333D01*
X1068331Y992500D01*
X1069998D01*
X1070831Y993333D01*
Y994166D01*
X1069998Y994999D01*
X1067498D01*
X1025000Y1027498D02*
Y1022500D01*
X1027499D01*
X1028332Y1023333D01*
Y1026665D01*
X1027499Y1027498D01*
X1025000D01*
X1033331D02*
X1029998D01*
Y1024999D01*
X1031664Y1025832D01*
X1032498D01*
X1033331Y1024999D01*
Y1023333D01*
X1032498Y1022500D01*
X1030831D01*
X1029998Y1023333D01*
X1017500Y979998D02*
Y975000D01*
X1019999D01*
X1020832Y975833D01*
Y979165D01*
X1019999Y979998D01*
X1017500D01*
X1024998Y975000D02*
Y979998D01*
X1022498Y977499D01*
X1025831D01*
X1133332Y967498D02*
X1131666D01*
X1132499D01*
Y963333D01*
X1131666Y962500D01*
X1130833D01*
X1130000Y963333D01*
X1134998Y966665D02*
X1135831Y967498D01*
X1137498D01*
X1138331Y966665D01*
Y965832D01*
X1137498Y964999D01*
X1136664D01*
X1137498D01*
X1138331Y964166D01*
Y963333D01*
X1137498Y962500D01*
X1135831D01*
X1134998Y963333D01*
X1090832Y993332D02*
X1088333D01*
X1087500Y992499D01*
Y990833D01*
X1088333Y990000D01*
X1090832D01*
X1100829D02*
X1097497D01*
X1100829Y993332D01*
Y994165D01*
X1099996Y994998D01*
X1098330D01*
X1097497Y994165D01*
X1102495D02*
X1103328Y994998D01*
X1104994D01*
X1105827Y994165D01*
Y990833D01*
X1104994Y990000D01*
X1103328D01*
X1102495Y990833D01*
Y994165D01*
X1110826Y990000D02*
X1107493D01*
X1110826Y993332D01*
Y994165D01*
X1109993Y994998D01*
X1108327D01*
X1107493Y994165D01*
X1112492D02*
X1113325Y994998D01*
X1114991D01*
X1115824Y994165D01*
Y993332D01*
X1114991Y992499D01*
X1114158D01*
X1114991D01*
X1115824Y991666D01*
Y990833D01*
X1114991Y990000D01*
X1113325D01*
X1112492Y990833D01*
X1080000Y1004998D02*
Y1000000D01*
X1082499D01*
X1083332Y1000833D01*
Y1001666D01*
X1082499Y1002499D01*
X1080000D01*
X1082499D01*
X1083332Y1003332D01*
Y1004165D01*
X1082499Y1004998D01*
X1080000D01*
X1084998Y1000000D02*
Y1004998D01*
X1087498D01*
X1088331Y1004165D01*
Y1002499D01*
X1087498Y1001666D01*
X1084998D01*
X1086664D02*
X1088331Y1000000D01*
X1089997Y1004998D02*
X1091663D01*
X1090830D01*
Y1000000D01*
X1089997D01*
X1091663D01*
X1094162D02*
Y1003332D01*
X1095828Y1004998D01*
X1097494Y1003332D01*
Y1000000D01*
Y1002499D01*
X1094162D01*
X1099160Y1000000D02*
Y1004998D01*
X1102493Y1000000D01*
Y1004998D01*
X1112490Y1004165D02*
X1111656Y1004998D01*
X1109990D01*
X1109157Y1004165D01*
Y1000833D01*
X1109990Y1000000D01*
X1111656D01*
X1112490Y1000833D01*
X1116655Y1004998D02*
X1114989D01*
X1114156Y1004165D01*
Y1000833D01*
X1114989Y1000000D01*
X1116655D01*
X1117488Y1000833D01*
Y1004165D01*
X1116655Y1004998D01*
X1119154D02*
X1122486Y1000000D01*
Y1004998D02*
X1119154Y1000000D01*
X965000Y1013332D02*
Y1010000D01*
Y1011666D01*
X965833Y1012499D01*
X966666Y1013332D01*
X967499D01*
X972498Y1010000D02*
X970831D01*
X969998Y1010833D01*
Y1012499D01*
X970831Y1013332D01*
X972498D01*
X973331Y1012499D01*
Y1011666D01*
X969998D01*
X974997Y1013332D02*
X976663Y1010000D01*
X978329Y1013332D01*
X979995Y1010000D02*
X981661D01*
X980828D01*
Y1014998D01*
X979995Y1014165D01*
X984161Y1010000D02*
Y1010833D01*
X984993D01*
Y1010000D01*
X984161D01*
X988326Y1014165D02*
X989159Y1014998D01*
X990825D01*
X991658Y1014165D01*
Y1010833D01*
X990825Y1010000D01*
X989159D01*
X988326Y1010833D01*
Y1014165D01*
X993324Y1010000D02*
X994990D01*
X994157D01*
Y1014998D01*
X993324Y1014165D01*
X1042500Y962500D02*
X1044999D01*
X1045832Y963333D01*
X1044999Y964166D01*
X1043333D01*
X1042500Y964999D01*
X1043333Y965832D01*
X1045832D01*
X1047498Y960834D02*
Y965832D01*
X1049998D01*
X1050831Y964999D01*
Y963333D01*
X1049998Y962500D01*
X1047498D01*
X1053330Y965832D02*
X1054996D01*
X1055829Y964999D01*
Y962500D01*
X1053330D01*
X1052497Y963333D01*
X1053330Y964166D01*
X1055829D01*
X1060827Y965832D02*
X1058328D01*
X1057495Y964999D01*
Y963333D01*
X1058328Y962500D01*
X1060827D01*
X1064993D02*
X1063327D01*
X1062494Y963333D01*
Y964999D01*
X1063327Y965832D01*
X1064993D01*
X1065826Y964999D01*
Y964166D01*
X1062494D01*
X1067492Y964999D02*
X1070824D01*
X1074990Y962500D02*
X1073323D01*
X1072490Y963333D01*
Y964999D01*
X1073323Y965832D01*
X1074990D01*
X1075823Y964999D01*
Y964166D01*
X1072490D01*
X1077489Y962500D02*
X1079155D01*
X1078322D01*
Y965832D01*
X1077489D01*
X1083320Y960834D02*
X1084153D01*
X1084986Y961667D01*
Y965832D01*
X1082487D01*
X1081654Y964999D01*
Y963333D01*
X1082487Y962500D01*
X1084986D01*
X1086652Y967498D02*
Y962500D01*
Y964999D01*
X1087485Y965832D01*
X1089151D01*
X1089985Y964999D01*
Y962500D01*
X1092484Y966665D02*
Y965832D01*
X1091651D01*
X1093317D01*
X1092484D01*
Y963333D01*
X1093317Y962500D01*
X1095816D02*
Y963333D01*
X1096649D01*
Y962500D01*
X1095816D01*
X1103314Y965832D02*
X1100814D01*
X1099981Y964999D01*
Y963333D01*
X1100814Y962500D01*
X1103314D01*
X1105813D02*
X1107479D01*
X1108312Y963333D01*
Y964999D01*
X1107479Y965832D01*
X1105813D01*
X1104980Y964999D01*
Y963333D01*
X1105813Y962500D01*
X1109978D02*
Y965832D01*
X1110811D01*
X1111644Y964999D01*
Y962500D01*
Y964999D01*
X1112477Y965832D01*
X1113310Y964999D01*
Y962500D01*
D21*
X966499Y1025998D02*
X962500D01*
Y1022999D01*
X964499Y1023999D01*
X965499D01*
X966499Y1022999D01*
Y1021000D01*
X965499Y1020000D01*
X963500D01*
X962500Y1021000D01*
X968498Y1024998D02*
X969498Y1025998D01*
X971497D01*
X972497Y1024998D01*
Y1021000D01*
X971497Y1020000D01*
X969498D01*
X968498Y1021000D01*
Y1024998D01*
X978495Y1025998D02*
X974496D01*
Y1022999D01*
X976495Y1023999D01*
X977495D01*
X978495Y1022999D01*
Y1021000D01*
X977495Y1020000D01*
X975496D01*
X974496Y1021000D01*
X980494Y1020000D02*
X982493D01*
X981494D01*
Y1025998D01*
X980494Y1024998D01*
X985493Y1021000D02*
X986492Y1020000D01*
X988492D01*
X989491Y1021000D01*
Y1024998D01*
X988492Y1025998D01*
X986492D01*
X985493Y1024998D01*
Y1023999D01*
X986492Y1022999D01*
X989491D01*
X991491Y1024998D02*
X992490Y1025998D01*
X994490D01*
X995489Y1024998D01*
Y1023999D01*
X994490Y1022999D01*
X995489Y1021999D01*
Y1021000D01*
X994490Y1020000D01*
X992490D01*
X991491Y1021000D01*
Y1021999D01*
X992490Y1022999D01*
X991491Y1023999D01*
Y1024998D01*
X992490Y1022999D02*
X994490D01*
X932500Y1037498D02*
Y1032500D01*
X934999D01*
X935832Y1033333D01*
Y1034166D01*
X934999Y1034999D01*
X932500D01*
X934999D01*
X935832Y1035832D01*
Y1036665D01*
X934999Y1037498D01*
X932500D01*
X937498Y1032500D02*
Y1035832D01*
X939165Y1037498D01*
X940831Y1035832D01*
Y1032500D01*
Y1034999D01*
X937498D01*
X942497Y1037498D02*
Y1032500D01*
X945829D01*
X947495Y1037498D02*
Y1032500D01*
X950827D01*
X952493Y1037498D02*
Y1036665D01*
X954160Y1034999D01*
X955826Y1036665D01*
Y1037498D01*
X954160Y1034999D02*
Y1032500D01*
X962490D02*
Y1037498D01*
X964156Y1035832D01*
X965823Y1037498D01*
Y1032500D01*
X970821Y1037498D02*
X967489D01*
Y1032500D01*
X970821D01*
X967489Y1034999D02*
X969155D01*
X972487Y1037498D02*
Y1032500D01*
X974986D01*
X975819Y1033333D01*
Y1036665D01*
X974986Y1037498D01*
X972487D01*
X977485D02*
Y1033333D01*
X978319Y1032500D01*
X979985D01*
X980818Y1033333D01*
Y1037498D01*
X985816Y1036665D02*
X984983Y1037498D01*
X983317D01*
X982484Y1036665D01*
Y1035832D01*
X983317Y1034999D01*
X984983D01*
X985816Y1034166D01*
Y1033333D01*
X984983Y1032500D01*
X983317D01*
X982484Y1033333D01*
X987482Y1032500D02*
Y1035832D01*
X989148Y1037498D01*
X990814Y1035832D01*
Y1032500D01*
Y1034999D01*
X987482D01*
X1000811Y1036665D02*
X999978Y1037498D01*
X998312D01*
X997479Y1036665D01*
Y1035832D01*
X998312Y1034999D01*
X999978D01*
X1000811Y1034166D01*
Y1033333D01*
X999978Y1032500D01*
X998312D01*
X997479Y1033333D01*
X1002477Y1037498D02*
X1005810D01*
X1004143D01*
Y1032500D01*
X1007476D02*
Y1037498D01*
X1009975D01*
X1010808Y1036665D01*
Y1034999D01*
X1009975Y1034166D01*
X1007476D01*
X1009142D02*
X1010808Y1032500D01*
X1012474Y1037498D02*
X1014140D01*
X1013307D01*
Y1032500D01*
X1012474D01*
X1014140D01*
X1016639D02*
Y1037498D01*
X1019139D01*
X1019972Y1036665D01*
Y1034999D01*
X1019139Y1034166D01*
X1016639D01*
M02*
