%FSLAX25Y25*%
%MOIN*%
G70*
G01*
G75*
G04 Layer_Physical_Order=2*
G04 Layer_Color=65280*
%ADD10P,0.08352X4X105.0*%
%ADD11R,0.05906X0.05906*%
%ADD12P,0.08352X4X345.0*%
%ADD13R,0.08000X0.05000*%
%ADD14C,0.02500*%
%ADD15C,0.16500*%
%ADD16C,0.04000*%
%ADD17R,0.17716X0.12205*%
G36*
X473721Y596177D02*
X473180Y595368D01*
X472223Y593428D01*
X471528Y591380D01*
X471106Y589258D01*
X470965Y587100D01*
X471106Y584942D01*
X471528Y582820D01*
X472223Y580772D01*
X473180Y578832D01*
X474382Y577034D01*
X475808Y575408D01*
X477434Y573982D01*
X479232Y572780D01*
X481172Y571823D01*
X482032Y571531D01*
X482651Y570165D01*
X482142Y568936D01*
X481952Y567500D01*
X482142Y566064D01*
X482696Y564726D01*
X483577Y563577D01*
X483622Y562897D01*
X475944Y555220D01*
X474558Y555794D01*
Y570747D01*
X425235D01*
Y567430D01*
X424072Y566537D01*
X423890Y566448D01*
X422774Y567304D01*
X421436Y567858D01*
X420000Y568048D01*
X418564Y567858D01*
X417226Y567304D01*
X416077Y566423D01*
X415196Y565274D01*
X414642Y563936D01*
X414453Y562500D01*
X414642Y561064D01*
X415196Y559726D01*
X416077Y558577D01*
X417226Y557696D01*
X418564Y557142D01*
X418812Y557109D01*
X418960Y556995D01*
D01*
D01*
Y556995D01*
X418960Y556995D01*
D01*
D01*
X418960D01*
Y556995D01*
D01*
X418960D01*
Y556995D01*
X420116Y556516D01*
X421356Y556353D01*
X425235D01*
Y554998D01*
Y553670D01*
X423988Y552837D01*
X423936Y552858D01*
X422500Y553048D01*
X421064Y552858D01*
X419726Y552304D01*
X418577Y551423D01*
X417696Y550274D01*
X417142Y548936D01*
X416953Y547500D01*
X417142Y546064D01*
X417696Y544726D01*
X418577Y543577D01*
X419726Y542696D01*
X421064Y542142D01*
X421086Y542139D01*
X421216Y542008D01*
D01*
X421216Y542008D01*
X421216Y542008D01*
D01*
D01*
D01*
X421216Y542008D01*
Y542008D01*
X422208Y541247D01*
X423364Y540768D01*
Y540768D01*
X423364Y540768D01*
D01*
D01*
D01*
X423364D01*
Y540768D01*
X423364Y540768D01*
X423364Y540768D01*
X424604Y540605D01*
X425235D01*
Y535794D01*
X474558D01*
Y540943D01*
X474953Y541107D01*
X475292Y541247D01*
X476284Y542008D01*
X493388Y559112D01*
X494149Y560105D01*
X494628Y561260D01*
X494791Y562500D01*
D01*
D01*
D01*
D01*
D01*
X494791D01*
D01*
D01*
D01*
D01*
Y562500D01*
X494791D01*
D01*
Y562500D01*
D01*
D01*
D01*
D01*
D01*
D01*
D01*
D01*
D01*
D01*
D01*
D01*
Y562500D01*
D01*
X494791D01*
D01*
D01*
D01*
D01*
X494791Y562500D01*
Y565000D01*
D01*
D01*
D01*
D01*
X494791D01*
D01*
D01*
D01*
D01*
D01*
X494791D01*
Y565000D01*
D01*
D01*
Y565000D01*
D01*
D01*
D01*
D01*
D01*
D01*
D01*
D01*
D01*
D01*
D01*
D01*
Y565000D01*
D01*
X494791D01*
D01*
D01*
D01*
D01*
D01*
D01*
D01*
X494791Y565000D01*
D01*
D01*
D01*
X494628Y566240D01*
X494149Y567395D01*
X493388Y568388D01*
X492861Y568914D01*
X492858Y568936D01*
X492304Y570274D01*
X491737Y571013D01*
X491780Y571128D01*
X493828Y571823D01*
X495768Y572780D01*
X496177Y573054D01*
X497500Y572346D01*
Y502500D01*
X402500D01*
Y572680D01*
X403823Y573387D01*
X404132Y573180D01*
X406072Y572223D01*
X408120Y571528D01*
X410242Y571106D01*
X412400Y570965D01*
X414558Y571106D01*
X416680Y571528D01*
X418728Y572223D01*
X420668Y573180D01*
X422466Y574382D01*
X424092Y575808D01*
X425518Y577434D01*
X426720Y579232D01*
X427677Y581172D01*
X428372Y583220D01*
X428794Y585342D01*
X428935Y587500D01*
X428794Y589658D01*
X428372Y591780D01*
X427677Y593828D01*
X426720Y595768D01*
X426446Y596177D01*
X427154Y597500D01*
X473014D01*
X473721Y596177D01*
D02*
G37*
%LPC*%
G36*
X474558Y523502D02*
X425235D01*
Y504298D01*
X474558D01*
Y509109D01*
X483169D01*
X483577Y508577D01*
X484726Y507696D01*
X486064Y507142D01*
X487500Y506952D01*
X488936Y507142D01*
X490274Y507696D01*
X491423Y508577D01*
X492304Y509726D01*
X492858Y511064D01*
X493048Y512500D01*
X492858Y513936D01*
X492304Y515274D01*
X491423Y516423D01*
X490274Y517304D01*
X488936Y517858D01*
X488704Y517889D01*
X488495Y518049D01*
X488157Y518189D01*
X487340Y518528D01*
X486100Y518691D01*
X474558D01*
Y523502D01*
D02*
G37*
%LPD*%
D14*
X424648Y529648D02*
X482148D01*
X492500Y540000D01*
X420000Y567500D02*
X442500Y590000D01*
X412500Y517500D02*
Y550000D01*
X405000Y557500D02*
X412500Y550000D01*
X405000Y557500D02*
Y562500D01*
X410000Y567500D01*
X420000D01*
X421356Y561144D02*
X462200D01*
X420000Y562500D02*
X421356Y561144D01*
X442500Y590000D02*
X445000D01*
X412500Y517500D02*
X424648Y529648D01*
X437594Y513900D02*
X486100D01*
X487500Y512500D01*
X424604Y545396D02*
X472896D01*
X487500Y567500D02*
X490000Y565000D01*
Y562500D02*
Y565000D01*
X472896Y545396D02*
X490000Y562500D01*
X422500Y547500D02*
X424604Y545396D01*
D15*
X487500Y587100D02*
D03*
X412400Y587500D02*
D03*
D16*
X487500Y512500D02*
D03*
X422500Y547500D02*
D03*
X420000Y562500D02*
D03*
X487500Y567500D02*
D03*
X492500Y540000D02*
D03*
X412500Y517500D02*
D03*
X445000Y590000D02*
D03*
D17*
X462200Y561144D02*
D03*
X437594D02*
D03*
X462200Y545396D02*
D03*
Y529648D02*
D03*
Y513900D02*
D03*
X437594Y545396D02*
D03*
Y529648D02*
D03*
Y513900D02*
D03*
M02*
