%FSLAX25Y25*%
%MOIN*%
G70*
G01*
G75*
G04 Layer_Color=128*
%ADD10P,0.08352X4X105.0*%
%ADD11R,0.05906X0.05906*%
%ADD12P,0.08352X4X345.0*%
%ADD13R,0.08000X0.05000*%
%ADD14C,0.02500*%
%ADD15C,0.16500*%
%ADD16C,0.04000*%
%ADD17R,0.17716X0.12205*%
%ADD18C,0.01000*%
%ADD19P,0.06937X4X105.0*%
%ADD20R,0.04906X0.04906*%
%ADD21P,0.06937X4X345.0*%
%ADD22R,0.07000X0.04000*%
%ADD23R,0.16716X0.11205*%
%ADD24P,0.09483X4X105.0*%
%ADD25R,0.06706X0.06706*%
%ADD26P,0.09483X4X345.0*%
%ADD27R,0.08800X0.05800*%
%ADD28C,0.17300*%
%ADD29C,0.04800*%
D24*
X477144Y513802D02*
D03*
X465210Y520691D02*
D03*
X486790Y530509D02*
D03*
X474856Y537398D02*
D03*
D25*
X459846Y582190D02*
D03*
X459846Y568410D02*
D03*
X440554Y582190D02*
D03*
X440554Y568410D02*
D03*
D26*
X413611Y530908D02*
D03*
X425544Y537798D02*
D03*
X423256Y514202D02*
D03*
X435189Y521092D02*
D03*
D27*
X492500Y557400D02*
D03*
X449900Y518800D02*
D03*
Y507800D02*
D03*
X492500Y546400D02*
D03*
D28*
X487500Y587100D02*
D03*
X412400Y587500D02*
D03*
D29*
X487500Y512500D02*
D03*
X422500Y547500D02*
D03*
X420000Y562500D02*
D03*
X487500Y567500D02*
D03*
X492500Y540000D02*
D03*
X412500Y517500D02*
D03*
X445000Y590000D02*
D03*
M02*
