%FSLAX25Y25*%
%MOIN*%
G70*
G01*
G75*
G04 Layer_Color=6049101*
%ADD10R,0.05906X0.05906*%
%ADD11R,0.05906X0.05906*%
%ADD12C,0.02500*%
%ADD13C,0.16500*%
%ADD14C,0.04000*%
%ADD15R,0.17716X0.12205*%
%ADD16R,0.08000X0.05000*%
%ADD17C,0.05000*%
%ADD18C,0.01000*%
%ADD19C,0.01200*%
%ADD20C,0.01500*%
%ADD21R,0.04906X0.04906*%
%ADD22R,0.04906X0.04906*%
%ADD23R,0.16716X0.11205*%
%ADD24R,0.07000X0.04000*%
D23*
X1337000Y905248D02*
D03*
X1312394D02*
D03*
X1337000Y889500D02*
D03*
Y873752D02*
D03*
Y858004D02*
D03*
X1312394Y889500D02*
D03*
Y873752D02*
D03*
Y858004D02*
D03*
X1212500Y905748D02*
D03*
X1187894D02*
D03*
X1212500Y890000D02*
D03*
Y874252D02*
D03*
Y858504D02*
D03*
X1187894Y890000D02*
D03*
Y874252D02*
D03*
Y858504D02*
D03*
X1087500Y905748D02*
D03*
X1062894D02*
D03*
X1087500Y890000D02*
D03*
Y874252D02*
D03*
Y858504D02*
D03*
X1062894Y890000D02*
D03*
Y874252D02*
D03*
Y858504D02*
D03*
X961500Y904748D02*
D03*
X936894D02*
D03*
X961500Y889000D02*
D03*
Y873252D02*
D03*
Y857504D02*
D03*
X936894Y889000D02*
D03*
Y873252D02*
D03*
Y857504D02*
D03*
D24*
X1262500Y876500D02*
D03*
Y887500D02*
D03*
X1012500Y877000D02*
D03*
Y888000D02*
D03*
X1137500Y877000D02*
D03*
Y888000D02*
D03*
M02*
