%FSLAX25Y25*%
%MOIN*%
G70*
G01*
G75*
G04 Layer_Color=8421504*
%ADD10R,0.05906X0.05906*%
%ADD11R,0.05906X0.05906*%
%ADD12C,0.02500*%
%ADD13C,0.16500*%
%ADD14C,0.04000*%
%ADD15R,0.17716X0.12205*%
%ADD16R,0.08000X0.05000*%
%ADD17C,0.05000*%
%ADD18C,0.01000*%
%ADD19C,0.01200*%
%ADD20C,0.01500*%
%ADD21R,0.04906X0.04906*%
%ADD22R,0.04906X0.04906*%
D21*
X1252854Y942610D02*
D03*
Y956390D02*
D03*
X1272146Y942610D02*
D03*
Y956390D02*
D03*
X1252854Y909110D02*
D03*
Y922890D02*
D03*
X1272146Y909110D02*
D03*
Y922890D02*
D03*
X1252854Y842110D02*
D03*
Y855890D02*
D03*
X1272146Y842110D02*
D03*
Y855890D02*
D03*
X1252854Y808610D02*
D03*
Y822390D02*
D03*
X1272146Y808610D02*
D03*
Y822390D02*
D03*
X1127854Y942610D02*
D03*
Y956390D02*
D03*
X1147146Y942610D02*
D03*
Y956390D02*
D03*
X1127854Y909110D02*
D03*
Y922890D02*
D03*
X1147146Y909110D02*
D03*
Y922890D02*
D03*
X1128354Y842110D02*
D03*
Y855890D02*
D03*
X1147646Y842110D02*
D03*
Y855890D02*
D03*
X1127854Y808110D02*
D03*
Y821890D02*
D03*
X1147146Y808110D02*
D03*
Y821890D02*
D03*
X1002854Y942610D02*
D03*
Y956390D02*
D03*
X1022146Y942610D02*
D03*
Y956390D02*
D03*
X1002854Y909110D02*
D03*
Y922890D02*
D03*
X1022146Y909110D02*
D03*
Y922890D02*
D03*
X1002854Y842110D02*
D03*
Y855890D02*
D03*
X1022146Y842110D02*
D03*
Y855890D02*
D03*
X1002854Y808610D02*
D03*
Y822390D02*
D03*
X1022146Y808610D02*
D03*
Y822390D02*
D03*
D22*
X1252390Y872687D02*
D03*
X1238610D02*
D03*
X1252390Y891978D02*
D03*
X1238610D02*
D03*
X1286122Y872687D02*
D03*
X1272342D02*
D03*
X1286122Y891978D02*
D03*
X1272342D02*
D03*
X1127390Y872687D02*
D03*
X1113610D02*
D03*
X1127390Y891978D02*
D03*
X1113610D02*
D03*
X1161390Y872687D02*
D03*
X1147610D02*
D03*
X1161390Y891978D02*
D03*
X1147610D02*
D03*
X1002658Y872687D02*
D03*
X988878D02*
D03*
X1002658Y891978D02*
D03*
X988878D02*
D03*
X1036122Y872687D02*
D03*
X1022342D02*
D03*
X1036122Y891978D02*
D03*
X1022342D02*
D03*
M02*
