%FSLAX25Y25*%
%MOIN*%
G70*
G01*
G75*
G04 Layer_Physical_Order=2*
G04 Layer_Color=65280*
%ADD10R,0.08000X0.05000*%
%ADD11R,0.05906X0.05906*%
%ADD12R,0.05906X0.05906*%
%ADD13C,0.02500*%
%ADD14C,0.16500*%
%ADD15C,0.04000*%
%ADD16R,0.05000X0.08000*%
%ADD17R,0.17716X0.12205*%
G36*
X556000Y433897D02*
Y432500D01*
X556000D01*
Y422900D01*
X555917Y422692D01*
X545515Y412291D01*
X537410D01*
X536631Y413306D01*
X536468Y413636D01*
X537304Y414726D01*
X537858Y416064D01*
X538048Y417500D01*
X537858Y418936D01*
X537304Y420274D01*
X537291Y420291D01*
Y433898D01*
X555999D01*
X556000Y433897D01*
D02*
G37*
G36*
X559042Y593691D02*
X557953Y591914D01*
X556959Y589514D01*
X556353Y586989D01*
X556149Y584400D01*
X556353Y581811D01*
X556959Y579285D01*
X557953Y576886D01*
X559310Y574672D01*
X560997Y572697D01*
X562972Y571010D01*
X565186Y569653D01*
X567586Y568659D01*
X570111Y568053D01*
X572700Y567849D01*
X575289Y568053D01*
X577814Y568659D01*
X580214Y569653D01*
X581191Y570252D01*
X582500Y569519D01*
Y402500D01*
X551120D01*
X550638Y403920D01*
X550888Y404112D01*
Y404112D01*
X550888D01*
D01*
D01*
D01*
D01*
D01*
D01*
X550888D01*
D01*
X550888D01*
Y404112D01*
D01*
D01*
D01*
D01*
Y404112D01*
D01*
D01*
D01*
D01*
D01*
D01*
Y404112D01*
D01*
D01*
X550888D01*
D01*
D01*
D01*
X563388Y416612D01*
X563597Y416885D01*
X563836Y417130D01*
X563976Y417378D01*
X564069Y417500D01*
X568000D01*
Y432139D01*
X568048Y432500D01*
X567858Y433936D01*
X567358Y435143D01*
Y453102D01*
X518035D01*
Y433898D01*
D01*
Y433898D01*
X517138Y433000D01*
X517000D01*
Y418000D01*
X517709D01*
Y412291D01*
X515291D01*
X515274Y412304D01*
X513936Y412858D01*
X512500Y413048D01*
X511064Y412858D01*
X509726Y412304D01*
X508577Y411423D01*
X507696Y410274D01*
X507142Y408936D01*
X506952Y407500D01*
X507142Y406064D01*
X507696Y404726D01*
X508372Y403845D01*
X507708Y402500D01*
X502500D01*
Y570064D01*
X503809Y570797D01*
X505186Y569953D01*
X507585Y568959D01*
X510111Y568353D01*
X512700Y568149D01*
X515289Y568353D01*
X517814Y568959D01*
X520214Y569953D01*
X522428Y571310D01*
X524403Y572997D01*
X526090Y574972D01*
X527447Y577186D01*
X528441Y579586D01*
X529047Y582111D01*
X529251Y584700D01*
X529047Y587289D01*
X528441Y589815D01*
X527447Y592214D01*
X526090Y594428D01*
X526354Y595000D01*
X558309D01*
X559042Y593691D01*
D02*
G37*
%LPC*%
G36*
X554000Y571000D02*
X542000D01*
Y556422D01*
X540872Y555433D01*
X540000Y555548D01*
X538564Y555358D01*
X537226Y554804D01*
X536077Y553923D01*
X535196Y552774D01*
X534642Y551436D01*
X534452Y550000D01*
X534642Y548564D01*
X535196Y547226D01*
X536077Y546077D01*
X537226Y545196D01*
X538564Y544642D01*
X540000Y544452D01*
X540209Y544269D01*
Y537500D01*
X540372Y536260D01*
X540711Y535443D01*
X540851Y535105D01*
X541612Y534112D01*
X550209Y525516D01*
Y516500D01*
X535500D01*
Y504500D01*
X547140D01*
X547500Y504453D01*
X547860Y504500D01*
X550500D01*
Y505209D01*
X563016D01*
X566492Y501732D01*
X565918Y500347D01*
X533002D01*
X532858Y501436D01*
X532304Y502774D01*
X531423Y503923D01*
X530274Y504804D01*
X528936Y505358D01*
X527500Y505548D01*
X526064Y505358D01*
X524726Y504804D01*
X523577Y503923D01*
X522696Y502774D01*
X522142Y501436D01*
X521998Y500347D01*
X518035D01*
Y481142D01*
Y465394D01*
X567358D01*
Y470209D01*
X570000D01*
X571240Y470372D01*
X572057Y470711D01*
X572396Y470851D01*
X573388Y471612D01*
X578388Y476612D01*
X579149Y477604D01*
X579628Y478760D01*
X579791Y480000D01*
Y500000D01*
X579791Y500000D01*
Y500000D01*
X579791D01*
X579791Y500000D01*
D01*
D01*
D01*
D01*
D01*
D01*
D01*
X579791Y500000D01*
D01*
X579628Y501240D01*
X579347Y501917D01*
X579149Y502395D01*
X578388Y503388D01*
Y503388D01*
D01*
D01*
Y503388D01*
D01*
D01*
D01*
D01*
X578388D01*
D01*
D01*
X578388D01*
X568388Y513388D01*
D01*
X568388Y513388D01*
D01*
D01*
D01*
X568388Y513388D01*
X568388Y513388D01*
X567395Y514149D01*
X567057Y514289D01*
X566240Y514628D01*
X565000Y514791D01*
X559791D01*
Y527500D01*
X559628Y528740D01*
X559347Y529417D01*
X559149Y529895D01*
X558388Y530888D01*
X549791Y539485D01*
Y548015D01*
X550888Y549112D01*
X551649Y550105D01*
X552128Y551260D01*
X552291Y552500D01*
Y556000D01*
X554000D01*
Y571000D01*
D02*
G37*
%LPD*%
G36*
X570209Y498015D02*
Y481985D01*
X568744Y480520D01*
X567358Y481094D01*
Y481142D01*
Y498906D01*
X568744Y499480D01*
X570209Y498015D01*
D02*
G37*
D10*
X543000Y521500D02*
D03*
Y510500D02*
D03*
D13*
X530394Y490744D02*
X555000D01*
X530394Y474996D02*
X555000D01*
X530394Y459248D02*
X555000D01*
X530394Y443500D02*
X555000D01*
X532500Y417500D02*
Y435000D01*
X530394Y443500D02*
X532500Y435000D01*
X560000Y420000D02*
X562000Y425000D01*
X547500Y407500D02*
X560000Y420000D01*
X572500Y410000D02*
Y420000D01*
X573000Y425000D01*
X522500Y420000D02*
X523000Y425500D01*
X572500Y430000D02*
X573000Y425000D01*
X572500Y430000D02*
X575000Y432500D01*
X555000Y459248D02*
X565000Y460000D01*
X512000Y425500D02*
X515000Y430000D01*
Y457500D02*
X517500Y460000D01*
X520000D01*
X530394Y459248D01*
X515000Y430000D02*
Y457500D01*
X527500Y497500D02*
Y500000D01*
Y497500D02*
X530394Y490744D01*
X565000Y510000D02*
X575000Y500000D01*
X570000Y475000D02*
X575000Y480000D01*
X565000Y475000D02*
X570000D01*
X555000Y474996D02*
X565000Y475000D01*
X575000Y480000D02*
Y500000D01*
X543000Y510500D02*
X547500Y510000D01*
Y557500D02*
X548000Y563500D01*
X545000Y550000D02*
X547500Y552500D01*
X540000Y550000D02*
X545000D01*
X547500Y552500D02*
Y557500D01*
X555000Y572500D02*
X557500Y570000D01*
X540000Y572500D02*
X555000D01*
X537500Y570000D02*
X540000Y572500D01*
X537500Y567500D02*
Y570000D01*
X537000Y563500D02*
X537500Y567500D01*
X532500Y535000D02*
X542500Y525000D01*
X532500Y555000D02*
X535000Y557500D01*
X537000Y563500D01*
X545000Y537500D02*
X555000Y527500D01*
X545000Y537500D02*
Y550000D01*
X555000Y510000D02*
Y527500D01*
X547500Y510000D02*
X565000D01*
X572500Y457500D02*
Y460000D01*
X565000D02*
X572500D01*
X575000Y432500D02*
Y457500D01*
X572500Y460000D02*
X575000Y457500D01*
X515000Y462500D02*
X517500Y460000D01*
X515000Y515000D02*
X532500Y532500D01*
X515000Y462500D02*
Y515000D01*
X532500Y532500D02*
Y555000D01*
X562000Y425000D02*
X562500Y432500D01*
X522500Y407500D02*
Y420000D01*
X512500Y407500D02*
X547500D01*
D14*
X572700Y584400D02*
D03*
X512700Y584700D02*
D03*
D15*
X572500Y410000D02*
D03*
X532500Y417500D02*
D03*
X512500Y407500D02*
D03*
X527500Y500000D02*
D03*
X542500Y525000D02*
D03*
X557500Y570000D02*
D03*
X540000Y550000D02*
D03*
X547500Y510000D02*
D03*
X562500Y432500D02*
D03*
X572500Y457500D02*
D03*
X527500Y455000D02*
D03*
D16*
X537000Y563500D02*
D03*
X573000Y425000D02*
D03*
X512000Y425500D02*
D03*
X548000Y563500D02*
D03*
X562000Y425000D02*
D03*
X523000Y425500D02*
D03*
D17*
X530394Y443500D02*
D03*
Y459248D02*
D03*
Y474996D02*
D03*
X555000Y443500D02*
D03*
Y459248D02*
D03*
Y474996D02*
D03*
X530394Y490744D02*
D03*
X555000D02*
D03*
M02*
