%FSLAX25Y25*%
%MOIN*%
G70*
G01*
G75*
G04 Layer_Color=48896*
%ADD10R,0.08000X0.05000*%
%ADD11R,0.05906X0.05906*%
%ADD12R,0.05906X0.05906*%
%ADD13C,0.02500*%
%ADD14C,0.16500*%
%ADD15C,0.04000*%
%ADD16R,0.05000X0.08000*%
%ADD17R,0.17716X0.12205*%
%ADD18C,0.01000*%
%ADD19C,0.01200*%
%ADD20R,0.07000X0.04000*%
%ADD21R,0.04906X0.04906*%
%ADD22R,0.04906X0.04906*%
%ADD23R,0.04000X0.07000*%
%ADD24R,0.16716X0.11205*%
%ADD25R,0.08800X0.05800*%
%ADD26R,0.06706X0.06706*%
%ADD27R,0.06706X0.06706*%
%ADD28C,0.17300*%
%ADD29C,0.04800*%
%ADD30R,0.05800X0.08800*%
%ADD31R,0.18517X0.13005*%
D25*
X543000Y521500D02*
D03*
Y510500D02*
D03*
D28*
X572700Y584400D02*
D03*
X512700Y584700D02*
D03*
D29*
X572500Y410000D02*
D03*
X532500Y417500D02*
D03*
X512500Y407500D02*
D03*
X527500Y500000D02*
D03*
X542500Y525000D02*
D03*
X557500Y570000D02*
D03*
X540000Y550000D02*
D03*
X547500Y510000D02*
D03*
X562500Y432500D02*
D03*
X572500Y457500D02*
D03*
X527500Y455000D02*
D03*
D30*
X537000Y563500D02*
D03*
X573000Y425000D02*
D03*
X512000Y425500D02*
D03*
X548000Y563500D02*
D03*
X562000Y425000D02*
D03*
X523000Y425500D02*
D03*
D31*
X530394Y443500D02*
D03*
Y459248D02*
D03*
Y474996D02*
D03*
X555000Y443500D02*
D03*
Y459248D02*
D03*
Y474996D02*
D03*
X530394Y490744D02*
D03*
X555000D02*
D03*
M02*
