%FSLAX25Y25*%
%MOIN*%
G70*
G01*
G75*
G04 Layer_Color=33789*
%ADD10R,0.05906X0.05906*%
%ADD11R,0.05906X0.05906*%
%ADD12C,0.02500*%
%ADD13C,0.16500*%
%ADD14C,0.04000*%
%ADD15R,0.17716X0.12205*%
%ADD16R,0.08000X0.05000*%
%ADD17C,0.05000*%
%ADD18C,0.01000*%
%ADD19C,0.01200*%
%ADD20C,0.01500*%
D18*
X1309441Y913122D02*
Y915091D01*
X1339953D01*
Y913122D02*
Y915091D01*
X1309441Y848161D02*
Y850130D01*
Y848161D02*
X1339953D01*
Y850130D01*
X1184941Y913622D02*
Y915591D01*
X1215453D01*
Y913622D02*
Y915591D01*
X1184941Y848661D02*
Y850630D01*
Y848661D02*
X1215453D01*
Y850630D01*
X1059941Y913622D02*
Y915591D01*
X1090453D01*
Y913622D02*
Y915591D01*
X1059941Y848661D02*
Y850630D01*
Y848661D02*
X1090453D01*
Y850630D01*
X933941Y912622D02*
Y914591D01*
X964453D01*
Y912622D02*
Y914591D01*
X933941Y847661D02*
Y849630D01*
Y847661D02*
X964453D01*
Y849630D01*
X1257984Y873484D02*
Y890516D01*
X1267016D01*
Y873484D02*
Y890516D01*
X1257984Y873484D02*
X1267016D01*
X1007984Y873984D02*
Y891016D01*
X1017016D01*
Y873984D02*
Y891016D01*
X1007984Y873984D02*
X1017016D01*
X1132984D02*
Y891016D01*
X1142016D01*
Y873984D02*
Y891016D01*
X1132984Y873984D02*
X1142016D01*
X1013168Y898665D02*
X1014001Y899498D01*
X1015667D01*
X1016500Y898665D01*
Y895333D01*
X1015667Y894500D01*
X1014001D01*
X1013168Y895333D01*
X1011502Y894500D02*
X1009836D01*
X1010669D01*
Y899498D01*
X1011502Y898665D01*
X1263168Y898165D02*
X1264001Y898998D01*
X1265667D01*
X1266500Y898165D01*
Y894833D01*
X1265667Y894000D01*
X1264001D01*
X1263168Y894833D01*
X1261502Y898165D02*
X1260669Y898998D01*
X1259002D01*
X1258169Y898165D01*
Y897332D01*
X1259002Y896499D01*
X1259836D01*
X1259002D01*
X1258169Y895666D01*
Y894833D01*
X1259002Y894000D01*
X1260669D01*
X1261502Y894833D01*
X949168Y932498D02*
X950834D01*
X950001D01*
Y928333D01*
X950834Y927500D01*
X951667D01*
X952500Y928333D01*
X947502Y927500D02*
X945835D01*
X946669D01*
Y932498D01*
X947502Y931665D01*
X1076668Y927498D02*
X1078334D01*
X1077501D01*
Y923333D01*
X1078334Y922500D01*
X1079167D01*
X1080000Y923333D01*
X1071669Y922500D02*
X1075002D01*
X1071669Y925832D01*
Y926665D01*
X1072502Y927498D01*
X1074169D01*
X1075002Y926665D01*
X1201668Y929998D02*
X1203334D01*
X1202501D01*
Y925833D01*
X1203334Y925000D01*
X1204167D01*
X1205000Y925833D01*
X1200002Y929165D02*
X1199169Y929998D01*
X1197502D01*
X1196669Y929165D01*
Y928332D01*
X1197502Y927499D01*
X1198335D01*
X1197502D01*
X1196669Y926666D01*
Y925833D01*
X1197502Y925000D01*
X1199169D01*
X1200002Y925833D01*
X1324168Y929998D02*
X1325834D01*
X1325001D01*
Y925833D01*
X1325834Y925000D01*
X1326667D01*
X1327500Y925833D01*
X1320002Y925000D02*
Y929998D01*
X1322502Y927499D01*
X1319169D01*
X1138168Y898665D02*
X1139001Y899498D01*
X1140667D01*
X1141500Y898665D01*
Y895333D01*
X1140667Y894500D01*
X1139001D01*
X1138168Y895333D01*
X1133169Y894500D02*
X1136502D01*
X1133169Y897832D01*
Y898665D01*
X1134002Y899498D01*
X1135669D01*
X1136502Y898665D01*
X1167500Y812500D02*
X1165001D01*
X1164168Y813333D01*
X1165001Y814166D01*
X1166667D01*
X1167500Y814999D01*
X1166667Y815832D01*
X1164168D01*
X1162502Y810834D02*
Y815832D01*
X1160002D01*
X1159169Y814999D01*
Y813333D01*
X1160002Y812500D01*
X1162502D01*
X1156670Y815832D02*
X1155004D01*
X1154171Y814999D01*
Y812500D01*
X1156670D01*
X1157503Y813333D01*
X1156670Y814166D01*
X1154171D01*
X1149173Y815832D02*
X1151672D01*
X1152505Y814999D01*
Y813333D01*
X1151672Y812500D01*
X1149173D01*
X1145007D02*
X1146673D01*
X1147507Y813333D01*
Y814999D01*
X1146673Y815832D01*
X1145007D01*
X1144174Y814999D01*
Y814166D01*
X1147507D01*
X1142508Y814999D02*
X1139176D01*
X1135011Y812500D02*
X1136677D01*
X1137510Y813333D01*
Y814999D01*
X1136677Y815832D01*
X1135011D01*
X1134177Y814999D01*
Y814166D01*
X1137510D01*
X1132511Y812500D02*
X1130845D01*
X1131678D01*
Y815832D01*
X1132511D01*
X1126680Y810834D02*
X1125847D01*
X1125014Y811667D01*
Y815832D01*
X1127513D01*
X1128346Y814999D01*
Y813333D01*
X1127513Y812500D01*
X1125014D01*
X1123348Y817498D02*
Y812500D01*
Y814999D01*
X1122515Y815832D01*
X1120848D01*
X1120015Y814999D01*
Y812500D01*
X1117516Y816665D02*
Y815832D01*
X1118349D01*
X1116683D01*
X1117516D01*
Y813333D01*
X1116683Y812500D01*
X1114184D02*
Y813333D01*
X1113351D01*
Y812500D01*
X1114184D01*
X1106686Y815832D02*
X1109186D01*
X1110019Y814999D01*
Y813333D01*
X1109186Y812500D01*
X1106686D01*
X1104187D02*
X1102521D01*
X1101688Y813333D01*
Y814999D01*
X1102521Y815832D01*
X1104187D01*
X1105020Y814999D01*
Y813333D01*
X1104187Y812500D01*
X1100022D02*
Y815832D01*
X1099189D01*
X1098356Y814999D01*
Y812500D01*
Y814999D01*
X1097523Y815832D01*
X1096690Y814999D01*
Y812500D01*
X1150000Y925832D02*
Y922500D01*
Y924166D01*
X1149167Y924999D01*
X1148334Y925832D01*
X1147501D01*
X1142502Y922500D02*
X1144169D01*
X1145002Y923333D01*
Y924999D01*
X1144169Y925832D01*
X1142502D01*
X1141669Y924999D01*
Y924166D01*
X1145002D01*
X1140003Y925832D02*
X1138337Y922500D01*
X1136671Y925832D01*
X1135005Y922500D02*
X1133339D01*
X1134172D01*
Y927498D01*
X1135005Y926665D01*
X1130840Y922500D02*
Y923333D01*
X1130007D01*
Y922500D01*
X1130840D01*
X1126674Y926665D02*
X1125841Y927498D01*
X1124175D01*
X1123342Y926665D01*
Y923333D01*
X1124175Y922500D01*
X1125841D01*
X1126674Y923333D01*
Y926665D01*
X1121676Y922500D02*
X1120010D01*
X1120843D01*
Y927498D01*
X1121676Y926665D01*
X1157500Y839998D02*
Y835000D01*
X1155001D01*
X1154168Y835833D01*
Y836666D01*
X1155001Y837499D01*
X1157500D01*
X1155001D01*
X1154168Y838332D01*
Y839165D01*
X1155001Y839998D01*
X1157500D01*
X1152502Y835000D02*
Y839998D01*
X1150002D01*
X1149169Y839165D01*
Y837499D01*
X1150002Y836666D01*
X1152502D01*
X1150836D02*
X1149169Y835000D01*
X1147503Y839998D02*
X1145837D01*
X1146670D01*
Y835000D01*
X1147503D01*
X1145837D01*
X1143338D02*
Y838332D01*
X1141672Y839998D01*
X1140006Y838332D01*
Y835000D01*
Y837499D01*
X1143338D01*
X1138340Y835000D02*
Y839998D01*
X1135007Y835000D01*
Y839998D01*
X1125010Y839165D02*
X1125844Y839998D01*
X1127510D01*
X1128343Y839165D01*
Y835833D01*
X1127510Y835000D01*
X1125844D01*
X1125010Y835833D01*
X1120845Y839998D02*
X1122511D01*
X1123344Y839165D01*
Y835833D01*
X1122511Y835000D01*
X1120845D01*
X1120012Y835833D01*
Y839165D01*
X1120845Y839998D01*
X1118346D02*
X1115014Y835000D01*
Y839998D02*
X1118346Y835000D01*
X1146668Y825832D02*
X1149167D01*
X1150000Y824999D01*
Y823333D01*
X1149167Y822500D01*
X1146668D01*
X1136671D02*
X1140003D01*
X1136671Y825832D01*
Y826665D01*
X1137504Y827498D01*
X1139170D01*
X1140003Y826665D01*
X1135005D02*
X1134172Y827498D01*
X1132506D01*
X1131673Y826665D01*
Y823333D01*
X1132506Y822500D01*
X1134172D01*
X1135005Y823333D01*
Y826665D01*
X1126674Y822500D02*
X1130007D01*
X1126674Y825832D01*
Y826665D01*
X1127507Y827498D01*
X1129173D01*
X1130007Y826665D01*
X1125008D02*
X1124175Y827498D01*
X1122509D01*
X1121676Y826665D01*
Y825832D01*
X1122509Y824999D01*
X1123342D01*
X1122509D01*
X1121676Y824166D01*
Y823333D01*
X1122509Y822500D01*
X1124175D01*
X1125008Y823333D01*
D19*
X1187500Y947500D02*
Y953498D01*
X1185501Y951499D01*
X1183501Y953498D01*
Y947500D01*
X1181502Y953498D02*
Y952498D01*
X1179503Y950499D01*
X1177503Y952498D01*
Y953498D01*
X1179503Y950499D02*
Y947500D01*
X1171505Y952498D02*
X1172505Y953498D01*
X1174504D01*
X1175504Y952498D01*
Y951499D01*
X1174504Y950499D01*
X1172505D01*
X1171505Y949499D01*
Y948500D01*
X1172505Y947500D01*
X1174504D01*
X1175504Y948500D01*
X1169506Y953498D02*
X1165507D01*
X1167507D01*
Y947500D01*
X1163508Y953498D02*
X1161508D01*
X1162508D01*
Y947500D01*
X1163508D01*
X1161508D01*
X1154511Y948500D02*
Y952498D01*
X1155510Y953498D01*
X1157510D01*
X1158509Y952498D01*
Y948500D01*
X1157510Y947500D01*
X1155510D01*
X1156510Y949499D02*
X1154511Y947500D01*
X1155510D02*
X1154511Y948500D01*
X1152511Y953498D02*
Y948500D01*
X1151512Y947500D01*
X1149512D01*
X1148513Y948500D01*
Y953498D01*
X1142515D02*
X1146513D01*
Y947500D01*
X1142515D01*
X1146513Y950499D02*
X1144514D01*
X1134517Y953498D02*
Y947500D01*
X1131518D01*
X1130518Y948500D01*
Y952498D01*
X1131518Y953498D01*
X1134517D01*
X1128519Y947500D02*
Y953498D01*
X1125520D01*
X1124520Y952498D01*
Y950499D01*
X1125520Y949499D01*
X1128519D01*
X1126520D02*
X1124520Y947500D01*
X1119522Y953498D02*
X1121521D01*
X1122521Y952498D01*
Y948500D01*
X1121521Y947500D01*
X1119522D01*
X1118522Y948500D01*
Y952498D01*
X1119522Y953498D01*
X1116523Y947500D02*
Y953498D01*
X1113524D01*
X1112524Y952498D01*
Y950499D01*
X1113524Y949499D01*
X1116523D01*
X1104527Y953498D02*
Y947500D01*
X1101528D01*
X1100528Y948500D01*
Y949499D01*
X1101528Y950499D01*
X1104527D01*
X1101528D01*
X1100528Y951499D01*
Y952498D01*
X1101528Y953498D01*
X1104527D01*
X1098529Y947500D02*
Y951499D01*
X1096529Y953498D01*
X1094530Y951499D01*
Y947500D01*
Y950499D01*
X1098529D01*
X1092531Y947500D02*
Y953498D01*
X1088532Y947500D01*
Y953498D01*
X1086533D02*
Y947500D01*
Y949499D01*
X1082534Y953498D01*
X1085533Y950499D01*
X1082534Y947500D01*
X1146001Y940998D02*
X1150000D01*
Y937999D01*
X1148001Y938999D01*
X1147001D01*
X1146001Y937999D01*
Y936000D01*
X1147001Y935000D01*
X1149000D01*
X1150000Y936000D01*
X1144002Y939998D02*
X1143002Y940998D01*
X1141003D01*
X1140003Y939998D01*
Y936000D01*
X1141003Y935000D01*
X1143002D01*
X1144002Y936000D01*
Y939998D01*
X1134005Y940998D02*
X1138004D01*
Y937999D01*
X1136005Y938999D01*
X1135005D01*
X1134005Y937999D01*
Y936000D01*
X1135005Y935000D01*
X1137004D01*
X1138004Y936000D01*
X1132006Y935000D02*
X1130007D01*
X1131006D01*
Y940998D01*
X1132006Y939998D01*
X1127007Y936000D02*
X1126008Y935000D01*
X1124008D01*
X1123009Y936000D01*
Y939998D01*
X1124008Y940998D01*
X1126008D01*
X1127007Y939998D01*
Y938999D01*
X1126008Y937999D01*
X1123009D01*
X1121009Y940998D02*
X1117011D01*
Y939998D01*
X1121009Y936000D01*
Y935000D01*
D20*
X997500Y862498D02*
Y855000D01*
X993751D01*
X992502Y856250D01*
Y861248D01*
X993751Y862498D01*
X997500D01*
X986254D02*
X988753D01*
X990002Y861248D01*
Y856250D01*
X988753Y855000D01*
X986254D01*
X985004Y856250D01*
Y861248D01*
X986254Y862498D01*
X1000000Y892498D02*
Y887499D01*
X997501Y885000D01*
X995002Y887499D01*
Y892498D01*
X987504Y891248D02*
X988754Y892498D01*
X991253D01*
X992502Y891248D01*
Y886250D01*
X991253Y885000D01*
X988754D01*
X987504Y886250D01*
X980007Y891248D02*
X981256Y892498D01*
X983755D01*
X985005Y891248D01*
Y886250D01*
X983755Y885000D01*
X981256D01*
X980007Y886250D01*
X995002Y876248D02*
X996251Y877498D01*
X998750D01*
X1000000Y876248D01*
Y871250D01*
X998750Y870000D01*
X996251D01*
X995002Y871250D01*
Y873749D01*
X997501D01*
X992502Y870000D02*
Y877498D01*
X987504Y870000D01*
Y877498D01*
X985005D02*
Y870000D01*
X981256D01*
X980007Y871250D01*
Y876248D01*
X981256Y877498D01*
X985005D01*
X995000Y909998D02*
Y902500D01*
X991251D01*
X990002Y903750D01*
Y908748D01*
X991251Y909998D01*
X995000D01*
X987502D02*
X985003D01*
X986253D01*
Y902500D01*
X987502D01*
X985003D01*
X1290000Y909998D02*
Y902500D01*
X1286251D01*
X1285002Y903750D01*
Y908748D01*
X1286251Y909998D01*
X1290000D01*
X1282502D02*
X1280003D01*
X1281253D01*
Y902500D01*
X1282502D01*
X1280003D01*
X1290002Y876248D02*
X1291251Y877498D01*
X1293750D01*
X1295000Y876248D01*
Y871250D01*
X1293750Y870000D01*
X1291251D01*
X1290002Y871250D01*
Y873749D01*
X1292501D01*
X1287502Y870000D02*
Y877498D01*
X1282504Y870000D01*
Y877498D01*
X1280005D02*
Y870000D01*
X1276256D01*
X1275006Y871250D01*
Y876248D01*
X1276256Y877498D01*
X1280005D01*
X1295000Y892498D02*
Y887499D01*
X1292501Y885000D01*
X1290002Y887499D01*
Y892498D01*
X1282504Y891248D02*
X1283754Y892498D01*
X1286253D01*
X1287502Y891248D01*
Y886250D01*
X1286253Y885000D01*
X1283754D01*
X1282504Y886250D01*
X1275006Y891248D02*
X1276256Y892498D01*
X1278755D01*
X1280005Y891248D01*
Y886250D01*
X1278755Y885000D01*
X1276256D01*
X1275006Y886250D01*
X1290000Y862498D02*
Y855000D01*
X1286251D01*
X1285002Y856250D01*
Y861248D01*
X1286251Y862498D01*
X1290000D01*
X1278754D02*
X1281253D01*
X1282502Y861248D01*
Y856250D01*
X1281253Y855000D01*
X1278754D01*
X1277504Y856250D01*
Y861248D01*
X1278754Y862498D01*
M02*
