%FSLAX25Y25*%
%MOIN*%
G70*
G01*
G75*
G04 Layer_Physical_Order=1*
G04 Layer_Color=255*
%ADD10R,0.05906X0.05906*%
%ADD11R,0.05906X0.05906*%
%ADD12C,0.02500*%
%ADD13C,0.16500*%
%ADD14C,0.04000*%
G36*
X1246402Y849437D02*
X1246402Y849437D01*
X1246402Y848563D01*
X1246402D01*
Y835658D01*
X1248122D01*
X1248211Y835443D01*
X1248351Y835104D01*
X1249112Y834112D01*
X1249112Y834112D01*
X1249112Y834112D01*
X1252996Y830228D01*
X1252422Y828843D01*
X1248433D01*
X1243972Y833304D01*
X1243969Y833325D01*
X1243414Y834663D01*
X1243401Y834681D01*
Y851599D01*
X1246402D01*
Y849437D01*
D02*
G37*
G36*
X1156073Y864848D02*
X1153567Y862342D01*
X1147370D01*
X1146812Y863070D01*
X1146507Y863688D01*
X1147304Y864726D01*
X1147858Y866064D01*
X1147861Y866086D01*
X1148009Y866234D01*
X1154063D01*
Y866234D01*
X1154063D01*
X1154063Y866234D01*
X1154937D01*
Y866234D01*
X1155499D01*
X1156073Y864848D01*
D02*
G37*
G36*
X1121902Y849437D02*
X1121902Y849437D01*
X1121902Y848563D01*
X1121902D01*
Y835658D01*
X1122915D01*
X1123211Y834943D01*
X1123351Y834604D01*
X1124112Y833612D01*
X1124112Y833612D01*
X1124112Y833612D01*
X1127996Y829728D01*
X1127422Y828343D01*
X1123433D01*
X1118972Y832804D01*
X1118969Y832825D01*
X1118414Y834163D01*
X1118401Y834181D01*
Y851099D01*
X1121902D01*
Y849437D01*
D02*
G37*
G36*
X1348474Y958691D02*
X1347753Y957514D01*
X1346759Y955115D01*
X1346153Y952589D01*
X1345949Y950000D01*
X1346153Y947411D01*
X1346759Y944885D01*
X1347753Y942486D01*
X1349110Y940272D01*
X1350797Y938297D01*
X1352772Y936610D01*
X1354986Y935253D01*
X1357385Y934259D01*
X1359911Y933653D01*
X1362500Y933449D01*
X1365089Y933653D01*
X1367615Y934259D01*
X1370014Y935253D01*
X1371191Y935974D01*
X1372500Y935241D01*
Y827259D01*
X1371191Y826526D01*
X1370014Y827247D01*
X1367615Y828241D01*
X1365089Y828847D01*
X1362500Y829051D01*
X1359911Y828847D01*
X1357385Y828241D01*
X1354986Y827247D01*
X1352772Y825890D01*
X1350797Y824203D01*
X1349110Y822228D01*
X1347753Y820014D01*
X1346759Y817614D01*
X1346153Y815089D01*
X1345949Y812500D01*
X1346153Y809911D01*
X1346759Y807386D01*
X1347753Y804986D01*
X1348474Y803809D01*
X1347741Y802500D01*
X1259307D01*
Y814876D01*
X1259307Y814876D01*
D01*
D01*
D01*
D01*
D01*
D01*
D01*
X1259307Y815063D01*
Y815243D01*
Y815500D01*
Y815627D01*
Y815937D01*
X1259307Y816072D01*
X1259307Y816124D01*
X1259307Y816124D01*
D01*
D01*
D01*
X1259307Y816124D01*
D01*
Y827709D01*
X1265516D01*
X1265693Y827532D01*
Y815937D01*
X1278598D01*
Y828843D01*
X1277025D01*
X1276773Y829094D01*
D01*
D01*
D01*
D01*
Y829094D01*
X1276773D01*
D01*
X1276773D01*
D01*
D01*
D01*
X1276295Y830250D01*
X1275533Y831242D01*
X1275533Y831242D01*
D01*
D01*
D01*
D01*
X1275533Y831242D01*
D01*
D01*
X1275533D01*
X1270888Y835888D01*
X1269895Y836649D01*
X1269557Y836789D01*
X1268740Y837128D01*
X1267500Y837291D01*
X1259484D01*
X1259307Y837468D01*
Y848563D01*
D01*
Y848563D01*
X1259307Y848563D01*
Y849437D01*
X1259307D01*
Y862342D01*
X1246402D01*
Y861181D01*
X1243401D01*
Y866234D01*
X1245063D01*
Y866234D01*
X1245937D01*
X1246124Y866234D01*
Y866234D01*
X1246124D01*
D01*
X1246124Y866234D01*
D01*
D01*
X1258842D01*
Y867915D01*
X1259557Y868211D01*
X1259896Y868351D01*
X1260445Y868772D01*
X1261744Y868022D01*
X1261685Y867576D01*
X1261874Y866141D01*
X1262428Y864803D01*
X1263310Y863654D01*
X1264458Y862772D01*
X1265693Y862261D01*
Y849437D01*
X1278598D01*
Y851126D01*
X1279630Y851262D01*
X1280447Y851600D01*
X1280785Y851741D01*
X1281777Y852502D01*
Y852502D01*
X1281777D01*
D01*
D01*
D01*
D01*
D01*
D01*
X1281777D01*
D01*
X1281777D01*
Y852502D01*
D01*
D01*
D01*
D01*
Y852502D01*
D01*
D01*
D01*
D01*
D01*
D01*
Y852502D01*
D01*
D01*
X1281777D01*
D01*
D01*
D01*
X1289510Y860234D01*
Y860234D01*
D01*
D01*
D01*
X1289510Y860234D01*
D01*
Y860234D01*
D01*
X1289510D01*
Y860234D01*
D01*
Y860234D01*
Y860234D01*
X1289510D01*
D01*
D01*
Y860234D01*
D01*
D01*
D01*
D01*
D01*
D01*
Y860234D01*
D01*
D01*
X1289510D01*
D01*
X1289510Y860234D01*
D01*
D01*
X1290271Y861226D01*
X1290469Y861705D01*
X1290750Y862382D01*
X1290913Y863622D01*
D01*
D01*
D01*
D01*
D01*
X1290913D01*
D01*
D01*
D01*
D01*
Y863622D01*
X1290913D01*
D01*
Y863622D01*
D01*
D01*
D01*
D01*
D01*
D01*
D01*
D01*
D01*
D01*
D01*
D01*
Y863622D01*
D01*
X1290913D01*
D01*
D01*
D01*
D01*
X1290913Y863622D01*
Y866234D01*
X1292575D01*
Y879139D01*
X1279669D01*
D01*
D01*
X1279669Y879139D01*
X1278795D01*
Y879139D01*
X1267291D01*
Y885515D01*
X1267301Y885525D01*
X1278795D01*
Y898431D01*
X1265890D01*
Y896626D01*
X1265738Y896606D01*
X1264583Y896127D01*
X1263590Y895366D01*
X1259112Y890888D01*
X1258351Y889896D01*
X1258211Y889557D01*
X1257872Y888740D01*
X1257709Y887500D01*
Y879484D01*
X1257364Y879139D01*
X1246124D01*
X1246124Y879139D01*
X1246124Y879139D01*
X1245937Y879139D01*
X1245500D01*
X1245063D01*
X1244876Y879139D01*
X1244876Y879139D01*
X1244876Y879139D01*
X1232158D01*
Y866234D01*
X1233819D01*
Y834681D01*
X1233806Y834663D01*
X1233252Y833325D01*
X1233063Y831890D01*
X1233252Y830454D01*
X1233806Y829116D01*
X1234688Y827967D01*
X1235837Y827085D01*
X1237175Y826531D01*
X1237196Y826528D01*
X1244722Y819002D01*
D01*
X1244722Y819002D01*
X1244722Y819002D01*
D01*
D01*
D01*
X1244722Y819002D01*
Y819002D01*
X1245715Y818241D01*
X1246402Y817956D01*
Y816124D01*
X1246402Y816124D01*
X1246402Y816124D01*
X1246402Y815937D01*
Y815063D01*
D01*
D01*
X1246402D01*
Y813401D01*
X1223374D01*
X1204791Y831985D01*
Y940000D01*
X1204628Y941240D01*
X1204149Y942395D01*
X1203388Y943388D01*
X1186998Y959778D01*
X1187074Y960000D01*
X1241265D01*
X1241839Y958614D01*
X1238586Y955361D01*
X1238564Y955358D01*
X1237226Y954804D01*
X1236077Y953923D01*
X1235196Y952774D01*
X1234642Y951436D01*
X1234453Y950000D01*
X1234642Y948564D01*
X1235196Y947226D01*
X1235209Y947209D01*
Y930000D01*
X1235372Y928760D01*
X1235711Y927943D01*
X1235851Y927604D01*
X1236612Y926612D01*
X1243723Y919502D01*
D01*
X1243723Y919502D01*
X1243723Y919502D01*
D01*
D01*
D01*
X1243723Y919502D01*
Y919502D01*
X1244715Y918741D01*
X1245053Y918600D01*
X1245870Y918262D01*
X1246402Y918192D01*
Y916624D01*
X1246402Y916624D01*
X1246402Y916624D01*
X1246402Y916437D01*
Y915563D01*
D01*
D01*
D01*
D01*
X1246402D01*
Y913901D01*
X1244110D01*
X1242870Y913738D01*
X1241715Y913259D01*
X1240722Y912498D01*
X1235490Y907266D01*
X1234729Y906273D01*
X1234250Y905118D01*
X1234087Y903878D01*
Y898431D01*
X1232158D01*
Y885525D01*
X1245063D01*
Y898431D01*
X1243669D01*
Y901894D01*
X1245016Y903240D01*
X1246402Y902666D01*
Y902658D01*
X1259307D01*
Y915376D01*
X1259307Y915376D01*
D01*
D01*
D01*
D01*
D01*
D01*
D01*
X1259307Y915563D01*
Y915743D01*
Y916000D01*
Y916127D01*
Y916437D01*
X1259307Y916572D01*
X1259307Y916624D01*
X1259307Y916624D01*
D01*
D01*
D01*
X1259307Y916624D01*
D01*
Y927709D01*
X1265693D01*
Y916437D01*
X1278598D01*
Y929342D01*
X1276937D01*
X1276937Y930354D01*
D01*
D01*
Y930354D01*
D01*
D01*
D01*
D01*
D01*
D01*
D01*
D01*
D01*
D01*
D01*
D01*
D01*
Y930354D01*
D01*
X1276937D01*
D01*
D01*
D01*
D01*
D01*
D01*
D01*
X1276937Y930354D01*
D01*
D01*
D01*
X1276773Y931594D01*
X1276493Y932271D01*
X1276295Y932750D01*
X1275533Y933742D01*
X1275533Y933742D01*
D01*
D01*
D01*
D01*
X1275533Y933742D01*
D01*
D01*
X1275533D01*
X1273388Y935888D01*
X1272396Y936649D01*
X1272057Y936789D01*
X1271240Y937128D01*
X1270000Y937291D01*
X1259484D01*
X1259307Y937468D01*
Y949063D01*
D01*
Y949063D01*
X1259307Y949063D01*
Y949937D01*
X1259307D01*
Y960000D01*
X1265693D01*
Y949937D01*
X1278598D01*
Y951599D01*
X1301626D01*
X1320209Y933016D01*
Y845291D01*
X1320196Y845274D01*
X1319642Y843936D01*
X1319452Y842500D01*
X1319642Y841064D01*
X1320196Y839726D01*
X1321077Y838577D01*
X1322226Y837696D01*
X1323564Y837142D01*
X1325000Y836952D01*
X1326436Y837142D01*
X1327774Y837696D01*
X1328923Y838577D01*
X1329804Y839726D01*
X1330358Y841064D01*
X1330548Y842500D01*
X1330358Y843936D01*
X1329804Y845274D01*
X1329791Y845291D01*
Y935000D01*
X1329628Y936240D01*
X1329149Y937395D01*
X1328388Y938388D01*
X1306998Y959778D01*
X1307073Y960000D01*
X1347741D01*
X1348474Y958691D01*
D02*
G37*
G36*
X996402Y849437D02*
X996402Y849437D01*
X996402Y848563D01*
X996402D01*
Y835658D01*
X998122D01*
X998211Y835443D01*
X998351Y835104D01*
X999112Y834112D01*
X999112Y834112D01*
X999112Y834112D01*
X1002996Y830228D01*
X1002422Y828843D01*
X998433D01*
X993972Y833304D01*
X993969Y833325D01*
X993414Y834663D01*
X993401Y834681D01*
Y851599D01*
X996402D01*
Y849437D01*
D02*
G37*
G36*
X1015693Y949937D02*
X1028598D01*
Y951599D01*
X1051626D01*
X1070209Y933016D01*
Y837500D01*
X1070372Y836260D01*
X1070711Y835443D01*
X1070851Y835104D01*
X1071612Y834112D01*
X1101002Y804722D01*
X1101994Y803961D01*
X1101389Y802500D01*
X1009307D01*
Y814876D01*
X1009307Y814876D01*
D01*
D01*
D01*
D01*
D01*
D01*
D01*
X1009307Y815063D01*
Y815243D01*
Y815500D01*
Y815627D01*
Y815937D01*
X1009307Y816072D01*
X1009307Y816124D01*
X1009307Y816124D01*
D01*
D01*
D01*
X1009307Y816124D01*
D01*
Y827709D01*
X1015516D01*
X1015693Y827532D01*
Y815937D01*
X1028598D01*
Y828843D01*
X1026807D01*
X1026773Y829094D01*
X1026295Y830250D01*
X1025533Y831242D01*
X1025533Y831242D01*
D01*
D01*
D01*
D01*
X1025533Y831242D01*
D01*
D01*
X1025533D01*
X1020888Y835888D01*
D01*
X1020888Y835888D01*
D01*
D01*
D01*
X1020888Y835888D01*
X1020888Y835888D01*
X1019895Y836649D01*
X1019557Y836789D01*
X1018740Y837128D01*
X1017500Y837291D01*
X1009484D01*
X1009307Y837468D01*
Y848563D01*
D01*
Y848563D01*
X1009307Y848563D01*
Y849437D01*
X1009307D01*
Y862342D01*
X996402D01*
Y861181D01*
X993401D01*
Y866234D01*
X995331D01*
Y866234D01*
X996205D01*
X996391Y866234D01*
Y866234D01*
X996391D01*
D01*
X996391Y866234D01*
D01*
D01*
X1009110D01*
Y868026D01*
X1009557Y868211D01*
X1009896Y868351D01*
X1010445Y868772D01*
X1011744Y868022D01*
X1011685Y867576D01*
X1011874Y866141D01*
X1012428Y864803D01*
X1013310Y863654D01*
X1014458Y862772D01*
X1015693Y862261D01*
Y849437D01*
X1028598D01*
Y851126D01*
X1029630Y851262D01*
X1030447Y851600D01*
X1030785Y851741D01*
X1031777Y852502D01*
X1039510Y860234D01*
Y860234D01*
D01*
D01*
D01*
X1039510Y860234D01*
D01*
Y860234D01*
D01*
X1039510D01*
Y860234D01*
D01*
Y860234D01*
Y860234D01*
X1039510D01*
D01*
D01*
Y860234D01*
D01*
D01*
D01*
D01*
D01*
D01*
Y860234D01*
D01*
D01*
X1039510D01*
D01*
X1039510Y860234D01*
D01*
D01*
X1040271Y861226D01*
X1040469Y861705D01*
X1040750Y862382D01*
X1040913Y863622D01*
D01*
D01*
D01*
D01*
D01*
X1040913D01*
D01*
D01*
D01*
D01*
Y863622D01*
X1040913D01*
D01*
Y863622D01*
D01*
D01*
D01*
D01*
D01*
D01*
D01*
D01*
D01*
D01*
D01*
D01*
Y863622D01*
D01*
X1040913D01*
D01*
D01*
D01*
D01*
X1040913Y863622D01*
Y866234D01*
X1042575D01*
Y879139D01*
X1029669D01*
D01*
D01*
X1029669Y879139D01*
X1028795D01*
Y879139D01*
X1017291D01*
Y885515D01*
X1017301Y885525D01*
X1028795D01*
Y898431D01*
X1015890D01*
Y896626D01*
X1015738Y896606D01*
X1014583Y896127D01*
X1013590Y895366D01*
X1009112Y890888D01*
X1008351Y889896D01*
X1008211Y889557D01*
X1007872Y888740D01*
X1007709Y887500D01*
Y879484D01*
X1007364Y879139D01*
X996391D01*
X996391Y879139D01*
X996391Y879139D01*
X996205Y879139D01*
X995768D01*
X995331D01*
X995144Y879139D01*
X995144Y879139D01*
X995144Y879139D01*
X982425D01*
Y866234D01*
X983819D01*
Y834681D01*
X983806Y834663D01*
X983252Y833325D01*
X983063Y831890D01*
X983252Y830454D01*
X983806Y829116D01*
X984688Y827967D01*
X985837Y827085D01*
X987175Y826531D01*
X987196Y826528D01*
X994722Y819002D01*
X995715Y818241D01*
X996402Y817956D01*
Y816124D01*
X996402Y816124D01*
X996402Y816124D01*
X996402Y815937D01*
Y815063D01*
D01*
D01*
X996402D01*
Y813401D01*
X975874D01*
X954791Y834484D01*
Y917209D01*
X954804Y917226D01*
X955358Y918564D01*
X955548Y920000D01*
X955358Y921436D01*
X954804Y922774D01*
X953923Y923923D01*
X952774Y924804D01*
X951436Y925358D01*
X950000Y925548D01*
X948564Y925358D01*
X947226Y924804D01*
X946077Y923923D01*
X945196Y922774D01*
X944642Y921436D01*
X944452Y920000D01*
X944642Y918564D01*
X945196Y917226D01*
X945209Y917209D01*
Y832500D01*
X945372Y831260D01*
X945711Y830443D01*
X945851Y830105D01*
X946612Y829112D01*
X970502Y805223D01*
X971494Y804461D01*
X972650Y803983D01*
X972455Y802500D01*
X927259D01*
X926526Y803809D01*
X927247Y804986D01*
X928241Y807386D01*
X928847Y809911D01*
X929051Y812500D01*
X928847Y815089D01*
X928241Y817614D01*
X927247Y820014D01*
X925890Y822228D01*
X924203Y824203D01*
X922228Y825890D01*
X920014Y827247D01*
X917615Y828241D01*
X915089Y828847D01*
X912500Y829051D01*
X909911Y828847D01*
X907385Y828241D01*
X904986Y827247D01*
X903809Y826526D01*
X902500Y827259D01*
Y935241D01*
X903809Y935974D01*
X904986Y935253D01*
X907385Y934259D01*
X909911Y933653D01*
X912500Y933449D01*
X915089Y933653D01*
X917615Y934259D01*
X920014Y935253D01*
X922228Y936610D01*
X924203Y938297D01*
X925890Y940272D01*
X927247Y942486D01*
X928241Y944885D01*
X928847Y947411D01*
X929051Y950000D01*
X928847Y952589D01*
X928241Y955115D01*
X927247Y957514D01*
X925890Y959728D01*
X926015Y960000D01*
X991265D01*
X991839Y958614D01*
X988586Y955361D01*
X988564Y955358D01*
X987226Y954804D01*
X986077Y953923D01*
X985196Y952774D01*
X984642Y951436D01*
X984453Y950000D01*
X984642Y948564D01*
X985196Y947226D01*
X985209Y947209D01*
Y930000D01*
X985209Y930000D01*
X985209D01*
X985372Y928760D01*
X985711Y927943D01*
X985851Y927604D01*
X986612Y926612D01*
X986612Y926612D01*
X986612Y926612D01*
X993723Y919502D01*
X994715Y918741D01*
X995053Y918600D01*
X995870Y918262D01*
X996402Y918192D01*
Y916624D01*
X996402Y916624D01*
X996402Y916624D01*
X996402Y916437D01*
Y915563D01*
D01*
D01*
D01*
D01*
X996402D01*
Y913901D01*
X994110D01*
X992870Y913738D01*
X991715Y913259D01*
X990722Y912498D01*
X985490Y907266D01*
X984729Y906273D01*
X984250Y905118D01*
X984087Y903878D01*
Y898431D01*
X982425D01*
Y885525D01*
X995331D01*
Y898431D01*
X993669D01*
Y901894D01*
X995016Y903240D01*
X996402Y902666D01*
Y902658D01*
X1009307D01*
Y915376D01*
X1009307Y915376D01*
D01*
D01*
D01*
D01*
D01*
D01*
D01*
X1009307Y915563D01*
Y915743D01*
Y916000D01*
Y916127D01*
Y916437D01*
X1009307Y916572D01*
X1009307Y916624D01*
X1009307Y916624D01*
D01*
D01*
D01*
X1009307Y916624D01*
D01*
Y927709D01*
X1015693D01*
Y916437D01*
X1028598D01*
Y929342D01*
X1026937D01*
X1026937Y930354D01*
D01*
D01*
Y930354D01*
D01*
D01*
D01*
D01*
D01*
D01*
D01*
D01*
D01*
D01*
D01*
D01*
D01*
Y930354D01*
D01*
X1026937D01*
D01*
D01*
D01*
D01*
D01*
D01*
D01*
X1026937Y930354D01*
D01*
D01*
D01*
X1026773Y931594D01*
X1026493Y932271D01*
X1026295Y932750D01*
X1025533Y933742D01*
X1025533Y933742D01*
D01*
D01*
D01*
D01*
X1025533Y933742D01*
D01*
D01*
X1025533D01*
X1023388Y935888D01*
X1022396Y936649D01*
X1022057Y936789D01*
X1021240Y937128D01*
X1020000Y937291D01*
X1009484D01*
X1009307Y937468D01*
Y949063D01*
D01*
Y949063D01*
X1009307Y949063D01*
Y949937D01*
X1009307D01*
Y960000D01*
X1015693D01*
Y949937D01*
D02*
G37*
G36*
X1140693D02*
X1153598D01*
Y951599D01*
X1181626D01*
X1195209Y938015D01*
Y830000D01*
X1195372Y828760D01*
X1195711Y827943D01*
X1195851Y827604D01*
X1196612Y826612D01*
X1218002Y805223D01*
X1218994Y804461D01*
X1220150Y803983D01*
X1219955Y802500D01*
X1134307D01*
Y814376D01*
X1134307Y814376D01*
D01*
D01*
D01*
D01*
D01*
D01*
D01*
X1134307Y814563D01*
Y814743D01*
Y815000D01*
Y815127D01*
Y815437D01*
X1134307Y815572D01*
X1134307Y815624D01*
X1134307Y815624D01*
D01*
D01*
D01*
X1134307Y815624D01*
D01*
Y827209D01*
X1140516D01*
X1140693Y827032D01*
Y815437D01*
X1153598D01*
Y828343D01*
X1152025D01*
X1151773Y828594D01*
D01*
D01*
D01*
D01*
Y828594D01*
X1151773D01*
D01*
X1151773D01*
D01*
D01*
D01*
X1151741Y828673D01*
X1151741Y828673D01*
X1151295Y829750D01*
Y829750D01*
D01*
D01*
D01*
X1151295Y829750D01*
X1150533Y830742D01*
X1150533Y830742D01*
D01*
D01*
D01*
D01*
X1150533Y830742D01*
D01*
D01*
X1150533D01*
X1145888Y835388D01*
D01*
X1145888Y835388D01*
D01*
D01*
D01*
X1145888Y835388D01*
X1145888Y835388D01*
X1144895Y836149D01*
X1144557Y836289D01*
X1143740Y836628D01*
X1142500Y836791D01*
X1134807D01*
Y848563D01*
D01*
Y848563D01*
X1134807Y848563D01*
Y849437D01*
X1134807D01*
Y862342D01*
X1121902D01*
Y860681D01*
X1118401D01*
Y866234D01*
X1120063D01*
Y866234D01*
X1120937D01*
X1121124Y866234D01*
Y866234D01*
X1121124D01*
D01*
X1121124Y866234D01*
D01*
D01*
X1133842D01*
Y867415D01*
X1134557Y867711D01*
X1134896Y867851D01*
X1135680Y868453D01*
X1136548Y867952D01*
X1136958Y867542D01*
X1136952Y867500D01*
X1137142Y866064D01*
X1137696Y864726D01*
X1138577Y863577D01*
X1139726Y862696D01*
X1141064Y862142D01*
X1141193Y862125D01*
Y849437D01*
X1154098D01*
Y850692D01*
X1154630Y850762D01*
X1155447Y851100D01*
X1155785Y851241D01*
X1156777Y852002D01*
Y852002D01*
X1156777D01*
D01*
D01*
D01*
D01*
D01*
D01*
X1156777D01*
D01*
X1156777D01*
Y852002D01*
D01*
D01*
D01*
D01*
Y852002D01*
D01*
D01*
D01*
D01*
D01*
D01*
Y852002D01*
D01*
D01*
X1156777D01*
D01*
D01*
D01*
X1164510Y859734D01*
X1165271Y860727D01*
X1165469Y861205D01*
X1165750Y861882D01*
X1165913Y863122D01*
Y866234D01*
X1167842D01*
Y879139D01*
X1154937D01*
D01*
D01*
X1154937Y879139D01*
X1154063D01*
Y879139D01*
X1142291D01*
Y885015D01*
X1142801Y885525D01*
X1154063D01*
Y898431D01*
X1141158D01*
Y896161D01*
X1140738Y896106D01*
X1139583Y895627D01*
X1138590Y894866D01*
X1134112Y890388D01*
X1133351Y889396D01*
X1133211Y889057D01*
X1132872Y888240D01*
X1132709Y887000D01*
Y879139D01*
X1121124D01*
X1121124Y879139D01*
X1121124Y879139D01*
X1120937Y879139D01*
X1120500D01*
X1120063D01*
X1119876Y879139D01*
X1119876Y879139D01*
X1119876Y879139D01*
X1107158D01*
Y866234D01*
X1108819D01*
Y834181D01*
X1108806Y834163D01*
X1108252Y832825D01*
X1108063Y831390D01*
X1108252Y829954D01*
X1108806Y828616D01*
X1109688Y827467D01*
X1110837Y826585D01*
X1112175Y826031D01*
X1112196Y826029D01*
X1119722Y818502D01*
D01*
X1119722Y818502D01*
X1119722Y818502D01*
D01*
D01*
D01*
X1119722Y818502D01*
Y818502D01*
X1120715Y817741D01*
X1121402Y817456D01*
Y815624D01*
X1121402Y815624D01*
X1121402Y815624D01*
X1121402Y815437D01*
Y814563D01*
D01*
D01*
X1121402D01*
Y812901D01*
X1106374D01*
X1079791Y839485D01*
Y935000D01*
X1079628Y936240D01*
X1079149Y937395D01*
X1078388Y938388D01*
X1056998Y959778D01*
X1057073Y960000D01*
X1116265D01*
X1116839Y958614D01*
X1113586Y955361D01*
X1113564Y955358D01*
X1112226Y954804D01*
X1111077Y953923D01*
X1110196Y952774D01*
X1109642Y951436D01*
X1109453Y950000D01*
X1109642Y948564D01*
X1110196Y947226D01*
X1110209Y947209D01*
Y930000D01*
X1110209Y930000D01*
X1110209D01*
X1110372Y928760D01*
X1110711Y927943D01*
X1110851Y927604D01*
X1111612Y926612D01*
X1111612Y926612D01*
X1111612Y926612D01*
X1118723Y919502D01*
X1119715Y918741D01*
X1120053Y918600D01*
X1120870Y918262D01*
X1121402Y918192D01*
Y916624D01*
X1121402Y916624D01*
X1121402Y916624D01*
X1121402Y916437D01*
Y915563D01*
D01*
D01*
D01*
D01*
X1121402D01*
Y913401D01*
X1119110D01*
X1117870Y913238D01*
X1116715Y912759D01*
X1115722Y911998D01*
X1110490Y906766D01*
X1109729Y905774D01*
X1109250Y904618D01*
X1109087Y903378D01*
Y898431D01*
X1107158D01*
Y885525D01*
X1120063D01*
Y898431D01*
X1118669D01*
Y901394D01*
X1119933Y902658D01*
X1121402Y902658D01*
Y902658D01*
X1134307D01*
Y915376D01*
D01*
X1134307D01*
Y915376D01*
D01*
D01*
D01*
D01*
D01*
D01*
D01*
X1134307Y915563D01*
Y915743D01*
Y916000D01*
Y916127D01*
Y916437D01*
X1134307Y916532D01*
Y916624D01*
D01*
X1134307Y916624D01*
D01*
Y927209D01*
X1140693D01*
Y916437D01*
X1153598D01*
Y929342D01*
X1151937D01*
X1151937Y929854D01*
D01*
D01*
Y929854D01*
D01*
D01*
D01*
D01*
D01*
D01*
D01*
D01*
D01*
D01*
D01*
D01*
D01*
Y929854D01*
D01*
X1151937D01*
D01*
D01*
D01*
D01*
D01*
D01*
D01*
X1151937Y929854D01*
D01*
D01*
D01*
X1151773Y931094D01*
X1151493Y931771D01*
X1151295Y932250D01*
X1150533Y933242D01*
X1150533Y933242D01*
D01*
D01*
D01*
D01*
X1150533Y933242D01*
D01*
D01*
X1150533D01*
X1148388Y935388D01*
D01*
X1148388Y935388D01*
D01*
D01*
D01*
X1148388Y935388D01*
X1148388Y935388D01*
X1147396Y936149D01*
X1147057Y936289D01*
X1146240Y936628D01*
X1145000Y936791D01*
X1134484D01*
X1134307Y936968D01*
Y949063D01*
D01*
Y949063D01*
X1134307Y949063D01*
Y949937D01*
X1134307D01*
Y960000D01*
X1140693D01*
Y949937D01*
D02*
G37*
G36*
X1246402Y947238D02*
Y936158D01*
X1248193D01*
X1248227Y935906D01*
X1248705Y934750D01*
X1249467Y933758D01*
X1252496Y930728D01*
X1251922Y929342D01*
X1247433D01*
X1244791Y931985D01*
Y946376D01*
X1245951Y947328D01*
X1246402Y947238D01*
D02*
G37*
G36*
X996402D02*
Y936158D01*
X998193D01*
X998227Y935906D01*
X998705Y934750D01*
X999467Y933758D01*
X1002496Y930728D01*
X1001922Y929342D01*
X997433D01*
X994791Y931985D01*
Y946376D01*
X995951Y947328D01*
X996402Y947238D01*
D02*
G37*
G36*
X1121402D02*
Y936158D01*
X1123128D01*
X1123227Y935406D01*
X1123705Y934250D01*
X1124467Y933258D01*
X1126996Y930728D01*
X1126422Y929342D01*
X1122433D01*
X1119791Y931985D01*
Y946376D01*
X1120951Y947328D01*
X1121402Y947238D01*
D02*
G37*
D10*
X1252854Y942610D02*
D03*
Y956390D02*
D03*
X1272146Y942610D02*
D03*
Y956390D02*
D03*
X1252854Y909110D02*
D03*
Y922890D02*
D03*
X1272146Y909110D02*
D03*
Y922890D02*
D03*
X1252854Y842110D02*
D03*
Y855890D02*
D03*
X1272146Y842110D02*
D03*
Y855890D02*
D03*
X1252854Y808610D02*
D03*
Y822390D02*
D03*
X1272146Y808610D02*
D03*
Y822390D02*
D03*
X1127854Y942610D02*
D03*
Y956390D02*
D03*
X1147146Y942610D02*
D03*
Y956390D02*
D03*
X1127854Y909110D02*
D03*
Y922890D02*
D03*
X1147146Y909110D02*
D03*
Y922890D02*
D03*
X1128354Y842110D02*
D03*
Y855890D02*
D03*
X1147646Y842110D02*
D03*
Y855890D02*
D03*
X1127854Y808110D02*
D03*
Y821890D02*
D03*
X1147146Y808110D02*
D03*
Y821890D02*
D03*
X1002854Y942610D02*
D03*
Y956390D02*
D03*
X1022146Y942610D02*
D03*
Y956390D02*
D03*
X1002854Y909110D02*
D03*
Y922890D02*
D03*
X1022146Y909110D02*
D03*
Y922890D02*
D03*
X1002854Y842110D02*
D03*
Y855890D02*
D03*
X1022146Y842110D02*
D03*
Y855890D02*
D03*
X1002854Y808610D02*
D03*
Y822390D02*
D03*
X1022146Y808610D02*
D03*
Y822390D02*
D03*
D11*
X1252390Y872687D02*
D03*
X1238610D02*
D03*
X1252390Y891978D02*
D03*
X1238610D02*
D03*
X1286122Y872687D02*
D03*
X1272342D02*
D03*
X1286122Y891978D02*
D03*
X1272342D02*
D03*
X1127390Y872687D02*
D03*
X1113610D02*
D03*
X1127390Y891978D02*
D03*
X1113610D02*
D03*
X1161390Y872687D02*
D03*
X1147610D02*
D03*
X1161390Y891978D02*
D03*
X1147610D02*
D03*
X1002658Y872687D02*
D03*
X988878D02*
D03*
X1002658Y891978D02*
D03*
X988878D02*
D03*
X1036122Y872687D02*
D03*
X1022342D02*
D03*
X1036122Y891978D02*
D03*
X1022342D02*
D03*
D12*
X1022146Y822390D02*
Y827854D01*
X1017500Y832500D02*
X1022146Y827854D01*
X1007500Y832500D02*
X1017500D01*
X1002500Y837500D02*
X1007500Y832500D01*
X1002500Y837500D02*
Y841756D01*
X1002854Y842110D01*
X1022146Y855890D02*
X1028390D01*
X1036122Y863622D02*
Y872687D01*
X1028390Y855890D02*
X1036122Y863622D01*
X1016978Y891978D02*
X1022342D01*
X1012500Y887500D02*
X1016978Y891978D01*
X1007500Y872500D02*
X1012500Y877500D01*
X1002844Y872500D02*
X1007500D01*
X1002658Y872687D02*
X1002844Y872500D01*
X1012500Y877500D02*
Y887500D01*
X988878Y891978D02*
Y903878D01*
X994110Y909110D02*
X1002854D01*
X988878Y903878D02*
X994110Y909110D01*
X1022146Y922890D02*
Y930354D01*
X1020000Y932500D02*
X1022146Y930354D01*
X1007500Y932500D02*
X1020000D01*
X1002854Y937146D02*
Y942610D01*
Y937146D02*
X1007500Y932500D01*
X1127854Y936646D02*
X1132500Y932000D01*
X1127854Y936646D02*
Y942110D01*
X1132500Y932000D02*
X1145000D01*
X1147146Y929854D01*
Y922390D02*
Y929854D01*
X1113878Y903378D02*
X1119110Y908610D01*
X1127854D01*
X1113878Y891478D02*
Y903378D01*
X1137500Y877000D02*
Y887000D01*
X1127844Y872000D02*
X1132500D01*
X1137500Y877000D01*
Y887000D02*
X1141978Y891478D01*
X1147342D01*
X1153390Y855390D02*
X1161122Y863122D01*
Y872187D01*
X1147146Y855390D02*
X1153390D01*
X1127500Y837000D02*
Y841256D01*
Y837000D02*
X1132500Y832000D01*
X1142500D01*
X1147146Y827354D01*
Y821890D02*
Y827354D01*
X1252854Y937146D02*
X1257500Y932500D01*
X1252854Y937146D02*
Y942610D01*
X1257500Y932500D02*
X1270000D01*
X1272146Y930354D01*
Y922890D02*
Y930354D01*
X1238878Y903878D02*
X1244110Y909110D01*
X1252854D01*
X1238878Y891978D02*
Y903878D01*
X1262500Y877500D02*
Y887500D01*
X1252844Y872500D02*
X1257500D01*
X1262500Y877500D01*
Y887500D02*
X1266978Y891978D01*
X1272342D01*
X1278390Y855890D02*
X1286122Y863622D01*
Y872687D01*
X1272146Y855890D02*
X1278390D01*
X1252500Y837500D02*
Y841756D01*
Y837500D02*
X1257500Y832500D01*
X1267500D01*
X1272146Y827854D01*
Y822390D02*
Y827854D01*
X1022146Y956390D02*
X1053610D01*
X1075000Y935000D01*
Y837500D02*
Y935000D01*
X1104390Y808110D02*
X1127854D01*
X1075000Y837500D02*
X1104390Y808110D01*
X1147146Y956390D02*
X1183610D01*
X1200000Y940000D01*
Y830000D02*
Y940000D01*
X1221390Y808610D02*
X1252854D01*
X1200000Y830000D02*
X1221390Y808610D01*
X1272146Y956390D02*
X1303610D01*
X1325000Y935000D01*
Y842500D02*
Y935000D01*
X973890Y808610D02*
X1002854D01*
X950000Y832500D02*
X973890Y808610D01*
X950000Y832500D02*
Y920000D01*
X1022146Y808610D02*
X1033610D01*
X1040000Y815000D01*
Y837500D01*
X1022146Y842110D02*
X1035390D01*
X1040000Y837500D01*
X1036122Y891978D02*
X1045522D01*
X1050000Y887500D01*
Y856721D02*
Y887500D01*
X1035390Y842110D02*
X1050000Y856721D01*
X1036122Y891978D02*
Y903878D01*
X1022146Y909110D02*
X1030890D01*
X1036122Y903878D01*
X1022146Y942610D02*
X1029890D01*
X1035000Y937500D01*
Y913221D02*
Y937500D01*
X1030890Y909110D02*
X1035000Y913221D01*
X1002658Y891978D02*
Y897657D01*
X1005000Y900000D01*
X1022146Y904646D02*
Y909110D01*
X1005000Y900000D02*
X1017500D01*
X1022146Y904646D01*
X1142500Y899500D02*
X1147146Y904146D01*
X1130000Y899500D02*
X1142500D01*
X1147146Y904146D02*
Y908610D01*
X1127658Y897157D02*
X1130000Y899500D01*
X1155890Y908610D02*
X1160000Y912720D01*
Y937000D01*
X1154890Y942110D02*
X1160000Y937000D01*
X1147146Y942110D02*
X1154890D01*
X1155890Y908610D02*
X1161122Y903378D01*
X1147146Y908610D02*
X1155890D01*
X1161122Y891478D02*
Y903378D01*
X1160390Y841610D02*
X1175000Y856221D01*
Y887000D01*
X1170522Y891478D02*
X1175000Y887000D01*
X1161122Y891478D02*
X1170522D01*
X1160390Y841610D02*
X1165000Y837000D01*
X1147146Y841610D02*
X1160390D01*
X1165000Y814500D02*
Y837000D01*
X1158610Y808110D02*
X1165000Y814500D01*
X1147146Y808110D02*
X1158610D01*
X1267500Y900000D02*
X1272146Y904646D01*
X1255000Y900000D02*
X1267500D01*
X1272146Y904646D02*
Y909110D01*
X1252658Y897657D02*
X1255000Y900000D01*
X1252658Y891978D02*
Y897657D01*
X1280890Y909110D02*
X1285000Y913221D01*
Y937500D01*
X1279890Y942610D02*
X1285000Y937500D01*
X1272146Y942610D02*
X1279890D01*
X1280890Y909110D02*
X1286122Y903878D01*
X1272146Y909110D02*
X1280890D01*
X1286122Y891978D02*
Y903878D01*
X1285390Y842110D02*
X1300000Y856721D01*
Y887500D01*
X1295522Y891978D02*
X1300000Y887500D01*
X1286122Y891978D02*
X1295522D01*
X1285390Y842110D02*
X1290000Y837500D01*
X1272146Y842110D02*
X1285390D01*
X1290000Y815000D02*
Y837500D01*
X1283610Y808610D02*
X1290000Y815000D01*
X1272146Y808610D02*
X1283610D01*
X1123110Y821890D02*
X1127854D01*
X1113610Y831390D02*
X1123110Y821890D01*
X1114500Y855890D02*
X1128354D01*
X1147610Y872610D02*
Y872687D01*
X1142500Y867500D02*
X1147610Y872610D01*
X1121390Y956390D02*
X1127854D01*
X1115000Y950000D02*
X1121390Y956390D01*
X1115000Y930000D02*
Y950000D01*
X1122110Y922890D02*
X1127854D01*
X1115000Y930000D02*
X1122110Y922890D01*
X1127390Y884890D02*
Y891978D01*
X1125000Y882500D02*
X1127390Y884890D01*
X1105000Y882500D02*
X1125000D01*
X1102500Y885000D02*
X1105000Y882500D01*
X1127658Y891478D02*
Y897157D01*
X1227500Y885000D02*
X1230000Y882500D01*
X1250000D01*
X1252390Y884890D01*
Y891978D01*
X977768Y885000D02*
X980268Y882500D01*
X1000268D01*
X1002658Y884890D01*
Y891978D01*
X989500Y856390D02*
X1003354D01*
X988610Y831890D02*
X998110Y822390D01*
X1002854D01*
X1239500Y856390D02*
X1253354D01*
X1238610Y831890D02*
X1248110Y822390D01*
X1252854D01*
X1267232Y867576D02*
X1272342Y872687D01*
X1017232Y867576D02*
X1022342Y872687D01*
X990000Y930000D02*
X997110Y922890D01*
X1002854D01*
X990000Y930000D02*
Y950000D01*
X996390Y956390D01*
X1002854D01*
X1240000Y930000D02*
X1247110Y922890D01*
X1252854D01*
X1240000Y930000D02*
Y950000D01*
X1246390Y956390D01*
X1252854D01*
X1113610Y855000D02*
X1114500Y855890D01*
X1238610Y831890D02*
Y872687D01*
X988610Y831890D02*
Y873187D01*
X1113610Y831390D02*
Y872687D01*
D13*
X912500Y812500D02*
D03*
Y950000D02*
D03*
X1362500D02*
D03*
Y812500D02*
D03*
D14*
X1325000Y842500D02*
D03*
X950000Y920000D02*
D03*
X1142500Y867500D02*
D03*
X1102500Y885000D02*
D03*
X1227500D02*
D03*
X977768D02*
D03*
X1267232Y867576D02*
D03*
X1017232D02*
D03*
X990000Y950000D02*
D03*
X1115000D02*
D03*
X1240000D02*
D03*
X1238610Y831890D02*
D03*
X1113610Y831390D02*
D03*
X988610Y831890D02*
D03*
M02*
