<?xml version="1.0" encoding="UTF-8" standalone="no"?>
<svg
   viewBox="0 0 358.97164 411.77949"
   width="358.97165"
   height="411.77948"
   version="1.1"
   id="svg400"
   sodipodi:docname="250624_NeuralNetworks_1A.svg"
   inkscape:version="1.2.2 (b0a84865, 2022-12-01)"
   xml:space="preserve"
   xmlns:inkscape="http://www.inkscape.org/namespaces/inkscape"
   xmlns:sodipodi="http://sodipodi.sourceforge.net/DTD/sodipodi-0.dtd"
   xmlns:xlink="http://www.w3.org/1999/xlink"
   xmlns="http://www.w3.org/2000/svg"
   xmlns:svg="http://www.w3.org/2000/svg"><sodipodi:namedview
     id="namedview402"
     pagecolor="#ffffff"
     bordercolor="#000000"
     borderopacity="0.25"
     inkscape:showpageshadow="2"
     inkscape:pageopacity="0.0"
     inkscape:pagecheckerboard="0"
     inkscape:deskcolor="#d1d1d1"
     showgrid="false"
     inkscape:zoom="0.53111435"
     inkscape:cx="-173.2207"
     inkscape:cy="-60.250679"
     inkscape:window-width="1601"
     inkscape:window-height="852"
     inkscape:window-x="0"
     inkscape:window-y="38"
     inkscape:window-maximized="0"
     inkscape:current-layer="layer2" /><desc
     id="desc198">250624_NeuralNetworks_1A.dxf - scale = 25.400000, origin = (0.000000, 0.000000), method = manual</desc><defs
     id="defs212"><rect
       x="-1837.2394"
       y="-1858.9391"
       width="5309.188"
       height="2061.4695"
       id="rect31398" /><marker
       id="DistanceX"
       orient="auto"
       refX="0"
       refY="0"
       style="overflow:visible"><path
         d="M 3,-3 -3,3 M 0,-5 V 5"
         style="stroke:#000000;stroke-width:0.5"
         id="path200" /></marker><pattern
       id="Hatch"
       patternUnits="userSpaceOnUse"
       width="8"
       height="8"
       x="0"
       y="0"><path
         d="M8 4 l-4,4"
         stroke="#000000"
         stroke-width="0.25"
         linecap="square"
         id="path203" /><path
         d="M6 2 l-4,4"
         stroke="#000000"
         stroke-width="0.25"
         linecap="square"
         id="path205" /><path
         d="M4 0 l-4,4"
         stroke="#000000"
         stroke-width="0.25"
         linecap="square"
         id="path207" /></pattern><symbol
       id="*MODEL_SPACE" /><symbol
       id="*PAPER_SPACE" /><rect
       x="-1837.2394"
       y="-1858.9391"
       width="6561.729"
       height="1866.2683"
       id="rect31412" /></defs><g
     inkscape:groupmode="layer"
     inkscape:label="0"
     id="g214"
     transform="translate(-970.11024,-616.62993)" /><g
     inkscape:groupmode="layer"
     inkscape:label="LAYER1"
     id="g244"
     style="display:inline"
     transform="translate(-970.11024,-616.62993)"><path
       style="fill:none;stroke:#008000;stroke-width:3.77953;stroke-linecap:round;stroke-dasharray:none"
       d="m 1008,882.52 v -144"
       id="path216"
       inkscape:export-filename="250624_NeuralNetworks_1A_GRN.png"
       inkscape:export-xdpi="300"
       inkscape:export-ydpi="300" /><path
       style="fill:none;stroke:#008000;stroke-width:3.77953;stroke-linecap:round;stroke-dasharray:none"
       d="m 1056,882.52 v -144"
       id="path220" /><path
       style="fill:none;stroke:#008000;stroke-width:3.77953;stroke-linecap:round;stroke-dasharray:none"
       d="m 1104,882.52 v -144"
       id="path226" /><path
       style="fill:none;stroke:#008000;stroke-width:3.77953;stroke-linecap:round;stroke-dasharray:none"
       d="m 1152,882.52 v -144"
       id="path228" /><path
       style="fill:none;stroke:#008000;stroke-width:3.77953;stroke-linecap:round;stroke-dasharray:none"
       d="m 1200,882.52 v -144"
       id="path232" /><path
       style="fill:none;stroke:#008000;stroke-width:3.77953;stroke-linecap:round;stroke-dasharray:none"
       d="m 1248,882.52 v -144"
       id="path236" /><path
       style="fill:none;stroke:#008000;stroke-width:3.77953;stroke-linecap:round;stroke-dasharray:none"
       d="m 1296,882.52 v -144"
       id="path240" /><path
       d="m 1008,882.51968 a 120,120 0 0 0 -24,-72"
       style="fill:none;stroke:#800000;stroke-width:3.77953;stroke-linecap:round;stroke-dasharray:none"
       id="path218" /><path
       d="m 1056,882.51968 a 120,120 0 0 0 -24,-72"
       style="fill:none;stroke:#800000;stroke-width:3.77953;stroke-linecap:round;stroke-dasharray:none"
       id="path222" /><path
       d="m 1104,882.51968 a 120,120 0 0 0 -24,-72"
       style="fill:none;stroke:#800000;stroke-width:3.77953;stroke-linecap:round;stroke-dasharray:none"
       id="path224" /><path
       d="m 1152,882.51968 a 120,120 0 0 0 -24,-72"
       style="fill:none;stroke:#800000;stroke-width:3.77953;stroke-linecap:round;stroke-dasharray:none"
       id="path230" /><path
       d="m 1200,882.51968 a 120,120 0 0 0 -24,-72"
       style="fill:none;stroke:#800000;stroke-width:3.77953;stroke-linecap:round;stroke-dasharray:none"
       id="path234" /><path
       d="m 1248,882.51968 a 120,120 0 0 0 -24,-72"
       style="fill:none;stroke:#800000;stroke-width:3.77953;stroke-linecap:round;stroke-dasharray:none"
       id="path238" /><path
       d="m 1296,882.51968 a 120,120 0 0 0 -24,-72"
       style="fill:none;stroke:#800000;stroke-width:3.77953;stroke-linecap:round;stroke-dasharray:none"
       id="path242" /></g><g
     inkscape:groupmode="layer"
     id="layer1"
     inkscape:label="0_IMAGES_1"
     style="display:none"
     transform="translate(-970.11024,-616.62993)"><image
       width="897.33331"
       height="858.66669"
       preserveAspectRatio="none"
       xlink:href="Screenshot%202025-06-24%20at%203.25.54%E2%80%AFPM.png"
       id="image2207"
       x="514.56421"
       y="987.32983"
       style="display:inline" /></g><g
     inkscape:groupmode="layer"
     inkscape:label="CONSTRUCTION"
     id="g246"
     transform="translate(-970.11024,-616.62993)" /><g
     inkscape:groupmode="layer"
     inkscape:label="DIMENSION"
     id="g248"
     transform="translate(-970.11024,-616.62993)" /><g
     inkscape:groupmode="layer"
     inkscape:label="CONSTRAINTS"
     id="g250"
     transform="translate(-970.11024,-616.62993)" /><g
     inkscape:groupmode="layer"
     inkscape:label="1_NN_B"
     id="g264"
     style="display:inline"
     transform="translate(-970.11024,-616.62993)"><path
       d="m 1152,642.51968 a 151.78933,151.78933 0 0 0 -96,96"
       style="fill:none;stroke:#1a1a1a;stroke-width:3.77953;stroke-linecap:round;stroke-dasharray:none"
       id="path252" /><path
       d="m 1152,642.51968 a 379.47332,379.47332 0 0 0 -48,96"
       style="fill:none;stroke:#333333;stroke-width:3.77953;stroke-linecap:round;stroke-dasharray:none"
       id="path254" /><path
       d="m 1296,738.51968 a 140.94723,140.94723 0 0 0 -144,-96"
       style="fill:none;stroke:#999999;stroke-width:3.77953;stroke-linecap:round;stroke-dasharray:none"
       id="path256" /><path
       d="m 1248,738.51968 a 151.78933,151.78933 0 0 0 -96,-96"
       style="fill:none;stroke:#808080;stroke-width:3.77953;stroke-linecap:round;stroke-dasharray:none"
       id="path258" /><path
       d="m 1200,738.51968 a 379.47332,379.47332 0 0 0 -48,-96"
       style="fill:none;stroke:#666666;stroke-width:3.77953;stroke-linecap:round;stroke-dasharray:none"
       id="path260" /><path
       d="m 1152,642.51968 a 140.94723,140.94723 0 0 0 -144,96"
       style="fill:none;stroke:#000000;stroke-width:3.77953;stroke-linecap:round;stroke-dasharray:none"
       id="path262" /><path
       style="fill:#0000f5;fill-opacity:1;stroke:#000000;stroke-width:3.77953;stroke-linecap:round;stroke-linejoin:round;stroke-miterlimit:10;stroke-dasharray:none;paint-order:stroke fill markers"
       d="m 1152,651.79031 v 84.0451"
       id="path29396" /></g><g
     inkscape:groupmode="layer"
     inkscape:label="0_NN_CONST"
     id="g266"
     style="display:none"
     transform="translate(-970.11024,-616.62993)" /><g
     inkscape:groupmode="layer"
     inkscape:label="2_NN_B"
     id="g284"
     style="display:inline"
     transform="translate(-970.11024,-616.62993)"><path
       d="m 1176,810.51968 a 600,600 0 0 0 -24,-168"
       style="fill:none;stroke:#808080;stroke-width:3.77953;stroke-linecap:round;stroke-dasharray:none"
       id="path268" /><path
       d="m 1152,642.51968 a 600,600 0 0 0 -24,168"
       style="fill:none;stroke:#666666;stroke-width:3.77953;stroke-linecap:round;stroke-dasharray:none"
       id="path270" /><path
       d="m 1224,810.51968 a 137.55908,137.55908 0 0 0 -72,-168"
       style="fill:none;stroke:#999999;stroke-width:3.77953;stroke-linecap:round;stroke-dasharray:none"
       id="path272" /><path
       d="m 1272,810.51968 a 127.64103,127.64103 0 0 0 -120,-168"
       style="fill:none;stroke:#b3b3b3;stroke-width:3.77953;stroke-linecap:round;stroke-dasharray:none"
       id="path274" /><path
       d="m 1152,642.51968 a 132.81566,132.81566 0 0 0 -168,168"
       style="fill:none;stroke:#1a1a1a;stroke-width:3.77953;stroke-linecap:round;stroke-dasharray:none"
       id="path276" /><path
       d="m 1152,642.51968 a 127.64103,127.64103 0 0 0 -120,168"
       style="fill:none;stroke:#333333;stroke-width:3.77953;stroke-linecap:round;stroke-dasharray:none"
       id="path278" /><path
       d="m 1152,642.51968 a 137.55908,137.55908 0 0 0 -72,168"
       style="fill:none;stroke:#4d4d4d;stroke-width:3.77953;stroke-linecap:round;stroke-dasharray:none"
       id="path280" /><path
       style="fill:none;stroke:#4d4d4d;stroke-width:3.77953;stroke-linecap:round;stroke-dasharray:none"
       d="m 1152,642.52 v 96"
       id="path282" /></g><g
     inkscape:groupmode="layer"
     inkscape:label="4_NN_B"
     id="g300"
     style="display:inline"
     transform="translate(-970.11024,-616.62993)"><path
       style="fill:none;stroke:#008000;stroke-width:3.77953;stroke-linecap:round;stroke-dasharray:none"
       d="m 1056,882.52 v 72"
       id="path286" /><path
       style="fill:none;stroke:#008000;stroke-width:3.77953;stroke-linecap:round;stroke-dasharray:none"
       d="m 1104,882.52 v 72"
       id="path288" /><path
       style="fill:none;stroke:#008000;stroke-width:3.77953;stroke-linecap:round;stroke-dasharray:none"
       d="m 1152,882.52 v 72"
       id="path290" /><path
       style="fill:none;stroke:#008000;stroke-width:3.77953;stroke-linecap:round;stroke-dasharray:none"
       d="m 1200,882.52 v 72"
       id="path292" /><path
       style="fill:none;stroke:#008000;stroke-width:3.77953;stroke-linecap:round;stroke-dasharray:none"
       d="m 1248,882.52 v 72"
       id="path294" /><path
       style="fill:none;stroke:#008000;stroke-width:3.77953;stroke-linecap:round;stroke-dasharray:none"
       d="m 1296,882.52 v 72"
       id="path296" /><path
       style="fill:none;stroke:#008000;stroke-width:3.77953;stroke-linecap:round;stroke-dasharray:none"
       d="m 1008,882.52 v 72"
       id="path298" /></g><g
     inkscape:groupmode="layer"
     inkscape:label="3_NN_B"
     id="g302"
     style="display:inline"
     transform="translate(-970.11024,-616.62993)" /><g
     inkscape:groupmode="layer"
     inkscape:label="5_NN_B"
     id="g330"
     style="display:inline"
     transform="translate(-970.11024,-616.62993)"><path
       d="m 1248,954.51968 a 24,24 0 0 0 48,0"
       style="fill:none;stroke:#008000;stroke-width:3.77953;stroke-linecap:round;stroke-dasharray:none"
       id="path312" /><path
       d="m 1008,954.51968 a 24,24 0 0 0 48,0"
       style="fill:none;stroke:#008000;stroke-width:3.77953;stroke-linecap:round;stroke-dasharray:none"
       id="path314" /><path
       d="m 1056,954.51968 a 24,24 0 0 0 48,0"
       style="fill:none;stroke:#008000;stroke-width:3.77953;stroke-linecap:round;stroke-dasharray:none"
       id="path316" /><path
       d="m 1104,954.51968 a 24,24 0 0 0 48,0"
       style="fill:none;stroke:#008000;stroke-width:3.77953;stroke-linecap:round;stroke-dasharray:none"
       id="path318" /><path
       d="m 1200,954.51968 a 24,24 0 0 0 48,0"
       style="fill:none;stroke:#008000;stroke-width:3.77953;stroke-linecap:round;stroke-dasharray:none"
       id="path324" /><path
       d="m 1152,954.51968 a 24,24 0 0 0 48,0"
       style="fill:none;stroke:#008000;stroke-width:3.77953;stroke-linecap:round;stroke-dasharray:none"
       id="path326" /><path
       d="m 1152,954.51968 a 72,72 0 0 0 144,0"
       style="fill:none;stroke:#800000;stroke-width:3.77953;stroke-linecap:round;stroke-dasharray:none"
       id="path304" /><path
       d="m 1008,954.51968 a 72,72 0 0 0 144,0"
       style="fill:none;stroke:#800000;stroke-width:3.77953;stroke-linecap:round;stroke-dasharray:none"
       id="path306" /><path
       d="m 1200,954.51968 a 48,48 0 0 0 96,0"
       style="fill:none;stroke:#800000;stroke-width:3.77953;stroke-linecap:round;stroke-dasharray:none"
       id="path308" /><path
       d="m 1152,954.51968 a 48,48 0 0 0 96,0"
       style="fill:none;stroke:#800000;stroke-width:3.77953;stroke-linecap:round;stroke-dasharray:none"
       id="path310" /><path
       d="m 1104,954.51968 a 48,48 0 0 0 96,0"
       style="fill:none;stroke:#800000;stroke-width:3.77953;stroke-linecap:round;stroke-dasharray:none"
       id="path320" /><path
       d="m 1008,954.51968 a 48,48 0 0 0 96,0"
       style="fill:none;stroke:#800000;stroke-width:3.77953;stroke-linecap:round;stroke-dasharray:none"
       id="path322" /><path
       d="m 1056,954.51968 a 48,48 0 0 0 96,0"
       style="fill:none;stroke:#800000;stroke-width:3.77953;stroke-linecap:round;stroke-dasharray:none"
       id="path328" /></g><g
     inkscape:groupmode="layer"
     inkscape:label="0_NN_A"
     id="g334"
     transform="translate(-970.11024,-616.62993)"><path
       d="m 1176,642.51968 a 24,24 0 0 0 -48,0 24,24 0 0 0 48,0 z"
       style="fill:#7dfb4c;fill-opacity:1;stroke:#000000;stroke-width:3.77953;stroke-linecap:round;stroke-dasharray:none"
       id="path332" /></g><g
     inkscape:groupmode="layer"
     inkscape:label="1_NN_A"
     id="g350"
     transform="translate(-970.11024,-616.62993)"><path
       d="m 1116,738.51968 a 12,12 0 0 0 -24,0 12,12 0 0 0 24,0 z"
       style="fill:#f2bf41;fill-opacity:1;stroke:#000000;stroke-width:3.77953;stroke-linecap:round;stroke-dasharray:none"
       id="path336" /><path
       d="m 1068,738.51968 a 12,12 0 0 0 -24,0 12,12 0 0 0 24,0 z"
       style="fill:#e95d2a;fill-opacity:1;stroke:#000000;stroke-width:3.77953;stroke-linecap:round;stroke-dasharray:none"
       id="path338" /><path
       d="m 1020,738.51968 a 12,12 0 0 0 -24,0 12,12 0 0 0 24,0 z"
       style="fill:#e53c23;fill-opacity:1;stroke:#000000;stroke-width:3.77953;stroke-linecap:round;stroke-dasharray:none"
       id="path340" /><path
       d="m 1308,738.51968 a 12,12 0 0 0 -24,0 12,12 0 0 0 24,0 z"
       style="fill:#2050f5;fill-opacity:1;stroke:#000000;stroke-width:3.77953;stroke-linecap:round;stroke-dasharray:none"
       id="path342" /><path
       d="m 1260,738.51968 a 12,12 0 0 0 -24,0 12,12 0 0 0 24,0 z"
       style="fill:#55bbf9;fill-opacity:1;stroke:#000000;stroke-width:3.77953;stroke-linecap:round;stroke-dasharray:none"
       id="path344" /><path
       d="m 1212,738.51968 a 12,12 0 0 0 -24,0 12,12 0 0 0 24,0 z"
       style="fill:#75fb89;fill-opacity:1;stroke:#000000;stroke-width:3.77953;stroke-linecap:round;stroke-dasharray:none"
       id="path346" /><path
       d="m 1164,738.51968 a 12,12 0 0 0 -24,0 12,12 0 0 0 24,0 z"
       style="fill:#9cfa4d;fill-opacity:1;stroke:#000000;stroke-width:3.77953;stroke-linecap:round;stroke-dasharray:none"
       id="path348" /></g><g
     inkscape:groupmode="layer"
     inkscape:label="2_NN_A"
     id="g366"
     transform="translate(-970.11024,-616.62993)"><path
       d="m 996,810.51968 a 12,12 0 0 0 -24,0 12,12 0 0 0 24,0 z"
       style="fill:#ea5e2a;fill-opacity:1;stroke:#000000;stroke-width:3.77953;stroke-linecap:round;stroke-dasharray:none"
       id="path352" /><path
       d="m 1044,810.51968 a 12,12 0 0 0 -24,0 12,12 0 0 0 24,0 z"
       style="fill:#f5c142;fill-opacity:1;stroke:#000000;stroke-width:3.77953;stroke-linecap:round;stroke-dasharray:none"
       id="path354" /><path
       d="m 1092,810.51968 a 12,12 0 0 0 -24,0 12,12 0 0 0 24,0 z"
       style="fill:#9dfc4e;fill-opacity:1;stroke:#000000;stroke-width:3.77953;stroke-linecap:round;stroke-dasharray:none"
       id="path356" /><path
       d="m 1140,810.51968 a 12,12 0 0 0 -24,0 12,12 0 0 0 24,0 z"
       style="fill:#75fb89;fill-opacity:1;stroke:#000000;stroke-width:3.77953;stroke-linecap:round;stroke-dasharray:none"
       id="path358" /><path
       d="m 1188,810.51968 a 12,12 0 0 0 -24,0 12,12 0 0 0 24,0 z"
       style="fill:#75fbe7;fill-opacity:1;stroke:#000000;stroke-width:3.77953;stroke-linecap:round;stroke-dasharray:none"
       id="path360" /><path
       d="m 1236,810.51968 a 12,12 0 0 0 -24,0 12,12 0 0 0 24,0 z"
       style="fill:#2050f5;fill-opacity:1;stroke:#000000;stroke-width:3.77953;stroke-linecap:round;stroke-dasharray:none"
       id="path362" /><path
       d="m 1284,810.51968 a 12,12 0 0 0 -24,0 12,12 0 0 0 24,0 z"
       style="fill:#081ef5;fill-opacity:1;stroke:#000000;stroke-width:3.77953;stroke-linecap:round;stroke-dasharray:none"
       id="path364" /></g><g
     inkscape:groupmode="layer"
     inkscape:label="3_NN_A"
     id="g382"
     transform="translate(-970.11024,-616.62993)"><path
       d="m 1308,882.51968 a 12,12 0 0 0 -24,0 12,12 0 0 0 24,0 z"
       style="fill:#357af6;fill-opacity:1;stroke:#000000;stroke-width:3.77953;stroke-linecap:round;stroke-dasharray:none"
       id="path368" /><path
       d="m 1260,882.51968 a 12,12 0 0 0 -24,0 12,12 0 0 0 24,0 z"
       style="fill:#73f7fd;fill-opacity:1;stroke:#000000;stroke-width:3.77953;stroke-linecap:round;stroke-dasharray:none"
       id="path370" /><path
       d="m 1212,882.51968 a 12,12 0 0 0 -24,0 12,12 0 0 0 24,0 z"
       style="fill:#75fb81;fill-opacity:1;stroke:#000000;stroke-width:3.77953;stroke-linecap:round;stroke-dasharray:none"
       id="path372" /><path
       d="m 1164,882.51968 a 12,12 0 0 0 -24,0 12,12 0 0 0 24,0 z"
       style="fill:#75fb59;fill-opacity:1;stroke:#000000;stroke-width:3.77953;stroke-linecap:round;stroke-dasharray:none"
       id="path374" /><path
       d="m 1116,882.51968 a 12,12 0 0 0 -24,0 12,12 0 0 0 24,0 z"
       style="fill:#75fb81;fill-opacity:1;stroke:#000000;stroke-width:3.77953;stroke-linecap:round;stroke-dasharray:none"
       id="path376" /><path
       d="m 1068,882.51968 a 12,12 0 0 0 -24,0 12,12 0 0 0 24,0 z"
       style="fill:#73f7fd;fill-opacity:1;stroke:#000000;stroke-width:3.77953;stroke-linecap:round;stroke-dasharray:none"
       id="path378" /><path
       d="m 1020,882.51968 a 12,12 0 0 0 -24,0 12,12 0 0 0 24,0 z"
       style="fill:#357af6;fill-opacity:1;stroke:#000000;stroke-width:3.77953;stroke-linecap:round;stroke-dasharray:none"
       id="path380" /></g><g
     inkscape:groupmode="layer"
     inkscape:label="5_NN_A"
     id="g398"
     transform="translate(-970.11024,-616.62993)"><path
       d="m 1308,954.51968 a 12,12 0 0 0 -24,0 12,12 0 0 0 24,0 z"
       style="fill:#0000f5;fill-opacity:1;stroke:#000000;stroke-width:3.77953;stroke-linecap:round;stroke-dasharray:none"
       id="path384" /><path
       d="m 1260,954.51968 a 12,12 0 0 0 -24,0 12,12 0 0 0 24,0 z"
       style="fill:#0106f5;fill-opacity:1;stroke:#000000;stroke-width:3.77953;stroke-linecap:round;stroke-dasharray:none"
       id="path386" /><path
       d="m 1212,954.51968 a 12,12 0 0 0 -24,0 12,12 0 0 0 24,0 z"
       style="fill:#9ffc4e;fill-opacity:1;stroke:#000000;stroke-width:3.77953;stroke-linecap:round;stroke-dasharray:none"
       id="path388" /><path
       d="m 1164,954.51968 a 12,12 0 0 0 -24,0 12,12 0 0 0 24,0 z"
       style="fill:#ea4225;fill-opacity:1;stroke:#000000;stroke-width:3.77953;stroke-linecap:round;stroke-dasharray:none"
       id="path390" /><path
       d="m 1116,954.51968 a 12,12 0 0 0 -24,0 12,12 0 0 0 24,0 z"
       style="fill:#9ffc4e;fill-opacity:1;stroke:#000000;stroke-width:3.77953;stroke-linecap:round;stroke-dasharray:none"
       id="path392" /><path
       d="m 1068,954.51968 a 12,12 0 0 0 -24,0 12,12 0 0 0 24,0 z"
       style="fill:#0106f5;fill-opacity:1;stroke:#000000;stroke-width:3.77953;stroke-linecap:round;stroke-dasharray:none"
       id="path394" /><path
       d="m 1020,954.51968 a 12,12 0 0 0 -24,0 12,12 0 0 0 24,0 z"
       style="fill:#0000f5;fill-opacity:1;stroke:#000000;stroke-width:3.77953;stroke-linecap:round;stroke-dasharray:none"
       id="path396" /></g><g
     inkscape:groupmode="layer"
     id="layer2"
     inkscape:label="6_COPYRIGHT_1"
     transform="translate(-970.11024,-616.62993)"><text
       xml:space="preserve"
       id="text31396"
       style="font-style:normal;font-variant:normal;font-weight:normal;font-stretch:normal;font-size:336.113px;font-family:'Arial Rounded MT Bold';-inkscape-font-specification:'Arial Rounded MT Bold, Normal';font-variant-ligatures:normal;font-variant-caps:normal;font-variant-numeric:normal;font-variant-east-asian:normal;text-align:center;white-space:pre;shape-inside:url(#rect31398);display:inline;fill:#f0fff0;fill-opacity:1;stroke:none;stroke-width:3.77953;stroke-linecap:round;stroke-linejoin:round;stroke-miterlimit:10;stroke-dasharray:none;paint-order:stroke fill markers"
       transform="matrix(0,-0.04437368,0.04437368,0,1055.7444,956.94346)"><tspan
         x="-1119.3982"
         y="-1556.0484"
         id="tspan31915"><tspan
           dx="0 0 0 0 0 0 0 0 0.00010681152 0 0 0 0 -0.00012207031 0 0.0001373291 -0.00010681152 0 0 0.00010681152"
           id="tspan31913">brian90254@gmail.com</tspan></tspan></text><text
       xml:space="preserve"
       id="text31410"
       style="font-style:normal;font-variant:normal;font-weight:normal;font-stretch:normal;font-size:336.113px;font-family:'Arial Rounded MT Bold';-inkscape-font-specification:'Arial Rounded MT Bold, Normal';font-variant-ligatures:normal;font-variant-caps:normal;font-variant-numeric:normal;font-variant-east-asian:normal;text-align:center;white-space:pre;shape-inside:url(#rect31412);display:inline;fill:#f0fff0;fill-opacity:1;stroke:none;stroke-width:3.77953;stroke-linecap:round;stroke-linejoin:round;stroke-miterlimit:10;stroke-dasharray:none;paint-order:stroke fill markers"
       transform="matrix(0,-0.04437368,0.04437368,0,1394.998,915.79993)"><tspan
         x="-613.01569"
         y="-1556.0484"
         id="tspan31919"><tspan
           dx="0 0 0 0 0 0 0 0 0 0 0 0 0.00010681152 0 0 -0.00018310547 0.0001373291 0 0.00010681152 0 -0.00017547607 0 0 0.00022888184"
           id="tspan31917">Brian Cox copyright 2025</tspan></tspan></text></g></svg>
