%FSLAX25Y25*%
%MOIN*%
G70*
G01*
G75*
G04 Layer_Color=65535*
%ADD10P,0.08352X4X243.0*%
G04:AMPARAMS|DCode=11|XSize=80mil|YSize=50mil|CornerRadius=0mil|HoleSize=0mil|Usage=FLASHONLY|Rotation=288.000|XOffset=0mil|YOffset=0mil|HoleType=Round|Shape=Rectangle|*
%AMROTATEDRECTD11*
4,1,4,-0.03614,0.03032,0.01142,0.04577,0.03614,-0.03032,-0.01142,-0.04577,-0.03614,0.03032,0.0*
%
%ADD11ROTATEDRECTD11*%

%ADD12C,0.02500*%
%ADD13C,0.05000*%
%ADD14C,0.00100*%
%ADD15C,0.16500*%
%ADD16C,0.04000*%
%ADD17R,0.17716X0.12205*%
%ADD18C,0.01000*%
D14*
X300000Y400000D02*
Y472400D01*
X467300D01*
Y400000D02*
Y472400D01*
X300000Y400000D02*
X467300D01*
D18*
X467000Y412500D02*
G03*
X467000Y412500I-12000J0D01*
G01*
X324500Y460000D02*
G03*
X324500Y460000I-12000J0D01*
G01*
X419510Y456226D02*
G03*
X419510Y456226I-984J0D01*
G01*
X368210Y439126D02*
G03*
X368210Y439126I-984J0D01*
G01*
X316810Y422026D02*
G03*
X316810Y422026I-984J0D01*
G01*
X300000Y400000D02*
Y472400D01*
X467300D01*
Y400000D02*
Y472400D01*
X425031Y452131D02*
X430086Y462052D01*
X432425Y442114D02*
X443658Y445764D01*
X426342Y460836D02*
X437575Y464486D01*
X443752Y458214D02*
X444969Y454469D01*
X425031Y452131D02*
X426248Y448386D01*
X419204Y441926D02*
X421994Y433337D01*
X405796Y428074D02*
X421994Y433337D01*
X403006Y436663D02*
X405796Y428074D01*
X403006Y436663D02*
X419204Y441926D01*
X373731Y435031D02*
X378786Y444952D01*
X381125Y425014D02*
X392358Y428664D01*
X375042Y443736D02*
X386275Y447386D01*
X392453Y441114D02*
X393669Y437369D01*
X373731Y435031D02*
X374948Y431286D01*
X361703Y444426D02*
X364494Y435837D01*
X348296Y430574D02*
X364494Y435837D01*
X345506Y439163D02*
X348296Y430574D01*
X345506Y439163D02*
X361703Y444426D01*
X322331Y417931D02*
X327386Y427852D01*
X329725Y407914D02*
X340958Y411564D01*
X323642Y426636D02*
X334875Y430286D01*
X341053Y424014D02*
X342269Y420269D01*
X322331Y417931D02*
X323548Y414186D01*
X300000Y400000D02*
X467300D01*
X358332Y429165D02*
X357499Y429998D01*
X355833D01*
X355000Y429165D01*
Y425833D01*
X355833Y425000D01*
X357499D01*
X358332Y425833D01*
X359998Y425000D02*
X361665D01*
X360831D01*
Y429998D01*
X359998Y429165D01*
X406832Y449565D02*
X405999Y450398D01*
X404333D01*
X403500Y449565D01*
Y446233D01*
X404333Y445400D01*
X405999D01*
X406832Y446233D01*
X411831Y445400D02*
X408498D01*
X411831Y448732D01*
Y449565D01*
X410998Y450398D01*
X409331D01*
X408498Y449565D01*
X312500Y412498D02*
Y407500D01*
X314999D01*
X315832Y408333D01*
Y411665D01*
X314999Y412498D01*
X312500D01*
X317498Y407500D02*
X319164D01*
X318331D01*
Y412498D01*
X317498Y411665D01*
X387500Y422498D02*
Y417500D01*
X389999D01*
X390832Y418333D01*
Y421665D01*
X389999Y422498D01*
X387500D01*
X395831Y417500D02*
X392498D01*
X395831Y420832D01*
Y421665D01*
X394998Y422498D01*
X393331D01*
X392498Y421665D01*
X450176Y463689D02*
Y458690D01*
X452675D01*
X453508Y459523D01*
Y462856D01*
X452675Y463689D01*
X450176D01*
X455174Y462856D02*
X456007Y463689D01*
X457673D01*
X458506Y462856D01*
Y462023D01*
X457673Y461190D01*
X456840D01*
X457673D01*
X458506Y460356D01*
Y459523D01*
X457673Y458690D01*
X456007D01*
X455174Y459523D01*
M02*
