%FSLAX25Y25*%
%MOIN*%
G70*
G01*
G75*
G04 Layer_Physical_Order=2*
G04 Layer_Color=65280*
%ADD10P,0.08352X4X243.0*%
G04:AMPARAMS|DCode=11|XSize=80mil|YSize=50mil|CornerRadius=0mil|HoleSize=0mil|Usage=FLASHONLY|Rotation=288.000|XOffset=0mil|YOffset=0mil|HoleType=Round|Shape=Rectangle|*
%AMROTATEDRECTD11*
4,1,4,-0.03614,0.03032,0.01142,0.04577,0.03614,-0.03032,-0.01142,-0.04577,-0.03614,0.03032,0.0*
%
%ADD11ROTATEDRECTD11*%

%ADD12C,0.02500*%
%ADD13C,0.05000*%
%ADD14C,0.00100*%
%ADD15C,0.16500*%
%ADD16C,0.04000*%
%ADD17R,0.17716X0.12205*%
G36*
X465000Y427254D02*
X463677Y426546D01*
X463268Y426820D01*
X461328Y427777D01*
X459280Y428472D01*
X457158Y428894D01*
X455000Y429035D01*
X452842Y428894D01*
X450720Y428472D01*
X448672Y427777D01*
X446732Y426820D01*
X444934Y425618D01*
X443308Y424192D01*
X441882Y422566D01*
X440680Y420768D01*
X439723Y418828D01*
X439028Y416780D01*
X438606Y414658D01*
X438465Y412500D01*
X438606Y410342D01*
X439028Y408220D01*
X439723Y406172D01*
X440680Y404232D01*
X440953Y403823D01*
X440246Y402500D01*
X408215D01*
Y402898D01*
X408215D01*
Y418646D01*
Y422219D01*
X411755D01*
X413237Y420737D01*
X414150Y419987D01*
X415193Y419430D01*
X416324Y419087D01*
X417500Y418971D01*
X418676Y419087D01*
X419807Y419430D01*
X420850Y419987D01*
X421763Y420737D01*
X422513Y421651D01*
X423070Y422693D01*
X423413Y423824D01*
X423529Y425000D01*
X423413Y426176D01*
X423070Y427307D01*
X422513Y428349D01*
X421763Y429263D01*
X418515Y432511D01*
D01*
X418515Y432511D01*
D01*
D01*
D01*
X418515Y432511D01*
X418515Y432511D01*
X417601Y433261D01*
X416559Y433818D01*
Y433818D01*
X416559D01*
D01*
D01*
D01*
D01*
X416559D01*
Y433818D01*
D01*
D01*
X416559Y433818D01*
X416559Y433818D01*
X416559Y433818D01*
D01*
X415428Y434161D01*
X414252Y434277D01*
X408215D01*
Y437850D01*
X358892D01*
Y436594D01*
X357506Y436020D01*
X346763Y446763D01*
X345849Y447513D01*
X344807Y448070D01*
X343676Y448413D01*
X342500Y448529D01*
X341324Y448413D01*
X340193Y448070D01*
X339151Y447513D01*
X338237Y446763D01*
X337487Y445850D01*
X336930Y444807D01*
X336587Y443676D01*
X336471Y442500D01*
X336587Y441324D01*
X336930Y440193D01*
X337487Y439150D01*
X338237Y438237D01*
X348738Y427736D01*
X348559Y427144D01*
X348443Y425968D01*
Y415528D01*
X348559Y414352D01*
X348902Y413221D01*
X349459Y412179D01*
X350209Y411265D01*
X351122Y410515D01*
X352165Y409958D01*
X352694Y409797D01*
X353153Y408369D01*
X352696Y407774D01*
X352142Y406436D01*
X351953Y405000D01*
X352133Y403628D01*
X351144Y402500D01*
X302500D01*
Y445246D01*
X303823Y445954D01*
X304232Y445680D01*
X306172Y444723D01*
X308220Y444028D01*
X310342Y443606D01*
X312500Y443465D01*
X314658Y443606D01*
X316780Y444028D01*
X318828Y444723D01*
X320768Y445680D01*
X322566Y446882D01*
X324192Y448308D01*
X325618Y449934D01*
X326820Y451732D01*
X327777Y453672D01*
X328472Y455720D01*
X328894Y457842D01*
X329035Y460000D01*
X328894Y462158D01*
X328472Y464280D01*
X327777Y466328D01*
X326820Y468268D01*
X326547Y468677D01*
X327254Y470000D01*
X358892D01*
Y469346D01*
X358892D01*
Y450142D01*
X408215D01*
Y461050D01*
X409342Y462039D01*
X410000Y461952D01*
X411436Y462142D01*
X412774Y462696D01*
X413923Y463577D01*
X414804Y464726D01*
X415358Y466064D01*
X415548Y467500D01*
X415358Y468936D01*
X416070Y470000D01*
X465000D01*
Y427254D01*
D02*
G37*
D12*
X371250Y459744D02*
X395856D01*
X357500Y405000D02*
X360000D01*
X367500Y412500D01*
X395856D01*
X411496Y443996D02*
X412500Y445000D01*
Y460000D01*
X405000Y467500D02*
X410000D01*
X400000Y462500D02*
X405000Y467500D01*
X398612Y462500D02*
X400000D01*
X395856Y459744D02*
X398612Y462500D01*
X352500Y450000D02*
X358504Y443996D01*
X411496D01*
D13*
X342500Y442500D02*
X356752Y428248D01*
X354472Y415528D02*
Y425968D01*
X356752Y428248D01*
X414252D02*
X417500Y425000D01*
X356752Y428248D02*
X414252D01*
D14*
X300000Y400000D02*
Y472400D01*
X467300D01*
Y400000D02*
Y472400D01*
X300000Y400000D02*
X467300D01*
D15*
X455000Y412500D02*
D03*
X312500Y460000D02*
D03*
D16*
X352500Y450000D02*
D03*
X354472Y415528D02*
D03*
X357500Y405000D02*
D03*
X410000Y467500D02*
D03*
X412500Y445000D02*
D03*
Y460000D02*
D03*
X342500Y442500D02*
D03*
X417500Y425000D02*
D03*
D17*
X395856Y459744D02*
D03*
Y443996D02*
D03*
Y428248D02*
D03*
X371250Y459744D02*
D03*
Y443996D02*
D03*
Y428248D02*
D03*
X395856Y412500D02*
D03*
X371250D02*
D03*
M02*
