%FSLAX25Y25*%
%MOIN*%
G70*
G01*
G75*
G04 Layer_Physical_Order=1*
G04 Layer_Color=255*
%ADD10P,0.08352X4X243.0*%
G04:AMPARAMS|DCode=11|XSize=80mil|YSize=50mil|CornerRadius=0mil|HoleSize=0mil|Usage=FLASHONLY|Rotation=288.000|XOffset=0mil|YOffset=0mil|HoleType=Round|Shape=Rectangle|*
%AMROTATEDRECTD11*
4,1,4,-0.03614,0.03032,0.01142,0.04577,0.03614,-0.03032,-0.01142,-0.04577,-0.03614,0.03032,0.0*
%
%ADD11ROTATEDRECTD11*%

%ADD12C,0.02500*%
%ADD13C,0.05000*%
%ADD14C,0.00100*%
%ADD15C,0.16500*%
%ADD16C,0.04000*%
G36*
X465000Y427254D02*
X463677Y426546D01*
X463268Y426820D01*
X461328Y427777D01*
X459280Y428472D01*
X457158Y428894D01*
X455000Y429035D01*
X452842Y428894D01*
X450720Y428472D01*
X448672Y427777D01*
X446732Y426820D01*
X444934Y425618D01*
X443308Y424192D01*
X441882Y422566D01*
X440680Y420768D01*
X439723Y418828D01*
X439028Y416780D01*
X438606Y414658D01*
X438465Y412500D01*
X438606Y410342D01*
X439028Y408220D01*
X439723Y406172D01*
X440680Y404232D01*
X440953Y403823D01*
X440246Y402500D01*
X363856D01*
X362867Y403628D01*
X363048Y405000D01*
X362858Y406436D01*
X362304Y407774D01*
X361423Y408923D01*
X360274Y409804D01*
X358936Y410358D01*
X357500Y410547D01*
X356064Y410358D01*
X354726Y409804D01*
X354709Y409791D01*
X331967D01*
X329456Y417520D01*
X329456Y417520D01*
X329456D01*
X329398Y417698D01*
X329128Y418529D01*
D01*
D01*
D01*
D01*
X329128Y418529D01*
D01*
D01*
X329128D01*
X325788Y428808D01*
Y434013D01*
X336984Y445209D01*
X349709D01*
X349726Y445196D01*
X351064Y444642D01*
X351086Y444639D01*
X352669Y443055D01*
X356585Y431004D01*
X355703Y429791D01*
X346985D01*
X345161Y431615D01*
X343487Y436764D01*
X331214Y432776D01*
X335202Y420502D01*
X340878Y422347D01*
X341612Y421612D01*
X342604Y420851D01*
X343760Y420372D01*
X345000Y420209D01*
X371969D01*
X372513Y418536D01*
X384786Y422524D01*
X380798Y434798D01*
X380798Y434798D01*
X380798D01*
X380528Y435629D01*
X380471Y435807D01*
X380471Y435807D01*
X380471D01*
X376540Y447903D01*
X364937Y444133D01*
X363619Y448187D01*
X361709Y447566D01*
X357861Y451414D01*
X357858Y451436D01*
X357304Y452774D01*
X356423Y453923D01*
X355274Y454804D01*
X353936Y455358D01*
X352500Y455548D01*
X351064Y455358D01*
X349726Y454804D01*
X349709Y454791D01*
X335000D01*
X333760Y454628D01*
X332943Y454289D01*
X332605Y454149D01*
X331612Y453388D01*
X317610Y439385D01*
X316848Y438393D01*
X316370Y437237D01*
X316206Y435997D01*
Y427900D01*
X312866Y426815D01*
X316797Y414718D01*
X316797Y414718D01*
X316797D01*
X316854Y414541D01*
X317125Y413710D01*
Y413710D01*
X317125Y413710D01*
Y413710D01*
D01*
X320373Y403714D01*
X319491Y402500D01*
X302500D01*
Y445246D01*
X303823Y445954D01*
X304232Y445680D01*
X306172Y444723D01*
X308220Y444028D01*
X310342Y443606D01*
X312500Y443465D01*
X314658Y443606D01*
X316780Y444028D01*
X318828Y444723D01*
X320768Y445680D01*
X322566Y446882D01*
X324192Y448308D01*
X325618Y449934D01*
X326820Y451732D01*
X327777Y453672D01*
X328472Y455720D01*
X328894Y457842D01*
X329035Y460000D01*
X328894Y462158D01*
X328472Y464280D01*
X327777Y466328D01*
X326820Y468268D01*
X326547Y468677D01*
X327254Y470000D01*
X403644D01*
X404633Y468872D01*
X404453Y467500D01*
X404642Y466064D01*
X405196Y464726D01*
X406077Y463577D01*
X407226Y462696D01*
X407599Y462541D01*
X407142Y461436D01*
X406952Y460000D01*
X407142Y458564D01*
X407152Y458538D01*
X406319Y457291D01*
X397511D01*
X396271Y457128D01*
X395116Y456649D01*
X394124Y455888D01*
X390758Y452523D01*
X382614Y449876D01*
X386602Y437602D01*
X398875Y441590D01*
X397527Y445740D01*
X399496Y447709D01*
X406319D01*
X407152Y446462D01*
X407142Y446436D01*
X406952Y445000D01*
X407142Y443564D01*
X407696Y442226D01*
X408577Y441077D01*
X409726Y440196D01*
X410373Y439928D01*
X414342Y427713D01*
X425755Y431421D01*
X424658Y434795D01*
X425339Y436132D01*
X436086Y439624D01*
X432156Y451720D01*
X432156Y451720D01*
X432156D01*
X432098Y451898D01*
X431828Y452729D01*
D01*
X431828Y452729D01*
D01*
X428980Y461495D01*
X429862Y462709D01*
X435300D01*
X437902Y454702D01*
X450176Y458690D01*
X446895Y468786D01*
X447777Y470000D01*
X465000D01*
Y427254D01*
D02*
G37*
D10*
X442044Y462833D02*
D03*
X446303Y449728D02*
D03*
X423697Y456872D02*
D03*
X427955Y443767D02*
D03*
X390744Y445733D02*
D03*
X395003Y432628D02*
D03*
X372397Y439772D02*
D03*
X376656Y426667D02*
D03*
X339345Y428633D02*
D03*
X343603Y415528D02*
D03*
X320997Y422672D02*
D03*
X325255Y409567D02*
D03*
D11*
X407269Y433300D02*
D03*
X417731Y436700D02*
D03*
X349769Y435800D02*
D03*
X360231Y439200D02*
D03*
D12*
X339345Y428633D02*
X341367D01*
X345000Y425000D01*
X374989D01*
X376656Y426667D01*
X437378Y467500D02*
X442044Y462833D01*
X410000Y467500D02*
X437378D01*
X360231Y439200D02*
Y442269D01*
X420000Y447500D02*
X424222D01*
X427955Y443767D01*
X415000Y452500D02*
X420000Y447500D01*
X390744Y445733D02*
X397511Y452500D01*
X415000D01*
X417731Y436700D02*
Y439769D01*
X412500Y445000D02*
X417731Y439769D01*
X325255Y409567D02*
X329822Y405000D01*
X357500D01*
X320997Y422672D02*
Y435997D01*
X335000Y450000D01*
X352500D02*
X360231Y442269D01*
X335000Y450000D02*
X352500D01*
X412500Y460000D02*
X420569D01*
X423697Y456872D01*
X360231Y439200D02*
X371825D01*
X372397Y439772D01*
D13*
X395003Y432628D02*
X406597D01*
X407269Y433300D01*
Y430231D02*
Y433300D01*
Y430231D02*
X412500Y425000D01*
X446303Y436303D02*
Y449728D01*
X435000Y425000D02*
X446303Y436303D01*
X343603Y415528D02*
X354472D01*
X355000Y415000D01*
X349200Y435800D02*
X349769D01*
X342500Y442500D02*
X349200Y435800D01*
X412500Y425000D02*
X435000D01*
D14*
X300000Y400000D02*
Y472400D01*
X467300D01*
Y400000D02*
Y472400D01*
X300000Y400000D02*
X467300D01*
D15*
X455000Y412500D02*
D03*
X312500Y460000D02*
D03*
D16*
X352500Y450000D02*
D03*
X354472Y415528D02*
D03*
X357500Y405000D02*
D03*
X410000Y467500D02*
D03*
X412500Y445000D02*
D03*
Y460000D02*
D03*
X342500Y442500D02*
D03*
X417500Y425000D02*
D03*
M02*
