%FSLAX25Y25*%
%MOIN*%
G70*
G01*
G75*
G04 Layer_Color=128*
%ADD10R,0.08000X0.05000*%
%ADD11R,0.05906X0.05906*%
%ADD12R,0.05906X0.05906*%
%ADD13C,0.02500*%
%ADD14C,0.16500*%
%ADD15C,0.04000*%
%ADD16R,0.05000X0.08000*%
%ADD17R,0.17716X0.12205*%
%ADD18C,0.01000*%
%ADD19C,0.01200*%
%ADD20R,0.07000X0.04000*%
%ADD21R,0.04906X0.04906*%
%ADD22R,0.04906X0.04906*%
%ADD23R,0.04000X0.07000*%
%ADD24R,0.16716X0.11205*%
%ADD25R,0.08800X0.05800*%
%ADD26R,0.06706X0.06706*%
%ADD27R,0.06706X0.06706*%
%ADD28C,0.17300*%
%ADD29C,0.04800*%
D25*
X570500Y461000D02*
D03*
Y472000D02*
D03*
D26*
X552146Y522390D02*
D03*
Y508610D02*
D03*
X532854Y522390D02*
D03*
Y508610D02*
D03*
X557854Y418110D02*
D03*
Y431890D02*
D03*
X577146Y418110D02*
D03*
Y431890D02*
D03*
D27*
X549890Y553854D02*
D03*
X536110D02*
D03*
X549890Y573146D02*
D03*
X536110D02*
D03*
X535610Y476146D02*
D03*
X549390D02*
D03*
X535610Y456854D02*
D03*
X549390D02*
D03*
X524390Y415354D02*
D03*
X510610D02*
D03*
X524390Y434646D02*
D03*
X510610D02*
D03*
D28*
X572700Y584400D02*
D03*
X512700Y584700D02*
D03*
D29*
X572500Y410000D02*
D03*
X532500Y417500D02*
D03*
X512500Y407500D02*
D03*
X527500Y500000D02*
D03*
X542500Y525000D02*
D03*
X557500Y570000D02*
D03*
X540000Y550000D02*
D03*
X547500Y510000D02*
D03*
X562500Y432500D02*
D03*
X572500Y457500D02*
D03*
X527500Y455000D02*
D03*
M02*
