%FSLAX25Y25*%
%MOIN*%
G70*
G01*
G75*
G04 Layer_Color=128*
%ADD10R,0.05906X0.05906*%
%ADD11P,0.08352X4X345.0*%
%ADD12P,0.08352X4X285.0*%
%ADD13C,0.02500*%
%ADD14C,0.05000*%
%ADD15C,0.16500*%
%ADD16R,0.12500X0.12500*%
%ADD17C,0.12500*%
%ADD18R,0.12500X0.12500*%
%ADD19C,0.04000*%
%ADD20R,0.05000X0.08000*%
%ADD21R,0.08000X0.05000*%
%ADD22R,0.17716X0.12205*%
%ADD23R,0.12205X0.17716*%
%ADD24C,0.01000*%
%ADD25C,0.01200*%
%ADD26R,0.04906X0.04906*%
%ADD27P,0.06937X4X345.0*%
%ADD28P,0.06937X4X285.0*%
%ADD29R,0.04000X0.07000*%
%ADD30R,0.07000X0.04000*%
%ADD31R,0.16716X0.11205*%
%ADD32R,0.11205X0.16716*%
%ADD33R,0.06706X0.06706*%
%ADD34P,0.09483X4X345.0*%
%ADD35P,0.09483X4X285.0*%
%ADD36C,0.17300*%
%ADD37R,0.13300X0.13300*%
%ADD38C,0.13300*%
%ADD39R,0.13300X0.13300*%
%ADD40C,0.04800*%
D33*
X485146Y750890D02*
D03*
X485146Y737110D02*
D03*
X465854Y750890D02*
D03*
X465854Y737110D02*
D03*
X735146Y750890D02*
D03*
X735146Y737110D02*
D03*
X715854Y750890D02*
D03*
X715854Y737110D02*
D03*
X485146Y500890D02*
D03*
X485146Y487110D02*
D03*
X465854Y500890D02*
D03*
X465854Y487110D02*
D03*
X735146Y500890D02*
D03*
X735146Y487110D02*
D03*
X715854Y500890D02*
D03*
X715854Y487110D02*
D03*
X465854Y575110D02*
D03*
Y588890D02*
D03*
X485146Y575110D02*
D03*
Y588890D02*
D03*
X715854Y575110D02*
D03*
Y588890D02*
D03*
X735146Y575110D02*
D03*
Y588890D02*
D03*
X465854Y325110D02*
D03*
Y338890D02*
D03*
X485146Y325110D02*
D03*
Y338890D02*
D03*
X715854Y325110D02*
D03*
Y338890D02*
D03*
X735146Y325110D02*
D03*
Y338890D02*
D03*
X360146Y625890D02*
D03*
X360146Y612110D02*
D03*
X340854Y625890D02*
D03*
X340854Y612110D02*
D03*
X610146Y625890D02*
D03*
X610146Y612110D02*
D03*
X590854Y625890D02*
D03*
X590854Y612110D02*
D03*
X360146Y375890D02*
D03*
X360146Y362110D02*
D03*
X340854Y375890D02*
D03*
X340854Y362110D02*
D03*
X610146Y375890D02*
D03*
X610146Y362110D02*
D03*
X590854Y375890D02*
D03*
X590854Y362110D02*
D03*
X340854Y700110D02*
D03*
X340854Y713890D02*
D03*
X360146Y700110D02*
D03*
X360146Y713890D02*
D03*
X590709Y700220D02*
D03*
Y714000D02*
D03*
X610000Y700220D02*
D03*
Y714000D02*
D03*
X340709Y450220D02*
D03*
Y464000D02*
D03*
X360000Y450220D02*
D03*
Y464000D02*
D03*
X590854Y450110D02*
D03*
Y463890D02*
D03*
X610146Y450110D02*
D03*
Y463890D02*
D03*
D34*
X502289Y605091D02*
D03*
X490356Y598202D02*
D03*
X492644Y621798D02*
D03*
X480711Y614909D02*
D03*
X752289Y604592D02*
D03*
X740356Y597702D02*
D03*
X742644Y621298D02*
D03*
X730711Y614408D02*
D03*
X502289Y354591D02*
D03*
X490356Y347702D02*
D03*
X492644Y371298D02*
D03*
X480711Y364408D02*
D03*
X752289Y354591D02*
D03*
X740356Y347702D02*
D03*
X742644Y371298D02*
D03*
X730711Y364408D02*
D03*
X448421Y721317D02*
D03*
X460354Y728207D02*
D03*
X458067Y704610D02*
D03*
X470000Y711500D02*
D03*
X698710Y721409D02*
D03*
X710644Y728298D02*
D03*
X708356Y704702D02*
D03*
X720290Y711591D02*
D03*
X448710Y471409D02*
D03*
X460644Y478298D02*
D03*
X458356Y454702D02*
D03*
X470290Y461591D02*
D03*
X698710Y470908D02*
D03*
X710644Y477798D02*
D03*
X708356Y454202D02*
D03*
X720290Y461092D02*
D03*
X377290Y729592D02*
D03*
X365356Y722702D02*
D03*
X367644Y746298D02*
D03*
X355711Y739408D02*
D03*
X627289Y729592D02*
D03*
X615356Y722702D02*
D03*
X617644Y746298D02*
D03*
X605711Y739408D02*
D03*
X377290Y479592D02*
D03*
X365356Y472702D02*
D03*
X367644Y496298D02*
D03*
X355711Y489408D02*
D03*
X627289Y479592D02*
D03*
X615356Y472702D02*
D03*
X617644Y496298D02*
D03*
X605711Y489408D02*
D03*
X323710Y595908D02*
D03*
X335644Y602798D02*
D03*
X333356Y579202D02*
D03*
X345289Y586092D02*
D03*
X573710Y596409D02*
D03*
X585644Y603298D02*
D03*
X583356Y579702D02*
D03*
X595290Y586591D02*
D03*
X323710Y345908D02*
D03*
X335644Y352798D02*
D03*
X333356Y329202D02*
D03*
X345289Y336091D02*
D03*
X573710Y346409D02*
D03*
X585644Y353298D02*
D03*
X583356Y329702D02*
D03*
X595290Y336592D02*
D03*
D35*
X492644Y704702D02*
D03*
X480711Y711591D02*
D03*
X502289Y721409D02*
D03*
X490356Y728298D02*
D03*
X742644Y704202D02*
D03*
X730711Y711092D02*
D03*
X752289Y720908D02*
D03*
X740356Y727798D02*
D03*
X492644Y454702D02*
D03*
X480711Y461591D02*
D03*
X502289Y471409D02*
D03*
X490356Y478298D02*
D03*
X742644Y454702D02*
D03*
X730711Y461591D02*
D03*
X752289Y471409D02*
D03*
X740356Y478298D02*
D03*
X458356Y621798D02*
D03*
X470290Y614909D02*
D03*
X448710Y605091D02*
D03*
X460644Y598202D02*
D03*
X708356Y621298D02*
D03*
X720290Y614408D02*
D03*
X698710Y604592D02*
D03*
X710644Y597702D02*
D03*
X458356Y371298D02*
D03*
X470290Y364408D02*
D03*
X448710Y354591D02*
D03*
X460644Y347702D02*
D03*
X708356Y371298D02*
D03*
X720290Y364408D02*
D03*
X698710Y354591D02*
D03*
X710644Y347702D02*
D03*
X367644Y579202D02*
D03*
X355711Y586092D02*
D03*
X377290Y595908D02*
D03*
X365356Y602798D02*
D03*
X617644Y579202D02*
D03*
X605711Y586092D02*
D03*
X627289Y595908D02*
D03*
X615356Y602798D02*
D03*
X367644Y329202D02*
D03*
X355711Y336091D02*
D03*
X377290Y345908D02*
D03*
X365356Y352798D02*
D03*
X617644Y329702D02*
D03*
X605711Y336592D02*
D03*
X627289Y346409D02*
D03*
X615356Y353298D02*
D03*
X333356Y746298D02*
D03*
X345289Y739408D02*
D03*
X323710Y729592D02*
D03*
X335644Y722702D02*
D03*
X583356Y746798D02*
D03*
X595290Y739909D02*
D03*
X573710Y730091D02*
D03*
X585644Y723202D02*
D03*
X333500Y496500D02*
D03*
X345433Y489610D02*
D03*
X323854Y479793D02*
D03*
X335788Y472903D02*
D03*
X583356Y496298D02*
D03*
X595290Y489408D02*
D03*
X573710Y479592D02*
D03*
X585644Y472702D02*
D03*
D36*
X663000Y413000D02*
D03*
X413000Y663000D02*
D03*
X663000D02*
D03*
X538000Y538000D02*
D03*
X413000Y413000D02*
D03*
D37*
X318500Y653000D02*
D03*
Y403000D02*
D03*
X757500Y423000D02*
D03*
Y672500D02*
D03*
D38*
X318500Y673000D02*
D03*
Y423000D02*
D03*
X403000Y318500D02*
D03*
X653000D02*
D03*
X757500Y403000D02*
D03*
Y652500D02*
D03*
X673000Y757500D02*
D03*
X423500D02*
D03*
D39*
X423000Y318500D02*
D03*
X673000D02*
D03*
X653000Y757500D02*
D03*
X403500D02*
D03*
D40*
X461752Y537500D02*
D03*
X405000Y467500D02*
D03*
X575000Y405000D02*
D03*
X512500Y670000D02*
D03*
X670000Y522500D02*
D03*
X405000Y550000D02*
D03*
X420000Y720000D02*
D03*
X690000Y695000D02*
D03*
Y732500D02*
D03*
X365000Y537500D02*
D03*
X537500Y710000D02*
D03*
X710000Y537500D02*
D03*
X537500Y365000D02*
D03*
X705000Y495000D02*
D03*
X685000Y427500D02*
D03*
X407500Y382500D02*
D03*
X325000Y360000D02*
D03*
X747500Y565000D02*
D03*
X725000Y625000D02*
D03*
X345000Y752500D02*
D03*
X630000Y445000D02*
D03*
X348500Y348000D02*
D03*
X598500Y348500D02*
D03*
X723500Y473500D02*
D03*
X473500D02*
D03*
X348500Y598000D02*
D03*
X598500D02*
D03*
X723500Y723000D02*
D03*
X473500Y723500D02*
D03*
X352500Y727500D02*
D03*
X602500Y728000D02*
D03*
X727500Y602500D02*
D03*
X477500Y603000D02*
D03*
X352644Y477702D02*
D03*
X602500Y477500D02*
D03*
X727500Y352500D02*
D03*
X477500D02*
D03*
X420000Y525000D02*
D03*
Y549606D02*
D03*
X525000Y655000D02*
D03*
X549606D02*
D03*
X537500Y613248D02*
D03*
X655000Y550000D02*
D03*
Y525394D02*
D03*
X613248Y537500D02*
D03*
X537500Y462500D02*
D03*
X525394Y420748D02*
D03*
X550000D02*
D03*
M02*
