%FSLAX25Y25*%
%MOIN*%
G70*
G01*
G75*
G04 Layer_Color=48896*
%ADD10R,0.05906X0.05906*%
%ADD11P,0.08352X4X345.0*%
%ADD12P,0.08352X4X285.0*%
%ADD13C,0.02500*%
%ADD14C,0.05000*%
%ADD15C,0.16500*%
%ADD16R,0.12500X0.12500*%
%ADD17C,0.12500*%
%ADD18R,0.12500X0.12500*%
%ADD19C,0.04000*%
%ADD20R,0.05000X0.08000*%
%ADD21R,0.08000X0.05000*%
%ADD22R,0.17716X0.12205*%
%ADD23R,0.12205X0.17716*%
%ADD24C,0.01000*%
%ADD25C,0.01200*%
%ADD26R,0.04906X0.04906*%
%ADD27P,0.06937X4X345.0*%
%ADD28P,0.06937X4X285.0*%
%ADD29R,0.04000X0.07000*%
%ADD30R,0.07000X0.04000*%
%ADD31R,0.16716X0.11205*%
%ADD32R,0.11205X0.16716*%
%ADD33R,0.06706X0.06706*%
%ADD34P,0.09483X4X345.0*%
%ADD35P,0.09483X4X285.0*%
%ADD36C,0.17300*%
%ADD37R,0.13300X0.13300*%
%ADD38C,0.13300*%
%ADD39R,0.13300X0.13300*%
%ADD40C,0.04800*%
%ADD41R,0.05800X0.08800*%
%ADD42R,0.08800X0.05800*%
%ADD43R,0.18517X0.13005*%
%ADD44R,0.13005X0.18517*%
D36*
X663000Y413000D02*
D03*
X413000Y663000D02*
D03*
X663000D02*
D03*
X538000Y538000D02*
D03*
X413000Y413000D02*
D03*
D37*
X318500Y653000D02*
D03*
Y403000D02*
D03*
X757500Y423000D02*
D03*
Y672500D02*
D03*
D38*
X318500Y673000D02*
D03*
Y423000D02*
D03*
X403000Y318500D02*
D03*
X653000D02*
D03*
X757500Y403000D02*
D03*
Y652500D02*
D03*
X673000Y757500D02*
D03*
X423500D02*
D03*
D39*
X423000Y318500D02*
D03*
X673000D02*
D03*
X653000Y757500D02*
D03*
X403500D02*
D03*
D40*
X461752Y537500D02*
D03*
X405000Y467500D02*
D03*
X575000Y405000D02*
D03*
X512500Y670000D02*
D03*
X670000Y522500D02*
D03*
X405000Y550000D02*
D03*
X420000Y720000D02*
D03*
X690000Y695000D02*
D03*
Y732500D02*
D03*
X365000Y537500D02*
D03*
X537500Y710000D02*
D03*
X710000Y537500D02*
D03*
X537500Y365000D02*
D03*
X705000Y495000D02*
D03*
X685000Y427500D02*
D03*
X407500Y382500D02*
D03*
X325000Y360000D02*
D03*
X747500Y565000D02*
D03*
X725000Y625000D02*
D03*
X345000Y752500D02*
D03*
X630000Y445000D02*
D03*
X348500Y348000D02*
D03*
X598500Y348500D02*
D03*
X723500Y473500D02*
D03*
X473500D02*
D03*
X348500Y598000D02*
D03*
X598500D02*
D03*
X723500Y723000D02*
D03*
X473500Y723500D02*
D03*
X352500Y727500D02*
D03*
X602500Y728000D02*
D03*
X727500Y602500D02*
D03*
X477500Y603000D02*
D03*
X352644Y477702D02*
D03*
X602500Y477500D02*
D03*
X727500Y352500D02*
D03*
X477500D02*
D03*
X420000Y525000D02*
D03*
Y549606D02*
D03*
X525000Y655000D02*
D03*
X549606D02*
D03*
X537500Y613248D02*
D03*
X655000Y550000D02*
D03*
Y525394D02*
D03*
X613248Y537500D02*
D03*
X537500Y462500D02*
D03*
X525394Y420748D02*
D03*
X550000D02*
D03*
D41*
X668500Y354000D02*
D03*
X657500D02*
D03*
X407000Y351000D02*
D03*
X418000D02*
D03*
X668500Y729500D02*
D03*
X657500D02*
D03*
X419500Y726000D02*
D03*
X408500D02*
D03*
D42*
X346500Y668000D02*
D03*
Y657000D02*
D03*
X348000Y418500D02*
D03*
Y407500D02*
D03*
X729000Y408500D02*
D03*
Y419500D02*
D03*
X724500Y659000D02*
D03*
Y670000D02*
D03*
D43*
X525394Y389252D02*
D03*
X550000D02*
D03*
X525394Y405000D02*
D03*
Y420748D02*
D03*
Y436496D02*
D03*
X550000Y405000D02*
D03*
Y420748D02*
D03*
Y436496D02*
D03*
X550106Y686496D02*
D03*
X525500D02*
D03*
X550106Y670748D02*
D03*
Y655000D02*
D03*
Y639252D02*
D03*
X525500Y670748D02*
D03*
Y655000D02*
D03*
Y639252D02*
D03*
D44*
X686496Y525394D02*
D03*
Y550000D02*
D03*
X670748Y525394D02*
D03*
X655000D02*
D03*
X639252D02*
D03*
X670748Y550000D02*
D03*
X655000D02*
D03*
X639252D02*
D03*
X389252D02*
D03*
Y525394D02*
D03*
X405000Y550000D02*
D03*
X420748D02*
D03*
X436496D02*
D03*
X405000Y525394D02*
D03*
X420748D02*
D03*
X436496D02*
D03*
M02*
