M48
;Layer_Color=8847372
;FILE_FORMAT=2:5
INCH,TZ
;TYPE=PLATED
T1F00S00C0.02100
T2F00S00C0.07500
T3F00S00C0.12500
%
T01
X325000Y360000
X348500Y348000
X407500Y382500
X405000Y467500
X537500Y462500
X525394Y420748
X550000
X575000Y405000
X537500Y365000
X477500Y352500
X598500Y348500
X630000Y445000
X685000Y427500
X727500Y352500
X723500Y473500
X705000Y495000
X710000Y537500
X670000Y522500
X655000Y525394
Y550000
X747500Y565000
X727500Y602500
X598500Y598000
X613248Y537500
X602500Y477500
X473500Y473500
X477500Y603000
X537500Y613248
X461752Y537500
X420000Y549606
X405000Y550000
X420000Y525000
X365000Y537500
X352644Y477702
X348500Y598000
X352500Y727500
X345000Y752500
X420000Y720000
X473500Y723500
X537500Y710000
X512500Y670000
X525000Y655000
X549606
X602500Y728000
X690000Y732500
Y695000
X723500Y723000
X725000Y625000
T02
X318500Y403000
Y423000
X403000Y318500
X423000
X653000
X673000
X757500Y403000
Y423000
X423500Y757500
X403500
X318500Y673000
Y653000
X653000Y757500
X673000
X757500Y672500
Y652500
T03
X413000Y413000
X663000
X538000Y538000
X413000Y663000
X663000
M30
