<?xml version="1.0" encoding="UTF-8" standalone="no"?>
<!-- Created with Inkscape (http://www.inkscape.org/) -->

<svg
   width="210mm"
   height="297mm"
   viewBox="0 0 210 297"
   version="1.1"
   id="svg20756"
   inkscape:version="1.2.2 (b0a84865, 2022-12-01)"
   sodipodi:docname="240429_TattooMystique_SpeakerCover_1_DXF_2.svg"
   xmlns:inkscape="http://www.inkscape.org/namespaces/inkscape"
   xmlns:sodipodi="http://sodipodi.sourceforge.net/DTD/sodipodi-0.dtd"
   xmlns="http://www.w3.org/2000/svg"
   xmlns:svg="http://www.w3.org/2000/svg">
  <sodipodi:namedview
     id="namedview20758"
     pagecolor="#ffffff"
     bordercolor="#000000"
     borderopacity="0.25"
     inkscape:showpageshadow="2"
     inkscape:pageopacity="0.0"
     inkscape:pagecheckerboard="0"
     inkscape:deskcolor="#d1d1d1"
     inkscape:document-units="mm"
     showgrid="false"
     inkscape:zoom="1.1180286"
     inkscape:cx="377.89731"
     inkscape:cy="558.57248"
     inkscape:window-width="1623"
     inkscape:window-height="903"
     inkscape:window-x="0"
     inkscape:window-y="38"
     inkscape:window-maximized="0"
     inkscape:current-layer="layer1" />
  <defs
     id="defs20753" />
  <g
     inkscape:label="Layer 1"
     inkscape:groupmode="layer"
     id="layer1">
    <path
       id="path19796"
       style="fill:#00ff00;stroke:none;stroke-width:0.1;stroke-linecap:round;stroke-linejoin:round;stroke-dasharray:none"
       d="M 106.06174 70.260828 L 101.82634 77.727555 L 70.247392 133.35 L 49.947339 118.73487 L 59.225842 114.01578 L 19.619991 85.100232 L 40.476599 111.68879 L 29.839522 116.83421 L 53.263932 163.26445 L 23.261112 216.11136 L 18.820557 223.91812 L 27.462923 223.93672 L 183.97947 224.2044 L 192.60323 224.22249 L 188.21487 216.39764 L 158.63631 163.77553 L 158.68385 163.73574 L 158.52314 163.57348 L 156.99869 160.8615 L 180.38072 114.50826 L 169.74364 109.36593 L 190.59974 82.773242 L 150.99388 111.68931 L 160.2729 116.4084 L 140.15372 130.8933 L 110.27957 77.745125 L 106.06174 70.260828 z M 106.02712 90.488534 L 136.26817 144.29817 C 128.22743 139.42919 119.0461 134.19938 108.50449 133.69003 C 107.81822 133.64733 107.13331 133.64766 106.45293 133.64766 L 106.45293 133.64921 C 96.245478 133.71741 86.710699 137.89685 78.462911 142.34325 C 77.513755 142.85498 76.551901 143.45584 75.589185 144.0987 L 106.02712 90.488534 z M 173.27418 114.71289 A 2.3812499 2.3812499 0 0 1 175.65543 117.09414 A 2.3812499 2.3812499 0 0 1 173.27418 119.47539 A 2.3812499 2.3812499 0 0 1 170.89293 117.09414 A 2.3812499 2.3812499 0 0 1 173.27418 114.71289 z M 37.16259 116.88589 A 2.3812499 2.3812499 0 0 1 39.54384 119.26714 A 2.3812499 2.3812499 0 0 1 37.16259 121.64839 A 2.3812499 2.3812499 0 0 1 34.78134 119.26714 A 2.3812499 2.3812499 0 0 1 37.16259 116.88589 z M 166.3175 122.77235 L 151.92199 151.83001 L 145.5167 140.43432 L 166.3175 122.77235 z M 43.90378 125.09882 L 64.839453 142.87603 L 58.361812 154.28567 L 43.90378 125.09882 z M 106.67824 147.38222 C 112.69861 147.38222 117.47138 152.4006 117.47138 158.72726 C 117.47138 165.05397 112.69861 170.08833 106.67824 170.08833 C 100.65791 170.08833 95.88252 165.05398 95.88252 158.72726 C 95.88252 152.40051 100.65791 147.38222 106.67824 147.38222 z M 88.351196 148.84363 C 86.888294 151.81438 86.043844 155.17164 86.043844 158.72726 C 86.043844 166.1662 89.669874 172.77348 95.151815 176.68896 C 90.66125 174.64879 85.966499 171.84057 80.937179 169.26099 C 77.877441 167.69164 73.354066 164.80154 69.579732 162.33531 C 70.503108 161.44918 70.454681 161.44052 71.596663 160.39693 C 75.365991 156.95224 80.181895 153.04004 82.953593 151.54579 C 84.726405 150.59009 86.531894 149.68478 88.351196 148.84363 z M 125.49725 149.91075 C 127.92098 151.2227 130.34516 152.64813 132.75779 154.11566 C 135.62453 155.85923 139.98122 159.76534 143.44757 162.99832 C 139.82049 165.80185 135.34479 169.13639 132.45186 170.5901 C 127.23913 173.20964 122.03837 175.77087 116.96289 177.48787 C 123.12577 173.71925 127.30851 166.7089 127.30851 158.72726 C 127.30851 155.5915 126.65272 152.61011 125.49725 149.91075 z M 61.358012 169.16435 C 64.987766 171.59991 71.823069 176.08435 76.618579 178.54414 C 82.499485 181.56036 88.918728 186.00819 96.401351 188.33166 L 81.647729 213.68877 L 36.121309 213.6128 L 61.358012 169.16435 z M 150.85177 170.24852 L 175.35364 213.84638 L 131.82761 213.77351 L 117.16908 188.30272 C 124.24709 186.34276 130.76429 182.89138 136.70173 179.90736 C 141.40497 177.5437 147.22909 173.14238 150.85177 170.24852 z M 106.79968 190.28141 L 120.20558 213.56112 L 93.269759 213.52392 L 106.79968 190.28141 z M 29.401306 215.59046 A 2.3812499 2.3812499 0 0 1 31.782556 217.97171 A 2.3812499 2.3812499 0 0 1 29.401306 220.35296 A 2.3812499 2.3812499 0 0 1 27.020056 217.97171 A 2.3812499 2.3812499 0 0 1 29.401306 215.59046 z M 181.95944 215.69536 A 2.3812499 2.3812499 0 0 1 184.34069 218.07661 A 2.3812499 2.3812499 0 0 1 181.95944 220.45786 A 2.3812499 2.3812499 0 0 1 179.57819 218.07661 A 2.3812499 2.3812499 0 0 1 181.95944 215.69536 z " />
  </g>
</svg>
