<?xml version="1.0" encoding="UTF-8" standalone="no"?>
<!-- Created with Inkscape (http://www.inkscape.org/) -->

<svg
   width="50.799999mm"
   height="31.75mm"
   viewBox="0 0 50.8 31.75"
   version="1.1"
   id="svg5"
   xml:space="preserve"
   inkscape:version="1.2.2 (b0a84865, 2022-12-01)"
   sodipodi:docname="240914_TattooMystique_ref_BCOX_2023_Signature_1.svg"
   inkscape:export-filename="240914_TattooMystique_ref_BeetleCrown_4A.png"
   inkscape:export-xdpi="300"
   inkscape:export-ydpi="300"
   xmlns:inkscape="http://www.inkscape.org/namespaces/inkscape"
   xmlns:sodipodi="http://sodipodi.sourceforge.net/DTD/sodipodi-0.dtd"
   xmlns="http://www.w3.org/2000/svg"
   xmlns:svg="http://www.w3.org/2000/svg"><sodipodi:namedview
     id="namedview7"
     pagecolor="#ffffff"
     bordercolor="#000000"
     borderopacity="0.25"
     inkscape:showpageshadow="2"
     inkscape:pageopacity="0.0"
     inkscape:pagecheckerboard="0"
     inkscape:deskcolor="#d1d1d1"
     inkscape:document-units="mm"
     showgrid="false"
     inkscape:zoom="1.1381428"
     inkscape:cx="101.48112"
     inkscape:cy="142.77647"
     inkscape:window-width="1728"
     inkscape:window-height="1051"
     inkscape:window-x="0"
     inkscape:window-y="38"
     inkscape:window-maximized="0"
     inkscape:current-layer="g9021" /><defs
     id="defs2"><clipPath
       clipPathUnits="userSpaceOnUse"
       id="clipPath17612"><path
         style="fill:none;stroke:#000000;stroke-width:1;stroke-linecap:round;stroke-linejoin:round;stroke-miterlimit:10;paint-order:markers stroke fill"
         d="m 1198.4247,-376.40802 29.1949,-16.72585 -3.9346,-33.62611 -10.2729,-8.97673 16.0081,-24.96862 -13.3753,-24.29451 -4.2422,-1.69294 -8.1478,-10.01648 -8.7292,2.5263 -14.05,-21.30846 -17.7888,-25.63659 -21.2277,-5.68434 -16.6729,-19.25533 -56.9487,-26.40808 -55.8727,27.87211 -62.07654,73.30597 -16.31128,69.47547 39.24992,48.22399 26.18107,6.16014 12.98533,9.42887 -1.5797,13.37233 23.9405,4.03065 33.155,16.16854 3.0921,8.34728 10.7546,5.5926 22.3905,12.28269 46.3129,-15.84337 22.565,-6.01344 10.8061,-38.51145 z"
         id="path17614" /></clipPath><clipPath
       clipPathUnits="userSpaceOnUse"
       id="clipPath17665"><path
         style="fill:none;stroke:#000000;stroke-width:1;stroke-linecap:round;stroke-linejoin:round;stroke-miterlimit:10;paint-order:markers stroke fill"
         d="m -768.64889,993.52082 -25.81236,21.58288 -30.1749,-15.35161 -4.85716,-12.74838 -28.97057,6.35584 -18.14849,-20.9703 -0.11672,-4.5661 -6.56935,-11.11571 5.3967,-7.31139 -15.11374,-20.56766 -17.87674,-25.57531 2.02994,-21.8817 -12.27845,-22.31575 -5.02016,-62.57269 45.51847,-42.73974 90.28425,-32.80261 70.82062,8.79421 31.61997,53.53771 -3.30141,26.69263 4.34057,15.44935 13.09031,3.1557 -4.52173,23.85255 3.66741,36.70462 6.75698,5.79491 1.51596,12.0267 3.75573,25.26047 -30.92096,37.94461 -13.46556,19.07934 -39.86897,-3.21984 z"
         id="path17667" /></clipPath><clipPath
       clipPathUnits="userSpaceOnUse"
       id="clipPath17671"><path
         style="fill:none;stroke:#000000;stroke-width:1;stroke-linecap:round;stroke-linejoin:round;stroke-miterlimit:10;paint-order:markers stroke fill"
         d="m 1191.5904,397.51359 33.4576,3.56194 16.5227,-29.54991 -3.0611,-13.29447 27.6053,-10.84596 3.4041,-27.52333 -2.4447,-3.85828 -0.7299,-12.89118 -8.5531,-3.06997 1.107,-25.49957 0.6151,-31.1977 -13.8666,-17.04839 -2.2214,-25.37358 -30.6598,-54.777 -61.6053,-10.16896 -93.2633,23.00469 -53.9394,46.72727 3.5327,62.07761 17.6008,20.33735 4.9937,15.25076 -9.1183,9.90817 17.0337,17.29867 17.3845,32.53397 -2.3877,8.57535 5.4351,10.83508 10.9408,23.07585 46.8092,14.31091 21.8068,8.35482 31.3291,-24.86748 z"
         id="path17673" /></clipPath><clipPath
       clipPathUnits="userSpaceOnUse"
       id="clipPath17675"><path
         style="fill:none;stroke:#000000;stroke-width:1;stroke-linecap:round;stroke-linejoin:round;stroke-miterlimit:10;paint-order:markers stroke fill"
         d="m -40.384101,1255.4975 -8.261793,32.6165 -33.44602,5.2498 -11.407897,-7.4815 -19.746109,22.131 -26.99582,-6.3519 -2.77106,-3.631 -11.83808,-5.1551 0.0867,-9.087 -24.30108,-7.8046 -29.47495,-10.2421 -11.18167,-18.9183 -23.02863,-10.8828 -40.74527,-47.7531 11.82606,-61.3088 53.9197,-79.4979 62.53309,-34.3877 57.000202,24.8412 12.971535,23.5613 12.572581,9.9727 12.455415,-5.1164 10.318089,21.9756 24.486303,27.588 8.871231,0.7343 8.2778528,8.8553 17.8496946,18.2643 -2.8100373,48.8672 0.2739904,23.351 -34.1888435,20.7611 z"
         id="path17677" /></clipPath></defs><g
     inkscape:groupmode="layer"
     id="g9021"
     inkscape:label="5_BCOX_1"
     style="display:inline;opacity:1"
     transform="translate(-981.06989,-586.38684)"><rect
       style="fill:#ffffff;stroke:none;stroke-width:1.03964;stroke-linecap:round;stroke-linejoin:round;stroke-miterlimit:10;paint-order:markers stroke fill"
       id="rect19506"
       width="50.799999"
       height="31.75"
       x="981.06989"
       y="586.38684" /><path
       style="fill:#000000;stroke-width:0.0400481"
       d="m 1007.1672,608.23577 c -0.1652,-0.0199 -0.3274,-0.0473 -0.3604,-0.061 -0.033,-0.0137 -0.089,-0.0215 -0.125,-0.0172 -0.036,0.005 -0.076,-0.0244 -0.09,-0.0639 -0.014,-0.0395 -0.079,-0.14382 -0.144,-0.23192 -0.088,-0.11816 -0.1194,-0.20539 -0.1204,-0.33239 0,-0.18157 0.09,-0.4085 0.1652,-0.4085 0.024,0 0.1005,-0.0596 0.1693,-0.13257 0.069,-0.0729 0.2421,-0.1938 0.3852,-0.26863 0.1431,-0.0748 0.3111,-0.17738 0.3734,-0.22787 0.062,-0.0505 0.1317,-0.0918 0.1544,-0.0918 0.023,0 0.1139,-0.0576 0.2028,-0.128 0.089,-0.0704 0.2115,-0.156 0.2725,-0.19022 0.061,-0.0342 0.1982,-0.11083 0.3047,-0.17021 0.1066,-0.0594 0.2749,-0.16294 0.3741,-0.23011 0.099,-0.0672 0.2062,-0.12221 0.2381,-0.1223 0.032,-8e-5 0.122,-0.0424 0.2002,-0.0939 0.078,-0.0515 0.243,-0.15263 0.3659,-0.22465 0.123,-0.072 0.3002,-0.20388 0.3939,-0.29302 l 0.1703,-0.16208 -0.1559,-0.0527 c -0.1602,-0.0541 -0.8113,-0.14017 -0.8553,-0.11298 -0.014,0.008 -0.2031,0.026 -0.4212,0.0392 -0.2181,0.0132 -0.4507,0.0313 -0.5167,0.0402 -0.066,0.009 -0.198,0.0254 -0.2931,0.0366 -0.2535,0.0299 -0.7318,0.17988 -0.8566,0.26854 -0.2005,0.14251 -0.3385,0.16976 -0.4917,0.0971 -0.1761,-0.0836 -0.2609,-0.20567 -0.2609,-0.37547 0,-0.10384 0.037,-0.17074 0.1614,-0.29418 0.2784,-0.2757 0.7365,-0.43956 1.5006,-0.53675 0.7025,-0.0894 2.0834,-0.0763 2.2017,0.0209 0.023,0.0185 0.1311,0.0466 0.2412,0.0624 0.2606,0.0374 0.2594,0.0367 0.4935,0.32991 0.1936,0.24255 0.2,0.25881 0.1895,0.48057 -0.01,0.12624 -0.042,0.29261 -0.08,0.3697 -0.064,0.12946 -0.3978,0.40915 -0.6679,0.55911 -0.061,0.0339 -0.2866,0.16782 -0.5012,0.29761 -0.2146,0.12979 -0.4273,0.24517 -0.4728,0.25639 -0.045,0.0112 -0.1277,0.0514 -0.1827,0.0892 -0.055,0.0378 -0.1362,0.0799 -0.1803,0.0936 -0.044,0.0137 -0.1251,0.0662 -0.1802,0.11682 -0.055,0.0506 -0.2263,0.16462 -0.3804,0.25339 -0.3767,0.21686 -0.821,0.5094 -0.821,0.54051 0,0.06 0.4225,0.0711 0.841,0.0221 0.077,-0.009 0.3835,-0.0298 0.6808,-0.0461 0.2974,-0.0163 0.5677,-0.0422 0.6007,-0.0577 0.079,-0.0367 0.8595,-0.0546 0.962,-0.0221 0.1147,0.0363 0.098,0.11731 -0.051,0.24222 -0.072,0.0602 -0.1322,0.14256 -0.1346,0.18305 -0.01,0.10776 -0.093,0.19521 -0.1927,0.19521 -0.048,0 -0.1062,0.019 -0.1295,0.0423 -0.023,0.0233 -0.1326,0.0499 -0.2429,0.059 -0.1103,0.009 -0.251,0.0358 -0.3126,0.0593 -0.062,0.0234 -0.1858,0.0419 -0.2758,0.0411 -0.09,-7.7e-4 -0.2898,0.0164 -0.4439,0.0384 -0.1542,0.022 -0.4336,0.049 -0.6208,0.06 -0.1872,0.011 -0.4383,0.0381 -0.558,0.0602 -0.1197,0.0221 -0.2188,0.0378 -0.2203,0.035 0,-0.003 -0.1378,-0.0214 -0.303,-0.0412 z m 5.8303,-0.0285 c -0.01,-0.0147 -0.053,-0.12265 -0.097,-0.23983 -0.1257,-0.33069 -0.017,-0.47128 0.3946,-0.51151 0.099,-0.01 0.3424,-0.0527 0.5406,-0.0955 0.3592,-0.0777 0.5114,-0.0948 1.293,-0.14527 0.2266,-0.0147 0.4214,-0.0418 0.4329,-0.0605 0.012,-0.0186 0.092,-0.0339 0.1788,-0.0339 0.1311,0 0.1578,-0.0135 0.1578,-0.0801 0,-0.0441 -0.014,-0.0815 -0.03,-0.0832 -0.016,-0.002 -0.057,-0.0107 -0.09,-0.02 -0.033,-0.009 -0.1712,-0.0395 -0.3071,-0.067 -0.1359,-0.0276 -0.2606,-0.0636 -0.277,-0.0801 -0.016,-0.0165 -0.069,-0.03 -0.1167,-0.03 -0.048,0 -0.1003,-0.0135 -0.1168,-0.03 -0.036,-0.036 -0.049,-0.0374 -0.9645,-0.10239 -0.3965,-0.0282 -0.7524,-0.0363 -0.791,-0.018 -0.043,0.0205 -0.07,0.017 -0.07,-0.009 0,-0.0248 -0.04,-0.0321 -0.098,-0.0176 -0.057,0.0144 -0.1518,-0.002 -0.2264,-0.0392 -0.071,-0.0352 -0.1447,-0.0639 -0.1649,-0.0639 -0.1156,0 -0.3111,-0.35386 -0.3222,-0.58304 -0.01,-0.18009 0,-0.19481 0.131,-0.26784 0.077,-0.0425 0.1762,-0.11218 0.2202,-0.15482 0.1199,-0.11601 0.3761,-0.27584 0.4422,-0.27584 0.032,0 0.1934,-0.0721 0.3588,-0.16019 0.1653,-0.0881 0.3205,-0.16019 0.3447,-0.16019 0.024,0 0.098,-0.0451 0.1632,-0.10012 0.065,-0.0551 0.1536,-0.10012 0.196,-0.10012 0.042,0 0.077,-0.0191 0.077,-0.0424 0,-0.0233 0.018,-0.0314 0.04,-0.0179 0.022,0.0135 0.1118,-0.0334 0.1999,-0.10421 0.1579,-0.12689 0.159,-0.12962 0.076,-0.18761 -0.1075,-0.0753 -0.6077,-0.0489 -1.3355,0.0703 -0.1533,0.0251 -0.2992,0.0626 -0.3241,0.0833 -0.039,0.0326 -0.2061,0.0669 -0.3682,0.0756 -0.027,0.002 -0.1208,0.0667 -0.2074,0.14496 -0.112,0.10122 -0.2016,0.14562 -0.3105,0.15389 -0.1629,0.0124 -0.2931,-0.0321 -0.2931,-0.1 0,-0.0228 -0.045,-0.10038 -0.1002,-0.17258 -0.055,-0.0722 -0.1001,-0.16066 -0.1001,-0.19659 0,-0.19165 0.3532,-0.52276 0.6808,-0.63829 0.1765,-0.0622 0.5011,-0.13939 0.9812,-0.23329 0.2245,-0.0439 1.4084,-0.0768 1.445,-0.0401 0.01,0.009 0.064,0.0217 0.1224,0.0279 0.058,0.006 0.1348,0.0237 0.1703,0.0389 0.035,0.0152 0.1005,0.0309 0.1446,0.0348 0.044,0.004 0.1188,0.0105 0.1662,0.0146 0.1363,0.0117 0.5617,0.35329 0.6091,0.489 0.023,0.066 0.031,0.21438 0.017,0.32979 -0.021,0.17992 -0.049,0.23266 -0.1946,0.37002 -0.093,0.0881 -0.3383,0.24758 -0.544,0.3544 -0.2058,0.10681 -0.4012,0.20898 -0.4343,0.22704 -0.1019,0.0557 -0.4104,0.18369 -0.6247,0.25918 -0.1859,0.0654 -0.3336,0.19682 -0.2807,0.24964 0.03,0.0302 0.2136,0.0482 0.7426,0.0728 0.2547,0.0118 0.5623,0.0263 0.6834,0.0322 0.1212,0.006 0.2887,0.0418 0.3723,0.0798 0.084,0.038 0.1672,0.0597 0.1859,0.0481 0.051,-0.0315 0.5056,0.12166 0.8235,0.2773 0.3122,0.15288 0.525,0.37188 0.6123,0.63014 0.062,0.18508 0.024,0.32667 -0.1438,0.53144 -0.1016,0.12384 -0.6152,0.37518 -0.8289,0.40568 -0.066,0.009 -0.1742,0.0264 -0.2403,0.0377 -0.066,0.0113 -0.2283,0.0296 -0.3605,0.0406 -0.2148,0.0179 -0.3304,0.0343 -0.6007,0.0849 -0.044,0.008 -0.2693,0.025 -0.5006,0.0373 -0.9158,0.0487 -1.03,0.0551 -1.2716,0.0712 -0.1378,0.009 -0.2579,0.005 -0.267,-0.0101 z m -17.39862,-0.44384 c -0.052,-0.0451 -0.083,-0.082 -0.068,-0.082 0.015,0 -0.017,-0.0586 -0.07,-0.13016 -0.1409,-0.19063 -0.1556,-0.26239 -0.084,-0.41235 0.066,-0.13943 0.2669,-0.28485 0.6572,-0.47604 0.1212,-0.0593 0.2473,-0.12501 0.2804,-0.14592 0.033,-0.0209 0.2493,-0.12775 0.4806,-0.23745 0.2312,-0.10969 0.4475,-0.2153 0.4805,-0.23469 0.033,-0.0194 0.3935,-0.20295 0.801,-0.4079 0.4075,-0.20495 0.822,-0.41971 0.9211,-0.47725 0.099,-0.0575 0.3718,-0.19874 0.6059,-0.31376 0.52412,-0.25753 0.92352,-0.54235 0.88852,-0.63362 -0.028,-0.0732 -0.3802,-0.14191 -0.81362,-0.15862 -0.2092,-0.008 -0.4886,-0.0232 -0.6207,-0.0336 -0.1322,-0.0104 -0.3394,-0.002 -0.4606,0.0175 -0.1211,0.02 -0.3374,0.0461 -0.4806,0.0579 -0.7776,0.064 -1.3699,0.26389 -1.8498,0.62447 -0.1157,0.087 -0.2435,0.15818 -0.2839,0.15818 -0.1798,0 -0.4384,-0.47413 -0.3493,-0.64057 0.084,-0.15676 0.6281,-0.47832 1.0413,-0.61526 0.6736,-0.22325 2.1659,-0.36604 3.0237,-0.28932 0.45392,0.0406 1.13482,0.18127 1.33552,0.27589 0.1415,0.0667 0.2059,0.12863 0.2677,0.25741 0.045,0.0932 0.1034,0.19147 0.1302,0.21826 0.1078,0.10779 0.055,0.26682 -0.1616,0.4846 -0.2364,0.23801 -0.6188,0.54928 -0.6748,0.54928 -0.02,0 -0.1223,0.0594 -0.2267,0.13201 -0.1044,0.0726 -0.2619,0.16475 -0.35,0.20477 -0.31062,0.14111 -0.72212,0.35445 -0.82712,0.4289 -0.059,0.0414 -0.1311,0.0753 -0.1613,0.0753 -0.03,0 -0.098,0.0299 -0.15,0.0666 -0.052,0.0366 -0.1689,0.1054 -0.2592,0.1529 -0.09,0.0475 -0.2273,0.11979 -0.3044,0.16067 -0.077,0.0409 -0.1942,0.10137 -0.2603,0.13444 -0.066,0.0331 -0.1292,0.073 -0.1402,0.0887 -0.02,0.0286 -0.4732,0.24447 -0.6165,0.2937 -0.042,0.0144 -0.065,0.0373 -0.051,0.0509 0.024,0.0245 0.4749,-0.036 0.8276,-0.11114 0.2305,-0.0491 1.1478,-0.11298 1.2806,-0.0892 0.1303,0.0234 0.1715,0.0664 0.185,0.19332 0.019,0.1794 -0.088,0.36945 -0.2332,0.41449 -0.1905,0.059 -0.3677,0.0912 -0.5189,0.0943 -0.073,0.002 -0.1662,0.02 -0.2071,0.0411 -0.041,0.0211 -0.194,0.0469 -0.3404,0.0573 -0.1463,0.0105 -0.2931,0.0289 -0.3262,0.041 -0.3286,0.12079 -1.1102,0.24029 -1.8021,0.27556 -0.3837,0.0195 -0.4288,0.0143 -0.5151,-0.0606 z m 7.19192,-0.26673 c -0.01,-0.006 -0.1102,-0.0287 -0.2305,-0.0496 -0.1204,-0.0208 -0.3177,-0.0758 -0.4385,-0.12205 -0.1209,-0.0463 -0.2515,-0.0842 -0.2904,-0.0842 -0.039,0 -0.071,-0.0177 -0.071,-0.0393 0,-0.0216 -0.044,-0.0503 -0.097,-0.0636 -0.1202,-0.0302 -0.4185,-0.42106 -0.4517,-0.59198 -0.014,-0.0693 -0.044,-0.13894 -0.068,-0.15466 -0.025,-0.0166 -0.043,-0.15133 -0.042,-0.32075 0,-0.32586 0.1095,-0.58153 0.2827,-0.67427 0.052,-0.0278 0.1038,-0.0801 0.1153,-0.11629 0.034,-0.10636 0.4344,-0.48205 0.514,-0.48205 0.023,0 0.069,-0.0257 0.104,-0.0571 0.1225,-0.11044 0.7865,-0.42914 0.9843,-0.47243 0.2708,-0.0593 0.6949,-0.0722 0.7996,-0.0246 0.091,0.0412 0.3018,0.35852 0.3018,0.45317 0,0.0309 0.018,0.0671 0.039,0.0805 0.022,0.0134 0.033,0.0799 0.026,0.14764 -0.011,0.1026 -0.04,0.13234 -0.1697,0.1776 -0.2035,0.0709 -0.3167,0.0696 -0.3907,-0.005 -0.07,-0.0701 -0.1699,-0.0784 -0.2077,-0.0172 -0.014,0.0235 -0.049,0.0343 -0.076,0.0239 -0.078,-0.0299 -0.4321,0.10483 -0.7259,0.2764 -0.5739,0.33517 -0.885,0.75441 -0.7064,0.95196 0.2509,0.27744 1.0398,0.41495 1.8701,0.32597 0.1102,-0.0118 0.2634,-0.0278 0.3405,-0.0355 0.3062,-0.0307 0.8252,-0.20501 0.9728,-0.32668 0.2783,-0.22937 0.4054,-0.70799 0.2386,-0.89816 -0.1431,-0.16312 -0.2947,-0.2965 -0.3455,-0.30396 -0.029,-0.005 -0.1318,-0.0591 -0.2289,-0.12202 -0.097,-0.0628 -0.2306,-0.14147 -0.2966,-0.17467 -0.1191,-0.0598 -0.1884,-0.24056 -0.092,-0.24056 0.026,0 0.085,-0.0355 0.1309,-0.0789 0.075,-0.0703 0.095,-0.0729 0.1891,-0.0244 0.075,0.039 0.1175,0.0422 0.1484,0.0113 0.07,-0.0703 0.5697,0.11396 0.7456,0.27512 0.082,0.0754 0.161,0.13726 0.1748,0.13742 0.044,4.5e-4 0.1996,0.25431 0.2697,0.44025 0.06,0.15955 0.098,0.50677 0.094,0.85946 0,0.20084 -0.1117,0.45675 -0.2486,0.5811 -0.1557,0.14132 -0.7587,0.44839 -0.9167,0.4668 -0.062,0.007 -0.22,0.0495 -0.3524,0.0941 -0.1324,0.0446 -0.3392,0.0811 -0.4596,0.0811 -0.1204,0 -0.2696,0.0198 -0.3316,0.0439 -0.098,0.038 -1.0732,0.0837 -1.1051,0.0517 z m 10.684,-4.77817 c -0.1697,-0.0975 -0.1798,-0.2696 -0.03,-0.51497 0.063,-0.10391 0.1465,-0.29002 0.1848,-0.41358 0.04,-0.1305 0.1193,-0.27213 0.1879,-0.33789 0.065,-0.0622 0.1182,-0.13392 0.1182,-0.15919 0,-0.0253 0.05,-0.0916 0.1102,-0.14732 0.1491,-0.13729 0.3303,-0.3532 0.3303,-0.39364 0,-0.0182 0.023,-0.0388 0.05,-0.046 0.055,-0.0143 0.8134,-0.78888 0.7872,-0.8043 -0.1243,-0.0734 -0.3103,-0.15227 -0.3394,-0.14396 -0.021,0.006 -0.095,-0.0201 -0.1654,-0.0576 -0.2388,-0.12727 -0.3122,-0.0835 -0.2483,0.14806 0.039,0.14053 0.033,0.15808 -0.1091,0.31663 -0.083,0.0923 -0.2054,0.19567 -0.273,0.22968 -0.2063,0.10381 -0.8993,0.28524 -1.1384,0.29807 -0.1241,0.007 -0.2887,0.0237 -0.3658,0.0378 -0.1181,0.0217 -1.0962,0.0585 -1.8222,0.0686 -0.3375,0.005 -1.0789,-0.0529 -1.1216,-0.0872 -0.022,-0.0178 -0.1368,-0.0271 -0.2547,-0.0208 -0.118,0.006 -0.2981,-0.0141 -0.4003,-0.0454 -0.237,-0.0727 -0.4253,-0.10263 -0.6232,-0.0992 -0.1039,0.002 -0.1743,-0.0203 -0.2078,-0.0655 -0.043,-0.0582 -0.063,-0.0606 -0.1357,-0.0163 -0.047,0.0286 -0.1212,0.0405 -0.1655,0.0264 -0.058,-0.0183 -0.086,-0.005 -0.1,0.0482 -0.017,0.066 -0.065,0.0735 -0.4576,0.0718 -0.2829,-7.6e-4 -0.4553,-0.0188 -0.486,-0.0495 -0.037,-0.0368 -0.064,-0.0327 -0.1203,0.0181 -0.04,0.0361 -0.073,0.0466 -0.073,0.0232 0,-0.0234 -0.036,-0.0331 -0.08,-0.0215 -0.044,0.0115 -0.08,0.0366 -0.08,0.0559 0,0.0192 -0.041,0.0366 -0.09,0.0386 -0.5449,0.0223 -1.4585,-0.0195 -1.5919,-0.0727 -0.1601,-0.0639 -0.3819,-0.13033 -0.4355,-0.13033 -0.1394,0 -0.4188,-0.17941 -0.5626,-0.36128 -0.1212,-0.15345 -0.1633,-0.24764 -0.1828,-0.40959 -0.042,-0.34559 0.01,-0.4781 0.2708,-0.7067 0.2299,-0.2009 0.7422,-0.52484 0.8299,-0.52484 0.025,0 0.1212,-0.0435 0.2133,-0.0966 0.092,-0.0532 0.2484,-0.11981 0.3475,-0.14813 0.099,-0.0283 0.2343,-0.0811 0.3004,-0.11725 0.066,-0.0362 0.1922,-0.089 0.2803,-0.1174 0.088,-0.0284 0.1831,-0.0698 0.211,-0.092 0.048,-0.0383 0.117,-0.0564 0.59,-0.15489 0.1101,-0.023 0.2232,-0.0607 0.2512,-0.0839 0.028,-0.0232 0.061,-0.0325 0.072,-0.0207 0.012,0.0118 0.1125,-0.002 0.2238,-0.0319 0.3113,-0.0821 0.7065,-0.0579 0.8618,0.0529 0.07,0.0502 0.1391,0.13124 0.1529,0.18023 0.014,0.049 0.053,0.14457 0.088,0.21241 0.055,0.10741 0.055,0.13848 0.01,0.2403 -0.054,0.11194 -0.066,0.1165 -0.2958,0.10691 -0.577,-0.0241 -0.7638,-0.008 -1.1908,0.10279 -0.083,0.0215 -0.1502,0.029 -0.1502,0.017 0,-0.0121 -0.033,0.008 -0.073,0.0441 -0.04,0.0364 -0.1529,0.0825 -0.2503,0.10249 -0.1707,0.035 -0.2721,0.0669 -0.6177,0.19462 -0.2526,0.0934 -0.5649,0.22727 -0.6608,0.28339 -0.033,0.0193 -0.1231,0.0681 -0.2002,0.10842 -0.077,0.0403 -0.2113,0.14043 -0.2981,0.22254 -0.1762,0.16656 -0.1678,0.20799 0.065,0.32071 0.3598,0.17432 0.5644,0.22761 0.9741,0.25371 0.1101,0.007 0.2273,0.0228 0.2603,0.035 0.067,0.0248 0.3773,0.0675 0.5006,0.0689 0.6382,0.007 1.3137,-0.005 1.3432,-0.0226 0.022,-0.0134 0.013,-0.0611 -0.021,-0.11272 -0.094,-0.14293 -0.091,-0.50337 0.01,-0.68821 0.1016,-0.19569 0.3969,-0.37806 0.6755,-0.41708 0.1102,-0.0154 0.2579,-0.0583 0.3284,-0.0953 0.071,-0.037 0.1972,-0.0673 0.2815,-0.0673 0.084,0 0.193,-0.0279 0.2416,-0.0619 0.061,-0.0425 0.2235,-0.0683 0.5195,-0.0826 0.2372,-0.0114 0.4834,-0.0376 0.5473,-0.0583 0.064,-0.0207 0.1754,-0.0376 0.2479,-0.0376 0.073,0 0.1404,-0.0137 0.1508,-0.0306 0.026,-0.0417 0.9035,-0.0247 1.4676,0.0285 0.2533,0.0238 0.5625,0.0516 0.6871,0.0618 0.1246,0.0101 0.3439,0.0625 0.4874,0.11656 l 0.2609,0.0982 0.093,-0.1362 c 0.1166,-0.17022 0.3722,-0.22709 0.5705,-0.12688 0.3308,0.1672 0.5411,0.26174 0.6857,0.30816 0.087,0.028 0.2538,0.0937 0.3701,0.14605 0.1163,0.0523 0.228,0.0951 0.2483,0.0951 0.02,0 0.1312,0.0522 0.2465,0.11581 l 0.2096,0.11582 0.1629,-0.10352 c 0.09,-0.057 0.2088,-0.1451 0.2651,-0.19591 0.056,-0.0509 0.116,-0.0924 0.1328,-0.0924 0.017,0 0.097,-0.0629 0.178,-0.13988 0.081,-0.0769 0.2061,-0.16789 0.2777,-0.20212 0.072,-0.0342 0.1301,-0.0762 0.1301,-0.0933 0,-0.0399 0.3129,-0.24547 0.3741,-0.24567 0.026,-9e-5 0.1055,-0.0361 0.1776,-0.0801 0.072,-0.044 0.1631,-0.08 0.2022,-0.08 0.039,0 0.088,-0.0174 0.1099,-0.0387 0.021,-0.0213 0.1253,-0.0472 0.2311,-0.0576 0.1059,-0.0104 0.2161,-0.0385 0.245,-0.0624 0.039,-0.0322 0.058,-0.0289 0.074,0.0126 0.014,0.0364 0.059,0.049 0.1268,0.036 0.072,-0.0137 0.1335,0.006 0.1934,0.0624 0.048,0.0454 0.1376,0.10126 0.1982,0.12421 0.128,0.0485 0.1439,0.15719 0.036,0.24923 -0.041,0.0348 -0.099,0.0973 -0.1301,0.13906 -0.06,0.0809 -0.1542,0.12154 -0.6497,0.2808 -0.1721,0.0553 -0.3478,0.13547 -0.3905,0.17812 -0.043,0.0427 -0.1136,0.0776 -0.1576,0.0776 -0.044,0 -0.08,0.0143 -0.08,0.0318 0,0.0175 -0.1532,0.14527 -0.3404,0.28393 -0.1873,0.13866 -0.3405,0.25875 -0.3405,0.26685 0,0.0208 0.7203,0.36223 0.8411,0.39865 0.055,0.0166 0.1722,0.0706 0.2603,0.12011 0.088,0.0495 0.2593,0.12289 0.3804,0.16318 0.1212,0.0403 0.2563,0.10348 0.3004,0.14041 0.2256,0.1891 1.1603,0.41568 1.2871,0.312 0.029,-0.0235 0.085,-0.0192 0.1521,0.0112 0.081,0.0369 0.1037,0.0729 0.095,0.15009 -0.01,0.08 -0.043,0.10876 -0.157,0.1356 -0.094,0.022 -0.1604,0.0678 -0.1884,0.12928 -0.057,0.12501 -0.2794,0.16734 -0.5464,0.10398 -0.1108,-0.0263 -0.3351,-0.0515 -0.4985,-0.0562 -0.1957,-0.005 -0.3027,-0.0254 -0.3137,-0.0584 -0.01,-0.0276 -0.051,-0.0501 -0.092,-0.0501 -0.066,0 -0.2994,-0.091 -0.5278,-0.20544 -0.038,-0.0192 -0.1149,-0.0348 -0.1702,-0.0348 -0.055,0 -0.1007,-0.018 -0.1007,-0.0401 0,-0.022 -0.028,-0.04 -0.061,-0.04 -0.034,0 -0.2004,-0.064 -0.3705,-0.14214 -0.4917,-0.22603 -0.5693,-0.25835 -0.6202,-0.25835 -0.026,0 -0.1408,-0.0385 -0.2544,-0.0856 l -0.2065,-0.0856 -0.1541,0.11563 c -0.085,0.0636 -0.2136,0.17419 -0.2862,0.24578 -0.073,0.0716 -0.1395,0.13016 -0.1485,0.13016 -0.029,0 -0.7518,0.73254 -1.0422,1.05602 -0.1542,0.17173 -0.3289,0.36363 -0.3883,0.42644 -0.059,0.0629 -0.1515,0.18323 -0.2048,0.2676 -0.1675,0.2654 -0.3276,0.33066 -0.5282,0.21535 z m -6.0072,-2.20569 c 0.014,-0.022 0.01,-0.04 -0.018,-0.04 -0.023,0 -0.042,0.018 -0.042,0.04 0,0.022 0.01,0.04 0.018,0.04 0.01,0 0.029,-0.018 0.042,-0.04 z m 3.0056,-0.52362 c 0.073,-0.0584 0.3785,-0.0924 0.3785,-0.0421 0,0.0855 0.1895,0.0502 0.213,-0.0396 0.021,-0.0784 0.04,-0.0829 0.265,-0.059 0.139,0.0148 0.2428,0.0102 0.2428,-0.0108 0,-0.0202 0.086,-0.049 0.1903,-0.0641 0.1046,-0.0151 0.2893,-0.0567 0.4104,-0.0923 0.1212,-0.0356 0.2491,-0.0607 0.2843,-0.0557 0.067,0.01 0.1835,-0.10019 0.1461,-0.13754 -0.012,-0.0118 -0.1181,-0.0496 -0.236,-0.0837 -0.1521,-0.0441 -0.4329,-0.0652 -0.9671,-0.0727 -0.414,-0.006 -0.7628,-0.0206 -0.775,-0.0329 -0.012,-0.0123 -0.066,-0.006 -0.1188,0.0144 -0.053,0.0202 -0.2629,0.0457 -0.4664,0.0567 -0.2036,0.011 -0.4602,0.0393 -0.5703,0.0629 -0.5569,0.11947 -0.6462,0.14222 -0.7125,0.18153 -0.2311,0.13716 0.3328,0.373 0.9127,0.38172 0.1542,0.002 0.3242,0.0164 0.3777,0.0314 0.1148,0.0321 0.3655,0.01 0.4253,-0.0382 z m 2.6912,-0.0612 c 0.061,-0.0133 0.1642,-0.0326 0.2303,-0.0429 0.1711,-0.0266 0.4133,-0.14283 0.441,-0.21158 0.028,-0.0688 -0.1155,-0.19204 -0.2608,-0.22448 -0.055,-0.0123 -0.1568,-0.0471 -0.2262,-0.0774 -0.1515,-0.0661 -0.1818,-0.0453 -0.1305,0.0896 0.021,0.0558 0.029,0.11107 0.017,0.12271 -0.012,0.0116 -0.021,-7.7e-4 -0.021,-0.028 0,-0.027 -0.019,-0.0372 -0.043,-0.0227 -0.024,0.0146 -0.033,0.0531 -0.02,0.0856 0.027,0.071 -0.1825,0.29318 -0.2769,0.29318 -0.036,0 -0.054,0.0181 -0.041,0.0402 0.023,0.0379 0.059,0.0353 0.3303,-0.0244 z m -18.39202,1.59178 c -0.084,-0.0199 -0.1166,-0.0491 -0.1082,-0.0981 0.01,-0.0384 -0.025,-0.12155 -0.07,-0.18478 -0.078,-0.1099 -0.079,-0.11874 -0.012,-0.20091 0.057,-0.0702 0.1507,-0.0966 0.5104,-0.14398 0.2423,-0.0319 0.445,-0.0582 0.4505,-0.0583 0.045,-0.002 0,-0.0804 -0.05,-0.0804 -0.1226,0 -0.1945,-0.30146 -0.2435,-1.02122 -0.014,-0.19824 -0.031,-0.36665 -0.038,-0.37426 -0.01,-0.008 -0.2266,0.008 -0.487,0.0355 -0.9635,0.10044 -0.8872,0.1043 -0.9508,-0.048 -0.031,-0.0736 -0.068,-0.19993 -0.083,-0.28065 -0.024,-0.12645 -0.014,-0.15493 0.066,-0.20582 0.091,-0.0571 0.5021,-0.15492 0.8749,-0.20819 0.2561,-0.0366 0.5325,-0.18051 0.5589,-0.29101 0.012,-0.0499 0.016,-0.2797 0.01,-0.5105 -0.012,-0.41137 -0.015,-0.42013 -0.1141,-0.44512 -0.1383,-0.0347 -0.8441,0.0526 -1.4752,0.1825 -0.2863,0.059 -0.5654,0.0965 -0.6202,0.0834 -0.083,-0.0197 -0.1105,-0.0658 -0.1643,-0.27148 -0.061,-0.23453 -0.061,-0.25418 0.01,-0.36877 0.041,-0.0666 0.078,-0.12149 0.084,-0.12201 0.01,-4.6e-4 0.1098,-0.01 0.2309,-0.0204 0.1211,-0.0107 0.3644,-0.0373 0.5407,-0.059 0.8792,-0.10853 1.0599,-0.12377 1.4359,-0.12116 0.2235,0.002 0.4874,-0.008 0.5865,-0.0214 0.3591,-0.0483 1.5042,-0.0973 1.6019,-0.0686 0.055,0.0161 0.4155,0.0315 0.801,0.034 0.3854,0.002 1.0252,0.0273 1.4217,0.0551 0.3964,0.0278 0.83802,0.0546 0.98112,0.0596 0.1432,0.005 0.2996,0.0302 0.3476,0.0558 0.048,0.0257 0.1548,0.0554 0.2374,0.0659 0.082,0.0105 0.1679,0.037 0.1898,0.0589 0.042,0.0421 0.1384,0.28155 0.1746,0.43413 0.044,0.185 -0.2219,0.34652 -0.8056,0.48975 -0.1782,0.0438 -0.36,0.0972 -0.4041,0.1189 -0.044,0.0217 -0.1972,0.0661 -0.34042,0.0987 -0.2196,0.05 -0.9231,0.22555 -1.3346,0.33299 -0.2427,0.0634 -0.098,0.10964 0.3437,0.10964 0.2476,0 0.4748,0.0158 0.5047,0.0351 0.03,0.0193 0.1699,0.0326 0.311,0.0296 0.188,-0.004 0.29962,0.0164 0.41752,0.0765 0.088,0.0451 0.1783,0.0714 0.1996,0.0583 0.021,-0.0131 0.079,0.005 0.1276,0.0386 0.049,0.0343 0.118,0.0624 0.1533,0.0624 0.079,0 0.2384,0.16378 0.2384,0.24522 0,0.0329 0.026,0.0948 0.059,0.13759 0.081,0.1064 0.076,0.21457 -0.018,0.40061 -0.1073,0.2131 -0.1415,0.25051 -0.4334,0.47345 -0.2206,0.16851 -0.80792,0.46519 -0.92082,0.46519 -0.022,0 -0.1724,0.0567 -0.3344,0.12587 -0.162,0.0692 -0.5108,0.18429 -0.7751,0.25571 -0.2643,0.0714 -0.6157,0.16825 -0.7809,0.2152 -0.1652,0.047 -0.4986,0.12194 -0.7409,0.16665 -0.2423,0.0447 -0.5655,0.10875 -0.7182,0.14231 -0.3024,0.0664 -1.2513,0.1066 -1.4444,0.0611 z m 1.9022,-0.86635 c 0.2754,-0.0566 0.6268,-0.14183 0.781,-0.18941 0.3344,-0.10317 0.2562,-0.0809 0.821,-0.23367 0.2533,-0.0685 0.4776,-0.14109 0.4986,-0.1613 0.021,-0.0202 0.067,-0.0367 0.103,-0.0367 0.036,0 0.1766,-0.0541 0.313,-0.12014 0.1364,-0.0661 0.266,-0.12014 0.2881,-0.12014 0.085,0 0.4757,-0.24892 0.53642,-0.3415 0.076,-0.11644 0.094,-0.10984 -0.53772,-0.19582 -0.6089,-0.0828 -1.3771,-0.0974 -2.523,-0.0479 -0.7077,0.0305 -0.9636,0.0619 -0.9821,0.12029 -0.01,0.0244 -0.021,0.29675 -0.029,0.60512 -0.015,0.54961 -0.035,0.64002 -0.1783,0.8223 -0.043,0.0543 -0.022,0.058 0.1802,0.0316 0.1258,-0.0163 0.4539,-0.0761 0.7292,-0.13267 z m -0.2493,-2.40069 c 0.1383,-0.0373 0.3365,-0.084 0.4406,-0.10379 0.1041,-0.0198 0.3063,-0.0651 0.4495,-0.10079 0.1432,-0.0357 0.3532,-0.0795 0.4668,-0.0976 0.1135,-0.018 0.2667,-0.0515 0.3404,-0.0743 0.074,-0.0228 0.2511,-0.0685 0.3943,-0.10158 0.1431,-0.0331 0.4044,-0.0987 0.5807,-0.14588 0.3866,-0.10348 0.5647,-0.14817 0.7108,-0.17837 0.22892,-0.0473 0.1,-0.10156 -0.2603,-0.10921 -0.2038,-0.005 -0.4606,-0.0118 -0.5707,-0.0165 -1.3755,-0.0593 -2.9876,-0.0299 -3.0702,0.056 -0.015,0.0157 -0.01,0.0939 0.023,0.17384 0.037,0.10724 0.041,0.21498 0.013,0.41024 -0.021,0.14565 -0.027,0.29397 -0.013,0.32961 0.028,0.0726 0.092,0.0672 0.4955,-0.0417 z m 5.08102,2.52237 c -0.058,-0.054 -0.106,-0.13405 -0.106,-0.17785 0,-0.0438 -0.016,-0.0898 -0.036,-0.10221 -0.039,-0.024 -0.034,-0.14699 0.011,-0.28768 0.028,-0.0866 0.3646,-0.25516 0.5097,-0.25516 0.099,0 0.3164,0.21796 0.3164,0.31668 0,0.0435 0.018,0.0902 0.04,0.10383 0.073,0.0449 0.043,0.24397 -0.05,0.33076 -0.2054,0.19243 -0.5192,0.22524 -0.685,0.0716 z"
       id="path17679" /></g></svg>
