%FSLAX25Y25*%
%MOIN*%
G70*
G01*
G75*
G04 Layer_Physical_Order=2*
G04 Layer_Color=65280*
%ADD10R,0.08000X0.05000*%
%ADD11R,0.05906X0.03937*%
%ADD12C,0.02500*%
%ADD13C,0.16500*%
%ADD14C,0.04000*%
%ADD15R,0.12205X0.17716*%
G36*
X647500Y552254D02*
X646177Y551546D01*
X645768Y551820D01*
X643828Y552777D01*
X641780Y553472D01*
X639658Y553894D01*
X637500Y554035D01*
X635342Y553894D01*
X633220Y553472D01*
X631172Y552777D01*
X629232Y551820D01*
X627434Y550618D01*
X625808Y549192D01*
X624382Y547566D01*
X623180Y545768D01*
X622223Y543828D01*
X621528Y541780D01*
X621106Y539658D01*
X620965Y537500D01*
X621106Y535342D01*
X621528Y533220D01*
X622223Y531172D01*
X623180Y529232D01*
X623454Y528823D01*
X622746Y527500D01*
X502500D01*
Y572746D01*
X503823Y573454D01*
X504232Y573180D01*
X506172Y572223D01*
X508220Y571528D01*
X510342Y571106D01*
X512500Y570965D01*
X514658Y571106D01*
X516780Y571528D01*
X518828Y572223D01*
X520768Y573180D01*
X522566Y574382D01*
X524192Y575808D01*
X525618Y577434D01*
X526820Y579232D01*
X527777Y581172D01*
X528472Y583220D01*
X528894Y585342D01*
X529035Y587500D01*
X528894Y589658D01*
X528472Y591780D01*
X527777Y593828D01*
X526820Y595768D01*
X526546Y596177D01*
X527254Y597500D01*
X574265D01*
X574839Y596114D01*
X574112Y595388D01*
X573351Y594395D01*
X573266Y594191D01*
X568308D01*
X568111Y594165D01*
X567888Y594388D01*
X566895Y595149D01*
X566557Y595289D01*
X565740Y595628D01*
X564500Y595791D01*
X541000D01*
X539760Y595628D01*
X538604Y595149D01*
X537612Y594388D01*
X534112Y590888D01*
X533351Y589895D01*
X533211Y589557D01*
X532872Y588740D01*
X532709Y587500D01*
Y585791D01*
X532696Y585774D01*
X532142Y584436D01*
X531952Y583000D01*
X532142Y581564D01*
X532696Y580226D01*
X533577Y579077D01*
X534726Y578196D01*
X536064Y577642D01*
X537500Y577453D01*
X538936Y577642D01*
X540274Y578196D01*
X540508Y578376D01*
X541854Y577712D01*
Y562548D01*
Y537942D01*
X549065D01*
X549452Y537500D01*
X549642Y536064D01*
X550196Y534726D01*
X551077Y533577D01*
X552226Y532696D01*
X553564Y532142D01*
X555000Y531952D01*
X556436Y532142D01*
X556599Y532209D01*
X567000D01*
X568240Y532372D01*
X569057Y532711D01*
X569395Y532851D01*
X570388Y533612D01*
X570888Y534112D01*
X571649Y535105D01*
X572128Y536260D01*
X572291Y537500D01*
Y537942D01*
X576806D01*
Y562548D01*
Y583244D01*
X577500Y583852D01*
X578936Y584042D01*
X580274Y584596D01*
X581423Y585477D01*
X582098Y585676D01*
Y585676D01*
X582098Y585676D01*
X583247Y584794D01*
X584585Y584240D01*
X586021Y584051D01*
X587456Y584240D01*
X587850Y584403D01*
X589098Y583570D01*
Y562548D01*
Y537942D01*
X608302D01*
Y562548D01*
Y576167D01*
X609723Y576650D01*
X609778Y576577D01*
X610927Y575696D01*
X612265Y575142D01*
X613701Y574953D01*
X615137Y575142D01*
X616474Y575696D01*
X617623Y576577D01*
X618505Y577726D01*
X619059Y579064D01*
X619248Y580500D01*
X619059Y581936D01*
X618505Y583274D01*
X618492Y583291D01*
Y585799D01*
X618329Y587039D01*
X617850Y588195D01*
X617089Y589187D01*
X610161Y596114D01*
X610735Y597500D01*
X647500D01*
Y552254D01*
D02*
G37*
D12*
X572500Y530000D02*
X576000Y533500D01*
X545500Y530000D02*
X572500D01*
X538500Y537000D02*
X545500Y530000D01*
X534500Y537000D02*
X538500D01*
X582500Y536500D02*
X584500Y534500D01*
X608500D01*
X610500Y536500D01*
Y557100D01*
X617500Y564100D01*
Y572000D01*
X567204Y550300D02*
Y588296D01*
X527500Y561500D02*
Y573000D01*
Y561500D02*
X534500Y554500D01*
Y537000D02*
Y554500D01*
X537500Y583000D02*
Y587500D01*
X541000Y591000D01*
X567000Y575110D02*
X567204Y574906D01*
X541000Y591000D02*
X564500D01*
X567204Y588296D01*
X568308Y589400D02*
X577500D01*
X567204Y588296D02*
X568308Y589400D01*
X586021Y589598D02*
X595402D01*
X598700Y586300D01*
X613701Y580500D02*
Y585799D01*
X605000Y594500D02*
X613701Y585799D01*
X580000Y594500D02*
X605000D01*
X577500Y589400D02*
Y592000D01*
X580000Y594500D01*
X576000Y533500D02*
X579500D01*
X582500Y536500D01*
Y549848D01*
X582952Y550300D01*
X555000Y537500D02*
X555500Y537000D01*
X567000D01*
X567500Y537500D01*
Y550004D01*
X555000Y537500D02*
X555500D01*
X551456Y550300D02*
Y574906D01*
X567204Y550300D02*
X567500Y550004D01*
X582952Y550300D02*
Y574906D01*
X598700Y550300D02*
Y586300D01*
D13*
X512500Y587500D02*
D03*
X637500Y537500D02*
D03*
D14*
X556000Y582000D02*
D03*
X586021Y589598D02*
D03*
X537500Y583000D02*
D03*
X527500Y573000D02*
D03*
X555000Y537500D02*
D03*
X534500Y537000D02*
D03*
Y554500D02*
D03*
X576000Y533500D02*
D03*
X610500Y557100D02*
D03*
X577500Y589400D02*
D03*
X617500Y572000D02*
D03*
X613701Y580500D02*
D03*
X565500Y567900D02*
D03*
D15*
X598700Y550300D02*
D03*
X582952D02*
D03*
X567204D02*
D03*
X598700Y574906D02*
D03*
X582952D02*
D03*
X567204D02*
D03*
X551456Y550300D02*
D03*
Y574906D02*
D03*
M02*
