%FSLAX25Y25*%
%MOIN*%
G70*
G01*
G75*
G04 Layer_Color=8421504*
%ADD10R,0.08000X0.05000*%
%ADD11R,0.05906X0.03937*%
%ADD12C,0.02500*%
%ADD13C,0.16500*%
%ADD14C,0.04000*%
%ADD15R,0.12205X0.17716*%
%ADD16C,0.01000*%
%ADD17R,0.07000X0.04000*%
%ADD18R,0.04906X0.02937*%
D17*
X604500Y568100D02*
D03*
Y557100D02*
D03*
X577500Y578400D02*
D03*
Y589400D02*
D03*
X593000Y557100D02*
D03*
Y568100D02*
D03*
X581000Y556900D02*
D03*
Y567900D02*
D03*
X573000Y544000D02*
D03*
Y533000D02*
D03*
X565500Y556900D02*
D03*
Y567900D02*
D03*
X538100Y568000D02*
D03*
Y557000D02*
D03*
X549900Y567500D02*
D03*
Y556500D02*
D03*
D18*
X605300Y577000D02*
D03*
Y583299D02*
D03*
Y589598D02*
D03*
X586021Y577000D02*
D03*
Y589598D02*
D03*
Y583299D02*
D03*
X586121Y541701D02*
D03*
Y548000D02*
D03*
Y535402D02*
D03*
X605400Y548000D02*
D03*
Y541701D02*
D03*
Y535402D02*
D03*
X544621Y548000D02*
D03*
Y541701D02*
D03*
Y535402D02*
D03*
X563900Y548000D02*
D03*
Y535402D02*
D03*
Y541701D02*
D03*
X563879Y583200D02*
D03*
Y576901D02*
D03*
Y589499D02*
D03*
X544600Y576901D02*
D03*
Y583200D02*
D03*
Y589499D02*
D03*
M02*
