%FSLAX25Y25*%
%MOIN*%
G70*
G01*
G75*
G04 Layer_Physical_Order=1*
G04 Layer_Color=255*
%ADD10R,0.08000X0.05000*%
%ADD11R,0.05906X0.03937*%
%ADD12C,0.02500*%
%ADD13C,0.16500*%
%ADD14C,0.04000*%
G36*
X607872Y561760D02*
X608211Y560943D01*
X608351Y560604D01*
X609112Y559612D01*
X611209Y557515D01*
Y555984D01*
X609112Y553888D01*
X608351Y552895D01*
X607872Y551740D01*
X607709Y550500D01*
Y547169D01*
X599606D01*
X597061Y549714D01*
X597635Y551100D01*
X600500D01*
Y562100D01*
X607828D01*
X607872Y561760D01*
D02*
G37*
G36*
X575209Y537500D02*
X575209Y537500D01*
D01*
X575372Y536260D01*
X575711Y535443D01*
X575851Y535105D01*
X576612Y534112D01*
X576612Y534112D01*
X576612Y534112D01*
X577048Y533677D01*
X576474Y532291D01*
X570353D01*
Y536232D01*
Y538000D01*
X574709D01*
X575209Y537500D01*
D02*
G37*
G36*
X647500Y552254D02*
X646177Y551546D01*
X645768Y551820D01*
X643828Y552777D01*
X641780Y553472D01*
X639658Y553894D01*
X637500Y554035D01*
X635342Y553894D01*
X633220Y553472D01*
X631172Y552777D01*
X629232Y551820D01*
X627434Y550618D01*
X625808Y549192D01*
X625769Y549148D01*
X624495Y549940D01*
X624628Y550260D01*
X624791Y551500D01*
Y565516D01*
X626888Y567612D01*
X627649Y568605D01*
X628128Y569760D01*
X628291Y571000D01*
Y586000D01*
X628128Y587240D01*
X627649Y588396D01*
X626888Y589388D01*
X620161Y596114D01*
X620735Y597500D01*
X647500D01*
Y552254D01*
D02*
G37*
G36*
X592839Y596114D02*
X591791Y595067D01*
X586620D01*
X586021Y595146D01*
X585421Y595067D01*
X585000D01*
Y595400D01*
X570000D01*
Y594968D01*
X557427D01*
Y594791D01*
X554000D01*
X552760Y594628D01*
X551605Y594149D01*
X551053Y594968D01*
Y594968D01*
X538147D01*
Y593464D01*
X537500Y588548D01*
X536064Y588358D01*
X534726Y587804D01*
X533577Y586923D01*
X532696Y585774D01*
X532142Y584436D01*
X531952Y583000D01*
X532142Y581564D01*
X532696Y580226D01*
X533577Y579077D01*
X534726Y578196D01*
X536064Y577642D01*
X537500Y577453D01*
X538936Y577642D01*
X539153Y577732D01*
X545709D01*
Y574000D01*
X545600D01*
Y574000D01*
X530600D01*
Y562000D01*
X542400D01*
Y561500D01*
Y553469D01*
X538168D01*
Y542531D01*
Y536232D01*
X549492D01*
X549639Y536086D01*
X549642Y536064D01*
X550196Y534726D01*
X551077Y533577D01*
X552226Y532696D01*
X553564Y532142D01*
X555000Y531952D01*
X556320Y532126D01*
X557447Y531137D01*
Y529933D01*
X559109D01*
Y528100D01*
X558583Y527500D01*
X502500D01*
Y572746D01*
X503823Y573454D01*
X504232Y573180D01*
X506172Y572223D01*
X508220Y571528D01*
X510342Y571106D01*
X512500Y570965D01*
X514658Y571106D01*
X516780Y571528D01*
X518828Y572223D01*
X520768Y573180D01*
X522566Y574382D01*
X524192Y575808D01*
X525618Y577434D01*
X526820Y579232D01*
X527777Y581172D01*
X528472Y583220D01*
X528894Y585342D01*
X529035Y587500D01*
X528894Y589658D01*
X528472Y591780D01*
X527777Y593828D01*
X526820Y595768D01*
X526546Y596177D01*
X527254Y597500D01*
X592265D01*
X592839Y596114D01*
D02*
G37*
G36*
X592473Y571531D02*
X594193Y571531D01*
X597000Y568724D01*
Y563100D01*
X588500D01*
Y571531D01*
X592473D01*
Y571531D01*
D02*
G37*
D10*
X604500Y568100D02*
D03*
Y557100D02*
D03*
X577500Y578400D02*
D03*
Y589400D02*
D03*
X593000Y557100D02*
D03*
Y568100D02*
D03*
X581000Y556900D02*
D03*
Y567900D02*
D03*
X573000Y544000D02*
D03*
Y533000D02*
D03*
X565500Y556900D02*
D03*
Y567900D02*
D03*
X538100Y568000D02*
D03*
Y557000D02*
D03*
X549900Y567500D02*
D03*
Y556500D02*
D03*
D11*
X605300Y577000D02*
D03*
Y583299D02*
D03*
Y589598D02*
D03*
X586021Y577000D02*
D03*
Y589598D02*
D03*
Y583299D02*
D03*
X586121Y541701D02*
D03*
Y548000D02*
D03*
Y535402D02*
D03*
X605400Y548000D02*
D03*
Y541701D02*
D03*
Y535402D02*
D03*
X544621Y548000D02*
D03*
Y541701D02*
D03*
Y535402D02*
D03*
X563900Y548000D02*
D03*
Y535402D02*
D03*
Y541701D02*
D03*
X563879Y583200D02*
D03*
Y576901D02*
D03*
Y589499D02*
D03*
X544600Y576901D02*
D03*
Y583200D02*
D03*
Y589499D02*
D03*
D12*
X604400Y557100D02*
X610500D01*
X565500Y567900D02*
X581000D01*
X623500Y571000D02*
Y586000D01*
X614000Y595500D02*
X623500Y586000D01*
X617500Y549000D02*
X620000Y551500D01*
X599000Y595500D02*
X614000D01*
X620000Y551500D02*
Y567500D01*
X623500Y571000D01*
X612396Y589598D02*
X619268Y582726D01*
Y573768D02*
Y582726D01*
X617500Y572000D02*
X619268Y573768D01*
X605300Y589598D02*
X612396D01*
X617500Y537500D02*
Y549000D01*
X610000Y530000D02*
X617500Y537500D01*
X600000Y530000D02*
X610000D01*
X612500Y563000D02*
X616000Y559500D01*
Y554000D02*
Y559500D01*
X610902Y583299D02*
X613701Y580500D01*
X612500Y579299D02*
X613701Y580500D01*
X612500Y563000D02*
Y579299D01*
Y543201D02*
Y550500D01*
X611000Y541701D02*
X612500Y543201D01*
Y550500D02*
X616000Y554000D01*
X593400Y568100D02*
X604400Y557100D01*
X593000Y568100D02*
X593400D01*
X578900Y577000D02*
X595500D01*
X577500Y578400D02*
X578900Y577000D01*
X593500Y590000D02*
X599000Y595500D01*
X592000Y548000D02*
X598500Y541500D01*
X586121Y548000D02*
X592000D01*
X598500Y531500D02*
Y541500D01*
Y531500D02*
X600000Y530000D01*
X593500Y585500D02*
Y590000D01*
X591299Y583299D02*
X593500Y585500D01*
X586021Y583299D02*
X591299D01*
X564500Y527500D02*
X591000D01*
X593500Y530000D02*
Y538000D01*
X591000Y527500D02*
X593500Y530000D01*
X586121Y541701D02*
X589799D01*
X593500Y538000D01*
X580000Y537500D02*
X582098Y535402D01*
X580000Y537500D02*
Y555900D01*
X581000Y556900D01*
X582098Y535402D02*
X586121D01*
X585522Y536000D02*
X586121Y535402D01*
X604500Y548900D02*
X605400Y548000D01*
X604500Y548900D02*
Y557100D01*
X592800Y556900D02*
X593000Y557100D01*
X581000Y556900D02*
X592800D01*
X550500Y570500D02*
X553300Y567700D01*
X550500Y586500D02*
X554000Y590000D01*
X563379D01*
X563879Y589499D01*
X550500Y570500D02*
Y586500D01*
X557200Y583200D02*
X563879D01*
X556000Y582000D02*
X557200Y583200D01*
X538400Y567700D02*
X553300D01*
X538100Y568000D02*
X538400Y567700D01*
X604400Y568100D02*
X604500D01*
X595500Y577000D02*
X604400Y568100D01*
X563900Y548000D02*
X565200Y549300D01*
X561901Y576901D02*
X563879D01*
X558000Y573000D02*
X561901Y576901D01*
X558000Y558000D02*
Y573000D01*
Y544500D02*
Y558000D01*
Y543500D02*
Y544500D01*
Y543500D02*
X559500Y542000D01*
X563601D01*
X563900Y541701D01*
Y528100D02*
Y535402D01*
Y528100D02*
X564500Y527500D01*
X563900Y548000D02*
X569000D01*
X573000Y544000D01*
X565200Y549300D02*
Y556900D01*
X537700Y583200D02*
X544600D01*
X537500Y583000D02*
X537700Y583200D01*
X531401Y576901D02*
X544600D01*
X527500Y573000D02*
X531401Y576901D01*
X544621Y541701D02*
X550799D01*
X555000Y537500D01*
X536098Y535402D02*
X544621D01*
X534500Y537000D02*
X536098Y535402D01*
X550799Y541701D02*
X553500Y544402D01*
X549900Y556500D02*
X553500Y552900D01*
Y544402D02*
Y552900D01*
X605300Y583299D02*
X610902D01*
X605400Y541701D02*
X611000D01*
D13*
X512500Y587500D02*
D03*
X637500Y537500D02*
D03*
D14*
X556000Y582000D02*
D03*
X586021Y589598D02*
D03*
X537500Y583000D02*
D03*
X527500Y573000D02*
D03*
X555000Y537500D02*
D03*
X534500Y537000D02*
D03*
Y554500D02*
D03*
X576000Y533500D02*
D03*
X610500Y557100D02*
D03*
X577500Y589400D02*
D03*
X617500Y572000D02*
D03*
X613701Y580500D02*
D03*
X565500Y567900D02*
D03*
M02*
