%FSLAX25Y25*%
%MOIN*%
G70*
G01*
G75*
G04 Layer_Color=33789*
%ADD10P,0.08352X4X369.0*%
%ADD11P,0.08352X4X81.0*%
%ADD12P,0.08352X4X153.0*%
%ADD13R,0.05906X0.05906*%
%ADD14P,0.08352X4X117.0*%
%ADD15R,0.05906X0.05906*%
%ADD16C,0.05000*%
%ADD17C,0.02500*%
%ADD18C,0.16500*%
%ADD19C,0.04000*%
%ADD20R,0.05000X0.08000*%
%ADD21R,0.12205X0.17716*%
%ADD22C,0.01000*%
%ADD23C,0.01200*%
%ADD24C,0.01500*%
D22*
X933000Y925000D02*
G03*
X933000Y825000I0J-50000D01*
G01*
X1283000D02*
G03*
X1283000Y925000I0J50000D01*
G01*
X933000D02*
X1283000D01*
X933000Y825000D02*
X1283000D01*
X1186484Y879984D02*
Y889016D01*
Y879984D02*
X1203516D01*
Y889016D01*
X1186484D02*
X1203516D01*
X1028516Y861484D02*
Y870516D01*
X1011484D02*
X1028516D01*
X1011484Y861484D02*
Y870516D01*
Y861484D02*
X1028516D01*
X1051622Y911453D02*
X1053591D01*
Y880941D02*
Y911453D01*
X1051622Y880941D02*
X1053591D01*
X986661Y911453D02*
X988630D01*
X986661Y880941D02*
Y911453D01*
Y880941D02*
X988630D01*
X1161409Y838941D02*
X1163378D01*
X1161409D02*
Y869453D01*
X1163378D01*
X1226370Y838941D02*
X1228339Y838941D01*
Y869453D01*
X1226370D02*
X1228339D01*
X1041668Y836665D02*
X1042501Y837498D01*
X1044167D01*
X1045000Y836665D01*
Y833333D01*
X1044167Y832500D01*
X1042501D01*
X1041668Y833333D01*
X1036669Y832500D02*
X1040002D01*
X1036669Y835832D01*
Y836665D01*
X1037502Y837498D01*
X1039169D01*
X1040002Y836665D01*
X1212745Y918088D02*
X1213578Y918921D01*
X1215244D01*
X1216077Y918088D01*
Y914756D01*
X1215244Y913923D01*
X1213578D01*
X1212745Y914756D01*
X1211079Y913923D02*
X1209413D01*
X1210246D01*
Y918921D01*
X1211079Y918088D01*
X1236668Y854998D02*
X1238334D01*
X1237501D01*
Y850833D01*
X1238334Y850000D01*
X1239167D01*
X1240000Y850833D01*
X1231669Y850000D02*
X1235002D01*
X1231669Y853332D01*
Y854165D01*
X1232502Y854998D01*
X1234169D01*
X1235002Y854165D01*
X977168Y903498D02*
X978834D01*
X978001D01*
Y899333D01*
X978834Y898500D01*
X979667D01*
X980500Y899333D01*
X975502Y898500D02*
X973835D01*
X974669D01*
Y903498D01*
X975502Y902665D01*
X1148321Y849179D02*
X1145822D01*
X1144989Y850012D01*
X1145822Y850845D01*
X1147488D01*
X1148321Y851678D01*
X1147488Y852511D01*
X1144989D01*
X1143323Y847513D02*
Y852511D01*
X1140823D01*
X1139990Y851678D01*
Y850012D01*
X1140823Y849179D01*
X1143323D01*
X1137491Y852511D02*
X1135825D01*
X1134992Y851678D01*
Y849179D01*
X1137491D01*
X1138324Y850012D01*
X1137491Y850845D01*
X1134992D01*
X1129994Y852511D02*
X1132493D01*
X1133326Y851678D01*
Y850012D01*
X1132493Y849179D01*
X1129994D01*
X1125828D02*
X1127495D01*
X1128327Y850012D01*
Y851678D01*
X1127495Y852511D01*
X1125828D01*
X1124995Y851678D01*
Y850845D01*
X1128327D01*
X1123329Y851678D02*
X1119997D01*
X1115832Y849179D02*
X1117498D01*
X1118331Y850012D01*
Y851678D01*
X1117498Y852511D01*
X1115832D01*
X1114999Y851678D01*
Y850845D01*
X1118331D01*
X1113332Y849179D02*
X1111666D01*
X1112499D01*
Y852511D01*
X1113332D01*
X1107501Y847513D02*
X1106668D01*
X1105835Y848346D01*
Y852511D01*
X1108334D01*
X1109167Y851678D01*
Y850012D01*
X1108334Y849179D01*
X1105835D01*
X1104169Y854177D02*
Y849179D01*
Y851678D01*
X1103336Y852511D01*
X1101670D01*
X1100836Y851678D01*
Y849179D01*
X1098337Y853344D02*
Y852511D01*
X1099170D01*
X1097504D01*
X1098337D01*
Y850012D01*
X1097504Y849179D01*
X1095005D02*
Y850012D01*
X1094172D01*
Y849179D01*
X1095005D01*
X1087507Y852511D02*
X1090007D01*
X1090840Y851678D01*
Y850012D01*
X1090007Y849179D01*
X1087507D01*
X1085008D02*
X1083342D01*
X1082509Y850012D01*
Y851678D01*
X1083342Y852511D01*
X1085008D01*
X1085841Y851678D01*
Y850012D01*
X1085008Y849179D01*
X1080843D02*
Y852511D01*
X1080010D01*
X1079177Y851678D01*
Y849179D01*
Y851678D01*
X1078344Y852511D01*
X1077511Y851678D01*
Y849179D01*
X1105000Y890832D02*
Y887500D01*
Y889166D01*
X1104167Y889999D01*
X1103334Y890832D01*
X1102501D01*
X1097502Y887500D02*
X1099169D01*
X1100002Y888333D01*
Y889999D01*
X1099169Y890832D01*
X1097502D01*
X1096669Y889999D01*
Y889166D01*
X1100002D01*
X1095003Y890832D02*
X1093337Y887500D01*
X1091671Y890832D01*
X1086673Y887500D02*
X1090005D01*
X1086673Y890832D01*
Y891665D01*
X1087506Y892498D01*
X1089172D01*
X1090005Y891665D01*
X1085007Y887500D02*
Y888333D01*
X1084173D01*
Y887500D01*
X1085007D01*
X1080841Y891665D02*
X1080008Y892498D01*
X1078342D01*
X1077509Y891665D01*
Y888333D01*
X1078342Y887500D01*
X1080008D01*
X1080841Y888333D01*
Y891665D01*
X1075843Y887500D02*
X1074177D01*
X1075010D01*
Y892498D01*
X1075843Y891665D01*
X1152500Y864998D02*
Y860000D01*
X1150001D01*
X1149168Y860833D01*
Y861666D01*
X1150001Y862499D01*
X1152500D01*
X1150001D01*
X1149168Y863332D01*
Y864165D01*
X1150001Y864998D01*
X1152500D01*
X1147502Y860000D02*
Y864998D01*
X1145002D01*
X1144169Y864165D01*
Y862499D01*
X1145002Y861666D01*
X1147502D01*
X1145835D02*
X1144169Y860000D01*
X1142503Y864998D02*
X1140837D01*
X1141670D01*
Y860000D01*
X1142503D01*
X1140837D01*
X1138338D02*
Y863332D01*
X1136672Y864998D01*
X1135006Y863332D01*
Y860000D01*
Y862499D01*
X1138338D01*
X1133340Y860000D02*
Y864998D01*
X1130007Y860000D01*
Y864998D01*
X1120010Y864165D02*
X1120844Y864998D01*
X1122510D01*
X1123343Y864165D01*
Y860833D01*
X1122510Y860000D01*
X1120844D01*
X1120010Y860833D01*
X1115845Y864998D02*
X1117511D01*
X1118344Y864165D01*
Y860833D01*
X1117511Y860000D01*
X1115845D01*
X1115012Y860833D01*
Y864165D01*
X1115845Y864998D01*
X1113346D02*
X1110014Y860000D01*
Y864998D02*
X1113346Y860000D01*
X1096668Y863332D02*
X1099167D01*
X1100000Y862499D01*
Y860833D01*
X1099167Y860000D01*
X1096668D01*
X1086671D02*
X1090003D01*
X1086671Y863332D01*
Y864165D01*
X1087504Y864998D01*
X1089170D01*
X1090003Y864165D01*
X1085005D02*
X1084172Y864998D01*
X1082506D01*
X1081673Y864165D01*
Y860833D01*
X1082506Y860000D01*
X1084172D01*
X1085005Y860833D01*
Y864165D01*
X1076674Y860000D02*
X1080007D01*
X1076674Y863332D01*
Y864165D01*
X1077507Y864998D01*
X1079173D01*
X1080007Y864165D01*
X1071676Y860000D02*
X1075008D01*
X1071676Y863332D01*
Y864165D01*
X1072509Y864998D01*
X1074175D01*
X1075008Y864165D01*
D23*
X1151001Y905998D02*
X1155000D01*
Y900000D01*
X1151001D01*
X1155000Y902999D02*
X1153001D01*
X1149002Y905998D02*
X1147003D01*
X1148002D01*
Y900000D01*
X1149002D01*
X1147003D01*
X1140005Y904998D02*
X1141004Y905998D01*
X1143004D01*
X1144004Y904998D01*
Y901000D01*
X1143004Y900000D01*
X1141004D01*
X1140005Y901000D01*
Y902999D01*
X1142004D01*
X1138006Y905998D02*
Y900000D01*
Y902999D01*
X1134007D01*
Y905998D01*
Y900000D01*
X1132007Y905998D02*
X1128009D01*
X1130008D01*
Y900000D01*
X1120011Y905998D02*
Y900000D01*
X1117012D01*
X1116013Y901000D01*
Y901999D01*
X1117012Y902999D01*
X1120011D01*
X1117012D01*
X1116013Y903999D01*
Y904998D01*
X1117012Y905998D01*
X1120011D01*
X1114013Y900000D02*
Y903999D01*
X1112014Y905998D01*
X1110015Y903999D01*
Y900000D01*
Y902999D01*
X1114013D01*
X1108015Y905998D02*
Y900000D01*
X1104016D01*
X1102017Y905998D02*
Y900000D01*
X1098018D01*
X1086022Y904998D02*
X1087022Y905998D01*
X1089021D01*
X1090021Y904998D01*
Y903999D01*
X1089021Y902999D01*
X1087022D01*
X1086022Y901999D01*
Y901000D01*
X1087022Y900000D01*
X1089021D01*
X1090021Y901000D01*
X1084023Y905998D02*
X1080024D01*
X1082024D01*
Y900000D01*
X1078025D02*
Y905998D01*
X1075026D01*
X1074026Y904998D01*
Y902999D01*
X1075026Y901999D01*
X1078025D01*
X1076025D02*
X1074026Y900000D01*
X1072027Y905998D02*
X1070028D01*
X1071027D01*
Y900000D01*
X1072027D01*
X1070028D01*
X1067029D02*
Y905998D01*
X1064029D01*
X1063030Y904998D01*
Y902999D01*
X1064029Y901999D01*
X1067029D01*
X1143501Y893498D02*
X1147500D01*
Y890499D01*
X1145501Y891499D01*
X1144501D01*
X1143501Y890499D01*
Y888500D01*
X1144501Y887500D01*
X1146500D01*
X1147500Y888500D01*
X1141502Y892498D02*
X1140502Y893498D01*
X1138503D01*
X1137503Y892498D01*
Y888500D01*
X1138503Y887500D01*
X1140502D01*
X1141502Y888500D01*
Y892498D01*
X1131505Y893498D02*
X1135504D01*
Y890499D01*
X1133504Y891499D01*
X1132505D01*
X1131505Y890499D01*
Y888500D01*
X1132505Y887500D01*
X1134504D01*
X1135504Y888500D01*
X1129506Y887500D02*
X1127507D01*
X1128506D01*
Y893498D01*
X1129506Y892498D01*
X1124507Y888500D02*
X1123508Y887500D01*
X1121508D01*
X1120509Y888500D01*
Y892498D01*
X1121508Y893498D01*
X1123508D01*
X1124507Y892498D01*
Y891499D01*
X1123508Y890499D01*
X1120509D01*
X1118509Y892498D02*
X1117510Y893498D01*
X1115510D01*
X1114511Y892498D01*
Y891499D01*
X1115510Y890499D01*
X1116510D01*
X1115510D01*
X1114511Y889499D01*
Y888500D01*
X1115510Y887500D01*
X1117510D01*
X1118509Y888500D01*
D24*
X1058527Y854997D02*
X1051029D01*
Y858746D01*
X1052279Y859996D01*
X1057277D01*
X1058527Y858746D01*
Y854997D01*
Y866244D02*
Y863745D01*
X1057277Y862495D01*
X1052279D01*
X1051029Y863745D01*
Y866244D01*
X1052279Y867493D01*
X1057277D01*
X1058527Y866244D01*
X1007498Y847500D02*
X1002499D01*
X1000000Y849999D01*
X1002499Y852498D01*
X1007498D01*
X1006248Y859996D02*
X1007498Y858746D01*
Y856247D01*
X1006248Y854998D01*
X1001250D01*
X1000000Y856247D01*
Y858746D01*
X1001250Y859996D01*
X1006248Y867494D02*
X1007498Y866244D01*
Y863745D01*
X1006248Y862495D01*
X1001250D01*
X1000000Y863745D01*
Y866244D01*
X1001250Y867494D01*
X1038748Y852498D02*
X1039998Y851249D01*
Y848750D01*
X1038748Y847500D01*
X1033750D01*
X1032500Y848750D01*
Y851249D01*
X1033750Y852498D01*
X1036249D01*
Y849999D01*
X1032500Y854998D02*
X1039998D01*
X1032500Y859996D01*
X1039998D01*
Y862495D02*
X1032500D01*
Y866244D01*
X1033750Y867494D01*
X1038748D01*
X1039998Y866244D01*
Y862495D01*
X992498Y857500D02*
X985000D01*
Y861249D01*
X986250Y862498D01*
X991248D01*
X992498Y861249D01*
Y857500D01*
Y864998D02*
Y867497D01*
Y866247D01*
X985000D01*
Y864998D01*
Y867497D01*
X1222502Y897500D02*
X1230000D01*
Y893751D01*
X1228750Y892502D01*
X1223752D01*
X1222502Y893751D01*
Y897500D01*
Y890002D02*
Y887503D01*
Y888753D01*
X1230000D01*
Y890002D01*
Y887503D01*
X1176252Y897502D02*
X1175002Y898751D01*
Y901250D01*
X1176252Y902500D01*
X1181250D01*
X1182500Y901250D01*
Y898751D01*
X1181250Y897502D01*
X1178751D01*
Y900001D01*
X1182500Y895002D02*
X1175002D01*
X1182500Y890004D01*
X1175002D01*
Y887505D02*
X1182500D01*
Y883756D01*
X1181250Y882506D01*
X1176252D01*
X1175002Y883756D01*
Y887505D01*
X1210002Y902500D02*
X1215001D01*
X1217500Y900001D01*
X1215001Y897502D01*
X1210002D01*
X1211252Y890004D02*
X1210002Y891254D01*
Y893753D01*
X1211252Y895002D01*
X1216250D01*
X1217500Y893753D01*
Y891254D01*
X1216250Y890004D01*
X1211252Y882506D02*
X1210002Y883756D01*
Y886255D01*
X1211252Y887505D01*
X1216250D01*
X1217500Y886255D01*
Y883756D01*
X1216250Y882506D01*
X1162502Y897500D02*
X1170000D01*
Y893751D01*
X1168750Y892502D01*
X1163752D01*
X1162502Y893751D01*
Y897500D01*
Y886254D02*
Y888753D01*
X1163752Y890002D01*
X1168750D01*
X1170000Y888753D01*
Y886254D01*
X1168750Y885004D01*
X1163752D01*
X1162502Y886254D01*
M02*
