%FSLAX25Y25*%
%MOIN*%
G70*
G01*
G75*
G04 Layer_Color=48896*
%ADD10P,0.08352X4X369.0*%
%ADD11P,0.08352X4X81.0*%
%ADD12P,0.08352X4X153.0*%
%ADD13R,0.05906X0.05906*%
%ADD14P,0.08352X4X117.0*%
%ADD15R,0.05906X0.05906*%
%ADD16C,0.05000*%
%ADD17C,0.02500*%
%ADD18C,0.16500*%
%ADD19C,0.04000*%
%ADD20R,0.05000X0.08000*%
%ADD21R,0.12205X0.17716*%
%ADD22C,0.01000*%
%ADD23C,0.01200*%
%ADD24C,0.01500*%
%ADD25P,0.06937X4X369.0*%
%ADD26P,0.06937X4X81.0*%
%ADD27P,0.06937X4X153.0*%
%ADD28R,0.04906X0.04906*%
%ADD29P,0.06937X4X117.0*%
%ADD30R,0.04906X0.04906*%
%ADD31R,0.04000X0.07000*%
%ADD32R,0.11205X0.16716*%
%ADD33P,0.09483X4X369.0*%
%ADD34P,0.09483X4X81.0*%
%ADD35P,0.09483X4X153.0*%
%ADD36R,0.06706X0.06706*%
%ADD37P,0.09483X4X117.0*%
%ADD38R,0.06706X0.06706*%
%ADD39C,0.17300*%
%ADD40C,0.04800*%
%ADD41R,0.05800X0.08800*%
%ADD42R,0.13005X0.18517*%
D39*
X1195000Y906000D02*
D03*
X1020000Y844000D02*
D03*
D40*
X1213216Y885716D02*
D03*
X1220000Y910000D02*
D03*
X1280000D02*
D03*
X1027500Y900000D02*
D03*
X1150000Y907500D02*
D03*
X1062500Y905000D02*
D03*
X1027500Y870000D02*
D03*
X1012252Y890000D02*
D03*
X996504Y883894D02*
D03*
X1045000Y857500D02*
D03*
X1157500Y832500D02*
D03*
X1165000Y910000D02*
D03*
X1218496Y840996D02*
D03*
X1202748Y866500D02*
D03*
X1187000Y866500D02*
D03*
X1171252D02*
D03*
X972500Y886000D02*
D03*
X937500Y871000D02*
D03*
X895000Y858500D02*
D03*
Y893500D02*
D03*
X905000Y871000D02*
D03*
X930000Y848500D02*
D03*
X927500Y903500D02*
D03*
X950000Y910000D02*
D03*
X1075000Y843500D02*
D03*
X1115000Y861000D02*
D03*
X1125000Y842500D02*
D03*
X1087500Y846000D02*
D03*
X1150000Y883500D02*
D03*
X1127500Y853500D02*
D03*
X1252500Y865500D02*
D03*
X1282500Y893000D02*
D03*
X1302500Y907500D02*
D03*
X1315000Y868000D02*
D03*
X1285000Y840500D02*
D03*
X1245000Y895500D02*
D03*
X1252500Y883000D02*
D03*
X1287500Y860000D02*
D03*
X1171252Y841894D02*
D03*
X1250000Y840000D02*
D03*
D41*
X1200500Y884500D02*
D03*
X1189500D02*
D03*
X1014500Y866000D02*
D03*
X1025500D02*
D03*
D42*
X1043748Y883894D02*
D03*
X1028000D02*
D03*
X1012252D02*
D03*
X1043748Y908500D02*
D03*
X1028000D02*
D03*
X1012252D02*
D03*
X996504Y883894D02*
D03*
Y908500D02*
D03*
X1171252Y866500D02*
D03*
X1187000D02*
D03*
X1202748Y866500D02*
D03*
X1171252Y841894D02*
D03*
X1187000D02*
D03*
X1202748D02*
D03*
X1218496Y866500D02*
D03*
Y841894D02*
D03*
M02*
