  0
SECTION
  2
HEADER
  9
$ACADVER
  1
AC1015
  9
$ACADMAINTVER
 70
         6
  9
$DWGCODEPAGE
  3
ANSI_1252
  9
$INSBASE
 10
0.0
 20
0.0
 30
0.0
  9
$EXTMIN
 10
-0.93969262
 20
-0.98480775
 30
0.0
  9
$EXTMAX
 10
13.0
 20
12.98480775
 30
0.0
  9
$LIMMIN
 10
0.0
 20
0.0
  9
$LIMMAX
 10
0.0
 20
0.0
  9
$ORTHOMODE
 70
         0
  9
$REGENMODE
 70
         1
  9
$FILLMODE
 70
         1
  9
$QTEXTMODE
 70
         0
  9
$MIRRTEXT
 70
         1
  9
$LTSCALE
 40
3.80301
  9
$ATTMODE
 70
         1
  9
$TEXTSIZE
 40
0.2
  9
$TRACEWID
 40
0.05
  9
$TEXTSTYLE
  7
Standard
  9
$CLAYER
  8
0
  9
$CELTYPE
  6
Continuous
  9
$CECOLOR
 62
       256
  9
$CELTSCALE
 40
1.0
  9
$DISPSILH
 70
         0
  9
$DIMSCALE
 40
1.0
  9
$DIMASZ
 40
0.18
  9
$DIMEXO
 40
0.0625
  9
$DIMDLI
 40
0.38
  9
$DIMRND
 40
0.0
  9
$DIMDLE
 40
0.0
  9
$DIMEXE
 40
0.18
  9
$DIMTP
 40
0.0
  9
$DIMTM
 40
0.0
  9
$DIMTXT
 40
0.18
  9
$DIMCEN
 40
0.09
  9
$DIMTSZ
 40
0.0
  9
$DIMTOL
 70
         0
  9
$DIMLIM
 70
         0
  9
$DIMTIH
 70
         1
  9
$DIMTOH
 70
         1
  9
$DIMSE1
 70
         0
  9
$DIMSE2
 70
         0
  9
$DIMTAD
 70
         0
  9
$DIMZIN
 70
         0
  9
$DIMBLK
  1

  9
$DIMASO
 70
         1
  9
$DIMSHO
 70
         1
  9
$DIMPOST
  1

  9
$DIMAPOST
  1

  9
$DIMALT
 70
         0
  9
$DIMALTD
 70
         2
  9
$DIMALTF
 40
25.4
  9
$DIMLFAC
 40
1.0
  9
$DIMTOFL
 70
         0
  9
$DIMTVP
 40
0.0
  9
$DIMTIX
 70
         0
  9
$DIMSOXD
 70
         0
  9
$DIMSAH
 70
         0
  9
$DIMBLK1
  1

  9
$DIMBLK2
  1

  9
$DIMSTYLE
  2
Standard
  9
$DIMCLRD
 70
         0
  9
$DIMCLRE
 70
         0
  9
$DIMCLRT
 70
         0
  9
$DIMTFAC
 40
1.0
  9
$DIMGAP
 40
0.09
  9
$DIMJUST
 70
         0
  9
$DIMSD1
 70
         0
  9
$DIMSD2
 70
         0
  9
$DIMTOLJ
 70
         1
  9
$DIMTZIN
 70
         0
  9
$DIMALTZ
 70
         0
  9
$DIMALTTZ
 70
         0
  9
$DIMUPT
 70
         0
  9
$DIMDEC
 70
         4
  9
$DIMTDEC
 70
         4
  9
$DIMALTU
 70
         2
  9
$DIMALTTD
 70
         2
  9
$DIMTXSTY
  7
Standard
  9
$DIMAUNIT
 70
         0
  9
$DIMADEC
 70
         0
  9
$DIMALTRND
 40
0.0
  9
$DIMAZIN
 70
         0
  9
$DIMDSEP
 70
         0
  9
$DIMATFIT
 70
         3
  9
$DIMFRAC
 70
         0
  9
$DIMLDRBLK
  1

  9
$DIMLUNIT
 70
         2
  9
$DIMLWD
 70
         0
  9
$DIMLWE
 70
         0
  9
$DIMTMOVE
 70
         0
  9
$LUNITS
 70
         2
  9
$LUPREC
 70
         4
  9
$SKETCHINC
 40
0.1
  9
$FILLETRAD
 40
0.0
  9
$AUNITS
 70
         0
  9
$AUPREC
 70
         0
  9
$MENU
  1
acad
  9
$ELEVATION
 40
0.0
  9
$PELEVATION
 40
0.0
  9
$THICKNESS
 40
0.0
  9
$LIMCHECK
 70
         0
  9
$CHAMFERA
 40
0.0
  9
$CHAMFERB
 40
0.0
  9
$CHAMFERC
 40
0.0
  9
$CHAMFERD
 40
0.0
  9
$SKPOLY
 70
         0
  9
$TDCREATE
 40
2460620.502465278
  9
$TDUCREATE
 40
0.000000000
  9
$TDUPDATE
 40
2460620.502465278
  9
$TDUUPDATE
 40
0.000000000
  9
$TDINDWG
 40
0.0000000000
  9
$TDUSRTIMER
 40
0.0000000000
  9
$USRTIMER
 70
         1
  9
$ANGBASE
 50
0.0
  9
$ANGDIR
 70
         0
  9
$PDMODE
 70
         0
  9
$PDSIZE
 40
0.0
  9
$PLINEWID
 40
0.0
  9
$SPLFRAME
 70
         0
  9
$SPLINETYPE
 70
         6
  9
$SPLINESEGS
 70
         8
  9
$HANDSEED
  5
E8
  9
$SURFTAB1
 70
         6
  9
$SURFTAB2
 70
         6
  9
$SURFTYPE
 70
         6
  9
$SURFU
 70
         6
  9
$SURFV
 70
         6
  9
$UCSBASE
  2

  9
$UCSNAME
  2

  9
$UCSORG
 10
0.0
 20
0.0
 30
0.0
  9
$UCSXDIR
 10
1.0
 20
0.0
 30
0.0
  9
$UCSYDIR
 10
0.0
 20
1.0
 30
0.0
  9
$UCSORTHOREF
  2

  9
$UCSORTHOVIEW
 70
         0
  9
$UCSORGTOP
 10
0.0
 20
0.0
 30
0.0
  9
$UCSORGBOTTOM
 10
0.0
 20
0.0
 30
0.0
  9
$UCSORGLEFT
 10
0.0
 20
0.0
 30
0.0
  9
$UCSORGRIGHT
 10
0.0
 20
0.0
 30
0.0
  9
$UCSORGFRONT
 10
0.0
 20
0.0
 30
0.0
  9
$UCSORGBACK
 10
0.0
 20
0.0
 30
0.0
  9
$PUCSBASE
  2

  9
$PUCSNAME
  2

  9
$PUCSORG
 10
0.0
 20
0.0
 30
0.0
  9
$PUCSXDIR
 10
1.0
 20
0.0
 30
0.0
  9
$PUCSYDIR
 10
0.0
 20
1.0
 30
0.0
  9
$PUCSORTHOREF
  2

  9
$PUCSORTHOVIEW
 70
         0
  9
$PUCSORGTOP
 10
0.0
 20
0.0
 30
0.0
  9
$PUCSORGBOTTOM
 10
0.0
 20
0.0
 30
0.0
  9
$PUCSORGLEFT
 10
0.0
 20
0.0
 30
0.0
  9
$PUCSORGRIGHT
 10
0.0
 20
0.0
 30
0.0
  9
$PUCSORGFRONT
 10
0.0
 20
0.0
 30
0.0
  9
$PUCSORGBACK
 10
0.0
 20
0.0
 30
0.0
  9
$USERI1
 70
         0
  9
$USERI2
 70
         0
  9
$USERI3
 70
         0
  9
$USERI4
 70
         0
  9
$USERI5
 70
         0
  9
$USERR1
 40
0.0
  9
$USERR2
 40
0.0
  9
$USERR3
 40
0.0
  9
$USERR4
 40
0.0
  9
$USERR5
 40
0.0
  9
$WORLDVIEW
 70
         1
  9
$SHADEDGE
 70
         3
  9
$SHADEDIF
 70
        70
  9
$TILEMODE
 70
         1
  9
$MAXACTVP
 70
        16
  9
$PINSBASE
 10
0.0
 20
0.0
 30
0.0
  9
$PLIMCHECK
 70
         0
  9
$PEXTMIN
 10
1.0000000000E+20
 20
1.0000000000E+20
 30
1.0000000000E+20
  9
$PEXTMAX
 10
-1.0000000000E+20
 20
-1.0000000000E+20
 30
-1.0000000000E+20
  9
$PLIMMIN
 10
0.0
 20
0.0
  9
$PLIMMAX
 10
12.0
 20
9.0
  9
$UNITMODE
 70
         0
  9
$VISRETAIN
 70
         0
  9
$PLINEGEN
 70
         1
  9
$PSLTSCALE
 70
         0
  9
$TREEDEPTH
 70
      3020
  9
$CMLSTYLE
  2
Standard
  9
$CMLJUST
 70
         0
  9
$CMLSCALE
 40
1.0
  9
$PROXYGRAPHICS
 70
         0
  9
$MEASUREMENT
 70
         0
  9
$CELWEIGHT
370
         0
  9
$ENDCAPS
280
         0
  9
$JOINSTYLE
280
         0
  9
$LWDISPLAY
290
         0
  9
$INSUNITS
 70
         0
  9
$HYPERLINKBASE
  1

  9
$XEDIT
290
         1
  9
$CEPSNTYPE
380
         0
  9
$PSTYLEMODE
290
         1
  9
$FINGERPRINTGUID
  2

  9
$VERSIONGUID
  2

  9
$EXTNAMES
290
         1
  9
$PSVPSCALE
 40
0.0
  0
ENDSEC
  0
SECTION
  2
CLASSES
  0
CLASS
  1
LWPOLYLINE
  2
AcDbPolyline
  3
AutoCAD 2000
 90
    32768
280
         0
281
         1
  0
CLASS
  1
IMAGE
  2
AcDbRasterImage
  3
ISM
 90
    32895
280
         0
281
         1
  0
CLASS
  1
OLE2FRAME
  2
AcDbOle2Frame
  3
AutoCAD 2000
 90
    32768
280
         0
281
         1
  0
CLASS
  1
HATCH
  2
AcDbHatch
  3
AutoCAD 2000
 90
    32768
280
         0
281
         1
  0
CLASS
  1
DICTIONARYVAR
  2
AcDbDictionaryVar
  3
AutoCAD 2000
 90
    32768
280
         0
281
         0
  0
CLASS
  1
RASTERVARIABLES
  2
AcDbRasterVariables
  3
ISM
 90
    32768
280
         0
281
         0
  0
CLASS
  1
IMAGEDEF
  2
AcDbRasterImageDef
  3
ISM
 90
    32768
280
         0
281
         0
  0
CLASS
  1
IMAGEDEF_REACTOR
  2
AcDbRasterImageDefReactor
  3
ISM
 90
    32769
280
         0
281
         0
  0
CLASS
  1
IDBUFFER
  2
AcDbIdBuffer
  3
AutoCAD 2000
 90
    32768
280
         0
281
         0
  0
CLASS
  1
SPATIAL_FILTER
  2
AcDbSpatialFilter
  3
AutoCAD 2000
 90
    32768
280
         0
281
         0
  0
CLASS
  1
XRECORD
  2
AcDbXrecord
  3
AutoCAD 2000
 90
    32768
280
         0
281
         0
  0
CLASS
  1
SORTENTSTABLE
  2
AcDbSortentsTable
  3
AutoCAD 2000
 90
    32768
280
         0
281
         0
  0
CLASS
  1
LAYER_INDEX
  2
AcDbLayerIndex
  3
AutoCAD 2000
 90
    32768
280
         0
281
         0
  0
CLASS
  1
SPATIAL_INDEX
  2
AcDbSpatialIndex
  3
AutoCAD 2000
 90
    32768
280
         0
281
         0
  0
CLASS
  1
OBJECT_PTR
  2
CAseDLPNTableRecord
  3
"ASE-LPNTableRecord"
 90
    32769
280
         0
281
         0
  0
CLASS
  1
LAYOUT
  2
AcDbLayout
  3
AutoCAD 2000
 90
        0
280
         0
281
         0
  0
CLASS
  1
PLOTSETTINGS
  2
AcDbPlotSettings
  3
AutoCAD 2000
 90
    32768
280
         0
281
         0
  0
CLASS
  1
ACDBDICTIONARYWDFLT
  2
AcDbDictionaryWithDefault
  3
AutoCAD 2000
 90
        0
280
         0
281
         0
  0
CLASS
  1
ACDBPLACEHOLDER
  2
AcDbPlaceHolder
  3
AutoCAD 2000
 90
        0
280
         0
281
         0
  0
CLASS
  1
VBA_PROJECT
  2
AcDbVbaProject
  3
acadvba
 90
    32768
280
         0
281
         0
  0
CLASS
  1
WIPEOUT
  2
AcDbWipeout
  3
WipeOut|AutoCAD Express Tool|expresstools@autodesk.com
 90
    32895
280
         0
281
         1
  0
CLASS
  1
WIPEOUTVARIABLES
  2
AcDbWipeoutVariables
  3
WipeOut|AutoCAD Express Tool|expresstools@autodesk.com
 90
        0
280
         0
281
         0
  0
CLASS
  1
RTEXT
  2
RText
  3
RText|AutoCAD Express Tool|expresstools@autodesk.com
 90
    32768
280
         0
281
         1
  0
CLASS
  1
ARCALIGNEDTEXT
  2
AcDbArcAlignedText
  3
ATEXT|AutoCAD Express Tool|expresstools@autodesk.com
 90
    32768
280
         0
281
         1
  0
ENDSEC
  0
SECTION
  2
TABLES
  0
TABLE
  2
VPORT
  5
7
100
AcDbSymbolTable
 70
         1
  0
VPORT
  5
15
100
AcDbSymbolTableRecord
100
AcDbViewportTableRecord
  2
*ACTIVE
 70
         0
 10
0.0
 20
0.0
 11
1.0
 21
1.0
 12
6.591288
 22
4.579184
 13
0.0
 23
0.0
 14
1.0
 24
1.0
 15
0.0
 25
0.0
 16
0.0
 26
0.0
 36
1.0
 17
0.0
 27
0.0
 37
0.0
 40
9.158369
 41
0.688564
 42
50.0
 43
0.0
 44
0.0
 50
0.0
 51
0.0
 71
         0
 72
       100
 73
         1
 74
         1
 75
         0
 76
         0
 77
         0
 78
         0
281
         0
 65
         0
110
0.0
120
0.0
130
0.0
111
1.0
121
0.0
131
0.0
112
0.0
122
1.0
132
0.0
345
0
346
0
 79
         0
146
0.0
  0
ENDTAB
  0
TABLE
  2
LTYPE
  5
4
100
AcDbSymbolTable
 70
        13
  0
LTYPE
  5
11
100
AcDbSymbolTableRecord
100
AcDbLinetypeTableRecord
  2
ByBlock
 70
        64
  3

 72
        65
 73
         0
 40
0.0
  0
LTYPE
  5
12
100
AcDbSymbolTableRecord
100
AcDbLinetypeTableRecord
  2
ByLayer
 70
        64
  3

 72
        65
 73
         0
 40
0.0
  0
LTYPE
  5
13
100
AcDbSymbolTableRecord
100
AcDbLinetypeTableRecord
  2
Continuous
 70
        64
  3
Solid line
 72
        65
 73
         0
 40
0.0
  0
LTYPE
  5
25
100
AcDbSymbolTableRecord
100
AcDbLinetypeTableRecord
  2
Dotted
 70
        64
  3
Dotted
 72
        65
 73
         2
 40
3.175
 49
0.0
 74
         0
 49
-3.175
 74
         0
  0
LTYPE
  5
26
100
AcDbSymbolTableRecord
100
AcDbLinetypeTableRecord
  2
Center
 70
        64
  3
Center
 72
        65
 73
         4
 40
19.5579995155
 49
12.7
 74
         0
 49
-1.841499947
 74
         0
 49
3.175
 74
         0
 49
-1.841499947
 74
         0
  0
LTYPE
  5
27
100
AcDbSymbolTableRecord
100
AcDbLinetypeTableRecord
  2
Dashed
 70
        64
  3
Dashed
 72
        65
 73
         2
 40
9.525
 49
6.35
 74
         0
 49
-3.175
 74
         0
  0
LTYPE
  5
28
100
AcDbSymbolTableRecord
100
AcDbLinetypeTableRecord
  2
Hidden
 70
        64
  3
Hidden
 72
        65
 73
         2
 40
5.0164997578
 49
3.175
 74
         0
 49
-1.841499947
 74
         0
  0
LTYPE
  5
29
100
AcDbSymbolTableRecord
100
AcDbLinetypeTableRecord
  2
Phantom
 70
        64
  3
Phantom
 72
        65
 73
         6
 40
24.5744992733
 49
12.7
 74
         0
 49
-1.841499947
 74
         0
 49
3.175
 74
         0
 49
-1.841499947
 74
         0
 49
3.175
 74
         0
 49
-1.841499947
 74
         0
  0
LTYPE
  5
2A
100
AcDbSymbolTableRecord
100
AcDbLinetypeTableRecord
  2
Dashdot
 70
        64
  3
Dashdot
 72
        65
 73
         4
 40
17.1767495155
 49
12.7
 74
         0
 49
-1.841499947
 74
         0
 49
0.79375
 74
         0
 49
-1.841499947
 74
         0
  0
LTYPE
  5
2B
100
AcDbSymbolTableRecord
100
AcDbLinetypeTableRecord
  2
Border
 70
        64
  3
Border
 72
        65
 73
         6
 40
31.7182492733
 49
12.7
 74
         0
 49
-1.841499947
 74
         0
 49
12.7
 74
         0
 49
-1.841499947
 74
         0
 49
0.79375
 74
         0
 49
-1.841499947
 74
         0
  0
LTYPE
  5
2C
100
AcDbSymbolTableRecord
100
AcDbLinetypeTableRecord
  2
Divide
 70
        64
  3
Divide
 72
        65
 73
         6
 40
19.8119992733
 49
12.7
 74
         0
 49
-1.841499947
 74
         0
 49
0.79375
 74
         0
 49
-1.841499947
 74
         0
 49
0.79375
 74
         0
 49
-1.841499947
 74
         0
  0
LTYPE
  5
2D
100
AcDbSymbolTableRecord
100
AcDbLinetypeTableRecord
  2
Cutting
 70
        64
  3
Cutting
 72
        65
 73
         6
 40
37.2744992733
 49
25.4
 74
         0
 49
-1.841499947
 74
         0
 49
3.175
 74
         0
 49
-1.841499947
 74
         0
 49
3.175
 74
         0
 49
-1.841499947
 74
         0
  0
LTYPE
  5
2E
100
AcDbSymbolTableRecord
100
AcDbLinetypeTableRecord
  2
Stitch
 70
        64
  3
Stitch
 72
        65
 73
         2
 40
3.682999894
 49
1.841499947
 74
         0
 49
-1.841499947
 74
         0
  0
ENDTAB
  0
TABLE
  2
LAYER
  5
2
100
AcDbSymbolTable
 70
         8
  0
LAYER
  5
14
100
AcDbSymbolTableRecord
100
AcDbLayerTableRecord
  2
0
 70
         0
 62
         7
  6
Continuous
290
         1
370
        -3
390
1D
  0
LAYER
  5
2F
100
AcDbSymbolTableRecord
100
AcDbLayerTableRecord
  2
LAYER1
 70
         0
 62
         5
  6
Continuous
290
         1
370
         2
390
1F
  0
LAYER
  5
30
100
AcDbSymbolTableRecord
100
AcDbLayerTableRecord
  2
CONSTRUCTION
 70
         0
 62
         7
  6
Continuous
290
         1
370
         0
390
1F
  0
LAYER
  5
31
100
AcDbSymbolTableRecord
100
AcDbLayerTableRecord
  2
DIMENSION
 70
         0
 62
         7
  6
Continuous
290
         1
370
         0
390
1F
  0
LAYER
  5
32
100
AcDbSymbolTableRecord
100
AcDbLayerTableRecord
  2
CONSTRAINTS
 70
         0
 62
         7
  6
Continuous
290
         1
370
         0
390
1F
  0
LAYER
  5
33
100
AcDbSymbolTableRecord
100
AcDbLayerTableRecord
  2
0_PATTERN_1
 70
         0
 62
         7
  6
Continuous
290
         1
370
         2
390
1F
  0
LAYER
  5
34
100
AcDbSymbolTableRecord
100
AcDbLayerTableRecord
  2
1_CUT_LINE_1
 70
         0
 62
        24
  6
Continuous
290
         1
370
         2
390
1F
  0
LAYER
  5
35
100
AcDbSymbolTableRecord
100
AcDbLayerTableRecord
  2
2_SLASH_1
 70
         0
 62
         3
  6
Continuous
290
         1
370
         2
390
1F
  0
ENDTAB
  0
TABLE
  2
STYLE
  5
3
100
AcDbSymbolTable
 70
         2
  0
STYLE
  5
17
100
AcDbSymbolTableRecord
100
AcDbTextStyleTableRecord
  2
Standard
 70
         0
 40
0.0
 41
1.0
 50
0.0
 71
         0
 42
0.0
  3
txt
  4

  0
STYLE
  5
24
100
AcDbSymbolTableRecord
100
AcDbTextStyleTableRecord
  2
Plotter
 70
         0
 40
0.0
 41
0.98
 50
0.0
 71
         0
 42
0.0
  3
SIMPLEX
  4

  0
ENDTAB
  0
TABLE
  2
VIEW
  5
5
100
AcDbSymbolTable
 70
         0
  0
ENDTAB
  0
TABLE
  2
UCS
  5
6
100
AcDbSymbolTable
 70
         0
  0
ENDTAB
  0
TABLE
  2
APPID
  5
8
100
AcDbSymbolTable
 70
         1
  0
APPID
  5
16
100
AcDbSymbolTableRecord
100
AcDbRegAppTableRecord
  2
ACAD
 70
         0
  0
ENDTAB
  0
TABLE
  2
DIMSTYLE
  5
9
100
AcDbSymbolTable
 70
         1
100
AcDbDimStyleTable
 71
         0
  0
DIMSTYLE
105
18
100
AcDbSymbolTableRecord
100
AcDbDimStyleTableRecord
  2
Standard
 70
         0
  3

  4

 40
1.0
 41
0.18
 42
0.0625
 43
0.38
 44
0.18
 45
0.0
 46
0.0
 47
0.0
 48
0.0
 71
         0
 72
         0
 73
         1
 74
         1
 75
         0
 76
         0
 77
         0
 78
         0
 79
         0
140
0.18
141
0.09
142
0.0
143
25.4
144
1.0
145
0.0
146
1.0
147
0.09
148
0.0
170
         0
171
         2
172
         0
173
         0
174
         0
175
         0
176
         0
177
         0
178
         0
179
         0
271
         4
272
         4
273
         2
274
         2
275
         0
276
         0
277
         2
278
        46
279
         0
280
         0
281
         0
282
         0
283
         1
284
         0
285
         0
286
         0
288
         0
340
17
341
0
342
0
343
0
344
0
371
        -2
372
        -2
  0
ENDTAB
  0
TABLE
  2
BLOCK_RECORD
  5
1
100
AcDbSymbolTable
 70
         0
  0
BLOCK_RECORD
  5
A
100
AcDbSymbolTableRecord
100
AcDbBlockTableRecord
  2
*MODEL_SPACE
340
20
  0
BLOCK_RECORD
  5
B
100
AcDbSymbolTableRecord
100
AcDbBlockTableRecord
  2
*PAPER_SPACE
340
21
  0
ENDTAB
  0
ENDSEC
  0
SECTION
  2
BLOCKS
  0
BLOCK
  5
D
100
AcDbEntity
  8
0
100
AcDbBlockBegin
  2
*MODEL_SPACE
 70
         0
 10
0.0
 20
0.0
 30
0.0
  3
*MODEL_SPACE
  1

  0
ENDBLK
  5
E
100
AcDbEntity
  8
0
100
AcDbBlockEnd
  0
BLOCK
  5
F
100
AcDbEntity
 67
         1
  8
0
100
AcDbBlockBegin
  2
*PAPER_SPACE
 70
         0
 10
0.0
 20
0.0
 30
0.0
  3
*PAPER_SPACE
  1

  0
ENDBLK
  5
10
100
AcDbEntity
 67
         1
  8
0
100
AcDbBlockEnd
  0
ENDSEC
  0
SECTION
  2
ENTITIES
  0
ARC
  5
36
102
{ACAD_REACTORS
330
3A
102
}
100
AcDbEntity
  8
0_PATTERN_1
370
        25
  6
Continuous
 62
        29
100
AcDbCircle
 10
10007.6
 20
683.6182769608
 30
0.0
 40
181.8771980392
100
AcDbArc
 50
57.225
 51
122.775
  0
ARC
  5
37
102
{ACAD_REACTORS
330
3A
102
}
100
AcDbEntity
  8
0_PATTERN_1
370
        25
  6
Continuous
 62
        29
100
AcDbCircle
 10
10007.6
 20
683.6182769608
 30
0.0
 40
271.9328980392
100
AcDbArc
 50
57.225
 51
122.775
  0
LINE
  5
38
102
{ACAD_REACTORS
330
3A
102
}
100
AcDbEntity
  8
0_PATTERN_1
370
        25
  6
Continuous
 62
        29
100
AcDbLine
 10
9909.1423443754
 20
836.5411503823
 30
0.0
 11
9860.3914663477
 21
912.2602430474
 31
0.0
  0
LINE
  5
39
102
{ACAD_REACTORS
330
3A
102
}
100
AcDbEntity
  8
0_PATTERN_1
370
        25
  6
Continuous
 62
        29
100
AcDbLine
 10
10106.0576556246
 20
836.5411503823
 30
0.0
 11
10154.8085336523
 21
912.2602430474
 31
0.0
  0
ARC
  5
3B
102
{ACAD_REACTORS
330
59
102
}
100
AcDbEntity
  8
1_CUT_LINE_1
370
        25
  6
Continuous
 62
        24
100
AcDbCircle
 10
10007.6
 20
683.6182769608
 30
0.0
 40
281.5817230392
100
AcDbArc
 50
118.678125
 51
122.775
  0
ARC
  5
3C
102
{ACAD_REACTORS
330
59
102
}
100
AcDbEntity
  8
1_CUT_LINE_1
370
        25
  6
Continuous
 62
        24
100
AcDbCircle
 10
10007.6
 20
683.6182769608
 30
0.0
 40
172.2283730392
100
AcDbArc
 50
57.225
 51
65.41875
  0
ARC
  5
3D
102
{ACAD_REACTORS
330
59
102
}
100
AcDbEntity
  8
1_CUT_LINE_1
370
        25
  6
Continuous
 62
        24
100
AcDbCircle
 10
10007.6
 20
683.6182769608
 30
0.0
 40
172.2283730392
100
AcDbArc
 50
65.41875
 51
73.6125
  0
ARC
  5
3E
102
{ACAD_REACTORS
330
59
102
}
100
AcDbEntity
  8
1_CUT_LINE_1
370
        25
  6
Continuous
 62
        24
100
AcDbCircle
 10
10007.6
 20
683.6182769608
 30
0.0
 40
172.2283730392
100
AcDbArc
 50
73.6125
 51
81.80625
  0
ARC
  5
3F
102
{ACAD_REACTORS
330
59
102
}
100
AcDbEntity
  8
1_CUT_LINE_1
370
        25
  6
Continuous
 62
        24
100
AcDbCircle
 10
10007.6
 20
683.6182769608
 30
0.0
 40
172.2283730392
100
AcDbArc
 50
81.80625
 51
90.0
  0
ARC
  5
40
102
{ACAD_REACTORS
330
59
102
}
100
AcDbEntity
  8
1_CUT_LINE_1
370
        25
  6
Continuous
 62
        24
100
AcDbCircle
 10
10007.6
 20
683.6182769608
 30
0.0
 40
172.2283730392
100
AcDbArc
 50
90.0
 51
98.19375
  0
ARC
  5
41
102
{ACAD_REACTORS
330
59
102
}
100
AcDbEntity
  8
1_CUT_LINE_1
370
        25
  6
Continuous
 62
        24
100
AcDbCircle
 10
10007.6
 20
683.6182769608
 30
0.0
 40
172.2283730392
100
AcDbArc
 50
98.19375
 51
106.3875
  0
ARC
  5
42
102
{ACAD_REACTORS
330
59
102
}
100
AcDbEntity
  8
1_CUT_LINE_1
370
        25
  6
Continuous
 62
        24
100
AcDbCircle
 10
10007.6
 20
683.6182769608
 30
0.0
 40
172.2283730392
100
AcDbArc
 50
106.3875
 51
114.58125
  0
ARC
  5
43
102
{ACAD_REACTORS
330
59
102
}
100
AcDbEntity
  8
1_CUT_LINE_1
370
        25
  6
Continuous
 62
        24
100
AcDbCircle
 10
10007.6
 20
683.6182769608
 30
0.0
 40
172.2283730392
100
AcDbArc
 50
114.58125
 51
122.775
  0
LINE
  5
44
102
{ACAD_REACTORS
330
59
102
}
100
AcDbEntity
  8
1_CUT_LINE_1
370
        25
  6
Continuous
 62
        24
100
AcDbLine
 10
9901.029584447
 20
831.3178420222
 30
0.0
 11
9852.2787064193
 21
907.0369346873
 31
0.0
  0
LINE
  5
45
102
{ACAD_REACTORS
330
59
102
}
100
AcDbEntity
  8
1_CUT_LINE_1
370
        25
  6
Continuous
 62
        24
100
AcDbLine
 10
10114.170415553
 20
831.3178420222
 30
0.0
 11
10162.9212935807
 21
907.0369346873
 31
0.0
  0
LINE
  5
46
102
{ACAD_REACTORS
330
59
102
}
100
AcDbEntity
  8
1_CUT_LINE_1
370
        25
  6
Continuous
 62
        24
100
AcDbLine
 10
10160.0318420124
 20
920.3730029758
 30
0.0
 11
10162.9212935807
 21
907.0369346873
 31
0.0
  0
LINE
  5
47
102
{ACAD_REACTORS
330
59
102
}
100
AcDbEntity
  8
1_CUT_LINE_1
370
        25
  6
Continuous
 62
        24
100
AcDbLine
 10
10114.170415553
 20
831.3178420222
 30
0.0
 11
10100.8343472645
 21
828.4283904539
 31
0.0
  0
LINE
  5
48
102
{ACAD_REACTORS
330
59
102
}
100
AcDbEntity
  8
1_CUT_LINE_1
370
        25
  6
Continuous
 62
        24
100
AcDbLine
 10
9914.3656527355
 20
828.4283904539
 30
0.0
 11
9901.029584447
 21
831.3178420222
 31
0.0
  0
LINE
  5
49
102
{ACAD_REACTORS
330
59
102
}
100
AcDbEntity
  8
1_CUT_LINE_1
370
        25
  6
Continuous
 62
        24
100
AcDbLine
 10
9852.2787064193
 20
907.0369346873
 30
0.0
 11
9855.1681579876
 21
920.3730029758
 31
0.0
  0
ARC
  5
4A
102
{ACAD_REACTORS
330
59
102
}
100
AcDbEntity
  8
1_CUT_LINE_1
370
        25
  6
Continuous
 62
        24
100
AcDbCircle
 10
10007.6
 20
683.6182769608
 30
0.0
 40
281.5817230392
100
AcDbArc
 50
57.225
 51
61.321875
  0
ARC
  5
4B
102
{ACAD_REACTORS
330
59
102
}
100
AcDbEntity
  8
1_CUT_LINE_1
370
        25
  6
Continuous
 62
        24
100
AcDbCircle
 10
10007.6
 20
683.6182769608
 30
0.0
 40
281.5817230392
100
AcDbArc
 50
61.321875
 51
65.41875
  0
ARC
  5
4C
102
{ACAD_REACTORS
330
59
102
}
100
AcDbEntity
  8
1_CUT_LINE_1
370
        25
  6
Continuous
 62
        24
100
AcDbCircle
 10
10007.6
 20
683.6182769608
 30
0.0
 40
281.5817230392
100
AcDbArc
 50
65.41875
 51
69.515625
  0
ARC
  5
4D
102
{ACAD_REACTORS
330
59
102
}
100
AcDbEntity
  8
1_CUT_LINE_1
370
        25
  6
Continuous
 62
        24
100
AcDbCircle
 10
10007.6
 20
683.6182769608
 30
0.0
 40
281.5817230392
100
AcDbArc
 50
69.515625
 51
73.6125
  0
ARC
  5
4E
102
{ACAD_REACTORS
330
59
102
}
100
AcDbEntity
  8
1_CUT_LINE_1
370
        25
  6
Continuous
 62
        24
100
AcDbCircle
 10
10007.6
 20
683.6182769608
 30
0.0
 40
281.5817230392
100
AcDbArc
 50
73.6125
 51
77.709375
  0
ARC
  5
4F
102
{ACAD_REACTORS
330
59
102
}
100
AcDbEntity
  8
1_CUT_LINE_1
370
        25
  6
Continuous
 62
        24
100
AcDbCircle
 10
10007.6
 20
683.6182769608
 30
0.0
 40
281.5817230392
100
AcDbArc
 50
77.709375
 51
81.80625
  0
ARC
  5
50
102
{ACAD_REACTORS
330
59
102
}
100
AcDbEntity
  8
1_CUT_LINE_1
370
        25
  6
Continuous
 62
        24
100
AcDbCircle
 10
10007.6
 20
683.6182769608
 30
0.0
 40
281.5817230392
100
AcDbArc
 50
81.80625
 51
85.903125
  0
ARC
  5
51
102
{ACAD_REACTORS
330
59
102
}
100
AcDbEntity
  8
1_CUT_LINE_1
370
        25
  6
Continuous
 62
        24
100
AcDbCircle
 10
10007.6
 20
683.6182769608
 30
0.0
 40
281.5817230392
100
AcDbArc
 50
85.903125
 51
90.0
  0
ARC
  5
52
102
{ACAD_REACTORS
330
59
102
}
100
AcDbEntity
  8
1_CUT_LINE_1
370
        25
  6
Continuous
 62
        24
100
AcDbCircle
 10
10007.6
 20
683.6182769608
 30
0.0
 40
281.5817230392
100
AcDbArc
 50
90.0
 51
94.096875
  0
ARC
  5
53
102
{ACAD_REACTORS
330
59
102
}
100
AcDbEntity
  8
1_CUT_LINE_1
370
        25
  6
Continuous
 62
        24
100
AcDbCircle
 10
10007.6
 20
683.6182769608
 30
0.0
 40
281.5817230392
100
AcDbArc
 50
94.096875
 51
98.19375
  0
ARC
  5
54
102
{ACAD_REACTORS
330
59
102
}
100
AcDbEntity
  8
1_CUT_LINE_1
370
        25
  6
Continuous
 62
        24
100
AcDbCircle
 10
10007.6
 20
683.6182769608
 30
0.0
 40
281.5817230392
100
AcDbArc
 50
98.19375
 51
102.290625
  0
ARC
  5
55
102
{ACAD_REACTORS
330
59
102
}
100
AcDbEntity
  8
1_CUT_LINE_1
370
        25
  6
Continuous
 62
        24
100
AcDbCircle
 10
10007.6
 20
683.6182769608
 30
0.0
 40
281.5817230392
100
AcDbArc
 50
102.290625
 51
106.3875
  0
ARC
  5
56
102
{ACAD_REACTORS
330
59
102
}
100
AcDbEntity
  8
1_CUT_LINE_1
370
        25
  6
Continuous
 62
        24
100
AcDbCircle
 10
10007.6
 20
683.6182769608
 30
0.0
 40
281.5817230392
100
AcDbArc
 50
106.3875
 51
110.484375
  0
ARC
  5
57
102
{ACAD_REACTORS
330
59
102
}
100
AcDbEntity
  8
1_CUT_LINE_1
370
        25
  6
Continuous
 62
        24
100
AcDbCircle
 10
10007.6
 20
683.6182769608
 30
0.0
 40
281.5817230392
100
AcDbArc
 50
110.484375
 51
114.58125
  0
ARC
  5
58
102
{ACAD_REACTORS
330
59
102
}
100
AcDbEntity
  8
1_CUT_LINE_1
370
        25
  6
Continuous
 62
        24
100
AcDbCircle
 10
10007.6
 20
683.6182769608
 30
0.0
 40
281.5817230392
100
AcDbArc
 50
114.58125
 51
118.678125
  0
LINE
  5
5A
102
{ACAD_REACTORS
330
78
102
}
100
AcDbEntity
  8
2_SLASH_1
370
        25
  6
Continuous
 62
         3
100
AcDbLine
 10
9983.0538460708
 20
854.0885054672
 30
0.0
 11
9982.1370728372
 21
860.4553906036
 31
0.0
  0
LINE
  5
5B
102
{ACAD_REACTORS
330
78
102
}
100
AcDbEntity
  8
2_SLASH_1
370
        25
  6
Continuous
 62
         3
100
AcDbLine
 10
9959.0088370525
 20
848.849966909
 30
0.0
 11
9957.1940078249
 21
855.0211980971
 31
0.0
  0
LINE
  5
5C
102
{ACAD_REACTORS
330
78
102
}
100
AcDbEntity
  8
2_SLASH_1
370
        25
  6
Continuous
 62
         3
100
AcDbLine
 10
9935.9558862645
 20
840.2379865978
 30
0.0
 11
9933.2800533824
 21
846.0875693085
 31
0.0
  0
LINE
  5
5D
102
{ACAD_REACTORS
330
78
102
}
100
AcDbEntity
  8
2_SLASH_1
370
        25
  6
Continuous
 62
         3
100
AcDbLine
 10
9914.3656527355
 20
828.4283904539
 30
0.0
 11
9910.8834471621
 21
833.8368970729
 31
0.0
  0
LINE
  5
5E
102
{ACAD_REACTORS
330
78
102
}
100
AcDbEntity
  8
2_SLASH_1
370
        25
  6
Continuous
 62
         3
100
AcDbLine
 10
9901.029584447
 20
831.3178420222
 30
0.0
 11
9906.4380910659
 21
834.8000475956
 31
0.0
  0
LINE
  5
5F
102
{ACAD_REACTORS
330
78
102
}
100
AcDbEntity
  8
2_SLASH_1
370
        25
  6
Continuous
 62
         3
100
AcDbLine
 10
9852.2787064193
 20
907.0369346873
 30
0.0
 11
9857.6872130382
 21
910.5191402607
 31
0.0
  0
LINE
  5
60
102
{ACAD_REACTORS
330
78
102
}
100
AcDbEntity
  8
2_SLASH_1
370
        25
  6
Continuous
 62
         3
100
AcDbLine
 10
9855.1681579876
 20
920.3730029758
 30
0.0
 11
9858.650363561
 21
914.9644963569
 31
0.0
  0
LINE
  5
61
102
{ACAD_REACTORS
330
78
102
}
100
AcDbEntity
  8
2_SLASH_1
370
        25
  6
Continuous
 62
         3
100
AcDbLine
 10
9872.4721478639
 20
930.658213665
 30
0.0
 11
9875.5590551244
 21
925.0147481457
 31
0.0
  0
LINE
  5
62
102
{ACAD_REACTORS
330
78
102
}
100
AcDbEntity
  8
2_SLASH_1
370
        25
  6
Continuous
 62
         3
100
AcDbLine
 10
9890.4667272687
 20
939.68089268
 30
0.0
 11
9893.1425601508
 21
933.8313099693
 31
0.0
  0
LINE
  5
63
102
{ACAD_REACTORS
330
78
102
}
100
AcDbEntity
  8
2_SLASH_1
370
        25
  6
Continuous
 62
         3
100
AcDbLine
 10
9909.0599324216
 20
947.3949283752
 30
0.0
 11
9911.3110157123
 21
941.3691235724
 31
0.0
  0
LINE
  5
64
102
{ACAD_REACTORS
330
78
102
}
100
AcDbEntity
  8
2_SLASH_1
370
        25
  6
Continuous
 62
         3
100
AcDbLine
 10
9928.1567401828
 20
953.7608971068
 30
0.0
 11
9929.9715694105
 21
947.5896659187
 31
0.0
  0
LINE
  5
65
102
{ACAD_REACTORS
330
78
102
}
100
AcDbEntity
  8
2_SLASH_1
370
        25
  6
Continuous
 62
         3
100
AcDbLine
 10
9947.6595536821
 20
958.7462647137
 30
0.0
 11
9949.0288539115
 21
952.4611460685
 31
0.0
  0
LINE
  5
66
102
{ACAD_REACTORS
330
78
102
}
100
AcDbEntity
  8
2_SLASH_1
370
        25
  6
Continuous
 62
         3
100
AcDbLine
 10
9967.4687011007
 20
962.3255527869
 30
0.0
 11
9968.3854743342
 21
955.9586676504
 31
0.0
  0
LINE
  5
67
102
{ACAD_REACTORS
330
78
102
}
100
AcDbEntity
  8
2_SLASH_1
370
        25
  6
Continuous
 62
         3
100
AcDbLine
 10
9987.4829450582
 20
964.480468881
 30
0.0
 11
9987.9425059998
 21
958.064356098
 31
0.0
  0
LINE
  5
68
102
{ACAD_REACTORS
330
78
102
}
100
AcDbEntity
  8
2_SLASH_1
370
        25
  6
Continuous
 62
         3
100
AcDbLine
 10
10007.6
 20
965.2
 30
0.0
 11
10007.6
 21
958.76745
 31
0.0
  0
LINE
  5
69
102
{ACAD_REACTORS
330
78
102
}
100
AcDbEntity
  8
2_SLASH_1
370
        25
  6
Continuous
 62
         3
100
AcDbLine
 10
10027.7170549418
 20
964.480468881
 30
0.0
 11
10027.2574940002
 21
958.064356098
 31
0.0
  0
LINE
  5
6A
102
{ACAD_REACTORS
330
78
102
}
100
AcDbEntity
  8
2_SLASH_1
370
        25
  6
Continuous
 62
         3
100
AcDbLine
 10
10047.7312988993
 20
962.3255527869
 30
0.0
 11
10046.8145256658
 21
955.9586676504
 31
0.0
  0
LINE
  5
6B
102
{ACAD_REACTORS
330
78
102
}
100
AcDbEntity
  8
2_SLASH_1
370
        25
  6
Continuous
 62
         3
100
AcDbLine
 10
10067.5404463179
 20
958.7462647137
 30
0.0
 11
10066.1711460885
 21
952.4611460685
 31
0.0
  0
LINE
  5
6C
102
{ACAD_REACTORS
330
78
102
}
100
AcDbEntity
  8
2_SLASH_1
370
        25
  6
Continuous
 62
         3
100
AcDbLine
 10
10087.0432598172
 20
953.7608971068
 30
0.0
 11
10085.2284305895
 21
947.5896659187
 31
0.0
  0
LINE
  5
6D
102
{ACAD_REACTORS
330
78
102
}
100
AcDbEntity
  8
2_SLASH_1
370
        25
  6
Continuous
 62
         3
100
AcDbLine
 10
10106.1400675784
 20
947.3949283752
 30
0.0
 11
10103.8889842877
 21
941.3691235724
 31
0.0
  0
LINE
  5
6E
102
{ACAD_REACTORS
330
78
102
}
100
AcDbEntity
  8
2_SLASH_1
370
        25
  6
Continuous
 62
         3
100
AcDbLine
 10
10124.7332727313
 20
939.68089268
 30
0.0
 11
10122.0574398492
 21
933.8313099693
 31
0.0
  0
LINE
  5
6F
102
{ACAD_REACTORS
330
78
102
}
100
AcDbEntity
  8
2_SLASH_1
370
        25
  6
Continuous
 62
         3
100
AcDbLine
 10
10142.7278521361
 20
930.658213665
 30
0.0
 11
10139.6409448756
 21
925.0147481457
 31
0.0
  0
LINE
  5
70
102
{ACAD_REACTORS
330
78
102
}
100
AcDbEntity
  8
2_SLASH_1
370
        25
  6
Continuous
 62
         3
100
AcDbLine
 10
10160.0318420124
 20
920.3730029758
 30
0.0
 11
10156.549636439
 21
914.9644963569
 31
0.0
  0
LINE
  5
71
102
{ACAD_REACTORS
330
78
102
}
100
AcDbEntity
  8
2_SLASH_1
370
        25
  6
Continuous
 62
         3
100
AcDbLine
 10
10162.9212935807
 20
907.0369346873
 30
0.0
 11
10157.5127869618
 21
910.5191402607
 31
0.0
  0
LINE
  5
72
102
{ACAD_REACTORS
330
78
102
}
100
AcDbEntity
  8
2_SLASH_1
370
        25
  6
Continuous
 62
         3
100
AcDbLine
 10
10114.170415553
 20
831.3178420222
 30
0.0
 11
10108.7619089341
 21
834.8000475956
 31
0.0
  0
LINE
  5
73
102
{ACAD_REACTORS
330
78
102
}
100
AcDbEntity
  8
2_SLASH_1
370
        25
  6
Continuous
 62
         3
100
AcDbLine
 10
10100.8343472645
 20
828.4283904539
 30
0.0
 11
10104.3165528379
 21
833.8368970729
 31
0.0
  0
LINE
  5
74
102
{ACAD_REACTORS
330
78
102
}
100
AcDbEntity
  8
2_SLASH_1
370
        25
  6
Continuous
 62
         3
100
AcDbLine
 10
10079.2441137355
 20
840.2379865978
 30
0.0
 11
10081.9199466176
 21
846.0875693085
 31
0.0
  0
LINE
  5
75
102
{ACAD_REACTORS
330
78
102
}
100
AcDbEntity
  8
2_SLASH_1
370
        25
  6
Continuous
 62
         3
100
AcDbLine
 10
10056.1911629475
 20
848.849966909
 30
0.0
 11
10058.0059921751
 21
855.0211980971
 31
0.0
  0
LINE
  5
76
102
{ACAD_REACTORS
330
78
102
}
100
AcDbEntity
  8
2_SLASH_1
370
        25
  6
Continuous
 62
         3
100
AcDbLine
 10
10032.1461539292
 20
854.0885054672
 30
0.0
 11
10033.0629271628
 21
860.4553906036
 31
0.0
  0
LINE
  5
77
102
{ACAD_REACTORS
330
78
102
}
100
AcDbEntity
  8
2_SLASH_1
370
        25
  6
Continuous
 62
         3
100
AcDbLine
 10
10007.6
 20
855.84665
 30
0.0
 11
10007.6
 21
862.2792
 31
0.0
  0
LINE
  5
79
102
{ACAD_REACTORS
330
7D
102
}
100
AcDbEntity
  8
0_PATTERN_1
370
        25
  6
Continuous
 62
        29
100
AcDbLine
 10
9822.6003768458
 20
726.8467715171
 30
0.0
 11
9876.9121928177
 21
692.3794450166
 31
0.0
  0
LINE
  5
7A
102
{ACAD_REACTORS
330
7D
102
}
100
AcDbEntity
  8
0_PATTERN_1
370
        25
  6
Continuous
 62
        29
100
AcDbLine
 10
10138.2878071823
 20
692.3794450166
 30
0.0
 11
10192.5996231542
 21
726.8467715171
 31
0.0
  0
ARC
  5
7B
102
{ACAD_REACTORS
330
7D
102
}
100
AcDbEntity
  8
0_PATTERN_1
370
        25
  6
Continuous
 62
        29
100
AcDbCircle
 10
10007.6
 20
609.442440625
 30
0.0
 40
154.783234375
100
AcDbArc
 50
32.4
 51
147.6
  0
ARC
  5
7C
102
{ACAD_REACTORS
330
7D
102
}
100
AcDbEntity
  8
0_PATTERN_1
370
        25
  6
Continuous
 62
        29
100
AcDbCircle
 10
10007.6
 20
609.442440625
 30
0.0
 40
219.108734375
100
AcDbArc
 50
32.4
 51
147.6
  0
ARC
  5
7E
102
{ACAD_REACTORS
330
A4
102
}
100
AcDbEntity
  8
1_CUT_LINE_1
370
        25
  6
Continuous
 62
        24
100
AcDbCircle
 10
10007.6
 20
609.442440625
 30
0.0
 40
145.134409375
100
AcDbArc
 50
46.8
 51
54.0
  0
ARC
  5
7F
102
{ACAD_REACTORS
330
A4
102
}
100
AcDbEntity
  8
1_CUT_LINE_1
370
        25
  6
Continuous
 62
        24
100
AcDbCircle
 10
10007.6
 20
609.442440625
 30
0.0
 40
145.134409375
100
AcDbArc
 50
54.0
 51
61.2
  0
ARC
  5
80
102
{ACAD_REACTORS
330
A4
102
}
100
AcDbEntity
  8
1_CUT_LINE_1
370
        25
  6
Continuous
 62
        24
100
AcDbCircle
 10
10007.6
 20
609.442440625
 30
0.0
 40
145.134409375
100
AcDbArc
 50
61.2
 51
68.4
  0
ARC
  5
81
102
{ACAD_REACTORS
330
A4
102
}
100
AcDbEntity
  8
1_CUT_LINE_1
370
        25
  6
Continuous
 62
        24
100
AcDbCircle
 10
10007.6
 20
609.442440625
 30
0.0
 40
145.134409375
100
AcDbArc
 50
68.4
 51
75.6
  0
ARC
  5
82
102
{ACAD_REACTORS
330
A4
102
}
100
AcDbEntity
  8
1_CUT_LINE_1
370
        25
  6
Continuous
 62
        24
100
AcDbCircle
 10
10007.6
 20
609.442440625
 30
0.0
 40
145.134409375
100
AcDbArc
 50
75.6
 51
82.8
  0
ARC
  5
83
102
{ACAD_REACTORS
330
A4
102
}
100
AcDbEntity
  8
1_CUT_LINE_1
370
        25
  6
Continuous
 62
        24
100
AcDbCircle
 10
10007.6
 20
609.442440625
 30
0.0
 40
145.134409375
100
AcDbArc
 50
82.8
 51
90.0
  0
ARC
  5
84
102
{ACAD_REACTORS
330
A4
102
}
100
AcDbEntity
  8
1_CUT_LINE_1
370
        25
  6
Continuous
 62
        24
100
AcDbCircle
 10
10007.6
 20
609.442440625
 30
0.0
 40
145.134409375
100
AcDbArc
 50
90.0
 51
97.2
  0
LINE
  5
85
102
{ACAD_REACTORS
330
A4
102
}
100
AcDbEntity
  8
1_CUT_LINE_1
370
        25
  6
Continuous
 62
        24
100
AcDbLine
 10
9817.4302778707
 20
718.6999991213
 30
0.0
 11
9871.7420938426
 21
684.2326726209
 31
0.0
  0
LINE
  5
86
102
{ACAD_REACTORS
330
A4
102
}
100
AcDbEntity
  8
1_CUT_LINE_1
370
        25
  6
Continuous
 62
        24
100
AcDbLine
 10
10143.4579061574
 20
684.2326726209
 30
0.0
 11
10197.7697221293
 21
718.6999991213
 31
0.0
  0
LINE
  5
87
102
{ACAD_REACTORS
330
A4
102
}
100
AcDbEntity
  8
1_CUT_LINE_1
370
        25
  6
Continuous
 62
        24
100
AcDbLine
 10
9814.45360445
 20
732.0168704921
 30
0.0
 11
9817.4302778707
 21
718.6999991213
 31
0.0
  0
LINE
  5
88
102
{ACAD_REACTORS
330
A4
102
}
100
AcDbEntity
  8
1_CUT_LINE_1
370
        25
  6
Continuous
 62
        24
100
AcDbLine
 10
9871.7420938426
 20
684.2326726209
 30
0.0
 11
9885.0589652134
 21
687.2093460416
 31
0.0
  0
LINE
  5
89
102
{ACAD_REACTORS
330
A4
102
}
100
AcDbEntity
  8
1_CUT_LINE_1
370
        25
  6
Continuous
 62
        24
100
AcDbLine
 10
10130.1410347866
 20
687.2093460416
 30
0.0
 11
10143.4579061574
 21
684.2326726209
 31
0.0
  0
LINE
  5
8A
102
{ACAD_REACTORS
330
A4
102
}
100
AcDbEntity
  8
1_CUT_LINE_1
370
        25
  6
Continuous
 62
        24
100
AcDbLine
 10
10197.7697221293
 20
718.6999991213
 30
0.0
 11
10200.74639555
 21
732.0168704921
 31
0.0
  0
ARC
  5
8B
102
{ACAD_REACTORS
330
A4
102
}
100
AcDbEntity
  8
1_CUT_LINE_1
370
        25
  6
Continuous
 62
        24
100
AcDbCircle
 10
10007.6
 20
609.442440625
 30
0.0
 40
145.134409375
100
AcDbArc
 50
97.2
 51
104.4
  0
ARC
  5
8C
102
{ACAD_REACTORS
330
A4
102
}
100
AcDbEntity
  8
1_CUT_LINE_1
370
        25
  6
Continuous
 62
        24
100
AcDbCircle
 10
10007.6
 20
609.442440625
 30
0.0
 40
145.134409375
100
AcDbArc
 50
104.4
 51
111.6
  0
ARC
  5
8D
102
{ACAD_REACTORS
330
A4
102
}
100
AcDbEntity
  8
1_CUT_LINE_1
370
        25
  6
Continuous
 62
        24
100
AcDbCircle
 10
10007.6
 20
609.442440625
 30
0.0
 40
145.134409375
100
AcDbArc
 50
111.6
 51
118.8
  0
ARC
  5
8E
102
{ACAD_REACTORS
330
A4
102
}
100
AcDbEntity
  8
1_CUT_LINE_1
370
        25
  6
Continuous
 62
        24
100
AcDbCircle
 10
10007.6
 20
609.442440625
 30
0.0
 40
145.134409375
100
AcDbArc
 50
118.8
 51
126.0
  0
ARC
  5
8F
102
{ACAD_REACTORS
330
A4
102
}
100
AcDbEntity
  8
1_CUT_LINE_1
370
        25
  6
Continuous
 62
        24
100
AcDbCircle
 10
10007.6
 20
609.442440625
 30
0.0
 40
145.134409375
100
AcDbArc
 50
126.0
 51
133.2
  0
ARC
  5
90
102
{ACAD_REACTORS
330
A4
102
}
100
AcDbEntity
  8
1_CUT_LINE_1
370
        25
  6
Continuous
 62
        24
100
AcDbCircle
 10
10007.6
 20
609.442440625
 30
0.0
 40
145.134409375
100
AcDbArc
 50
133.2
 51
140.4
  0
ARC
  5
91
102
{ACAD_REACTORS
330
A4
102
}
100
AcDbEntity
  8
1_CUT_LINE_1
370
        25
  6
Continuous
 62
        24
100
AcDbCircle
 10
10007.6
 20
609.442440625
 30
0.0
 40
145.134409375
100
AcDbArc
 50
140.4
 51
147.6
  0
ARC
  5
92
102
{ACAD_REACTORS
330
A4
102
}
100
AcDbEntity
  8
1_CUT_LINE_1
370
        25
  6
Continuous
 62
        24
100
AcDbCircle
 10
10007.6
 20
609.442440625
 30
0.0
 40
228.757559375
100
AcDbArc
 50
32.4
 51
39.6
  0
ARC
  5
93
102
{ACAD_REACTORS
330
A4
102
}
100
AcDbEntity
  8
1_CUT_LINE_1
370
        25
  6
Continuous
 62
        24
100
AcDbCircle
 10
10007.6
 20
609.442440625
 30
0.0
 40
228.757559375
100
AcDbArc
 50
39.6
 51
46.8
  0
ARC
  5
94
102
{ACAD_REACTORS
330
A4
102
}
100
AcDbEntity
  8
1_CUT_LINE_1
370
        25
  6
Continuous
 62
        24
100
AcDbCircle
 10
10007.6
 20
609.442440625
 30
0.0
 40
228.757559375
100
AcDbArc
 50
46.8
 51
54.0
  0
ARC
  5
95
102
{ACAD_REACTORS
330
A4
102
}
100
AcDbEntity
  8
1_CUT_LINE_1
370
        25
  6
Continuous
 62
        24
100
AcDbCircle
 10
10007.6
 20
609.442440625
 30
0.0
 40
228.757559375
100
AcDbArc
 50
54.0
 51
61.2
  0
ARC
  5
96
102
{ACAD_REACTORS
330
A4
102
}
100
AcDbEntity
  8
1_CUT_LINE_1
370
        25
  6
Continuous
 62
        24
100
AcDbCircle
 10
10007.6
 20
609.442440625
 30
0.0
 40
228.757559375
100
AcDbArc
 50
61.2
 51
68.4
  0
ARC
  5
97
102
{ACAD_REACTORS
330
A4
102
}
100
AcDbEntity
  8
1_CUT_LINE_1
370
        25
  6
Continuous
 62
        24
100
AcDbCircle
 10
10007.6
 20
609.442440625
 30
0.0
 40
228.757559375
100
AcDbArc
 50
68.4
 51
75.6
  0
ARC
  5
98
102
{ACAD_REACTORS
330
A4
102
}
100
AcDbEntity
  8
1_CUT_LINE_1
370
        25
  6
Continuous
 62
        24
100
AcDbCircle
 10
10007.6
 20
609.442440625
 30
0.0
 40
228.757559375
100
AcDbArc
 50
75.6
 51
82.8
  0
ARC
  5
99
102
{ACAD_REACTORS
330
A4
102
}
100
AcDbEntity
  8
1_CUT_LINE_1
370
        25
  6
Continuous
 62
        24
100
AcDbCircle
 10
10007.6
 20
609.442440625
 30
0.0
 40
228.757559375
100
AcDbArc
 50
82.8
 51
90.0
  0
ARC
  5
9A
102
{ACAD_REACTORS
330
A4
102
}
100
AcDbEntity
  8
1_CUT_LINE_1
370
        25
  6
Continuous
 62
        24
100
AcDbCircle
 10
10007.6
 20
609.442440625
 30
0.0
 40
228.757559375
100
AcDbArc
 50
90.0
 51
97.2
  0
ARC
  5
9B
102
{ACAD_REACTORS
330
A4
102
}
100
AcDbEntity
  8
1_CUT_LINE_1
370
        25
  6
Continuous
 62
        24
100
AcDbCircle
 10
10007.6
 20
609.442440625
 30
0.0
 40
228.757559375
100
AcDbArc
 50
97.2
 51
104.4
  0
ARC
  5
9C
102
{ACAD_REACTORS
330
A4
102
}
100
AcDbEntity
  8
1_CUT_LINE_1
370
        25
  6
Continuous
 62
        24
100
AcDbCircle
 10
10007.6
 20
609.442440625
 30
0.0
 40
228.757559375
100
AcDbArc
 50
104.4
 51
111.6
  0
ARC
  5
9D
102
{ACAD_REACTORS
330
A4
102
}
100
AcDbEntity
  8
1_CUT_LINE_1
370
        25
  6
Continuous
 62
        24
100
AcDbCircle
 10
10007.6
 20
609.442440625
 30
0.0
 40
228.757559375
100
AcDbArc
 50
111.6
 51
118.8
  0
ARC
  5
9E
102
{ACAD_REACTORS
330
A4
102
}
100
AcDbEntity
  8
1_CUT_LINE_1
370
        25
  6
Continuous
 62
        24
100
AcDbCircle
 10
10007.6
 20
609.442440625
 30
0.0
 40
228.757559375
100
AcDbArc
 50
118.8
 51
126.0
  0
ARC
  5
9F
102
{ACAD_REACTORS
330
A4
102
}
100
AcDbEntity
  8
1_CUT_LINE_1
370
        25
  6
Continuous
 62
        24
100
AcDbCircle
 10
10007.6
 20
609.442440625
 30
0.0
 40
228.757559375
100
AcDbArc
 50
126.0
 51
133.2
  0
ARC
  5
A0
102
{ACAD_REACTORS
330
A4
102
}
100
AcDbEntity
  8
1_CUT_LINE_1
370
        25
  6
Continuous
 62
        24
100
AcDbCircle
 10
10007.6
 20
609.442440625
 30
0.0
 40
228.757559375
100
AcDbArc
 50
133.2
 51
140.4
  0
ARC
  5
A1
102
{ACAD_REACTORS
330
A4
102
}
100
AcDbEntity
  8
1_CUT_LINE_1
370
        25
  6
Continuous
 62
        24
100
AcDbCircle
 10
10007.6
 20
609.442440625
 30
0.0
 40
228.757559375
100
AcDbArc
 50
140.4
 51
147.6
  0
ARC
  5
A2
102
{ACAD_REACTORS
330
A4
102
}
100
AcDbEntity
  8
1_CUT_LINE_1
370
        25
  6
Continuous
 62
        24
100
AcDbCircle
 10
10007.6
 20
609.442440625
 30
0.0
 40
145.134409375
100
AcDbArc
 50
32.4
 51
39.6
  0
ARC
  5
A3
102
{ACAD_REACTORS
330
A4
102
}
100
AcDbEntity
  8
1_CUT_LINE_1
370
        25
  6
Continuous
 62
        24
100
AcDbCircle
 10
10007.6
 20
609.442440625
 30
0.0
 40
145.134409375
100
AcDbArc
 50
39.6
 51
46.8
  0
LINE
  5
A5
102
{ACAD_REACTORS
330
CB
102
}
100
AcDbEntity
  8
2_SLASH_1
370
        25
  6
Continuous
 62
         3
100
AcDbLine
 10
9895.7720155941
 20
701.9545948986
 30
0.0
 11
9890.8156506343
 21
706.0548565839
 31
0.0
  0
LINE
  5
A6
102
{ACAD_REACTORS
330
CB
102
}
100
AcDbEntity
  8
2_SLASH_1
370
        25
  6
Continuous
 62
         3
100
AcDbLine
 10
9908.2486600917
 20
715.2408718187
 30
0.0
 11
9903.8452766054
 21
719.929998963
 31
0.0
  0
LINE
  5
A7
102
{ACAD_REACTORS
330
CB
102
}
100
AcDbEntity
  8
2_SLASH_1
370
        25
  6
Continuous
 62
         3
100
AcDbLine
 10
9922.2921345692
 20
726.8586442779
 30
0.0
 11
9918.5111765446
 21
732.0626865451
 31
0.0
  0
LINE
  5
A8
102
{ACAD_REACTORS
330
CB
102
}
100
AcDbEntity
  8
2_SLASH_1
370
        25
  6
Continuous
 62
         3
100
AcDbLine
 10
9937.680965045
 20
736.6246930645
 30
0.0
 11
9934.5820604487
 21
742.2615795993
 31
0.0
  0
LINE
  5
A9
102
{ACAD_REACTORS
330
CB
102
}
100
AcDbEntity
  8
2_SLASH_1
370
        25
  6
Continuous
 62
         3
100
AcDbLine
 10
9954.1724604697
 20
744.3850017552
 30
0.0
 11
9951.8044808783
 21
750.3658354895
 31
0.0
  0
LINE
  5
AA
102
{ACAD_REACTORS
330
CB
102
}
100
AcDbEntity
  8
2_SLASH_1
370
        25
  6
Continuous
 62
         3
100
AcDbLine
 10
9971.5065401088
 20
750.017185646
 30
0.0
 11
9969.9068299751
 21
756.2476452591
 31
0.0
  0
LINE
  5
AB
102
{ACAD_REACTORS
330
CB
102
}
100
AcDbEntity
  8
2_SLASH_1
370
        25
  6
Continuous
 62
         3
100
AcDbLine
 10
9989.4098351716
 20
753.4324218325
 30
0.0
 11
9988.60362288
 21
759.8142492545
 31
0.0
  0
LINE
  5
AC
102
{ACAD_REACTORS
330
CB
102
}
100
AcDbEntity
  8
2_SLASH_1
370
        25
  6
Continuous
 62
         3
100
AcDbLine
 10
10119.4279844059
 20
701.9545948986
 30
0.0
 11
10124.3843493657
 21
706.0548565839
 31
0.0
  0
LINE
  5
AD
102
{ACAD_REACTORS
330
CB
102
}
100
AcDbEntity
  8
2_SLASH_1
370
        25
  6
Continuous
 62
         3
100
AcDbLine
 10
10130.1410347866
 20
687.2093460416
 30
0.0
 11
10135.5722163837
 21
690.6560786916
 31
0.0
  0
LINE
  5
AE
102
{ACAD_REACTORS
330
CB
102
}
100
AcDbEntity
  8
2_SLASH_1
370
        25
  6
Continuous
 62
         3
100
AcDbLine
 10
10143.4579061574
 20
684.2326726209
 30
0.0
 11
10140.0111735074
 21
689.663854218
 31
0.0
  0
LINE
  5
AF
102
{ACAD_REACTORS
330
CB
102
}
100
AcDbEntity
  8
2_SLASH_1
370
        25
  6
Continuous
 62
         3
100
AcDbLine
 10
10197.7697221293
 20
718.6999991213
 30
0.0
 11
10194.3229894792
 21
724.1311807185
 31
0.0
  0
LINE
  5
B0
102
{ACAD_REACTORS
330
CB
102
}
100
AcDbEntity
  8
2_SLASH_1
370
        25
  6
Continuous
 62
         3
100
AcDbLine
 10
10200.74639555
 20
732.0168704921
 30
0.0
 11
10195.3152139528
 21
728.5701378421
 31
0.0
  0
LINE
  5
B1
102
{ACAD_REACTORS
330
CB
102
}
100
AcDbEntity
  8
2_SLASH_1
370
        25
  6
Continuous
 62
         3
100
AcDbLine
 10
10183.8607288835
 20
755.257996807
 30
0.0
 11
10178.9043639237
 21
751.1577351217
 31
0.0
  0
LINE
  5
B2
102
{ACAD_REACTORS
330
CB
102
}
100
AcDbEntity
  8
2_SLASH_1
370
        25
  6
Continuous
 62
         3
100
AcDbLine
 10
10007.6
 20
754.57685
 30
0.0
 11
10007.6
 21
761.0094
 31
0.0
  0
LINE
  5
B3
102
{ACAD_REACTORS
330
CB
102
}
100
AcDbEntity
  8
2_SLASH_1
370
        25
  6
Continuous
 62
         3
100
AcDbLine
 10
10025.7901648284
 20
753.4324218325
 30
0.0
 11
10026.59637712
 21
759.8142492545
 31
0.0
  0
LINE
  5
B4
102
{ACAD_REACTORS
330
CB
102
}
100
AcDbEntity
  8
2_SLASH_1
370
        25
  6
Continuous
 62
         3
100
AcDbLine
 10
10043.6934598912
 20
750.017185646
 30
0.0
 11
10045.2931700249
 21
756.2476452591
 31
0.0
  0
LINE
  5
B5
102
{ACAD_REACTORS
330
CB
102
}
100
AcDbEntity
  8
2_SLASH_1
370
        25
  6
Continuous
 62
         3
100
AcDbLine
 10
10061.0275395303
 20
744.3850017552
 30
0.0
 11
10063.3955191217
 21
750.3658354895
 31
0.0
  0
LINE
  5
B6
102
{ACAD_REACTORS
330
CB
102
}
100
AcDbEntity
  8
2_SLASH_1
370
        25
  6
Continuous
 62
         3
100
AcDbLine
 10
10077.519034955
 20
736.6246930645
 30
0.0
 11
10080.6179395513
 21
742.2615795993
 31
0.0
  0
LINE
  5
B7
102
{ACAD_REACTORS
330
CB
102
}
100
AcDbEntity
  8
2_SLASH_1
370
        25
  6
Continuous
 62
         3
100
AcDbLine
 10
10092.9078654308
 20
726.8586442779
 30
0.0
 11
10096.6888234554
 21
732.0626865451
 31
0.0
  0
LINE
  5
B8
102
{ACAD_REACTORS
330
CB
102
}
100
AcDbEntity
  8
2_SLASH_1
370
        25
  6
Continuous
 62
         3
100
AcDbLine
 10
10106.9513399083
 20
715.2408718187
 30
0.0
 11
10111.3547233946
 21
719.929998963
 31
0.0
  0
LINE
  5
B9
102
{ACAD_REACTORS
330
CB
102
}
100
AcDbEntity
  8
2_SLASH_1
370
        25
  6
Continuous
 62
         3
100
AcDbLine
 10
10164.1953252295
 20
776.1995246949
 30
0.0
 11
10159.7919417432
 21
771.5103975505
 31
0.0
  0
LINE
  5
BA
102
{ACAD_REACTORS
330
CB
102
}
100
AcDbEntity
  8
2_SLASH_1
370
        25
  6
Continuous
 62
         3
100
AcDbLine
 10
10142.060319751
 20
794.5111937511
 30
0.0
 11
10138.2793617264
 21
789.3071514839
 31
0.0
  0
LINE
  5
BB
102
{ACAD_REACTORS
330
CB
102
}
100
AcDbEntity
  8
2_SLASH_1
370
        25
  6
Continuous
 62
         3
100
AcDbLine
 10
10117.8047947074
 20
809.9042180158
 30
0.0
 11
10114.7058901111
 21
804.2673314811
 31
0.0
  0
LINE
  5
BC
102
{ACAD_REACTORS
330
CB
102
}
100
AcDbEntity
  8
2_SLASH_1
370
        25
  6
Continuous
 62
         3
100
AcDbLine
 10
10091.8112742182
 20
822.1358403011
 30
0.0
 11
10089.4432946268
 21
816.1550065668
 31
0.0
  0
LINE
  5
BD
102
{ACAD_REACTORS
330
CB
102
}
100
AcDbEntity
  8
2_SLASH_1
370
        25
  6
Continuous
 62
         3
100
AcDbLine
 10
10064.4896916291
 20
831.0131606165
 30
0.0
 11
10062.8899814954
 21
824.7827010034
 31
0.0
  0
LINE
  5
BE
102
{ACAD_REACTORS
330
CB
102
}
100
AcDbEntity
  8
2_SLASH_1
370
        25
  6
Continuous
 62
         3
100
AcDbLine
 10
10036.2709246187
 20
836.3961783178
 30
0.0
 11
10035.4647123272
 21
830.0143508958
 31
0.0
  0
LINE
  5
BF
102
{ACAD_REACTORS
330
CB
102
}
100
AcDbEntity
  8
2_SLASH_1
370
        25
  6
Continuous
 62
         3
100
AcDbLine
 10
10007.6
 20
838.2
 30
0.0
 11
10007.6
 21
831.76745
 31
0.0
  0
LINE
  5
C0
102
{ACAD_REACTORS
330
CB
102
}
100
AcDbEntity
  8
2_SLASH_1
370
        25
  6
Continuous
 62
         3
100
AcDbLine
 10
9978.9290753813
 20
836.3961783178
 30
0.0
 11
9979.7352876728
 21
830.0143508958
 31
0.0
  0
LINE
  5
C1
102
{ACAD_REACTORS
330
CB
102
}
100
AcDbEntity
  8
2_SLASH_1
370
        25
  6
Continuous
 62
         3
100
AcDbLine
 10
9950.7103083709
 20
831.0131606165
 30
0.0
 11
9952.3100185046
 21
824.7827010034
 31
0.0
  0
LINE
  5
C2
102
{ACAD_REACTORS
330
CB
102
}
100
AcDbEntity
  8
2_SLASH_1
370
        25
  6
Continuous
 62
         3
100
AcDbLine
 10
9923.3887257818
 20
822.1358403011
 30
0.0
 11
9925.7567053732
 21
816.1550065668
 31
0.0
  0
LINE
  5
C3
102
{ACAD_REACTORS
330
CB
102
}
100
AcDbEntity
  8
2_SLASH_1
370
        25
  6
Continuous
 62
         3
100
AcDbLine
 10
9897.3952052926
 20
809.9042180158
 30
0.0
 11
9900.4941098889
 21
804.2673314811
 31
0.0
  0
LINE
  5
C4
102
{ACAD_REACTORS
330
CB
102
}
100
AcDbEntity
  8
2_SLASH_1
370
        25
  6
Continuous
 62
         3
100
AcDbLine
 10
9873.139680249
 20
794.5111937511
 30
0.0
 11
9876.9206382736
 21
789.3071514839
 31
0.0
  0
LINE
  5
C5
102
{ACAD_REACTORS
330
CB
102
}
100
AcDbEntity
  8
2_SLASH_1
370
        25
  6
Continuous
 62
         3
100
AcDbLine
 10
9851.0046747705
 20
776.1995246949
 30
0.0
 11
9855.4080582568
 21
771.5103975505
 31
0.0
  0
LINE
  5
C6
102
{ACAD_REACTORS
330
CB
102
}
100
AcDbEntity
  8
2_SLASH_1
370
        25
  6
Continuous
 62
         3
100
AcDbLine
 10
9831.3392711165
 20
755.257996807
 30
0.0
 11
9836.2956360763
 21
751.1577351217
 31
0.0
  0
LINE
  5
C7
102
{ACAD_REACTORS
330
CB
102
}
100
AcDbEntity
  8
2_SLASH_1
370
        25
  6
Continuous
 62
         3
100
AcDbLine
 10
9814.45360445
 20
732.0168704921
 30
0.0
 11
9819.8847860472
 21
728.5701378421
 31
0.0
  0
LINE
  5
C8
102
{ACAD_REACTORS
330
CB
102
}
100
AcDbEntity
  8
2_SLASH_1
370
        25
  6
Continuous
 62
         3
100
AcDbLine
 10
9817.4302778707
 20
718.6999991213
 30
0.0
 11
9820.8770105208
 21
724.1311807185
 31
0.0
  0
LINE
  5
C9
102
{ACAD_REACTORS
330
CB
102
}
100
AcDbEntity
  8
2_SLASH_1
370
        25
  6
Continuous
 62
         3
100
AcDbLine
 10
9871.7420938426
 20
684.2326726209
 30
0.0
 11
9875.1888264926
 21
689.663854218
 31
0.0
  0
LINE
  5
CA
102
{ACAD_REACTORS
330
CB
102
}
100
AcDbEntity
  8
2_SLASH_1
370
        25
  6
Continuous
 62
         3
100
AcDbLine
 10
9885.0589652134
 20
687.2093460416
 30
0.0
 11
9879.6277836163
 21
690.6560786916
 31
0.0
  0
LINE
  5
CC
102
{ACAD_REACTORS
330
D8
102
}
100
AcDbEntity
  8
2_SLASH_1
370
        25
  6
Continuous
 62
         3
100
AcDbLine
 10
9937.4737648151
 20
696.0931476917
 30
0.0
 11
9943.416666102
 21
693.6315173789
 31
0.0
  0
LINE
  5
CD
102
{ACAD_REACTORS
330
D8
102
}
100
AcDbEntity
  8
2_SLASH_1
370
        25
  6
Continuous
 62
         3
100
AcDbLine
 10
9953.9277032412
 20
720.7182067588
 30
0.0
 11
9958.4762029665
 21
716.1697070335
 31
0.0
  0
LINE
  5
CE
102
{ACAD_REACTORS
330
D8
102
}
100
AcDbEntity
  8
2_SLASH_1
370
        25
  6
Continuous
 62
         3
100
AcDbLine
 10
9978.5527623083
 20
737.1721451849
 30
0.0
 11
9981.0143926211
 21
731.229243898
 31
0.0
  0
LINE
  5
CF
102
{ACAD_REACTORS
330
D8
102
}
100
AcDbEntity
  8
2_SLASH_1
370
        25
  6
Continuous
 62
         3
100
AcDbLine
 10
10083.50409
 20
667.04591
 30
0.0
 11
10077.07154
 21
667.04591
 31
0.0
  0
LINE
  5
D0
102
{ACAD_REACTORS
330
D8
102
}
100
AcDbEntity
  8
2_SLASH_1
370
        25
  6
Continuous
 62
         3
100
AcDbLine
 10
10077.7262351849
 20
696.0931476918
 30
0.0
 11
10071.783333898
 21
693.6315173789
 31
0.0
  0
LINE
  5
D1
102
{ACAD_REACTORS
330
D8
102
}
100
AcDbEntity
  8
2_SLASH_1
370
        25
  6
Continuous
 62
         3
100
AcDbLine
 10
10061.2722967588
 20
720.7182067588
 30
0.0
 11
10056.7237970335
 21
716.1697070335
 31
0.0
  0
LINE
  5
D2
102
{ACAD_REACTORS
330
D8
102
}
100
AcDbEntity
  8
2_SLASH_1
370
        25
  6
Continuous
 62
         3
100
AcDbLine
 10
10036.6472376918
 20
737.1721451849
 30
0.0
 11
10034.1856073789
 21
731.229243898
 31
0.0
  0
LINE
  5
D3
102
{ACAD_REACTORS
330
D8
102
}
100
AcDbEntity
  8
2_SLASH_1
370
        25
  6
Continuous
 62
         3
100
AcDbLine
 10
10007.6
 20
742.95
 30
0.0
 11
10007.6
 21
736.51745
 31
0.0
  0
LINE
  5
D4
102
{ACAD_REACTORS
330
D8
102
}
100
AcDbEntity
  8
2_SLASH_1
370
        25
  6
Continuous
 62
         3
100
AcDbLine
 10
9941.344735
 20
657.397085
 30
0.0
 11
9941.344735
 21
663.829635
 31
0.0
  0
LINE
  5
D5
102
{ACAD_REACTORS
330
D8
102
}
100
AcDbEntity
  8
2_SLASH_1
370
        25
  6
Continuous
 62
         3
100
AcDbLine
 10
10073.855265
 20
657.397085
 30
0.0
 11
10073.855265
 21
663.829635
 31
0.0
  0
LINE
  5
D6
102
{ACAD_REACTORS
330
D8
102
}
100
AcDbEntity
  8
2_SLASH_1
370
        25
  6
Continuous
 62
         3
100
AcDbLine
 10
10007.6
 20
657.397085
 30
0.0
 11
10007.6
 21
663.829635
 31
0.0
  0
LINE
  5
D7
102
{ACAD_REACTORS
330
D8
102
}
100
AcDbEntity
  8
2_SLASH_1
370
        25
  6
Continuous
 62
         3
100
AcDbLine
 10
9931.69591
 20
667.04591
 30
0.0
 11
9938.12846
 21
667.04591
 31
0.0
  0
ARC
  5
D9
102
{ACAD_REACTORS
330
E4
102
}
100
AcDbEntity
  8
1_CUT_LINE_1
370
        25
  6
Continuous
 62
        24
100
AcDbCircle
 10
10007.6
 20
667.04591
 30
0.0
 40
75.90409
100
AcDbArc
 50
157.5
 51
180.0
  0
ARC
  5
DA
102
{ACAD_REACTORS
330
E4
102
}
100
AcDbEntity
  8
1_CUT_LINE_1
370
        25
  6
Continuous
 62
        24
100
AcDbCircle
 10
10007.6
 20
667.04591
 30
0.0
 40
75.90409
100
AcDbArc
 50
135.0
 51
157.5
  0
ARC
  5
DB
102
{ACAD_REACTORS
330
E4
102
}
100
AcDbEntity
  8
1_CUT_LINE_1
370
        25
  6
Continuous
 62
        24
100
AcDbCircle
 10
10007.6
 20
667.04591
 30
0.0
 40
75.90409
100
AcDbArc
 50
112.5
 51
135.0
  0
ARC
  5
DC
102
{ACAD_REACTORS
330
E4
102
}
100
AcDbEntity
  8
1_CUT_LINE_1
370
        25
  6
Continuous
 62
        24
100
AcDbCircle
 10
10007.6
 20
667.04591
 30
0.0
 40
75.90409
100
AcDbArc
 50
90.0
 51
112.5
  0
ARC
  5
DD
102
{ACAD_REACTORS
330
E4
102
}
100
AcDbEntity
  8
1_CUT_LINE_1
370
        25
  6
Continuous
 62
        24
100
AcDbCircle
 10
10007.6
 20
667.04591
 30
0.0
 40
75.90409
100
AcDbArc
 50
67.5
 51
90.0
  0
ARC
  5
DE
102
{ACAD_REACTORS
330
E4
102
}
100
AcDbEntity
  8
1_CUT_LINE_1
370
        25
  6
Continuous
 62
        24
100
AcDbCircle
 10
10007.6
 20
667.04591
 30
0.0
 40
75.90409
100
AcDbArc
 50
45.0
 51
67.5
  0
ARC
  5
DF
102
{ACAD_REACTORS
330
E4
102
}
100
AcDbEntity
  8
1_CUT_LINE_1
370
        25
  6
Continuous
 62
        24
100
AcDbCircle
 10
10007.6
 20
667.04591
 30
0.0
 40
75.90409
100
AcDbArc
 50
22.5
 51
45.0
  0
ARC
  5
E0
102
{ACAD_REACTORS
330
E4
102
}
100
AcDbEntity
  8
1_CUT_LINE_1
370
        25
  6
Continuous
 62
        24
100
AcDbCircle
 10
10007.6
 20
667.04591
 30
0.0
 40
75.90409
100
AcDbArc
 50
0.0
 51
22.5
  0
LINE
  5
E1
102
{ACAD_REACTORS
330
E4
102
}
100
AcDbEntity
  8
1_CUT_LINE_1
370
        25
  6
Continuous
 62
        24
100
AcDbLine
 10
9941.344735
 20
657.397085
 30
0.0
 11
10073.855265
 21
657.397085
 31
0.0
  0
LINE
  5
E2
102
{ACAD_REACTORS
330
E4
102
}
100
AcDbEntity
  8
1_CUT_LINE_1
370
        25
  6
Continuous
 62
        24
100
AcDbLine
 10
9941.344735
 20
657.397085
 30
0.0
 11
9931.69591
 21
667.04591
 31
0.0
  0
LINE
  5
E3
102
{ACAD_REACTORS
330
E4
102
}
100
AcDbEntity
  8
1_CUT_LINE_1
370
        25
  6
Continuous
 62
        24
100
AcDbLine
 10
10073.855265
 20
657.397085
 30
0.0
 11
10083.50409
 21
667.04591
 31
0.0
  0
ARC
  5
E5
102
{ACAD_REACTORS
330
E7
102
}
100
AcDbEntity
  8
0_PATTERN_1
370
        25
  6
Continuous
 62
        29
100
AcDbCircle
 10
10007.6
 20
667.04591
 30
0.0
 40
66.255265
100
AcDbArc
 50
0.0
 51
180.0
  0
LINE
  5
E6
102
{ACAD_REACTORS
330
E7
102
}
100
AcDbEntity
  8
0_PATTERN_1
370
        25
  6
Continuous
 62
        29
100
AcDbLine
 10
9941.344735
 20
667.04591
 30
0.0
 11
10073.855265
 21
667.04591
 31
0.0
  0
ENDSEC
  0
SECTION
  2
OBJECTS
  0
DICTIONARY
  5
19
100
AcDbDictionary
280
         0
281
         1
  3
ACAD_GROUP
350
1A
  3
ACAD_MLINESTYLE
350
1B
  3
ACAD_LAYOUT
350
1E
  3
ACAD_PLOTSETTINGS
350
22
  3
ACAD_PLOTSTYLENAME
350
1F
  3
ACAD_WIPEOUT_VARS
350
23
  0
DICTIONARY
  5
1A
102
{ACAD_REACTORS
330
19
102
}
100
AcDbDictionary
280
         0
281
         1
  3
VELLUMGRP1
350
3A
  3
VELLUMGRP2
350
59
  3
VELLUMGRP3
350
78
  3
VELLUMGRP4
350
7D
  3
VELLUMGRP5
350
A4
  3
VELLUMGRP6
350
CB
  3
VELLUMGRP7
350
D8
  3
VELLUMGRP8
350
E4
  3
VELLUMGRP9
350
E7
  0
DICTIONARY
  5
1B
102
{ACAD_REACTORS
330
19
102
}
100
AcDbDictionary
280
         0
281
         1
  3
Standard
350
1C
  0
MLINESTYLE
  5
1C
102
{ACAD_REACTORS
330
1B
102
}
100
AcDbMlineStyle
  2
Standard
 70
         0
  3

 62
         0
 51
90.0
 52
90.0
 71
         2
 49
0.5
 62
       256
  6
BYLAYER
 49
-0.5
 62
       256
  6
BYLAYER
  0
ACDBDICTIONARYWDFLT
  5
1F
102
{ACAD_REACTORS
330
19
102
}
100
AcDbDictionary
281
         1
  3
Normal
350
1D
100
AcDbDictionaryWithDefault
340
1D
  0
ACDBPLACEHOLDER
  5
1D
102
{ACAD_REACTORS
330
1F
102
}
  0
LAYOUT
  5
20
102
{ACAD_REACTORS
330
1E
102
}
100
AcDbPlotSettings
  1

  2

  4

  6

 40
0.0
 41
0.0
 42
0.0
 43
0.0
 44
0.0
 45
0.0
 46
0.0
 47
0.0
 48
0.0
 49
0.0
140
0.0
141
0.0
142
1.0
143
1.0
 70
      1024
 72
         0
 73
         0
 74
         0
  7

 75
         0
147
1.0
148
0.0
149
0.0
100
AcDbLayout
  1
Model
 70
         0
 71
         0
 10
0.0
 20
0.0
 11
0.0
 21
0.0
 12
0.0
 22
0.0
 32
0.0
 14
0.0
 24
0.0
 34
0.0
 15
0.0
 25
0.0
 35
0.0
146
0.0
 13
0.0
 23
0.0
 33
0.0
 16
0.0
 26
0.0
 36
0.0
 17
0.0
 27
0.0
 37
0.0
 76
         0
330
A
331
0
345
0
346
0
  0
LAYOUT
  5
21
102
{ACAD_REACTORS
330
1E
102
}
100
AcDbPlotSettings
  1

  2

  4

  6

 40
0.0
 41
0.0
 42
0.0
 43
0.0
 44
0.0
 45
0.0
 46
0.0
 47
0.0
 48
0.0
 49
0.0
140
0.0
141
0.0
142
1.0
143
1.0
 70
         0
 72
         0
 73
         0
 74
         0
  7

 75
         0
147
1.0
148
0.0
149
0.0
100
AcDbLayout
  1
Layout1
 70
         0
 71
         0
 10
0.0
 20
0.0
 11
0.0
 21
0.0
 12
0.0
 22
0.0
 32
0.0
 14
0.0
 24
0.0
 34
0.0
 15
0.0
 25
0.0
 35
0.0
146
0.0
 13
0.0
 23
0.0
 33
0.0
 16
0.0
 26
0.0
 36
0.0
 17
0.0
 27
0.0
 37
0.0
 76
         0
330
B
331
0
345
0
346
0
  0
DICTIONARY
  5
1E
102
{ACAD_REACTORS
330
19
102
}
100
AcDbDictionary
280
         0
281
         1
  3
Layout1
350
21
  3
Model
350
20
  0
DICTIONARY
  5
22
102
{ACAD_REACTORS
330
19
102
}
100
AcDbDictionary
280
         0
281
         1
  0
WIPEOUTVARIABLES
  5
23
100
AcDbWipeoutVariables
 70
         1
  0
GROUP
  5
3A
102
{ACAD_XDICTIONARY
360
5CEB210060EB2100
102
}
102
{ACAD_REACTORS
330
1A
102
}
100
AcDbGroup
300
This is Vellum Group Number 1
 70
         0
 71
         1
340
36
340
37
340
38
340
39
  0
GROUP
  5
59
102
{ACAD_XDICTIONARY
360
3207917C60EB2100
102
}
102
{ACAD_REACTORS
330
1A
102
}
100
AcDbGroup
300
This is Vellum Group Number 2
 70
         0
 71
         1
340
3B
340
3C
340
3D
340
3E
340
3F
340
40
340
41
340
42
340
43
340
44
340
45
340
46
340
47
340
48
340
49
340
4A
340
4B
340
4C
340
4D
340
4E
340
4F
340
50
340
51
340
52
340
53
340
54
340
55
340
56
340
57
340
58
  0
GROUP
  5
78
102
{ACAD_XDICTIONARY
360
3207917C60EB2100
102
}
102
{ACAD_REACTORS
330
1A
102
}
100
AcDbGroup
300
This is Vellum Group Number 3
 70
         0
 71
         1
340
5A
340
5B
340
5C
340
5D
340
5E
340
5F
340
60
340
61
340
62
340
63
340
64
340
65
340
66
340
67
340
68
340
69
340
6A
340
6B
340
6C
340
6D
340
6E
340
6F
340
70
340
71
340
72
340
73
340
74
340
75
340
76
340
77
  0
GROUP
  5
7D
102
{ACAD_XDICTIONARY
360
3207917C60EB2100
102
}
102
{ACAD_REACTORS
330
1A
102
}
100
AcDbGroup
300
This is Vellum Group Number 4
 70
         0
 71
         1
340
79
340
7A
340
7B
340
7C
  0
GROUP
  5
A4
102
{ACAD_XDICTIONARY
360
3207917C60EB2100
102
}
102
{ACAD_REACTORS
330
1A
102
}
100
AcDbGroup
300
This is Vellum Group Number 5
 70
         0
 71
         1
340
7E
340
7F
340
80
340
81
340
82
340
83
340
84
340
85
340
86
340
87
340
88
340
89
340
8A
340
8B
340
8C
340
8D
340
8E
340
8F
340
90
340
91
340
92
340
93
340
94
340
95
340
96
340
97
340
98
340
99
340
9A
340
9B
340
9C
340
9D
340
9E
340
9F
340
A0
340
A1
340
A2
340
A3
  0
GROUP
  5
CB
102
{ACAD_XDICTIONARY
360
3207917C60EB2100
102
}
102
{ACAD_REACTORS
330
1A
102
}
100
AcDbGroup
300
This is Vellum Group Number 6
 70
         0
 71
         1
340
A5
340
A6
340
A7
340
A8
340
A9
340
AA
340
AB
340
AC
340
AD
340
AE
340
AF
340
B0
340
B1
340
B2
340
B3
340
B4
340
B5
340
B6
340
B7
340
B8
340
B9
340
BA
340
BB
340
BC
340
BD
340
BE
340
BF
340
C0
340
C1
340
C2
340
C3
340
C4
340
C5
340
C6
340
C7
340
C8
340
C9
340
CA
  0
GROUP
  5
D8
102
{ACAD_XDICTIONARY
360
3207917C60EB2100
102
}
102
{ACAD_REACTORS
330
1A
102
}
100
AcDbGroup
300
This is Vellum Group Number 7
 70
         0
 71
         1
340
CC
340
CD
340
CE
340
CF
340
D0
340
D1
340
D2
340
D3
340
D4
340
D5
340
D6
340
D7
  0
GROUP
  5
E4
102
{ACAD_XDICTIONARY
360
3207917C60EB2100
102
}
102
{ACAD_REACTORS
330
1A
102
}
100
AcDbGroup
300
This is Vellum Group Number 8
 70
         0
 71
         1
340
D9
340
DA
340
DB
340
DC
340
DD
340
DE
340
DF
340
E0
340
E1
340
E2
340
E3
  0
GROUP
  5
E7
102
{ACAD_XDICTIONARY
360
3207917C60EB2100
102
}
102
{ACAD_REACTORS
330
1A
102
}
100
AcDbGroup
300
This is Vellum Group Number 9
 70
         0
 71
         1
340
E5
340
E6
  0
ENDSEC
  0
EOF
