%FSLAX25Y25*%
%MOIN*%
G70*
G01*
G75*
G04 Layer_Color=48896*
%ADD10P,0.08352X4X243.0*%
G04:AMPARAMS|DCode=11|XSize=80mil|YSize=50mil|CornerRadius=0mil|HoleSize=0mil|Usage=FLASHONLY|Rotation=288.000|XOffset=0mil|YOffset=0mil|HoleType=Round|Shape=Rectangle|*
%AMROTATEDRECTD11*
4,1,4,-0.03614,0.03032,0.01142,0.04577,0.03614,-0.03032,-0.01142,-0.04577,-0.03614,0.03032,0.0*
%
%ADD11ROTATEDRECTD11*%

%ADD12C,0.02500*%
%ADD13C,0.05000*%
%ADD14C,0.00100*%
%ADD15C,0.16500*%
%ADD16C,0.04000*%
%ADD17R,0.17716X0.12205*%
%ADD18C,0.01000*%
%ADD19P,0.06937X4X243.0*%
G04:AMPARAMS|DCode=20|XSize=70mil|YSize=40mil|CornerRadius=0mil|HoleSize=0mil|Usage=FLASHONLY|Rotation=288.000|XOffset=0mil|YOffset=0mil|HoleType=Round|Shape=Rectangle|*
%AMROTATEDRECTD20*
4,1,4,-0.02984,0.02711,0.00821,0.03947,0.02984,-0.02711,-0.00821,-0.03947,-0.02984,0.02711,0.0*
%
%ADD20ROTATEDRECTD20*%

%ADD21R,0.16716X0.11205*%
%ADD22P,0.09483X4X243.0*%
G04:AMPARAMS|DCode=23|XSize=88mil|YSize=58mil|CornerRadius=0mil|HoleSize=0mil|Usage=FLASHONLY|Rotation=288.000|XOffset=0mil|YOffset=0mil|HoleType=Round|Shape=Rectangle|*
%AMROTATEDRECTD23*
4,1,4,-0.04118,0.03289,0.01398,0.05081,0.04118,-0.03289,-0.01398,-0.05081,-0.04118,0.03289,0.0*
%
%ADD23ROTATEDRECTD23*%

%ADD24C,0.17300*%
%ADD25C,0.04800*%
%ADD26R,0.18517X0.13005*%
D14*
X300000Y400000D02*
Y472400D01*
X467300D01*
Y400000D02*
Y472400D01*
X300000Y400000D02*
X467300D01*
D24*
X455000Y412500D02*
D03*
X312500Y460000D02*
D03*
D25*
X352500Y450000D02*
D03*
X354472Y415528D02*
D03*
X357500Y405000D02*
D03*
X410000Y467500D02*
D03*
X412500Y445000D02*
D03*
Y460000D02*
D03*
X342500Y442500D02*
D03*
X417500Y425000D02*
D03*
D26*
X395856Y459744D02*
D03*
Y443996D02*
D03*
Y428248D02*
D03*
X371250Y459744D02*
D03*
Y443996D02*
D03*
Y428248D02*
D03*
X395856Y412500D02*
D03*
X371250D02*
D03*
M02*
