%FSLAX25Y25*%
%MOIN*%
G70*
G01*
G75*
G04 Layer_Color=33789*
%ADD10P,0.08352X4X243.0*%
G04:AMPARAMS|DCode=11|XSize=80mil|YSize=50mil|CornerRadius=0mil|HoleSize=0mil|Usage=FLASHONLY|Rotation=288.000|XOffset=0mil|YOffset=0mil|HoleType=Round|Shape=Rectangle|*
%AMROTATEDRECTD11*
4,1,4,-0.03614,0.03032,0.01142,0.04577,0.03614,-0.03032,-0.01142,-0.04577,-0.03614,0.03032,0.0*
%
%ADD11ROTATEDRECTD11*%

%ADD12C,0.02500*%
%ADD13C,0.05000*%
%ADD14C,0.00100*%
%ADD15C,0.16500*%
%ADD16C,0.04000*%
%ADD17R,0.17716X0.12205*%
%ADD18C,0.01000*%
D12*
X421554Y409273D02*
X426453Y405633D01*
X421554Y409273D02*
X427249Y414329D01*
X421554Y409273D02*
X438789Y409737D01*
X330982Y461478D02*
X335882Y457838D01*
X330982Y461478D02*
X336677Y466534D01*
X330982Y461478D02*
X348217Y461942D01*
D14*
X300000Y400000D02*
Y472400D01*
X467300D01*
Y400000D02*
Y472400D01*
X300000Y400000D02*
X467300D01*
D18*
X300000D02*
Y472400D01*
X467300D01*
Y400000D02*
Y472400D01*
X300000Y400000D02*
X467300D01*
X368297Y467618D02*
Y469587D01*
X398809D01*
Y467618D02*
Y469587D01*
X368297Y402658D02*
Y404626D01*
Y402658D02*
X398809D01*
Y404626D01*
X419168Y467498D02*
X420834D01*
X420001D01*
Y463333D01*
X420834Y462500D01*
X421667D01*
X422500Y463333D01*
X417502Y462500D02*
X415836D01*
X416669D01*
Y467498D01*
X417502Y466665D01*
X453501Y462472D02*
X457514Y460501D01*
X453529Y458473D01*
X457570Y452503D02*
X457542Y456502D01*
X453572Y452475D01*
X452572Y452468D01*
X451565Y453461D01*
X451551Y455460D01*
X452544Y456467D01*
X452586Y450469D02*
X451593Y449462D01*
X451607Y447463D01*
X452614Y446470D01*
X456613Y446498D01*
X457605Y447505D01*
X457591Y449505D01*
X456585Y450497D01*
X452586Y450469D01*
X457626Y444506D02*
X457640Y442507D01*
X457633Y443507D01*
X451635Y443465D01*
X452628Y444471D01*
X317530Y425966D02*
X316523Y426959D01*
X316509Y428958D01*
X317502Y429965D01*
X321500Y429993D01*
X322507Y429000D01*
X322521Y427001D01*
X321528Y425994D01*
X316565Y420961D02*
X316551Y422960D01*
X317544Y423967D01*
X321543Y423995D01*
X322549Y423002D01*
X322563Y421003D01*
X321571Y419997D01*
X317572Y419968D01*
X316565Y420961D01*
X316586Y417962D02*
X322612Y414006D01*
X316614Y413963D02*
X322584Y418004D01*
X357458Y430998D02*
X357486Y426999D01*
X355501Y424986D01*
X353487Y426971D01*
X353459Y430970D01*
X351460Y430956D02*
X351502Y424958D01*
X348503Y424937D01*
X347497Y425929D01*
X347468Y429928D01*
X348461Y430935D01*
X351460Y430956D01*
X345462Y430914D02*
X345504Y424916D01*
X342505Y424895D01*
X341498Y425887D01*
X341470Y429886D01*
X342463Y430893D01*
X345462Y430914D01*
X353466Y444970D02*
X354459Y445977D01*
X356458Y445991D01*
X357465Y444998D01*
X357493Y441000D01*
X356500Y439993D01*
X354501Y439979D01*
X353494Y440972D01*
X353480Y442971D01*
X355480Y442985D01*
X351502Y439958D02*
X351460Y445956D01*
X347503Y439930D01*
X347461Y445928D01*
X345462Y445914D02*
X345504Y439916D01*
X342505Y439895D01*
X341498Y440887D01*
X341470Y444886D01*
X342463Y445893D01*
X345462Y445914D01*
X306502Y437458D02*
X312500Y437500D01*
X312521Y434501D01*
X311528Y433494D01*
X310529Y433487D01*
X309522Y434480D01*
X309501Y437479D01*
X309522Y434480D01*
X308529Y433473D01*
X307530Y433466D01*
X306523Y434459D01*
X306502Y437458D01*
X312542Y431502D02*
X306544Y431460D01*
X306565Y428461D01*
X307572Y427468D01*
X309571Y427482D01*
X310564Y428489D01*
X310543Y431488D01*
X310557Y429489D02*
X312570Y427503D01*
X306586Y425462D02*
X306600Y423463D01*
X306593Y424462D01*
X312591Y424505D01*
X312584Y425504D01*
X312598Y423505D01*
X312619Y420506D02*
X308621Y420478D01*
X306635Y418465D01*
X308649Y416479D01*
X312648Y416507D01*
X309648Y416486D01*
X309620Y420485D01*
X312662Y414508D02*
X306664Y414466D01*
X312690Y410509D01*
X306692Y410467D01*
X328530Y435973D02*
X328508Y438972D01*
X329501Y439979D01*
X331500Y439993D01*
X332507Y439000D01*
X332528Y436001D01*
X332612Y424006D02*
X332584Y428004D01*
X328614Y423978D01*
X327614Y423970D01*
X326607Y424963D01*
X326593Y426962D01*
X327586Y427969D01*
X327628Y421971D02*
X326636Y420964D01*
X326650Y418965D01*
X327656Y417973D01*
X331655Y418001D01*
X332647Y419007D01*
X332633Y421007D01*
X331627Y421999D01*
X327628Y421971D01*
X332668Y416008D02*
X332683Y414009D01*
X332676Y415009D01*
X326678Y414967D01*
X327670Y415973D01*
X326734Y406969D02*
X326706Y410968D01*
X329705Y410989D01*
X328719Y408983D01*
X328726Y407983D01*
X329733Y406990D01*
X331732Y407004D01*
X332725Y408011D01*
X332711Y410010D01*
X331704Y411003D01*
X441530Y460959D02*
X441502Y464958D01*
X444501Y464979D01*
X443515Y462973D01*
X443523Y461973D01*
X444529Y460980D01*
X446528Y460994D01*
X447521Y462001D01*
X447507Y464000D01*
X446500Y464993D01*
X442544Y458967D02*
X441551Y457960D01*
X441565Y455961D01*
X442572Y454968D01*
X446571Y454996D01*
X447563Y456003D01*
X447549Y458002D01*
X446543Y458995D01*
X442544Y458967D01*
X441614Y448963D02*
X441586Y452962D01*
X444585Y452983D01*
X443600Y450977D01*
X443607Y449977D01*
X444613Y448984D01*
X446613Y448998D01*
X447605Y450005D01*
X447591Y452004D01*
X446585Y452997D01*
X447626Y447006D02*
X447640Y445007D01*
X447633Y446007D01*
X441636Y445964D01*
X442628Y446971D01*
X447683Y439009D02*
X441685Y438967D01*
X444663Y441987D01*
X444691Y437988D01*
X441734Y431969D02*
X442719Y433976D01*
X444705Y435989D01*
X446704Y436003D01*
X447711Y435010D01*
X447725Y433011D01*
X446732Y432004D01*
X445732Y431997D01*
X444726Y432990D01*
X444705Y435989D01*
X411452Y412880D02*
X417450Y412922D01*
X417471Y409923D01*
X416479Y408917D01*
X412480Y408888D01*
X411473Y409881D01*
X411452Y412880D01*
X411494Y406882D02*
X411509Y404883D01*
X411502Y405883D01*
X417499Y405925D01*
X417492Y406924D01*
X417506Y404925D01*
X352024Y465689D02*
X358022Y465732D01*
X358043Y462733D01*
X357051Y461726D01*
X353052Y461698D01*
X352045Y462690D01*
X352024Y465689D01*
X352087Y456693D02*
X352073Y458692D01*
X353066Y459698D01*
X357065Y459727D01*
X358071Y458734D01*
X358085Y456735D01*
X357093Y455728D01*
X353094Y455700D01*
X352087Y456693D01*
X436220Y430762D02*
X436248Y426764D01*
X434263Y424750D01*
X432249Y426736D01*
X432221Y430734D01*
X430222Y430720D02*
X430264Y424722D01*
X427265Y424701D01*
X426258Y425694D01*
X426230Y429693D01*
X427223Y430699D01*
X430222Y430720D01*
X424224Y430678D02*
X424266Y424680D01*
X421267Y424659D01*
X420260Y425652D01*
X420232Y429650D01*
X421225Y430657D01*
X424224Y430678D01*
X431332Y446078D02*
X432324Y447085D01*
X434324Y447099D01*
X435330Y446106D01*
X435358Y442108D01*
X434366Y441101D01*
X432367Y441087D01*
X431360Y442080D01*
X431346Y444079D01*
X433345Y444093D01*
X429368Y441066D02*
X429325Y447064D01*
X425369Y441038D01*
X425327Y447036D01*
X423327Y447022D02*
X423370Y441024D01*
X420371Y441003D01*
X419364Y441995D01*
X419336Y445994D01*
X420329Y447001D01*
X423327Y447022D01*
M02*
