%FSLAX25Y25*%
%MOIN*%
G70*
G01*
G75*
G04 Layer_Physical_Order=1*
G04 Layer_Color=255*
%ADD10P,0.08352X4X333.0*%
%ADD11P,0.08352X4X261.0*%
%ADD12P,0.08352X4X189.0*%
%ADD13P,0.08352X4X117.0*%
%ADD14R,0.05906X0.05906*%
%ADD15C,0.02500*%
%ADD16C,0.10000*%
%ADD17C,0.05000*%
%ADD18C,0.12500*%
%ADD19R,0.12500X0.12500*%
%ADD20R,0.12500X0.12500*%
%ADD21C,0.16500*%
%ADD22C,0.04000*%
G36*
X579548Y391323D02*
X567984Y379760D01*
X566598Y380334D01*
Y380563D01*
D01*
Y380563D01*
X566598Y380563D01*
Y381437D01*
X566598D01*
Y392709D01*
X578974D01*
X579548Y391323D01*
D02*
G37*
G36*
X762466Y794718D02*
X762310Y794343D01*
X753693D01*
Y781437D01*
X753693Y781437D01*
X753693Y780563D01*
X753693D01*
Y774433D01*
X748693Y769433D01*
X747307Y770007D01*
Y780563D01*
X738713D01*
X735888Y783388D01*
D01*
X735888Y783388D01*
D01*
D01*
D01*
X735888Y783388D01*
X735888Y783388D01*
X734896Y784149D01*
X734557Y784289D01*
X733740Y784628D01*
X732500Y784791D01*
X722500D01*
X721260Y784628D01*
X720105Y784149D01*
X719112Y783388D01*
X714821Y779097D01*
X713785Y779434D01*
X709797Y767160D01*
X722071Y763172D01*
D01*
X722902Y762902D01*
Y762902D01*
X722902Y762902D01*
X730191Y760533D01*
X734112Y756612D01*
X735105Y755851D01*
X736260Y755372D01*
X737500Y755209D01*
X744051D01*
X745226Y754034D01*
X733227Y742034D01*
X733130D01*
X730348Y744056D01*
X733203Y752840D01*
X720929Y756828D01*
X718944Y750720D01*
X711612Y743388D01*
X710851Y742395D01*
X710711Y742057D01*
X710372Y741240D01*
X710209Y740000D01*
Y731742D01*
X710372Y730502D01*
X710711Y729685D01*
X710851Y729347D01*
X711612Y728355D01*
X713176Y726791D01*
X711634Y724668D01*
X722074Y717082D01*
X729660Y727523D01*
D01*
D01*
X729660Y727523D01*
D01*
D01*
X729660D01*
X730174Y728230D01*
X730174Y728230D01*
X733241Y732452D01*
X735212D01*
X736452Y732616D01*
X737269Y732954D01*
X737607Y733094D01*
X738599Y733856D01*
Y733856D01*
X738599D01*
D01*
D01*
D01*
D01*
D01*
D01*
X738599D01*
D01*
X738599D01*
Y733856D01*
D01*
D01*
D01*
D01*
Y733856D01*
D01*
D01*
D01*
D01*
D01*
D01*
Y733856D01*
D01*
D01*
X738599D01*
D01*
D01*
D01*
X750470Y745726D01*
X751856Y745152D01*
Y730763D01*
X750250Y729596D01*
X742926Y734918D01*
X735340Y724477D01*
X742709Y719123D01*
Y715000D01*
X742872Y713760D01*
X743211Y712943D01*
X743351Y712605D01*
X744112Y711612D01*
X746612Y709112D01*
X747605Y708351D01*
X748760Y707872D01*
X750000Y707709D01*
X761390D01*
X762819Y705743D01*
X773259Y713329D01*
X765674Y723770D01*
X765674Y723770D01*
X765674Y723770D01*
X765160Y724477D01*
X765160D01*
D01*
D01*
X765160Y724477D01*
D01*
D01*
X765160D01*
X761438Y729600D01*
Y738037D01*
X762864Y738501D01*
X770326Y728230D01*
X776138Y732452D01*
X779743D01*
X780983Y732616D01*
X781801Y732954D01*
X782139Y733094D01*
X783131Y733856D01*
X792421Y743146D01*
X793182Y744138D01*
X793661Y745293D01*
X793824Y746533D01*
D01*
D01*
D01*
D01*
D01*
D01*
X793824D01*
D01*
D01*
D01*
Y746533D01*
X793824Y746533D01*
D01*
D01*
D01*
D01*
D01*
D01*
D01*
D01*
D01*
D01*
D01*
Y746639D01*
X793824Y746888D01*
X795161Y747569D01*
X795965Y746985D01*
Y557296D01*
X794484Y557061D01*
X793176Y561086D01*
X780902Y557098D01*
X780902Y557098D01*
X780071Y556828D01*
D01*
X769792Y553488D01*
X759323D01*
X757363Y555448D01*
X757360Y555470D01*
X756806Y556807D01*
X755924Y557956D01*
X754775Y558838D01*
X753438Y559392D01*
X753416Y559395D01*
X752811Y560000D01*
X760468Y567658D01*
X762983D01*
X765824Y558914D01*
X778098Y562902D01*
X774791Y573079D01*
Y592209D01*
X774804Y592226D01*
X775358Y593564D01*
X775548Y595000D01*
X775358Y596436D01*
X774804Y597774D01*
X773923Y598923D01*
X772774Y599804D01*
X771436Y600358D01*
X770000Y600548D01*
X768564Y600358D01*
X767226Y599804D01*
X766077Y598923D01*
X765294Y597902D01*
X763794Y597902D01*
X763533Y598242D01*
X758388Y603388D01*
D01*
X758388Y603388D01*
D01*
D01*
D01*
X758388Y603388D01*
X758936Y604642D01*
X758936Y604642D01*
Y604642D01*
Y604642D01*
X758936D01*
D01*
X760274Y605196D01*
X761423Y606077D01*
X762304Y607226D01*
X762858Y608564D01*
X763048Y610000D01*
X762858Y611436D01*
X762304Y612774D01*
X761423Y613923D01*
X760274Y614804D01*
X758936Y615358D01*
X757500Y615548D01*
X756064Y615358D01*
X754726Y614804D01*
X754709Y614791D01*
X666985D01*
X657014Y624762D01*
X656021Y625523D01*
X654866Y626002D01*
X653626Y626165D01*
X601374D01*
X600134Y626002D01*
X598979Y625523D01*
X597986Y624762D01*
X585515Y612291D01*
X525000D01*
X523760Y612128D01*
X523083Y611847D01*
X522605Y611649D01*
X521612Y610888D01*
X506560Y595835D01*
X505355Y596729D01*
X505891Y597731D01*
X506377Y599334D01*
X506541Y601000D01*
X506377Y602666D01*
X505891Y604269D01*
X505102Y605745D01*
X504039Y607039D01*
X498293Y612786D01*
Y642252D01*
X498129Y643918D01*
X497643Y645520D01*
X496854Y646997D01*
X495791Y648291D01*
X494497Y649354D01*
X493020Y650143D01*
X491418Y650629D01*
X489752Y650793D01*
X488086Y650629D01*
X486483Y650143D01*
X485007Y649354D01*
X483712Y648291D01*
X482650Y646997D01*
X481861Y645520D01*
X481375Y643918D01*
X481211Y642252D01*
Y609248D01*
X481211Y609248D01*
X481211D01*
X481375Y607582D01*
X481861Y605979D01*
X482650Y604503D01*
X483712Y603208D01*
X490744Y596177D01*
X490170Y594791D01*
X375000D01*
X373760Y594628D01*
X372604Y594149D01*
X371612Y593388D01*
X370905Y592681D01*
X366598D01*
Y594343D01*
X353693D01*
Y581437D01*
X353693Y581437D01*
X353693Y580563D01*
X353693D01*
Y574433D01*
X348693Y569433D01*
X347307Y570007D01*
Y580563D01*
X338713D01*
X335888Y583388D01*
X334895Y584149D01*
X334557Y584289D01*
X333740Y584628D01*
X332500Y584791D01*
X322500D01*
X321260Y584628D01*
X320105Y584149D01*
X319112Y583388D01*
X314821Y579097D01*
X313785Y579434D01*
X309797Y567160D01*
X322071Y563172D01*
D01*
X322902Y562902D01*
X322902Y562902D01*
X330191Y560533D01*
X334112Y556612D01*
X335104Y555851D01*
X336260Y555372D01*
X337500Y555209D01*
X344051D01*
X345226Y554034D01*
X333227Y542034D01*
X333130D01*
X330348Y544056D01*
X333203Y552840D01*
X320929Y556828D01*
X318944Y550720D01*
X311612Y543388D01*
X310851Y542395D01*
X310711Y542057D01*
X310372Y541240D01*
X310209Y540000D01*
Y531742D01*
X310209Y531742D01*
X310209D01*
X310372Y530502D01*
X310711Y529685D01*
X310851Y529347D01*
X311612Y528355D01*
X311612Y528355D01*
X311612D01*
Y528355D01*
X311612Y528355D01*
X313176Y526791D01*
X311634Y524668D01*
X322074Y517082D01*
X329660Y527523D01*
D01*
D01*
X329660Y527523D01*
D01*
D01*
X329660D01*
X330174Y528230D01*
X330174Y528230D01*
X333241Y532452D01*
X335212D01*
X336452Y532616D01*
X337269Y532954D01*
X337607Y533094D01*
X338599Y533856D01*
X350470Y545726D01*
X351856Y545152D01*
Y530400D01*
X350500Y529415D01*
X342926Y534918D01*
X335340Y524477D01*
X342709Y519123D01*
Y515000D01*
X342872Y513760D01*
X343211Y512943D01*
X343351Y512605D01*
X344112Y511612D01*
X346612Y509112D01*
X347604Y508351D01*
X348760Y507872D01*
X350000Y507709D01*
X361891D01*
X363319Y505743D01*
X373759Y513329D01*
X366174Y523770D01*
X366174Y523770D01*
X366174Y523770D01*
X365660Y524477D01*
X365660D01*
D01*
D01*
X365660Y524477D01*
D01*
D01*
X365660D01*
X361438Y530288D01*
Y543906D01*
X368019D01*
X368483Y542480D01*
X363241Y538671D01*
X370826Y528230D01*
X376638Y532452D01*
X379744D01*
X380983Y532616D01*
X381801Y532954D01*
X382139Y533094D01*
X383131Y533856D01*
Y533856D01*
X383131D01*
D01*
D01*
D01*
D01*
D01*
D01*
X383131D01*
D01*
X383131D01*
Y533856D01*
D01*
D01*
D01*
D01*
Y533856D01*
D01*
D01*
D01*
D01*
D01*
D01*
Y533856D01*
D01*
D01*
X383131D01*
D01*
D01*
D01*
X392421Y543146D01*
X393182Y544138D01*
X393661Y545293D01*
X393824Y546533D01*
Y547727D01*
X397164Y548813D01*
X393176Y561086D01*
X380902Y557098D01*
X380902Y557098D01*
X380071Y556828D01*
D01*
X369792Y553488D01*
X359323D01*
X357363Y555448D01*
X357360Y555470D01*
X356806Y556807D01*
X355924Y557956D01*
X354776Y558838D01*
X353437Y559392D01*
X353416Y559395D01*
X352811Y560000D01*
X360468Y567658D01*
X362983D01*
X365824Y558914D01*
X378098Y562902D01*
X374806Y573031D01*
X379485Y577709D01*
X494709D01*
X494726Y577696D01*
X496064Y577142D01*
X497500Y576953D01*
X498936Y577142D01*
X500274Y577696D01*
X501423Y578577D01*
X502304Y579726D01*
X502858Y581064D01*
X503048Y582500D01*
X502858Y583936D01*
X502848Y583962D01*
X503681Y585209D01*
X507500D01*
X508740Y585372D01*
X509557Y585711D01*
X509896Y585851D01*
X510888Y586612D01*
X526985Y602709D01*
X587500D01*
X588740Y602872D01*
X589557Y603211D01*
X589895Y603351D01*
X590888Y604112D01*
Y604112D01*
X590888D01*
D01*
D01*
D01*
D01*
D01*
D01*
X590888D01*
D01*
X590888D01*
D01*
D01*
X590888D01*
Y604112D01*
D01*
D01*
D01*
X591733Y604957D01*
X593088Y604316D01*
X592959Y603000D01*
X593123Y601334D01*
X593609Y599731D01*
X594398Y598255D01*
X595461Y596960D01*
X596755Y595898D01*
X598232Y595109D01*
X599834Y594623D01*
X601500Y594459D01*
X603166Y594623D01*
X604769Y595109D01*
X606245Y595898D01*
X607540Y596960D01*
X613286Y602707D01*
X642752D01*
X644418Y602871D01*
X646021Y603357D01*
X647497Y604146D01*
X648792Y605208D01*
X649854Y606503D01*
X650643Y607979D01*
X651129Y609582D01*
X651293Y611248D01*
X651129Y612914D01*
X650643Y614517D01*
X649854Y615993D01*
X650133Y616583D01*
X651641D01*
X661612Y606612D01*
D01*
X661612Y606612D01*
X661612Y606612D01*
D01*
D01*
D01*
X661612Y606612D01*
Y606612D01*
X662605Y605851D01*
X662943Y605711D01*
X663760Y605372D01*
X665000Y605209D01*
X712152D01*
X712635Y603789D01*
X712112Y603388D01*
X696016Y587291D01*
X578000D01*
X576760Y587128D01*
X575604Y586649D01*
X574612Y585888D01*
X567984Y579260D01*
X566598Y579834D01*
Y579876D01*
X566598Y579876D01*
D01*
D01*
D01*
D01*
D01*
D01*
D01*
X566598Y580063D01*
Y580243D01*
Y580500D01*
Y580627D01*
Y580937D01*
X566598Y581072D01*
X566598Y581124D01*
X566598Y581124D01*
D01*
D01*
D01*
X566598Y581124D01*
D01*
Y584323D01*
X568914Y586639D01*
X568936Y586642D01*
X570274Y587196D01*
X571423Y588077D01*
X572304Y589226D01*
X572858Y590564D01*
X573047Y592000D01*
X572858Y593436D01*
X572304Y594774D01*
X571423Y595923D01*
X570274Y596804D01*
X568936Y597358D01*
X567500Y597547D01*
X566064Y597358D01*
X564726Y596804D01*
X563577Y595923D01*
X562696Y594774D01*
X562310Y593843D01*
X553693D01*
Y581124D01*
X553693Y581124D01*
X553693Y581124D01*
X553693Y580937D01*
Y580063D01*
D01*
D01*
X553693D01*
Y573933D01*
X548693Y568933D01*
X547307Y569507D01*
Y580063D01*
X538713D01*
X535888Y582888D01*
D01*
X535888Y582888D01*
D01*
D01*
D01*
X535888Y582888D01*
X535888Y582888D01*
X534896Y583649D01*
X534557Y583789D01*
X533740Y584128D01*
X532500Y584291D01*
X522500D01*
X521260Y584128D01*
X520105Y583649D01*
X519112Y582888D01*
X515199Y578974D01*
X513785Y579434D01*
X509797Y567160D01*
X522071Y563172D01*
D01*
X522902Y562902D01*
X522902Y562902D01*
X529451Y560774D01*
X534112Y556112D01*
X535105Y555351D01*
X536260Y554872D01*
X537500Y554709D01*
X544051D01*
X545226Y553534D01*
X533227Y541535D01*
X533130D01*
X530217Y543651D01*
X533203Y552840D01*
X520929Y556828D01*
X518704Y549979D01*
X511612Y542888D01*
X510851Y541895D01*
X510711Y541557D01*
X510372Y540740D01*
X510209Y539500D01*
Y531242D01*
X510372Y530002D01*
X510711Y529185D01*
X510851Y528847D01*
X511612Y527855D01*
X513176Y526291D01*
X511634Y524168D01*
X522074Y516582D01*
X529660Y527023D01*
D01*
D01*
X529660Y527023D01*
D01*
D01*
X529660D01*
X530174Y527730D01*
X530174Y527730D01*
X533241Y531952D01*
X535212D01*
X536452Y532116D01*
X537269Y532454D01*
X537607Y532594D01*
X538599Y533356D01*
Y533356D01*
X538599D01*
D01*
D01*
D01*
D01*
D01*
D01*
X538599D01*
D01*
X538599D01*
Y533356D01*
D01*
D01*
D01*
D01*
Y533356D01*
D01*
D01*
D01*
D01*
D01*
D01*
Y533356D01*
D01*
D01*
X538599D01*
D01*
D01*
D01*
X550470Y545226D01*
X551856Y544652D01*
Y529900D01*
X550500Y528914D01*
X542926Y534418D01*
X535340Y523977D01*
X542709Y518623D01*
Y514500D01*
X542709Y514500D01*
X542709D01*
X542872Y513260D01*
X543211Y512443D01*
X543351Y512105D01*
X544112Y511112D01*
X544112Y511112D01*
X544112Y511112D01*
X546612Y508612D01*
X547605Y507851D01*
X548760Y507372D01*
X550000Y507209D01*
X561890D01*
X563319Y505243D01*
X573759Y512829D01*
X566174Y523270D01*
X566174Y523270D01*
X566174Y523270D01*
X565660Y523977D01*
X565660D01*
D01*
D01*
X565660Y523977D01*
D01*
D01*
X565660D01*
X561438Y529788D01*
Y543406D01*
X568019D01*
X568483Y541980D01*
X563241Y538171D01*
X570826Y527730D01*
X576638Y531952D01*
X579743D01*
X580983Y532116D01*
X581801Y532454D01*
X582139Y532594D01*
X583131Y533356D01*
Y533356D01*
X583131D01*
D01*
D01*
D01*
D01*
D01*
D01*
X583131D01*
D01*
X583131D01*
Y533356D01*
D01*
D01*
D01*
D01*
Y533356D01*
D01*
D01*
D01*
D01*
D01*
D01*
Y533356D01*
D01*
D01*
X583131D01*
D01*
D01*
D01*
X592421Y542646D01*
X593182Y543638D01*
X593661Y544793D01*
X593824Y546033D01*
D01*
D01*
D01*
D01*
D01*
X593824D01*
D01*
D01*
D01*
D01*
Y546033D01*
X593824D01*
D01*
Y546033D01*
D01*
D01*
D01*
D01*
D01*
D01*
D01*
D01*
D01*
D01*
D01*
D01*
Y546033D01*
D01*
X593824D01*
D01*
D01*
D01*
D01*
X593824Y546033D01*
Y547565D01*
X597664Y548813D01*
X593676Y561086D01*
X581402Y557098D01*
X581402Y557098D01*
X580571Y556828D01*
D01*
X568753Y552988D01*
X559323D01*
X557363Y554948D01*
X557360Y554970D01*
X556806Y556307D01*
X555924Y557456D01*
X554775Y558338D01*
X553438Y558892D01*
X553416Y558895D01*
X552811Y559500D01*
X560468Y567158D01*
X563645D01*
X566324Y558914D01*
X578598Y562902D01*
X575307Y573031D01*
X579985Y577709D01*
X698000D01*
X699240Y577872D01*
X700057Y578211D01*
X700395Y578351D01*
X701388Y579112D01*
Y579112D01*
X701388D01*
D01*
D01*
D01*
D01*
D01*
D01*
X701388D01*
D01*
X701388D01*
Y579112D01*
D01*
D01*
D01*
D01*
Y579112D01*
D01*
D01*
D01*
D01*
D01*
D01*
Y579112D01*
D01*
D01*
X701388D01*
D01*
D01*
D01*
D01*
D01*
X717485Y595209D01*
X753016D01*
X753748Y594476D01*
X753693Y594343D01*
X753693D01*
X753693Y594343D01*
Y581437D01*
X753693Y581437D01*
X753693Y580563D01*
X753693D01*
Y574433D01*
X748693Y569433D01*
X747307Y570007D01*
Y580563D01*
X738713D01*
X735888Y583388D01*
D01*
X735888Y583388D01*
D01*
D01*
D01*
X735888Y583388D01*
X735888Y583388D01*
X734896Y584149D01*
X734557Y584289D01*
X733740Y584628D01*
X732500Y584791D01*
X722500D01*
X721260Y584628D01*
X720105Y584149D01*
X719112Y583388D01*
X714821Y579097D01*
X713785Y579434D01*
X709797Y567160D01*
X722071Y563172D01*
D01*
X722902Y562902D01*
Y562902D01*
X722902Y562902D01*
X730191Y560533D01*
X734112Y556612D01*
X734112Y556612D01*
X734112D01*
X734112D01*
Y556612D01*
D01*
X734112D01*
D01*
D01*
D01*
X734112Y556612D01*
Y556612D01*
X735105Y555851D01*
X736260Y555372D01*
X737500Y555209D01*
X744051D01*
X745226Y554034D01*
X733227Y542034D01*
X732442D01*
X730217Y543651D01*
X733203Y552840D01*
X720929Y556828D01*
X718944Y550720D01*
X711612Y543388D01*
X710851Y542395D01*
X710711Y542057D01*
X710372Y541240D01*
X710209Y540000D01*
X710209Y540000D01*
X710209D01*
X710209Y540000D01*
X710209D01*
Y531742D01*
X710209Y531742D01*
X710209D01*
X710372Y530502D01*
X710711Y529685D01*
X710851Y529347D01*
X711612Y528355D01*
X711612Y528355D01*
X711612Y528355D01*
X713386Y526581D01*
X711634Y524168D01*
X722074Y516582D01*
X729660Y527023D01*
D01*
D01*
X729660Y527023D01*
D01*
D01*
X729660D01*
X730174Y527730D01*
X730174Y527730D01*
X733605Y532452D01*
X735212D01*
X736452Y532616D01*
X737269Y532954D01*
X737607Y533094D01*
X738599Y533856D01*
Y533856D01*
X738599D01*
D01*
D01*
D01*
D01*
D01*
D01*
X738599D01*
D01*
X738599D01*
Y533856D01*
D01*
D01*
D01*
D01*
Y533856D01*
D01*
D01*
D01*
D01*
D01*
D01*
Y533856D01*
D01*
D01*
X738599D01*
D01*
D01*
D01*
D01*
D01*
X750470Y545726D01*
X751856Y545152D01*
Y530400D01*
X750156Y529165D01*
X742926Y534418D01*
X735340Y523977D01*
X742709Y518623D01*
Y515000D01*
X742872Y513760D01*
X743211Y512943D01*
X743351Y512605D01*
X744112Y511612D01*
X746612Y509112D01*
X747605Y508351D01*
X748760Y507872D01*
X750000Y507709D01*
X761890D01*
X763319Y505743D01*
X773759Y513329D01*
X766174Y523770D01*
X766174Y523770D01*
X766174Y523770D01*
X765660Y524477D01*
X765660D01*
D01*
D01*
X765660Y524477D01*
D01*
D01*
X765660D01*
X761438Y530288D01*
Y543906D01*
X768019D01*
X768483Y542480D01*
X763241Y538671D01*
X770826Y528230D01*
X776638Y532452D01*
X779743D01*
X780983Y532616D01*
X781801Y532954D01*
X782139Y533094D01*
X783131Y533856D01*
X792421Y543146D01*
X793182Y544138D01*
X793661Y545293D01*
X793824Y546533D01*
D01*
D01*
D01*
D01*
D01*
D01*
X793824D01*
D01*
D01*
D01*
Y546533D01*
X793824Y546533D01*
D01*
D01*
D01*
D01*
D01*
D01*
D01*
D01*
D01*
D01*
D01*
Y546649D01*
X793824Y547051D01*
X795161Y547732D01*
X795965Y547147D01*
Y357296D01*
X794484Y357061D01*
X793176Y361086D01*
X780902Y357098D01*
X780902Y357098D01*
X780071Y356828D01*
D01*
X769792Y353488D01*
X759323D01*
X757363Y355448D01*
X757360Y355469D01*
X756806Y356807D01*
X755924Y357956D01*
X754775Y358838D01*
X753438Y359392D01*
X753416Y359395D01*
X752811Y360000D01*
X760468Y367657D01*
X762983D01*
X765824Y358914D01*
X778098Y362902D01*
X774758Y373181D01*
Y373482D01*
X775888Y374612D01*
X776649Y375605D01*
X776789Y375943D01*
X777128Y376760D01*
X777291Y378000D01*
Y389709D01*
X777304Y389726D01*
X777858Y391064D01*
X778048Y392500D01*
X777858Y393936D01*
X777304Y395274D01*
X776423Y396423D01*
X775274Y397304D01*
X773936Y397858D01*
X772500Y398047D01*
X771064Y397858D01*
X769726Y397304D01*
X768577Y396423D01*
X767696Y395274D01*
X767310Y394342D01*
X766598D01*
X766598D01*
X766058Y394342D01*
Y394342D01*
D01*
X766058D01*
Y394342D01*
D01*
X760468D01*
X753488Y401323D01*
X754062Y402709D01*
X760000D01*
X761240Y402872D01*
X762057Y403211D01*
X762395Y403351D01*
X763388Y404112D01*
Y404112D01*
X763388D01*
D01*
D01*
D01*
D01*
D01*
D01*
X763388D01*
D01*
X763388D01*
Y404112D01*
D01*
D01*
D01*
D01*
Y404112D01*
D01*
D01*
D01*
D01*
D01*
D01*
Y404112D01*
D01*
D01*
X763388D01*
D01*
D01*
D01*
D01*
D01*
X769435Y410159D01*
Y410159D01*
D01*
D01*
D01*
X769435Y410159D01*
D01*
Y410159D01*
D01*
X769435D01*
Y410159D01*
D01*
Y410159D01*
Y410159D01*
X769435D01*
D01*
D01*
Y410159D01*
D01*
D01*
D01*
D01*
D01*
D01*
Y410159D01*
D01*
D01*
X769435D01*
D01*
X769435Y410159D01*
D01*
D01*
X770196Y411152D01*
X770675Y412307D01*
X770838Y413547D01*
Y428953D01*
X770675Y430193D01*
X770336Y431010D01*
X770196Y431349D01*
X769435Y432341D01*
X767353Y434423D01*
X768186Y435670D01*
X770386Y434759D01*
X772911Y434153D01*
X775500Y433949D01*
X778089Y434153D01*
X780615Y434759D01*
X783014Y435753D01*
X785228Y437110D01*
X787203Y438797D01*
X788890Y440772D01*
X790247Y442986D01*
X791241Y445386D01*
X791847Y447911D01*
X792051Y450500D01*
X791847Y453089D01*
X791241Y455615D01*
X790247Y458014D01*
X788890Y460228D01*
X787203Y462203D01*
X785228Y463890D01*
X783014Y465247D01*
X780615Y466241D01*
X778089Y466847D01*
X775500Y467051D01*
X772911Y466847D01*
X770386Y466241D01*
X767986Y465247D01*
X765772Y463890D01*
X763839Y462240D01*
X762381Y462590D01*
X762304Y462774D01*
X761423Y463923D01*
X760274Y464804D01*
X758936Y465358D01*
X757500Y465548D01*
X756064Y465358D01*
X754726Y464804D01*
X753577Y463923D01*
X752696Y462774D01*
X752142Y461436D01*
X751953Y460000D01*
X752142Y458564D01*
X752696Y457226D01*
X752709Y457209D01*
Y437500D01*
X752709Y437500D01*
X752709D01*
X752872Y436260D01*
X753211Y435443D01*
X753351Y435105D01*
X754112Y434112D01*
X754112Y434112D01*
X754112Y434112D01*
X761256Y426968D01*
Y415531D01*
X758015Y412291D01*
X753526D01*
X752952Y413677D01*
X753914Y414639D01*
X753936Y414642D01*
X755274Y415196D01*
X756423Y416077D01*
X757304Y417226D01*
X757858Y418564D01*
X758047Y420000D01*
X757858Y421436D01*
X757304Y422774D01*
X756423Y423923D01*
X755274Y424804D01*
X753936Y425358D01*
X752500Y425548D01*
X751064Y425358D01*
X749726Y424804D01*
X748577Y423923D01*
X747696Y422774D01*
X747142Y421436D01*
X747139Y421414D01*
X743015Y417291D01*
X611984D01*
X592291Y436984D01*
Y472209D01*
X592304Y472226D01*
X592858Y473564D01*
X593048Y475000D01*
X592858Y476436D01*
X592304Y477774D01*
X591423Y478923D01*
X590274Y479804D01*
X588936Y480358D01*
X587500Y480548D01*
X586064Y480358D01*
X584726Y479804D01*
X583577Y478923D01*
X582696Y477774D01*
X582142Y476436D01*
X581952Y475000D01*
X582142Y473564D01*
X582696Y472226D01*
X582709Y472209D01*
Y435000D01*
X582709Y435000D01*
X582709D01*
X582872Y433760D01*
X583211Y432943D01*
X583351Y432605D01*
X584112Y431612D01*
X584112Y431612D01*
X584112Y431612D01*
X606612Y409112D01*
D01*
X606612Y409112D01*
X606612Y409112D01*
D01*
D01*
D01*
X606612Y409112D01*
Y409112D01*
X607605Y408351D01*
X608760Y407872D01*
Y407872D01*
X608760Y407872D01*
D01*
D01*
D01*
X608760D01*
Y407872D01*
X608760Y407872D01*
X608760Y407872D01*
X610000Y407709D01*
X621474D01*
X622048Y406323D01*
X618015Y402291D01*
X561984D01*
X553388Y410888D01*
D01*
X553388Y410888D01*
D01*
D01*
D01*
X553388Y410888D01*
X553388Y410888D01*
X552395Y411649D01*
X552057Y411789D01*
X551240Y412128D01*
X550000Y412291D01*
X432500D01*
X431260Y412128D01*
X430104Y411649D01*
X429112Y410888D01*
X410905Y392681D01*
X366598D01*
Y394342D01*
X353693D01*
Y381437D01*
X353693Y381437D01*
X353693Y380563D01*
X353693D01*
Y374433D01*
X348693Y369433D01*
X347307Y370007D01*
Y380563D01*
X338713D01*
X335888Y383388D01*
X334895Y384149D01*
X334557Y384289D01*
X333740Y384628D01*
X332500Y384791D01*
X322500D01*
X321260Y384628D01*
X320105Y384149D01*
X319112Y383388D01*
X314821Y379097D01*
X313785Y379434D01*
X309797Y367160D01*
X322071Y363172D01*
D01*
X322902Y362902D01*
X322902Y362902D01*
X330191Y360533D01*
X334112Y356612D01*
X334112Y356612D01*
X334112D01*
X334112D01*
Y356612D01*
D01*
X334112D01*
D01*
D01*
D01*
X334112Y356612D01*
Y356612D01*
X335104Y355851D01*
X336260Y355372D01*
X337500Y355209D01*
X344051D01*
X345226Y354034D01*
X333227Y342035D01*
X333130D01*
X330348Y344056D01*
X333203Y352840D01*
X320929Y356828D01*
X318944Y350720D01*
X311612Y343388D01*
X310851Y342395D01*
X310711Y342057D01*
X310372Y341240D01*
X310209Y340000D01*
Y331742D01*
X310209Y331742D01*
X310209D01*
X310372Y330502D01*
X310711Y329685D01*
X310851Y329347D01*
X311612Y328355D01*
X311612Y328355D01*
X311612Y328355D01*
X313176Y326791D01*
X311634Y324668D01*
X322074Y317082D01*
X329660Y327523D01*
D01*
D01*
X329660Y327523D01*
D01*
D01*
X329660D01*
X330174Y328230D01*
X330174Y328230D01*
X333241Y332453D01*
X335212D01*
X336452Y332616D01*
X337269Y332954D01*
X337607Y333094D01*
X338599Y333856D01*
Y333856D01*
X338599D01*
D01*
D01*
D01*
D01*
D01*
D01*
X338599D01*
D01*
X338599D01*
Y333856D01*
D01*
D01*
D01*
D01*
Y333856D01*
D01*
D01*
D01*
D01*
D01*
D01*
Y333856D01*
D01*
D01*
X338599D01*
D01*
D01*
D01*
X350470Y345726D01*
X351856Y345152D01*
Y330399D01*
X350500Y329415D01*
X342926Y334918D01*
X335340Y324477D01*
X342709Y319123D01*
Y315000D01*
X342709Y315000D01*
X342709D01*
X342872Y313760D01*
X343211Y312943D01*
X343351Y312604D01*
X344112Y311612D01*
X344112Y311612D01*
X344112Y311612D01*
X346612Y309112D01*
X347604Y308351D01*
X348760Y307872D01*
X350000Y307709D01*
X361891D01*
X363319Y305743D01*
X373759Y313329D01*
X366174Y323770D01*
X366174Y323770D01*
X366174Y323770D01*
X365660Y324477D01*
X365660D01*
D01*
D01*
X365660Y324477D01*
D01*
D01*
D01*
X365660D01*
X361438Y330288D01*
Y343906D01*
X368019D01*
X368483Y342480D01*
X363241Y338671D01*
X370826Y328230D01*
X376638Y332453D01*
X379744D01*
X380983Y332616D01*
X381801Y332954D01*
X382139Y333094D01*
X383131Y333856D01*
X392421Y343145D01*
X393182Y344138D01*
X393661Y345293D01*
X393824Y346533D01*
D01*
D01*
D01*
D01*
D01*
D01*
X393824D01*
D01*
D01*
D01*
Y346533D01*
X393824Y346533D01*
D01*
D01*
D01*
D01*
D01*
D01*
D01*
D01*
D01*
D01*
D01*
Y346649D01*
X393824Y347727D01*
X397164Y348813D01*
X393176Y361086D01*
X380902Y357098D01*
X380902Y357098D01*
X380071Y356828D01*
D01*
X369792Y353488D01*
X359323D01*
X357363Y355448D01*
X357360Y355469D01*
X356806Y356807D01*
X355924Y357956D01*
X354776Y358838D01*
X353437Y359392D01*
X353416Y359395D01*
X352811Y360000D01*
X360468Y367657D01*
X362983D01*
X365824Y358914D01*
X378098Y362902D01*
X374806Y373031D01*
X379485Y377709D01*
X415000D01*
X416240Y377872D01*
X417057Y378211D01*
X417395Y378351D01*
X418388Y379112D01*
X436984Y397709D01*
X543551D01*
X553693Y387567D01*
Y381437D01*
X553693Y381437D01*
X553693Y380563D01*
X553693D01*
Y374433D01*
X548693Y369433D01*
X547307Y370007D01*
Y380563D01*
X538713D01*
X535888Y383388D01*
D01*
X535888Y383388D01*
D01*
D01*
D01*
X535888Y383388D01*
X535888Y383388D01*
X534896Y384149D01*
X534557Y384289D01*
X533740Y384628D01*
X532500Y384791D01*
X522500D01*
X521260Y384628D01*
X520105Y384149D01*
X519112Y383388D01*
X514821Y379097D01*
X513785Y379434D01*
X509797Y367160D01*
X522071Y363172D01*
D01*
X522902Y362902D01*
X522902Y362902D01*
X530191Y360533D01*
X534112Y356612D01*
D01*
X534112Y356612D01*
X534112Y356612D01*
D01*
D01*
D01*
X534112Y356612D01*
Y356612D01*
X535105Y355851D01*
X536260Y355372D01*
X537500Y355209D01*
X544051D01*
X545226Y354034D01*
X533227Y342035D01*
X533130D01*
X530348Y344056D01*
X533203Y352840D01*
X520929Y356828D01*
X518944Y350720D01*
X511612Y343388D01*
X510851Y342395D01*
X510711Y342057D01*
X510372Y341240D01*
X510209Y340000D01*
Y331742D01*
X510372Y330502D01*
X510711Y329685D01*
X510851Y329347D01*
X511612Y328355D01*
X513176Y326791D01*
X511634Y324668D01*
X522074Y317082D01*
X529660Y327523D01*
D01*
D01*
X529660Y327523D01*
D01*
D01*
X529660D01*
X530174Y328230D01*
X530174Y328230D01*
X533241Y332453D01*
X535212D01*
X536452Y332616D01*
X537269Y332954D01*
X537607Y333094D01*
X538599Y333856D01*
X550470Y345726D01*
X551856Y345152D01*
Y330399D01*
X550500Y329415D01*
X542926Y334918D01*
X535340Y324477D01*
X542709Y319123D01*
Y315000D01*
X542709Y315000D01*
X542709D01*
X542872Y313760D01*
X543211Y312943D01*
X543351Y312604D01*
X544112Y311612D01*
X544112Y311612D01*
X544112Y311612D01*
X546612Y309112D01*
X547605Y308351D01*
X548760Y307872D01*
X550000Y307709D01*
X561890D01*
X563319Y305743D01*
X573759Y313329D01*
X566174Y323770D01*
X566174Y323770D01*
X566174Y323770D01*
X565660Y324477D01*
X565660D01*
D01*
D01*
X565660Y324477D01*
D01*
D01*
D01*
X565660D01*
X561438Y330288D01*
Y343906D01*
X568019D01*
X568483Y342480D01*
X563241Y338671D01*
X570826Y328230D01*
X576638Y332453D01*
X579743D01*
X580983Y332616D01*
X581801Y332954D01*
X582139Y333094D01*
X583131Y333856D01*
Y333856D01*
X583131D01*
D01*
D01*
D01*
D01*
D01*
D01*
X583131D01*
D01*
X583131D01*
Y333856D01*
D01*
D01*
D01*
D01*
Y333856D01*
D01*
D01*
D01*
D01*
D01*
D01*
Y333856D01*
D01*
D01*
X583131D01*
D01*
D01*
D01*
D01*
D01*
X592421Y343145D01*
X593182Y344138D01*
X593661Y345293D01*
X593824Y346533D01*
D01*
D01*
D01*
D01*
D01*
D01*
X593824D01*
D01*
D01*
D01*
Y346533D01*
X593824Y346533D01*
D01*
D01*
D01*
D01*
D01*
D01*
D01*
D01*
D01*
D01*
D01*
Y346649D01*
X593824Y347727D01*
X597164Y348813D01*
X593176Y361086D01*
X580902Y357098D01*
X580902Y357098D01*
X580071Y356828D01*
D01*
X569792Y353488D01*
X559323D01*
X557363Y355448D01*
X557360Y355469D01*
X556806Y356807D01*
X555924Y357956D01*
X554775Y358838D01*
X553438Y359392D01*
X553416Y359395D01*
X552811Y360000D01*
X560468Y367657D01*
X562983D01*
X565824Y358914D01*
X578098Y362902D01*
X574806Y373031D01*
X589485Y387709D01*
X625000D01*
X626240Y387872D01*
X627057Y388211D01*
X627395Y388351D01*
X628388Y389112D01*
X636984Y397709D01*
X743551D01*
X753693Y387567D01*
Y381624D01*
X753693Y381624D01*
X753693Y381624D01*
X753693Y381437D01*
Y380563D01*
D01*
D01*
X753693D01*
Y374433D01*
X748693Y369433D01*
X747307Y370007D01*
Y380563D01*
X738713D01*
X735888Y383388D01*
X734896Y384149D01*
X734557Y384289D01*
X733740Y384628D01*
X732500Y384791D01*
X722500D01*
X721260Y384628D01*
X720105Y384149D01*
X719112Y383388D01*
X714821Y379097D01*
X713785Y379434D01*
X709797Y367160D01*
X722071Y363172D01*
D01*
X722902Y362902D01*
Y362902D01*
X722902Y362902D01*
X730191Y360533D01*
X734112Y356612D01*
X735105Y355851D01*
X736260Y355372D01*
X737500Y355209D01*
X744051D01*
X745226Y354034D01*
X733227Y342035D01*
X733130D01*
X730348Y344056D01*
X733203Y352840D01*
X720929Y356828D01*
X718944Y350720D01*
X711612Y343388D01*
X710851Y342395D01*
X710711Y342057D01*
X710372Y341240D01*
X710209Y340000D01*
X710209Y340000D01*
X710209D01*
X710209Y340000D01*
X710209D01*
Y331742D01*
X710209Y331742D01*
X710209D01*
X710372Y330502D01*
X710711Y329685D01*
X710851Y329347D01*
X711612Y328355D01*
X711612Y328355D01*
X711612Y328355D01*
X713176Y326791D01*
X711634Y324668D01*
X722074Y317082D01*
X729660Y327523D01*
D01*
D01*
X729660Y327523D01*
D01*
D01*
X729660D01*
X730174Y328230D01*
X730174Y328230D01*
X733241Y332453D01*
X735212D01*
X736452Y332616D01*
X737269Y332954D01*
X737607Y333094D01*
X738599Y333856D01*
Y333856D01*
X738599D01*
D01*
D01*
D01*
D01*
D01*
D01*
X738599D01*
D01*
X738599D01*
Y333856D01*
D01*
D01*
D01*
D01*
Y333856D01*
D01*
D01*
D01*
D01*
D01*
D01*
Y333856D01*
D01*
D01*
X738599D01*
D01*
D01*
D01*
D01*
D01*
X750470Y345726D01*
X751856Y345152D01*
Y330399D01*
X750500Y329415D01*
X742926Y334918D01*
X735340Y324477D01*
X742709Y319123D01*
Y315000D01*
X742872Y313760D01*
X743211Y312943D01*
X743351Y312604D01*
X744112Y311612D01*
X746612Y309112D01*
X747605Y308351D01*
X748760Y307872D01*
X750000Y307709D01*
X761890D01*
X763319Y305743D01*
X773759Y313329D01*
X766174Y323770D01*
X766174Y323770D01*
X766174Y323770D01*
X765660Y324477D01*
X765660D01*
D01*
D01*
X765660Y324477D01*
D01*
D01*
X765660D01*
X761438Y330288D01*
Y343906D01*
X768019D01*
X768483Y342480D01*
X763241Y338671D01*
X770826Y328230D01*
X776638Y332453D01*
X779743D01*
X780983Y332616D01*
X781801Y332954D01*
X782139Y333094D01*
X783131Y333856D01*
X792421Y343145D01*
X793182Y344138D01*
X793661Y345293D01*
X793824Y346533D01*
D01*
D01*
D01*
D01*
D01*
D01*
X793824D01*
D01*
D01*
D01*
Y346533D01*
X793824Y346533D01*
D01*
D01*
D01*
D01*
D01*
D01*
D01*
D01*
D01*
D01*
D01*
Y346649D01*
X793824Y347051D01*
X795161Y347732D01*
X795965Y347147D01*
Y304034D01*
X304034D01*
Y795965D01*
X404730D01*
X405304Y794580D01*
X403405Y792681D01*
X366598D01*
Y794343D01*
X353693D01*
Y781437D01*
X353693Y781437D01*
X353693Y780563D01*
X353693D01*
Y774433D01*
X348693Y769433D01*
X347307Y770007D01*
Y780563D01*
X338713D01*
X335888Y783388D01*
X334895Y784149D01*
X334557Y784289D01*
X333740Y784628D01*
X332500Y784791D01*
X322500D01*
X321260Y784628D01*
X320105Y784149D01*
X319112Y783388D01*
X314821Y779097D01*
X313785Y779434D01*
X309797Y767160D01*
X322071Y763172D01*
D01*
X322902Y762902D01*
X322902Y762902D01*
X330191Y760533D01*
X334112Y756612D01*
D01*
X334112Y756612D01*
X334112Y756612D01*
D01*
D01*
D01*
X334112Y756612D01*
Y756612D01*
X335104Y755851D01*
X336260Y755372D01*
X337500Y755209D01*
X344051D01*
X345226Y754034D01*
X333227Y742034D01*
X333130D01*
X330348Y744056D01*
X333203Y752840D01*
X320929Y756828D01*
X318944Y750720D01*
X311612Y743388D01*
X310851Y742395D01*
X310711Y742057D01*
X310372Y741240D01*
X310209Y740000D01*
Y731742D01*
X310372Y730502D01*
X310711Y729685D01*
X310851Y729347D01*
X311612Y728355D01*
X313176Y726791D01*
X311634Y724668D01*
X322074Y717082D01*
X329660Y727523D01*
D01*
D01*
X329660Y727523D01*
D01*
D01*
X329660D01*
X330174Y728230D01*
X330174Y728230D01*
X333241Y732452D01*
X335212D01*
X336452Y732616D01*
X337269Y732954D01*
X337607Y733094D01*
X338599Y733856D01*
X350470Y745726D01*
X351856Y745152D01*
Y730400D01*
X350500Y729415D01*
X342926Y734918D01*
X335340Y724477D01*
X342709Y719123D01*
Y715000D01*
X342872Y713760D01*
X343211Y712943D01*
X343351Y712605D01*
X344112Y711612D01*
X346612Y709112D01*
X347604Y708351D01*
X348760Y707872D01*
X350000Y707709D01*
X361890D01*
X363319Y705743D01*
X373759Y713329D01*
X366174Y723770D01*
X366174Y723770D01*
X365660Y724477D01*
X365660D01*
D01*
D01*
X365660Y724477D01*
D01*
D01*
X365660D01*
X361438Y730288D01*
Y743906D01*
X368019D01*
X368483Y742480D01*
X363241Y738671D01*
X370826Y728230D01*
X376638Y732452D01*
X379744D01*
X380983Y732616D01*
X381801Y732954D01*
X382139Y733094D01*
X383131Y733856D01*
X392421Y743146D01*
X393182Y744138D01*
X393661Y745293D01*
X393824Y746533D01*
D01*
D01*
D01*
D01*
D01*
D01*
X393824D01*
D01*
D01*
D01*
Y746533D01*
X393824Y746533D01*
D01*
D01*
D01*
D01*
D01*
D01*
D01*
D01*
D01*
D01*
D01*
Y746651D01*
X393824Y747727D01*
X397164Y748813D01*
X393176Y761086D01*
X380902Y757098D01*
X380902Y757098D01*
Y757098D01*
X380071Y756828D01*
D01*
X380071Y756828D01*
X369792Y753488D01*
X359323D01*
X357363Y755448D01*
X357360Y755470D01*
X356806Y756807D01*
X355924Y757956D01*
X354776Y758838D01*
X353437Y759392D01*
X353416Y759395D01*
X352811Y760000D01*
X360468Y767658D01*
X362983D01*
X365824Y758914D01*
X378098Y762902D01*
X374806Y773031D01*
X379485Y777709D01*
X412209D01*
X412226Y777696D01*
X413564Y777142D01*
X415000Y776953D01*
X415770Y777054D01*
X416433Y775709D01*
X406612Y765888D01*
X405851Y764895D01*
X405711Y764557D01*
X405372Y763740D01*
X405209Y762500D01*
Y710000D01*
X405372Y708760D01*
X405711Y707943D01*
X405851Y707605D01*
X406612Y706612D01*
X449639Y663586D01*
X449642Y663564D01*
X450196Y662226D01*
X451077Y661077D01*
X452226Y660196D01*
X453564Y659642D01*
X455000Y659452D01*
X456436Y659642D01*
X457774Y660196D01*
X458923Y661077D01*
X459804Y662226D01*
X460358Y663564D01*
X460547Y665000D01*
X460358Y666436D01*
X459804Y667774D01*
X458923Y668923D01*
X457774Y669804D01*
X456436Y670358D01*
X456414Y670361D01*
X414791Y711984D01*
Y718675D01*
X416246Y719040D01*
X416398Y718755D01*
X417460Y717460D01*
X425960Y708960D01*
Y708960D01*
X425960Y708960D01*
X425960Y708960D01*
Y708960D01*
X427255Y707898D01*
X428731Y707109D01*
Y707109D01*
X428731Y707109D01*
D01*
D01*
D01*
X428731D01*
Y707109D01*
D01*
X428731Y707109D01*
X428731Y707109D01*
X430334Y706623D01*
X432000Y706459D01*
X440750D01*
Y705250D01*
X460250D01*
Y724750D01*
X440750D01*
Y723541D01*
X435538D01*
X432041Y727038D01*
Y758500D01*
X431877Y760166D01*
X431391Y761768D01*
X430602Y763245D01*
X429539Y764539D01*
X428245Y765602D01*
X426768Y766391D01*
X425166Y766877D01*
X423500Y767041D01*
X423294Y767021D01*
X422652Y768377D01*
X428388Y774112D01*
X429149Y775105D01*
X429628Y776260D01*
X429791Y777500D01*
Y785000D01*
X429628Y786240D01*
X429149Y787395D01*
X428388Y788388D01*
X420888Y795888D01*
X420914Y795965D01*
X561632D01*
X561833Y795665D01*
X561126Y794343D01*
X553693D01*
Y781624D01*
X553693Y781624D01*
X553693Y781624D01*
X553693Y781437D01*
Y780563D01*
D01*
D01*
D01*
D01*
X553693D01*
Y774433D01*
X548693Y769433D01*
X547307Y770007D01*
Y780563D01*
X538713D01*
X535888Y783388D01*
D01*
X535888Y783388D01*
D01*
D01*
D01*
X535888Y783388D01*
X535888Y783388D01*
X534896Y784149D01*
X534557Y784289D01*
X533740Y784628D01*
X532500Y784791D01*
X522500D01*
X521260Y784628D01*
X520105Y784149D01*
X519112Y783388D01*
X514821Y779097D01*
X513785Y779434D01*
X509797Y767160D01*
X522071Y763172D01*
D01*
X522902Y762902D01*
Y762902D01*
X522902Y762902D01*
X530191Y760533D01*
X534112Y756612D01*
X535105Y755851D01*
X536260Y755372D01*
X537500Y755209D01*
X544051D01*
X545226Y754034D01*
X533227Y742034D01*
X532442D01*
X530217Y743651D01*
X533203Y752840D01*
X520929Y756828D01*
X518944Y750720D01*
X511612Y743388D01*
X510851Y742395D01*
X510711Y742057D01*
X510372Y741240D01*
X510209Y740000D01*
Y731742D01*
X510372Y730502D01*
X510711Y729685D01*
X510851Y729347D01*
X511612Y728355D01*
X513386Y726581D01*
X511634Y724168D01*
X522074Y716582D01*
X529660Y727023D01*
D01*
D01*
X529660Y727023D01*
D01*
D01*
X529660D01*
X530174Y727730D01*
X530174Y727730D01*
X533605Y732452D01*
X535212D01*
X536452Y732616D01*
X537269Y732954D01*
X537607Y733094D01*
X538599Y733856D01*
X550470Y745726D01*
X551856Y745152D01*
Y730400D01*
X550156Y729165D01*
X542926Y734418D01*
X535340Y723977D01*
X542709Y718623D01*
Y715000D01*
X542872Y713760D01*
X543211Y712943D01*
X543351Y712605D01*
X544112Y711612D01*
X546612Y709112D01*
X547605Y708351D01*
X548760Y707872D01*
X550000Y707709D01*
X561890D01*
X563319Y705743D01*
X573759Y713329D01*
X566174Y723770D01*
X566174Y723770D01*
X566174Y723770D01*
X565660Y724477D01*
X565660D01*
D01*
D01*
X565660Y724477D01*
D01*
D01*
X565660D01*
X561438Y730288D01*
Y743906D01*
X568019D01*
X568483Y742480D01*
X563241Y738671D01*
X570826Y728230D01*
X576638Y732452D01*
X579743D01*
X580983Y732616D01*
X581801Y732954D01*
X582139Y733094D01*
X583131Y733856D01*
X592421Y743146D01*
X593182Y744138D01*
X593661Y745293D01*
X593824Y746533D01*
D01*
D01*
D01*
D01*
D01*
D01*
X593824D01*
D01*
D01*
D01*
Y746533D01*
X593824Y746533D01*
D01*
D01*
D01*
D01*
D01*
D01*
D01*
D01*
D01*
D01*
D01*
Y746649D01*
X593824Y747727D01*
X597164Y748813D01*
X593176Y761086D01*
X580902Y757098D01*
X580902Y757098D01*
X580071Y756828D01*
D01*
X569792Y753488D01*
X559323D01*
X557363Y755448D01*
X557360Y755470D01*
X556806Y756807D01*
X555924Y757956D01*
X554775Y758838D01*
X553438Y759392D01*
X553416Y759395D01*
X552811Y760000D01*
X560468Y767658D01*
X562983D01*
X565824Y758914D01*
X578098Y762902D01*
X574806Y773031D01*
X579485Y777709D01*
X613016D01*
X621964Y768761D01*
X621599Y767306D01*
X620231Y766891D01*
X618755Y766102D01*
X617460Y765039D01*
X616398Y763745D01*
X615609Y762268D01*
X615123Y760666D01*
X614959Y759000D01*
Y724000D01*
X614959Y724000D01*
X614959D01*
X615123Y722334D01*
X615609Y720731D01*
X616398Y719255D01*
X617460Y717961D01*
X625960Y709460D01*
Y709460D01*
X625960Y709460D01*
X625960Y709460D01*
Y709460D01*
X627255Y708398D01*
X628731Y707609D01*
Y707609D01*
X628731Y707609D01*
D01*
D01*
D01*
X628731D01*
Y707609D01*
D01*
X628731Y707609D01*
X628731Y707609D01*
X630334Y707123D01*
X632000Y706959D01*
X640750D01*
Y705750D01*
X660250D01*
Y725250D01*
X640750D01*
Y724041D01*
X635538D01*
X632041Y727538D01*
Y756723D01*
X633427Y757298D01*
X639112Y751612D01*
X640104Y750851D01*
X641260Y750372D01*
X642500Y750209D01*
X657500D01*
X658740Y750372D01*
X659557Y750711D01*
X659896Y750851D01*
X660888Y751612D01*
Y751612D01*
X660888D01*
D01*
D01*
D01*
D01*
D01*
D01*
X660888D01*
D01*
X660888D01*
Y751612D01*
D01*
D01*
D01*
D01*
Y751612D01*
D01*
D01*
D01*
D01*
D01*
D01*
Y751612D01*
D01*
D01*
X660888D01*
D01*
D01*
D01*
X686984Y777709D01*
X694709D01*
X694726Y777696D01*
X696064Y777142D01*
X697500Y776953D01*
X698936Y777142D01*
X700274Y777696D01*
X701423Y778577D01*
X702304Y779726D01*
X702858Y781064D01*
X703048Y782500D01*
X702858Y783936D01*
X702304Y785274D01*
X701423Y786423D01*
X700274Y787304D01*
X698936Y787858D01*
X697500Y788048D01*
X696064Y787858D01*
X694726Y787304D01*
X694709Y787291D01*
X685000D01*
X683760Y787128D01*
X682605Y786649D01*
X681612Y785888D01*
X668227Y772502D01*
X666864Y773130D01*
X667051Y775500D01*
X666847Y778089D01*
X666241Y780615D01*
X665247Y783014D01*
X663890Y785228D01*
X662203Y787203D01*
X660228Y788890D01*
X658014Y790247D01*
X655615Y791241D01*
X653089Y791847D01*
X650500Y792051D01*
X647911Y791847D01*
X645386Y791241D01*
X642986Y790247D01*
X640772Y788890D01*
X638797Y787203D01*
X637110Y785228D01*
X635753Y783014D01*
X634759Y780615D01*
X634153Y778089D01*
X633949Y775500D01*
X634153Y772911D01*
X634389Y771929D01*
X633080Y771196D01*
X618388Y785888D01*
D01*
X618388Y785888D01*
D01*
D01*
D01*
X618388Y785888D01*
X618388Y785888D01*
X617395Y786649D01*
X617057Y786789D01*
X616240Y787128D01*
X615000Y787291D01*
X577500D01*
X576260Y787128D01*
X575105Y786649D01*
X574112Y785888D01*
X567984Y779760D01*
X566598Y780334D01*
Y780376D01*
X566598Y780376D01*
D01*
D01*
D01*
D01*
D01*
D01*
D01*
X566598Y780563D01*
Y780743D01*
Y781000D01*
Y781128D01*
Y781437D01*
X566598Y781572D01*
X566598Y781624D01*
X566598Y781624D01*
D01*
D01*
D01*
X566598Y781624D01*
D01*
Y784823D01*
X568914Y787139D01*
X568936Y787142D01*
X570274Y787696D01*
X571423Y788577D01*
X572304Y789726D01*
X572858Y791064D01*
X573047Y792500D01*
X572858Y793936D01*
X572304Y795274D01*
X572645Y795965D01*
X761632D01*
X762466Y794718D01*
D02*
G37*
G36*
X795965Y758835D02*
X794484Y758600D01*
X793676Y761086D01*
X781402Y757098D01*
X781402Y757098D01*
X780571Y756828D01*
D01*
X770292Y753488D01*
X759323D01*
X757363Y755448D01*
X757360Y755470D01*
X756806Y756807D01*
X755924Y757956D01*
X754775Y758838D01*
X753438Y759392D01*
X753416Y759395D01*
X752811Y760000D01*
X760468Y767658D01*
X763483D01*
X766324Y758914D01*
X778598Y762902D01*
X775258Y773181D01*
Y773482D01*
X779485Y777709D01*
X779709D01*
X779726Y777696D01*
X781064Y777142D01*
X782500Y776953D01*
X783936Y777142D01*
X785274Y777696D01*
X786423Y778577D01*
X787304Y779726D01*
X787858Y781064D01*
X788048Y782500D01*
X787858Y783936D01*
X787304Y785274D01*
X786423Y786423D01*
X785274Y787304D01*
X783936Y787858D01*
X782500Y788048D01*
X781064Y787858D01*
X779726Y787304D01*
X779709Y787291D01*
X777500D01*
X776260Y787128D01*
X775443Y786789D01*
X775105Y786649D01*
X774112Y785888D01*
X767984Y779760D01*
X766598Y780334D01*
Y780563D01*
D01*
Y780563D01*
X766598Y780563D01*
Y781437D01*
X766598D01*
Y784823D01*
X768914Y787139D01*
X768936Y787142D01*
X770274Y787696D01*
X771423Y788577D01*
X772304Y789726D01*
X772858Y791064D01*
X773047Y792500D01*
X772858Y793936D01*
X772304Y795274D01*
X772645Y795965D01*
X795965D01*
Y758835D01*
D02*
G37*
%LPC*%
G36*
X325500Y467051D02*
X322911Y466847D01*
X320385Y466241D01*
X317986Y465247D01*
X315772Y463890D01*
X313797Y462203D01*
X312110Y460228D01*
X310753Y458014D01*
X309759Y455615D01*
X309153Y453089D01*
X308949Y450500D01*
X309153Y447911D01*
X309759Y445386D01*
X310753Y442986D01*
X312110Y440772D01*
X313797Y438797D01*
X315772Y437110D01*
X317986Y435753D01*
X320385Y434759D01*
X322911Y434153D01*
X325500Y433949D01*
X328089Y434153D01*
X330615Y434759D01*
X333014Y435753D01*
X335228Y437110D01*
X337203Y438797D01*
X338890Y440772D01*
X340247Y442986D01*
X341241Y445386D01*
X341847Y447911D01*
X342051Y450500D01*
X341847Y453089D01*
X341241Y455615D01*
X340247Y458014D01*
X338890Y460228D01*
X337203Y462203D01*
X335228Y463890D01*
X333014Y465247D01*
X330615Y466241D01*
X328089Y466847D01*
X325500Y467051D01*
D02*
G37*
G36*
X758500Y486041D02*
X723500D01*
X721834Y485877D01*
X720231Y485391D01*
X718755Y484602D01*
X717460Y483539D01*
X708960Y475039D01*
X707898Y473745D01*
X707109Y472268D01*
X706623Y470666D01*
X706459Y469000D01*
Y460250D01*
X705250D01*
Y440750D01*
X724750D01*
Y460250D01*
X723541D01*
Y465462D01*
X727038Y468959D01*
X758500D01*
X760166Y469123D01*
X761768Y469609D01*
X763245Y470398D01*
X764539Y471460D01*
X765602Y472755D01*
X766391Y474231D01*
X766877Y475834D01*
X767041Y477500D01*
X766877Y479166D01*
X766391Y480768D01*
X765602Y482245D01*
X764539Y483539D01*
X763245Y484602D01*
X761768Y485391D01*
X760166Y485877D01*
X758500Y486041D01*
D02*
G37*
G36*
X660250Y395250D02*
X640750D01*
Y375750D01*
X660250D01*
Y376959D01*
X665462D01*
X683959Y358462D01*
Y342500D01*
X684123Y340834D01*
X684609Y339231D01*
X685398Y337755D01*
X686460Y336460D01*
X687755Y335398D01*
X689231Y334609D01*
X690834Y334123D01*
X692500Y333959D01*
X694166Y334123D01*
X695768Y334609D01*
X697245Y335398D01*
X698539Y336460D01*
X699602Y337755D01*
X700391Y339231D01*
X700877Y340834D01*
X701041Y342500D01*
Y362000D01*
X701041Y362000D01*
Y362000D01*
X701041D01*
X701041Y362000D01*
D01*
D01*
D01*
D01*
X701041Y362000D01*
D01*
X700877Y363666D01*
X700391Y365268D01*
X700391D01*
Y365269D01*
X700391D01*
X700391Y365269D01*
D01*
D01*
D01*
D01*
D01*
D01*
D01*
D01*
X700391Y365269D01*
D01*
X700391D01*
Y365269D01*
D01*
D01*
X699602Y366745D01*
X698539Y368039D01*
Y368039D01*
D01*
D01*
D01*
X698539D01*
X698539D01*
Y368039D01*
D01*
D01*
D01*
D01*
X698539D01*
D01*
D01*
D01*
X698539D01*
X675039Y391540D01*
X673745Y392602D01*
X672268Y393391D01*
X670666Y393877D01*
X669000Y394041D01*
X660250D01*
Y395250D01*
D02*
G37*
G36*
X450500Y342051D02*
X447911Y341847D01*
X445386Y341241D01*
X442986Y340247D01*
X440772Y338890D01*
X438797Y337203D01*
X437110Y335228D01*
X435753Y333014D01*
X434759Y330615D01*
X434153Y328089D01*
X433949Y325500D01*
X434153Y322911D01*
X434759Y320385D01*
X435753Y317986D01*
X437110Y315772D01*
X438797Y313797D01*
X440772Y312110D01*
X442986Y310753D01*
X445386Y309759D01*
X447911Y309153D01*
X450500Y308949D01*
X453089Y309153D01*
X455615Y309759D01*
X458014Y310753D01*
X460228Y312110D01*
X462203Y313797D01*
X463890Y315772D01*
X465247Y317986D01*
X466241Y320385D01*
X466847Y322911D01*
X467051Y325500D01*
X466847Y328089D01*
X466241Y330615D01*
X465247Y333014D01*
X463890Y335228D01*
X462203Y337203D01*
X460228Y338890D01*
X458014Y340247D01*
X455615Y341241D01*
X453089Y341847D01*
X450500Y342051D01*
D02*
G37*
G36*
X650500D02*
X647911Y341847D01*
X645386Y341241D01*
X642986Y340247D01*
X640772Y338890D01*
X638797Y337203D01*
X637110Y335228D01*
X635753Y333014D01*
X634759Y330615D01*
X634153Y328089D01*
X633949Y325500D01*
X634153Y322911D01*
X634759Y320385D01*
X635753Y317986D01*
X637110Y315772D01*
X638797Y313797D01*
X640772Y312110D01*
X642986Y310753D01*
X645386Y309759D01*
X647911Y309153D01*
X650500Y308949D01*
X653089Y309153D01*
X655615Y309759D01*
X658014Y310753D01*
X660228Y312110D01*
X662203Y313797D01*
X663890Y315772D01*
X665247Y317986D01*
X666241Y320385D01*
X666847Y322911D01*
X667051Y325500D01*
X666847Y328089D01*
X666241Y330615D01*
X665247Y333014D01*
X663890Y335228D01*
X662203Y337203D01*
X660228Y338890D01*
X658014Y340247D01*
X655615Y341241D01*
X653089Y341847D01*
X650500Y342051D01*
D02*
G37*
G36*
X460250Y395750D02*
X440750D01*
Y376250D01*
X460250D01*
Y377459D01*
X465462D01*
X468959Y373962D01*
Y342500D01*
X469123Y340834D01*
X469609Y339231D01*
X470398Y337755D01*
X471460Y336460D01*
X472755Y335398D01*
X474231Y334609D01*
X475834Y334123D01*
X477500Y333959D01*
X479166Y334123D01*
X480768Y334609D01*
X482245Y335398D01*
X483539Y336460D01*
X484602Y337755D01*
X485391Y339231D01*
X485877Y340834D01*
X486041Y342500D01*
Y377500D01*
X485877Y379166D01*
X485391Y380769D01*
X484602Y382245D01*
X483539Y383540D01*
X475039Y392039D01*
X473745Y393102D01*
X472268Y393891D01*
X470666Y394377D01*
X469000Y394541D01*
X460250D01*
Y395750D01*
D02*
G37*
G36*
X775500Y667051D02*
X772911Y666847D01*
X770386Y666241D01*
X767986Y665247D01*
X765772Y663890D01*
X763797Y662203D01*
X762110Y660228D01*
X760753Y658014D01*
X759759Y655615D01*
X759153Y653089D01*
X758949Y650500D01*
X759153Y647911D01*
X759759Y645386D01*
X760753Y642986D01*
X762110Y640772D01*
X763797Y638797D01*
X765772Y637110D01*
X767986Y635753D01*
X770386Y634759D01*
X772911Y634153D01*
X775500Y633949D01*
X778089Y634153D01*
X780615Y634759D01*
X783014Y635753D01*
X785228Y637110D01*
X787203Y638797D01*
X788890Y640772D01*
X790247Y642986D01*
X791241Y645386D01*
X791847Y647911D01*
X792051Y650500D01*
X791847Y653089D01*
X791241Y655615D01*
X790247Y658014D01*
X788890Y660228D01*
X787203Y662203D01*
X785228Y663890D01*
X783014Y665247D01*
X780615Y666241D01*
X778089Y666847D01*
X775500Y667051D01*
D02*
G37*
G36*
X758500Y686041D02*
X723500D01*
X721834Y685877D01*
X720231Y685391D01*
X718755Y684602D01*
X717460Y683539D01*
X708960Y675039D01*
X707898Y673745D01*
X707109Y672268D01*
X706623Y670666D01*
X706459Y669000D01*
Y660250D01*
X705250D01*
Y640750D01*
X724750D01*
Y660250D01*
X723541D01*
Y665462D01*
X727038Y668959D01*
X758500D01*
X760166Y669123D01*
X761768Y669609D01*
X763245Y670398D01*
X764539Y671460D01*
X765602Y672755D01*
X766391Y674231D01*
X766877Y675834D01*
X767041Y677500D01*
X766877Y679166D01*
X766391Y680768D01*
X765602Y682245D01*
X764539Y683539D01*
X763245Y684602D01*
X761768Y685391D01*
X760166Y685877D01*
X758500Y686041D01*
D02*
G37*
G36*
X450500Y792051D02*
X447911Y791847D01*
X445386Y791241D01*
X442986Y790247D01*
X440772Y788890D01*
X438797Y787203D01*
X437110Y785228D01*
X435753Y783014D01*
X434759Y780615D01*
X434153Y778089D01*
X433949Y775500D01*
X434153Y772911D01*
X434759Y770386D01*
X435753Y767986D01*
X437110Y765772D01*
X438797Y763797D01*
X440772Y762110D01*
X442986Y760753D01*
X445386Y759759D01*
X447911Y759153D01*
X450500Y758949D01*
X453089Y759153D01*
X455615Y759759D01*
X458014Y760753D01*
X460228Y762110D01*
X462203Y763797D01*
X463890Y765772D01*
X465247Y767986D01*
X466241Y770386D01*
X466847Y772911D01*
X467051Y775500D01*
X466847Y778089D01*
X466241Y780615D01*
X465247Y783014D01*
X463890Y785228D01*
X462203Y787203D01*
X460228Y788890D01*
X458014Y790247D01*
X455615Y791241D01*
X453089Y791847D01*
X450500Y792051D01*
D02*
G37*
G36*
X325500Y667051D02*
X322911Y666847D01*
X320385Y666241D01*
X317986Y665247D01*
X315772Y663890D01*
X313797Y662203D01*
X312110Y660228D01*
X310753Y658014D01*
X309759Y655615D01*
X309153Y653089D01*
X308949Y650500D01*
X309153Y647911D01*
X309759Y645386D01*
X310753Y642986D01*
X312110Y640772D01*
X313797Y638797D01*
X315772Y637110D01*
X317986Y635753D01*
X320385Y634759D01*
X322911Y634153D01*
X325500Y633949D01*
X328089Y634153D01*
X330615Y634759D01*
X333014Y635753D01*
X335228Y637110D01*
X337203Y638797D01*
X338890Y640772D01*
X340247Y642986D01*
X341241Y645386D01*
X341847Y647911D01*
X342051Y650500D01*
X341847Y653089D01*
X341241Y655615D01*
X340247Y658014D01*
X338890Y660228D01*
X337203Y662203D01*
X335228Y663890D01*
X333014Y665247D01*
X330615Y666241D01*
X328089Y666847D01*
X325500Y667051D01*
D02*
G37*
G36*
X500000Y506041D02*
X498334Y505877D01*
X496732Y505391D01*
X495255Y504602D01*
X493961Y503540D01*
X488962Y498541D01*
X405000D01*
X403334Y498377D01*
X401731Y497891D01*
X400255Y497102D01*
X398960Y496039D01*
X380461Y477539D01*
X379398Y476245D01*
X378609Y474768D01*
X378123Y473166D01*
X377959Y471500D01*
Y460250D01*
X376750D01*
Y440750D01*
X377959D01*
Y430038D01*
X361462Y413541D01*
X342500D01*
X340834Y413377D01*
X339231Y412891D01*
X337755Y412102D01*
X336460Y411039D01*
X335398Y409745D01*
X334609Y408269D01*
X334123Y406666D01*
X333959Y405000D01*
X334123Y403334D01*
X334609Y401731D01*
X335398Y400255D01*
X336460Y398960D01*
X337755Y397898D01*
X339231Y397109D01*
X340834Y396623D01*
X342500Y396459D01*
X365000D01*
X366666Y396623D01*
X368269Y397109D01*
X369745Y397898D01*
X371040Y398960D01*
X392540Y420461D01*
Y420461D01*
D01*
D01*
D01*
X392540Y420461D01*
D01*
Y420461D01*
D01*
D01*
D01*
D01*
X392540D01*
Y420461D01*
D01*
D01*
D01*
X392540D01*
D01*
D01*
Y420461D01*
D01*
D01*
D01*
Y420461D01*
D01*
D01*
X392540D01*
D01*
X392540Y420461D01*
D01*
D01*
X393602Y421755D01*
X394391Y423231D01*
Y423231D01*
X394391D01*
D01*
D01*
D01*
D01*
X394391D01*
D01*
D01*
D01*
Y423231D01*
X394391D01*
D01*
Y423232D01*
D01*
D01*
D01*
D01*
D01*
D01*
D01*
D01*
D01*
D01*
D01*
D01*
Y423232D01*
D01*
X394391D01*
D01*
D01*
D01*
D01*
X394391Y423232D01*
X394877Y424834D01*
X395041Y426500D01*
D01*
D01*
D01*
D01*
D01*
X395041D01*
D01*
D01*
D01*
Y426500D01*
X395041D01*
D01*
Y426500D01*
D01*
D01*
D01*
D01*
D01*
D01*
D01*
D01*
D01*
D01*
D01*
D01*
Y426500D01*
D01*
X395041D01*
D01*
D01*
D01*
D01*
X395041Y426500D01*
Y440750D01*
X396250D01*
Y460250D01*
X395041D01*
Y467962D01*
X408538Y481459D01*
X455296D01*
X455479Y481361D01*
X457082Y480875D01*
X458748Y480711D01*
X491752D01*
X493418Y480875D01*
X495020Y481361D01*
X496497Y482150D01*
X497791Y483213D01*
X506039Y491461D01*
X507102Y492755D01*
X507891Y494232D01*
X508377Y495834D01*
X508541Y497500D01*
X508377Y499166D01*
X507891Y500769D01*
X507102Y502245D01*
X506039Y503540D01*
X504745Y504602D01*
X503268Y505391D01*
X501666Y505877D01*
X500000Y506041D01*
D02*
G37*
G36*
X603500Y508041D02*
X601834Y507877D01*
X600232Y507391D01*
X598755Y506602D01*
X597461Y505540D01*
X596398Y504245D01*
X595609Y502769D01*
X595123Y501166D01*
X594959Y499500D01*
X595123Y497834D01*
X595609Y496232D01*
X596398Y494755D01*
X597461Y493461D01*
X603207Y487714D01*
Y458248D01*
X603371Y456582D01*
X603857Y454980D01*
X604646Y453503D01*
X605709Y452209D01*
X607003Y451146D01*
X608479Y450357D01*
X610082Y449871D01*
X611748Y449707D01*
X613414Y449871D01*
X615017Y450357D01*
X616493Y451146D01*
X617788Y452209D01*
X618850Y453503D01*
X619639Y454980D01*
X620125Y456582D01*
X620289Y458248D01*
Y491252D01*
X620289Y491252D01*
Y491252D01*
X620289D01*
X620289Y491252D01*
D01*
D01*
D01*
D01*
X620289Y491252D01*
D01*
X620125Y492918D01*
X619639Y494521D01*
X619639D01*
Y494521D01*
X619639D01*
X619639Y494521D01*
D01*
D01*
D01*
D01*
D01*
D01*
D01*
D01*
X619639Y494521D01*
D01*
X619639D01*
Y494521D01*
D01*
X618850Y495997D01*
X617788Y497291D01*
Y497292D01*
D01*
D01*
Y497292D01*
D01*
D01*
D01*
D01*
X617788D01*
D01*
D01*
X617788D01*
X609540Y505540D01*
X608245Y506602D01*
X606769Y507391D01*
X605166Y507877D01*
X603500Y508041D01*
D02*
G37*
G36*
X395750Y660250D02*
X376250D01*
Y640750D01*
X377459D01*
Y635538D01*
X373962Y632041D01*
X342500D01*
X340834Y631877D01*
X339231Y631391D01*
X337755Y630602D01*
X336460Y629539D01*
X335398Y628245D01*
X334609Y626768D01*
X334123Y625166D01*
X333959Y623500D01*
X334123Y621834D01*
X334609Y620231D01*
X335398Y618755D01*
X336460Y617460D01*
X337755Y616398D01*
X339231Y615609D01*
X340834Y615123D01*
X342500Y614959D01*
X377500D01*
X379166Y615123D01*
X380769Y615609D01*
X382245Y616398D01*
X383540Y617460D01*
X392039Y625960D01*
X393102Y627255D01*
X393891Y628731D01*
X394377Y630334D01*
X394541Y632000D01*
Y640750D01*
X395750D01*
Y660250D01*
D02*
G37*
%LPD*%
D10*
X789533Y752955D02*
D03*
X776428Y748697D02*
D03*
X783572Y771303D02*
D03*
X770467Y767044D02*
D03*
X389033Y552955D02*
D03*
X375928Y548697D02*
D03*
X383072Y571303D02*
D03*
X369967Y567044D02*
D03*
X589533Y552955D02*
D03*
X576428Y548697D02*
D03*
X583572Y571303D02*
D03*
X570467Y567044D02*
D03*
X789033Y552955D02*
D03*
X775928Y548697D02*
D03*
X783072Y571303D02*
D03*
X769967Y567044D02*
D03*
X389033Y352956D02*
D03*
X375928Y348697D02*
D03*
X383072Y371303D02*
D03*
X369967Y367044D02*
D03*
X589033Y352956D02*
D03*
X575928Y348697D02*
D03*
X583072Y371303D02*
D03*
X569967Y367044D02*
D03*
X789033Y352956D02*
D03*
X775928Y348697D02*
D03*
X783072Y371303D02*
D03*
X769967Y367044D02*
D03*
X389033Y752955D02*
D03*
X375928Y748697D02*
D03*
X383072Y771303D02*
D03*
X369967Y767044D02*
D03*
X589033Y752955D02*
D03*
X575928Y748697D02*
D03*
X583072Y771303D02*
D03*
X569967Y767044D02*
D03*
D11*
X764246Y714756D02*
D03*
X756147Y725904D02*
D03*
X779853Y726096D02*
D03*
X771754Y737244D02*
D03*
X364746Y514756D02*
D03*
X356647Y525904D02*
D03*
X380353Y526096D02*
D03*
X372254Y537244D02*
D03*
X564746Y514256D02*
D03*
X556647Y525404D02*
D03*
X580353Y525596D02*
D03*
X572254Y536743D02*
D03*
X764746Y514756D02*
D03*
X756647Y525904D02*
D03*
X780353Y526096D02*
D03*
X772254Y537244D02*
D03*
X364746Y314756D02*
D03*
X356647Y325904D02*
D03*
X380353Y326096D02*
D03*
X372254Y337244D02*
D03*
X564746Y314756D02*
D03*
X556647Y325904D02*
D03*
X580353Y326096D02*
D03*
X572254Y337244D02*
D03*
X764746Y314756D02*
D03*
X756647Y325904D02*
D03*
X780353Y326096D02*
D03*
X772254Y337244D02*
D03*
X364746Y714756D02*
D03*
X356647Y725904D02*
D03*
X380353Y726096D02*
D03*
X372254Y737244D02*
D03*
X564746Y714756D02*
D03*
X556647Y725904D02*
D03*
X580353Y726096D02*
D03*
X572254Y737244D02*
D03*
D12*
X720647Y726096D02*
D03*
X728746Y737244D02*
D03*
X736254Y714756D02*
D03*
X744353Y725904D02*
D03*
X320647Y526096D02*
D03*
X328746Y537244D02*
D03*
X336254Y514756D02*
D03*
X344353Y525904D02*
D03*
X520647Y525596D02*
D03*
X528746Y536743D02*
D03*
X536254Y514256D02*
D03*
X544353Y525404D02*
D03*
X720647Y525596D02*
D03*
X728746Y536743D02*
D03*
X736254Y514256D02*
D03*
X744353Y525404D02*
D03*
X320647Y326096D02*
D03*
X328746Y337244D02*
D03*
X336254Y314756D02*
D03*
X344353Y325904D02*
D03*
X520647Y326096D02*
D03*
X528746Y337244D02*
D03*
X536254Y314756D02*
D03*
X544353Y325904D02*
D03*
X720647Y326096D02*
D03*
X728746Y337244D02*
D03*
X736254Y314756D02*
D03*
X744353Y325904D02*
D03*
X320647Y726096D02*
D03*
X328746Y737244D02*
D03*
X336254Y714756D02*
D03*
X344353Y725904D02*
D03*
X520647Y725596D02*
D03*
X528746Y736743D02*
D03*
X536254Y714256D02*
D03*
X544353Y725404D02*
D03*
D13*
X717928Y771303D02*
D03*
X731033Y767044D02*
D03*
X711967Y752955D02*
D03*
X725072Y748697D02*
D03*
X317928Y571303D02*
D03*
X331033Y567044D02*
D03*
X311967Y552955D02*
D03*
X325072Y548697D02*
D03*
X517928Y571303D02*
D03*
X531033Y567044D02*
D03*
X511967Y552955D02*
D03*
X525072Y548697D02*
D03*
X717928Y571303D02*
D03*
X731033Y567044D02*
D03*
X711967Y552955D02*
D03*
X725072Y548697D02*
D03*
X317928Y371303D02*
D03*
X331033Y367044D02*
D03*
X311967Y352956D02*
D03*
X325072Y348697D02*
D03*
X517928Y371303D02*
D03*
X531033Y367044D02*
D03*
X511967Y352956D02*
D03*
X525072Y348697D02*
D03*
X717928Y371303D02*
D03*
X731033Y367044D02*
D03*
X711967Y352956D02*
D03*
X725072Y348697D02*
D03*
X317928Y771303D02*
D03*
X331033Y767044D02*
D03*
X311967Y752955D02*
D03*
X325072Y748697D02*
D03*
X517928Y771303D02*
D03*
X531033Y767044D02*
D03*
X511967Y752955D02*
D03*
X525072Y748697D02*
D03*
D14*
X760146Y787890D02*
D03*
Y774110D02*
D03*
X740854Y787890D02*
D03*
Y774110D02*
D03*
X360146Y587890D02*
D03*
Y574110D02*
D03*
X340854Y587890D02*
D03*
Y574110D02*
D03*
X560146Y587390D02*
D03*
Y573610D02*
D03*
X540854Y587390D02*
D03*
Y573610D02*
D03*
X760146Y587890D02*
D03*
Y574110D02*
D03*
X740854Y587890D02*
D03*
Y574110D02*
D03*
X360146Y387890D02*
D03*
Y374110D02*
D03*
X340854Y387890D02*
D03*
Y374110D02*
D03*
X560146Y387890D02*
D03*
Y374110D02*
D03*
X540854Y387890D02*
D03*
Y374110D02*
D03*
X760146Y387890D02*
D03*
Y374110D02*
D03*
X740854Y387890D02*
D03*
Y374110D02*
D03*
X360146Y787890D02*
D03*
Y774110D02*
D03*
X340854Y787890D02*
D03*
Y774110D02*
D03*
X560146Y787890D02*
D03*
Y774110D02*
D03*
X540854Y787890D02*
D03*
Y774110D02*
D03*
D15*
X766047Y413547D02*
Y428953D01*
X757500Y437500D02*
Y460000D01*
X760000Y407500D02*
X766047Y413547D01*
X757500Y437500D02*
X766047Y428953D01*
X630000Y407500D02*
X760000D01*
X432500D02*
X550000D01*
X560000Y397500D01*
X620000D02*
X630000Y407500D01*
X560000Y397500D02*
X620000D01*
X412890Y387890D02*
X432500Y407500D01*
X360146Y387890D02*
X412890D01*
X601374Y621374D02*
X653626D01*
X665000Y610000D01*
X587500Y607500D02*
X601374Y621374D01*
X665000Y610000D02*
X757500D01*
X400000Y532500D02*
Y564922D01*
X477500Y512500D02*
X488757Y523757D01*
X517500Y513757D02*
X536254D01*
X383072Y571225D02*
X393697D01*
X488757Y523757D02*
X507500D01*
X420000Y512500D02*
X477500D01*
X400000Y532500D02*
X420000Y512500D01*
X355000Y487500D02*
X366500Y476000D01*
X525000Y607500D02*
X587500D01*
X507500Y590000D02*
X525000Y607500D01*
X375000Y590000D02*
X507500D01*
X372890Y587890D02*
X375000Y590000D01*
X360146Y587890D02*
X372890D01*
X787500Y790000D02*
X792500Y785000D01*
Y780000D02*
Y785000D01*
X783803Y771303D02*
X792500Y780000D01*
X783572Y771303D02*
X783803D01*
X770467Y775467D02*
X777500Y782500D01*
X782500D01*
X770467Y767044D02*
Y775467D01*
X715500Y600000D02*
X755000D01*
X760146Y594854D01*
Y587890D02*
Y594854D01*
X698000Y582500D02*
X715500Y600000D01*
X507500Y724257D02*
Y748489D01*
X360146Y787890D02*
X405390D01*
X410000Y792500D01*
X360146Y787890D02*
X360535Y787500D01*
X410000Y792500D02*
X417500D01*
X410000Y762500D02*
X425000Y777500D01*
Y785000D01*
X417500Y792500D02*
X425000Y785000D01*
X410000Y710000D02*
X455000Y665000D01*
X410000Y710000D02*
Y762500D01*
X338390Y774110D02*
X340854D01*
X332500Y780000D02*
X338390Y774110D01*
X317928Y771303D02*
Y775428D01*
X322500Y780000D01*
X332500D01*
X323697Y748697D02*
X325072D01*
X315000Y731742D02*
X320647Y726096D01*
X315000Y731742D02*
Y740000D01*
X323697Y748697D01*
X344353Y725904D02*
X347500Y722758D01*
Y715000D02*
Y722758D01*
Y715000D02*
X350000Y712500D01*
X362490D02*
X364746Y714756D01*
X350000Y712500D02*
X362490D01*
X372254Y737244D02*
X379744D01*
X389033Y746533D02*
Y752955D01*
X379744Y737244D02*
X389033Y746533D01*
X579743Y737244D02*
X589033Y746533D01*
Y752955D01*
X572254Y737244D02*
X579743D01*
X550000Y712500D02*
X562490D01*
X564746Y714756D01*
X547500Y715000D02*
X550000Y712500D01*
X547500Y715000D02*
Y722757D01*
X544353Y725904D02*
X547500Y722757D01*
X515000Y740000D02*
X523697Y748697D01*
X515000Y731742D02*
Y740000D01*
Y731742D02*
X520647Y726096D01*
X523697Y748697D02*
X525072D01*
X522500Y780000D02*
X532500D01*
X517928Y775428D02*
X522500Y780000D01*
X517928Y771303D02*
Y775428D01*
X532500Y780000D02*
X538390Y774110D01*
X540854D01*
X779743Y737244D02*
X789033Y746533D01*
Y752955D01*
X772254Y737244D02*
X779743D01*
X750000Y712500D02*
X762490D01*
X764746Y714756D01*
X747500Y715000D02*
X750000Y712500D01*
X747500Y715000D02*
Y722757D01*
X744353Y725904D02*
X747500Y722757D01*
X715000Y740000D02*
X723697Y748697D01*
X715000Y731742D02*
Y740000D01*
Y731742D02*
X720647Y726096D01*
X723697Y748697D02*
X725072D01*
X722500Y780000D02*
X732500D01*
X717928Y775428D02*
X722500Y780000D01*
X717928Y771303D02*
Y775428D01*
X732500Y780000D02*
X738390Y774110D01*
X740854D01*
X779743Y537244D02*
X789033Y546533D01*
Y552955D01*
X772254Y537244D02*
X779743D01*
X750000Y512500D02*
X762490D01*
X764746Y514756D01*
X747500Y515000D02*
X750000Y512500D01*
X747500Y515000D02*
Y522757D01*
X744353Y525904D02*
X747500Y522757D01*
X715000Y540000D02*
X723697Y548697D01*
X715000Y531742D02*
Y540000D01*
Y531742D02*
X720647Y526096D01*
X723697Y548697D02*
X725072D01*
X722500Y580000D02*
X732500D01*
X717928Y575428D02*
X722500Y580000D01*
X717928Y571303D02*
Y575428D01*
X732500Y580000D02*
X738390Y574110D01*
X740854D01*
X579743Y536743D02*
X589033Y546033D01*
Y552456D01*
X572254Y536743D02*
X579743D01*
X550000Y512000D02*
X562490D01*
X564746Y514256D01*
X547500Y514500D02*
X550000Y512000D01*
X547500Y514500D02*
Y522258D01*
X544353Y525404D02*
X547500Y522258D01*
X515000Y539500D02*
X523697Y548197D01*
X515000Y531242D02*
Y539500D01*
Y531242D02*
X520647Y525596D01*
X523697Y548197D02*
X525072D01*
X522500Y579500D02*
X532500D01*
X517928Y574928D02*
X522500Y579500D01*
X517928Y570803D02*
Y574928D01*
X532500Y579500D02*
X538390Y573610D01*
X540854D01*
X379744Y537244D02*
X389033Y546533D01*
Y552955D01*
X372254Y537244D02*
X379744D01*
X350000Y512500D02*
X362490D01*
X364746Y514756D01*
X347500Y515000D02*
X350000Y512500D01*
X347500Y515000D02*
Y522757D01*
X344353Y525904D02*
X347500Y522757D01*
X315000Y540000D02*
X323697Y548697D01*
X315000Y531742D02*
Y540000D01*
Y531742D02*
X320647Y526096D01*
X323697Y548697D02*
X325072D01*
X322500Y580000D02*
X332500D01*
X317928Y575428D02*
X322500Y580000D01*
X317928Y571303D02*
Y575428D01*
X332500Y580000D02*
X338390Y574110D01*
X340854D01*
X379744Y337244D02*
X389033Y346533D01*
Y352956D01*
X372254Y337244D02*
X379744D01*
X350000Y312500D02*
X362490D01*
X364746Y314756D01*
X347500Y315000D02*
X350000Y312500D01*
X347500Y315000D02*
Y322758D01*
X344353Y325904D02*
X347500Y322758D01*
X315000Y340000D02*
X323697Y348697D01*
X315000Y331742D02*
Y340000D01*
Y331742D02*
X320647Y326096D01*
X323697Y348697D02*
X325072D01*
X322500Y380000D02*
X332500D01*
X317928Y375428D02*
X322500Y380000D01*
X317928Y371303D02*
Y375428D01*
X332500Y380000D02*
X338390Y374110D01*
X340854D01*
X579743Y337244D02*
X589033Y346533D01*
Y352956D01*
X572254Y337244D02*
X579743D01*
X550000Y312500D02*
X562490D01*
X564746Y314756D01*
X547500Y315000D02*
X550000Y312500D01*
X547500Y315000D02*
Y322758D01*
X544353Y325904D02*
X547500Y322758D01*
X515000Y340000D02*
X523697Y348697D01*
X515000Y331742D02*
Y340000D01*
Y331742D02*
X520647Y326096D01*
X523697Y348697D02*
X525072D01*
X522500Y380000D02*
X532500D01*
X517928Y375428D02*
X522500Y380000D01*
X517928Y371303D02*
Y375428D01*
X532500Y380000D02*
X538390Y374110D01*
X540854D01*
X779743Y337244D02*
X789033Y346533D01*
Y352956D01*
X772254Y337244D02*
X779743D01*
X750000Y312500D02*
X762490D01*
X764746Y314756D01*
X747500Y315000D02*
X750000Y312500D01*
X747500Y315000D02*
Y322758D01*
X744353Y325904D02*
X747500Y322758D01*
X715000Y340000D02*
X723697Y348697D01*
X715000Y331742D02*
Y340000D01*
Y331742D02*
X720647Y326096D01*
X723697Y348697D02*
X725072D01*
X722500Y380000D02*
X732500D01*
X717928Y375428D02*
X722500Y380000D01*
X717928Y371303D02*
Y375428D01*
X732500Y380000D02*
X738390Y374110D01*
X740854D01*
X731033Y366467D02*
Y367044D01*
Y366467D02*
X737500Y360000D01*
X746035D01*
X760146Y374110D01*
X756647Y325904D02*
Y348006D01*
X757338Y348697D01*
X775928D01*
X728746Y337244D02*
X735212D01*
X752002Y354034D01*
X757338Y348697D01*
X746035Y360000D02*
X752002Y354034D01*
X746035Y560000D02*
X752002Y554034D01*
Y554034D02*
X757338Y548697D01*
X735212Y537244D02*
X752002Y554034D01*
X757338Y548697D02*
X775928D01*
X756647Y525904D02*
Y548006D01*
X746035Y560000D02*
X760146Y574110D01*
X737500Y560000D02*
X746035D01*
X731033Y566467D02*
X737500Y560000D01*
X746035Y760000D02*
X752002Y754034D01*
Y754034D02*
X757338Y748697D01*
X735212Y737244D02*
X752002Y754034D01*
X728746Y737244D02*
X735212D01*
X757338Y748697D02*
X775928D01*
X756647Y725904D02*
Y748006D01*
X746035Y760000D02*
X760146Y774110D01*
X737500Y760000D02*
X746035D01*
X731033Y766467D02*
X737500Y760000D01*
X546035D02*
X552002Y754034D01*
Y754034D02*
X557338Y748697D01*
X535212Y737244D02*
X552002Y754034D01*
X557338Y748697D02*
X575928D01*
X556647Y725904D02*
Y748006D01*
X546035Y760000D02*
X560146Y774110D01*
X537500Y760000D02*
X546035D01*
X531033Y766467D02*
X537500Y760000D01*
X546035Y559500D02*
X552002Y553534D01*
Y553534D02*
X557338Y548197D01*
X535212Y536743D02*
X552002Y553534D01*
X528746Y536743D02*
X535212D01*
X557338Y548197D02*
X575928D01*
X556647Y525404D02*
Y547506D01*
X546035Y559500D02*
X560146Y573610D01*
X537500Y559500D02*
X546035D01*
X531033Y565967D02*
X537500Y559500D01*
X546035Y360000D02*
X552002Y354034D01*
Y354034D02*
X557338Y348697D01*
X535212Y337244D02*
X552002Y354034D01*
X528746Y337244D02*
X535212D01*
X557338Y348697D02*
X575928D01*
X556647Y325904D02*
Y348006D01*
X546035Y360000D02*
X560146Y374110D01*
X537500Y360000D02*
X546035D01*
X531033Y366467D02*
X537500Y360000D01*
X346035D02*
X352002Y354034D01*
Y354034D02*
X357338Y348697D01*
X335212Y337244D02*
X352002Y354034D01*
X328746Y337244D02*
X335212D01*
X357338Y348697D02*
X375928D01*
X356647Y325904D02*
Y348006D01*
X346035Y360000D02*
X360146Y374110D01*
X337500Y360000D02*
X346035D01*
X331033Y366467D02*
X337500Y360000D01*
X346035Y560000D02*
X352002Y554034D01*
Y554034D02*
X357338Y548697D01*
X335212Y537244D02*
X352002Y554034D01*
X328746Y537244D02*
X335212D01*
X357338Y548697D02*
X375928D01*
X356647Y525904D02*
Y548006D01*
X346035Y560000D02*
X360146Y574110D01*
X337500Y560000D02*
X346035D01*
X331033Y566467D02*
X337500Y560000D01*
X346035Y760000D02*
X352002Y754034D01*
Y754034D02*
X357338Y748697D01*
X335212Y737244D02*
X352002Y754034D01*
X328746Y737244D02*
X335212D01*
X357338Y748697D02*
X375928D01*
X356647Y725904D02*
Y748006D01*
X346035Y760000D02*
X360146Y774110D01*
X337500Y760000D02*
X346035D01*
X331033Y766467D02*
X337500Y760000D01*
X728746Y537244D02*
X735212D01*
X528746Y737244D02*
X535212D01*
X569967Y767044D02*
Y774967D01*
X577500Y782500D01*
X615000D01*
X642500Y755000D01*
X657500D02*
X685000Y782500D01*
X642500Y755000D02*
X657500D01*
X685000Y782500D02*
X697500D01*
X583072Y771303D02*
X593697D01*
X590000Y725000D02*
X600000Y735000D01*
X581449Y725000D02*
X590000D01*
X580353Y726096D02*
X581449Y725000D01*
X540000Y702500D02*
X570000D01*
X536254Y706246D02*
Y714256D01*
X511967Y752955D02*
Y753033D01*
X600000Y735000D02*
Y765000D01*
X593697Y771303D02*
X600000Y765000D01*
X507500Y757500D02*
X511967Y753033D01*
X517500Y787890D02*
X540854D01*
X507500Y777890D02*
X517500Y787890D01*
X507500Y757500D02*
Y777890D01*
Y748489D02*
X511967Y752955D01*
X507500Y724257D02*
X517500Y714256D01*
X536254D01*
X707500Y757500D02*
Y777890D01*
X717500Y787890D01*
X740854D01*
X707500Y757500D02*
X711967Y753033D01*
X377500Y782500D02*
X415000D01*
X369967Y774967D02*
X377500Y782500D01*
X369967Y767044D02*
Y774967D01*
Y574967D02*
X377500Y582500D01*
X369967Y567044D02*
Y574967D01*
X377500Y382500D02*
X415000D01*
X369967Y374967D02*
X377500Y382500D01*
X369967Y367044D02*
Y374967D01*
X415000Y382500D02*
X435000Y402500D01*
X545535D02*
X560146Y387890D01*
X435000Y402500D02*
X545535D01*
X635000D02*
X745535D01*
X760146Y387890D01*
X569967Y367044D02*
Y374967D01*
X377500Y582500D02*
X497500D01*
X578000D02*
X698000D01*
X570467Y567044D02*
Y574967D01*
X578000Y582500D01*
X707500Y557500D02*
X711967Y553033D01*
X717500Y587890D02*
X740854D01*
X707500Y577890D02*
X717500Y587890D01*
X707500Y557500D02*
Y577890D01*
Y357500D02*
X711967Y353033D01*
X717500Y387890D02*
X740854D01*
X707500Y377890D02*
X717500Y387890D01*
X707500Y357500D02*
Y377890D01*
X507500Y357500D02*
X511967Y353033D01*
X517500Y387890D02*
X540854D01*
X507500Y377890D02*
X517500Y387890D01*
X507500Y357500D02*
Y377890D01*
Y557000D02*
X511967Y552533D01*
X517500Y587390D02*
X540854D01*
X507500Y577390D02*
X517500Y587390D01*
X507500Y557000D02*
Y577390D01*
X536254Y706246D02*
X540000Y702500D01*
X570000D02*
X580353Y712853D01*
Y726096D01*
X380353Y712853D02*
Y726096D01*
X370000Y702500D02*
X380353Y712853D01*
X393697Y771303D02*
X400000Y765000D01*
Y735000D02*
Y765000D01*
X336254Y706246D02*
Y714256D01*
X381449Y725000D02*
X390000D01*
X400000Y735000D01*
X383072Y771303D02*
X393697D01*
X380353Y512776D02*
Y526018D01*
X370000Y502422D02*
X380353Y512776D01*
X393697Y571225D02*
X400000Y564922D01*
X336254Y506168D02*
Y514179D01*
X381449Y524922D02*
X390000D01*
X400000Y534922D01*
X393697Y371225D02*
X400000Y364922D01*
X381449Y324922D02*
X390000D01*
X400000Y334922D01*
X507500Y324179D02*
Y348411D01*
Y324179D02*
X517500Y314179D01*
X507500Y348411D02*
X511967Y352878D01*
X593697Y371225D02*
X600000Y364922D01*
X581449Y324922D02*
X590000D01*
X600000Y334922D01*
X707500Y348411D02*
X711967Y352878D01*
X780353Y512776D02*
Y526018D01*
X770000Y502422D02*
X780353Y512776D01*
X707500Y524179D02*
Y548411D01*
X711967Y552878D01*
X736254Y506168D02*
Y514179D01*
X740000Y502422D02*
X770000D01*
X580353Y512353D02*
Y525596D01*
X570000Y502000D02*
X580353Y512353D01*
X507500Y523757D02*
Y547989D01*
Y523757D02*
X517500Y513757D01*
X507500Y547989D02*
X511967Y552456D01*
X593697Y570803D02*
X600000Y564500D01*
Y534500D02*
Y564500D01*
X536254Y505746D02*
Y513757D01*
X540000Y502000D02*
X570000D01*
X581449Y524500D02*
X590000D01*
X600000Y534500D01*
X583072Y570803D02*
X593697D01*
X780353Y712776D02*
Y726018D01*
X770000Y702422D02*
X780353Y712776D01*
X707500Y724179D02*
Y748411D01*
X717500Y714179D02*
X736254D01*
X707500Y724179D02*
X717500Y714179D01*
X707500Y748411D02*
X711967Y752878D01*
X736254Y706168D02*
Y714179D01*
X740000Y702422D02*
X770000D01*
X736254Y706168D02*
X740000Y702422D01*
X736254Y506168D02*
X740000Y502422D01*
X536254Y505746D02*
X540000Y502000D01*
X336254Y506168D02*
X340000Y502422D01*
X336254Y706246D02*
X340000Y702500D01*
X560146Y787890D02*
X562890D01*
X567500Y792500D01*
X762890Y787890D02*
X767500Y792500D01*
X760146Y787890D02*
X762890D01*
X562890Y587390D02*
X567500Y592000D01*
X560146Y587390D02*
X562890D01*
X587500Y435000D02*
Y475000D01*
X745000Y412500D02*
X752500Y420000D01*
X587500Y435000D02*
X610000Y412500D01*
X745000D01*
X625000Y392500D02*
X635000Y402500D01*
X569967Y374967D02*
X587500Y392500D01*
X625000D01*
X428500Y366000D02*
X450500D01*
X412500Y350000D02*
X428500Y366000D01*
X383072Y371225D02*
X393697D01*
X400000Y350000D02*
X412500D01*
X400000Y334922D02*
Y364922D01*
X615000Y347500D02*
X633000Y365500D01*
X659500D02*
X675000Y350000D01*
Y335000D02*
Y350000D01*
Y335000D02*
X685821Y324179D01*
X769967Y375467D02*
X772500Y378000D01*
X769967Y367044D02*
Y375467D01*
X772500Y378000D02*
Y392500D01*
X736010Y315000D02*
X736254Y314756D01*
X780353Y326096D02*
X781096D01*
X787500Y332500D01*
X782500Y371874D02*
Y382500D01*
Y371874D02*
X783072Y371303D01*
X717743Y314756D02*
X736254D01*
X685821Y324179D02*
X707500D01*
X517500Y314179D02*
X536254D01*
X583072Y371225D02*
X593697D01*
X600000Y347500D02*
X615000D01*
X707500Y325000D02*
X717743Y314756D01*
X600000Y334922D02*
Y364922D01*
X633000Y365500D02*
X659500D01*
X707500Y324179D02*
Y348411D01*
X311967Y352956D02*
Y356967D01*
X315000Y360000D01*
X360000Y427500D02*
X366500Y434000D01*
X335000Y427500D02*
X360000D01*
X325000Y417500D02*
X335000Y427500D01*
X325000Y395000D02*
X332110Y387890D01*
X325000Y395000D02*
Y417500D01*
X332110Y387890D02*
X340854D01*
X317500Y314179D02*
X336254D01*
X355000Y487500D02*
Y502422D01*
X366500Y434000D02*
Y476000D01*
X340000Y502422D02*
X370000D01*
X317500Y514179D02*
X336254D01*
X332110Y587890D02*
X340854D01*
X325000Y595000D02*
X332110Y587890D01*
X311967Y556967D02*
X315000Y560000D01*
X311967Y552955D02*
Y556967D01*
X700000Y512500D02*
X702268D01*
X710723Y520955D01*
X717500Y514179D02*
X736254D01*
X707500Y524179D02*
X717500Y514179D01*
X769967Y567044D02*
X770000Y567078D01*
Y595000D01*
X782500Y571875D02*
Y582500D01*
X781096Y526096D02*
X787500Y532500D01*
X366000Y650500D02*
Y674000D01*
X355000Y685000D02*
X366000Y674000D01*
X355000Y685000D02*
Y702500D01*
X340000D02*
X370000D01*
X311967Y752955D02*
Y756967D01*
X315000Y760000D01*
X340854Y787890D02*
X344610D01*
X347500Y785000D01*
X317500Y714179D02*
X336254D01*
D16*
X659500Y658000D02*
X692500Y625000D01*
X550000Y658000D02*
X659500D01*
X692500Y625000D02*
X722500D01*
X735000Y637500D01*
Y650500D01*
X386500Y471500D02*
X405000Y490000D01*
X450500Y386000D02*
X469000D01*
X477500Y377500D01*
Y342500D02*
Y377500D01*
X650500Y385500D02*
X669000D01*
X723500Y477500D02*
X758500D01*
X715000Y469000D02*
X723500Y477500D01*
X715000Y450500D02*
Y469000D01*
X723500Y677500D02*
X758500D01*
X715000Y669000D02*
X723500Y677500D01*
X715000Y650500D02*
Y669000D01*
X623500Y724000D02*
Y759000D01*
Y724000D02*
X632000Y715500D01*
X650500D01*
X423500Y723500D02*
Y758500D01*
Y723500D02*
X432000Y715000D01*
X450500D01*
X342500Y623500D02*
X377500D01*
X386000Y632000D01*
Y650500D01*
X458748Y489252D02*
X491752D01*
X603500Y499500D02*
X611748Y491252D01*
Y458248D02*
Y491252D01*
X601500Y603000D02*
X609748Y611248D01*
X642752D01*
X489752Y609248D02*
X498000Y601000D01*
X489752Y609248D02*
Y642252D01*
X692500Y342500D02*
Y362000D01*
X669000Y385500D02*
X692500Y362000D01*
X342500Y405000D02*
X365000D01*
X386500Y426500D01*
Y471500D01*
X405000Y490000D02*
X492500D01*
X491752Y489252D02*
X500000Y497500D01*
X735000Y435000D02*
Y450500D01*
X727500Y427500D02*
X735000Y435000D01*
X692500Y427500D02*
X727500D01*
X682500Y495000D02*
X700000Y512500D01*
X682500Y437500D02*
X692500Y427500D01*
X682500Y437500D02*
Y495000D01*
D17*
X650500Y735500D02*
X675000D01*
X685744Y724756D02*
X707500D01*
X675000Y735500D02*
X685744Y724756D01*
X475000Y735000D02*
X485744Y724257D01*
X507500D01*
X450500Y735000D02*
X475000D01*
D18*
X735000Y650500D02*
D03*
X650500Y735500D02*
D03*
X450500Y735000D02*
D03*
X366000Y650500D02*
D03*
X366500Y450500D02*
D03*
X450500Y366000D02*
D03*
X650500Y365500D02*
D03*
X735000Y450500D02*
D03*
D19*
X715000Y650500D02*
D03*
X386000D02*
D03*
X386500Y450500D02*
D03*
X715000D02*
D03*
D20*
X650500Y715500D02*
D03*
X450500Y715000D02*
D03*
Y386000D02*
D03*
X650500Y385500D02*
D03*
D21*
X450500Y775500D02*
D03*
X650500D02*
D03*
X775500Y650500D02*
D03*
Y450500D02*
D03*
X325500Y650500D02*
D03*
Y450500D02*
D03*
X450500Y325500D02*
D03*
X650500D02*
D03*
D22*
X757500Y460000D02*
D03*
X443000Y550000D02*
D03*
X550000Y442500D02*
D03*
X658500Y550000D02*
D03*
X550000Y658000D02*
D03*
X757500Y610000D02*
D03*
X787500Y790000D02*
D03*
X772500Y392500D02*
D03*
X770000Y595000D02*
D03*
X782500Y782500D02*
D03*
X497500Y582500D02*
D03*
X697500Y782500D02*
D03*
X352002Y754034D02*
D03*
X552002D02*
D03*
X752002D02*
D03*
Y554034D02*
D03*
X552002Y553534D02*
D03*
X352002Y554034D02*
D03*
Y354034D02*
D03*
X552002D02*
D03*
X752002D02*
D03*
X477500Y342500D02*
D03*
X692500D02*
D03*
X758500Y477500D02*
D03*
Y677500D02*
D03*
X623500Y759000D02*
D03*
X423500Y758500D02*
D03*
X342500Y623500D02*
D03*
Y405000D02*
D03*
X458748Y489252D02*
D03*
X500000Y497500D02*
D03*
X603500Y499500D02*
D03*
X611748Y458248D02*
D03*
X601500Y603000D02*
D03*
X642752Y611248D02*
D03*
X498000Y601000D02*
D03*
X489752Y642252D02*
D03*
X567500Y792500D02*
D03*
X767500D02*
D03*
X567500Y592000D02*
D03*
X415000Y782500D02*
D03*
X455000Y665000D02*
D03*
X752500Y420000D02*
D03*
X587500Y475000D02*
D03*
X782500Y382500D02*
D03*
X787500Y332500D02*
D03*
X717743Y314756D02*
D03*
X517500Y314179D02*
D03*
X600000Y334922D02*
D03*
X315000Y360000D02*
D03*
X317500Y314179D02*
D03*
X325000Y395000D02*
D03*
Y595000D02*
D03*
X317500Y514179D02*
D03*
X315000Y560000D02*
D03*
X787500Y532500D02*
D03*
X782500Y582500D02*
D03*
X315000Y760000D02*
D03*
X317500Y714179D02*
D03*
X347500Y785000D02*
D03*
M02*
