%FSLAX25Y25*%
%MOIN*%
G70*
G01*
G75*
G04 Layer_Color=33789*
%ADD10R,0.05906X0.05906*%
%ADD11R,0.05906X0.05906*%
%ADD12C,0.02500*%
%ADD13C,0.16500*%
%ADD14C,0.04000*%
%ADD15R,0.17716X0.12205*%
%ADD16R,0.05000X0.08000*%
%ADD17C,0.01000*%
D12*
X567000Y520600D02*
X572000Y515600D01*
X567000Y510600D02*
X572000Y515600D01*
X559500D02*
X572000D01*
X502738Y566230D02*
X515238D01*
X510238Y561230D02*
X515238Y566230D01*
X510238Y571230D02*
X515238Y566230D01*
D17*
X552474Y507057D02*
Y509026D01*
X521962Y507057D02*
X552474D01*
X521962D02*
Y509026D01*
X552474Y572018D02*
Y573986D01*
X521962D02*
X552474D01*
X521962Y572018D02*
Y573986D01*
X500000Y500000D02*
Y605000D01*
Y500000D02*
X575000D01*
Y605000D01*
X500000D02*
X575000D01*
X528484Y586016D02*
X545516D01*
Y576984D02*
Y586016D01*
X528484Y576984D02*
X545516D01*
X528484D02*
Y586016D01*
X559168Y507498D02*
X560834D01*
X560001D01*
Y503333D01*
X560834Y502500D01*
X561667D01*
X562500Y503333D01*
X557502Y502500D02*
X555835D01*
X556669D01*
Y507498D01*
X557502Y506665D01*
X551668Y581665D02*
X552501Y582498D01*
X554167D01*
X555000Y581665D01*
Y578333D01*
X554167Y577500D01*
X552501D01*
X551668Y578333D01*
X550002Y577500D02*
X548336D01*
X549169D01*
Y582498D01*
X550002Y581665D01*
X569998Y533999D02*
X570998Y532999D01*
Y531000D01*
X569998Y530000D01*
X566000D01*
X565000Y531000D01*
Y532999D01*
X566000Y533999D01*
X567999D01*
Y531999D01*
X570998Y560000D02*
X565000D01*
Y562999D01*
X566000Y563999D01*
X569998D01*
X570998Y562999D01*
Y560000D01*
Y565998D02*
Y567997D01*
Y566998D01*
X565000D01*
Y565998D01*
Y567997D01*
X507240Y555630D02*
X511239D01*
X513238Y553631D01*
X511239Y551631D01*
X507240D01*
X510239Y549632D02*
Y545633D01*
X508240Y547633D02*
X512239D01*
X507240Y520630D02*
X513238D01*
Y517631D01*
X512239Y516631D01*
X508240D01*
X507240Y517631D01*
Y520630D01*
Y511633D02*
Y513632D01*
X508240Y514632D01*
X512239D01*
X513238Y513632D01*
Y511633D01*
X512239Y510633D01*
X508240D01*
X507240Y511633D01*
X508240Y531631D02*
X507240Y532631D01*
Y534630D01*
X508240Y535630D01*
X512239D01*
X513238Y534630D01*
Y532631D01*
X512239Y531631D01*
X510239D01*
Y533631D01*
X570998Y542500D02*
X566999D01*
X565000Y544499D01*
X566999Y546499D01*
X570998D01*
X567999Y548498D02*
Y552497D01*
X569998Y550497D02*
X566000D01*
X546668Y602498D02*
X550000D01*
Y599999D01*
X548334Y600832D01*
X547501D01*
X546668Y599999D01*
Y598333D01*
X547501Y597500D01*
X549167D01*
X550000Y598333D01*
X545002Y601665D02*
X544169Y602498D01*
X542502D01*
X541669Y601665D01*
Y598333D01*
X542502Y597500D01*
X544169D01*
X545002Y598333D01*
Y601665D01*
X536671Y602498D02*
X540003D01*
Y599999D01*
X538337Y600832D01*
X537504D01*
X536671Y599999D01*
Y598333D01*
X537504Y597500D01*
X539170D01*
X540003Y598333D01*
X535005Y597500D02*
X533339D01*
X534172D01*
Y602498D01*
X535005Y601665D01*
X530839Y598333D02*
X530007Y597500D01*
X528340D01*
X527507Y598333D01*
Y601665D01*
X528340Y602498D01*
X530007D01*
X530839Y601665D01*
Y600832D01*
X530007Y599999D01*
X527507D01*
X525841Y597500D02*
X524175D01*
X525008D01*
Y602498D01*
X525841Y601665D01*
X545000Y594998D02*
Y591666D01*
X543334Y590000D01*
X541668Y591666D01*
Y594998D01*
X540002Y590000D02*
X538336D01*
X539169D01*
Y594998D01*
X540002Y594165D01*
X535836D02*
X535003Y594998D01*
X533337D01*
X532504Y594165D01*
Y590833D01*
X533337Y590000D01*
X535003D01*
X535836Y590833D01*
Y594165D01*
X530838Y590000D02*
X529172D01*
X530005D01*
Y594998D01*
X530838Y594165D01*
M02*
