%FSLAX25Y25*%
%MOIN*%
G70*
G01*
G75*
G04 Layer_Physical_Order=1*
G04 Layer_Color=255*
%ADD10R,0.05906X0.05906*%
%ADD11R,0.05906X0.05906*%
%ADD12C,0.02500*%
%ADD13C,0.16500*%
%ADD14C,0.04000*%
G36*
X521402Y537937D02*
D01*
D01*
X521402Y537937D01*
X521402Y537063D01*
X521402D01*
Y534307D01*
X512937D01*
Y524791D01*
X507500D01*
X506260Y524628D01*
X505104Y524149D01*
X504112Y523388D01*
X503886Y523161D01*
X502500Y523735D01*
Y540693D01*
X512063D01*
Y540693D01*
X512063D01*
X512063Y540693D01*
X512937D01*
Y540693D01*
X521402D01*
Y537937D01*
D02*
G37*
G36*
X537222Y541002D02*
X538215Y540241D01*
X539370Y539762D01*
X540610Y539599D01*
X540693D01*
Y537937D01*
X553598D01*
Y540693D01*
X556519D01*
X557353Y539446D01*
X557142Y538936D01*
X556952Y537500D01*
X557142Y536064D01*
X557696Y534726D01*
X558577Y533577D01*
X559726Y532696D01*
X561064Y532142D01*
X562500Y531952D01*
X562937Y531569D01*
Y521402D01*
X562937Y521402D01*
X562937D01*
X562861Y520824D01*
X562500Y520547D01*
X561064Y520358D01*
X559726Y519804D01*
X558577Y518923D01*
X557696Y517774D01*
X557142Y516436D01*
X556952Y515000D01*
X557142Y513564D01*
X557696Y512226D01*
X558577Y511077D01*
X559726Y510196D01*
X561064Y509642D01*
X562500Y509452D01*
X563936Y509642D01*
X565274Y510196D01*
X565351Y510255D01*
X566240Y510372D01*
X567057Y510711D01*
X567395Y510851D01*
X568388Y511612D01*
X571114Y514339D01*
X572500Y513765D01*
Y502500D01*
X534307D01*
Y512063D01*
D01*
Y512063D01*
X534307Y512063D01*
Y512937D01*
X534307D01*
Y516958D01*
X535693Y517532D01*
X537222Y516002D01*
X538215Y515241D01*
X539370Y514762D01*
X540610Y514599D01*
X540693D01*
Y512937D01*
X553598D01*
Y525843D01*
X542291D01*
Y527500D01*
D01*
D01*
D01*
D01*
X542291D01*
D01*
D01*
D01*
D01*
D01*
X542291D01*
Y527500D01*
D01*
D01*
Y527500D01*
D01*
D01*
D01*
D01*
D01*
D01*
D01*
D01*
D01*
D01*
D01*
D01*
Y527500D01*
D01*
X542291D01*
D01*
D01*
D01*
D01*
D01*
D01*
D01*
X542291Y527500D01*
D01*
D01*
D01*
X542128Y528740D01*
X541649Y529895D01*
X540888Y530888D01*
X537778Y533998D01*
X536785Y534759D01*
X535630Y535238D01*
X534390Y535401D01*
X534307D01*
Y537063D01*
D01*
Y537063D01*
X534307Y537063D01*
X534307Y537937D01*
X534307D01*
Y541958D01*
X535693Y542532D01*
X537222Y541002D01*
D02*
G37*
G36*
X527709Y582977D02*
Y576020D01*
X527532Y575843D01*
X521402D01*
Y574117D01*
X520650Y574017D01*
X519494Y573539D01*
X518502Y572778D01*
X516002Y570278D01*
X515241Y569285D01*
X513923Y568923D01*
X513923D01*
X512774Y569804D01*
X511436Y570358D01*
X510000Y570547D01*
X508564Y570358D01*
X507226Y569804D01*
X506077Y568923D01*
X505196Y567774D01*
X504663Y566487D01*
X503277Y565913D01*
X502500Y566235D01*
Y577741D01*
X503809Y578474D01*
X504986Y577753D01*
X507385Y576759D01*
X509911Y576153D01*
X512500Y575949D01*
X515089Y576153D01*
X517615Y576759D01*
X520014Y577753D01*
X522228Y579110D01*
X524203Y580797D01*
X525890Y582772D01*
X526265Y583384D01*
X527709Y582977D01*
D02*
G37*
G36*
X548474Y601191D02*
X547753Y600014D01*
X546759Y597614D01*
X546153Y595089D01*
X545949Y592500D01*
X546153Y589911D01*
X546759Y587386D01*
X547753Y584986D01*
X549110Y582772D01*
X550797Y580797D01*
X552772Y579110D01*
X554986Y577753D01*
X557385Y576759D01*
X559911Y576153D01*
X562500Y575949D01*
X565089Y576153D01*
X567615Y576759D01*
X570014Y577753D01*
X571191Y578474D01*
X572500Y577741D01*
Y553598D01*
X562937D01*
D01*
D01*
X562937Y553598D01*
X562063D01*
Y553598D01*
X560401D01*
Y566890D01*
X560238Y568130D01*
X559759Y569285D01*
X558998Y570278D01*
X556498Y572778D01*
X555506Y573539D01*
X555167Y573679D01*
X554350Y574017D01*
X553598Y574117D01*
Y575843D01*
X540693D01*
Y562937D01*
X550819D01*
Y553598D01*
X549157D01*
Y550843D01*
X542291D01*
Y552500D01*
X542128Y553740D01*
X541649Y554895D01*
X540888Y555888D01*
X537778Y558998D01*
D01*
X537778Y558998D01*
D01*
D01*
D01*
X537778Y558998D01*
X537778Y558998D01*
X536785Y559759D01*
X536447Y559900D01*
X535630Y560238D01*
X534390Y560401D01*
X534307D01*
Y562063D01*
D01*
Y562063D01*
X534307Y562063D01*
Y562937D01*
X534307D01*
Y569067D01*
X535888Y570648D01*
X536649Y571640D01*
X536789Y571978D01*
X537128Y572795D01*
X537291Y574035D01*
Y584709D01*
X537304Y584726D01*
X537858Y586064D01*
X538048Y587500D01*
X537858Y588936D01*
X537304Y590274D01*
X536423Y591423D01*
X535274Y592304D01*
X533936Y592858D01*
X532500Y593048D01*
X531064Y592858D01*
X530266Y592528D01*
X528987Y593312D01*
X528847Y595089D01*
X528241Y597614D01*
X527247Y600014D01*
X525890Y602228D01*
X526015Y602500D01*
X547741D01*
X548474Y601191D01*
D02*
G37*
D10*
X547146Y530610D02*
D03*
X527854Y544390D02*
D03*
X527854Y530610D02*
D03*
X547146Y519390D02*
D03*
Y505610D02*
D03*
X527854Y519390D02*
D03*
Y505610D02*
D03*
X547146Y544390D02*
D03*
X527854Y555610D02*
D03*
Y569390D02*
D03*
X547146Y555610D02*
D03*
Y569390D02*
D03*
D11*
X519390Y527854D02*
D03*
X505610D02*
D03*
X519390Y547146D02*
D03*
X505610D02*
D03*
X555610Y547146D02*
D03*
X569390D02*
D03*
X555610Y527854D02*
D03*
X569390D02*
D03*
D12*
X519390Y521890D02*
Y527854D01*
X507500Y520000D02*
X517500D01*
X519390Y521890D01*
X505610Y547146D02*
Y560610D01*
X510000Y565000D01*
X527854Y555610D02*
X534390D01*
X537500Y552500D01*
Y547500D02*
Y552500D01*
Y547500D02*
X540610Y544390D01*
X547146D01*
X540610Y519390D02*
X547146D01*
X537500Y522500D02*
X540610Y519390D01*
X537500Y522500D02*
Y527500D01*
X534390Y530610D02*
X537500Y527500D01*
X527854Y530610D02*
X534390D01*
X547146Y569390D02*
X553110D01*
X555610Y547146D02*
Y566890D01*
X553110Y569390D02*
X555610Y566890D01*
X547146Y530610D02*
X552854D01*
X555610Y527854D01*
X547146Y505610D02*
X547756Y505000D01*
X547146Y505610D02*
X553721D01*
X555610Y507500D01*
Y527854D01*
X519390Y547146D02*
X525098D01*
X527854Y544390D01*
X519390Y547146D02*
X520000Y547756D01*
X527244Y570000D02*
X527854Y569390D01*
X519390Y547146D02*
Y566890D01*
X521890Y569390D01*
X527854D01*
X532500Y574035D01*
Y587500D01*
X540000Y562756D02*
X547146Y555610D01*
X540000Y562756D02*
Y587500D01*
X569390Y541890D02*
Y547146D01*
X565000Y537500D02*
X569390Y541890D01*
X562500Y537500D02*
X565000D01*
X505610Y527854D02*
Y533110D01*
X510000Y537500D01*
X505000Y517500D02*
X507500Y520000D01*
X505000Y507500D02*
Y517500D01*
Y507500D02*
X507500Y505000D01*
X527244D01*
X527854Y505610D01*
X526890Y519390D02*
X527854D01*
X520000Y512500D02*
X526890Y519390D01*
X510000Y512500D02*
X520000D01*
X555610Y507500D02*
X567500D01*
X562500Y515000D02*
X565000D01*
X569390Y519390D01*
Y527854D01*
D13*
X512500Y592500D02*
D03*
X562500D02*
D03*
D14*
Y537500D02*
D03*
Y515000D02*
D03*
X510000Y537500D02*
D03*
Y565000D02*
D03*
Y512500D02*
D03*
X532500Y587500D02*
D03*
X540000D02*
D03*
X567500Y507500D02*
D03*
M02*
