%FSLAX25Y25*%
%MOIN*%
G70*
G01*
G75*
G04 Layer_Color=65535*
%ADD10R,0.08000X0.05000*%
%ADD11R,0.05906X0.03937*%
%ADD12C,0.02500*%
%ADD13C,0.16500*%
%ADD14C,0.04000*%
%ADD15R,0.12205X0.17716*%
%ADD16C,0.01000*%
D16*
X524500Y587500D02*
G03*
X524500Y587500I-12000J0D01*
G01*
X649500Y537500D02*
G03*
X649500Y537500I-12000J0D01*
G01*
X588568Y595504D02*
G03*
X588568Y595504I-984J0D01*
G01*
X588668Y553905D02*
G03*
X588668Y553905I-984J0D01*
G01*
X563321Y529496D02*
G03*
X563321Y529496I-984J0D01*
G01*
X563301Y570995D02*
G03*
X563301Y570995I-984J0D01*
G01*
X532500Y525000D02*
Y600000D01*
X525000Y525000D02*
Y600000D01*
X617500Y525000D02*
Y600000D01*
X625000Y525000D02*
Y600000D01*
X599984Y554084D02*
X609016D01*
X599984D02*
Y571116D01*
X609016D01*
Y554084D02*
Y571116D01*
X572984Y592416D02*
X582016D01*
Y575384D02*
Y592416D01*
X572984Y575384D02*
X582016D01*
X572984D02*
Y592416D01*
X588484Y571116D02*
X597516D01*
Y554084D02*
Y571116D01*
X588484Y554084D02*
X597516D01*
X588484D02*
Y571116D01*
X576484Y570916D02*
X585516D01*
Y553884D02*
Y570916D01*
X576484Y553884D02*
X585516D01*
X576484D02*
Y570916D01*
X568484Y529984D02*
X577516D01*
X568484D02*
Y547016D01*
X577516D01*
Y529984D02*
Y547016D01*
X560984Y570916D02*
X570016D01*
Y553884D02*
Y570916D01*
X560984Y553884D02*
X570016D01*
X560984D02*
Y570916D01*
X533584Y553984D02*
X542616D01*
X533584D02*
Y571016D01*
X542616D01*
Y553984D02*
Y571016D01*
X545384Y553484D02*
X554416D01*
X545384D02*
Y570516D01*
X554416D01*
Y553484D02*
Y570516D01*
X500000Y525000D02*
Y600000D01*
Y525000D02*
X650000D01*
Y600000D01*
X500000D02*
X650000D01*
X589552Y588614D02*
X593489Y592551D01*
X586599Y573850D02*
X605300D01*
X586599Y592551D02*
X605300D01*
X586699Y550953D02*
X605400D01*
X586699Y532252D02*
X605400D01*
X589652Y547016D02*
X593589Y550953D01*
X556431Y532449D02*
X560368Y536386D01*
X544621Y551150D02*
X563321D01*
X544621Y532449D02*
X563321D01*
X544600Y573948D02*
X563301D01*
X544600Y592649D02*
X563301D01*
X556411Y573948D02*
X560348Y577885D01*
X537832Y564165D02*
X536999Y564998D01*
X535333D01*
X534500Y564165D01*
Y560833D01*
X535333Y560000D01*
X536999D01*
X537832Y560833D01*
X539498Y560000D02*
X541164D01*
X540331D01*
Y564998D01*
X539498Y564165D01*
X572732Y528565D02*
X571899Y529398D01*
X570233D01*
X569400Y528565D01*
Y525233D01*
X570233Y524400D01*
X571899D01*
X572732Y525233D01*
X577731Y524400D02*
X574398D01*
X577731Y527732D01*
Y528565D01*
X576898Y529398D01*
X575231D01*
X574398Y528565D01*
X592132Y564165D02*
X591299Y564998D01*
X589633D01*
X588800Y564165D01*
Y560833D01*
X589633Y560000D01*
X591299D01*
X592132Y560833D01*
X593798Y564165D02*
X594631Y564998D01*
X596298D01*
X597131Y564165D01*
Y563332D01*
X596298Y562499D01*
X595465D01*
X596298D01*
X597131Y561666D01*
Y560833D01*
X596298Y560000D01*
X594631D01*
X593798Y560833D01*
X603832Y564165D02*
X602999Y564998D01*
X601333D01*
X600500Y564165D01*
Y560833D01*
X601333Y560000D01*
X602999D01*
X603832Y560833D01*
X607998Y560000D02*
Y564998D01*
X605498Y562499D01*
X608831D01*
X537000Y597998D02*
Y593000D01*
X539499D01*
X540332Y593833D01*
Y597165D01*
X539499Y597998D01*
X537000D01*
X541998Y593000D02*
X543665D01*
X542831D01*
Y597998D01*
X541998Y597165D01*
X534500Y531998D02*
Y527000D01*
X536999D01*
X537832Y527833D01*
Y531165D01*
X536999Y531998D01*
X534500D01*
X542831Y527000D02*
X539498D01*
X542831Y530332D01*
Y531165D01*
X541998Y531998D01*
X540331D01*
X539498Y531165D01*
X607500Y531998D02*
Y527000D01*
X609999D01*
X610832Y527833D01*
Y531165D01*
X609999Y531998D01*
X607500D01*
X612498Y531165D02*
X613331Y531998D01*
X614998D01*
X615831Y531165D01*
Y530332D01*
X614998Y529499D01*
X614164D01*
X614998D01*
X615831Y528666D01*
Y527833D01*
X614998Y527000D01*
X613331D01*
X612498Y527833D01*
X607500Y597998D02*
Y593000D01*
X609999D01*
X610832Y593833D01*
Y597165D01*
X609999Y597998D01*
X607500D01*
X614998Y593000D02*
Y597998D01*
X612498Y595499D01*
X615831D01*
X547100Y559600D02*
Y564598D01*
X549599D01*
X550432Y563765D01*
Y562099D01*
X549599Y561266D01*
X547100D01*
X548766D02*
X550432Y559600D01*
X552098D02*
X553764D01*
X552931D01*
Y564598D01*
X552098Y563765D01*
X561300Y560000D02*
Y564998D01*
X563799D01*
X564632Y564165D01*
Y562499D01*
X563799Y561666D01*
X561300D01*
X562966D02*
X564632Y560000D01*
X569631D02*
X566298D01*
X569631Y563332D01*
Y564165D01*
X568798Y564998D01*
X567131D01*
X566298Y564165D01*
X577000Y560000D02*
Y564998D01*
X579499D01*
X580332Y564165D01*
Y562499D01*
X579499Y561666D01*
X577000D01*
X578666D02*
X580332Y560000D01*
X581998Y564165D02*
X582831Y564998D01*
X584498D01*
X585331Y564165D01*
Y563332D01*
X584498Y562499D01*
X583665D01*
X584498D01*
X585331Y561666D01*
Y560833D01*
X584498Y560000D01*
X582831D01*
X581998Y560833D01*
X581400Y574000D02*
Y569002D01*
X578901D01*
X578068Y569835D01*
Y571501D01*
X578901Y572334D01*
X581400D01*
X579734D02*
X578068Y574000D01*
X573902D02*
Y569002D01*
X576402Y571501D01*
X573069D01*
M02*
