%FSLAX25Y25*%
%MOIN*%
G70*
G01*
G75*
G04 Layer_Color=33789*
%ADD10R,0.08000X0.05000*%
%ADD11R,0.05906X0.03937*%
%ADD12C,0.02500*%
%ADD13C,0.16500*%
%ADD14C,0.04000*%
%ADD15R,0.12205X0.17716*%
%ADD16C,0.01000*%
D12*
X550000Y585000D02*
X555000Y590000D01*
X545000D02*
X550000Y585000D01*
Y597500D01*
X600000Y527500D02*
X605000Y532500D01*
X595000D02*
X600000Y527500D01*
Y540000D01*
D16*
X606574Y577859D02*
X608542D01*
Y547347D02*
Y577859D01*
X606574Y547347D02*
X608542D01*
X541613Y577859D02*
X543582D01*
X541613Y547347D02*
Y577859D01*
Y547347D02*
X543582D01*
X500000Y525000D02*
Y600000D01*
Y525000D02*
X650000D01*
Y600000D01*
X500000D02*
X650000D01*
X610293Y597649D02*
X611959D01*
X611126D01*
Y593484D01*
X611959Y592651D01*
X612792D01*
X613625Y593484D01*
X608627Y592651D02*
X606960D01*
X607794D01*
Y597649D01*
X608627Y596816D01*
X512502Y563501D02*
X511502Y564501D01*
Y566500D01*
X512502Y567500D01*
X516500D01*
X517500Y566500D01*
Y564501D01*
X516500Y563501D01*
X511502Y558503D02*
Y560502D01*
X512502Y561502D01*
X516500D01*
X517500Y560502D01*
Y558503D01*
X516500Y557503D01*
X512502D01*
X511502Y558503D01*
Y555504D02*
X517500Y551505D01*
X511502D02*
X517500Y555504D01*
X532110Y590770D02*
Y594768D01*
X535109D01*
X534110Y592769D01*
Y591769D01*
X535109Y590770D01*
X537109D01*
X538108Y591769D01*
Y593769D01*
X537109Y594768D01*
X533110Y588770D02*
X532110Y587771D01*
Y585771D01*
X533110Y584772D01*
X537109D01*
X538108Y585771D01*
Y587771D01*
X537109Y588770D01*
X533110D01*
X532110Y578774D02*
Y582772D01*
X535109D01*
X534110Y580773D01*
Y579773D01*
X535109Y578774D01*
X537109D01*
X538108Y579773D01*
Y581773D01*
X537109Y582772D01*
X538108Y576774D02*
Y574775D01*
Y575775D01*
X532110D01*
X533110Y576774D01*
X532110Y567777D02*
Y571776D01*
X535109D01*
X534110Y569776D01*
Y568777D01*
X535109Y567777D01*
X537109D01*
X538108Y568777D01*
Y570776D01*
X537109Y571776D01*
X538108Y561779D02*
Y565778D01*
X534110Y561779D01*
X533110D01*
X532110Y562779D01*
Y564778D01*
X533110Y565778D01*
X534110Y553782D02*
X538108Y551782D01*
X534110Y549783D01*
X538108Y547784D02*
Y545784D01*
Y546784D01*
X532110D01*
X533110Y547784D01*
Y542785D02*
X532110Y541786D01*
Y539786D01*
X533110Y538787D01*
X537109D01*
X538108Y539786D01*
Y541786D01*
X537109Y542785D01*
X533110D01*
X538108Y536787D02*
Y534788D01*
Y535787D01*
X532110D01*
X533110Y536787D01*
X521001Y563501D02*
Y566500D01*
X522001Y567500D01*
X524000D01*
X525000Y566500D01*
Y563501D01*
Y557503D02*
Y561502D01*
X521001Y557503D01*
X520002D01*
X519002Y558503D01*
Y560502D01*
X520002Y561502D01*
Y555504D02*
X519002Y554504D01*
Y552505D01*
X520002Y551505D01*
X524000D01*
X525000Y552505D01*
Y554504D01*
X524000Y555504D01*
X520002D01*
X525000Y549506D02*
Y547507D01*
Y548506D01*
X519002D01*
X520002Y549506D01*
X519002Y540509D02*
Y544507D01*
X522001D01*
X521001Y542508D01*
Y541508D01*
X522001Y540509D01*
X524000D01*
X525000Y541508D01*
Y543508D01*
X524000Y544507D01*
X617500Y592500D02*
Y589501D01*
X616500Y588501D01*
X615501Y589501D01*
Y591500D01*
X614501Y592500D01*
X613501Y591500D01*
Y588501D01*
X619499Y586502D02*
X613501D01*
Y583503D01*
X614501Y582503D01*
X616500D01*
X617500Y583503D01*
Y586502D01*
X613501Y579504D02*
Y577505D01*
X614501Y576505D01*
X617500D01*
Y579504D01*
X616500Y580504D01*
X615501Y579504D01*
Y576505D01*
X613501Y570507D02*
Y573506D01*
X614501Y574506D01*
X616500D01*
X617500Y573506D01*
Y570507D01*
Y565509D02*
Y567508D01*
X616500Y568508D01*
X614501D01*
X613501Y567508D01*
Y565509D01*
X614501Y564509D01*
X615501D01*
Y568508D01*
X614501Y562510D02*
Y558511D01*
X617500Y553513D02*
Y555512D01*
X616500Y556512D01*
X614501D01*
X613501Y555512D01*
Y553513D01*
X614501Y552513D01*
X615501D01*
Y556512D01*
X617500Y550514D02*
Y548514D01*
Y549514D01*
X613501D01*
Y550514D01*
X619499Y543516D02*
Y542516D01*
X618500Y541516D01*
X613501D01*
Y544516D01*
X614501Y545515D01*
X616500D01*
X617500Y544516D01*
Y541516D01*
X611502Y539517D02*
X617500D01*
X614501D01*
X613501Y538518D01*
Y536518D01*
X614501Y535518D01*
X617500D01*
X612502Y532519D02*
X613501D01*
Y533519D01*
Y531520D01*
Y532519D01*
X616500D01*
X617500Y531520D01*
X504002Y567500D02*
X510000D01*
Y564501D01*
X509000Y563501D01*
X508001D01*
X507001Y564501D01*
Y567500D01*
Y564501D01*
X506001Y563501D01*
X505002D01*
X504002Y564501D01*
Y567500D01*
X510000Y561502D02*
X504002D01*
Y558503D01*
X505002Y557503D01*
X507001D01*
X508001Y558503D01*
Y561502D01*
Y559503D02*
X510000Y557503D01*
X504002Y555504D02*
Y553505D01*
Y554504D01*
X510000D01*
Y555504D01*
Y553505D01*
Y550505D02*
X506001D01*
X504002Y548506D01*
X506001Y546507D01*
X510000D01*
X507001D01*
Y550505D01*
X510000Y544507D02*
X504002D01*
X510000Y540509D01*
X504002D01*
X586001Y534998D02*
X587001Y535998D01*
X589000D01*
X590000Y534998D01*
Y531000D01*
X589000Y530000D01*
X587001D01*
X586001Y531000D01*
Y532999D01*
X588001D01*
X584002Y530000D02*
Y535998D01*
X580003Y530000D01*
Y535998D01*
X578004D02*
Y530000D01*
X575005D01*
X574005Y531000D01*
Y534998D01*
X575005Y535998D01*
X578004D01*
X600000Y595998D02*
Y590000D01*
X597001D01*
X596001Y591000D01*
Y594998D01*
X597001Y595998D01*
X600000D01*
X594002D02*
X592003D01*
X593002D01*
Y590000D01*
X594002D01*
X592003D01*
X575000Y595398D02*
Y591399D01*
X573001Y589400D01*
X571001Y591399D01*
Y595398D01*
X569002D02*
Y589400D01*
X566003D01*
X565003Y590400D01*
Y594398D01*
X566003Y595398D01*
X569002D01*
X563004D02*
Y589400D01*
X560005D01*
X559005Y590400D01*
Y594398D01*
X560005Y595398D01*
X563004D01*
X555000Y535998D02*
Y530000D01*
X552001D01*
X551001Y531000D01*
Y534998D01*
X552001Y535998D01*
X555000D01*
X546003D02*
X548002D01*
X549002Y534998D01*
Y531000D01*
X548002Y530000D01*
X546003D01*
X545003Y531000D01*
Y534998D01*
X546003Y535998D01*
M02*
