%FSLAX25Y25*%
%MOIN*%
G70*
G01*
G75*
G04 Layer_Color=128*
%ADD10P,0.08352X4X285.0*%
%ADD11P,0.08352X4X165.0*%
%ADD12R,0.05906X0.05906*%
%ADD13C,0.02500*%
%ADD14C,0.16500*%
%ADD15C,0.04000*%
%ADD16R,0.05000X0.08000*%
%ADD17R,0.17716X0.12205*%
%ADD18C,0.01000*%
%ADD19P,0.06937X4X285.0*%
%ADD20P,0.06937X4X165.0*%
%ADD21R,0.04906X0.04906*%
%ADD22R,0.04000X0.07000*%
%ADD23R,0.16716X0.11205*%
%ADD24P,0.09483X4X285.0*%
%ADD25P,0.09483X4X165.0*%
%ADD26R,0.06706X0.06706*%
%ADD27C,0.17300*%
%ADD28C,0.04800*%
D24*
X452356Y540298D02*
D03*
X464290Y533408D02*
D03*
X442710Y523592D02*
D03*
X454644Y516702D02*
D03*
D25*
X432000Y523500D02*
D03*
X420067Y516610D02*
D03*
X422354Y540207D02*
D03*
X410421Y533317D02*
D03*
D26*
X428000Y549000D02*
D03*
Y562780D02*
D03*
X447291Y549000D02*
D03*
Y562780D02*
D03*
D27*
X412500Y587500D02*
D03*
X462500D02*
D03*
D28*
X437500Y532500D02*
D03*
X405000Y557500D02*
D03*
X467500Y545000D02*
D03*
X405000Y522500D02*
D03*
X430000Y575000D02*
D03*
X445000D02*
D03*
X470000Y522500D02*
D03*
X455000Y560000D02*
D03*
M02*
