%FSLAX25Y25*%
%MOIN*%
G70*
G01*
G75*
G04 Layer_Physical_Order=2*
G04 Layer_Color=65280*
%ADD10P,0.08352X4X285.0*%
%ADD11P,0.08352X4X165.0*%
%ADD12R,0.05906X0.05906*%
%ADD13C,0.02500*%
%ADD14C,0.16500*%
%ADD15C,0.04000*%
%ADD16R,0.05000X0.08000*%
%ADD17R,0.17716X0.12205*%
G36*
X472500Y511265D02*
Y502500D01*
X462465D01*
Y503898D01*
X462465D01*
Y508709D01*
X466000D01*
X467240Y508872D01*
X468057Y509211D01*
X468396Y509351D01*
X469388Y510112D01*
Y510112D01*
X469388D01*
D01*
D01*
D01*
D01*
D01*
D01*
X469388D01*
D01*
X469388D01*
Y510112D01*
D01*
D01*
D01*
D01*
Y510112D01*
D01*
D01*
D01*
D01*
D01*
D01*
Y510112D01*
D01*
D01*
X469388D01*
D01*
D01*
D01*
X471114Y511839D01*
X472500Y511265D01*
D02*
G37*
G36*
X404986Y572753D02*
X407385Y571759D01*
X409911Y571153D01*
X412500Y570949D01*
X413137Y570405D01*
X413142Y570346D01*
X413142Y570346D01*
X413142Y570346D01*
Y551142D01*
X462465D01*
Y570346D01*
X462465D01*
X462500Y570949D01*
X465089Y571153D01*
X467615Y571759D01*
X470014Y572753D01*
X471191Y573474D01*
X472500Y572741D01*
Y528856D01*
X471372Y527867D01*
X470000Y528048D01*
X468564Y527858D01*
X467226Y527304D01*
X466077Y526423D01*
X465196Y525274D01*
X464642Y523936D01*
X464453Y522500D01*
X464642Y521064D01*
X465196Y519726D01*
X465209Y519709D01*
Y519485D01*
X464015Y518291D01*
X462465D01*
Y519646D01*
Y538850D01*
X413142D01*
Y519646D01*
Y503898D01*
X413142D01*
Y503561D01*
X412081Y502500D01*
X402500D01*
Y572741D01*
X403809Y573474D01*
X404986Y572753D01*
D02*
G37*
G36*
X448474Y596191D02*
X447753Y595014D01*
X446759Y592615D01*
X446153Y590089D01*
X446067Y589000D01*
X437000D01*
Y574000D01*
X439315D01*
X439612Y573612D01*
X439639Y573586D01*
X439642Y573564D01*
X440196Y572226D01*
X440606Y571692D01*
X439943Y570346D01*
X418049D01*
X417756Y571818D01*
X420014Y572753D01*
X422228Y574110D01*
X424203Y575797D01*
X425890Y577772D01*
X427247Y579986D01*
X428241Y582385D01*
X428847Y584911D01*
X429051Y587500D01*
X428847Y590089D01*
X428241Y592615D01*
X427247Y595014D01*
X425890Y597228D01*
X426015Y597500D01*
X447741D01*
X448474Y596191D01*
D02*
G37*
D13*
X425500Y529248D02*
X450106D01*
X437500D02*
Y532500D01*
X425500Y513500D02*
X466000D01*
X470000Y517500D02*
Y522500D01*
X466000Y513500D02*
X470000Y517500D01*
X405004Y544996D02*
X450106D01*
X405000Y522500D02*
Y557500D01*
Y545000D02*
X405004Y544996D01*
X450106D02*
X450110Y545000D01*
X467500D01*
X430000Y575000D02*
X432000Y577000D01*
Y581500D01*
X443000Y577000D02*
X445000Y575000D01*
X443000Y577000D02*
Y581500D01*
X425500Y560744D02*
X450106D01*
D14*
X412500Y587500D02*
D03*
X462500D02*
D03*
D15*
X437500Y532500D02*
D03*
X405000Y557500D02*
D03*
X467500Y545000D02*
D03*
X405000Y522500D02*
D03*
X430000Y575000D02*
D03*
X445000D02*
D03*
X470000Y522500D02*
D03*
X455000Y560000D02*
D03*
D16*
X432000Y581500D02*
D03*
X443000D02*
D03*
D17*
X425500Y513500D02*
D03*
Y529248D02*
D03*
Y544996D02*
D03*
X450106Y513500D02*
D03*
Y529248D02*
D03*
Y544996D02*
D03*
X425500Y560744D02*
D03*
X450106D02*
D03*
M02*
