<?xml version="1.0" encoding="UTF-8" standalone="no"?>
<svg
   viewBox="0 0 793.7007874015749 1122.5196850393702"
   width="793.7007874015749"
   height="1122.5196850393702"
   version="1.1"
   id="svg342"
   sodipodi:docname="260106_BRC_1.svg"
   inkscape:version="1.2.2 (b0a84865, 2022-12-01)"
   xml:space="preserve"
   xmlns:inkscape="http://www.inkscape.org/namespaces/inkscape"
   xmlns:sodipodi="http://sodipodi.sourceforge.net/DTD/sodipodi-0.dtd"
   xmlns="http://www.w3.org/2000/svg"
   xmlns:svg="http://www.w3.org/2000/svg"><sodipodi:namedview
     id="namedview344"
     pagecolor="#ffffff"
     bordercolor="#000000"
     borderopacity="0.25"
     inkscape:showpageshadow="2"
     inkscape:pageopacity="0.0"
     inkscape:pagecheckerboard="0"
     inkscape:deskcolor="#d1d1d1"
     showgrid="false"
     inkscape:zoom="0.69108991"
     inkscape:cx="472.44214"
     inkscape:cy="1381.1517"
     inkscape:window-width="1728"
     inkscape:window-height="1051"
     inkscape:window-x="0"
     inkscape:window-y="38"
     inkscape:window-maximized="0"
     inkscape:current-layer="g332" /><desc
     id="desc132">260106_BRC_1.dxf - scale = 25.400000, origin = (0.000000, 0.000000), method = manual</desc><defs
     id="defs146"><marker
       id="DistanceX"
       orient="auto"
       refX="0.0"
       refY="0.0"
       style="overflow:visible"><path
         d="M 3,-3 L -3,3 M 0,-5 L  0,5"
         style="stroke:#000000; stroke-width:0.5"
         id="path134" /></marker><pattern
       id="Hatch"
       patternUnits="userSpaceOnUse"
       width="8"
       height="8"
       x="0"
       y="0"><path
         d="M8 4 l-4,4"
         stroke="#000000"
         stroke-width="0.25"
         linecap="square"
         id="path137" /><path
         d="M6 2 l-4,4"
         stroke="#000000"
         stroke-width="0.25"
         linecap="square"
         id="path139" /><path
         d="M4 0 l-4,4"
         stroke="#000000"
         stroke-width="0.25"
         linecap="square"
         id="path141" /></pattern><symbol
       id="*MODEL_SPACE" /><symbol
       id="*PAPER_SPACE" /><marker
       id="DistanceX-2"
       orient="auto"
       refX="0.0"
       refY="0.0"
       style="overflow:visible"><path
         d="M 3,-3 L -3,3 M 0,-5 L  0,5"
         style="stroke:#000000; stroke-width:0.5"
         id="path4775" /></marker><pattern
       id="Hatch-1"
       patternUnits="userSpaceOnUse"
       width="8"
       height="8"
       x="0"
       y="0"><path
         d="M8 4 l-4,4"
         stroke="#000000"
         stroke-width="0.25"
         linecap="square"
         id="path4778" /><path
         d="M6 2 l-4,4"
         stroke="#000000"
         stroke-width="0.25"
         linecap="square"
         id="path4780" /><path
         d="M4 0 l-4,4"
         stroke="#000000"
         stroke-width="0.25"
         linecap="square"
         id="path4782" /></pattern><symbol
       id="*MODEL_SPACE-3" /><symbol
       id="*PAPER_SPACE-6" /></defs><g
     inkscape:groupmode="layer"
     inkscape:label="0"
     id="g148" /><g
     inkscape:groupmode="layer"
     inkscape:label="LAYER1"
     id="g332"><rect
       style="opacity:1;fill:#000000;stroke:none;stroke-width:1;stroke-linecap:round;stroke-linejoin:round;stroke-dasharray:none;paint-order:stroke fill markers"
       id="rect5938"
       width="366.96863"
       height="247.70383"
       x="0.066331081"
       y="1390.0221" /><path
       id="path5754"
       style="fill:#d4aa00;stroke:#000000;stroke-width:1;stroke-linecap:round;stroke-dasharray:none;fill-opacity:1"
       d="M 34.90625 1428.8203 L 34.90625 1500.8203 C 41.533622 1500.8201 46.90625 1506.1929 46.90625 1512.8203 C 46.90625 1519.4477 41.533622 1524.8201 34.90625 1524.8203 L 34.90625 1596.8203 L 118.90625 1596.8203 C 118.90625 1590.1927 124.2789 1584.8203 130.90625 1584.8203 C 137.5336 1584.8203 142.90625 1590.1927 142.90625 1596.8203 L 214.90625 1596.8203 C 214.90625 1590.1927 220.2789 1584.8203 226.90625 1584.8203 C 233.5336 1584.8203 238.90625 1590.1927 238.90625 1596.8203 L 322.90625 1596.8203 L 322.90625 1524.8203 C 316.2789 1524.8201 310.90625 1519.4477 310.90625 1512.8203 C 310.90625 1506.1929 316.2789 1500.8201 322.90625 1500.8203 L 322.90625 1428.8203 L 238.90625 1428.8203 C 238.90625 1435.4475 233.5336 1440.8203 226.90625 1440.8203 C 220.2789 1440.8203 214.90625 1435.4475 214.90625 1428.8203 L 142.90625 1428.8203 C 142.90625 1435.4475 137.5336 1440.8203 130.90625 1440.8203 C 124.2789 1440.8203 118.90625 1435.4475 118.90625 1428.8203 L 34.90625 1428.8203 z M 58.90625 1440.8203 L 82.90625 1440.8203 C 96.160994 1440.8201 106.90625 1451.5653 106.90625 1464.8203 L 106.90625 1494.8203 C 106.90625 1501.7081 103.9472 1508.2643 98.78125 1512.8203 C 103.9472 1517.3763 106.90625 1523.9321 106.90625 1530.8203 L 106.90625 1560.8203 C 106.90625 1574.0749 96.160994 1584.8201 82.90625 1584.8203 L 64.90625 1584.8203 L 58.90625 1584.8203 L 58.90625 1440.8203 z M 154.90625 1440.8203 L 178.90625 1440.8203 C 192.16102 1440.8201 202.90625 1451.5653 202.90625 1464.8203 L 202.90625 1494.8203 C 202.90625 1501.7081 199.9472 1508.2643 194.78125 1512.8203 C 199.9472 1517.3763 202.90625 1523.9321 202.90625 1530.8203 L 202.90625 1584.8203 L 190.90625 1584.8203 L 190.90625 1530.8203 C 190.90625 1524.1927 185.53361 1518.8201 178.90625 1518.8203 L 166.90625 1518.8203 L 166.90625 1584.8203 L 154.90625 1584.8203 L 154.90625 1440.8203 z M 274.90625 1440.8203 C 288.16103 1440.8203 298.90625 1451.5653 298.90625 1464.8203 L 298.90625 1488.8203 L 286.90625 1488.8203 L 286.90625 1464.8203 C 286.90625 1458.1927 281.53362 1452.8203 274.90625 1452.8203 C 268.27888 1452.8203 262.90625 1458.1927 262.90625 1464.8203 L 262.90625 1560.8203 C 262.90625 1567.4475 268.27888 1572.8203 274.90625 1572.8203 C 281.53362 1572.8203 286.90625 1567.4475 286.90625 1560.8203 L 286.90625 1536.8203 L 298.90625 1536.8203 L 298.90625 1560.8203 C 298.90625 1574.0749 288.16103 1584.8203 274.90625 1584.8203 C 261.65147 1584.8203 250.90625 1574.0749 250.90625 1560.8203 L 250.90625 1464.8203 C 250.90625 1451.5653 261.65147 1440.8203 274.90625 1440.8203 z M 70.90625 1452.8203 L 70.90625 1506.8203 L 82.90625 1506.8203 C 89.533618 1506.8201 94.90625 1501.4475 94.90625 1494.8203 L 94.90625 1464.8203 C 94.90625 1458.1927 89.533618 1452.8201 82.90625 1452.8203 L 70.90625 1452.8203 z M 166.90625 1452.8203 L 166.90625 1506.8203 L 178.90625 1506.8203 C 185.53361 1506.8201 190.90625 1501.4475 190.90625 1494.8203 L 190.90625 1464.8203 C 190.90625 1458.1927 185.53361 1452.8201 178.90625 1452.8203 L 166.90625 1452.8203 z M 130.64648 1472.8223 A 12 12 0 0 1 142.90625 1484.8203 A 12 12 0 0 1 118.90625 1484.8203 A 12 12 0 0 1 128.23633 1473.1211 A 12 12 0 0 1 130.00977 1472.8535 A 12 12 0 0 1 130.64648 1472.8223 z M 226.00977 1472.8535 A 12 12 0 0 1 238.90625 1484.8203 A 12 12 0 0 1 214.90625 1484.8203 A 12 12 0 0 1 224.23633 1473.1211 A 12 12 0 0 1 226.00977 1472.8535 z M 70.90625 1518.8203 L 70.90625 1566.8203 L 70.90625 1572.8203 L 82.90625 1572.8203 C 89.533618 1572.8201 94.90625 1567.4475 94.90625 1560.8203 L 94.90625 1530.8203 C 94.90625 1524.1927 89.533581 1518.8201 76.90625 1518.8203 L 70.90625 1518.8203 z M 130.64648 1528.8223 A 12 12 0 0 1 142.90625 1540.8203 A 12 12 0 0 1 118.90625 1540.8203 A 12 12 0 0 1 128.23633 1529.1211 A 12 12 0 0 1 130.00977 1528.8535 A 12 12 0 0 1 130.64648 1528.8223 z M 224.23633 1529.1211 A 12 12 0 0 1 238.90625 1540.8203 A 12 12 0 0 1 214.90625 1540.8203 A 12 12 0 0 1 224.23633 1529.1211 z " /><rect
       style="opacity:1;fill:#000000;stroke:none;stroke-width:1;stroke-linecap:round;stroke-linejoin:round;stroke-dasharray:none;paint-order:stroke fill markers"
       id="rect1550"
       width="366.96863"
       height="247.70383"
       x="15.597535"
       y="790.12933" /><path
       id="path1367"
       style="fill:#ff6600;stroke:#000000;stroke-width:1;stroke-linecap:round;stroke-dasharray:none"
       d="m 358.86898,467.1911 v -72.00031 c -6.62742,0 -11.99999,-5.37258 -11.99999,-12 0,-6.62742 5.37257,-12 11.99999,-12 V 299.1908 l -84,-1e-5 c 0,6.62741 -5.37258,11.99998 -12,11.99998 -6.62742,0 -12,-5.37257 -12,-11.99998 h -72 c 0,6.62741 -5.37258,11.99998 -12,11.99998 -6.62742,0 -12,-5.37257 -12,-11.99998 l -84.000002,1e-5 0,71.99999 c 6.627421,0 11.999995,5.37258 11.999995,12 0,6.62742 -5.372574,12 -11.999995,12 v 72.00031 l 84.000002,-1.6e-4 c 0,-6.62757 5.37258,-12.00014 12,-12.00014 6.62742,0 12,5.37257 12,12.00014 h 72 c 0,-6.62757 5.37258,-12.00014 12,-12.00014 6.62742,0 12,5.37257 12,12.00014 z"
       sodipodi:nodetypes="ccscccsccscccscccsccscc" /><path
       id="path1343"
       style="fill:#ff00ff;stroke:#000000;stroke-width:1;stroke-linecap:round;stroke-dasharray:none"
       d="M 94.869141 311.19141 L 94.869141 455.19141 L 130.86914 455.19141 C 137.49654 455.19141 142.86914 449.81881 142.86914 443.19141 L 142.86914 389.19141 C 142.86914 387.08497 142.31494 385.01562 141.26172 383.19141 C 142.31494 381.36718 142.86914 379.29783 142.86914 377.19141 L 142.86914 323.19141 C 142.86914 316.56399 137.49654 311.19141 130.86914 311.19141 L 94.869141 311.19141 z M 106.86914 323.19141 L 118.86914 323.19141 L 124.86914 323.19141 C 128.18285 323.19141 130.86914 325.87769 130.86914 329.19141 L 130.86914 371.19141 C 130.86914 374.50509 128.18285 377.1914 124.86914 377.19141 L 118.86914 377.19141 L 106.86914 377.19141 L 106.86914 323.19141 z M 106.86914 389.19141 L 118.86914 389.19141 L 124.86914 389.19141 C 128.18285 389.19141 130.86914 391.8777 130.86914 395.19141 L 130.86914 437.19141 C 130.86914 440.50511 128.18285 443.19141 124.86914 443.19141 L 118.86914 443.19141 L 106.86914 443.19141 L 106.86914 431.19141 L 106.86914 389.19141 z " /><path
       style="fill:none;stroke:#000000;stroke-width:1;stroke-linecap:round;stroke-dasharray:none"
       d="m 226.86898,204.27684 v -60.0003"
       id="path150" /><path
       d="m 226.86898,144.27653 a 6,6 0 0 0 -6,-6"
       style="fill:none;stroke:#000000;stroke-width:1;stroke-linecap:round;stroke-dasharray:none"
       id="path152" /><path
       style="fill:none;stroke:#000000;stroke-width:1;stroke-linecap:round;stroke-dasharray:none"
       d="m 238.86898,138.27654 v 66.0003"
       id="path154" /><path
       style="fill:none;stroke:#000000;stroke-width:1;stroke-linecap:round;stroke-dasharray:none"
       d="m 238.86898,72.27652 v 54.00002"
       id="path156" /><path
       style="fill:none;stroke:#000000;stroke-width:1;stroke-linecap:round;stroke-dasharray:none"
       d="M 190.86898,204.27684 V 60.27652"
       id="path158" /><path
       style="fill:none;stroke:#000000;stroke-width:1;stroke-linecap:round;stroke-dasharray:none"
       d="m 220.86898,72.27652 h -6"
       id="path160" /><path
       d="m 226.86898,78.276525 a 6,6 0 0 0 -6,-6"
       style="fill:none;stroke:#000000;stroke-width:1;stroke-linecap:round;stroke-dasharray:none"
       id="path162" /><path
       style="fill:none;stroke:#000000;stroke-width:1;stroke-linecap:round;stroke-dasharray:none"
       d="m 202.86898,72.27652 h 12"
       id="path164" /><path
       style="fill:none;stroke:#000000;stroke-width:1;stroke-linecap:round;stroke-dasharray:none"
       d="m 202.86898,138.27654 h 12"
       id="path166" /><path
       style="fill:none;stroke:#000000;stroke-width:1;stroke-linecap:round;stroke-dasharray:none"
       d="M 286.86898,192.27684 V 72.27652"
       id="path168" /><path
       d="m 298.86898,60.276525 a 12,12 0 0 0 -12,12"
       style="fill:none;stroke:#000000;stroke-width:1;stroke-linecap:round;stroke-dasharray:none"
       id="path170" /><path
       style="fill:none;stroke:#000000;stroke-width:1;stroke-linecap:round;stroke-dasharray:none"
       d="m 202.86898,126.27654 h 12"
       id="path172" /><path
       style="fill:none;stroke:#000000;stroke-width:1;stroke-linecap:round;stroke-dasharray:none"
       d="m 316.86898,72.27652 h -6"
       id="path174" /><path
       d="m 322.86898,78.276525 a 6,6 0 0 0 -6,-6"
       style="fill:none;stroke:#000000;stroke-width:1;stroke-linecap:round;stroke-dasharray:none"
       id="path176" /><path
       style="fill:none;stroke:#000000;stroke-width:1;stroke-linecap:round;stroke-dasharray:none"
       d="m 190.86898,60.27652 h 36"
       id="path178" /><path
       d="m 238.86898,72.276525 a 12,12 0 0 0 -12,-12"
       style="fill:none;stroke:#000000;stroke-width:1;stroke-linecap:round;stroke-dasharray:none"
       id="path180" /><path
       style="fill:none;stroke:#000000;stroke-width:1;stroke-linecap:round;stroke-dasharray:none"
       d="m 124.86898,138.27654 h -6"
       id="path182" /><path
       d="m 124.86898,126.27653 a 6,6 0 0 0 6,-6"
       style="fill:none;stroke:#000000;stroke-width:1;stroke-linecap:round;stroke-dasharray:none"
       id="path184" /><path
       style="fill:none;stroke:#000000;stroke-width:1;stroke-linecap:round;stroke-dasharray:none"
       d="m 118.86898,126.27654 h 6"
       id="path186" /><path
       style="fill:none;stroke:#000000;stroke-width:1;stroke-linecap:round;stroke-dasharray:none"
       d="m 106.86898,126.27654 h 12"
       id="path188" /><path
       style="fill:none;stroke:#000000;stroke-width:1;stroke-linecap:round;stroke-dasharray:none"
       d="m 118.86898,192.27684 h 6"
       id="path190" /><path
       d="m 124.86898,192.27653 a 6,6 0 0 0 6,-6"
       style="fill:none;stroke:#000000;stroke-width:1;stroke-linecap:round;stroke-dasharray:none"
       id="path192" /><path
       style="fill:none;stroke:#000000;stroke-width:1;stroke-linecap:round;stroke-dasharray:none"
       d="m 304.86898,72.27652 h 6"
       id="path194" /><path
       d="m 304.86898,72.276525 a 6,6 0 0 0 -6,6"
       style="fill:none;stroke:#000000;stroke-width:1;stroke-linecap:round;stroke-dasharray:none"
       id="path196" /><path
       style="fill:none;stroke:#000000;stroke-width:1;stroke-linecap:round;stroke-dasharray:none"
       d="m 304.86898,192.27684 h 6"
       id="path198" /><path
       d="m 298.86898,186.27653 a 6,6 0 0 0 6,6"
       style="fill:none;stroke:#000000;stroke-width:1;stroke-linecap:round;stroke-dasharray:none"
       id="path200" /><path
       d="m 286.86898,192.27653 a 12,12 0 0 0 12,12"
       style="fill:none;stroke:#000000;stroke-width:1;stroke-linecap:round;stroke-dasharray:none"
       id="path202" /><path
       style="fill:none;stroke:#000000;stroke-width:1;stroke-linecap:round;stroke-dasharray:none"
       d="m 334.86898,156.27654 v 36.0003"
       id="path204" /><path
       style="fill:none;stroke:#000000;stroke-width:1;stroke-linecap:round;stroke-dasharray:none"
       d="m 334.86898,72.27652 v 36.00002"
       id="path206" /><path
       d="m 238.86898,138.27653 a 12,12 0 0 0 -1.6077,-6"
       style="fill:none;stroke:#000000;stroke-width:1;stroke-linecap:round;stroke-dasharray:none"
       id="path208" /><path
       d="m 237.26128,132.27653 a 12,12 0 0 0 1.6077,-6"
       style="fill:none;stroke:#000000;stroke-width:1;stroke-linecap:round;stroke-dasharray:none"
       id="path210" /><path
       style="fill:none;stroke:#000000;stroke-width:1;stroke-linecap:round;stroke-dasharray:none"
       d="m 226.86898,204.27684 h 12"
       id="path212" /><path
       style="fill:none;stroke:#000000;stroke-width:1;stroke-linecap:round;stroke-dasharray:none"
       d="m 190.86898,204.27684 h 12"
       id="path214" /><path
       style="fill:none;stroke:#000000;stroke-width:1;stroke-linecap:round;stroke-dasharray:none"
       d="M 202.86898,126.27654 V 72.27652"
       id="path216" /><path
       style="fill:none;stroke:#000000;stroke-width:1;stroke-linecap:round;stroke-dasharray:none"
       d="m 310.86898,192.27684 h 6"
       id="path218" /><path
       d="m 316.86898,192.27653 a 6,6 0 0 0 6,-6"
       style="fill:none;stroke:#000000;stroke-width:1;stroke-linecap:round;stroke-dasharray:none"
       id="path220" /><path
       d="m 130.86898,204.27653 a 12,12 0 0 0 12,-12"
       style="fill:none;stroke:#000000;stroke-width:1;stroke-linecap:round;stroke-dasharray:none"
       id="path222" /><path
       style="fill:none;stroke:#000000;stroke-width:1;stroke-linecap:round;stroke-dasharray:none"
       d="m 106.86898,180.27684 v 12"
       id="path224" /><path
       style="fill:none;stroke:#000000;stroke-width:1;stroke-linecap:round;stroke-dasharray:none"
       d="m 106.86898,192.27684 h 12"
       id="path226" /><path
       style="fill:none;stroke:#000000;stroke-width:1;stroke-linecap:round;stroke-dasharray:none"
       d="m 226.86898,120.27654 v -42"
       id="path228" /><path
       style="fill:none;stroke:#000000;stroke-width:1;stroke-linecap:round;stroke-dasharray:none"
       d="m 202.86898,138.27654 v 66.0003"
       id="path230" /><path
       style="fill:none;stroke:#000000;stroke-width:1;stroke-linecap:round;stroke-dasharray:none"
       d="M 154.86898,48.27654 H 70.868978"
       id="path232" /><path
       style="fill:none;stroke:#000000;stroke-width:1;stroke-linecap:round;stroke-dasharray:none"
       d="m 70.868978,144.27654 v 72.0003"
       id="path234" /><path
       style="fill:none;stroke:#000000;stroke-width:1;stroke-linecap:round;stroke-dasharray:none"
       d="m 70.868978,48.27654 v 72"
       id="path236" /><path
       d="m 70.868978,144.27653 a 12,12 0 0 0 0,-24"
       style="fill:none;stroke:#000000;stroke-width:1;stroke-linecap:round;stroke-dasharray:none"
       id="path238" /><path
       style="fill:none;stroke:#000000;stroke-width:1;stroke-linecap:round;stroke-dasharray:none"
       d="m 220.86898,138.27654 h -6"
       id="path240" /><path
       d="m 220.86898,126.27653 a 6,6 0 0 0 6,-6"
       style="fill:none;stroke:#000000;stroke-width:1;stroke-linecap:round;stroke-dasharray:none"
       id="path242" /><path
       style="fill:none;stroke:#000000;stroke-width:1;stroke-linecap:round;stroke-dasharray:none"
       d="m 214.86898,126.27654 h 6"
       id="path244" /><path
       style="fill:none;stroke:#000000;stroke-width:1;stroke-linecap:round;stroke-dasharray:none"
       d="m 322.86898,204.27684 h -24"
       id="path246" /><path
       d="m 322.86898,204.27653 a 12,12 0 0 0 12,-12"
       style="fill:none;stroke:#000000;stroke-width:1;stroke-linecap:round;stroke-dasharray:none"
       id="path248" /><path
       d="m 334.86898,72.276525 a 12,12 0 0 0 -12,-12"
       style="fill:none;stroke:#000000;stroke-width:1;stroke-linecap:round;stroke-dasharray:none"
       id="path250" /><path
       style="fill:none;stroke:#000000;stroke-width:1;stroke-linecap:round;stroke-dasharray:none"
       d="m 298.86898,60.27652 h 24"
       id="path252" /><path
       d="m 274.86898,160.27653 a 12,12 0 0 0 -24,0 12,12 0 0 0 24,0 z"
       style="fill:none;stroke:#000000;stroke-width:1;stroke-linecap:round;stroke-dasharray:none"
       id="path254" /><path
       d="m 274.86898,104.27653 a 12,12 0 0 0 -24,0 12,12 0 0 0 24,0 z"
       style="fill:none;stroke:#000000;stroke-width:1;stroke-linecap:round;stroke-dasharray:none"
       id="path256" /><path
       d="m 178.86898,160.27653 a 12,12 0 0 0 -24,0 12,12 0 0 0 24,0 z"
       style="fill:none;stroke:#000000;stroke-width:1;stroke-linecap:round;stroke-dasharray:none"
       id="path258" /><path
       d="m 178.86898,104.27653 a 12,12 0 0 0 -24,0 12,12 0 0 0 24,0 z"
       style="fill:none;stroke:#000000;stroke-width:1;stroke-linecap:round;stroke-dasharray:none"
       id="path260" /><path
       d="m 178.86898,216.27653 a 12,12 0 0 0 -24,0"
       style="fill:none;stroke:#000000;stroke-width:1;stroke-linecap:round;stroke-dasharray:none"
       id="path262" /><path
       d="m 274.86898,216.27653 a 12,12 0 0 0 -24,0"
       style="fill:none;stroke:#000000;stroke-width:1;stroke-linecap:round;stroke-dasharray:none"
       id="path264" /><path
       d="m 358.86898,120.27653 a 12,12 0 0 0 0,24"
       style="fill:none;stroke:#000000;stroke-width:1;stroke-linecap:round;stroke-dasharray:none"
       id="path266" /><path
       style="fill:none;stroke:#000000;stroke-width:1;stroke-linecap:round;stroke-dasharray:none"
       d="m 130.86898,120.27654 v -42"
       id="path268" /><path
       d="m 130.86898,144.27653 a 6,6 0 0 0 -6,-6"
       style="fill:none;stroke:#000000;stroke-width:1;stroke-linecap:round;stroke-dasharray:none"
       id="path270" /><path
       style="fill:none;stroke:#000000;stroke-width:1;stroke-linecap:round;stroke-dasharray:none"
       d="m 142.86898,72.27652 v 54.00002"
       id="path272" /><path
       style="fill:none;stroke:#000000;stroke-width:1;stroke-linecap:round;stroke-dasharray:none"
       d="m 124.86898,72.27652 h -6"
       id="path274" /><path
       d="m 130.86898,78.276525 a 6,6 0 0 0 -6,-6"
       style="fill:none;stroke:#000000;stroke-width:1;stroke-linecap:round;stroke-dasharray:none"
       id="path276" /><path
       style="fill:none;stroke:#000000;stroke-width:1;stroke-linecap:round;stroke-dasharray:none"
       d="m 106.86898,72.27652 h 12"
       id="path278" /><path
       style="fill:none;stroke:#000000;stroke-width:1;stroke-linecap:round;stroke-dasharray:none"
       d="m 106.86898,138.27654 h 12"
       id="path280" /><path
       d="m 250.86898,48.276525 a 12,12 0 0 0 24,0"
       style="fill:none;stroke:#000000;stroke-width:1;stroke-linecap:round;stroke-dasharray:none"
       id="path282" /><path
       d="m 154.86898,48.276525 a 12,12 0 0 0 24,0"
       style="fill:none;stroke:#000000;stroke-width:1;stroke-linecap:round;stroke-dasharray:none"
       id="path284" /><path
       style="fill:none;stroke:#000000;stroke-width:1;stroke-linecap:round;stroke-dasharray:none"
       d="M 130.86898,204.27684 H 94.868978"
       id="path286" /><path
       style="fill:none;stroke:#000000;stroke-width:1;stroke-linecap:round;stroke-dasharray:none"
       d="m 142.86898,138.27654 v 54.0003"
       id="path288" /><path
       style="fill:none;stroke:#000000;stroke-width:1;stroke-linecap:round;stroke-dasharray:none"
       d="m 130.86898,186.27684 v -42.0003"
       id="path290" /><path
       style="fill:none;stroke:#000000;stroke-width:1;stroke-linecap:round;stroke-dasharray:none"
       d="m 106.86898,138.27654 v 54.0003"
       id="path292" /><path
       style="fill:none;stroke:#000000;stroke-width:1;stroke-linecap:round;stroke-dasharray:none"
       d="M 94.868978,204.27684 V 60.27652"
       id="path294" /><path
       d="m 142.86898,138.27653 a 12,12 0 0 0 -1.6077,-6"
       style="fill:none;stroke:#000000;stroke-width:1;stroke-linecap:round;stroke-dasharray:none"
       id="path296" /><path
       d="m 141.26128,132.27653 a 12,12 0 0 0 1.6077,-6"
       style="fill:none;stroke:#000000;stroke-width:1;stroke-linecap:round;stroke-dasharray:none"
       id="path298" /><path
       style="fill:none;stroke:#000000;stroke-width:1;stroke-linecap:round;stroke-dasharray:none"
       d="M 94.868978,204.27684 H 106.86898"
       id="path300" /><path
       style="fill:none;stroke:#000000;stroke-width:1;stroke-linecap:round;stroke-dasharray:none"
       d="M 106.86898,126.27654 V 72.27652"
       id="path302" /><path
       style="fill:none;stroke:#000000;stroke-width:1;stroke-linecap:round;stroke-dasharray:none"
       d="M 94.868978,60.27652 H 130.86898"
       id="path304" /><path
       d="m 142.86898,72.276525 a 12,12 0 0 0 -12,-12"
       style="fill:none;stroke:#000000;stroke-width:1;stroke-linecap:round;stroke-dasharray:none"
       id="path306" /><path
       style="fill:none;stroke:#000000;stroke-width:1;stroke-linecap:round;stroke-dasharray:none"
       d="m 334.86898,156.27654 h -12"
       id="path308" /><path
       style="fill:none;stroke:#000000;stroke-width:1;stroke-linecap:round;stroke-dasharray:none"
       d="m 322.86898,108.27654 h 12"
       id="path310" /><path
       style="fill:none;stroke:#000000;stroke-width:1;stroke-linecap:round;stroke-dasharray:none"
       d="m 322.86898,108.27654 v -30"
       id="path312" /><path
       style="fill:none;stroke:#000000;stroke-width:1;stroke-linecap:round;stroke-dasharray:none"
       d="m 322.86898,186.27684 v -30.0003"
       id="path314" /><path
       style="fill:none;stroke:#000000;stroke-width:1;stroke-linecap:round;stroke-dasharray:none"
       d="M 298.86898,186.27684 V 78.27654"
       id="path316" /><path
       style="fill:none;stroke:#000000;stroke-width:1;stroke-linecap:round;stroke-dasharray:none"
       d="m 178.86898,216.27684 h 72"
       id="path318" /><path
       style="fill:none;stroke:#000000;stroke-width:1;stroke-linecap:round;stroke-dasharray:none"
       d="M 70.868978,216.27684 H 154.86898"
       id="path320" /><path
       style="fill:none;stroke:#000000;stroke-width:1;stroke-linecap:round;stroke-dasharray:none"
       d="m 274.86898,216.27684 h 84"
       id="path322" /><path
       style="fill:none;stroke:#000000;stroke-width:1;stroke-linecap:round;stroke-dasharray:none"
       d="m 358.86898,120.27654 v -72"
       id="path324" /><path
       style="fill:none;stroke:#000000;stroke-width:1;stroke-linecap:round;stroke-dasharray:none"
       d="m 358.86898,216.27684 v -72.0003"
       id="path326" /><path
       style="fill:none;stroke:#000000;stroke-width:1;stroke-linecap:round;stroke-dasharray:none"
       d="m 250.86898,48.27654 h -72"
       id="path328" /><path
       style="fill:none;stroke:#000000;stroke-width:1;stroke-linecap:round;stroke-dasharray:none"
       d="m 358.86898,48.27654 h -84"
       id="path330" /><path
       id="path1423"
       style="fill:#ff00ff;stroke:#000000;stroke-width:1;stroke-linecap:round;stroke-dasharray:none"
       d="M 190.86914 311.19141 L 190.86914 455.19141 L 202.86914 455.19141 L 202.86914 389.19141 L 214.86914 389.19141 L 220.86914 389.19141 C 224.18285 389.19141 226.86914 391.8777 226.86914 395.19141 L 226.86914 455.19141 L 238.86914 455.19141 L 238.86914 389.19141 C 238.86914 387.08497 238.31494 385.01563 237.26172 383.19141 C 238.31494 381.36718 238.86914 379.29784 238.86914 377.19141 L 238.86914 323.19141 C 238.86914 316.56399 233.49655 311.19141 226.86914 311.19141 L 190.86914 311.19141 z M 202.86914 323.19141 L 214.86914 323.19141 L 220.86914 323.19141 C 224.18285 323.19141 226.86914 325.8777 226.86914 329.19141 L 226.86914 371.19141 C 226.86914 374.50511 224.18285 377.19141 220.86914 377.19141 L 214.86914 377.19141 L 202.86914 377.19141 L 202.86914 323.19141 z " /><path
       d="m 274.86898,411.19079 a 12,12 0 0 0 -24,0 12,12 0 0 0 24,0 z"
       style="fill:none;stroke:#000000;stroke-width:1;stroke-linecap:round;stroke-dasharray:none"
       id="path1291" /><path
       d="m 274.86898,355.19079 a 12,12 0 0 0 -24,0 12,12 0 0 0 24,0 z"
       style="fill:none;stroke:#000000;stroke-width:1;stroke-linecap:round;stroke-dasharray:none"
       id="path1293" /><path
       d="m 178.86898,411.19079 a 12,12 0 0 0 -24,0 12,12 0 0 0 24,0 z"
       style="fill:none;stroke:#000000;stroke-width:1;stroke-linecap:round;stroke-dasharray:none"
       id="path1295" /><path
       d="m 178.86898,355.19079 a 12,12 0 0 0 -24,0 12,12 0 0 0 24,0 z"
       style="fill:none;stroke:#000000;stroke-width:1;stroke-linecap:round;stroke-dasharray:none"
       id="path1297" /><path
       id="path1353"
       style="fill:#ff00ff;stroke:#000000;stroke-width:1;stroke-linecap:round;stroke-dasharray:none"
       d="m 322.86898,407.1908 h 12 v 36.00014 c 0,6.62727 -5.37258,11.99985 -12,12 h -24 c -6.62742,-1.5e-4 -12,-5.37273 -12,-12 V 323.19078 c 0,-6.62742 5.37258,-12 12,-12 h 24 c 6.62742,0 12,5.37258 12,12 v 36.00002 h -12 v -30.00001 c 0,-3.31372 -2.68629,-6.00001 -6,-6.00001 h -6 -6 c -3.31371,0 -6,2.68629 -6,6.00001 v 108.00015 c 0,3.31356 2.68629,5.99985 6,6 l 6,1.6e-4 6,-1.6e-4 c 3.31371,-1.5e-4 6,-2.68644 6,-6 z"
       sodipodi:nodetypes="ccccccccccccccccccccccc" /><path
       id="path1473"
       style="fill:#ff6600;stroke:#000000;stroke-width:1;stroke-linecap:round;stroke-dasharray:none"
       d="M 70.869141 562.96484 L 70.869141 634.96484 C 77.496513 634.96484 82.869141 640.33749 82.869141 646.96484 C 82.869141 653.59226 77.496513 658.96484 70.869141 658.96484 L 70.869141 730.9668 L 154.86914 730.9668 C 154.86914 724.33923 160.24179 718.96484 166.86914 718.96484 C 173.49649 718.96484 178.86914 724.33923 178.86914 730.9668 L 250.86914 730.9668 C 250.86914 724.33923 256.24179 718.96484 262.86914 718.96484 C 269.49649 718.96484 274.86914 724.33923 274.86914 730.9668 L 358.86914 730.9668 L 358.86914 658.96484 C 352.24179 658.96484 346.86914 653.59226 346.86914 646.96484 C 346.86914 640.33749 352.24179 634.96484 358.86914 634.96484 L 358.86914 562.96484 L 274.86914 562.96484 C 274.86914 569.59225 269.49649 574.96484 262.86914 574.96484 C 256.24179 574.96484 250.86914 569.59225 250.86914 562.96484 L 178.86914 562.96484 C 178.86914 569.59225 173.49649 574.96484 166.86914 574.96484 C 160.24179 574.96484 154.86914 569.59225 154.86914 562.96484 L 70.869141 562.96484 z M 298.86914 574.96484 L 322.86914 574.96484 C 329.49651 574.96484 334.86914 580.33747 334.86914 586.96484 L 334.86914 622.96484 L 322.86914 622.96484 L 322.86914 592.96484 C 322.86914 589.65117 320.18285 586.96484 316.86914 586.96484 L 310.86914 586.96484 L 304.86914 586.96484 C 301.55543 586.96484 298.86914 589.65117 298.86914 592.96484 L 298.86914 700.9668 C 298.86914 704.28031 301.55543 706.96665 304.86914 706.9668 L 310.86914 706.9668 L 316.86914 706.9668 C 320.18285 706.96665 322.86914 704.28031 322.86914 700.9668 L 322.86914 670.96484 L 334.86914 670.96484 L 334.86914 706.9668 C 334.86914 713.59402 329.49651 718.96665 322.86914 718.9668 L 298.86914 718.9668 C 292.24177 718.96665 286.86914 713.59402 286.86914 706.9668 L 286.86914 586.96484 C 286.86914 580.33747 292.24177 574.96484 298.86914 574.96484 z M 94.869141 574.9668 L 130.86914 574.9668 C 137.49647 574.9668 142.86914 580.33938 142.86914 586.9668 L 142.86914 640.9668 C 142.86914 643.07315 142.31494 645.14257 141.26172 646.9668 C 142.31494 648.79101 142.86914 650.86036 142.86914 652.9668 L 142.86914 706.9668 C 142.86914 713.59413 137.49647 718.9668 130.86914 718.9668 L 94.869141 718.9668 L 94.869141 574.9668 z M 190.86914 574.9668 L 226.86914 574.9668 C 233.49649 574.9668 238.86914 580.33938 238.86914 586.9668 L 238.86914 640.9668 C 238.86914 643.07317 238.31494 645.14257 237.26172 646.9668 C 238.31494 648.79102 238.86914 650.86036 238.86914 652.9668 L 238.86914 718.9668 L 226.86914 718.9668 L 226.86914 658.9668 C 226.86914 655.65309 224.18285 652.9668 220.86914 652.9668 L 214.86914 652.9668 L 202.86914 652.9668 L 202.86914 718.9668 L 190.86914 718.9668 L 190.86914 574.9668 z M 106.86914 586.9668 L 106.86914 640.9668 L 118.86914 640.9668 L 124.86914 640.9668 C 128.18285 640.96679 130.86914 638.28041 130.86914 634.9668 L 130.86914 592.9668 C 130.86914 589.65308 128.18285 586.9668 124.86914 586.9668 L 118.86914 586.9668 L 106.86914 586.9668 z M 202.86914 586.9668 L 202.86914 640.9668 L 214.86914 640.9668 L 220.86914 640.9668 C 224.18285 640.9668 226.86914 638.28044 226.86914 634.9668 L 226.86914 592.9668 C 226.86914 589.65309 224.18285 586.9668 220.86914 586.9668 L 214.86914 586.9668 L 202.86914 586.9668 z M 165.97266 607 A 12 12 0 0 1 178.86914 618.96484 A 12 12 0 0 1 154.86914 618.96484 A 12 12 0 0 1 164.19922 607.26758 A 12 12 0 0 1 165.97266 607 z M 261.97266 607 A 12 12 0 0 1 274.86914 618.96484 A 12 12 0 0 1 250.86914 618.96484 A 12 12 0 0 1 260.19922 607.26758 A 12 12 0 0 1 261.97266 607 z M 106.86914 652.9668 L 106.86914 694.9668 L 106.86914 706.9668 L 118.86914 706.9668 L 124.86914 706.9668 C 128.18285 706.9668 130.86914 704.28043 130.86914 700.9668 L 130.86914 658.9668 C 130.86914 655.65309 128.18285 652.9668 124.86914 652.9668 L 118.86914 652.9668 L 106.86914 652.9668 z M 165.97266 663 A 12 12 0 0 1 178.86914 674.96484 A 12 12 0 0 1 154.86914 674.96484 A 12 12 0 0 1 164.19922 663.26758 A 12 12 0 0 1 165.97266 663 z M 260.19922 663.26758 A 12 12 0 0 1 274.86914 674.96484 A 12 12 0 0 1 250.86914 674.96484 A 12 12 0 0 1 260.19922 663.26758 z " /><path
       id="path1496"
       style="fill:#d4aa00;stroke:none;stroke-width:1;stroke-linecap:round;stroke-dasharray:none"
       d="m 50.91659,827.03508 v 72 c 6.627372,0 12,5.37265 12,12 0,6.62742 -5.372628,12 -12,12 v 72.00196 h 84 c 0,-6.62757 5.37265,-12.00196 12,-12.00196 6.62735,0 12,5.37439 12,12.00196 h 72 c 0,-6.62757 5.37265,-12.00196 12,-12.00196 6.62735,0 12,5.37439 12,12.00196 h 84 v -72.00196 c -6.62735,0 -12,-5.37258 -12,-12 0,-6.62735 5.37265,-12 12,-12 v -72 h -84 c 0,6.62741 -5.37265,12 -12,12 -6.62735,0 -12,-5.37259 -12,-12 h -72 c 0,6.62741 -5.37265,12 -12,12 -6.62735,0 -12,-5.37259 -12,-12 z m 228,12 h 24 c 6.62737,0 12,5.37263 12,12 v 36 h -12 v -30 c 0,-3.31367 -2.68629,-6 -6,-6 h -6 -6 c -3.31371,0 -6,2.68633 -6,6 v 108.00196 c 0,3.31351 2.68629,5.99985 6,6 h 6 6 c 3.31371,-1.5e-4 6,-2.68649 6,-6 v -30.00196 h 12 v 36.00196 c 0,6.62722 -5.37263,11.99985 -12,12 h -24 c -6.62737,-1.5e-4 -12,-5.37278 -12,-12 V 851.03508 c 0,-6.62737 5.37263,-12 12,-12 z m -204,0.002 h 36 c 6.62733,0 12,5.37258 12,12 v 54 c 0,2.10635 -0.5542,4.17577 -1.60742,6 1.05322,1.82421 1.60742,3.89356 1.60742,6 v 54 c 0,6.62733 -5.37267,12 -12,12 h -36 z m 96,0 h 36 c 6.62735,0 12,5.37258 12,12 v 54 c 0,2.10637 -0.5542,4.17577 -1.60742,6 1.05322,1.82422 1.60742,3.89356 1.60742,6 v 66 h -12 v -60 c 0,-3.31371 -2.68629,-6 -6,-6 h -6 -12 v 66 h -12 z m -84.000001,12 v 54 h 12 6.000001 c 3.31371,-10e-6 6,-2.68639 6,-6 v -42 c 0,-3.31372 -2.68629,-6 -6,-6 h -6.000001 z m 96.000001,0 v 54 h 12 6 c 3.31371,0 6,-2.68636 6,-6 v -42 c 0,-3.31371 -2.68629,-6 -6,-6 h -6 z m -36.89648,20.0332 a 12,12 0 0 1 12.89648,11.96484 12,12 0 0 1 -24,0 12,12 0 0 1 9.33008,-11.69726 12,12 0 0 1 1.77344,-0.26758 z m 96,0 a 12,12 0 0 1 12.89648,11.96484 12,12 0 0 1 -24,0 12,12 0 0 1 9.33008,-11.69726 12,12 0 0 1 1.77344,-0.26758 z m -155.103521,45.9668 v 42 12 h 12 6.000001 c 3.31371,0 6,-2.68637 6,-6 v -42 c 0,-3.31371 -2.68629,-6 -6,-6 h -6.000001 z m 59.103521,10.0332 a 12,12 0 0 1 12.89648,11.96484 12,12 0 0 1 -24,0 12,12 0 0 1 9.33008,-11.69726 12,12 0 0 1 1.77344,-0.26758 z m 94.22656,0.26758 a 12,12 0 0 1 14.66992,11.69726 12,12 0 0 1 -24,0 12,12 0 0 1 9.33008,-11.69726 z" /><rect
       style="opacity:1;fill:#000000;stroke:none;stroke-width:1;stroke-linecap:round;stroke-linejoin:round;stroke-dasharray:none;paint-order:stroke fill markers"
       id="rect1604"
       width="366.96863"
       height="247.70383"
       x="413.81723"
       y="790.12933" /><path
       id="path1606"
       style="fill:#000000;stroke:#d4aa00;stroke-width:5;stroke-linecap:round;stroke-dasharray:none;stroke-opacity:1;paint-order:normal"
       d="m 449.13626,827.03508 v 72 c 6.62737,0 12,5.37265 12,12 0,6.62742 -5.37263,12 -12,12 v 72.00196 h 84 c 0,-6.62757 5.37265,-12.00196 12,-12.00196 6.62735,0 12,5.37439 12,12.00196 h 72 c 0,-6.62757 5.37265,-12.00196 12,-12.00196 6.62735,0 12,5.37439 12,12.00196 h 84 v -72.00196 c -6.62735,0 -12,-5.37258 -12,-12 0,-6.62735 5.37265,-12 12,-12 v -72 h -84 c 0,6.62741 -5.37265,12 -12,12 -6.62735,0 -12,-5.37259 -12,-12 h -72 c 0,6.62741 -5.37265,12 -12,12 -6.62735,0 -12,-5.37259 -12,-12 z m 228,12 h 24 c 6.62737,0 12,5.37263 12,12 v 36 h -12 v -30 c 0,-3.31367 -2.68629,-6 -6,-6 h -6 -6 c -3.31371,0 -6,2.68633 -6,6 v 108.00196 c 0,3.31351 2.68629,5.99985 6,6 h 6 6 c 3.31371,-1.5e-4 6,-2.68649 6,-6 v -30.00196 h 12 v 36.00196 c 0,6.62722 -5.37263,11.99985 -12,12 h -24 c -6.62737,-1.5e-4 -12,-5.37278 -12,-12 V 851.03508 c 0,-6.62737 5.37263,-12 12,-12 z m -204,0.002 h 36 c 6.62733,0 12,5.37258 12,12 v 54 c 0,2.10635 -0.5542,4.17577 -1.60742,6 1.05322,1.82421 1.60742,3.89356 1.60742,6 v 54 c 0,6.62733 -5.37267,12 -12,12 h -36 z m 96,0 h 36 c 6.62735,0 12,5.37258 12,12 v 54 c 0,2.10637 -0.5542,4.17577 -1.60742,6 1.05322,1.82422 1.60742,3.89356 1.60742,6 v 66 h -12 v -60 c 0,-3.31371 -2.68629,-6 -6,-6 h -6 -12 v 66 h -12 z m -84,12 v 54 h 12 6 c 3.31371,-10e-6 6,-2.68639 6,-6 v -42 c 0,-3.31372 -2.68629,-6 -6,-6 h -6 z m 96,0 v 54 h 12 6 c 3.31371,0 6,-2.68636 6,-6 v -42 c 0,-3.31371 -2.68629,-6 -6,-6 h -6 z m -36.89648,20.0332 a 12,12 0 0 1 12.89648,11.96484 12,12 0 0 1 -24,0 12,12 0 0 1 9.33008,-11.69726 12,12 0 0 1 1.77344,-0.26758 z m 96,0 a 12,12 0 0 1 12.89648,11.96484 12,12 0 0 1 -24,0 12,12 0 0 1 9.33008,-11.69726 12,12 0 0 1 1.77344,-0.26758 z m -155.10352,45.9668 v 42 12 h 12 6 c 3.31371,0 6,-2.68637 6,-6 v -42 c 0,-3.31371 -2.68629,-6 -6,-6 h -6 z m 59.10352,10.0332 a 12,12 0 0 1 12.89648,11.96484 12,12 0 0 1 -24,0 12,12 0 0 1 9.33008,-11.69726 12,12 0 0 1 1.77344,-0.26758 z m 94.22656,0.26758 a 12,12 0 0 1 14.66992,11.69726 12,12 0 0 1 -24,0 12,12 0 0 1 9.33008,-11.69726 z" /><path
       d="m 142.90628,1222.9727 a 12,12 0 0 0 -24,0 12,12 0 0 0 24,0 z"
       style="fill:none;stroke:#000000;stroke-width:1;stroke-linecap:round;stroke-dasharray:none"
       id="path4791" /><path
       d="m 214.90628,1166.9727 a 12,12 0 0 0 24,0"
       style="fill:none;stroke:#000000;stroke-width:1;stroke-linecap:round;stroke-dasharray:none"
       id="path4793" /><path
       style="fill:none;stroke:#000000;stroke-width:1;stroke-linecap:round;stroke-dasharray:none"
       d="m 298.90628,1274.9731 h -12"
       id="path4795" /><path
       style="fill:none;stroke:#000000;stroke-width:1;stroke-linecap:round;stroke-dasharray:none"
       d="m 286.90628,1226.9731 h 12"
       id="path4797" /><path
       style="fill:none;stroke:#000000;stroke-width:1;stroke-linecap:round;stroke-dasharray:none"
       d="m 322.90628,1238.9731 v -72"
       id="path4799" /><path
       style="fill:none;stroke:#000000;stroke-width:1;stroke-linecap:round;stroke-dasharray:none"
       d="m 322.90628,1334.9731 v -72"
       id="path4801" /><path
       style="fill:none;stroke:#000000;stroke-width:1;stroke-linecap:round;stroke-dasharray:none"
       d="m 322.90628,1166.9731 h -84"
       id="path4803" /><path
       style="fill:none;stroke:#000000;stroke-width:1;stroke-linecap:round;stroke-dasharray:none"
       d="m 142.90628,1334.9731 h 72"
       id="path4805" /><path
       style="fill:none;stroke:#000000;stroke-width:1;stroke-linecap:round;stroke-dasharray:none"
       d="M 82.906278,1322.9731 H 58.906268"
       id="path4807" /><path
       d="m 142.90628,1334.9727 a 12,12 0 0 0 -24,0"
       style="fill:none;stroke:#000000;stroke-width:1;stroke-linecap:round;stroke-dasharray:none"
       id="path4809" /><path
       style="fill:none;stroke:#000000;stroke-width:1;stroke-linecap:round;stroke-dasharray:none"
       d="m 154.90628,1322.9731 h 12"
       id="path4811" /><path
       style="fill:none;stroke:#000000;stroke-width:1;stroke-linecap:round;stroke-dasharray:none"
       d="m 58.906268,1322.9731 h 12"
       id="path4813" /><path
       style="fill:none;stroke:#000000;stroke-width:1;stroke-linecap:round;stroke-dasharray:none"
       d="M 34.906268,1334.9731 H 118.90628"
       id="path4815" /><path
       style="fill:none;stroke:#000000;stroke-width:1;stroke-linecap:round;stroke-dasharray:none"
       d="m 274.90628,1322.9731 v 0"
       id="path4817" /><path
       style="fill:none;stroke:#000000;stroke-width:1;stroke-linecap:round;stroke-dasharray:none"
       d="m 190.90628,1322.9731 h 12"
       id="path4819" /><path
       d="m 238.90628,1334.9727 a 12,12 0 0 0 -24,0"
       style="fill:none;stroke:#000000;stroke-width:1;stroke-linecap:round;stroke-dasharray:none"
       id="path4821" /><path
       style="fill:none;stroke:#000000;stroke-width:1;stroke-linecap:round;stroke-dasharray:none"
       d="m 238.90628,1334.9731 h 84"
       id="path4823" /><path
       d="m 94.906278,1202.9727 a 12,12 0 0 0 -12,-12"
       style="fill:none;stroke:#000000;stroke-width:1;stroke-linecap:round;stroke-dasharray:none"
       id="path4825" /><path
       style="fill:none;stroke:#000000;stroke-width:1;stroke-linecap:round;stroke-dasharray:none"
       d="m 82.906278,1190.9731 v 0"
       id="path4827" /><path
       style="fill:none;stroke:#000000;stroke-width:1;stroke-linecap:round;stroke-dasharray:none"
       d="m 214.90628,1166.9731 h -72"
       id="path4829" /><path
       style="fill:none;stroke:#000000;stroke-width:1;stroke-linecap:round;stroke-dasharray:none"
       d="m 166.90628,1244.9731 h 12"
       id="path4831" /><path
       style="fill:none;stroke:#000000;stroke-width:1;stroke-linecap:round;stroke-dasharray:none"
       d="m 70.906268,1244.9731 h 12.00001"
       id="path4833" /><path
       style="fill:none;stroke:#000000;stroke-width:1;stroke-linecap:round;stroke-dasharray:none"
       d="m 70.906268,1298.9731 v 12"
       id="path4835" /><path
       style="fill:none;stroke:#000000;stroke-width:1;stroke-linecap:round;stroke-dasharray:none"
       d="m 166.90628,1256.9731 v 66"
       id="path4837" /><path
       style="fill:none;stroke:#000000;stroke-width:1;stroke-linecap:round;stroke-dasharray:none"
       d="M 118.90628,1166.9731 H 34.906268"
       id="path4839" /><path
       style="fill:none;stroke:#000000;stroke-width:1;stroke-linecap:round;stroke-dasharray:none"
       d="m 34.906268,1262.9731 v 72"
       id="path4841" /><path
       style="fill:none;stroke:#000000;stroke-width:1;stroke-linecap:round;stroke-dasharray:none"
       d="m 34.906268,1166.9731 v 72"
       id="path4843" /><path
       d="m 34.906268,1262.9727 a 12,12 0 0 0 0,-24"
       style="fill:none;stroke:#000000;stroke-width:1;stroke-linecap:round;stroke-dasharray:none"
       id="path4845" /><path
       style="fill:none;stroke:#000000;stroke-width:1;stroke-linecap:round;stroke-dasharray:none"
       d="m 154.90628,1322.9731 v -144"
       id="path4847" /><path
       style="fill:none;stroke:#000000;stroke-width:1;stroke-linecap:round;stroke-dasharray:none"
       d="m 166.90628,1190.9731 h 12"
       id="path4849" /><path
       style="fill:none;stroke:#000000;stroke-width:1;stroke-linecap:round;stroke-dasharray:none"
       d="m 166.90628,1256.9731 h 12"
       id="path4851" /><path
       style="fill:none;stroke:#000000;stroke-width:1;stroke-linecap:round;stroke-dasharray:none"
       d="m 70.906268,1190.9731 h 12.00001"
       id="path4853" /><path
       style="fill:none;stroke:#000000;stroke-width:1;stroke-linecap:round;stroke-dasharray:none"
       d="m 70.906268,1256.9731 h 12.00001"
       id="path4855" /><path
       d="m 118.90628,1166.9727 a 12,12 0 0 0 24,0"
       style="fill:none;stroke:#000000;stroke-width:1;stroke-linecap:round;stroke-dasharray:none"
       id="path4857" /><path
       style="fill:none;stroke:#000000;stroke-width:1;stroke-linecap:round;stroke-dasharray:none"
       d="m 70.906268,1256.9731 v 54"
       id="path4859" /><path
       style="fill:none;stroke:#000000;stroke-width:1;stroke-linecap:round;stroke-dasharray:none"
       d="m 58.906268,1322.9731 v -144"
       id="path4861" /><path
       style="fill:none;stroke:#000000;stroke-width:1;stroke-linecap:round;stroke-dasharray:none"
       d="m 166.90628,1244.9731 v -54"
       id="path4863" /><path
       style="fill:none;stroke:#000000;stroke-width:1;stroke-linecap:round;stroke-dasharray:none"
       d="m 70.906268,1244.9731 v -54"
       id="path4865" /><path
       d="m 238.90628,1278.9727 a 12,12 0 0 0 -24,0 12,12 0 0 0 24,0 z"
       style="fill:none;stroke:#000000;stroke-width:1;stroke-linecap:round;stroke-dasharray:none"
       id="path4867" /><path
       d="m 238.90628,1222.9727 a 12,12 0 0 0 -24,0 12,12 0 0 0 24,0 z"
       style="fill:none;stroke:#000000;stroke-width:1;stroke-linecap:round;stroke-dasharray:none"
       id="path4869" /><path
       d="m 322.90628,1238.9727 a 12,12 0 0 0 0,24"
       style="fill:none;stroke:#000000;stroke-width:1;stroke-linecap:round;stroke-dasharray:none"
       id="path4871" /><path
       d="m 142.90628,1278.9727 a 12,12 0 0 0 -24,0 12,12 0 0 0 24,0 z"
       style="fill:none;stroke:#000000;stroke-width:1;stroke-linecap:round;stroke-dasharray:none"
       id="path4873" /><path
       style="fill:none;stroke:#000000;stroke-width:1;stroke-linecap:round;stroke-dasharray:none"
       d="m 274.90628,1190.9731 v 0"
       id="path4875" /><path
       d="m 286.90628,1202.9727 a 12,12 0 0 0 -12,-12"
       style="fill:none;stroke:#000000;stroke-width:1;stroke-linecap:round;stroke-dasharray:none"
       id="path4877" /><path
       style="fill:none;stroke:#000000;stroke-width:1;stroke-linecap:round;stroke-dasharray:none"
       d="m 274.90628,1190.9731 v 0"
       id="path4879" /><path
       style="fill:none;stroke:#000000;stroke-width:1;stroke-linecap:round;stroke-dasharray:none"
       d="m 286.90628,1226.9731 v -24"
       id="path4881" /><path
       d="m 274.90628,1310.9727 a 12,12 0 0 0 12,-12"
       style="fill:none;stroke:#000000;stroke-width:1;stroke-linecap:round;stroke-dasharray:none"
       id="path4883" /><path
       style="fill:none;stroke:#000000;stroke-width:1;stroke-linecap:round;stroke-dasharray:none"
       d="m 286.90628,1298.9731 v -24"
       id="path4885" /><path
       style="fill:none;stroke:#000000;stroke-width:1;stroke-linecap:round;stroke-dasharray:none"
       d="m 274.90628,1310.9731 v 0"
       id="path4887" /><path
       d="m 262.90628,1298.9727 a 12,12 0 0 0 12,12"
       style="fill:none;stroke:#000000;stroke-width:1;stroke-linecap:round;stroke-dasharray:none"
       id="path4889" /><path
       style="fill:none;stroke:#000000;stroke-width:1;stroke-linecap:round;stroke-dasharray:none"
       d="m 274.90628,1310.9731 v 0"
       id="path4891" /><path
       d="m 190.90628,1268.9727 a 12,12 0 0 0 -12,-12"
       style="fill:none;stroke:#000000;stroke-width:1;stroke-linecap:round;stroke-dasharray:none"
       id="path4893" /><path
       style="fill:none;stroke:#000000;stroke-width:1;stroke-linecap:round;stroke-dasharray:none"
       d="m 190.90628,1322.9731 v -54"
       id="path4895" /><path
       style="fill:none;stroke:#000000;stroke-width:1;stroke-linecap:round;stroke-dasharray:none"
       d="m 178.90628,1256.9731 v 0"
       id="path4897" /><path
       d="m 178.90628,1244.9727 a 12,12 0 0 0 12,-12"
       style="fill:none;stroke:#000000;stroke-width:1;stroke-linecap:round;stroke-dasharray:none"
       id="path4899" /><path
       style="fill:none;stroke:#000000;stroke-width:1;stroke-linecap:round;stroke-dasharray:none"
       d="m 178.90628,1244.9731 v 0"
       id="path4901" /><path
       style="fill:none;stroke:#000000;stroke-width:1;stroke-linecap:round;stroke-dasharray:none"
       d="m 190.90628,1232.9731 v -30"
       id="path4903" /><path
       d="m 190.90628,1202.9727 a 12,12 0 0 0 -12,-12"
       style="fill:none;stroke:#000000;stroke-width:1;stroke-linecap:round;stroke-dasharray:none"
       id="path4905" /><path
       style="fill:none;stroke:#000000;stroke-width:1;stroke-linecap:round;stroke-dasharray:none"
       d="m 178.90628,1190.9731 v 0"
       id="path4907" /><path
       d="m 82.906278,1310.9727 a 12,12 0 0 0 12,-12"
       style="fill:none;stroke:#000000;stroke-width:1;stroke-linecap:round;stroke-dasharray:none"
       id="path4909" /><path
       style="fill:none;stroke:#000000;stroke-width:1;stroke-linecap:round;stroke-dasharray:none"
       d="m 70.906268,1310.9731 h 12.00001"
       id="path4911" /><path
       style="fill:none;stroke:#000000;stroke-width:1;stroke-linecap:round;stroke-dasharray:none"
       d="m 94.906278,1298.9731 v -30"
       id="path4913" /><path
       d="m 94.906278,1268.9727 a 12,12 0 0 0 -12,-12"
       style="fill:none;stroke:#000000;stroke-width:1;stroke-linecap:round;stroke-dasharray:none"
       id="path4915" /><path
       style="fill:none;stroke:#000000;stroke-width:1;stroke-linecap:round;stroke-dasharray:none"
       d="m 82.906278,1256.9731 v 0"
       id="path4917" /><path
       d="m 82.906278,1244.9727 a 12,12 0 0 0 12,-12"
       style="fill:none;stroke:#000000;stroke-width:1;stroke-linecap:round;stroke-dasharray:none"
       id="path4919" /><path
       style="fill:none;stroke:#000000;stroke-width:1;stroke-linecap:round;stroke-dasharray:none"
       d="m 82.906278,1244.9731 v 0"
       id="path4921" /><path
       style="fill:none;stroke:#000000;stroke-width:1;stroke-linecap:round;stroke-dasharray:none"
       d="m 94.906278,1232.9731 v -30"
       id="path4923" /><path
       style="fill:none;stroke:#000000;stroke-width:1;stroke-linecap:round;stroke-dasharray:none"
       d="m 202.90628,1322.9731 v -54"
       id="path4925" /><path
       d="m 194.78078,1250.9727 a 24,24 0 0 0 8.1255,-18"
       style="fill:none;stroke:#000000;stroke-width:1;stroke-linecap:round;stroke-dasharray:none"
       id="path4927" /><path
       d="m 202.90628,1268.9727 a 24,24 0 0 0 -8.1255,-18"
       style="fill:none;stroke:#000000;stroke-width:1;stroke-linecap:round;stroke-dasharray:none"
       id="path4929" /><path
       style="fill:none;stroke:#000000;stroke-width:1;stroke-linecap:round;stroke-dasharray:none"
       d="m 202.90628,1202.9731 v 30"
       id="path4931" /><path
       d="m 202.90628,1202.9727 a 24,24 0 0 0 -24,-24"
       style="fill:none;stroke:#000000;stroke-width:1;stroke-linecap:round;stroke-dasharray:none"
       id="path4933" /><path
       style="fill:none;stroke:#000000;stroke-width:1;stroke-linecap:round;stroke-dasharray:none"
       d="m 154.90628,1178.9731 h 24"
       id="path4935" /><path
       d="m 250.90628,1298.9727 a 24,24 0 0 0 24,24"
       style="fill:none;stroke:#000000;stroke-width:1;stroke-linecap:round;stroke-dasharray:none"
       id="path4937" /><path
       style="fill:none;stroke:#000000;stroke-width:1;stroke-linecap:round;stroke-dasharray:none"
       d="m 250.90628,1298.9731 v -96"
       id="path4939" /><path
       d="m 274.90628,1322.9727 a 24,24 0 0 0 24,-24"
       style="fill:none;stroke:#000000;stroke-width:1;stroke-linecap:round;stroke-dasharray:none"
       id="path4941" /><path
       style="fill:none;stroke:#000000;stroke-width:1;stroke-linecap:round;stroke-dasharray:none"
       d="m 298.90628,1274.9731 v 24"
       id="path4943" /><path
       d="m 298.90628,1202.9727 a 24,24 0 0 0 -24,-24"
       style="fill:none;stroke:#000000;stroke-width:1;stroke-linecap:round;stroke-dasharray:none"
       id="path4945" /><path
       style="fill:none;stroke:#000000;stroke-width:1;stroke-linecap:round;stroke-dasharray:none"
       d="m 298.90628,1202.9731 v 24"
       id="path4947" /><path
       style="fill:none;stroke:#000000;stroke-width:1;stroke-linecap:round;stroke-dasharray:none"
       d="m 274.90628,1178.9731 v 0"
       id="path4949" /><path
       d="m 274.90628,1178.9727 a 24,24 0 0 0 -24,24"
       style="fill:none;stroke:#000000;stroke-width:1;stroke-linecap:round;stroke-dasharray:none"
       id="path4951" /><path
       d="m 98.780778,1250.9727 a 24,24 0 0 0 8.125502,-18"
       style="fill:none;stroke:#000000;stroke-width:1;stroke-linecap:round;stroke-dasharray:none"
       id="path4953" /><path
       d="m 106.90628,1268.9727 a 24,24 0 0 0 -8.125502,-18"
       style="fill:none;stroke:#000000;stroke-width:1;stroke-linecap:round;stroke-dasharray:none"
       id="path4955" /><path
       style="fill:none;stroke:#000000;stroke-width:1;stroke-linecap:round;stroke-dasharray:none"
       d="m 106.90628,1268.9731 v 30"
       id="path4957" /><path
       style="fill:none;stroke:#000000;stroke-width:1;stroke-linecap:round;stroke-dasharray:none"
       d="m 82.906278,1244.9731 v 0"
       id="path4959" /><path
       style="fill:none;stroke:#000000;stroke-width:1;stroke-linecap:round;stroke-dasharray:none"
       d="m 106.90628,1202.9731 v 30"
       id="path4961" /><path
       style="fill:none;stroke:#000000;stroke-width:1;stroke-linecap:round;stroke-dasharray:none"
       d="m 70.906268,1256.9731 h 12.00001"
       id="path4963" /><path
       d="m 82.906278,1322.9727 a 24,24 0 0 0 24.000002,-24"
       style="fill:none;stroke:#000000;stroke-width:1;stroke-linecap:round;stroke-dasharray:none"
       id="path4965" /><path
       d="m 106.90628,1202.9727 a 24,24 0 0 0 -24.000002,-24"
       style="fill:none;stroke:#000000;stroke-width:1;stroke-linecap:round;stroke-dasharray:none"
       id="path4967" /><path
       style="fill:none;stroke:#000000;stroke-width:1;stroke-linecap:round;stroke-dasharray:none"
       d="m 58.906268,1178.9731 h 24.00001"
       id="path4969" /><path
       d="m 274.90628,1190.9727 a 12,12 0 0 0 -12,12"
       style="fill:none;stroke:#000000;stroke-width:1;stroke-linecap:round;stroke-dasharray:none"
       id="path4971" /><path
       style="fill:none;stroke:#000000;stroke-width:1;stroke-linecap:round;stroke-dasharray:none"
       d="m 262.90628,1298.9731 v -96"
       id="path4973" /><rect
       style="opacity:1;fill:#000000;stroke:none;stroke-width:1;stroke-linecap:round;stroke-linejoin:round;stroke-dasharray:none;paint-order:stroke fill markers"
       id="rect5940"
       width="366.96863"
       height="247.70383"
       x="417.28452"
       y="1390.0221" /><path
       id="path5942"
       style="fill:#000000;fill-opacity:1;stroke:#d4aa00;stroke-width:4;stroke-linecap:round;stroke-dasharray:none;stroke-opacity:1"
       d="m 452.12443,1428.8203 v 72 c 6.62737,-2e-4 12,5.3726 12,12 0,6.6274 -5.37263,11.9998 -12,12 v 72 h 84 c 0,-6.6276 5.37265,-12 12,-12 6.62735,0 12,5.3724 12,12 h 72 c 0,-6.6276 5.37265,-12 12,-12 6.62735,0 12,5.3724 12,12 h 84 v -72 c -6.62735,-2e-4 -12,-5.3726 -12,-12 0,-6.6274 5.37265,-12.0002 12,-12 v -72 h -84 c 0,6.6272 -5.37265,12 -12,12 -6.62735,0 -12,-5.3728 -12,-12 h -72 c 0,6.6272 -5.37265,12 -12,12 -6.62735,0 -12,-5.3728 -12,-12 z m 24,12 h 24 c 13.25474,-2e-4 24,10.745 24,24 v 30 c 0,6.8878 -2.95905,13.444 -8.125,18 5.16595,4.556 8.125,11.1118 8.125,18 v 30 c 0,13.2546 -10.74526,23.9998 -24,24 h -18 -6 z m 96,0 h 24 c 13.25477,-2e-4 24,10.745 24,24 v 30 c 0,6.8878 -2.95905,13.444 -8.125,18 5.16595,4.556 8.125,11.1118 8.125,18 v 54 h -12 v -54 c 0,-6.6276 -5.37264,-12.0002 -12,-12 h -12 v 66 h -12 z m 120,0 c 13.25478,0 24,10.745 24,24 v 24 h -12 v -24 c 0,-6.6276 -5.37263,-12 -12,-12 -6.62737,0 -12,5.3724 -12,12 v 96 c 0,6.6272 5.37263,12 12,12 6.62737,0 12,-5.3728 12,-12 v -24 h 12 v 24 c 0,13.2546 -10.74522,24 -24,24 -13.25478,0 -24,-10.7454 -24,-24 v -96 c 0,-13.255 10.74522,-24 24,-24 z m -204,12 v 54 h 12 c 6.62737,-2e-4 12,-5.3728 12,-12 v -30 c 0,-6.6276 -5.37263,-12.0002 -12,-12 z m 96,0 v 54 h 12 c 6.62736,-2e-4 12,-5.3728 12,-12 v -30 c 0,-6.6276 -5.37264,-12.0002 -12,-12 z m -36.25977,20.002 a 12,12 0 0 1 12.25977,11.998 12,12 0 0 1 -24,0 12,12 0 0 1 9.33008,-11.6992 12,12 0 0 1 1.77344,-0.2676 12,12 0 0 1 0.63671,-0.031 z m 95.36329,0.031 a 12,12 0 0 1 12.89648,11.9668 12,12 0 0 1 -24,0 12,12 0 0 1 9.33008,-11.6992 12,12 0 0 1 1.77344,-0.2676 z m -155.10352,45.9668 v 48 6 h 12 c 6.62737,-2e-4 12,-5.3728 12,-12 v -30 c 0,-6.6276 -5.37267,-12.0002 -18,-12 z m 59.74023,10.002 a 12,12 0 0 1 12.25977,11.998 12,12 0 0 1 -24,0 12,12 0 0 1 9.33008,-11.6992 12,12 0 0 1 1.77344,-0.2676 12,12 0 0 1 0.63671,-0.031 z m 93.58985,0.2988 a 12,12 0 0 1 14.66992,11.6992 12,12 0 0 1 -24,0 12,12 0 0 1 9.33008,-11.6992 z" /></g><g
     inkscape:groupmode="layer"
     inkscape:label="CONSTRUCTION"
     id="g334" /><g
     inkscape:groupmode="layer"
     inkscape:label="DIMENSION"
     id="g336" /><g
     inkscape:groupmode="layer"
     inkscape:label="CONSTRAINTS"
     id="g338" /><g
     inkscape:groupmode="layer"
     inkscape:label="1_TEXT_1"
     id="g340" /></svg>
