M48
;Layer_Color=8847372
;FILE_FORMAT=2:5
INCH,TZ
;TYPE=PLATED
T1F00S00C0.02100
T2F00S00C0.08900
T3F00S00C0.12500
%
T01
X900500Y396000
X933000Y390000
X906500Y428500
X939000Y422500
X950000Y455000
X947500Y515000
X952500Y535000
Y562500
X1005000Y535000
X1021000Y604500
X1053500Y598500
X1052500Y580000
X812500Y598500
X780000Y604500
X762500Y675000
X717500Y770000
X827500Y692500
Y677500
X818500Y631000
X786000Y637000
X895000Y692500
X1027000Y637000
X1059500Y631000
X1061531Y744408
X1075258Y736689
X1120000Y827500
X1141000Y813000
X1173500Y807000
X1179500Y839500
X1147000Y845500
X1197500Y912500
X949776Y862224
X939000Y839000
X933000Y806500
X900500Y812500
X906500Y845000
X757500Y782500
X737500Y787500
X693000Y806000
X699000Y838500
X666500Y844500
X660500Y812000
X607133Y1019210
X572500Y1014500
X578500Y1047000
X546000Y1053000
X540000Y1020500
X672500Y1027500
X677500Y1007500
X690000Y997500
X780500Y1021000
X813000Y1015000
X819000Y1047500
X786500Y1053500
X857500Y1012500
Y982500
X845000Y992500
X1020500Y1021000
X1026500Y1053500
X1059000Y1047500
X1053000Y1015000
X1087500Y992500
X1102500Y982500
Y1012500
X1220449Y1015449
X1244276Y1064276
X1195000Y937500
X1180000
X1261500Y1021000
X1294000Y1015000
X1300000Y1047500
X1267500Y1053500
T02
X920000Y595000
Y632000
X872500Y714500
X840500Y733000
X967500Y714500
X999500Y733000
X1040500Y803500
Y840000
X1088000Y922500
X992500
X847500
X800000Y840000
Y803000
X752000Y923000
X720000Y941500
X879500Y941000
X960500
X1120000
T03
X1001500Y501000
X838000
X1242000Y917500
X598000
X679500Y1059000
X1160500
M30
