%FSLAX25Y25*%
%MOIN*%
G70*
G01*
G75*
G04 Layer_Color=6049101*
%ADD10P,0.08352X4X90.0*%
%ADD11P,0.08352X4X180.0*%
%ADD12C,0.05000*%
%ADD13C,0.02500*%
%ADD14C,0.16500*%
%ADD15C,0.04000*%
%ADD16C,0.12500*%
%ADD17R,0.05000X0.08000*%
%ADD18R,0.08000X0.05000*%
G04:AMPARAMS|DCode=19|XSize=122.05mil|YSize=177.16mil|CornerRadius=0mil|HoleSize=0mil|Usage=FLASHONLY|Rotation=210.000|XOffset=0mil|YOffset=0mil|HoleType=Round|Shape=Rectangle|*
%AMROTATEDRECTD19*
4,1,4,0.00856,0.10723,0.09714,-0.04620,-0.00856,-0.10723,-0.09714,0.04620,0.00856,0.10723,0.0*
%
%ADD19ROTATEDRECTD19*%

G04:AMPARAMS|DCode=20|XSize=122.05mil|YSize=177.16mil|CornerRadius=0mil|HoleSize=0mil|Usage=FLASHONLY|Rotation=150.000|XOffset=0mil|YOffset=0mil|HoleType=Round|Shape=Rectangle|*
%AMROTATEDRECTD20*
4,1,4,0.09714,0.04620,0.00856,-0.10723,-0.09714,-0.04620,-0.00856,0.10723,0.09714,0.04620,0.0*
%
%ADD20ROTATEDRECTD20*%

%ADD21R,0.17716X0.12205*%
%ADD22C,0.01000*%
%ADD23C,0.01200*%
%ADD24C,0.01500*%
%ADD25P,0.06937X4X90.0*%
%ADD26P,0.06937X4X180.0*%
%ADD27R,0.04000X0.07000*%
%ADD28R,0.07000X0.04000*%
G04:AMPARAMS|DCode=29|XSize=112.05mil|YSize=167.16mil|CornerRadius=0mil|HoleSize=0mil|Usage=FLASHONLY|Rotation=210.000|XOffset=0mil|YOffset=0mil|HoleType=Round|Shape=Rectangle|*
%AMROTATEDRECTD29*
4,1,4,0.00673,0.10040,0.09031,-0.04437,-0.00673,-0.10040,-0.09031,0.04437,0.00673,0.10040,0.0*
%
%ADD29ROTATEDRECTD29*%

G04:AMPARAMS|DCode=30|XSize=112.05mil|YSize=167.16mil|CornerRadius=0mil|HoleSize=0mil|Usage=FLASHONLY|Rotation=150.000|XOffset=0mil|YOffset=0mil|HoleType=Round|Shape=Rectangle|*
%AMROTATEDRECTD30*
4,1,4,0.09031,0.04437,0.00673,-0.10040,-0.09031,-0.04437,-0.00673,0.10040,0.09031,0.04437,0.0*
%
%ADD30ROTATEDRECTD30*%

%ADD31R,0.16716X0.11205*%
D27*
X925500Y452500D02*
D03*
X914500D02*
D03*
X998000Y637500D02*
D03*
X987000D02*
D03*
X842000Y640000D02*
D03*
X853000D02*
D03*
X722000Y837500D02*
D03*
X733000D02*
D03*
X925500Y870000D02*
D03*
X914500D02*
D03*
X1100500Y830000D02*
D03*
X1089500D02*
D03*
D28*
X1235000Y1040500D02*
D03*
Y1029500D02*
D03*
X1042500Y993000D02*
D03*
Y982000D02*
D03*
X797500Y993000D02*
D03*
Y982000D02*
D03*
X605000Y1029500D02*
D03*
Y1040500D02*
D03*
D29*
X1156362Y977126D02*
D03*
X1170000Y985000D02*
D03*
X1183638Y992874D02*
D03*
X1168665Y955816D02*
D03*
X1182303Y963690D02*
D03*
X1195941Y971564D02*
D03*
X1197276Y1000748D02*
D03*
X1209579Y979438D02*
D03*
X799000Y741500D02*
D03*
X785362Y733626D02*
D03*
X771724Y725752D02*
D03*
X786697Y762810D02*
D03*
X773059Y754936D02*
D03*
X759420Y747062D02*
D03*
X758085Y717878D02*
D03*
X745782Y739188D02*
D03*
D30*
X1054224Y763248D02*
D03*
X1067862Y755374D02*
D03*
X1081500Y747500D02*
D03*
X1041920Y741938D02*
D03*
X1055559Y734064D02*
D03*
X1069197Y726190D02*
D03*
X1095138Y739626D02*
D03*
X1082835Y718316D02*
D03*
X642027Y1000058D02*
D03*
X629724Y978748D02*
D03*
X655665Y992184D02*
D03*
X669303Y984310D02*
D03*
X682941Y976436D02*
D03*
X643362Y970874D02*
D03*
X657000Y963000D02*
D03*
X670638Y955126D02*
D03*
D31*
X932606Y1020496D02*
D03*
X908000D02*
D03*
X932606Y1004748D02*
D03*
Y989000D02*
D03*
Y973252D02*
D03*
X908000Y1004748D02*
D03*
Y989000D02*
D03*
Y973252D02*
D03*
X907894Y498500D02*
D03*
X932500D02*
D03*
X907894Y514248D02*
D03*
Y529996D02*
D03*
Y545744D02*
D03*
X932500Y514248D02*
D03*
Y529996D02*
D03*
Y545744D02*
D03*
M02*
