%FSLAX25Y25*%
%MOIN*%
G70*
G01*
G75*
G04 Layer_Physical_Order=2*
G04 Layer_Color=65280*
%ADD10P,0.08352X4X90.0*%
%ADD11P,0.08352X4X180.0*%
%ADD12C,0.05000*%
%ADD13C,0.02500*%
%ADD14C,0.16500*%
%ADD15C,0.04000*%
%ADD16C,0.12500*%
%ADD17R,0.05000X0.08000*%
%ADD18R,0.08000X0.05000*%
G04:AMPARAMS|DCode=19|XSize=122.05mil|YSize=177.16mil|CornerRadius=0mil|HoleSize=0mil|Usage=FLASHONLY|Rotation=210.000|XOffset=0mil|YOffset=0mil|HoleType=Round|Shape=Rectangle|*
%AMROTATEDRECTD19*
4,1,4,0.00856,0.10723,0.09714,-0.04620,-0.00856,-0.10723,-0.09714,0.04620,0.00856,0.10723,0.0*
%
%ADD19ROTATEDRECTD19*%

G04:AMPARAMS|DCode=20|XSize=122.05mil|YSize=177.16mil|CornerRadius=0mil|HoleSize=0mil|Usage=FLASHONLY|Rotation=150.000|XOffset=0mil|YOffset=0mil|HoleType=Round|Shape=Rectangle|*
%AMROTATEDRECTD20*
4,1,4,0.09714,0.04620,0.00856,-0.10723,-0.09714,-0.04620,-0.00856,0.10723,0.09714,0.04620,0.0*
%
%ADD20ROTATEDRECTD20*%

%ADD21R,0.17716X0.12205*%
G36*
X1285056Y1088679D02*
X1289325Y1088174D01*
X1293541Y1087335D01*
X1297679Y1086168D01*
X1301712Y1084680D01*
X1305616Y1082880D01*
X1309367Y1080780D01*
X1312941Y1078391D01*
X1316318Y1075730D01*
X1319475Y1072812D01*
X1322393Y1069655D01*
X1325054Y1066279D01*
X1327442Y1062704D01*
X1329543Y1058953D01*
X1331343Y1055049D01*
X1332831Y1051016D01*
X1333998Y1046878D01*
X1334836Y1042662D01*
X1335342Y1038393D01*
X1335511Y1034097D01*
X1335342Y1029801D01*
X1334836Y1025532D01*
X1333998Y1021316D01*
X1332831Y1017178D01*
X1331343Y1013145D01*
X1329543Y1009241D01*
X1328143Y1006740D01*
X1328143Y1006740D01*
X1328147Y1006724D01*
X967403Y381897D01*
X967393Y381903D01*
X966693Y380653D01*
X964304Y377078D01*
X961643Y373702D01*
X958724Y370545D01*
X955568Y367627D01*
X952192Y364966D01*
X948617Y362577D01*
X944866Y360476D01*
X940962Y358677D01*
X936929Y357189D01*
X932791Y356022D01*
X928575Y355183D01*
X924306Y354678D01*
X920010Y354509D01*
X915714Y354678D01*
X911445Y355183D01*
X907228Y356022D01*
X903091Y357189D01*
X899058Y358677D01*
X895153Y360476D01*
X891403Y362577D01*
X887828Y364966D01*
X884452Y367627D01*
X881295Y370545D01*
X878377Y373702D01*
X875716Y377078D01*
X873327Y380653D01*
X872627Y381903D01*
X872627D01*
X872610Y381908D01*
X511866Y1006734D01*
X511877Y1006740D01*
X511854Y1006780D01*
D01*
X511854Y1006780D01*
X511854Y1006781D01*
D01*
D01*
D01*
D01*
X511854Y1006780D01*
X510476Y1009241D01*
X508677Y1013145D01*
X507189Y1017178D01*
X506022Y1021316D01*
X505183Y1025532D01*
X504678Y1029801D01*
X504509Y1034097D01*
X504678Y1038393D01*
X505183Y1042662D01*
X506022Y1046878D01*
X507189Y1051016D01*
X508677Y1055049D01*
X510476Y1058953D01*
X512577Y1062704D01*
X514965Y1066279D01*
X517627Y1069655D01*
X520545Y1072812D01*
X523702Y1075730D01*
X527078Y1078391D01*
X530653Y1080780D01*
X534403Y1082880D01*
X538308Y1084680D01*
X542341Y1086168D01*
X546479Y1087335D01*
X550695Y1088174D01*
X554964Y1088679D01*
X559110Y1088842D01*
X559260Y1088822D01*
X1280760D01*
X1280909Y1088842D01*
X1285056Y1088679D01*
D02*
G37*
%LPC*%
G36*
X1160510Y843857D02*
X1158155Y843702D01*
X1155841Y843242D01*
X1153607Y842484D01*
X1151490Y841440D01*
X1149529Y840129D01*
X1147755Y838573D01*
X1146199Y836799D01*
X1144888Y834837D01*
X1143844Y832721D01*
X1143086Y830487D01*
X1142626Y828172D01*
X1142471Y825818D01*
X1142626Y823464D01*
X1143086Y821149D01*
X1143844Y818915D01*
X1144888Y816799D01*
X1146199Y814837D01*
X1147755Y813063D01*
X1149529Y811507D01*
X1151490Y810196D01*
X1153607Y809153D01*
X1155841Y808394D01*
X1158155Y807934D01*
X1160510Y807779D01*
X1162864Y807934D01*
X1165178Y808394D01*
X1167413Y809153D01*
X1169529Y810196D01*
X1171491Y811507D01*
X1173265Y813063D01*
X1174821Y814837D01*
X1176132Y816799D01*
X1177175Y818915D01*
X1177934Y821149D01*
X1178394Y823464D01*
X1178548Y825818D01*
X1178394Y828172D01*
X1177934Y830487D01*
X1177175Y832721D01*
X1176132Y834837D01*
X1174821Y836799D01*
X1173265Y838573D01*
X1171491Y840129D01*
X1169529Y841440D01*
X1167413Y842484D01*
X1165178Y843242D01*
X1162864Y843702D01*
X1160510Y843857D01*
D02*
G37*
G36*
X679510D02*
X677155Y843702D01*
X674841Y843242D01*
X672607Y842484D01*
X670491Y841440D01*
X668529Y840129D01*
X666755Y838573D01*
X665199Y836799D01*
X663888Y834837D01*
X662844Y832721D01*
X662086Y830487D01*
X661625Y828172D01*
X661471Y825818D01*
X661625Y823464D01*
X662086Y821149D01*
X662844Y818915D01*
X663888Y816799D01*
X665199Y814837D01*
X666755Y813063D01*
X668529Y811507D01*
X670491Y810196D01*
X672607Y809153D01*
X674841Y808394D01*
X677155Y807934D01*
X679510Y807779D01*
X681864Y807934D01*
X684178Y808394D01*
X686413Y809153D01*
X688529Y810196D01*
X690491Y811507D01*
X692265Y813063D01*
X693821Y814837D01*
X695132Y816799D01*
X696175Y818915D01*
X696934Y821149D01*
X697394Y823464D01*
X697548Y825818D01*
X697394Y828172D01*
X696934Y830487D01*
X696175Y832721D01*
X695132Y834837D01*
X693821Y836799D01*
X692265Y838573D01*
X690491Y840129D01*
X688529Y841440D01*
X686413Y842484D01*
X684178Y843242D01*
X681864Y843702D01*
X679510Y843857D01*
D02*
G37*
G36*
X598000Y934051D02*
X595411Y933847D01*
X592885Y933241D01*
X590486Y932247D01*
X588272Y930890D01*
X586297Y929203D01*
X584610Y927228D01*
X583253Y925014D01*
X582259Y922615D01*
X581653Y920089D01*
X581449Y917500D01*
X581653Y914911D01*
X582259Y912385D01*
X583253Y909986D01*
X584610Y907772D01*
X586297Y905797D01*
X588272Y904110D01*
X590486Y902753D01*
X592885Y901759D01*
X595411Y901153D01*
X598000Y900949D01*
X600589Y901153D01*
X603115Y901759D01*
X605514Y902753D01*
X607728Y904110D01*
X609703Y905797D01*
X611390Y907772D01*
X612747Y909986D01*
X613741Y912385D01*
X614347Y914911D01*
X614551Y917500D01*
X614347Y920089D01*
X613741Y922615D01*
X612747Y925014D01*
X611390Y927228D01*
X609703Y929203D01*
X607728Y930890D01*
X605514Y932247D01*
X603115Y933241D01*
X600589Y933847D01*
X598000Y934051D01*
D02*
G37*
G36*
X612500Y1035500D02*
X597500D01*
Y1023500D01*
X600352D01*
X601080Y1022941D01*
X602096Y1021421D01*
X601774Y1020645D01*
X601585Y1019210D01*
X601774Y1017774D01*
X602328Y1016436D01*
X603210Y1015287D01*
X604359Y1014405D01*
X605697Y1013851D01*
X607133Y1013662D01*
X608568Y1013851D01*
X609906Y1014405D01*
X611055Y1015287D01*
X611937Y1016436D01*
X612491Y1017774D01*
X612680Y1019210D01*
X612491Y1020645D01*
X611937Y1021983D01*
X611055Y1023132D01*
X611180Y1023500D01*
X612500D01*
Y1035500D01*
D02*
G37*
G36*
X1242000Y934051D02*
X1239411Y933847D01*
X1236885Y933241D01*
X1234486Y932247D01*
X1232272Y930890D01*
X1230297Y929203D01*
X1228610Y927228D01*
X1227253Y925014D01*
X1226259Y922615D01*
X1225653Y920089D01*
X1225449Y917500D01*
X1225653Y914911D01*
X1226259Y912385D01*
X1227253Y909986D01*
X1228610Y907772D01*
X1230297Y905797D01*
X1232272Y904110D01*
X1234486Y902753D01*
X1236885Y901759D01*
X1239411Y901153D01*
X1242000Y900949D01*
X1244589Y901153D01*
X1247115Y901759D01*
X1249514Y902753D01*
X1251728Y904110D01*
X1253703Y905797D01*
X1255390Y907772D01*
X1256747Y909986D01*
X1257741Y912385D01*
X1258347Y914911D01*
X1258551Y917500D01*
X1258347Y920089D01*
X1257741Y922615D01*
X1256747Y925014D01*
X1255390Y927228D01*
X1253703Y929203D01*
X1251728Y930890D01*
X1249514Y932247D01*
X1247115Y933241D01*
X1244589Y933847D01*
X1242000Y934051D01*
D02*
G37*
G36*
X1040260Y635577D02*
X1037905Y635423D01*
X1035591Y634963D01*
X1033357Y634204D01*
X1031240Y633161D01*
X1029279Y631850D01*
X1027505Y630294D01*
X1025949Y628520D01*
X1024638Y626558D01*
X1023594Y624442D01*
X1022836Y622208D01*
X1022375Y619893D01*
X1022221Y617539D01*
X1022375Y615184D01*
X1022836Y612870D01*
X1023594Y610636D01*
X1024638Y608520D01*
X1025949Y606558D01*
X1027505Y604784D01*
X1029279Y603228D01*
X1031240Y601917D01*
X1033357Y600873D01*
X1035591Y600115D01*
X1037905Y599655D01*
X1040260Y599500D01*
X1042614Y599655D01*
X1044928Y600115D01*
X1047163Y600873D01*
X1049279Y601917D01*
X1051241Y603228D01*
X1053015Y604784D01*
X1054571Y606558D01*
X1055882Y608520D01*
X1056925Y610636D01*
X1057684Y612870D01*
X1058144Y615184D01*
X1058298Y617539D01*
X1058144Y619893D01*
X1057684Y622208D01*
X1056925Y624442D01*
X1055882Y626558D01*
X1054571Y628520D01*
X1053015Y630294D01*
X1051241Y631850D01*
X1049279Y633161D01*
X1047163Y634204D01*
X1044928Y634963D01*
X1042614Y635423D01*
X1040260Y635577D01*
D02*
G37*
G36*
X950000Y461029D02*
X948824Y460913D01*
X947693Y460570D01*
X946650Y460013D01*
X945737Y459263D01*
X945003Y458529D01*
X931500D01*
Y460000D01*
X919500D01*
Y452795D01*
X919471Y452500D01*
X919500Y452205D01*
Y445000D01*
X931500D01*
Y446471D01*
X947500D01*
X948676Y446587D01*
X949807Y446930D01*
Y446930D01*
X949807D01*
X949807Y446930D01*
X949807D01*
Y446930D01*
D01*
D01*
D01*
Y446930D01*
D01*
D01*
D01*
D01*
D01*
Y446930D01*
D01*
D01*
X949807D01*
D01*
X950850Y447487D01*
X951763Y448237D01*
Y448237D01*
X951763D01*
D01*
D01*
D01*
D01*
D01*
D01*
X951763D01*
D01*
X951763D01*
Y448237D01*
D01*
D01*
D01*
D01*
Y448237D01*
D01*
D01*
D01*
Y448237D01*
D01*
D01*
X951763D01*
D01*
D01*
D01*
D01*
D01*
X954263Y450737D01*
X955013Y451650D01*
X955570Y452693D01*
X955913Y453824D01*
X956029Y455000D01*
X955913Y456176D01*
X955570Y457307D01*
X955013Y458350D01*
X954263Y459263D01*
X953349Y460013D01*
X952307Y460570D01*
X951176Y460913D01*
X950000Y461029D01*
D02*
G37*
G36*
X920010Y427298D02*
X917655Y427144D01*
X915341Y426684D01*
X913107Y425925D01*
X910991Y424882D01*
X909029Y423571D01*
X907255Y422015D01*
X905699Y420241D01*
X904388Y418279D01*
X903344Y416163D01*
X902586Y413929D01*
X902125Y411614D01*
X901971Y409260D01*
X902125Y406905D01*
X902586Y404591D01*
X903344Y402357D01*
X904388Y400241D01*
X905699Y398279D01*
X907255Y396505D01*
X909029Y394949D01*
X910991Y393638D01*
X913107Y392594D01*
X915341Y391836D01*
X917655Y391375D01*
X920010Y391221D01*
X922364Y391375D01*
X924679Y391836D01*
X926913Y392594D01*
X929029Y393638D01*
X930991Y394949D01*
X932765Y396505D01*
X934321Y398279D01*
X935632Y400241D01*
X936675Y402357D01*
X937434Y404591D01*
X937894Y406905D01*
X938048Y409260D01*
X937894Y411614D01*
X937434Y413929D01*
X936675Y416163D01*
X935632Y418279D01*
X934321Y420241D01*
X932765Y422015D01*
X930991Y423571D01*
X929029Y424882D01*
X926913Y425925D01*
X924679Y426684D01*
X922364Y427144D01*
X920010Y427298D01*
D02*
G37*
G36*
X838000Y517551D02*
X835411Y517347D01*
X832885Y516741D01*
X830486Y515747D01*
X828272Y514390D01*
X826297Y512703D01*
X824610Y510728D01*
X823253Y508514D01*
X822259Y506114D01*
X821653Y503589D01*
X821449Y501000D01*
X821653Y498411D01*
X822259Y495886D01*
X823253Y493486D01*
X824610Y491272D01*
X826297Y489297D01*
X828272Y487610D01*
X830486Y486253D01*
X832885Y485259D01*
X835411Y484653D01*
X838000Y484449D01*
X840589Y484653D01*
X843115Y485259D01*
X845514Y486253D01*
X847728Y487610D01*
X849703Y489297D01*
X851390Y491272D01*
X852747Y493486D01*
X853741Y495886D01*
X854347Y498411D01*
X854551Y501000D01*
X854347Y503589D01*
X853741Y506114D01*
X852747Y508514D01*
X851390Y510728D01*
X849703Y512703D01*
X847728Y514390D01*
X845514Y515747D01*
X843115Y516741D01*
X840589Y517347D01*
X838000Y517551D01*
D02*
G37*
G36*
X799760Y635577D02*
X797405Y635423D01*
X795091Y634963D01*
X792857Y634204D01*
X790740Y633161D01*
X788779Y631850D01*
X787005Y630294D01*
X785449Y628520D01*
X784138Y626558D01*
X783094Y624442D01*
X782336Y622208D01*
X781876Y619893D01*
X781721Y617539D01*
X781876Y615184D01*
X782336Y612870D01*
X783094Y610636D01*
X784138Y608520D01*
X785449Y606558D01*
X787005Y604784D01*
X788779Y603228D01*
X790740Y601917D01*
X792857Y600873D01*
X795091Y600115D01*
X797405Y599655D01*
X799760Y599500D01*
X802114Y599655D01*
X804428Y600115D01*
X806663Y600873D01*
X808779Y601917D01*
X810741Y603228D01*
X812515Y604784D01*
X814071Y606558D01*
X815382Y608520D01*
X816425Y610636D01*
X817184Y612870D01*
X817644Y615184D01*
X817798Y617539D01*
X817644Y619893D01*
X817184Y622208D01*
X816425Y624442D01*
X815382Y626558D01*
X814071Y628520D01*
X812515Y630294D01*
X810741Y631850D01*
X808779Y633161D01*
X806663Y634204D01*
X804428Y634963D01*
X802114Y635423D01*
X799760Y635577D01*
D02*
G37*
G36*
X1001500Y517551D02*
X998911Y517347D01*
X996385Y516741D01*
X993986Y515747D01*
X991772Y514390D01*
X989797Y512703D01*
X988110Y510728D01*
X986753Y508514D01*
X985759Y506114D01*
X985153Y503589D01*
X984949Y501000D01*
X985153Y498411D01*
X985759Y495886D01*
X986753Y493486D01*
X988110Y491272D01*
X989797Y489297D01*
X991772Y487610D01*
X993986Y486253D01*
X996385Y485259D01*
X998911Y484653D01*
X1001500Y484449D01*
X1004089Y484653D01*
X1006615Y485259D01*
X1009014Y486253D01*
X1011228Y487610D01*
X1013203Y489297D01*
X1014890Y491272D01*
X1016247Y493486D01*
X1017241Y495886D01*
X1017847Y498411D01*
X1018051Y501000D01*
X1017847Y503589D01*
X1017241Y506114D01*
X1016247Y508514D01*
X1014890Y510728D01*
X1013203Y512703D01*
X1011228Y514390D01*
X1009014Y515747D01*
X1006615Y516741D01*
X1004089Y517347D01*
X1001500Y517551D01*
D02*
G37*
G36*
X559260Y1052136D02*
X556905Y1051981D01*
X554591Y1051521D01*
X552357Y1050763D01*
X550241Y1049719D01*
X548279Y1048408D01*
X546505Y1046852D01*
X544949Y1045078D01*
X543638Y1043116D01*
X542594Y1041000D01*
X541836Y1038766D01*
X541375Y1036452D01*
X541221Y1034097D01*
X541375Y1031743D01*
X541836Y1029428D01*
X542594Y1027194D01*
X543638Y1025078D01*
X544949Y1023116D01*
X546505Y1021342D01*
X548279Y1019786D01*
X550241Y1018475D01*
X552357Y1017432D01*
X554591Y1016673D01*
X556905Y1016213D01*
X559260Y1016059D01*
X561614Y1016213D01*
X563929Y1016673D01*
X566163Y1017432D01*
X568279Y1018475D01*
X570241Y1019786D01*
X572015Y1021342D01*
X573571Y1023116D01*
X574882Y1025078D01*
X575925Y1027194D01*
X576684Y1029428D01*
X577144Y1031743D01*
X577298Y1034097D01*
X577144Y1036452D01*
X576684Y1038766D01*
X575925Y1041000D01*
X574882Y1043116D01*
X573571Y1045078D01*
X572015Y1046852D01*
X570241Y1048408D01*
X568279Y1049719D01*
X566163Y1050763D01*
X563929Y1051521D01*
X561614Y1051981D01*
X559260Y1052136D01*
D02*
G37*
G36*
X944965Y1030098D02*
X895642D01*
Y1026525D01*
X892996D01*
X891820Y1026409D01*
X890689Y1026066D01*
X889647Y1025509D01*
X888733Y1024759D01*
X872503Y1008529D01*
X722497D01*
X709263Y1021763D01*
X708350Y1022513D01*
X707307Y1023070D01*
X706176Y1023413D01*
X705000Y1023529D01*
X657500D01*
X657500Y1023529D01*
X656324Y1023413D01*
X655193Y1023070D01*
X654150Y1022513D01*
X653237Y1021763D01*
X653237Y1021763D01*
X644420Y1012946D01*
X641421Y1014678D01*
D01*
X639890Y1015561D01*
X639006Y1014030D01*
D01*
X627587Y994252D01*
X627587Y994252D01*
X627587Y994252D01*
X627587Y994252D01*
X615229Y972847D01*
X618971Y970686D01*
Y930000D01*
X618971Y930000D01*
X618971D01*
X619087Y928824D01*
X619430Y927693D01*
X619430Y927693D01*
X619430Y927693D01*
X619987Y926650D01*
X620737Y925737D01*
Y925737D01*
D01*
D01*
X620737Y925737D01*
Y925737D01*
X620737Y925737D01*
X706471Y840003D01*
Y797500D01*
X706587Y796324D01*
X706930Y795193D01*
X707487Y794150D01*
X708237Y793237D01*
X733971Y767503D01*
Y747500D01*
X733971Y747500D01*
X733971D01*
X734051Y746685D01*
X731287Y745089D01*
X743645Y723684D01*
X743645Y723684D01*
X743645Y723684D01*
Y723684D01*
X755065Y703905D01*
D01*
X755949Y702374D01*
X757480Y703258D01*
D01*
X759531Y704443D01*
X780737Y683237D01*
Y683237D01*
X780737D01*
Y683237D01*
X780737Y683237D01*
X781650Y682487D01*
X782693Y681930D01*
X783824Y681587D01*
X785000Y681471D01*
X800003D01*
X826471Y655003D01*
Y612500D01*
X826471Y612500D01*
X826471D01*
X826587Y611324D01*
X826930Y610193D01*
X826930Y610193D01*
X826930Y610193D01*
X827487Y609151D01*
X828237Y608237D01*
X828237Y608237D01*
X828237Y608237D01*
X851471Y585003D01*
Y532500D01*
X851471Y532500D01*
X851471D01*
X851587Y531324D01*
X851930Y530193D01*
X851930Y530193D01*
X851930Y530193D01*
X852487Y529150D01*
X853237Y528237D01*
Y528237D01*
D01*
D01*
X853237Y528237D01*
Y528237D01*
X853237Y528237D01*
X887237Y494237D01*
Y494237D01*
D01*
D01*
X887237Y494237D01*
Y494237D01*
D01*
Y494237D01*
X887237Y494237D01*
X888150Y493487D01*
X889193Y492930D01*
D01*
X889193D01*
X889193Y492930D01*
D01*
D01*
D01*
X889193D01*
D01*
D01*
X889193D01*
D01*
D01*
Y492930D01*
X890324Y492587D01*
X891500Y492471D01*
X895535D01*
Y488898D01*
X944858D01*
Y492471D01*
X948500D01*
X949676Y492587D01*
X950807Y492930D01*
X951850Y493487D01*
X952763Y494237D01*
X986763Y528237D01*
X987513Y529150D01*
X988070Y530193D01*
X988413Y531324D01*
X988529Y532500D01*
Y580003D01*
X1011763Y603237D01*
X1012513Y604150D01*
X1013070Y605193D01*
X1013413Y606324D01*
X1013529Y607500D01*
Y657503D01*
X1047497Y691471D01*
X1065000D01*
X1066176Y691587D01*
X1067307Y691930D01*
Y691930D01*
X1067307D01*
X1067307Y691930D01*
X1067307D01*
Y691930D01*
D01*
D01*
D01*
Y691930D01*
D01*
D01*
D01*
D01*
D01*
Y691930D01*
D01*
D01*
X1067307D01*
D01*
X1068350Y692487D01*
X1069263Y693237D01*
Y693237D01*
X1069263D01*
D01*
D01*
D01*
D01*
D01*
D01*
X1069263D01*
D01*
X1069263D01*
Y693237D01*
D01*
D01*
D01*
D01*
Y693237D01*
D01*
D01*
D01*
Y693237D01*
D01*
D01*
X1069263D01*
D01*
D01*
D01*
D01*
D01*
X1081084Y705057D01*
X1083441Y703696D01*
D01*
X1084972Y702812D01*
X1085856Y704344D01*
D01*
X1097275Y724122D01*
Y724122D01*
X1097275D01*
X1097275D01*
Y724122D01*
D01*
D01*
D01*
D01*
D01*
D01*
X1097275D01*
Y724122D01*
D01*
D01*
D01*
D01*
D01*
D01*
D01*
D01*
D01*
Y724122D01*
X1097275D01*
D01*
D01*
D01*
X1109633Y745527D01*
X1109459Y745628D01*
X1109133Y748106D01*
X1112899Y751873D01*
X1115209Y750916D01*
Y706985D01*
X1076612Y668388D01*
X1075851Y667395D01*
X1075711Y667057D01*
X1075372Y666240D01*
X1075209Y665000D01*
Y609484D01*
X1051086Y585361D01*
X1051064Y585358D01*
X1049726Y584804D01*
X1048577Y583923D01*
X1047696Y582774D01*
X1047142Y581436D01*
X1046953Y580000D01*
X1047142Y578564D01*
X1047696Y577226D01*
X1048577Y576077D01*
X1049726Y575196D01*
X1051064Y574642D01*
X1052500Y574452D01*
X1053936Y574642D01*
X1055274Y575196D01*
X1056423Y576077D01*
X1057304Y577226D01*
X1057858Y578564D01*
X1057861Y578586D01*
X1083388Y604112D01*
X1084149Y605104D01*
X1084628Y606260D01*
X1084791Y607500D01*
D01*
D01*
D01*
D01*
D01*
X1084791D01*
D01*
D01*
D01*
Y607500D01*
X1084791D01*
D01*
Y607500D01*
D01*
D01*
D01*
D01*
D01*
D01*
D01*
D01*
D01*
D01*
D01*
D01*
Y607500D01*
D01*
X1084791D01*
D01*
D01*
D01*
D01*
X1084791Y607500D01*
Y663016D01*
X1123388Y701612D01*
X1124149Y702604D01*
X1124628Y703760D01*
X1124791Y705000D01*
D01*
D01*
D01*
D01*
D01*
X1124791D01*
D01*
D01*
D01*
Y705000D01*
X1124791D01*
D01*
Y705000D01*
D01*
D01*
D01*
D01*
D01*
D01*
D01*
D01*
D01*
D01*
D01*
D01*
Y705000D01*
D01*
X1124791D01*
D01*
D01*
D01*
D01*
X1124791Y705000D01*
Y824709D01*
X1124804Y824726D01*
X1125358Y826064D01*
X1125548Y827500D01*
X1125358Y828936D01*
X1124804Y830274D01*
X1123923Y831423D01*
X1122774Y832304D01*
X1121436Y832858D01*
X1120000Y833047D01*
X1118564Y832858D01*
X1118108Y832669D01*
X1116029Y834058D01*
Y850003D01*
X1169997Y903971D01*
X1182500D01*
X1183676Y904087D01*
X1184807Y904430D01*
Y904430D01*
X1184807D01*
X1184807Y904430D01*
X1184807D01*
Y904430D01*
D01*
D01*
D01*
Y904430D01*
D01*
D01*
D01*
D01*
D01*
Y904430D01*
D01*
D01*
X1184807D01*
D01*
X1185850Y904987D01*
X1186763Y905737D01*
Y905737D01*
X1186763D01*
D01*
D01*
D01*
D01*
D01*
D01*
X1186763D01*
D01*
X1186763D01*
Y905737D01*
D01*
D01*
D01*
D01*
Y905737D01*
D01*
D01*
D01*
Y905737D01*
D01*
D01*
X1186763D01*
D01*
D01*
D01*
X1216763Y935737D01*
Y935737D01*
D01*
D01*
D01*
X1216763Y935737D01*
D01*
Y935737D01*
D01*
D01*
D01*
D01*
X1216763D01*
Y935737D01*
D01*
D01*
D01*
X1216763D01*
D01*
D01*
Y935737D01*
D01*
D01*
D01*
Y935737D01*
D01*
D01*
X1216763D01*
D01*
X1216763Y935737D01*
D01*
D01*
X1217513Y936650D01*
X1218070Y937693D01*
Y937693D01*
X1218070D01*
D01*
D01*
D01*
D01*
X1218070D01*
D01*
D01*
D01*
Y937693D01*
X1218070D01*
D01*
Y937693D01*
D01*
D01*
D01*
D01*
D01*
D01*
D01*
D01*
D01*
D01*
D01*
D01*
Y937693D01*
D01*
X1218070D01*
D01*
D01*
D01*
D01*
X1218070Y937693D01*
X1218413Y938824D01*
X1218529Y940000D01*
X1218529Y940000D01*
Y970335D01*
X1224075Y973537D01*
X1211716Y994942D01*
X1211716Y994942D01*
D01*
D01*
D01*
D01*
D01*
D01*
D01*
D01*
D01*
D01*
D01*
D01*
D01*
D01*
X1211716Y994942D01*
D01*
D01*
D01*
D01*
D01*
D01*
X1211716Y998190D01*
X1224712Y1011186D01*
X1225462Y1012099D01*
X1226019Y1013142D01*
X1226362Y1014272D01*
X1226478Y1015449D01*
X1226362Y1016625D01*
X1226019Y1017756D01*
X1225462Y1018798D01*
X1224712Y1019712D01*
X1223798Y1020462D01*
X1222756Y1021019D01*
X1221625Y1021362D01*
X1220449Y1021478D01*
X1219273Y1021362D01*
X1218141Y1021019D01*
X1217099Y1020462D01*
X1216186Y1019712D01*
X1205738Y1009264D01*
X1203259Y1009590D01*
X1200297Y1014721D01*
D01*
X1199413Y1016252D01*
X1197882Y1015368D01*
D01*
X1194887Y1013639D01*
X1184263Y1024263D01*
X1183350Y1025013D01*
X1182307Y1025570D01*
X1181176Y1025913D01*
X1180000Y1026029D01*
X1137500D01*
X1136324Y1025913D01*
X1135193Y1025570D01*
X1134150Y1025013D01*
X1133237Y1024263D01*
X1117503Y1008529D01*
X969997D01*
X953767Y1024759D01*
D01*
X953767Y1024759D01*
D01*
D01*
D01*
X953767Y1024759D01*
X953767Y1024759D01*
X952853Y1025509D01*
X951811Y1026066D01*
D01*
D01*
Y1026066D01*
X951811D01*
D01*
D01*
D01*
D01*
X951811D01*
Y1026066D01*
D01*
D01*
D01*
X951811Y1026066D01*
D01*
X951811D01*
X951811Y1026066D01*
X951811Y1026066D01*
X950680Y1026409D01*
X949504Y1026525D01*
X944965D01*
Y1030098D01*
D02*
G37*
G36*
X1244276Y1070305D02*
X1243100Y1070189D01*
X1241969Y1069846D01*
X1240926Y1069289D01*
X1240013Y1068539D01*
X1230737Y1059263D01*
X1229987Y1058350D01*
X1229430Y1057307D01*
X1229087Y1056176D01*
X1228971Y1055000D01*
Y1046500D01*
X1227500D01*
Y1034500D01*
X1234705D01*
X1235000Y1034471D01*
X1235295Y1034500D01*
X1242500D01*
Y1046500D01*
X1241029D01*
Y1052503D01*
X1248539Y1060013D01*
X1249289Y1060926D01*
X1249846Y1061969D01*
X1250189Y1063100D01*
X1250305Y1064276D01*
X1250189Y1065452D01*
X1249846Y1066583D01*
X1249289Y1067626D01*
X1248539Y1068539D01*
X1247626Y1069289D01*
X1246583Y1069846D01*
X1245452Y1070189D01*
X1244276Y1070305D01*
D02*
G37*
G36*
X1040260Y1052136D02*
X1037905Y1051981D01*
X1035591Y1051521D01*
X1033357Y1050763D01*
X1031240Y1049719D01*
X1029279Y1048408D01*
X1027505Y1046852D01*
X1025949Y1045078D01*
X1024638Y1043116D01*
X1023594Y1041000D01*
X1022836Y1038766D01*
X1022375Y1036452D01*
X1022221Y1034097D01*
X1022375Y1031743D01*
X1022836Y1029428D01*
X1023594Y1027194D01*
X1024638Y1025078D01*
X1025949Y1023116D01*
X1027505Y1021342D01*
X1029279Y1019786D01*
X1031240Y1018475D01*
X1033357Y1017432D01*
X1035591Y1016673D01*
X1037905Y1016213D01*
X1040260Y1016059D01*
X1042614Y1016213D01*
X1044928Y1016673D01*
X1047163Y1017432D01*
X1049279Y1018475D01*
X1051241Y1019786D01*
X1053015Y1021342D01*
X1054571Y1023116D01*
X1055882Y1025078D01*
X1056925Y1027194D01*
X1057684Y1029428D01*
X1058144Y1031743D01*
X1058298Y1034097D01*
X1058144Y1036452D01*
X1057684Y1038766D01*
X1056925Y1041000D01*
X1055882Y1043116D01*
X1054571Y1045078D01*
X1053015Y1046852D01*
X1051241Y1048408D01*
X1049279Y1049719D01*
X1047163Y1050763D01*
X1044928Y1051521D01*
X1042614Y1051981D01*
X1040260Y1052136D01*
D02*
G37*
G36*
X1280760D02*
X1278405Y1051981D01*
X1276091Y1051521D01*
X1273857Y1050763D01*
X1271741Y1049719D01*
X1269779Y1048408D01*
X1268005Y1046852D01*
X1266449Y1045078D01*
X1265138Y1043116D01*
X1264094Y1041000D01*
X1263336Y1038766D01*
X1262875Y1036452D01*
X1262721Y1034097D01*
X1262875Y1031743D01*
X1263336Y1029428D01*
X1264094Y1027194D01*
X1265138Y1025078D01*
X1266449Y1023116D01*
X1268005Y1021342D01*
X1269779Y1019786D01*
X1271741Y1018475D01*
X1273857Y1017432D01*
X1276091Y1016673D01*
X1278405Y1016213D01*
X1280760Y1016059D01*
X1283114Y1016213D01*
X1285429Y1016673D01*
X1287663Y1017432D01*
X1289779Y1018475D01*
X1291741Y1019786D01*
X1293515Y1021342D01*
X1295071Y1023116D01*
X1296382Y1025078D01*
X1297425Y1027194D01*
X1298184Y1029428D01*
X1298644Y1031743D01*
X1298798Y1034097D01*
X1298644Y1036452D01*
X1298184Y1038766D01*
X1297425Y1041000D01*
X1296382Y1043116D01*
X1295071Y1045078D01*
X1293515Y1046852D01*
X1291741Y1048408D01*
X1289779Y1049719D01*
X1287663Y1050763D01*
X1285429Y1051521D01*
X1283114Y1051981D01*
X1280760Y1052136D01*
D02*
G37*
G36*
X1160500Y1075551D02*
X1157911Y1075347D01*
X1155385Y1074741D01*
X1152986Y1073747D01*
X1150772Y1072390D01*
X1148797Y1070703D01*
X1147110Y1068728D01*
X1145753Y1066514D01*
X1144759Y1064115D01*
X1144153Y1061589D01*
X1143949Y1059000D01*
X1144153Y1056411D01*
X1144759Y1053885D01*
X1145753Y1051486D01*
X1147110Y1049272D01*
X1148797Y1047297D01*
X1150772Y1045610D01*
X1152986Y1044253D01*
X1155385Y1043259D01*
X1157911Y1042653D01*
X1160500Y1042449D01*
X1163089Y1042653D01*
X1165615Y1043259D01*
X1168014Y1044253D01*
X1170228Y1045610D01*
X1172203Y1047297D01*
X1173890Y1049272D01*
X1175247Y1051486D01*
X1176241Y1053885D01*
X1176847Y1056411D01*
X1177051Y1059000D01*
X1176847Y1061589D01*
X1176241Y1064115D01*
X1175247Y1066514D01*
X1173890Y1068728D01*
X1172203Y1070703D01*
X1170228Y1072390D01*
X1168014Y1073747D01*
X1165615Y1074741D01*
X1163089Y1075347D01*
X1160500Y1075551D01*
D02*
G37*
G36*
X799760Y1052136D02*
X797405Y1051981D01*
X795091Y1051521D01*
X792857Y1050763D01*
X790740Y1049719D01*
X788779Y1048408D01*
X787005Y1046852D01*
X785449Y1045078D01*
X784138Y1043116D01*
X783094Y1041000D01*
X782336Y1038766D01*
X781876Y1036452D01*
X781721Y1034097D01*
X781876Y1031743D01*
X782336Y1029428D01*
X783094Y1027194D01*
X784138Y1025078D01*
X785449Y1023116D01*
X787005Y1021342D01*
X788779Y1019786D01*
X790740Y1018475D01*
X792857Y1017432D01*
X795091Y1016673D01*
X797405Y1016213D01*
X799760Y1016059D01*
X802114Y1016213D01*
X804428Y1016673D01*
X806663Y1017432D01*
X808779Y1018475D01*
X810741Y1019786D01*
X812515Y1021342D01*
X814071Y1023116D01*
X815382Y1025078D01*
X816425Y1027194D01*
X817184Y1029428D01*
X817644Y1031743D01*
X817798Y1034097D01*
X817644Y1036452D01*
X817184Y1038766D01*
X816425Y1041000D01*
X815382Y1043116D01*
X814071Y1045078D01*
X812515Y1046852D01*
X810741Y1048408D01*
X808779Y1049719D01*
X806663Y1050763D01*
X804428Y1051521D01*
X802114Y1051981D01*
X799760Y1052136D01*
D02*
G37*
G36*
X679500Y1075551D02*
X676911Y1075347D01*
X674385Y1074741D01*
X671986Y1073747D01*
X669772Y1072390D01*
X667797Y1070703D01*
X666110Y1068728D01*
X664753Y1066514D01*
X663759Y1064115D01*
X663153Y1061589D01*
X662949Y1059000D01*
X663153Y1056411D01*
X663759Y1053885D01*
X664753Y1051486D01*
X666110Y1049272D01*
X667797Y1047297D01*
X669772Y1045610D01*
X671986Y1044253D01*
X674385Y1043259D01*
X676911Y1042653D01*
X679500Y1042449D01*
X682089Y1042653D01*
X684615Y1043259D01*
X687014Y1044253D01*
X689228Y1045610D01*
X691203Y1047297D01*
X692890Y1049272D01*
X694247Y1051486D01*
X695241Y1053885D01*
X695847Y1056411D01*
X696051Y1059000D01*
X695847Y1061589D01*
X695241Y1064115D01*
X694247Y1066514D01*
X692890Y1068728D01*
X691203Y1070703D01*
X689228Y1072390D01*
X687014Y1073747D01*
X684615Y1074741D01*
X682089Y1075347D01*
X679500Y1075551D01*
D02*
G37*
%LPD*%
G36*
X801710Y1043902D02*
X803586Y1043333D01*
X805314Y1042409D01*
X806829Y1041166D01*
X808072Y1039651D01*
X808996Y1037923D01*
X809565Y1036047D01*
X809757Y1034097D01*
X809565Y1032147D01*
X808996Y1030272D01*
X808072Y1028543D01*
X806829Y1027028D01*
X805314Y1025785D01*
X803586Y1024861D01*
X801710Y1024292D01*
X799760Y1024100D01*
X797810Y1024292D01*
X795934Y1024861D01*
X794206Y1025785D01*
X792691Y1027028D01*
X791448Y1028543D01*
X790524Y1030272D01*
X789955Y1032147D01*
X789763Y1034097D01*
X789955Y1036047D01*
X790524Y1037923D01*
X791448Y1039651D01*
X792691Y1041166D01*
X794206Y1042409D01*
X795934Y1043333D01*
X797810Y1043902D01*
X799760Y1044094D01*
X801710Y1043902D01*
D02*
G37*
G36*
X748971Y766147D02*
Y756902D01*
X746806Y755652D01*
X746029Y756100D01*
Y767178D01*
X746892Y767536D01*
X748971Y766147D01*
D02*
G37*
G36*
X561210Y1043902D02*
X563086Y1043333D01*
X564814Y1042409D01*
X566329Y1041166D01*
X567572Y1039651D01*
X568496Y1037923D01*
X569065Y1036047D01*
X569257Y1034097D01*
X569065Y1032147D01*
X568496Y1030272D01*
X567572Y1028543D01*
X566329Y1027028D01*
X564814Y1025785D01*
X563086Y1024861D01*
X561210Y1024292D01*
X559260Y1024100D01*
X557309Y1024292D01*
X555434Y1024861D01*
X553706Y1025785D01*
X552191Y1027028D01*
X550948Y1028543D01*
X550024Y1030272D01*
X549455Y1032147D01*
X549263Y1034097D01*
X549455Y1036047D01*
X550024Y1037923D01*
X550948Y1039651D01*
X552191Y1041166D01*
X553706Y1042409D01*
X555434Y1043333D01*
X557309Y1043902D01*
X559260Y1044094D01*
X561210Y1043902D01*
D02*
G37*
G36*
X1162460Y835623D02*
X1164336Y835054D01*
X1166064Y834130D01*
X1167579Y832887D01*
X1168822Y831372D01*
X1169746Y829644D01*
X1170315Y827768D01*
X1170507Y825818D01*
X1170315Y823868D01*
X1169746Y821992D01*
X1168822Y820264D01*
X1167579Y818749D01*
X1166064Y817506D01*
X1164336Y816582D01*
X1162460Y816013D01*
X1160510Y815821D01*
X1158560Y816013D01*
X1156684Y816582D01*
X1154956Y817506D01*
X1153441Y818749D01*
X1152198Y820264D01*
X1151274Y821992D01*
X1150705Y823868D01*
X1150513Y825818D01*
X1150705Y827768D01*
X1151274Y829644D01*
X1152198Y831372D01*
X1153441Y832887D01*
X1154956Y834130D01*
X1156684Y835054D01*
X1158560Y835623D01*
X1160510Y835815D01*
X1162460Y835623D01*
D02*
G37*
G36*
X681460D02*
X683335Y835054D01*
X685064Y834130D01*
X686579Y832887D01*
X687822Y831372D01*
X688746Y829644D01*
X689315Y827768D01*
X689507Y825818D01*
X689315Y823868D01*
X688746Y821992D01*
X687822Y820264D01*
X686579Y818749D01*
X685064Y817506D01*
X683335Y816582D01*
X681460Y816013D01*
X679510Y815821D01*
X677560Y816013D01*
X675684Y816582D01*
X673956Y817506D01*
X672441Y818749D01*
X671198Y820264D01*
X670274Y821992D01*
X669705Y823868D01*
X669513Y825818D01*
X669705Y827768D01*
X670274Y829644D01*
X671198Y831372D01*
X672441Y832887D01*
X673956Y834130D01*
X675684Y835054D01*
X677560Y835623D01*
X679510Y835815D01*
X681460Y835623D01*
D02*
G37*
G36*
X1042210Y1043902D02*
X1044086Y1043333D01*
X1045814Y1042409D01*
X1047329Y1041166D01*
X1048572Y1039651D01*
X1049496Y1037923D01*
X1050065Y1036047D01*
X1050257Y1034097D01*
X1050065Y1032147D01*
X1049496Y1030272D01*
X1048572Y1028543D01*
X1047329Y1027028D01*
X1045814Y1025785D01*
X1044086Y1024861D01*
X1042210Y1024292D01*
X1040260Y1024100D01*
X1038309Y1024292D01*
X1036434Y1024861D01*
X1034706Y1025785D01*
X1033191Y1027028D01*
X1031948Y1028543D01*
X1031024Y1030272D01*
X1030455Y1032147D01*
X1030263Y1034097D01*
X1030455Y1036047D01*
X1031024Y1037923D01*
X1031948Y1039651D01*
X1033191Y1041166D01*
X1034706Y1042409D01*
X1036434Y1043333D01*
X1038309Y1043902D01*
X1040260Y1044094D01*
X1042210Y1043902D01*
D02*
G37*
G36*
X1282710D02*
X1284585Y1043333D01*
X1286314Y1042409D01*
X1287829Y1041166D01*
X1289072Y1039651D01*
X1289996Y1037923D01*
X1290565Y1036047D01*
X1290757Y1034097D01*
X1290565Y1032147D01*
X1289996Y1030272D01*
X1289072Y1028543D01*
X1287829Y1027028D01*
X1286314Y1025785D01*
X1284585Y1024861D01*
X1282710Y1024292D01*
X1280760Y1024100D01*
X1278810Y1024292D01*
X1276934Y1024861D01*
X1275206Y1025785D01*
X1273691Y1027028D01*
X1272448Y1028543D01*
X1271524Y1030272D01*
X1270955Y1032147D01*
X1270763Y1034097D01*
X1270955Y1036047D01*
X1271524Y1037923D01*
X1272448Y1039651D01*
X1273691Y1041166D01*
X1275206Y1042409D01*
X1276934Y1043333D01*
X1278810Y1043902D01*
X1280760Y1044094D01*
X1282710Y1043902D01*
D02*
G37*
G36*
X921960Y419065D02*
X923835Y418496D01*
X925564Y417572D01*
X927079Y416329D01*
X928322Y414814D01*
X929246Y413086D01*
X929815Y411210D01*
X930007Y409260D01*
X929815Y407309D01*
X929246Y405434D01*
X928322Y403706D01*
X927079Y402191D01*
X925564Y400948D01*
X923835Y400024D01*
X921960Y399455D01*
X920010Y399263D01*
X918060Y399455D01*
X916184Y400024D01*
X914456Y400948D01*
X912941Y402191D01*
X911698Y403706D01*
X910774Y405434D01*
X910205Y407309D01*
X910013Y409260D01*
X910205Y411210D01*
X910774Y413086D01*
X911698Y414814D01*
X912941Y416329D01*
X914456Y417572D01*
X916184Y418496D01*
X918060Y419065D01*
X920010Y419257D01*
X921960Y419065D01*
D02*
G37*
G36*
X801710Y627344D02*
X803586Y626775D01*
X805314Y625851D01*
X806829Y624608D01*
X808072Y623093D01*
X808996Y621365D01*
X809565Y619489D01*
X809757Y617539D01*
X809565Y615589D01*
X808996Y613713D01*
X808072Y611985D01*
X806829Y610470D01*
X805314Y609227D01*
X803586Y608303D01*
X801710Y607734D01*
X799760Y607542D01*
X797810Y607734D01*
X795934Y608303D01*
X794206Y609227D01*
X792691Y610470D01*
X791448Y611985D01*
X790524Y613713D01*
X789955Y615589D01*
X789763Y617539D01*
X789955Y619489D01*
X790524Y621365D01*
X791448Y623093D01*
X792691Y624608D01*
X794206Y625851D01*
X795934Y626775D01*
X797810Y627344D01*
X799760Y627536D01*
X801710Y627344D01*
D02*
G37*
G36*
X1103971Y762178D02*
Y759997D01*
X1097501Y753527D01*
X1095133Y754330D01*
X1094868Y756342D01*
X1101661Y763135D01*
X1103971Y762178D01*
D02*
G37*
G36*
X790635Y695839D02*
X789900Y694066D01*
X787449Y693578D01*
X771794Y709232D01*
X772059Y711244D01*
X774426Y712047D01*
X790635Y695839D01*
D02*
G37*
G36*
X1042210Y627344D02*
X1044086Y626775D01*
X1045814Y625851D01*
X1047329Y624608D01*
X1048572Y623093D01*
X1049496Y621365D01*
X1050065Y619489D01*
X1050257Y617539D01*
X1050065Y615589D01*
X1049496Y613713D01*
X1048572Y611985D01*
X1047329Y610470D01*
X1045814Y609227D01*
X1044086Y608303D01*
X1042210Y607734D01*
X1040260Y607542D01*
X1038309Y607734D01*
X1036434Y608303D01*
X1034706Y609227D01*
X1033191Y610470D01*
X1031948Y611985D01*
X1031024Y613713D01*
X1030455Y615589D01*
X1030263Y617539D01*
X1030455Y619489D01*
X1031024Y621365D01*
X1031948Y623093D01*
X1033191Y624608D01*
X1034706Y625851D01*
X1036434Y626775D01*
X1038309Y627344D01*
X1040260Y627536D01*
X1042210Y627344D01*
D02*
G37*
G36*
X1169266Y999708D02*
X1169143Y998775D01*
X1169143Y998775D01*
X1181446Y977466D01*
D01*
X1193805Y956061D01*
X1193805D01*
X1193971Y955964D01*
Y944997D01*
X1175003Y926029D01*
X1162500D01*
X1161324Y925913D01*
X1160193Y925570D01*
X1159150Y925013D01*
X1158237Y924263D01*
X1095737Y861763D01*
X1094987Y860850D01*
X1094430Y859807D01*
X1094087Y858676D01*
X1093971Y857500D01*
X1093971Y857500D01*
X1093971D01*
X1093971Y857500D01*
X1093971D01*
Y772497D01*
X1082605Y761132D01*
X1079363Y763004D01*
X1067060Y741694D01*
X1067060Y741694D01*
D01*
X1067060Y741694D01*
X1067060D01*
X1054702Y720289D01*
X1055815Y719646D01*
X1056141Y717168D01*
X1052503Y713529D01*
X1040000D01*
X1040000Y713529D01*
X1038824Y713413D01*
X1037693Y713070D01*
X1036650Y712513D01*
X1035737Y711763D01*
X993237Y669263D01*
X992487Y668350D01*
X991930Y667307D01*
X991587Y666176D01*
X991471Y665000D01*
Y614997D01*
X968237Y591763D01*
X967487Y590849D01*
X966930Y589807D01*
X966587Y588676D01*
X966471Y587500D01*
X966471Y587500D01*
X966471D01*
X966471Y587500D01*
X966471D01*
Y542497D01*
X946955Y522982D01*
X944858Y523850D01*
Y523850D01*
X944858Y523850D01*
X895535D01*
Y523757D01*
X893226Y522801D01*
X873529Y542497D01*
Y592500D01*
X873413Y593676D01*
X873070Y594807D01*
X872513Y595850D01*
X871763Y596763D01*
X848529Y619997D01*
Y662500D01*
X848413Y663676D01*
X848070Y664807D01*
X847513Y665849D01*
X846763Y666763D01*
X846763Y666763D01*
X811763Y701763D01*
X810849Y702513D01*
X809807Y703070D01*
X808676Y703413D01*
X807500Y703529D01*
X799997D01*
X785923Y717603D01*
X786219Y719851D01*
X786219Y719851D01*
X773860Y741256D01*
X773860D01*
X773860Y741256D01*
X773860D01*
X773860D01*
X761557Y762565D01*
X761557D01*
X761029Y762870D01*
Y770000D01*
X760913Y771176D01*
X760570Y772307D01*
X760013Y773350D01*
X759263Y774263D01*
X728529Y804997D01*
Y847500D01*
X728413Y848676D01*
X728070Y849807D01*
X727513Y850850D01*
X726763Y851763D01*
X646404Y932122D01*
Y956939D01*
X657802Y976680D01*
Y976680D01*
X657802Y976680D01*
D01*
X657802Y976680D01*
X657802D01*
X670160Y998085D01*
X670160Y998085D01*
X670152Y998145D01*
X673479Y1001471D01*
X697503D01*
X710737Y988237D01*
X711651Y987487D01*
X712693Y986930D01*
X713824Y986587D01*
X715000Y986471D01*
X880000D01*
X881176Y986587D01*
X882307Y986930D01*
Y986930D01*
X882307D01*
X882307Y986930D01*
X882307D01*
Y986930D01*
D01*
D01*
D01*
Y986930D01*
D01*
D01*
D01*
D01*
D01*
D01*
D01*
D01*
Y986930D01*
D01*
D01*
D01*
D01*
X883350Y987487D01*
X884263Y988237D01*
Y988237D01*
X884263D01*
D01*
D01*
D01*
D01*
D01*
D01*
X884263D01*
D01*
X884263D01*
Y988237D01*
D01*
D01*
D01*
D01*
Y988237D01*
D01*
D01*
D01*
D01*
D01*
D01*
Y988237D01*
D01*
D01*
X884263D01*
D01*
D01*
D01*
X893332Y997306D01*
X895642Y996349D01*
Y995146D01*
X944965D01*
Y998719D01*
X947755D01*
X958237Y988237D01*
Y988237D01*
X958237Y988237D01*
X958237Y988237D01*
Y988237D01*
X959150Y987487D01*
X960193Y986930D01*
Y986930D01*
X960193Y986930D01*
D01*
D01*
D01*
X960193D01*
Y986930D01*
D01*
X960193Y986930D01*
X960193Y986930D01*
X961324Y986587D01*
X962500Y986471D01*
X1125000D01*
X1126176Y986587D01*
X1127307Y986930D01*
Y986930D01*
X1127307D01*
X1127307Y986930D01*
X1127307D01*
Y986930D01*
D01*
D01*
D01*
Y986930D01*
D01*
D01*
D01*
D01*
D01*
D01*
D01*
D01*
Y986930D01*
D01*
D01*
D01*
D01*
X1128350Y987487D01*
X1129263Y988237D01*
Y988237D01*
X1129263D01*
D01*
D01*
D01*
D01*
D01*
D01*
X1129263D01*
D01*
X1129263D01*
Y988237D01*
D01*
D01*
D01*
D01*
Y988237D01*
D01*
D01*
D01*
D01*
D01*
D01*
Y988237D01*
D01*
D01*
X1129263D01*
D01*
D01*
D01*
X1144997Y1003971D01*
X1165003D01*
X1169266Y999708D01*
D02*
G37*
G36*
X634346Y960639D02*
Y932446D01*
X633108Y931933D01*
X631029Y933322D01*
Y961224D01*
X632181Y961889D01*
X634346Y960639D01*
D02*
G37*
G36*
X1182625Y1008849D02*
X1182360Y1006837D01*
X1179992Y1006034D01*
X1174365Y1011661D01*
X1175099Y1013434D01*
X1177551Y1013922D01*
X1182625Y1008849D01*
D02*
G37*
G36*
X664116Y1009161D02*
X659306Y1004351D01*
X657009Y1005678D01*
X656683Y1008156D01*
X659997Y1011471D01*
X663160D01*
X664116Y1009161D01*
D02*
G37*
%LPC*%
G36*
X1158499Y992630D02*
X1156968Y991746D01*
D01*
X1141867Y983027D01*
X1142780Y981446D01*
X1141530Y979281D01*
X944965D01*
Y982854D01*
X895642D01*
Y979281D01*
X698172D01*
X696922Y981446D01*
X697436Y982337D01*
X682336Y991055D01*
D01*
X680805Y991939D01*
X679921Y990409D01*
D01*
X668502Y970630D01*
X668501D01*
D01*
X668501Y970630D01*
X668501D01*
X656143Y949225D01*
X664609Y944337D01*
Y929362D01*
X664609Y929362D01*
X664609D01*
X664725Y928186D01*
X665068Y927055D01*
X665068Y927055D01*
X665068Y927055D01*
X665625Y926012D01*
X666375Y925099D01*
X666375Y925099D01*
X666375Y925099D01*
X736471Y855003D01*
Y812500D01*
X736471Y812500D01*
X736471Y812500D01*
X736587Y811324D01*
X736930Y810193D01*
X736930Y810193D01*
X736930Y810193D01*
X737487Y809151D01*
X738237Y808237D01*
D01*
X738237Y808237D01*
X738237Y808237D01*
D01*
D01*
X738237Y808237D01*
Y808237D01*
X774275Y772198D01*
X773949Y769720D01*
X772202Y768711D01*
X784505Y747401D01*
D01*
X795979Y727527D01*
D01*
X796863Y725996D01*
X798394Y726880D01*
D01*
X799155Y727319D01*
X856471Y670003D01*
Y627500D01*
X856471Y627500D01*
X856471D01*
X856587Y626324D01*
X856930Y625193D01*
X856930Y625193D01*
X856930Y625193D01*
D01*
X857487Y624151D01*
X858237Y623237D01*
Y623237D01*
D01*
D01*
X858237Y623237D01*
Y623237D01*
X858237Y623237D01*
X881471Y600003D01*
Y552500D01*
X881587Y551324D01*
X881930Y550193D01*
X882487Y549151D01*
X883237Y548237D01*
X889993Y541481D01*
Y541481D01*
X889993D01*
X889993Y541481D01*
D01*
D01*
X889993Y541481D01*
X889993Y541481D01*
X890906Y540731D01*
X891949Y540174D01*
D01*
X891949D01*
X891949Y540174D01*
D01*
D01*
D01*
X891949D01*
D01*
D01*
X891949D01*
D01*
D01*
Y540174D01*
X893080Y539831D01*
X894256Y539715D01*
X895535D01*
Y536142D01*
X944858D01*
Y539715D01*
X945744D01*
X946920Y539831D01*
X948051Y540174D01*
Y540174D01*
X948051D01*
X948051Y540174D01*
X948051D01*
Y540174D01*
D01*
D01*
D01*
Y540174D01*
D01*
D01*
D01*
D01*
D01*
Y540174D01*
D01*
D01*
X948051D01*
D01*
X949094Y540731D01*
X950007Y541481D01*
Y541481D01*
X950007D01*
D01*
D01*
D01*
D01*
D01*
D01*
X950007D01*
D01*
X950007D01*
Y541481D01*
D01*
D01*
D01*
D01*
Y541481D01*
D01*
D01*
D01*
Y541481D01*
D01*
D01*
X950007D01*
D01*
D01*
D01*
D01*
D01*
X956763Y548237D01*
X957513Y549151D01*
X958070Y550193D01*
X958413Y551324D01*
X958529Y552500D01*
Y595003D01*
X981763Y618237D01*
Y618237D01*
D01*
D01*
D01*
X981763Y618237D01*
Y618237D01*
D01*
D01*
Y618237D01*
X981763D01*
D01*
D01*
X981763D01*
D01*
D01*
Y618237D01*
D01*
D01*
D01*
Y618237D01*
D01*
D01*
X981763D01*
D01*
X981763Y618237D01*
D01*
D01*
X982513Y619150D01*
X983070Y620193D01*
Y620193D01*
X983070D01*
D01*
D01*
D01*
D01*
X983070D01*
D01*
D01*
D01*
Y620193D01*
X983070D01*
D01*
Y620193D01*
D01*
D01*
D01*
D01*
D01*
D01*
D01*
D01*
D01*
D01*
D01*
D01*
Y620193D01*
D01*
X983070D01*
D01*
D01*
D01*
D01*
X983070Y620193D01*
X983413Y621324D01*
X983529Y622500D01*
D01*
D01*
D01*
D01*
D01*
X983529D01*
D01*
D01*
D01*
Y622500D01*
X983529D01*
D01*
Y622500D01*
D01*
D01*
D01*
D01*
D01*
D01*
D01*
D01*
D01*
D01*
D01*
D01*
Y622500D01*
D01*
X983529D01*
D01*
D01*
D01*
D01*
X983529Y622500D01*
Y672503D01*
X1039875Y728849D01*
X1042526Y727318D01*
D01*
X1044057Y726435D01*
X1044941Y727965D01*
D01*
X1056360Y747744D01*
D01*
X1056360Y747744D01*
D01*
X1056360Y747744D01*
X1056360D01*
X1068719Y769149D01*
X1068251Y769419D01*
X1067924Y771898D01*
X1084263Y788237D01*
Y788237D01*
D01*
D01*
D01*
X1084263Y788237D01*
D01*
Y788237D01*
D01*
D01*
D01*
D01*
X1084263D01*
Y788237D01*
D01*
D01*
D01*
X1084263D01*
D01*
D01*
Y788237D01*
D01*
D01*
D01*
Y788237D01*
D01*
D01*
X1084263D01*
D01*
X1084263Y788237D01*
D01*
D01*
X1085013Y789150D01*
X1085570Y790193D01*
Y790193D01*
X1085570D01*
D01*
D01*
D01*
D01*
X1085570D01*
D01*
D01*
D01*
Y790193D01*
X1085570D01*
D01*
Y790193D01*
D01*
D01*
D01*
D01*
D01*
D01*
D01*
D01*
D01*
D01*
D01*
D01*
Y790193D01*
D01*
X1085570D01*
D01*
D01*
D01*
D01*
X1085570Y790193D01*
X1085913Y791324D01*
X1086029Y792500D01*
D01*
D01*
D01*
D01*
D01*
X1086029D01*
D01*
D01*
D01*
Y792500D01*
X1086029D01*
D01*
Y792500D01*
D01*
D01*
D01*
D01*
D01*
D01*
D01*
D01*
D01*
D01*
D01*
D01*
Y792500D01*
D01*
X1086029D01*
D01*
D01*
D01*
D01*
X1086029Y792500D01*
Y864654D01*
X1163305Y941930D01*
X1165783Y941603D01*
X1166528Y940312D01*
X1167819Y941058D01*
D01*
X1183160Y949915D01*
X1170857Y971225D01*
Y971225D01*
X1170857D01*
X1170857Y971225D01*
D01*
D01*
D01*
D01*
D01*
D01*
X1170857Y971225D01*
D01*
X1170857D01*
Y971225D01*
D01*
X1159383Y991099D01*
D01*
X1158499Y992630D01*
D02*
G37*
%LPD*%
G36*
X1154170Y961718D02*
D01*
X1158515Y954192D01*
X1075737Y871414D01*
X1074987Y870501D01*
X1074430Y869458D01*
X1074087Y868328D01*
X1073971Y867151D01*
X1073971Y867151D01*
X1073971D01*
X1073971Y867151D01*
X1073971D01*
Y794997D01*
X1055662Y776688D01*
X1052087Y778752D01*
X1039784Y757442D01*
X1039784D01*
D01*
X1039784Y757442D01*
X1039784D01*
X1027425Y736037D01*
X1027425Y736037D01*
X1027726Y733752D01*
X973237Y679263D01*
X972487Y678349D01*
X971930Y677307D01*
X971587Y676176D01*
X971471Y675000D01*
X971471Y675000D01*
X971471D01*
X971471Y675000D01*
X971471D01*
Y624997D01*
X948237Y601763D01*
X947487Y600849D01*
X946930Y599807D01*
X946587Y598676D01*
X946471Y597500D01*
X946471Y597500D01*
X946471D01*
X946471Y597500D01*
X946471D01*
Y555346D01*
X944858D01*
X944858Y555346D01*
X944858Y555346D01*
X944858D01*
D01*
X895535D01*
D01*
D01*
X895535Y555346D01*
X895535Y555346D01*
D01*
X895535D01*
Y555346D01*
D01*
D01*
D01*
X895297D01*
X893529Y557114D01*
Y602500D01*
X893413Y603676D01*
X893070Y604807D01*
X892513Y605850D01*
X891763Y606763D01*
X868529Y629997D01*
Y672500D01*
D01*
D01*
D01*
D01*
X868529D01*
D01*
D01*
D01*
D01*
D01*
D01*
X868529D01*
Y672500D01*
D01*
Y672500D01*
D01*
D01*
D01*
D01*
X868529Y672500D01*
X868413Y673676D01*
X868299Y674054D01*
X868299Y674054D01*
D01*
D01*
D01*
X868276Y674128D01*
X868130Y674611D01*
X868070Y674807D01*
X868070Y674807D01*
D01*
D01*
D01*
D01*
X868070Y674807D01*
D01*
D01*
D01*
D01*
X868070Y674807D01*
D01*
X868070D01*
D01*
D01*
X867513Y675849D01*
X866763Y676763D01*
X866763Y676763D01*
D01*
D01*
D01*
D01*
X866763Y676763D01*
D01*
D01*
X866763D01*
X811417Y732109D01*
X811744Y734587D01*
X813495Y735599D01*
X801192Y756908D01*
X801192Y756908D01*
D01*
D01*
D01*
D01*
X801192Y756908D01*
D01*
D01*
Y756908D01*
D01*
X801192D01*
D01*
D01*
X801192D01*
D01*
D01*
X788834Y778313D01*
X786538Y776988D01*
X748529Y814997D01*
Y857500D01*
X748529Y857500D01*
X748413Y858676D01*
X748070Y859807D01*
X747513Y860850D01*
X746763Y861763D01*
X676667Y931859D01*
Y946364D01*
X685078Y960932D01*
D01*
X685078Y960932D01*
D01*
X685078Y960932D01*
X685078D01*
X688710Y967223D01*
X895642D01*
Y963650D01*
X944965D01*
Y967223D01*
X1150992D01*
X1154170Y961718D01*
D02*
G37*
%LPC*%
G36*
X920000Y641797D02*
X918089Y641609D01*
X916251Y641051D01*
X914557Y640146D01*
X913072Y638928D01*
X911854Y637443D01*
X910949Y635749D01*
X910391Y633911D01*
X910203Y632000D01*
X910391Y630089D01*
X910949Y628251D01*
X911854Y626557D01*
X913072Y625072D01*
X914557Y623854D01*
X916251Y622949D01*
X918089Y622391D01*
X920000Y622203D01*
X921911Y622391D01*
X923749Y622949D01*
X925443Y623854D01*
X926928Y625072D01*
X928146Y626557D01*
X929051Y628251D01*
X929609Y630089D01*
X929797Y632000D01*
X929609Y633911D01*
X929051Y635749D01*
X928146Y637443D01*
X926928Y638928D01*
X925443Y640146D01*
X923749Y641051D01*
X921911Y641609D01*
X920000Y641797D01*
D02*
G37*
G36*
X879500Y950797D02*
X877589Y950609D01*
X875751Y950051D01*
X874057Y949146D01*
X872572Y947928D01*
X871354Y946443D01*
X870449Y944749D01*
X869891Y942911D01*
X869703Y941000D01*
X869891Y939089D01*
X870449Y937251D01*
X871354Y935557D01*
X872572Y934072D01*
X874057Y932854D01*
X875751Y931949D01*
X877589Y931391D01*
X879500Y931203D01*
X881411Y931391D01*
X883249Y931949D01*
X884943Y932854D01*
X886428Y934072D01*
X887646Y935557D01*
X888551Y937251D01*
X889109Y939089D01*
X889297Y941000D01*
X889109Y942911D01*
X888551Y944749D01*
X887646Y946443D01*
X886428Y947928D01*
X884943Y949146D01*
X883249Y950051D01*
X881411Y950609D01*
X879500Y950797D01*
D02*
G37*
G36*
X872500Y724297D02*
X870589Y724109D01*
X868751Y723551D01*
X867057Y722646D01*
X865572Y721428D01*
X864354Y719943D01*
X863449Y718249D01*
X862891Y716411D01*
X862703Y714500D01*
X862891Y712589D01*
X863449Y710751D01*
X864354Y709057D01*
X865572Y707572D01*
X867057Y706354D01*
X868751Y705449D01*
X870589Y704891D01*
X872500Y704703D01*
X874411Y704891D01*
X876249Y705449D01*
X877943Y706354D01*
X879428Y707572D01*
X880646Y709057D01*
X881551Y710751D01*
X882109Y712589D01*
X882297Y714500D01*
X882109Y716411D01*
X881551Y718249D01*
X880646Y719943D01*
X879428Y721428D01*
X877943Y722646D01*
X876249Y723551D01*
X874411Y724109D01*
X872500Y724297D01*
D02*
G37*
G36*
X960500Y950797D02*
X958589Y950609D01*
X956751Y950051D01*
X955057Y949146D01*
X953572Y947928D01*
X952354Y946443D01*
X951449Y944749D01*
X950891Y942911D01*
X950703Y941000D01*
X950891Y939089D01*
X951449Y937251D01*
X952354Y935557D01*
X953572Y934072D01*
X955057Y932854D01*
X956751Y931949D01*
X958589Y931391D01*
X960500Y931203D01*
X962411Y931391D01*
X964249Y931949D01*
X965943Y932854D01*
X967428Y934072D01*
X968646Y935557D01*
X969551Y937251D01*
X970109Y939089D01*
X970297Y941000D01*
X970109Y942911D01*
X969551Y944749D01*
X968646Y946443D01*
X967428Y947928D01*
X965943Y949146D01*
X964249Y950051D01*
X962411Y950609D01*
X960500Y950797D01*
D02*
G37*
G36*
X920000Y604797D02*
X918089Y604609D01*
X916251Y604051D01*
X914557Y603146D01*
X913072Y601928D01*
X911854Y600443D01*
X910949Y598749D01*
X910391Y596911D01*
X910203Y595000D01*
X910391Y593089D01*
X910949Y591251D01*
X911854Y589557D01*
X913072Y588072D01*
X914557Y586854D01*
X916251Y585949D01*
X918089Y585391D01*
X920000Y585203D01*
X921911Y585391D01*
X923749Y585949D01*
X925443Y586854D01*
X926928Y588072D01*
X928146Y589557D01*
X929051Y591251D01*
X929609Y593089D01*
X929797Y595000D01*
X929609Y596911D01*
X929051Y598749D01*
X928146Y600443D01*
X926928Y601928D01*
X925443Y603146D01*
X923749Y604051D01*
X921911Y604609D01*
X920000Y604797D01*
D02*
G37*
G36*
X720000Y951297D02*
X718089Y951109D01*
X716251Y950551D01*
X714557Y949646D01*
X713072Y948428D01*
X711854Y946943D01*
X710949Y945249D01*
X710391Y943411D01*
X710203Y941500D01*
X710391Y939589D01*
X710949Y937751D01*
X711854Y936057D01*
X713072Y934572D01*
X714557Y933354D01*
X716251Y932449D01*
X718089Y931891D01*
X720000Y931703D01*
X721911Y931891D01*
X723749Y932449D01*
X725443Y933354D01*
X726928Y934572D01*
X728146Y936057D01*
X729051Y937751D01*
X729609Y939589D01*
X729797Y941500D01*
X729609Y943411D01*
X729051Y945249D01*
X728146Y946943D01*
X726928Y948428D01*
X725443Y949646D01*
X723749Y950551D01*
X721911Y951109D01*
X720000Y951297D01*
D02*
G37*
G36*
X1120000Y950797D02*
X1118089Y950609D01*
X1116251Y950051D01*
X1114557Y949146D01*
X1113072Y947928D01*
X1111854Y946443D01*
X1110949Y944749D01*
X1110391Y942911D01*
X1110203Y941000D01*
X1110391Y939089D01*
X1110949Y937251D01*
X1111854Y935557D01*
X1113072Y934072D01*
X1114557Y932854D01*
X1116251Y931949D01*
X1118089Y931391D01*
X1120000Y931203D01*
X1121911Y931391D01*
X1123749Y931949D01*
X1125443Y932854D01*
X1126928Y934072D01*
X1128146Y935557D01*
X1129051Y937251D01*
X1129609Y939089D01*
X1129797Y941000D01*
X1129609Y942911D01*
X1129051Y944749D01*
X1128146Y946443D01*
X1126928Y947928D01*
X1125443Y949146D01*
X1123749Y950051D01*
X1121911Y950609D01*
X1120000Y950797D01*
D02*
G37*
G36*
X967500Y724297D02*
X965589Y724109D01*
X963751Y723551D01*
X962057Y722646D01*
X960572Y721428D01*
X959354Y719943D01*
X958449Y718249D01*
X957891Y716411D01*
X957703Y714500D01*
X957891Y712589D01*
X958449Y710751D01*
X959354Y709057D01*
X960572Y707572D01*
X962057Y706354D01*
X963751Y705449D01*
X965589Y704891D01*
X967500Y704703D01*
X969411Y704891D01*
X971249Y705449D01*
X972943Y706354D01*
X974428Y707572D01*
X975646Y709057D01*
X976551Y710751D01*
X977109Y712589D01*
X977297Y714500D01*
X977109Y716411D01*
X976551Y718249D01*
X975646Y719943D01*
X974428Y721428D01*
X972943Y722646D01*
X971249Y723551D01*
X969411Y724109D01*
X967500Y724297D01*
D02*
G37*
G36*
X847500Y932297D02*
X845589Y932109D01*
X843751Y931551D01*
X842057Y930646D01*
X840572Y929428D01*
X839354Y927943D01*
X838449Y926249D01*
X837891Y924411D01*
X837703Y922500D01*
X837891Y920589D01*
X838449Y918751D01*
X839354Y917057D01*
X840572Y915572D01*
X842057Y914354D01*
X843751Y913449D01*
X845589Y912891D01*
X847500Y912703D01*
X849411Y912891D01*
X851249Y913449D01*
X852943Y914354D01*
X854428Y915572D01*
X855646Y917057D01*
X856551Y918751D01*
X857109Y920589D01*
X857297Y922500D01*
X857109Y924411D01*
X856551Y926249D01*
X855646Y927943D01*
X854428Y929428D01*
X852943Y930646D01*
X851249Y931551D01*
X849411Y932109D01*
X847500Y932297D01*
D02*
G37*
G36*
X920010Y843857D02*
X917655Y843702D01*
X915341Y843242D01*
X913107Y842484D01*
X910991Y841440D01*
X909029Y840129D01*
X907255Y838573D01*
X905699Y836799D01*
X904388Y834837D01*
X903344Y832721D01*
X902586Y830487D01*
X902125Y828172D01*
X901971Y825818D01*
X902125Y823464D01*
X902586Y821149D01*
X903344Y818915D01*
X904388Y816799D01*
X905699Y814837D01*
X907255Y813063D01*
X909029Y811507D01*
X910991Y810196D01*
X913107Y809153D01*
X915341Y808394D01*
X917655Y807934D01*
X920010Y807779D01*
X922364Y807934D01*
X924679Y808394D01*
X926913Y809153D01*
X929029Y810196D01*
X930991Y811507D01*
X932765Y813063D01*
X934321Y814837D01*
X935632Y816799D01*
X936675Y818915D01*
X937434Y821149D01*
X937894Y823464D01*
X938048Y825818D01*
X937894Y828172D01*
X937434Y830487D01*
X936675Y832721D01*
X935632Y834837D01*
X934321Y836799D01*
X932765Y838573D01*
X930991Y840129D01*
X929029Y841440D01*
X926913Y842484D01*
X924679Y843242D01*
X922364Y843702D01*
X920010Y843857D01*
D02*
G37*
G36*
X992500Y932297D02*
X990589Y932109D01*
X988751Y931551D01*
X987057Y930646D01*
X985572Y929428D01*
X984354Y927943D01*
X983449Y926249D01*
X982891Y924411D01*
X982703Y922500D01*
X982891Y920589D01*
X983449Y918751D01*
X984354Y917057D01*
X985572Y915572D01*
X987057Y914354D01*
X988751Y913449D01*
X990589Y912891D01*
X992500Y912703D01*
X994411Y912891D01*
X996249Y913449D01*
X997943Y914354D01*
X999428Y915572D01*
X1000646Y917057D01*
X1001551Y918751D01*
X1002109Y920589D01*
X1002297Y922500D01*
X1002109Y924411D01*
X1001551Y926249D01*
X1000646Y927943D01*
X999428Y929428D01*
X997943Y930646D01*
X996249Y931551D01*
X994411Y932109D01*
X992500Y932297D01*
D02*
G37*
G36*
X800000Y849797D02*
X798089Y849609D01*
X796251Y849051D01*
X794557Y848146D01*
X793072Y846928D01*
X791854Y845443D01*
X790949Y843749D01*
X790391Y841911D01*
X790203Y840000D01*
X790391Y838089D01*
X790949Y836251D01*
X791854Y834557D01*
X793072Y833072D01*
X794557Y831854D01*
X796251Y830949D01*
X798089Y830391D01*
X800000Y830203D01*
X801911Y830391D01*
X803749Y830949D01*
X805443Y831854D01*
X806928Y833072D01*
X808146Y834557D01*
X809051Y836251D01*
X809609Y838089D01*
X809797Y840000D01*
X809609Y841911D01*
X809051Y843749D01*
X808146Y845443D01*
X806928Y846928D01*
X805443Y848146D01*
X803749Y849051D01*
X801911Y849609D01*
X800000Y849797D01*
D02*
G37*
G36*
X1040500D02*
X1038589Y849609D01*
X1036751Y849051D01*
X1035057Y848146D01*
X1033572Y846928D01*
X1032354Y845443D01*
X1031449Y843749D01*
X1030891Y841911D01*
X1030703Y840000D01*
X1030891Y838089D01*
X1031449Y836251D01*
X1032354Y834557D01*
X1033572Y833072D01*
X1035057Y831854D01*
X1036751Y830949D01*
X1038589Y830391D01*
X1040500Y830203D01*
X1042411Y830391D01*
X1044249Y830949D01*
X1045943Y831854D01*
X1047428Y833072D01*
X1048646Y834557D01*
X1049551Y836251D01*
X1050109Y838089D01*
X1050297Y840000D01*
X1050109Y841911D01*
X1049551Y843749D01*
X1048646Y845443D01*
X1047428Y846928D01*
X1045943Y848146D01*
X1044249Y849051D01*
X1042411Y849609D01*
X1040500Y849797D01*
D02*
G37*
G36*
X931500Y877500D02*
X919500D01*
Y870295D01*
X919471Y870000D01*
X919500Y869705D01*
Y862500D01*
X931500D01*
Y863971D01*
X939503D01*
X945513Y857961D01*
X946426Y857211D01*
X947469Y856654D01*
X948600Y856311D01*
X949776Y856195D01*
X950952Y856311D01*
X952083Y856654D01*
X953125Y857211D01*
X954039Y857961D01*
X954789Y858875D01*
X955346Y859917D01*
X955689Y861048D01*
X955805Y862224D01*
X955689Y863400D01*
X955346Y864531D01*
X954789Y865574D01*
X954039Y866487D01*
X946263Y874263D01*
X945350Y875013D01*
X944307Y875570D01*
X943176Y875913D01*
X942000Y876029D01*
X931500D01*
Y877500D01*
D02*
G37*
G36*
X752000Y932797D02*
X750089Y932609D01*
X748251Y932051D01*
X746557Y931146D01*
X745072Y929928D01*
X743854Y928443D01*
X742949Y926749D01*
X742391Y924911D01*
X742203Y923000D01*
X742391Y921089D01*
X742949Y919251D01*
X743854Y917557D01*
X745072Y916072D01*
X746557Y914854D01*
X748251Y913949D01*
X750089Y913391D01*
X752000Y913203D01*
X753911Y913391D01*
X755749Y913949D01*
X757443Y914854D01*
X758928Y916072D01*
X760146Y917557D01*
X761051Y919251D01*
X761609Y921089D01*
X761797Y923000D01*
X761609Y924911D01*
X761051Y926749D01*
X760146Y928443D01*
X758928Y929928D01*
X757443Y931146D01*
X755749Y932051D01*
X753911Y932609D01*
X752000Y932797D01*
D02*
G37*
G36*
X999500Y742797D02*
X997589Y742609D01*
X995751Y742051D01*
X994057Y741146D01*
X992572Y739928D01*
X991354Y738443D01*
X990449Y736749D01*
X989891Y734911D01*
X989703Y733000D01*
X989891Y731089D01*
X990449Y729251D01*
X991354Y727557D01*
X992572Y726072D01*
X994057Y724854D01*
X995751Y723949D01*
X997589Y723391D01*
X999500Y723203D01*
X1001411Y723391D01*
X1003249Y723949D01*
X1004943Y724854D01*
X1006428Y726072D01*
X1007646Y727557D01*
X1008551Y729251D01*
X1009109Y731089D01*
X1009297Y733000D01*
X1009109Y734911D01*
X1008551Y736749D01*
X1007646Y738443D01*
X1006428Y739928D01*
X1004943Y741146D01*
X1003249Y742051D01*
X1001411Y742609D01*
X999500Y742797D01*
D02*
G37*
G36*
X840500D02*
X838589Y742609D01*
X836751Y742051D01*
X835057Y741146D01*
X833572Y739928D01*
X832354Y738443D01*
X831449Y736749D01*
X830891Y734911D01*
X830703Y733000D01*
X830891Y731089D01*
X831449Y729251D01*
X832354Y727557D01*
X833572Y726072D01*
X835057Y724854D01*
X836751Y723949D01*
X838589Y723391D01*
X840500Y723203D01*
X842411Y723391D01*
X844249Y723949D01*
X845943Y724854D01*
X847428Y726072D01*
X848646Y727557D01*
X849551Y729251D01*
X850109Y731089D01*
X850297Y733000D01*
X850109Y734911D01*
X849551Y736749D01*
X848646Y738443D01*
X847428Y739928D01*
X845943Y741146D01*
X844249Y742051D01*
X842411Y742609D01*
X840500Y742797D01*
D02*
G37*
G36*
X800000Y812797D02*
X798089Y812609D01*
X796251Y812051D01*
X794557Y811146D01*
X793072Y809928D01*
X791854Y808443D01*
X790949Y806749D01*
X790391Y804911D01*
X790203Y803000D01*
X790391Y801089D01*
X790949Y799251D01*
X791854Y797557D01*
X793072Y796072D01*
X794557Y794854D01*
X796251Y793949D01*
X798089Y793391D01*
X800000Y793203D01*
X801911Y793391D01*
X803749Y793949D01*
X805443Y794854D01*
X806928Y796072D01*
X808146Y797557D01*
X809051Y799251D01*
X809609Y801089D01*
X809797Y803000D01*
X809609Y804911D01*
X809051Y806749D01*
X808146Y808443D01*
X806928Y809928D01*
X805443Y811146D01*
X803749Y812051D01*
X801911Y812609D01*
X800000Y812797D01*
D02*
G37*
G36*
X1040500Y813297D02*
X1038589Y813109D01*
X1036751Y812551D01*
X1035057Y811646D01*
X1033572Y810428D01*
X1032354Y808943D01*
X1031449Y807249D01*
X1030891Y805411D01*
X1030703Y803500D01*
X1030891Y801589D01*
X1031449Y799751D01*
X1032354Y798057D01*
X1033572Y796572D01*
X1035057Y795354D01*
X1036751Y794449D01*
X1038589Y793891D01*
X1040500Y793703D01*
X1042411Y793891D01*
X1044249Y794449D01*
X1045943Y795354D01*
X1047428Y796572D01*
X1048646Y798057D01*
X1049551Y799751D01*
X1050109Y801589D01*
X1050297Y803500D01*
X1050109Y805411D01*
X1049551Y807249D01*
X1048646Y808943D01*
X1047428Y810428D01*
X1045943Y811646D01*
X1044249Y812551D01*
X1042411Y813109D01*
X1040500Y813297D01*
D02*
G37*
G36*
X1088000Y932297D02*
X1086089Y932109D01*
X1084251Y931551D01*
X1082557Y930646D01*
X1081072Y929428D01*
X1079854Y927943D01*
X1078949Y926249D01*
X1078391Y924411D01*
X1078203Y922500D01*
X1078391Y920589D01*
X1078949Y918751D01*
X1079854Y917057D01*
X1081072Y915572D01*
X1082557Y914354D01*
X1084251Y913449D01*
X1086089Y912891D01*
X1088000Y912703D01*
X1089911Y912891D01*
X1091749Y913449D01*
X1093443Y914354D01*
X1094928Y915572D01*
X1096146Y917057D01*
X1097051Y918751D01*
X1097609Y920589D01*
X1097797Y922500D01*
X1097609Y924411D01*
X1097051Y926249D01*
X1096146Y927943D01*
X1094928Y929428D01*
X1093443Y930646D01*
X1091749Y931551D01*
X1089911Y932109D01*
X1088000Y932297D01*
D02*
G37*
%LPD*%
G36*
X921960Y835623D02*
X923835Y835054D01*
X925564Y834130D01*
X927079Y832887D01*
X928322Y831372D01*
X929246Y829644D01*
X929815Y827768D01*
X930007Y825818D01*
X929815Y823868D01*
X929246Y821992D01*
X928322Y820264D01*
X927079Y818749D01*
X925564Y817506D01*
X923835Y816582D01*
X921960Y816013D01*
X920010Y815821D01*
X918060Y816013D01*
X916184Y816582D01*
X914456Y817506D01*
X912941Y818749D01*
X911698Y820264D01*
X910774Y821992D01*
X910205Y823868D01*
X910013Y825818D01*
X910205Y827768D01*
X910774Y829644D01*
X911698Y831372D01*
X912941Y832887D01*
X914456Y834130D01*
X916184Y835054D01*
X918060Y835623D01*
X920010Y835815D01*
X921960Y835623D01*
D02*
G37*
D12*
X842500Y617500D02*
Y662500D01*
X807500Y697500D02*
X842500Y662500D01*
X652500Y932500D02*
X732500Y852500D01*
X652500Y932500D02*
Y958500D01*
X892248Y1004748D02*
X950252D01*
X962500Y992500D02*
X1125000D01*
X715000D02*
X880000D01*
X670981Y1007500D02*
X700000D01*
X1177500Y920000D02*
X1200000Y942500D01*
X1100000Y770000D02*
Y857500D01*
X1197276Y1000748D02*
X1209579Y979438D01*
X1183638Y992874D02*
X1195941Y971564D01*
X1170000Y985000D02*
X1182303Y963690D01*
X695000Y997500D02*
X710000Y982500D01*
X669303Y984310D02*
Y986803D01*
X672500Y990000D01*
Y992500D01*
X677500Y997500D01*
X885000Y982500D02*
X891500Y989000D01*
X1137500Y1020000D02*
X1180000D01*
X1197276Y1002724D01*
X1120000Y1002500D02*
X1137500Y1020000D01*
X967500Y1002500D02*
X1120000D01*
X949504Y1020496D02*
X967500Y1002500D01*
X1197276Y1000748D02*
Y1002724D01*
X1142500Y1010000D02*
X1167500D01*
X1125000Y992500D02*
X1142500Y1010000D01*
X1177500Y999012D02*
X1183638Y992874D01*
X1177500Y999012D02*
Y1000000D01*
X1167500Y1010000D02*
X1177500Y1000000D01*
X950252Y1004748D02*
X962500Y992500D01*
X1157500Y1000000D02*
X1170000Y987500D01*
X951000Y989000D02*
X957500Y982500D01*
X1130000D02*
X1147500Y1000000D01*
X1157500D01*
X1170000Y985000D02*
Y987500D01*
X1080000Y867151D02*
X1168665Y955816D01*
X1080000Y792500D02*
Y867151D01*
X1054224Y766724D02*
X1080000Y792500D01*
X1054224Y763248D02*
Y766724D01*
X862500Y627500D02*
X887500Y602500D01*
X742500Y812500D02*
X786697Y768303D01*
Y762810D02*
Y768303D01*
X670638Y929362D02*
X742500Y857500D01*
X670638Y929362D02*
Y955126D01*
X682941Y976436D02*
X686125Y973252D01*
X1152488D02*
X1156362Y977126D01*
X1054224Y763248D02*
X1055748D01*
X1041920Y741938D02*
X1054224Y763248D01*
X977500Y675000D02*
X1041920Y739420D01*
X977500Y622500D02*
Y675000D01*
X1041920Y739420D02*
Y741938D01*
X952500Y597500D02*
X977500Y622500D01*
X952500Y552500D02*
Y597500D01*
X945744Y545744D02*
X952500Y552500D01*
X887500D02*
X894256Y545744D01*
X887500Y552500D02*
Y602500D01*
X786697Y762810D02*
X799000Y741500D01*
X742500Y812500D02*
Y857500D01*
X670638Y955126D02*
X682941Y976436D01*
X1156362Y977126D02*
X1168665Y955816D01*
X655665Y992184D02*
X670981Y1007500D01*
X700000D02*
X715000Y992500D01*
X880000D02*
X892248Y1004748D01*
X875000Y1002500D02*
X892996Y1020496D01*
X647500Y1007500D02*
X657500Y1017500D01*
X647500Y1005531D02*
Y1007500D01*
X642027Y1000058D02*
X647500Y1005531D01*
X657500Y1017500D02*
X705000D01*
X720000Y1002500D01*
X875000D01*
X629724Y978748D02*
X642027Y1000058D01*
X643362Y970874D02*
X655665Y992184D01*
X657000Y963000D02*
X669303Y984310D01*
X652500Y958500D02*
X657000Y963000D01*
X770000Y762500D02*
Y770000D01*
Y762500D02*
X773059Y759441D01*
Y754936D02*
Y759441D01*
X755000Y751482D02*
X759420Y747062D01*
X755000Y751482D02*
Y770000D01*
X640375Y967887D02*
X643362Y970874D01*
X640375Y929625D02*
Y967887D01*
Y929625D02*
X722500Y847500D01*
X629724Y977224D02*
Y978748D01*
X625000Y972500D02*
X629724Y977224D01*
X625000Y930000D02*
Y972500D01*
X740000Y747500D02*
Y770000D01*
Y747500D02*
X745782Y741718D01*
Y739188D02*
Y741718D01*
X625000Y930000D02*
X712500Y842500D01*
Y797500D02*
X740000Y770000D01*
X712500Y797500D02*
Y842500D01*
X799000Y736000D02*
X862500Y672500D01*
X799000Y736000D02*
Y741500D01*
X862500Y627500D02*
Y672500D01*
X773059Y754936D02*
X785362Y733626D01*
X759420Y747062D02*
X771724Y725752D01*
X745782Y739188D02*
X758085Y717878D01*
X877500Y547500D02*
X895000Y530000D01*
X907890D01*
X907894Y529996D01*
X852500Y622500D02*
X877500Y597500D01*
Y547500D02*
Y597500D01*
X785362Y729638D02*
X807500Y707500D01*
X813147D02*
X819087Y701560D01*
X807500Y707500D02*
X813147D01*
X819087Y701560D02*
X852500Y668147D01*
X785362Y729638D02*
Y733626D01*
X771724Y723276D02*
Y725752D01*
X797500Y697500D02*
X807500D01*
X867500Y540000D02*
X892500Y515000D01*
X907142D01*
X907894Y514248D01*
X758085Y714415D02*
Y717878D01*
X785000Y687500D02*
X802500D01*
X758085Y714415D02*
X785000Y687500D01*
X802500D02*
X832500Y657500D01*
X857500Y532500D02*
X891500Y498500D01*
X857500Y532500D02*
Y587500D01*
X832500Y612500D02*
Y657500D01*
Y612500D02*
X857500Y587500D01*
X1035000Y717500D02*
X1042500D01*
X1055559Y730559D02*
Y734064D01*
X962500Y592500D02*
X987500Y617500D01*
Y670000D02*
X1035000Y717500D01*
X1042500D02*
X1055559Y730559D01*
X1069197Y721697D02*
Y726190D01*
X1040000Y707500D02*
X1055000D01*
X972500Y587500D02*
X997500Y612500D01*
Y665000D02*
X1040000Y707500D01*
X1055000D02*
X1069197Y721697D01*
X972500Y540000D02*
Y587500D01*
X962500Y545000D02*
Y592500D01*
X852500Y622500D02*
Y668147D01*
X867500Y540000D02*
Y592500D01*
X842500Y617500D02*
X867500Y592500D01*
X771724Y723276D02*
X797500Y697500D01*
X948500Y498500D02*
X982500Y532500D01*
Y582500D01*
X1007500Y607500D01*
Y660000D01*
X1045000Y697500D01*
X1082835Y715335D02*
Y718316D01*
X1045000Y697500D02*
X1065000D01*
X891500Y498500D02*
X948500D01*
X1065000Y697500D02*
X1082835Y715335D01*
X1055559Y734064D02*
X1067862Y755374D01*
X1082835Y718316D02*
X1095138Y739626D01*
X1067862Y755374D02*
X1072500Y765000D01*
X1090000Y782500D01*
X1081500Y747500D02*
Y751500D01*
X1100000Y770000D01*
X1090000Y862500D02*
X1157500Y930000D01*
X1182303Y963690D02*
X1187500Y958494D01*
X1157500Y930000D02*
X1172500D01*
X1187500Y945000D02*
Y958494D01*
X1195941Y971564D02*
X1200000Y967506D01*
X1100000Y857500D02*
X1162500Y920000D01*
X1177500D01*
X1200000Y942500D02*
Y967506D01*
X1209579Y979438D02*
X1212500Y976518D01*
X1110000Y852500D02*
X1167500Y910000D01*
X1095138Y739626D02*
Y742638D01*
X1110000Y757500D01*
Y852500D01*
X1167500Y910000D02*
X1182500D01*
X1212500Y940000D01*
Y976518D01*
X894256Y545744D02*
X945744D01*
X686125Y973252D02*
X1152488D01*
X1235000Y1040500D02*
Y1055000D01*
X1244276Y1064276D01*
X1235000Y1029500D02*
X1253000D01*
X1197276Y1000748D02*
X1205748D01*
X1220449Y1015449D01*
X892996Y1020496D02*
X949504D01*
X1075500Y1012500D02*
X1102500D01*
X1063000Y1025000D02*
X1075500Y1012500D01*
X1102500D02*
X1125000Y1035000D01*
X1210000D01*
X1217500Y1027500D01*
X1233000D01*
X1235000Y1029500D01*
X1253000D02*
X1261500Y1021000D01*
X835500Y1012500D02*
X857500D01*
X823000Y1025000D02*
X835500Y1012500D01*
X647500Y1027500D02*
X672500D01*
X634500Y1040500D02*
X647500Y1027500D01*
X582500Y1043000D02*
X585000Y1040500D01*
X677500Y997500D02*
X695000D01*
X710000Y982500D02*
X885000D01*
X585000Y1040500D02*
X634500D01*
X891500Y989000D02*
X951000D01*
X957500Y982500D02*
X1130000D01*
X710000Y770000D02*
X717500D01*
X689000Y791000D02*
Y802000D01*
Y791000D02*
X710000Y770000D01*
X732500Y807500D02*
X770000Y770000D01*
X732500Y807500D02*
Y852500D01*
X762500Y640500D02*
Y675000D01*
Y640500D02*
X776000Y627000D01*
X910500Y448500D02*
X914500Y452500D01*
X910500Y432500D02*
Y448500D01*
X925500Y452500D02*
X947500D01*
X950000Y455000D01*
X907894Y514248D02*
X946748D01*
X972500Y540000D01*
X997500Y612500D02*
Y665000D01*
X914500Y452500D02*
Y467000D01*
X920000Y472500D01*
X942500D01*
X1031000Y561000D02*
Y594500D01*
X1197500Y902500D02*
Y912500D01*
X1185000Y890000D02*
X1197500Y902500D01*
X1185000Y865000D02*
Y890000D01*
X1169500Y849500D02*
X1185000Y865000D01*
X1090000Y782500D02*
Y862500D01*
X1172500Y930000D02*
X1187500Y945000D01*
X1069197Y726190D02*
X1075258Y736689D01*
X1081500Y747500D01*
X907894Y529996D02*
X947496D01*
X962500Y545000D01*
X942500Y472500D02*
X1031000Y561000D01*
X987500Y617500D02*
Y670000D01*
X722500Y802500D02*
X755000Y770000D01*
X722500Y802500D02*
Y847500D01*
X895000Y692500D02*
Y787000D01*
X910500Y802500D01*
Y866000D02*
X914500Y870000D01*
X910500Y849000D02*
Y866000D01*
X925500Y870000D02*
X942000D01*
X949776Y862224D01*
D13*
X910500Y432500D02*
X929000D01*
X896500Y400000D02*
Y418500D01*
X910500Y386000D02*
X929000D01*
X943000Y400000D02*
Y418500D01*
X790000Y641000D02*
X808500D01*
X776000Y608500D02*
Y627000D01*
X790000Y594500D02*
X808500D01*
X822500Y608500D02*
Y627000D01*
X1031000Y641000D02*
X1049500D01*
X1017000Y608500D02*
Y627000D01*
X1031000Y594500D02*
X1049500D01*
X1063500Y608500D02*
Y627000D01*
X1151000Y849500D02*
X1169500D01*
X1137000Y817000D02*
Y835500D01*
X1151000Y803000D02*
X1169500D01*
X1183500Y817000D02*
Y835500D01*
X910500Y849000D02*
X929000D01*
X896500Y816500D02*
Y835000D01*
X910500Y802500D02*
X929000D01*
X943000Y816500D02*
Y835000D01*
X670500Y848500D02*
X689000D01*
X656500Y816000D02*
Y834500D01*
X670500Y802000D02*
X689000D01*
X703000Y816000D02*
Y834500D01*
X550000Y1057000D02*
X568500D01*
X536000Y1024500D02*
Y1043000D01*
X550000Y1010500D02*
X568500D01*
X582500Y1024500D02*
Y1043000D01*
X790500Y1057500D02*
X809000D01*
X776500Y1025000D02*
Y1043500D01*
X790500Y1011000D02*
X809000D01*
X823000Y1025000D02*
Y1043500D01*
X1030500Y1057500D02*
X1049000D01*
X1016500Y1025000D02*
Y1043500D01*
X1030500Y1011000D02*
X1049000D01*
X1063000Y1025000D02*
Y1043500D01*
X1304000Y1025000D02*
Y1043500D01*
X1271500Y1057500D02*
X1290000D01*
X1120000Y705000D02*
Y827500D01*
X1080000Y665000D02*
X1120000Y705000D01*
X1080000Y607500D02*
Y665000D01*
X1052500Y580000D02*
X1080000Y607500D01*
X1294000Y1015000D02*
X1304000Y1025000D01*
X1257500D02*
Y1043500D01*
X1271500Y1057500D01*
X1290000D02*
X1304000Y1043500D01*
X568500Y1010500D02*
X582500Y1024500D01*
X536000D02*
X550000Y1010500D01*
X776500Y1025000D02*
X790500Y1011000D01*
X809000D02*
X823000Y1025000D01*
X568500Y1057000D02*
X582500Y1043000D01*
X536000D02*
X550000Y1057000D01*
X776500Y1043500D02*
X790500Y1057500D01*
X809000D02*
X823000Y1043500D01*
X1016500Y1025000D02*
X1030500Y1011000D01*
X1049000D02*
X1063000Y1025000D01*
X1016500Y1043500D02*
X1030500Y1057500D01*
X1049000D02*
X1063000Y1043500D01*
X656500Y816000D02*
X670500Y802000D01*
X689000D02*
X703000Y816000D01*
X656500Y834500D02*
X670500Y848500D01*
X689000D02*
X703000Y834500D01*
X896500Y400000D02*
X910500Y386000D01*
X896500Y418500D02*
X910500Y432500D01*
X929000Y386000D02*
X943000Y400000D01*
X929000Y432500D02*
X943000Y418500D01*
X1137000Y817000D02*
X1151000Y803000D01*
X1137000Y835500D02*
X1151000Y849500D01*
X1169500Y803000D02*
X1183500Y817000D01*
X1169500Y849500D02*
X1183500Y835500D01*
X1017000Y608500D02*
X1031000Y594500D01*
X1017000Y627000D02*
X1031000Y641000D01*
X1049500Y594500D02*
X1063500Y608500D01*
X1049500Y641000D02*
X1063500Y627000D01*
X776000Y608500D02*
X790000Y594500D01*
X808500D02*
X822500Y608500D01*
X776000Y627000D02*
X790000Y641000D01*
X808500D02*
X822500Y627000D01*
X896500Y816500D02*
X910500Y802500D01*
X929000D02*
X943000Y816500D01*
X896500Y835000D02*
X910500Y849000D01*
X929000D02*
X943000Y835000D01*
D14*
X1160500Y1059000D02*
D03*
X1242000Y917500D02*
D03*
X838000Y501000D02*
D03*
X1001500D02*
D03*
X679500Y1059000D02*
D03*
X598000Y917500D02*
D03*
D15*
X762500Y675000D02*
D03*
X827500Y692500D02*
D03*
Y677500D02*
D03*
X717500Y770000D02*
D03*
X757500Y782500D02*
D03*
X737500Y787500D02*
D03*
X607133Y1019210D02*
D03*
X672500Y1027500D02*
D03*
X690000Y997500D02*
D03*
X677500Y1007500D02*
D03*
X1197500Y912500D02*
D03*
X1102500Y1012500D02*
D03*
X1087500Y992500D02*
D03*
X1102500Y982500D02*
D03*
X857500Y1012500D02*
D03*
X947500Y515000D02*
D03*
X1075258Y736689D02*
D03*
X1195000Y937500D02*
D03*
X845000Y992500D02*
D03*
X1180000Y937500D02*
D03*
X1061531Y744408D02*
D03*
X857500Y982500D02*
D03*
X933000Y390000D02*
D03*
X939000Y422500D02*
D03*
X906500Y428500D02*
D03*
X900500Y396000D02*
D03*
X812500Y598500D02*
D03*
X818500Y631000D02*
D03*
X786000Y637000D02*
D03*
X780000Y604500D02*
D03*
X1053500Y598500D02*
D03*
X1059500Y631000D02*
D03*
X1027000Y637000D02*
D03*
X1021000Y604500D02*
D03*
X1173500Y807000D02*
D03*
X1179500Y839500D02*
D03*
X1147000Y845500D02*
D03*
X1141000Y813000D02*
D03*
X933000Y806500D02*
D03*
X939000Y839000D02*
D03*
X906500Y845000D02*
D03*
X900500Y812500D02*
D03*
X693000Y806000D02*
D03*
X699000Y838500D02*
D03*
X666500Y844500D02*
D03*
X660500Y812000D02*
D03*
X572500Y1014500D02*
D03*
X578500Y1047000D02*
D03*
X546000Y1053000D02*
D03*
X540000Y1020500D02*
D03*
X813000Y1015000D02*
D03*
X819000Y1047500D02*
D03*
X786500Y1053500D02*
D03*
X780500Y1021000D02*
D03*
X1020500D02*
D03*
X1026500Y1053500D02*
D03*
X1059000Y1047500D02*
D03*
X1053000Y1015000D02*
D03*
X1294000D02*
D03*
X1261500Y1021000D02*
D03*
X1267500Y1053500D02*
D03*
X1300000Y1047500D02*
D03*
X1244276Y1064276D02*
D03*
X1220449Y1015449D02*
D03*
X949776Y862224D02*
D03*
X1120000Y827500D02*
D03*
X1052500Y580000D02*
D03*
X950000Y455000D02*
D03*
X952500Y562500D02*
D03*
Y535000D02*
D03*
X1005000D02*
D03*
X895000Y692500D02*
D03*
D16*
X999500Y733000D02*
D03*
X967500Y714500D02*
D03*
X872500D02*
D03*
X840500Y733000D02*
D03*
X1088000Y922500D02*
D03*
X1120000Y941000D02*
D03*
X992500Y922500D02*
D03*
X960500Y941000D02*
D03*
X879500D02*
D03*
X847500Y922500D02*
D03*
X752000Y923000D02*
D03*
X720000Y941500D02*
D03*
X800000Y840000D02*
D03*
Y803000D02*
D03*
X1040500Y840000D02*
D03*
Y803500D02*
D03*
X920000Y632000D02*
D03*
Y595000D02*
D03*
D17*
X925500Y452500D02*
D03*
X914500D02*
D03*
X998000Y637500D02*
D03*
X987000D02*
D03*
X842000Y640000D02*
D03*
X853000D02*
D03*
X722000Y837500D02*
D03*
X733000D02*
D03*
X925500Y870000D02*
D03*
X914500D02*
D03*
X1100500Y830000D02*
D03*
X1089500D02*
D03*
D18*
X1235000Y1040500D02*
D03*
Y1029500D02*
D03*
X1042500Y993000D02*
D03*
Y982000D02*
D03*
X797500Y993000D02*
D03*
Y982000D02*
D03*
X605000Y1029500D02*
D03*
Y1040500D02*
D03*
D19*
X1156362Y977126D02*
D03*
X1170000Y985000D02*
D03*
X1183638Y992874D02*
D03*
X1168665Y955816D02*
D03*
X1182303Y963690D02*
D03*
X1195941Y971564D02*
D03*
X1197276Y1000748D02*
D03*
X1209579Y979438D02*
D03*
X799000Y741500D02*
D03*
X785362Y733626D02*
D03*
X771724Y725752D02*
D03*
X786697Y762810D02*
D03*
X773059Y754936D02*
D03*
X759420Y747062D02*
D03*
X758085Y717878D02*
D03*
X745782Y739188D02*
D03*
D20*
X1054224Y763248D02*
D03*
X1067862Y755374D02*
D03*
X1081500Y747500D02*
D03*
X1041920Y741938D02*
D03*
X1055559Y734064D02*
D03*
X1069197Y726190D02*
D03*
X1095138Y739626D02*
D03*
X1082835Y718316D02*
D03*
X642027Y1000058D02*
D03*
X629724Y978748D02*
D03*
X655665Y992184D02*
D03*
X669303Y984310D02*
D03*
X682941Y976436D02*
D03*
X643362Y970874D02*
D03*
X657000Y963000D02*
D03*
X670638Y955126D02*
D03*
D21*
X932606Y1020496D02*
D03*
X908000D02*
D03*
X932606Y1004748D02*
D03*
Y989000D02*
D03*
Y973252D02*
D03*
X908000Y1004748D02*
D03*
Y989000D02*
D03*
Y973252D02*
D03*
X907894Y498500D02*
D03*
X932500D02*
D03*
X907894Y514248D02*
D03*
Y529996D02*
D03*
Y545744D02*
D03*
X932500Y514248D02*
D03*
Y529996D02*
D03*
Y545744D02*
D03*
M02*
