  0
SECTION
  2
HEADER
  9
$ACADVER
  1
AC1015
  9
$ACADMAINTVER
 70
         6
  9
$DWGCODEPAGE
  3
ANSI_1252
  9
$INSBASE
 10
0.0
 20
0.0
 30
0.0
  9
$EXTMIN
 10
-0.93969262
 20
-0.98480775
 30
0.0
  9
$EXTMAX
 10
13.0
 20
12.98480775
 30
0.0
  9
$LIMMIN
 10
0.0
 20
0.0
  9
$LIMMAX
 10
0.0
 20
0.0
  9
$ORTHOMODE
 70
         0
  9
$REGENMODE
 70
         1
  9
$FILLMODE
 70
         1
  9
$QTEXTMODE
 70
         0
  9
$MIRRTEXT
 70
         1
  9
$LTSCALE
 40
5.0
  9
$ATTMODE
 70
         1
  9
$TEXTSIZE
 40
0.2
  9
$TRACEWID
 40
0.05
  9
$TEXTSTYLE
  7
Standard
  9
$CLAYER
  8
0
  9
$CELTYPE
  6
Continuous
  9
$CECOLOR
 62
       256
  9
$CELTSCALE
 40
1.0
  9
$DISPSILH
 70
         0
  9
$DIMSCALE
 40
1.0
  9
$DIMASZ
 40
0.18
  9
$DIMEXO
 40
0.0625
  9
$DIMDLI
 40
0.38
  9
$DIMRND
 40
0.0
  9
$DIMDLE
 40
0.0
  9
$DIMEXE
 40
0.18
  9
$DIMTP
 40
0.0
  9
$DIMTM
 40
0.0
  9
$DIMTXT
 40
0.18
  9
$DIMCEN
 40
0.09
  9
$DIMTSZ
 40
0.0
  9
$DIMTOL
 70
         0
  9
$DIMLIM
 70
         0
  9
$DIMTIH
 70
         1
  9
$DIMTOH
 70
         1
  9
$DIMSE1
 70
         0
  9
$DIMSE2
 70
         0
  9
$DIMTAD
 70
         0
  9
$DIMZIN
 70
         0
  9
$DIMBLK
  1

  9
$DIMASO
 70
         1
  9
$DIMSHO
 70
         1
  9
$DIMPOST
  1

  9
$DIMAPOST
  1

  9
$DIMALT
 70
         0
  9
$DIMALTD
 70
         2
  9
$DIMALTF
 40
25.4
  9
$DIMLFAC
 40
1.0
  9
$DIMTOFL
 70
         0
  9
$DIMTVP
 40
0.0
  9
$DIMTIX
 70
         0
  9
$DIMSOXD
 70
         0
  9
$DIMSAH
 70
         0
  9
$DIMBLK1
  1

  9
$DIMBLK2
  1

  9
$DIMSTYLE
  2
Standard
  9
$DIMCLRD
 70
         0
  9
$DIMCLRE
 70
         0
  9
$DIMCLRT
 70
         0
  9
$DIMTFAC
 40
1.0
  9
$DIMGAP
 40
0.09
  9
$DIMJUST
 70
         0
  9
$DIMSD1
 70
         0
  9
$DIMSD2
 70
         0
  9
$DIMTOLJ
 70
         1
  9
$DIMTZIN
 70
         0
  9
$DIMALTZ
 70
         0
  9
$DIMALTTZ
 70
         0
  9
$DIMUPT
 70
         0
  9
$DIMDEC
 70
         4
  9
$DIMTDEC
 70
         4
  9
$DIMALTU
 70
         2
  9
$DIMALTTD
 70
         2
  9
$DIMTXSTY
  7
Standard
  9
$DIMAUNIT
 70
         0
  9
$DIMADEC
 70
         0
  9
$DIMALTRND
 40
0.0
  9
$DIMAZIN
 70
         0
  9
$DIMDSEP
 70
         0
  9
$DIMATFIT
 70
         3
  9
$DIMFRAC
 70
         0
  9
$DIMLDRBLK
  1

  9
$DIMLUNIT
 70
         2
  9
$DIMLWD
 70
         0
  9
$DIMLWE
 70
         0
  9
$DIMTMOVE
 70
         0
  9
$LUNITS
 70
         2
  9
$LUPREC
 70
         4
  9
$SKETCHINC
 40
0.1
  9
$FILLETRAD
 40
0.0
  9
$AUNITS
 70
         0
  9
$AUPREC
 70
         0
  9
$MENU
  1
acad
  9
$ELEVATION
 40
0.0
  9
$PELEVATION
 40
0.0
  9
$THICKNESS
 40
0.0
  9
$LIMCHECK
 70
         0
  9
$CHAMFERA
 40
0.0
  9
$CHAMFERB
 40
0.0
  9
$CHAMFERC
 40
0.0
  9
$CHAMFERD
 40
0.0
  9
$SKPOLY
 70
         0
  9
$TDCREATE
 40
2460903.593854167
  9
$TDUCREATE
 40
0.000000000
  9
$TDUPDATE
 40
2460903.593854167
  9
$TDUUPDATE
 40
0.000000000
  9
$TDINDWG
 40
0.0000000000
  9
$TDUSRTIMER
 40
0.0000000000
  9
$USRTIMER
 70
         1
  9
$ANGBASE
 50
0.0
  9
$ANGDIR
 70
         0
  9
$PDMODE
 70
         0
  9
$PDSIZE
 40
0.0
  9
$PLINEWID
 40
0.0
  9
$SPLFRAME
 70
         0
  9
$SPLINETYPE
 70
         6
  9
$SPLINESEGS
 70
         8
  9
$HANDSEED
  5
15A
  9
$SURFTAB1
 70
         6
  9
$SURFTAB2
 70
         6
  9
$SURFTYPE
 70
         6
  9
$SURFU
 70
         6
  9
$SURFV
 70
         6
  9
$UCSBASE
  2

  9
$UCSNAME
  2

  9
$UCSORG
 10
0.0
 20
0.0
 30
0.0
  9
$UCSXDIR
 10
1.0
 20
0.0
 30
0.0
  9
$UCSYDIR
 10
0.0
 20
1.0
 30
0.0
  9
$UCSORTHOREF
  2

  9
$UCSORTHOVIEW
 70
         0
  9
$UCSORGTOP
 10
0.0
 20
0.0
 30
0.0
  9
$UCSORGBOTTOM
 10
0.0
 20
0.0
 30
0.0
  9
$UCSORGLEFT
 10
0.0
 20
0.0
 30
0.0
  9
$UCSORGRIGHT
 10
0.0
 20
0.0
 30
0.0
  9
$UCSORGFRONT
 10
0.0
 20
0.0
 30
0.0
  9
$UCSORGBACK
 10
0.0
 20
0.0
 30
0.0
  9
$PUCSBASE
  2

  9
$PUCSNAME
  2

  9
$PUCSORG
 10
0.0
 20
0.0
 30
0.0
  9
$PUCSXDIR
 10
1.0
 20
0.0
 30
0.0
  9
$PUCSYDIR
 10
0.0
 20
1.0
 30
0.0
  9
$PUCSORTHOREF
  2

  9
$PUCSORTHOVIEW
 70
         0
  9
$PUCSORGTOP
 10
0.0
 20
0.0
 30
0.0
  9
$PUCSORGBOTTOM
 10
0.0
 20
0.0
 30
0.0
  9
$PUCSORGLEFT
 10
0.0
 20
0.0
 30
0.0
  9
$PUCSORGRIGHT
 10
0.0
 20
0.0
 30
0.0
  9
$PUCSORGFRONT
 10
0.0
 20
0.0
 30
0.0
  9
$PUCSORGBACK
 10
0.0
 20
0.0
 30
0.0
  9
$USERI1
 70
         0
  9
$USERI2
 70
         0
  9
$USERI3
 70
         0
  9
$USERI4
 70
         0
  9
$USERI5
 70
         0
  9
$USERR1
 40
0.0
  9
$USERR2
 40
0.0
  9
$USERR3
 40
0.0
  9
$USERR4
 40
0.0
  9
$USERR5
 40
0.0
  9
$WORLDVIEW
 70
         1
  9
$SHADEDGE
 70
         3
  9
$SHADEDIF
 70
        70
  9
$TILEMODE
 70
         1
  9
$MAXACTVP
 70
        16
  9
$PINSBASE
 10
0.0
 20
0.0
 30
0.0
  9
$PLIMCHECK
 70
         0
  9
$PEXTMIN
 10
1.0000000000E+20
 20
1.0000000000E+20
 30
1.0000000000E+20
  9
$PEXTMAX
 10
-1.0000000000E+20
 20
-1.0000000000E+20
 30
-1.0000000000E+20
  9
$PLIMMIN
 10
0.0
 20
0.0
  9
$PLIMMAX
 10
12.0
 20
9.0
  9
$UNITMODE
 70
         0
  9
$VISRETAIN
 70
         0
  9
$PLINEGEN
 70
         1
  9
$PSLTSCALE
 70
         0
  9
$TREEDEPTH
 70
      3020
  9
$CMLSTYLE
  2
Standard
  9
$CMLJUST
 70
         0
  9
$CMLSCALE
 40
1.0
  9
$PROXYGRAPHICS
 70
         0
  9
$MEASUREMENT
 70
         0
  9
$CELWEIGHT
370
         0
  9
$ENDCAPS
280
         0
  9
$JOINSTYLE
280
         0
  9
$LWDISPLAY
290
         0
  9
$INSUNITS
 70
         0
  9
$HYPERLINKBASE
  1

  9
$XEDIT
290
         1
  9
$CEPSNTYPE
380
         0
  9
$PSTYLEMODE
290
         1
  9
$FINGERPRINTGUID
  2

  9
$VERSIONGUID
  2

  9
$EXTNAMES
290
         1
  9
$PSVPSCALE
 40
0.0
  0
ENDSEC
  0
SECTION
  2
CLASSES
  0
CLASS
  1
LWPOLYLINE
  2
AcDbPolyline
  3
AutoCAD 2000
 90
    32768
280
         0
281
         1
  0
CLASS
  1
IMAGE
  2
AcDbRasterImage
  3
ISM
 90
    32895
280
         0
281
         1
  0
CLASS
  1
OLE2FRAME
  2
AcDbOle2Frame
  3
AutoCAD 2000
 90
    32768
280
         0
281
         1
  0
CLASS
  1
HATCH
  2
AcDbHatch
  3
AutoCAD 2000
 90
    32768
280
         0
281
         1
  0
CLASS
  1
DICTIONARYVAR
  2
AcDbDictionaryVar
  3
AutoCAD 2000
 90
    32768
280
         0
281
         0
  0
CLASS
  1
RASTERVARIABLES
  2
AcDbRasterVariables
  3
ISM
 90
    32768
280
         0
281
         0
  0
CLASS
  1
IMAGEDEF
  2
AcDbRasterImageDef
  3
ISM
 90
    32768
280
         0
281
         0
  0
CLASS
  1
IMAGEDEF_REACTOR
  2
AcDbRasterImageDefReactor
  3
ISM
 90
    32769
280
         0
281
         0
  0
CLASS
  1
IDBUFFER
  2
AcDbIdBuffer
  3
AutoCAD 2000
 90
    32768
280
         0
281
         0
  0
CLASS
  1
SPATIAL_FILTER
  2
AcDbSpatialFilter
  3
AutoCAD 2000
 90
    32768
280
         0
281
         0
  0
CLASS
  1
XRECORD
  2
AcDbXrecord
  3
AutoCAD 2000
 90
    32768
280
         0
281
         0
  0
CLASS
  1
SORTENTSTABLE
  2
AcDbSortentsTable
  3
AutoCAD 2000
 90
    32768
280
         0
281
         0
  0
CLASS
  1
LAYER_INDEX
  2
AcDbLayerIndex
  3
AutoCAD 2000
 90
    32768
280
         0
281
         0
  0
CLASS
  1
SPATIAL_INDEX
  2
AcDbSpatialIndex
  3
AutoCAD 2000
 90
    32768
280
         0
281
         0
  0
CLASS
  1
OBJECT_PTR
  2
CAseDLPNTableRecord
  3
"ASE-LPNTableRecord"
 90
    32769
280
         0
281
         0
  0
CLASS
  1
LAYOUT
  2
AcDbLayout
  3
AutoCAD 2000
 90
        0
280
         0
281
         0
  0
CLASS
  1
PLOTSETTINGS
  2
AcDbPlotSettings
  3
AutoCAD 2000
 90
    32768
280
         0
281
         0
  0
CLASS
  1
ACDBDICTIONARYWDFLT
  2
AcDbDictionaryWithDefault
  3
AutoCAD 2000
 90
        0
280
         0
281
         0
  0
CLASS
  1
ACDBPLACEHOLDER
  2
AcDbPlaceHolder
  3
AutoCAD 2000
 90
        0
280
         0
281
         0
  0
CLASS
  1
VBA_PROJECT
  2
AcDbVbaProject
  3
acadvba
 90
    32768
280
         0
281
         0
  0
CLASS
  1
WIPEOUT
  2
AcDbWipeout
  3
WipeOut|AutoCAD Express Tool|expresstools@autodesk.com
 90
    32895
280
         0
281
         1
  0
CLASS
  1
WIPEOUTVARIABLES
  2
AcDbWipeoutVariables
  3
WipeOut|AutoCAD Express Tool|expresstools@autodesk.com
 90
        0
280
         0
281
         0
  0
CLASS
  1
RTEXT
  2
RText
  3
RText|AutoCAD Express Tool|expresstools@autodesk.com
 90
    32768
280
         0
281
         1
  0
CLASS
  1
ARCALIGNEDTEXT
  2
AcDbArcAlignedText
  3
ATEXT|AutoCAD Express Tool|expresstools@autodesk.com
 90
    32768
280
         0
281
         1
  0
ENDSEC
  0
SECTION
  2
TABLES
  0
TABLE
  2
VPORT
  5
7
100
AcDbSymbolTable
 70
         1
  0
VPORT
  5
15
100
AcDbSymbolTableRecord
100
AcDbViewportTableRecord
  2
*ACTIVE
 70
         0
 10
0.0
 20
0.0
 11
1.0
 21
1.0
 12
6.591288
 22
4.579184
 13
0.0
 23
0.0
 14
1.0
 24
1.0
 15
0.0
 25
0.0
 16
0.0
 26
0.0
 36
1.0
 17
0.0
 27
0.0
 37
0.0
 40
9.158369
 41
0.688564
 42
50.0
 43
0.0
 44
0.0
 50
0.0
 51
0.0
 71
         0
 72
       100
 73
         1
 74
         1
 75
         0
 76
         0
 77
         0
 78
         0
281
         0
 65
         0
110
0.0
120
0.0
130
0.0
111
1.0
121
0.0
131
0.0
112
0.0
122
1.0
132
0.0
345
0
346
0
 79
         0
146
0.0
  0
ENDTAB
  0
TABLE
  2
LTYPE
  5
4
100
AcDbSymbolTable
 70
        13
  0
LTYPE
  5
11
100
AcDbSymbolTableRecord
100
AcDbLinetypeTableRecord
  2
ByBlock
 70
        64
  3

 72
        65
 73
         0
 40
0.0
  0
LTYPE
  5
12
100
AcDbSymbolTableRecord
100
AcDbLinetypeTableRecord
  2
ByLayer
 70
        64
  3

 72
        65
 73
         0
 40
0.0
  0
LTYPE
  5
13
100
AcDbSymbolTableRecord
100
AcDbLinetypeTableRecord
  2
Continuous
 70
        64
  3
Solid line
 72
        65
 73
         0
 40
0.0
  0
LTYPE
  5
25
100
AcDbSymbolTableRecord
100
AcDbLinetypeTableRecord
  2
Dotted
 70
        64
  3
Dotted
 72
        65
 73
         2
 40
0.125
 49
0.0
 74
         0
 49
-0.125
 74
         0
  0
LTYPE
  5
26
100
AcDbSymbolTableRecord
100
AcDbLinetypeTableRecord
  2
Center
 70
        64
  3
Center
 72
        65
 73
         4
 40
0.7699999809
 49
0.5
 74
         0
 49
-0.0724999979
 74
         0
 49
0.125
 74
         0
 49
-0.0724999979
 74
         0
  0
LTYPE
  5
27
100
AcDbSymbolTableRecord
100
AcDbLinetypeTableRecord
  2
Dashed
 70
        64
  3
Dashed
 72
        65
 73
         2
 40
0.375
 49
0.25
 74
         0
 49
-0.125
 74
         0
  0
LTYPE
  5
28
100
AcDbSymbolTableRecord
100
AcDbLinetypeTableRecord
  2
Hidden
 70
        64
  3
Hidden
 72
        65
 73
         2
 40
0.1974999905
 49
0.125
 74
         0
 49
-0.0724999979
 74
         0
  0
LTYPE
  5
29
100
AcDbSymbolTableRecord
100
AcDbLinetypeTableRecord
  2
Phantom
 70
        64
  3
Phantom
 72
        65
 73
         6
 40
0.9674999714
 49
0.5
 74
         0
 49
-0.0724999979
 74
         0
 49
0.125
 74
         0
 49
-0.0724999979
 74
         0
 49
0.125
 74
         0
 49
-0.0724999979
 74
         0
  0
LTYPE
  5
2A
100
AcDbSymbolTableRecord
100
AcDbLinetypeTableRecord
  2
Dashdot
 70
        64
  3
Dashdot
 72
        65
 73
         4
 40
0.6762499809
 49
0.5
 74
         0
 49
-0.0724999979
 74
         0
 49
0.03125
 74
         0
 49
-0.0724999979
 74
         0
  0
LTYPE
  5
2B
100
AcDbSymbolTableRecord
100
AcDbLinetypeTableRecord
  2
Border
 70
        64
  3
Border
 72
        65
 73
         6
 40
1.2487499714
 49
0.5
 74
         0
 49
-0.0724999979
 74
         0
 49
0.5
 74
         0
 49
-0.0724999979
 74
         0
 49
0.03125
 74
         0
 49
-0.0724999979
 74
         0
  0
LTYPE
  5
2C
100
AcDbSymbolTableRecord
100
AcDbLinetypeTableRecord
  2
Divide
 70
        64
  3
Divide
 72
        65
 73
         6
 40
0.7799999714
 49
0.5
 74
         0
 49
-0.0724999979
 74
         0
 49
0.03125
 74
         0
 49
-0.0724999979
 74
         0
 49
0.03125
 74
         0
 49
-0.0724999979
 74
         0
  0
LTYPE
  5
2D
100
AcDbSymbolTableRecord
100
AcDbLinetypeTableRecord
  2
Cutting
 70
        64
  3
Cutting
 72
        65
 73
         6
 40
1.4674999714
 49
1.0
 74
         0
 49
-0.0724999979
 74
         0
 49
0.125
 74
         0
 49
-0.0724999979
 74
         0
 49
0.125
 74
         0
 49
-0.0724999979
 74
         0
  0
LTYPE
  5
2E
100
AcDbSymbolTableRecord
100
AcDbLinetypeTableRecord
  2
Stitch
 70
        64
  3
Stitch
 72
        65
 73
         2
 40
0.1449999958
 49
0.0724999979
 74
         0
 49
-0.0724999979
 74
         0
  0
ENDTAB
  0
TABLE
  2
LAYER
  5
2
100
AcDbSymbolTable
 70
        42
  0
LAYER
  5
14
100
AcDbSymbolTableRecord
100
AcDbLayerTableRecord
  2
0
 70
         0
 62
         7
  6
Continuous
290
         1
370
        -3
390
1D
  0
LAYER
  5
2F
100
AcDbSymbolTableRecord
100
AcDbLayerTableRecord
  2
DF_COMP
 70
         0
 62
         4
  6
Continuous
290
         1
370
         2
390
1F
  0
LAYER
  5
30
100
AcDbSymbolTableRecord
100
AcDbLayerTableRecord
  2
1_250BIT_500DEP
 70
         0
 62
         5
  6
Continuous
290
         1
370
         2
390
1F
  0
LAYER
  5
31
100
AcDbSymbolTableRecord
100
AcDbLayerTableRecord
  2
2_250BIT_250DEP
 70
         0
 62
         3
  6
Continuous
290
         1
370
         2
390
1F
  0
LAYER
  5
32
100
AcDbSymbolTableRecord
100
AcDbLayerTableRecord
  2
3_250BIT_500TAB
 70
         0
 62
         5
  6
Continuous
290
         1
370
         2
390
1F
  0
LAYER
  5
33
100
AcDbSymbolTableRecord
100
AcDbLayerTableRecord
  2
4_250BIT_250TAB
 70
         0
 62
         5
  6
Continuous
290
         1
370
         2
390
1F
  0
LAYER
  5
34
100
AcDbSymbolTableRecord
100
AcDbLayerTableRecord
  2
5_250BIT_250SPEC
 70
         0
 62
         5
  6
Continuous
290
         1
370
         2
390
1F
  0
LAYER
  5
35
100
AcDbSymbolTableRecord
100
AcDbLayerTableRecord
  2
6_125BIT_500DEP
 70
         0
 62
         5
  6
Continuous
290
         1
370
         2
390
1F
  0
LAYER
  5
36
100
AcDbSymbolTableRecord
100
AcDbLayerTableRecord
  2
7_VCARVE_BIT
 70
         0
 62
         5
  6
Continuous
290
         1
370
         2
390
1F
  0
LAYER
  5
37
100
AcDbSymbolTableRecord
100
AcDbLayerTableRecord
  2
8_250BIT_500OUTLINE
 70
         0
 62
         5
  6
Continuous
290
         1
370
         2
390
1F
  0
LAYER
  5
38
100
AcDbSymbolTableRecord
100
AcDbLayerTableRecord
  2
PLASTICS
 70
         0
 62
        37
  6
Continuous
290
         1
370
         2
390
1F
  0
LAYER
  5
39
100
AcDbSymbolTableRecord
100
AcDbLayerTableRecord
  2
7A_1250BALL
 70
         0
 62
         5
  6
Continuous
290
         1
370
         2
390
1F
  0
LAYER
  5
3A
100
AcDbSymbolTableRecord
100
AcDbLayerTableRecord
  2
CONSTRUCTION
 70
         0
 62
         7
  6
Continuous
290
         1
370
         0
390
1F
  0
LAYER
  5
3B
100
AcDbSymbolTableRecord
100
AcDbLayerTableRecord
  2
0_WOOD
 70
         0
 62
         5
  6
Continuous
290
         1
370
         2
390
1F
  0
LAYER
  5
3C
100
AcDbSymbolTableRecord
100
AcDbLayerTableRecord
  2
Z_TATTOOMYSTIQUE
 70
         0
 62
        37
  6
Continuous
290
         1
370
         2
390
1F
  0
LAYER
  5
3D
100
AcDbSymbolTableRecord
100
AcDbLayerTableRecord
  2
Z_ROLLRGIRLZ
 70
         0
 62
        37
  6
Continuous
290
         1
370
         2
390
1F
  0
LAYER
  5
3E
100
AcDbSymbolTableRecord
100
AcDbLayerTableRecord
  2
Z_MISSADV
 70
         0
 62
         5
  6
Continuous
290
         1
370
         2
390
1F
  0
LAYER
  5
3F
100
AcDbSymbolTableRecord
100
AcDbLayerTableRecord
  2
Z_JUPITERCRUSH
 70
         0
 62
        37
  6
Continuous
290
         1
370
         2
390
1F
  0
LAYER
  5
40
100
AcDbSymbolTableRecord
100
AcDbLayerTableRecord
  2
Z_MODULAR
 70
         0
 62
         5
  6
Continuous
290
         1
370
         2
390
1F
  0
LAYER
  5
41
100
AcDbSymbolTableRecord
100
AcDbLayerTableRecord
  2
Z_GENERIC
 70
         0
 62
        27
  6
Continuous
290
         1
370
         2
390
1F
  0
LAYER
  5
42
100
AcDbSymbolTableRecord
100
AcDbLayerTableRecord
  2
UNASSIGNED
 70
         0
 62
         7
  6
Continuous
290
         1
370
         0
390
1F
  0
LAYER
  5
43
100
AcDbSymbolTableRecord
100
AcDbLayerTableRecord
  2
0
 70
         0
 62
        42
  6
Continuous
290
         1
370
         2
390
1F
  0
LAYER
  5
44
100
AcDbSymbolTableRecord
100
AcDbLayerTableRecord
  2
LAYER_1
 70
         0
 62
        42
  6
Continuous
290
         1
370
         2
390
1F
  0
LAYER
  5
45
100
AcDbSymbolTableRecord
100
AcDbLayerTableRecord
  2
LAYER_3
 70
         0
 62
         4
  6
Continuous
290
         1
370
         2
390
1F
  0
LAYER
  5
46
100
AcDbSymbolTableRecord
100
AcDbLayerTableRecord
  2
LAYER_2
 70
         0
 62
        42
  6
Continuous
290
         1
370
         2
390
1F
  0
LAYER
  5
47
100
AcDbSymbolTableRecord
100
AcDbLayerTableRecord
  2
X_POSTS
 70
         0
 62
         4
  6
Continuous
290
         1
370
         2
390
1F
  0
LAYER
  5
48
100
AcDbSymbolTableRecord
100
AcDbLayerTableRecord
  2
X_THUMPER
 70
         0
 62
         4
  6
Continuous
290
         1
370
         2
390
1F
  0
LAYER
  5
49
100
AcDbSymbolTableRecord
100
AcDbLayerTableRecord
  2
X_STANDUPS
 70
         0
 62
         4
  6
Continuous
290
         1
370
         2
390
1F
  0
LAYER
  5
4A
100
AcDbSymbolTableRecord
100
AcDbLayerTableRecord
  2
X_DROPS
 70
         0
 62
         4
  6
Continuous
290
         1
370
         2
390
1F
  0
LAYER
  5
4B
100
AcDbSymbolTableRecord
100
AcDbLayerTableRecord
  2
X_SMPOSTS
 70
         0
 62
         4
  6
Continuous
290
         1
370
         2
390
1F
  0
LAYER
  5
4C
100
AcDbSymbolTableRecord
100
AcDbLayerTableRecord
  2
X_ROLLOVER
 70
         0
 62
         4
  6
Continuous
290
         1
370
         2
390
1F
  0
LAYER
  5
4D
100
AcDbSymbolTableRecord
100
AcDbLayerTableRecord
  2
X_WALLS
 70
         0
 62
         4
  6
Continuous
290
         1
370
         2
390
1F
  0
LAYER
  5
4E
100
AcDbSymbolTableRecord
100
AcDbLayerTableRecord
  2
Z0_BOTCOMP
 70
         0
 62
         4
  6
Continuous
290
         1
370
         2
390
1F
  0
LAYER
  5
4F
100
AcDbSymbolTableRecord
100
AcDbLayerTableRecord
  2
Z0_TOPCOMP
 70
         0
 62
         6
  6
Continuous
290
         1
370
         2
390
1F
  0
LAYER
  5
50
100
AcDbSymbolTableRecord
100
AcDbLayerTableRecord
  2
Z0_CUT250
 70
         0
 62
         4
  6
Continuous
290
         1
370
         2
390
1F
  0
LAYER
  5
51
100
AcDbSymbolTableRecord
100
AcDbLayerTableRecord
  2
Z0_CUT500
 70
         0
 62
         4
  6
Continuous
290
         1
370
         2
390
1F
  0
LAYER
  5
52
100
AcDbSymbolTableRecord
100
AcDbLayerTableRecord
  2
Z0_PLASTICS
 70
         0
 62
        37
  6
Continuous
290
         1
370
         2
390
1F
  0
LAYER
  5
53
100
AcDbSymbolTableRecord
100
AcDbLayerTableRecord
  2
Z0_RUBBER
 70
         0
 62
         4
  6
Continuous
290
         1
370
         2
390
1F
  0
LAYER
  5
54
100
AcDbSymbolTableRecord
100
AcDbLayerTableRecord
  2
Z0_ZONES
 70
         0
 62
         6
  6
Continuous
290
         1
370
         2
390
1F
  0
LAYER
  5
55
100
AcDbSymbolTableRecord
100
AcDbLayerTableRecord
  2
Z0_WOODOUTLINE
 70
         0
 62
         5
  6
Continuous
290
         1
370
         2
390
1F
  0
LAYER
  5
56
100
AcDbSymbolTableRecord
100
AcDbLayerTableRecord
  2
Z0_LOWERTHIRD
 70
         0
 62
         4
  6
Continuous
290
         1
370
         2
390
1F
  0
LAYER
  5
57
100
AcDbSymbolTableRecord
100
AcDbLayerTableRecord
  2
PART_A
 70
         0
 62
         4
  6
Continuous
290
         1
370
         2
390
1F
  0
ENDTAB
  0
TABLE
  2
STYLE
  5
3
100
AcDbSymbolTable
 70
         2
  0
STYLE
  5
17
100
AcDbSymbolTableRecord
100
AcDbTextStyleTableRecord
  2
Standard
 70
         0
 40
0.0
 41
1.0
 50
0.0
 71
         0
 42
0.0
  3
txt
  4

  0
STYLE
  5
24
100
AcDbSymbolTableRecord
100
AcDbTextStyleTableRecord
  2
Plotter
 70
         0
 40
0.0
 41
0.98
 50
0.0
 71
         0
 42
0.0
  3
SIMPLEX
  4

  0
ENDTAB
  0
TABLE
  2
VIEW
  5
5
100
AcDbSymbolTable
 70
         0
  0
ENDTAB
  0
TABLE
  2
UCS
  5
6
100
AcDbSymbolTable
 70
         0
  0
ENDTAB
  0
TABLE
  2
APPID
  5
8
100
AcDbSymbolTable
 70
         1
  0
APPID
  5
16
100
AcDbSymbolTableRecord
100
AcDbRegAppTableRecord
  2
ACAD
 70
         0
  0
ENDTAB
  0
TABLE
  2
DIMSTYLE
  5
9
100
AcDbSymbolTable
 70
         1
100
AcDbDimStyleTable
 71
         0
  0
DIMSTYLE
105
18
100
AcDbSymbolTableRecord
100
AcDbDimStyleTableRecord
  2
Standard
 70
         0
  3

  4

 40
1.0
 41
0.18
 42
0.0625
 43
0.38
 44
0.18
 45
0.0
 46
0.0
 47
0.0
 48
0.0
 71
         0
 72
         0
 73
         1
 74
         1
 75
         0
 76
         0
 77
         0
 78
         0
 79
         0
140
0.18
141
0.09
142
0.0
143
25.4
144
1.0
145
0.0
146
1.0
147
0.09
148
0.0
170
         0
171
         2
172
         0
173
         0
174
         0
175
         0
176
         0
177
         0
178
         0
179
         0
271
         4
272
         4
273
         2
274
         2
275
         0
276
         0
277
         2
278
        46
279
         0
280
         0
281
         0
282
         0
283
         1
284
         0
285
         0
286
         0
288
         0
340
17
341
0
342
0
343
0
344
0
371
        -2
372
        -2
  0
ENDTAB
  0
TABLE
  2
BLOCK_RECORD
  5
1
100
AcDbSymbolTable
 70
         0
  0
BLOCK_RECORD
  5
A
100
AcDbSymbolTableRecord
100
AcDbBlockTableRecord
  2
*MODEL_SPACE
340
20
  0
BLOCK_RECORD
  5
B
100
AcDbSymbolTableRecord
100
AcDbBlockTableRecord
  2
*PAPER_SPACE
340
21
  0
ENDTAB
  0
ENDSEC
  0
SECTION
  2
BLOCKS
  0
BLOCK
  5
D
100
AcDbEntity
  8
0
100
AcDbBlockBegin
  2
*MODEL_SPACE
 70
         0
 10
0.0
 20
0.0
 30
0.0
  3
*MODEL_SPACE
  1

  0
ENDBLK
  5
E
100
AcDbEntity
  8
0
100
AcDbBlockEnd
  0
BLOCK
  5
F
100
AcDbEntity
 67
         1
  8
0
100
AcDbBlockBegin
  2
*PAPER_SPACE
 70
         0
 10
0.0
 20
0.0
 30
0.0
  3
*PAPER_SPACE
  1

  0
ENDBLK
  5
10
100
AcDbEntity
 67
         1
  8
0
100
AcDbBlockEnd
  0
ENDSEC
  0
SECTION
  2
ENTITIES
  0
CIRCLE
  5
58
100
AcDbEntity
  8
Z0_TOPCOMP
370
        25
  6
Continuous
 62
         6
100
AcDbCircle
 10
1.7084695274
 20
21.7283897333
 30
0.0
 40
0.35
  0
CIRCLE
  5
59
100
AcDbEntity
  8
Z0_CUT500
370
        25
  6
Continuous
 62
         5
100
AcDbCircle
 10
1.272337886
 20
20.1590041954
 30
0.0
 40
0.0825
  0
LINE
  5
5A
102
{ACAD_REACTORS
330
6E
102
}
100
AcDbEntity
  8
Z0_TOPCOMP
370
         5
  6
Continuous
 62
         6
100
AcDbLine
 10
2.0402824669
 20
20.9962514671
 30
0.0
 11
1.6067104434
 21
21.1167309277
 31
0.0
  0
LINE
  5
5B
102
{ACAD_REACTORS
330
6E
102
}
100
AcDbEntity
  8
Z0_TOPCOMP
370
         5
  6
Continuous
 62
         6
100
AcDbLine
 10
1.4996175896
 20
20.7313335734
 30
0.0
 11
1.9331896131
 21
20.6108541129
 31
0.0
  0
LINE
  5
5C
102
{ACAD_REACTORS
330
6E
102
}
100
AcDbEntity
  8
Z0_TOPCOMP
370
         5
  6
Continuous
 62
         6
100
AcDbLine
 10
2.0242527688
 20
21.3120726962
 30
0.0
 11
2.1206021073
 21
21.2852994828
 31
0.0
  0
LINE
  5
5D
102
{ACAD_REACTORS
330
6E
102
}
100
AcDbEntity
  8
Z0_TOPCOMP
370
         5
  6
Continuous
 62
         6
100
AcDbLine
 10
1.7565206342
 20
20.3485793106
 30
0.0
 11
2.0242527688
 21
21.3120726962
 31
0.0
  0
LINE
  5
5E
102
{ACAD_REACTORS
330
6E
102
}
100
AcDbEntity
  8
Z0_TOPCOMP
370
         5
  6
Continuous
 62
         6
100
AcDbLine
 10
2.1206021073
 20
21.2852994828
 30
0.0
 11
1.8528699727
 21
20.3218060972
 31
0.0
  0
LINE
  5
5F
102
{ACAD_REACTORS
330
6E
102
}
100
AcDbEntity
  8
Z0_TOPCOMP
370
         5
  6
Continuous
 62
         6
100
AcDbLine
 10
1.9867895242
 20
21.3873509654
 30
0.0
 11
1.9867895242
 21
21.3873509654
 31
0.0
  0
LINE
  5
60
102
{ACAD_REACTORS
330
6E
102
}
100
AcDbEntity
  8
Z0_TOPCOMP
370
         5
  6
Continuous
 62
         6
100
AcDbLine
 10
1.6855908728
 20
20.3034209066
 30
0.0
 11
1.6855908728
 21
20.3034209066
 31
0.0
  0
LINE
  5
61
102
{ACAD_REACTORS
330
6E
102
}
100
AcDbEntity
  8
Z0_TOPCOMP
370
         5
  6
Continuous
 62
         6
100
AcDbLine
 10
1.8528699727
 20
20.3218060972
 30
0.0
 11
1.7565206342
 21
20.3485793106
 31
0.0
  0
LINE
  5
62
102
{ACAD_REACTORS
330
6E
102
}
100
AcDbEntity
  8
Z0_TOPCOMP
370
         5
  6
Continuous
 62
         6
100
AcDbLine
 10
1.9331896131
 20
20.6108541129
 30
0.0
 11
2.0402824669
 21
20.9962514671
 31
0.0
  0
LINE
  5
63
102
{ACAD_REACTORS
330
6E
102
}
100
AcDbEntity
  8
Z0_TOPCOMP
370
         5
  6
Continuous
 62
         6
100
AcDbLine
 10
1.8529234569
 20
20.9056042726
 30
0.0
 11
1.8529234569
 21
20.9056042726
 31
0.0
  0
LINE
  5
64
102
{ACAD_REACTORS
330
6E
102
}
100
AcDbEntity
  8
Z0_TOPCOMP
370
         5
  6
Continuous
 62
         6
100
AcDbLine
 10
1.5826145513
 20
21.030016523
 30
0.0
 11
1.4862652127
 21
21.0567897364
 31
0.0
  0
LINE
  5
65
102
{ACAD_REACTORS
330
6E
102
}
100
AcDbEntity
  8
Z0_TOPCOMP
370
         5
  6
Continuous
 62
         6
100
AcDbLine
 10
1.4273641431
 20
20.8448211916
 30
0.0
 11
1.5237134817
 21
20.8180479781
 31
0.0
  0
LINE
  5
66
102
{ACAD_REACTORS
330
6E
102
}
100
AcDbEntity
  8
Z0_TOPCOMP
370
         5
  6
Continuous
 62
         6
100
AcDbLine
 10
1.4862652127
 20
21.0567897364
 30
0.0
 11
1.4273641431
 21
20.8448211916
 31
0.0
  0
LINE
  5
67
102
{ACAD_REACTORS
330
6E
102
}
100
AcDbEntity
  8
Z0_TOPCOMP
370
         5
  6
Continuous
 62
         6
100
AcDbLine
 10
1.7090816156
 20
21.0882843884
 30
0.0
 11
1.648863279
 21
21.1050176468
 31
0.0
  0
LINE
  5
68
102
{ACAD_REACTORS
330
6E
102
}
100
AcDbEntity
  8
Z0_TOPCOMP
370
         5
  6
Continuous
 62
         6
100
AcDbLine
 10
1.6019887618
 20
20.7028870341
 30
0.0
 11
1.7090816156
 21
21.0882843884
 31
0.0
  0
LINE
  5
69
102
{ACAD_REACTORS
330
6E
102
}
100
AcDbEntity
  8
Z0_TOPCOMP
370
         5
  6
Continuous
 62
         6
100
AcDbLine
 10
1.5417704252
 20
20.7196202925
 30
0.0
 11
1.6019887618
 21
20.7028870341
 31
0.0
  0
LINE
  5
6A
102
{ACAD_REACTORS
330
6E
102
}
100
AcDbEntity
  8
Z0_TOPCOMP
370
         5
  6
Continuous
 62
         6
100
AcDbLine
 10
1.648863279
 20
21.1050176468
 30
0.0
 11
1.5417704252
 21
20.7196202925
 31
0.0
  0
LINE
  5
6B
102
{ACAD_REACTORS
330
6E
102
}
100
AcDbEntity
  8
Z0_TOPCOMP
370
         5
  6
Continuous
 62
         6
100
AcDbLine
 10
1.5237134817
 20
20.8180479781
 30
0.0
 11
1.5826145513
 21
21.030016523
 31
0.0
  0
LINE
  5
6C
102
{ACAD_REACTORS
330
6E
102
}
100
AcDbEntity
  8
Z0_TOPCOMP
370
         5
  6
Continuous
 62
         6
100
AcDbLine
 10
1.6067104434
 20
21.1167309277
 30
0.0
 11
1.4996175896
 21
20.7313335734
 31
0.0
  0
LINE
  5
6D
102
{ACAD_REACTORS
330
6E
102
}
100
AcDbEntity
  8
Z0_TOPCOMP
370
         5
  6
Continuous
 62
         6
100
AcDbLine
 10
1.6855908728
 20
20.3034209066
 30
0.0
 11
1.6855908728
 21
20.3034209066
 31
0.0
  0
CIRCLE
  5
6F
100
AcDbEntity
  8
Z0_TOPCOMP
370
        25
  6
Continuous
 62
         6
100
AcDbCircle
 10
1.272337886
 20
20.1590041954
 30
0.0
 40
0.35
  0
ARC
  5
70
102
{ACAD_REACTORS
330
7B
102
}
100
AcDbEntity
  8
Z0_BOTCOMP
370
        25
  6
Continuous
 62
         4
100
AcDbCircle
 10
1.272337886
 20
20.1590041954
 30
0.0
 40
0.285
100
AcDbArc
 50
15.4320713506
 51
90.0
  0
ARC
  5
71
102
{ACAD_REACTORS
330
7B
102
}
100
AcDbEntity
  8
Z0_BOTCOMP
370
        25
  6
Continuous
 62
         4
100
AcDbCircle
 10
1.272337886
 20
20.1590041954
 30
0.0
 40
0.285
100
AcDbArc
 50
-104.5679286494
 51
-30.0
  0
ARC
  5
72
102
{ACAD_REACTORS
330
7B
102
}
100
AcDbEntity
  8
Z0_BOTCOMP
370
        25
  6
Continuous
 62
         4
100
AcDbCircle
 10
1.272337886
 20
20.1590041954
 30
0.0
 40
0.285
100
AcDbArc
 50
135.4320713506
 51
-150.0
  0
LINE
  5
73
102
{ACAD_REACTORS
330
7B
102
}
100
AcDbEntity
  8
Z0_BOTCOMP
370
        25
  6
Continuous
 62
         4
100
AcDbLine
 10
1.5191551261
 20
20.0165041954
 30
0.0
 11
1.4455429667
 21
20.0590041954
 31
0.0
  0
LINE
  5
74
102
{ACAD_REACTORS
330
7B
102
}
100
AcDbEntity
  8
Z0_BOTCOMP
370
        25
  6
Continuous
 62
         4
100
AcDbLine
 10
1.4455429667
 20
20.0590041954
 30
0.0
 11
1.5470626693
 21
20.2348414781
 31
0.0
  0
LINE
  5
75
102
{ACAD_REACTORS
330
7B
102
}
100
AcDbEntity
  8
Z0_BOTCOMP
370
        25
  6
Continuous
 62
         4
100
AcDbLine
 10
1.0255206459
 20
20.0165041954
 30
0.0
 11
1.0991328052
 21
20.0590041954
 31
0.0
  0
LINE
  5
76
102
{ACAD_REACTORS
330
7B
102
}
100
AcDbEntity
  8
Z0_BOTCOMP
370
        25
  6
Continuous
 62
         4
100
AcDbLine
 10
1.0991328052
 20
20.0590041954
 30
0.0
 11
1.2006525077
 21
19.8831669126
 31
0.0
  0
LINE
  5
77
102
{ACAD_REACTORS
330
7B
102
}
100
AcDbEntity
  8
Z0_BOTCOMP
370
        25
  6
Continuous
 62
         4
100
AcDbLine
 10
1.272337886
 20
20.3590041954
 30
0.0
 11
1.0692984809
 21
20.3590041954
 31
0.0
  0
LINE
  5
78
102
{ACAD_REACTORS
330
7B
102
}
100
AcDbEntity
  8
Z0_BOTCOMP
370
        25
  6
Continuous
 62
         4
100
AcDbLine
 10
1.272337886
 20
20.4440041954
 30
0.0
 11
1.272337886
 21
20.3590041954
 31
0.0
  0
CIRCLE
  5
79
102
{ACAD_REACTORS
330
7B
102
}
100
AcDbEntity
  8
Z0_BOTCOMP
370
        25
  6
Continuous
 62
         4
100
AcDbCircle
 10
1.272337886
 20
20.1590041954
 30
0.0
 40
0.059
  0
CIRCLE
  5
7A
102
{ACAD_REACTORS
330
7B
102
}
100
AcDbEntity
  8
Z0_BOTCOMP
370
        25
  6
Continuous
 62
         4
100
AcDbCircle
 10
1.272337886
 20
20.1590041954
 30
0.0
 40
0.085
  0
ARC
  5
7C
102
{ACAD_REACTORS
330
80
102
}
100
AcDbEntity
  8
Z0_CUT500
370
        25
  6
Continuous
 62
         5
100
AcDbCircle
 10
1.9198756491
 20
21.1465305856
 30
0.0
 40
0.25
100
AcDbArc
 50
-15.5293601031
 51
164.4706398968
  0
LINE
  5
7D
102
{ACAD_REACTORS
330
80
102
}
100
AcDbEntity
  8
Z0_CUT500
370
        25
  6
Continuous
 62
         5
100
AcDbLine
 10
1.6790023027
 20
21.2134636192
 30
0.0
 11
1.5116697186
 21
20.6112802532
 31
0.0
  0
LINE
  5
7E
102
{ACAD_REACTORS
330
80
102
}
100
AcDbEntity
  8
Z0_CUT500
370
        25
  6
Continuous
 62
         5
100
AcDbLine
 10
1.9934164114
 20
20.4774141859
 30
0.0
 11
2.1607489956
 21
21.079597552
 31
0.0
  0
ARC
  5
7F
102
{ACAD_REACTORS
330
80
102
}
100
AcDbEntity
  8
Z0_CUT500
370
        25
  6
Continuous
 62
         5
100
AcDbCircle
 10
1.752543065
 20
20.5443472196
 30
0.0
 40
0.25
100
AcDbArc
 50
164.4706398968
 51
-15.5293601032
  0
CIRCLE
  5
81
100
AcDbEntity
  8
Z0_CUT500
370
        25
  6
Continuous
 62
         5
100
AcDbCircle
 10
1.7084695274
 20
21.7283897333
 30
0.0
 40
0.0825
  0
CIRCLE
  5
82
102
{ACAD_REACTORS
330
84
102
}
100
AcDbEntity
  8
Z0_RUBBER
370
        25
  6
Continuous
 62
         2
100
AcDbCircle
 10
1.272337886
 20
20.1590041954
 30
0.0
 40
0.4
  0
CIRCLE
  5
83
102
{ACAD_REACTORS
330
84
102
}
100
AcDbEntity
  8
Z0_RUBBER
370
        25
  6
Continuous
 62
         2
100
AcDbCircle
 10
1.272337886
 20
20.1590041954
 30
0.0
 40
0.215
  0
ARC
  5
85
102
{ACAD_REACTORS
330
90
102
}
100
AcDbEntity
  8
Z0_BOTCOMP
370
        25
  6
Continuous
 62
         4
100
AcDbCircle
 10
1.7084695274
 20
21.7283897333
 30
0.0
 40
0.285
100
AcDbArc
 50
15.4320713506
 51
90.0
  0
ARC
  5
86
102
{ACAD_REACTORS
330
90
102
}
100
AcDbEntity
  8
Z0_BOTCOMP
370
        25
  6
Continuous
 62
         4
100
AcDbCircle
 10
1.7084695274
 20
21.7283897333
 30
0.0
 40
0.285
100
AcDbArc
 50
-104.5679286494
 51
-30.0
  0
ARC
  5
87
102
{ACAD_REACTORS
330
90
102
}
100
AcDbEntity
  8
Z0_BOTCOMP
370
        25
  6
Continuous
 62
         4
100
AcDbCircle
 10
1.7084695274
 20
21.7283897333
 30
0.0
 40
0.285
100
AcDbArc
 50
135.4320713506
 51
-150.0
  0
LINE
  5
88
102
{ACAD_REACTORS
330
90
102
}
100
AcDbEntity
  8
Z0_BOTCOMP
370
        25
  6
Continuous
 62
         4
100
AcDbLine
 10
1.9552867675
 20
21.5858897333
 30
0.0
 11
1.8816746081
 21
21.6283897333
 31
0.0
  0
LINE
  5
89
102
{ACAD_REACTORS
330
90
102
}
100
AcDbEntity
  8
Z0_BOTCOMP
370
        25
  6
Continuous
 62
         4
100
AcDbLine
 10
1.8816746081
 20
21.6283897333
 30
0.0
 11
1.9831943107
 21
21.804227016
 31
0.0
  0
LINE
  5
8A
102
{ACAD_REACTORS
330
90
102
}
100
AcDbEntity
  8
Z0_BOTCOMP
370
        25
  6
Continuous
 62
         4
100
AcDbLine
 10
1.4616522873
 20
21.5858897333
 30
0.0
 11
1.5352644466
 21
21.6283897333
 31
0.0
  0
LINE
  5
8B
102
{ACAD_REACTORS
330
90
102
}
100
AcDbEntity
  8
Z0_BOTCOMP
370
        25
  6
Continuous
 62
         4
100
AcDbLine
 10
1.5352644466
 20
21.6283897333
 30
0.0
 11
1.6367841491
 21
21.4525524506
 31
0.0
  0
LINE
  5
8C
102
{ACAD_REACTORS
330
90
102
}
100
AcDbEntity
  8
Z0_BOTCOMP
370
        25
  6
Continuous
 62
         4
100
AcDbLine
 10
1.7084695274
 20
21.9283897333
 30
0.0
 11
1.5054301223
 21
21.9283897333
 31
0.0
  0
LINE
  5
8D
102
{ACAD_REACTORS
330
90
102
}
100
AcDbEntity
  8
Z0_BOTCOMP
370
        25
  6
Continuous
 62
         4
100
AcDbLine
 10
1.7084695274
 20
22.0133897333
 30
0.0
 11
1.7084695274
 21
21.9283897333
 31
0.0
  0
CIRCLE
  5
8E
102
{ACAD_REACTORS
330
90
102
}
100
AcDbEntity
  8
Z0_BOTCOMP
370
        25
  6
Continuous
 62
         4
100
AcDbCircle
 10
1.7084695274
 20
21.7283897333
 30
0.0
 40
0.059
  0
CIRCLE
  5
8F
102
{ACAD_REACTORS
330
90
102
}
100
AcDbEntity
  8
Z0_BOTCOMP
370
        25
  6
Continuous
 62
         4
100
AcDbCircle
 10
1.7084695274
 20
21.7283897333
 30
0.0
 40
0.085
  0
CIRCLE
  5
91
100
AcDbEntity
  8
Z0_CUT500
370
        25
  6
Continuous
 62
         5
100
AcDbCircle
 10
2.1465811855
 20
23.3049008
 30
0.0
 40
0.0825
  0
CIRCLE
  5
92
102
{ACAD_REACTORS
330
94
102
}
100
AcDbEntity
  8
Z0_RUBBER
370
        25
  6
Continuous
 62
         2
100
AcDbCircle
 10
2.1465811855
 20
23.3049008
 30
0.0
 40
0.4
  0
CIRCLE
  5
93
102
{ACAD_REACTORS
330
94
102
}
100
AcDbEntity
  8
Z0_RUBBER
370
        25
  6
Continuous
 62
         2
100
AcDbCircle
 10
2.1465811855
 20
23.3049008
 30
0.0
 40
0.215
  0
CIRCLE
  5
95
100
AcDbEntity
  8
Z0_TOPCOMP
370
        25
  6
Continuous
 62
         6
100
AcDbCircle
 10
2.1465811855
 20
23.3049008
 30
0.0
 40
0.35
  0
ARC
  5
96
102
{ACAD_REACTORS
330
A1
102
}
100
AcDbEntity
  8
Z0_BOTCOMP
370
        25
  6
Continuous
 62
         4
100
AcDbCircle
 10
2.1465811855
 20
23.3049008
 30
0.0
 40
0.285
100
AcDbArc
 50
15.4320713506
 51
90.0
  0
ARC
  5
97
102
{ACAD_REACTORS
330
A1
102
}
100
AcDbEntity
  8
Z0_BOTCOMP
370
        25
  6
Continuous
 62
         4
100
AcDbCircle
 10
2.1465811855
 20
23.3049008
 30
0.0
 40
0.285
100
AcDbArc
 50
-104.5679286494
 51
-30.0
  0
ARC
  5
98
102
{ACAD_REACTORS
330
A1
102
}
100
AcDbEntity
  8
Z0_BOTCOMP
370
        25
  6
Continuous
 62
         4
100
AcDbCircle
 10
2.1465811855
 20
23.3049008
 30
0.0
 40
0.285
100
AcDbArc
 50
135.4320713506
 51
-150.0
  0
LINE
  5
99
102
{ACAD_REACTORS
330
A1
102
}
100
AcDbEntity
  8
Z0_BOTCOMP
370
        25
  6
Continuous
 62
         4
100
AcDbLine
 10
2.3933984256
 20
23.1624008
 30
0.0
 11
2.3197862663
 21
23.2049008
 31
0.0
  0
LINE
  5
9A
102
{ACAD_REACTORS
330
A1
102
}
100
AcDbEntity
  8
Z0_BOTCOMP
370
        25
  6
Continuous
 62
         4
100
AcDbLine
 10
2.3197862663
 20
23.2049008
 30
0.0
 11
2.4213059688
 21
23.3807380827
 31
0.0
  0
LINE
  5
9B
102
{ACAD_REACTORS
330
A1
102
}
100
AcDbEntity
  8
Z0_BOTCOMP
370
        25
  6
Continuous
 62
         4
100
AcDbLine
 10
1.8997639454
 20
23.1624008
 30
0.0
 11
1.9733761047
 21
23.2049008
 31
0.0
  0
LINE
  5
9C
102
{ACAD_REACTORS
330
A1
102
}
100
AcDbEntity
  8
Z0_BOTCOMP
370
        25
  6
Continuous
 62
         4
100
AcDbLine
 10
1.9733761047
 20
23.2049008
 30
0.0
 11
2.0748958073
 21
23.0290635173
 31
0.0
  0
LINE
  5
9D
102
{ACAD_REACTORS
330
A1
102
}
100
AcDbEntity
  8
Z0_BOTCOMP
370
        25
  6
Continuous
 62
         4
100
AcDbLine
 10
2.1465811855
 20
23.5049008
 30
0.0
 11
1.9435417805
 21
23.5049008
 31
0.0
  0
LINE
  5
9E
102
{ACAD_REACTORS
330
A1
102
}
100
AcDbEntity
  8
Z0_BOTCOMP
370
        25
  6
Continuous
 62
         4
100
AcDbLine
 10
2.1465811855
 20
23.5899008
 30
0.0
 11
2.1465811855
 21
23.5049008
 31
0.0
  0
CIRCLE
  5
9F
102
{ACAD_REACTORS
330
A1
102
}
100
AcDbEntity
  8
Z0_BOTCOMP
370
        25
  6
Continuous
 62
         4
100
AcDbCircle
 10
2.1465811855
 20
23.3049008
 30
0.0
 40
0.059
  0
CIRCLE
  5
A0
102
{ACAD_REACTORS
330
A1
102
}
100
AcDbEntity
  8
Z0_BOTCOMP
370
        25
  6
Continuous
 62
         4
100
AcDbCircle
 10
2.1465811855
 20
23.3049008
 30
0.0
 40
0.085
  0
ARC
  5
A2
102
{ACAD_REACTORS
330
A6
102
}
100
AcDbEntity
  8
Z0_CUT500
370
        25
  6
Continuous
 62
         5
100
AcDbCircle
 10
2.3579873057
 20
22.7230416467
 30
0.0
 40
0.25
100
AcDbArc
 50
-15.5293601031
 51
164.4706398968
  0
LINE
  5
A3
102
{ACAD_REACTORS
330
A6
102
}
100
AcDbEntity
  8
Z0_CUT500
370
        25
  6
Continuous
 62
         5
100
AcDbLine
 10
2.1171139593
 20
22.7899746803
 30
0.0
 11
1.9497813752
 21
22.1877913143
 31
0.0
  0
LINE
  5
A4
102
{ACAD_REACTORS
330
A6
102
}
100
AcDbEntity
  8
Z0_CUT500
370
        25
  6
Continuous
 62
         5
100
AcDbLine
 10
2.431528068
 20
22.0539252471
 30
0.0
 11
2.5988606521
 21
22.6561086131
 31
0.0
  0
ARC
  5
A5
102
{ACAD_REACTORS
330
A6
102
}
100
AcDbEntity
  8
Z0_CUT500
370
        25
  6
Continuous
 62
         5
100
AcDbCircle
 10
2.1906547216
 20
22.1208582807
 30
0.0
 40
0.25
100
AcDbArc
 50
164.4706398968
 51
-15.5293601032
  0
LINE
  5
A7
102
{ACAD_REACTORS
330
BB
102
}
100
AcDbEntity
  8
Z0_TOPCOMP
370
         5
  6
Continuous
 62
         6
100
AcDbLine
 10
2.4783941235
 20
22.5727625282
 30
0.0
 11
2.0448221
 21
22.6932419888
 31
0.0
  0
LINE
  5
A8
102
{ACAD_REACTORS
330
BB
102
}
100
AcDbEntity
  8
Z0_TOPCOMP
370
         5
  6
Continuous
 62
         6
100
AcDbLine
 10
1.9377292462
 20
22.3078446345
 30
0.0
 11
2.3713012697
 21
22.187365174
 31
0.0
  0
LINE
  5
A9
102
{ACAD_REACTORS
330
BB
102
}
100
AcDbEntity
  8
Z0_TOPCOMP
370
         5
  6
Continuous
 62
         6
100
AcDbLine
 10
2.4623644253
 20
22.8885837573
 30
0.0
 11
2.5587137639
 21
22.8618105439
 31
0.0
  0
LINE
  5
AA
102
{ACAD_REACTORS
330
BB
102
}
100
AcDbEntity
  8
Z0_TOPCOMP
370
         5
  6
Continuous
 62
         6
100
AcDbLine
 10
2.1946322908
 20
21.9250903717
 30
0.0
 11
2.4623644253
 21
22.8885837573
 31
0.0
  0
LINE
  5
AB
102
{ACAD_REACTORS
330
BB
102
}
100
AcDbEntity
  8
Z0_TOPCOMP
370
         5
  6
Continuous
 62
         6
100
AcDbLine
 10
2.5587137639
 20
22.8618105439
 30
0.0
 11
2.2909816293
 21
21.8983171583
 31
0.0
  0
LINE
  5
AC
102
{ACAD_REACTORS
330
BB
102
}
100
AcDbEntity
  8
Z0_TOPCOMP
370
         5
  6
Continuous
 62
         6
100
AcDbLine
 10
2.4249011808
 20
22.9638620265
 30
0.0
 11
2.4249011808
 21
22.9638620265
 31
0.0
  0
LINE
  5
AD
102
{ACAD_REACTORS
330
BB
102
}
100
AcDbEntity
  8
Z0_TOPCOMP
370
         5
  6
Continuous
 62
         6
100
AcDbLine
 10
2.1237025294
 20
21.8799319677
 30
0.0
 11
2.1237025294
 21
21.8799319677
 31
0.0
  0
LINE
  5
AE
102
{ACAD_REACTORS
330
BB
102
}
100
AcDbEntity
  8
Z0_TOPCOMP
370
         5
  6
Continuous
 62
         6
100
AcDbLine
 10
2.2909816293
 20
21.8983171583
 30
0.0
 11
2.1946322908
 21
21.9250903717
 31
0.0
  0
LINE
  5
AF
102
{ACAD_REACTORS
330
BB
102
}
100
AcDbEntity
  8
Z0_TOPCOMP
370
         5
  6
Continuous
 62
         6
100
AcDbLine
 10
2.3713012697
 20
22.187365174
 30
0.0
 11
2.4783941235
 21
22.5727625282
 31
0.0
  0
LINE
  5
B0
102
{ACAD_REACTORS
330
BB
102
}
100
AcDbEntity
  8
Z0_TOPCOMP
370
         5
  6
Continuous
 62
         6
100
AcDbLine
 10
2.2910351135
 20
22.4821153337
 30
0.0
 11
2.2910351135
 21
22.4821153337
 31
0.0
  0
LINE
  5
B1
102
{ACAD_REACTORS
330
BB
102
}
100
AcDbEntity
  8
Z0_TOPCOMP
370
         5
  6
Continuous
 62
         6
100
AcDbLine
 10
2.0207262079
 20
22.6065275841
 30
0.0
 11
1.9243768693
 21
22.6333007975
 31
0.0
  0
LINE
  5
B2
102
{ACAD_REACTORS
330
BB
102
}
100
AcDbEntity
  8
Z0_TOPCOMP
370
         5
  6
Continuous
 62
         6
100
AcDbLine
 10
1.8654757997
 20
22.4213322527
 30
0.0
 11
1.9618251383
 21
22.3945590392
 31
0.0
  0
LINE
  5
B3
102
{ACAD_REACTORS
330
BB
102
}
100
AcDbEntity
  8
Z0_TOPCOMP
370
         5
  6
Continuous
 62
         6
100
AcDbLine
 10
1.9243768693
 20
22.6333007975
 30
0.0
 11
1.8654757997
 21
22.4213322527
 31
0.0
  0
LINE
  5
B4
102
{ACAD_REACTORS
330
BB
102
}
100
AcDbEntity
  8
Z0_TOPCOMP
370
         5
  6
Continuous
 62
         6
100
AcDbLine
 10
2.1471932722
 20
22.6647954495
 30
0.0
 11
2.0869749356
 21
22.6815287079
 31
0.0
  0
LINE
  5
B5
102
{ACAD_REACTORS
330
BB
102
}
100
AcDbEntity
  8
Z0_TOPCOMP
370
         5
  6
Continuous
 62
         6
100
AcDbLine
 10
2.0401004184
 20
22.2793980952
 30
0.0
 11
2.1471932722
 21
22.6647954495
 31
0.0
  0
LINE
  5
B6
102
{ACAD_REACTORS
330
BB
102
}
100
AcDbEntity
  8
Z0_TOPCOMP
370
         5
  6
Continuous
 62
         6
100
AcDbLine
 10
1.9798820818
 20
22.2961313536
 30
0.0
 11
2.0401004184
 21
22.2793980952
 31
0.0
  0
LINE
  5
B7
102
{ACAD_REACTORS
330
BB
102
}
100
AcDbEntity
  8
Z0_TOPCOMP
370
         5
  6
Continuous
 62
         6
100
AcDbLine
 10
2.0869749356
 20
22.6815287079
 30
0.0
 11
1.9798820818
 21
22.2961313536
 31
0.0
  0
LINE
  5
B8
102
{ACAD_REACTORS
330
BB
102
}
100
AcDbEntity
  8
Z0_TOPCOMP
370
         5
  6
Continuous
 62
         6
100
AcDbLine
 10
1.9618251383
 20
22.3945590392
 30
0.0
 11
2.0207262079
 21
22.6065275841
 31
0.0
  0
LINE
  5
B9
102
{ACAD_REACTORS
330
BB
102
}
100
AcDbEntity
  8
Z0_TOPCOMP
370
         5
  6
Continuous
 62
         6
100
AcDbLine
 10
2.0448221
 20
22.6932419888
 30
0.0
 11
1.9377292462
 21
22.3078446345
 31
0.0
  0
LINE
  5
BA
102
{ACAD_REACTORS
330
BB
102
}
100
AcDbEntity
  8
Z0_TOPCOMP
370
         5
  6
Continuous
 62
         6
100
AcDbLine
 10
2.1237025294
 20
21.8799319677
 30
0.0
 11
2.1237025294
 21
21.8799319677
 31
0.0
  0
LINE
  5
BC
102
{ACAD_REACTORS
330
D0
102
}
100
AcDbEntity
  8
Z0_TOPCOMP
370
         5
  6
Continuous
 62
         6
100
AcDbLine
 10
2.9165057801
 20
24.1492735893
 30
0.0
 11
2.4829337566
 21
24.2697530499
 31
0.0
  0
LINE
  5
BD
102
{ACAD_REACTORS
330
D0
102
}
100
AcDbEntity
  8
Z0_TOPCOMP
370
         5
  6
Continuous
 62
         6
100
AcDbLine
 10
2.3758409027
 20
23.8843556956
 30
0.0
 11
2.8094129263
 21
23.7638762351
 31
0.0
  0
LINE
  5
BE
102
{ACAD_REACTORS
330
D0
102
}
100
AcDbEntity
  8
Z0_TOPCOMP
370
         5
  6
Continuous
 62
         6
100
AcDbLine
 10
2.9004760819
 20
24.4650948185
 30
0.0
 11
2.9968254205
 21
24.438321605
 31
0.0
  0
LINE
  5
BF
102
{ACAD_REACTORS
330
D0
102
}
100
AcDbEntity
  8
Z0_TOPCOMP
370
         5
  6
Continuous
 62
         6
100
AcDbLine
 10
2.6327439473
 20
23.5016014328
 30
0.0
 11
2.9004760819
 21
24.4650948185
 31
0.0
  0
LINE
  5
C0
102
{ACAD_REACTORS
330
D0
102
}
100
AcDbEntity
  8
Z0_TOPCOMP
370
         5
  6
Continuous
 62
         6
100
AcDbLine
 10
2.9968254205
 20
24.438321605
 30
0.0
 11
2.7290932859
 21
23.4748282194
 31
0.0
  0
LINE
  5
C1
102
{ACAD_REACTORS
330
D0
102
}
100
AcDbEntity
  8
Z0_TOPCOMP
370
         5
  6
Continuous
 62
         6
100
AcDbLine
 10
2.8630128374
 20
24.5403730876
 30
0.0
 11
2.8630128374
 21
24.5403730876
 31
0.0
  0
LINE
  5
C2
102
{ACAD_REACTORS
330
D0
102
}
100
AcDbEntity
  8
Z0_TOPCOMP
370
         5
  6
Continuous
 62
         6
100
AcDbLine
 10
2.561814186
 20
23.4564430288
 30
0.0
 11
2.561814186
 21
23.4564430288
 31
0.0
  0
LINE
  5
C3
102
{ACAD_REACTORS
330
D0
102
}
100
AcDbEntity
  8
Z0_TOPCOMP
370
         5
  6
Continuous
 62
         6
100
AcDbLine
 10
2.7290932859
 20
23.4748282194
 30
0.0
 11
2.6327439473
 21
23.5016014328
 31
0.0
  0
LINE
  5
C4
102
{ACAD_REACTORS
330
D0
102
}
100
AcDbEntity
  8
Z0_TOPCOMP
370
         5
  6
Continuous
 62
         6
100
AcDbLine
 10
2.8094129263
 20
23.7638762351
 30
0.0
 11
2.9165057801
 21
24.1492735893
 31
0.0
  0
LINE
  5
C5
102
{ACAD_REACTORS
330
D0
102
}
100
AcDbEntity
  8
Z0_TOPCOMP
370
         5
  6
Continuous
 62
         6
100
AcDbLine
 10
2.7291467701
 20
24.0586263948
 30
0.0
 11
2.7291467701
 21
24.0586263948
 31
0.0
  0
LINE
  5
C6
102
{ACAD_REACTORS
330
D0
102
}
100
AcDbEntity
  8
Z0_TOPCOMP
370
         5
  6
Continuous
 62
         6
100
AcDbLine
 10
2.4588378645
 20
24.1830386452
 30
0.0
 11
2.3624885259
 21
24.2098118586
 31
0.0
  0
LINE
  5
C7
102
{ACAD_REACTORS
330
D0
102
}
100
AcDbEntity
  8
Z0_TOPCOMP
370
         5
  6
Continuous
 62
         6
100
AcDbLine
 10
2.3035874563
 20
23.9978433138
 30
0.0
 11
2.3999367949
 21
23.9710701003
 31
0.0
  0
LINE
  5
C8
102
{ACAD_REACTORS
330
D0
102
}
100
AcDbEntity
  8
Z0_TOPCOMP
370
         5
  6
Continuous
 62
         6
100
AcDbLine
 10
2.3624885259
 20
24.2098118586
 30
0.0
 11
2.3035874563
 21
23.9978433138
 31
0.0
  0
LINE
  5
C9
102
{ACAD_REACTORS
330
D0
102
}
100
AcDbEntity
  8
Z0_TOPCOMP
370
         5
  6
Continuous
 62
         6
100
AcDbLine
 10
2.5853049288
 20
24.2413065106
 30
0.0
 11
2.5250865922
 21
24.258039769
 31
0.0
  0
LINE
  5
CA
102
{ACAD_REACTORS
330
D0
102
}
100
AcDbEntity
  8
Z0_TOPCOMP
370
         5
  6
Continuous
 62
         6
100
AcDbLine
 10
2.478212075
 20
23.8559091563
 30
0.0
 11
2.5853049288
 21
24.2413065106
 31
0.0
  0
LINE
  5
CB
102
{ACAD_REACTORS
330
D0
102
}
100
AcDbEntity
  8
Z0_TOPCOMP
370
         5
  6
Continuous
 62
         6
100
AcDbLine
 10
2.4179937384
 20
23.8726424147
 30
0.0
 11
2.478212075
 21
23.8559091563
 31
0.0
  0
LINE
  5
CC
102
{ACAD_REACTORS
330
D0
102
}
100
AcDbEntity
  8
Z0_TOPCOMP
370
         5
  6
Continuous
 62
         6
100
AcDbLine
 10
2.5250865922
 20
24.258039769
 30
0.0
 11
2.4179937384
 21
23.8726424147
 31
0.0
  0
LINE
  5
CD
102
{ACAD_REACTORS
330
D0
102
}
100
AcDbEntity
  8
Z0_TOPCOMP
370
         5
  6
Continuous
 62
         6
100
AcDbLine
 10
2.3999367949
 20
23.9710701003
 30
0.0
 11
2.4588378645
 21
24.1830386452
 31
0.0
  0
LINE
  5
CE
102
{ACAD_REACTORS
330
D0
102
}
100
AcDbEntity
  8
Z0_TOPCOMP
370
         5
  6
Continuous
 62
         6
100
AcDbLine
 10
2.4829337566
 20
24.2697530499
 30
0.0
 11
2.3758409027
 21
23.8843556956
 31
0.0
  0
LINE
  5
CF
102
{ACAD_REACTORS
330
D0
102
}
100
AcDbEntity
  8
Z0_TOPCOMP
370
         5
  6
Continuous
 62
         6
100
AcDbLine
 10
2.561814186
 20
23.4564430288
 30
0.0
 11
2.561814186
 21
23.4564430288
 31
0.0
  0
ARC
  5
D1
102
{ACAD_REACTORS
330
D5
102
}
100
AcDbEntity
  8
Z0_CUT500
370
        25
  6
Continuous
 62
         5
100
AcDbCircle
 10
2.7960989623
 20
24.2995527078
 30
0.0
 40
0.25
100
AcDbArc
 50
-15.5293601031
 51
164.4706398968
  0
LINE
  5
D2
102
{ACAD_REACTORS
330
D5
102
}
100
AcDbEntity
  8
Z0_CUT500
370
        25
  6
Continuous
 62
         5
100
AcDbLine
 10
2.5552256159
 20
24.3664857415
 30
0.0
 11
2.3878930318
 21
23.7643023755
 31
0.0
  0
LINE
  5
D3
102
{ACAD_REACTORS
330
D5
102
}
100
AcDbEntity
  8
Z0_CUT500
370
        25
  6
Continuous
 62
         5
100
AcDbLine
 10
2.8696397246
 20
23.6304363082
 30
0.0
 11
3.0369723087
 21
24.2326196742
 31
0.0
  0
ARC
  5
D4
102
{ACAD_REACTORS
330
D5
102
}
100
AcDbEntity
  8
Z0_CUT500
370
        25
  6
Continuous
 62
         5
100
AcDbCircle
 10
2.6287663782
 20
23.6973693418
 30
0.0
 40
0.25
100
AcDbArc
 50
164.4706398968
 51
-15.5293601032
  0
CIRCLE
  5
D6
102
{ACAD_REACTORS
330
D8
102
}
100
AcDbEntity
  8
Z0_RUBBER
370
        25
  6
Continuous
 62
         2
100
AcDbCircle
 10
17.1025845018
 20
20.1590041954
 30
0.0
 40
0.4
  0
CIRCLE
  5
D7
102
{ACAD_REACTORS
330
D8
102
}
100
AcDbEntity
  8
Z0_RUBBER
370
        25
  6
Continuous
 62
         2
100
AcDbCircle
 10
17.1025845018
 20
20.1590041954
 30
0.0
 40
0.215
  0
ARC
  5
D9
102
{ACAD_REACTORS
330
DD
102
}
100
AcDbEntity
  8
Z0_CUT500
370
        25
  6
Continuous
 62
         5
100
AcDbCircle
 10
15.5788234254
 20
24.2995527078
 30
0.0
 40
0.25
100
AcDbArc
 50
15.5293601032
 51
-164.4706398969
  0
LINE
  5
DA
102
{ACAD_REACTORS
330
DD
102
}
100
AcDbEntity
  8
Z0_CUT500
370
        25
  6
Continuous
 62
         5
100
AcDbLine
 10
15.8196967719
 20
24.3664857415
 30
0.0
 11
15.987029356
 21
23.7643023755
 31
0.0
  0
LINE
  5
DB
102
{ACAD_REACTORS
330
DD
102
}
100
AcDbEntity
  8
Z0_CUT500
370
        25
  6
Continuous
 62
         5
100
AcDbLine
 10
15.5052826632
 20
23.6304363082
 30
0.0
 11
15.337950079
 21
24.2326196742
 31
0.0
  0
ARC
  5
DC
102
{ACAD_REACTORS
330
DD
102
}
100
AcDbEntity
  8
Z0_CUT500
370
        25
  6
Continuous
 62
         5
100
AcDbCircle
 10
15.7461560096
 20
23.6973693418
 30
0.0
 40
0.25
100
AcDbArc
 50
-164.4706398968
 51
15.5293601032
  0
LINE
  5
DE
102
{ACAD_REACTORS
330
F2
102
}
100
AcDbEntity
  8
Z0_TOPCOMP
370
         5
  6
Continuous
 62
         6
100
AcDbLine
 10
15.4584166077
 20
24.1492735893
 30
0.0
 11
15.8919886312
 21
24.2697530499
 31
0.0
  0
LINE
  5
DF
102
{ACAD_REACTORS
330
F2
102
}
100
AcDbEntity
  8
Z0_TOPCOMP
370
         5
  6
Continuous
 62
         6
100
AcDbLine
 10
15.999081485
 20
23.8843556956
 30
0.0
 11
15.5655094615
 21
23.7638762351
 31
0.0
  0
LINE
  5
E0
102
{ACAD_REACTORS
330
F2
102
}
100
AcDbEntity
  8
Z0_TOPCOMP
370
         5
  6
Continuous
 62
         6
100
AcDbLine
 10
15.4744463058
 20
24.4650948185
 30
0.0
 11
15.3780969673
 21
24.438321605
 31
0.0
  0
LINE
  5
E1
102
{ACAD_REACTORS
330
F2
102
}
100
AcDbEntity
  8
Z0_TOPCOMP
370
         5
  6
Continuous
 62
         6
100
AcDbLine
 10
15.7421784404
 20
23.5016014328
 30
0.0
 11
15.4744463058
 21
24.4650948185
 31
0.0
  0
LINE
  5
E2
102
{ACAD_REACTORS
330
F2
102
}
100
AcDbEntity
  8
Z0_TOPCOMP
370
         5
  6
Continuous
 62
         6
100
AcDbLine
 10
15.3780969673
 20
24.438321605
 30
0.0
 11
15.6458291019
 21
23.4748282194
 31
0.0
  0
LINE
  5
E3
102
{ACAD_REACTORS
330
F2
102
}
100
AcDbEntity
  8
Z0_TOPCOMP
370
         5
  6
Continuous
 62
         6
100
AcDbLine
 10
15.5119095504
 20
24.5403730876
 30
0.0
 11
15.5119095504
 21
24.5403730876
 31
0.0
  0
LINE
  5
E4
102
{ACAD_REACTORS
330
F2
102
}
100
AcDbEntity
  8
Z0_TOPCOMP
370
         5
  6
Continuous
 62
         6
100
AcDbLine
 10
15.8131082018
 20
23.4564430288
 30
0.0
 11
15.8131082018
 21
23.4564430288
 31
0.0
  0
LINE
  5
E5
102
{ACAD_REACTORS
330
F2
102
}
100
AcDbEntity
  8
Z0_TOPCOMP
370
         5
  6
Continuous
 62
         6
100
AcDbLine
 10
15.6458291019
 20
23.4748282194
 30
0.0
 11
15.7421784404
 21
23.5016014328
 31
0.0
  0
LINE
  5
E6
102
{ACAD_REACTORS
330
F2
102
}
100
AcDbEntity
  8
Z0_TOPCOMP
370
         5
  6
Continuous
 62
         6
100
AcDbLine
 10
15.5655094615
 20
23.7638762351
 30
0.0
 11
15.4584166077
 21
24.1492735893
 31
0.0
  0
LINE
  5
E7
102
{ACAD_REACTORS
330
F2
102
}
100
AcDbEntity
  8
Z0_TOPCOMP
370
         5
  6
Continuous
 62
         6
100
AcDbLine
 10
15.6457756177
 20
24.0586263948
 30
0.0
 11
15.6457756177
 21
24.0586263948
 31
0.0
  0
LINE
  5
E8
102
{ACAD_REACTORS
330
F2
102
}
100
AcDbEntity
  8
Z0_TOPCOMP
370
         5
  6
Continuous
 62
         6
100
AcDbLine
 10
15.9160845233
 20
24.1830386452
 30
0.0
 11
16.0124338618
 21
24.2098118586
 31
0.0
  0
LINE
  5
E9
102
{ACAD_REACTORS
330
F2
102
}
100
AcDbEntity
  8
Z0_TOPCOMP
370
         5
  6
Continuous
 62
         6
100
AcDbLine
 10
16.0713349315
 20
23.9978433138
 30
0.0
 11
15.9749855929
 21
23.9710701003
 31
0.0
  0
LINE
  5
EA
102
{ACAD_REACTORS
330
F2
102
}
100
AcDbEntity
  8
Z0_TOPCOMP
370
         5
  6
Continuous
 62
         6
100
AcDbLine
 10
16.0124338618
 20
24.2098118586
 30
0.0
 11
16.0713349315
 21
23.9978433138
 31
0.0
  0
LINE
  5
EB
102
{ACAD_REACTORS
330
F2
102
}
100
AcDbEntity
  8
Z0_TOPCOMP
370
         5
  6
Continuous
 62
         6
100
AcDbLine
 10
15.789617459
 20
24.2413065106
 30
0.0
 11
15.8498357956
 21
24.258039769
 31
0.0
  0
LINE
  5
EC
102
{ACAD_REACTORS
330
F2
102
}
100
AcDbEntity
  8
Z0_TOPCOMP
370
         5
  6
Continuous
 62
         6
100
AcDbLine
 10
15.8967103128
 20
23.8559091563
 30
0.0
 11
15.789617459
 21
24.2413065106
 31
0.0
  0
LINE
  5
ED
102
{ACAD_REACTORS
330
F2
102
}
100
AcDbEntity
  8
Z0_TOPCOMP
370
         5
  6
Continuous
 62
         6
100
AcDbLine
 10
15.9569286494
 20
23.8726424147
 30
0.0
 11
15.8967103128
 21
23.8559091563
 31
0.0
  0
LINE
  5
EE
102
{ACAD_REACTORS
330
F2
102
}
100
AcDbEntity
  8
Z0_TOPCOMP
370
         5
  6
Continuous
 62
         6
100
AcDbLine
 10
15.8498357956
 20
24.258039769
 30
0.0
 11
15.9569286494
 21
23.8726424147
 31
0.0
  0
LINE
  5
EF
102
{ACAD_REACTORS
330
F2
102
}
100
AcDbEntity
  8
Z0_TOPCOMP
370
         5
  6
Continuous
 62
         6
100
AcDbLine
 10
15.9749855929
 20
23.9710701003
 30
0.0
 11
15.9160845233
 21
24.1830386452
 31
0.0
  0
LINE
  5
F0
102
{ACAD_REACTORS
330
F2
102
}
100
AcDbEntity
  8
Z0_TOPCOMP
370
         5
  6
Continuous
 62
         6
100
AcDbLine
 10
15.8919886312
 20
24.2697530499
 30
0.0
 11
15.999081485
 21
23.8843556956
 31
0.0
  0
LINE
  5
F1
102
{ACAD_REACTORS
330
F2
102
}
100
AcDbEntity
  8
Z0_TOPCOMP
370
         5
  6
Continuous
 62
         6
100
AcDbLine
 10
15.8131082018
 20
23.4564430288
 30
0.0
 11
15.8131082018
 21
23.4564430288
 31
0.0
  0
LINE
  5
F3
102
{ACAD_REACTORS
330
107
102
}
100
AcDbEntity
  8
Z0_TOPCOMP
370
         5
  6
Continuous
 62
         6
100
AcDbLine
 10
15.8965282642
 20
22.5727625282
 30
0.0
 11
16.3301002878
 21
22.6932419888
 31
0.0
  0
LINE
  5
F4
102
{ACAD_REACTORS
330
107
102
}
100
AcDbEntity
  8
Z0_TOPCOMP
370
         5
  6
Continuous
 62
         6
100
AcDbLine
 10
16.4371931416
 20
22.3078446345
 30
0.0
 11
16.0036211181
 21
22.187365174
 31
0.0
  0
LINE
  5
F5
102
{ACAD_REACTORS
330
107
102
}
100
AcDbEntity
  8
Z0_TOPCOMP
370
         5
  6
Continuous
 62
         6
100
AcDbLine
 10
15.9125579624
 20
22.8885837573
 30
0.0
 11
15.8162086239
 21
22.8618105439
 31
0.0
  0
LINE
  5
F6
102
{ACAD_REACTORS
330
107
102
}
100
AcDbEntity
  8
Z0_TOPCOMP
370
         5
  6
Continuous
 62
         6
100
AcDbLine
 10
16.180290097
 20
21.9250903717
 30
0.0
 11
15.9125579624
 21
22.8885837573
 31
0.0
  0
LINE
  5
F7
102
{ACAD_REACTORS
330
107
102
}
100
AcDbEntity
  8
Z0_TOPCOMP
370
         5
  6
Continuous
 62
         6
100
AcDbLine
 10
15.8162086239
 20
22.8618105439
 30
0.0
 11
16.0839407584
 21
21.8983171583
 31
0.0
  0
LINE
  5
F8
102
{ACAD_REACTORS
330
107
102
}
100
AcDbEntity
  8
Z0_TOPCOMP
370
         5
  6
Continuous
 62
         6
100
AcDbLine
 10
15.9500212069
 20
22.9638620265
 30
0.0
 11
15.9500212069
 21
22.9638620265
 31
0.0
  0
LINE
  5
F9
102
{ACAD_REACTORS
330
107
102
}
100
AcDbEntity
  8
Z0_TOPCOMP
370
         5
  6
Continuous
 62
         6
100
AcDbLine
 10
16.2512198583
 20
21.8799319677
 30
0.0
 11
16.2512198583
 21
21.8799319677
 31
0.0
  0
LINE
  5
FA
102
{ACAD_REACTORS
330
107
102
}
100
AcDbEntity
  8
Z0_TOPCOMP
370
         5
  6
Continuous
 62
         6
100
AcDbLine
 10
16.0839407584
 20
21.8983171583
 30
0.0
 11
16.180290097
 21
21.9250903717
 31
0.0
  0
LINE
  5
FB
102
{ACAD_REACTORS
330
107
102
}
100
AcDbEntity
  8
Z0_TOPCOMP
370
         5
  6
Continuous
 62
         6
100
AcDbLine
 10
16.0036211181
 20
22.187365174
 30
0.0
 11
15.8965282642
 21
22.5727625282
 31
0.0
  0
LINE
  5
FC
102
{ACAD_REACTORS
330
107
102
}
100
AcDbEntity
  8
Z0_TOPCOMP
370
         5
  6
Continuous
 62
         6
100
AcDbLine
 10
16.0838872742
 20
22.4821153337
 30
0.0
 11
16.0838872742
 21
22.4821153337
 31
0.0
  0
LINE
  5
FD
102
{ACAD_REACTORS
330
107
102
}
100
AcDbEntity
  8
Z0_TOPCOMP
370
         5
  6
Continuous
 62
         6
100
AcDbLine
 10
16.3541961799
 20
22.6065275841
 30
0.0
 11
16.4505455184
 21
22.6333007975
 31
0.0
  0
LINE
  5
FE
102
{ACAD_REACTORS
330
107
102
}
100
AcDbEntity
  8
Z0_TOPCOMP
370
         5
  6
Continuous
 62
         6
100
AcDbLine
 10
16.509446588
 20
22.4213322527
 30
0.0
 11
16.4130972495
 21
22.3945590392
 31
0.0
  0
LINE
  5
FF
102
{ACAD_REACTORS
330
107
102
}
100
AcDbEntity
  8
Z0_TOPCOMP
370
         5
  6
Continuous
 62
         6
100
AcDbLine
 10
16.4505455184
 20
22.6333007975
 30
0.0
 11
16.509446588
 21
22.4213322527
 31
0.0
  0
LINE
  5
100
102
{ACAD_REACTORS
330
107
102
}
100
AcDbEntity
  8
Z0_TOPCOMP
370
         5
  6
Continuous
 62
         6
100
AcDbLine
 10
16.2277291155
 20
22.6647954495
 30
0.0
 11
16.2879474521
 21
22.6815287079
 31
0.0
  0
LINE
  5
101
102
{ACAD_REACTORS
330
107
102
}
100
AcDbEntity
  8
Z0_TOPCOMP
370
         5
  6
Continuous
 62
         6
100
AcDbLine
 10
16.3348219694
 20
22.2793980952
 30
0.0
 11
16.2277291155
 21
22.6647954495
 31
0.0
  0
LINE
  5
102
102
{ACAD_REACTORS
330
107
102
}
100
AcDbEntity
  8
Z0_TOPCOMP
370
         5
  6
Continuous
 62
         6
100
AcDbLine
 10
16.395040306
 20
22.2961313536
 30
0.0
 11
16.3348219694
 21
22.2793980952
 31
0.0
  0
LINE
  5
103
102
{ACAD_REACTORS
330
107
102
}
100
AcDbEntity
  8
Z0_TOPCOMP
370
         5
  6
Continuous
 62
         6
100
AcDbLine
 10
16.2879474521
 20
22.6815287079
 30
0.0
 11
16.395040306
 21
22.2961313536
 31
0.0
  0
LINE
  5
104
102
{ACAD_REACTORS
330
107
102
}
100
AcDbEntity
  8
Z0_TOPCOMP
370
         5
  6
Continuous
 62
         6
100
AcDbLine
 10
16.4130972495
 20
22.3945590392
 30
0.0
 11
16.3541961799
 21
22.6065275841
 31
0.0
  0
LINE
  5
105
102
{ACAD_REACTORS
330
107
102
}
100
AcDbEntity
  8
Z0_TOPCOMP
370
         5
  6
Continuous
 62
         6
100
AcDbLine
 10
16.3301002878
 20
22.6932419888
 30
0.0
 11
16.4371931416
 21
22.3078446345
 31
0.0
  0
LINE
  5
106
102
{ACAD_REACTORS
330
107
102
}
100
AcDbEntity
  8
Z0_TOPCOMP
370
         5
  6
Continuous
 62
         6
100
AcDbLine
 10
16.2512198583
 20
21.8799319677
 30
0.0
 11
16.2512198583
 21
21.8799319677
 31
0.0
  0
ARC
  5
108
102
{ACAD_REACTORS
330
10C
102
}
100
AcDbEntity
  8
Z0_CUT500
370
        25
  6
Continuous
 62
         5
100
AcDbCircle
 10
16.016935082
 20
22.7230416467
 30
0.0
 40
0.25
100
AcDbArc
 50
15.5293601032
 51
-164.4706398969
  0
LINE
  5
109
102
{ACAD_REACTORS
330
10C
102
}
100
AcDbEntity
  8
Z0_CUT500
370
        25
  6
Continuous
 62
         5
100
AcDbLine
 10
16.2578084284
 20
22.7899746803
 30
0.0
 11
16.4251410125
 21
22.1877913143
 31
0.0
  0
LINE
  5
10A
102
{ACAD_REACTORS
330
10C
102
}
100
AcDbEntity
  8
Z0_CUT500
370
        25
  6
Continuous
 62
         5
100
AcDbLine
 10
15.9433943197
 20
22.0539252471
 30
0.0
 11
15.7760617356
 21
22.6561086131
 31
0.0
  0
ARC
  5
10B
102
{ACAD_REACTORS
330
10C
102
}
100
AcDbEntity
  8
Z0_CUT500
370
        25
  6
Continuous
 62
         5
100
AcDbCircle
 10
16.1842676661
 20
22.1208582807
 30
0.0
 40
0.25
100
AcDbArc
 50
-164.4706398968
 51
15.5293601032
  0
ARC
  5
10D
102
{ACAD_REACTORS
330
118
102
}
100
AcDbEntity
  8
Z0_BOTCOMP
370
        25
  6
Continuous
 62
         4
100
AcDbCircle
 10
16.2283412023
 20
23.3049008
 30
0.0
 40
0.285
100
AcDbArc
 50
90.0
 51
164.5679286494
  0
ARC
  5
10E
102
{ACAD_REACTORS
330
118
102
}
100
AcDbEntity
  8
Z0_BOTCOMP
370
        25
  6
Continuous
 62
         4
100
AcDbCircle
 10
16.2283412023
 20
23.3049008
 30
0.0
 40
0.285
100
AcDbArc
 50
-150.0
 51
-75.4320713506
  0
ARC
  5
10F
102
{ACAD_REACTORS
330
118
102
}
100
AcDbEntity
  8
Z0_BOTCOMP
370
        25
  6
Continuous
 62
         4
100
AcDbCircle
 10
16.2283412023
 20
23.3049008
 30
0.0
 40
0.285
100
AcDbArc
 50
-30.0
 51
44.5679286494
  0
LINE
  5
110
102
{ACAD_REACTORS
330
118
102
}
100
AcDbEntity
  8
Z0_BOTCOMP
370
        25
  6
Continuous
 62
         4
100
AcDbLine
 10
15.9815239622
 20
23.1624008
 30
0.0
 11
16.0551361215
 21
23.2049008
 31
0.0
  0
LINE
  5
111
102
{ACAD_REACTORS
330
118
102
}
100
AcDbEntity
  8
Z0_BOTCOMP
370
        25
  6
Continuous
 62
         4
100
AcDbLine
 10
16.0551361215
 20
23.2049008
 30
0.0
 11
15.953616419
 21
23.3807380827
 31
0.0
  0
LINE
  5
112
102
{ACAD_REACTORS
330
118
102
}
100
AcDbEntity
  8
Z0_BOTCOMP
370
        25
  6
Continuous
 62
         4
100
AcDbLine
 10
16.4751584423
 20
23.1624008
 30
0.0
 11
16.401546283
 21
23.2049008
 31
0.0
  0
LINE
  5
113
102
{ACAD_REACTORS
330
118
102
}
100
AcDbEntity
  8
Z0_BOTCOMP
370
        25
  6
Continuous
 62
         4
100
AcDbLine
 10
16.401546283
 20
23.2049008
 30
0.0
 11
16.3000265805
 21
23.0290635173
 31
0.0
  0
LINE
  5
114
102
{ACAD_REACTORS
330
118
102
}
100
AcDbEntity
  8
Z0_BOTCOMP
370
        25
  6
Continuous
 62
         4
100
AcDbLine
 10
16.2283412023
 20
23.5049008
 30
0.0
 11
16.4313806073
 21
23.5049008
 31
0.0
  0
LINE
  5
115
102
{ACAD_REACTORS
330
118
102
}
100
AcDbEntity
  8
Z0_BOTCOMP
370
        25
  6
Continuous
 62
         4
100
AcDbLine
 10
16.2283412023
 20
23.5899008
 30
0.0
 11
16.2283412023
 21
23.5049008
 31
0.0
  0
CIRCLE
  5
116
102
{ACAD_REACTORS
330
118
102
}
100
AcDbEntity
  8
Z0_BOTCOMP
370
        25
  6
Continuous
 62
         4
100
AcDbCircle
 10
16.2283412023
 20
23.3049008
 30
0.0
 40
0.059
  0
CIRCLE
  5
117
102
{ACAD_REACTORS
330
118
102
}
100
AcDbEntity
  8
Z0_BOTCOMP
370
        25
  6
Continuous
 62
         4
100
AcDbCircle
 10
16.2283412023
 20
23.3049008
 30
0.0
 40
0.085
  0
CIRCLE
  5
119
100
AcDbEntity
  8
Z0_TOPCOMP
370
        25
  6
Continuous
 62
         6
100
AcDbCircle
 10
16.2283412023
 20
23.3049008
 30
0.0
 40
0.35
  0
CIRCLE
  5
11A
102
{ACAD_REACTORS
330
11C
102
}
100
AcDbEntity
  8
Z0_RUBBER
370
        25
  6
Continuous
 62
         2
100
AcDbCircle
 10
16.2283412023
 20
23.3049008
 30
0.0
 40
0.4
  0
CIRCLE
  5
11B
102
{ACAD_REACTORS
330
11C
102
}
100
AcDbEntity
  8
Z0_RUBBER
370
        25
  6
Continuous
 62
         2
100
AcDbCircle
 10
16.2283412023
 20
23.3049008
 30
0.0
 40
0.215
  0
CIRCLE
  5
11D
100
AcDbEntity
  8
Z0_CUT500
370
        25
  6
Continuous
 62
         5
100
AcDbCircle
 10
16.6664528604
 20
21.7283897333
 30
0.0
 40
0.0825
  0
CIRCLE
  5
11E
100
AcDbEntity
  8
Z0_CUT500
370
        25
  6
Continuous
 62
         5
100
AcDbCircle
 10
16.2283412023
 20
23.3049008
 30
0.0
 40
0.0825
  0
ARC
  5
11F
102
{ACAD_REACTORS
330
123
102
}
100
AcDbEntity
  8
Z0_CUT500
370
        25
  6
Continuous
 62
         5
100
AcDbCircle
 10
16.4550467386
 20
21.1465305856
 30
0.0
 40
0.25
100
AcDbArc
 50
15.5293601032
 51
-164.4706398969
  0
LINE
  5
120
102
{ACAD_REACTORS
330
123
102
}
100
AcDbEntity
  8
Z0_CUT500
370
        25
  6
Continuous
 62
         5
100
AcDbLine
 10
16.695920085
 20
21.2134636192
 30
0.0
 11
16.8632526691
 21
20.6112802532
 31
0.0
  0
LINE
  5
121
102
{ACAD_REACTORS
330
123
102
}
100
AcDbEntity
  8
Z0_CUT500
370
        25
  6
Continuous
 62
         5
100
AcDbLine
 10
16.3815059763
 20
20.4774141859
 30
0.0
 11
16.2141733922
 21
21.079597552
 31
0.0
  0
ARC
  5
122
102
{ACAD_REACTORS
330
123
102
}
100
AcDbEntity
  8
Z0_CUT500
370
        25
  6
Continuous
 62
         5
100
AcDbCircle
 10
16.6223793227
 20
20.5443472196
 30
0.0
 40
0.25
100
AcDbArc
 50
-164.4706398968
 51
15.5293601032
  0
ARC
  5
124
102
{ACAD_REACTORS
330
12F
102
}
100
AcDbEntity
  8
Z0_BOTCOMP
370
        25
  6
Continuous
 62
         4
100
AcDbCircle
 10
17.1025845018
 20
20.1590041954
 30
0.0
 40
0.285
100
AcDbArc
 50
90.0
 51
164.5679286494
  0
ARC
  5
125
102
{ACAD_REACTORS
330
12F
102
}
100
AcDbEntity
  8
Z0_BOTCOMP
370
        25
  6
Continuous
 62
         4
100
AcDbCircle
 10
17.1025845018
 20
20.1590041954
 30
0.0
 40
0.285
100
AcDbArc
 50
-150.0
 51
-75.4320713506
  0
ARC
  5
126
102
{ACAD_REACTORS
330
12F
102
}
100
AcDbEntity
  8
Z0_BOTCOMP
370
        25
  6
Continuous
 62
         4
100
AcDbCircle
 10
17.1025845018
 20
20.1590041954
 30
0.0
 40
0.285
100
AcDbArc
 50
-30.0
 51
44.5679286494
  0
LINE
  5
127
102
{ACAD_REACTORS
330
12F
102
}
100
AcDbEntity
  8
Z0_BOTCOMP
370
        25
  6
Continuous
 62
         4
100
AcDbLine
 10
16.8557672617
 20
20.0165041954
 30
0.0
 11
16.929379421
 21
20.0590041954
 31
0.0
  0
LINE
  5
128
102
{ACAD_REACTORS
330
12F
102
}
100
AcDbEntity
  8
Z0_BOTCOMP
370
        25
  6
Continuous
 62
         4
100
AcDbLine
 10
16.929379421
 20
20.0590041954
 30
0.0
 11
16.8278597185
 21
20.2348414781
 31
0.0
  0
LINE
  5
129
102
{ACAD_REACTORS
330
12F
102
}
100
AcDbEntity
  8
Z0_BOTCOMP
370
        25
  6
Continuous
 62
         4
100
AcDbLine
 10
17.3494017419
 20
20.0165041954
 30
0.0
 11
17.2757895825
 21
20.0590041954
 31
0.0
  0
LINE
  5
12A
102
{ACAD_REACTORS
330
12F
102
}
100
AcDbEntity
  8
Z0_BOTCOMP
370
        25
  6
Continuous
 62
         4
100
AcDbLine
 10
17.2757895825
 20
20.0590041954
 30
0.0
 11
17.17426988
 21
19.8831669126
 31
0.0
  0
LINE
  5
12B
102
{ACAD_REACTORS
330
12F
102
}
100
AcDbEntity
  8
Z0_BOTCOMP
370
        25
  6
Continuous
 62
         4
100
AcDbLine
 10
17.1025845018
 20
20.3590041954
 30
0.0
 11
17.3056239068
 21
20.3590041954
 31
0.0
  0
LINE
  5
12C
102
{ACAD_REACTORS
330
12F
102
}
100
AcDbEntity
  8
Z0_BOTCOMP
370
        25
  6
Continuous
 62
         4
100
AcDbLine
 10
17.1025845018
 20
20.4440041954
 30
0.0
 11
17.1025845018
 21
20.3590041954
 31
0.0
  0
CIRCLE
  5
12D
102
{ACAD_REACTORS
330
12F
102
}
100
AcDbEntity
  8
Z0_BOTCOMP
370
        25
  6
Continuous
 62
         4
100
AcDbCircle
 10
17.1025845018
 20
20.1590041954
 30
0.0
 40
0.059
  0
CIRCLE
  5
12E
102
{ACAD_REACTORS
330
12F
102
}
100
AcDbEntity
  8
Z0_BOTCOMP
370
        25
  6
Continuous
 62
         4
100
AcDbCircle
 10
17.1025845018
 20
20.1590041954
 30
0.0
 40
0.085
  0
CIRCLE
  5
130
100
AcDbEntity
  8
Z0_TOPCOMP
370
        25
  6
Continuous
 62
         6
100
AcDbCircle
 10
17.1025845018
 20
20.1590041954
 30
0.0
 40
0.35
  0
ARC
  5
131
102
{ACAD_REACTORS
330
13C
102
}
100
AcDbEntity
  8
Z0_BOTCOMP
370
        25
  6
Continuous
 62
         4
100
AcDbCircle
 10
16.6664528604
 20
21.7283897333
 30
0.0
 40
0.285
100
AcDbArc
 50
90.0
 51
164.5679286494
  0
ARC
  5
132
102
{ACAD_REACTORS
330
13C
102
}
100
AcDbEntity
  8
Z0_BOTCOMP
370
        25
  6
Continuous
 62
         4
100
AcDbCircle
 10
16.6664528604
 20
21.7283897333
 30
0.0
 40
0.285
100
AcDbArc
 50
-150.0
 51
-75.4320713506
  0
ARC
  5
133
102
{ACAD_REACTORS
330
13C
102
}
100
AcDbEntity
  8
Z0_BOTCOMP
370
        25
  6
Continuous
 62
         4
100
AcDbCircle
 10
16.6664528604
 20
21.7283897333
 30
0.0
 40
0.285
100
AcDbArc
 50
-30.0
 51
44.5679286494
  0
LINE
  5
134
102
{ACAD_REACTORS
330
13C
102
}
100
AcDbEntity
  8
Z0_BOTCOMP
370
        25
  6
Continuous
 62
         4
100
AcDbLine
 10
16.4196356203
 20
21.5858897333
 30
0.0
 11
16.4932477796
 21
21.6283897333
 31
0.0
  0
LINE
  5
135
102
{ACAD_REACTORS
330
13C
102
}
100
AcDbEntity
  8
Z0_BOTCOMP
370
        25
  6
Continuous
 62
         4
100
AcDbLine
 10
16.4932477796
 20
21.6283897333
 30
0.0
 11
16.3917280771
 21
21.804227016
 31
0.0
  0
LINE
  5
136
102
{ACAD_REACTORS
330
13C
102
}
100
AcDbEntity
  8
Z0_BOTCOMP
370
        25
  6
Continuous
 62
         4
100
AcDbLine
 10
16.9132701005
 20
21.5858897333
 30
0.0
 11
16.8396579411
 21
21.6283897333
 31
0.0
  0
LINE
  5
137
102
{ACAD_REACTORS
330
13C
102
}
100
AcDbEntity
  8
Z0_BOTCOMP
370
        25
  6
Continuous
 62
         4
100
AcDbLine
 10
16.8396579411
 20
21.6283897333
 30
0.0
 11
16.7381382386
 21
21.4525524506
 31
0.0
  0
LINE
  5
138
102
{ACAD_REACTORS
330
13C
102
}
100
AcDbEntity
  8
Z0_BOTCOMP
370
        25
  6
Continuous
 62
         4
100
AcDbLine
 10
16.6664528604
 20
21.9283897333
 30
0.0
 11
16.8694922654
 21
21.9283897333
 31
0.0
  0
LINE
  5
139
102
{ACAD_REACTORS
330
13C
102
}
100
AcDbEntity
  8
Z0_BOTCOMP
370
        25
  6
Continuous
 62
         4
100
AcDbLine
 10
16.6664528604
 20
22.0133897333
 30
0.0
 11
16.6664528604
 21
21.9283897333
 31
0.0
  0
CIRCLE
  5
13A
102
{ACAD_REACTORS
330
13C
102
}
100
AcDbEntity
  8
Z0_BOTCOMP
370
        25
  6
Continuous
 62
         4
100
AcDbCircle
 10
16.6664528604
 20
21.7283897333
 30
0.0
 40
0.059
  0
CIRCLE
  5
13B
102
{ACAD_REACTORS
330
13C
102
}
100
AcDbEntity
  8
Z0_BOTCOMP
370
        25
  6
Continuous
 62
         4
100
AcDbCircle
 10
16.6664528604
 20
21.7283897333
 30
0.0
 40
0.085
  0
CIRCLE
  5
13D
100
AcDbEntity
  8
Z0_TOPCOMP
370
        25
  6
Continuous
 62
         6
100
AcDbCircle
 10
16.6664528604
 20
21.7283897333
 30
0.0
 40
0.35
  0
CIRCLE
  5
13E
102
{ACAD_REACTORS
330
140
102
}
100
AcDbEntity
  8
Z0_RUBBER
370
        25
  6
Continuous
 62
         2
100
AcDbCircle
 10
16.6664528604
 20
21.7283897333
 30
0.0
 40
0.4
  0
CIRCLE
  5
13F
102
{ACAD_REACTORS
330
140
102
}
100
AcDbEntity
  8
Z0_RUBBER
370
        25
  6
Continuous
 62
         2
100
AcDbCircle
 10
16.6664528604
 20
21.7283897333
 30
0.0
 40
0.215
  0
LINE
  5
141
102
{ACAD_REACTORS
330
155
102
}
100
AcDbEntity
  8
Z0_TOPCOMP
370
         5
  6
Continuous
 62
         6
100
AcDbLine
 10
16.3346399208
 20
20.9962514671
 30
0.0
 11
16.7682119443
 21
21.1167309277
 31
0.0
  0
LINE
  5
142
102
{ACAD_REACTORS
330
155
102
}
100
AcDbEntity
  8
Z0_TOPCOMP
370
         5
  6
Continuous
 62
         6
100
AcDbLine
 10
16.8753047982
 20
20.7313335734
 30
0.0
 11
16.4417327746
 21
20.6108541129
 31
0.0
  0
LINE
  5
143
102
{ACAD_REACTORS
330
155
102
}
100
AcDbEntity
  8
Z0_TOPCOMP
370
         5
  6
Continuous
 62
         6
100
AcDbLine
 10
16.350669619
 20
21.3120726962
 30
0.0
 11
16.2543202804
 21
21.2852994828
 31
0.0
  0
LINE
  5
144
102
{ACAD_REACTORS
330
155
102
}
100
AcDbEntity
  8
Z0_TOPCOMP
370
         5
  6
Continuous
 62
         6
100
AcDbLine
 10
16.6184017536
 20
20.3485793106
 30
0.0
 11
16.350669619
 21
21.3120726962
 31
0.0
  0
LINE
  5
145
102
{ACAD_REACTORS
330
155
102
}
100
AcDbEntity
  8
Z0_TOPCOMP
370
         5
  6
Continuous
 62
         6
100
AcDbLine
 10
16.2543202804
 20
21.2852994828
 30
0.0
 11
16.522052415
 21
20.3218060972
 31
0.0
  0
LINE
  5
146
102
{ACAD_REACTORS
330
155
102
}
100
AcDbEntity
  8
Z0_TOPCOMP
370
         5
  6
Continuous
 62
         6
100
AcDbLine
 10
16.3881328635
 20
21.3873509654
 30
0.0
 11
16.3881328635
 21
21.3873509654
 31
0.0
  0
LINE
  5
147
102
{ACAD_REACTORS
330
155
102
}
100
AcDbEntity
  8
Z0_TOPCOMP
370
         5
  6
Continuous
 62
         6
100
AcDbLine
 10
16.6893315149
 20
20.3034209066
 30
0.0
 11
16.6893315149
 21
20.3034209066
 31
0.0
  0
LINE
  5
148
102
{ACAD_REACTORS
330
155
102
}
100
AcDbEntity
  8
Z0_TOPCOMP
370
         5
  6
Continuous
 62
         6
100
AcDbLine
 10
16.522052415
 20
20.3218060972
 30
0.0
 11
16.6184017536
 21
20.3485793106
 31
0.0
  0
LINE
  5
149
102
{ACAD_REACTORS
330
155
102
}
100
AcDbEntity
  8
Z0_TOPCOMP
370
         5
  6
Continuous
 62
         6
100
AcDbLine
 10
16.4417327746
 20
20.6108541129
 30
0.0
 11
16.3346399208
 21
20.9962514671
 31
0.0
  0
LINE
  5
14A
102
{ACAD_REACTORS
330
155
102
}
100
AcDbEntity
  8
Z0_TOPCOMP
370
         5
  6
Continuous
 62
         6
100
AcDbLine
 10
16.5219989308
 20
20.9056042726
 30
0.0
 11
16.5219989308
 21
20.9056042726
 31
0.0
  0
LINE
  5
14B
102
{ACAD_REACTORS
330
155
102
}
100
AcDbEntity
  8
Z0_TOPCOMP
370
         5
  6
Continuous
 62
         6
100
AcDbLine
 10
16.7923078364
 20
21.030016523
 30
0.0
 11
16.888657175
 21
21.0567897364
 31
0.0
  0
LINE
  5
14C
102
{ACAD_REACTORS
330
155
102
}
100
AcDbEntity
  8
Z0_TOPCOMP
370
         5
  6
Continuous
 62
         6
100
AcDbLine
 10
16.9475582446
 20
20.8448211916
 30
0.0
 11
16.8512089061
 21
20.8180479781
 31
0.0
  0
LINE
  5
14D
102
{ACAD_REACTORS
330
155
102
}
100
AcDbEntity
  8
Z0_TOPCOMP
370
         5
  6
Continuous
 62
         6
100
AcDbLine
 10
16.888657175
 20
21.0567897364
 30
0.0
 11
16.9475582446
 21
20.8448211916
 31
0.0
  0
LINE
  5
14E
102
{ACAD_REACTORS
330
155
102
}
100
AcDbEntity
  8
Z0_TOPCOMP
370
         5
  6
Continuous
 62
         6
100
AcDbLine
 10
16.6658407721
 20
21.0882843884
 30
0.0
 11
16.7260591087
 21
21.1050176468
 31
0.0
  0
LINE
  5
14F
102
{ACAD_REACTORS
330
155
102
}
100
AcDbEntity
  8
Z0_TOPCOMP
370
         5
  6
Continuous
 62
         6
100
AcDbLine
 10
16.7729336259
 20
20.7028870341
 30
0.0
 11
16.6658407721
 21
21.0882843884
 31
0.0
  0
LINE
  5
150
102
{ACAD_REACTORS
330
155
102
}
100
AcDbEntity
  8
Z0_TOPCOMP
370
         5
  6
Continuous
 62
         6
100
AcDbLine
 10
16.8331519625
 20
20.7196202925
 30
0.0
 11
16.7729336259
 21
20.7028870341
 31
0.0
  0
LINE
  5
151
102
{ACAD_REACTORS
330
155
102
}
100
AcDbEntity
  8
Z0_TOPCOMP
370
         5
  6
Continuous
 62
         6
100
AcDbLine
 10
16.7260591087
 20
21.1050176468
 30
0.0
 11
16.8331519625
 21
20.7196202925
 31
0.0
  0
LINE
  5
152
102
{ACAD_REACTORS
330
155
102
}
100
AcDbEntity
  8
Z0_TOPCOMP
370
         5
  6
Continuous
 62
         6
100
AcDbLine
 10
16.8512089061
 20
20.8180479781
 30
0.0
 11
16.7923078364
 21
21.030016523
 31
0.0
  0
LINE
  5
153
102
{ACAD_REACTORS
330
155
102
}
100
AcDbEntity
  8
Z0_TOPCOMP
370
         5
  6
Continuous
 62
         6
100
AcDbLine
 10
16.7682119443
 20
21.1167309277
 30
0.0
 11
16.8753047982
 21
20.7313335734
 31
0.0
  0
LINE
  5
154
102
{ACAD_REACTORS
330
155
102
}
100
AcDbEntity
  8
Z0_TOPCOMP
370
         5
  6
Continuous
 62
         6
100
AcDbLine
 10
16.6893315149
 20
20.3034209066
 30
0.0
 11
16.6893315149
 21
20.3034209066
 31
0.0
  0
CIRCLE
  5
156
100
AcDbEntity
  8
Z0_CUT500
370
        25
  6
Continuous
 62
         5
100
AcDbCircle
 10
17.1025845018
 20
20.1590041954
 30
0.0
 40
0.0825
  0
CIRCLE
  5
157
102
{ACAD_REACTORS
330
159
102
}
100
AcDbEntity
  8
Z0_RUBBER
370
        25
  6
Continuous
 62
         2
100
AcDbCircle
 10
1.7084695274
 20
21.7283897333
 30
0.0
 40
0.4
  0
CIRCLE
  5
158
102
{ACAD_REACTORS
330
159
102
}
100
AcDbEntity
  8
Z0_RUBBER
370
        25
  6
Continuous
 62
         2
100
AcDbCircle
 10
1.7084695274
 20
21.7283897333
 30
0.0
 40
0.215
  0
ENDSEC
  0
SECTION
  2
OBJECTS
  0
DICTIONARY
  5
19
100
AcDbDictionary
280
         0
281
         1
  3
ACAD_GROUP
350
1A
  3
ACAD_MLINESTYLE
350
1B
  3
ACAD_LAYOUT
350
1E
  3
ACAD_PLOTSETTINGS
350
22
  3
ACAD_PLOTSTYLENAME
350
1F
  3
ACAD_WIPEOUT_VARS
350
23
  0
DICTIONARY
  5
1A
102
{ACAD_REACTORS
330
19
102
}
100
AcDbDictionary
280
         0
281
         1
  3
VELLUMGRP1
350
6E
  3
VELLUMGRP2
350
7B
  3
VELLUMGRP3
350
80
  3
VELLUMGRP4
350
84
  3
VELLUMGRP5
350
90
  3
VELLUMGRP6
350
94
  3
VELLUMGRP7
350
A1
  3
VELLUMGRP8
350
A6
  3
VELLUMGRP9
350
BB
  3
VELLUMGRP10
350
D0
  3
VELLUMGRP11
350
D5
  3
VELLUMGRP12
350
D8
  3
VELLUMGRP13
350
DD
  3
VELLUMGRP14
350
F2
  3
VELLUMGRP15
350
107
  3
VELLUMGRP16
350
10C
  3
VELLUMGRP17
350
118
  3
VELLUMGRP18
350
11C
  3
VELLUMGRP19
350
123
  3
VELLUMGRP20
350
12F
  3
VELLUMGRP21
350
13C
  3
VELLUMGRP22
350
140
  3
VELLUMGRP23
350
155
  3
VELLUMGRP24
350
159
  0
DICTIONARY
  5
1B
102
{ACAD_REACTORS
330
19
102
}
100
AcDbDictionary
280
         0
281
         1
  3
Standard
350
1C
  0
MLINESTYLE
  5
1C
102
{ACAD_REACTORS
330
1B
102
}
100
AcDbMlineStyle
  2
Standard
 70
         0
  3

 62
         0
 51
90.0
 52
90.0
 71
         2
 49
0.5
 62
       256
  6
BYLAYER
 49
-0.5
 62
       256
  6
BYLAYER
  0
ACDBDICTIONARYWDFLT
  5
1F
102
{ACAD_REACTORS
330
19
102
}
100
AcDbDictionary
281
         1
  3
Normal
350
1D
100
AcDbDictionaryWithDefault
340
1D
  0
ACDBPLACEHOLDER
  5
1D
102
{ACAD_REACTORS
330
1F
102
}
  0
LAYOUT
  5
20
102
{ACAD_REACTORS
330
1E
102
}
100
AcDbPlotSettings
  1

  2

  4

  6

 40
0.0
 41
0.0
 42
0.0
 43
0.0
 44
0.0
 45
0.0
 46
0.0
 47
0.0
 48
0.0
 49
0.0
140
0.0
141
0.0
142
1.0
143
1.0
 70
      1024
 72
         0
 73
         0
 74
         0
  7

 75
         0
147
1.0
148
0.0
149
0.0
100
AcDbLayout
  1
Model
 70
         0
 71
         0
 10
0.0
 20
0.0
 11
0.0
 21
0.0
 12
0.0
 22
0.0
 32
0.0
 14
0.0
 24
0.0
 34
0.0
 15
0.0
 25
0.0
 35
0.0
146
0.0
 13
0.0
 23
0.0
 33
0.0
 16
0.0
 26
0.0
 36
0.0
 17
0.0
 27
0.0
 37
0.0
 76
         0
330
A
331
0
345
0
346
0
  0
LAYOUT
  5
21
102
{ACAD_REACTORS
330
1E
102
}
100
AcDbPlotSettings
  1

  2

  4

  6

 40
0.0
 41
0.0
 42
0.0
 43
0.0
 44
0.0
 45
0.0
 46
0.0
 47
0.0
 48
0.0
 49
0.0
140
0.0
141
0.0
142
1.0
143
1.0
 70
         0
 72
         0
 73
         0
 74
         0
  7

 75
         0
147
1.0
148
0.0
149
0.0
100
AcDbLayout
  1
Layout1
 70
         0
 71
         0
 10
0.0
 20
0.0
 11
0.0
 21
0.0
 12
0.0
 22
0.0
 32
0.0
 14
0.0
 24
0.0
 34
0.0
 15
0.0
 25
0.0
 35
0.0
146
0.0
 13
0.0
 23
0.0
 33
0.0
 16
0.0
 26
0.0
 36
0.0
 17
0.0
 27
0.0
 37
0.0
 76
         0
330
B
331
0
345
0
346
0
  0
DICTIONARY
  5
1E
102
{ACAD_REACTORS
330
19
102
}
100
AcDbDictionary
280
         0
281
         1
  3
Layout1
350
21
  3
Model
350
20
  0
DICTIONARY
  5
22
102
{ACAD_REACTORS
330
19
102
}
100
AcDbDictionary
280
         0
281
         1
  0
WIPEOUTVARIABLES
  5
23
100
AcDbWipeoutVariables
 70
         1
  0
GROUP
  5
6E
102
{ACAD_XDICTIONARY
360
5CEB210060EB2100
102
}
102
{ACAD_REACTORS
330
1A
102
}
100
AcDbGroup
300
This is Vellum Group Number 1
 70
         0
 71
         1
340
5A
340
5B
340
5C
340
5D
340
5E
340
5F
340
60
340
61
340
62
340
63
340
64
340
65
340
66
340
67
340
68
340
69
340
6A
340
6B
340
6C
340
6D
  0
GROUP
  5
7B
102
{ACAD_XDICTIONARY
360
5CEB210060EB2100
102
}
102
{ACAD_REACTORS
330
1A
102
}
100
AcDbGroup
300
This is Vellum Group Number 2
 70
         0
 71
         1
340
70
340
71
340
72
340
73
340
74
340
75
340
76
340
77
340
78
340
79
340
7A
  0
GROUP
  5
80
102
{ACAD_XDICTIONARY
360
5CEB210060EB2100
102
}
102
{ACAD_REACTORS
330
1A
102
}
100
AcDbGroup
300
This is Vellum Group Number 3
 70
         0
 71
         1
340
7C
340
7D
340
7E
340
7F
  0
GROUP
  5
84
102
{ACAD_XDICTIONARY
360
5CEB210060EB2100
102
}
102
{ACAD_REACTORS
330
1A
102
}
100
AcDbGroup
300
This is Vellum Group Number 4
 70
         0
 71
         1
340
82
340
83
  0
GROUP
  5
90
102
{ACAD_XDICTIONARY
360
3207917C60EB2100
102
}
102
{ACAD_REACTORS
330
1A
102
}
100
AcDbGroup
300
This is Vellum Group Number 5
 70
         0
 71
         1
340
85
340
86
340
87
340
88
340
89
340
8A
340
8B
340
8C
340
8D
340
8E
340
8F
  0
GROUP
  5
94
102
{ACAD_XDICTIONARY
360
3207917C60EB2100
102
}
102
{ACAD_REACTORS
330
1A
102
}
100
AcDbGroup
300
This is Vellum Group Number 6
 70
         0
 71
         1
340
92
340
93
  0
GROUP
  5
A1
102
{ACAD_XDICTIONARY
360
3207917C60EB2100
102
}
102
{ACAD_REACTORS
330
1A
102
}
100
AcDbGroup
300
This is Vellum Group Number 7
 70
         0
 71
         1
340
96
340
97
340
98
340
99
340
9A
340
9B
340
9C
340
9D
340
9E
340
9F
340
A0
  0
GROUP
  5
A6
102
{ACAD_XDICTIONARY
360
3207917C60EB2100
102
}
102
{ACAD_REACTORS
330
1A
102
}
100
AcDbGroup
300
This is Vellum Group Number 8
 70
         0
 71
         1
340
A2
340
A3
340
A4
340
A5
  0
GROUP
  5
BB
102
{ACAD_XDICTIONARY
360
3207917C60EB2100
102
}
102
{ACAD_REACTORS
330
1A
102
}
100
AcDbGroup
300
This is Vellum Group Number 9
 70
         0
 71
         1
340
A7
340
A8
340
A9
340
AA
340
AB
340
AC
340
AD
340
AE
340
AF
340
B0
340
B1
340
B2
340
B3
340
B4
340
B5
340
B6
340
B7
340
B8
340
B9
340
BA
  0
GROUP
  5
D0
102
{ACAD_XDICTIONARY
360
3207917C60EB2100
102
}
102
{ACAD_REACTORS
330
1A
102
}
100
AcDbGroup
300
This is Vellum Group Number 10
 70
         0
 71
         1
340
BC
340
BD
340
BE
340
BF
340
C0
340
C1
340
C2
340
C3
340
C4
340
C5
340
C6
340
C7
340
C8
340
C9
340
CA
340
CB
340
CC
340
CD
340
CE
340
CF
  0
GROUP
  5
D5
102
{ACAD_XDICTIONARY
360
3207917C60EB2100
102
}
102
{ACAD_REACTORS
330
1A
102
}
100
AcDbGroup
300
This is Vellum Group Number 11
 70
         0
 71
         1
340
D1
340
D2
340
D3
340
D4
  0
GROUP
  5
D8
102
{ACAD_XDICTIONARY
360
3207917C60EB2100
102
}
102
{ACAD_REACTORS
330
1A
102
}
100
AcDbGroup
300
This is Vellum Group Number 12
 70
         0
 71
         1
340
D6
340
D7
  0
GROUP
  5
DD
102
{ACAD_XDICTIONARY
360
3207917C60EB2100
102
}
102
{ACAD_REACTORS
330
1A
102
}
100
AcDbGroup
300
This is Vellum Group Number 13
 70
         0
 71
         1
340
D9
340
DA
340
DB
340
DC
  0
GROUP
  5
F2
102
{ACAD_XDICTIONARY
360
3207917C60EB2100
102
}
102
{ACAD_REACTORS
330
1A
102
}
100
AcDbGroup
300
This is Vellum Group Number 14
 70
         0
 71
         1
340
DE
340
DF
340
E0
340
E1
340
E2
340
E3
340
E4
340
E5
340
E6
340
E7
340
E8
340
E9
340
EA
340
EB
340
EC
340
ED
340
EE
340
EF
340
F0
340
F1
  0
GROUP
  5
107
102
{ACAD_XDICTIONARY
360
3207917C60EB2100
102
}
102
{ACAD_REACTORS
330
1A
102
}
100
AcDbGroup
300
This is Vellum Group Number 15
 70
         0
 71
         1
340
F3
340
F4
340
F5
340
F6
340
F7
340
F8
340
F9
340
FA
340
FB
340
FC
340
FD
340
FE
340
FF
340
100
340
101
340
102
340
103
340
104
340
105
340
106
  0
GROUP
  5
10C
102
{ACAD_XDICTIONARY
360
3207917C60EB2100
102
}
102
{ACAD_REACTORS
330
1A
102
}
100
AcDbGroup
300
This is Vellum Group Number 16
 70
         0
 71
         1
340
108
340
109
340
10A
340
10B
  0
GROUP
  5
118
102
{ACAD_XDICTIONARY
360
3207917C60EB2100
102
}
102
{ACAD_REACTORS
330
1A
102
}
100
AcDbGroup
300
This is Vellum Group Number 17
 70
         0
 71
         1
340
10D
340
10E
340
10F
340
110
340
111
340
112
340
113
340
114
340
115
340
116
340
117
  0
GROUP
  5
11C
102
{ACAD_XDICTIONARY
360
3207917C60EB2100
102
}
102
{ACAD_REACTORS
330
1A
102
}
100
AcDbGroup
300
This is Vellum Group Number 18
 70
         0
 71
         1
340
11A
340
11B
  0
GROUP
  5
123
102
{ACAD_XDICTIONARY
360
3207917C60EB2100
102
}
102
{ACAD_REACTORS
330
1A
102
}
100
AcDbGroup
300
This is Vellum Group Number 19
 70
         0
 71
         1
340
11F
340
120
340
121
340
122
  0
GROUP
  5
12F
102
{ACAD_XDICTIONARY
360
3207917C60EB2100
102
}
102
{ACAD_REACTORS
330
1A
102
}
100
AcDbGroup
300
This is Vellum Group Number 20
 70
         0
 71
         1
340
124
340
125
340
126
340
127
340
128
340
129
340
12A
340
12B
340
12C
340
12D
340
12E
  0
GROUP
  5
13C
102
{ACAD_XDICTIONARY
360
3207917C60EB2100
102
}
102
{ACAD_REACTORS
330
1A
102
}
100
AcDbGroup
300
This is Vellum Group Number 21
 70
         0
 71
         1
340
131
340
132
340
133
340
134
340
135
340
136
340
137
340
138
340
139
340
13A
340
13B
  0
GROUP
  5
140
102
{ACAD_XDICTIONARY
360
3207917C60EB2100
102
}
102
{ACAD_REACTORS
330
1A
102
}
100
AcDbGroup
300
This is Vellum Group Number 22
 70
         0
 71
         1
340
13E
340
13F
  0
GROUP
  5
155
102
{ACAD_XDICTIONARY
360
3207917C60EB2100
102
}
102
{ACAD_REACTORS
330
1A
102
}
100
AcDbGroup
300
This is Vellum Group Number 23
 70
         0
 71
         1
340
141
340
142
340
143
340
144
340
145
340
146
340
147
340
148
340
149
340
14A
340
14B
340
14C
340
14D
340
14E
340
14F
340
150
340
151
340
152
340
153
340
154
  0
GROUP
  5
159
102
{ACAD_XDICTIONARY
360
3207917C60EB2100
102
}
102
{ACAD_REACTORS
330
1A
102
}
100
AcDbGroup
300
This is Vellum Group Number 24
 70
         0
 71
         1
340
157
340
158
  0
ENDSEC
  0
EOF
