  0
SECTION
  2
HEADER
  9
$ACADVER
  1
AC1015
  9
$ACADMAINTVER
 70
         6
  9
$DWGCODEPAGE
  3
ANSI_1252
  9
$INSBASE
 10
0.0
 20
0.0
 30
0.0
  9
$EXTMIN
 10
-0.93969262
 20
-0.98480775
 30
0.0
  9
$EXTMAX
 10
13.0
 20
12.98480775
 30
0.0
  9
$LIMMIN
 10
0.0
 20
0.0
  9
$LIMMAX
 10
0.0
 20
0.0
  9
$ORTHOMODE
 70
         0
  9
$REGENMODE
 70
         1
  9
$FILLMODE
 70
         1
  9
$QTEXTMODE
 70
         0
  9
$MIRRTEXT
 70
         1
  9
$LTSCALE
 40
5.0
  9
$ATTMODE
 70
         1
  9
$TEXTSIZE
 40
0.2
  9
$TRACEWID
 40
0.05
  9
$TEXTSTYLE
  7
Standard
  9
$CLAYER
  8
0
  9
$CELTYPE
  6
Continuous
  9
$CECOLOR
 62
       256
  9
$CELTSCALE
 40
1.0
  9
$DISPSILH
 70
         0
  9
$DIMSCALE
 40
1.0
  9
$DIMASZ
 40
0.18
  9
$DIMEXO
 40
0.0625
  9
$DIMDLI
 40
0.38
  9
$DIMRND
 40
0.0
  9
$DIMDLE
 40
0.0
  9
$DIMEXE
 40
0.18
  9
$DIMTP
 40
0.0
  9
$DIMTM
 40
0.0
  9
$DIMTXT
 40
0.18
  9
$DIMCEN
 40
0.09
  9
$DIMTSZ
 40
0.0
  9
$DIMTOL
 70
         0
  9
$DIMLIM
 70
         0
  9
$DIMTIH
 70
         1
  9
$DIMTOH
 70
         1
  9
$DIMSE1
 70
         0
  9
$DIMSE2
 70
         0
  9
$DIMTAD
 70
         0
  9
$DIMZIN
 70
         0
  9
$DIMBLK
  1

  9
$DIMASO
 70
         1
  9
$DIMSHO
 70
         1
  9
$DIMPOST
  1

  9
$DIMAPOST
  1

  9
$DIMALT
 70
         0
  9
$DIMALTD
 70
         2
  9
$DIMALTF
 40
25.4
  9
$DIMLFAC
 40
1.0
  9
$DIMTOFL
 70
         0
  9
$DIMTVP
 40
0.0
  9
$DIMTIX
 70
         0
  9
$DIMSOXD
 70
         0
  9
$DIMSAH
 70
         0
  9
$DIMBLK1
  1

  9
$DIMBLK2
  1

  9
$DIMSTYLE
  2
Standard
  9
$DIMCLRD
 70
         0
  9
$DIMCLRE
 70
         0
  9
$DIMCLRT
 70
         0
  9
$DIMTFAC
 40
1.0
  9
$DIMGAP
 40
0.09
  9
$DIMJUST
 70
         0
  9
$DIMSD1
 70
         0
  9
$DIMSD2
 70
         0
  9
$DIMTOLJ
 70
         1
  9
$DIMTZIN
 70
         0
  9
$DIMALTZ
 70
         0
  9
$DIMALTTZ
 70
         0
  9
$DIMUPT
 70
         0
  9
$DIMDEC
 70
         4
  9
$DIMTDEC
 70
         4
  9
$DIMALTU
 70
         2
  9
$DIMALTTD
 70
         2
  9
$DIMTXSTY
  7
Standard
  9
$DIMAUNIT
 70
         0
  9
$DIMADEC
 70
         0
  9
$DIMALTRND
 40
0.0
  9
$DIMAZIN
 70
         0
  9
$DIMDSEP
 70
         0
  9
$DIMATFIT
 70
         3
  9
$DIMFRAC
 70
         0
  9
$DIMLDRBLK
  1

  9
$DIMLUNIT
 70
         2
  9
$DIMLWD
 70
         0
  9
$DIMLWE
 70
         0
  9
$DIMTMOVE
 70
         0
  9
$LUNITS
 70
         2
  9
$LUPREC
 70
         4
  9
$SKETCHINC
 40
0.1
  9
$FILLETRAD
 40
0.0
  9
$AUNITS
 70
         0
  9
$AUPREC
 70
         0
  9
$MENU
  1
acad
  9
$ELEVATION
 40
0.0
  9
$PELEVATION
 40
0.0
  9
$THICKNESS
 40
0.0
  9
$LIMCHECK
 70
         0
  9
$CHAMFERA
 40
0.0
  9
$CHAMFERB
 40
0.0
  9
$CHAMFERC
 40
0.0
  9
$CHAMFERD
 40
0.0
  9
$SKPOLY
 70
         0
  9
$TDCREATE
 40
2460903.608067130
  9
$TDUCREATE
 40
0.000000000
  9
$TDUPDATE
 40
2460903.608067130
  9
$TDUUPDATE
 40
0.000000000
  9
$TDINDWG
 40
0.0000000000
  9
$TDUSRTIMER
 40
0.0000000000
  9
$USRTIMER
 70
         1
  9
$ANGBASE
 50
0.0
  9
$ANGDIR
 70
         0
  9
$PDMODE
 70
         0
  9
$PDSIZE
 40
0.0
  9
$PLINEWID
 40
0.0
  9
$SPLFRAME
 70
         0
  9
$SPLINETYPE
 70
         6
  9
$SPLINESEGS
 70
         8
  9
$HANDSEED
  5
D0
  9
$SURFTAB1
 70
         6
  9
$SURFTAB2
 70
         6
  9
$SURFTYPE
 70
         6
  9
$SURFU
 70
         6
  9
$SURFV
 70
         6
  9
$UCSBASE
  2

  9
$UCSNAME
  2

  9
$UCSORG
 10
0.0
 20
0.0
 30
0.0
  9
$UCSXDIR
 10
1.0
 20
0.0
 30
0.0
  9
$UCSYDIR
 10
0.0
 20
1.0
 30
0.0
  9
$UCSORTHOREF
  2

  9
$UCSORTHOVIEW
 70
         0
  9
$UCSORGTOP
 10
0.0
 20
0.0
 30
0.0
  9
$UCSORGBOTTOM
 10
0.0
 20
0.0
 30
0.0
  9
$UCSORGLEFT
 10
0.0
 20
0.0
 30
0.0
  9
$UCSORGRIGHT
 10
0.0
 20
0.0
 30
0.0
  9
$UCSORGFRONT
 10
0.0
 20
0.0
 30
0.0
  9
$UCSORGBACK
 10
0.0
 20
0.0
 30
0.0
  9
$PUCSBASE
  2

  9
$PUCSNAME
  2

  9
$PUCSORG
 10
0.0
 20
0.0
 30
0.0
  9
$PUCSXDIR
 10
1.0
 20
0.0
 30
0.0
  9
$PUCSYDIR
 10
0.0
 20
1.0
 30
0.0
  9
$PUCSORTHOREF
  2

  9
$PUCSORTHOVIEW
 70
         0
  9
$PUCSORGTOP
 10
0.0
 20
0.0
 30
0.0
  9
$PUCSORGBOTTOM
 10
0.0
 20
0.0
 30
0.0
  9
$PUCSORGLEFT
 10
0.0
 20
0.0
 30
0.0
  9
$PUCSORGRIGHT
 10
0.0
 20
0.0
 30
0.0
  9
$PUCSORGFRONT
 10
0.0
 20
0.0
 30
0.0
  9
$PUCSORGBACK
 10
0.0
 20
0.0
 30
0.0
  9
$USERI1
 70
         0
  9
$USERI2
 70
         0
  9
$USERI3
 70
         0
  9
$USERI4
 70
         0
  9
$USERI5
 70
         0
  9
$USERR1
 40
0.0
  9
$USERR2
 40
0.0
  9
$USERR3
 40
0.0
  9
$USERR4
 40
0.0
  9
$USERR5
 40
0.0
  9
$WORLDVIEW
 70
         1
  9
$SHADEDGE
 70
         3
  9
$SHADEDIF
 70
        70
  9
$TILEMODE
 70
         1
  9
$MAXACTVP
 70
        16
  9
$PINSBASE
 10
0.0
 20
0.0
 30
0.0
  9
$PLIMCHECK
 70
         0
  9
$PEXTMIN
 10
1.0000000000E+20
 20
1.0000000000E+20
 30
1.0000000000E+20
  9
$PEXTMAX
 10
-1.0000000000E+20
 20
-1.0000000000E+20
 30
-1.0000000000E+20
  9
$PLIMMIN
 10
0.0
 20
0.0
  9
$PLIMMAX
 10
12.0
 20
9.0
  9
$UNITMODE
 70
         0
  9
$VISRETAIN
 70
         0
  9
$PLINEGEN
 70
         1
  9
$PSLTSCALE
 70
         0
  9
$TREEDEPTH
 70
      3020
  9
$CMLSTYLE
  2
Standard
  9
$CMLJUST
 70
         0
  9
$CMLSCALE
 40
1.0
  9
$PROXYGRAPHICS
 70
         0
  9
$MEASUREMENT
 70
         0
  9
$CELWEIGHT
370
         0
  9
$ENDCAPS
280
         0
  9
$JOINSTYLE
280
         0
  9
$LWDISPLAY
290
         0
  9
$INSUNITS
 70
         0
  9
$HYPERLINKBASE
  1

  9
$XEDIT
290
         1
  9
$CEPSNTYPE
380
         0
  9
$PSTYLEMODE
290
         1
  9
$FINGERPRINTGUID
  2

  9
$VERSIONGUID
  2

  9
$EXTNAMES
290
         1
  9
$PSVPSCALE
 40
0.0
  0
ENDSEC
  0
SECTION
  2
CLASSES
  0
CLASS
  1
LWPOLYLINE
  2
AcDbPolyline
  3
AutoCAD 2000
 90
    32768
280
         0
281
         1
  0
CLASS
  1
IMAGE
  2
AcDbRasterImage
  3
ISM
 90
    32895
280
         0
281
         1
  0
CLASS
  1
OLE2FRAME
  2
AcDbOle2Frame
  3
AutoCAD 2000
 90
    32768
280
         0
281
         1
  0
CLASS
  1
HATCH
  2
AcDbHatch
  3
AutoCAD 2000
 90
    32768
280
         0
281
         1
  0
CLASS
  1
DICTIONARYVAR
  2
AcDbDictionaryVar
  3
AutoCAD 2000
 90
    32768
280
         0
281
         0
  0
CLASS
  1
RASTERVARIABLES
  2
AcDbRasterVariables
  3
ISM
 90
    32768
280
         0
281
         0
  0
CLASS
  1
IMAGEDEF
  2
AcDbRasterImageDef
  3
ISM
 90
    32768
280
         0
281
         0
  0
CLASS
  1
IMAGEDEF_REACTOR
  2
AcDbRasterImageDefReactor
  3
ISM
 90
    32769
280
         0
281
         0
  0
CLASS
  1
IDBUFFER
  2
AcDbIdBuffer
  3
AutoCAD 2000
 90
    32768
280
         0
281
         0
  0
CLASS
  1
SPATIAL_FILTER
  2
AcDbSpatialFilter
  3
AutoCAD 2000
 90
    32768
280
         0
281
         0
  0
CLASS
  1
XRECORD
  2
AcDbXrecord
  3
AutoCAD 2000
 90
    32768
280
         0
281
         0
  0
CLASS
  1
SORTENTSTABLE
  2
AcDbSortentsTable
  3
AutoCAD 2000
 90
    32768
280
         0
281
         0
  0
CLASS
  1
LAYER_INDEX
  2
AcDbLayerIndex
  3
AutoCAD 2000
 90
    32768
280
         0
281
         0
  0
CLASS
  1
SPATIAL_INDEX
  2
AcDbSpatialIndex
  3
AutoCAD 2000
 90
    32768
280
         0
281
         0
  0
CLASS
  1
OBJECT_PTR
  2
CAseDLPNTableRecord
  3
"ASE-LPNTableRecord"
 90
    32769
280
         0
281
         0
  0
CLASS
  1
LAYOUT
  2
AcDbLayout
  3
AutoCAD 2000
 90
        0
280
         0
281
         0
  0
CLASS
  1
PLOTSETTINGS
  2
AcDbPlotSettings
  3
AutoCAD 2000
 90
    32768
280
         0
281
         0
  0
CLASS
  1
ACDBDICTIONARYWDFLT
  2
AcDbDictionaryWithDefault
  3
AutoCAD 2000
 90
        0
280
         0
281
         0
  0
CLASS
  1
ACDBPLACEHOLDER
  2
AcDbPlaceHolder
  3
AutoCAD 2000
 90
        0
280
         0
281
         0
  0
CLASS
  1
VBA_PROJECT
  2
AcDbVbaProject
  3
acadvba
 90
    32768
280
         0
281
         0
  0
CLASS
  1
WIPEOUT
  2
AcDbWipeout
  3
WipeOut|AutoCAD Express Tool|expresstools@autodesk.com
 90
    32895
280
         0
281
         1
  0
CLASS
  1
WIPEOUTVARIABLES
  2
AcDbWipeoutVariables
  3
WipeOut|AutoCAD Express Tool|expresstools@autodesk.com
 90
        0
280
         0
281
         0
  0
CLASS
  1
RTEXT
  2
RText
  3
RText|AutoCAD Express Tool|expresstools@autodesk.com
 90
    32768
280
         0
281
         1
  0
CLASS
  1
ARCALIGNEDTEXT
  2
AcDbArcAlignedText
  3
ATEXT|AutoCAD Express Tool|expresstools@autodesk.com
 90
    32768
280
         0
281
         1
  0
ENDSEC
  0
SECTION
  2
TABLES
  0
TABLE
  2
VPORT
  5
7
100
AcDbSymbolTable
 70
         1
  0
VPORT
  5
15
100
AcDbSymbolTableRecord
100
AcDbViewportTableRecord
  2
*ACTIVE
 70
         0
 10
0.0
 20
0.0
 11
1.0
 21
1.0
 12
6.591288
 22
4.579184
 13
0.0
 23
0.0
 14
1.0
 24
1.0
 15
0.0
 25
0.0
 16
0.0
 26
0.0
 36
1.0
 17
0.0
 27
0.0
 37
0.0
 40
9.158369
 41
0.688564
 42
50.0
 43
0.0
 44
0.0
 50
0.0
 51
0.0
 71
         0
 72
       100
 73
         1
 74
         1
 75
         0
 76
         0
 77
         0
 78
         0
281
         0
 65
         0
110
0.0
120
0.0
130
0.0
111
1.0
121
0.0
131
0.0
112
0.0
122
1.0
132
0.0
345
0
346
0
 79
         0
146
0.0
  0
ENDTAB
  0
TABLE
  2
LTYPE
  5
4
100
AcDbSymbolTable
 70
        13
  0
LTYPE
  5
11
100
AcDbSymbolTableRecord
100
AcDbLinetypeTableRecord
  2
ByBlock
 70
        64
  3

 72
        65
 73
         0
 40
0.0
  0
LTYPE
  5
12
100
AcDbSymbolTableRecord
100
AcDbLinetypeTableRecord
  2
ByLayer
 70
        64
  3

 72
        65
 73
         0
 40
0.0
  0
LTYPE
  5
13
100
AcDbSymbolTableRecord
100
AcDbLinetypeTableRecord
  2
Continuous
 70
        64
  3
Solid line
 72
        65
 73
         0
 40
0.0
  0
LTYPE
  5
25
100
AcDbSymbolTableRecord
100
AcDbLinetypeTableRecord
  2
Dotted
 70
        64
  3
Dotted
 72
        65
 73
         2
 40
0.125
 49
0.0
 74
         0
 49
-0.125
 74
         0
  0
LTYPE
  5
26
100
AcDbSymbolTableRecord
100
AcDbLinetypeTableRecord
  2
Center
 70
        64
  3
Center
 72
        65
 73
         4
 40
0.7699999809
 49
0.5
 74
         0
 49
-0.0724999979
 74
         0
 49
0.125
 74
         0
 49
-0.0724999979
 74
         0
  0
LTYPE
  5
27
100
AcDbSymbolTableRecord
100
AcDbLinetypeTableRecord
  2
Dashed
 70
        64
  3
Dashed
 72
        65
 73
         2
 40
0.375
 49
0.25
 74
         0
 49
-0.125
 74
         0
  0
LTYPE
  5
28
100
AcDbSymbolTableRecord
100
AcDbLinetypeTableRecord
  2
Hidden
 70
        64
  3
Hidden
 72
        65
 73
         2
 40
0.1974999905
 49
0.125
 74
         0
 49
-0.0724999979
 74
         0
  0
LTYPE
  5
29
100
AcDbSymbolTableRecord
100
AcDbLinetypeTableRecord
  2
Phantom
 70
        64
  3
Phantom
 72
        65
 73
         6
 40
0.9674999714
 49
0.5
 74
         0
 49
-0.0724999979
 74
         0
 49
0.125
 74
         0
 49
-0.0724999979
 74
         0
 49
0.125
 74
         0
 49
-0.0724999979
 74
         0
  0
LTYPE
  5
2A
100
AcDbSymbolTableRecord
100
AcDbLinetypeTableRecord
  2
Dashdot
 70
        64
  3
Dashdot
 72
        65
 73
         4
 40
0.6762499809
 49
0.5
 74
         0
 49
-0.0724999979
 74
         0
 49
0.03125
 74
         0
 49
-0.0724999979
 74
         0
  0
LTYPE
  5
2B
100
AcDbSymbolTableRecord
100
AcDbLinetypeTableRecord
  2
Border
 70
        64
  3
Border
 72
        65
 73
         6
 40
1.2487499714
 49
0.5
 74
         0
 49
-0.0724999979
 74
         0
 49
0.5
 74
         0
 49
-0.0724999979
 74
         0
 49
0.03125
 74
         0
 49
-0.0724999979
 74
         0
  0
LTYPE
  5
2C
100
AcDbSymbolTableRecord
100
AcDbLinetypeTableRecord
  2
Divide
 70
        64
  3
Divide
 72
        65
 73
         6
 40
0.7799999714
 49
0.5
 74
         0
 49
-0.0724999979
 74
         0
 49
0.03125
 74
         0
 49
-0.0724999979
 74
         0
 49
0.03125
 74
         0
 49
-0.0724999979
 74
         0
  0
LTYPE
  5
2D
100
AcDbSymbolTableRecord
100
AcDbLinetypeTableRecord
  2
Cutting
 70
        64
  3
Cutting
 72
        65
 73
         6
 40
1.4674999714
 49
1.0
 74
         0
 49
-0.0724999979
 74
         0
 49
0.125
 74
         0
 49
-0.0724999979
 74
         0
 49
0.125
 74
         0
 49
-0.0724999979
 74
         0
  0
LTYPE
  5
2E
100
AcDbSymbolTableRecord
100
AcDbLinetypeTableRecord
  2
Stitch
 70
        64
  3
Stitch
 72
        65
 73
         2
 40
0.1449999958
 49
0.0724999979
 74
         0
 49
-0.0724999979
 74
         0
  0
ENDTAB
  0
TABLE
  2
LAYER
  5
2
100
AcDbSymbolTable
 70
        42
  0
LAYER
  5
14
100
AcDbSymbolTableRecord
100
AcDbLayerTableRecord
  2
0
 70
         0
 62
         7
  6
Continuous
290
         1
370
        -3
390
1D
  0
LAYER
  5
2F
100
AcDbSymbolTableRecord
100
AcDbLayerTableRecord
  2
DF_COMP
 70
         0
 62
         4
  6
Continuous
290
         1
370
         2
390
1F
  0
LAYER
  5
30
100
AcDbSymbolTableRecord
100
AcDbLayerTableRecord
  2
1_250BIT_500DEP
 70
         0
 62
         5
  6
Continuous
290
         1
370
         2
390
1F
  0
LAYER
  5
31
100
AcDbSymbolTableRecord
100
AcDbLayerTableRecord
  2
2_250BIT_250DEP
 70
         0
 62
         3
  6
Continuous
290
         1
370
         2
390
1F
  0
LAYER
  5
32
100
AcDbSymbolTableRecord
100
AcDbLayerTableRecord
  2
3_250BIT_500TAB
 70
         0
 62
         5
  6
Continuous
290
         1
370
         2
390
1F
  0
LAYER
  5
33
100
AcDbSymbolTableRecord
100
AcDbLayerTableRecord
  2
4_250BIT_250TAB
 70
         0
 62
         5
  6
Continuous
290
         1
370
         2
390
1F
  0
LAYER
  5
34
100
AcDbSymbolTableRecord
100
AcDbLayerTableRecord
  2
5_250BIT_250SPEC
 70
         0
 62
         5
  6
Continuous
290
         1
370
         2
390
1F
  0
LAYER
  5
35
100
AcDbSymbolTableRecord
100
AcDbLayerTableRecord
  2
6_125BIT_500DEP
 70
         0
 62
         5
  6
Continuous
290
         1
370
         2
390
1F
  0
LAYER
  5
36
100
AcDbSymbolTableRecord
100
AcDbLayerTableRecord
  2
7_VCARVE_BIT
 70
         0
 62
         5
  6
Continuous
290
         1
370
         2
390
1F
  0
LAYER
  5
37
100
AcDbSymbolTableRecord
100
AcDbLayerTableRecord
  2
8_250BIT_500OUTLINE
 70
         0
 62
         5
  6
Continuous
290
         1
370
         2
390
1F
  0
LAYER
  5
38
100
AcDbSymbolTableRecord
100
AcDbLayerTableRecord
  2
PLASTICS
 70
         0
 62
        37
  6
Continuous
290
         1
370
         2
390
1F
  0
LAYER
  5
39
100
AcDbSymbolTableRecord
100
AcDbLayerTableRecord
  2
7A_1250BALL
 70
         0
 62
         5
  6
Continuous
290
         1
370
         2
390
1F
  0
LAYER
  5
3A
100
AcDbSymbolTableRecord
100
AcDbLayerTableRecord
  2
CONSTRUCTION
 70
         0
 62
         7
  6
Continuous
290
         1
370
         0
390
1F
  0
LAYER
  5
3B
100
AcDbSymbolTableRecord
100
AcDbLayerTableRecord
  2
0_WOOD
 70
         0
 62
         5
  6
Continuous
290
         1
370
         2
390
1F
  0
LAYER
  5
3C
100
AcDbSymbolTableRecord
100
AcDbLayerTableRecord
  2
Z_TATTOOMYSTIQUE
 70
         0
 62
        37
  6
Continuous
290
         1
370
         2
390
1F
  0
LAYER
  5
3D
100
AcDbSymbolTableRecord
100
AcDbLayerTableRecord
  2
Z_ROLLRGIRLZ
 70
         0
 62
        37
  6
Continuous
290
         1
370
         2
390
1F
  0
LAYER
  5
3E
100
AcDbSymbolTableRecord
100
AcDbLayerTableRecord
  2
Z_MISSADV
 70
         0
 62
         5
  6
Continuous
290
         1
370
         2
390
1F
  0
LAYER
  5
3F
100
AcDbSymbolTableRecord
100
AcDbLayerTableRecord
  2
Z_JUPITERCRUSH
 70
         0
 62
        37
  6
Continuous
290
         1
370
         2
390
1F
  0
LAYER
  5
40
100
AcDbSymbolTableRecord
100
AcDbLayerTableRecord
  2
Z_MODULAR
 70
         0
 62
         5
  6
Continuous
290
         1
370
         2
390
1F
  0
LAYER
  5
41
100
AcDbSymbolTableRecord
100
AcDbLayerTableRecord
  2
Z_GENERIC
 70
         0
 62
        27
  6
Continuous
290
         1
370
         2
390
1F
  0
LAYER
  5
42
100
AcDbSymbolTableRecord
100
AcDbLayerTableRecord
  2
UNASSIGNED
 70
         0
 62
         7
  6
Continuous
290
         1
370
         0
390
1F
  0
LAYER
  5
43
100
AcDbSymbolTableRecord
100
AcDbLayerTableRecord
  2
0
 70
         0
 62
        42
  6
Continuous
290
         1
370
         2
390
1F
  0
LAYER
  5
44
100
AcDbSymbolTableRecord
100
AcDbLayerTableRecord
  2
LAYER_1
 70
         0
 62
        42
  6
Continuous
290
         1
370
         2
390
1F
  0
LAYER
  5
45
100
AcDbSymbolTableRecord
100
AcDbLayerTableRecord
  2
LAYER_3
 70
         0
 62
         4
  6
Continuous
290
         1
370
         2
390
1F
  0
LAYER
  5
46
100
AcDbSymbolTableRecord
100
AcDbLayerTableRecord
  2
LAYER_2
 70
         0
 62
        42
  6
Continuous
290
         1
370
         2
390
1F
  0
LAYER
  5
47
100
AcDbSymbolTableRecord
100
AcDbLayerTableRecord
  2
X_POSTS
 70
         0
 62
         4
  6
Continuous
290
         1
370
         2
390
1F
  0
LAYER
  5
48
100
AcDbSymbolTableRecord
100
AcDbLayerTableRecord
  2
X_THUMPER
 70
         0
 62
         4
  6
Continuous
290
         1
370
         2
390
1F
  0
LAYER
  5
49
100
AcDbSymbolTableRecord
100
AcDbLayerTableRecord
  2
X_STANDUPS
 70
         0
 62
         4
  6
Continuous
290
         1
370
         2
390
1F
  0
LAYER
  5
4A
100
AcDbSymbolTableRecord
100
AcDbLayerTableRecord
  2
X_DROPS
 70
         0
 62
         4
  6
Continuous
290
         1
370
         2
390
1F
  0
LAYER
  5
4B
100
AcDbSymbolTableRecord
100
AcDbLayerTableRecord
  2
X_SMPOSTS
 70
         0
 62
         4
  6
Continuous
290
         1
370
         2
390
1F
  0
LAYER
  5
4C
100
AcDbSymbolTableRecord
100
AcDbLayerTableRecord
  2
X_ROLLOVER
 70
         0
 62
         4
  6
Continuous
290
         1
370
         2
390
1F
  0
LAYER
  5
4D
100
AcDbSymbolTableRecord
100
AcDbLayerTableRecord
  2
X_WALLS
 70
         0
 62
         4
  6
Continuous
290
         1
370
         2
390
1F
  0
LAYER
  5
4E
100
AcDbSymbolTableRecord
100
AcDbLayerTableRecord
  2
Z0_BOTCOMP
 70
         0
 62
         4
  6
Continuous
290
         1
370
         2
390
1F
  0
LAYER
  5
4F
100
AcDbSymbolTableRecord
100
AcDbLayerTableRecord
  2
Z0_TOPCOMP
 70
         0
 62
         6
  6
Continuous
290
         1
370
         2
390
1F
  0
LAYER
  5
50
100
AcDbSymbolTableRecord
100
AcDbLayerTableRecord
  2
Z0_CUT250
 70
         0
 62
         4
  6
Continuous
290
         1
370
         2
390
1F
  0
LAYER
  5
51
100
AcDbSymbolTableRecord
100
AcDbLayerTableRecord
  2
Z0_CUT500
 70
         0
 62
         4
  6
Continuous
290
         1
370
         2
390
1F
  0
LAYER
  5
52
100
AcDbSymbolTableRecord
100
AcDbLayerTableRecord
  2
Z0_PLASTICS
 70
         0
 62
        37
  6
Continuous
290
         1
370
         2
390
1F
  0
LAYER
  5
53
100
AcDbSymbolTableRecord
100
AcDbLayerTableRecord
  2
Z0_RUBBER
 70
         0
 62
         4
  6
Continuous
290
         1
370
         2
390
1F
  0
LAYER
  5
54
100
AcDbSymbolTableRecord
100
AcDbLayerTableRecord
  2
Z0_ZONES
 70
         0
 62
         6
  6
Continuous
290
         1
370
         2
390
1F
  0
LAYER
  5
55
100
AcDbSymbolTableRecord
100
AcDbLayerTableRecord
  2
Z0_WOODOUTLINE
 70
         0
 62
         5
  6
Continuous
290
         1
370
         2
390
1F
  0
LAYER
  5
56
100
AcDbSymbolTableRecord
100
AcDbLayerTableRecord
  2
Z0_LOWERTHIRD
 70
         0
 62
         4
  6
Continuous
290
         1
370
         2
390
1F
  0
LAYER
  5
57
100
AcDbSymbolTableRecord
100
AcDbLayerTableRecord
  2
PART_A
 70
         0
 62
         4
  6
Continuous
290
         1
370
         2
390
1F
  0
ENDTAB
  0
TABLE
  2
STYLE
  5
3
100
AcDbSymbolTable
 70
         2
  0
STYLE
  5
17
100
AcDbSymbolTableRecord
100
AcDbTextStyleTableRecord
  2
Standard
 70
         0
 40
0.0
 41
1.0
 50
0.0
 71
         0
 42
0.0
  3
txt
  4

  0
STYLE
  5
24
100
AcDbSymbolTableRecord
100
AcDbTextStyleTableRecord
  2
Plotter
 70
         0
 40
0.0
 41
0.98
 50
0.0
 71
         0
 42
0.0
  3
SIMPLEX
  4

  0
ENDTAB
  0
TABLE
  2
VIEW
  5
5
100
AcDbSymbolTable
 70
         0
  0
ENDTAB
  0
TABLE
  2
UCS
  5
6
100
AcDbSymbolTable
 70
         0
  0
ENDTAB
  0
TABLE
  2
APPID
  5
8
100
AcDbSymbolTable
 70
         1
  0
APPID
  5
16
100
AcDbSymbolTableRecord
100
AcDbRegAppTableRecord
  2
ACAD
 70
         0
  0
ENDTAB
  0
TABLE
  2
DIMSTYLE
  5
9
100
AcDbSymbolTable
 70
         1
100
AcDbDimStyleTable
 71
         0
  0
DIMSTYLE
105
18
100
AcDbSymbolTableRecord
100
AcDbDimStyleTableRecord
  2
Standard
 70
         0
  3

  4

 40
1.0
 41
0.18
 42
0.0625
 43
0.38
 44
0.18
 45
0.0
 46
0.0
 47
0.0
 48
0.0
 71
         0
 72
         0
 73
         1
 74
         1
 75
         0
 76
         0
 77
         0
 78
         0
 79
         0
140
0.18
141
0.09
142
0.0
143
25.4
144
1.0
145
0.0
146
1.0
147
0.09
148
0.0
170
         0
171
         2
172
         0
173
         0
174
         0
175
         0
176
         0
177
         0
178
         0
179
         0
271
         4
272
         4
273
         2
274
         2
275
         0
276
         0
277
         2
278
        46
279
         0
280
         0
281
         0
282
         0
283
         1
284
         0
285
         0
286
         0
288
         0
340
17
341
0
342
0
343
0
344
0
371
        -2
372
        -2
  0
ENDTAB
  0
TABLE
  2
BLOCK_RECORD
  5
1
100
AcDbSymbolTable
 70
         0
  0
BLOCK_RECORD
  5
A
100
AcDbSymbolTableRecord
100
AcDbBlockTableRecord
  2
*MODEL_SPACE
340
20
  0
BLOCK_RECORD
  5
B
100
AcDbSymbolTableRecord
100
AcDbBlockTableRecord
  2
*PAPER_SPACE
340
21
  0
ENDTAB
  0
ENDSEC
  0
SECTION
  2
BLOCKS
  0
BLOCK
  5
D
100
AcDbEntity
  8
0
100
AcDbBlockBegin
  2
*MODEL_SPACE
 70
         0
 10
0.0
 20
0.0
 30
0.0
  3
*MODEL_SPACE
  1

  0
ENDBLK
  5
E
100
AcDbEntity
  8
0
100
AcDbBlockEnd
  0
BLOCK
  5
F
100
AcDbEntity
 67
         1
  8
0
100
AcDbBlockBegin
  2
*PAPER_SPACE
 70
         0
 10
0.0
 20
0.0
 30
0.0
  3
*PAPER_SPACE
  1

  0
ENDBLK
  5
10
100
AcDbEntity
 67
         1
  8
0
100
AcDbBlockEnd
  0
ENDSEC
  0
SECTION
  2
ENTITIES
  0
CIRCLE
  5
58
100
AcDbEntity
  8
Z0_TOPCOMP
370
        25
  6
Continuous
 62
         6
100
AcDbCircle
 10
0.9
 20
28.2960921922
 30
0.0
 40
0.35
  0
CIRCLE
  5
59
102
{ACAD_REACTORS
330
5B
102
}
100
AcDbEntity
  8
Z0_RUBBER
370
        25
  6
Continuous
 62
         2
100
AcDbCircle
 10
0.9
 20
28.2960921922
 30
0.0
 40
0.4
  0
CIRCLE
  5
5A
102
{ACAD_REACTORS
330
5B
102
}
100
AcDbEntity
  8
Z0_RUBBER
370
        25
  6
Continuous
 62
         2
100
AcDbCircle
 10
0.9
 20
28.2960921922
 30
0.0
 40
0.215
  0
ARC
  5
5C
102
{ACAD_REACTORS
330
60
102
}
100
AcDbEntity
  8
Z0_CUT500
370
        25
  6
Continuous
 62
         5
100
AcDbCircle
 10
1.3440408814
 20
28.7938418158
 30
0.0
 40
0.25
100
AcDbArc
 50
151.2596490143
 51
-28.7403509857
  0
LINE
  5
5D
102
{ACAD_REACTORS
330
60
102
}
100
AcDbEntity
  8
Z0_CUT500
370
        25
  6
Continuous
 62
         5
100
AcDbLine
 10
1.1248389452
 20
28.9140520946
 30
0.0
 11
1.4253646421
 21
29.4620569353
 31
0.0
  0
LINE
  5
5E
102
{ACAD_REACTORS
330
60
102
}
100
AcDbEntity
  8
Z0_CUT500
370
        25
  6
Continuous
 62
         5
100
AcDbLine
 10
1.8637685147
 20
29.2216363778
 30
0.0
 11
1.5632428177
 21
28.673631537
 31
0.0
  0
ARC
  5
5F
102
{ACAD_REACTORS
330
60
102
}
100
AcDbEntity
  8
Z0_CUT500
370
        25
  6
Continuous
 62
         5
100
AcDbCircle
 10
1.6445665784
 20
29.3418466565
 30
0.0
 40
0.25
100
AcDbArc
 50
-28.7403509857
 51
151.2596490143
  0
LINE
  5
61
102
{ACAD_REACTORS
330
75
102
}
100
AcDbEntity
  8
Z0_TOPCOMP
370
         5
  6
Continuous
 62
         6
100
AcDbLine
 10
1.535159971
 20
28.8174025636
 30
0.0
 11
1.1405964857
 21
29.0337810654
 31
0.0
  0
LINE
  5
62
102
{ACAD_REACTORS
330
75
102
}
100
AcDbEntity
  8
Z0_TOPCOMP
370
         5
  6
Continuous
 62
         6
100
AcDbLine
 10
1.3329329317
 20
29.3845041635
 30
0.0
 11
1.727496417
 21
29.1681256617
 31
0.0
  0
LINE
  5
63
102
{ACAD_REACTORS
330
75
102
}
100
AcDbEntity
  8
Z0_TOPCOMP
370
         5
  6
Continuous
 62
         6
100
AcDbLine
 10
1.3032268619
 20
28.6024443516
 30
0.0
 11
1.3909076365
 21
28.5543602401
 31
0.0
  0
LINE
  5
64
102
{ACAD_REACTORS
330
75
102
}
100
AcDbEntity
  8
Z0_TOPCOMP
370
         5
  6
Continuous
 62
         6
100
AcDbLine
 10
1.7840679771
 20
29.4792520968
 30
0.0
 11
1.3032268619
 21
28.6024443516
 31
0.0
  0
LINE
  5
65
102
{ACAD_REACTORS
330
75
102
}
100
AcDbEntity
  8
Z0_TOPCOMP
370
         5
  6
Continuous
 62
         6
100
AcDbLine
 10
1.3909076365
 20
28.5543602401
 30
0.0
 11
1.8717487516
 21
29.4311679853
 31
0.0
  0
LINE
  5
66
102
{ACAD_REACTORS
330
75
102
}
100
AcDbEntity
  8
Z0_TOPCOMP
370
         5
  6
Continuous
 62
         6
100
AcDbLine
 10
1.2238538566
 20
28.5746911802
 30
0.0
 11
1.2238538566
 21
28.5746911802
 31
0.0
  0
LINE
  5
67
102
{ACAD_REACTORS
330
75
102
}
100
AcDbEntity
  8
Z0_TOPCOMP
370
         5
  6
Continuous
 62
         6
100
AcDbLine
 10
1.7648001111
 20
29.5610998936
 30
0.0
 11
1.7648001111
 21
29.5610998936
 31
0.0
  0
LINE
  5
68
102
{ACAD_REACTORS
330
75
102
}
100
AcDbEntity
  8
Z0_TOPCOMP
370
         5
  6
Continuous
 62
         6
100
AcDbLine
 10
1.8717487516
 20
29.4311679853
 30
0.0
 11
1.7840679771
 21
29.4792520968
 31
0.0
  0
LINE
  5
69
102
{ACAD_REACTORS
330
75
102
}
100
AcDbEntity
  8
Z0_TOPCOMP
370
         5
  6
Continuous
 62
         6
100
AcDbLine
 10
1.727496417
 20
29.1681256617
 30
0.0
 11
1.535159971
 21
28.8174025636
 31
0.0
  0
LINE
  5
6A
102
{ACAD_REACTORS
330
75
102
}
100
AcDbEntity
  8
Z0_TOPCOMP
370
         5
  6
Continuous
 62
         6
100
AcDbLine
 10
1.4642744141
 20
29.0130950528
 30
0.0
 11
1.4642744141
 21
29.0130950528
 31
0.0
  0
LINE
  5
6B
102
{ACAD_REACTORS
330
75
102
}
100
AcDbEntity
  8
Z0_TOPCOMP
370
         5
  6
Continuous
 62
         6
100
AcDbLine
 10
1.183872186
 20
29.1126937625
 30
0.0
 11
1.0961914115
 21
29.160777874
 31
0.0
  0
LINE
  5
6C
102
{ACAD_REACTORS
330
75
102
}
100
AcDbEntity
  8
Z0_TOPCOMP
370
         5
  6
Continuous
 62
         6
100
AcDbLine
 10
1.2019764568
 20
29.3536755779
 30
0.0
 11
1.2896572314
 21
29.3055914664
 31
0.0
  0
LINE
  5
6D
102
{ACAD_REACTORS
330
75
102
}
100
AcDbEntity
  8
Z0_TOPCOMP
370
         5
  6
Continuous
 62
         6
100
AcDbLine
 10
1.0961914115
 20
29.160777874
 30
0.0
 11
1.2019764568
 21
29.3536755779
 31
0.0
  0
LINE
  5
6E
102
{ACAD_REACTORS
330
75
102
}
100
AcDbEntity
  8
Z0_TOPCOMP
370
         5
  6
Continuous
 62
         6
100
AcDbLine
 10
1.2337573086
 20
28.9826916969
 30
0.0
 11
1.1789568245
 21
29.0127442666
 31
0.0
  0
LINE
  5
6F
102
{ACAD_REACTORS
330
75
102
}
100
AcDbEntity
  8
Z0_TOPCOMP
370
         5
  6
Continuous
 62
         6
100
AcDbLine
 10
1.4260937546
 20
29.333414795
 30
0.0
 11
1.2337573086
 21
28.9826916969
 31
0.0
  0
LINE
  5
70
102
{ACAD_REACTORS
330
75
102
}
100
AcDbEntity
  8
Z0_TOPCOMP
370
         5
  6
Continuous
 62
         6
100
AcDbLine
 10
1.3712932706
 20
29.3634673647
 30
0.0
 11
1.4260937546
 21
29.333414795
 31
0.0
  0
LINE
  5
71
102
{ACAD_REACTORS
330
75
102
}
100
AcDbEntity
  8
Z0_TOPCOMP
370
         5
  6
Continuous
 62
         6
100
AcDbLine
 10
1.1789568245
 20
29.0127442666
 30
0.0
 11
1.3712932706
 21
29.3634673647
 31
0.0
  0
LINE
  5
72
102
{ACAD_REACTORS
330
75
102
}
100
AcDbEntity
  8
Z0_TOPCOMP
370
         5
  6
Continuous
 62
         6
100
AcDbLine
 10
1.2896572314
 20
29.3055914664
 30
0.0
 11
1.183872186
 21
29.1126937625
 31
0.0
  0
LINE
  5
73
102
{ACAD_REACTORS
330
75
102
}
100
AcDbEntity
  8
Z0_TOPCOMP
370
         5
  6
Continuous
 62
         6
100
AcDbLine
 10
1.1405964857
 20
29.0337810654
 30
0.0
 11
1.3329329317
 21
29.3845041635
 31
0.0
  0
LINE
  5
74
102
{ACAD_REACTORS
330
75
102
}
100
AcDbEntity
  8
Z0_TOPCOMP
370
         5
  6
Continuous
 62
         6
100
AcDbLine
 10
1.7648001111
 20
29.5610998936
 30
0.0
 11
1.7648001111
 21
29.5610998936
 31
0.0
  0
CIRCLE
  5
76
100
AcDbEntity
  8
Z0_CUT500
370
        25
  6
Continuous
 62
         5
100
AcDbCircle
 10
0.9
 20
28.2960921922
 30
0.0
 40
0.0825
  0
CIRCLE
  5
77
100
AcDbEntity
  8
Z0_TOPCOMP
370
        25
  6
Continuous
 62
         6
100
AcDbCircle
 10
1.8256191466
 20
29.9839471017
 30
0.0
 40
0.35
  0
ARC
  5
78
102
{ACAD_REACTORS
330
83
102
}
100
AcDbEntity
  8
Z0_BOTCOMP
370
        25
  6
Continuous
 62
         4
100
AcDbCircle
 10
1.8256191466
 20
29.9839471017
 30
0.0
 40
0.285
100
AcDbArc
 50
90.0
 51
164.5679286494
  0
ARC
  5
79
102
{ACAD_REACTORS
330
83
102
}
100
AcDbEntity
  8
Z0_BOTCOMP
370
        25
  6
Continuous
 62
         4
100
AcDbCircle
 10
1.8256191466
 20
29.9839471017
 30
0.0
 40
0.285
100
AcDbArc
 50
-150.0
 51
-75.4320713506
  0
ARC
  5
7A
102
{ACAD_REACTORS
330
83
102
}
100
AcDbEntity
  8
Z0_BOTCOMP
370
        25
  6
Continuous
 62
         4
100
AcDbCircle
 10
1.8256191466
 20
29.9839471017
 30
0.0
 40
0.285
100
AcDbArc
 50
-30.0
 51
44.5679286494
  0
LINE
  5
7B
102
{ACAD_REACTORS
330
83
102
}
100
AcDbEntity
  8
Z0_BOTCOMP
370
        25
  6
Continuous
 62
         4
100
AcDbLine
 10
1.5788019065
 20
29.8414471017
 30
0.0
 11
1.6524140658
 21
29.8839471017
 31
0.0
  0
LINE
  5
7C
102
{ACAD_REACTORS
330
83
102
}
100
AcDbEntity
  8
Z0_BOTCOMP
370
        25
  6
Continuous
 62
         4
100
AcDbLine
 10
1.6524140658
 20
29.8839471017
 30
0.0
 11
1.5508943633
 21
30.0597843845
 31
0.0
  0
LINE
  5
7D
102
{ACAD_REACTORS
330
83
102
}
100
AcDbEntity
  8
Z0_BOTCOMP
370
        25
  6
Continuous
 62
         4
100
AcDbLine
 10
2.0724363867
 20
29.8414471017
 30
0.0
 11
1.9988242274
 21
29.8839471017
 31
0.0
  0
LINE
  5
7E
102
{ACAD_REACTORS
330
83
102
}
100
AcDbEntity
  8
Z0_BOTCOMP
370
        25
  6
Continuous
 62
         4
100
AcDbLine
 10
1.9988242274
 20
29.8839471017
 30
0.0
 11
1.8973045248
 21
29.708109819
 31
0.0
  0
LINE
  5
7F
102
{ACAD_REACTORS
330
83
102
}
100
AcDbEntity
  8
Z0_BOTCOMP
370
        25
  6
Continuous
 62
         4
100
AcDbLine
 10
1.8256191466
 20
30.1839471017
 30
0.0
 11
2.0286585516
 21
30.1839471017
 31
0.0
  0
LINE
  5
80
102
{ACAD_REACTORS
330
83
102
}
100
AcDbEntity
  8
Z0_BOTCOMP
370
        25
  6
Continuous
 62
         4
100
AcDbLine
 10
1.8256191466
 20
30.2689471017
 30
0.0
 11
1.8256191466
 21
30.1839471017
 31
0.0
  0
CIRCLE
  5
81
102
{ACAD_REACTORS
330
83
102
}
100
AcDbEntity
  8
Z0_BOTCOMP
370
        25
  6
Continuous
 62
         4
100
AcDbCircle
 10
1.8256191466
 20
29.9839471017
 30
0.0
 40
0.059
  0
CIRCLE
  5
82
102
{ACAD_REACTORS
330
83
102
}
100
AcDbEntity
  8
Z0_BOTCOMP
370
        25
  6
Continuous
 62
         4
100
AcDbCircle
 10
1.8256191466
 20
29.9839471017
 30
0.0
 40
0.085
  0
CIRCLE
  5
84
100
AcDbEntity
  8
Z0_CUT500
370
        25
  6
Continuous
 62
         5
100
AcDbCircle
 10
1.8256191466
 20
29.9839471017
 30
0.0
 40
0.0825
  0
CIRCLE
  5
85
102
{ACAD_REACTORS
330
87
102
}
100
AcDbEntity
  8
Z0_RUBBER
370
        25
  6
Continuous
 62
         2
100
AcDbCircle
 10
1.8256191466
 20
29.9839471017
 30
0.0
 40
0.4
  0
CIRCLE
  5
86
102
{ACAD_REACTORS
330
87
102
}
100
AcDbEntity
  8
Z0_RUBBER
370
        25
  6
Continuous
 62
         2
100
AcDbCircle
 10
1.8256191466
 20
29.9839471017
 30
0.0
 40
0.215
  0
ARC
  5
88
102
{ACAD_REACTORS
330
93
102
}
100
AcDbEntity
  8
Z0_BOTCOMP
370
        25
  6
Continuous
 62
         4
100
AcDbCircle
 10
0.9
 20
28.2960921922
 30
0.0
 40
0.285
100
AcDbArc
 50
90.0
 51
164.5679286494
  0
ARC
  5
89
102
{ACAD_REACTORS
330
93
102
}
100
AcDbEntity
  8
Z0_BOTCOMP
370
        25
  6
Continuous
 62
         4
100
AcDbCircle
 10
0.9
 20
28.2960921922
 30
0.0
 40
0.285
100
AcDbArc
 50
-150.0
 51
-75.4320713506
  0
ARC
  5
8A
102
{ACAD_REACTORS
330
93
102
}
100
AcDbEntity
  8
Z0_BOTCOMP
370
        25
  6
Continuous
 62
         4
100
AcDbCircle
 10
0.9
 20
28.2960921922
 30
0.0
 40
0.285
100
AcDbArc
 50
-30.0
 51
44.5679286494
  0
LINE
  5
8B
102
{ACAD_REACTORS
330
93
102
}
100
AcDbEntity
  8
Z0_BOTCOMP
370
        25
  6
Continuous
 62
         4
100
AcDbLine
 10
0.6531827599
 20
28.1535921922
 30
0.0
 11
0.7267949192
 21
28.1960921922
 31
0.0
  0
LINE
  5
8C
102
{ACAD_REACTORS
330
93
102
}
100
AcDbEntity
  8
Z0_BOTCOMP
370
        25
  6
Continuous
 62
         4
100
AcDbLine
 10
0.7267949192
 20
28.1960921922
 30
0.0
 11
0.6252752167
 21
28.371929475
 31
0.0
  0
LINE
  5
8D
102
{ACAD_REACTORS
330
93
102
}
100
AcDbEntity
  8
Z0_BOTCOMP
370
        25
  6
Continuous
 62
         4
100
AcDbLine
 10
1.1468172401
 20
28.1535921922
 30
0.0
 11
1.0732050808
 21
28.1960921922
 31
0.0
  0
LINE
  5
8E
102
{ACAD_REACTORS
330
93
102
}
100
AcDbEntity
  8
Z0_BOTCOMP
370
        25
  6
Continuous
 62
         4
100
AcDbLine
 10
1.0732050808
 20
28.1960921922
 30
0.0
 11
0.9716853782
 21
28.0202549095
 31
0.0
  0
LINE
  5
8F
102
{ACAD_REACTORS
330
93
102
}
100
AcDbEntity
  8
Z0_BOTCOMP
370
        25
  6
Continuous
 62
         4
100
AcDbLine
 10
0.9
 20
28.4960921922
 30
0.0
 11
1.103039405
 21
28.4960921922
 31
0.0
  0
LINE
  5
90
102
{ACAD_REACTORS
330
93
102
}
100
AcDbEntity
  8
Z0_BOTCOMP
370
        25
  6
Continuous
 62
         4
100
AcDbLine
 10
0.9
 20
28.5810921922
 30
0.0
 11
0.9
 21
28.4960921922
 31
0.0
  0
CIRCLE
  5
91
102
{ACAD_REACTORS
330
93
102
}
100
AcDbEntity
  8
Z0_BOTCOMP
370
        25
  6
Continuous
 62
         4
100
AcDbCircle
 10
0.9
 20
28.2960921922
 30
0.0
 40
0.059
  0
CIRCLE
  5
92
102
{ACAD_REACTORS
330
93
102
}
100
AcDbEntity
  8
Z0_BOTCOMP
370
        25
  6
Continuous
 62
         4
100
AcDbCircle
 10
0.9
 20
28.2960921922
 30
0.0
 40
0.085
  0
CIRCLE
  5
94
100
AcDbEntity
  8
Z0_TOPCOMP
370
        25
  6
Continuous
 62
         6
100
AcDbCircle
 10
17.475
 20
28.2960921922
 30
0.0
 40
0.35
  0
CIRCLE
  5
95
102
{ACAD_REACTORS
330
97
102
}
100
AcDbEntity
  8
Z0_RUBBER
370
        25
  6
Continuous
 62
         2
100
AcDbCircle
 10
17.475
 20
28.2960921922
 30
0.0
 40
0.4
  0
CIRCLE
  5
96
102
{ACAD_REACTORS
330
97
102
}
100
AcDbEntity
  8
Z0_RUBBER
370
        25
  6
Continuous
 62
         2
100
AcDbCircle
 10
17.475
 20
28.2960921922
 30
0.0
 40
0.215
  0
ARC
  5
98
102
{ACAD_REACTORS
330
9C
102
}
100
AcDbEntity
  8
Z0_CUT500
370
        25
  6
Continuous
 62
         5
100
AcDbCircle
 10
17.0309591186
 20
28.7938418158
 30
0.0
 40
0.25
100
AcDbArc
 50
-151.2596490143
 51
28.7403509857
  0
LINE
  5
99
102
{ACAD_REACTORS
330
9C
102
}
100
AcDbEntity
  8
Z0_CUT500
370
        25
  6
Continuous
 62
         5
100
AcDbLine
 10
17.2501610548
 20
28.9140520946
 30
0.0
 11
16.9496353579
 21
29.4620569353
 31
0.0
  0
LINE
  5
9A
102
{ACAD_REACTORS
330
9C
102
}
100
AcDbEntity
  8
Z0_CUT500
370
        25
  6
Continuous
 62
         5
100
AcDbLine
 10
16.5112314853
 20
29.2216363778
 30
0.0
 11
16.8117571823
 21
28.673631537
 31
0.0
  0
ARC
  5
9B
102
{ACAD_REACTORS
330
9C
102
}
100
AcDbEntity
  8
Z0_CUT500
370
        25
  6
Continuous
 62
         5
100
AcDbCircle
 10
16.7304334216
 20
29.3418466565
 30
0.0
 40
0.25
100
AcDbArc
 50
28.7403509857
 51
-151.2596490143
  0
LINE
  5
9D
102
{ACAD_REACTORS
330
B1
102
}
100
AcDbEntity
  8
Z0_TOPCOMP
370
         5
  6
Continuous
 62
         6
100
AcDbLine
 10
16.839840029
 20
28.8174025636
 30
0.0
 11
17.2344035143
 21
29.0337810654
 31
0.0
  0
LINE
  5
9E
102
{ACAD_REACTORS
330
B1
102
}
100
AcDbEntity
  8
Z0_TOPCOMP
370
         5
  6
Continuous
 62
         6
100
AcDbLine
 10
17.0420670683
 20
29.3845041635
 30
0.0
 11
16.647503583
 21
29.1681256617
 31
0.0
  0
LINE
  5
9F
102
{ACAD_REACTORS
330
B1
102
}
100
AcDbEntity
  8
Z0_TOPCOMP
370
         5
  6
Continuous
 62
         6
100
AcDbLine
 10
17.0717731381
 20
28.6024443516
 30
0.0
 11
16.9840923635
 21
28.5543602401
 31
0.0
  0
LINE
  5
A0
102
{ACAD_REACTORS
330
B1
102
}
100
AcDbEntity
  8
Z0_TOPCOMP
370
         5
  6
Continuous
 62
         6
100
AcDbLine
 10
16.5909320229
 20
29.4792520968
 30
0.0
 11
17.0717731381
 21
28.6024443516
 31
0.0
  0
LINE
  5
A1
102
{ACAD_REACTORS
330
B1
102
}
100
AcDbEntity
  8
Z0_TOPCOMP
370
         5
  6
Continuous
 62
         6
100
AcDbLine
 10
16.9840923635
 20
28.5543602401
 30
0.0
 11
16.5032512484
 21
29.4311679853
 31
0.0
  0
LINE
  5
A2
102
{ACAD_REACTORS
330
B1
102
}
100
AcDbEntity
  8
Z0_TOPCOMP
370
         5
  6
Continuous
 62
         6
100
AcDbLine
 10
17.1511461434
 20
28.5746911802
 30
0.0
 11
17.1511461434
 21
28.5746911802
 31
0.0
  0
LINE
  5
A3
102
{ACAD_REACTORS
330
B1
102
}
100
AcDbEntity
  8
Z0_TOPCOMP
370
         5
  6
Continuous
 62
         6
100
AcDbLine
 10
16.6101998889
 20
29.5610998936
 30
0.0
 11
16.6101998889
 21
29.5610998936
 31
0.0
  0
LINE
  5
A4
102
{ACAD_REACTORS
330
B1
102
}
100
AcDbEntity
  8
Z0_TOPCOMP
370
         5
  6
Continuous
 62
         6
100
AcDbLine
 10
16.5032512484
 20
29.4311679853
 30
0.0
 11
16.5909320229
 21
29.4792520968
 31
0.0
  0
LINE
  5
A5
102
{ACAD_REACTORS
330
B1
102
}
100
AcDbEntity
  8
Z0_TOPCOMP
370
         5
  6
Continuous
 62
         6
100
AcDbLine
 10
16.647503583
 20
29.1681256617
 30
0.0
 11
16.839840029
 21
28.8174025636
 31
0.0
  0
LINE
  5
A6
102
{ACAD_REACTORS
330
B1
102
}
100
AcDbEntity
  8
Z0_TOPCOMP
370
         5
  6
Continuous
 62
         6
100
AcDbLine
 10
16.9107255859
 20
29.0130950528
 30
0.0
 11
16.9107255859
 21
29.0130950528
 31
0.0
  0
LINE
  5
A7
102
{ACAD_REACTORS
330
B1
102
}
100
AcDbEntity
  8
Z0_TOPCOMP
370
         5
  6
Continuous
 62
         6
100
AcDbLine
 10
17.191127814
 20
29.1126937625
 30
0.0
 11
17.2788085885
 21
29.160777874
 31
0.0
  0
LINE
  5
A8
102
{ACAD_REACTORS
330
B1
102
}
100
AcDbEntity
  8
Z0_TOPCOMP
370
         5
  6
Continuous
 62
         6
100
AcDbLine
 10
17.1730235432
 20
29.3536755779
 30
0.0
 11
17.0853427686
 21
29.3055914664
 31
0.0
  0
LINE
  5
A9
102
{ACAD_REACTORS
330
B1
102
}
100
AcDbEntity
  8
Z0_TOPCOMP
370
         5
  6
Continuous
 62
         6
100
AcDbLine
 10
17.2788085885
 20
29.160777874
 30
0.0
 11
17.1730235432
 21
29.3536755779
 31
0.0
  0
LINE
  5
AA
102
{ACAD_REACTORS
330
B1
102
}
100
AcDbEntity
  8
Z0_TOPCOMP
370
         5
  6
Continuous
 62
         6
100
AcDbLine
 10
17.1412426914
 20
28.9826916969
 30
0.0
 11
17.1960431755
 21
29.0127442666
 31
0.0
  0
LINE
  5
AB
102
{ACAD_REACTORS
330
B1
102
}
100
AcDbEntity
  8
Z0_TOPCOMP
370
         5
  6
Continuous
 62
         6
100
AcDbLine
 10
16.9489062454
 20
29.333414795
 30
0.0
 11
17.1412426914
 21
28.9826916969
 31
0.0
  0
LINE
  5
AC
102
{ACAD_REACTORS
330
B1
102
}
100
AcDbEntity
  8
Z0_TOPCOMP
370
         5
  6
Continuous
 62
         6
100
AcDbLine
 10
17.0037067294
 20
29.3634673647
 30
0.0
 11
16.9489062454
 21
29.333414795
 31
0.0
  0
LINE
  5
AD
102
{ACAD_REACTORS
330
B1
102
}
100
AcDbEntity
  8
Z0_TOPCOMP
370
         5
  6
Continuous
 62
         6
100
AcDbLine
 10
17.1960431755
 20
29.0127442666
 30
0.0
 11
17.0037067294
 21
29.3634673647
 31
0.0
  0
LINE
  5
AE
102
{ACAD_REACTORS
330
B1
102
}
100
AcDbEntity
  8
Z0_TOPCOMP
370
         5
  6
Continuous
 62
         6
100
AcDbLine
 10
17.0853427686
 20
29.3055914664
 30
0.0
 11
17.191127814
 21
29.1126937625
 31
0.0
  0
LINE
  5
AF
102
{ACAD_REACTORS
330
B1
102
}
100
AcDbEntity
  8
Z0_TOPCOMP
370
         5
  6
Continuous
 62
         6
100
AcDbLine
 10
17.2344035143
 20
29.0337810654
 30
0.0
 11
17.0420670683
 21
29.3845041635
 31
0.0
  0
LINE
  5
B0
102
{ACAD_REACTORS
330
B1
102
}
100
AcDbEntity
  8
Z0_TOPCOMP
370
         5
  6
Continuous
 62
         6
100
AcDbLine
 10
16.6101998889
 20
29.5610998936
 30
0.0
 11
16.6101998889
 21
29.5610998936
 31
0.0
  0
CIRCLE
  5
B2
100
AcDbEntity
  8
Z0_CUT500
370
        25
  6
Continuous
 62
         5
100
AcDbCircle
 10
17.475
 20
28.2960921922
 30
0.0
 40
0.0825
  0
CIRCLE
  5
B3
100
AcDbEntity
  8
Z0_TOPCOMP
370
        25
  6
Continuous
 62
         6
100
AcDbCircle
 10
16.5493808534
 20
29.9839471017
 30
0.0
 40
0.35
  0
ARC
  5
B4
102
{ACAD_REACTORS
330
BF
102
}
100
AcDbEntity
  8
Z0_BOTCOMP
370
        25
  6
Continuous
 62
         4
100
AcDbCircle
 10
16.5493808534
 20
29.9839471017
 30
0.0
 40
0.285
100
AcDbArc
 50
15.4320713506
 51
90.0
  0
ARC
  5
B5
102
{ACAD_REACTORS
330
BF
102
}
100
AcDbEntity
  8
Z0_BOTCOMP
370
        25
  6
Continuous
 62
         4
100
AcDbCircle
 10
16.5493808534
 20
29.9839471017
 30
0.0
 40
0.285
100
AcDbArc
 50
-104.5679286494
 51
-30.0
  0
ARC
  5
B6
102
{ACAD_REACTORS
330
BF
102
}
100
AcDbEntity
  8
Z0_BOTCOMP
370
        25
  6
Continuous
 62
         4
100
AcDbCircle
 10
16.5493808534
 20
29.9839471017
 30
0.0
 40
0.285
100
AcDbArc
 50
135.4320713506
 51
-150.0
  0
LINE
  5
B7
102
{ACAD_REACTORS
330
BF
102
}
100
AcDbEntity
  8
Z0_BOTCOMP
370
        25
  6
Continuous
 62
         4
100
AcDbLine
 10
16.7961980935
 20
29.8414471017
 30
0.0
 11
16.7225859342
 21
29.8839471017
 31
0.0
  0
LINE
  5
B8
102
{ACAD_REACTORS
330
BF
102
}
100
AcDbEntity
  8
Z0_BOTCOMP
370
        25
  6
Continuous
 62
         4
100
AcDbLine
 10
16.7225859342
 20
29.8839471017
 30
0.0
 11
16.8241056367
 21
30.0597843845
 31
0.0
  0
LINE
  5
B9
102
{ACAD_REACTORS
330
BF
102
}
100
AcDbEntity
  8
Z0_BOTCOMP
370
        25
  6
Continuous
 62
         4
100
AcDbLine
 10
16.3025636133
 20
29.8414471017
 30
0.0
 11
16.3761757726
 21
29.8839471017
 31
0.0
  0
LINE
  5
BA
102
{ACAD_REACTORS
330
BF
102
}
100
AcDbEntity
  8
Z0_BOTCOMP
370
        25
  6
Continuous
 62
         4
100
AcDbLine
 10
16.3761757726
 20
29.8839471017
 30
0.0
 11
16.4776954752
 21
29.708109819
 31
0.0
  0
LINE
  5
BB
102
{ACAD_REACTORS
330
BF
102
}
100
AcDbEntity
  8
Z0_BOTCOMP
370
        25
  6
Continuous
 62
         4
100
AcDbLine
 10
16.5493808534
 20
30.1839471017
 30
0.0
 11
16.3463414484
 21
30.1839471017
 31
0.0
  0
LINE
  5
BC
102
{ACAD_REACTORS
330
BF
102
}
100
AcDbEntity
  8
Z0_BOTCOMP
370
        25
  6
Continuous
 62
         4
100
AcDbLine
 10
16.5493808534
 20
30.2689471017
 30
0.0
 11
16.5493808534
 21
30.1839471017
 31
0.0
  0
CIRCLE
  5
BD
102
{ACAD_REACTORS
330
BF
102
}
100
AcDbEntity
  8
Z0_BOTCOMP
370
        25
  6
Continuous
 62
         4
100
AcDbCircle
 10
16.5493808534
 20
29.9839471017
 30
0.0
 40
0.059
  0
CIRCLE
  5
BE
102
{ACAD_REACTORS
330
BF
102
}
100
AcDbEntity
  8
Z0_BOTCOMP
370
        25
  6
Continuous
 62
         4
100
AcDbCircle
 10
16.5493808534
 20
29.9839471017
 30
0.0
 40
0.085
  0
CIRCLE
  5
C0
100
AcDbEntity
  8
Z0_CUT500
370
        25
  6
Continuous
 62
         5
100
AcDbCircle
 10
16.5493808534
 20
29.9839471017
 30
0.0
 40
0.0825
  0
CIRCLE
  5
C1
102
{ACAD_REACTORS
330
C3
102
}
100
AcDbEntity
  8
Z0_RUBBER
370
        25
  6
Continuous
 62
         2
100
AcDbCircle
 10
16.5493808534
 20
29.9839471017
 30
0.0
 40
0.4
  0
CIRCLE
  5
C2
102
{ACAD_REACTORS
330
C3
102
}
100
AcDbEntity
  8
Z0_RUBBER
370
        25
  6
Continuous
 62
         2
100
AcDbCircle
 10
16.5493808534
 20
29.9839471017
 30
0.0
 40
0.215
  0
ARC
  5
C4
102
{ACAD_REACTORS
330
CF
102
}
100
AcDbEntity
  8
Z0_BOTCOMP
370
        25
  6
Continuous
 62
         4
100
AcDbCircle
 10
17.475
 20
28.2960921922
 30
0.0
 40
0.285
100
AcDbArc
 50
15.4320713506
 51
90.0
  0
ARC
  5
C5
102
{ACAD_REACTORS
330
CF
102
}
100
AcDbEntity
  8
Z0_BOTCOMP
370
        25
  6
Continuous
 62
         4
100
AcDbCircle
 10
17.475
 20
28.2960921922
 30
0.0
 40
0.285
100
AcDbArc
 50
-104.5679286494
 51
-30.0
  0
ARC
  5
C6
102
{ACAD_REACTORS
330
CF
102
}
100
AcDbEntity
  8
Z0_BOTCOMP
370
        25
  6
Continuous
 62
         4
100
AcDbCircle
 10
17.475
 20
28.2960921922
 30
0.0
 40
0.285
100
AcDbArc
 50
135.4320713506
 51
-150.0
  0
LINE
  5
C7
102
{ACAD_REACTORS
330
CF
102
}
100
AcDbEntity
  8
Z0_BOTCOMP
370
        25
  6
Continuous
 62
         4
100
AcDbLine
 10
17.7218172401
 20
28.1535921922
 30
0.0
 11
17.6482050808
 21
28.1960921922
 31
0.0
  0
LINE
  5
C8
102
{ACAD_REACTORS
330
CF
102
}
100
AcDbEntity
  8
Z0_BOTCOMP
370
        25
  6
Continuous
 62
         4
100
AcDbLine
 10
17.6482050808
 20
28.1960921922
 30
0.0
 11
17.7497247833
 21
28.371929475
 31
0.0
  0
LINE
  5
C9
102
{ACAD_REACTORS
330
CF
102
}
100
AcDbEntity
  8
Z0_BOTCOMP
370
        25
  6
Continuous
 62
         4
100
AcDbLine
 10
17.2281827599
 20
28.1535921922
 30
0.0
 11
17.3017949192
 21
28.1960921922
 31
0.0
  0
LINE
  5
CA
102
{ACAD_REACTORS
330
CF
102
}
100
AcDbEntity
  8
Z0_BOTCOMP
370
        25
  6
Continuous
 62
         4
100
AcDbLine
 10
17.3017949192
 20
28.1960921922
 30
0.0
 11
17.4033146218
 21
28.0202549095
 31
0.0
  0
LINE
  5
CB
102
{ACAD_REACTORS
330
CF
102
}
100
AcDbEntity
  8
Z0_BOTCOMP
370
        25
  6
Continuous
 62
         4
100
AcDbLine
 10
17.475
 20
28.4960921922
 30
0.0
 11
17.271960595
 21
28.4960921922
 31
0.0
  0
LINE
  5
CC
102
{ACAD_REACTORS
330
CF
102
}
100
AcDbEntity
  8
Z0_BOTCOMP
370
        25
  6
Continuous
 62
         4
100
AcDbLine
 10
17.475
 20
28.5810921922
 30
0.0
 11
17.475
 21
28.4960921922
 31
0.0
  0
CIRCLE
  5
CD
102
{ACAD_REACTORS
330
CF
102
}
100
AcDbEntity
  8
Z0_BOTCOMP
370
        25
  6
Continuous
 62
         4
100
AcDbCircle
 10
17.475
 20
28.2960921922
 30
0.0
 40
0.059
  0
CIRCLE
  5
CE
102
{ACAD_REACTORS
330
CF
102
}
100
AcDbEntity
  8
Z0_BOTCOMP
370
        25
  6
Continuous
 62
         4
100
AcDbCircle
 10
17.475
 20
28.2960921922
 30
0.0
 40
0.085
  0
ENDSEC
  0
SECTION
  2
OBJECTS
  0
DICTIONARY
  5
19
100
AcDbDictionary
280
         0
281
         1
  3
ACAD_GROUP
350
1A
  3
ACAD_MLINESTYLE
350
1B
  3
ACAD_LAYOUT
350
1E
  3
ACAD_PLOTSETTINGS
350
22
  3
ACAD_PLOTSTYLENAME
350
1F
  3
ACAD_WIPEOUT_VARS
350
23
  0
DICTIONARY
  5
1A
102
{ACAD_REACTORS
330
19
102
}
100
AcDbDictionary
280
         0
281
         1
  3
VELLUMGRP1
350
5B
  3
VELLUMGRP2
350
60
  3
VELLUMGRP3
350
75
  3
VELLUMGRP4
350
83
  3
VELLUMGRP5
350
87
  3
VELLUMGRP6
350
93
  3
VELLUMGRP7
350
97
  3
VELLUMGRP8
350
9C
  3
VELLUMGRP9
350
B1
  3
VELLUMGRP10
350
BF
  3
VELLUMGRP11
350
C3
  3
VELLUMGRP12
350
CF
  0
DICTIONARY
  5
1B
102
{ACAD_REACTORS
330
19
102
}
100
AcDbDictionary
280
         0
281
         1
  3
Standard
350
1C
  0
MLINESTYLE
  5
1C
102
{ACAD_REACTORS
330
1B
102
}
100
AcDbMlineStyle
  2
Standard
 70
         0
  3

 62
         0
 51
90.0
 52
90.0
 71
         2
 49
0.5
 62
       256
  6
BYLAYER
 49
-0.5
 62
       256
  6
BYLAYER
  0
ACDBDICTIONARYWDFLT
  5
1F
102
{ACAD_REACTORS
330
19
102
}
100
AcDbDictionary
281
         1
  3
Normal
350
1D
100
AcDbDictionaryWithDefault
340
1D
  0
ACDBPLACEHOLDER
  5
1D
102
{ACAD_REACTORS
330
1F
102
}
  0
LAYOUT
  5
20
102
{ACAD_REACTORS
330
1E
102
}
100
AcDbPlotSettings
  1

  2

  4

  6

 40
0.0
 41
0.0
 42
0.0
 43
0.0
 44
0.0
 45
0.0
 46
0.0
 47
0.0
 48
0.0
 49
0.0
140
0.0
141
0.0
142
1.0
143
1.0
 70
      1024
 72
         0
 73
         0
 74
         0
  7

 75
         0
147
1.0
148
0.0
149
0.0
100
AcDbLayout
  1
Model
 70
         0
 71
         0
 10
0.0
 20
0.0
 11
0.0
 21
0.0
 12
0.0
 22
0.0
 32
0.0
 14
0.0
 24
0.0
 34
0.0
 15
0.0
 25
0.0
 35
0.0
146
0.0
 13
0.0
 23
0.0
 33
0.0
 16
0.0
 26
0.0
 36
0.0
 17
0.0
 27
0.0
 37
0.0
 76
         0
330
A
331
0
345
0
346
0
  0
LAYOUT
  5
21
102
{ACAD_REACTORS
330
1E
102
}
100
AcDbPlotSettings
  1

  2

  4

  6

 40
0.0
 41
0.0
 42
0.0
 43
0.0
 44
0.0
 45
0.0
 46
0.0
 47
0.0
 48
0.0
 49
0.0
140
0.0
141
0.0
142
1.0
143
1.0
 70
         0
 72
         0
 73
         0
 74
         0
  7

 75
         0
147
1.0
148
0.0
149
0.0
100
AcDbLayout
  1
Layout1
 70
         0
 71
         0
 10
0.0
 20
0.0
 11
0.0
 21
0.0
 12
0.0
 22
0.0
 32
0.0
 14
0.0
 24
0.0
 34
0.0
 15
0.0
 25
0.0
 35
0.0
146
0.0
 13
0.0
 23
0.0
 33
0.0
 16
0.0
 26
0.0
 36
0.0
 17
0.0
 27
0.0
 37
0.0
 76
         0
330
B
331
0
345
0
346
0
  0
DICTIONARY
  5
1E
102
{ACAD_REACTORS
330
19
102
}
100
AcDbDictionary
280
         0
281
         1
  3
Layout1
350
21
  3
Model
350
20
  0
DICTIONARY
  5
22
102
{ACAD_REACTORS
330
19
102
}
100
AcDbDictionary
280
         0
281
         1
  0
WIPEOUTVARIABLES
  5
23
100
AcDbWipeoutVariables
 70
         1
  0
GROUP
  5
5B
102
{ACAD_XDICTIONARY
360
5CEB210060EB2100
102
}
102
{ACAD_REACTORS
330
1A
102
}
100
AcDbGroup
300
This is Vellum Group Number 1
 70
         0
 71
         1
340
59
340
5A
  0
GROUP
  5
60
102
{ACAD_XDICTIONARY
360
3207917C60EB2100
102
}
102
{ACAD_REACTORS
330
1A
102
}
100
AcDbGroup
300
This is Vellum Group Number 2
 70
         0
 71
         1
340
5C
340
5D
340
5E
340
5F
  0
GROUP
  5
75
102
{ACAD_XDICTIONARY
360
3207917C60EB2100
102
}
102
{ACAD_REACTORS
330
1A
102
}
100
AcDbGroup
300
This is Vellum Group Number 3
 70
         0
 71
         1
340
61
340
62
340
63
340
64
340
65
340
66
340
67
340
68
340
69
340
6A
340
6B
340
6C
340
6D
340
6E
340
6F
340
70
340
71
340
72
340
73
340
74
  0
GROUP
  5
83
102
{ACAD_XDICTIONARY
360
3207917C60EB2100
102
}
102
{ACAD_REACTORS
330
1A
102
}
100
AcDbGroup
300
This is Vellum Group Number 4
 70
         0
 71
         1
340
78
340
79
340
7A
340
7B
340
7C
340
7D
340
7E
340
7F
340
80
340
81
340
82
  0
GROUP
  5
87
102
{ACAD_XDICTIONARY
360
3207917C60EB2100
102
}
102
{ACAD_REACTORS
330
1A
102
}
100
AcDbGroup
300
This is Vellum Group Number 5
 70
         0
 71
         1
340
85
340
86
  0
GROUP
  5
93
102
{ACAD_XDICTIONARY
360
3207917C60EB2100
102
}
102
{ACAD_REACTORS
330
1A
102
}
100
AcDbGroup
300
This is Vellum Group Number 6
 70
         0
 71
         1
340
88
340
89
340
8A
340
8B
340
8C
340
8D
340
8E
340
8F
340
90
340
91
340
92
  0
GROUP
  5
97
102
{ACAD_XDICTIONARY
360
3207917C60EB2100
102
}
102
{ACAD_REACTORS
330
1A
102
}
100
AcDbGroup
300
This is Vellum Group Number 7
 70
         0
 71
         1
340
95
340
96
  0
GROUP
  5
9C
102
{ACAD_XDICTIONARY
360
3207917C60EB2100
102
}
102
{ACAD_REACTORS
330
1A
102
}
100
AcDbGroup
300
This is Vellum Group Number 8
 70
         0
 71
         1
340
98
340
99
340
9A
340
9B
  0
GROUP
  5
B1
102
{ACAD_XDICTIONARY
360
3207917C60EB2100
102
}
102
{ACAD_REACTORS
330
1A
102
}
100
AcDbGroup
300
This is Vellum Group Number 9
 70
         0
 71
         1
340
9D
340
9E
340
9F
340
A0
340
A1
340
A2
340
A3
340
A4
340
A5
340
A6
340
A7
340
A8
340
A9
340
AA
340
AB
340
AC
340
AD
340
AE
340
AF
340
B0
  0
GROUP
  5
BF
102
{ACAD_XDICTIONARY
360
3207917C60EB2100
102
}
102
{ACAD_REACTORS
330
1A
102
}
100
AcDbGroup
300
This is Vellum Group Number 10
 70
         0
 71
         1
340
B4
340
B5
340
B6
340
B7
340
B8
340
B9
340
BA
340
BB
340
BC
340
BD
340
BE
  0
GROUP
  5
C3
102
{ACAD_XDICTIONARY
360
3207917C60EB2100
102
}
102
{ACAD_REACTORS
330
1A
102
}
100
AcDbGroup
300
This is Vellum Group Number 11
 70
         0
 71
         1
340
C1
340
C2
  0
GROUP
  5
CF
102
{ACAD_XDICTIONARY
360
3207917C60EB2100
102
}
102
{ACAD_REACTORS
330
1A
102
}
100
AcDbGroup
300
This is Vellum Group Number 12
 70
         0
 71
         1
340
C4
340
C5
340
C6
340
C7
340
C8
340
C9
340
CA
340
CB
340
CC
340
CD
340
CE
  0
ENDSEC
  0
EOF
