  0
SECTION
  2
HEADER
  9
$ACADVER
  1
AC1015
  9
$ACADMAINTVER
 70
         6
  9
$DWGCODEPAGE
  3
ANSI_1252
  9
$INSBASE
 10
0.0
 20
0.0
 30
0.0
  9
$EXTMIN
 10
-0.93969262
 20
-0.98480775
 30
0.0
  9
$EXTMAX
 10
13.0
 20
12.98480775
 30
0.0
  9
$LIMMIN
 10
0.0
 20
0.0
  9
$LIMMAX
 10
0.0
 20
0.0
  9
$ORTHOMODE
 70
         0
  9
$REGENMODE
 70
         1
  9
$FILLMODE
 70
         1
  9
$QTEXTMODE
 70
         0
  9
$MIRRTEXT
 70
         1
  9
$LTSCALE
 40
5.0
  9
$ATTMODE
 70
         1
  9
$TEXTSIZE
 40
0.2
  9
$TRACEWID
 40
0.05
  9
$TEXTSTYLE
  7
Standard
  9
$CLAYER
  8
0
  9
$CELTYPE
  6
Continuous
  9
$CECOLOR
 62
       256
  9
$CELTSCALE
 40
1.0
  9
$DISPSILH
 70
         0
  9
$DIMSCALE
 40
1.0
  9
$DIMASZ
 40
0.18
  9
$DIMEXO
 40
0.0625
  9
$DIMDLI
 40
0.38
  9
$DIMRND
 40
0.0
  9
$DIMDLE
 40
0.0
  9
$DIMEXE
 40
0.18
  9
$DIMTP
 40
0.0
  9
$DIMTM
 40
0.0
  9
$DIMTXT
 40
0.18
  9
$DIMCEN
 40
0.09
  9
$DIMTSZ
 40
0.0
  9
$DIMTOL
 70
         0
  9
$DIMLIM
 70
         0
  9
$DIMTIH
 70
         1
  9
$DIMTOH
 70
         1
  9
$DIMSE1
 70
         0
  9
$DIMSE2
 70
         0
  9
$DIMTAD
 70
         0
  9
$DIMZIN
 70
         0
  9
$DIMBLK
  1

  9
$DIMASO
 70
         1
  9
$DIMSHO
 70
         1
  9
$DIMPOST
  1

  9
$DIMAPOST
  1

  9
$DIMALT
 70
         0
  9
$DIMALTD
 70
         2
  9
$DIMALTF
 40
25.4
  9
$DIMLFAC
 40
1.0
  9
$DIMTOFL
 70
         0
  9
$DIMTVP
 40
0.0
  9
$DIMTIX
 70
         0
  9
$DIMSOXD
 70
         0
  9
$DIMSAH
 70
         0
  9
$DIMBLK1
  1

  9
$DIMBLK2
  1

  9
$DIMSTYLE
  2
Standard
  9
$DIMCLRD
 70
         0
  9
$DIMCLRE
 70
         0
  9
$DIMCLRT
 70
         0
  9
$DIMTFAC
 40
1.0
  9
$DIMGAP
 40
0.09
  9
$DIMJUST
 70
         0
  9
$DIMSD1
 70
         0
  9
$DIMSD2
 70
         0
  9
$DIMTOLJ
 70
         1
  9
$DIMTZIN
 70
         0
  9
$DIMALTZ
 70
         0
  9
$DIMALTTZ
 70
         0
  9
$DIMUPT
 70
         0
  9
$DIMDEC
 70
         4
  9
$DIMTDEC
 70
         4
  9
$DIMALTU
 70
         2
  9
$DIMALTTD
 70
         2
  9
$DIMTXSTY
  7
Standard
  9
$DIMAUNIT
 70
         0
  9
$DIMADEC
 70
         0
  9
$DIMALTRND
 40
0.0
  9
$DIMAZIN
 70
         0
  9
$DIMDSEP
 70
         0
  9
$DIMATFIT
 70
         3
  9
$DIMFRAC
 70
         0
  9
$DIMLDRBLK
  1

  9
$DIMLUNIT
 70
         2
  9
$DIMLWD
 70
         0
  9
$DIMLWE
 70
         0
  9
$DIMTMOVE
 70
         0
  9
$LUNITS
 70
         2
  9
$LUPREC
 70
         4
  9
$SKETCHINC
 40
0.1
  9
$FILLETRAD
 40
0.0
  9
$AUNITS
 70
         0
  9
$AUPREC
 70
         0
  9
$MENU
  1
acad
  9
$ELEVATION
 40
0.0
  9
$PELEVATION
 40
0.0
  9
$THICKNESS
 40
0.0
  9
$LIMCHECK
 70
         0
  9
$CHAMFERA
 40
0.0
  9
$CHAMFERB
 40
0.0
  9
$CHAMFERC
 40
0.0
  9
$CHAMFERD
 40
0.0
  9
$SKPOLY
 70
         0
  9
$TDCREATE
 40
2460905.761504630
  9
$TDUCREATE
 40
0.000000000
  9
$TDUPDATE
 40
2460905.761504630
  9
$TDUUPDATE
 40
0.000000000
  9
$TDINDWG
 40
0.0000000000
  9
$TDUSRTIMER
 40
0.0000000000
  9
$USRTIMER
 70
         1
  9
$ANGBASE
 50
0.0
  9
$ANGDIR
 70
         0
  9
$PDMODE
 70
         0
  9
$PDSIZE
 40
0.0
  9
$PLINEWID
 40
0.0
  9
$SPLFRAME
 70
         0
  9
$SPLINETYPE
 70
         6
  9
$SPLINESEGS
 70
         8
  9
$HANDSEED
  5
155
  9
$SURFTAB1
 70
         6
  9
$SURFTAB2
 70
         6
  9
$SURFTYPE
 70
         6
  9
$SURFU
 70
         6
  9
$SURFV
 70
         6
  9
$UCSBASE
  2

  9
$UCSNAME
  2

  9
$UCSORG
 10
0.0
 20
0.0
 30
0.0
  9
$UCSXDIR
 10
1.0
 20
0.0
 30
0.0
  9
$UCSYDIR
 10
0.0
 20
1.0
 30
0.0
  9
$UCSORTHOREF
  2

  9
$UCSORTHOVIEW
 70
         0
  9
$UCSORGTOP
 10
0.0
 20
0.0
 30
0.0
  9
$UCSORGBOTTOM
 10
0.0
 20
0.0
 30
0.0
  9
$UCSORGLEFT
 10
0.0
 20
0.0
 30
0.0
  9
$UCSORGRIGHT
 10
0.0
 20
0.0
 30
0.0
  9
$UCSORGFRONT
 10
0.0
 20
0.0
 30
0.0
  9
$UCSORGBACK
 10
0.0
 20
0.0
 30
0.0
  9
$PUCSBASE
  2

  9
$PUCSNAME
  2

  9
$PUCSORG
 10
0.0
 20
0.0
 30
0.0
  9
$PUCSXDIR
 10
1.0
 20
0.0
 30
0.0
  9
$PUCSYDIR
 10
0.0
 20
1.0
 30
0.0
  9
$PUCSORTHOREF
  2

  9
$PUCSORTHOVIEW
 70
         0
  9
$PUCSORGTOP
 10
0.0
 20
0.0
 30
0.0
  9
$PUCSORGBOTTOM
 10
0.0
 20
0.0
 30
0.0
  9
$PUCSORGLEFT
 10
0.0
 20
0.0
 30
0.0
  9
$PUCSORGRIGHT
 10
0.0
 20
0.0
 30
0.0
  9
$PUCSORGFRONT
 10
0.0
 20
0.0
 30
0.0
  9
$PUCSORGBACK
 10
0.0
 20
0.0
 30
0.0
  9
$USERI1
 70
         0
  9
$USERI2
 70
         0
  9
$USERI3
 70
         0
  9
$USERI4
 70
         0
  9
$USERI5
 70
         0
  9
$USERR1
 40
0.0
  9
$USERR2
 40
0.0
  9
$USERR3
 40
0.0
  9
$USERR4
 40
0.0
  9
$USERR5
 40
0.0
  9
$WORLDVIEW
 70
         1
  9
$SHADEDGE
 70
         3
  9
$SHADEDIF
 70
        70
  9
$TILEMODE
 70
         1
  9
$MAXACTVP
 70
        16
  9
$PINSBASE
 10
0.0
 20
0.0
 30
0.0
  9
$PLIMCHECK
 70
         0
  9
$PEXTMIN
 10
1.0000000000E+20
 20
1.0000000000E+20
 30
1.0000000000E+20
  9
$PEXTMAX
 10
-1.0000000000E+20
 20
-1.0000000000E+20
 30
-1.0000000000E+20
  9
$PLIMMIN
 10
0.0
 20
0.0
  9
$PLIMMAX
 10
12.0
 20
9.0
  9
$UNITMODE
 70
         0
  9
$VISRETAIN
 70
         0
  9
$PLINEGEN
 70
         1
  9
$PSLTSCALE
 70
         0
  9
$TREEDEPTH
 70
      3020
  9
$CMLSTYLE
  2
Standard
  9
$CMLJUST
 70
         0
  9
$CMLSCALE
 40
1.0
  9
$PROXYGRAPHICS
 70
         0
  9
$MEASUREMENT
 70
         0
  9
$CELWEIGHT
370
         0
  9
$ENDCAPS
280
         0
  9
$JOINSTYLE
280
         0
  9
$LWDISPLAY
290
         0
  9
$INSUNITS
 70
         0
  9
$HYPERLINKBASE
  1

  9
$XEDIT
290
         1
  9
$CEPSNTYPE
380
         0
  9
$PSTYLEMODE
290
         1
  9
$FINGERPRINTGUID
  2

  9
$VERSIONGUID
  2

  9
$EXTNAMES
290
         1
  9
$PSVPSCALE
 40
0.0
  0
ENDSEC
  0
SECTION
  2
CLASSES
  0
CLASS
  1
LWPOLYLINE
  2
AcDbPolyline
  3
AutoCAD 2000
 90
    32768
280
         0
281
         1
  0
CLASS
  1
IMAGE
  2
AcDbRasterImage
  3
ISM
 90
    32895
280
         0
281
         1
  0
CLASS
  1
OLE2FRAME
  2
AcDbOle2Frame
  3
AutoCAD 2000
 90
    32768
280
         0
281
         1
  0
CLASS
  1
HATCH
  2
AcDbHatch
  3
AutoCAD 2000
 90
    32768
280
         0
281
         1
  0
CLASS
  1
DICTIONARYVAR
  2
AcDbDictionaryVar
  3
AutoCAD 2000
 90
    32768
280
         0
281
         0
  0
CLASS
  1
RASTERVARIABLES
  2
AcDbRasterVariables
  3
ISM
 90
    32768
280
         0
281
         0
  0
CLASS
  1
IMAGEDEF
  2
AcDbRasterImageDef
  3
ISM
 90
    32768
280
         0
281
         0
  0
CLASS
  1
IMAGEDEF_REACTOR
  2
AcDbRasterImageDefReactor
  3
ISM
 90
    32769
280
         0
281
         0
  0
CLASS
  1
IDBUFFER
  2
AcDbIdBuffer
  3
AutoCAD 2000
 90
    32768
280
         0
281
         0
  0
CLASS
  1
SPATIAL_FILTER
  2
AcDbSpatialFilter
  3
AutoCAD 2000
 90
    32768
280
         0
281
         0
  0
CLASS
  1
XRECORD
  2
AcDbXrecord
  3
AutoCAD 2000
 90
    32768
280
         0
281
         0
  0
CLASS
  1
SORTENTSTABLE
  2
AcDbSortentsTable
  3
AutoCAD 2000
 90
    32768
280
         0
281
         0
  0
CLASS
  1
LAYER_INDEX
  2
AcDbLayerIndex
  3
AutoCAD 2000
 90
    32768
280
         0
281
         0
  0
CLASS
  1
SPATIAL_INDEX
  2
AcDbSpatialIndex
  3
AutoCAD 2000
 90
    32768
280
         0
281
         0
  0
CLASS
  1
OBJECT_PTR
  2
CAseDLPNTableRecord
  3
"ASE-LPNTableRecord"
 90
    32769
280
         0
281
         0
  0
CLASS
  1
LAYOUT
  2
AcDbLayout
  3
AutoCAD 2000
 90
        0
280
         0
281
         0
  0
CLASS
  1
PLOTSETTINGS
  2
AcDbPlotSettings
  3
AutoCAD 2000
 90
    32768
280
         0
281
         0
  0
CLASS
  1
ACDBDICTIONARYWDFLT
  2
AcDbDictionaryWithDefault
  3
AutoCAD 2000
 90
        0
280
         0
281
         0
  0
CLASS
  1
ACDBPLACEHOLDER
  2
AcDbPlaceHolder
  3
AutoCAD 2000
 90
        0
280
         0
281
         0
  0
CLASS
  1
VBA_PROJECT
  2
AcDbVbaProject
  3
acadvba
 90
    32768
280
         0
281
         0
  0
CLASS
  1
WIPEOUT
  2
AcDbWipeout
  3
WipeOut|AutoCAD Express Tool|expresstools@autodesk.com
 90
    32895
280
         0
281
         1
  0
CLASS
  1
WIPEOUTVARIABLES
  2
AcDbWipeoutVariables
  3
WipeOut|AutoCAD Express Tool|expresstools@autodesk.com
 90
        0
280
         0
281
         0
  0
CLASS
  1
RTEXT
  2
RText
  3
RText|AutoCAD Express Tool|expresstools@autodesk.com
 90
    32768
280
         0
281
         1
  0
CLASS
  1
ARCALIGNEDTEXT
  2
AcDbArcAlignedText
  3
ATEXT|AutoCAD Express Tool|expresstools@autodesk.com
 90
    32768
280
         0
281
         1
  0
ENDSEC
  0
SECTION
  2
TABLES
  0
TABLE
  2
VPORT
  5
7
100
AcDbSymbolTable
 70
         1
  0
VPORT
  5
15
100
AcDbSymbolTableRecord
100
AcDbViewportTableRecord
  2
*ACTIVE
 70
         0
 10
0.0
 20
0.0
 11
1.0
 21
1.0
 12
6.591288
 22
4.579184
 13
0.0
 23
0.0
 14
1.0
 24
1.0
 15
0.0
 25
0.0
 16
0.0
 26
0.0
 36
1.0
 17
0.0
 27
0.0
 37
0.0
 40
9.158369
 41
0.688564
 42
50.0
 43
0.0
 44
0.0
 50
0.0
 51
0.0
 71
         0
 72
       100
 73
         1
 74
         1
 75
         0
 76
         0
 77
         0
 78
         0
281
         0
 65
         0
110
0.0
120
0.0
130
0.0
111
1.0
121
0.0
131
0.0
112
0.0
122
1.0
132
0.0
345
0
346
0
 79
         0
146
0.0
  0
ENDTAB
  0
TABLE
  2
LTYPE
  5
4
100
AcDbSymbolTable
 70
        13
  0
LTYPE
  5
11
100
AcDbSymbolTableRecord
100
AcDbLinetypeTableRecord
  2
ByBlock
 70
        64
  3

 72
        65
 73
         0
 40
0.0
  0
LTYPE
  5
12
100
AcDbSymbolTableRecord
100
AcDbLinetypeTableRecord
  2
ByLayer
 70
        64
  3

 72
        65
 73
         0
 40
0.0
  0
LTYPE
  5
13
100
AcDbSymbolTableRecord
100
AcDbLinetypeTableRecord
  2
Continuous
 70
        64
  3
Solid line
 72
        65
 73
         0
 40
0.0
  0
LTYPE
  5
25
100
AcDbSymbolTableRecord
100
AcDbLinetypeTableRecord
  2
Dotted
 70
        64
  3
Dotted
 72
        65
 73
         2
 40
0.125
 49
0.0
 74
         0
 49
-0.125
 74
         0
  0
LTYPE
  5
26
100
AcDbSymbolTableRecord
100
AcDbLinetypeTableRecord
  2
Center
 70
        64
  3
Center
 72
        65
 73
         4
 40
0.7699999809
 49
0.5
 74
         0
 49
-0.0724999979
 74
         0
 49
0.125
 74
         0
 49
-0.0724999979
 74
         0
  0
LTYPE
  5
27
100
AcDbSymbolTableRecord
100
AcDbLinetypeTableRecord
  2
Dashed
 70
        64
  3
Dashed
 72
        65
 73
         2
 40
0.375
 49
0.25
 74
         0
 49
-0.125
 74
         0
  0
LTYPE
  5
28
100
AcDbSymbolTableRecord
100
AcDbLinetypeTableRecord
  2
Hidden
 70
        64
  3
Hidden
 72
        65
 73
         2
 40
0.1974999905
 49
0.125
 74
         0
 49
-0.0724999979
 74
         0
  0
LTYPE
  5
29
100
AcDbSymbolTableRecord
100
AcDbLinetypeTableRecord
  2
Phantom
 70
        64
  3
Phantom
 72
        65
 73
         6
 40
0.9674999714
 49
0.5
 74
         0
 49
-0.0724999979
 74
         0
 49
0.125
 74
         0
 49
-0.0724999979
 74
         0
 49
0.125
 74
         0
 49
-0.0724999979
 74
         0
  0
LTYPE
  5
2A
100
AcDbSymbolTableRecord
100
AcDbLinetypeTableRecord
  2
Dashdot
 70
        64
  3
Dashdot
 72
        65
 73
         4
 40
0.6762499809
 49
0.5
 74
         0
 49
-0.0724999979
 74
         0
 49
0.03125
 74
         0
 49
-0.0724999979
 74
         0
  0
LTYPE
  5
2B
100
AcDbSymbolTableRecord
100
AcDbLinetypeTableRecord
  2
Border
 70
        64
  3
Border
 72
        65
 73
         6
 40
1.2487499714
 49
0.5
 74
         0
 49
-0.0724999979
 74
         0
 49
0.5
 74
         0
 49
-0.0724999979
 74
         0
 49
0.03125
 74
         0
 49
-0.0724999979
 74
         0
  0
LTYPE
  5
2C
100
AcDbSymbolTableRecord
100
AcDbLinetypeTableRecord
  2
Divide
 70
        64
  3
Divide
 72
        65
 73
         6
 40
0.7799999714
 49
0.5
 74
         0
 49
-0.0724999979
 74
         0
 49
0.03125
 74
         0
 49
-0.0724999979
 74
         0
 49
0.03125
 74
         0
 49
-0.0724999979
 74
         0
  0
LTYPE
  5
2D
100
AcDbSymbolTableRecord
100
AcDbLinetypeTableRecord
  2
Cutting
 70
        64
  3
Cutting
 72
        65
 73
         6
 40
1.4674999714
 49
1.0
 74
         0
 49
-0.0724999979
 74
         0
 49
0.125
 74
         0
 49
-0.0724999979
 74
         0
 49
0.125
 74
         0
 49
-0.0724999979
 74
         0
  0
LTYPE
  5
2E
100
AcDbSymbolTableRecord
100
AcDbLinetypeTableRecord
  2
Stitch
 70
        64
  3
Stitch
 72
        65
 73
         2
 40
0.1449999958
 49
0.0724999979
 74
         0
 49
-0.0724999979
 74
         0
  0
ENDTAB
  0
TABLE
  2
LAYER
  5
2
100
AcDbSymbolTable
 70
        42
  0
LAYER
  5
14
100
AcDbSymbolTableRecord
100
AcDbLayerTableRecord
  2
0
 70
         0
 62
         7
  6
Continuous
290
         1
370
        -3
390
1D
  0
LAYER
  5
2F
100
AcDbSymbolTableRecord
100
AcDbLayerTableRecord
  2
DF_COMP
 70
         0
 62
         4
  6
Continuous
290
         1
370
         2
390
1F
  0
LAYER
  5
30
100
AcDbSymbolTableRecord
100
AcDbLayerTableRecord
  2
1_250BIT_500DEP
 70
         0
 62
         5
  6
Continuous
290
         1
370
         2
390
1F
  0
LAYER
  5
31
100
AcDbSymbolTableRecord
100
AcDbLayerTableRecord
  2
2_250BIT_250DEP
 70
         0
 62
         3
  6
Continuous
290
         1
370
         2
390
1F
  0
LAYER
  5
32
100
AcDbSymbolTableRecord
100
AcDbLayerTableRecord
  2
3_250BIT_500TAB
 70
         0
 62
         5
  6
Continuous
290
         1
370
         2
390
1F
  0
LAYER
  5
33
100
AcDbSymbolTableRecord
100
AcDbLayerTableRecord
  2
4_250BIT_250TAB
 70
         0
 62
         5
  6
Continuous
290
         1
370
         2
390
1F
  0
LAYER
  5
34
100
AcDbSymbolTableRecord
100
AcDbLayerTableRecord
  2
5_250BIT_250SPEC
 70
         0
 62
         5
  6
Continuous
290
         1
370
         2
390
1F
  0
LAYER
  5
35
100
AcDbSymbolTableRecord
100
AcDbLayerTableRecord
  2
6_125BIT_500DEP
 70
         0
 62
         5
  6
Continuous
290
         1
370
         2
390
1F
  0
LAYER
  5
36
100
AcDbSymbolTableRecord
100
AcDbLayerTableRecord
  2
7_VCARVE_BIT
 70
         0
 62
         5
  6
Continuous
290
         1
370
         2
390
1F
  0
LAYER
  5
37
100
AcDbSymbolTableRecord
100
AcDbLayerTableRecord
  2
8_250BIT_500OUTLINE
 70
         0
 62
         5
  6
Continuous
290
         1
370
         2
390
1F
  0
LAYER
  5
38
100
AcDbSymbolTableRecord
100
AcDbLayerTableRecord
  2
PLASTICS
 70
         0
 62
        37
  6
Continuous
290
         1
370
         2
390
1F
  0
LAYER
  5
39
100
AcDbSymbolTableRecord
100
AcDbLayerTableRecord
  2
7A_1250BALL
 70
         0
 62
         5
  6
Continuous
290
         1
370
         2
390
1F
  0
LAYER
  5
3A
100
AcDbSymbolTableRecord
100
AcDbLayerTableRecord
  2
CONSTRUCTION
 70
         0
 62
         7
  6
Continuous
290
         1
370
         0
390
1F
  0
LAYER
  5
3B
100
AcDbSymbolTableRecord
100
AcDbLayerTableRecord
  2
0_WOOD
 70
         0
 62
         5
  6
Continuous
290
         1
370
         2
390
1F
  0
LAYER
  5
3C
100
AcDbSymbolTableRecord
100
AcDbLayerTableRecord
  2
Z_TATTOOMYSTIQUE
 70
         0
 62
        37
  6
Continuous
290
         1
370
         2
390
1F
  0
LAYER
  5
3D
100
AcDbSymbolTableRecord
100
AcDbLayerTableRecord
  2
Z_ROLLRGIRLZ
 70
         0
 62
        37
  6
Continuous
290
         1
370
         2
390
1F
  0
LAYER
  5
3E
100
AcDbSymbolTableRecord
100
AcDbLayerTableRecord
  2
Z_MISSADV
 70
         0
 62
         5
  6
Continuous
290
         1
370
         2
390
1F
  0
LAYER
  5
3F
100
AcDbSymbolTableRecord
100
AcDbLayerTableRecord
  2
Z_JUPITERCRUSH
 70
         0
 62
        37
  6
Continuous
290
         1
370
         2
390
1F
  0
LAYER
  5
40
100
AcDbSymbolTableRecord
100
AcDbLayerTableRecord
  2
Z_MODULAR
 70
         0
 62
         5
  6
Continuous
290
         1
370
         2
390
1F
  0
LAYER
  5
41
100
AcDbSymbolTableRecord
100
AcDbLayerTableRecord
  2
Z_GENERIC
 70
         0
 62
        27
  6
Continuous
290
         1
370
         2
390
1F
  0
LAYER
  5
42
100
AcDbSymbolTableRecord
100
AcDbLayerTableRecord
  2
UNASSIGNED
 70
         0
 62
         7
  6
Continuous
290
         1
370
         0
390
1F
  0
LAYER
  5
43
100
AcDbSymbolTableRecord
100
AcDbLayerTableRecord
  2
0
 70
         0
 62
        42
  6
Continuous
290
         1
370
         2
390
1F
  0
LAYER
  5
44
100
AcDbSymbolTableRecord
100
AcDbLayerTableRecord
  2
LAYER_1
 70
         0
 62
        42
  6
Continuous
290
         1
370
         2
390
1F
  0
LAYER
  5
45
100
AcDbSymbolTableRecord
100
AcDbLayerTableRecord
  2
LAYER_3
 70
         0
 62
         4
  6
Continuous
290
         1
370
         2
390
1F
  0
LAYER
  5
46
100
AcDbSymbolTableRecord
100
AcDbLayerTableRecord
  2
LAYER_2
 70
         0
 62
        42
  6
Continuous
290
         1
370
         2
390
1F
  0
LAYER
  5
47
100
AcDbSymbolTableRecord
100
AcDbLayerTableRecord
  2
X_POSTS
 70
         0
 62
         4
  6
Continuous
290
         1
370
         2
390
1F
  0
LAYER
  5
48
100
AcDbSymbolTableRecord
100
AcDbLayerTableRecord
  2
X_THUMPER
 70
         0
 62
         4
  6
Continuous
290
         1
370
         2
390
1F
  0
LAYER
  5
49
100
AcDbSymbolTableRecord
100
AcDbLayerTableRecord
  2
X_STANDUPS
 70
         0
 62
         4
  6
Continuous
290
         1
370
         2
390
1F
  0
LAYER
  5
4A
100
AcDbSymbolTableRecord
100
AcDbLayerTableRecord
  2
X_DROPS
 70
         0
 62
         4
  6
Continuous
290
         1
370
         2
390
1F
  0
LAYER
  5
4B
100
AcDbSymbolTableRecord
100
AcDbLayerTableRecord
  2
X_SMPOSTS
 70
         0
 62
         4
  6
Continuous
290
         1
370
         2
390
1F
  0
LAYER
  5
4C
100
AcDbSymbolTableRecord
100
AcDbLayerTableRecord
  2
X_ROLLOVER
 70
         0
 62
         4
  6
Continuous
290
         1
370
         2
390
1F
  0
LAYER
  5
4D
100
AcDbSymbolTableRecord
100
AcDbLayerTableRecord
  2
X_WALLS
 70
         0
 62
         4
  6
Continuous
290
         1
370
         2
390
1F
  0
LAYER
  5
4E
100
AcDbSymbolTableRecord
100
AcDbLayerTableRecord
  2
Z0_BOTCOMP
 70
         0
 62
         4
  6
Continuous
290
         1
370
         2
390
1F
  0
LAYER
  5
4F
100
AcDbSymbolTableRecord
100
AcDbLayerTableRecord
  2
Z0_TOPCOMP
 70
         0
 62
         6
  6
Continuous
290
         1
370
         2
390
1F
  0
LAYER
  5
50
100
AcDbSymbolTableRecord
100
AcDbLayerTableRecord
  2
Z0_CUT250
 70
         0
 62
         4
  6
Continuous
290
         1
370
         2
390
1F
  0
LAYER
  5
51
100
AcDbSymbolTableRecord
100
AcDbLayerTableRecord
  2
Z0_CUT500
 70
         0
 62
         4
  6
Continuous
290
         1
370
         2
390
1F
  0
LAYER
  5
52
100
AcDbSymbolTableRecord
100
AcDbLayerTableRecord
  2
Z0_PLASTICS
 70
         0
 62
        37
  6
Continuous
290
         1
370
         2
390
1F
  0
LAYER
  5
53
100
AcDbSymbolTableRecord
100
AcDbLayerTableRecord
  2
Z0_RUBBER
 70
         0
 62
         4
  6
Continuous
290
         1
370
         2
390
1F
  0
LAYER
  5
54
100
AcDbSymbolTableRecord
100
AcDbLayerTableRecord
  2
Z0_ZONES
 70
         0
 62
         6
  6
Continuous
290
         1
370
         2
390
1F
  0
LAYER
  5
55
100
AcDbSymbolTableRecord
100
AcDbLayerTableRecord
  2
Z0_WOODOUTLINE
 70
         0
 62
         5
  6
Continuous
290
         1
370
         2
390
1F
  0
LAYER
  5
56
100
AcDbSymbolTableRecord
100
AcDbLayerTableRecord
  2
Z0_LOWERTHIRD
 70
         0
 62
         4
  6
Continuous
290
         1
370
         2
390
1F
  0
LAYER
  5
57
100
AcDbSymbolTableRecord
100
AcDbLayerTableRecord
  2
PART_A
 70
         0
 62
         4
  6
Continuous
290
         1
370
         2
390
1F
  0
ENDTAB
  0
TABLE
  2
STYLE
  5
3
100
AcDbSymbolTable
 70
         2
  0
STYLE
  5
17
100
AcDbSymbolTableRecord
100
AcDbTextStyleTableRecord
  2
Standard
 70
         0
 40
0.0
 41
1.0
 50
0.0
 71
         0
 42
0.0
  3
txt
  4

  0
STYLE
  5
24
100
AcDbSymbolTableRecord
100
AcDbTextStyleTableRecord
  2
Plotter
 70
         0
 40
0.0
 41
0.98
 50
0.0
 71
         0
 42
0.0
  3
SIMPLEX
  4

  0
ENDTAB
  0
TABLE
  2
VIEW
  5
5
100
AcDbSymbolTable
 70
         0
  0
ENDTAB
  0
TABLE
  2
UCS
  5
6
100
AcDbSymbolTable
 70
         0
  0
ENDTAB
  0
TABLE
  2
APPID
  5
8
100
AcDbSymbolTable
 70
         1
  0
APPID
  5
16
100
AcDbSymbolTableRecord
100
AcDbRegAppTableRecord
  2
ACAD
 70
         0
  0
ENDTAB
  0
TABLE
  2
DIMSTYLE
  5
9
100
AcDbSymbolTable
 70
         1
100
AcDbDimStyleTable
 71
         0
  0
DIMSTYLE
105
18
100
AcDbSymbolTableRecord
100
AcDbDimStyleTableRecord
  2
Standard
 70
         0
  3

  4

 40
1.0
 41
0.18
 42
0.0625
 43
0.38
 44
0.18
 45
0.0
 46
0.0
 47
0.0
 48
0.0
 71
         0
 72
         0
 73
         1
 74
         1
 75
         0
 76
         0
 77
         0
 78
         0
 79
         0
140
0.18
141
0.09
142
0.0
143
25.4
144
1.0
145
0.0
146
1.0
147
0.09
148
0.0
170
         0
171
         2
172
         0
173
         0
174
         0
175
         0
176
         0
177
         0
178
         0
179
         0
271
         4
272
         4
273
         2
274
         2
275
         0
276
         0
277
         2
278
        46
279
         0
280
         0
281
         0
282
         0
283
         1
284
         0
285
         0
286
         0
288
         0
340
17
341
0
342
0
343
0
344
0
371
        -2
372
        -2
  0
ENDTAB
  0
TABLE
  2
BLOCK_RECORD
  5
1
100
AcDbSymbolTable
 70
         0
  0
BLOCK_RECORD
  5
A
100
AcDbSymbolTableRecord
100
AcDbBlockTableRecord
  2
*MODEL_SPACE
340
20
  0
BLOCK_RECORD
  5
B
100
AcDbSymbolTableRecord
100
AcDbBlockTableRecord
  2
*PAPER_SPACE
340
21
  0
ENDTAB
  0
ENDSEC
  0
SECTION
  2
BLOCKS
  0
BLOCK
  5
D
100
AcDbEntity
  8
0
100
AcDbBlockBegin
  2
*MODEL_SPACE
 70
         0
 10
0.0
 20
0.0
 30
0.0
  3
*MODEL_SPACE
  1

  0
ENDBLK
  5
E
100
AcDbEntity
  8
0
100
AcDbBlockEnd
  0
BLOCK
  5
F
100
AcDbEntity
 67
         1
  8
0
100
AcDbBlockBegin
  2
*PAPER_SPACE
 70
         0
 10
0.0
 20
0.0
 30
0.0
  3
*PAPER_SPACE
  1

  0
ENDBLK
  5
10
100
AcDbEntity
 67
         1
  8
0
100
AcDbBlockEnd
  0
ENDSEC
  0
SECTION
  2
ENTITIES
  0
LINE
  5
58
102
{ACAD_REACTORS
330
65
102
}
100
AcDbEntity
  8
X_ROLLOVER
370
        25
  6
Continuous
 62
         6
100
AcDbLine
 10
7.8328865248
 20
5.7661506714
 30
0.0
 11
5.8802890302
 21
7.3300824289
 31
0.0
  0
LINE
  5
59
102
{ACAD_REACTORS
330
65
102
}
100
AcDbEntity
  8
X_ROLLOVER
370
        25
  6
Continuous
 62
         6
100
AcDbLine
 10
7.5191901095
 20
5.3064613455
 30
0.0
 11
5.3510605347
 21
6.5545533552
 31
0.0
  0
ARC
  5
5A
102
{ACAD_REACTORS
330
65
102
}
100
AcDbEntity
  8
X_ROLLOVER
370
        25
  6
Continuous
 62
         6
100
AcDbCircle
 10
5.5859539464
 20
6.9625996763
 30
0.0
 40
0.4708255675
100
AcDbArc
 50
51.3070390493
 51
-119.9270456786
  0
ARC
  5
5B
102
{ACAD_REACTORS
330
65
102
}
100
AcDbEntity
  8
X_ROLLOVER
370
        25
  6
Continuous
 62
         6
100
AcDbCircle
 10
5.5859539464
 20
6.9625996763
 30
0.0
 40
0.3563678145
100
AcDbArc
 50
51.3070390493
 51
-119.9270456786
  0
ARC
  5
5C
102
{ACAD_REACTORS
330
65
102
}
100
AcDbEntity
  8
X_ROLLOVER
370
        25
  6
Continuous
 62
         6
100
AcDbCircle
 10
5.5859539464
 20
6.9625996763
 30
0.0
 40
0.2946859661
100
AcDbArc
 50
51.3070390493
 51
-119.9270456786
  0
ARC
  5
5D
102
{ACAD_REACTORS
330
65
102
}
100
AcDbEntity
  8
X_ROLLOVER
370
        25
  6
Continuous
 62
         6
100
AcDbCircle
 10
7.6584215036
 20
5.5483278914
 30
0.0
 40
0.2790784964
100
AcDbArc
 50
-119.9270456786
 51
51.3070390493
  0
ARC
  5
5E
102
{ACAD_REACTORS
330
65
102
}
100
AcDbEntity
  8
X_ROLLOVER
370
        25
  6
Continuous
 62
         6
100
AcDbCircle
 10
7.6584215036
 20
5.5483278914
 30
0.0
 40
0.1763775123
100
AcDbArc
 50
-119.9270456786
 51
51.3070390493
  0
ARC
  5
5F
102
{ACAD_REACTORS
330
65
102
}
100
AcDbEntity
  8
X_ROLLOVER
370
        25
  6
Continuous
 62
         6
100
AcDbCircle
 10
7.6584215036
 20
5.5483278914
 30
0.0
 40
0.127949224
100
AcDbArc
 50
-119.9270456786
 51
51.3070390493
  0
LINE
  5
60
102
{ACAD_REACTORS
330
65
102
}
100
AcDbEntity
  8
X_ROLLOVER
370
        25
  6
Continuous
 62
         6
100
AcDbLine
 10
5.8087361354
 20
7.2407473268
 30
0.0
 11
7.7686833361
 21
5.6859918123
 31
0.0
  0
LINE
  5
61
102
{ACAD_REACTORS
330
65
102
}
100
AcDbEntity
  8
X_ROLLOVER
370
        25
  6
Continuous
 62
         6
100
AcDbLine
 10
5.7701759269
 20
7.1926041991
 30
0.0
 11
7.738408548
 21
5.6481931839
 31
0.0
  0
LINE
  5
62
102
{ACAD_REACTORS
330
65
102
}
100
AcDbEntity
  8
X_ROLLOVER
370
        25
  6
Continuous
 62
         6
100
AcDbLine
 10
5.4389360342
 20
6.7072067396
 30
0.0
 11
7.5945880336
 21
5.4374392444
 31
0.0
  0
LINE
  5
63
102
{ACAD_REACTORS
330
65
102
}
100
AcDbEntity
  8
X_ROLLOVER
370
        25
  6
Continuous
 62
         6
100
AcDbLine
 10
5.4081631518
 20
6.6537494657
 30
0.0
 11
7.5704273112
 21
5.3954683188
 31
0.0
  0
CIRCLE
  5
64
102
{ACAD_REACTORS
330
65
102
}
100
AcDbEntity
  8
X_ROLLOVER
370
        25
  6
Continuous
 62
         6
100
AcDbCircle
 10
5.5859539464
 20
6.9625996763
 30
0.0
 40
0.125
  0
CIRCLE
  5
66
100
AcDbEntity
  8
Z0_TOPCOMP
370
        25
  6
Continuous
 62
         6
100
AcDbCircle
 10
1.75
 20
10.5259241091
 30
0.0
 40
0.03125
  0
CIRCLE
  5
67
100
AcDbEntity
  8
Z0_TOPCOMP
370
        25
  6
Continuous
 62
         6
100
AcDbCircle
 10
1.75
 20
13.9009241091
 30
0.0
 40
0.03125
  0
ARC
  5
68
100
AcDbEntity
  8
Z0_LOWERTHIRD
370
        25
  6
Continuous
 62
         5
100
AcDbCircle
 10
1.125
 20
13.0634241091
 30
0.0
 40
0.09
100
AcDbArc
 50
0.0
 51
180.0
  0
ARC
  5
69
100
AcDbEntity
  8
Z0_LOWERTHIRD
370
        25
  6
Continuous
 62
         5
100
AcDbCircle
 10
1.125
 20
11.3634241091
 30
0.0
 40
0.09
100
AcDbArc
 50
180.0
 51
0.0
  0
LINE
  5
6A
100
AcDbEntity
  8
Z0_LOWERTHIRD
370
        25
  6
Continuous
 62
         5
100
AcDbLine
 10
1.035
 20
13.0634241091
 30
0.0
 11
1.035
 21
11.3634241091
 31
0.0
  0
LINE
  5
6B
100
AcDbEntity
  8
Z0_LOWERTHIRD
370
        25
  6
Continuous
 62
         5
100
AcDbLine
 10
1.215
 20
13.0634241091
 30
0.0
 11
1.215
 21
11.3634241091
 31
0.0
  0
ARC
  5
6C
100
AcDbEntity
  8
Z0_LOWERTHIRD
370
        25
  6
Continuous
 62
         5
100
AcDbCircle
 10
2.375
 20
11.3634241091
 30
0.0
 40
0.09
100
AcDbArc
 50
180.0
 51
0.0
  0
LINE
  5
6D
100
AcDbEntity
  8
Z0_LOWERTHIRD
370
        25
  6
Continuous
 62
         5
100
AcDbLine
 10
2.285
 20
13.0634241091
 30
0.0
 11
2.285
 21
11.3634241091
 31
0.0
  0
LINE
  5
6E
100
AcDbEntity
  8
Z0_LOWERTHIRD
370
        25
  6
Continuous
 62
         5
100
AcDbLine
 10
2.465
 20
13.0634241091
 30
0.0
 11
2.465
 21
11.3634241091
 31
0.0
  0
ARC
  5
6F
100
AcDbEntity
  8
Z0_LOWERTHIRD
370
        25
  6
Continuous
 62
         5
100
AcDbCircle
 10
2.375
 20
13.0634241091
 30
0.0
 40
0.09
100
AcDbArc
 50
0.0
 51
180.0
  0
CIRCLE
  5
70
100
AcDbEntity
  8
Z0_LOWERTHIRD
370
        25
  6
Continuous
 62
         2
100
AcDbCircle
 10
3.4
 20
10.6696698519
 30
0.0
 40
0.4
  0
ELLIPSE
  5
71
100
AcDbEntity
  8
Z0_LOWERTHIRD
370
        25
  6
Continuous
 62
        34
100
AcDbEllipse
 10
3.3836444718
 20
13.7794191556
 30
0.0
 11
-0.0245332922912917
 21
0.0708739555080036
 31
0.0
210
0.0
220
0.0
230
-1.0
 40
1.0
 41
4.7123889803846897
 42
7.8539816339713227
  0
LINE
  5
72
100
AcDbEntity
  8
Z0_LOWERTHIRD
370
        25
  6
Continuous
 62
        34
100
AcDbLine
 10
3.4545184273
 20
13.8039524479
 30
0.0
 11
3.4872294837
 21
13.7094538405
 31
0.0
  0
ELLIPSE
  5
73
100
AcDbEntity
  8
Z0_LOWERTHIRD
370
        25
  6
Continuous
 62
        34
100
AcDbEllipse
 10
3.4163555282
 20
13.6849205482
 30
0.0
 11
0.0708739555079774
 21
0.0245332922913803
 31
0.0
210
0.0
220
0.0
230
-1.0
 40
1.0
 41
0.0
 42
3.1415926535928582
  0
LINE
  5
74
100
AcDbEntity
  8
Z0_LOWERTHIRD
370
        25
  6
Continuous
 62
        34
100
AcDbLine
 10
3.3127705163
 20
13.7548858633
 30
0.0
 11
3.3454815727
 21
13.660387256
 31
0.0
  0
CIRCLE
  5
75
100
AcDbEntity
  8
Z0_LOWERTHIRD
370
        25
  6
Continuous
 62
         2
100
AcDbCircle
 10
3.4
 20
13.7321698519
 30
0.0
 40
0.215
  0
CIRCLE
  5
76
100
AcDbEntity
  8
Z0_LOWERTHIRD
370
        25
  6
Continuous
 62
         2
100
AcDbCircle
 10
3.4
 20
13.7321698519
 30
0.0
 40
0.4
  0
LINE
  5
77
102
{ACAD_REACTORS
330
D4
102
}
100
AcDbEntity
  8
Z0_LOWERTHIRD
370
         5
  6
Continuous
 62
         4
100
AcDbLine
 10
4.9569477304
 20
11.0424720591
 30
0.0
 11
5.1141073353
 21
10.6949958177
 31
0.0
  0
LINE
  5
78
102
{ACAD_REACTORS
330
D4
102
}
100
AcDbEntity
  8
Z0_LOWERTHIRD
370
         5
  6
Continuous
 62
         4
100
AcDbLine
 10
5.4158128177
 20
11.1610268712
 30
0.0
 11
5.4158128177
 21
11.1610268712
 31
0.0
  0
LINE
  5
79
102
{ACAD_REACTORS
330
D4
102
}
100
AcDbEntity
  8
Z0_LOWERTHIRD
370
         5
  6
Continuous
 62
         4
100
AcDbLine
 10
5.1141073353
 20
10.6949958177
 30
0.0
 11
5.9668377603
 21
11.0806762172
 31
0.0
  0
LINE
  5
7A
102
{ACAD_REACTORS
330
D4
102
}
100
AcDbEntity
  8
Z0_LOWERTHIRD
370
         5
  6
Continuous
 62
         4
100
AcDbLine
 10
5.9668377603
 20
11.0806762172
 30
0.0
 11
4.7698231272
 21
10.5392799169
 31
0.0
  0
LINE
  5
7B
102
{ACAD_REACTORS
330
D4
102
}
100
AcDbEntity
  8
Z0_LOWERTHIRD
370
         5
  6
Continuous
 62
         4
100
AcDbLine
 10
5.2999187572
 20
11.2047347611
 30
0.0
 11
5.4595207077
 21
11.2769209316
 31
0.0
  0
LINE
  5
7C
102
{ACAD_REACTORS
330
D4
102
}
100
AcDbEntity
  8
Z0_LOWERTHIRD
370
         5
  6
Continuous
 62
         4
100
AcDbLine
 10
5.7324508951
 20
10.9746656691
 30
0.0
 11
6.7794397002
 21
11.4482069693
 31
0.0
  0
LINE
  5
7D
102
{ACAD_REACTORS
330
D4
102
}
100
AcDbEntity
  8
Z0_LOWERTHIRD
370
         5
  6
Continuous
 62
         4
100
AcDbLine
 10
5.0673551816
 20
11.2319273711
 30
0.0
 11
4.5602769759
 21
11.0025815944
 31
0.0
  0
LINE
  5
7E
102
{ACAD_REACTORS
330
D4
102
}
100
AcDbEntity
  8
Z0_LOWERTHIRD
370
         5
  6
Continuous
 62
         4
100
AcDbLine
 10
4.6193117848
 20
11.3627004483
 30
0.0
 11
4.6914979566
 21
11.203098484
 31
0.0
  0
LINE
  5
7F
102
{ACAD_REACTORS
330
D4
102
}
100
AcDbEntity
  8
Z0_LOWERTHIRD
370
         5
  6
Continuous
 62
         4
100
AcDbLine
 10
4.6914979566
 20
11.203098484
 30
0.0
 11
4.6914979566
 21
11.203098484
 31
0.0
  0
LINE
  5
80
102
{ACAD_REACTORS
330
D4
102
}
100
AcDbEntity
  8
Z0_LOWERTHIRD
370
         5
  6
Continuous
 62
         4
100
AcDbLine
 10
4.8588845871
 20
13.2655818154
 30
0.0
 11
5.8674285481
 21
11.0357145537
 31
0.0
  0
LINE
  5
81
102
{ACAD_REACTORS
330
D4
102
}
100
AcDbEntity
  8
Z0_LOWERTHIRD
370
         5
  6
Continuous
 62
         4
100
AcDbLine
 10
4.958293798
 20
13.3105434927
 30
0.0
 11
5.9668377603
 21
11.0806762172
 31
0.0
  0
LINE
  5
82
102
{ACAD_REACTORS
330
D4
102
}
100
AcDbEntity
  8
Z0_LOWERTHIRD
370
         5
  6
Continuous
 62
         4
100
AcDbLine
 10
5.1514611514
 20
11.2002079313
 30
0.0
 11
5.1514611514
 21
11.2002079313
 31
0.0
  0
LINE
  5
83
102
{ACAD_REACTORS
330
D4
102
}
100
AcDbEntity
  8
Z0_LOWERTHIRD
370
         5
  6
Continuous
 62
         4
100
AcDbLine
 10
5.3980756475
 20
11.2002433439
 30
0.0
 11
5.3980756475
 21
11.2002433439
 31
0.0
  0
LINE
  5
84
102
{ACAD_REACTORS
330
D4
102
}
100
AcDbEntity
  8
Z0_LOWERTHIRD
370
         5
  6
Continuous
 62
         4
100
AcDbLine
 10
4.6199160871
 20
10.8889378571
 30
0.0
 11
4.9573602215
 21
11.041560048
 31
0.0
  0
LINE
  5
85
102
{ACAD_REACTORS
330
D4
102
}
100
AcDbEntity
  8
Z0_LOWERTHIRD
370
         5
  6
Continuous
 62
         4
100
AcDbLine
 10
5.3436266472
 20
11.3206288216
 30
0.0
 11
5.4158128177
 21
11.1610268712
 31
0.0
  0
LINE
  5
86
102
{ACAD_REACTORS
330
D4
102
}
100
AcDbEntity
  8
Z0_LOWERTHIRD
370
         5
  6
Continuous
 62
         4
100
AcDbLine
 10
5.5254708735
 20
12.056528152
 30
0.0
 11
5.9668377603
 21
11.0806762172
 31
0.0
  0
LINE
  5
87
102
{ACAD_REACTORS
330
D4
102
}
100
AcDbEntity
  8
Z0_LOWERTHIRD
370
         5
  6
Continuous
 62
         4
100
AcDbLine
 10
4.298756787
 20
11.5807966566
 30
0.0
 11
4.5602769759
 21
11.0025815944
 31
0.0
  0
LINE
  5
88
102
{ACAD_REACTORS
330
D4
102
}
100
AcDbEntity
  8
Z0_LOWERTHIRD
370
         5
  6
Continuous
 62
         4
100
AcDbLine
 10
4.6914979566
 20
11.203098484
 30
0.0
 11
4.6914979566
 21
11.203098484
 31
0.0
  0
LINE
  5
89
102
{ACAD_REACTORS
330
D4
102
}
100
AcDbEntity
  8
Z0_LOWERTHIRD
370
         5
  6
Continuous
 62
         4
100
AcDbLine
 10
6.640740458
 20
13.4041098101
 30
0.0
 11
5.2088829472
 21
12.7564967155
 31
0.0
  0
LINE
  5
8A
102
{ACAD_REACTORS
330
D4
102
}
100
AcDbEntity
  8
Z0_LOWERTHIRD
370
         5
  6
Continuous
 62
         4
100
AcDbLine
 10
4.7239069328
 20
13.2045329446
 30
0.0
 11
5.7708957392
 21
13.6780742309
 31
0.0
  0
LINE
  5
8B
102
{ACAD_REACTORS
330
D4
102
}
100
AcDbEntity
  8
Z0_LOWERTHIRD
370
         5
  6
Continuous
 62
         4
100
AcDbLine
 10
4.7766632161
 20
10.5423736143
 30
0.0
 11
4.6199160871
 21
10.8889378571
 31
0.0
  0
LINE
  5
8C
102
{ACAD_REACTORS
330
D4
102
}
100
AcDbEntity
  8
Z0_LOWERTHIRD
370
         5
  6
Continuous
 62
         4
100
AcDbLine
 10
4.6467281031
 20
10.82965713
 30
0.0
 11
4.7498512001
 21
10.6016543413
 31
0.0
  0
LINE
  5
8D
102
{ACAD_REACTORS
330
D4
102
}
100
AcDbEntity
  8
Z0_LOWERTHIRD
370
         5
  6
Continuous
 62
         4
100
AcDbLine
 10
4.967041126
 20
10.5708041252
 30
0.0
 11
4.967041126
 21
10.5708041252
 31
0.0
  0
LINE
  5
8E
102
{ACAD_REACTORS
330
D4
102
}
100
AcDbEntity
  8
Z0_LOWERTHIRD
370
         5
  6
Continuous
 62
         4
100
AcDbLine
 10
4.967041126
 20
10.5708041252
 30
0.0
 11
4.967041126
 21
10.5708041252
 31
0.0
  0
LINE
  5
8F
102
{ACAD_REACTORS
330
D4
102
}
100
AcDbEntity
  8
Z0_LOWERTHIRD
370
         5
  6
Continuous
 62
         4
100
AcDbLine
 10
5.1141073353
 20
10.6949958177
 30
0.0
 11
4.7766632161
 21
10.5423736143
 31
0.0
  0
LINE
  5
90
102
{ACAD_REACTORS
330
D4
102
}
100
AcDbEntity
  8
Z0_LOWERTHIRD
370
         5
  6
Continuous
 62
         4
100
AcDbLine
 10
4.6586500879
 20
10.5604050973
 30
0.0
 11
4.5555269771
 21
10.7884078846
 31
0.0
  0
LINE
  5
91
102
{ACAD_REACTORS
330
D4
102
}
100
AcDbEntity
  8
Z0_LOWERTHIRD
370
         5
  6
Continuous
 62
         4
100
AcDbLine
 10
4.5555269771
 20
10.7884078846
 30
0.0
 11
4.6467281031
 21
10.82965713
 31
0.0
  0
LINE
  5
92
102
{ACAD_REACTORS
330
D4
102
}
100
AcDbEntity
  8
Z0_LOWERTHIRD
370
         5
  6
Continuous
 62
         4
100
AcDbLine
 10
6.8253954229
 20
11.5700612957
 30
0.0
 11
5.8927500656
 21
13.6321185082
 31
0.0
  0
LINE
  5
93
102
{ACAD_REACTORS
330
D4
102
}
100
AcDbEntity
  8
Z0_LOWERTHIRD
370
         5
  6
Continuous
 62
         4
100
AcDbLine
 10
4.6968385347
 20
12.7506623102
 30
0.0
 11
4.6968385347
 21
12.7506623102
 31
0.0
  0
LINE
  5
94
102
{ACAD_REACTORS
330
D4
102
}
100
AcDbEntity
  8
Z0_LOWERTHIRD
370
         5
  6
Continuous
 62
         4
100
AcDbLine
 10
4.6968385347
 20
12.7506623102
 30
0.0
 11
4.6968385347
 21
12.7506623102
 31
0.0
  0
LINE
  5
95
102
{ACAD_REACTORS
330
D4
102
}
100
AcDbEntity
  8
Z0_LOWERTHIRD
370
         5
  6
Continuous
 62
         4
100
AcDbLine
 10
4.7145757063
 20
12.7114458236
 30
0.0
 11
4.7145757063
 21
12.7114458236
 31
0.0
  0
LINE
  5
96
102
{ACAD_REACTORS
330
D4
102
}
100
AcDbEntity
  8
Z0_LOWERTHIRD
370
         5
  6
Continuous
 62
         4
100
AcDbLine
 10
4.958293798
 20
13.3105434927
 30
0.0
 11
5.2965375878
 21
12.5626943466
 31
0.0
  0
LINE
  5
97
102
{ACAD_REACTORS
330
D4
102
}
100
AcDbEntity
  8
Z0_LOWERTHIRD
370
         5
  6
Continuous
 62
         4
100
AcDbLine
 10
4.5092104542
 20
12.6202092989
 30
0.0
 11
4.9167529634
 21
11.7191422789
 31
0.0
  0
LINE
  5
98
102
{ACAD_REACTORS
330
D4
102
}
100
AcDbEntity
  8
Z0_LOWERTHIRD
370
         5
  6
Continuous
 62
         4
100
AcDbLine
 10
4.6423895344
 20
12.8710477879
 30
0.0
 11
4.7145757063
 21
12.7114458236
 31
0.0
  0
LINE
  5
99
102
{ACAD_REACTORS
330
D4
102
}
100
AcDbEntity
  8
Z0_LOWERTHIRD
370
         5
  6
Continuous
 62
         4
100
AcDbLine
 10
4.5756038962
 20
11.246806374
 30
0.0
 11
4.7352058453
 21
11.3189925583
 31
0.0
  0
LINE
  5
9A
102
{ACAD_REACTORS
330
D4
102
}
100
AcDbEntity
  8
Z0_LOWERTHIRD
370
         5
  6
Continuous
 62
         4
100
AcDbLine
 10
4.6737607851
 20
11.2423149705
 30
0.0
 11
4.6737607851
 21
11.2423149705
 31
0.0
  0
LINE
  5
9B
102
{ACAD_REACTORS
330
D4
102
}
100
AcDbEntity
  8
Z0_LOWERTHIRD
370
         5
  6
Continuous
 62
         4
100
AcDbLine
 10
4.6737607851
 20
11.2423149705
 30
0.0
 11
4.6737607851
 21
11.2423149705
 31
0.0
  0
LINE
  5
9C
102
{ACAD_REACTORS
330
D4
102
}
100
AcDbEntity
  8
Z0_LOWERTHIRD
370
         5
  6
Continuous
 62
         4
100
AcDbLine
 10
4.7498512001
 20
10.6016543413
 30
0.0
 11
4.6586500879
 21
10.5604050973
 31
0.0
  0
LINE
  5
9D
102
{ACAD_REACTORS
330
D4
102
}
100
AcDbEntity
  8
Z0_LOWERTHIRD
370
         5
  6
Continuous
 62
         4
100
AcDbLine
 10
5.2135165475
 20
10.7399574811
 30
0.0
 11
5.0563569413
 21
11.0874337364
 31
0.0
  0
LINE
  5
9E
102
{ACAD_REACTORS
330
D4
102
}
100
AcDbEntity
  8
Z0_LOWERTHIRD
370
         5
  6
Continuous
 62
         4
100
AcDbLine
 10
5.3980756475
 20
11.2002433439
 30
0.0
 11
5.3980756475
 21
11.2002433439
 31
0.0
  0
LINE
  5
9F
102
{ACAD_REACTORS
330
D4
102
}
100
AcDbEntity
  8
Z0_LOWERTHIRD
370
         5
  6
Continuous
 62
         4
100
AcDbLine
 10
5.4158128177
 20
11.1610268712
 30
0.0
 11
5.4158128177
 21
11.1610268712
 31
0.0
  0
LINE
  5
A0
102
{ACAD_REACTORS
330
D4
102
}
100
AcDbEntity
  8
Z0_LOWERTHIRD
370
         5
  6
Continuous
 62
         4
100
AcDbLine
 10
4.9573602215
 20
11.041560048
 30
0.0
 11
5.1141073353
 21
10.6949958177
 31
0.0
  0
LINE
  5
A1
102
{ACAD_REACTORS
330
D4
102
}
100
AcDbEntity
  8
Z0_LOWERTHIRD
370
         5
  6
Continuous
 62
         4
100
AcDbLine
 10
5.1197417115
 20
11.1161019615
 30
0.0
 11
4.9569477304
 21
11.0424720591
 31
0.0
  0
LINE
  5
A2
102
{ACAD_REACTORS
330
D4
102
}
100
AcDbEntity
  8
Z0_LOWERTHIRD
370
         5
  6
Continuous
 62
         4
100
AcDbLine
 10
7.110981816
 20
12.3644170926
 30
0.0
 11
7.402825386
 21
12.4964146747
 31
0.0
  0
LINE
  5
A3
102
{ACAD_REACTORS
330
D4
102
}
100
AcDbEntity
  8
Z0_LOWERTHIRD
370
         5
  6
Continuous
 62
         4
100
AcDbLine
 10
7.402825386
 20
12.4964146747
 30
0.0
 11
7.3327016707
 21
12.6514565695
 31
0.0
  0
LINE
  5
A4
102
{ACAD_REACTORS
330
D4
102
}
100
AcDbEntity
  8
Z0_LOWERTHIRD
370
         5
  6
Continuous
 62
         4
100
AcDbLine
 10
7.0408581007
 20
12.5194589875
 30
0.0
 11
7.110981816
 21
12.3644170926
 31
0.0
  0
LINE
  5
A5
102
{ACAD_REACTORS
330
D4
102
}
100
AcDbEntity
  8
Z0_LOWERTHIRD
370
         5
  6
Continuous
 62
         4
100
AcDbLine
 10
7.3327016707
 20
12.6514565695
 30
0.0
 11
7.0408581007
 21
12.5194589875
 31
0.0
  0
LINE
  5
A6
102
{ACAD_REACTORS
330
D4
102
}
100
AcDbEntity
  8
Z0_LOWERTHIRD
370
         5
  6
Continuous
 62
         4
100
AcDbLine
 10
3.7681192538
 20
12.7722408897
 30
0.0
 11
4.1055633743
 21
12.9248630793
 31
0.0
  0
LINE
  5
A7
102
{ACAD_REACTORS
330
D4
102
}
100
AcDbEntity
  8
Z0_LOWERTHIRD
370
         5
  6
Continuous
 62
         4
100
AcDbLine
 10
4.1055633743
 20
12.9248630793
 30
0.0
 11
4.2623104895
 21
12.5782988351
 31
0.0
  0
LINE
  5
A8
102
{ACAD_REACTORS
330
D4
102
}
100
AcDbEntity
  8
Z0_LOWERTHIRD
370
         5
  6
Continuous
 62
         4
100
AcDbLine
 10
3.924866369
 20
12.4256766455
 30
0.0
 11
3.7681192538
 21
12.7722408897
 31
0.0
  0
LINE
  5
A9
102
{ACAD_REACTORS
330
D4
102
}
100
AcDbEntity
  8
Z0_LOWERTHIRD
370
         5
  6
Continuous
 62
         4
100
AcDbLine
 10
4.2049725852
 20
12.9698247566
 30
0.0
 11
4.3617197142
 21
12.6232605137
 31
0.0
  0
LINE
  5
AA
102
{ACAD_REACTORS
330
D4
102
}
100
AcDbEntity
  8
Z0_LOWERTHIRD
370
         5
  6
Continuous
 62
         4
100
AcDbLine
 10
4.1055633743
 20
12.9248630793
 30
0.0
 11
4.2623104895
 21
12.5782988351
 31
0.0
  0
LINE
  5
AB
102
{ACAD_REACTORS
330
D4
102
}
100
AcDbEntity
  8
Z0_LOWERTHIRD
370
         5
  6
Continuous
 62
         4
100
AcDbLine
 10
3.7037301438
 20
12.6717109172
 30
0.0
 11
3.794931256
 21
12.7129601613
 31
0.0
  0
LINE
  5
AC
102
{ACAD_REACTORS
330
D4
102
}
100
AcDbEntity
  8
Z0_LOWERTHIRD
370
         5
  6
Continuous
 62
         4
100
AcDbLine
 10
3.8068532408
 20
12.4437081286
 30
0.0
 11
3.7037301438
 21
12.6717109172
 31
0.0
  0
LINE
  5
AD
102
{ACAD_REACTORS
330
D4
102
}
100
AcDbEntity
  8
Z0_LOWERTHIRD
370
         5
  6
Continuous
 62
         4
100
AcDbLine
 10
4.2623104895
 20
12.5782988351
 30
0.0
 11
3.924866369
 21
12.4256766455
 31
0.0
  0
LINE
  5
AE
102
{ACAD_REACTORS
330
D4
102
}
100
AcDbEntity
  8
Z0_LOWERTHIRD
370
         5
  6
Continuous
 62
         4
100
AcDbLine
 10
4.6539851286
 20
11.7414624499
 30
0.0
 11
4.298756787
 21
11.5807966566
 31
0.0
  0
LINE
  5
AF
102
{ACAD_REACTORS
330
D4
102
}
100
AcDbEntity
  8
Z0_LOWERTHIRD
370
         5
  6
Continuous
 62
         4
100
AcDbLine
 10
4.7069904096
 20
11.6242690179
 30
0.0
 11
4.6539851286
 21
11.7414624499
 31
0.0
  0
LINE
  5
B0
102
{ACAD_REACTORS
330
D4
102
}
100
AcDbEntity
  8
Z0_LOWERTHIRD
370
         5
  6
Continuous
 62
         4
100
AcDbLine
 10
5.1193523616
 20
12.4127958306
 30
0.0
 11
5.295899116
 21
12.0224550595
 31
0.0
  0
LINE
  5
B1
102
{ACAD_REACTORS
330
D4
102
}
100
AcDbEntity
  8
Z0_LOWERTHIRD
370
         5
  6
Continuous
 62
         4
100
AcDbLine
 10
4.8850335235
 20
11.6350363091
 30
0.0
 11
4.7910963793
 21
11.5925495781
 31
0.0
  0
LINE
  5
B2
102
{ACAD_REACTORS
330
D4
102
}
100
AcDbEntity
  8
Z0_LOWERTHIRD
370
         5
  6
Continuous
 62
         4
100
AcDbLine
 10
3.7612791648
 20
12.7691471924
 30
0.0
 11
4.958293798
 21
13.3105434927
 31
0.0
  0
LINE
  5
B3
102
{ACAD_REACTORS
330
D4
102
}
100
AcDbEntity
  8
Z0_LOWERTHIRD
370
         5
  6
Continuous
 62
         4
100
AcDbLine
 10
4.1055633743
 20
12.9248630793
 30
0.0
 11
4.958293798
 21
13.3105434927
 31
0.0
  0
LINE
  5
B4
102
{ACAD_REACTORS
330
D4
102
}
100
AcDbEntity
  8
Z0_LOWERTHIRD
370
         5
  6
Continuous
 62
         4
100
AcDbLine
 10
4.2623104895
 20
12.5782988351
 30
0.0
 11
4.4251044844
 21
12.6519287388
 31
0.0
  0
LINE
  5
B5
102
{ACAD_REACTORS
330
D4
102
}
100
AcDbEntity
  8
Z0_LOWERTHIRD
370
         5
  6
Continuous
 62
         4
100
AcDbLine
 10
4.7145757063
 20
12.7114458236
 30
0.0
 11
4.7145757063
 21
12.7114458236
 31
0.0
  0
LINE
  5
B6
102
{ACAD_REACTORS
330
D4
102
}
100
AcDbEntity
  8
Z0_LOWERTHIRD
370
         5
  6
Continuous
 62
         4
100
AcDbLine
 10
3.898054353
 20
12.4849573726
 30
0.0
 11
3.8068532408
 21
12.4437081286
 31
0.0
  0
LINE
  5
B7
102
{ACAD_REACTORS
330
D4
102
}
100
AcDbEntity
  8
Z0_LOWERTHIRD
370
         5
  6
Continuous
 62
         4
100
AcDbLine
 10
3.794931256
 20
12.7129601613
 30
0.0
 11
3.898054353
 21
12.4849573726
 31
0.0
  0
LINE
  5
B8
102
{ACAD_REACTORS
330
D4
102
}
100
AcDbEntity
  8
Z0_LOWERTHIRD
370
         5
  6
Continuous
 62
         4
100
AcDbLine
 10
4.5986816458
 20
12.7551537136
 30
0.0
 11
4.7582835949
 21
12.827339898
 31
0.0
  0
LINE
  5
B9
102
{ACAD_REACTORS
330
D4
102
}
100
AcDbEntity
  8
Z0_LOWERTHIRD
370
         5
  6
Continuous
 62
         4
100
AcDbLine
 10
5.716248625
 20
11.6347229957
 30
0.0
 11
7.1481061358
 21
12.2823360903
 31
0.0
  0
LINE
  5
BA
102
{ACAD_REACTORS
330
D4
102
}
100
AcDbEntity
  8
Z0_LOWERTHIRD
370
         5
  6
Continuous
 62
         4
100
AcDbLine
 10
5.2281789147
 20
12.0895992999
 30
0.0
 11
6.3590727443
 21
12.601089902
 31
0.0
  0
ELLIPSE
  5
BB
102
{ACAD_REACTORS
330
D4
102
}
100
AcDbEntity
  8
Z0_LOWERTHIRD
370
        25
  6
Continuous
 62
         4
100
AcDbEllipse
 10
5.1772650638
 20
12.4389890966
 30
0.0
 11
-0.0261932659290651
 21
0.0579127022371608
 31
0.0
210
0.0
220
0.0
230
-1.0
 40
1.0
 41
4.7123889803846897
 42
6.2831853688597583
  0
ARC
  5
BC
102
{ACAD_REACTORS
330
D4
102
}
100
AcDbEntity
  8
Z0_LOWERTHIRD
370
        25
  6
Continuous
 62
         4
100
AcDbCircle
 10
5.3538118297
 20
12.0486483388
 30
0.0
 40
0.0635607606
100
AcDbArc
 50
-155.6632869564
 51
-65.6632962334
  0
ARC
  5
BD
102
{ACAD_REACTORS
330
D4
102
}
100
AcDbEntity
  8
Z0_LOWERTHIRD
370
        25
  6
Continuous
 62
         4
100
AcDbCircle
 10
4.8588402457
 20
11.6929490188
 30
0.0
 40
0.0635607564
100
AcDbArc
 50
-65.6632867055
 51
24.3366956933
  0
ARC
  5
BE
102
{ACAD_REACTORS
330
D4
102
}
100
AcDbEntity
  8
Z0_LOWERTHIRD
370
        25
  6
Continuous
 62
         4
100
AcDbCircle
 10
4.7649031166
 20
11.6504622888
 30
0.0
 40
0.0635607511
100
AcDbArc
 50
-155.6632914494
 51
-65.6632995627
  0
ARC
  5
BF
102
{ACAD_REACTORS
330
D4
102
}
100
AcDbEntity
  8
Z0_LOWERTHIRD
370
        25
  6
Continuous
 62
         4
100
AcDbCircle
 10
5.0935484419
 20
11.1740146642
 30
0.0
 40
0.0635607466
100
AcDbArc
 50
-65.6632908567
 51
114.3366998448
  0
ARC
  5
C0
102
{ACAD_REACTORS
330
D4
102
}
100
AcDbEntity
  8
Z0_LOWERTHIRD
370
        25
  6
Continuous
 62
         4
100
AcDbCircle
 10
6.7414903983
 20
11.5321119939
 30
0.0
 40
0.0920880158
100
AcDbArc
 50
-65.6632937568
 51
24.3367062363
  0
ARC
  5
C1
102
{ACAD_REACTORS
330
D4
102
}
100
AcDbEntity
  8
Z0_LOWERTHIRD
370
        25
  6
Continuous
 62
         4
100
AcDbCircle
 10
5.8088450411
 20
13.5941692064
 30
0.0
 40
0.0920880158
100
AcDbArc
 50
24.3367062364
 51
114.3367062433
  0
ARC
  5
C2
102
{ACAD_REACTORS
330
D4
102
}
100
AcDbEntity
  8
Z0_LOWERTHIRD
370
        25
  6
Continuous
 62
         4
100
AcDbCircle
 10
4.4512977485
 20
12.5940160315
 30
0.0
 40
0.0635607485
100
AcDbArc
 50
24.3367061776
 51
114.3367028102
  0
CIRCLE
  5
C3
102
{ACAD_REACTORS
330
D4
102
}
100
AcDbEntity
  8
Z0_LOWERTHIRD
370
        25
  6
Continuous
 62
         4
100
AcDbCircle
 10
5.3797197324
 20
11.2408278464
 30
0.0
 40
0.0875837111
  0
CIRCLE
  5
C4
102
{ACAD_REACTORS
330
D4
102
}
100
AcDbEntity
  8
Z0_LOWERTHIRD
370
        25
  6
Continuous
 62
         4
100
AcDbCircle
 10
4.6554048707
 20
11.2828994662
 30
0.0
 40
0.0875837177
  0
CIRCLE
  5
C5
102
{ACAD_REACTORS
330
D4
102
}
100
AcDbEntity
  8
Z0_LOWERTHIRD
370
        25
  6
Continuous
 62
         4
100
AcDbCircle
 10
4.6784826203
 20
12.7912468058
 30
0.0
 40
0.0875837177
  0
CIRCLE
  5
C6
102
{ACAD_REACTORS
330
D4
102
}
100
AcDbEntity
  8
Z0_LOWERTHIRD
370
        25
  6
Continuous
 62
         4
100
AcDbCircle
 10
6.0896252661
 20
12.479193262
 30
0.0
 40
0.6256500405
  0
LINE
  5
C7
102
{ACAD_REACTORS
330
D4
102
}
100
AcDbEntity
  8
Z0_LOWERTHIRD
370
         5
  6
Continuous
 62
         4
100
AcDbLine
 10
6.3473812064
 20
11.9091914154
 30
0.0
 11
6.3473812064
 21
11.9091914154
 31
0.0
  0
LINE
  5
C8
102
{ACAD_REACTORS
330
D4
102
}
100
AcDbEntity
  8
Z0_LOWERTHIRD
370
         5
  6
Continuous
 62
         4
100
AcDbLine
 10
6.3473812064
 20
11.9091914154
 30
0.0
 11
6.3473812064
 21
11.9091914154
 31
0.0
  0
LINE
  5
C9
102
{ACAD_REACTORS
330
D4
102
}
100
AcDbEntity
  8
Z0_LOWERTHIRD
370
         5
  6
Continuous
 62
         4
100
AcDbLine
 10
7.1481061358
 20
12.2823360903
 30
0.0
 11
6.640740458
 21
13.4041098101
 31
0.0
  0
LINE
  5
CA
102
{ACAD_REACTORS
330
D4
102
}
100
AcDbEntity
  8
Z0_LOWERTHIRD
370
         5
  6
Continuous
 62
         4
100
AcDbLine
 10
7.0398320506
 20
13.2989844797
 30
0.0
 11
6.9697083491
 21
13.4540263759
 31
0.0
  0
LINE
  5
CB
102
{ACAD_REACTORS
330
D4
102
}
100
AcDbEntity
  8
Z0_LOWERTHIRD
370
         5
  6
Continuous
 62
         4
100
AcDbLine
 10
4.3437184643
 20
11.4813874457
 30
0.0
 11
4.6989468059
 21
11.642053239
 31
0.0
  0
LINE
  5
CC
102
{ACAD_REACTORS
330
D4
102
}
100
AcDbEntity
  8
Z0_LOWERTHIRD
370
         5
  6
Continuous
 62
         4
100
AcDbLine
 10
5.4625657785
 20
12.1956098618
 30
0.0
 11
5.519566486
 21
12.2213906371
 31
0.0
  0
LINE
  5
CD
102
{ACAD_REACTORS
330
D4
102
}
100
AcDbEntity
  8
Z0_LOWERTHIRD
370
         5
  6
Continuous
 62
         4
100
AcDbLine
 10
5.3800050996
 20
11.990735621
 30
0.0
 11
5.5254708735
 21
12.056528152
 31
0.0
  0
LINE
  5
CE
102
{ACAD_REACTORS
330
D4
102
}
100
AcDbEntity
  8
Z0_LOWERTHIRD
370
         5
  6
Continuous
 62
         4
100
AcDbLine
 10
5.2088829472
 20
12.7564967155
 30
0.0
 11
5.716248625
 21
11.6347229957
 31
0.0
  0
LINE
  5
CF
102
{ACAD_REACTORS
330
D4
102
}
100
AcDbEntity
  8
Z0_LOWERTHIRD
370
         5
  6
Continuous
 62
         4
100
AcDbLine
 10
5.2965375878
 20
12.5626943466
 30
0.0
 11
5.1510718015
 21
12.4969018004
 31
0.0
  0
LINE
  5
D0
102
{ACAD_REACTORS
330
D4
102
}
100
AcDbEntity
  8
Z0_LOWERTHIRD
370
         5
  6
Continuous
 62
         4
100
AcDbLine
 10
6.7129266285
 20
13.2445078596
 30
0.0
 11
7.0759199514
 21
12.4419380394
 31
0.0
  0
LINE
  5
D1
102
{ACAD_REACTORS
330
D4
102
}
100
AcDbEntity
  8
Z0_LOWERTHIRD
370
         5
  6
Continuous
 62
         4
100
AcDbLine
 10
6.7479884792
 20
13.1669869115
 30
0.0
 11
7.0398320506
 21
13.2989844797
 31
0.0
  0
LINE
  5
D2
102
{ACAD_REACTORS
330
D4
102
}
100
AcDbEntity
  8
Z0_LOWERTHIRD
370
         5
  6
Continuous
 62
         4
100
AcDbLine
 10
6.6778647778
 20
13.3220288077
 30
0.0
 11
6.7479884792
 21
13.1669869115
 31
0.0
  0
LINE
  5
D3
102
{ACAD_REACTORS
330
D4
102
}
100
AcDbEntity
  8
Z0_LOWERTHIRD
370
         5
  6
Continuous
 62
         4
100
AcDbLine
 10
6.9697083491
 20
13.4540263759
 30
0.0
 11
6.6778647778
 21
13.3220288077
 31
0.0
  0
ARC
  5
D5
102
{ACAD_REACTORS
330
E0
102
}
100
AcDbEntity
  8
Z0_LOWERTHIRD
370
        25
  6
Continuous
 62
         4
100
AcDbCircle
 10
5.2544417126
 20
9.6320423009
 30
0.0
 40
0.285
100
AcDbArc
 50
90.0
 51
164.5679286494
  0
ARC
  5
D6
102
{ACAD_REACTORS
330
E0
102
}
100
AcDbEntity
  8
Z0_LOWERTHIRD
370
        25
  6
Continuous
 62
         4
100
AcDbCircle
 10
5.2544417126
 20
9.6320423009
 30
0.0
 40
0.285
100
AcDbArc
 50
-150.0
 51
-75.4320713506
  0
ARC
  5
D7
102
{ACAD_REACTORS
330
E0
102
}
100
AcDbEntity
  8
Z0_LOWERTHIRD
370
        25
  6
Continuous
 62
         4
100
AcDbCircle
 10
5.2544417126
 20
9.6320423009
 30
0.0
 40
0.285
100
AcDbArc
 50
-30.0
 51
44.5679286494
  0
LINE
  5
D8
102
{ACAD_REACTORS
330
E0
102
}
100
AcDbEntity
  8
Z0_LOWERTHIRD
370
        25
  6
Continuous
 62
         4
100
AcDbLine
 10
5.0076244725
 20
9.4895423009
 30
0.0
 11
5.0812366318
 21
9.5320423009
 31
0.0
  0
LINE
  5
D9
102
{ACAD_REACTORS
330
E0
102
}
100
AcDbEntity
  8
Z0_LOWERTHIRD
370
        25
  6
Continuous
 62
         4
100
AcDbLine
 10
5.0812366318
 20
9.5320423009
 30
0.0
 11
4.9797169293
 21
9.7078795836
 31
0.0
  0
LINE
  5
DA
102
{ACAD_REACTORS
330
E0
102
}
100
AcDbEntity
  8
Z0_LOWERTHIRD
370
        25
  6
Continuous
 62
         4
100
AcDbLine
 10
5.5012589527
 20
9.4895423009
 30
0.0
 11
5.4276467933
 21
9.5320423009
 31
0.0
  0
LINE
  5
DB
102
{ACAD_REACTORS
330
E0
102
}
100
AcDbEntity
  8
Z0_LOWERTHIRD
370
        25
  6
Continuous
 62
         4
100
AcDbLine
 10
5.4276467933
 20
9.5320423009
 30
0.0
 11
5.3261270908
 21
9.3562050182
 31
0.0
  0
LINE
  5
DC
102
{ACAD_REACTORS
330
E0
102
}
100
AcDbEntity
  8
Z0_LOWERTHIRD
370
        25
  6
Continuous
 62
         4
100
AcDbLine
 10
5.2544417126
 20
9.8320423009
 30
0.0
 11
5.4574811176
 21
9.8320423009
 31
0.0
  0
LINE
  5
DD
102
{ACAD_REACTORS
330
E0
102
}
100
AcDbEntity
  8
Z0_LOWERTHIRD
370
        25
  6
Continuous
 62
         4
100
AcDbLine
 10
5.2544417126
 20
9.9170423009
 30
0.0
 11
5.2544417126
 21
9.8320423009
 31
0.0
  0
CIRCLE
  5
DE
102
{ACAD_REACTORS
330
E0
102
}
100
AcDbEntity
  8
Z0_LOWERTHIRD
370
        25
  6
Continuous
 62
         4
100
AcDbCircle
 10
5.2544417126
 20
9.6320423009
 30
0.0
 40
0.059
  0
CIRCLE
  5
DF
102
{ACAD_REACTORS
330
E0
102
}
100
AcDbEntity
  8
Z0_LOWERTHIRD
370
        25
  6
Continuous
 62
         4
100
AcDbCircle
 10
5.2544417126
 20
9.6320423009
 30
0.0
 40
0.085
  0
CIRCLE
  5
E1
100
AcDbEntity
  8
Z0_LOWERTHIRD
370
        25
  6
Continuous
 62
         6
100
AcDbCircle
 10
3.4
 20
13.7321698519
 30
0.0
 40
0.35
  0
CIRCLE
  5
E2
100
AcDbEntity
  8
Z0_LOWERTHIRD
370
        25
  6
Continuous
 62
         5
100
AcDbCircle
 10
3.4
 20
13.7321698519
 30
0.0
 40
0.0825
  0
ARC
  5
E3
102
{ACAD_REACTORS
330
EE
102
}
100
AcDbEntity
  8
Z0_LOWERTHIRD
370
        25
  6
Continuous
 62
         4
100
AcDbCircle
 10
3.4
 20
13.7321698519
 30
0.0
 40
0.285
100
AcDbArc
 50
90.0
 51
164.5679286494
  0
ARC
  5
E4
102
{ACAD_REACTORS
330
EE
102
}
100
AcDbEntity
  8
Z0_LOWERTHIRD
370
        25
  6
Continuous
 62
         4
100
AcDbCircle
 10
3.4
 20
13.7321698519
 30
0.0
 40
0.285
100
AcDbArc
 50
-150.0
 51
-75.4320713506
  0
ARC
  5
E5
102
{ACAD_REACTORS
330
EE
102
}
100
AcDbEntity
  8
Z0_LOWERTHIRD
370
        25
  6
Continuous
 62
         4
100
AcDbCircle
 10
3.4
 20
13.7321698519
 30
0.0
 40
0.285
100
AcDbArc
 50
-30.0
 51
44.5679286494
  0
LINE
  5
E6
102
{ACAD_REACTORS
330
EE
102
}
100
AcDbEntity
  8
Z0_LOWERTHIRD
370
        25
  6
Continuous
 62
         4
100
AcDbLine
 10
3.1531827599
 20
13.5896698519
 30
0.0
 11
3.2267949192
 21
13.6321698519
 31
0.0
  0
LINE
  5
E7
102
{ACAD_REACTORS
330
EE
102
}
100
AcDbEntity
  8
Z0_LOWERTHIRD
370
        25
  6
Continuous
 62
         4
100
AcDbLine
 10
3.2267949192
 20
13.6321698519
 30
0.0
 11
3.1252752167
 21
13.8080071347
 31
0.0
  0
LINE
  5
E8
102
{ACAD_REACTORS
330
EE
102
}
100
AcDbEntity
  8
Z0_LOWERTHIRD
370
        25
  6
Continuous
 62
         4
100
AcDbLine
 10
3.6468172401
 20
13.5896698519
 30
0.0
 11
3.5732050808
 21
13.6321698519
 31
0.0
  0
LINE
  5
E9
102
{ACAD_REACTORS
330
EE
102
}
100
AcDbEntity
  8
Z0_LOWERTHIRD
370
        25
  6
Continuous
 62
         4
100
AcDbLine
 10
3.5732050808
 20
13.6321698519
 30
0.0
 11
3.4716853782
 21
13.4563325692
 31
0.0
  0
LINE
  5
EA
102
{ACAD_REACTORS
330
EE
102
}
100
AcDbEntity
  8
Z0_LOWERTHIRD
370
        25
  6
Continuous
 62
         4
100
AcDbLine
 10
3.4
 20
13.9321698519
 30
0.0
 11
3.603039405
 21
13.9321698519
 31
0.0
  0
LINE
  5
EB
102
{ACAD_REACTORS
330
EE
102
}
100
AcDbEntity
  8
Z0_LOWERTHIRD
370
        25
  6
Continuous
 62
         4
100
AcDbLine
 10
3.4
 20
14.0171698519
 30
0.0
 11
3.4
 21
13.9321698519
 31
0.0
  0
CIRCLE
  5
EC
102
{ACAD_REACTORS
330
EE
102
}
100
AcDbEntity
  8
Z0_LOWERTHIRD
370
        25
  6
Continuous
 62
         4
100
AcDbCircle
 10
3.4
 20
13.7321698519
 30
0.0
 40
0.059
  0
CIRCLE
  5
ED
102
{ACAD_REACTORS
330
EE
102
}
100
AcDbEntity
  8
Z0_LOWERTHIRD
370
        25
  6
Continuous
 62
         4
100
AcDbCircle
 10
3.4
 20
13.7321698519
 30
0.0
 40
0.085
  0
ARC
  5
EF
102
{ACAD_REACTORS
330
F5
102
}
100
AcDbEntity
  8
Z0_TOPCOMP
370
        25
  6
Continuous
 62
        37
100
AcDbCircle
 10
3.4
 20
13.7321698519
 30
0.0
 40
0.4
100
AcDbArc
 50
24.3367061466
 51
-180.0
  0
ARC
  5
F0
102
{ACAD_REACTORS
330
F5
102
}
100
AcDbEntity
  8
Z0_TOPCOMP
370
        25
  6
Continuous
 62
        37
100
AcDbCircle
 10
3.4
 20
10.6696698519
 30
0.0
 40
0.4
100
AcDbArc
 50
180.0
 51
-119.2285992361
  0
ARC
  5
F1
102
{ACAD_REACTORS
330
F5
102
}
100
AcDbEntity
  8
Z0_TOPCOMP
370
        25
  6
Continuous
 62
        37
100
AcDbCircle
 10
5.2544417126
 20
9.6320423009
 30
0.0
 40
0.4
100
AcDbArc
 50
-119.2285992361
 51
24.3367061467
  0
LINE
  5
F2
102
{ACAD_REACTORS
330
F5
102
}
100
AcDbEntity
  8
Z0_TOPCOMP
370
        25
  6
Continuous
 62
        37
100
AcDbLine
 10
5.0591235853
 20
9.2829709197
 30
0.0
 11
3.2046818727
 21
10.3205984707
 31
0.0
  0
LINE
  5
F3
102
{ACAD_REACTORS
330
F5
102
}
100
AcDbEntity
  8
Z0_TOPCOMP
370
        25
  6
Continuous
 62
        37
100
AcDbLine
 10
5.6188974949
 20
9.7968815642
 30
0.0
 11
3.7644557823
 21
13.8970091153
 31
0.0
  0
LINE
  5
F4
102
{ACAD_REACTORS
330
F5
102
}
100
AcDbEntity
  8
Z0_TOPCOMP
370
        25
  6
Continuous
 62
        37
100
AcDbLine
 10
3.0
 20
13.7321698519
 30
0.0
 11
3.0
 21
10.6696698519
 31
0.0
  0
LINE
  5
F6
102
{ACAD_REACTORS
330
FC
102
}
100
AcDbEntity
  8
Z0_TOPCOMP
370
        25
  6
Continuous
 62
         2
100
AcDbLine
 10
3.0
 20
13.7321698519
 30
0.0
 11
3.0
 21
10.6696698519
 31
0.0
  0
LINE
  5
F7
102
{ACAD_REACTORS
330
FC
102
}
100
AcDbEntity
  8
Z0_TOPCOMP
370
        25
  6
Continuous
 62
         2
100
AcDbLine
 10
3.185
 20
10.6696698519
 30
0.0
 11
3.185
 21
13.7321698519
 31
0.0
  0
LINE
  5
F8
102
{ACAD_REACTORS
330
FC
102
}
100
AcDbEntity
  8
Z0_TOPCOMP
370
        25
  6
Continuous
 62
         2
100
AcDbLine
 10
3.595894983
 20
13.820770956
 30
0.0
 11
5.4503366956
 21
9.7206434049
 31
0.0
  0
LINE
  5
F9
102
{ACAD_REACTORS
330
FC
102
}
100
AcDbEntity
  8
Z0_TOPCOMP
370
        25
  6
Continuous
 62
         2
100
AcDbLine
 10
5.6188974949
 20
9.7968815642
 30
0.0
 11
3.7644557823
 21
13.8970091153
 31
0.0
  0
LINE
  5
FA
102
{ACAD_REACTORS
330
FC
102
}
100
AcDbEntity
  8
Z0_TOPCOMP
370
        25
  6
Continuous
 62
         2
100
AcDbLine
 10
5.0591235853
 20
9.2829709197
 30
0.0
 11
3.2046818727
 21
10.3205984707
 31
0.0
  0
LINE
  5
FB
102
{ACAD_REACTORS
330
FC
102
}
100
AcDbEntity
  8
Z0_TOPCOMP
370
        25
  6
Continuous
 62
         2
100
AcDbLine
 10
5.1494582192
 20
9.4444164335
 30
0.0
 11
3.2950165066
 21
10.4820439845
 31
0.0
  0
CIRCLE
  5
FD
100
AcDbEntity
  8
Z0_LOWERTHIRD
370
        25
  6
Continuous
 62
         6
100
AcDbCircle
 10
3.4
 20
10.6696698519
 30
0.0
 40
0.35
  0
CIRCLE
  5
FE
100
AcDbEntity
  8
Z0_LOWERTHIRD
370
        25
  6
Continuous
 62
         5
100
AcDbCircle
 10
4.3272208563
 20
10.3058656934
 30
0.0
 40
0.234375
  0
CIRCLE
  5
FF
100
AcDbEntity
  8
Z0_LOWERTHIRD
370
        25
  6
Continuous
 62
         5
100
AcDbCircle
 10
3.5247670709
 20
12.0677487841
 30
0.0
 40
0.234375
  0
LINE
  5
100
102
{ACAD_REACTORS
330
108
102
}
100
AcDbEntity
  8
Z0_LOWERTHIRD
370
         5
  6
Continuous
 62
         6
100
AcDbLine
 10
4.7485976087
 20
11.8128176185
 30
0.0
 11
4.7036359452
 21
11.9122268307
 31
0.0
  0
LINE
  5
101
102
{ACAD_REACTORS
330
108
102
}
100
AcDbEntity
  8
Z0_LOWERTHIRD
370
         5
  6
Continuous
 62
         6
100
AcDbLine
 10
4.410241477
 20
11.6597829378
 30
0.0
 11
4.3652797998
 21
11.7591921487
 31
0.0
  0
LINE
  5
102
102
{ACAD_REACTORS
330
108
102
}
100
AcDbEntity
  8
Z0_LOWERTHIRD
370
         5
  6
Continuous
 62
         6
100
AcDbLine
 10
4.3306233827
 20
11.7435174337
 30
0.0
 11
4.3755850461
 21
11.6441082215
 31
0.0
  0
LINE
  5
103
102
{ACAD_REACTORS
330
108
102
}
100
AcDbEntity
  8
Z0_LOWERTHIRD
370
         5
  6
Continuous
 62
         6
100
AcDbLine
 10
4.0372289144
 20
11.4910735409
 30
0.0
 11
4.410241477
 21
11.6597829378
 31
0.0
  0
LINE
  5
104
102
{ACAD_REACTORS
330
108
102
}
100
AcDbEntity
  8
Z0_LOWERTHIRD
370
         5
  6
Continuous
 62
         6
100
AcDbLine
 10
3.9922672372
 20
11.5904827518
 30
0.0
 11
4.0372289144
 21
11.4910735409
 31
0.0
  0
LINE
  5
105
102
{ACAD_REACTORS
330
108
102
}
100
AcDbEntity
  8
Z0_LOWERTHIRD
370
         5
  6
Continuous
 62
         6
100
AcDbLine
 10
4.7036359452
 20
11.9122268307
 30
0.0
 11
4.3306233827
 21
11.7435174337
 31
0.0
  0
LINE
  5
106
102
{ACAD_REACTORS
330
108
102
}
100
AcDbEntity
  8
Z0_LOWERTHIRD
370
         5
  6
Continuous
 62
         6
100
AcDbLine
 10
4.3652797998
 20
11.7591921487
 30
0.0
 11
3.9922672372
 21
11.5904827518
 31
0.0
  0
LINE
  5
107
102
{ACAD_REACTORS
330
108
102
}
100
AcDbEntity
  8
Z0_LOWERTHIRD
370
         5
  6
Continuous
 62
         6
100
AcDbLine
 10
4.3755850461
 20
11.6441082215
 30
0.0
 11
4.7485976087
 21
11.8128176185
 31
0.0
  0
CIRCLE
  5
109
102
{ACAD_REACTORS
330
10F
102
}
100
AcDbEntity
  8
Z0_LOWERTHIRD
370
        25
  6
Continuous
 62
         5
100
AcDbCircle
 10
4.0183085614
 20
12.6684297797
 30
0.0
 40
0.234375
  0
LINE
  5
10A
102
{ACAD_REACTORS
330
10F
102
}
100
AcDbEntity
  8
Z0_LOWERTHIRD
370
        25
  6
Continuous
 62
         5
100
AcDbLine
 10
4.0344215253
 20
11.8069090756
 30
0.0
 11
4.5184643614
 21
12.0258362217
 31
0.0
  0
CIRCLE
  5
10B
102
{ACAD_REACTORS
330
10F
102
}
100
AcDbEntity
  8
Z0_LOWERTHIRD
370
        25
  6
Continuous
 62
         5
100
AcDbCircle
 10
4.8639180152
 20
10.7988069125
 30
0.0
 40
0.234375
  0
LINE
  5
10C
102
{ACAD_REACTORS
330
10F
102
}
100
AcDbEntity
  8
Z0_LOWERTHIRD
370
        25
  6
Continuous
 62
         5
100
AcDbLine
 10
4.2275925364
 20
11.3798124554
 30
0.0
 11
4.7116353726
 21
11.5987396015
 31
0.0
  0
ARC
  5
10D
102
{ACAD_REACTORS
330
10F
102
}
100
AcDbEntity
  8
Z0_LOWERTHIRD
370
        25
  6
Continuous
 62
         5
100
AcDbCircle
 10
4.6150498669
 20
11.8122879116
 30
0.0
 40
0.234375
100
AcDbArc
 50
-65.6632939148
 51
114.3367060498
  0
ARC
  5
10E
102
{ACAD_REACTORS
330
10F
102
}
100
AcDbEntity
  8
Z0_LOWERTHIRD
370
        25
  6
Continuous
 62
         5
100
AcDbCircle
 10
4.1310070309
 20
11.5933607655
 30
0.0
 40
0.234375
100
AcDbArc
 50
114.3367060852
 51
-65.6632939502
  0
CIRCLE
  5
110
100
AcDbEntity
  8
Z0_LOWERTHIRD
370
        25
  6
Continuous
 62
         2
100
AcDbCircle
 10
5.2544417126
 20
9.6320423009
 30
0.0
 40
0.215
  0
CIRCLE
  5
111
100
AcDbEntity
  8
Z0_LOWERTHIRD
370
        25
  6
Continuous
 62
         2
100
AcDbCircle
 10
5.2544417126
 20
9.6320423009
 30
0.0
 40
0.4
  0
CIRCLE
  5
112
100
AcDbEntity
  8
Z0_LOWERTHIRD
370
        25
  6
Continuous
 62
         6
100
AcDbCircle
 10
5.2544417126
 20
9.6320423009
 30
0.0
 40
0.35
  0
CIRCLE
  5
113
100
AcDbEntity
  8
Z0_LOWERTHIRD
370
        25
  6
Continuous
 62
         5
100
AcDbCircle
 10
5.2544417126
 20
9.6320423009
 30
0.0
 40
0.0825
  0
CIRCLE
  5
114
100
AcDbEntity
  8
Z0_LOWERTHIRD
370
        25
  6
Continuous
 62
        37
100
AcDbCircle
 10
5.2544417126
 20
9.6320423009
 30
0.0
 40
0.075
  0
CIRCLE
  5
115
100
AcDbEntity
  8
Z0_LOWERTHIRD
370
        25
  6
Continuous
 62
         2
100
AcDbCircle
 10
3.4
 20
10.6696698519
 30
0.0
 40
0.215
  0
ARC
  5
116
102
{ACAD_REACTORS
330
121
102
}
100
AcDbEntity
  8
Z0_LOWERTHIRD
370
        25
  6
Continuous
 62
         4
100
AcDbCircle
 10
3.4
 20
10.6696698519
 30
0.0
 40
0.285
100
AcDbArc
 50
90.0
 51
164.5679286494
  0
ARC
  5
117
102
{ACAD_REACTORS
330
121
102
}
100
AcDbEntity
  8
Z0_LOWERTHIRD
370
        25
  6
Continuous
 62
         4
100
AcDbCircle
 10
3.4
 20
10.6696698519
 30
0.0
 40
0.285
100
AcDbArc
 50
-150.0
 51
-75.4320713506
  0
ARC
  5
118
102
{ACAD_REACTORS
330
121
102
}
100
AcDbEntity
  8
Z0_LOWERTHIRD
370
        25
  6
Continuous
 62
         4
100
AcDbCircle
 10
3.4
 20
10.6696698519
 30
0.0
 40
0.285
100
AcDbArc
 50
-30.0
 51
44.5679286494
  0
LINE
  5
119
102
{ACAD_REACTORS
330
121
102
}
100
AcDbEntity
  8
Z0_LOWERTHIRD
370
        25
  6
Continuous
 62
         4
100
AcDbLine
 10
3.1531827599
 20
10.5271698519
 30
0.0
 11
3.2267949192
 21
10.5696698519
 31
0.0
  0
LINE
  5
11A
102
{ACAD_REACTORS
330
121
102
}
100
AcDbEntity
  8
Z0_LOWERTHIRD
370
        25
  6
Continuous
 62
         4
100
AcDbLine
 10
3.2267949192
 20
10.5696698519
 30
0.0
 11
3.1252752167
 21
10.7455071347
 31
0.0
  0
LINE
  5
11B
102
{ACAD_REACTORS
330
121
102
}
100
AcDbEntity
  8
Z0_LOWERTHIRD
370
        25
  6
Continuous
 62
         4
100
AcDbLine
 10
3.6468172401
 20
10.5271698519
 30
0.0
 11
3.5732050808
 21
10.5696698519
 31
0.0
  0
LINE
  5
11C
102
{ACAD_REACTORS
330
121
102
}
100
AcDbEntity
  8
Z0_LOWERTHIRD
370
        25
  6
Continuous
 62
         4
100
AcDbLine
 10
3.5732050808
 20
10.5696698519
 30
0.0
 11
3.4716853782
 21
10.3938325692
 31
0.0
  0
LINE
  5
11D
102
{ACAD_REACTORS
330
121
102
}
100
AcDbEntity
  8
Z0_LOWERTHIRD
370
        25
  6
Continuous
 62
         4
100
AcDbLine
 10
3.4
 20
10.8696698519
 30
0.0
 11
3.603039405
 21
10.8696698519
 31
0.0
  0
LINE
  5
11E
102
{ACAD_REACTORS
330
121
102
}
100
AcDbEntity
  8
Z0_LOWERTHIRD
370
        25
  6
Continuous
 62
         4
100
AcDbLine
 10
3.4
 20
10.9546698519
 30
0.0
 11
3.4
 21
10.8696698519
 31
0.0
  0
CIRCLE
  5
11F
102
{ACAD_REACTORS
330
121
102
}
100
AcDbEntity
  8
Z0_LOWERTHIRD
370
        25
  6
Continuous
 62
         4
100
AcDbCircle
 10
3.4
 20
10.6696698519
 30
0.0
 40
0.059
  0
CIRCLE
  5
120
102
{ACAD_REACTORS
330
121
102
}
100
AcDbEntity
  8
Z0_LOWERTHIRD
370
        25
  6
Continuous
 62
         4
100
AcDbCircle
 10
3.4
 20
10.6696698519
 30
0.0
 40
0.085
  0
CIRCLE
  5
122
100
AcDbEntity
  8
Z0_LOWERTHIRD
370
        25
  6
Continuous
 62
         5
100
AcDbCircle
 10
3.4
 20
10.6696698519
 30
0.0
 40
0.0825
  0
LINE
  5
123
100
AcDbEntity
  8
Z0_LOWERTHIRD
370
        25
  6
Continuous
 62
         6
100
AcDbLine
 10
1.78125
 20
13.9009241091
 30
0.0
 11
1.78125
 21
10.5259241091
 31
0.0
  0
LINE
  5
124
100
AcDbEntity
  8
Z0_LOWERTHIRD
370
        25
  6
Continuous
 62
         6
100
AcDbLine
 10
1.71875
 20
13.9009241091
 30
0.0
 11
1.71875
 21
10.5259241091
 31
0.0
  0
LINE
  5
125
102
{ACAD_REACTORS
330
12B
102
}
100
AcDbEntity
  8
Z0_LOWERTHIRD
370
        25
  6
Continuous
 62
         6
100
AcDbLine
 10
1.983079988
 20
9.6802670042
 30
0.0
 11
5.3870496822
 21
7.7592148005
 31
0.0
  0
LINE
  5
126
102
{ACAD_REACTORS
330
12B
102
}
100
AcDbEntity
  8
Z0_LOWERTHIRD
370
        25
  6
Continuous
 62
         6
100
AcDbLine
 10
1.9523619317
 20
9.6258367642
 30
0.0
 11
5.356331626
 21
7.7047845606
 31
0.0
  0
ARC
  5
127
102
{ACAD_REACTORS
330
12B
102
}
100
AcDbEntity
  8
Z0_LOWERTHIRD
370
        25
  6
Continuous
 62
         6
100
AcDbCircle
 10
2.1781537996
 20
10.0259241091
 30
0.0
 40
0.4594037996
100
AcDbArc
 50
180.0
 51
-119.4384896747
  0
ARC
  5
128
102
{ACAD_REACTORS
330
12B
102
}
100
AcDbEntity
  8
Z0_LOWERTHIRD
370
        25
  6
Continuous
 62
         6
100
AcDbCircle
 10
2.1781537996
 20
10.0259241091
 30
0.0
 40
0.3969037996
100
AcDbArc
 50
180.0
 51
-119.4384896747
  0
CIRCLE
  5
129
102
{ACAD_REACTORS
330
12B
102
}
100
AcDbEntity
  8
Z0_TOPCOMP
370
        25
  6
Continuous
 62
         6
100
AcDbCircle
 10
1.75
 20
10.0259241091
 30
0.0
 40
0.03125
  0
CIRCLE
  5
12A
102
{ACAD_REACTORS
330
12B
102
}
100
AcDbEntity
  8
Z0_TOPCOMP
370
        25
  6
Continuous
 62
         6
100
AcDbCircle
 10
5.3716906541
 20
7.7319996805
 30
0.0
 40
0.03125
  0
CIRCLE
  5
12C
100
AcDbEntity
  8
3_250BIT_500TAB
370
        25
  6
Continuous
 62
         5
100
AcDbCircle
 10
5.5859539464
 20
6.9625996763
 30
0.0
 40
0.25
  0
LINE
  5
12D
102
{ACAD_REACTORS
330
154
102
}
100
AcDbEntity
  8
Z_TATTOOMYSTIQUE
370
         5
  6
Continuous
 62
         4
100
AcDbLine
 10
5.3067437123
 20
6.3010717127
 30
0.0
 11
3.8842286741
 21
7.0258793269
 31
0.0
  0
LINE
  5
12E
102
{ACAD_REACTORS
330
154
102
}
100
AcDbEntity
  8
Z_TATTOOMYSTIQUE
370
         5
  6
Continuous
 62
         4
100
AcDbLine
 10
5.307248022
 20
7.1046074377
 30
0.0
 11
5.8646598708
 21
6.8205919149
 31
0.0
  0
LINE
  5
12F
102
{ACAD_REACTORS
330
154
102
}
100
AcDbEntity
  8
Z_TATTOOMYSTIQUE
370
         5
  6
Continuous
 62
         4
100
AcDbLine
 10
7.1659946925
 20
6.201903004
 30
0.0
 11
7.6609764143
 21
5.9496972197
 31
0.0
  0
LINE
  5
130
102
{ACAD_REACTORS
330
154
102
}
100
AcDbEntity
  8
Z_TATTOOMYSTIQUE
370
         5
  6
Continuous
 62
         4
100
AcDbLine
 10
7.3178856627
 20
5.2763437064
 30
0.0
 11
6.822903941
 21
5.5285494906
 31
0.0
  0
LINE
  5
131
102
{ACAD_REACTORS
330
154
102
}
100
AcDbEntity
  8
Z_TATTOOMYSTIQUE
370
         5
  6
Continuous
 62
         4
100
AcDbLine
 10
6.6882755615
 20
5.4848060785
 30
0.0
 11
6.5928463459
 21
5.2975156973
 31
0.0
  0
LINE
  5
132
102
{ACAD_REACTORS
330
154
102
}
100
AcDbEntity
  8
Z_TATTOOMYSTIQUE
370
         5
  6
Continuous
 62
         4
100
AcDbLine
 10
5.7337377587
 20
10.6557452863
 30
0.0
 11
7.1473342072
 21
9.9354819204
 31
0.0
  0
LINE
  5
133
102
{ACAD_REACTORS
330
154
102
}
100
AcDbEntity
  8
Z_TATTOOMYSTIQUE
370
         5
  6
Continuous
 62
         4
100
AcDbLine
 10
7.1222512804
 20
6.3365313834
 30
0.0
 11
8.1946938945
 21
8.4413185245
 31
0.0
  0
LINE
  5
134
102
{ACAD_REACTORS
330
154
102
}
100
AcDbEntity
  8
Z_TATTOOMYSTIQUE
370
         5
  6
Continuous
 62
         4
100
AcDbLine
 10
4.2273194257
 20
7.6992328403
 30
0.0
 11
4.7223011474
 21
7.447027056
 31
0.0
  0
LINE
  5
135
102
{ACAD_REACTORS
330
154
102
}
100
AcDbEntity
  8
Z_TATTOOMYSTIQUE
370
         5
  6
Continuous
 62
         4
100
AcDbLine
 10
3.8842286741
 20
7.0258793269
 30
0.0
 11
4.2273194257
 21
7.6992328403
 31
0.0
  0
LINE
  5
136
102
{ACAD_REACTORS
330
154
102
}
100
AcDbEntity
  8
Z_TATTOOMYSTIQUE
370
         5
  6
Continuous
 62
         4
100
AcDbLine
 10
7.3178856627
 20
5.2763437064
 30
0.0
 11
7.6609764143
 21
5.9496972197
 31
0.0
  0
LINE
  5
137
102
{ACAD_REACTORS
330
154
102
}
100
AcDbEntity
  8
Z_TATTOOMYSTIQUE
370
         5
  6
Continuous
 62
         4
100
AcDbLine
 10
8.6286696134
 20
9.2930438295
 30
0.0
 11
8.8967802669
 21
9.8192406147
 31
0.0
  0
LINE
  5
138
102
{ACAD_REACTORS
330
154
102
}
100
AcDbEntity
  8
Z_TATTOOMYSTIQUE
370
         5
  6
Continuous
 62
         4
100
AcDbLine
 10
8.6724130255
 20
9.15841545
 30
0.0
 11
9.1673947473
 21
8.9062096658
 31
0.0
  0
LINE
  5
139
102
{ACAD_REACTORS
330
154
102
}
100
AcDbEntity
  8
Z_TATTOOMYSTIQUE
370
         5
  6
Continuous
 62
         4
100
AcDbLine
 10
8.8243039957
 20
8.2328561524
 30
0.0
 11
8.329322274
 21
8.4850619367
 31
0.0
  0
LINE
  5
13A
102
{ACAD_REACTORS
330
154
102
}
100
AcDbEntity
  8
Z_TATTOOMYSTIQUE
370
         5
  6
Continuous
 62
         4
100
AcDbLine
 10
8.8243039957
 20
8.2328561524
 30
0.0
 11
9.1673947473
 21
8.9062096658
 31
0.0
  0
ARC
  5
13B
102
{ACAD_REACTORS
330
154
102
}
100
AcDbEntity
  8
Z0_LOWERTHIRD
370
        25
  6
Continuous
 62
         4
100
AcDbCircle
 10
7.2114371762
 20
6.2910888998
 30
0.0
 40
0.1000956709
100
AcDbArc
 50
153.0
 51
-117.0
  0
ARC
  5
13C
102
{ACAD_REACTORS
330
154
102
}
100
AcDbEntity
  8
Z0_LOWERTHIRD
370
        25
  6
Continuous
 62
         4
100
AcDbCircle
 10
8.2838797903
 20
8.3958760409
 30
0.0
 40
0.1000956709
100
AcDbArc
 50
62.9999999999
 51
153.0000000003
  0
ARC
  5
13D
102
{ACAD_REACTORS
330
154
102
}
100
AcDbEntity
  8
Z0_LOWERTHIRD
370
        25
  6
Continuous
 62
         4
100
AcDbCircle
 10
8.7178555092
 20
9.2476013458
 30
0.0
 40
0.1000956709
100
AcDbArc
 50
152.9999999999
 51
-117.0
  0
ARC
  5
13E
102
{ACAD_REACTORS
330
154
102
}
100
AcDbEntity
  8
Z0_LOWERTHIRD
370
        25
  6
Continuous
 62
         4
100
AcDbCircle
 10
7.1927766909
 20
10.0246678162
 30
0.0
 40
0.1000956709
100
AcDbArc
 50
-117.0
 51
-27.0000000007
  0
ARC
  5
13F
102
{ACAD_REACTORS
330
154
102
}
100
AcDbEntity
  8
Z0_LOWERTHIRD
370
        25
  6
Continuous
 62
         4
100
AcDbCircle
 10
5.8401862452
 20
9.6410000929
 30
0.0
 40
0.1000956709
100
AcDbArc
 50
-27.0
 51
62.9999999998
  0
ARC
  5
140
102
{ACAD_REACTORS
330
154
102
}
100
AcDbEntity
  8
Z0_LOWERTHIRD
370
        25
  6
Continuous
 62
         4
100
AcDbCircle
 10
4.7677436311
 20
7.5362129518
 30
0.0
 40
0.1000956709
100
AcDbArc
 50
-117.0
 51
-26.9999999999
  0
ARC
  5
141
102
{ACAD_REACTORS
330
154
102
}
100
AcDbEntity
  8
Z0_LOWERTHIRD
370
        25
  6
Continuous
 62
         4
100
AcDbCircle
 10
5.2613012286
 20
6.2118858169
 30
0.0
 40
0.1000956709
100
AcDbArc
 50
-27.0000000002
 51
63.0000000001
  0
ARC
  5
142
102
{ACAD_REACTORS
330
154
102
}
100
AcDbEntity
  8
Z0_LOWERTHIRD
370
        25
  6
Continuous
 62
         4
100
AcDbCircle
 10
6.7774614573
 20
5.4393635948
 30
0.0
 40
0.1000956709
100
AcDbArc
 50
62.9999999999
 51
153.0000000003
  0
CIRCLE
  5
143
102
{ACAD_REACTORS
330
154
102
}
100
AcDbEntity
  8
Z0_LOWERTHIRD
370
        25
  6
Continuous
 62
         4
100
AcDbCircle
 10
5.8133832376
 20
10.3932923924
 30
0.0
 40
0.069
  0
CIRCLE
  5
144
102
{ACAD_REACTORS
330
154
102
}
100
AcDbEntity
  8
Z0_LOWERTHIRD
370
        25
  6
Continuous
 62
         4
100
AcDbCircle
 10
5.6429739239
 20
10.0588452831
 30
0.0
 40
0.069
  0
CIRCLE
  5
145
102
{ACAD_REACTORS
330
154
102
}
100
AcDbEntity
  8
Z0_LOWERTHIRD
370
        25
  6
Continuous
 62
         4
100
AcDbCircle
 10
8.908251458
 20
8.8163782712
 30
0.0
 40
0.069
  0
CIRCLE
  5
146
102
{ACAD_REACTORS
330
154
102
}
100
AcDbEntity
  8
Z0_LOWERTHIRD
370
        25
  6
Continuous
 62
         4
100
AcDbCircle
 10
8.7378421443
 20
8.481931162
 30
0.0
 40
0.069
  0
CIRCLE
  5
147
102
{ACAD_REACTORS
330
154
102
}
100
AcDbEntity
  8
Z0_LOWERTHIRD
370
        25
  6
Continuous
 62
         4
100
AcDbCircle
 10
7.4085906796
 20
5.8732736788
 30
0.0
 40
0.069
  0
CIRCLE
  5
148
102
{ACAD_REACTORS
330
154
102
}
100
AcDbEntity
  8
Z0_LOWERTHIRD
370
        25
  6
Continuous
 62
         4
100
AcDbCircle
 10
7.2381813659
 20
5.5388265695
 30
0.0
 40
0.069
  0
CIRCLE
  5
149
102
{ACAD_REACTORS
330
154
102
}
100
AcDbEntity
  8
Z0_LOWERTHIRD
370
        25
  6
Continuous
 62
         4
100
AcDbCircle
 10
4.1433719634
 20
7.1157107214
 30
0.0
 40
0.069
  0
CIRCLE
  5
14A
102
{ACAD_REACTORS
330
154
102
}
100
AcDbEntity
  8
Z0_LOWERTHIRD
370
        25
  6
Continuous
 62
         4
100
AcDbCircle
 10
4.3137812771
 20
7.4501578307
 30
0.0
 40
0.069
  0
LINE
  5
14B
102
{ACAD_REACTORS
330
154
102
}
100
AcDbEntity
  8
Z_TATTOOMYSTIQUE
370
         5
  6
Continuous
 62
         4
100
AcDbLine
 10
5.8856287289
 20
9.7301859887
 30
0.0
 11
5.3906470071
 21
9.9823917729
 31
0.0
  0
LINE
  5
14C
102
{ACAD_REACTORS
330
154
102
}
100
AcDbEntity
  8
Z_TATTOOMYSTIQUE
370
         5
  6
Continuous
 62
         4
100
AcDbLine
 10
5.7337377587
 20
10.6557452863
 30
0.0
 11
5.3906470071
 21
9.9823917729
 31
0.0
  0
LINE
  5
14D
102
{ACAD_REACTORS
330
154
102
}
100
AcDbEntity
  8
Z_TATTOOMYSTIQUE
370
         5
  6
Continuous
 62
         4
100
AcDbLine
 10
6.6351078557
 20
5.3804585804
 30
0.0
 11
5.2973194185
 21
6.0620958351
 31
0.0
  0
LINE
  5
14E
102
{ACAD_REACTORS
330
154
102
}
100
AcDbEntity
  8
Z_TATTOOMYSTIQUE
370
         5
  6
Continuous
 62
         4
100
AcDbLine
 10
6.5928463459
 20
5.2975156973
 30
0.0
 11
5.2550579087
 21
5.979152952
 31
0.0
  0
LINE
  5
14F
102
{ACAD_REACTORS
330
154
102
}
100
AcDbEntity
  8
Z_TATTOOMYSTIQUE
370
         5
  6
Continuous
 62
         4
100
AcDbLine
 10
8.8967802669
 20
9.8192406147
 30
0.0
 11
7.5500732402
 21
10.5054221179
 31
0.0
  0
LINE
  5
150
102
{ACAD_REACTORS
330
154
102
}
100
AcDbEntity
  8
Z_TATTOOMYSTIQUE
370
         5
  6
Continuous
 62
         4
100
AcDbLine
 10
5.443946185
 20
6.6838937519
 30
0.0
 11
5.7279617078
 21
7.2413056007
 31
0.0
  0
LINE
  5
151
102
{ACAD_REACTORS
330
154
102
}
100
AcDbEntity
  8
Z_TATTOOMYSTIQUE
370
         5
  6
Continuous
 62
         4
100
AcDbLine
 10
4.8569295269
 20
7.4907704682
 30
0.0
 11
5.929372141
 21
9.5955576092
 31
0.0
  0
LINE
  5
152
102
{ACAD_REACTORS
330
154
102
}
100
AcDbEntity
  8
Z_TATTOOMYSTIQUE
370
         5
  6
Continuous
 62
         4
100
AcDbLine
 10
7.5500732402
 20
10.5054221179
 30
0.0
 11
7.2819625867
 21
9.9792253326
 31
0.0
  0
LINE
  5
153
102
{ACAD_REACTORS
330
154
102
}
100
AcDbEntity
  8
Z_TATTOOMYSTIQUE
370
         5
  6
Continuous
 62
         4
100
AcDbLine
 10
5.2550579087
 20
5.979152952
 30
0.0
 11
5.3504871244
 21
6.1664433332
 31
0.0
  0
ENDSEC
  0
SECTION
  2
OBJECTS
  0
DICTIONARY
  5
19
100
AcDbDictionary
280
         0
281
         1
  3
ACAD_GROUP
350
1A
  3
ACAD_MLINESTYLE
350
1B
  3
ACAD_LAYOUT
350
1E
  3
ACAD_PLOTSETTINGS
350
22
  3
ACAD_PLOTSTYLENAME
350
1F
  3
ACAD_WIPEOUT_VARS
350
23
  0
DICTIONARY
  5
1A
102
{ACAD_REACTORS
330
19
102
}
100
AcDbDictionary
280
         0
281
         1
  3
VELLUMGRP1
350
65
  3
VELLUMGRP2
350
D4
  3
VELLUMGRP3
350
E0
  3
VELLUMGRP4
350
EE
  3
VELLUMGRP5
350
F5
  3
VELLUMGRP6
350
FC
  3
VELLUMGRP7
350
108
  3
VELLUMGRP8
350
10F
  3
VELLUMGRP9
350
121
  3
VELLUMGRP10
350
12B
  3
VELLUMGRP11
350
154
  0
DICTIONARY
  5
1B
102
{ACAD_REACTORS
330
19
102
}
100
AcDbDictionary
280
         0
281
         1
  3
Standard
350
1C
  0
MLINESTYLE
  5
1C
102
{ACAD_REACTORS
330
1B
102
}
100
AcDbMlineStyle
  2
Standard
 70
         0
  3

 62
         0
 51
90.0
 52
90.0
 71
         2
 49
0.5
 62
       256
  6
BYLAYER
 49
-0.5
 62
       256
  6
BYLAYER
  0
ACDBDICTIONARYWDFLT
  5
1F
102
{ACAD_REACTORS
330
19
102
}
100
AcDbDictionary
281
         1
  3
Normal
350
1D
100
AcDbDictionaryWithDefault
340
1D
  0
ACDBPLACEHOLDER
  5
1D
102
{ACAD_REACTORS
330
1F
102
}
  0
LAYOUT
  5
20
102
{ACAD_REACTORS
330
1E
102
}
100
AcDbPlotSettings
  1

  2

  4

  6

 40
0.0
 41
0.0
 42
0.0
 43
0.0
 44
0.0
 45
0.0
 46
0.0
 47
0.0
 48
0.0
 49
0.0
140
0.0
141
0.0
142
1.0
143
1.0
 70
      1024
 72
         0
 73
         0
 74
         0
  7

 75
         0
147
1.0
148
0.0
149
0.0
100
AcDbLayout
  1
Model
 70
         0
 71
         0
 10
0.0
 20
0.0
 11
0.0
 21
0.0
 12
0.0
 22
0.0
 32
0.0
 14
0.0
 24
0.0
 34
0.0
 15
0.0
 25
0.0
 35
0.0
146
0.0
 13
0.0
 23
0.0
 33
0.0
 16
0.0
 26
0.0
 36
0.0
 17
0.0
 27
0.0
 37
0.0
 76
         0
330
A
331
0
345
0
346
0
  0
LAYOUT
  5
21
102
{ACAD_REACTORS
330
1E
102
}
100
AcDbPlotSettings
  1

  2

  4

  6

 40
0.0
 41
0.0
 42
0.0
 43
0.0
 44
0.0
 45
0.0
 46
0.0
 47
0.0
 48
0.0
 49
0.0
140
0.0
141
0.0
142
1.0
143
1.0
 70
         0
 72
         0
 73
         0
 74
         0
  7

 75
         0
147
1.0
148
0.0
149
0.0
100
AcDbLayout
  1
Layout1
 70
         0
 71
         0
 10
0.0
 20
0.0
 11
0.0
 21
0.0
 12
0.0
 22
0.0
 32
0.0
 14
0.0
 24
0.0
 34
0.0
 15
0.0
 25
0.0
 35
0.0
146
0.0
 13
0.0
 23
0.0
 33
0.0
 16
0.0
 26
0.0
 36
0.0
 17
0.0
 27
0.0
 37
0.0
 76
         0
330
B
331
0
345
0
346
0
  0
DICTIONARY
  5
1E
102
{ACAD_REACTORS
330
19
102
}
100
AcDbDictionary
280
         0
281
         1
  3
Layout1
350
21
  3
Model
350
20
  0
DICTIONARY
  5
22
102
{ACAD_REACTORS
330
19
102
}
100
AcDbDictionary
280
         0
281
         1
  0
WIPEOUTVARIABLES
  5
23
100
AcDbWipeoutVariables
 70
         1
  0
GROUP
  5
65
102
{ACAD_XDICTIONARY
360
5CEB210060EB2100
102
}
102
{ACAD_REACTORS
330
1A
102
}
100
AcDbGroup
300
This is Vellum Group Number 1
 70
         0
 71
         1
340
58
340
59
340
5A
340
5B
340
5C
340
5D
340
5E
340
5F
340
60
340
61
340
62
340
63
340
64
  0
GROUP
  5
D4
102
{ACAD_XDICTIONARY
360
3207917C60EB2100
102
}
102
{ACAD_REACTORS
330
1A
102
}
100
AcDbGroup
300
This is Vellum Group Number 2
 70
         0
 71
         1
340
77
340
78
340
79
340
7A
340
7B
340
7C
340
7D
340
7E
340
7F
340
80
340
81
340
82
340
83
340
84
340
85
340
86
340
87
340
88
340
89
340
8A
340
8B
340
8C
340
8D
340
8E
340
8F
340
90
340
91
340
92
340
93
340
94
340
95
340
96
340
97
340
98
340
99
340
9A
340
9B
340
9C
340
9D
340
9E
340
9F
340
A0
340
A1
340
A2
340
A3
340
A4
340
A5
340
A6
340
A7
340
A8
340
A9
340
AA
340
AB
340
AC
340
AD
340
AE
340
AF
340
B0
340
B1
340
B2
340
B3
340
B4
340
B5
340
B6
340
B7
340
B8
340
B9
340
BA
340
BB
340
BC
340
BD
340
BE
340
BF
340
C0
340
C1
340
C2
340
C3
340
C4
340
C5
340
C6
340
C7
340
C8
340
C9
340
CA
340
CB
340
CC
340
CD
340
CE
340
CF
340
D0
340
D1
340
D2
340
D3
  0
GROUP
  5
E0
102
{ACAD_XDICTIONARY
360
3207917C60EB2100
102
}
102
{ACAD_REACTORS
330
1A
102
}
100
AcDbGroup
300
This is Vellum Group Number 3
 70
         0
 71
         1
340
D5
340
D6
340
D7
340
D8
340
D9
340
DA
340
DB
340
DC
340
DD
340
DE
340
DF
  0
GROUP
  5
EE
102
{ACAD_XDICTIONARY
360
3207917C60EB2100
102
}
102
{ACAD_REACTORS
330
1A
102
}
100
AcDbGroup
300
This is Vellum Group Number 4
 70
         0
 71
         1
340
E3
340
E4
340
E5
340
E6
340
E7
340
E8
340
E9
340
EA
340
EB
340
EC
340
ED
  0
GROUP
  5
F5
102
{ACAD_XDICTIONARY
360
3207917C60EB2100
102
}
102
{ACAD_REACTORS
330
1A
102
}
100
AcDbGroup
300
This is Vellum Group Number 5
 70
         0
 71
         1
340
EF
340
F0
340
F1
340
F2
340
F3
340
F4
  0
GROUP
  5
FC
102
{ACAD_XDICTIONARY
360
3207917C60EB2100
102
}
102
{ACAD_REACTORS
330
1A
102
}
100
AcDbGroup
300
This is Vellum Group Number 6
 70
         0
 71
         1
340
F6
340
F7
340
F8
340
F9
340
FA
340
FB
  0
GROUP
  5
108
102
{ACAD_XDICTIONARY
360
3207917C60EB2100
102
}
102
{ACAD_REACTORS
330
1A
102
}
100
AcDbGroup
300
This is Vellum Group Number 7
 70
         0
 71
         1
340
100
340
101
340
102
340
103
340
104
340
105
340
106
340
107
  0
GROUP
  5
10F
102
{ACAD_XDICTIONARY
360
3207917C60EB2100
102
}
102
{ACAD_REACTORS
330
1A
102
}
100
AcDbGroup
300
This is Vellum Group Number 8
 70
         0
 71
         1
340
109
340
10A
340
10B
340
10C
340
10D
340
10E
  0
GROUP
  5
121
102
{ACAD_XDICTIONARY
360
3207917C60EB2100
102
}
102
{ACAD_REACTORS
330
1A
102
}
100
AcDbGroup
300
This is Vellum Group Number 9
 70
         0
 71
         1
340
116
340
117
340
118
340
119
340
11A
340
11B
340
11C
340
11D
340
11E
340
11F
340
120
  0
GROUP
  5
12B
102
{ACAD_XDICTIONARY
360
3207917C60EB2100
102
}
102
{ACAD_REACTORS
330
1A
102
}
100
AcDbGroup
300
This is Vellum Group Number 10
 70
         0
 71
         1
340
125
340
126
340
127
340
128
340
129
340
12A
  0
GROUP
  5
154
102
{ACAD_XDICTIONARY
360
3207917C60EB2100
102
}
102
{ACAD_REACTORS
330
1A
102
}
100
AcDbGroup
300
This is Vellum Group Number 11
 70
         0
 71
         1
340
12D
340
12E
340
12F
340
130
340
131
340
132
340
133
340
134
340
135
340
136
340
137
340
138
340
139
340
13A
340
13B
340
13C
340
13D
340
13E
340
13F
340
140
340
141
340
142
340
143
340
144
340
145
340
146
340
147
340
148
340
149
340
14A
340
14B
340
14C
340
14D
340
14E
340
14F
340
150
340
151
340
152
340
153
  0
ENDSEC
  0
EOF
