  0
SECTION
  2
HEADER
  9
$ACADVER
  1
AC1015
  9
$ACADMAINTVER
 70
         6
  9
$DWGCODEPAGE
  3
ANSI_1252
  9
$INSBASE
 10
0.0
 20
0.0
 30
0.0
  9
$EXTMIN
 10
-0.93969262
 20
-0.98480775
 30
0.0
  9
$EXTMAX
 10
13.0
 20
12.98480775
 30
0.0
  9
$LIMMIN
 10
0.0
 20
0.0
  9
$LIMMAX
 10
0.0
 20
0.0
  9
$ORTHOMODE
 70
         0
  9
$REGENMODE
 70
         1
  9
$FILLMODE
 70
         1
  9
$QTEXTMODE
 70
         0
  9
$MIRRTEXT
 70
         1
  9
$LTSCALE
 40
5.0
  9
$ATTMODE
 70
         1
  9
$TEXTSIZE
 40
0.2
  9
$TRACEWID
 40
0.05
  9
$TEXTSTYLE
  7
Standard
  9
$CLAYER
  8
0
  9
$CELTYPE
  6
Continuous
  9
$CECOLOR
 62
       256
  9
$CELTSCALE
 40
1.0
  9
$DISPSILH
 70
         0
  9
$DIMSCALE
 40
1.0
  9
$DIMASZ
 40
0.18
  9
$DIMEXO
 40
0.0625
  9
$DIMDLI
 40
0.38
  9
$DIMRND
 40
0.0
  9
$DIMDLE
 40
0.0
  9
$DIMEXE
 40
0.18
  9
$DIMTP
 40
0.0
  9
$DIMTM
 40
0.0
  9
$DIMTXT
 40
0.18
  9
$DIMCEN
 40
0.09
  9
$DIMTSZ
 40
0.0
  9
$DIMTOL
 70
         0
  9
$DIMLIM
 70
         0
  9
$DIMTIH
 70
         1
  9
$DIMTOH
 70
         1
  9
$DIMSE1
 70
         0
  9
$DIMSE2
 70
         0
  9
$DIMTAD
 70
         0
  9
$DIMZIN
 70
         0
  9
$DIMBLK
  1

  9
$DIMASO
 70
         1
  9
$DIMSHO
 70
         1
  9
$DIMPOST
  1

  9
$DIMAPOST
  1

  9
$DIMALT
 70
         0
  9
$DIMALTD
 70
         2
  9
$DIMALTF
 40
25.4
  9
$DIMLFAC
 40
1.0
  9
$DIMTOFL
 70
         0
  9
$DIMTVP
 40
0.0
  9
$DIMTIX
 70
         0
  9
$DIMSOXD
 70
         0
  9
$DIMSAH
 70
         0
  9
$DIMBLK1
  1

  9
$DIMBLK2
  1

  9
$DIMSTYLE
  2
Standard
  9
$DIMCLRD
 70
         0
  9
$DIMCLRE
 70
         0
  9
$DIMCLRT
 70
         0
  9
$DIMTFAC
 40
1.0
  9
$DIMGAP
 40
0.09
  9
$DIMJUST
 70
         0
  9
$DIMSD1
 70
         0
  9
$DIMSD2
 70
         0
  9
$DIMTOLJ
 70
         1
  9
$DIMTZIN
 70
         0
  9
$DIMALTZ
 70
         0
  9
$DIMALTTZ
 70
         0
  9
$DIMUPT
 70
         0
  9
$DIMDEC
 70
         4
  9
$DIMTDEC
 70
         4
  9
$DIMALTU
 70
         2
  9
$DIMALTTD
 70
         2
  9
$DIMTXSTY
  7
Standard
  9
$DIMAUNIT
 70
         0
  9
$DIMADEC
 70
         0
  9
$DIMALTRND
 40
0.0
  9
$DIMAZIN
 70
         0
  9
$DIMDSEP
 70
         0
  9
$DIMATFIT
 70
         3
  9
$DIMFRAC
 70
         0
  9
$DIMLDRBLK
  1

  9
$DIMLUNIT
 70
         2
  9
$DIMLWD
 70
         0
  9
$DIMLWE
 70
         0
  9
$DIMTMOVE
 70
         0
  9
$LUNITS
 70
         2
  9
$LUPREC
 70
         4
  9
$SKETCHINC
 40
0.1
  9
$FILLETRAD
 40
0.0
  9
$AUNITS
 70
         0
  9
$AUPREC
 70
         0
  9
$MENU
  1
acad
  9
$ELEVATION
 40
0.0
  9
$PELEVATION
 40
0.0
  9
$THICKNESS
 40
0.0
  9
$LIMCHECK
 70
         0
  9
$CHAMFERA
 40
0.0
  9
$CHAMFERB
 40
0.0
  9
$CHAMFERC
 40
0.0
  9
$CHAMFERD
 40
0.0
  9
$SKPOLY
 70
         0
  9
$TDCREATE
 40
2460904.922800926
  9
$TDUCREATE
 40
0.000000000
  9
$TDUPDATE
 40
2460904.922800926
  9
$TDUUPDATE
 40
0.000000000
  9
$TDINDWG
 40
0.0000000000
  9
$TDUSRTIMER
 40
0.0000000000
  9
$USRTIMER
 70
         1
  9
$ANGBASE
 50
0.0
  9
$ANGDIR
 70
         0
  9
$PDMODE
 70
         0
  9
$PDSIZE
 40
0.0
  9
$PLINEWID
 40
0.0
  9
$SPLFRAME
 70
         0
  9
$SPLINETYPE
 70
         6
  9
$SPLINESEGS
 70
         8
  9
$HANDSEED
  5
1AB
  9
$SURFTAB1
 70
         6
  9
$SURFTAB2
 70
         6
  9
$SURFTYPE
 70
         6
  9
$SURFU
 70
         6
  9
$SURFV
 70
         6
  9
$UCSBASE
  2

  9
$UCSNAME
  2

  9
$UCSORG
 10
0.0
 20
0.0
 30
0.0
  9
$UCSXDIR
 10
1.0
 20
0.0
 30
0.0
  9
$UCSYDIR
 10
0.0
 20
1.0
 30
0.0
  9
$UCSORTHOREF
  2

  9
$UCSORTHOVIEW
 70
         0
  9
$UCSORGTOP
 10
0.0
 20
0.0
 30
0.0
  9
$UCSORGBOTTOM
 10
0.0
 20
0.0
 30
0.0
  9
$UCSORGLEFT
 10
0.0
 20
0.0
 30
0.0
  9
$UCSORGRIGHT
 10
0.0
 20
0.0
 30
0.0
  9
$UCSORGFRONT
 10
0.0
 20
0.0
 30
0.0
  9
$UCSORGBACK
 10
0.0
 20
0.0
 30
0.0
  9
$PUCSBASE
  2

  9
$PUCSNAME
  2

  9
$PUCSORG
 10
0.0
 20
0.0
 30
0.0
  9
$PUCSXDIR
 10
1.0
 20
0.0
 30
0.0
  9
$PUCSYDIR
 10
0.0
 20
1.0
 30
0.0
  9
$PUCSORTHOREF
  2

  9
$PUCSORTHOVIEW
 70
         0
  9
$PUCSORGTOP
 10
0.0
 20
0.0
 30
0.0
  9
$PUCSORGBOTTOM
 10
0.0
 20
0.0
 30
0.0
  9
$PUCSORGLEFT
 10
0.0
 20
0.0
 30
0.0
  9
$PUCSORGRIGHT
 10
0.0
 20
0.0
 30
0.0
  9
$PUCSORGFRONT
 10
0.0
 20
0.0
 30
0.0
  9
$PUCSORGBACK
 10
0.0
 20
0.0
 30
0.0
  9
$USERI1
 70
         0
  9
$USERI2
 70
         0
  9
$USERI3
 70
         0
  9
$USERI4
 70
         0
  9
$USERI5
 70
         0
  9
$USERR1
 40
0.0
  9
$USERR2
 40
0.0
  9
$USERR3
 40
0.0
  9
$USERR4
 40
0.0
  9
$USERR5
 40
0.0
  9
$WORLDVIEW
 70
         1
  9
$SHADEDGE
 70
         3
  9
$SHADEDIF
 70
        70
  9
$TILEMODE
 70
         1
  9
$MAXACTVP
 70
        16
  9
$PINSBASE
 10
0.0
 20
0.0
 30
0.0
  9
$PLIMCHECK
 70
         0
  9
$PEXTMIN
 10
1.0000000000E+20
 20
1.0000000000E+20
 30
1.0000000000E+20
  9
$PEXTMAX
 10
-1.0000000000E+20
 20
-1.0000000000E+20
 30
-1.0000000000E+20
  9
$PLIMMIN
 10
0.0
 20
0.0
  9
$PLIMMAX
 10
12.0
 20
9.0
  9
$UNITMODE
 70
         0
  9
$VISRETAIN
 70
         0
  9
$PLINEGEN
 70
         1
  9
$PSLTSCALE
 70
         0
  9
$TREEDEPTH
 70
      3020
  9
$CMLSTYLE
  2
Standard
  9
$CMLJUST
 70
         0
  9
$CMLSCALE
 40
1.0
  9
$PROXYGRAPHICS
 70
         0
  9
$MEASUREMENT
 70
         0
  9
$CELWEIGHT
370
         0
  9
$ENDCAPS
280
         0
  9
$JOINSTYLE
280
         0
  9
$LWDISPLAY
290
         0
  9
$INSUNITS
 70
         0
  9
$HYPERLINKBASE
  1

  9
$XEDIT
290
         1
  9
$CEPSNTYPE
380
         0
  9
$PSTYLEMODE
290
         1
  9
$FINGERPRINTGUID
  2

  9
$VERSIONGUID
  2

  9
$EXTNAMES
290
         1
  9
$PSVPSCALE
 40
0.0
  0
ENDSEC
  0
SECTION
  2
CLASSES
  0
CLASS
  1
LWPOLYLINE
  2
AcDbPolyline
  3
AutoCAD 2000
 90
    32768
280
         0
281
         1
  0
CLASS
  1
IMAGE
  2
AcDbRasterImage
  3
ISM
 90
    32895
280
         0
281
         1
  0
CLASS
  1
OLE2FRAME
  2
AcDbOle2Frame
  3
AutoCAD 2000
 90
    32768
280
         0
281
         1
  0
CLASS
  1
HATCH
  2
AcDbHatch
  3
AutoCAD 2000
 90
    32768
280
         0
281
         1
  0
CLASS
  1
DICTIONARYVAR
  2
AcDbDictionaryVar
  3
AutoCAD 2000
 90
    32768
280
         0
281
         0
  0
CLASS
  1
RASTERVARIABLES
  2
AcDbRasterVariables
  3
ISM
 90
    32768
280
         0
281
         0
  0
CLASS
  1
IMAGEDEF
  2
AcDbRasterImageDef
  3
ISM
 90
    32768
280
         0
281
         0
  0
CLASS
  1
IMAGEDEF_REACTOR
  2
AcDbRasterImageDefReactor
  3
ISM
 90
    32769
280
         0
281
         0
  0
CLASS
  1
IDBUFFER
  2
AcDbIdBuffer
  3
AutoCAD 2000
 90
    32768
280
         0
281
         0
  0
CLASS
  1
SPATIAL_FILTER
  2
AcDbSpatialFilter
  3
AutoCAD 2000
 90
    32768
280
         0
281
         0
  0
CLASS
  1
XRECORD
  2
AcDbXrecord
  3
AutoCAD 2000
 90
    32768
280
         0
281
         0
  0
CLASS
  1
SORTENTSTABLE
  2
AcDbSortentsTable
  3
AutoCAD 2000
 90
    32768
280
         0
281
         0
  0
CLASS
  1
LAYER_INDEX
  2
AcDbLayerIndex
  3
AutoCAD 2000
 90
    32768
280
         0
281
         0
  0
CLASS
  1
SPATIAL_INDEX
  2
AcDbSpatialIndex
  3
AutoCAD 2000
 90
    32768
280
         0
281
         0
  0
CLASS
  1
OBJECT_PTR
  2
CAseDLPNTableRecord
  3
"ASE-LPNTableRecord"
 90
    32769
280
         0
281
         0
  0
CLASS
  1
LAYOUT
  2
AcDbLayout
  3
AutoCAD 2000
 90
        0
280
         0
281
         0
  0
CLASS
  1
PLOTSETTINGS
  2
AcDbPlotSettings
  3
AutoCAD 2000
 90
    32768
280
         0
281
         0
  0
CLASS
  1
ACDBDICTIONARYWDFLT
  2
AcDbDictionaryWithDefault
  3
AutoCAD 2000
 90
        0
280
         0
281
         0
  0
CLASS
  1
ACDBPLACEHOLDER
  2
AcDbPlaceHolder
  3
AutoCAD 2000
 90
        0
280
         0
281
         0
  0
CLASS
  1
VBA_PROJECT
  2
AcDbVbaProject
  3
acadvba
 90
    32768
280
         0
281
         0
  0
CLASS
  1
WIPEOUT
  2
AcDbWipeout
  3
WipeOut|AutoCAD Express Tool|expresstools@autodesk.com
 90
    32895
280
         0
281
         1
  0
CLASS
  1
WIPEOUTVARIABLES
  2
AcDbWipeoutVariables
  3
WipeOut|AutoCAD Express Tool|expresstools@autodesk.com
 90
        0
280
         0
281
         0
  0
CLASS
  1
RTEXT
  2
RText
  3
RText|AutoCAD Express Tool|expresstools@autodesk.com
 90
    32768
280
         0
281
         1
  0
CLASS
  1
ARCALIGNEDTEXT
  2
AcDbArcAlignedText
  3
ATEXT|AutoCAD Express Tool|expresstools@autodesk.com
 90
    32768
280
         0
281
         1
  0
ENDSEC
  0
SECTION
  2
TABLES
  0
TABLE
  2
VPORT
  5
7
100
AcDbSymbolTable
 70
         1
  0
VPORT
  5
15
100
AcDbSymbolTableRecord
100
AcDbViewportTableRecord
  2
*ACTIVE
 70
         0
 10
0.0
 20
0.0
 11
1.0
 21
1.0
 12
6.591288
 22
4.579184
 13
0.0
 23
0.0
 14
1.0
 24
1.0
 15
0.0
 25
0.0
 16
0.0
 26
0.0
 36
1.0
 17
0.0
 27
0.0
 37
0.0
 40
9.158369
 41
0.688564
 42
50.0
 43
0.0
 44
0.0
 50
0.0
 51
0.0
 71
         0
 72
       100
 73
         1
 74
         1
 75
         0
 76
         0
 77
         0
 78
         0
281
         0
 65
         0
110
0.0
120
0.0
130
0.0
111
1.0
121
0.0
131
0.0
112
0.0
122
1.0
132
0.0
345
0
346
0
 79
         0
146
0.0
  0
ENDTAB
  0
TABLE
  2
LTYPE
  5
4
100
AcDbSymbolTable
 70
        13
  0
LTYPE
  5
11
100
AcDbSymbolTableRecord
100
AcDbLinetypeTableRecord
  2
ByBlock
 70
        64
  3

 72
        65
 73
         0
 40
0.0
  0
LTYPE
  5
12
100
AcDbSymbolTableRecord
100
AcDbLinetypeTableRecord
  2
ByLayer
 70
        64
  3

 72
        65
 73
         0
 40
0.0
  0
LTYPE
  5
13
100
AcDbSymbolTableRecord
100
AcDbLinetypeTableRecord
  2
Continuous
 70
        64
  3
Solid line
 72
        65
 73
         0
 40
0.0
  0
LTYPE
  5
25
100
AcDbSymbolTableRecord
100
AcDbLinetypeTableRecord
  2
Dotted
 70
        64
  3
Dotted
 72
        65
 73
         2
 40
0.125
 49
0.0
 74
         0
 49
-0.125
 74
         0
  0
LTYPE
  5
26
100
AcDbSymbolTableRecord
100
AcDbLinetypeTableRecord
  2
Center
 70
        64
  3
Center
 72
        65
 73
         4
 40
0.7699999809
 49
0.5
 74
         0
 49
-0.0724999979
 74
         0
 49
0.125
 74
         0
 49
-0.0724999979
 74
         0
  0
LTYPE
  5
27
100
AcDbSymbolTableRecord
100
AcDbLinetypeTableRecord
  2
Dashed
 70
        64
  3
Dashed
 72
        65
 73
         2
 40
0.375
 49
0.25
 74
         0
 49
-0.125
 74
         0
  0
LTYPE
  5
28
100
AcDbSymbolTableRecord
100
AcDbLinetypeTableRecord
  2
Hidden
 70
        64
  3
Hidden
 72
        65
 73
         2
 40
0.1974999905
 49
0.125
 74
         0
 49
-0.0724999979
 74
         0
  0
LTYPE
  5
29
100
AcDbSymbolTableRecord
100
AcDbLinetypeTableRecord
  2
Phantom
 70
        64
  3
Phantom
 72
        65
 73
         6
 40
0.9674999714
 49
0.5
 74
         0
 49
-0.0724999979
 74
         0
 49
0.125
 74
         0
 49
-0.0724999979
 74
         0
 49
0.125
 74
         0
 49
-0.0724999979
 74
         0
  0
LTYPE
  5
2A
100
AcDbSymbolTableRecord
100
AcDbLinetypeTableRecord
  2
Dashdot
 70
        64
  3
Dashdot
 72
        65
 73
         4
 40
0.6762499809
 49
0.5
 74
         0
 49
-0.0724999979
 74
         0
 49
0.03125
 74
         0
 49
-0.0724999979
 74
         0
  0
LTYPE
  5
2B
100
AcDbSymbolTableRecord
100
AcDbLinetypeTableRecord
  2
Border
 70
        64
  3
Border
 72
        65
 73
         6
 40
1.2487499714
 49
0.5
 74
         0
 49
-0.0724999979
 74
         0
 49
0.5
 74
         0
 49
-0.0724999979
 74
         0
 49
0.03125
 74
         0
 49
-0.0724999979
 74
         0
  0
LTYPE
  5
2C
100
AcDbSymbolTableRecord
100
AcDbLinetypeTableRecord
  2
Divide
 70
        64
  3
Divide
 72
        65
 73
         6
 40
0.7799999714
 49
0.5
 74
         0
 49
-0.0724999979
 74
         0
 49
0.03125
 74
         0
 49
-0.0724999979
 74
         0
 49
0.03125
 74
         0
 49
-0.0724999979
 74
         0
  0
LTYPE
  5
2D
100
AcDbSymbolTableRecord
100
AcDbLinetypeTableRecord
  2
Cutting
 70
        64
  3
Cutting
 72
        65
 73
         6
 40
1.4674999714
 49
1.0
 74
         0
 49
-0.0724999979
 74
         0
 49
0.125
 74
         0
 49
-0.0724999979
 74
         0
 49
0.125
 74
         0
 49
-0.0724999979
 74
         0
  0
LTYPE
  5
2E
100
AcDbSymbolTableRecord
100
AcDbLinetypeTableRecord
  2
Stitch
 70
        64
  3
Stitch
 72
        65
 73
         2
 40
0.1449999958
 49
0.0724999979
 74
         0
 49
-0.0724999979
 74
         0
  0
ENDTAB
  0
TABLE
  2
LAYER
  5
2
100
AcDbSymbolTable
 70
        42
  0
LAYER
  5
14
100
AcDbSymbolTableRecord
100
AcDbLayerTableRecord
  2
0
 70
         0
 62
         7
  6
Continuous
290
         1
370
        -3
390
1D
  0
LAYER
  5
2F
100
AcDbSymbolTableRecord
100
AcDbLayerTableRecord
  2
DF_COMP
 70
         0
 62
         4
  6
Continuous
290
         1
370
         2
390
1F
  0
LAYER
  5
30
100
AcDbSymbolTableRecord
100
AcDbLayerTableRecord
  2
1_250BIT_500DEP
 70
         0
 62
         5
  6
Continuous
290
         1
370
         2
390
1F
  0
LAYER
  5
31
100
AcDbSymbolTableRecord
100
AcDbLayerTableRecord
  2
2_250BIT_250DEP
 70
         0
 62
         3
  6
Continuous
290
         1
370
         2
390
1F
  0
LAYER
  5
32
100
AcDbSymbolTableRecord
100
AcDbLayerTableRecord
  2
3_250BIT_500TAB
 70
         0
 62
         5
  6
Continuous
290
         1
370
         2
390
1F
  0
LAYER
  5
33
100
AcDbSymbolTableRecord
100
AcDbLayerTableRecord
  2
4_250BIT_250TAB
 70
         0
 62
         5
  6
Continuous
290
         1
370
         2
390
1F
  0
LAYER
  5
34
100
AcDbSymbolTableRecord
100
AcDbLayerTableRecord
  2
5_250BIT_250SPEC
 70
         0
 62
         5
  6
Continuous
290
         1
370
         2
390
1F
  0
LAYER
  5
35
100
AcDbSymbolTableRecord
100
AcDbLayerTableRecord
  2
6_125BIT_500DEP
 70
         0
 62
         5
  6
Continuous
290
         1
370
         2
390
1F
  0
LAYER
  5
36
100
AcDbSymbolTableRecord
100
AcDbLayerTableRecord
  2
7_VCARVE_BIT
 70
         0
 62
         5
  6
Continuous
290
         1
370
         2
390
1F
  0
LAYER
  5
37
100
AcDbSymbolTableRecord
100
AcDbLayerTableRecord
  2
8_250BIT_500OUTLINE
 70
         0
 62
         5
  6
Continuous
290
         1
370
         2
390
1F
  0
LAYER
  5
38
100
AcDbSymbolTableRecord
100
AcDbLayerTableRecord
  2
PLASTICS
 70
         0
 62
        37
  6
Continuous
290
         1
370
         2
390
1F
  0
LAYER
  5
39
100
AcDbSymbolTableRecord
100
AcDbLayerTableRecord
  2
7A_1250BALL
 70
         0
 62
         5
  6
Continuous
290
         1
370
         2
390
1F
  0
LAYER
  5
3A
100
AcDbSymbolTableRecord
100
AcDbLayerTableRecord
  2
CONSTRUCTION
 70
         0
 62
         7
  6
Continuous
290
         1
370
         0
390
1F
  0
LAYER
  5
3B
100
AcDbSymbolTableRecord
100
AcDbLayerTableRecord
  2
0_WOOD
 70
         0
 62
         5
  6
Continuous
290
         1
370
         2
390
1F
  0
LAYER
  5
3C
100
AcDbSymbolTableRecord
100
AcDbLayerTableRecord
  2
Z_TATTOOMYSTIQUE
 70
         0
 62
        37
  6
Continuous
290
         1
370
         2
390
1F
  0
LAYER
  5
3D
100
AcDbSymbolTableRecord
100
AcDbLayerTableRecord
  2
Z_ROLLRGIRLZ
 70
         0
 62
        37
  6
Continuous
290
         1
370
         2
390
1F
  0
LAYER
  5
3E
100
AcDbSymbolTableRecord
100
AcDbLayerTableRecord
  2
Z_MISSADV
 70
         0
 62
         5
  6
Continuous
290
         1
370
         2
390
1F
  0
LAYER
  5
3F
100
AcDbSymbolTableRecord
100
AcDbLayerTableRecord
  2
Z_JUPITERCRUSH
 70
         0
 62
        37
  6
Continuous
290
         1
370
         2
390
1F
  0
LAYER
  5
40
100
AcDbSymbolTableRecord
100
AcDbLayerTableRecord
  2
Z_MODULAR
 70
         0
 62
         5
  6
Continuous
290
         1
370
         2
390
1F
  0
LAYER
  5
41
100
AcDbSymbolTableRecord
100
AcDbLayerTableRecord
  2
Z_GENERIC
 70
         0
 62
        27
  6
Continuous
290
         1
370
         2
390
1F
  0
LAYER
  5
42
100
AcDbSymbolTableRecord
100
AcDbLayerTableRecord
  2
UNASSIGNED
 70
         0
 62
         7
  6
Continuous
290
         1
370
         0
390
1F
  0
LAYER
  5
43
100
AcDbSymbolTableRecord
100
AcDbLayerTableRecord
  2
0
 70
         0
 62
        42
  6
Continuous
290
         1
370
         2
390
1F
  0
LAYER
  5
44
100
AcDbSymbolTableRecord
100
AcDbLayerTableRecord
  2
LAYER_1
 70
         0
 62
        42
  6
Continuous
290
         1
370
         2
390
1F
  0
LAYER
  5
45
100
AcDbSymbolTableRecord
100
AcDbLayerTableRecord
  2
LAYER_3
 70
         0
 62
         4
  6
Continuous
290
         1
370
         2
390
1F
  0
LAYER
  5
46
100
AcDbSymbolTableRecord
100
AcDbLayerTableRecord
  2
LAYER_2
 70
         0
 62
        42
  6
Continuous
290
         1
370
         2
390
1F
  0
LAYER
  5
47
100
AcDbSymbolTableRecord
100
AcDbLayerTableRecord
  2
X_POSTS
 70
         0
 62
         4
  6
Continuous
290
         1
370
         2
390
1F
  0
LAYER
  5
48
100
AcDbSymbolTableRecord
100
AcDbLayerTableRecord
  2
X_THUMPER
 70
         0
 62
         4
  6
Continuous
290
         1
370
         2
390
1F
  0
LAYER
  5
49
100
AcDbSymbolTableRecord
100
AcDbLayerTableRecord
  2
X_STANDUPS
 70
         0
 62
         4
  6
Continuous
290
         1
370
         2
390
1F
  0
LAYER
  5
4A
100
AcDbSymbolTableRecord
100
AcDbLayerTableRecord
  2
X_DROPS
 70
         0
 62
         4
  6
Continuous
290
         1
370
         2
390
1F
  0
LAYER
  5
4B
100
AcDbSymbolTableRecord
100
AcDbLayerTableRecord
  2
X_SMPOSTS
 70
         0
 62
         4
  6
Continuous
290
         1
370
         2
390
1F
  0
LAYER
  5
4C
100
AcDbSymbolTableRecord
100
AcDbLayerTableRecord
  2
X_ROLLOVER
 70
         0
 62
         4
  6
Continuous
290
         1
370
         2
390
1F
  0
LAYER
  5
4D
100
AcDbSymbolTableRecord
100
AcDbLayerTableRecord
  2
X_WALLS
 70
         0
 62
         4
  6
Continuous
290
         1
370
         2
390
1F
  0
LAYER
  5
4E
100
AcDbSymbolTableRecord
100
AcDbLayerTableRecord
  2
Z0_BOTCOMP
 70
         0
 62
         4
  6
Continuous
290
         1
370
         2
390
1F
  0
LAYER
  5
4F
100
AcDbSymbolTableRecord
100
AcDbLayerTableRecord
  2
Z0_TOPCOMP
 70
         0
 62
         6
  6
Continuous
290
         1
370
         2
390
1F
  0
LAYER
  5
50
100
AcDbSymbolTableRecord
100
AcDbLayerTableRecord
  2
Z0_CUT250
 70
         0
 62
         4
  6
Continuous
290
         1
370
         2
390
1F
  0
LAYER
  5
51
100
AcDbSymbolTableRecord
100
AcDbLayerTableRecord
  2
Z0_CUT500
 70
         0
 62
         4
  6
Continuous
290
         1
370
         2
390
1F
  0
LAYER
  5
52
100
AcDbSymbolTableRecord
100
AcDbLayerTableRecord
  2
Z0_PLASTICS
 70
         0
 62
        37
  6
Continuous
290
         1
370
         2
390
1F
  0
LAYER
  5
53
100
AcDbSymbolTableRecord
100
AcDbLayerTableRecord
  2
Z0_RUBBER
 70
         0
 62
         4
  6
Continuous
290
         1
370
         2
390
1F
  0
LAYER
  5
54
100
AcDbSymbolTableRecord
100
AcDbLayerTableRecord
  2
Z0_ZONES
 70
         0
 62
         6
  6
Continuous
290
         1
370
         2
390
1F
  0
LAYER
  5
55
100
AcDbSymbolTableRecord
100
AcDbLayerTableRecord
  2
Z0_WOODOUTLINE
 70
         0
 62
         5
  6
Continuous
290
         1
370
         2
390
1F
  0
LAYER
  5
56
100
AcDbSymbolTableRecord
100
AcDbLayerTableRecord
  2
Z0_LOWERTHIRD
 70
         0
 62
         4
  6
Continuous
290
         1
370
         2
390
1F
  0
LAYER
  5
57
100
AcDbSymbolTableRecord
100
AcDbLayerTableRecord
  2
PART_A
 70
         0
 62
         4
  6
Continuous
290
         1
370
         2
390
1F
  0
ENDTAB
  0
TABLE
  2
STYLE
  5
3
100
AcDbSymbolTable
 70
         2
  0
STYLE
  5
17
100
AcDbSymbolTableRecord
100
AcDbTextStyleTableRecord
  2
Standard
 70
         0
 40
0.0
 41
1.0
 50
0.0
 71
         0
 42
0.0
  3
txt
  4

  0
STYLE
  5
24
100
AcDbSymbolTableRecord
100
AcDbTextStyleTableRecord
  2
Plotter
 70
         0
 40
0.0
 41
0.98
 50
0.0
 71
         0
 42
0.0
  3
SIMPLEX
  4

  0
ENDTAB
  0
TABLE
  2
VIEW
  5
5
100
AcDbSymbolTable
 70
         0
  0
ENDTAB
  0
TABLE
  2
UCS
  5
6
100
AcDbSymbolTable
 70
         0
  0
ENDTAB
  0
TABLE
  2
APPID
  5
8
100
AcDbSymbolTable
 70
         1
  0
APPID
  5
16
100
AcDbSymbolTableRecord
100
AcDbRegAppTableRecord
  2
ACAD
 70
         0
  0
ENDTAB
  0
TABLE
  2
DIMSTYLE
  5
9
100
AcDbSymbolTable
 70
         1
100
AcDbDimStyleTable
 71
         0
  0
DIMSTYLE
105
18
100
AcDbSymbolTableRecord
100
AcDbDimStyleTableRecord
  2
Standard
 70
         0
  3

  4

 40
1.0
 41
0.18
 42
0.0625
 43
0.38
 44
0.18
 45
0.0
 46
0.0
 47
0.0
 48
0.0
 71
         0
 72
         0
 73
         1
 74
         1
 75
         0
 76
         0
 77
         0
 78
         0
 79
         0
140
0.18
141
0.09
142
0.0
143
25.4
144
1.0
145
0.0
146
1.0
147
0.09
148
0.0
170
         0
171
         2
172
         0
173
         0
174
         0
175
         0
176
         0
177
         0
178
         0
179
         0
271
         4
272
         4
273
         2
274
         2
275
         0
276
         0
277
         2
278
        46
279
         0
280
         0
281
         0
282
         0
283
         1
284
         0
285
         0
286
         0
288
         0
340
17
341
0
342
0
343
0
344
0
371
        -2
372
        -2
  0
ENDTAB
  0
TABLE
  2
BLOCK_RECORD
  5
1
100
AcDbSymbolTable
 70
         0
  0
BLOCK_RECORD
  5
A
100
AcDbSymbolTableRecord
100
AcDbBlockTableRecord
  2
*MODEL_SPACE
340
20
  0
BLOCK_RECORD
  5
B
100
AcDbSymbolTableRecord
100
AcDbBlockTableRecord
  2
*PAPER_SPACE
340
21
  0
ENDTAB
  0
ENDSEC
  0
SECTION
  2
BLOCKS
  0
BLOCK
  5
D
100
AcDbEntity
  8
0
100
AcDbBlockBegin
  2
*MODEL_SPACE
 70
         0
 10
0.0
 20
0.0
 30
0.0
  3
*MODEL_SPACE
  1

  0
ENDBLK
  5
E
100
AcDbEntity
  8
0
100
AcDbBlockEnd
  0
BLOCK
  5
F
100
AcDbEntity
 67
         1
  8
0
100
AcDbBlockBegin
  2
*PAPER_SPACE
 70
         0
 10
0.0
 20
0.0
 30
0.0
  3
*PAPER_SPACE
  1

  0
ENDBLK
  5
10
100
AcDbEntity
 67
         1
  8
0
100
AcDbBlockEnd
  0
ENDSEC
  0
SECTION
  2
ENTITIES
  0
CIRCLE
  5
58
100
AcDbEntity
  8
6_125BIT_500DEP
370
        25
  6
Continuous
 62
         5
100
AcDbCircle
 10
5.426412504
 20
9.6845823203
 30
0.0
 40
0.0825
  0
ARC
  5
59
100
AcDbEntity
  8
Z0_CUT500
370
         5
  6
Continuous
 62
        47
100
AcDbCircle
 10
5.8082044952
 20
9.8038923176
 30
0.0
 40
0.1
100
AcDbArc
 50
21.5794785407
 51
22.4933511416
  0
LINE
  5
5A
100
AcDbEntity
  8
Z0_CUT250
370
         5
  6
Continuous
 62
         6
100
AcDbLine
 10
1.9319791438
 20
10.1226495178
 30
0.0
 11
1.9319791438
 21
9.1727169572
 31
0.0
  0
LINE
  5
5B
102
{ACAD_REACTORS
330
8B
102
}
100
AcDbEntity
  8
Z_TATTOOMYSTIQUE
370
         5
  6
Continuous
 62
         4
100
AcDbLine
 10
3.9846815302
 20
7.1685171668
 30
0.0
 11
4.3040635814
 21
7.8534341859
 31
0.0
  0
LINE
  5
5C
102
{ACAD_REACTORS
330
8B
102
}
100
AcDbEntity
  8
Z_TATTOOMYSTIQUE
370
         5
  6
Continuous
 62
         4
100
AcDbLine
 10
4.3040635814
 20
7.8534341859
 30
0.0
 11
4.8075456286
 21
7.6186566516
 31
0.0
  0
LINE
  5
5D
102
{ACAD_REACTORS
330
8B
102
}
100
AcDbEntity
  8
Z_TATTOOMYSTIQUE
370
         5
  6
Continuous
 62
         4
100
AcDbLine
 10
7.2447895168
 20
6.5925945147
 30
0.0
 11
8.243122816
 21
8.7335271838
 31
0.0
  0
LINE
  5
5E
102
{ACAD_REACTORS
330
8B
102
}
100
AcDbEntity
  8
Z_TATTOOMYSTIQUE
370
         5
  6
Continuous
 62
         4
100
AcDbLine
 10
5.7063834487
 20
10.8607188461
 30
0.0
 11
7.1442556014
 21
10.1902280498
 31
0.0
  0
LINE
  5
5F
102
{ACAD_REACTORS
330
8B
102
}
100
AcDbEntity
  8
Z_TATTOOMYSTIQUE
370
         5
  6
Continuous
 62
         4
100
AcDbLine
 10
6.8408029487
 20
5.7262425236
 30
0.0
 11
6.751968206
 21
5.5357358031
 31
0.0
  0
LINE
  5
60
102
{ACAD_REACTORS
330
8B
102
}
100
AcDbEntity
  8
Z_TATTOOMYSTIQUE
370
         5
  6
Continuous
 62
         4
100
AcDbLine
 10
7.4773047403
 20
5.5398802168
 30
0.0
 11
6.9738226932
 21
5.7746577512
 31
0.0
  0
LINE
  5
61
102
{ACAD_REACTORS
330
8B
102
}
100
AcDbEntity
  8
Z_TATTOOMYSTIQUE
370
         5
  6
Continuous
 62
         4
100
AcDbLine
 10
7.2932047444
 20
6.4595747703
 30
0.0
 11
7.7966867916
 21
6.224797236
 31
0.0
  0
LINE
  5
62
102
{ACAD_REACTORS
330
8B
102
}
100
AcDbEntity
  8
Z_TATTOOMYSTIQUE
370
         5
  6
Continuous
 62
         4
100
AcDbLine
 10
5.4040864417
 20
7.2968599775
 30
0.0
 11
5.9710707291
 21
7.0324708623
 31
0.0
  0
LINE
  5
63
102
{ACAD_REACTORS
330
8B
102
}
100
AcDbEntity
  8
Z_TATTOOMYSTIQUE
370
         5
  6
Continuous
 62
         4
100
AcDbLine
 10
5.4316254315
 20
6.4937961447
 30
0.0
 11
3.9846815302
 21
7.1685171668
 31
0.0
  0
LINE
  5
64
102
{ACAD_REACTORS
330
8B
102
}
100
AcDbEntity
  8
Z_TATTOOMYSTIQUE
370
         5
  6
Continuous
 62
         4
100
AcDbLine
 10
5.3912059163
 20
6.1702696797
 30
0.0
 11
5.4800406591
 21
6.3607764002
 31
0.0
  0
LINE
  5
65
102
{ACAD_REACTORS
330
8B
102
}
100
AcDbEntity
  8
Z_TATTOOMYSTIQUE
370
         5
  6
Continuous
 62
         4
100
AcDbLine
 10
7.5268586707
 20
10.7738764446
 30
0.0
 11
7.2772753459
 21
10.2386432773
 31
0.0
  0
LINE
  5
66
102
{ACAD_REACTORS
330
8B
102
}
100
AcDbEntity
  8
Z_TATTOOMYSTIQUE
370
         5
  6
Continuous
 62
         4
100
AcDbLine
 10
4.940565373
 20
7.6670718791
 30
0.0
 11
5.9388986722
 21
9.8080045482
 31
0.0
  0
LINE
  5
67
102
{ACAD_REACTORS
330
8B
102
}
100
AcDbEntity
  8
Z_TATTOOMYSTIQUE
370
         5
  6
Continuous
 62
         4
100
AcDbLine
 10
5.5553840278
 20
6.8811732762
 30
0.0
 11
5.819773143
 21
7.4481575636
 31
0.0
  0
LINE
  5
68
102
{ACAD_REACTORS
330
8B
102
}
100
AcDbEntity
  8
Z_TATTOOMYSTIQUE
370
         5
  6
Continuous
 62
         4
100
AcDbLine
 10
8.8966927089
 20
10.1351123422
 30
0.0
 11
7.5268586707
 21
10.7738764446
 31
0.0
  0
LINE
  5
69
102
{ACAD_REACTORS
330
8B
102
}
100
AcDbEntity
  8
Z_TATTOOMYSTIQUE
370
         5
  6
Continuous
 62
         4
100
AcDbLine
 10
6.751968206
 20
5.5357358031
 30
0.0
 11
5.3912059163
 21
6.1702696797
 31
0.0
  0
LINE
  5
6A
102
{ACAD_REACTORS
330
8B
102
}
100
AcDbEntity
  8
Z_TATTOOMYSTIQUE
370
         5
  6
Continuous
 62
         4
100
AcDbLine
 10
6.7913093064
 20
5.620103065
 30
0.0
 11
5.4305470167
 21
6.2546369416
 31
0.0
  0
LINE
  5
6B
102
{ACAD_REACTORS
330
8B
102
}
100
AcDbEntity
  8
Z_TATTOOMYSTIQUE
370
         5
  6
Continuous
 62
         4
100
AcDbLine
 10
5.7063834487
 20
10.8607188461
 30
0.0
 11
5.3870013975
 21
10.175801827
 31
0.0
  0
LINE
  5
6C
102
{ACAD_REACTORS
330
8B
102
}
100
AcDbEntity
  8
Z_TATTOOMYSTIQUE
370
         5
  6
Continuous
 62
         4
100
AcDbLine
 10
5.8904834446
 20
9.9410242926
 30
0.0
 11
5.3870013975
 21
10.175801827
 31
0.0
  0
ELLIPSE
  5
6D
102
{ACAD_REACTORS
330
8B
102
}
100
AcDbEntity
  8
Z_TATTOOMYSTIQUE
370
        25
  6
Continuous
 62
         4
100
AcDbEllipse
 10
7.3884884774
 20
5.7994215427
 30
0.0
 11
0.0291606600600559
 21
0.062535237305591
 31
0.0
210
0.0
220
0.0
230
-1.0
 40
1.0
 41
0.0
 42
6.2831853071789245
  0
ELLIPSE
  5
6E
102
{ACAD_REACTORS
330
8B
102
}
100
AcDbEntity
  8
Z_TATTOOMYSTIQUE
370
        25
  6
Continuous
 62
         4
100
AcDbEllipse
 10
8.7845228339
 20
8.7930706817
 30
0.0
 11
0.0291606600600797
 21
0.0625352373055914
 31
0.0
210
0.0
220
0.0
230
-0.9999999999999999
 40
1.0
 41
0.0
 42
6.2831853071785986
  0
ELLIPSE
  5
6F
102
{ACAD_REACTORS
330
8B
102
}
100
AcDbEntity
  8
Z_TATTOOMYSTIQUE
370
        25
  6
Continuous
 62
         4
100
AcDbEllipse
 10
8.9431563031
 20
9.1332612541
 30
0.0
 11
0.0291606600601406
 21
0.0625352373056731
 31
0.0
210
0.0
220
0.0
230
-1.0
 40
1.0
 41
0.0
 42
6.2831853071793162
  0
ELLIPSE
  5
70
102
{ACAD_REACTORS
330
8B
102
}
100
AcDbEntity
  8
Z_TATTOOMYSTIQUE
370
        25
  6
Continuous
 62
         4
100
AcDbEllipse
 10
5.7951398836
 20
10.6012054185
 30
0.0
 11
0.0625352373055088
 21
-0.0291606600601528
 31
0.0
210
0.0
220
0.0
230
-1.0
 40
1.0
 41
4.7123889803846897
 42
10.995574287564276
  0
ELLIPSE
  5
71
102
{ACAD_REACTORS
330
8B
102
}
100
AcDbEntity
  8
Z_TATTOOMYSTIQUE
370
        25
  6
Continuous
 62
         4
100
AcDbEllipse
 10
7.5471219465
 20
6.1396121151
 30
0.0
 11
0.0291606600602516
 21
0.0625352373055553
 31
0.0
210
0.0
220
0.0
230
-0.9999999999999999
 40
1.0
 41
0.0
 42
6.2831853071795862
  0
ELLIPSE
  5
72
102
{ACAD_REACTORS
330
8B
102
}
100
AcDbEntity
  8
Z_TATTOOMYSTIQUE
370
        25
  6
Continuous
 62
         4
100
AcDbEllipse
 10
5.6365064145
 20
10.2610148461
 30
0.0
 11
0.0291606600601355
 21
0.0625352373058064
 31
0.0
210
0.0
220
0.0
230
-0.9999999999999999
 40
1.0
 41
0.0
 42
6.2831853071791564
  0
ELLIPSE
  5
73
102
{ACAD_REACTORS
330
8B
102
}
100
AcDbEntity
  8
Z_TATTOOMYSTIQUE
370
        25
  6
Continuous
 62
         4
100
AcDbEllipse
 10
4.2405318859
 20
7.2673378088
 30
0.0
 11
0.0625352373055088
 21
-0.0291606600601528
 31
0.0
210
0.0
220
0.0
230
-1.0
 40
1.0
 41
4.7123889803846897
 42
10.995574287564276
  0
ELLIPSE
  5
74
102
{ACAD_REACTORS
330
8B
102
}
100
AcDbEntity
  8
Z_TATTOOMYSTIQUE
370
        25
  6
Continuous
 62
         4
100
AcDbEllipse
 10
4.3991653551
 20
7.6075283812
 30
0.0
 11
0.0625352373055088
 21
-0.0291606600601528
 31
0.0
210
0.0
220
0.0
230
-1.0
 40
1.0
 41
4.7123889803846897
 42
10.995574287564276
  0
SPLINE
  5
75
102
{ACAD_REACTORS
330
8B
102
}
100
AcDbEntity
  8
Z_TATTOOMYSTIQUE
370
         5
  6
Continuous
 62
         4
100
AcDbSpline
210
0.0
220
0.0
230
1.0
 70
         0
 71
         3
 72
         8
 73
         4
 74
         0
 42
0.000001
 43
0.000001
 40
0.0
 40
0.0
 40
0.0
 40
0.0
 40
1.0
 40
1.0
 40
1.0
 40
1.0
 10
5.8904834446448717
 20
9.9410242926080308
 30
0.0
 10
5.9145432212847595
 20
9.9298050345069697
 30
0.0
 10
5.9331607358166139
 20
9.9094875860333573
 30
0.0
 10
5.9422403527562437
 20
9.8845415435144375
 30
0.0
  0
SPLINE
  5
76
102
{ACAD_REACTORS
330
8B
102
}
100
AcDbEntity
  8
Z_TATTOOMYSTIQUE
370
         5
  6
Continuous
 62
         4
100
AcDbSpline
210
0.0
220
0.0
230
1.0
 70
         0
 71
         3
 72
         8
 73
         4
 74
         0
 42
0.000001
 43
0.000001
 40
0.0
 40
0.0
 40
0.0
 40
0.0
 40
1.0
 40
1.0
 40
1.0
 40
1.0
 10
4.8840826238990758
 20
7.6153149709933317
 30
0.0
 10
4.8591365813798006
 20
7.6062353540538652
 30
0.0
 10
4.8316054052143045
 20
7.6074373934662667
 30
0.0
 10
4.8075456285741893
 20
7.618656651566809
 30
0.0
  0
SPLINE
  5
77
102
{ACAD_REACTORS
330
8B
102
}
100
AcDbEntity
  8
Z_TATTOOMYSTIQUE
370
         5
  6
Continuous
 62
         4
100
AcDbSpline
210
0.0
220
0.0
230
1.0
 70
         0
 71
         3
 72
         8
 73
         4
 74
         0
 42
0.000001
 43
0.000001
 40
0.0
 40
0.0
 40
0.0
 40
0.0
 40
1.0
 40
1.0
 40
1.0
 40
1.0
 10
5.4316254315233437
 20
6.4937961446524195
 30
0.0
 10
5.4556852081627767
 20
6.4825768865524491
 30
0.0
 10
5.4743027226948584
 20
6.4622594380790197
 30
0.0
 10
5.4833823396343178
 20
6.4373133955588742
 30
0.0
  0
SPLINE
  5
78
102
{ACAD_REACTORS
330
8B
102
}
100
AcDbEntity
  8
Z_TATTOOMYSTIQUE
370
         5
  6
Continuous
 62
         4
100
AcDbSpline
210
0.0
220
0.0
230
1.0
 70
         0
 71
         3
 72
         8
 73
         4
 74
         0
 42
0.000001
 43
0.000001
 40
0.0
 40
0.0
 40
0.0
 40
0.0
 40
1.0
 40
1.0
 40
1.0
 40
1.0
 10
5.9422403527562437
 20
9.8845415435144375
 30
0.0
 10
5.9513199696958736
 20
9.8595955009949776
 30
0.0
 10
5.9501179302835112
 20
9.8320643248295099
 30
0.0
 10
5.9388986721830861
 20
9.8080045481892064
 30
0.0
  0
SPLINE
  5
79
102
{ACAD_REACTORS
330
8B
102
}
100
AcDbEntity
  8
Z_TATTOOMYSTIQUE
370
         5
  6
Continuous
 62
         4
100
AcDbSpline
210
0.0
220
0.0
230
1.0
 70
         0
 71
         3
 72
         8
 73
         4
 74
         0
 42
0.000001
 43
0.000001
 40
0.0
 40
0.0
 40
0.0
 40
0.0
 40
1.0
 40
1.0
 40
1.0
 40
1.0
 10
7.2772753458627335
 20
10.238643277346039
 30
0.0
 10
7.2660560877619673
 20
10.214583500706031
 30
0.0
 10
7.2457386392883336
 20
10.19596598617423
 30
0.0
 10
7.2207925967690016
 20
10.186886369234774
 30
0.0
  0
SPLINE
  5
7A
102
{ACAD_REACTORS
330
8B
102
}
100
AcDbEntity
  8
Z_TATTOOMYSTIQUE
370
         5
  6
Continuous
 62
         4
100
AcDbSpline
210
0.0
220
0.0
230
1.0
 70
         0
 71
         3
 72
         8
 73
         4
 74
         0
 42
0.000001
 43
0.000001
 40
0.0
 40
0.0
 40
0.0
 40
0.0
 40
1.0
 40
1.0
 40
1.0
 40
1.0
 10
7.2207925967690016
 20
10.186886369234774
 30
0.0
 10
7.1958465542498971
 20
10.177806752295101
 30
0.0
 10
7.1683153780834346
 20
10.179008791707549
 30
0.0
 10
7.1442556014440584
 20
10.190228049808148
 30
0.0
  0
SPLINE
  5
7B
102
{ACAD_REACTORS
330
8B
102
}
100
AcDbEntity
  8
Z_TATTOOMYSTIQUE
370
         5
  6
Continuous
 62
         4
100
AcDbSpline
210
0.0
220
0.0
230
1.0
 70
         0
 71
         3
 72
         8
 73
         4
 74
         0
 42
0.000001
 43
0.000001
 40
0.0
 40
0.0
 40
0.0
 40
0.0
 40
1.0
 40
1.0
 40
1.0
 40
1.0
 10
4.9405653729926371
 20
7.6670718791049568
 30
0.0
 10
4.9293461148917572
 20
7.6430121024644864
 30
0.0
 10
4.9090286664178393
 20
7.624394587933061
 30
0.0
 10
4.8840826238990758
 20
7.6153149709933317
 30
0.0
  0
SPLINE
  5
7C
102
{ACAD_REACTORS
330
8B
102
}
100
AcDbEntity
  8
Z_TATTOOMYSTIQUE
370
         5
  6
Continuous
 62
         4
100
AcDbSpline
210
0.0
220
0.0
230
1.0
 70
         0
 71
         3
 72
         8
 73
         4
 74
         0
 42
0.000001
 43
0.000001
 40
0.0
 40
0.0
 40
0.0
 40
0.0
 40
1.0
 40
1.0
 40
1.0
 40
1.0
 10
7.2414478362645696
 20
6.5160575193968686
 30
0.0
 10
7.232368219324826
 20
6.5410035619162397
 30
0.0
 10
7.2335702587373021
 20
6.5685347380820236
 30
0.0
 10
7.2447895168382388
 20
6.5925945147217444
 30
0.0
  0
SPLINE
  5
7D
102
{ACAD_REACTORS
330
8B
102
}
100
AcDbEntity
  8
Z_TATTOOMYSTIQUE
370
         5
  6
Continuous
 62
         4
100
AcDbSpline
210
0.0
220
0.0
230
1.0
 70
         0
 71
         3
 72
         8
 73
         4
 74
         0
 42
0.000001
 43
0.000001
 40
0.0
 40
0.0
 40
0.0
 40
0.0
 40
1.0
 40
1.0
 40
1.0
 40
1.0
 10
5.4833823396343178
 20
6.4373133955588742
 30
0.0
 10
5.492461956573834
 20
6.4123673530402492
 30
0.0
 10
5.4912599171618126
 20
6.3848361768743871
 30
0.0
 10
5.4800406590613306
 20
6.3607764002343252
 30
0.0
  0
SPLINE
  5
7E
102
{ACAD_REACTORS
330
8B
102
}
100
AcDbEntity
  8
Z_TATTOOMYSTIQUE
370
         5
  6
Continuous
 62
         4
100
AcDbSpline
210
0.0
220
0.0
230
1.0
 70
         0
 71
         3
 72
         8
 73
         4
 74
         0
 42
0.000001
 43
0.000001
 40
0.0
 40
0.0
 40
0.0
 40
0.0
 40
1.0
 40
1.0
 40
1.0
 40
1.0
 10
8.243122816028233
 20
8.7335271838069346
 30
0.0
 10
8.2543420741293403
 20
8.7575869604463001
 30
0.0
 10
8.2746595226028603
 20
8.7762044749779236
 30
0.0
 10
8.2996055651219081
 20
8.7852840919175073
 30
0.0
  0
SPLINE
  5
7F
102
{ACAD_REACTORS
330
8B
102
}
100
AcDbEntity
  8
Z_TATTOOMYSTIQUE
370
         5
  6
Continuous
 62
         4
100
AcDbSpline
210
0.0
220
0.0
230
1.0
 70
         0
 71
         3
 72
         8
 73
         4
 74
         0
 42
0.000001
 43
0.000001
 40
0.0
 40
0.0
 40
0.0
 40
0.0
 40
1.0
 40
1.0
 40
1.0
 40
1.0
 10
8.2996055651219081
 20
8.7852840919175073
 30
0.0
 10
8.324551607640899
 20
8.7943637088571158
 30
0.0
 10
8.3520827838066793
 20
8.7931616694450732
 30
0.0
 10
8.3761425604467377
 20
8.7819424113446907
 30
0.0
  0
SPLINE
  5
80
102
{ACAD_REACTORS
330
8B
102
}
100
AcDbEntity
  8
Z_TATTOOMYSTIQUE
370
         5
  6
Continuous
 62
         4
100
AcDbSpline
210
0.0
220
0.0
230
1.0
 70
         0
 71
         3
 72
         8
 73
         4
 74
         0
 42
0.000001
 43
0.000001
 40
0.0
 40
0.0
 40
0.0
 40
0.0
 40
1.0
 40
1.0
 40
1.0
 40
1.0
 10
8.6955246116705212
 20
9.4668594304797438
 30
0.0
 10
8.671464835031145
 20
9.4780786885805703
 30
0.0
 10
8.6528473204994611
 20
9.4983961370540868
 30
0.0
 10
8.6437677035596039
 20
9.5233421795731417
 30
0.0
  0
SPLINE
  5
81
102
{ACAD_REACTORS
330
8B
102
}
100
AcDbEntity
  8
Z_TATTOOMYSTIQUE
370
         5
  6
Continuous
 62
         4
100
AcDbSpline
210
0.0
220
0.0
230
1.0
 70
         0
 71
         3
 72
         8
 73
         4
 74
         0
 42
0.000001
 43
0.000001
 40
0.0
 40
0.0
 40
0.0
 40
0.0
 40
1.0
 40
1.0
 40
1.0
 40
1.0
 10
8.6437677035596039
 20
9.5233421795731417
 30
0.0
 10
8.6346880866198603
 20
9.5482882220922605
 30
0.0
 10
8.6358901260319954
 20
9.5758193982579556
 30
0.0
 10
8.6471093841330458
 20
9.5998791748979819
 30
0.0
  0
SPLINE
  5
82
102
{ACAD_REACTORS
330
8B
102
}
100
AcDbEntity
  8
Z_TATTOOMYSTIQUE
370
         5
  6
Continuous
 62
         4
100
AcDbSpline
210
0.0
220
0.0
230
1.0
 70
         0
 71
         3
 72
         8
 73
         4
 74
         0
 42
0.000001
 43
0.000001
 40
0.0
 40
0.0
 40
0.0
 40
0.0
 40
1.0
 40
1.0
 40
1.0
 40
1.0
 10
6.8408029487338808
 20
5.7262425236303809
 30
0.0
 10
6.8520222068343628
 20
5.7503023002704108
 30
0.0
 10
6.872339655307826
 20
5.7689198148018033
 30
0.0
 10
6.8972856978275559
 20
5.777999431741792
 30
0.0
  0
SPLINE
  5
83
102
{ACAD_REACTORS
330
8B
102
}
100
AcDbEntity
  8
Z_TATTOOMYSTIQUE
370
         5
  6
Continuous
 62
         4
100
AcDbSpline
210
0.0
220
0.0
230
1.0
 70
         0
 71
         3
 72
         8
 73
         4
 74
         0
 42
0.000001
 43
0.000001
 40
0.0
 40
0.0
 40
0.0
 40
0.0
 40
1.0
 40
1.0
 40
1.0
 40
1.0
 10
6.8972856978275559
 20
5.777999431741792
 30
0.0
 10
6.9222317403465468
 20
5.7870790486816457
 30
0.0
 10
6.9497629165120429
 20
5.7858770092687646
 30
0.0
 10
6.9738226931517602
 20
5.7746577511684105
 30
0.0
  0
SPLINE
  5
84
102
{ACAD_REACTORS
330
8B
102
}
100
AcDbEntity
  8
Z_TATTOOMYSTIQUE
370
         5
  6
Continuous
 62
         4
100
AcDbSpline
210
0.0
220
0.0
230
1.0
 70
         0
 71
         3
 72
         8
 73
         4
 74
         0
 42
0.000001
 43
0.000001
 40
0.0
 40
0.0
 40
0.0
 40
0.0
 40
1.0
 40
1.0
 40
1.0
 40
1.0
 10
7.2932047443759984
 20
6.4595747703032629
 30
0.0
 10
7.2691449677358833
 20
6.4707940284036525
 30
0.0
 10
7.2505274532049384
 20
6.4911114768782152
 30
0.0
 10
7.2414478362645696
 20
6.5160575193968686
 30
0.0
  0
ELLIPSE
  5
85
102
{ACAD_REACTORS
330
8B
102
}
100
AcDbEntity
  8
Z_TATTOOMYSTIQUE
370
        25
  6
Continuous
 62
         4
100
AcDbEllipse
 10
5.6875785854
 20
7.1646654199
 30
0.0
 11
0.2265769467590874
 21
-0.1056545654353353
 31
0.0
210
0.0
220
0.0
230
-1.0
 40
1.0
 41
4.7123889803846897
 42
10.995574287564276
  0
LINE
  5
86
102
{ACAD_REACTORS
330
8B
102
}
100
AcDbEntity
  8
Z_TATTOOMYSTIQUE
370
         5
  6
Continuous
 62
         4
100
AcDbLine
 10
8.8796246076
 20
8.547164877
 30
0.0
 11
9.1990066588
 21
9.2320818961
 31
0.0
  0
LINE
  5
87
102
{ACAD_REACTORS
330
8B
102
}
100
AcDbEntity
  8
Z_TATTOOMYSTIQUE
370
         5
  6
Continuous
 62
         4
100
AcDbLine
 10
8.8796246076
 20
8.547164877
 30
0.0
 11
8.3761425604
 21
8.7819424113
 31
0.0
  0
LINE
  5
88
102
{ACAD_REACTORS
330
8B
102
}
100
AcDbEntity
  8
Z_TATTOOMYSTIQUE
370
         5
  6
Continuous
 62
         4
100
AcDbLine
 10
8.6955246117
 20
9.4668594305
 30
0.0
 11
9.1990066588
 21
9.2320818961
 31
0.0
  0
LINE
  5
89
102
{ACAD_REACTORS
330
8B
102
}
100
AcDbEntity
  8
Z_TATTOOMYSTIQUE
370
         5
  6
Continuous
 62
         4
100
AcDbLine
 10
8.6471093841
 20
9.5998791749
 30
0.0
 11
8.8966927089
 21
10.1351123422
 31
0.0
  0
LINE
  5
8A
102
{ACAD_REACTORS
330
8B
102
}
100
AcDbEntity
  8
Z_TATTOOMYSTIQUE
370
         5
  6
Continuous
 62
         4
100
AcDbLine
 10
7.4773047403
 20
5.5398802168
 30
0.0
 11
7.7966867916
 21
6.224797236
 31
0.0
  0
CIRCLE
  5
8C
102
{ACAD_REACTORS
330
B0
102
}
100
AcDbEntity
  8
Z_TATTOOMYSTIQUE
370
         5
  6
Continuous
 62
         4
100
AcDbCircle
 10
4.7671632542
 20
13.8837086582
 30
0.0
 40
0.09375
  0
LINE
  5
8D
102
{ACAD_REACTORS
330
B0
102
}
100
AcDbEntity
  8
Z_TATTOOMYSTIQUE
370
         5
  6
Continuous
 62
         4
100
AcDbLine
 10
4.7671632542
 20
13.8837086582
 30
0.0
 11
5.314665952
 21
14.3962911354
 31
0.0
  0
LINE
  5
8E
102
{ACAD_REACTORS
330
B0
102
}
100
AcDbEntity
  8
Z_TATTOOMYSTIQUE
370
         5
  6
Continuous
 62
         4
100
AcDbLine
 10
5.801993333
 20
14.4244562499
 30
0.0
 11
5.6952053169
 21
14.538519312
 31
0.0
  0
LINE
  5
8F
102
{ACAD_REACTORS
330
B0
102
}
100
AcDbEntity
  8
Z_TATTOOMYSTIQUE
370
         5
  6
Continuous
 62
         4
100
AcDbLine
 10
5.0981799014
 20
14.5360768282
 30
0.0
 11
5.6952053169
 21
14.538519312
 31
0.0
  0
LINE
  5
90
102
{ACAD_REACTORS
330
B0
102
}
100
AcDbEntity
  8
Z_TATTOOMYSTIQUE
370
         5
  6
Continuous
 62
         4
100
AcDbLine
 10
7.9163960515
 20
12.1660076216
 30
0.0
 11
7.8096080354
 21
12.2800706836
 31
0.0
  0
LINE
  5
91
102
{ACAD_REACTORS
330
B0
102
}
100
AcDbEntity
  8
Z_TATTOOMYSTIQUE
370
         5
  6
Continuous
 62
         4
100
AcDbLine
 10
7.8746683196
 20
11.5704372153
 30
0.0
 11
7.9163960515
 21
12.1660076216
 31
0.0
  0
LINE
  5
92
102
{ACAD_REACTORS
330
B0
102
}
100
AcDbEntity
  8
Z_TATTOOMYSTIQUE
370
         5
  6
Continuous
 62
         4
100
AcDbLine
 10
6.6505298302
 20
11.3233435665
 30
0.0
 11
4.7710607471
 21
13.3308534583
 31
0.0
  0
LINE
  5
93
102
{ACAD_REACTORS
330
B0
102
}
100
AcDbEntity
  8
Z_TATTOOMYSTIQUE
370
         5
  6
Continuous
 62
         4
100
AcDbLine
 10
4.7710607471
 20
13.3308534583
 30
0.0
 11
4.7069879375
 21
13.3992912955
 31
0.0
  0
LINE
  5
94
102
{ACAD_REACTORS
330
B0
102
}
100
AcDbEntity
  8
Z_TATTOOMYSTIQUE
370
         5
  6
Continuous
 62
         4
100
AcDbLine
 10
6.6505298302
 20
11.3233435665
 30
0.0
 11
6.7146026398
 21
11.2549057292
 31
0.0
  0
LINE
  5
95
102
{ACAD_REACTORS
330
B0
102
}
100
AcDbEntity
  8
Z_TATTOOMYSTIQUE
370
         5
  6
Continuous
 62
         4
100
AcDbLine
 10
4.7069879375
 20
13.3992912955
 30
0.0
 11
4.6001999214
 21
13.5133543576
 31
0.0
  0
LINE
  5
96
102
{ACAD_REACTORS
330
B0
102
}
100
AcDbEntity
  8
Z_TATTOOMYSTIQUE
370
         5
  6
Continuous
 62
         4
100
AcDbLine
 10
6.8213906559
 20
11.1408426672
 30
0.0
 11
6.7146026398
 21
11.2549057292
 31
0.0
  0
LINE
  5
97
102
{ACAD_REACTORS
330
B0
102
}
100
AcDbEntity
  8
Z_TATTOOMYSTIQUE
370
         5
  6
Continuous
 62
         4
100
AcDbLine
 10
5.3457934901
 20
11.9853768609
 30
0.0
 11
7.1708024827
 21
13.6939851182
 31
0.0
  0
LINE
  5
98
102
{ACAD_REACTORS
330
B0
102
}
100
AcDbEntity
  8
Z_TATTOOMYSTIQUE
370
         5
  6
Continuous
 62
         4
100
AcDbLine
 10
7.7455352257
 20
12.3485085209
 30
0.0
 11
6.6505298302
 21
11.3233435665
 31
0.0
  0
LINE
  5
99
102
{ACAD_REACTORS
330
B0
102
}
100
AcDbEntity
  8
Z_TATTOOMYSTIQUE
370
         5
  6
Continuous
 62
         4
100
AcDbLine
 10
4.7710607471
 20
13.3308534583
 30
0.0
 11
5.8660661427
 21
14.3560184127
 31
0.0
  0
LINE
  5
9A
102
{ACAD_REACTORS
330
B0
102
}
100
AcDbEntity
  8
Z_TATTOOMYSTIQUE
370
         5
  6
Continuous
 62
         4
100
AcDbLine
 10
4.7069879375
 20
13.3992912955
 30
0.0
 11
5.801993333
 21
14.4244562499
 31
0.0
  0
LINE
  5
9B
102
{ACAD_REACTORS
330
B0
102
}
100
AcDbEntity
  8
Z_TATTOOMYSTIQUE
370
         5
  6
Continuous
 62
         4
100
AcDbLine
 10
5.8660661427
 20
14.3560184127
 30
0.0
 11
4.7710607471
 21
13.3308534583
 31
0.0
  0
LINE
  5
9C
102
{ACAD_REACTORS
330
B0
102
}
100
AcDbEntity
  8
Z_TATTOOMYSTIQUE
370
         5
  6
Continuous
 62
         4
100
AcDbLine
 10
6.7146026398
 20
11.2549057292
 30
0.0
 11
7.8096080354
 21
12.2800706836
 31
0.0
  0
LINE
  5
9D
102
{ACAD_REACTORS
330
B0
102
}
100
AcDbEntity
  8
Z_TATTOOMYSTIQUE
370
         5
  6
Continuous
 62
         4
100
AcDbLine
 10
7.7455352257
 20
12.3485085209
 30
0.0
 11
6.6505298302
 21
11.3233435665
 31
0.0
  0
CIRCLE
  5
9E
102
{ACAD_REACTORS
330
B0
102
}
100
AcDbEntity
  8
Z_TATTOOMYSTIQUE
370
         5
  6
Continuous
 62
         4
100
AcDbCircle
 10
6.2582979864
 20
12.8396809896
 30
0.0
 40
1.25
  0
LINE
  5
9F
102
{ACAD_REACTORS
330
B0
102
}
100
AcDbEntity
  8
Z_TATTOOMYSTIQUE
370
         5
  6
Continuous
 62
         4
100
AcDbLine
 10
4.6001999214
 20
13.5133543576
 30
0.0
 11
4.6419276533
 21
14.1089247639
 31
0.0
  0
LINE
  5
A0
102
{ACAD_REACTORS
330
B0
102
}
100
AcDbEntity
  8
Z_TATTOOMYSTIQUE
370
         5
  6
Continuous
 62
         4
100
AcDbLine
 10
6.8213906559
 20
11.1408426672
 30
0.0
 11
7.4184160714
 21
11.1432851509
 31
0.0
  0
LINE
  5
A1
102
{ACAD_REACTORS
330
B0
102
}
100
AcDbEntity
  8
Z_TATTOOMYSTIQUE
370
         5
  6
Continuous
 62
         4
100
AcDbLine
 10
5.8660661427
 20
14.3560184127
 30
0.0
 11
7.7455352257
 21
12.3485085209
 31
0.0
  0
LINE
  5
A2
102
{ACAD_REACTORS
330
B0
102
}
100
AcDbEntity
  8
Z_TATTOOMYSTIQUE
370
         5
  6
Continuous
 62
         4
100
AcDbLine
 10
5.801993333
 20
14.4244562499
 30
0.0
 11
5.8660661427
 21
14.3560184127
 31
0.0
  0
LINE
  5
A3
102
{ACAD_REACTORS
330
B0
102
}
100
AcDbEntity
  8
Z_TATTOOMYSTIQUE
370
         5
  6
Continuous
 62
         4
100
AcDbLine
 10
7.8096080354
 20
12.2800706836
 30
0.0
 11
7.7455352257
 21
12.3485085209
 31
0.0
  0
CIRCLE
  5
A4
102
{ACAD_REACTORS
330
B0
102
}
100
AcDbEntity
  8
Z_TATTOOMYSTIQUE
370
         5
  6
Continuous
 62
         4
100
AcDbCircle
 10
6.2582979864
 20
12.8396809896
 30
0.0
 40
0.375
  0
LINE
  5
A5
102
{ACAD_REACTORS
330
B0
102
}
100
AcDbEntity
  8
Z_TATTOOMYSTIQUE
370
         5
  6
Continuous
 62
         4
100
AcDbLine
 10
5.2544906352
 20
13.9118737727
 30
0.0
 11
7.2621053376
 21
11.7674882064
 31
0.0
  0
LINE
  5
A6
102
{ACAD_REACTORS
330
B0
102
}
100
AcDbEntity
  8
Z_TATTOOMYSTIQUE
370
         5
  6
Continuous
 62
         4
100
AcDbLine
 10
5.2544906352
 20
13.9118737727
 30
0.0
 11
4.8700537773
 21
14.3225007961
 31
0.0
  0
LINE
  5
A7
102
{ACAD_REACTORS
330
B0
102
}
100
AcDbEntity
  8
Z_TATTOOMYSTIQUE
370
         5
  6
Continuous
 62
         4
100
AcDbLine
 10
7.2621053376
 20
11.7674882064
 30
0.0
 11
7.6465421955
 21
11.3568611831
 31
0.0
  0
LINE
  5
A8
102
{ACAD_REACTORS
330
B0
102
}
100
AcDbEntity
  8
Z_TATTOOMYSTIQUE
370
         5
  6
Continuous
 62
         4
100
AcDbLine
 10
4.6419276533
 20
14.1089247639
 30
0.0
 11
5.0981799014
 21
14.5360768282
 31
0.0
  0
LINE
  5
A9
102
{ACAD_REACTORS
330
B0
102
}
100
AcDbEntity
  8
Z_TATTOOMYSTIQUE
370
         5
  6
Continuous
 62
         4
100
AcDbLine
 10
7.4184160714
 20
11.1432851509
 30
0.0
 11
7.8746683196
 21
11.5704372153
 31
0.0
  0
LINE
  5
AA
102
{ACAD_REACTORS
330
B0
102
}
100
AcDbEntity
  8
Z_TATTOOMYSTIQUE
370
         5
  6
Continuous
 62
         4
100
AcDbLine
 10
7.2621053376
 20
11.7674882064
 30
0.0
 11
7.4756813698
 21
11.5393620824
 31
0.0
  0
CIRCLE
  5
AB
102
{ACAD_REACTORS
330
B0
102
}
100
AcDbEntity
  8
Z_TATTOOMYSTIQUE
370
         5
  6
Continuous
 62
         4
100
AcDbCircle
 10
7.7494327187
 20
11.795653321
 30
0.0
 40
0.09375
  0
CIRCLE
  5
AC
102
{ACAD_REACTORS
330
B0
102
}
100
AcDbEntity
  8
Z_TATTOOMYSTIQUE
370
         5
  6
Continuous
 62
         4
100
AcDbCircle
 10
7.2019300209
 20
11.2830708438
 30
0.0
 40
0.09375
  0
LINE
  5
AD
102
{ACAD_REACTORS
330
B0
102
}
100
AcDbEntity
  8
Z_TATTOOMYSTIQUE
370
         5
  6
Continuous
 62
         4
100
AcDbLine
 10
7.2019300209
 20
11.2830708438
 30
0.0
 11
7.7494327187
 21
11.795653321
 31
0.0
  0
LINE
  5
AE
102
{ACAD_REACTORS
330
B0
102
}
100
AcDbEntity
  8
Z_TATTOOMYSTIQUE
370
         5
  6
Continuous
 62
         4
100
AcDbLine
 10
5.0409146031
 20
14.1399998968
 30
0.0
 11
5.2544906352
 21
13.9118737727
 31
0.0
  0
CIRCLE
  5
AF
102
{ACAD_REACTORS
330
B0
102
}
100
AcDbEntity
  8
Z_TATTOOMYSTIQUE
370
         5
  6
Continuous
 62
         4
100
AcDbCircle
 10
5.314665952
 20
14.3962911354
 30
0.0
 40
0.09375
  0
CIRCLE
  5
B1
100
AcDbEntity
  8
X_SMPOSTS
370
        25
  6
Continuous
 62
         3
100
AcDbCircle
 10
2.7776141291
 20
13.9145326096
 30
0.0
 40
0.5110787402
  0
CIRCLE
  5
B2
100
AcDbEntity
  8
X_SMPOSTS
370
        25
  6
Continuous
 62
         3
100
AcDbCircle
 10
6.4883449914
 20
14.0496875807
 30
0.0
 40
0.5110787402
  0
CIRCLE
  5
B3
100
AcDbEntity
  8
X_DROPS
370
         5
  6
Continuous
 62
         5
100
AcDbCircle
 10
6.4883449914
 20
14.0496875807
 30
0.0
 40
0.4281496063
  0
CIRCLE
  5
B4
100
AcDbEntity
  8
X_SMPOSTS
370
        25
  6
Continuous
 62
         3
100
AcDbCircle
 10
1.3804566488
 20
13.9145326096
 30
0.0
 40
0.5110787402
  0
CIRCLE
  5
B5
100
AcDbEntity
  8
X_ROLLOVER
370
        25
  6
Continuous
 62
        27
100
AcDbCircle
 10
5.426412504
 20
9.6845823203
 30
0.0
 40
0.075
  0
CIRCLE
  5
B6
100
AcDbEntity
  8
X_ROLLOVER
370
        25
  6
Continuous
 62
        27
100
AcDbCircle
 10
5.426412504
 20
9.6845823203
 30
0.0
 40
0.35
  0
CIRCLE
  5
B7
100
AcDbEntity
  8
6_125BIT_500DEP
370
        25
  6
Continuous
 62
         5
100
AcDbCircle
 10
2.0819791438
 20
10.4061431669
 30
0.0
 40
0.1225
  0
CIRCLE
  5
B8
100
AcDbEntity
  8
X_ROLLOVER
370
         5
  6
Continuous
 62
         6
100
AcDbCircle
 10
1.9569791438
 20
10.6226495178
 30
0.0
 40
0.5
  0
CIRCLE
  5
B9
102
{ACAD_REACTORS
330
BB
102
}
100
AcDbEntity
  8
0
370
        25
  6
Continuous
 62
        30
100
AcDbCircle
 10
1.9569791438
 20
10.6226495178
 30
0.0
 40
0.215
  0
CIRCLE
  5
BA
102
{ACAD_REACTORS
330
BB
102
}
100
AcDbEntity
  8
0
370
        25
  6
Continuous
 62
        30
100
AcDbCircle
 10
1.9569791438
 20
10.6226495178
 30
0.0
 40
0.07
  0
CIRCLE
  5
BC
102
{ACAD_REACTORS
330
C7
102
}
100
AcDbEntity
  8
UNASSIGNED
370
        25
  6
Continuous
 62
         4
100
AcDbCircle
 10
1.9569791438
 20
10.6226495178
 30
0.0
 40
0.0835
  0
ARC
  5
BD
102
{ACAD_REACTORS
330
C7
102
}
100
AcDbEntity
  8
UNASSIGNED
370
        25
  6
Continuous
 62
         4
100
AcDbCircle
 10
1.9569791438
 20
10.6226495178
 30
0.0
 40
0.375
100
AcDbArc
 50
-66.0229894053
 51
28.8646310311
  0
ARC
  5
BE
102
{ACAD_REACTORS
330
C7
102
}
100
AcDbEntity
  8
UNASSIGNED
370
        25
  6
Continuous
 62
         4
100
AcDbCircle
 10
1.9569791438
 20
10.6226495178
 30
0.0
 40
0.375
100
AcDbArc
 50
173.9770105947
 51
-91.1353689689
  0
ARC
  5
BF
102
{ACAD_REACTORS
330
C7
102
}
100
AcDbEntity
  8
UNASSIGNED
370
        25
  6
Continuous
 62
         4
100
AcDbCircle
 10
1.9569791438
 20
10.6226495178
 30
0.0
 40
0.375
100
AcDbArc
 50
53.9770105948
 51
148.8646310311
  0
CIRCLE
  5
C0
102
{ACAD_REACTORS
330
C7
102
}
100
AcDbEntity
  8
UNASSIGNED
370
        25
  6
Continuous
 62
         4
100
AcDbCircle
 10
1.9569791438
 20
10.6226495178
 30
0.0
 40
0.12125
  0
LINE
  5
C1
102
{ACAD_REACTORS
330
C7
102
}
100
AcDbEntity
  8
UNASSIGNED
370
        25
  6
Continuous
 62
         4
100
AcDbLine
 10
2.2853901536
 20
10.8036777163
 30
0.0
 11
2.2016814946
 21
10.7889176212
 31
0.0
  0
LINE
  5
C2
102
{ACAD_REACTORS
330
C7
102
}
100
AcDbEntity
  8
UNASSIGNED
370
        25
  6
Continuous
 62
         4
100
AcDbLine
 10
2.2016814946
 20
10.7889176212
 30
0.0
 11
2.1775203247
 21
10.925942425
 31
0.0
  0
LINE
  5
C3
102
{ACAD_REACTORS
330
C7
102
}
100
AcDbEntity
  8
UNASSIGNED
370
        25
  6
Continuous
 62
         4
100
AcDbLine
 10
1.6906355671
 20
10.7514339183
 30
0.0
 11
1.584049191
 21
10.6619973294
 31
0.0
  0
LINE
  5
C4
102
{ACAD_REACTORS
330
C7
102
}
100
AcDbEntity
  8
UNASSIGNED
370
        25
  6
Continuous
 62
         4
100
AcDbLine
 10
1.6359986203
 20
10.8165476959
 30
0.0
 11
1.6906355671
 21
10.7514339183
 31
0.0
  0
LINE
  5
C5
102
{ACAD_REACTORS
330
C7
102
}
100
AcDbEntity
  8
UNASSIGNED
370
        25
  6
Continuous
 62
         4
100
AcDbLine
 10
1.9786203698
 20
10.327597014
 30
0.0
 11
2.1093679158
 21
10.280008799
 31
0.0
  0
LINE
  5
C6
102
{ACAD_REACTORS
330
C7
102
}
100
AcDbEntity
  8
UNASSIGNED
370
        25
  6
Continuous
 62
         4
100
AcDbLine
 10
1.9495486576
 20
10.2477231412
 30
0.0
 11
1.9786203698
 21
10.327597014
 31
0.0
  0
CIRCLE
  5
C8
100
AcDbEntity
  8
3_250BIT_500TAB
370
        25
  6
Continuous
 62
         5
100
AcDbCircle
 10
5.6875785854
 20
7.1646654199
 30
0.0
 40
0.25
  0
LINE
  5
C9
100
AcDbEntity
  8
Z0_CUT500
370
         5
  6
Continuous
 62
        47
100
AcDbLine
 10
4.2586869922
 20
13.8073724957
 30
0.0
 11
5.9005968886
 21
9.8421499394
 31
0.0
  0
CIRCLE
  5
CA
100
AcDbEntity
  8
6_125BIT_500DEP
370
        25
  6
Continuous
 62
         5
100
AcDbCircle
 10
1.8319791438
 20
10.8391558688
 30
0.0
 40
0.1225
  0
LINE
  5
CB
100
AcDbEntity
  8
X_ROLLOVER
370
         5
  6
Continuous
 62
         6
100
AcDbLine
 10
1.8319791438
 20
10.4061431669
 30
0.0
 11
1.8319791438
 21
10.8391558688
 31
0.0
  0
ARC
  5
CC
100
AcDbEntity
  8
Z0_CUT500
370
         5
  6
Continuous
 62
        47
100
AcDbCircle
 10
2.3319791438
 20
9.1727169572
 30
0.0
 40
0.5
100
AcDbArc
 50
180.0
 51
-120.4696099786
  0
CIRCLE
  5
CD
100
AcDbEntity
  8
Z0_CUT500
370
         5
  6
Continuous
 62
        47
100
AcDbCircle
 10
4.0574834636
 20
8.0335017601
 30
0.0
 40
0.0825
  0
CIRCLE
  5
CE
100
AcDbEntity
  8
Z0_CUT500
370
         5
  6
Continuous
 62
        47
100
AcDbCircle
 10
2.7169153588
 20
8.7018044592
 30
0.0
 40
0.0825
  0
ARC
  5
CF
100
AcDbEntity
  8
Z0_CUT250
370
         5
  6
Continuous
 62
         6
100
AcDbCircle
 10
4.9669372281
 20
7.1874038039
 30
0.0
 40
0.025
100
AcDbArc
 50
-120.4696099786
 51
-1.8072531164
  0
LINE
  5
D0
100
AcDbEntity
  8
Z0_CUT250
370
         5
  6
Continuous
 62
         6
100
AcDbLine
 10
4.9542601961
 20
7.1658563479
 30
0.0
 11
2.1291466325
 21
8.8279576609
 31
0.0
  0
ARC
  5
D1
100
AcDbEntity
  8
Z0_CUT250
370
         5
  6
Continuous
 62
         6
100
AcDbCircle
 10
1.9569791438
 20
10.1226495178
 30
0.0
 40
0.025
100
AcDbArc
 50
23.4304765299
 51
180.0
  0
LINE
  5
D2
100
AcDbEntity
  8
Z0_CUT250
370
         5
  6
Continuous
 62
         6
100
AcDbLine
 10
5.4292474113
 20
7.8564160327
 30
0.0
 11
2.5628712001
 21
9.1731764948
 31
0.0
  0
ARC
  5
D3
100
AcDbEntity
  8
Z0_CUT250
370
         5
  6
Continuous
 62
         6
100
AcDbCircle
 10
5.6875785854
 20
7.1646654199
 30
0.0
 40
0.696
100
AcDbArc
 50
111.8865562051
 51
178.1927468836
  0
LINE
  5
D4
100
AcDbEntity
  8
Z0_CUT250
370
         5
  6
Continuous
 62
         6
100
AcDbLine
 10
1.979917725
 20
10.1325904179
 30
0.0
 11
2.2628102989
 21
9.4798171052
 31
0.0
  0
ARC
  5
D5
100
AcDbEntity
  8
Z0_CUT500
370
         5
  6
Continuous
 62
        47
100
AcDbCircle
 10
2.8133362469
 20
9.7183987067
 30
0.0
 40
0.5
100
AcDbArc
 50
-156.5695234702
 51
-114.6731791656
  0
ARC
  5
D6
100
AcDbEntity
  8
Z0_CUT250
370
         5
  6
Continuous
 62
         6
100
AcDbCircle
 10
2.8133362469
 20
9.7183987067
 30
0.0
 40
0.6
100
AcDbArc
 50
-156.5695234702
 51
-114.6731791656
  0
ARC
  5
D7
100
AcDbEntity
  8
Z0_CUT250
370
         5
  6
Continuous
 62
         6
100
AcDbCircle
 10
5.4188113676
 20
7.8336984405
 30
0.0
 40
0.025
100
AcDbArc
 50
-68.1134437949
 51
65.3268208345
  0
CIRCLE
  5
D8
100
AcDbEntity
  8
X_DROPS
370
         5
  6
Continuous
 62
         5
100
AcDbCircle
 10
2.7776141291
 20
13.9145326096
 30
0.0
 40
0.4281496063
  0
ARC
  5
D9
100
AcDbEntity
  8
Z0_CUT500
370
         5
  6
Continuous
 62
        47
100
AcDbCircle
 10
5.4188113676
 20
7.8336984405
 30
0.0
 40
0.125
100
AcDbArc
 50
-68.1134437949
 51
65.3268208344
  0
LINE
  5
DA
100
AcDbEntity
  8
Z0_CUT500
370
         5
  6
Continuous
 62
        47
100
AcDbLine
 10
2.0716720497
 20
10.1723540181
 30
0.0
 11
2.3545646235
 21
9.5195807054
 31
0.0
  0
CIRCLE
  5
DB
100
AcDbEntity
  8
3_250BIT_500TAB
370
        25
  6
Continuous
 62
         5
100
AcDbCircle
 10
5.1190545276
 20
10.7010444826
 30
0.0
 40
0.25
  0
ARC
  5
DC
100
AcDbEntity
  8
Z0_CUT250
370
         5
  6
Continuous
 62
         6
100
AcDbCircle
 10
2.3319791438
 20
9.1727169572
 30
0.0
 40
0.4
100
AcDbArc
 50
180.0
 51
-120.4696099786
  0
CIRCLE
  5
DD
100
AcDbEntity
  8
0
370
        25
  6
Continuous
 62
        47
100
AcDbCircle
 10
4.2454181438
 20
10.0646716012
 30
0.0
 40
0.125
  0
CIRCLE
  5
DE
102
{ACAD_REACTORS
330
E0
102
}
100
AcDbEntity
  8
0
370
        25
  6
Continuous
 62
        47
100
AcDbCircle
 10
5.426412504
 20
9.6845823203
 30
0.0
 40
0.4
  0
CIRCLE
  5
DF
102
{ACAD_REACTORS
330
E0
102
}
100
AcDbEntity
  8
0
370
        25
  6
Continuous
 62
        47
100
AcDbCircle
 10
5.426412504
 20
9.6845823203
 30
0.0
 40
0.215
  0
CIRCLE
  5
E1
102
{ACAD_REACTORS
330
EC
102
}
100
AcDbEntity
  8
UNASSIGNED
370
        25
  6
Continuous
 62
         4
100
AcDbCircle
 10
1.0279471438
 20
12.2348468706
 30
0.0
 40
0.0835
  0
ARC
  5
E2
102
{ACAD_REACTORS
330
EC
102
}
100
AcDbEntity
  8
UNASSIGNED
370
        25
  6
Continuous
 62
         4
100
AcDbCircle
 10
1.0279471438
 20
12.2348468706
 30
0.0
 40
0.375
100
AcDbArc
 50
-66.0229894053
 51
28.8646310311
  0
ARC
  5
E3
102
{ACAD_REACTORS
330
EC
102
}
100
AcDbEntity
  8
UNASSIGNED
370
        25
  6
Continuous
 62
         4
100
AcDbCircle
 10
1.0279471438
 20
12.2348468706
 30
0.0
 40
0.375
100
AcDbArc
 50
173.9770105947
 51
-91.1353689689
  0
ARC
  5
E4
102
{ACAD_REACTORS
330
EC
102
}
100
AcDbEntity
  8
UNASSIGNED
370
        25
  6
Continuous
 62
         4
100
AcDbCircle
 10
1.0279471438
 20
12.2348468706
 30
0.0
 40
0.375
100
AcDbArc
 50
53.9770105948
 51
148.8646310311
  0
CIRCLE
  5
E5
102
{ACAD_REACTORS
330
EC
102
}
100
AcDbEntity
  8
UNASSIGNED
370
        25
  6
Continuous
 62
         4
100
AcDbCircle
 10
1.0279471438
 20
12.2348468706
 30
0.0
 40
0.12125
  0
LINE
  5
E6
102
{ACAD_REACTORS
330
EC
102
}
100
AcDbEntity
  8
UNASSIGNED
370
        25
  6
Continuous
 62
         4
100
AcDbLine
 10
1.3563581536
 20
12.4158750691
 30
0.0
 11
1.2726494946
 21
12.401114974
 31
0.0
  0
LINE
  5
E7
102
{ACAD_REACTORS
330
EC
102
}
100
AcDbEntity
  8
UNASSIGNED
370
        25
  6
Continuous
 62
         4
100
AcDbLine
 10
1.2726494946
 20
12.401114974
 30
0.0
 11
1.2484883247
 21
12.5381397778
 31
0.0
  0
LINE
  5
E8
102
{ACAD_REACTORS
330
EC
102
}
100
AcDbEntity
  8
UNASSIGNED
370
        25
  6
Continuous
 62
         4
100
AcDbLine
 10
0.7616035671
 20
12.363631271
 30
0.0
 11
0.655017191
 21
12.2741946822
 31
0.0
  0
LINE
  5
E9
102
{ACAD_REACTORS
330
EC
102
}
100
AcDbEntity
  8
UNASSIGNED
370
        25
  6
Continuous
 62
         4
100
AcDbLine
 10
0.7069666203
 20
12.4287450487
 30
0.0
 11
0.7616035671
 21
12.363631271
 31
0.0
  0
LINE
  5
EA
102
{ACAD_REACTORS
330
EC
102
}
100
AcDbEntity
  8
UNASSIGNED
370
        25
  6
Continuous
 62
         4
100
AcDbLine
 10
1.0495883698
 20
11.9397943667
 30
0.0
 11
1.1803359158
 21
11.8922061518
 31
0.0
  0
LINE
  5
EB
102
{ACAD_REACTORS
330
EC
102
}
100
AcDbEntity
  8
UNASSIGNED
370
        25
  6
Continuous
 62
         4
100
AcDbLine
 10
1.0205166576
 20
11.859920494
 30
0.0
 11
1.0495883698
 21
11.9397943667
 31
0.0
  0
CIRCLE
  5
ED
102
{ACAD_REACTORS
330
F8
102
}
100
AcDbEntity
  8
UNASSIGNED
370
        25
  6
Continuous
 62
         4
100
AcDbCircle
 10
0.4353545513
 20
13.6159447542
 30
0.0
 40
0.0835
  0
ARC
  5
EE
102
{ACAD_REACTORS
330
F8
102
}
100
AcDbEntity
  8
UNASSIGNED
370
        25
  6
Continuous
 62
         4
100
AcDbCircle
 10
0.4353545513
 20
13.6159447542
 30
0.0
 40
0.375
100
AcDbArc
 50
-66.0229894053
 51
28.8646310311
  0
ARC
  5
EF
102
{ACAD_REACTORS
330
F8
102
}
100
AcDbEntity
  8
UNASSIGNED
370
        25
  6
Continuous
 62
         4
100
AcDbCircle
 10
0.4353545513
 20
13.6159447542
 30
0.0
 40
0.375
100
AcDbArc
 50
173.9770105947
 51
-91.1353689689
  0
ARC
  5
F0
102
{ACAD_REACTORS
330
F8
102
}
100
AcDbEntity
  8
UNASSIGNED
370
        25
  6
Continuous
 62
         4
100
AcDbCircle
 10
0.4353545513
 20
13.6159447542
 30
0.0
 40
0.375
100
AcDbArc
 50
53.9770105948
 51
148.8646310311
  0
CIRCLE
  5
F1
102
{ACAD_REACTORS
330
F8
102
}
100
AcDbEntity
  8
UNASSIGNED
370
        25
  6
Continuous
 62
         4
100
AcDbCircle
 10
0.4353545513
 20
13.6159447542
 30
0.0
 40
0.12125
  0
LINE
  5
F2
102
{ACAD_REACTORS
330
F8
102
}
100
AcDbEntity
  8
UNASSIGNED
370
        25
  6
Continuous
 62
         4
100
AcDbLine
 10
0.763765561
 20
13.7969729527
 30
0.0
 11
0.680056902
 21
13.7822128576
 31
0.0
  0
LINE
  5
F3
102
{ACAD_REACTORS
330
F8
102
}
100
AcDbEntity
  8
UNASSIGNED
370
        25
  6
Continuous
 62
         4
100
AcDbLine
 10
0.680056902
 20
13.7822128576
 30
0.0
 11
0.6558957321
 21
13.9192376614
 31
0.0
  0
LINE
  5
F4
102
{ACAD_REACTORS
330
F8
102
}
100
AcDbEntity
  8
UNASSIGNED
370
        25
  6
Continuous
 62
         4
100
AcDbLine
 10
0.1690109745
 20
13.7447291546
 30
0.0
 11
0.0624245984
 21
13.6552925658
 31
0.0
  0
LINE
  5
F5
102
{ACAD_REACTORS
330
F8
102
}
100
AcDbEntity
  8
UNASSIGNED
370
        25
  6
Continuous
 62
         4
100
AcDbLine
 10
0.1143740277
 20
13.8098429323
 30
0.0
 11
0.1690109745
 21
13.7447291546
 31
0.0
  0
LINE
  5
F6
102
{ACAD_REACTORS
330
F8
102
}
100
AcDbEntity
  8
UNASSIGNED
370
        25
  6
Continuous
 62
         4
100
AcDbLine
 10
0.4569957772
 20
13.3208922503
 30
0.0
 11
0.5877433232
 21
13.2733040354
 31
0.0
  0
LINE
  5
F7
102
{ACAD_REACTORS
330
F8
102
}
100
AcDbEntity
  8
UNASSIGNED
370
        25
  6
Continuous
 62
         4
100
AcDbLine
 10
0.427924065
 20
13.2410183776
 30
0.0
 11
0.4569957772
 21
13.3208922503
 31
0.0
  0
CIRCLE
  5
F9
100
AcDbEntity
  8
Z0_CUT250
370
         5
  6
Continuous
 62
        47
100
AcDbCircle
 10
5.426412504
 20
9.6845823203
 30
0.0
 40
0.075
  0
LINE
  5
FA
100
AcDbEntity
  8
Z0_CUT250
370
         5
  6
Continuous
 62
        47
100
AcDbLine
 10
2.9977954166
 20
12.2950644729
 30
0.0
 11
3.4291917264
 21
13.7736683985
 31
0.0
  0
ARC
  5
FB
102
{ACAD_REACTORS
330
106
102
}
100
AcDbEntity
  8
UNASSIGNED
370
        25
  6
Continuous
 62
         4
100
AcDbCircle
 10
5.426412504
 20
9.6845823203
 30
0.0
 40
0.285
100
AcDbArc
 50
15.4320713506
 51
90.0
  0
ARC
  5
FC
102
{ACAD_REACTORS
330
106
102
}
100
AcDbEntity
  8
UNASSIGNED
370
        25
  6
Continuous
 62
         4
100
AcDbCircle
 10
5.426412504
 20
9.6845823203
 30
0.0
 40
0.285
100
AcDbArc
 50
-104.5679286494
 51
-30.0
  0
ARC
  5
FD
102
{ACAD_REACTORS
330
106
102
}
100
AcDbEntity
  8
UNASSIGNED
370
        25
  6
Continuous
 62
         4
100
AcDbCircle
 10
5.426412504
 20
9.6845823203
 30
0.0
 40
0.285
100
AcDbArc
 50
135.4320713506
 51
-150.0
  0
LINE
  5
FE
102
{ACAD_REACTORS
330
106
102
}
100
AcDbEntity
  8
UNASSIGNED
370
        25
  6
Continuous
 62
         4
100
AcDbLine
 10
5.673229744
 20
9.5420823203
 30
0.0
 11
5.5996175847
 21
9.5845823203
 31
0.0
  0
LINE
  5
FF
102
{ACAD_REACTORS
330
106
102
}
100
AcDbEntity
  8
UNASSIGNED
370
        25
  6
Continuous
 62
         4
100
AcDbLine
 10
5.5996175847
 20
9.5845823203
 30
0.0
 11
5.7011372872
 21
9.760419603
 31
0.0
  0
LINE
  5
100
102
{ACAD_REACTORS
330
106
102
}
100
AcDbEntity
  8
UNASSIGNED
370
        25
  6
Continuous
 62
         4
100
AcDbLine
 10
5.1795952639
 20
9.5420823203
 30
0.0
 11
5.2532074232
 21
9.5845823203
 31
0.0
  0
LINE
  5
101
102
{ACAD_REACTORS
330
106
102
}
100
AcDbEntity
  8
UNASSIGNED
370
        25
  6
Continuous
 62
         4
100
AcDbLine
 10
5.2532074232
 20
9.5845823203
 30
0.0
 11
5.3547271257
 21
9.4087450376
 31
0.0
  0
LINE
  5
102
102
{ACAD_REACTORS
330
106
102
}
100
AcDbEntity
  8
UNASSIGNED
370
        25
  6
Continuous
 62
         4
100
AcDbLine
 10
5.426412504
 20
9.8845823203
 30
0.0
 11
5.2233730989
 21
9.8845823203
 31
0.0
  0
LINE
  5
103
102
{ACAD_REACTORS
330
106
102
}
100
AcDbEntity
  8
UNASSIGNED
370
        25
  6
Continuous
 62
         4
100
AcDbLine
 10
5.426412504
 20
9.9695823203
 30
0.0
 11
5.426412504
 21
9.8845823203
 31
0.0
  0
CIRCLE
  5
104
102
{ACAD_REACTORS
330
106
102
}
100
AcDbEntity
  8
UNASSIGNED
370
        25
  6
Continuous
 62
         4
100
AcDbCircle
 10
5.426412504
 20
9.6845823203
 30
0.0
 40
0.059
  0
CIRCLE
  5
105
102
{ACAD_REACTORS
330
106
102
}
100
AcDbEntity
  8
UNASSIGNED
370
        25
  6
Continuous
 62
         4
100
AcDbCircle
 10
5.426412504
 20
9.6845823203
 30
0.0
 40
0.085
  0
CIRCLE
  5
107
100
AcDbEntity
  8
X_ROLLOVER
370
        25
  6
Continuous
 62
        27
100
AcDbCircle
 10
3.7967828743
 20
13.6159447542
 30
0.0
 40
0.075
  0
CIRCLE
  5
108
100
AcDbEntity
  8
6_125BIT_500DEP
370
        25
  6
Continuous
 62
         5
100
AcDbCircle
 10
3.7967828743
 20
13.6159447542
 30
0.0
 40
0.0825
  0
CIRCLE
  5
109
100
AcDbEntity
  8
X_ROLLOVER
370
        25
  6
Continuous
 62
        27
100
AcDbCircle
 10
3.7967828743
 20
13.6159447542
 30
0.0
 40
0.35
  0
CIRCLE
  5
10A
100
AcDbEntity
  8
6_125BIT_500DEP
370
        25
  6
Continuous
 62
         5
100
AcDbCircle
 10
3.2041902817
 20
12.2348468706
 30
0.0
 40
0.1225
  0
CIRCLE
  5
10B
102
{ACAD_REACTORS
330
10D
102
}
100
AcDbEntity
  8
0
370
        25
  6
Continuous
 62
        30
100
AcDbCircle
 10
3.2041902817
 20
12.2348468706
 30
0.0
 40
0.215
  0
CIRCLE
  5
10C
102
{ACAD_REACTORS
330
10D
102
}
100
AcDbEntity
  8
0
370
        25
  6
Continuous
 62
        30
100
AcDbCircle
 10
3.2041902817
 20
12.2348468706
 30
0.0
 40
0.07
  0
CIRCLE
  5
10E
102
{ACAD_REACTORS
330
110
102
}
100
AcDbEntity
  8
0
370
        25
  6
Continuous
 62
        47
100
AcDbCircle
 10
3.7967828743
 20
13.6159447542
 30
0.0
 40
0.4
  0
CIRCLE
  5
10F
102
{ACAD_REACTORS
330
110
102
}
100
AcDbEntity
  8
0
370
        25
  6
Continuous
 62
        47
100
AcDbCircle
 10
3.7967828743
 20
13.6159447542
 30
0.0
 40
0.215
  0
CIRCLE
  5
111
100
AcDbEntity
  8
0
370
        25
  6
Continuous
 62
        47
100
AcDbCircle
 10
4.2454181438
 20
10.0646716012
 30
0.0
 40
0.3075
  0
CIRCLE
  5
112
100
AcDbEntity
  8
6_125BIT_500DEP
370
        25
  6
Continuous
 62
         5
100
AcDbCircle
 10
4.2454181438
 20
10.0646716012
 30
0.0
 40
0.0825
  0
LINE
  5
113
100
AcDbEntity
  8
0
370
         5
  6
Continuous
 62
        47
100
AcDbLine
 10
5.3605445213
 20
9.4799206266
 30
0.0
 11
4.1986443122
 21
9.9487526266
 31
0.0
  0
LINE
  5
114
100
AcDbEntity
  8
6_125BIT_500DEP
370
        25
  6
Continuous
 62
         5
100
AcDbLine
 10
1.0346041913
 20
10.4956341314
 30
0.0
 11
1.0346041913
 21
8.7956341314
 31
0.0
  0
LINE
  5
115
100
AcDbEntity
  8
6_125BIT_500DEP
370
        25
  6
Continuous
 62
         5
100
AcDbLine
 10
1.2146041913
 20
10.4956341314
 30
0.0
 11
1.2146041913
 21
8.7956341314
 31
0.0
  0
ARC
  5
116
100
AcDbEntity
  8
6_125BIT_500DEP
370
        25
  6
Continuous
 62
         5
100
AcDbCircle
 10
2.755399869
 20
11.0045303211
 30
0.0
 40
0.09
100
AcDbArc
 50
23.4304765298
 51
-156.5695234702
  0
ARC
  5
117
100
AcDbEntity
  8
6_125BIT_500DEP
370
        25
  6
Continuous
 62
         5
100
AcDbCircle
 10
1.1246041913
 20
10.4956341314
 30
0.0
 40
0.09
100
AcDbArc
 50
0.0
 51
180.0
  0
CIRCLE
  5
118
100
AcDbEntity
  8
3_250BIT_500TAB
370
        25
  6
Continuous
 62
         5
100
AcDbCircle
 10
3.9688285854
 20
12.0
 30
0.0
 40
0.25
  0
LINE
  5
119
100
AcDbEntity
  8
0
370
         5
  6
Continuous
 62
        47
100
AcDbLine
 10
3.5992026323
 20
13.700721213
 30
0.0
 11
3.1410784922
 21
12.2045664805
 31
0.0
  0
CIRCLE
  5
11A
102
{ACAD_REACTORS
330
127
102
}
100
AcDbEntity
  8
X_ROLLOVER
370
        25
  6
Continuous
 62
        27
100
AcDbCircle
 10
5.6875785854
 20
7.1646654199
 30
0.0
 40
0.125
  0
LINE
  5
11B
102
{ACAD_REACTORS
330
127
102
}
100
AcDbEntity
  8
X_ROLLOVER
370
        25
  6
Continuous
 62
        27
100
AcDbLine
 10
5.5097877908
 20
6.8558152094
 30
0.0
 11
7.6720519501
 21
5.5975340625
 31
0.0
  0
LINE
  5
11C
102
{ACAD_REACTORS
330
127
102
}
100
AcDbEntity
  8
X_ROLLOVER
370
        25
  6
Continuous
 62
        27
100
AcDbLine
 10
5.5405606731
 20
6.9092724833
 30
0.0
 11
7.6962126726
 21
5.6395049881
 31
0.0
  0
LINE
  5
11D
102
{ACAD_REACTORS
330
127
102
}
100
AcDbEntity
  8
X_ROLLOVER
370
        25
  6
Continuous
 62
        27
100
AcDbLine
 10
5.8718005659
 20
7.3946699427
 30
0.0
 11
7.8400331869
 21
5.8502589275
 31
0.0
  0
LINE
  5
11E
102
{ACAD_REACTORS
330
127
102
}
100
AcDbEntity
  8
X_ROLLOVER
370
        25
  6
Continuous
 62
        27
100
AcDbLine
 10
5.9103607743
 20
7.4428130705
 30
0.0
 11
7.870307975
 21
5.888057556
 31
0.0
  0
ARC
  5
11F
102
{ACAD_REACTORS
330
127
102
}
100
AcDbEntity
  8
X_ROLLOVER
370
        25
  6
Continuous
 62
        27
100
AcDbCircle
 10
7.7600461426
 20
5.750393635
 30
0.0
 40
0.127949224
100
AcDbArc
 50
-119.9270456786
 51
51.3070390493
  0
ARC
  5
120
102
{ACAD_REACTORS
330
127
102
}
100
AcDbEntity
  8
X_ROLLOVER
370
        25
  6
Continuous
 62
        27
100
AcDbCircle
 10
7.7600461426
 20
5.750393635
 30
0.0
 40
0.1763775123
100
AcDbArc
 50
-119.9270456786
 51
51.3070390493
  0
ARC
  5
121
102
{ACAD_REACTORS
330
127
102
}
100
AcDbEntity
  8
X_ROLLOVER
370
        25
  6
Continuous
 62
        27
100
AcDbCircle
 10
7.7600461426
 20
5.750393635
 30
0.0
 40
0.2790784964
100
AcDbArc
 50
-119.9270456786
 51
51.3070390493
  0
ARC
  5
122
102
{ACAD_REACTORS
330
127
102
}
100
AcDbEntity
  8
X_ROLLOVER
370
        25
  6
Continuous
 62
        27
100
AcDbCircle
 10
5.6875785854
 20
7.1646654199
 30
0.0
 40
0.2946859661
100
AcDbArc
 50
51.3070390493
 51
-119.9270456786
  0
ARC
  5
123
102
{ACAD_REACTORS
330
127
102
}
100
AcDbEntity
  8
X_ROLLOVER
370
        25
  6
Continuous
 62
        27
100
AcDbCircle
 10
5.6875785854
 20
7.1646654199
 30
0.0
 40
0.3563678145
100
AcDbArc
 50
51.3070390493
 51
-119.9270456786
  0
ARC
  5
124
102
{ACAD_REACTORS
330
127
102
}
100
AcDbEntity
  8
X_ROLLOVER
370
        25
  6
Continuous
 62
        27
100
AcDbCircle
 10
5.6875785854
 20
7.1646654199
 30
0.0
 40
0.4708255675
100
AcDbArc
 50
51.3070390493
 51
-119.9270456786
  0
LINE
  5
125
102
{ACAD_REACTORS
330
127
102
}
100
AcDbEntity
  8
X_ROLLOVER
370
        25
  6
Continuous
 62
        27
100
AcDbLine
 10
7.6208147485
 20
5.5085270891
 30
0.0
 11
5.4526851736
 21
6.7566190988
 31
0.0
  0
LINE
  5
126
102
{ACAD_REACTORS
330
127
102
}
100
AcDbEntity
  8
X_ROLLOVER
370
        25
  6
Continuous
 62
        27
100
AcDbLine
 10
7.9345111638
 20
5.9682164151
 30
0.0
 11
5.9819136692
 21
7.5321481726
 31
0.0
  0
LINE
  5
128
100
AcDbEntity
  8
Z0_CUT250
370
         5
  6
Continuous
 62
        47
100
AcDbLine
 10
3.9681770684
 20
9.9316541734
 30
0.0
 11
3.0103469282
 21
12.1418428154
 31
0.0
  0
LINE
  5
129
100
AcDbEntity
  8
Z0_CUT250
370
         5
  6
Continuous
 62
        47
100
AcDbLine
 10
4.1662945987
 20
13.7691148739
 30
0.0
 11
5.8082044952
 21
9.8038923176
 31
0.0
  0
LINE
  5
12A
100
AcDbEntity
  8
0
370
         5
  6
Continuous
 62
        47
100
AcDbLine
 10
3.9953954262
 20
13.6982736935
 30
0.0
 11
5.6250250558
 21
9.7669112596
 31
0.0
  0
LINE
  5
12B
100
AcDbEntity
  8
0
370
         5
  6
Continuous
 62
        47
100
AcDbLine
 10
4.1662945987
 20
13.7691148739
 30
0.0
 11
5.8082044952
 21
9.8038923176
 31
0.0
  0
ARC
  5
12C
100
AcDbEntity
  8
Z0_CUT500
370
         5
  6
Continuous
 62
        47
100
AcDbCircle
 10
5.4489860101
 20
9.6618164658
 30
0.0
 40
0.4862945349
100
AcDbArc
 50
-112.0656204953
 51
21.5794785407
  0
ARC
  5
12D
100
AcDbEntity
  8
Z0_CUT250
370
         5
  6
Continuous
 62
        47
100
AcDbCircle
 10
5.4489860101
 20
9.6618164658
 30
0.0
 40
0.3862945349
100
AcDbArc
 50
-112.0656204953
 51
21.5794785407
  0
CIRCLE
  5
12E
100
AcDbEntity
  8
6_125BIT_500DEP
370
        25
  6
Continuous
 62
         5
100
AcDbCircle
 10
1.9569791438
 20
10.6226495178
 30
0.0
 40
0.1225
  0
LINE
  5
12F
100
AcDbEntity
  8
6_125BIT_500DEP
370
        25
  6
Continuous
 62
         5
100
AcDbLine
 10
2.1880672558
 20
10.4673931669
 30
0.0
 11
1.9380672558
 21
10.9004058688
 31
0.0
  0
LINE
  5
130
100
AcDbEntity
  8
X_ROLLOVER
370
         5
  6
Continuous
 62
         6
100
AcDbLine
 10
2.0819791438
 20
10.4061431669
 30
0.0
 11
1.8319791438
 21
10.8391558688
 31
0.0
  0
ARC
  5
131
102
{ACAD_REACTORS
330
13C
102
}
100
AcDbEntity
  8
UNASSIGNED
370
        25
  6
Continuous
 62
         4
100
AcDbCircle
 10
4.2454181438
 20
10.0646716012
 30
0.0
 40
0.285
100
AcDbArc
 50
5.4320713506
 51
80.0
  0
ARC
  5
132
102
{ACAD_REACTORS
330
13C
102
}
100
AcDbEntity
  8
UNASSIGNED
370
        25
  6
Continuous
 62
         4
100
AcDbCircle
 10
4.2454181438
 20
10.0646716012
 30
0.0
 40
0.285
100
AcDbArc
 50
-114.5679286494
 51
-40.0
  0
ARC
  5
133
102
{ACAD_REACTORS
330
13C
102
}
100
AcDbEntity
  8
UNASSIGNED
370
        25
  6
Continuous
 62
         4
100
AcDbCircle
 10
4.2454181438
 20
10.0646716012
 30
0.0
 40
0.285
100
AcDbArc
 50
125.4320713506
 51
-160.0
  0
LINE
  5
134
102
{ACAD_REACTORS
330
13C
102
}
100
AcDbEntity
  8
UNASSIGNED
370
        25
  6
Continuous
 62
         4
100
AcDbLine
 10
4.4637408101
 20
9.8814771325
 30
0.0
 11
4.3986270325
 21
9.9361140793
 31
0.0
  0
LINE
  5
135
102
{ACAD_REACTORS
330
13C
102
}
100
AcDbEntity
  8
UNASSIGNED
370
        25
  6
Continuous
 62
         4
100
AcDbLine
 10
4.3986270325
 20
9.9361140793
 30
0.0
 11
4.5291382463
 21
10.0916512873
 31
0.0
  0
LINE
  5
136
102
{ACAD_REACTORS
330
13C
102
}
100
AcDbEntity
  8
UNASSIGNED
370
        25
  6
Continuous
 62
         4
100
AcDbLine
 10
3.9776057469
 20
9.9671958604
 30
0.0
 11
4.0574796197
 21
9.9962675726
 31
0.0
  0
LINE
  5
137
102
{ACAD_REACTORS
330
13C
102
}
100
AcDbEntity
  8
UNASSIGNED
370
        25
  6
Continuous
 62
         4
100
AcDbLine
 10
4.0574796197
 20
9.9962675726
 30
0.0
 11
4.1269231861
 21
9.8054729419
 31
0.0
  0
LINE
  5
138
102
{ACAD_REACTORS
330
13C
102
}
100
AcDbEntity
  8
UNASSIGNED
370
        25
  6
Continuous
 62
         4
100
AcDbLine
 10
4.2801477794
 20
10.2616331518
 30
0.0
 11
4.0801929991
 21
10.2968905745
 31
0.0
  0
LINE
  5
139
102
{ACAD_REACTORS
330
13C
102
}
100
AcDbEntity
  8
UNASSIGNED
370
        25
  6
Continuous
 62
         4
100
AcDbLine
 10
4.2949078745
 20
10.3453418109
 30
0.0
 11
4.2801477794
 21
10.2616331518
 31
0.0
  0
CIRCLE
  5
13A
102
{ACAD_REACTORS
330
13C
102
}
100
AcDbEntity
  8
UNASSIGNED
370
        25
  6
Continuous
 62
         4
100
AcDbCircle
 10
4.2454181438
 20
10.0646716012
 30
0.0
 40
0.059
  0
CIRCLE
  5
13B
102
{ACAD_REACTORS
330
13C
102
}
100
AcDbEntity
  8
UNASSIGNED
370
        25
  6
Continuous
 62
         4
100
AcDbCircle
 10
4.2454181438
 20
10.0646716012
 30
0.0
 40
0.085
  0
ARC
  5
13D
100
AcDbEntity
  8
6_125BIT_500DEP
370
        25
  6
Continuous
 62
         5
100
AcDbCircle
 10
3.4313810734
 20
9.4447068018
 30
0.0
 40
0.09
100
AcDbArc
 50
-156.5695234702
 51
23.4304765298
  0
LINE
  5
13E
100
AcDbEntity
  8
0
370
         5
  6
Continuous
 62
        47
100
AcDbLine
 10
5.30386742
 20
9.3038163786
 30
0.0
 11
4.1299001584
 21
9.7796946811
 31
0.0
  0
CIRCLE
  5
13F
100
AcDbEntity
  8
6_125BIT_500DEP
370
        25
  6
Continuous
 62
         5
100
AcDbCircle
 10
0.4353545513
 20
13.6159447542
 30
0.0
 40
0.1225
  0
CIRCLE
  5
140
102
{ACAD_REACTORS
330
142
102
}
100
AcDbEntity
  8
0
370
        25
  6
Continuous
 62
        30
100
AcDbCircle
 10
0.4353545513
 20
13.6159447542
 30
0.0
 40
0.215
  0
CIRCLE
  5
141
102
{ACAD_REACTORS
330
142
102
}
100
AcDbEntity
  8
0
370
        25
  6
Continuous
 62
        30
100
AcDbCircle
 10
0.4353545513
 20
13.6159447542
 30
0.0
 40
0.07
  0
ARC
  5
143
102
{ACAD_REACTORS
330
14E
102
}
100
AcDbEntity
  8
UNASSIGNED
370
        25
  6
Continuous
 62
         4
100
AcDbCircle
 10
2.7169153588
 20
8.7018044592
 30
0.0
 40
0.285
100
AcDbArc
 50
15.4320713506
 51
90.0
  0
ARC
  5
144
102
{ACAD_REACTORS
330
14E
102
}
100
AcDbEntity
  8
UNASSIGNED
370
        25
  6
Continuous
 62
         4
100
AcDbCircle
 10
2.7169153588
 20
8.7018044592
 30
0.0
 40
0.285
100
AcDbArc
 50
-104.5679286495
 51
-30.0
  0
ARC
  5
145
102
{ACAD_REACTORS
330
14E
102
}
100
AcDbEntity
  8
UNASSIGNED
370
        25
  6
Continuous
 62
         4
100
AcDbCircle
 10
2.7169153588
 20
8.7018044592
 30
0.0
 40
0.285
100
AcDbArc
 50
135.4320713506
 51
-150.0
  0
LINE
  5
146
102
{ACAD_REACTORS
330
14E
102
}
100
AcDbEntity
  8
UNASSIGNED
370
        25
  6
Continuous
 62
         4
100
AcDbLine
 10
2.9637325989
 20
8.5593044592
 30
0.0
 11
2.8901204396
 21
8.6018044592
 31
0.0
  0
LINE
  5
147
102
{ACAD_REACTORS
330
14E
102
}
100
AcDbEntity
  8
UNASSIGNED
370
        25
  6
Continuous
 62
         4
100
AcDbLine
 10
2.8901204396
 20
8.6018044592
 30
0.0
 11
2.9916401421
 21
8.7776417419
 31
0.0
  0
LINE
  5
148
102
{ACAD_REACTORS
330
14E
102
}
100
AcDbEntity
  8
UNASSIGNED
370
        25
  6
Continuous
 62
         4
100
AcDbLine
 10
2.4700981187
 20
8.5593044592
 30
0.0
 11
2.543710278
 21
8.6018044592
 31
0.0
  0
LINE
  5
149
102
{ACAD_REACTORS
330
14E
102
}
100
AcDbEntity
  8
UNASSIGNED
370
        25
  6
Continuous
 62
         4
100
AcDbLine
 10
2.543710278
 20
8.6018044592
 30
0.0
 11
2.6452299806
 21
8.4259671765
 31
0.0
  0
LINE
  5
14A
102
{ACAD_REACTORS
330
14E
102
}
100
AcDbEntity
  8
UNASSIGNED
370
        25
  6
Continuous
 62
         4
100
AcDbLine
 10
2.7169153588
 20
8.9018044592
 30
0.0
 11
2.5138759538
 21
8.9018044592
 31
0.0
  0
LINE
  5
14B
102
{ACAD_REACTORS
330
14E
102
}
100
AcDbEntity
  8
UNASSIGNED
370
        25
  6
Continuous
 62
         4
100
AcDbLine
 10
2.7169153588
 20
8.9868044592
 30
0.0
 11
2.7169153588
 21
8.9018044592
 31
0.0
  0
CIRCLE
  5
14C
102
{ACAD_REACTORS
330
14E
102
}
100
AcDbEntity
  8
UNASSIGNED
370
        25
  6
Continuous
 62
         4
100
AcDbCircle
 10
2.7169153588
 20
8.7018044592
 30
0.0
 40
0.059
  0
CIRCLE
  5
14D
102
{ACAD_REACTORS
330
14E
102
}
100
AcDbEntity
  8
UNASSIGNED
370
        25
  6
Continuous
 62
         4
100
AcDbCircle
 10
2.7169153588
 20
8.7018044592
 30
0.0
 40
0.085
  0
ARC
  5
14F
100
AcDbEntity
  8
6_125BIT_500DEP
370
        25
  6
Continuous
 62
         5
100
AcDbCircle
 10
1.1246041913
 20
8.7956341314
 30
0.0
 40
0.09
100
AcDbArc
 50
180.0
 51
0.0
  0
ARC
  5
150
102
{ACAD_REACTORS
330
15B
102
}
100
AcDbEntity
  8
UNASSIGNED
370
        25
  6
Continuous
 62
         4
100
AcDbCircle
 10
4.0574834636
 20
8.0335017601
 30
0.0
 40
0.285
100
AcDbArc
 50
15.4320713506
 51
90.0
  0
ARC
  5
151
102
{ACAD_REACTORS
330
15B
102
}
100
AcDbEntity
  8
UNASSIGNED
370
        25
  6
Continuous
 62
         4
100
AcDbCircle
 10
4.0574834636
 20
8.0335017601
 30
0.0
 40
0.285
100
AcDbArc
 50
-104.5679286495
 51
-30.0
  0
ARC
  5
152
102
{ACAD_REACTORS
330
15B
102
}
100
AcDbEntity
  8
UNASSIGNED
370
        25
  6
Continuous
 62
         4
100
AcDbCircle
 10
4.0574834636
 20
8.0335017601
 30
0.0
 40
0.285
100
AcDbArc
 50
135.4320713506
 51
-150.0
  0
LINE
  5
153
102
{ACAD_REACTORS
330
15B
102
}
100
AcDbEntity
  8
UNASSIGNED
370
        25
  6
Continuous
 62
         4
100
AcDbLine
 10
4.3043007037
 20
7.8910017601
 30
0.0
 11
4.2306885444
 21
7.9335017601
 31
0.0
  0
LINE
  5
154
102
{ACAD_REACTORS
330
15B
102
}
100
AcDbEntity
  8
UNASSIGNED
370
        25
  6
Continuous
 62
         4
100
AcDbLine
 10
4.2306885444
 20
7.9335017601
 30
0.0
 11
4.3322082469
 21
8.1093390428
 31
0.0
  0
LINE
  5
155
102
{ACAD_REACTORS
330
15B
102
}
100
AcDbEntity
  8
UNASSIGNED
370
        25
  6
Continuous
 62
         4
100
AcDbLine
 10
3.8106662235
 20
7.8910017601
 30
0.0
 11
3.8842783829
 21
7.9335017601
 31
0.0
  0
LINE
  5
156
102
{ACAD_REACTORS
330
15B
102
}
100
AcDbEntity
  8
UNASSIGNED
370
        25
  6
Continuous
 62
         4
100
AcDbLine
 10
3.8842783829
 20
7.9335017601
 30
0.0
 11
3.9857980854
 21
7.7576644774
 31
0.0
  0
LINE
  5
157
102
{ACAD_REACTORS
330
15B
102
}
100
AcDbEntity
  8
UNASSIGNED
370
        25
  6
Continuous
 62
         4
100
AcDbLine
 10
4.0574834636
 20
8.2335017601
 30
0.0
 11
3.8544440586
 21
8.2335017601
 31
0.0
  0
LINE
  5
158
102
{ACAD_REACTORS
330
15B
102
}
100
AcDbEntity
  8
UNASSIGNED
370
        25
  6
Continuous
 62
         4
100
AcDbLine
 10
4.0574834636
 20
8.3185017601
 30
0.0
 11
4.0574834636
 21
8.2335017601
 31
0.0
  0
CIRCLE
  5
159
102
{ACAD_REACTORS
330
15B
102
}
100
AcDbEntity
  8
UNASSIGNED
370
        25
  6
Continuous
 62
         4
100
AcDbCircle
 10
4.0574834636
 20
8.0335017601
 30
0.0
 40
0.059
  0
CIRCLE
  5
15A
102
{ACAD_REACTORS
330
15B
102
}
100
AcDbEntity
  8
UNASSIGNED
370
        25
  6
Continuous
 62
         4
100
AcDbCircle
 10
4.0574834636
 20
8.0335017601
 30
0.0
 40
0.085
  0
CIRCLE
  5
15C
100
AcDbEntity
  8
Z0_CUT500
370
         5
  6
Continuous
 62
        47
100
AcDbCircle
 10
3.5231431438
 20
8.2956252938
 30
0.0
 40
0.25
  0
LINE
  5
15D
100
AcDbEntity
  8
Z0_CUT500
370
         5
  6
Continuous
 62
        47
100
AcDbLine
 10
1.8319791438
 20
10.1226495178
 30
0.0
 11
1.8319791438
 21
9.1727169572
 31
0.0
  0
ARC
  5
15E
100
AcDbEntity
  8
Z0_CUT500
370
         5
  6
Continuous
 62
        47
100
AcDbCircle
 10
4.9669372281
 20
7.1874038039
 30
0.0
 40
0.125
100
AcDbArc
 50
-120.4696099786
 51
-1.8072531164
  0
LINE
  5
15F
100
AcDbEntity
  8
Z0_CUT500
370
         5
  6
Continuous
 62
        47
100
AcDbLine
 10
4.9035520683
 20
7.0796665239
 30
0.0
 11
2.0784385047
 21
8.7417678369
 31
0.0
  0
ARC
  5
160
100
AcDbEntity
  8
Z0_CUT500
370
         5
  6
Continuous
 62
        47
100
AcDbCircle
 10
1.9569791438
 20
10.1226495178
 30
0.0
 40
0.125
100
AcDbArc
 50
23.4304765298
 51
180.0
  0
LINE
  5
161
100
AcDbEntity
  8
Z0_CUT500
370
         5
  6
Continuous
 62
        47
100
AcDbLine
 10
5.4709915857
 20
7.9472864013
 30
0.0
 11
2.6046153746
 21
9.2640468635
 31
0.0
  0
ARC
  5
162
100
AcDbEntity
  8
Z0_CUT500
370
         5
  6
Continuous
 62
        47
100
AcDbCircle
 10
5.6875785854
 20
7.1646654199
 30
0.0
 40
0.596
100
AcDbArc
 50
111.8865562051
 51
178.1927468836
  0
CIRCLE
  5
163
100
AcDbEntity
  8
3_250BIT_500TAB
370
        25
  6
Continuous
 62
         5
100
AcDbCircle
 10
4.4375785854
 20
10.921875
 30
0.0
 40
0.25
  0
LINE
  5
164
100
AcDbEntity
  8
X_ROLLOVER
370
         5
  6
Continuous
 62
         6
100
AcDbLine
 10
2.0819791438
 20
10.4061431669
 30
0.0
 11
1.8319791438
 21
10.4061431669
 31
0.0
  0
CIRCLE
  5
165
100
AcDbEntity
  8
X_DROPS
370
         5
  6
Continuous
 62
         5
100
AcDbCircle
 10
1.3804566488
 20
13.9145326096
 30
0.0
 40
0.4281496063
  0
CIRCLE
  5
166
100
AcDbEntity
  8
3_250BIT_500TAB
370
        25
  6
Continuous
 62
         5
100
AcDbCircle
 10
4.2991253795
 20
12.6698396836
 30
0.0
 40
0.25
  0
LINE
  5
167
100
AcDbEntity
  8
Z0_CUT500
370
         5
  6
Continuous
 62
        47
100
AcDbLine
 10
2.9017978049
 20
12.32307266
 30
0.0
 11
3.3331941147
 21
13.8016765856
 31
0.0
  0
ARC
  5
168
100
AcDbEntity
  8
Z0_CUT500
370
         5
  6
Continuous
 62
        47
100
AcDbCircle
 10
3.2041902817
 20
12.2348468706
 30
0.0
 40
0.315
100
AcDbArc
 50
163.7349088951
 51
-154.751398062
  0
CIRCLE
  5
169
100
AcDbEntity
  8
6_125BIT_500DEP
370
        25
  6
Continuous
 62
         5
100
AcDbCircle
 10
1.0279471438
 20
12.2348468706
 30
0.0
 40
0.1225
  0
CIRCLE
  5
16A
102
{ACAD_REACTORS
330
16C
102
}
100
AcDbEntity
  8
0
370
        25
  6
Continuous
 62
        30
100
AcDbCircle
 10
1.0279471438
 20
12.2348468706
 30
0.0
 40
0.215
  0
CIRCLE
  5
16B
102
{ACAD_REACTORS
330
16C
102
}
100
AcDbEntity
  8
0
370
        25
  6
Continuous
 62
        30
100
AcDbCircle
 10
1.0279471438
 20
12.2348468706
 30
0.0
 40
0.07
  0
LINE
  5
16D
100
AcDbEntity
  8
6_125BIT_500DEP
370
        25
  6
Continuous
 62
         5
100
AcDbLine
 10
2.8379787611
 20
11.0403175613
 30
0.0
 11
3.5139599656
 21
9.480494042
 31
0.0
  0
ARC
  5
16E
102
{ACAD_REACTORS
330
179
102
}
100
AcDbEntity
  8
UNASSIGNED
370
        25
  6
Continuous
 62
         4
100
AcDbCircle
 10
3.7967828743
 20
13.6159447542
 30
0.0
 40
0.285
100
AcDbArc
 50
15.4320713506
 51
90.0
  0
ARC
  5
16F
102
{ACAD_REACTORS
330
179
102
}
100
AcDbEntity
  8
UNASSIGNED
370
        25
  6
Continuous
 62
         4
100
AcDbCircle
 10
3.7967828743
 20
13.6159447542
 30
0.0
 40
0.285
100
AcDbArc
 50
-104.5679286495
 51
-30.0
  0
ARC
  5
170
102
{ACAD_REACTORS
330
179
102
}
100
AcDbEntity
  8
UNASSIGNED
370
        25
  6
Continuous
 62
         4
100
AcDbCircle
 10
3.7967828743
 20
13.6159447542
 30
0.0
 40
0.285
100
AcDbArc
 50
135.4320713506
 51
-150.0
  0
LINE
  5
171
102
{ACAD_REACTORS
330
179
102
}
100
AcDbEntity
  8
UNASSIGNED
370
        25
  6
Continuous
 62
         4
100
AcDbLine
 10
4.0436001144
 20
13.4734447542
 30
0.0
 11
3.9699879551
 21
13.5159447542
 31
0.0
  0
LINE
  5
172
102
{ACAD_REACTORS
330
179
102
}
100
AcDbEntity
  8
UNASSIGNED
370
        25
  6
Continuous
 62
         4
100
AcDbLine
 10
3.9699879551
 20
13.5159447542
 30
0.0
 11
4.0715076576
 21
13.6917820369
 31
0.0
  0
LINE
  5
173
102
{ACAD_REACTORS
330
179
102
}
100
AcDbEntity
  8
UNASSIGNED
370
        25
  6
Continuous
 62
         4
100
AcDbLine
 10
3.5499656343
 20
13.4734447542
 30
0.0
 11
3.6235777936
 21
13.5159447542
 31
0.0
  0
LINE
  5
174
102
{ACAD_REACTORS
330
179
102
}
100
AcDbEntity
  8
UNASSIGNED
370
        25
  6
Continuous
 62
         4
100
AcDbLine
 10
3.6235777936
 20
13.5159447542
 30
0.0
 11
3.7250974961
 21
13.3401074714
 31
0.0
  0
LINE
  5
175
102
{ACAD_REACTORS
330
179
102
}
100
AcDbEntity
  8
UNASSIGNED
370
        25
  6
Continuous
 62
         4
100
AcDbLine
 10
3.7967828743
 20
13.8159447542
 30
0.0
 11
3.5937434693
 21
13.8159447542
 31
0.0
  0
LINE
  5
176
102
{ACAD_REACTORS
330
179
102
}
100
AcDbEntity
  8
UNASSIGNED
370
        25
  6
Continuous
 62
         4
100
AcDbLine
 10
3.7967828743
 20
13.9009447542
 30
0.0
 11
3.7967828743
 21
13.8159447542
 31
0.0
  0
CIRCLE
  5
177
102
{ACAD_REACTORS
330
179
102
}
100
AcDbEntity
  8
UNASSIGNED
370
        25
  6
Continuous
 62
         4
100
AcDbCircle
 10
3.7967828743
 20
13.6159447542
 30
0.0
 40
0.059
  0
CIRCLE
  5
178
102
{ACAD_REACTORS
330
179
102
}
100
AcDbEntity
  8
UNASSIGNED
370
        25
  6
Continuous
 62
         4
100
AcDbCircle
 10
3.7967828743
 20
13.6159447542
 30
0.0
 40
0.085
  0
LINE
  5
17A
100
AcDbEntity
  8
6_125BIT_500DEP
370
        25
  6
Continuous
 62
         5
100
AcDbLine
 10
2.6728209768
 20
10.9687430808
 30
0.0
 11
3.3488021812
 21
9.4089195615
 31
0.0
  0
ARC
  5
17B
100
AcDbEntity
  8
Z0_CUT500
370
         5
  6
Continuous
 62
        47
100
AcDbCircle
 10
4.2250190884
 20
10.0429618796
 30
0.0
 40
0.3799236123
100
AcDbArc
 50
-156.5695234702
 51
-110.1766161565
  0
LINE
  5
17C
100
AcDbEntity
  8
Z0_CUT500
370
         5
  6
Continuous
 62
        47
100
AcDbLine
 10
5.2663005955
 20
9.2111409574
 30
0.0
 11
4.0939776796
 21
9.6863527094
 31
0.0
  0
ARC
  5
17D
100
AcDbEntity
  8
Z0_CUT250
370
         5
  6
Continuous
 62
        47
100
AcDbCircle
 10
4.2250190884
 20
10.0429618796
 30
0.0
 40
0.2799236123
100
AcDbArc
 50
-156.5695234702
 51
-109.8648824105
  0
LINE
  5
17E
100
AcDbEntity
  8
Z0_CUT250
370
         5
  6
Continuous
 62
        47
100
AcDbLine
 10
5.30386742
 20
9.3038163786
 30
0.0
 11
4.1299001584
 21
9.7796946811
 31
0.0
  0
CIRCLE
  5
17F
100
AcDbEntity
  8
X_ROLLOVER
370
        25
  6
Continuous
 62
        27
100
AcDbCircle
 10
4.2454181438
 20
10.0646716012
 30
0.0
 40
0.1875
  0
CIRCLE
  5
180
102
{ACAD_REACTORS
330
18B
102
}
100
AcDbEntity
  8
UNASSIGNED
370
        25
  6
Continuous
 62
         4
100
AcDbCircle
 10
2.0783042899
 20
14.7858619425
 30
0.0
 40
0.0835
  0
ARC
  5
181
102
{ACAD_REACTORS
330
18B
102
}
100
AcDbEntity
  8
UNASSIGNED
370
        25
  6
Continuous
 62
         4
100
AcDbCircle
 10
2.0783042899
 20
14.7858619425
 30
0.0
 40
0.375
100
AcDbArc
 50
-66.0229894053
 51
28.8646310311
  0
ARC
  5
182
102
{ACAD_REACTORS
330
18B
102
}
100
AcDbEntity
  8
UNASSIGNED
370
        25
  6
Continuous
 62
         4
100
AcDbCircle
 10
2.0783042899
 20
14.7858619425
 30
0.0
 40
0.375
100
AcDbArc
 50
173.9770105947
 51
-91.1353689689
  0
ARC
  5
183
102
{ACAD_REACTORS
330
18B
102
}
100
AcDbEntity
  8
UNASSIGNED
370
        25
  6
Continuous
 62
         4
100
AcDbCircle
 10
2.0783042899
 20
14.7858619425
 30
0.0
 40
0.375
100
AcDbArc
 50
53.9770105948
 51
148.8646310311
  0
CIRCLE
  5
184
102
{ACAD_REACTORS
330
18B
102
}
100
AcDbEntity
  8
UNASSIGNED
370
        25
  6
Continuous
 62
         4
100
AcDbCircle
 10
2.0783042899
 20
14.7858619425
 30
0.0
 40
0.12125
  0
LINE
  5
185
102
{ACAD_REACTORS
330
18B
102
}
100
AcDbEntity
  8
UNASSIGNED
370
        25
  6
Continuous
 62
         4
100
AcDbLine
 10
2.4067152997
 20
14.966890141
 30
0.0
 11
2.3230066407
 21
14.9521300459
 31
0.0
  0
LINE
  5
186
102
{ACAD_REACTORS
330
18B
102
}
100
AcDbEntity
  8
UNASSIGNED
370
        25
  6
Continuous
 62
         4
100
AcDbLine
 10
2.3230066407
 20
14.9521300459
 30
0.0
 11
2.2988454708
 21
15.0891548497
 31
0.0
  0
LINE
  5
187
102
{ACAD_REACTORS
330
18B
102
}
100
AcDbEntity
  8
UNASSIGNED
370
        25
  6
Continuous
 62
         4
100
AcDbLine
 10
1.8119607131
 20
14.9146463429
 30
0.0
 11
1.7053743371
 21
14.8252097541
 31
0.0
  0
LINE
  5
188
102
{ACAD_REACTORS
330
18B
102
}
100
AcDbEntity
  8
UNASSIGNED
370
        25
  6
Continuous
 62
         4
100
AcDbLine
 10
1.7573237663
 20
14.9797601206
 30
0.0
 11
1.8119607131
 21
14.9146463429
 31
0.0
  0
LINE
  5
189
102
{ACAD_REACTORS
330
18B
102
}
100
AcDbEntity
  8
UNASSIGNED
370
        25
  6
Continuous
 62
         4
100
AcDbLine
 10
2.0999455159
 20
14.4908094386
 30
0.0
 11
2.2306930619
 21
14.4432212237
 31
0.0
  0
LINE
  5
18A
102
{ACAD_REACTORS
330
18B
102
}
100
AcDbEntity
  8
UNASSIGNED
370
        25
  6
Continuous
 62
         4
100
AcDbLine
 10
2.0708738037
 20
14.4109355659
 30
0.0
 11
2.0999455159
 21
14.4908094386
 31
0.0
  0
CIRCLE
  5
18C
100
AcDbEntity
  8
6_125BIT_500DEP
370
        25
  6
Continuous
 62
         5
100
AcDbCircle
 10
2.0783042899
 20
14.7858619425
 30
0.0
 40
0.1225
  0
CIRCLE
  5
18D
102
{ACAD_REACTORS
330
18F
102
}
100
AcDbEntity
  8
0
370
        25
  6
Continuous
 62
        30
100
AcDbCircle
 10
2.0783042899
 20
14.7858619425
 30
0.0
 40
0.215
  0
CIRCLE
  5
18E
102
{ACAD_REACTORS
330
18F
102
}
100
AcDbEntity
  8
0
370
        25
  6
Continuous
 62
        30
100
AcDbCircle
 10
2.0783042899
 20
14.7858619425
 30
0.0
 40
0.07
  0
CIRCLE
  5
190
102
{ACAD_REACTORS
330
19B
102
}
100
AcDbEntity
  8
UNASSIGNED
370
        25
  6
Continuous
 62
         4
100
AcDbCircle
 10
3.2041902817
 20
12.2348468706
 30
0.0
 40
0.0835
  0
ARC
  5
191
102
{ACAD_REACTORS
330
19B
102
}
100
AcDbEntity
  8
UNASSIGNED
370
        25
  6
Continuous
 62
         4
100
AcDbCircle
 10
3.2041902817
 20
12.2348468706
 30
0.0
 40
0.375
100
AcDbArc
 50
-66.0229894053
 51
28.8646310311
  0
ARC
  5
192
102
{ACAD_REACTORS
330
19B
102
}
100
AcDbEntity
  8
UNASSIGNED
370
        25
  6
Continuous
 62
         4
100
AcDbCircle
 10
3.2041902817
 20
12.2348468706
 30
0.0
 40
0.375
100
AcDbArc
 50
173.9770105947
 51
-91.1353689689
  0
ARC
  5
193
102
{ACAD_REACTORS
330
19B
102
}
100
AcDbEntity
  8
UNASSIGNED
370
        25
  6
Continuous
 62
         4
100
AcDbCircle
 10
3.2041902817
 20
12.2348468706
 30
0.0
 40
0.375
100
AcDbArc
 50
53.9770105948
 51
148.8646310311
  0
CIRCLE
  5
194
102
{ACAD_REACTORS
330
19B
102
}
100
AcDbEntity
  8
UNASSIGNED
370
        25
  6
Continuous
 62
         4
100
AcDbCircle
 10
3.2041902817
 20
12.2348468706
 30
0.0
 40
0.12125
  0
LINE
  5
195
102
{ACAD_REACTORS
330
19B
102
}
100
AcDbEntity
  8
UNASSIGNED
370
        25
  6
Continuous
 62
         4
100
AcDbLine
 10
3.5326012915
 20
12.4158750691
 30
0.0
 11
3.4488926325
 21
12.401114974
 31
0.0
  0
LINE
  5
196
102
{ACAD_REACTORS
330
19B
102
}
100
AcDbEntity
  8
UNASSIGNED
370
        25
  6
Continuous
 62
         4
100
AcDbLine
 10
3.4488926325
 20
12.401114974
 30
0.0
 11
3.4247314626
 21
12.5381397778
 31
0.0
  0
LINE
  5
197
102
{ACAD_REACTORS
330
19B
102
}
100
AcDbEntity
  8
UNASSIGNED
370
        25
  6
Continuous
 62
         4
100
AcDbLine
 10
2.937846705
 20
12.363631271
 30
0.0
 11
2.8312603289
 21
12.2741946822
 31
0.0
  0
LINE
  5
198
102
{ACAD_REACTORS
330
19B
102
}
100
AcDbEntity
  8
UNASSIGNED
370
        25
  6
Continuous
 62
         4
100
AcDbLine
 10
2.8832097582
 20
12.4287450487
 30
0.0
 11
2.937846705
 21
12.363631271
 31
0.0
  0
LINE
  5
199
102
{ACAD_REACTORS
330
19B
102
}
100
AcDbEntity
  8
UNASSIGNED
370
        25
  6
Continuous
 62
         4
100
AcDbLine
 10
3.2258315077
 20
11.9397943667
 30
0.0
 11
3.3565790537
 21
11.8922061518
 31
0.0
  0
LINE
  5
19A
102
{ACAD_REACTORS
330
19B
102
}
100
AcDbEntity
  8
UNASSIGNED
370
        25
  6
Continuous
 62
         4
100
AcDbLine
 10
3.1967597955
 20
11.859920494
 30
0.0
 11
3.2258315077
 21
11.9397943667
 31
0.0
  0
ARC
  5
19C
100
AcDbEntity
  8
Z0_CUT500
370
         5
  6
Continuous
 62
        47
100
AcDbCircle
 10
3.4291917264
 20
13.7736683985
 30
0.0
 40
0.1
100
AcDbArc
 50
156.7987573702
 51
163.7349088951
  0
ARC
  5
19D
100
AcDbEntity
  8
Z0_CUT250
370
         5
  6
Continuous
 62
        47
100
AcDbCircle
 10
3.2041902817
 20
12.2348468706
 30
0.0
 40
0.215
100
AcDbArc
 50
163.7349088951
 51
-154.3687853853
  0
CIRCLE
  5
19E
100
AcDbEntity
  8
Z0_CUT250
370
         5
  6
Continuous
 62
        47
100
AcDbCircle
 10
3.7967828743
 20
13.6159447542
 30
0.0
 40
0.075
  0
CIRCLE
  5
19F
100
AcDbEntity
  8
3_250BIT_500TAB
370
        25
  6
Continuous
 62
         5
100
AcDbCircle
 10
3.5231431438
 20
8.2956252938
 30
0.0
 40
0.25
  0
CIRCLE
  5
1A0
100
AcDbEntity
  8
6_125BIT_500DEP
370
        25
  6
Continuous
 62
         5
100
AcDbCircle
 10
4.0574834636
 20
8.0335017601
 30
0.0
 40
0.0825
  0
CIRCLE
  5
1A1
100
AcDbEntity
  8
6_125BIT_500DEP
370
        25
  6
Continuous
 62
         5
100
AcDbCircle
 10
2.7169153588
 20
8.7018044592
 30
0.0
 40
0.0825
  0
ARC
  5
1A2
100
AcDbEntity
  8
Z0_CUT500
370
         5
  6
Continuous
 62
        47
100
AcDbCircle
 10
3.7967838875
 20
13.6161087601
 30
0.0
 40
0.4999362906
100
AcDbArc
 50
22.4933511416
 51
156.7987573702
  0
ARC
  5
1A3
100
AcDbEntity
  8
Z0_CUT250
370
         5
  6
Continuous
 62
        47
100
AcDbCircle
 10
3.7967838875
 20
13.6161087601
 30
0.0
 40
0.3999362906
100
AcDbArc
 50
22.4933511416
 51
156.7987573702
  0
LINE
  5
1A4
100
AcDbEntity
  8
0
370
         5
  6
Continuous
 62
        47
100
AcDbLine
 10
3.4291917264
 20
13.7736683985
 30
0.0
 11
2.9977954166
 21
12.2950644729
 31
0.0
  0
LINE
  5
1A5
100
AcDbEntity
  8
0
370
         5
  6
Continuous
 62
        47
100
AcDbLine
 10
3.9681770684
 20
9.9316541734
 30
0.0
 11
3.0103469282
 21
12.1418428154
 31
0.0
  0
LINE
  5
1A6
100
AcDbEntity
  8
0
370
         5
  6
Continuous
 62
        47
100
AcDbLine
 10
4.1327185197
 20
10.0105994761
 30
0.0
 11
3.1410784922
 21
12.2045664805
 31
0.0
  0
LINE
  5
1A7
100
AcDbEntity
  8
Z0_CUT500
370
         5
  6
Continuous
 62
        47
100
AcDbLine
 10
3.8764227438
 20
9.8918905732
 30
0.0
 11
2.9192836323
 21
12.1004846694
 31
0.0
  0
LINE
  5
1A8
100
AcDbEntity
  8
6_125BIT_500DEP
370
        25
  6
Continuous
 62
         5
100
AcDbLine
 10
1.9758910319
 20
10.3448931669
 30
0.0
 11
1.7258910319
 21
10.7779058688
 31
0.0
  0
LINE
  5
1A9
100
AcDbEntity
  8
6_125BIT_500DEP
370
        25
  6
Continuous
 62
         5
100
AcDbLine
 10
2.0819791438
 20
10.4061431669
 30
0.0
 11
1.9758910319
 21
10.3448931669
 31
0.0
  0
LINE
  5
1AA
100
AcDbEntity
  8
6_125BIT_500DEP
370
        25
  6
Continuous
 62
         5
100
AcDbLine
 10
2.0819791438
 20
10.4061431669
 30
0.0
 11
2.1880672558
 21
10.4673931669
 31
0.0
  0
ENDSEC
  0
SECTION
  2
OBJECTS
  0
DICTIONARY
  5
19
100
AcDbDictionary
280
         0
281
         1
  3
ACAD_GROUP
350
1A
  3
ACAD_MLINESTYLE
350
1B
  3
ACAD_LAYOUT
350
1E
  3
ACAD_PLOTSETTINGS
350
22
  3
ACAD_PLOTSTYLENAME
350
1F
  3
ACAD_WIPEOUT_VARS
350
23
  0
DICTIONARY
  5
1A
102
{ACAD_REACTORS
330
19
102
}
100
AcDbDictionary
280
         0
281
         1
  3
VELLUMGRP1
350
8B
  3
VELLUMGRP2
350
B0
  3
VELLUMGRP3
350
BB
  3
VELLUMGRP4
350
C7
  3
VELLUMGRP5
350
E0
  3
VELLUMGRP6
350
EC
  3
VELLUMGRP7
350
F8
  3
VELLUMGRP8
350
106
  3
VELLUMGRP9
350
10D
  3
VELLUMGRP10
350
110
  3
VELLUMGRP11
350
127
  3
VELLUMGRP12
350
13C
  3
VELLUMGRP13
350
142
  3
VELLUMGRP14
350
14E
  3
VELLUMGRP15
350
15B
  3
VELLUMGRP16
350
16C
  3
VELLUMGRP17
350
179
  3
VELLUMGRP18
350
18B
  3
VELLUMGRP19
350
18F
  3
VELLUMGRP20
350
19B
  0
DICTIONARY
  5
1B
102
{ACAD_REACTORS
330
19
102
}
100
AcDbDictionary
280
         0
281
         1
  3
Standard
350
1C
  0
MLINESTYLE
  5
1C
102
{ACAD_REACTORS
330
1B
102
}
100
AcDbMlineStyle
  2
Standard
 70
         0
  3

 62
         0
 51
90.0
 52
90.0
 71
         2
 49
0.5
 62
       256
  6
BYLAYER
 49
-0.5
 62
       256
  6
BYLAYER
  0
ACDBDICTIONARYWDFLT
  5
1F
102
{ACAD_REACTORS
330
19
102
}
100
AcDbDictionary
281
         1
  3
Normal
350
1D
100
AcDbDictionaryWithDefault
340
1D
  0
ACDBPLACEHOLDER
  5
1D
102
{ACAD_REACTORS
330
1F
102
}
  0
LAYOUT
  5
20
102
{ACAD_REACTORS
330
1E
102
}
100
AcDbPlotSettings
  1

  2

  4

  6

 40
0.0
 41
0.0
 42
0.0
 43
0.0
 44
0.0
 45
0.0
 46
0.0
 47
0.0
 48
0.0
 49
0.0
140
0.0
141
0.0
142
1.0
143
1.0
 70
      1024
 72
         0
 73
         0
 74
         0
  7

 75
         0
147
1.0
148
0.0
149
0.0
100
AcDbLayout
  1
Model
 70
         0
 71
         0
 10
0.0
 20
0.0
 11
0.0
 21
0.0
 12
0.0
 22
0.0
 32
0.0
 14
0.0
 24
0.0
 34
0.0
 15
0.0
 25
0.0
 35
0.0
146
0.0
 13
0.0
 23
0.0
 33
0.0
 16
0.0
 26
0.0
 36
0.0
 17
0.0
 27
0.0
 37
0.0
 76
         0
330
A
331
0
345
0
346
0
  0
LAYOUT
  5
21
102
{ACAD_REACTORS
330
1E
102
}
100
AcDbPlotSettings
  1

  2

  4

  6

 40
0.0
 41
0.0
 42
0.0
 43
0.0
 44
0.0
 45
0.0
 46
0.0
 47
0.0
 48
0.0
 49
0.0
140
0.0
141
0.0
142
1.0
143
1.0
 70
         0
 72
         0
 73
         0
 74
         0
  7

 75
         0
147
1.0
148
0.0
149
0.0
100
AcDbLayout
  1
Layout1
 70
         0
 71
         0
 10
0.0
 20
0.0
 11
0.0
 21
0.0
 12
0.0
 22
0.0
 32
0.0
 14
0.0
 24
0.0
 34
0.0
 15
0.0
 25
0.0
 35
0.0
146
0.0
 13
0.0
 23
0.0
 33
0.0
 16
0.0
 26
0.0
 36
0.0
 17
0.0
 27
0.0
 37
0.0
 76
         0
330
B
331
0
345
0
346
0
  0
DICTIONARY
  5
1E
102
{ACAD_REACTORS
330
19
102
}
100
AcDbDictionary
280
         0
281
         1
  3
Layout1
350
21
  3
Model
350
20
  0
DICTIONARY
  5
22
102
{ACAD_REACTORS
330
19
102
}
100
AcDbDictionary
280
         0
281
         1
  0
WIPEOUTVARIABLES
  5
23
100
AcDbWipeoutVariables
 70
         1
  0
GROUP
  5
8B
102
{ACAD_XDICTIONARY
360
5CEB210060EB2100
102
}
102
{ACAD_REACTORS
330
1A
102
}
100
AcDbGroup
300
This is Vellum Group Number 1
 70
         0
 71
         1
340
5B
340
5C
340
5D
340
5E
340
5F
340
60
340
61
340
62
340
63
340
64
340
65
340
66
340
67
340
68
340
69
340
6A
340
6B
340
6C
340
6D
340
6E
340
6F
340
70
340
71
340
72
340
73
340
74
340
75
340
76
340
77
340
78
340
79
340
7A
340
7B
340
7C
340
7D
340
7E
340
7F
340
80
340
81
340
82
340
83
340
84
340
85
340
86
340
87
340
88
340
89
340
8A
  0
GROUP
  5
B0
102
{ACAD_XDICTIONARY
360
3207917C60EB2100
102
}
102
{ACAD_REACTORS
330
1A
102
}
100
AcDbGroup
300
This is Vellum Group Number 2
 70
         0
 71
         1
340
8C
340
8D
340
8E
340
8F
340
90
340
91
340
92
340
93
340
94
340
95
340
96
340
97
340
98
340
99
340
9A
340
9B
340
9C
340
9D
340
9E
340
9F
340
A0
340
A1
340
A2
340
A3
340
A4
340
A5
340
A6
340
A7
340
A8
340
A9
340
AA
340
AB
340
AC
340
AD
340
AE
340
AF
  0
GROUP
  5
BB
102
{ACAD_XDICTIONARY
360
3207917C60EB2100
102
}
102
{ACAD_REACTORS
330
1A
102
}
100
AcDbGroup
300
This is Vellum Group Number 3
 70
         0
 71
         1
340
B9
340
BA
  0
GROUP
  5
C7
102
{ACAD_XDICTIONARY
360
3207917C60EB2100
102
}
102
{ACAD_REACTORS
330
1A
102
}
100
AcDbGroup
300
This is Vellum Group Number 4
 70
         0
 71
         1
340
BC
340
BD
340
BE
340
BF
340
C0
340
C1
340
C2
340
C3
340
C4
340
C5
340
C6
  0
GROUP
  5
E0
102
{ACAD_XDICTIONARY
360
3207917C60EB2100
102
}
102
{ACAD_REACTORS
330
1A
102
}
100
AcDbGroup
300
This is Vellum Group Number 5
 70
         0
 71
         1
340
DE
340
DF
  0
GROUP
  5
EC
102
{ACAD_XDICTIONARY
360
3207917C60EB2100
102
}
102
{ACAD_REACTORS
330
1A
102
}
100
AcDbGroup
300
This is Vellum Group Number 6
 70
         0
 71
         1
340
E1
340
E2
340
E3
340
E4
340
E5
340
E6
340
E7
340
E8
340
E9
340
EA
340
EB
  0
GROUP
  5
F8
102
{ACAD_XDICTIONARY
360
3207917C60EB2100
102
}
102
{ACAD_REACTORS
330
1A
102
}
100
AcDbGroup
300
This is Vellum Group Number 7
 70
         0
 71
         1
340
ED
340
EE
340
EF
340
F0
340
F1
340
F2
340
F3
340
F4
340
F5
340
F6
340
F7
  0
GROUP
  5
106
102
{ACAD_XDICTIONARY
360
3207917C60EB2100
102
}
102
{ACAD_REACTORS
330
1A
102
}
100
AcDbGroup
300
This is Vellum Group Number 8
 70
         0
 71
         1
340
FB
340
FC
340
FD
340
FE
340
FF
340
100
340
101
340
102
340
103
340
104
340
105
  0
GROUP
  5
10D
102
{ACAD_XDICTIONARY
360
3207917C60EB2100
102
}
102
{ACAD_REACTORS
330
1A
102
}
100
AcDbGroup
300
This is Vellum Group Number 9
 70
         0
 71
         1
340
10B
340
10C
  0
GROUP
  5
110
102
{ACAD_XDICTIONARY
360
3207917C60EB2100
102
}
102
{ACAD_REACTORS
330
1A
102
}
100
AcDbGroup
300
This is Vellum Group Number 10
 70
         0
 71
         1
340
10E
340
10F
  0
GROUP
  5
127
102
{ACAD_XDICTIONARY
360
3207917C60EB2100
102
}
102
{ACAD_REACTORS
330
1A
102
}
100
AcDbGroup
300
This is Vellum Group Number 11
 70
         0
 71
         1
340
11A
340
11B
340
11C
340
11D
340
11E
340
11F
340
120
340
121
340
122
340
123
340
124
340
125
340
126
  0
GROUP
  5
13C
102
{ACAD_XDICTIONARY
360
3207917C60EB2100
102
}
102
{ACAD_REACTORS
330
1A
102
}
100
AcDbGroup
300
This is Vellum Group Number 12
 70
         0
 71
         1
340
131
340
132
340
133
340
134
340
135
340
136
340
137
340
138
340
139
340
13A
340
13B
  0
GROUP
  5
142
102
{ACAD_XDICTIONARY
360
3207917C60EB2100
102
}
102
{ACAD_REACTORS
330
1A
102
}
100
AcDbGroup
300
This is Vellum Group Number 13
 70
         0
 71
         1
340
140
340
141
  0
GROUP
  5
14E
102
{ACAD_XDICTIONARY
360
3207917C60EB2100
102
}
102
{ACAD_REACTORS
330
1A
102
}
100
AcDbGroup
300
This is Vellum Group Number 14
 70
         0
 71
         1
340
143
340
144
340
145
340
146
340
147
340
148
340
149
340
14A
340
14B
340
14C
340
14D
  0
GROUP
  5
15B
102
{ACAD_XDICTIONARY
360
3207917C60EB2100
102
}
102
{ACAD_REACTORS
330
1A
102
}
100
AcDbGroup
300
This is Vellum Group Number 15
 70
         0
 71
         1
340
150
340
151
340
152
340
153
340
154
340
155
340
156
340
157
340
158
340
159
340
15A
  0
GROUP
  5
16C
102
{ACAD_XDICTIONARY
360
3207917C60EB2100
102
}
102
{ACAD_REACTORS
330
1A
102
}
100
AcDbGroup
300
This is Vellum Group Number 16
 70
         0
 71
         1
340
16A
340
16B
  0
GROUP
  5
179
102
{ACAD_XDICTIONARY
360
3207917C60EB2100
102
}
102
{ACAD_REACTORS
330
1A
102
}
100
AcDbGroup
300
This is Vellum Group Number 17
 70
         0
 71
         1
340
16E
340
16F
340
170
340
171
340
172
340
173
340
174
340
175
340
176
340
177
340
178
  0
GROUP
  5
18B
102
{ACAD_XDICTIONARY
360
3207917C60EB2100
102
}
102
{ACAD_REACTORS
330
1A
102
}
100
AcDbGroup
300
This is Vellum Group Number 18
 70
         0
 71
         1
340
180
340
181
340
182
340
183
340
184
340
185
340
186
340
187
340
188
340
189
340
18A
  0
GROUP
  5
18F
102
{ACAD_XDICTIONARY
360
3207917C60EB2100
102
}
102
{ACAD_REACTORS
330
1A
102
}
100
AcDbGroup
300
This is Vellum Group Number 19
 70
         0
 71
         1
340
18D
340
18E
  0
GROUP
  5
19B
102
{ACAD_XDICTIONARY
360
3207917C60EB2100
102
}
102
{ACAD_REACTORS
330
1A
102
}
100
AcDbGroup
300
This is Vellum Group Number 20
 70
         0
 71
         1
340
190
340
191
340
192
340
193
340
194
340
195
340
196
340
197
340
198
340
199
340
19A
  0
ENDSEC
  0
EOF
