  0
SECTION
  2
HEADER
  9
$ACADVER
  1
AC1015
  9
$ACADMAINTVER
 70
         6
  9
$DWGCODEPAGE
  3
ANSI_1252
  9
$INSBASE
 10
0.0
 20
0.0
 30
0.0
  9
$EXTMIN
 10
-0.93969262
 20
-0.98480775
 30
0.0
  9
$EXTMAX
 10
13.0
 20
12.98480775
 30
0.0
  9
$LIMMIN
 10
0.0
 20
0.0
  9
$LIMMAX
 10
0.0
 20
0.0
  9
$ORTHOMODE
 70
         0
  9
$REGENMODE
 70
         1
  9
$FILLMODE
 70
         1
  9
$QTEXTMODE
 70
         0
  9
$MIRRTEXT
 70
         1
  9
$LTSCALE
 40
5.0
  9
$ATTMODE
 70
         1
  9
$TEXTSIZE
 40
0.2
  9
$TRACEWID
 40
0.05
  9
$TEXTSTYLE
  7
Standard
  9
$CLAYER
  8
0
  9
$CELTYPE
  6
Continuous
  9
$CECOLOR
 62
       256
  9
$CELTSCALE
 40
1.0
  9
$DISPSILH
 70
         0
  9
$DIMSCALE
 40
1.0
  9
$DIMASZ
 40
0.18
  9
$DIMEXO
 40
0.0625
  9
$DIMDLI
 40
0.38
  9
$DIMRND
 40
0.0
  9
$DIMDLE
 40
0.0
  9
$DIMEXE
 40
0.18
  9
$DIMTP
 40
0.0
  9
$DIMTM
 40
0.0
  9
$DIMTXT
 40
0.18
  9
$DIMCEN
 40
0.09
  9
$DIMTSZ
 40
0.0
  9
$DIMTOL
 70
         0
  9
$DIMLIM
 70
         0
  9
$DIMTIH
 70
         1
  9
$DIMTOH
 70
         1
  9
$DIMSE1
 70
         0
  9
$DIMSE2
 70
         0
  9
$DIMTAD
 70
         0
  9
$DIMZIN
 70
         0
  9
$DIMBLK
  1

  9
$DIMASO
 70
         1
  9
$DIMSHO
 70
         1
  9
$DIMPOST
  1

  9
$DIMAPOST
  1

  9
$DIMALT
 70
         0
  9
$DIMALTD
 70
         2
  9
$DIMALTF
 40
25.4
  9
$DIMLFAC
 40
1.0
  9
$DIMTOFL
 70
         0
  9
$DIMTVP
 40
0.0
  9
$DIMTIX
 70
         0
  9
$DIMSOXD
 70
         0
  9
$DIMSAH
 70
         0
  9
$DIMBLK1
  1

  9
$DIMBLK2
  1

  9
$DIMSTYLE
  2
Standard
  9
$DIMCLRD
 70
         0
  9
$DIMCLRE
 70
         0
  9
$DIMCLRT
 70
         0
  9
$DIMTFAC
 40
1.0
  9
$DIMGAP
 40
0.09
  9
$DIMJUST
 70
         0
  9
$DIMSD1
 70
         0
  9
$DIMSD2
 70
         0
  9
$DIMTOLJ
 70
         1
  9
$DIMTZIN
 70
         0
  9
$DIMALTZ
 70
         0
  9
$DIMALTTZ
 70
         0
  9
$DIMUPT
 70
         0
  9
$DIMDEC
 70
         4
  9
$DIMTDEC
 70
         4
  9
$DIMALTU
 70
         2
  9
$DIMALTTD
 70
         2
  9
$DIMTXSTY
  7
Standard
  9
$DIMAUNIT
 70
         0
  9
$DIMADEC
 70
         0
  9
$DIMALTRND
 40
0.0
  9
$DIMAZIN
 70
         0
  9
$DIMDSEP
 70
         0
  9
$DIMATFIT
 70
         3
  9
$DIMFRAC
 70
         0
  9
$DIMLDRBLK
  1

  9
$DIMLUNIT
 70
         2
  9
$DIMLWD
 70
         0
  9
$DIMLWE
 70
         0
  9
$DIMTMOVE
 70
         0
  9
$LUNITS
 70
         2
  9
$LUPREC
 70
         4
  9
$SKETCHINC
 40
0.1
  9
$FILLETRAD
 40
0.0
  9
$AUNITS
 70
         0
  9
$AUPREC
 70
         0
  9
$MENU
  1
acad
  9
$ELEVATION
 40
0.0
  9
$PELEVATION
 40
0.0
  9
$THICKNESS
 40
0.0
  9
$LIMCHECK
 70
         0
  9
$CHAMFERA
 40
0.0
  9
$CHAMFERB
 40
0.0
  9
$CHAMFERC
 40
0.0
  9
$CHAMFERD
 40
0.0
  9
$SKPOLY
 70
         0
  9
$TDCREATE
 40
2460905.891990741
  9
$TDUCREATE
 40
0.000000000
  9
$TDUPDATE
 40
2460905.891990741
  9
$TDUUPDATE
 40
0.000000000
  9
$TDINDWG
 40
0.0000000000
  9
$TDUSRTIMER
 40
0.0000000000
  9
$USRTIMER
 70
         1
  9
$ANGBASE
 50
0.0
  9
$ANGDIR
 70
         0
  9
$PDMODE
 70
         0
  9
$PDSIZE
 40
0.0
  9
$PLINEWID
 40
0.0
  9
$SPLFRAME
 70
         0
  9
$SPLINETYPE
 70
         6
  9
$SPLINESEGS
 70
         8
  9
$HANDSEED
  5
147
  9
$SURFTAB1
 70
         6
  9
$SURFTAB2
 70
         6
  9
$SURFTYPE
 70
         6
  9
$SURFU
 70
         6
  9
$SURFV
 70
         6
  9
$UCSBASE
  2

  9
$UCSNAME
  2

  9
$UCSORG
 10
0.0
 20
0.0
 30
0.0
  9
$UCSXDIR
 10
1.0
 20
0.0
 30
0.0
  9
$UCSYDIR
 10
0.0
 20
1.0
 30
0.0
  9
$UCSORTHOREF
  2

  9
$UCSORTHOVIEW
 70
         0
  9
$UCSORGTOP
 10
0.0
 20
0.0
 30
0.0
  9
$UCSORGBOTTOM
 10
0.0
 20
0.0
 30
0.0
  9
$UCSORGLEFT
 10
0.0
 20
0.0
 30
0.0
  9
$UCSORGRIGHT
 10
0.0
 20
0.0
 30
0.0
  9
$UCSORGFRONT
 10
0.0
 20
0.0
 30
0.0
  9
$UCSORGBACK
 10
0.0
 20
0.0
 30
0.0
  9
$PUCSBASE
  2

  9
$PUCSNAME
  2

  9
$PUCSORG
 10
0.0
 20
0.0
 30
0.0
  9
$PUCSXDIR
 10
1.0
 20
0.0
 30
0.0
  9
$PUCSYDIR
 10
0.0
 20
1.0
 30
0.0
  9
$PUCSORTHOREF
  2

  9
$PUCSORTHOVIEW
 70
         0
  9
$PUCSORGTOP
 10
0.0
 20
0.0
 30
0.0
  9
$PUCSORGBOTTOM
 10
0.0
 20
0.0
 30
0.0
  9
$PUCSORGLEFT
 10
0.0
 20
0.0
 30
0.0
  9
$PUCSORGRIGHT
 10
0.0
 20
0.0
 30
0.0
  9
$PUCSORGFRONT
 10
0.0
 20
0.0
 30
0.0
  9
$PUCSORGBACK
 10
0.0
 20
0.0
 30
0.0
  9
$USERI1
 70
         0
  9
$USERI2
 70
         0
  9
$USERI3
 70
         0
  9
$USERI4
 70
         0
  9
$USERI5
 70
         0
  9
$USERR1
 40
0.0
  9
$USERR2
 40
0.0
  9
$USERR3
 40
0.0
  9
$USERR4
 40
0.0
  9
$USERR5
 40
0.0
  9
$WORLDVIEW
 70
         1
  9
$SHADEDGE
 70
         3
  9
$SHADEDIF
 70
        70
  9
$TILEMODE
 70
         1
  9
$MAXACTVP
 70
        16
  9
$PINSBASE
 10
0.0
 20
0.0
 30
0.0
  9
$PLIMCHECK
 70
         0
  9
$PEXTMIN
 10
1.0000000000E+20
 20
1.0000000000E+20
 30
1.0000000000E+20
  9
$PEXTMAX
 10
-1.0000000000E+20
 20
-1.0000000000E+20
 30
-1.0000000000E+20
  9
$PLIMMIN
 10
0.0
 20
0.0
  9
$PLIMMAX
 10
12.0
 20
9.0
  9
$UNITMODE
 70
         0
  9
$VISRETAIN
 70
         0
  9
$PLINEGEN
 70
         1
  9
$PSLTSCALE
 70
         0
  9
$TREEDEPTH
 70
      3020
  9
$CMLSTYLE
  2
Standard
  9
$CMLJUST
 70
         0
  9
$CMLSCALE
 40
1.0
  9
$PROXYGRAPHICS
 70
         0
  9
$MEASUREMENT
 70
         0
  9
$CELWEIGHT
370
         0
  9
$ENDCAPS
280
         0
  9
$JOINSTYLE
280
         0
  9
$LWDISPLAY
290
         0
  9
$INSUNITS
 70
         0
  9
$HYPERLINKBASE
  1

  9
$XEDIT
290
         1
  9
$CEPSNTYPE
380
         0
  9
$PSTYLEMODE
290
         1
  9
$FINGERPRINTGUID
  2

  9
$VERSIONGUID
  2

  9
$EXTNAMES
290
         1
  9
$PSVPSCALE
 40
0.0
  0
ENDSEC
  0
SECTION
  2
CLASSES
  0
CLASS
  1
LWPOLYLINE
  2
AcDbPolyline
  3
AutoCAD 2000
 90
    32768
280
         0
281
         1
  0
CLASS
  1
IMAGE
  2
AcDbRasterImage
  3
ISM
 90
    32895
280
         0
281
         1
  0
CLASS
  1
OLE2FRAME
  2
AcDbOle2Frame
  3
AutoCAD 2000
 90
    32768
280
         0
281
         1
  0
CLASS
  1
HATCH
  2
AcDbHatch
  3
AutoCAD 2000
 90
    32768
280
         0
281
         1
  0
CLASS
  1
DICTIONARYVAR
  2
AcDbDictionaryVar
  3
AutoCAD 2000
 90
    32768
280
         0
281
         0
  0
CLASS
  1
RASTERVARIABLES
  2
AcDbRasterVariables
  3
ISM
 90
    32768
280
         0
281
         0
  0
CLASS
  1
IMAGEDEF
  2
AcDbRasterImageDef
  3
ISM
 90
    32768
280
         0
281
         0
  0
CLASS
  1
IMAGEDEF_REACTOR
  2
AcDbRasterImageDefReactor
  3
ISM
 90
    32769
280
         0
281
         0
  0
CLASS
  1
IDBUFFER
  2
AcDbIdBuffer
  3
AutoCAD 2000
 90
    32768
280
         0
281
         0
  0
CLASS
  1
SPATIAL_FILTER
  2
AcDbSpatialFilter
  3
AutoCAD 2000
 90
    32768
280
         0
281
         0
  0
CLASS
  1
XRECORD
  2
AcDbXrecord
  3
AutoCAD 2000
 90
    32768
280
         0
281
         0
  0
CLASS
  1
SORTENTSTABLE
  2
AcDbSortentsTable
  3
AutoCAD 2000
 90
    32768
280
         0
281
         0
  0
CLASS
  1
LAYER_INDEX
  2
AcDbLayerIndex
  3
AutoCAD 2000
 90
    32768
280
         0
281
         0
  0
CLASS
  1
SPATIAL_INDEX
  2
AcDbSpatialIndex
  3
AutoCAD 2000
 90
    32768
280
         0
281
         0
  0
CLASS
  1
OBJECT_PTR
  2
CAseDLPNTableRecord
  3
"ASE-LPNTableRecord"
 90
    32769
280
         0
281
         0
  0
CLASS
  1
LAYOUT
  2
AcDbLayout
  3
AutoCAD 2000
 90
        0
280
         0
281
         0
  0
CLASS
  1
PLOTSETTINGS
  2
AcDbPlotSettings
  3
AutoCAD 2000
 90
    32768
280
         0
281
         0
  0
CLASS
  1
ACDBDICTIONARYWDFLT
  2
AcDbDictionaryWithDefault
  3
AutoCAD 2000
 90
        0
280
         0
281
         0
  0
CLASS
  1
ACDBPLACEHOLDER
  2
AcDbPlaceHolder
  3
AutoCAD 2000
 90
        0
280
         0
281
         0
  0
CLASS
  1
VBA_PROJECT
  2
AcDbVbaProject
  3
acadvba
 90
    32768
280
         0
281
         0
  0
CLASS
  1
WIPEOUT
  2
AcDbWipeout
  3
WipeOut|AutoCAD Express Tool|expresstools@autodesk.com
 90
    32895
280
         0
281
         1
  0
CLASS
  1
WIPEOUTVARIABLES
  2
AcDbWipeoutVariables
  3
WipeOut|AutoCAD Express Tool|expresstools@autodesk.com
 90
        0
280
         0
281
         0
  0
CLASS
  1
RTEXT
  2
RText
  3
RText|AutoCAD Express Tool|expresstools@autodesk.com
 90
    32768
280
         0
281
         1
  0
CLASS
  1
ARCALIGNEDTEXT
  2
AcDbArcAlignedText
  3
ATEXT|AutoCAD Express Tool|expresstools@autodesk.com
 90
    32768
280
         0
281
         1
  0
ENDSEC
  0
SECTION
  2
TABLES
  0
TABLE
  2
VPORT
  5
7
100
AcDbSymbolTable
 70
         1
  0
VPORT
  5
15
100
AcDbSymbolTableRecord
100
AcDbViewportTableRecord
  2
*ACTIVE
 70
         0
 10
0.0
 20
0.0
 11
1.0
 21
1.0
 12
6.591288
 22
4.579184
 13
0.0
 23
0.0
 14
1.0
 24
1.0
 15
0.0
 25
0.0
 16
0.0
 26
0.0
 36
1.0
 17
0.0
 27
0.0
 37
0.0
 40
9.158369
 41
0.688564
 42
50.0
 43
0.0
 44
0.0
 50
0.0
 51
0.0
 71
         0
 72
       100
 73
         1
 74
         1
 75
         0
 76
         0
 77
         0
 78
         0
281
         0
 65
         0
110
0.0
120
0.0
130
0.0
111
1.0
121
0.0
131
0.0
112
0.0
122
1.0
132
0.0
345
0
346
0
 79
         0
146
0.0
  0
ENDTAB
  0
TABLE
  2
LTYPE
  5
4
100
AcDbSymbolTable
 70
        13
  0
LTYPE
  5
11
100
AcDbSymbolTableRecord
100
AcDbLinetypeTableRecord
  2
ByBlock
 70
        64
  3

 72
        65
 73
         0
 40
0.0
  0
LTYPE
  5
12
100
AcDbSymbolTableRecord
100
AcDbLinetypeTableRecord
  2
ByLayer
 70
        64
  3

 72
        65
 73
         0
 40
0.0
  0
LTYPE
  5
13
100
AcDbSymbolTableRecord
100
AcDbLinetypeTableRecord
  2
Continuous
 70
        64
  3
Solid line
 72
        65
 73
         0
 40
0.0
  0
LTYPE
  5
25
100
AcDbSymbolTableRecord
100
AcDbLinetypeTableRecord
  2
Dotted
 70
        64
  3
Dotted
 72
        65
 73
         2
 40
0.125
 49
0.0
 74
         0
 49
-0.125
 74
         0
  0
LTYPE
  5
26
100
AcDbSymbolTableRecord
100
AcDbLinetypeTableRecord
  2
Center
 70
        64
  3
Center
 72
        65
 73
         4
 40
0.7699999809
 49
0.5
 74
         0
 49
-0.0724999979
 74
         0
 49
0.125
 74
         0
 49
-0.0724999979
 74
         0
  0
LTYPE
  5
27
100
AcDbSymbolTableRecord
100
AcDbLinetypeTableRecord
  2
Dashed
 70
        64
  3
Dashed
 72
        65
 73
         2
 40
0.375
 49
0.25
 74
         0
 49
-0.125
 74
         0
  0
LTYPE
  5
28
100
AcDbSymbolTableRecord
100
AcDbLinetypeTableRecord
  2
Hidden
 70
        64
  3
Hidden
 72
        65
 73
         2
 40
0.1974999905
 49
0.125
 74
         0
 49
-0.0724999979
 74
         0
  0
LTYPE
  5
29
100
AcDbSymbolTableRecord
100
AcDbLinetypeTableRecord
  2
Phantom
 70
        64
  3
Phantom
 72
        65
 73
         6
 40
0.9674999714
 49
0.5
 74
         0
 49
-0.0724999979
 74
         0
 49
0.125
 74
         0
 49
-0.0724999979
 74
         0
 49
0.125
 74
         0
 49
-0.0724999979
 74
         0
  0
LTYPE
  5
2A
100
AcDbSymbolTableRecord
100
AcDbLinetypeTableRecord
  2
Dashdot
 70
        64
  3
Dashdot
 72
        65
 73
         4
 40
0.6762499809
 49
0.5
 74
         0
 49
-0.0724999979
 74
         0
 49
0.03125
 74
         0
 49
-0.0724999979
 74
         0
  0
LTYPE
  5
2B
100
AcDbSymbolTableRecord
100
AcDbLinetypeTableRecord
  2
Border
 70
        64
  3
Border
 72
        65
 73
         6
 40
1.2487499714
 49
0.5
 74
         0
 49
-0.0724999979
 74
         0
 49
0.5
 74
         0
 49
-0.0724999979
 74
         0
 49
0.03125
 74
         0
 49
-0.0724999979
 74
         0
  0
LTYPE
  5
2C
100
AcDbSymbolTableRecord
100
AcDbLinetypeTableRecord
  2
Divide
 70
        64
  3
Divide
 72
        65
 73
         6
 40
0.7799999714
 49
0.5
 74
         0
 49
-0.0724999979
 74
         0
 49
0.03125
 74
         0
 49
-0.0724999979
 74
         0
 49
0.03125
 74
         0
 49
-0.0724999979
 74
         0
  0
LTYPE
  5
2D
100
AcDbSymbolTableRecord
100
AcDbLinetypeTableRecord
  2
Cutting
 70
        64
  3
Cutting
 72
        65
 73
         6
 40
1.4674999714
 49
1.0
 74
         0
 49
-0.0724999979
 74
         0
 49
0.125
 74
         0
 49
-0.0724999979
 74
         0
 49
0.125
 74
         0
 49
-0.0724999979
 74
         0
  0
LTYPE
  5
2E
100
AcDbSymbolTableRecord
100
AcDbLinetypeTableRecord
  2
Stitch
 70
        64
  3
Stitch
 72
        65
 73
         2
 40
0.1449999958
 49
0.0724999979
 74
         0
 49
-0.0724999979
 74
         0
  0
ENDTAB
  0
TABLE
  2
LAYER
  5
2
100
AcDbSymbolTable
 70
        42
  0
LAYER
  5
14
100
AcDbSymbolTableRecord
100
AcDbLayerTableRecord
  2
0
 70
         0
 62
         7
  6
Continuous
290
         1
370
        -3
390
1D
  0
LAYER
  5
2F
100
AcDbSymbolTableRecord
100
AcDbLayerTableRecord
  2
DF_COMP
 70
         0
 62
         4
  6
Continuous
290
         1
370
         2
390
1F
  0
LAYER
  5
30
100
AcDbSymbolTableRecord
100
AcDbLayerTableRecord
  2
1_250BIT_500DEP
 70
         0
 62
         5
  6
Continuous
290
         1
370
         2
390
1F
  0
LAYER
  5
31
100
AcDbSymbolTableRecord
100
AcDbLayerTableRecord
  2
2_250BIT_250DEP
 70
         0
 62
         3
  6
Continuous
290
         1
370
         2
390
1F
  0
LAYER
  5
32
100
AcDbSymbolTableRecord
100
AcDbLayerTableRecord
  2
3_250BIT_500TAB
 70
         0
 62
         5
  6
Continuous
290
         1
370
         2
390
1F
  0
LAYER
  5
33
100
AcDbSymbolTableRecord
100
AcDbLayerTableRecord
  2
4_250BIT_250TAB
 70
         0
 62
         5
  6
Continuous
290
         1
370
         2
390
1F
  0
LAYER
  5
34
100
AcDbSymbolTableRecord
100
AcDbLayerTableRecord
  2
5_250BIT_250SPEC
 70
         0
 62
         5
  6
Continuous
290
         1
370
         2
390
1F
  0
LAYER
  5
35
100
AcDbSymbolTableRecord
100
AcDbLayerTableRecord
  2
6_125BIT_500DEP
 70
         0
 62
         5
  6
Continuous
290
         1
370
         2
390
1F
  0
LAYER
  5
36
100
AcDbSymbolTableRecord
100
AcDbLayerTableRecord
  2
7_VCARVE_BIT
 70
         0
 62
         5
  6
Continuous
290
         1
370
         2
390
1F
  0
LAYER
  5
37
100
AcDbSymbolTableRecord
100
AcDbLayerTableRecord
  2
8_250BIT_500OUTLINE
 70
         0
 62
         5
  6
Continuous
290
         1
370
         2
390
1F
  0
LAYER
  5
38
100
AcDbSymbolTableRecord
100
AcDbLayerTableRecord
  2
PLASTICS
 70
         0
 62
        37
  6
Continuous
290
         1
370
         2
390
1F
  0
LAYER
  5
39
100
AcDbSymbolTableRecord
100
AcDbLayerTableRecord
  2
7A_1250BALL
 70
         0
 62
         5
  6
Continuous
290
         1
370
         2
390
1F
  0
LAYER
  5
3A
100
AcDbSymbolTableRecord
100
AcDbLayerTableRecord
  2
CONSTRUCTION
 70
         0
 62
         7
  6
Continuous
290
         1
370
         0
390
1F
  0
LAYER
  5
3B
100
AcDbSymbolTableRecord
100
AcDbLayerTableRecord
  2
0_WOOD
 70
         0
 62
         5
  6
Continuous
290
         1
370
         2
390
1F
  0
LAYER
  5
3C
100
AcDbSymbolTableRecord
100
AcDbLayerTableRecord
  2
Z_TATTOOMYSTIQUE
 70
         0
 62
        37
  6
Continuous
290
         1
370
         2
390
1F
  0
LAYER
  5
3D
100
AcDbSymbolTableRecord
100
AcDbLayerTableRecord
  2
Z_ROLLRGIRLZ
 70
         0
 62
        37
  6
Continuous
290
         1
370
         2
390
1F
  0
LAYER
  5
3E
100
AcDbSymbolTableRecord
100
AcDbLayerTableRecord
  2
Z_MISSADV
 70
         0
 62
         5
  6
Continuous
290
         1
370
         2
390
1F
  0
LAYER
  5
3F
100
AcDbSymbolTableRecord
100
AcDbLayerTableRecord
  2
Z_JUPITERCRUSH
 70
         0
 62
        37
  6
Continuous
290
         1
370
         2
390
1F
  0
LAYER
  5
40
100
AcDbSymbolTableRecord
100
AcDbLayerTableRecord
  2
Z_MODULAR
 70
         0
 62
         5
  6
Continuous
290
         1
370
         2
390
1F
  0
LAYER
  5
41
100
AcDbSymbolTableRecord
100
AcDbLayerTableRecord
  2
Z_GENERIC
 70
         0
 62
        27
  6
Continuous
290
         1
370
         2
390
1F
  0
LAYER
  5
42
100
AcDbSymbolTableRecord
100
AcDbLayerTableRecord
  2
UNASSIGNED
 70
         0
 62
         7
  6
Continuous
290
         1
370
         0
390
1F
  0
LAYER
  5
43
100
AcDbSymbolTableRecord
100
AcDbLayerTableRecord
  2
0
 70
         0
 62
        42
  6
Continuous
290
         1
370
         2
390
1F
  0
LAYER
  5
44
100
AcDbSymbolTableRecord
100
AcDbLayerTableRecord
  2
LAYER_1
 70
         0
 62
        42
  6
Continuous
290
         1
370
         2
390
1F
  0
LAYER
  5
45
100
AcDbSymbolTableRecord
100
AcDbLayerTableRecord
  2
LAYER_3
 70
         0
 62
         4
  6
Continuous
290
         1
370
         2
390
1F
  0
LAYER
  5
46
100
AcDbSymbolTableRecord
100
AcDbLayerTableRecord
  2
LAYER_2
 70
         0
 62
        42
  6
Continuous
290
         1
370
         2
390
1F
  0
LAYER
  5
47
100
AcDbSymbolTableRecord
100
AcDbLayerTableRecord
  2
X_POSTS
 70
         0
 62
         4
  6
Continuous
290
         1
370
         2
390
1F
  0
LAYER
  5
48
100
AcDbSymbolTableRecord
100
AcDbLayerTableRecord
  2
X_THUMPER
 70
         0
 62
         4
  6
Continuous
290
         1
370
         2
390
1F
  0
LAYER
  5
49
100
AcDbSymbolTableRecord
100
AcDbLayerTableRecord
  2
X_STANDUPS
 70
         0
 62
         4
  6
Continuous
290
         1
370
         2
390
1F
  0
LAYER
  5
4A
100
AcDbSymbolTableRecord
100
AcDbLayerTableRecord
  2
X_DROPS
 70
         0
 62
         4
  6
Continuous
290
         1
370
         2
390
1F
  0
LAYER
  5
4B
100
AcDbSymbolTableRecord
100
AcDbLayerTableRecord
  2
X_SMPOSTS
 70
         0
 62
         4
  6
Continuous
290
         1
370
         2
390
1F
  0
LAYER
  5
4C
100
AcDbSymbolTableRecord
100
AcDbLayerTableRecord
  2
X_ROLLOVER
 70
         0
 62
         4
  6
Continuous
290
         1
370
         2
390
1F
  0
LAYER
  5
4D
100
AcDbSymbolTableRecord
100
AcDbLayerTableRecord
  2
X_WALLS
 70
         0
 62
         4
  6
Continuous
290
         1
370
         2
390
1F
  0
LAYER
  5
4E
100
AcDbSymbolTableRecord
100
AcDbLayerTableRecord
  2
Z0_BOTCOMP
 70
         0
 62
         4
  6
Continuous
290
         1
370
         2
390
1F
  0
LAYER
  5
4F
100
AcDbSymbolTableRecord
100
AcDbLayerTableRecord
  2
Z0_TOPCOMP
 70
         0
 62
         6
  6
Continuous
290
         1
370
         2
390
1F
  0
LAYER
  5
50
100
AcDbSymbolTableRecord
100
AcDbLayerTableRecord
  2
Z0_CUT250
 70
         0
 62
         4
  6
Continuous
290
         1
370
         2
390
1F
  0
LAYER
  5
51
100
AcDbSymbolTableRecord
100
AcDbLayerTableRecord
  2
Z0_CUT500
 70
         0
 62
         4
  6
Continuous
290
         1
370
         2
390
1F
  0
LAYER
  5
52
100
AcDbSymbolTableRecord
100
AcDbLayerTableRecord
  2
Z0_PLASTICS
 70
         0
 62
        37
  6
Continuous
290
         1
370
         2
390
1F
  0
LAYER
  5
53
100
AcDbSymbolTableRecord
100
AcDbLayerTableRecord
  2
Z0_RUBBER
 70
         0
 62
         4
  6
Continuous
290
         1
370
         2
390
1F
  0
LAYER
  5
54
100
AcDbSymbolTableRecord
100
AcDbLayerTableRecord
  2
Z0_ZONES
 70
         0
 62
         6
  6
Continuous
290
         1
370
         2
390
1F
  0
LAYER
  5
55
100
AcDbSymbolTableRecord
100
AcDbLayerTableRecord
  2
Z0_WOODOUTLINE
 70
         0
 62
         5
  6
Continuous
290
         1
370
         2
390
1F
  0
LAYER
  5
56
100
AcDbSymbolTableRecord
100
AcDbLayerTableRecord
  2
Z0_LOWERTHIRD
 70
         0
 62
         4
  6
Continuous
290
         1
370
         2
390
1F
  0
LAYER
  5
57
100
AcDbSymbolTableRecord
100
AcDbLayerTableRecord
  2
PART_A
 70
         0
 62
         4
  6
Continuous
290
         1
370
         2
390
1F
  0
ENDTAB
  0
TABLE
  2
STYLE
  5
3
100
AcDbSymbolTable
 70
         2
  0
STYLE
  5
17
100
AcDbSymbolTableRecord
100
AcDbTextStyleTableRecord
  2
Standard
 70
         0
 40
0.0
 41
1.0
 50
0.0
 71
         0
 42
0.0
  3
txt
  4

  0
STYLE
  5
24
100
AcDbSymbolTableRecord
100
AcDbTextStyleTableRecord
  2
Plotter
 70
         0
 40
0.0
 41
0.98
 50
0.0
 71
         0
 42
0.0
  3
SIMPLEX
  4

  0
ENDTAB
  0
TABLE
  2
VIEW
  5
5
100
AcDbSymbolTable
 70
         0
  0
ENDTAB
  0
TABLE
  2
UCS
  5
6
100
AcDbSymbolTable
 70
         0
  0
ENDTAB
  0
TABLE
  2
APPID
  5
8
100
AcDbSymbolTable
 70
         1
  0
APPID
  5
16
100
AcDbSymbolTableRecord
100
AcDbRegAppTableRecord
  2
ACAD
 70
         0
  0
ENDTAB
  0
TABLE
  2
DIMSTYLE
  5
9
100
AcDbSymbolTable
 70
         1
100
AcDbDimStyleTable
 71
         0
  0
DIMSTYLE
105
18
100
AcDbSymbolTableRecord
100
AcDbDimStyleTableRecord
  2
Standard
 70
         0
  3

  4

 40
1.0
 41
0.18
 42
0.0625
 43
0.38
 44
0.18
 45
0.0
 46
0.0
 47
0.0
 48
0.0
 71
         0
 72
         0
 73
         1
 74
         1
 75
         0
 76
         0
 77
         0
 78
         0
 79
         0
140
0.18
141
0.09
142
0.0
143
25.4
144
1.0
145
0.0
146
1.0
147
0.09
148
0.0
170
         0
171
         2
172
         0
173
         0
174
         0
175
         0
176
         0
177
         0
178
         0
179
         0
271
         4
272
         4
273
         2
274
         2
275
         0
276
         0
277
         2
278
        46
279
         0
280
         0
281
         0
282
         0
283
         1
284
         0
285
         0
286
         0
288
         0
340
17
341
0
342
0
343
0
344
0
371
        -2
372
        -2
  0
ENDTAB
  0
TABLE
  2
BLOCK_RECORD
  5
1
100
AcDbSymbolTable
 70
         0
  0
BLOCK_RECORD
  5
A
100
AcDbSymbolTableRecord
100
AcDbBlockTableRecord
  2
*MODEL_SPACE
340
20
  0
BLOCK_RECORD
  5
B
100
AcDbSymbolTableRecord
100
AcDbBlockTableRecord
  2
*PAPER_SPACE
340
21
  0
ENDTAB
  0
ENDSEC
  0
SECTION
  2
BLOCKS
  0
BLOCK
  5
D
100
AcDbEntity
  8
0
100
AcDbBlockBegin
  2
*MODEL_SPACE
 70
         0
 10
0.0
 20
0.0
 30
0.0
  3
*MODEL_SPACE
  1

  0
ENDBLK
  5
E
100
AcDbEntity
  8
0
100
AcDbBlockEnd
  0
BLOCK
  5
F
100
AcDbEntity
 67
         1
  8
0
100
AcDbBlockBegin
  2
*PAPER_SPACE
 70
         0
 10
0.0
 20
0.0
 30
0.0
  3
*PAPER_SPACE
  1

  0
ENDBLK
  5
10
100
AcDbEntity
 67
         1
  8
0
100
AcDbBlockEnd
  0
ENDSEC
  0
SECTION
  2
ENTITIES
  0
CIRCLE
  5
58
100
AcDbEntity
  8
Z0_LOWERTHIRD
370
        25
  6
Continuous
 62
         5
100
AcDbCircle
 10
13.5110819848
 20
10.7988069125
 30
0.0
 40
0.234375
  0
LINE
  5
59
100
AcDbEntity
  8
Z0_LOWERTHIRD
370
        25
  6
Continuous
 62
         5
100
AcDbLine
 10
14.3405784747
 20
11.8069090756
 30
0.0
 11
13.8565356386
 21
12.0258362217
 31
0.0
  0
CIRCLE
  5
5A
100
AcDbEntity
  8
Z0_LOWERTHIRD
370
        25
  6
Continuous
 62
         5
100
AcDbCircle
 10
14.3566914386
 20
12.6684297797
 30
0.0
 40
0.234375
  0
CIRCLE
  5
5B
100
AcDbEntity
  8
Z0_LOWERTHIRD
370
        25
  6
Continuous
 62
         4
100
AcDbCircle
 10
14.975
 20
10.6696698519
 30
0.0
 40
0.085
  0
CIRCLE
  5
5C
100
AcDbEntity
  8
Z0_LOWERTHIRD
370
        25
  6
Continuous
 62
         4
100
AcDbCircle
 10
14.975
 20
10.6696698519
 30
0.0
 40
0.059
  0
LINE
  5
5D
100
AcDbEntity
  8
Z0_LOWERTHIRD
370
        25
  6
Continuous
 62
         4
100
AcDbLine
 10
14.975
 20
10.9546698519
 30
0.0
 11
14.975
 21
10.8696698519
 31
0.0
  0
LINE
  5
5E
100
AcDbEntity
  8
Z0_LOWERTHIRD
370
        25
  6
Continuous
 62
         4
100
AcDbLine
 10
14.975
 20
10.8696698519
 30
0.0
 11
14.771960595
 21
10.8696698519
 31
0.0
  0
LINE
  5
5F
100
AcDbEntity
  8
Z0_LOWERTHIRD
370
        25
  6
Continuous
 62
         4
100
AcDbLine
 10
14.8017949192
 20
10.5696698519
 30
0.0
 11
14.9033146218
 21
10.3938325692
 31
0.0
  0
LINE
  5
60
100
AcDbEntity
  8
Z0_LOWERTHIRD
370
        25
  6
Continuous
 62
         4
100
AcDbLine
 10
14.7281827599
 20
10.5271698519
 30
0.0
 11
14.8017949192
 21
10.5696698519
 31
0.0
  0
LINE
  5
61
100
AcDbEntity
  8
Z0_LOWERTHIRD
370
        25
  6
Continuous
 62
         4
100
AcDbLine
 10
15.1482050808
 20
10.5696698519
 30
0.0
 11
15.2497247833
 21
10.7455071347
 31
0.0
  0
LINE
  5
62
100
AcDbEntity
  8
Z0_LOWERTHIRD
370
        25
  6
Continuous
 62
         4
100
AcDbLine
 10
15.2218172401
 20
10.5271698519
 30
0.0
 11
15.1482050808
 21
10.5696698519
 31
0.0
  0
ARC
  5
63
100
AcDbEntity
  8
Z0_LOWERTHIRD
370
        25
  6
Continuous
 62
         4
100
AcDbCircle
 10
14.975
 20
10.6696698519
 30
0.0
 40
0.285
100
AcDbArc
 50
135.4320713506
 51
-150.0
  0
ARC
  5
64
100
AcDbEntity
  8
Z0_LOWERTHIRD
370
        25
  6
Continuous
 62
         4
100
AcDbCircle
 10
14.975
 20
10.6696698519
 30
0.0
 40
0.285
100
AcDbArc
 50
-104.5679286494
 51
-30.0
  0
ARC
  5
65
100
AcDbEntity
  8
Z0_LOWERTHIRD
370
        25
  6
Continuous
 62
         4
100
AcDbCircle
 10
14.975
 20
10.6696698519
 30
0.0
 40
0.285
100
AcDbArc
 50
15.4320713506
 51
90.0
  0
LINE
  5
66
100
AcDbEntity
  8
Z0_LOWERTHIRD
370
        25
  6
Continuous
 62
         4
100
AcDbLine
 10
14.8017949192
 20
13.6321698519
 30
0.0
 11
14.9033146218
 21
13.4563325692
 31
0.0
  0
LINE
  5
67
100
AcDbEntity
  8
Z0_LOWERTHIRD
370
        25
  6
Continuous
 62
         4
100
AcDbLine
 10
14.7281827599
 20
13.5896698519
 30
0.0
 11
14.8017949192
 21
13.6321698519
 31
0.0
  0
LINE
  5
68
100
AcDbEntity
  8
Z0_LOWERTHIRD
370
        25
  6
Continuous
 62
         4
100
AcDbLine
 10
15.1482050808
 20
13.6321698519
 30
0.0
 11
15.2497247833
 21
13.8080071347
 31
0.0
  0
LINE
  5
69
100
AcDbEntity
  8
Z0_LOWERTHIRD
370
        25
  6
Continuous
 62
         4
100
AcDbLine
 10
15.2218172401
 20
13.5896698519
 30
0.0
 11
15.1482050808
 21
13.6321698519
 31
0.0
  0
ARC
  5
6A
100
AcDbEntity
  8
Z0_LOWERTHIRD
370
        25
  6
Continuous
 62
         4
100
AcDbCircle
 10
14.975
 20
13.7321698519
 30
0.0
 40
0.285
100
AcDbArc
 50
135.4320713506
 51
-150.0
  0
ARC
  5
6B
100
AcDbEntity
  8
Z0_LOWERTHIRD
370
        25
  6
Continuous
 62
         4
100
AcDbCircle
 10
14.975
 20
13.7321698519
 30
0.0
 40
0.285
100
AcDbArc
 50
-104.5679286494
 51
-30.0
  0
ARC
  5
6C
100
AcDbEntity
  8
Z0_LOWERTHIRD
370
        25
  6
Continuous
 62
         4
100
AcDbCircle
 10
14.975
 20
13.7321698519
 30
0.0
 40
0.285
100
AcDbArc
 50
15.4320713506
 51
90.0
  0
LINE
  5
6D
100
AcDbEntity
  8
Z0_TOPCOMP
370
        25
  6
Continuous
 62
        37
100
AcDbLine
 10
15.375
 20
13.7321698519
 30
0.0
 11
15.375
 21
10.6696698519
 31
0.0
  0
LINE
  5
6E
100
AcDbEntity
  8
Z0_TOPCOMP
370
        25
  6
Continuous
 62
        37
100
AcDbLine
 10
13.3158764147
 20
9.2829709197
 30
0.0
 11
15.1703181273
 21
10.3205984707
 31
0.0
  0
ARC
  5
6F
100
AcDbEntity
  8
Z0_TOPCOMP
370
        25
  6
Continuous
 62
        37
100
AcDbCircle
 10
14.975
 20
10.6696698519
 30
0.0
 40
0.4
100
AcDbArc
 50
-60.7714007639
 51
0.0
  0
ARC
  5
70
100
AcDbEntity
  8
Z0_TOPCOMP
370
        25
  6
Continuous
 62
        37
100
AcDbCircle
 10
14.975
 20
13.7321698519
 30
0.0
 40
0.4
100
AcDbArc
 50
0.0
 51
155.6632938534
  0
LINE
  5
71
100
AcDbEntity
  8
Z0_TOPCOMP
370
        25
  6
Continuous
 62
         2
100
AcDbLine
 10
13.3158764147
 20
9.2829709197
 30
0.0
 11
15.1703181273
 21
10.3205984707
 31
0.0
  0
LINE
  5
72
100
AcDbEntity
  8
Z0_TOPCOMP
370
        25
  6
Continuous
 62
         2
100
AcDbLine
 10
15.19
 20
10.6696698519
 30
0.0
 11
15.19
 21
13.7321698519
 31
0.0
  0
LINE
  5
73
100
AcDbEntity
  8
Z0_TOPCOMP
370
        25
  6
Continuous
 62
         2
100
AcDbLine
 10
15.375
 20
13.7321698519
 30
0.0
 11
15.375
 21
10.6696698519
 31
0.0
  0
LINE
  5
74
100
AcDbEntity
  8
Z0_LOWERTHIRD
370
         5
  6
Continuous
 62
         6
100
AcDbLine
 10
13.9994149539
 20
11.6441082215
 30
0.0
 11
13.6264023913
 21
11.8128176185
 31
0.0
  0
LINE
  5
75
100
AcDbEntity
  8
Z0_LOWERTHIRD
370
         5
  6
Continuous
 62
         6
100
AcDbLine
 10
14.0097202002
 20
11.7591921487
 30
0.0
 11
14.3827327628
 21
11.5904827518
 31
0.0
  0
LINE
  5
76
100
AcDbEntity
  8
Z0_LOWERTHIRD
370
         5
  6
Continuous
 62
         6
100
AcDbLine
 10
13.6713640548
 20
11.9122268307
 30
0.0
 11
14.0443766173
 21
11.7435174337
 31
0.0
  0
LINE
  5
77
100
AcDbEntity
  8
Z0_LOWERTHIRD
370
         5
  6
Continuous
 62
         6
100
AcDbLine
 10
14.3827327628
 20
11.5904827518
 30
0.0
 11
14.3377710856
 21
11.4910735409
 31
0.0
  0
LINE
  5
78
100
AcDbEntity
  8
Z0_LOWERTHIRD
370
         5
  6
Continuous
 62
         6
100
AcDbLine
 10
14.3377710856
 20
11.4910735409
 30
0.0
 11
13.964758523
 21
11.6597829378
 31
0.0
  0
LINE
  5
79
100
AcDbEntity
  8
Z0_LOWERTHIRD
370
         5
  6
Continuous
 62
         6
100
AcDbLine
 10
14.0443766173
 20
11.7435174337
 30
0.0
 11
13.9994149539
 21
11.6441082215
 31
0.0
  0
LINE
  5
7A
100
AcDbEntity
  8
Z0_LOWERTHIRD
370
         5
  6
Continuous
 62
         6
100
AcDbLine
 10
13.964758523
 20
11.6597829378
 30
0.0
 11
14.0097202002
 21
11.7591921487
 31
0.0
  0
LINE
  5
7B
100
AcDbEntity
  8
Z0_LOWERTHIRD
370
         5
  6
Continuous
 62
         6
100
AcDbLine
 10
13.6264023913
 20
11.8128176185
 30
0.0
 11
13.6713640548
 21
11.9122268307
 31
0.0
  0
ARC
  5
7C
100
AcDbEntity
  8
Z0_LOWERTHIRD
370
        25
  6
Continuous
 62
         5
100
AcDbCircle
 10
14.2439929691
 20
11.5933607655
 30
0.0
 40
0.234375
100
AcDbArc
 50
-114.3367060498
 51
65.6632939148
  0
ARC
  5
7D
100
AcDbEntity
  8
Z0_LOWERTHIRD
370
        25
  6
Continuous
 62
         5
100
AcDbCircle
 10
13.7599501331
 20
11.8122879116
 30
0.0
 40
0.234375
100
AcDbArc
 50
65.6632939502
 51
-114.3367060852
  0
LINE
  5
7E
100
AcDbEntity
  8
Z0_LOWERTHIRD
370
        25
  6
Continuous
 62
         5
100
AcDbLine
 10
14.1474074636
 20
11.3798124554
 30
0.0
 11
13.6633646274
 21
11.5987396015
 31
0.0
  0
LINE
  5
7F
100
AcDbEntity
  8
Z0_LOWERTHIRD
370
         5
  6
Continuous
 62
         4
100
AcDbLine
 10
13.7763183542
 20
12.7551537136
 30
0.0
 11
13.6167164051
 21
12.827339898
 31
0.0
  0
LINE
  5
80
100
AcDbEntity
  8
Z0_LOWERTHIRD
370
         5
  6
Continuous
 62
         4
100
AcDbLine
 10
14.580068744
 20
12.7129601613
 30
0.0
 11
14.476945647
 21
12.4849573726
 31
0.0
  0
LINE
  5
81
100
AcDbEntity
  8
Z0_LOWERTHIRD
370
         5
  6
Continuous
 62
         4
100
AcDbLine
 10
14.476945647
 20
12.4849573726
 30
0.0
 11
14.5681467592
 21
12.4437081286
 31
0.0
  0
LINE
  5
82
100
AcDbEntity
  8
Z0_LOWERTHIRD
370
         5
  6
Continuous
 62
         4
100
AcDbLine
 10
13.6604242937
 20
12.7114458236
 30
0.0
 11
13.6604242937
 21
12.7114458236
 31
0.0
  0
LINE
  5
83
100
AcDbEntity
  8
Z0_LOWERTHIRD
370
         5
  6
Continuous
 62
         4
100
AcDbLine
 10
14.1126895105
 20
12.5782988351
 30
0.0
 11
13.9498955156
 21
12.6519287388
 31
0.0
  0
LINE
  5
84
100
AcDbEntity
  8
Z0_LOWERTHIRD
370
         5
  6
Continuous
 62
         4
100
AcDbLine
 10
14.2694366257
 20
12.9248630793
 30
0.0
 11
13.416706202
 21
13.3105434927
 31
0.0
  0
LINE
  5
85
100
AcDbEntity
  8
Z0_LOWERTHIRD
370
         5
  6
Continuous
 62
         4
100
AcDbLine
 10
14.6137208352
 20
12.7691471924
 30
0.0
 11
13.416706202
 21
13.3105434927
 31
0.0
  0
LINE
  5
86
100
AcDbEntity
  8
Z0_LOWERTHIRD
370
         5
  6
Continuous
 62
         4
100
AcDbLine
 10
13.4899664765
 20
11.6350363091
 30
0.0
 11
13.5839036207
 21
11.5925495781
 31
0.0
  0
LINE
  5
87
100
AcDbEntity
  8
Z0_LOWERTHIRD
370
         5
  6
Continuous
 62
         4
100
AcDbLine
 10
13.6680095904
 20
11.6242690179
 30
0.0
 11
13.7210148714
 21
11.7414624499
 31
0.0
  0
LINE
  5
88
100
AcDbEntity
  8
Z0_LOWERTHIRD
370
         5
  6
Continuous
 62
         4
100
AcDbLine
 10
13.7210148714
 20
11.7414624499
 30
0.0
 11
14.076243213
 21
11.5807966566
 31
0.0
  0
LINE
  5
89
100
AcDbEntity
  8
Z0_LOWERTHIRD
370
         5
  6
Continuous
 62
         4
100
AcDbLine
 10
14.1126895105
 20
12.5782988351
 30
0.0
 11
14.450133631
 21
12.4256766455
 31
0.0
  0
LINE
  5
8A
100
AcDbEntity
  8
Z0_LOWERTHIRD
370
         5
  6
Continuous
 62
         4
100
AcDbLine
 10
14.5681467592
 20
12.4437081286
 30
0.0
 11
14.6712698562
 21
12.6717109172
 31
0.0
  0
LINE
  5
8B
100
AcDbEntity
  8
Z0_LOWERTHIRD
370
         5
  6
Continuous
 62
         4
100
AcDbLine
 10
14.6712698562
 20
12.6717109172
 30
0.0
 11
14.580068744
 21
12.7129601613
 31
0.0
  0
LINE
  5
8C
100
AcDbEntity
  8
Z0_LOWERTHIRD
370
         5
  6
Continuous
 62
         4
100
AcDbLine
 10
14.2694366257
 20
12.9248630793
 30
0.0
 11
14.1126895105
 21
12.5782988351
 31
0.0
  0
LINE
  5
8D
100
AcDbEntity
  8
Z0_LOWERTHIRD
370
         5
  6
Continuous
 62
         4
100
AcDbLine
 10
14.1700274148
 20
12.9698247566
 30
0.0
 11
14.0132802858
 21
12.6232605137
 31
0.0
  0
LINE
  5
8E
100
AcDbEntity
  8
Z0_LOWERTHIRD
370
         5
  6
Continuous
 62
         4
100
AcDbLine
 10
14.0312815357
 20
11.4813874457
 30
0.0
 11
13.6760531941
 21
11.642053239
 31
0.0
  0
CIRCLE
  5
8F
100
AcDbEntity
  8
Z0_LOWERTHIRD
370
        25
  6
Continuous
 62
         4
100
AcDbCircle
 10
13.6965173797
 20
12.7912468058
 30
0.0
 40
0.0875837177
  0
CIRCLE
  5
90
100
AcDbEntity
  8
Z0_LOWERTHIRD
370
        25
  6
Continuous
 62
         4
100
AcDbCircle
 10
13.7195951293
 20
11.2828994662
 30
0.0
 40
0.0875837177
  0
ARC
  5
91
100
AcDbEntity
  8
Z0_LOWERTHIRD
370
        25
  6
Continuous
 62
         4
100
AcDbCircle
 10
13.9237022515
 20
12.5940160315
 30
0.0
 40
0.0635607485
100
AcDbArc
 50
65.6632971898
 51
155.6632938224
  0
LINE
  5
92
100
AcDbEntity
  8
Z0_LOWERTHIRD
370
        25
  6
Continuous
 62
         4
100
AcDbLine
 10
13.2937633682
 20
9.5320423009
 30
0.0
 11
13.3952830707
 21
9.7078795836
 31
0.0
  0
LINE
  5
93
100
AcDbEntity
  8
Z0_LOWERTHIRD
370
        25
  6
Continuous
 62
         4
100
AcDbLine
 10
13.3673755275
 20
9.4895423009
 30
0.0
 11
13.2937633682
 21
9.5320423009
 31
0.0
  0
CIRCLE
  5
94
100
AcDbEntity
  8
Z0_LOWERTHIRD
370
        25
  6
Continuous
 62
         4
100
AcDbCircle
 10
14.975
 20
13.7321698519
 30
0.0
 40
0.085
  0
CIRCLE
  5
95
100
AcDbEntity
  8
Z0_LOWERTHIRD
370
        25
  6
Continuous
 62
         4
100
AcDbCircle
 10
14.975
 20
13.7321698519
 30
0.0
 40
0.059
  0
LINE
  5
96
100
AcDbEntity
  8
Z0_LOWERTHIRD
370
        25
  6
Continuous
 62
         4
100
AcDbLine
 10
14.975
 20
14.0171698519
 30
0.0
 11
14.975
 21
13.9321698519
 31
0.0
  0
LINE
  5
97
100
AcDbEntity
  8
Z0_LOWERTHIRD
370
        25
  6
Continuous
 62
         4
100
AcDbLine
 10
14.975
 20
13.9321698519
 30
0.0
 11
14.771960595
 21
13.9321698519
 31
0.0
  0
LINE
  5
98
100
AcDbEntity
  8
Z0_LOWERTHIRD
370
         5
  6
Continuous
 62
         4
100
AcDbLine
 10
13.6835020434
 20
11.203098484
 30
0.0
 11
13.6835020434
 21
11.203098484
 31
0.0
  0
LINE
  5
99
100
AcDbEntity
  8
Z0_LOWERTHIRD
370
         5
  6
Continuous
 62
         4
100
AcDbLine
 10
14.076243213
 20
11.5807966566
 30
0.0
 11
13.8147230241
 21
11.0025815944
 31
0.0
  0
LINE
  5
9A
100
AcDbEntity
  8
Z0_LOWERTHIRD
370
         5
  6
Continuous
 62
         4
100
AcDbLine
 10
13.7550839129
 20
10.8889378571
 30
0.0
 11
13.4176397785
 21
11.041560048
 31
0.0
  0
LINE
  5
9B
100
AcDbEntity
  8
Z0_LOWERTHIRD
370
         5
  6
Continuous
 62
         4
100
AcDbLine
 10
13.6835020434
 20
11.203098484
 30
0.0
 11
13.6835020434
 21
11.203098484
 31
0.0
  0
LINE
  5
9C
100
AcDbEntity
  8
Z0_LOWERTHIRD
370
         5
  6
Continuous
 62
         4
100
AcDbLine
 10
13.7556882152
 20
11.3627004483
 30
0.0
 11
13.6835020434
 21
11.203098484
 31
0.0
  0
LINE
  5
9D
100
AcDbEntity
  8
Z0_LOWERTHIRD
370
         5
  6
Continuous
 62
         4
100
AcDbLine
 10
13.3076448184
 20
11.2319273711
 30
0.0
 11
13.8147230241
 21
11.0025815944
 31
0.0
  0
LINE
  5
9E
100
AcDbEntity
  8
Z0_LOWERTHIRD
370
         5
  6
Continuous
 62
         4
100
AcDbLine
 10
13.4180522696
 20
11.0424720591
 30
0.0
 11
13.2608926647
 21
10.6949958177
 31
0.0
  0
LINE
  5
9F
100
AcDbEntity
  8
Z0_LOWERTHIRD
370
         5
  6
Continuous
 62
         4
100
AcDbLine
 10
14.450133631
 20
12.4256766455
 30
0.0
 11
14.6068807462
 21
12.7722408897
 31
0.0
  0
LINE
  5
A0
100
AcDbEntity
  8
Z0_LOWERTHIRD
370
         5
  6
Continuous
 62
         4
100
AcDbLine
 10
14.2694366257
 20
12.9248630793
 30
0.0
 11
14.1126895105
 21
12.5782988351
 31
0.0
  0
LINE
  5
A1
100
AcDbEntity
  8
Z0_LOWERTHIRD
370
         5
  6
Continuous
 62
         4
100
AcDbLine
 10
14.6068807462
 20
12.7722408897
 30
0.0
 11
14.2694366257
 21
12.9248630793
 31
0.0
  0
LINE
  5
A2
100
AcDbEntity
  8
Z0_LOWERTHIRD
370
         5
  6
Continuous
 62
         4
100
AcDbLine
 10
13.2552582885
 20
11.1161019615
 30
0.0
 11
13.4180522696
 21
11.0424720591
 31
0.0
  0
LINE
  5
A3
100
AcDbEntity
  8
Z0_LOWERTHIRD
370
         5
  6
Continuous
 62
         4
100
AcDbLine
 10
13.4176397785
 20
11.041560048
 30
0.0
 11
13.2608926647
 21
10.6949958177
 31
0.0
  0
LINE
  5
A4
100
AcDbEntity
  8
Z0_LOWERTHIRD
370
         5
  6
Continuous
 62
         4
100
AcDbLine
 10
13.6251487999
 20
10.6016543413
 30
0.0
 11
13.7163499121
 21
10.5604050973
 31
0.0
  0
LINE
  5
A5
100
AcDbEntity
  8
Z0_LOWERTHIRD
370
         5
  6
Continuous
 62
         4
100
AcDbLine
 10
13.7012392149
 20
11.2423149705
 30
0.0
 11
13.7012392149
 21
11.2423149705
 31
0.0
  0
LINE
  5
A6
100
AcDbEntity
  8
Z0_LOWERTHIRD
370
         5
  6
Continuous
 62
         4
100
AcDbLine
 10
13.7012392149
 20
11.2423149705
 30
0.0
 11
13.7012392149
 21
11.2423149705
 31
0.0
  0
LINE
  5
A7
100
AcDbEntity
  8
Z0_LOWERTHIRD
370
         5
  6
Continuous
 62
         4
100
AcDbLine
 10
13.7993961038
 20
11.246806374
 30
0.0
 11
13.6397941547
 21
11.3189925583
 31
0.0
  0
LINE
  5
A8
100
AcDbEntity
  8
Z0_LOWERTHIRD
370
         5
  6
Continuous
 62
         4
100
AcDbLine
 10
13.7326104656
 20
12.8710477879
 30
0.0
 11
13.6604242937
 21
12.7114458236
 31
0.0
  0
LINE
  5
A9
100
AcDbEntity
  8
Z0_LOWERTHIRD
370
         5
  6
Continuous
 62
         4
100
AcDbLine
 10
13.8657895458
 20
12.6202092989
 30
0.0
 11
13.4582470366
 21
11.7191422789
 31
0.0
  0
LINE
  5
AA
100
AcDbEntity
  8
Z0_LOWERTHIRD
370
         5
  6
Continuous
 62
         4
100
AcDbLine
 10
13.6604242937
 20
12.7114458236
 30
0.0
 11
13.6604242937
 21
12.7114458236
 31
0.0
  0
LINE
  5
AB
100
AcDbEntity
  8
Z0_LOWERTHIRD
370
         5
  6
Continuous
 62
         4
100
AcDbLine
 10
13.6781614653
 20
12.7506623102
 30
0.0
 11
13.6781614653
 21
12.7506623102
 31
0.0
  0
LINE
  5
AC
100
AcDbEntity
  8
Z0_LOWERTHIRD
370
         5
  6
Continuous
 62
         4
100
AcDbLine
 10
13.6781614653
 20
12.7506623102
 30
0.0
 11
13.6781614653
 21
12.7506623102
 31
0.0
  0
LINE
  5
AD
100
AcDbEntity
  8
Z0_LOWERTHIRD
370
         5
  6
Continuous
 62
         4
100
AcDbLine
 10
13.8194730229
 20
10.7884078846
 30
0.0
 11
13.7282718969
 21
10.82965713
 31
0.0
  0
LINE
  5
AE
100
AcDbEntity
  8
Z0_LOWERTHIRD
370
         5
  6
Continuous
 62
         4
100
AcDbLine
 10
13.7163499121
 20
10.5604050973
 30
0.0
 11
13.8194730229
 21
10.7884078846
 31
0.0
  0
ARC
  5
AF
100
AcDbEntity
  8
Z0_LOWERTHIRD
370
        25
  6
Continuous
 62
         4
100
AcDbCircle
 10
13.6100968834
 20
11.6504622888
 30
0.0
 40
0.0635607511
100
AcDbArc
 50
-114.3367004373
 51
-24.3367085506
  0
ARC
  5
B0
100
AcDbEntity
  8
Z0_LOWERTHIRD
370
        25
  6
Continuous
 62
         4
100
AcDbCircle
 10
13.5161597543
 20
11.6929490188
 30
0.0
 40
0.0635607564
100
AcDbArc
 50
155.6633043067
 51
-114.3367132945
  0
LINE
  5
B1
100
AcDbEntity
  8
Z0_LOWERTHIRD
370
         5
  6
Continuous
 62
         4
100
AcDbLine
 10
12.9124342215
 20
12.1956098618
 30
0.0
 11
12.855433514
 21
12.2213906371
 31
0.0
  0
LINE
  5
B2
100
AcDbEntity
  8
Z0_LOWERTHIRD
370
         5
  6
Continuous
 62
         4
100
AcDbLine
 10
11.3351679494
 20
13.2989844797
 30
0.0
 11
11.4052916509
 21
13.4540263759
 31
0.0
  0
LINE
  5
B3
100
AcDbEntity
  8
Z0_LOWERTHIRD
370
         5
  6
Continuous
 62
         4
100
AcDbLine
 10
11.2268938642
 20
12.2823360903
 30
0.0
 11
11.734259542
 21
13.4041098101
 31
0.0
  0
LINE
  5
B4
100
AcDbEntity
  8
Z0_LOWERTHIRD
370
         5
  6
Continuous
 62
         4
100
AcDbLine
 10
12.0276187936
 20
11.9091914154
 30
0.0
 11
12.0276187936
 21
11.9091914154
 31
0.0
  0
LINE
  5
B5
100
AcDbEntity
  8
Z0_LOWERTHIRD
370
         5
  6
Continuous
 62
         4
100
AcDbLine
 10
12.0276187936
 20
11.9091914154
 30
0.0
 11
12.0276187936
 21
11.9091914154
 31
0.0
  0
CIRCLE
  5
B6
100
AcDbEntity
  8
Z0_LOWERTHIRD
370
        25
  6
Continuous
 62
         4
100
AcDbCircle
 10
12.2853747339
 20
12.479193262
 30
0.0
 40
0.6256500405
  0
CIRCLE
  5
B7
100
AcDbEntity
  8
Z0_LOWERTHIRD
370
        25
  6
Continuous
 62
         4
100
AcDbCircle
 10
12.9952802676
 20
11.2408278464
 30
0.0
 40
0.0875837111
  0
LINE
  5
B8
100
AcDbEntity
  8
Z0_LOWERTHIRD
370
        25
  6
Continuous
 62
         4
100
AcDbLine
 10
13.1205582874
 20
9.9170423009
 30
0.0
 11
13.1205582874
 21
9.8320423009
 31
0.0
  0
LINE
  5
B9
100
AcDbEntity
  8
Z0_LOWERTHIRD
370
        25
  6
Continuous
 62
         4
100
AcDbLine
 10
13.1205582874
 20
9.8320423009
 30
0.0
 11
12.9175188824
 21
9.8320423009
 31
0.0
  0
LINE
  5
BA
100
AcDbEntity
  8
Z0_LOWERTHIRD
370
        25
  6
Continuous
 62
         4
100
AcDbLine
 10
12.9473532067
 20
9.5320423009
 30
0.0
 11
13.0488729092
 21
9.3562050182
 31
0.0
  0
LINE
  5
BB
100
AcDbEntity
  8
Z0_LOWERTHIRD
370
        25
  6
Continuous
 62
         4
100
AcDbLine
 10
12.8737410473
 20
9.4895423009
 30
0.0
 11
12.9473532067
 21
9.5320423009
 31
0.0
  0
ARC
  5
BC
100
AcDbEntity
  8
Z0_LOWERTHIRD
370
        25
  6
Continuous
 62
         4
100
AcDbCircle
 10
13.1205582874
 20
9.6320423009
 30
0.0
 40
0.285
100
AcDbArc
 50
135.4320713506
 51
-150.0
  0
CIRCLE
  5
BD
100
AcDbEntity
  8
Z0_TOPCOMP
370
        25
  6
Continuous
 62
         6
100
AcDbCircle
 10
16.625
 20
10.0259241091
 30
0.0
 40
0.03125
  0
ARC
  5
BE
100
AcDbEntity
  8
Z0_LOWERTHIRD
370
        25
  6
Continuous
 62
         6
100
AcDbCircle
 10
16.1968462004
 20
10.0259241091
 30
0.0
 40
0.3969037996
100
AcDbArc
 50
-60.5615103253
 51
0.0
  0
ARC
  5
BF
100
AcDbEntity
  8
Z0_LOWERTHIRD
370
        25
  6
Continuous
 62
         6
100
AcDbCircle
 10
16.1968462004
 20
10.0259241091
 30
0.0
 40
0.4594037996
100
AcDbArc
 50
-60.5615103253
 51
0.0
  0
ARC
  5
C0
100
AcDbEntity
  8
Z0_LOWERTHIRD
370
        25
  6
Continuous
 62
         4
100
AcDbCircle
 10
13.6072563689
 20
7.5362129518
 30
0.0
 40
0.1000956709
100
AcDbArc
 50
-153.0000000001
 51
-63.0
  0
LINE
  5
C1
100
AcDbEntity
  8
Z_TATTOOMYSTIQUE
370
         5
  6
Continuous
 62
         4
100
AcDbLine
 10
14.4907713259
 20
7.0258793269
 30
0.0
 11
14.1476805743
 21
7.6992328403
 31
0.0
  0
LINE
  5
C2
100
AcDbEntity
  8
Z_TATTOOMYSTIQUE
370
         5
  6
Continuous
 62
         4
100
AcDbLine
 10
14.1476805743
 20
7.6992328403
 30
0.0
 11
13.6526988526
 21
7.447027056
 31
0.0
  0
CIRCLE
  5
C3
100
AcDbEntity
  8
Z0_LOWERTHIRD
370
        25
  6
Continuous
 62
         4
100
AcDbCircle
 10
14.0612187229
 20
7.4501578307
 30
0.0
 40
0.069
  0
CIRCLE
  5
C4
100
AcDbEntity
  8
Z0_LOWERTHIRD
370
        25
  6
Continuous
 62
         4
100
AcDbCircle
 10
14.2316280366
 20
7.1157107214
 30
0.0
 40
0.069
  0
LINE
  5
C5
100
AcDbEntity
  8
Z0_LOWERTHIRD
370
         5
  6
Continuous
 62
         4
100
AcDbLine
 10
13.2608926647
 20
10.6949958177
 30
0.0
 11
13.5983367839
 21
10.5423736143
 31
0.0
  0
LINE
  5
C6
100
AcDbEntity
  8
Z0_LOWERTHIRD
370
         5
  6
Continuous
 62
         4
100
AcDbLine
 10
13.407958874
 20
10.5708041252
 30
0.0
 11
13.407958874
 21
10.5708041252
 31
0.0
  0
LINE
  5
C7
100
AcDbEntity
  8
Z0_LOWERTHIRD
370
         5
  6
Continuous
 62
         4
100
AcDbLine
 10
13.407958874
 20
10.5708041252
 30
0.0
 11
13.407958874
 21
10.5708041252
 31
0.0
  0
LINE
  5
C8
100
AcDbEntity
  8
Z0_LOWERTHIRD
370
         5
  6
Continuous
 62
         4
100
AcDbLine
 10
13.7282718969
 20
10.82965713
 30
0.0
 11
13.6251487999
 21
10.6016543413
 31
0.0
  0
LINE
  5
C9
100
AcDbEntity
  8
Z0_LOWERTHIRD
370
         5
  6
Continuous
 62
         4
100
AcDbLine
 10
13.5983367839
 20
10.5423736143
 30
0.0
 11
13.7550839129
 21
10.8889378571
 31
0.0
  0
ARC
  5
CA
100
AcDbEntity
  8
X_ROLLOVER
370
        25
  6
Continuous
 62
         6
100
AcDbCircle
 10
12.7890460536
 20
6.9625996763
 30
0.0
 40
0.2946859661
100
AcDbArc
 50
-60.0729543214
 51
128.6929609507
  0
LINE
  5
CB
100
AcDbEntity
  8
X_ROLLOVER
370
        25
  6
Continuous
 62
         6
100
AcDbLine
 10
10.8558098905
 20
5.3064613455
 30
0.0
 11
13.0239394653
 21
6.5545533552
 31
0.0
  0
LINE
  5
CC
100
AcDbEntity
  8
X_ROLLOVER
370
        25
  6
Continuous
 62
         6
100
AcDbLine
 10
10.5421134752
 20
5.7661506714
 30
0.0
 11
12.4947109698
 21
7.3300824289
 31
0.0
  0
LINE
  5
CD
100
AcDbEntity
  8
Z0_LOWERTHIRD
370
         5
  6
Continuous
 62
         4
100
AcDbLine
 10
12.8495291265
 20
12.056528152
 30
0.0
 11
12.4081622397
 21
11.0806762172
 31
0.0
  0
LINE
  5
CE
100
AcDbEntity
  8
Z0_LOWERTHIRD
370
         5
  6
Continuous
 62
         4
100
AcDbLine
 10
13.0313733528
 20
11.3206288216
 30
0.0
 11
12.9591871823
 21
11.1610268712
 31
0.0
  0
LINE
  5
CF
100
AcDbEntity
  8
Z0_LOWERTHIRD
370
         5
  6
Continuous
 62
         4
100
AcDbLine
 10
12.9769243525
 20
11.2002433439
 30
0.0
 11
12.9769243525
 21
11.2002433439
 31
0.0
  0
LINE
  5
D0
100
AcDbEntity
  8
Z0_LOWERTHIRD
370
         5
  6
Continuous
 62
         4
100
AcDbLine
 10
12.6425491049
 20
10.9746656691
 30
0.0
 11
11.5955602998
 21
11.4482069693
 31
0.0
  0
LINE
  5
D1
100
AcDbEntity
  8
Z0_LOWERTHIRD
370
         5
  6
Continuous
 62
         4
100
AcDbLine
 10
13.0750812428
 20
11.2047347611
 30
0.0
 11
12.9154792923
 21
11.2769209316
 31
0.0
  0
LINE
  5
D2
100
AcDbEntity
  8
Z0_LOWERTHIRD
370
         5
  6
Continuous
 62
         4
100
AcDbLine
 10
12.9591871823
 20
11.1610268712
 30
0.0
 11
12.9591871823
 21
11.1610268712
 31
0.0
  0
LINE
  5
D3
100
AcDbEntity
  8
Z0_LOWERTHIRD
370
         5
  6
Continuous
 62
         4
100
AcDbLine
 10
11.0422983293
 20
12.6514565695
 30
0.0
 11
11.3341418993
 21
12.5194589875
 31
0.0
  0
LINE
  5
D4
100
AcDbEntity
  8
Z0_LOWERTHIRD
370
         5
  6
Continuous
 62
         4
100
AcDbLine
 10
11.3341418993
 20
12.5194589875
 30
0.0
 11
11.264018184
 21
12.3644170926
 31
0.0
  0
LINE
  5
D5
100
AcDbEntity
  8
Z0_LOWERTHIRD
370
         5
  6
Continuous
 62
         4
100
AcDbLine
 10
10.972174614
 20
12.4964146747
 30
0.0
 11
11.0422983293
 21
12.6514565695
 31
0.0
  0
LINE
  5
D6
100
AcDbEntity
  8
Z0_LOWERTHIRD
370
         5
  6
Continuous
 62
         4
100
AcDbLine
 10
11.264018184
 20
12.3644170926
 30
0.0
 11
10.972174614
 21
12.4964146747
 31
0.0
  0
LINE
  5
D7
100
AcDbEntity
  8
Z0_LOWERTHIRD
370
         5
  6
Continuous
 62
         4
100
AcDbLine
 10
12.9591871823
 20
11.1610268712
 30
0.0
 11
12.9591871823
 21
11.1610268712
 31
0.0
  0
LINE
  5
D8
100
AcDbEntity
  8
Z0_LOWERTHIRD
370
         5
  6
Continuous
 62
         4
100
AcDbLine
 10
12.9769243525
 20
11.2002433439
 30
0.0
 11
12.9769243525
 21
11.2002433439
 31
0.0
  0
LINE
  5
D9
100
AcDbEntity
  8
Z0_LOWERTHIRD
370
         5
  6
Continuous
 62
         4
100
AcDbLine
 10
11.5496045771
 20
11.5700612957
 30
0.0
 11
12.4822499344
 21
13.6321185082
 31
0.0
  0
ARC
  5
DA
100
AcDbEntity
  8
Z0_LOWERTHIRD
370
        25
  6
Continuous
 62
         4
100
AcDbCircle
 10
12.5661549589
 20
13.5941692064
 30
0.0
 40
0.0920880158
100
AcDbArc
 50
65.6632937567
 51
155.6632937636
  0
ARC
  5
DB
100
AcDbEntity
  8
Z0_LOWERTHIRD
370
        25
  6
Continuous
 62
         4
100
AcDbCircle
 10
11.6335096017
 20
11.5321119939
 30
0.0
 40
0.0920880158
100
AcDbArc
 50
155.6632937636
 51
-114.3367062432
  0
ARC
  5
DC
100
AcDbEntity
  8
Z0_LOWERTHIRD
370
        25
  6
Continuous
 62
         4
100
AcDbCircle
 10
13.0211881703
 20
12.0486483388
 30
0.0
 40
0.0635607606
100
AcDbArc
 50
-114.3367037666
 51
-24.3367130436
  0
LINE
  5
DD
100
AcDbEntity
  8
Z0_LOWERTHIRD
370
         5
  6
Continuous
 62
         4
100
AcDbLine
 10
12.658751375
 20
11.6347229957
 30
0.0
 11
11.2268938642
 21
12.2823360903
 31
0.0
  0
LINE
  5
DE
100
AcDbEntity
  8
Z0_LOWERTHIRD
370
         5
  6
Continuous
 62
         4
100
AcDbLine
 10
11.4052916509
 20
13.4540263759
 30
0.0
 11
11.6971352222
 21
13.3220288077
 31
0.0
  0
LINE
  5
DF
100
AcDbEntity
  8
Z0_LOWERTHIRD
370
         5
  6
Continuous
 62
         4
100
AcDbLine
 10
11.6971352222
 20
13.3220288077
 30
0.0
 11
11.6270115208
 21
13.1669869115
 31
0.0
  0
LINE
  5
E0
100
AcDbEntity
  8
Z0_LOWERTHIRD
370
         5
  6
Continuous
 62
         4
100
AcDbLine
 10
11.6270115208
 20
13.1669869115
 30
0.0
 11
11.3351679494
 21
13.2989844797
 31
0.0
  0
LINE
  5
E1
100
AcDbEntity
  8
Z0_LOWERTHIRD
370
         5
  6
Continuous
 62
         4
100
AcDbLine
 10
11.6620733715
 20
13.2445078596
 30
0.0
 11
11.2990800486
 21
12.4419380394
 31
0.0
  0
LINE
  5
E2
100
AcDbEntity
  8
Z0_LOWERTHIRD
370
         5
  6
Continuous
 62
         4
100
AcDbLine
 10
12.9949949004
 20
11.990735621
 30
0.0
 11
12.8495291265
 21
12.056528152
 31
0.0
  0
LINE
  5
E3
100
AcDbEntity
  8
Z_TATTOOMYSTIQUE
370
         5
  6
Continuous
 62
         4
100
AcDbLine
 10
11.2527487196
 20
6.3365313834
 30
0.0
 11
10.1803061055
 21
8.4413185245
 31
0.0
  0
LINE
  5
E4
100
AcDbEntity
  8
Z_TATTOOMYSTIQUE
370
         5
  6
Continuous
 62
         4
100
AcDbLine
 10
12.6412622413
 20
10.6557452863
 30
0.0
 11
11.2276657928
 21
9.9354819204
 31
0.0
  0
LINE
  5
E5
100
AcDbEntity
  8
Z_TATTOOMYSTIQUE
370
         5
  6
Continuous
 62
         4
100
AcDbLine
 10
11.6867244385
 20
5.4848060785
 30
0.0
 11
11.7821536541
 21
5.2975156973
 31
0.0
  0
LINE
  5
E6
100
AcDbEntity
  8
Z_TATTOOMYSTIQUE
370
         5
  6
Continuous
 62
         4
100
AcDbLine
 10
11.0571143373
 20
5.2763437064
 30
0.0
 11
11.552096059
 21
5.5285494906
 31
0.0
  0
LINE
  5
E7
100
AcDbEntity
  8
Z_TATTOOMYSTIQUE
370
         5
  6
Continuous
 62
         4
100
AcDbLine
 10
11.2090053075
 20
6.201903004
 30
0.0
 11
10.7140235857
 21
5.9496972197
 31
0.0
  0
LINE
  5
E8
100
AcDbEntity
  8
Z_TATTOOMYSTIQUE
370
         5
  6
Continuous
 62
         4
100
AcDbLine
 10
13.067751978
 20
7.1046074377
 30
0.0
 11
12.5103401292
 21
6.8205919149
 31
0.0
  0
LINE
  5
E9
100
AcDbEntity
  8
Z_TATTOOMYSTIQUE
370
         5
  6
Continuous
 62
         4
100
AcDbLine
 10
13.1199420913
 20
5.979152952
 30
0.0
 11
13.0245128756
 21
6.1664433332
 31
0.0
  0
LINE
  5
EA
100
AcDbEntity
  8
Z_TATTOOMYSTIQUE
370
         5
  6
Continuous
 62
         4
100
AcDbLine
 10
10.8249267598
 20
10.5054221179
 30
0.0
 11
11.0930374133
 21
9.9792253326
 31
0.0
  0
LINE
  5
EB
100
AcDbEntity
  8
Z_TATTOOMYSTIQUE
370
         5
  6
Continuous
 62
         4
100
AcDbLine
 10
12.931053815
 20
6.6838937519
 30
0.0
 11
12.6470382922
 21
7.2413056007
 31
0.0
  0
LINE
  5
EC
100
AcDbEntity
  8
Z_TATTOOMYSTIQUE
370
         5
  6
Continuous
 62
         4
100
AcDbLine
 10
9.4782197331
 20
9.8192406147
 30
0.0
 11
10.8249267598
 21
10.5054221179
 31
0.0
  0
LINE
  5
ED
100
AcDbEntity
  8
Z_TATTOOMYSTIQUE
370
         5
  6
Continuous
 62
         4
100
AcDbLine
 10
11.7821536541
 20
5.2975156973
 30
0.0
 11
13.1199420913
 21
5.979152952
 31
0.0
  0
LINE
  5
EE
100
AcDbEntity
  8
Z_TATTOOMYSTIQUE
370
         5
  6
Continuous
 62
         4
100
AcDbLine
 10
11.7398921443
 20
5.3804585804
 30
0.0
 11
13.0776805815
 21
6.0620958351
 31
0.0
  0
LINE
  5
EF
100
AcDbEntity
  8
Z_TATTOOMYSTIQUE
370
         5
  6
Continuous
 62
         4
100
AcDbLine
 10
12.6412622413
 20
10.6557452863
 30
0.0
 11
12.9843529929
 21
9.9823917729
 31
0.0
  0
LINE
  5
F0
100
AcDbEntity
  8
Z_TATTOOMYSTIQUE
370
         5
  6
Continuous
 62
         4
100
AcDbLine
 10
12.4893712711
 20
9.7301859887
 30
0.0
 11
12.9843529929
 21
9.9823917729
 31
0.0
  0
CIRCLE
  5
F1
100
AcDbEntity
  8
Z0_LOWERTHIRD
370
        25
  6
Continuous
 62
         4
100
AcDbCircle
 10
11.1368186341
 20
5.5388265695
 30
0.0
 40
0.069
  0
CIRCLE
  5
F2
100
AcDbEntity
  8
Z0_LOWERTHIRD
370
        25
  6
Continuous
 62
         4
100
AcDbCircle
 10
10.9664093204
 20
5.8732736788
 30
0.0
 40
0.069
  0
CIRCLE
  5
F3
100
AcDbEntity
  8
Z0_LOWERTHIRD
370
        25
  6
Continuous
 62
         4
100
AcDbCircle
 10
9.6371578557
 20
8.481931162
 30
0.0
 40
0.069
  0
CIRCLE
  5
F4
100
AcDbEntity
  8
X_ROLLOVER
370
        25
  6
Continuous
 62
         6
100
AcDbCircle
 10
12.7890460536
 20
6.9625996763
 30
0.0
 40
0.125
  0
LINE
  5
F5
100
AcDbEntity
  8
X_ROLLOVER
370
        25
  6
Continuous
 62
         6
100
AcDbLine
 10
12.9668368482
 20
6.6537494657
 30
0.0
 11
10.8045726888
 21
5.3954683188
 31
0.0
  0
LINE
  5
F6
100
AcDbEntity
  8
X_ROLLOVER
370
        25
  6
Continuous
 62
         6
100
AcDbLine
 10
12.9360639658
 20
6.7072067396
 30
0.0
 11
10.7804119664
 21
5.4374392444
 31
0.0
  0
LINE
  5
F7
100
AcDbEntity
  8
X_ROLLOVER
370
        25
  6
Continuous
 62
         6
100
AcDbLine
 10
12.6048240731
 20
7.1926041991
 30
0.0
 11
10.636591452
 21
5.6481931839
 31
0.0
  0
LINE
  5
F8
100
AcDbEntity
  8
X_ROLLOVER
370
        25
  6
Continuous
 62
         6
100
AcDbLine
 10
12.5662638646
 20
7.2407473268
 30
0.0
 11
10.6063166639
 21
5.6859918123
 31
0.0
  0
ARC
  5
F9
100
AcDbEntity
  8
X_ROLLOVER
370
        25
  6
Continuous
 62
         6
100
AcDbCircle
 10
10.7165784964
 20
5.5483278914
 30
0.0
 40
0.127949224
100
AcDbArc
 50
128.6929609507
 51
-60.0729543214
  0
ARC
  5
FA
100
AcDbEntity
  8
X_ROLLOVER
370
        25
  6
Continuous
 62
         6
100
AcDbCircle
 10
10.7165784964
 20
5.5483278914
 30
0.0
 40
0.1763775123
100
AcDbArc
 50
128.6929609507
 51
-60.0729543214
  0
ARC
  5
FB
100
AcDbEntity
  8
X_ROLLOVER
370
        25
  6
Continuous
 62
         6
100
AcDbCircle
 10
10.7165784964
 20
5.5483278914
 30
0.0
 40
0.2790784964
100
AcDbArc
 50
128.6929609507
 51
-60.0729543214
  0
CIRCLE
  5
FC
100
AcDbEntity
  8
Z0_LOWERTHIRD
370
        25
  6
Continuous
 62
         4
100
AcDbCircle
 10
13.1205582874
 20
9.6320423009
 30
0.0
 40
0.085
  0
CIRCLE
  5
FD
100
AcDbEntity
  8
Z0_LOWERTHIRD
370
        25
  6
Continuous
 62
         4
100
AcDbCircle
 10
13.1205582874
 20
9.6320423009
 30
0.0
 40
0.059
  0
ARC
  5
FE
100
AcDbEntity
  8
Z0_LOWERTHIRD
370
        25
  6
Continuous
 62
         4
100
AcDbCircle
 10
13.1205582874
 20
9.6320423009
 30
0.0
 40
0.285
100
AcDbArc
 50
-104.5679286494
 51
-30.0
  0
ARC
  5
FF
100
AcDbEntity
  8
Z0_LOWERTHIRD
370
        25
  6
Continuous
 62
         4
100
AcDbCircle
 10
13.1205582874
 20
9.6320423009
 30
0.0
 40
0.285
100
AcDbArc
 50
15.4320713506
 51
90.0
  0
LINE
  5
100
100
AcDbEntity
  8
Z0_TOPCOMP
370
        25
  6
Continuous
 62
        37
100
AcDbLine
 10
12.7561025051
 20
9.7968815642
 30
0.0
 11
14.6105442177
 21
13.8970091153
 31
0.0
  0
ARC
  5
101
100
AcDbEntity
  8
Z0_TOPCOMP
370
        25
  6
Continuous
 62
        37
100
AcDbCircle
 10
13.1205582874
 20
9.6320423009
 30
0.0
 40
0.4
100
AcDbArc
 50
155.6632938533
 51
-60.7714007639
  0
LINE
  5
102
100
AcDbEntity
  8
Z0_TOPCOMP
370
        25
  6
Continuous
 62
         2
100
AcDbLine
 10
13.2255417808
 20
9.4444164335
 30
0.0
 11
15.0799834934
 21
10.4820439845
 31
0.0
  0
LINE
  5
103
100
AcDbEntity
  8
Z0_TOPCOMP
370
        25
  6
Continuous
 62
         2
100
AcDbLine
 10
12.7561025051
 20
9.7968815642
 30
0.0
 11
14.6105442177
 21
13.8970091153
 31
0.0
  0
LINE
  5
104
100
AcDbEntity
  8
Z0_TOPCOMP
370
        25
  6
Continuous
 62
         2
100
AcDbLine
 10
14.779105017
 20
13.820770956
 30
0.0
 11
12.9246633044
 21
9.7206434049
 31
0.0
  0
CIRCLE
  5
105
100
AcDbEntity
  8
Z0_TOPCOMP
370
        25
  6
Continuous
 62
         6
100
AcDbCircle
 10
13.0033093459
 20
7.7319996805
 30
0.0
 40
0.03125
  0
CIRCLE
  5
106
100
AcDbEntity
  8
Z0_LOWERTHIRD
370
        25
  6
Continuous
 62
         4
100
AcDbCircle
 10
9.466748542
 20
8.8163782712
 30
0.0
 40
0.069
  0
CIRCLE
  5
107
100
AcDbEntity
  8
Z0_LOWERTHIRD
370
        25
  6
Continuous
 62
         4
100
AcDbCircle
 10
12.7320260761
 20
10.0588452831
 30
0.0
 40
0.069
  0
CIRCLE
  5
108
100
AcDbEntity
  8
Z0_LOWERTHIRD
370
        25
  6
Continuous
 62
         4
100
AcDbCircle
 10
12.5616167624
 20
10.3932923924
 30
0.0
 40
0.069
  0
ARC
  5
109
100
AcDbEntity
  8
Z0_LOWERTHIRD
370
        25
  6
Continuous
 62
         4
100
AcDbCircle
 10
11.5975385427
 20
5.4393635948
 30
0.0
 40
0.1000956709
100
AcDbArc
 50
26.9999999997
 51
117.0000000001
  0
ARC
  5
10A
100
AcDbEntity
  8
Z0_LOWERTHIRD
370
        25
  6
Continuous
 62
         4
100
AcDbCircle
 10
13.1136987714
 20
6.2118858169
 30
0.0
 40
0.1000956709
100
AcDbArc
 50
116.9999999999
 51
-152.9999999998
  0
ARC
  5
10B
100
AcDbEntity
  8
Z0_LOWERTHIRD
370
        25
  6
Continuous
 62
         4
100
AcDbCircle
 10
12.5348137548
 20
9.6410000929
 30
0.0
 40
0.1000956709
100
AcDbArc
 50
117.0000000002
 51
-153.0
  0
ARC
  5
10C
100
AcDbEntity
  8
Z0_LOWERTHIRD
370
        25
  6
Continuous
 62
         4
100
AcDbCircle
 10
11.1822233091
 20
10.0246678162
 30
0.0
 40
0.1000956709
100
AcDbArc
 50
-152.9999999993
 51
-63.0
  0
ARC
  5
10D
100
AcDbEntity
  8
Z0_LOWERTHIRD
370
        25
  6
Continuous
 62
         4
100
AcDbCircle
 10
9.6571444908
 20
9.2476013458
 30
0.0
 40
0.1000956709
100
AcDbArc
 50
-63.0
 51
27.0000000001
  0
ARC
  5
10E
100
AcDbEntity
  8
Z0_LOWERTHIRD
370
        25
  6
Continuous
 62
         4
100
AcDbCircle
 10
10.0911202097
 20
8.3958760409
 30
0.0
 40
0.1000956709
100
AcDbArc
 50
26.9999999997
 51
117.0000000001
  0
ARC
  5
10F
100
AcDbEntity
  8
Z0_LOWERTHIRD
370
        25
  6
Continuous
 62
         4
100
AcDbCircle
 10
11.1635628238
 20
6.2910888998
 30
0.0
 40
0.1000956709
100
AcDbArc
 50
-63.0
 51
27.0
  0
LINE
  5
110
100
AcDbEntity
  8
Z_TATTOOMYSTIQUE
370
         5
  6
Continuous
 62
         4
100
AcDbLine
 10
9.5506960043
 20
8.2328561524
 30
0.0
 11
9.2076052527
 21
8.9062096658
 31
0.0
  0
LINE
  5
111
100
AcDbEntity
  8
Z_TATTOOMYSTIQUE
370
         5
  6
Continuous
 62
         4
100
AcDbLine
 10
9.5506960043
 20
8.2328561524
 30
0.0
 11
10.045677726
 21
8.4850619367
 31
0.0
  0
LINE
  5
112
100
AcDbEntity
  8
Z_TATTOOMYSTIQUE
370
         5
  6
Continuous
 62
         4
100
AcDbLine
 10
9.7025869745
 20
9.15841545
 30
0.0
 11
9.2076052527
 21
8.9062096658
 31
0.0
  0
LINE
  5
113
100
AcDbEntity
  8
Z_TATTOOMYSTIQUE
370
         5
  6
Continuous
 62
         4
100
AcDbLine
 10
9.7463303866
 20
9.2930438295
 30
0.0
 11
9.4782197331
 21
9.8192406147
 31
0.0
  0
LINE
  5
114
100
AcDbEntity
  8
Z_TATTOOMYSTIQUE
370
         5
  6
Continuous
 62
         4
100
AcDbLine
 10
11.0571143373
 20
5.2763437064
 30
0.0
 11
10.7140235857
 21
5.9496972197
 31
0.0
  0
CIRCLE
  5
115
100
AcDbEntity
  8
Z0_LOWERTHIRD
370
        25
  6
Continuous
 62
         5
100
AcDbCircle
 10
14.8502329291
 20
12.0677487841
 30
0.0
 40
0.234375
  0
CIRCLE
  5
116
100
AcDbEntity
  8
Z0_LOWERTHIRD
370
        25
  6
Continuous
 62
         5
100
AcDbCircle
 10
14.0477791437
 20
10.3058656934
 30
0.0
 40
0.234375
  0
CIRCLE
  5
117
100
AcDbEntity
  8
Z0_LOWERTHIRD
370
        25
  6
Continuous
 62
         6
100
AcDbCircle
 10
14.975
 20
10.6696698519
 30
0.0
 40
0.35
  0
CIRCLE
  5
118
100
AcDbEntity
  8
Z0_LOWERTHIRD
370
        25
  6
Continuous
 62
         5
100
AcDbCircle
 10
14.975
 20
13.7321698519
 30
0.0
 40
0.0825
  0
CIRCLE
  5
119
100
AcDbEntity
  8
Z0_LOWERTHIRD
370
        25
  6
Continuous
 62
         6
100
AcDbCircle
 10
14.975
 20
13.7321698519
 30
0.0
 40
0.35
  0
LINE
  5
11A
100
AcDbEntity
  8
Z0_LOWERTHIRD
370
        25
  6
Continuous
 62
         6
100
AcDbLine
 10
16.4226380683
 20
9.6258367642
 30
0.0
 11
13.018668374
 21
7.7047845606
 31
0.0
  0
LINE
  5
11B
100
AcDbEntity
  8
Z0_LOWERTHIRD
370
        25
  6
Continuous
 62
         6
100
AcDbLine
 10
16.391920012
 20
9.6802670042
 30
0.0
 11
12.9879503178
 21
7.7592148005
 31
0.0
  0
LINE
  5
11C
100
AcDbEntity
  8
Z_TATTOOMYSTIQUE
370
         5
  6
Continuous
 62
         4
100
AcDbLine
 10
13.0682562877
 20
6.3010717127
 30
0.0
 11
14.4907713259
 21
7.0258793269
 31
0.0
  0
LINE
  5
11D
100
AcDbEntity
  8
Z_TATTOOMYSTIQUE
370
         5
  6
Continuous
 62
         4
100
AcDbLine
 10
13.5180704731
 20
7.4907704682
 30
0.0
 11
12.445627859
 21
9.5955576092
 31
0.0
  0
ARC
  5
11E
100
AcDbEntity
  8
X_ROLLOVER
370
        25
  6
Continuous
 62
         6
100
AcDbCircle
 10
12.7890460536
 20
6.9625996763
 30
0.0
 40
0.3563678145
100
AcDbArc
 50
-60.0729543214
 51
128.6929609507
  0
ARC
  5
11F
100
AcDbEntity
  8
X_ROLLOVER
370
        25
  6
Continuous
 62
         6
100
AcDbCircle
 10
12.7890460536
 20
6.9625996763
 30
0.0
 40
0.4708255675
100
AcDbArc
 50
-60.0729543214
 51
128.6929609507
  0
LINE
  5
120
100
AcDbEntity
  8
Z0_LOWERTHIRD
370
         5
  6
Continuous
 62
         4
100
AcDbLine
 10
13.6510930672
 20
13.2045329446
 30
0.0
 11
12.6041042608
 21
13.6780742309
 31
0.0
  0
LINE
  5
121
100
AcDbEntity
  8
Z0_LOWERTHIRD
370
         5
  6
Continuous
 62
         4
100
AcDbLine
 10
11.734259542
 20
13.4041098101
 30
0.0
 11
13.1661170528
 21
12.7564967155
 31
0.0
  0
LINE
  5
122
100
AcDbEntity
  8
Z0_LOWERTHIRD
370
         5
  6
Continuous
 62
         4
100
AcDbLine
 10
13.2235388486
 20
11.2002079313
 30
0.0
 11
13.2235388486
 21
11.2002079313
 31
0.0
  0
LINE
  5
123
100
AcDbEntity
  8
Z0_LOWERTHIRD
370
         5
  6
Continuous
 62
         4
100
AcDbLine
 10
13.416706202
 20
13.3105434927
 30
0.0
 11
12.4081622397
 21
11.0806762172
 31
0.0
  0
LINE
  5
124
100
AcDbEntity
  8
Z0_LOWERTHIRD
370
         5
  6
Continuous
 62
         4
100
AcDbLine
 10
13.5161154129
 20
13.2655818154
 30
0.0
 11
12.5075714519
 21
11.0357145537
 31
0.0
  0
LINE
  5
125
100
AcDbEntity
  8
Z0_LOWERTHIRD
370
         5
  6
Continuous
 62
         4
100
AcDbLine
 10
12.4081622397
 20
11.0806762172
 30
0.0
 11
13.6051768728
 21
10.5392799169
 31
0.0
  0
LINE
  5
126
100
AcDbEntity
  8
Z0_LOWERTHIRD
370
         5
  6
Continuous
 62
         4
100
AcDbLine
 10
13.2608926647
 20
10.6949958177
 30
0.0
 11
12.4081622397
 21
11.0806762172
 31
0.0
  0
LINE
  5
127
100
AcDbEntity
  8
Z0_LOWERTHIRD
370
         5
  6
Continuous
 62
         4
100
AcDbLine
 10
13.1614834525
 20
10.7399574811
 30
0.0
 11
13.3186430587
 21
11.0874337364
 31
0.0
  0
LINE
  5
128
100
AcDbEntity
  8
Z0_LOWERTHIRD
370
         5
  6
Continuous
 62
         4
100
AcDbLine
 10
13.416706202
 20
13.3105434927
 30
0.0
 11
13.0784624122
 21
12.5626943466
 31
0.0
  0
ARC
  5
129
100
AcDbEntity
  8
Z0_LOWERTHIRD
370
        25
  6
Continuous
 62
         4
100
AcDbCircle
 10
13.2814515581
 20
11.1740146642
 30
0.0
 40
0.0635607466
100
AcDbArc
 50
65.6633001552
 51
-114.3367091433
  0
LINE
  5
12A
100
AcDbEntity
  8
Z0_LOWERTHIRD
370
         5
  6
Continuous
 62
         4
100
AcDbLine
 10
13.1468210853
 20
12.0895992999
 30
0.0
 11
12.0159272557
 21
12.601089902
 31
0.0
  0
LINE
  5
12B
100
AcDbEntity
  8
Z0_LOWERTHIRD
370
         5
  6
Continuous
 62
         4
100
AcDbLine
 10
13.2556476384
 20
12.4127958306
 30
0.0
 11
13.079100884
 21
12.0224550595
 31
0.0
  0
LINE
  5
12C
100
AcDbEntity
  8
Z0_LOWERTHIRD
370
         5
  6
Continuous
 62
         4
100
AcDbLine
 10
13.0784624122
 20
12.5626943466
 30
0.0
 11
13.2239281985
 21
12.4969018004
 31
0.0
  0
LINE
  5
12D
100
AcDbEntity
  8
Z0_LOWERTHIRD
370
         5
  6
Continuous
 62
         4
100
AcDbLine
 10
13.1661170528
 20
12.7564967155
 30
0.0
 11
12.658751375
 21
11.6347229957
 31
0.0
  0
CIRCLE
  5
12E
100
AcDbEntity
  8
Z0_LOWERTHIRD
370
        25
  6
Continuous
 62
         2
100
AcDbCircle
 10
14.975
 20
13.7321698519
 30
0.0
 40
0.4
  0
CIRCLE
  5
12F
100
AcDbEntity
  8
Z0_LOWERTHIRD
370
        25
  6
Continuous
 62
         2
100
AcDbCircle
 10
14.975
 20
13.7321698519
 30
0.0
 40
0.215
  0
LINE
  5
130
100
AcDbEntity
  8
Z0_LOWERTHIRD
370
        25
  6
Continuous
 62
        34
100
AcDbLine
 10
15.0622294837
 20
13.7548858633
 30
0.0
 11
15.0295184273
 21
13.660387256
 31
0.0
  0
LINE
  5
131
100
AcDbEntity
  8
Z0_LOWERTHIRD
370
        25
  6
Continuous
 62
        34
100
AcDbLine
 10
14.9204815727
 20
13.8039524479
 30
0.0
 11
14.8877705163
 21
13.7094538405
 31
0.0
  0
CIRCLE
  5
132
100
AcDbEntity
  8
Z0_LOWERTHIRD
370
        25
  6
Continuous
 62
         2
100
AcDbCircle
 10
14.975
 20
10.6696698519
 30
0.0
 40
0.4
  0
ARC
  5
133
100
AcDbEntity
  8
Z0_LOWERTHIRD
370
        25
  6
Continuous
 62
         5
100
AcDbCircle
 10
16.0
 20
13.0634241091
 30
0.0
 40
0.09
100
AcDbArc
 50
0.0
 51
180.0
  0
LINE
  5
134
100
AcDbEntity
  8
Z0_LOWERTHIRD
370
        25
  6
Continuous
 62
         5
100
AcDbLine
 10
15.91
 20
13.0634241091
 30
0.0
 11
15.91
 21
11.3634241091
 31
0.0
  0
LINE
  5
135
100
AcDbEntity
  8
Z0_LOWERTHIRD
370
        25
  6
Continuous
 62
         5
100
AcDbLine
 10
16.09
 20
13.0634241091
 30
0.0
 11
16.09
 21
11.3634241091
 31
0.0
  0
ARC
  5
136
100
AcDbEntity
  8
Z0_LOWERTHIRD
370
        25
  6
Continuous
 62
         5
100
AcDbCircle
 10
16.0
 20
11.3634241091
 30
0.0
 40
0.09
100
AcDbArc
 50
180.0
 51
0.0
  0
LINE
  5
137
100
AcDbEntity
  8
Z0_LOWERTHIRD
370
        25
  6
Continuous
 62
         5
100
AcDbLine
 10
17.16
 20
13.0634241091
 30
0.0
 11
17.16
 21
11.3634241091
 31
0.0
  0
LINE
  5
138
100
AcDbEntity
  8
Z0_LOWERTHIRD
370
        25
  6
Continuous
 62
         5
100
AcDbLine
 10
17.34
 20
13.0634241091
 30
0.0
 11
17.34
 21
11.3634241091
 31
0.0
  0
ARC
  5
139
100
AcDbEntity
  8
Z0_LOWERTHIRD
370
        25
  6
Continuous
 62
         5
100
AcDbCircle
 10
17.25
 20
11.3634241091
 30
0.0
 40
0.09
100
AcDbArc
 50
180.0
 51
0.0
  0
ARC
  5
13A
100
AcDbEntity
  8
Z0_LOWERTHIRD
370
        25
  6
Continuous
 62
         5
100
AcDbCircle
 10
17.25
 20
13.0634241091
 30
0.0
 40
0.09
100
AcDbArc
 50
0.0
 51
180.0
  0
CIRCLE
  5
13B
100
AcDbEntity
  8
Z0_TOPCOMP
370
        25
  6
Continuous
 62
         6
100
AcDbCircle
 10
16.625
 20
13.9009241091
 30
0.0
 40
0.03125
  0
CIRCLE
  5
13C
100
AcDbEntity
  8
Z0_TOPCOMP
370
        25
  6
Continuous
 62
         6
100
AcDbCircle
 10
16.625
 20
10.5259241091
 30
0.0
 40
0.03125
  0
CIRCLE
  5
13D
100
AcDbEntity
  8
3_250BIT_500TAB
370
        25
  6
Continuous
 62
         5
100
AcDbCircle
 10
12.7890460536
 20
6.9625996763
 30
0.0
 40
0.25
  0
LINE
  5
13E
100
AcDbEntity
  8
Z0_LOWERTHIRD
370
        25
  6
Continuous
 62
         6
100
AcDbLine
 10
16.65625
 20
13.9009241091
 30
0.0
 11
16.65625
 21
10.5259241091
 31
0.0
  0
LINE
  5
13F
100
AcDbEntity
  8
Z0_LOWERTHIRD
370
        25
  6
Continuous
 62
         6
100
AcDbLine
 10
16.59375
 20
13.9009241091
 30
0.0
 11
16.59375
 21
10.5259241091
 31
0.0
  0
CIRCLE
  5
140
100
AcDbEntity
  8
Z0_LOWERTHIRD
370
        25
  6
Continuous
 62
         5
100
AcDbCircle
 10
14.975
 20
10.6696698519
 30
0.0
 40
0.0825
  0
CIRCLE
  5
141
100
AcDbEntity
  8
Z0_LOWERTHIRD
370
        25
  6
Continuous
 62
         2
100
AcDbCircle
 10
14.975
 20
10.6696698519
 30
0.0
 40
0.215
  0
CIRCLE
  5
142
100
AcDbEntity
  8
Z0_LOWERTHIRD
370
        25
  6
Continuous
 62
        37
100
AcDbCircle
 10
13.1205582874
 20
9.6320423009
 30
0.0
 40
0.075
  0
CIRCLE
  5
143
100
AcDbEntity
  8
Z0_LOWERTHIRD
370
        25
  6
Continuous
 62
         5
100
AcDbCircle
 10
13.1205582874
 20
9.6320423009
 30
0.0
 40
0.0825
  0
CIRCLE
  5
144
100
AcDbEntity
  8
Z0_LOWERTHIRD
370
        25
  6
Continuous
 62
         6
100
AcDbCircle
 10
13.1205582874
 20
9.6320423009
 30
0.0
 40
0.35
  0
CIRCLE
  5
145
100
AcDbEntity
  8
Z0_LOWERTHIRD
370
        25
  6
Continuous
 62
         2
100
AcDbCircle
 10
13.1205582874
 20
9.6320423009
 30
0.0
 40
0.4
  0
CIRCLE
  5
146
100
AcDbEntity
  8
Z0_LOWERTHIRD
370
        25
  6
Continuous
 62
         2
100
AcDbCircle
 10
13.1205582874
 20
9.6320423009
 30
0.0
 40
0.215
  0
ENDSEC
  0
SECTION
  2
OBJECTS
  0
DICTIONARY
  5
19
100
AcDbDictionary
280
         0
281
         1
  3
ACAD_GROUP
350
1A
  3
ACAD_MLINESTYLE
350
1B
  3
ACAD_LAYOUT
350
1E
  3
ACAD_PLOTSETTINGS
350
22
  3
ACAD_PLOTSTYLENAME
350
1F
  3
ACAD_WIPEOUT_VARS
350
23
  0
DICTIONARY
  5
1A
102
{ACAD_REACTORS
330
19
102
}
100
AcDbDictionary
280
         0
281
         1
  0
DICTIONARY
  5
1B
102
{ACAD_REACTORS
330
19
102
}
100
AcDbDictionary
280
         0
281
         1
  3
Standard
350
1C
  0
MLINESTYLE
  5
1C
102
{ACAD_REACTORS
330
1B
102
}
100
AcDbMlineStyle
  2
Standard
 70
         0
  3

 62
         0
 51
90.0
 52
90.0
 71
         2
 49
0.5
 62
       256
  6
BYLAYER
 49
-0.5
 62
       256
  6
BYLAYER
  0
ACDBDICTIONARYWDFLT
  5
1F
102
{ACAD_REACTORS
330
19
102
}
100
AcDbDictionary
281
         1
  3
Normal
350
1D
100
AcDbDictionaryWithDefault
340
1D
  0
ACDBPLACEHOLDER
  5
1D
102
{ACAD_REACTORS
330
1F
102
}
  0
LAYOUT
  5
20
102
{ACAD_REACTORS
330
1E
102
}
100
AcDbPlotSettings
  1

  2

  4

  6

 40
0.0
 41
0.0
 42
0.0
 43
0.0
 44
0.0
 45
0.0
 46
0.0
 47
0.0
 48
0.0
 49
0.0
140
0.0
141
0.0
142
1.0
143
1.0
 70
      1024
 72
         0
 73
         0
 74
         0
  7

 75
         0
147
1.0
148
0.0
149
0.0
100
AcDbLayout
  1
Model
 70
         0
 71
         0
 10
0.0
 20
0.0
 11
0.0
 21
0.0
 12
0.0
 22
0.0
 32
0.0
 14
0.0
 24
0.0
 34
0.0
 15
0.0
 25
0.0
 35
0.0
146
0.0
 13
0.0
 23
0.0
 33
0.0
 16
0.0
 26
0.0
 36
0.0
 17
0.0
 27
0.0
 37
0.0
 76
         0
330
A
331
0
345
0
346
0
  0
LAYOUT
  5
21
102
{ACAD_REACTORS
330
1E
102
}
100
AcDbPlotSettings
  1

  2

  4

  6

 40
0.0
 41
0.0
 42
0.0
 43
0.0
 44
0.0
 45
0.0
 46
0.0
 47
0.0
 48
0.0
 49
0.0
140
0.0
141
0.0
142
1.0
143
1.0
 70
         0
 72
         0
 73
         0
 74
         0
  7

 75
         0
147
1.0
148
0.0
149
0.0
100
AcDbLayout
  1
Layout1
 70
         0
 71
         0
 10
0.0
 20
0.0
 11
0.0
 21
0.0
 12
0.0
 22
0.0
 32
0.0
 14
0.0
 24
0.0
 34
0.0
 15
0.0
 25
0.0
 35
0.0
146
0.0
 13
0.0
 23
0.0
 33
0.0
 16
0.0
 26
0.0
 36
0.0
 17
0.0
 27
0.0
 37
0.0
 76
         0
330
B
331
0
345
0
346
0
  0
DICTIONARY
  5
1E
102
{ACAD_REACTORS
330
19
102
}
100
AcDbDictionary
280
         0
281
         1
  3
Layout1
350
21
  3
Model
350
20
  0
DICTIONARY
  5
22
102
{ACAD_REACTORS
330
19
102
}
100
AcDbDictionary
280
         0
281
         1
  0
WIPEOUTVARIABLES
  5
23
100
AcDbWipeoutVariables
 70
         1
  0
ENDSEC
  0
EOF
