  0
SECTION
  2
HEADER
  9
$ACADVER
  1
AC1015
  9
$ACADMAINTVER
 70
         6
  9
$DWGCODEPAGE
  3
ANSI_1252
  9
$INSBASE
 10
0.0
 20
0.0
 30
0.0
  9
$EXTMIN
 10
-0.93969262
 20
-0.98480775
 30
0.0
  9
$EXTMAX
 10
13.0
 20
12.98480775
 30
0.0
  9
$LIMMIN
 10
0.0
 20
0.0
  9
$LIMMAX
 10
0.0
 20
0.0
  9
$ORTHOMODE
 70
         0
  9
$REGENMODE
 70
         1
  9
$FILLMODE
 70
         1
  9
$QTEXTMODE
 70
         0
  9
$MIRRTEXT
 70
         1
  9
$LTSCALE
 40
5.0
  9
$ATTMODE
 70
         1
  9
$TEXTSIZE
 40
0.2
  9
$TRACEWID
 40
0.05
  9
$TEXTSTYLE
  7
Standard
  9
$CLAYER
  8
0
  9
$CELTYPE
  6
Continuous
  9
$CECOLOR
 62
       256
  9
$CELTSCALE
 40
1.0
  9
$DISPSILH
 70
         0
  9
$DIMSCALE
 40
1.0
  9
$DIMASZ
 40
0.18
  9
$DIMEXO
 40
0.0625
  9
$DIMDLI
 40
0.38
  9
$DIMRND
 40
0.0
  9
$DIMDLE
 40
0.0
  9
$DIMEXE
 40
0.18
  9
$DIMTP
 40
0.0
  9
$DIMTM
 40
0.0
  9
$DIMTXT
 40
0.18
  9
$DIMCEN
 40
0.09
  9
$DIMTSZ
 40
0.0
  9
$DIMTOL
 70
         0
  9
$DIMLIM
 70
         0
  9
$DIMTIH
 70
         1
  9
$DIMTOH
 70
         1
  9
$DIMSE1
 70
         0
  9
$DIMSE2
 70
         0
  9
$DIMTAD
 70
         0
  9
$DIMZIN
 70
         0
  9
$DIMBLK
  1

  9
$DIMASO
 70
         1
  9
$DIMSHO
 70
         1
  9
$DIMPOST
  1

  9
$DIMAPOST
  1

  9
$DIMALT
 70
         0
  9
$DIMALTD
 70
         2
  9
$DIMALTF
 40
25.4
  9
$DIMLFAC
 40
1.0
  9
$DIMTOFL
 70
         0
  9
$DIMTVP
 40
0.0
  9
$DIMTIX
 70
         0
  9
$DIMSOXD
 70
         0
  9
$DIMSAH
 70
         0
  9
$DIMBLK1
  1

  9
$DIMBLK2
  1

  9
$DIMSTYLE
  2
Standard
  9
$DIMCLRD
 70
         0
  9
$DIMCLRE
 70
         0
  9
$DIMCLRT
 70
         0
  9
$DIMTFAC
 40
1.0
  9
$DIMGAP
 40
0.09
  9
$DIMJUST
 70
         0
  9
$DIMSD1
 70
         0
  9
$DIMSD2
 70
         0
  9
$DIMTOLJ
 70
         1
  9
$DIMTZIN
 70
         0
  9
$DIMALTZ
 70
         0
  9
$DIMALTTZ
 70
         0
  9
$DIMUPT
 70
         0
  9
$DIMDEC
 70
         4
  9
$DIMTDEC
 70
         4
  9
$DIMALTU
 70
         2
  9
$DIMALTTD
 70
         2
  9
$DIMTXSTY
  7
Standard
  9
$DIMAUNIT
 70
         0
  9
$DIMADEC
 70
         0
  9
$DIMALTRND
 40
0.0
  9
$DIMAZIN
 70
         0
  9
$DIMDSEP
 70
         0
  9
$DIMATFIT
 70
         3
  9
$DIMFRAC
 70
         0
  9
$DIMLDRBLK
  1

  9
$DIMLUNIT
 70
         2
  9
$DIMLWD
 70
         0
  9
$DIMLWE
 70
         0
  9
$DIMTMOVE
 70
         0
  9
$LUNITS
 70
         2
  9
$LUPREC
 70
         4
  9
$SKETCHINC
 40
0.1
  9
$FILLETRAD
 40
0.0
  9
$AUNITS
 70
         0
  9
$AUPREC
 70
         0
  9
$MENU
  1
acad
  9
$ELEVATION
 40
0.0
  9
$PELEVATION
 40
0.0
  9
$THICKNESS
 40
0.0
  9
$LIMCHECK
 70
         0
  9
$CHAMFERA
 40
0.0
  9
$CHAMFERB
 40
0.0
  9
$CHAMFERC
 40
0.0
  9
$CHAMFERD
 40
0.0
  9
$SKPOLY
 70
         0
  9
$TDCREATE
 40
2460906.913912037
  9
$TDUCREATE
 40
0.000000000
  9
$TDUPDATE
 40
2460906.913912037
  9
$TDUUPDATE
 40
0.000000000
  9
$TDINDWG
 40
0.0000000000
  9
$TDUSRTIMER
 40
0.0000000000
  9
$USRTIMER
 70
         1
  9
$ANGBASE
 50
0.0
  9
$ANGDIR
 70
         0
  9
$PDMODE
 70
         0
  9
$PDSIZE
 40
0.0
  9
$PLINEWID
 40
0.0
  9
$SPLFRAME
 70
         0
  9
$SPLINETYPE
 70
         6
  9
$SPLINESEGS
 70
         8
  9
$HANDSEED
  5
1A2
  9
$SURFTAB1
 70
         6
  9
$SURFTAB2
 70
         6
  9
$SURFTYPE
 70
         6
  9
$SURFU
 70
         6
  9
$SURFV
 70
         6
  9
$UCSBASE
  2

  9
$UCSNAME
  2

  9
$UCSORG
 10
0.0
 20
0.0
 30
0.0
  9
$UCSXDIR
 10
1.0
 20
0.0
 30
0.0
  9
$UCSYDIR
 10
0.0
 20
1.0
 30
0.0
  9
$UCSORTHOREF
  2

  9
$UCSORTHOVIEW
 70
         0
  9
$UCSORGTOP
 10
0.0
 20
0.0
 30
0.0
  9
$UCSORGBOTTOM
 10
0.0
 20
0.0
 30
0.0
  9
$UCSORGLEFT
 10
0.0
 20
0.0
 30
0.0
  9
$UCSORGRIGHT
 10
0.0
 20
0.0
 30
0.0
  9
$UCSORGFRONT
 10
0.0
 20
0.0
 30
0.0
  9
$UCSORGBACK
 10
0.0
 20
0.0
 30
0.0
  9
$PUCSBASE
  2

  9
$PUCSNAME
  2

  9
$PUCSORG
 10
0.0
 20
0.0
 30
0.0
  9
$PUCSXDIR
 10
1.0
 20
0.0
 30
0.0
  9
$PUCSYDIR
 10
0.0
 20
1.0
 30
0.0
  9
$PUCSORTHOREF
  2

  9
$PUCSORTHOVIEW
 70
         0
  9
$PUCSORGTOP
 10
0.0
 20
0.0
 30
0.0
  9
$PUCSORGBOTTOM
 10
0.0
 20
0.0
 30
0.0
  9
$PUCSORGLEFT
 10
0.0
 20
0.0
 30
0.0
  9
$PUCSORGRIGHT
 10
0.0
 20
0.0
 30
0.0
  9
$PUCSORGFRONT
 10
0.0
 20
0.0
 30
0.0
  9
$PUCSORGBACK
 10
0.0
 20
0.0
 30
0.0
  9
$USERI1
 70
         0
  9
$USERI2
 70
         0
  9
$USERI3
 70
         0
  9
$USERI4
 70
         0
  9
$USERI5
 70
         0
  9
$USERR1
 40
0.0
  9
$USERR2
 40
0.0
  9
$USERR3
 40
0.0
  9
$USERR4
 40
0.0
  9
$USERR5
 40
0.0
  9
$WORLDVIEW
 70
         1
  9
$SHADEDGE
 70
         3
  9
$SHADEDIF
 70
        70
  9
$TILEMODE
 70
         1
  9
$MAXACTVP
 70
        16
  9
$PINSBASE
 10
0.0
 20
0.0
 30
0.0
  9
$PLIMCHECK
 70
         0
  9
$PEXTMIN
 10
1.0000000000E+20
 20
1.0000000000E+20
 30
1.0000000000E+20
  9
$PEXTMAX
 10
-1.0000000000E+20
 20
-1.0000000000E+20
 30
-1.0000000000E+20
  9
$PLIMMIN
 10
0.0
 20
0.0
  9
$PLIMMAX
 10
12.0
 20
9.0
  9
$UNITMODE
 70
         0
  9
$VISRETAIN
 70
         0
  9
$PLINEGEN
 70
         1
  9
$PSLTSCALE
 70
         0
  9
$TREEDEPTH
 70
      3020
  9
$CMLSTYLE
  2
Standard
  9
$CMLJUST
 70
         0
  9
$CMLSCALE
 40
1.0
  9
$PROXYGRAPHICS
 70
         0
  9
$MEASUREMENT
 70
         0
  9
$CELWEIGHT
370
         0
  9
$ENDCAPS
280
         0
  9
$JOINSTYLE
280
         0
  9
$LWDISPLAY
290
         0
  9
$INSUNITS
 70
         0
  9
$HYPERLINKBASE
  1

  9
$XEDIT
290
         1
  9
$CEPSNTYPE
380
         0
  9
$PSTYLEMODE
290
         1
  9
$FINGERPRINTGUID
  2

  9
$VERSIONGUID
  2

  9
$EXTNAMES
290
         1
  9
$PSVPSCALE
 40
0.0
  0
ENDSEC
  0
SECTION
  2
CLASSES
  0
CLASS
  1
LWPOLYLINE
  2
AcDbPolyline
  3
AutoCAD 2000
 90
    32768
280
         0
281
         1
  0
CLASS
  1
IMAGE
  2
AcDbRasterImage
  3
ISM
 90
    32895
280
         0
281
         1
  0
CLASS
  1
OLE2FRAME
  2
AcDbOle2Frame
  3
AutoCAD 2000
 90
    32768
280
         0
281
         1
  0
CLASS
  1
HATCH
  2
AcDbHatch
  3
AutoCAD 2000
 90
    32768
280
         0
281
         1
  0
CLASS
  1
DICTIONARYVAR
  2
AcDbDictionaryVar
  3
AutoCAD 2000
 90
    32768
280
         0
281
         0
  0
CLASS
  1
RASTERVARIABLES
  2
AcDbRasterVariables
  3
ISM
 90
    32768
280
         0
281
         0
  0
CLASS
  1
IMAGEDEF
  2
AcDbRasterImageDef
  3
ISM
 90
    32768
280
         0
281
         0
  0
CLASS
  1
IMAGEDEF_REACTOR
  2
AcDbRasterImageDefReactor
  3
ISM
 90
    32769
280
         0
281
         0
  0
CLASS
  1
IDBUFFER
  2
AcDbIdBuffer
  3
AutoCAD 2000
 90
    32768
280
         0
281
         0
  0
CLASS
  1
SPATIAL_FILTER
  2
AcDbSpatialFilter
  3
AutoCAD 2000
 90
    32768
280
         0
281
         0
  0
CLASS
  1
XRECORD
  2
AcDbXrecord
  3
AutoCAD 2000
 90
    32768
280
         0
281
         0
  0
CLASS
  1
SORTENTSTABLE
  2
AcDbSortentsTable
  3
AutoCAD 2000
 90
    32768
280
         0
281
         0
  0
CLASS
  1
LAYER_INDEX
  2
AcDbLayerIndex
  3
AutoCAD 2000
 90
    32768
280
         0
281
         0
  0
CLASS
  1
SPATIAL_INDEX
  2
AcDbSpatialIndex
  3
AutoCAD 2000
 90
    32768
280
         0
281
         0
  0
CLASS
  1
OBJECT_PTR
  2
CAseDLPNTableRecord
  3
"ASE-LPNTableRecord"
 90
    32769
280
         0
281
         0
  0
CLASS
  1
LAYOUT
  2
AcDbLayout
  3
AutoCAD 2000
 90
        0
280
         0
281
         0
  0
CLASS
  1
PLOTSETTINGS
  2
AcDbPlotSettings
  3
AutoCAD 2000
 90
    32768
280
         0
281
         0
  0
CLASS
  1
ACDBDICTIONARYWDFLT
  2
AcDbDictionaryWithDefault
  3
AutoCAD 2000
 90
        0
280
         0
281
         0
  0
CLASS
  1
ACDBPLACEHOLDER
  2
AcDbPlaceHolder
  3
AutoCAD 2000
 90
        0
280
         0
281
         0
  0
CLASS
  1
VBA_PROJECT
  2
AcDbVbaProject
  3
acadvba
 90
    32768
280
         0
281
         0
  0
CLASS
  1
WIPEOUT
  2
AcDbWipeout
  3
WipeOut|AutoCAD Express Tool|expresstools@autodesk.com
 90
    32895
280
         0
281
         1
  0
CLASS
  1
WIPEOUTVARIABLES
  2
AcDbWipeoutVariables
  3
WipeOut|AutoCAD Express Tool|expresstools@autodesk.com
 90
        0
280
         0
281
         0
  0
CLASS
  1
RTEXT
  2
RText
  3
RText|AutoCAD Express Tool|expresstools@autodesk.com
 90
    32768
280
         0
281
         1
  0
CLASS
  1
ARCALIGNEDTEXT
  2
AcDbArcAlignedText
  3
ATEXT|AutoCAD Express Tool|expresstools@autodesk.com
 90
    32768
280
         0
281
         1
  0
ENDSEC
  0
SECTION
  2
TABLES
  0
TABLE
  2
VPORT
  5
7
100
AcDbSymbolTable
 70
         1
  0
VPORT
  5
15
100
AcDbSymbolTableRecord
100
AcDbViewportTableRecord
  2
*ACTIVE
 70
         0
 10
0.0
 20
0.0
 11
1.0
 21
1.0
 12
6.591288
 22
4.579184
 13
0.0
 23
0.0
 14
1.0
 24
1.0
 15
0.0
 25
0.0
 16
0.0
 26
0.0
 36
1.0
 17
0.0
 27
0.0
 37
0.0
 40
9.158369
 41
0.688564
 42
50.0
 43
0.0
 44
0.0
 50
0.0
 51
0.0
 71
         0
 72
       100
 73
         1
 74
         1
 75
         0
 76
         0
 77
         0
 78
         0
281
         0
 65
         0
110
0.0
120
0.0
130
0.0
111
1.0
121
0.0
131
0.0
112
0.0
122
1.0
132
0.0
345
0
346
0
 79
         0
146
0.0
  0
ENDTAB
  0
TABLE
  2
LTYPE
  5
4
100
AcDbSymbolTable
 70
        13
  0
LTYPE
  5
11
100
AcDbSymbolTableRecord
100
AcDbLinetypeTableRecord
  2
ByBlock
 70
        64
  3

 72
        65
 73
         0
 40
0.0
  0
LTYPE
  5
12
100
AcDbSymbolTableRecord
100
AcDbLinetypeTableRecord
  2
ByLayer
 70
        64
  3

 72
        65
 73
         0
 40
0.0
  0
LTYPE
  5
13
100
AcDbSymbolTableRecord
100
AcDbLinetypeTableRecord
  2
Continuous
 70
        64
  3
Solid line
 72
        65
 73
         0
 40
0.0
  0
LTYPE
  5
25
100
AcDbSymbolTableRecord
100
AcDbLinetypeTableRecord
  2
Dotted
 70
        64
  3
Dotted
 72
        65
 73
         2
 40
0.125
 49
0.0
 74
         0
 49
-0.125
 74
         0
  0
LTYPE
  5
26
100
AcDbSymbolTableRecord
100
AcDbLinetypeTableRecord
  2
Center
 70
        64
  3
Center
 72
        65
 73
         4
 40
0.7699999809
 49
0.5
 74
         0
 49
-0.0724999979
 74
         0
 49
0.125
 74
         0
 49
-0.0724999979
 74
         0
  0
LTYPE
  5
27
100
AcDbSymbolTableRecord
100
AcDbLinetypeTableRecord
  2
Dashed
 70
        64
  3
Dashed
 72
        65
 73
         2
 40
0.375
 49
0.25
 74
         0
 49
-0.125
 74
         0
  0
LTYPE
  5
28
100
AcDbSymbolTableRecord
100
AcDbLinetypeTableRecord
  2
Hidden
 70
        64
  3
Hidden
 72
        65
 73
         2
 40
0.1974999905
 49
0.125
 74
         0
 49
-0.0724999979
 74
         0
  0
LTYPE
  5
29
100
AcDbSymbolTableRecord
100
AcDbLinetypeTableRecord
  2
Phantom
 70
        64
  3
Phantom
 72
        65
 73
         6
 40
0.9674999714
 49
0.5
 74
         0
 49
-0.0724999979
 74
         0
 49
0.125
 74
         0
 49
-0.0724999979
 74
         0
 49
0.125
 74
         0
 49
-0.0724999979
 74
         0
  0
LTYPE
  5
2A
100
AcDbSymbolTableRecord
100
AcDbLinetypeTableRecord
  2
Dashdot
 70
        64
  3
Dashdot
 72
        65
 73
         4
 40
0.6762499809
 49
0.5
 74
         0
 49
-0.0724999979
 74
         0
 49
0.03125
 74
         0
 49
-0.0724999979
 74
         0
  0
LTYPE
  5
2B
100
AcDbSymbolTableRecord
100
AcDbLinetypeTableRecord
  2
Border
 70
        64
  3
Border
 72
        65
 73
         6
 40
1.2487499714
 49
0.5
 74
         0
 49
-0.0724999979
 74
         0
 49
0.5
 74
         0
 49
-0.0724999979
 74
         0
 49
0.03125
 74
         0
 49
-0.0724999979
 74
         0
  0
LTYPE
  5
2C
100
AcDbSymbolTableRecord
100
AcDbLinetypeTableRecord
  2
Divide
 70
        64
  3
Divide
 72
        65
 73
         6
 40
0.7799999714
 49
0.5
 74
         0
 49
-0.0724999979
 74
         0
 49
0.03125
 74
         0
 49
-0.0724999979
 74
         0
 49
0.03125
 74
         0
 49
-0.0724999979
 74
         0
  0
LTYPE
  5
2D
100
AcDbSymbolTableRecord
100
AcDbLinetypeTableRecord
  2
Cutting
 70
        64
  3
Cutting
 72
        65
 73
         6
 40
1.4674999714
 49
1.0
 74
         0
 49
-0.0724999979
 74
         0
 49
0.125
 74
         0
 49
-0.0724999979
 74
         0
 49
0.125
 74
         0
 49
-0.0724999979
 74
         0
  0
LTYPE
  5
2E
100
AcDbSymbolTableRecord
100
AcDbLinetypeTableRecord
  2
Stitch
 70
        64
  3
Stitch
 72
        65
 73
         2
 40
0.1449999958
 49
0.0724999979
 74
         0
 49
-0.0724999979
 74
         0
  0
ENDTAB
  0
TABLE
  2
LAYER
  5
2
100
AcDbSymbolTable
 70
        45
  0
LAYER
  5
14
100
AcDbSymbolTableRecord
100
AcDbLayerTableRecord
  2
0
 70
         0
 62
         7
  6
Continuous
290
         1
370
        -3
390
1D
  0
LAYER
  5
2F
100
AcDbSymbolTableRecord
100
AcDbLayerTableRecord
  2
DF_COMP
 70
         0
 62
         4
  6
Continuous
290
         1
370
         2
390
1F
  0
LAYER
  5
30
100
AcDbSymbolTableRecord
100
AcDbLayerTableRecord
  2
1_250BIT_500DEP
 70
         0
 62
         5
  6
Continuous
290
         1
370
         2
390
1F
  0
LAYER
  5
31
100
AcDbSymbolTableRecord
100
AcDbLayerTableRecord
  2
2_250BIT_250DEP
 70
         0
 62
         3
  6
Continuous
290
         1
370
         2
390
1F
  0
LAYER
  5
32
100
AcDbSymbolTableRecord
100
AcDbLayerTableRecord
  2
3_250BIT_500TAB
 70
         0
 62
         5
  6
Continuous
290
         1
370
         2
390
1F
  0
LAYER
  5
33
100
AcDbSymbolTableRecord
100
AcDbLayerTableRecord
  2
4_250BIT_250TAB
 70
         0
 62
         5
  6
Continuous
290
         1
370
         2
390
1F
  0
LAYER
  5
34
100
AcDbSymbolTableRecord
100
AcDbLayerTableRecord
  2
5_250BIT_250SPEC
 70
         0
 62
         5
  6
Continuous
290
         1
370
         2
390
1F
  0
LAYER
  5
35
100
AcDbSymbolTableRecord
100
AcDbLayerTableRecord
  2
6_125BIT_500DEP
 70
         0
 62
         5
  6
Continuous
290
         1
370
         2
390
1F
  0
LAYER
  5
36
100
AcDbSymbolTableRecord
100
AcDbLayerTableRecord
  2
7_VCARVE_BIT
 70
         0
 62
         5
  6
Continuous
290
         1
370
         2
390
1F
  0
LAYER
  5
37
100
AcDbSymbolTableRecord
100
AcDbLayerTableRecord
  2
8_250BIT_500OUTLINE
 70
         0
 62
         5
  6
Continuous
290
         1
370
         2
390
1F
  0
LAYER
  5
38
100
AcDbSymbolTableRecord
100
AcDbLayerTableRecord
  2
PLASTICS
 70
         0
 62
        37
  6
Continuous
290
         1
370
         2
390
1F
  0
LAYER
  5
39
100
AcDbSymbolTableRecord
100
AcDbLayerTableRecord
  2
7A_1250BALL
 70
         0
 62
         5
  6
Continuous
290
         1
370
         2
390
1F
  0
LAYER
  5
3A
100
AcDbSymbolTableRecord
100
AcDbLayerTableRecord
  2
CONSTRUCTION
 70
         0
 62
         7
  6
Continuous
290
         1
370
         0
390
1F
  0
LAYER
  5
3B
100
AcDbSymbolTableRecord
100
AcDbLayerTableRecord
  2
0_WOOD
 70
         0
 62
         5
  6
Continuous
290
         1
370
         2
390
1F
  0
LAYER
  5
3C
100
AcDbSymbolTableRecord
100
AcDbLayerTableRecord
  2
Z_GLOBETROTTERS_1
 70
         0
 62
        37
  6
Continuous
290
         1
370
         2
390
1F
  0
LAYER
  5
3D
100
AcDbSymbolTableRecord
100
AcDbLayerTableRecord
  2
Z_ROLLRGIRLZ
 70
         0
 62
        37
  6
Continuous
290
         1
370
         2
390
1F
  0
LAYER
  5
3E
100
AcDbSymbolTableRecord
100
AcDbLayerTableRecord
  2
Z_MISSADV
 70
         0
 62
         5
  6
Continuous
290
         1
370
         2
390
1F
  0
LAYER
  5
3F
100
AcDbSymbolTableRecord
100
AcDbLayerTableRecord
  2
Z_JUPITERCRUSH
 70
         0
 62
        37
  6
Continuous
290
         1
370
         2
390
1F
  0
LAYER
  5
40
100
AcDbSymbolTableRecord
100
AcDbLayerTableRecord
  2
Z_MODULAR
 70
         0
 62
         5
  6
Continuous
290
         1
370
         2
390
1F
  0
LAYER
  5
41
100
AcDbSymbolTableRecord
100
AcDbLayerTableRecord
  2
Z_GENERIC
 70
         0
 62
        27
  6
Continuous
290
         1
370
         2
390
1F
  0
LAYER
  5
42
100
AcDbSymbolTableRecord
100
AcDbLayerTableRecord
  2
UNASSIGNED
 70
         0
 62
         7
  6
Continuous
290
         1
370
         0
390
1F
  0
LAYER
  5
43
100
AcDbSymbolTableRecord
100
AcDbLayerTableRecord
  2
0
 70
         0
 62
        42
  6
Continuous
290
         1
370
         2
390
1F
  0
LAYER
  5
44
100
AcDbSymbolTableRecord
100
AcDbLayerTableRecord
  2
LAYER_1
 70
         0
 62
        42
  6
Continuous
290
         1
370
         2
390
1F
  0
LAYER
  5
45
100
AcDbSymbolTableRecord
100
AcDbLayerTableRecord
  2
LAYER_3
 70
         0
 62
         4
  6
Continuous
290
         1
370
         2
390
1F
  0
LAYER
  5
46
100
AcDbSymbolTableRecord
100
AcDbLayerTableRecord
  2
LAYER_2
 70
         0
 62
        42
  6
Continuous
290
         1
370
         2
390
1F
  0
LAYER
  5
47
100
AcDbSymbolTableRecord
100
AcDbLayerTableRecord
  2
X_POSTS
 70
         0
 62
         4
  6
Continuous
290
         1
370
         2
390
1F
  0
LAYER
  5
48
100
AcDbSymbolTableRecord
100
AcDbLayerTableRecord
  2
X_THUMPER
 70
         0
 62
         4
  6
Continuous
290
         1
370
         2
390
1F
  0
LAYER
  5
49
100
AcDbSymbolTableRecord
100
AcDbLayerTableRecord
  2
X_STANDUPS
 70
         0
 62
         4
  6
Continuous
290
         1
370
         2
390
1F
  0
LAYER
  5
4A
100
AcDbSymbolTableRecord
100
AcDbLayerTableRecord
  2
X_DROPS
 70
         0
 62
         4
  6
Continuous
290
         1
370
         2
390
1F
  0
LAYER
  5
4B
100
AcDbSymbolTableRecord
100
AcDbLayerTableRecord
  2
X_SMPOSTS
 70
         0
 62
         4
  6
Continuous
290
         1
370
         2
390
1F
  0
LAYER
  5
4C
100
AcDbSymbolTableRecord
100
AcDbLayerTableRecord
  2
X_ROLLOVER
 70
         0
 62
         4
  6
Continuous
290
         1
370
         2
390
1F
  0
LAYER
  5
4D
100
AcDbSymbolTableRecord
100
AcDbLayerTableRecord
  2
X_WALLS
 70
         0
 62
         4
  6
Continuous
290
         1
370
         2
390
1F
  0
LAYER
  5
4E
100
AcDbSymbolTableRecord
100
AcDbLayerTableRecord
  2
Z0_BOTCOMP
 70
         0
 62
         4
  6
Continuous
290
         1
370
         2
390
1F
  0
LAYER
  5
4F
100
AcDbSymbolTableRecord
100
AcDbLayerTableRecord
  2
Z0_TOPCOMP
 70
         0
 62
         6
  6
Continuous
290
         1
370
         2
390
1F
  0
LAYER
  5
50
100
AcDbSymbolTableRecord
100
AcDbLayerTableRecord
  2
Z0_CUT250
 70
         0
 62
         4
  6
Continuous
290
         1
370
         2
390
1F
  0
LAYER
  5
51
100
AcDbSymbolTableRecord
100
AcDbLayerTableRecord
  2
Z0_CUT500
 70
         0
 62
         4
  6
Continuous
290
         1
370
         2
390
1F
  0
LAYER
  5
52
100
AcDbSymbolTableRecord
100
AcDbLayerTableRecord
  2
Z0_PLASTICS
 70
         0
 62
        37
  6
Continuous
290
         1
370
         2
390
1F
  0
LAYER
  5
53
100
AcDbSymbolTableRecord
100
AcDbLayerTableRecord
  2
Z0_RUBBER
 70
         0
 62
         2
  6
Continuous
290
         1
370
         2
390
1F
  0
LAYER
  5
54
100
AcDbSymbolTableRecord
100
AcDbLayerTableRecord
  2
Z0_ZONES
 70
         0
 62
         6
  6
Continuous
290
         1
370
         2
390
1F
  0
LAYER
  5
55
100
AcDbSymbolTableRecord
100
AcDbLayerTableRecord
  2
Z0_WOODOUTLINE
 70
         0
 62
         5
  6
Continuous
290
         1
370
         2
390
1F
  0
LAYER
  5
56
100
AcDbSymbolTableRecord
100
AcDbLayerTableRecord
  2
Z0_LOWERTHIRD
 70
         0
 62
         4
  6
Continuous
290
         1
370
         2
390
1F
  0
LAYER
  5
57
100
AcDbSymbolTableRecord
100
AcDbLayerTableRecord
  2
PART_A
 70
         0
 62
         4
  6
Continuous
290
         1
370
         2
390
1F
  0
LAYER
  5
58
100
AcDbSymbolTableRecord
100
AcDbLayerTableRecord
  2
Z_ROLLINGSTONES_1
 70
         0
 62
         4
  6
Continuous
290
         1
370
         2
390
1F
  0
LAYER
  5
59
100
AcDbSymbolTableRecord
100
AcDbLayerTableRecord
  2
Z_GLOBETROTTERS_2
 70
         0
 62
         4
  6
Continuous
290
         1
370
         2
390
1F
  0
LAYER
  5
5A
100
AcDbSymbolTableRecord
100
AcDbLayerTableRecord
  2
Z_ROLLINGSTONES_2
 70
         0
 62
         4
  6
Continuous
290
         1
370
         2
390
1F
  0
ENDTAB
  0
TABLE
  2
STYLE
  5
3
100
AcDbSymbolTable
 70
         2
  0
STYLE
  5
17
100
AcDbSymbolTableRecord
100
AcDbTextStyleTableRecord
  2
Standard
 70
         0
 40
0.0
 41
1.0
 50
0.0
 71
         0
 42
0.0
  3
txt
  4

  0
STYLE
  5
24
100
AcDbSymbolTableRecord
100
AcDbTextStyleTableRecord
  2
Plotter
 70
         0
 40
0.0
 41
0.98
 50
0.0
 71
         0
 42
0.0
  3
SIMPLEX
  4

  0
ENDTAB
  0
TABLE
  2
VIEW
  5
5
100
AcDbSymbolTable
 70
         0
  0
ENDTAB
  0
TABLE
  2
UCS
  5
6
100
AcDbSymbolTable
 70
         0
  0
ENDTAB
  0
TABLE
  2
APPID
  5
8
100
AcDbSymbolTable
 70
         1
  0
APPID
  5
16
100
AcDbSymbolTableRecord
100
AcDbRegAppTableRecord
  2
ACAD
 70
         0
  0
ENDTAB
  0
TABLE
  2
DIMSTYLE
  5
9
100
AcDbSymbolTable
 70
         1
100
AcDbDimStyleTable
 71
         0
  0
DIMSTYLE
105
18
100
AcDbSymbolTableRecord
100
AcDbDimStyleTableRecord
  2
Standard
 70
         0
  3

  4

 40
1.0
 41
0.18
 42
0.0625
 43
0.38
 44
0.18
 45
0.0
 46
0.0
 47
0.0
 48
0.0
 71
         0
 72
         0
 73
         1
 74
         1
 75
         0
 76
         0
 77
         0
 78
         0
 79
         0
140
0.18
141
0.09
142
0.0
143
25.4
144
1.0
145
0.0
146
1.0
147
0.09
148
0.0
170
         0
171
         2
172
         0
173
         0
174
         0
175
         0
176
         0
177
         0
178
         0
179
         0
271
         4
272
         4
273
         2
274
         2
275
         0
276
         0
277
         2
278
        46
279
         0
280
         0
281
         0
282
         0
283
         1
284
         0
285
         0
286
         0
288
         0
340
17
341
0
342
0
343
0
344
0
371
        -2
372
        -2
  0
ENDTAB
  0
TABLE
  2
BLOCK_RECORD
  5
1
100
AcDbSymbolTable
 70
         0
  0
BLOCK_RECORD
  5
A
100
AcDbSymbolTableRecord
100
AcDbBlockTableRecord
  2
*MODEL_SPACE
340
20
  0
BLOCK_RECORD
  5
B
100
AcDbSymbolTableRecord
100
AcDbBlockTableRecord
  2
*PAPER_SPACE
340
21
  0
ENDTAB
  0
ENDSEC
  0
SECTION
  2
BLOCKS
  0
BLOCK
  5
D
100
AcDbEntity
  8
0
100
AcDbBlockBegin
  2
*MODEL_SPACE
 70
         0
 10
0.0
 20
0.0
 30
0.0
  3
*MODEL_SPACE
  1

  0
ENDBLK
  5
E
100
AcDbEntity
  8
0
100
AcDbBlockEnd
  0
BLOCK
  5
F
100
AcDbEntity
 67
         1
  8
0
100
AcDbBlockBegin
  2
*PAPER_SPACE
 70
         0
 10
0.0
 20
0.0
 30
0.0
  3
*PAPER_SPACE
  1

  0
ENDBLK
  5
10
100
AcDbEntity
 67
         1
  8
0
100
AcDbBlockEnd
  0
ENDSEC
  0
SECTION
  2
ENTITIES
  0
ARC
  5
5B
100
AcDbEntity
  8
Z0_CUT500
370
         5
  6
Continuous
 62
        47
100
AcDbCircle
 10
12.8478921162
 20
6.9728522391
 30
0.0
 40
0.596
100
AcDbArc
 50
4.8172427365
 51
71.123433415
  0
LINE
  5
5C
100
AcDbEntity
  8
Z0_CUT500
370
         5
  6
Continuous
 62
        47
100
AcDbLine
 10
13.0230848302
 20
7.7657665106
 30
0.0
 11
15.8163633918
 21
9.2312239735
 31
0.0
  0
CIRCLE
  5
5D
100
AcDbEntity
  8
3_250BIT_500TAB
370
        25
  6
Continuous
 62
         5
100
AcDbCircle
 10
12.7890460536
 20
6.9625996763
 30
0.0
 40
0.25
  0
CIRCLE
  5
5E
100
AcDbEntity
  8
Z0_CUT500
370
         5
  6
Continuous
 62
        47
100
AcDbCircle
 10
14.4301156946
 20
7.9260863342
 30
0.0
 40
0.0825
  0
ARC
  5
5F
100
AcDbEntity
  8
Z0_CUT500
370
         5
  6
Continuous
 62
        47
100
AcDbCircle
 10
16.0934192317
 20
9.1543362136
 30
0.0
 40
0.5
100
AcDbArc
 50
-56.5204004013
 51
3.0099896201
  0
ARC
  5
60
100
AcDbEntity
  8
Z0_CUT250
370
         5
  6
Continuous
 62
         6
100
AcDbCircle
 10
16.0934192317
 20
9.1543362136
 30
0.0
 40
0.4
100
AcDbArc
 50
-56.5204004013
 51
3.0099896201
  0
ARC
  5
61
100
AcDbEntity
  8
Z0_CUT500
370
         5
  6
Continuous
 62
        47
100
AcDbCircle
 10
15.5840724256
 20
9.6739890433
 30
0.0
 40
0.5
100
AcDbArc
 50
-62.3168312143
 51
-20.4204869097
  0
ARC
  5
62
100
AcDbEntity
  8
Z0_CUT250
370
         5
  6
Continuous
 62
         6
100
AcDbCircle
 10
16.4180208562
 20
10.1226495178
 30
0.0
 40
0.025
100
AcDbArc
 50
3.0099896201
 51
159.5795130902
  0
LINE
  5
63
100
AcDbEntity
  8
Z0_CUT250
370
         5
  6
Continuous
 62
         6
100
AcDbLine
 10
13.5801362799
 20
7.0125481228
 30
0.0
 11
16.3140752485
 21
8.8207032981
 31
0.0
  0
ARC
  5
64
100
AcDbEntity
  8
Z0_CUT250
370
         5
  6
Continuous
 62
         6
100
AcDbCircle
 10
13.5663452789
 20
7.03340018
 30
0.0
 40
0.025
100
AcDbArc
 50
-175.1827572635
 51
-56.5204004013
  0
LINE
  5
65
100
AcDbEntity
  8
Z0_CUT250
370
         5
  6
Continuous
 62
         6
100
AcDbLine
 10
16.442986366
 20
10.1239622695
 30
0.0
 11
16.4928673896
 21
9.1753402409
 31
0.0
  0
LINE
  5
66
100
AcDbEntity
  8
6_125BIT_500DEP
370
        25
  6
Continuous
 62
         5
100
AcDbLine
 10
15.8617962104
 20
11.342424682
 30
0.0
 11
15.4671540281
 21
9.6888656271
 31
0.0
  0
ARC
  5
67
100
AcDbEntity
  8
6_125BIT_500DEP
370
        25
  6
Continuous
 62
         5
100
AcDbCircle
 10
15.7742548487
 20
11.3633175034
 30
0.0
 40
0.09
100
AcDbArc
 50
-13.423240221
 51
166.576759779
  0
ARC
  5
68
100
AcDbEntity
  8
6_125BIT_500DEP
370
        25
  6
Continuous
 62
         5
100
AcDbCircle
 10
15.3796126663
 20
9.7097584485
 30
0.0
 40
0.09
100
AcDbArc
 50
166.5767597791
 51
-13.423240221
  0
LINE
  5
69
100
AcDbEntity
  8
6_125BIT_500DEP
370
        25
  6
Continuous
 62
         5
100
AcDbLine
 10
15.6867134869
 20
11.3842103248
 30
0.0
 11
15.2920713046
 21
9.7306512699
 31
0.0
  0
ARC
  5
6A
100
AcDbEntity
  8
6_125BIT_500DEP
370
        25
  6
Continuous
 62
         5
100
AcDbCircle
 10
17.2503958087
 20
8.7956341314
 30
0.0
 40
0.09
100
AcDbArc
 50
180.0
 51
0.0
  0
CIRCLE
  5
6B
100
AcDbEntity
  8
3_250BIT_500TAB
370
        25
  6
Continuous
 62
         5
100
AcDbCircle
 10
13.9374214146
 20
10.921875
 30
0.0
 40
0.25
  0
CIRCLE
  5
6C
100
AcDbEntity
  8
X_DROPS
370
         5
  6
Continuous
 62
         5
100
AcDbCircle
 10
11.8866550086
 20
14.0496875807
 30
0.0
 40
0.4281496063
  0
CIRCLE
  5
6D
100
AcDbEntity
  8
X_SMPOSTS
370
        25
  6
Continuous
 62
         3
100
AcDbCircle
 10
11.8866550086
 20
14.0496875807
 30
0.0
 40
0.5110787402
  0
ARC
  5
6E
100
AcDbEntity
  8
Z0_CUT250
370
         5
  6
Continuous
 62
         6
100
AcDbCircle
 10
13.0811575717
 20
7.6550752432
 30
0.0
 40
0.025
100
AcDbArc
 50
117.6831687856
 51
-108.876566585
  0
ARC
  5
6F
100
AcDbEntity
  8
Z0_CUT500
370
         5
  6
Continuous
 62
        47
100
AcDbCircle
 10
13.0811575717
 20
7.6550752432
 30
0.0
 40
0.125
100
AcDbArc
 50
117.6831687857
 51
-108.876566585
  0
CIRCLE
  5
70
100
AcDbEntity
  8
Z0_CUT250
370
         5
  6
Continuous
 62
        47
100
AcDbCircle
 10
14.5782171257
 20
13.6159447542
 30
0.0
 40
0.075
  0
LINE
  5
71
100
AcDbEntity
  8
DF_COMP
370
        25
  6
Continuous
 62
         4
100
AcDbLine
 10
18.5701669428
 20
7.0599763391
 30
0.0
 11
18.5701669428
 21
7.0599763391
 31
0.0
  0
ARC
  5
72
102
{ACAD_REACTORS
330
7D
102
}
100
AcDbEntity
  8
UNASSIGNED
370
        25
  6
Continuous
 62
         4
100
AcDbCircle
 10
14.4301156946
 20
7.9260863342
 30
0.0
 40
0.285
100
AcDbArc
 50
93.0099896201
 51
167.5779182695
  0
ARC
  5
73
102
{ACAD_REACTORS
330
7D
102
}
100
AcDbEntity
  8
UNASSIGNED
370
        25
  6
Continuous
 62
         4
100
AcDbCircle
 10
14.4301156946
 20
7.9260863342
 30
0.0
 40
0.285
100
AcDbArc
 50
-146.9900103799
 51
-72.4220817304
  0
ARC
  5
74
102
{ACAD_REACTORS
330
7D
102
}
100
AcDbEntity
  8
UNASSIGNED
370
        25
  6
Continuous
 62
         4
100
AcDbCircle
 10
14.4301156946
 20
7.9260863342
 30
0.0
 40
0.285
100
AcDbArc
 50
-26.9900103799
 51
47.5779182695
  0
LINE
  5
75
102
{ACAD_REACTORS
330
7D
102
}
100
AcDbEntity
  8
UNASSIGNED
370
        25
  6
Continuous
 62
         4
100
AcDbLine
 10
14.1911216496
 20
7.7708225378
 30
0.0
 11
14.2624005753
 21
7.8171292841
 31
0.0
  0
LINE
  5
76
102
{ACAD_REACTORS
330
7D
102
}
100
AcDbEntity
  8
UNASSIGNED
370
        25
  6
Continuous
 62
         4
100
AcDbLine
 10
14.2624005753
 20
7.8171292841
 30
0.0
 11
14.1517877022
 21
7.9873931743
 31
0.0
  0
LINE
  5
77
102
{ACAD_REACTORS
330
7D
102
}
100
AcDbEntity
  8
UNASSIGNED
370
        25
  6
Continuous
 62
         4
100
AcDbLine
 10
14.6840751091
 20
7.7967433181
 30
0.0
 11
14.6083328276
 21
7.8353193053
 31
0.0
  0
LINE
  5
78
102
{ACAD_REACTORS
330
7D
102
}
100
AcDbEntity
  8
UNASSIGNED
370
        25
  6
Continuous
 62
         4
100
AcDbLine
 10
14.6083328276
 20
7.8353193053
 30
0.0
 11
14.5161864099
 21
7.6543938021
 31
0.0
  0
LINE
  5
79
102
{ACAD_REACTORS
330
7D
102
}
100
AcDbEntity
  8
UNASSIGNED
370
        25
  6
Continuous
 62
         4
100
AcDbLine
 10
14.419613681
 20
8.1258104131
 30
0.0
 11
14.6223729718
 21
8.1364720261
 31
0.0
  0
LINE
  5
7A
102
{ACAD_REACTORS
330
7D
102
}
100
AcDbEntity
  8
UNASSIGNED
370
        25
  6
Continuous
 62
         4
100
AcDbLine
 10
14.4151503252
 20
8.2106931467
 30
0.0
 11
14.419613681
 21
8.1258104131
 31
0.0
  0
CIRCLE
  5
7B
102
{ACAD_REACTORS
330
7D
102
}
100
AcDbEntity
  8
UNASSIGNED
370
        25
  6
Continuous
 62
         4
100
AcDbCircle
 10
14.4301156946
 20
7.9260863342
 30
0.0
 40
0.059
  0
CIRCLE
  5
7C
102
{ACAD_REACTORS
330
7D
102
}
100
AcDbEntity
  8
UNASSIGNED
370
        25
  6
Continuous
 62
         4
100
AcDbCircle
 10
14.4301156946
 20
7.9260863342
 30
0.0
 40
0.085
  0
ARC
  5
7E
102
{ACAD_REACTORS
330
89
102
}
100
AcDbEntity
  8
UNASSIGNED
370
        25
  6
Continuous
 62
         4
100
AcDbCircle
 10
15.7337417242
 20
8.663860362
 30
0.0
 40
0.285
100
AcDbArc
 50
93.0099896201
 51
167.5779182695
  0
ARC
  5
7F
102
{ACAD_REACTORS
330
89
102
}
100
AcDbEntity
  8
UNASSIGNED
370
        25
  6
Continuous
 62
         4
100
AcDbCircle
 10
15.7337417242
 20
8.663860362
 30
0.0
 40
0.285
100
AcDbArc
 50
-146.9900103799
 51
-72.4220817304
  0
ARC
  5
80
102
{ACAD_REACTORS
330
89
102
}
100
AcDbEntity
  8
UNASSIGNED
370
        25
  6
Continuous
 62
         4
100
AcDbCircle
 10
15.7337417242
 20
8.663860362
 30
0.0
 40
0.285
100
AcDbArc
 50
-26.9900103799
 51
47.5779182695
  0
LINE
  5
81
102
{ACAD_REACTORS
330
89
102
}
100
AcDbEntity
  8
UNASSIGNED
370
        25
  6
Continuous
 62
         4
100
AcDbLine
 10
15.4947476793
 20
8.5085965657
 30
0.0
 11
15.566026605
 21
8.5549033119
 31
0.0
  0
LINE
  5
82
102
{ACAD_REACTORS
330
89
102
}
100
AcDbEntity
  8
UNASSIGNED
370
        25
  6
Continuous
 62
         4
100
AcDbLine
 10
15.566026605
 20
8.5549033119
 30
0.0
 11
15.4554137318
 21
8.7251672021
 31
0.0
  0
LINE
  5
83
102
{ACAD_REACTORS
330
89
102
}
100
AcDbEntity
  8
UNASSIGNED
370
        25
  6
Continuous
 62
         4
100
AcDbLine
 10
15.9877011387
 20
8.5345173459
 30
0.0
 11
15.9119588572
 21
8.5730933332
 31
0.0
  0
LINE
  5
84
102
{ACAD_REACTORS
330
89
102
}
100
AcDbEntity
  8
UNASSIGNED
370
        25
  6
Continuous
 62
         4
100
AcDbLine
 10
15.9119588572
 20
8.5730933332
 30
0.0
 11
15.8198124395
 21
8.39216783
 31
0.0
  0
LINE
  5
85
102
{ACAD_REACTORS
330
89
102
}
100
AcDbEntity
  8
UNASSIGNED
370
        25
  6
Continuous
 62
         4
100
AcDbLine
 10
15.7232397106
 20
8.863584441
 30
0.0
 11
15.9259990014
 21
8.874246054
 31
0.0
  0
LINE
  5
86
102
{ACAD_REACTORS
330
89
102
}
100
AcDbEntity
  8
UNASSIGNED
370
        25
  6
Continuous
 62
         4
100
AcDbLine
 10
15.7187763548
 20
8.9484671745
 30
0.0
 11
15.7232397106
 21
8.863584441
 31
0.0
  0
CIRCLE
  5
87
102
{ACAD_REACTORS
330
89
102
}
100
AcDbEntity
  8
UNASSIGNED
370
        25
  6
Continuous
 62
         4
100
AcDbCircle
 10
15.7337417242
 20
8.663860362
 30
0.0
 40
0.059
  0
CIRCLE
  5
88
102
{ACAD_REACTORS
330
89
102
}
100
AcDbEntity
  8
UNASSIGNED
370
        25
  6
Continuous
 62
         4
100
AcDbCircle
 10
15.7337417242
 20
8.663860362
 30
0.0
 40
0.085
  0
LINE
  5
8A
100
AcDbEntity
  8
Z0_CUT500
370
         5
  6
Continuous
 62
        47
100
AcDbLine
 10
16.3008761946
 20
10.1662629132
 30
0.0
 11
16.052651072
 21
9.4995354617
 31
0.0
  0
LINE
  5
8B
100
AcDbEntity
  8
Z0_CUT250
370
         5
  6
Continuous
 62
         6
100
AcDbLine
 10
16.3945919238
 20
10.1313721969
 30
0.0
 11
16.1463668013
 21
9.4646447453
 31
0.0
  0
ARC
  5
8C
100
AcDbEntity
  8
Z0_CUT500
370
         5
  6
Continuous
 62
        47
100
AcDbCircle
 10
13.5663452789
 20
7.03340018
 30
0.0
 40
0.125
100
AcDbArc
 50
-175.1827572635
 51
-56.5204004013
  0
LINE
  5
8D
100
AcDbEntity
  8
Z0_CUT500
370
         5
  6
Continuous
 62
        47
100
AcDbLine
 10
16.5428484055
 20
10.1292132764
 30
0.0
 11
16.5927294291
 21
9.1805912477
 31
0.0
  0
CIRCLE
  5
8E
100
AcDbEntity
  8
Z0_CUT500
370
         5
  6
Continuous
 62
        47
100
AcDbCircle
 10
14.949954711
 20
8.2159064875
 30
0.0
 40
0.25
  0
CIRCLE
  5
8F
100
AcDbEntity
  8
Z0_CUT500
370
         5
  6
Continuous
 62
        47
100
AcDbCircle
 10
15.7337417242
 20
8.663860362
 30
0.0
 40
0.0825
  0
ARC
  5
90
102
{ACAD_REACTORS
330
9B
102
}
100
AcDbEntity
  8
UNASSIGNED
370
        25
  6
Continuous
 62
         4
100
AcDbCircle
 10
14.1295818562
 20
10.0646716012
 30
0.0
 40
0.285
100
AcDbArc
 50
100.0
 51
174.5679286494
  0
ARC
  5
91
102
{ACAD_REACTORS
330
9B
102
}
100
AcDbEntity
  8
UNASSIGNED
370
        25
  6
Continuous
 62
         4
100
AcDbCircle
 10
14.1295818562
 20
10.0646716012
 30
0.0
 40
0.285
100
AcDbArc
 50
-140.0
 51
-65.4320713506
  0
ARC
  5
92
102
{ACAD_REACTORS
330
9B
102
}
100
AcDbEntity
  8
UNASSIGNED
370
        25
  6
Continuous
 62
         4
100
AcDbCircle
 10
14.1295818562
 20
10.0646716012
 30
0.0
 40
0.285
100
AcDbArc
 50
-20.0
 51
54.5679286494
  0
LINE
  5
93
102
{ACAD_REACTORS
330
9B
102
}
100
AcDbEntity
  8
UNASSIGNED
370
        25
  6
Continuous
 62
         4
100
AcDbLine
 10
13.9112591899
 20
9.8814771325
 30
0.0
 11
13.9763729675
 21
9.9361140793
 31
0.0
  0
LINE
  5
94
102
{ACAD_REACTORS
330
9B
102
}
100
AcDbEntity
  8
UNASSIGNED
370
        25
  6
Continuous
 62
         4
100
AcDbLine
 10
13.9763729675
 20
9.9361140793
 30
0.0
 11
13.8458617537
 21
10.0916512873
 31
0.0
  0
LINE
  5
95
102
{ACAD_REACTORS
330
9B
102
}
100
AcDbEntity
  8
UNASSIGNED
370
        25
  6
Continuous
 62
         4
100
AcDbLine
 10
14.3973942531
 20
9.9671958604
 30
0.0
 11
14.3175203803
 21
9.9962675726
 31
0.0
  0
LINE
  5
96
102
{ACAD_REACTORS
330
9B
102
}
100
AcDbEntity
  8
UNASSIGNED
370
        25
  6
Continuous
 62
         4
100
AcDbLine
 10
14.3175203803
 20
9.9962675726
 30
0.0
 11
14.2480768139
 21
9.8054729419
 31
0.0
  0
LINE
  5
97
102
{ACAD_REACTORS
330
9B
102
}
100
AcDbEntity
  8
UNASSIGNED
370
        25
  6
Continuous
 62
         4
100
AcDbLine
 10
14.0948522206
 20
10.2616331518
 30
0.0
 11
14.2948070009
 21
10.2968905745
 31
0.0
  0
LINE
  5
98
102
{ACAD_REACTORS
330
9B
102
}
100
AcDbEntity
  8
UNASSIGNED
370
        25
  6
Continuous
 62
         4
100
AcDbLine
 10
14.0800921255
 20
10.3453418109
 30
0.0
 11
14.0948522206
 21
10.2616331518
 31
0.0
  0
CIRCLE
  5
99
102
{ACAD_REACTORS
330
9B
102
}
100
AcDbEntity
  8
UNASSIGNED
370
        25
  6
Continuous
 62
         4
100
AcDbCircle
 10
14.1295818562
 20
10.0646716012
 30
0.0
 40
0.059
  0
CIRCLE
  5
9A
102
{ACAD_REACTORS
330
9B
102
}
100
AcDbEntity
  8
UNASSIGNED
370
        25
  6
Continuous
 62
         4
100
AcDbCircle
 10
14.1295818562
 20
10.0646716012
 30
0.0
 40
0.085
  0
CIRCLE
  5
9C
102
{ACAD_REACTORS
330
9E
102
}
100
AcDbEntity
  8
Z0_RUBBER
370
        25
  6
Continuous
 62
         2
100
AcDbCircle
 10
16.4180208562
 20
10.6226495178
 30
0.0
 40
0.215
  0
CIRCLE
  5
9D
102
{ACAD_REACTORS
330
9E
102
}
100
AcDbEntity
  8
Z0_RUBBER
370
        25
  6
Continuous
 62
         2
100
AcDbCircle
 10
16.4180208562
 20
10.6226495178
 30
0.0
 40
0.07
  0
ARC
  5
9F
100
AcDbEntity
  8
Z0_CUT250
370
         5
  6
Continuous
 62
         6
100
AcDbCircle
 10
15.5840724256
 20
9.6739890433
 30
0.0
 40
0.6
100
AcDbArc
 50
-62.3168312143
 51
-20.4204869097
  0
ARC
  5
A0
100
AcDbEntity
  8
Z0_CUT500
370
         5
  6
Continuous
 62
        47
100
AcDbCircle
 10
16.4180208562
 20
10.1226495178
 30
0.0
 40
0.125
100
AcDbArc
 50
3.0099896201
 51
159.5795130903
  0
LINE
  5
A1
100
AcDbEntity
  8
Z0_CUT500
370
         5
  6
Continuous
 62
        47
100
AcDbLine
 10
13.6353002841
 20
6.9291398939
 30
0.0
 11
16.3692392526
 21
8.7372950692
 31
0.0
  0
CIRCLE
  5
A2
100
AcDbEntity
  8
6_125BIT_500DEP
370
        25
  6
Continuous
 62
         5
100
AcDbCircle
 10
15.7337417242
 20
8.663860362
 30
0.0
 40
0.0825
  0
CIRCLE
  5
A3
100
AcDbEntity
  8
6_125BIT_500DEP
370
        25
  6
Continuous
 62
         5
100
AcDbCircle
 10
14.4301156946
 20
7.9260863342
 30
0.0
 40
0.0825
  0
CIRCLE
  5
A4
100
AcDbEntity
  8
3_250BIT_500TAB
370
        25
  6
Continuous
 62
         5
100
AcDbCircle
 10
14.949954711
 20
8.2159064875
 30
0.0
 40
0.25
  0
ARC
  5
A5
100
AcDbEntity
  8
Z0_CUT250
370
         5
  6
Continuous
 62
         6
100
AcDbCircle
 10
12.8478921162
 20
6.9728522391
 30
0.0
 40
0.696
100
AcDbArc
 50
4.8172427365
 51
71.123433415
  0
ARC
  5
A6
102
{ACAD_REACTORS
330
B1
102
}
100
AcDbEntity
  8
UNASSIGNED
370
        25
  6
Continuous
 62
         4
100
AcDbCircle
 10
12.948587496
 20
9.6845823203
 30
0.0
 40
0.285
100
AcDbArc
 50
90.0
 51
164.5679286494
  0
ARC
  5
A7
102
{ACAD_REACTORS
330
B1
102
}
100
AcDbEntity
  8
UNASSIGNED
370
        25
  6
Continuous
 62
         4
100
AcDbCircle
 10
12.948587496
 20
9.6845823203
 30
0.0
 40
0.285
100
AcDbArc
 50
-150.0
 51
-75.4320713506
  0
ARC
  5
A8
102
{ACAD_REACTORS
330
B1
102
}
100
AcDbEntity
  8
UNASSIGNED
370
        25
  6
Continuous
 62
         4
100
AcDbCircle
 10
12.948587496
 20
9.6845823203
 30
0.0
 40
0.285
100
AcDbArc
 50
-30.0
 51
44.5679286494
  0
LINE
  5
A9
102
{ACAD_REACTORS
330
B1
102
}
100
AcDbEntity
  8
UNASSIGNED
370
        25
  6
Continuous
 62
         4
100
AcDbLine
 10
12.701770256
 20
9.5420823203
 30
0.0
 11
12.7753824153
 21
9.5845823203
 31
0.0
  0
LINE
  5
AA
102
{ACAD_REACTORS
330
B1
102
}
100
AcDbEntity
  8
UNASSIGNED
370
        25
  6
Continuous
 62
         4
100
AcDbLine
 10
12.7753824153
 20
9.5845823203
 30
0.0
 11
12.6738627128
 21
9.760419603
 31
0.0
  0
LINE
  5
AB
102
{ACAD_REACTORS
330
B1
102
}
100
AcDbEntity
  8
UNASSIGNED
370
        25
  6
Continuous
 62
         4
100
AcDbLine
 10
13.1954047361
 20
9.5420823203
 30
0.0
 11
13.1217925768
 21
9.5845823203
 31
0.0
  0
LINE
  5
AC
102
{ACAD_REACTORS
330
B1
102
}
100
AcDbEntity
  8
UNASSIGNED
370
        25
  6
Continuous
 62
         4
100
AcDbLine
 10
13.1217925768
 20
9.5845823203
 30
0.0
 11
13.0202728743
 21
9.4087450376
 31
0.0
  0
LINE
  5
AD
102
{ACAD_REACTORS
330
B1
102
}
100
AcDbEntity
  8
UNASSIGNED
370
        25
  6
Continuous
 62
         4
100
AcDbLine
 10
12.948587496
 20
9.8845823203
 30
0.0
 11
13.1516269011
 21
9.8845823203
 31
0.0
  0
LINE
  5
AE
102
{ACAD_REACTORS
330
B1
102
}
100
AcDbEntity
  8
UNASSIGNED
370
        25
  6
Continuous
 62
         4
100
AcDbLine
 10
12.948587496
 20
9.9695823203
 30
0.0
 11
12.948587496
 21
9.8845823203
 31
0.0
  0
CIRCLE
  5
AF
102
{ACAD_REACTORS
330
B1
102
}
100
AcDbEntity
  8
UNASSIGNED
370
        25
  6
Continuous
 62
         4
100
AcDbCircle
 10
12.948587496
 20
9.6845823203
 30
0.0
 40
0.059
  0
CIRCLE
  5
B0
102
{ACAD_REACTORS
330
B1
102
}
100
AcDbEntity
  8
UNASSIGNED
370
        25
  6
Continuous
 62
         4
100
AcDbCircle
 10
12.948587496
 20
9.6845823203
 30
0.0
 40
0.085
  0
LINE
  5
B2
100
AcDbEntity
  8
Z0_CUT250
370
         5
  6
Continuous
 62
        47
100
AcDbLine
 10
15.3772045834
 20
12.2950644729
 30
0.0
 11
14.9458082736
 21
13.7736683985
 31
0.0
  0
ARC
  5
B3
102
{ACAD_REACTORS
330
BE
102
}
100
AcDbEntity
  8
UNASSIGNED
370
        25
  6
Continuous
 62
         4
100
AcDbCircle
 10
14.5782171257
 20
13.6159447542
 30
0.0
 40
0.285
100
AcDbArc
 50
90.0
 51
164.5679286494
  0
ARC
  5
B4
102
{ACAD_REACTORS
330
BE
102
}
100
AcDbEntity
  8
UNASSIGNED
370
        25
  6
Continuous
 62
         4
100
AcDbCircle
 10
14.5782171257
 20
13.6159447542
 30
0.0
 40
0.285
100
AcDbArc
 50
-150.0
 51
-75.4320713505
  0
ARC
  5
B5
102
{ACAD_REACTORS
330
BE
102
}
100
AcDbEntity
  8
UNASSIGNED
370
        25
  6
Continuous
 62
         4
100
AcDbCircle
 10
14.5782171257
 20
13.6159447542
 30
0.0
 40
0.285
100
AcDbArc
 50
-30.0
 51
44.5679286494
  0
LINE
  5
B6
102
{ACAD_REACTORS
330
BE
102
}
100
AcDbEntity
  8
UNASSIGNED
370
        25
  6
Continuous
 62
         4
100
AcDbLine
 10
14.3313998856
 20
13.4734447542
 30
0.0
 11
14.4050120449
 21
13.5159447542
 31
0.0
  0
LINE
  5
B7
102
{ACAD_REACTORS
330
BE
102
}
100
AcDbEntity
  8
UNASSIGNED
370
        25
  6
Continuous
 62
         4
100
AcDbLine
 10
14.4050120449
 20
13.5159447542
 30
0.0
 11
14.3034923424
 21
13.6917820369
 31
0.0
  0
LINE
  5
B8
102
{ACAD_REACTORS
330
BE
102
}
100
AcDbEntity
  8
UNASSIGNED
370
        25
  6
Continuous
 62
         4
100
AcDbLine
 10
14.8250343657
 20
13.4734447542
 30
0.0
 11
14.7514222064
 21
13.5159447542
 31
0.0
  0
LINE
  5
B9
102
{ACAD_REACTORS
330
BE
102
}
100
AcDbEntity
  8
UNASSIGNED
370
        25
  6
Continuous
 62
         4
100
AcDbLine
 10
14.7514222064
 20
13.5159447542
 30
0.0
 11
14.6499025039
 21
13.3401074714
 31
0.0
  0
LINE
  5
BA
102
{ACAD_REACTORS
330
BE
102
}
100
AcDbEntity
  8
UNASSIGNED
370
        25
  6
Continuous
 62
         4
100
AcDbLine
 10
14.5782171257
 20
13.8159447542
 30
0.0
 11
14.7812565307
 21
13.8159447542
 31
0.0
  0
LINE
  5
BB
102
{ACAD_REACTORS
330
BE
102
}
100
AcDbEntity
  8
UNASSIGNED
370
        25
  6
Continuous
 62
         4
100
AcDbLine
 10
14.5782171257
 20
13.9009447542
 30
0.0
 11
14.5782171257
 21
13.8159447542
 31
0.0
  0
CIRCLE
  5
BC
102
{ACAD_REACTORS
330
BE
102
}
100
AcDbEntity
  8
UNASSIGNED
370
        25
  6
Continuous
 62
         4
100
AcDbCircle
 10
14.5782171257
 20
13.6159447542
 30
0.0
 40
0.059
  0
CIRCLE
  5
BD
102
{ACAD_REACTORS
330
BE
102
}
100
AcDbEntity
  8
UNASSIGNED
370
        25
  6
Continuous
 62
         4
100
AcDbCircle
 10
14.5782171257
 20
13.6159447542
 30
0.0
 40
0.085
  0
CIRCLE
  5
BF
100
AcDbEntity
  8
X_ROLLOVER
370
        25
  6
Continuous
 62
        27
100
AcDbCircle
 10
14.5782171257
 20
13.6159447542
 30
0.0
 40
0.075
  0
CIRCLE
  5
C0
100
AcDbEntity
  8
6_125BIT_500DEP
370
        25
  6
Continuous
 62
         5
100
AcDbCircle
 10
14.5782171257
 20
13.6159447542
 30
0.0
 40
0.0825
  0
CIRCLE
  5
C1
100
AcDbEntity
  8
X_ROLLOVER
370
        25
  6
Continuous
 62
        27
100
AcDbCircle
 10
14.5782171257
 20
13.6159447542
 30
0.0
 40
0.35
  0
ARC
  5
C2
100
AcDbEntity
  8
Z0_CUT500
370
         5
  6
Continuous
 62
        47
100
AcDbCircle
 10
14.5782161125
 20
13.6161087601
 30
0.0
 40
0.4999362906
100
AcDbArc
 50
23.2012426298
 51
157.5066488584
  0
CIRCLE
  5
C3
100
AcDbEntity
  8
6_125BIT_500DEP
370
        25
  6
Continuous
 62
         5
100
AcDbCircle
 10
17.3470528562
 20
12.2348468706
 30
0.0
 40
0.1225
  0
CIRCLE
  5
C4
102
{ACAD_REACTORS
330
C6
102
}
100
AcDbEntity
  8
0
370
        25
  6
Continuous
 62
        30
100
AcDbCircle
 10
17.3470528562
 20
12.2348468706
 30
0.0
 40
0.215
  0
CIRCLE
  5
C5
102
{ACAD_REACTORS
330
C6
102
}
100
AcDbEntity
  8
0
370
        25
  6
Continuous
 62
        30
100
AcDbCircle
 10
17.3470528562
 20
12.2348468706
 30
0.0
 40
0.07
  0
ARC
  5
C7
100
AcDbEntity
  8
Z0_CUT500
370
         5
  6
Continuous
 62
        47
100
AcDbCircle
 10
14.1499809116
 20
10.0429618796
 30
0.0
 40
0.3799236123
100
AcDbArc
 50
-69.8233838435
 51
-23.4304765298
  0
LINE
  5
C8
100
AcDbEntity
  8
Z0_CUT500
370
         5
  6
Continuous
 62
        47
100
AcDbLine
 10
13.1086994045
 20
9.2111409574
 30
0.0
 11
14.2810223204
 21
9.6863527094
 31
0.0
  0
ARC
  5
C9
100
AcDbEntity
  8
Z0_CUT250
370
         5
  6
Continuous
 62
        47
100
AcDbCircle
 10
14.1499809116
 20
10.0429618796
 30
0.0
 40
0.2799236123
100
AcDbArc
 50
-70.1351175895
 51
-23.4304765298
  0
LINE
  5
CA
100
AcDbEntity
  8
Z0_CUT250
370
         5
  6
Continuous
 62
        47
100
AcDbLine
 10
13.07113258
 20
9.3038163786
 30
0.0
 11
14.2450998416
 21
9.7796946811
 31
0.0
  0
LINE
  5
CB
100
AcDbEntity
  8
0
370
         5
  6
Continuous
 62
        47
100
AcDbLine
 10
13.07113258
 20
9.3038163786
 30
0.0
 11
14.2450998416
 21
9.7796946811
 31
0.0
  0
CIRCLE
  5
CC
100
AcDbEntity
  8
6_125BIT_500DEP
370
        25
  6
Continuous
 62
         5
100
AcDbCircle
 10
17.9396454487
 20
13.6159447542
 30
0.0
 40
0.1225
  0
CIRCLE
  5
CD
102
{ACAD_REACTORS
330
CF
102
}
100
AcDbEntity
  8
0
370
        25
  6
Continuous
 62
        30
100
AcDbCircle
 10
17.9396454487
 20
13.6159447542
 30
0.0
 40
0.215
  0
CIRCLE
  5
CE
102
{ACAD_REACTORS
330
CF
102
}
100
AcDbEntity
  8
0
370
        25
  6
Continuous
 62
        30
100
AcDbCircle
 10
17.9396454487
 20
13.6159447542
 30
0.0
 40
0.07
  0
LINE
  5
D0
102
{ACAD_REACTORS
330
DD
102
}
100
AcDbEntity
  8
X_ROLLOVER
370
        25
  6
Continuous
 62
         6
100
AcDbLine
 10
10.5421134752
 20
5.7661506714
 30
0.0
 11
12.4947109698
 21
7.3300824289
 31
0.0
  0
LINE
  5
D1
102
{ACAD_REACTORS
330
DD
102
}
100
AcDbEntity
  8
X_ROLLOVER
370
        25
  6
Continuous
 62
         6
100
AcDbLine
 10
10.8558098905
 20
5.3064613455
 30
0.0
 11
13.0239394653
 21
6.5545533552
 31
0.0
  0
ARC
  5
D2
102
{ACAD_REACTORS
330
DD
102
}
100
AcDbEntity
  8
X_ROLLOVER
370
        25
  6
Continuous
 62
         6
100
AcDbCircle
 10
12.7890460536
 20
6.9625996763
 30
0.0
 40
0.4708255675
100
AcDbArc
 50
-60.0729543214
 51
128.6929609507
  0
ARC
  5
D3
102
{ACAD_REACTORS
330
DD
102
}
100
AcDbEntity
  8
X_ROLLOVER
370
        25
  6
Continuous
 62
         6
100
AcDbCircle
 10
12.7890460536
 20
6.9625996763
 30
0.0
 40
0.3563678145
100
AcDbArc
 50
-60.0729543214
 51
128.6929609507
  0
ARC
  5
D4
102
{ACAD_REACTORS
330
DD
102
}
100
AcDbEntity
  8
X_ROLLOVER
370
        25
  6
Continuous
 62
         6
100
AcDbCircle
 10
12.7890460536
 20
6.9625996763
 30
0.0
 40
0.2946859661
100
AcDbArc
 50
-60.0729543214
 51
128.6929609507
  0
ARC
  5
D5
102
{ACAD_REACTORS
330
DD
102
}
100
AcDbEntity
  8
X_ROLLOVER
370
        25
  6
Continuous
 62
         6
100
AcDbCircle
 10
10.7165784964
 20
5.5483278914
 30
0.0
 40
0.2790784964
100
AcDbArc
 50
128.6929609507
 51
-60.0729543214
  0
ARC
  5
D6
102
{ACAD_REACTORS
330
DD
102
}
100
AcDbEntity
  8
X_ROLLOVER
370
        25
  6
Continuous
 62
         6
100
AcDbCircle
 10
10.7165784964
 20
5.5483278914
 30
0.0
 40
0.1763775123
100
AcDbArc
 50
128.6929609507
 51
-60.0729543214
  0
ARC
  5
D7
102
{ACAD_REACTORS
330
DD
102
}
100
AcDbEntity
  8
X_ROLLOVER
370
        25
  6
Continuous
 62
         6
100
AcDbCircle
 10
10.7165784964
 20
5.5483278914
 30
0.0
 40
0.127949224
100
AcDbArc
 50
128.6929609507
 51
-60.0729543214
  0
LINE
  5
D8
102
{ACAD_REACTORS
330
DD
102
}
100
AcDbEntity
  8
X_ROLLOVER
370
        25
  6
Continuous
 62
         6
100
AcDbLine
 10
12.5662638646
 20
7.2407473268
 30
0.0
 11
10.6063166639
 21
5.6859918123
 31
0.0
  0
LINE
  5
D9
102
{ACAD_REACTORS
330
DD
102
}
100
AcDbEntity
  8
X_ROLLOVER
370
        25
  6
Continuous
 62
         6
100
AcDbLine
 10
12.6048240731
 20
7.1926041991
 30
0.0
 11
10.636591452
 21
5.6481931839
 31
0.0
  0
LINE
  5
DA
102
{ACAD_REACTORS
330
DD
102
}
100
AcDbEntity
  8
X_ROLLOVER
370
        25
  6
Continuous
 62
         6
100
AcDbLine
 10
12.9360639658
 20
6.7072067396
 30
0.0
 11
10.7804119664
 21
5.4374392444
 31
0.0
  0
LINE
  5
DB
102
{ACAD_REACTORS
330
DD
102
}
100
AcDbEntity
  8
X_ROLLOVER
370
        25
  6
Continuous
 62
         6
100
AcDbLine
 10
12.9668368482
 20
6.6537494657
 30
0.0
 11
10.8045726888
 21
5.3954683188
 31
0.0
  0
CIRCLE
  5
DC
102
{ACAD_REACTORS
330
DD
102
}
100
AcDbEntity
  8
X_ROLLOVER
370
        25
  6
Continuous
 62
         6
100
AcDbCircle
 10
12.7890460536
 20
6.9625996763
 30
0.0
 40
0.125
  0
LINE
  5
DE
102
{ACAD_REACTORS
330
105
102
}
100
AcDbEntity
  8
Z_GLOBETROTTERS_1
370
         5
  6
Continuous
 62
         4
100
AcDbLine
 10
13.0682562877
 20
6.3010717127
 30
0.0
 11
14.4907713259
 21
7.0258793269
 31
0.0
  0
LINE
  5
DF
102
{ACAD_REACTORS
330
105
102
}
100
AcDbEntity
  8
Z_GLOBETROTTERS_1
370
         5
  6
Continuous
 62
         4
100
AcDbLine
 10
13.067751978
 20
7.1046074377
 30
0.0
 11
12.5103401292
 21
6.8205919149
 31
0.0
  0
LINE
  5
E0
102
{ACAD_REACTORS
330
105
102
}
100
AcDbEntity
  8
Z_GLOBETROTTERS_1
370
         5
  6
Continuous
 62
         4
100
AcDbLine
 10
11.2090053075
 20
6.201903004
 30
0.0
 11
10.7140235857
 21
5.9496972197
 31
0.0
  0
LINE
  5
E1
102
{ACAD_REACTORS
330
105
102
}
100
AcDbEntity
  8
Z_GLOBETROTTERS_1
370
         5
  6
Continuous
 62
         4
100
AcDbLine
 10
11.0571143373
 20
5.2763437064
 30
0.0
 11
11.552096059
 21
5.5285494906
 31
0.0
  0
LINE
  5
E2
102
{ACAD_REACTORS
330
105
102
}
100
AcDbEntity
  8
Z_GLOBETROTTERS_1
370
         5
  6
Continuous
 62
         4
100
AcDbLine
 10
11.6867244385
 20
5.4848060785
 30
0.0
 11
11.7821536541
 21
5.2975156973
 31
0.0
  0
LINE
  5
E3
102
{ACAD_REACTORS
330
105
102
}
100
AcDbEntity
  8
Z_GLOBETROTTERS_1
370
         5
  6
Continuous
 62
         4
100
AcDbLine
 10
12.6412622413
 20
10.6557452863
 30
0.0
 11
11.2276657928
 21
9.9354819204
 31
0.0
  0
LINE
  5
E4
102
{ACAD_REACTORS
330
105
102
}
100
AcDbEntity
  8
Z_GLOBETROTTERS_1
370
         5
  6
Continuous
 62
         4
100
AcDbLine
 10
11.2527487196
 20
6.3365313834
 30
0.0
 11
10.1803061055
 21
8.4413185245
 31
0.0
  0
LINE
  5
E5
102
{ACAD_REACTORS
330
105
102
}
100
AcDbEntity
  8
Z_GLOBETROTTERS_1
370
         5
  6
Continuous
 62
         4
100
AcDbLine
 10
14.1476805743
 20
7.6992328403
 30
0.0
 11
13.6526988526
 21
7.447027056
 31
0.0
  0
LINE
  5
E6
102
{ACAD_REACTORS
330
105
102
}
100
AcDbEntity
  8
Z_GLOBETROTTERS_1
370
         5
  6
Continuous
 62
         4
100
AcDbLine
 10
14.4907713259
 20
7.0258793269
 30
0.0
 11
14.1476805743
 21
7.6992328403
 31
0.0
  0
LINE
  5
E7
102
{ACAD_REACTORS
330
105
102
}
100
AcDbEntity
  8
Z_GLOBETROTTERS_1
370
         5
  6
Continuous
 62
         4
100
AcDbLine
 10
11.0571143373
 20
5.2763437064
 30
0.0
 11
10.7140235857
 21
5.9496972197
 31
0.0
  0
LINE
  5
E8
102
{ACAD_REACTORS
330
105
102
}
100
AcDbEntity
  8
Z_GLOBETROTTERS_1
370
         5
  6
Continuous
 62
         4
100
AcDbLine
 10
9.7463303866
 20
9.2930438295
 30
0.0
 11
9.4782197331
 21
9.8192406147
 31
0.0
  0
LINE
  5
E9
102
{ACAD_REACTORS
330
105
102
}
100
AcDbEntity
  8
Z_GLOBETROTTERS_1
370
         5
  6
Continuous
 62
         4
100
AcDbLine
 10
9.7025869745
 20
9.15841545
 30
0.0
 11
9.2076052527
 21
8.9062096658
 31
0.0
  0
LINE
  5
EA
102
{ACAD_REACTORS
330
105
102
}
100
AcDbEntity
  8
Z_GLOBETROTTERS_1
370
         5
  6
Continuous
 62
         4
100
AcDbLine
 10
9.5506960043
 20
8.2328561524
 30
0.0
 11
10.045677726
 21
8.4850619367
 31
0.0
  0
LINE
  5
EB
102
{ACAD_REACTORS
330
105
102
}
100
AcDbEntity
  8
Z_GLOBETROTTERS_1
370
         5
  6
Continuous
 62
         4
100
AcDbLine
 10
9.5506960043
 20
8.2328561524
 30
0.0
 11
9.2076052527
 21
8.9062096658
 31
0.0
  0
ARC
  5
EC
102
{ACAD_REACTORS
330
105
102
}
100
AcDbEntity
  8
Z0_LOWERTHIRD
370
        25
  6
Continuous
 62
         4
100
AcDbCircle
 10
11.1635628238
 20
6.2910888998
 30
0.0
 40
0.1000956709
100
AcDbArc
 50
-63.0
 51
27.0
  0
ARC
  5
ED
102
{ACAD_REACTORS
330
105
102
}
100
AcDbEntity
  8
Z0_LOWERTHIRD
370
        25
  6
Continuous
 62
         4
100
AcDbCircle
 10
10.0911202097
 20
8.3958760409
 30
0.0
 40
0.1000956709
100
AcDbArc
 50
26.9999999997
 51
117.0000000001
  0
ARC
  5
EE
102
{ACAD_REACTORS
330
105
102
}
100
AcDbEntity
  8
Z0_LOWERTHIRD
370
        25
  6
Continuous
 62
         4
100
AcDbCircle
 10
9.6571444908
 20
9.2476013458
 30
0.0
 40
0.1000956709
100
AcDbArc
 50
-63.0
 51
27.0000000001
  0
ARC
  5
EF
102
{ACAD_REACTORS
330
105
102
}
100
AcDbEntity
  8
Z0_LOWERTHIRD
370
        25
  6
Continuous
 62
         4
100
AcDbCircle
 10
11.1822233091
 20
10.0246678162
 30
0.0
 40
0.1000956709
100
AcDbArc
 50
-152.9999999993
 51
-63.0
  0
ARC
  5
F0
102
{ACAD_REACTORS
330
105
102
}
100
AcDbEntity
  8
Z0_LOWERTHIRD
370
        25
  6
Continuous
 62
         4
100
AcDbCircle
 10
12.5348137548
 20
9.6410000929
 30
0.0
 40
0.1000956709
100
AcDbArc
 50
117.0000000002
 51
-153.0
  0
ARC
  5
F1
102
{ACAD_REACTORS
330
105
102
}
100
AcDbEntity
  8
Z0_LOWERTHIRD
370
        25
  6
Continuous
 62
         4
100
AcDbCircle
 10
13.6072563689
 20
7.5362129518
 30
0.0
 40
0.1000956709
100
AcDbArc
 50
-153.0000000001
 51
-63.0
  0
ARC
  5
F2
102
{ACAD_REACTORS
330
105
102
}
100
AcDbEntity
  8
Z0_LOWERTHIRD
370
        25
  6
Continuous
 62
         4
100
AcDbCircle
 10
13.1136987714
 20
6.2118858169
 30
0.0
 40
0.1000956709
100
AcDbArc
 50
116.9999999999
 51
-152.9999999998
  0
ARC
  5
F3
102
{ACAD_REACTORS
330
105
102
}
100
AcDbEntity
  8
Z0_LOWERTHIRD
370
        25
  6
Continuous
 62
         4
100
AcDbCircle
 10
11.5975385427
 20
5.4393635948
 30
0.0
 40
0.1000956709
100
AcDbArc
 50
26.9999999997
 51
117.0000000001
  0
CIRCLE
  5
F4
102
{ACAD_REACTORS
330
105
102
}
100
AcDbEntity
  8
Z0_LOWERTHIRD
370
        25
  6
Continuous
 62
         4
100
AcDbCircle
 10
12.5616167624
 20
10.3932923924
 30
0.0
 40
0.069
  0
CIRCLE
  5
F5
102
{ACAD_REACTORS
330
105
102
}
100
AcDbEntity
  8
Z0_LOWERTHIRD
370
        25
  6
Continuous
 62
         4
100
AcDbCircle
 10
12.7320260761
 20
10.0588452831
 30
0.0
 40
0.069
  0
CIRCLE
  5
F6
102
{ACAD_REACTORS
330
105
102
}
100
AcDbEntity
  8
Z0_LOWERTHIRD
370
        25
  6
Continuous
 62
         4
100
AcDbCircle
 10
9.466748542
 20
8.8163782712
 30
0.0
 40
0.069
  0
CIRCLE
  5
F7
102
{ACAD_REACTORS
330
105
102
}
100
AcDbEntity
  8
Z0_LOWERTHIRD
370
        25
  6
Continuous
 62
         4
100
AcDbCircle
 10
9.6371578557
 20
8.481931162
 30
0.0
 40
0.069
  0
CIRCLE
  5
F8
102
{ACAD_REACTORS
330
105
102
}
100
AcDbEntity
  8
Z0_LOWERTHIRD
370
        25
  6
Continuous
 62
         4
100
AcDbCircle
 10
10.9664093204
 20
5.8732736788
 30
0.0
 40
0.069
  0
CIRCLE
  5
F9
102
{ACAD_REACTORS
330
105
102
}
100
AcDbEntity
  8
Z0_LOWERTHIRD
370
        25
  6
Continuous
 62
         4
100
AcDbCircle
 10
11.1368186341
 20
5.5388265695
 30
0.0
 40
0.069
  0
CIRCLE
  5
FA
102
{ACAD_REACTORS
330
105
102
}
100
AcDbEntity
  8
Z0_LOWERTHIRD
370
        25
  6
Continuous
 62
         4
100
AcDbCircle
 10
14.2316280366
 20
7.1157107214
 30
0.0
 40
0.069
  0
CIRCLE
  5
FB
102
{ACAD_REACTORS
330
105
102
}
100
AcDbEntity
  8
Z0_LOWERTHIRD
370
        25
  6
Continuous
 62
         4
100
AcDbCircle
 10
14.0612187229
 20
7.4501578307
 30
0.0
 40
0.069
  0
LINE
  5
FC
102
{ACAD_REACTORS
330
105
102
}
100
AcDbEntity
  8
Z_GLOBETROTTERS_1
370
         5
  6
Continuous
 62
         4
100
AcDbLine
 10
12.4893712711
 20
9.7301859887
 30
0.0
 11
12.9843529929
 21
9.9823917729
 31
0.0
  0
LINE
  5
FD
102
{ACAD_REACTORS
330
105
102
}
100
AcDbEntity
  8
Z_GLOBETROTTERS_1
370
         5
  6
Continuous
 62
         4
100
AcDbLine
 10
12.6412622413
 20
10.6557452863
 30
0.0
 11
12.9843529929
 21
9.9823917729
 31
0.0
  0
LINE
  5
FE
102
{ACAD_REACTORS
330
105
102
}
100
AcDbEntity
  8
Z_GLOBETROTTERS_1
370
         5
  6
Continuous
 62
         4
100
AcDbLine
 10
11.7398921443
 20
5.3804585804
 30
0.0
 11
13.0776805815
 21
6.0620958351
 31
0.0
  0
LINE
  5
FF
102
{ACAD_REACTORS
330
105
102
}
100
AcDbEntity
  8
Z_GLOBETROTTERS_1
370
         5
  6
Continuous
 62
         4
100
AcDbLine
 10
11.7821536541
 20
5.2975156973
 30
0.0
 11
13.1199420913
 21
5.979152952
 31
0.0
  0
LINE
  5
100
102
{ACAD_REACTORS
330
105
102
}
100
AcDbEntity
  8
Z_GLOBETROTTERS_1
370
         5
  6
Continuous
 62
         4
100
AcDbLine
 10
9.4782197331
 20
9.8192406147
 30
0.0
 11
10.8249267598
 21
10.5054221179
 31
0.0
  0
LINE
  5
101
102
{ACAD_REACTORS
330
105
102
}
100
AcDbEntity
  8
Z_GLOBETROTTERS_1
370
         5
  6
Continuous
 62
         4
100
AcDbLine
 10
12.931053815
 20
6.6838937519
 30
0.0
 11
12.6470382922
 21
7.2413056007
 31
0.0
  0
LINE
  5
102
102
{ACAD_REACTORS
330
105
102
}
100
AcDbEntity
  8
Z_GLOBETROTTERS_1
370
         5
  6
Continuous
 62
         4
100
AcDbLine
 10
13.5180704731
 20
7.4907704682
 30
0.0
 11
12.445627859
 21
9.5955576092
 31
0.0
  0
LINE
  5
103
102
{ACAD_REACTORS
330
105
102
}
100
AcDbEntity
  8
Z_GLOBETROTTERS_1
370
         5
  6
Continuous
 62
         4
100
AcDbLine
 10
10.8249267598
 20
10.5054221179
 30
0.0
 11
11.0930374133
 21
9.9792253326
 31
0.0
  0
LINE
  5
104
102
{ACAD_REACTORS
330
105
102
}
100
AcDbEntity
  8
Z_GLOBETROTTERS_1
370
         5
  6
Continuous
 62
         4
100
AcDbLine
 10
13.1199420913
 20
5.979152952
 30
0.0
 11
13.0245128756
 21
6.1664433332
 31
0.0
  0
CIRCLE
  5
106
102
{ACAD_REACTORS
330
12A
102
}
100
AcDbEntity
  8
Z_GLOBETROTTERS_1
370
         5
  6
Continuous
 62
         4
100
AcDbCircle
 10
13.6078367458
 20
13.8837086582
 30
0.0
 40
0.09375
  0
LINE
  5
107
102
{ACAD_REACTORS
330
12A
102
}
100
AcDbEntity
  8
Z_GLOBETROTTERS_1
370
         5
  6
Continuous
 62
         4
100
AcDbLine
 10
13.6078367458
 20
13.8837086582
 30
0.0
 11
13.060334048
 21
14.3962911354
 31
0.0
  0
LINE
  5
108
102
{ACAD_REACTORS
330
12A
102
}
100
AcDbEntity
  8
Z_GLOBETROTTERS_1
370
         5
  6
Continuous
 62
         4
100
AcDbLine
 10
12.573006667
 20
14.4244562499
 30
0.0
 11
12.6797946831
 21
14.538519312
 31
0.0
  0
LINE
  5
109
102
{ACAD_REACTORS
330
12A
102
}
100
AcDbEntity
  8
Z_GLOBETROTTERS_1
370
         5
  6
Continuous
 62
         4
100
AcDbLine
 10
13.2768200986
 20
14.5360768282
 30
0.0
 11
12.6797946831
 21
14.538519312
 31
0.0
  0
LINE
  5
10A
102
{ACAD_REACTORS
330
12A
102
}
100
AcDbEntity
  8
Z_GLOBETROTTERS_1
370
         5
  6
Continuous
 62
         4
100
AcDbLine
 10
10.4586039485
 20
12.1660076216
 30
0.0
 11
10.5653919646
 21
12.2800706836
 31
0.0
  0
LINE
  5
10B
102
{ACAD_REACTORS
330
12A
102
}
100
AcDbEntity
  8
Z_GLOBETROTTERS_1
370
         5
  6
Continuous
 62
         4
100
AcDbLine
 10
10.5003316804
 20
11.5704372153
 30
0.0
 11
10.4586039485
 21
12.1660076216
 31
0.0
  0
LINE
  5
10C
102
{ACAD_REACTORS
330
12A
102
}
100
AcDbEntity
  8
Z_GLOBETROTTERS_1
370
         5
  6
Continuous
 62
         4
100
AcDbLine
 10
11.7244701698
 20
11.3233435665
 30
0.0
 11
13.6039392529
 21
13.3308534583
 31
0.0
  0
LINE
  5
10D
102
{ACAD_REACTORS
330
12A
102
}
100
AcDbEntity
  8
Z_GLOBETROTTERS_1
370
         5
  6
Continuous
 62
         4
100
AcDbLine
 10
13.6039392529
 20
13.3308534583
 30
0.0
 11
13.6680120625
 21
13.3992912955
 31
0.0
  0
LINE
  5
10E
102
{ACAD_REACTORS
330
12A
102
}
100
AcDbEntity
  8
Z_GLOBETROTTERS_1
370
         5
  6
Continuous
 62
         4
100
AcDbLine
 10
11.7244701698
 20
11.3233435665
 30
0.0
 11
11.6603973602
 21
11.2549057292
 31
0.0
  0
LINE
  5
10F
102
{ACAD_REACTORS
330
12A
102
}
100
AcDbEntity
  8
Z_GLOBETROTTERS_1
370
         5
  6
Continuous
 62
         4
100
AcDbLine
 10
13.6680120625
 20
13.3992912955
 30
0.0
 11
13.7748000786
 21
13.5133543576
 31
0.0
  0
LINE
  5
110
102
{ACAD_REACTORS
330
12A
102
}
100
AcDbEntity
  8
Z_GLOBETROTTERS_1
370
         5
  6
Continuous
 62
         4
100
AcDbLine
 10
11.5536093441
 20
11.1408426672
 30
0.0
 11
11.6603973602
 21
11.2549057292
 31
0.0
  0
LINE
  5
111
102
{ACAD_REACTORS
330
12A
102
}
100
AcDbEntity
  8
Z_GLOBETROTTERS_1
370
         5
  6
Continuous
 62
         4
100
AcDbLine
 10
13.0292065099
 20
11.9853768609
 30
0.0
 11
11.2041975173
 21
13.6939851182
 31
0.0
  0
LINE
  5
112
102
{ACAD_REACTORS
330
12A
102
}
100
AcDbEntity
  8
Z_GLOBETROTTERS_1
370
         5
  6
Continuous
 62
         4
100
AcDbLine
 10
10.6294647743
 20
12.3485085209
 30
0.0
 11
11.7244701698
 21
11.3233435665
 31
0.0
  0
LINE
  5
113
102
{ACAD_REACTORS
330
12A
102
}
100
AcDbEntity
  8
Z_GLOBETROTTERS_1
370
         5
  6
Continuous
 62
         4
100
AcDbLine
 10
13.6039392529
 20
13.3308534583
 30
0.0
 11
12.5089338573
 21
14.3560184127
 31
0.0
  0
LINE
  5
114
102
{ACAD_REACTORS
330
12A
102
}
100
AcDbEntity
  8
Z_GLOBETROTTERS_1
370
         5
  6
Continuous
 62
         4
100
AcDbLine
 10
13.6680120625
 20
13.3992912955
 30
0.0
 11
12.573006667
 21
14.4244562499
 31
0.0
  0
LINE
  5
115
102
{ACAD_REACTORS
330
12A
102
}
100
AcDbEntity
  8
Z_GLOBETROTTERS_1
370
         5
  6
Continuous
 62
         4
100
AcDbLine
 10
12.5089338573
 20
14.3560184127
 30
0.0
 11
13.6039392529
 21
13.3308534583
 31
0.0
  0
LINE
  5
116
102
{ACAD_REACTORS
330
12A
102
}
100
AcDbEntity
  8
Z_GLOBETROTTERS_1
370
         5
  6
Continuous
 62
         4
100
AcDbLine
 10
11.6603973602
 20
11.2549057292
 30
0.0
 11
10.5653919646
 21
12.2800706836
 31
0.0
  0
LINE
  5
117
102
{ACAD_REACTORS
330
12A
102
}
100
AcDbEntity
  8
Z_GLOBETROTTERS_1
370
         5
  6
Continuous
 62
         4
100
AcDbLine
 10
10.6294647743
 20
12.3485085209
 30
0.0
 11
11.7244701698
 21
11.3233435665
 31
0.0
  0
CIRCLE
  5
118
102
{ACAD_REACTORS
330
12A
102
}
100
AcDbEntity
  8
Z_GLOBETROTTERS_1
370
         5
  6
Continuous
 62
         4
100
AcDbCircle
 10
12.1167020136
 20
12.8396809896
 30
0.0
 40
1.25
  0
LINE
  5
119
102
{ACAD_REACTORS
330
12A
102
}
100
AcDbEntity
  8
Z_GLOBETROTTERS_1
370
         5
  6
Continuous
 62
         4
100
AcDbLine
 10
13.7748000786
 20
13.5133543576
 30
0.0
 11
13.7330723467
 21
14.1089247639
 31
0.0
  0
LINE
  5
11A
102
{ACAD_REACTORS
330
12A
102
}
100
AcDbEntity
  8
Z_GLOBETROTTERS_1
370
         5
  6
Continuous
 62
         4
100
AcDbLine
 10
11.5536093441
 20
11.1408426672
 30
0.0
 11
10.9565839286
 21
11.1432851509
 31
0.0
  0
LINE
  5
11B
102
{ACAD_REACTORS
330
12A
102
}
100
AcDbEntity
  8
Z_GLOBETROTTERS_1
370
         5
  6
Continuous
 62
         4
100
AcDbLine
 10
12.5089338573
 20
14.3560184127
 30
0.0
 11
10.6294647743
 21
12.3485085209
 31
0.0
  0
LINE
  5
11C
102
{ACAD_REACTORS
330
12A
102
}
100
AcDbEntity
  8
Z_GLOBETROTTERS_1
370
         5
  6
Continuous
 62
         4
100
AcDbLine
 10
12.573006667
 20
14.4244562499
 30
0.0
 11
12.5089338573
 21
14.3560184127
 31
0.0
  0
LINE
  5
11D
102
{ACAD_REACTORS
330
12A
102
}
100
AcDbEntity
  8
Z_GLOBETROTTERS_1
370
         5
  6
Continuous
 62
         4
100
AcDbLine
 10
10.5653919646
 20
12.2800706836
 30
0.0
 11
10.6294647743
 21
12.3485085209
 31
0.0
  0
CIRCLE
  5
11E
102
{ACAD_REACTORS
330
12A
102
}
100
AcDbEntity
  8
Z_GLOBETROTTERS_1
370
         5
  6
Continuous
 62
         4
100
AcDbCircle
 10
12.1167020136
 20
12.8396809896
 30
0.0
 40
0.375
  0
LINE
  5
11F
102
{ACAD_REACTORS
330
12A
102
}
100
AcDbEntity
  8
Z_GLOBETROTTERS_1
370
         5
  6
Continuous
 62
         4
100
AcDbLine
 10
13.1205093648
 20
13.9118737727
 30
0.0
 11
11.1128946624
 21
11.7674882064
 31
0.0
  0
LINE
  5
120
102
{ACAD_REACTORS
330
12A
102
}
100
AcDbEntity
  8
Z_GLOBETROTTERS_1
370
         5
  6
Continuous
 62
         4
100
AcDbLine
 10
13.1205093648
 20
13.9118737727
 30
0.0
 11
13.5049462227
 21
14.3225007961
 31
0.0
  0
LINE
  5
121
102
{ACAD_REACTORS
330
12A
102
}
100
AcDbEntity
  8
Z_GLOBETROTTERS_1
370
         5
  6
Continuous
 62
         4
100
AcDbLine
 10
11.1128946624
 20
11.7674882064
 30
0.0
 11
10.7284578045
 21
11.3568611831
 31
0.0
  0
LINE
  5
122
102
{ACAD_REACTORS
330
12A
102
}
100
AcDbEntity
  8
Z_GLOBETROTTERS_1
370
         5
  6
Continuous
 62
         4
100
AcDbLine
 10
13.7330723467
 20
14.1089247639
 30
0.0
 11
13.2768200986
 21
14.5360768282
 31
0.0
  0
LINE
  5
123
102
{ACAD_REACTORS
330
12A
102
}
100
AcDbEntity
  8
Z_GLOBETROTTERS_1
370
         5
  6
Continuous
 62
         4
100
AcDbLine
 10
10.9565839286
 20
11.1432851509
 30
0.0
 11
10.5003316804
 21
11.5704372153
 31
0.0
  0
LINE
  5
124
102
{ACAD_REACTORS
330
12A
102
}
100
AcDbEntity
  8
Z_GLOBETROTTERS_1
370
         5
  6
Continuous
 62
         4
100
AcDbLine
 10
11.1128946624
 20
11.7674882064
 30
0.0
 11
10.8993186302
 21
11.5393620824
 31
0.0
  0
CIRCLE
  5
125
102
{ACAD_REACTORS
330
12A
102
}
100
AcDbEntity
  8
Z_GLOBETROTTERS_1
370
         5
  6
Continuous
 62
         4
100
AcDbCircle
 10
10.6255672813
 20
11.795653321
 30
0.0
 40
0.09375
  0
CIRCLE
  5
126
102
{ACAD_REACTORS
330
12A
102
}
100
AcDbEntity
  8
Z_GLOBETROTTERS_1
370
         5
  6
Continuous
 62
         4
100
AcDbCircle
 10
11.1730699791
 20
11.2830708438
 30
0.0
 40
0.09375
  0
LINE
  5
127
102
{ACAD_REACTORS
330
12A
102
}
100
AcDbEntity
  8
Z_GLOBETROTTERS_1
370
         5
  6
Continuous
 62
         4
100
AcDbLine
 10
11.1730699791
 20
11.2830708438
 30
0.0
 11
10.6255672813
 21
11.795653321
 31
0.0
  0
LINE
  5
128
102
{ACAD_REACTORS
330
12A
102
}
100
AcDbEntity
  8
Z_GLOBETROTTERS_1
370
         5
  6
Continuous
 62
         4
100
AcDbLine
 10
13.3340853969
 20
14.1399998968
 30
0.0
 11
13.1205093648
 21
13.9118737727
 31
0.0
  0
CIRCLE
  5
129
102
{ACAD_REACTORS
330
12A
102
}
100
AcDbEntity
  8
Z_GLOBETROTTERS_1
370
         5
  6
Continuous
 62
         4
100
AcDbCircle
 10
13.060334048
 20
14.3962911354
 30
0.0
 40
0.09375
  0
LINE
  5
12B
100
AcDbEntity
  8
Z0_CUT250
370
         5
  6
Continuous
 62
         6
100
AcDbLine
 10
13.0695430234
 20
7.6772134966
 30
0.0
 11
15.862821585
 21
9.1426709596
 31
0.0
  0
LINE
  5
12C
100
AcDbEntity
  8
6_125BIT_500DEP
370
        25
  6
Continuous
 62
         5
100
AcDbLine
 10
16.2930208562
 20
10.4061431669
 30
0.0
 11
16.3991089681
 21
10.3448931669
 31
0.0
  0
LINE
  5
12D
100
AcDbEntity
  8
6_125BIT_500DEP
370
        25
  6
Continuous
 62
         5
100
AcDbLine
 10
16.1869327442
 20
10.4673931669
 30
0.0
 11
16.4369327442
 21
10.9004058688
 31
0.0
  0
LINE
  5
12E
100
AcDbEntity
  8
6_125BIT_500DEP
370
        25
  6
Continuous
 62
         5
100
AcDbLine
 10
16.2930208562
 20
10.4061431669
 30
0.0
 11
16.1869327442
 21
10.4673931669
 31
0.0
  0
CIRCLE
  5
12F
100
AcDbEntity
  8
6_125BIT_500DEP
370
        25
  6
Continuous
 62
         5
100
AcDbCircle
 10
16.4180208562
 20
10.6226495178
 30
0.0
 40
0.1225
  0
CIRCLE
  5
130
100
AcDbEntity
  8
6_125BIT_500DEP
370
        25
  6
Continuous
 62
         5
100
AcDbCircle
 10
16.5430208562
 20
10.8391558688
 30
0.0
 40
0.1225
  0
ARC
  5
131
100
AcDbEntity
  8
Z0_CUT250
370
         5
  6
Continuous
 62
        47
100
AcDbCircle
 10
14.5782161125
 20
13.6161087601
 30
0.0
 40
0.3999362906
100
AcDbArc
 50
23.2012426298
 51
157.5066488584
  0
LINE
  5
132
100
AcDbEntity
  8
Z0_CUT250
370
         5
  6
Continuous
 62
        47
100
AcDbLine
 10
14.4068229316
 20
9.9316541734
 30
0.0
 11
15.3646530718
 21
12.1418428154
 31
0.0
  0
LINE
  5
133
100
AcDbEntity
  8
6_125BIT_500DEP
370
        25
  6
Continuous
 62
         5
100
AcDbLine
 10
17.3403958087
 20
10.4956341314
 30
0.0
 11
17.3403958087
 21
8.7956341314
 31
0.0
  0
LINE
  5
134
100
AcDbEntity
  8
6_125BIT_500DEP
370
        25
  6
Continuous
 62
         5
100
AcDbLine
 10
17.1603958087
 20
10.4956341314
 30
0.0
 11
17.1603958087
 21
8.7956341314
 31
0.0
  0
ARC
  5
135
100
AcDbEntity
  8
6_125BIT_500DEP
370
        25
  6
Continuous
 62
         5
100
AcDbCircle
 10
17.2503958087
 20
10.4956341314
 30
0.0
 40
0.09
100
AcDbArc
 50
0.0
 51
180.0
  0
CIRCLE
  5
136
100
AcDbEntity
  8
3_250BIT_500TAB
370
        25
  6
Continuous
 62
         5
100
AcDbCircle
 10
14.4061714146
 20
12.0
 30
0.0
 40
0.25
  0
LINE
  5
137
100
AcDbEntity
  8
0
370
         5
  6
Continuous
 62
        47
100
AcDbLine
 10
14.7757973677
 20
13.700721213
 30
0.0
 11
15.2339215078
 21
12.2045664805
 31
0.0
  0
LINE
  5
138
100
AcDbEntity
  8
0
370
         5
  6
Continuous
 62
        47
100
AcDbLine
 10
14.9458082736
 20
13.7736683985
 30
0.0
 11
15.3772045834
 21
12.2950644729
 31
0.0
  0
LINE
  5
139
100
AcDbEntity
  8
0
370
         5
  6
Continuous
 62
        47
100
AcDbLine
 10
14.4068229316
 20
9.9316541734
 30
0.0
 11
15.3646530718
 21
12.1418428154
 31
0.0
  0
LINE
  5
13A
100
AcDbEntity
  8
0
370
         5
  6
Continuous
 62
        47
100
AcDbLine
 10
14.2422814803
 20
10.0105994761
 30
0.0
 11
15.2339215078
 21
12.2045664805
 31
0.0
  0
LINE
  5
13B
100
AcDbEntity
  8
Z0_CUT500
370
         5
  6
Continuous
 62
        47
100
AcDbLine
 10
14.4985772562
 20
9.8918905732
 30
0.0
 11
15.4557163677
 21
12.1004846694
 31
0.0
  0
LINE
  5
13C
100
AcDbEntity
  8
6_125BIT_500DEP
370
        25
  6
Continuous
 62
         5
100
AcDbLine
 10
16.3991089681
 20
10.3448931669
 30
0.0
 11
16.6491089681
 21
10.7779058688
 31
0.0
  0
CIRCLE
  5
13D
100
AcDbEntity
  8
0
370
        25
  6
Continuous
 62
        47
100
AcDbCircle
 10
14.1295818562
 20
10.0646716012
 30
0.0
 40
0.3075
  0
CIRCLE
  5
13E
100
AcDbEntity
  8
6_125BIT_500DEP
370
        25
  6
Continuous
 62
         5
100
AcDbCircle
 10
14.1295818562
 20
10.0646716012
 30
0.0
 40
0.0825
  0
LINE
  5
13F
100
AcDbEntity
  8
0
370
         5
  6
Continuous
 62
        47
100
AcDbLine
 10
13.0144554787
 20
9.4799206266
 30
0.0
 11
14.1763556878
 21
9.9487526266
 31
0.0
  0
CIRCLE
  5
140
102
{ACAD_REACTORS
330
14B
102
}
100
AcDbEntity
  8
UNASSIGNED
370
        25
  6
Continuous
 62
         4
100
AcDbCircle
 10
17.3470528562
 20
12.2348468706
 30
0.0
 40
0.0835
  0
ARC
  5
141
102
{ACAD_REACTORS
330
14B
102
}
100
AcDbEntity
  8
UNASSIGNED
370
        25
  6
Continuous
 62
         4
100
AcDbCircle
 10
17.3470528562
 20
12.2348468706
 30
0.0
 40
0.375
100
AcDbArc
 50
151.1353689689
 51
-113.9770105947
  0
ARC
  5
142
102
{ACAD_REACTORS
330
14B
102
}
100
AcDbEntity
  8
UNASSIGNED
370
        25
  6
Continuous
 62
         4
100
AcDbCircle
 10
17.3470528562
 20
12.2348468706
 30
0.0
 40
0.375
100
AcDbArc
 50
-88.8646310311
 51
6.0229894053
  0
ARC
  5
143
102
{ACAD_REACTORS
330
14B
102
}
100
AcDbEntity
  8
UNASSIGNED
370
        25
  6
Continuous
 62
         4
100
AcDbCircle
 10
17.3470528562
 20
12.2348468706
 30
0.0
 40
0.375
100
AcDbArc
 50
31.1353689689
 51
126.0229894052
  0
CIRCLE
  5
144
102
{ACAD_REACTORS
330
14B
102
}
100
AcDbEntity
  8
UNASSIGNED
370
        25
  6
Continuous
 62
         4
100
AcDbCircle
 10
17.3470528562
 20
12.2348468706
 30
0.0
 40
0.12125
  0
LINE
  5
145
102
{ACAD_REACTORS
330
14B
102
}
100
AcDbEntity
  8
UNASSIGNED
370
        25
  6
Continuous
 62
         4
100
AcDbLine
 10
17.0186418464
 20
12.4158750691
 30
0.0
 11
17.1023505054
 21
12.401114974
 31
0.0
  0
LINE
  5
146
102
{ACAD_REACTORS
330
14B
102
}
100
AcDbEntity
  8
UNASSIGNED
370
        25
  6
Continuous
 62
         4
100
AcDbLine
 10
17.1023505054
 20
12.401114974
 30
0.0
 11
17.1265116753
 21
12.5381397778
 31
0.0
  0
LINE
  5
147
102
{ACAD_REACTORS
330
14B
102
}
100
AcDbEntity
  8
UNASSIGNED
370
        25
  6
Continuous
 62
         4
100
AcDbLine
 10
17.6133964329
 20
12.363631271
 30
0.0
 11
17.719982809
 21
12.2741946822
 31
0.0
  0
LINE
  5
148
102
{ACAD_REACTORS
330
14B
102
}
100
AcDbEntity
  8
UNASSIGNED
370
        25
  6
Continuous
 62
         4
100
AcDbLine
 10
17.6680333797
 20
12.4287450487
 30
0.0
 11
17.6133964329
 21
12.363631271
 31
0.0
  0
LINE
  5
149
102
{ACAD_REACTORS
330
14B
102
}
100
AcDbEntity
  8
UNASSIGNED
370
        25
  6
Continuous
 62
         4
100
AcDbLine
 10
17.3254116302
 20
11.9397943667
 30
0.0
 11
17.1946640842
 21
11.8922061518
 31
0.0
  0
LINE
  5
14A
102
{ACAD_REACTORS
330
14B
102
}
100
AcDbEntity
  8
UNASSIGNED
370
        25
  6
Continuous
 62
         4
100
AcDbLine
 10
17.3544833424
 20
11.859920494
 30
0.0
 11
17.3254116302
 21
11.9397943667
 31
0.0
  0
CIRCLE
  5
14C
102
{ACAD_REACTORS
330
157
102
}
100
AcDbEntity
  8
UNASSIGNED
370
        25
  6
Continuous
 62
         4
100
AcDbCircle
 10
17.9396454487
 20
13.6159447542
 30
0.0
 40
0.0835
  0
ARC
  5
14D
102
{ACAD_REACTORS
330
157
102
}
100
AcDbEntity
  8
UNASSIGNED
370
        25
  6
Continuous
 62
         4
100
AcDbCircle
 10
17.9396454487
 20
13.6159447542
 30
0.0
 40
0.375
100
AcDbArc
 50
151.1353689689
 51
-113.9770105947
  0
ARC
  5
14E
102
{ACAD_REACTORS
330
157
102
}
100
AcDbEntity
  8
UNASSIGNED
370
        25
  6
Continuous
 62
         4
100
AcDbCircle
 10
17.9396454487
 20
13.6159447542
 30
0.0
 40
0.375
100
AcDbArc
 50
-88.8646310311
 51
6.0229894053
  0
ARC
  5
14F
102
{ACAD_REACTORS
330
157
102
}
100
AcDbEntity
  8
UNASSIGNED
370
        25
  6
Continuous
 62
         4
100
AcDbCircle
 10
17.9396454487
 20
13.6159447542
 30
0.0
 40
0.375
100
AcDbArc
 50
31.1353689689
 51
126.0229894052
  0
CIRCLE
  5
150
102
{ACAD_REACTORS
330
157
102
}
100
AcDbEntity
  8
UNASSIGNED
370
        25
  6
Continuous
 62
         4
100
AcDbCircle
 10
17.9396454487
 20
13.6159447542
 30
0.0
 40
0.12125
  0
LINE
  5
151
102
{ACAD_REACTORS
330
157
102
}
100
AcDbEntity
  8
UNASSIGNED
370
        25
  6
Continuous
 62
         4
100
AcDbLine
 10
17.611234439
 20
13.7969729527
 30
0.0
 11
17.694943098
 21
13.7822128576
 31
0.0
  0
LINE
  5
152
102
{ACAD_REACTORS
330
157
102
}
100
AcDbEntity
  8
UNASSIGNED
370
        25
  6
Continuous
 62
         4
100
AcDbLine
 10
17.694943098
 20
13.7822128576
 30
0.0
 11
17.7191042679
 21
13.9192376614
 31
0.0
  0
LINE
  5
153
102
{ACAD_REACTORS
330
157
102
}
100
AcDbEntity
  8
UNASSIGNED
370
        25
  6
Continuous
 62
         4
100
AcDbLine
 10
18.2059890255
 20
13.7447291546
 30
0.0
 11
18.3125754016
 21
13.6552925658
 31
0.0
  0
LINE
  5
154
102
{ACAD_REACTORS
330
157
102
}
100
AcDbEntity
  8
UNASSIGNED
370
        25
  6
Continuous
 62
         4
100
AcDbLine
 10
18.2606259723
 20
13.8098429323
 30
0.0
 11
18.2059890255
 21
13.7447291546
 31
0.0
  0
LINE
  5
155
102
{ACAD_REACTORS
330
157
102
}
100
AcDbEntity
  8
UNASSIGNED
370
        25
  6
Continuous
 62
         4
100
AcDbLine
 10
17.9180042228
 20
13.3208922503
 30
0.0
 11
17.7872566768
 21
13.2733040354
 31
0.0
  0
LINE
  5
156
102
{ACAD_REACTORS
330
157
102
}
100
AcDbEntity
  8
UNASSIGNED
370
        25
  6
Continuous
 62
         4
100
AcDbLine
 10
17.947075935
 20
13.2410183776
 30
0.0
 11
17.9180042228
 21
13.3208922503
 31
0.0
  0
CIRCLE
  5
158
100
AcDbEntity
  8
3_250BIT_500TAB
370
        25
  6
Continuous
 62
         5
100
AcDbCircle
 10
13.2559454724
 20
10.7010444826
 30
0.0
 40
0.25
  0
CIRCLE
  5
159
100
AcDbEntity
  8
X_ROLLOVER
370
        25
  6
Continuous
 62
        27
100
AcDbCircle
 10
14.1295818562
 20
10.0646716012
 30
0.0
 40
0.1875
  0
CIRCLE
  5
15A
102
{ACAD_REACTORS
330
165
102
}
100
AcDbEntity
  8
UNASSIGNED
370
        25
  6
Continuous
 62
         4
100
AcDbCircle
 10
16.2966957101
 20
14.7858619425
 30
0.0
 40
0.0835
  0
ARC
  5
15B
102
{ACAD_REACTORS
330
165
102
}
100
AcDbEntity
  8
UNASSIGNED
370
        25
  6
Continuous
 62
         4
100
AcDbCircle
 10
16.2966957101
 20
14.7858619425
 30
0.0
 40
0.375
100
AcDbArc
 50
151.1353689689
 51
-113.9770105947
  0
ARC
  5
15C
102
{ACAD_REACTORS
330
165
102
}
100
AcDbEntity
  8
UNASSIGNED
370
        25
  6
Continuous
 62
         4
100
AcDbCircle
 10
16.2966957101
 20
14.7858619425
 30
0.0
 40
0.375
100
AcDbArc
 50
-88.8646310311
 51
6.0229894053
  0
ARC
  5
15D
102
{ACAD_REACTORS
330
165
102
}
100
AcDbEntity
  8
UNASSIGNED
370
        25
  6
Continuous
 62
         4
100
AcDbCircle
 10
16.2966957101
 20
14.7858619425
 30
0.0
 40
0.375
100
AcDbArc
 50
31.1353689689
 51
126.0229894052
  0
CIRCLE
  5
15E
102
{ACAD_REACTORS
330
165
102
}
100
AcDbEntity
  8
UNASSIGNED
370
        25
  6
Continuous
 62
         4
100
AcDbCircle
 10
16.2966957101
 20
14.7858619425
 30
0.0
 40
0.12125
  0
LINE
  5
15F
102
{ACAD_REACTORS
330
165
102
}
100
AcDbEntity
  8
UNASSIGNED
370
        25
  6
Continuous
 62
         4
100
AcDbLine
 10
15.9682847003
 20
14.966890141
 30
0.0
 11
16.0519933593
 21
14.9521300459
 31
0.0
  0
LINE
  5
160
102
{ACAD_REACTORS
330
165
102
}
100
AcDbEntity
  8
UNASSIGNED
370
        25
  6
Continuous
 62
         4
100
AcDbLine
 10
16.0519933593
 20
14.9521300459
 30
0.0
 11
16.0761545292
 21
15.0891548497
 31
0.0
  0
LINE
  5
161
102
{ACAD_REACTORS
330
165
102
}
100
AcDbEntity
  8
UNASSIGNED
370
        25
  6
Continuous
 62
         4
100
AcDbLine
 10
16.5630392869
 20
14.9146463429
 30
0.0
 11
16.6696256629
 21
14.8252097541
 31
0.0
  0
LINE
  5
162
102
{ACAD_REACTORS
330
165
102
}
100
AcDbEntity
  8
UNASSIGNED
370
        25
  6
Continuous
 62
         4
100
AcDbLine
 10
16.6176762337
 20
14.9797601206
 30
0.0
 11
16.5630392869
 21
14.9146463429
 31
0.0
  0
LINE
  5
163
102
{ACAD_REACTORS
330
165
102
}
100
AcDbEntity
  8
UNASSIGNED
370
        25
  6
Continuous
 62
         4
100
AcDbLine
 10
16.2750544841
 20
14.4908094386
 30
0.0
 11
16.1443069381
 21
14.4432212237
 31
0.0
  0
LINE
  5
164
102
{ACAD_REACTORS
330
165
102
}
100
AcDbEntity
  8
UNASSIGNED
370
        25
  6
Continuous
 62
         4
100
AcDbLine
 10
16.3041261963
 20
14.4109355659
 30
0.0
 11
16.2750544841
 21
14.4908094386
 31
0.0
  0
CIRCLE
  5
166
100
AcDbEntity
  8
6_125BIT_500DEP
370
        25
  6
Continuous
 62
         5
100
AcDbCircle
 10
16.2966957101
 20
14.7858619425
 30
0.0
 40
0.1225
  0
CIRCLE
  5
167
102
{ACAD_REACTORS
330
169
102
}
100
AcDbEntity
  8
0
370
        25
  6
Continuous
 62
        30
100
AcDbCircle
 10
16.2966957101
 20
14.7858619425
 30
0.0
 40
0.215
  0
CIRCLE
  5
168
102
{ACAD_REACTORS
330
169
102
}
100
AcDbEntity
  8
0
370
        25
  6
Continuous
 62
        30
100
AcDbCircle
 10
16.2966957101
 20
14.7858619425
 30
0.0
 40
0.07
  0
CIRCLE
  5
16A
102
{ACAD_REACTORS
330
175
102
}
100
AcDbEntity
  8
UNASSIGNED
370
        25
  6
Continuous
 62
         4
100
AcDbCircle
 10
15.1708097183
 20
12.2348468706
 30
0.0
 40
0.0835
  0
ARC
  5
16B
102
{ACAD_REACTORS
330
175
102
}
100
AcDbEntity
  8
UNASSIGNED
370
        25
  6
Continuous
 62
         4
100
AcDbCircle
 10
15.1708097183
 20
12.2348468706
 30
0.0
 40
0.375
100
AcDbArc
 50
151.1353689689
 51
-113.9770105947
  0
ARC
  5
16C
102
{ACAD_REACTORS
330
175
102
}
100
AcDbEntity
  8
UNASSIGNED
370
        25
  6
Continuous
 62
         4
100
AcDbCircle
 10
15.1708097183
 20
12.2348468706
 30
0.0
 40
0.375
100
AcDbArc
 50
-88.8646310311
 51
6.0229894053
  0
ARC
  5
16D
102
{ACAD_REACTORS
330
175
102
}
100
AcDbEntity
  8
UNASSIGNED
370
        25
  6
Continuous
 62
         4
100
AcDbCircle
 10
15.1708097183
 20
12.2348468706
 30
0.0
 40
0.375
100
AcDbArc
 50
31.1353689689
 51
126.0229894052
  0
CIRCLE
  5
16E
102
{ACAD_REACTORS
330
175
102
}
100
AcDbEntity
  8
UNASSIGNED
370
        25
  6
Continuous
 62
         4
100
AcDbCircle
 10
15.1708097183
 20
12.2348468706
 30
0.0
 40
0.12125
  0
LINE
  5
16F
102
{ACAD_REACTORS
330
175
102
}
100
AcDbEntity
  8
UNASSIGNED
370
        25
  6
Continuous
 62
         4
100
AcDbLine
 10
14.8423987085
 20
12.4158750691
 30
0.0
 11
14.9261073675
 21
12.401114974
 31
0.0
  0
LINE
  5
170
102
{ACAD_REACTORS
330
175
102
}
100
AcDbEntity
  8
UNASSIGNED
370
        25
  6
Continuous
 62
         4
100
AcDbLine
 10
14.9261073675
 20
12.401114974
 30
0.0
 11
14.9502685374
 21
12.5381397778
 31
0.0
  0
LINE
  5
171
102
{ACAD_REACTORS
330
175
102
}
100
AcDbEntity
  8
UNASSIGNED
370
        25
  6
Continuous
 62
         4
100
AcDbLine
 10
15.437153295
 20
12.363631271
 30
0.0
 11
15.5437396711
 21
12.2741946822
 31
0.0
  0
LINE
  5
172
102
{ACAD_REACTORS
330
175
102
}
100
AcDbEntity
  8
UNASSIGNED
370
        25
  6
Continuous
 62
         4
100
AcDbLine
 10
15.4917902418
 20
12.4287450487
 30
0.0
 11
15.437153295
 21
12.363631271
 31
0.0
  0
LINE
  5
173
102
{ACAD_REACTORS
330
175
102
}
100
AcDbEntity
  8
UNASSIGNED
370
        25
  6
Continuous
 62
         4
100
AcDbLine
 10
15.1491684923
 20
11.9397943667
 30
0.0
 11
15.0184209463
 21
11.8922061518
 31
0.0
  0
LINE
  5
174
102
{ACAD_REACTORS
330
175
102
}
100
AcDbEntity
  8
UNASSIGNED
370
        25
  6
Continuous
 62
         4
100
AcDbLine
 10
15.1782402045
 20
11.859920494
 30
0.0
 11
15.1491684923
 21
11.9397943667
 31
0.0
  0
ARC
  5
176
100
AcDbEntity
  8
Z0_CUT500
370
         5
  6
Continuous
 62
        47
100
AcDbCircle
 10
14.9458082736
 20
13.7736683985
 30
0.0
 40
0.1
100
AcDbArc
 50
16.2650911049
 51
23.2012426298
  0
ARC
  5
177
100
AcDbEntity
  8
Z0_CUT250
370
         5
  6
Continuous
 62
        47
100
AcDbCircle
 10
15.1708097183
 20
12.2348468706
 30
0.0
 40
0.215
100
AcDbArc
 50
-25.6312146147
 51
16.2650911049
  0
CIRCLE
  5
178
100
AcDbEntity
  8
6_125BIT_500DEP
370
        25
  6
Continuous
 62
         5
100
AcDbCircle
 10
16.2930208562
 20
10.4061431669
 30
0.0
 40
0.1225
  0
CIRCLE
  5
179
102
{ACAD_REACTORS
330
184
102
}
100
AcDbEntity
  8
UNASSIGNED
370
        25
  6
Continuous
 62
         4
100
AcDbCircle
 10
16.4180208562
 20
10.6226495178
 30
0.0
 40
0.0835
  0
ARC
  5
17A
102
{ACAD_REACTORS
330
184
102
}
100
AcDbEntity
  8
UNASSIGNED
370
        25
  6
Continuous
 62
         4
100
AcDbCircle
 10
16.4180208562
 20
10.6226495178
 30
0.0
 40
0.375
100
AcDbArc
 50
151.1353689689
 51
-113.9770105947
  0
ARC
  5
17B
102
{ACAD_REACTORS
330
184
102
}
100
AcDbEntity
  8
UNASSIGNED
370
        25
  6
Continuous
 62
         4
100
AcDbCircle
 10
16.4180208562
 20
10.6226495178
 30
0.0
 40
0.375
100
AcDbArc
 50
-88.8646310311
 51
6.0229894053
  0
ARC
  5
17C
102
{ACAD_REACTORS
330
184
102
}
100
AcDbEntity
  8
UNASSIGNED
370
        25
  6
Continuous
 62
         4
100
AcDbCircle
 10
16.4180208562
 20
10.6226495178
 30
0.0
 40
0.375
100
AcDbArc
 50
31.1353689689
 51
126.0229894052
  0
CIRCLE
  5
17D
102
{ACAD_REACTORS
330
184
102
}
100
AcDbEntity
  8
UNASSIGNED
370
        25
  6
Continuous
 62
         4
100
AcDbCircle
 10
16.4180208562
 20
10.6226495178
 30
0.0
 40
0.12125
  0
LINE
  5
17E
102
{ACAD_REACTORS
330
184
102
}
100
AcDbEntity
  8
UNASSIGNED
370
        25
  6
Continuous
 62
         4
100
AcDbLine
 10
16.0896098464
 20
10.8036777163
 30
0.0
 11
16.1733185054
 21
10.7889176212
 31
0.0
  0
LINE
  5
17F
102
{ACAD_REACTORS
330
184
102
}
100
AcDbEntity
  8
UNASSIGNED
370
        25
  6
Continuous
 62
         4
100
AcDbLine
 10
16.1733185054
 20
10.7889176212
 30
0.0
 11
16.1974796753
 21
10.925942425
 31
0.0
  0
LINE
  5
180
102
{ACAD_REACTORS
330
184
102
}
100
AcDbEntity
  8
UNASSIGNED
370
        25
  6
Continuous
 62
         4
100
AcDbLine
 10
16.6843644329
 20
10.7514339183
 30
0.0
 11
16.790950809
 21
10.6619973294
 31
0.0
  0
LINE
  5
181
102
{ACAD_REACTORS
330
184
102
}
100
AcDbEntity
  8
UNASSIGNED
370
        25
  6
Continuous
 62
         4
100
AcDbLine
 10
16.7390013797
 20
10.8165476959
 30
0.0
 11
16.6843644329
 21
10.7514339183
 31
0.0
  0
LINE
  5
182
102
{ACAD_REACTORS
330
184
102
}
100
AcDbEntity
  8
UNASSIGNED
370
        25
  6
Continuous
 62
         4
100
AcDbLine
 10
16.3963796302
 20
10.327597014
 30
0.0
 11
16.2656320842
 21
10.280008799
 31
0.0
  0
LINE
  5
183
102
{ACAD_REACTORS
330
184
102
}
100
AcDbEntity
  8
UNASSIGNED
370
        25
  6
Continuous
 62
         4
100
AcDbLine
 10
16.4254513424
 20
10.2477231412
 30
0.0
 11
16.3963796302
 21
10.327597014
 31
0.0
  0
CIRCLE
  5
185
100
AcDbEntity
  8
X_SMPOSTS
370
        25
  6
Continuous
 62
         3
100
AcDbCircle
 10
16.9945433512
 20
13.9145326096
 30
0.0
 40
0.5110787402
  0
CIRCLE
  5
186
100
AcDbEntity
  8
X_ROLLOVER
370
        25
  6
Continuous
 62
        27
100
AcDbCircle
 10
12.948587496
 20
9.6845823203
 30
0.0
 40
0.075
  0
CIRCLE
  5
187
100
AcDbEntity
  8
X_ROLLOVER
370
        25
  6
Continuous
 62
        27
100
AcDbCircle
 10
12.948587496
 20
9.6845823203
 30
0.0
 40
0.35
  0
CIRCLE
  5
188
102
{ACAD_REACTORS
330
18A
102
}
100
AcDbEntity
  8
0
370
        25
  6
Continuous
 62
        47
100
AcDbCircle
 10
12.948587496
 20
9.6845823203
 30
0.0
 40
0.4
  0
CIRCLE
  5
189
102
{ACAD_REACTORS
330
18A
102
}
100
AcDbEntity
  8
0
370
        25
  6
Continuous
 62
        47
100
AcDbCircle
 10
12.948587496
 20
9.6845823203
 30
0.0
 40
0.215
  0
ARC
  5
18B
100
AcDbEntity
  8
Z0_CUT500
370
         5
  6
Continuous
 62
        47
100
AcDbCircle
 10
12.5667955048
 20
9.8038923176
 30
0.0
 40
0.1
100
AcDbArc
 50
157.5066488584
 51
158.4205214593
  0
CIRCLE
  5
18C
100
AcDbEntity
  8
X_SMPOSTS
370
        25
  6
Continuous
 62
         3
100
AcDbCircle
 10
15.5973858709
 20
13.9145326096
 30
0.0
 40
0.5110787402
  0
CIRCLE
  5
18D
100
AcDbEntity
  8
0
370
        25
  6
Continuous
 62
        47
100
AcDbCircle
 10
14.1295818562
 20
10.0646716012
 30
0.0
 40
0.125
  0
LINE
  5
18E
100
AcDbEntity
  8
Z0_CUT500
370
         5
  6
Continuous
 62
        47
100
AcDbLine
 10
14.1163130078
 20
13.8073724957
 30
0.0
 11
12.4744031114
 21
9.8421499394
 31
0.0
  0
LINE
  5
18F
100
AcDbEntity
  8
Z0_CUT250
370
         5
  6
Continuous
 62
        47
100
AcDbLine
 10
14.2087054013
 20
13.7691148739
 30
0.0
 11
12.5667955048
 21
9.8038923176
 31
0.0
  0
LINE
  5
190
100
AcDbEntity
  8
0
370
         5
  6
Continuous
 62
        47
100
AcDbLine
 10
14.3796045738
 20
13.6982736935
 30
0.0
 11
12.7499749442
 21
9.7669112596
 31
0.0
  0
LINE
  5
191
100
AcDbEntity
  8
0
370
         5
  6
Continuous
 62
        47
100
AcDbLine
 10
14.2087054013
 20
13.7691148739
 30
0.0
 11
12.5667955048
 21
9.8038923176
 31
0.0
  0
ARC
  5
192
100
AcDbEntity
  8
Z0_CUT500
370
         5
  6
Continuous
 62
        47
100
AcDbCircle
 10
12.9260139899
 20
9.6618164658
 30
0.0
 40
0.4862945349
100
AcDbArc
 50
158.4205214593
 51
-67.9343795047
  0
ARC
  5
193
100
AcDbEntity
  8
Z0_CUT250
370
         5
  6
Continuous
 62
        47
100
AcDbCircle
 10
12.9260139899
 20
9.6618164658
 30
0.0
 40
0.3862945349
100
AcDbArc
 50
158.4205214593
 51
-67.9343795047
  0
CIRCLE
  5
194
100
AcDbEntity
  8
Z0_CUT250
370
         5
  6
Continuous
 62
        47
100
AcDbCircle
 10
12.948587496
 20
9.6845823203
 30
0.0
 40
0.075
  0
CIRCLE
  5
195
100
AcDbEntity
  8
6_125BIT_500DEP
370
        25
  6
Continuous
 62
         5
100
AcDbCircle
 10
12.948587496
 20
9.6845823203
 30
0.0
 40
0.0825
  0
CIRCLE
  5
196
100
AcDbEntity
  8
X_DROPS
370
         5
  6
Continuous
 62
         5
100
AcDbCircle
 10
15.5973858709
 20
13.9145326096
 30
0.0
 40
0.4281496063
  0
CIRCLE
  5
197
100
AcDbEntity
  8
X_DROPS
370
         5
  6
Continuous
 62
         5
100
AcDbCircle
 10
16.9945433512
 20
13.9145326096
 30
0.0
 40
0.4281496063
  0
CIRCLE
  5
198
100
AcDbEntity
  8
3_250BIT_500TAB
370
        25
  6
Continuous
 62
         5
100
AcDbCircle
 10
14.0758746205
 20
12.6698396836
 30
0.0
 40
0.25
  0
LINE
  5
199
100
AcDbEntity
  8
Z0_CUT500
370
         5
  6
Continuous
 62
        47
100
AcDbLine
 10
15.4732021951
 20
12.32307266
 30
0.0
 11
15.0418058853
 21
13.8016765856
 31
0.0
  0
ARC
  5
19A
100
AcDbEntity
  8
Z0_CUT500
370
         5
  6
Continuous
 62
        47
100
AcDbCircle
 10
15.1708097183
 20
12.2348468706
 30
0.0
 40
0.315
100
AcDbArc
 50
-25.248601938
 51
16.2650911049
  0
CIRCLE
  5
19B
100
AcDbEntity
  8
6_125BIT_500DEP
370
        25
  6
Continuous
 62
         5
100
AcDbCircle
 10
15.1708097183
 20
12.2348468706
 30
0.0
 40
0.1225
  0
CIRCLE
  5
19C
102
{ACAD_REACTORS
330
19E
102
}
100
AcDbEntity
  8
0
370
        25
  6
Continuous
 62
        30
100
AcDbCircle
 10
15.1708097183
 20
12.2348468706
 30
0.0
 40
0.215
  0
CIRCLE
  5
19D
102
{ACAD_REACTORS
330
19E
102
}
100
AcDbEntity
  8
0
370
        25
  6
Continuous
 62
        30
100
AcDbCircle
 10
15.1708097183
 20
12.2348468706
 30
0.0
 40
0.07
  0
CIRCLE
  5
19F
102
{ACAD_REACTORS
330
1A1
102
}
100
AcDbEntity
  8
0
370
        25
  6
Continuous
 62
        47
100
AcDbCircle
 10
14.5782171257
 20
13.6159447542
 30
0.0
 40
0.4
  0
CIRCLE
  5
1A0
102
{ACAD_REACTORS
330
1A1
102
}
100
AcDbEntity
  8
0
370
        25
  6
Continuous
 62
        47
100
AcDbCircle
 10
14.5782171257
 20
13.6159447542
 30
0.0
 40
0.215
  0
ENDSEC
  0
SECTION
  2
OBJECTS
  0
DICTIONARY
  5
19
100
AcDbDictionary
280
         0
281
         1
  3
ACAD_GROUP
350
1A
  3
ACAD_MLINESTYLE
350
1B
  3
ACAD_LAYOUT
350
1E
  3
ACAD_PLOTSETTINGS
350
22
  3
ACAD_PLOTSTYLENAME
350
1F
  3
ACAD_WIPEOUT_VARS
350
23
  0
DICTIONARY
  5
1A
102
{ACAD_REACTORS
330
19
102
}
100
AcDbDictionary
280
         0
281
         1
  3
VELLUMGRP1
350
7D
  3
VELLUMGRP2
350
89
  3
VELLUMGRP3
350
9B
  3
VELLUMGRP4
350
9E
  3
VELLUMGRP5
350
B1
  3
VELLUMGRP6
350
BE
  3
VELLUMGRP7
350
C6
  3
VELLUMGRP8
350
CF
  3
VELLUMGRP9
350
DD
  3
VELLUMGRP10
350
105
  3
VELLUMGRP11
350
12A
  3
VELLUMGRP12
350
14B
  3
VELLUMGRP13
350
157
  3
VELLUMGRP14
350
165
  3
VELLUMGRP15
350
169
  3
VELLUMGRP16
350
175
  3
VELLUMGRP17
350
184
  3
VELLUMGRP18
350
18A
  3
VELLUMGRP19
350
19E
  3
VELLUMGRP20
350
1A1
  0
DICTIONARY
  5
1B
102
{ACAD_REACTORS
330
19
102
}
100
AcDbDictionary
280
         0
281
         1
  3
Standard
350
1C
  0
MLINESTYLE
  5
1C
102
{ACAD_REACTORS
330
1B
102
}
100
AcDbMlineStyle
  2
Standard
 70
         0
  3

 62
         0
 51
90.0
 52
90.0
 71
         2
 49
0.5
 62
       256
  6
BYLAYER
 49
-0.5
 62
       256
  6
BYLAYER
  0
ACDBDICTIONARYWDFLT
  5
1F
102
{ACAD_REACTORS
330
19
102
}
100
AcDbDictionary
281
         1
  3
Normal
350
1D
100
AcDbDictionaryWithDefault
340
1D
  0
ACDBPLACEHOLDER
  5
1D
102
{ACAD_REACTORS
330
1F
102
}
  0
LAYOUT
  5
20
102
{ACAD_REACTORS
330
1E
102
}
100
AcDbPlotSettings
  1

  2

  4

  6

 40
0.0
 41
0.0
 42
0.0
 43
0.0
 44
0.0
 45
0.0
 46
0.0
 47
0.0
 48
0.0
 49
0.0
140
0.0
141
0.0
142
1.0
143
1.0
 70
      1024
 72
         0
 73
         0
 74
         0
  7

 75
         0
147
1.0
148
0.0
149
0.0
100
AcDbLayout
  1
Model
 70
         0
 71
         0
 10
0.0
 20
0.0
 11
0.0
 21
0.0
 12
0.0
 22
0.0
 32
0.0
 14
0.0
 24
0.0
 34
0.0
 15
0.0
 25
0.0
 35
0.0
146
0.0
 13
0.0
 23
0.0
 33
0.0
 16
0.0
 26
0.0
 36
0.0
 17
0.0
 27
0.0
 37
0.0
 76
         0
330
A
331
0
345
0
346
0
  0
LAYOUT
  5
21
102
{ACAD_REACTORS
330
1E
102
}
100
AcDbPlotSettings
  1

  2

  4

  6

 40
0.0
 41
0.0
 42
0.0
 43
0.0
 44
0.0
 45
0.0
 46
0.0
 47
0.0
 48
0.0
 49
0.0
140
0.0
141
0.0
142
1.0
143
1.0
 70
         0
 72
         0
 73
         0
 74
         0
  7

 75
         0
147
1.0
148
0.0
149
0.0
100
AcDbLayout
  1
Layout1
 70
         0
 71
         0
 10
0.0
 20
0.0
 11
0.0
 21
0.0
 12
0.0
 22
0.0
 32
0.0
 14
0.0
 24
0.0
 34
0.0
 15
0.0
 25
0.0
 35
0.0
146
0.0
 13
0.0
 23
0.0
 33
0.0
 16
0.0
 26
0.0
 36
0.0
 17
0.0
 27
0.0
 37
0.0
 76
         0
330
B
331
0
345
0
346
0
  0
DICTIONARY
  5
1E
102
{ACAD_REACTORS
330
19
102
}
100
AcDbDictionary
280
         0
281
         1
  3
Layout1
350
21
  3
Model
350
20
  0
DICTIONARY
  5
22
102
{ACAD_REACTORS
330
19
102
}
100
AcDbDictionary
280
         0
281
         1
  0
WIPEOUTVARIABLES
  5
23
100
AcDbWipeoutVariables
 70
         1
  0
GROUP
  5
7D
102
{ACAD_XDICTIONARY
360
5CEB210060EB2100
102
}
102
{ACAD_REACTORS
330
1A
102
}
100
AcDbGroup
300
This is Vellum Group Number 1
 70
         0
 71
         1
340
72
340
73
340
74
340
75
340
76
340
77
340
78
340
79
340
7A
340
7B
340
7C
  0
GROUP
  5
89
102
{ACAD_XDICTIONARY
360
3207917C60EB2100
102
}
102
{ACAD_REACTORS
330
1A
102
}
100
AcDbGroup
300
This is Vellum Group Number 2
 70
         0
 71
         1
340
7E
340
7F
340
80
340
81
340
82
340
83
340
84
340
85
340
86
340
87
340
88
  0
GROUP
  5
9B
102
{ACAD_XDICTIONARY
360
3207917C60EB2100
102
}
102
{ACAD_REACTORS
330
1A
102
}
100
AcDbGroup
300
This is Vellum Group Number 3
 70
         0
 71
         1
340
90
340
91
340
92
340
93
340
94
340
95
340
96
340
97
340
98
340
99
340
9A
  0
GROUP
  5
9E
102
{ACAD_XDICTIONARY
360
3207917C60EB2100
102
}
102
{ACAD_REACTORS
330
1A
102
}
100
AcDbGroup
300
This is Vellum Group Number 4
 70
         0
 71
         1
340
9C
340
9D
  0
GROUP
  5
B1
102
{ACAD_XDICTIONARY
360
3207917C60EB2100
102
}
102
{ACAD_REACTORS
330
1A
102
}
100
AcDbGroup
300
This is Vellum Group Number 5
 70
         0
 71
         1
340
A6
340
A7
340
A8
340
A9
340
AA
340
AB
340
AC
340
AD
340
AE
340
AF
340
B0
  0
GROUP
  5
BE
102
{ACAD_XDICTIONARY
360
3207917C60EB2100
102
}
102
{ACAD_REACTORS
330
1A
102
}
100
AcDbGroup
300
This is Vellum Group Number 6
 70
         0
 71
         1
340
B3
340
B4
340
B5
340
B6
340
B7
340
B8
340
B9
340
BA
340
BB
340
BC
340
BD
  0
GROUP
  5
C6
102
{ACAD_XDICTIONARY
360
3207917C60EB2100
102
}
102
{ACAD_REACTORS
330
1A
102
}
100
AcDbGroup
300
This is Vellum Group Number 7
 70
         0
 71
         1
340
C4
340
C5
  0
GROUP
  5
CF
102
{ACAD_XDICTIONARY
360
3207917C60EB2100
102
}
102
{ACAD_REACTORS
330
1A
102
}
100
AcDbGroup
300
This is Vellum Group Number 8
 70
         0
 71
         1
340
CD
340
CE
  0
GROUP
  5
DD
102
{ACAD_XDICTIONARY
360
3207917C60EB2100
102
}
102
{ACAD_REACTORS
330
1A
102
}
100
AcDbGroup
300
This is Vellum Group Number 9
 70
         0
 71
         1
340
D0
340
D1
340
D2
340
D3
340
D4
340
D5
340
D6
340
D7
340
D8
340
D9
340
DA
340
DB
340
DC
  0
GROUP
  5
105
102
{ACAD_XDICTIONARY
360
3207917C60EB2100
102
}
102
{ACAD_REACTORS
330
1A
102
}
100
AcDbGroup
300
This is Vellum Group Number 10
 70
         0
 71
         1
340
DE
340
DF
340
E0
340
E1
340
E2
340
E3
340
E4
340
E5
340
E6
340
E7
340
E8
340
E9
340
EA
340
EB
340
EC
340
ED
340
EE
340
EF
340
F0
340
F1
340
F2
340
F3
340
F4
340
F5
340
F6
340
F7
340
F8
340
F9
340
FA
340
FB
340
FC
340
FD
340
FE
340
FF
340
100
340
101
340
102
340
103
340
104
  0
GROUP
  5
12A
102
{ACAD_XDICTIONARY
360
3207917C60EB2100
102
}
102
{ACAD_REACTORS
330
1A
102
}
100
AcDbGroup
300
This is Vellum Group Number 11
 70
         0
 71
         1
340
106
340
107
340
108
340
109
340
10A
340
10B
340
10C
340
10D
340
10E
340
10F
340
110
340
111
340
112
340
113
340
114
340
115
340
116
340
117
340
118
340
119
340
11A
340
11B
340
11C
340
11D
340
11E
340
11F
340
120
340
121
340
122
340
123
340
124
340
125
340
126
340
127
340
128
340
129
  0
GROUP
  5
14B
102
{ACAD_XDICTIONARY
360
3207917C60EB2100
102
}
102
{ACAD_REACTORS
330
1A
102
}
100
AcDbGroup
300
This is Vellum Group Number 12
 70
         0
 71
         1
340
140
340
141
340
142
340
143
340
144
340
145
340
146
340
147
340
148
340
149
340
14A
  0
GROUP
  5
157
102
{ACAD_XDICTIONARY
360
3207917C60EB2100
102
}
102
{ACAD_REACTORS
330
1A
102
}
100
AcDbGroup
300
This is Vellum Group Number 13
 70
         0
 71
         1
340
14C
340
14D
340
14E
340
14F
340
150
340
151
340
152
340
153
340
154
340
155
340
156
  0
GROUP
  5
165
102
{ACAD_XDICTIONARY
360
3207917C60EB2100
102
}
102
{ACAD_REACTORS
330
1A
102
}
100
AcDbGroup
300
This is Vellum Group Number 14
 70
         0
 71
         1
340
15A
340
15B
340
15C
340
15D
340
15E
340
15F
340
160
340
161
340
162
340
163
340
164
  0
GROUP
  5
169
102
{ACAD_XDICTIONARY
360
3207917C60EB2100
102
}
102
{ACAD_REACTORS
330
1A
102
}
100
AcDbGroup
300
This is Vellum Group Number 15
 70
         0
 71
         1
340
167
340
168
  0
GROUP
  5
175
102
{ACAD_XDICTIONARY
360
3207917C60EB2100
102
}
102
{ACAD_REACTORS
330
1A
102
}
100
AcDbGroup
300
This is Vellum Group Number 16
 70
         0
 71
         1
340
16A
340
16B
340
16C
340
16D
340
16E
340
16F
340
170
340
171
340
172
340
173
340
174
  0
GROUP
  5
184
102
{ACAD_XDICTIONARY
360
3207917C60EB2100
102
}
102
{ACAD_REACTORS
330
1A
102
}
100
AcDbGroup
300
This is Vellum Group Number 17
 70
         0
 71
         1
340
179
340
17A
340
17B
340
17C
340
17D
340
17E
340
17F
340
180
340
181
340
182
340
183
  0
GROUP
  5
18A
102
{ACAD_XDICTIONARY
360
3207917C60EB2100
102
}
102
{ACAD_REACTORS
330
1A
102
}
100
AcDbGroup
300
This is Vellum Group Number 18
 70
         0
 71
         1
340
188
340
189
  0
GROUP
  5
19E
102
{ACAD_XDICTIONARY
360
3207917C60EB2100
102
}
102
{ACAD_REACTORS
330
1A
102
}
100
AcDbGroup
300
This is Vellum Group Number 19
 70
         0
 71
         1
340
19C
340
19D
  0
GROUP
  5
1A1
102
{ACAD_XDICTIONARY
360
3207917C60EB2100
102
}
102
{ACAD_REACTORS
330
1A
102
}
100
AcDbGroup
300
This is Vellum Group Number 20
 70
         0
 71
         1
340
19F
340
1A0
  0
ENDSEC
  0
EOF
