  0
SECTION
  2
HEADER
  9
$ACADVER
  1
AC1015
  9
$ACADMAINTVER
 70
         6
  9
$DWGCODEPAGE
  3
ANSI_1252
  9
$INSBASE
 10
0.0
 20
0.0
 30
0.0
  9
$EXTMIN
 10
-0.93969262
 20
-0.98480775
 30
0.0
  9
$EXTMAX
 10
13.0
 20
12.98480775
 30
0.0
  9
$LIMMIN
 10
0.0
 20
0.0
  9
$LIMMAX
 10
0.0
 20
0.0
  9
$ORTHOMODE
 70
         0
  9
$REGENMODE
 70
         1
  9
$FILLMODE
 70
         1
  9
$QTEXTMODE
 70
         0
  9
$MIRRTEXT
 70
         1
  9
$LTSCALE
 40
5.0
  9
$ATTMODE
 70
         1
  9
$TEXTSIZE
 40
0.2
  9
$TRACEWID
 40
0.05
  9
$TEXTSTYLE
  7
Standard
  9
$CLAYER
  8
0
  9
$CELTYPE
  6
Continuous
  9
$CECOLOR
 62
       256
  9
$CELTSCALE
 40
1.0
  9
$DISPSILH
 70
         0
  9
$DIMSCALE
 40
1.0
  9
$DIMASZ
 40
0.18
  9
$DIMEXO
 40
0.0625
  9
$DIMDLI
 40
0.38
  9
$DIMRND
 40
0.0
  9
$DIMDLE
 40
0.0
  9
$DIMEXE
 40
0.18
  9
$DIMTP
 40
0.0
  9
$DIMTM
 40
0.0
  9
$DIMTXT
 40
0.18
  9
$DIMCEN
 40
0.09
  9
$DIMTSZ
 40
0.0
  9
$DIMTOL
 70
         0
  9
$DIMLIM
 70
         0
  9
$DIMTIH
 70
         1
  9
$DIMTOH
 70
         1
  9
$DIMSE1
 70
         0
  9
$DIMSE2
 70
         0
  9
$DIMTAD
 70
         0
  9
$DIMZIN
 70
         0
  9
$DIMBLK
  1

  9
$DIMASO
 70
         1
  9
$DIMSHO
 70
         1
  9
$DIMPOST
  1

  9
$DIMAPOST
  1

  9
$DIMALT
 70
         0
  9
$DIMALTD
 70
         2
  9
$DIMALTF
 40
25.4
  9
$DIMLFAC
 40
1.0
  9
$DIMTOFL
 70
         0
  9
$DIMTVP
 40
0.0
  9
$DIMTIX
 70
         0
  9
$DIMSOXD
 70
         0
  9
$DIMSAH
 70
         0
  9
$DIMBLK1
  1

  9
$DIMBLK2
  1

  9
$DIMSTYLE
  2
Standard
  9
$DIMCLRD
 70
         0
  9
$DIMCLRE
 70
         0
  9
$DIMCLRT
 70
         0
  9
$DIMTFAC
 40
1.0
  9
$DIMGAP
 40
0.09
  9
$DIMJUST
 70
         0
  9
$DIMSD1
 70
         0
  9
$DIMSD2
 70
         0
  9
$DIMTOLJ
 70
         1
  9
$DIMTZIN
 70
         0
  9
$DIMALTZ
 70
         0
  9
$DIMALTTZ
 70
         0
  9
$DIMUPT
 70
         0
  9
$DIMDEC
 70
         4
  9
$DIMTDEC
 70
         4
  9
$DIMALTU
 70
         2
  9
$DIMALTTD
 70
         2
  9
$DIMTXSTY
  7
Standard
  9
$DIMAUNIT
 70
         0
  9
$DIMADEC
 70
         0
  9
$DIMALTRND
 40
0.0
  9
$DIMAZIN
 70
         0
  9
$DIMDSEP
 70
         0
  9
$DIMATFIT
 70
         3
  9
$DIMFRAC
 70
         0
  9
$DIMLDRBLK
  1

  9
$DIMLUNIT
 70
         2
  9
$DIMLWD
 70
         0
  9
$DIMLWE
 70
         0
  9
$DIMTMOVE
 70
         0
  9
$LUNITS
 70
         2
  9
$LUPREC
 70
         4
  9
$SKETCHINC
 40
0.1
  9
$FILLETRAD
 40
0.0
  9
$AUNITS
 70
         0
  9
$AUPREC
 70
         0
  9
$MENU
  1
acad
  9
$ELEVATION
 40
0.0
  9
$PELEVATION
 40
0.0
  9
$THICKNESS
 40
0.0
  9
$LIMCHECK
 70
         0
  9
$CHAMFERA
 40
0.0
  9
$CHAMFERB
 40
0.0
  9
$CHAMFERC
 40
0.0
  9
$CHAMFERD
 40
0.0
  9
$SKPOLY
 70
         0
  9
$TDCREATE
 40
2460904.905381945
  9
$TDUCREATE
 40
0.000000000
  9
$TDUPDATE
 40
2460904.905381945
  9
$TDUUPDATE
 40
0.000000000
  9
$TDINDWG
 40
0.0000000000
  9
$TDUSRTIMER
 40
0.0000000000
  9
$USRTIMER
 70
         1
  9
$ANGBASE
 50
0.0
  9
$ANGDIR
 70
         0
  9
$PDMODE
 70
         0
  9
$PDSIZE
 40
0.0
  9
$PLINEWID
 40
0.0
  9
$SPLFRAME
 70
         0
  9
$SPLINETYPE
 70
         6
  9
$SPLINESEGS
 70
         8
  9
$HANDSEED
  5
2C2
  9
$SURFTAB1
 70
         6
  9
$SURFTAB2
 70
         6
  9
$SURFTYPE
 70
         6
  9
$SURFU
 70
         6
  9
$SURFV
 70
         6
  9
$UCSBASE
  2

  9
$UCSNAME
  2

  9
$UCSORG
 10
0.0
 20
0.0
 30
0.0
  9
$UCSXDIR
 10
1.0
 20
0.0
 30
0.0
  9
$UCSYDIR
 10
0.0
 20
1.0
 30
0.0
  9
$UCSORTHOREF
  2

  9
$UCSORTHOVIEW
 70
         0
  9
$UCSORGTOP
 10
0.0
 20
0.0
 30
0.0
  9
$UCSORGBOTTOM
 10
0.0
 20
0.0
 30
0.0
  9
$UCSORGLEFT
 10
0.0
 20
0.0
 30
0.0
  9
$UCSORGRIGHT
 10
0.0
 20
0.0
 30
0.0
  9
$UCSORGFRONT
 10
0.0
 20
0.0
 30
0.0
  9
$UCSORGBACK
 10
0.0
 20
0.0
 30
0.0
  9
$PUCSBASE
  2

  9
$PUCSNAME
  2

  9
$PUCSORG
 10
0.0
 20
0.0
 30
0.0
  9
$PUCSXDIR
 10
1.0
 20
0.0
 30
0.0
  9
$PUCSYDIR
 10
0.0
 20
1.0
 30
0.0
  9
$PUCSORTHOREF
  2

  9
$PUCSORTHOVIEW
 70
         0
  9
$PUCSORGTOP
 10
0.0
 20
0.0
 30
0.0
  9
$PUCSORGBOTTOM
 10
0.0
 20
0.0
 30
0.0
  9
$PUCSORGLEFT
 10
0.0
 20
0.0
 30
0.0
  9
$PUCSORGRIGHT
 10
0.0
 20
0.0
 30
0.0
  9
$PUCSORGFRONT
 10
0.0
 20
0.0
 30
0.0
  9
$PUCSORGBACK
 10
0.0
 20
0.0
 30
0.0
  9
$USERI1
 70
         0
  9
$USERI2
 70
         0
  9
$USERI3
 70
         0
  9
$USERI4
 70
         0
  9
$USERI5
 70
         0
  9
$USERR1
 40
0.0
  9
$USERR2
 40
0.0
  9
$USERR3
 40
0.0
  9
$USERR4
 40
0.0
  9
$USERR5
 40
0.0
  9
$WORLDVIEW
 70
         1
  9
$SHADEDGE
 70
         3
  9
$SHADEDIF
 70
        70
  9
$TILEMODE
 70
         1
  9
$MAXACTVP
 70
        16
  9
$PINSBASE
 10
0.0
 20
0.0
 30
0.0
  9
$PLIMCHECK
 70
         0
  9
$PEXTMIN
 10
1.0000000000E+20
 20
1.0000000000E+20
 30
1.0000000000E+20
  9
$PEXTMAX
 10
-1.0000000000E+20
 20
-1.0000000000E+20
 30
-1.0000000000E+20
  9
$PLIMMIN
 10
0.0
 20
0.0
  9
$PLIMMAX
 10
12.0
 20
9.0
  9
$UNITMODE
 70
         0
  9
$VISRETAIN
 70
         0
  9
$PLINEGEN
 70
         1
  9
$PSLTSCALE
 70
         0
  9
$TREEDEPTH
 70
      3020
  9
$CMLSTYLE
  2
Standard
  9
$CMLJUST
 70
         0
  9
$CMLSCALE
 40
1.0
  9
$PROXYGRAPHICS
 70
         0
  9
$MEASUREMENT
 70
         0
  9
$CELWEIGHT
370
         0
  9
$ENDCAPS
280
         0
  9
$JOINSTYLE
280
         0
  9
$LWDISPLAY
290
         0
  9
$INSUNITS
 70
         0
  9
$HYPERLINKBASE
  1

  9
$XEDIT
290
         1
  9
$CEPSNTYPE
380
         0
  9
$PSTYLEMODE
290
         1
  9
$FINGERPRINTGUID
  2

  9
$VERSIONGUID
  2

  9
$EXTNAMES
290
         1
  9
$PSVPSCALE
 40
0.0
  0
ENDSEC
  0
SECTION
  2
CLASSES
  0
CLASS
  1
LWPOLYLINE
  2
AcDbPolyline
  3
AutoCAD 2000
 90
    32768
280
         0
281
         1
  0
CLASS
  1
IMAGE
  2
AcDbRasterImage
  3
ISM
 90
    32895
280
         0
281
         1
  0
CLASS
  1
OLE2FRAME
  2
AcDbOle2Frame
  3
AutoCAD 2000
 90
    32768
280
         0
281
         1
  0
CLASS
  1
HATCH
  2
AcDbHatch
  3
AutoCAD 2000
 90
    32768
280
         0
281
         1
  0
CLASS
  1
DICTIONARYVAR
  2
AcDbDictionaryVar
  3
AutoCAD 2000
 90
    32768
280
         0
281
         0
  0
CLASS
  1
RASTERVARIABLES
  2
AcDbRasterVariables
  3
ISM
 90
    32768
280
         0
281
         0
  0
CLASS
  1
IMAGEDEF
  2
AcDbRasterImageDef
  3
ISM
 90
    32768
280
         0
281
         0
  0
CLASS
  1
IMAGEDEF_REACTOR
  2
AcDbRasterImageDefReactor
  3
ISM
 90
    32769
280
         0
281
         0
  0
CLASS
  1
IDBUFFER
  2
AcDbIdBuffer
  3
AutoCAD 2000
 90
    32768
280
         0
281
         0
  0
CLASS
  1
SPATIAL_FILTER
  2
AcDbSpatialFilter
  3
AutoCAD 2000
 90
    32768
280
         0
281
         0
  0
CLASS
  1
XRECORD
  2
AcDbXrecord
  3
AutoCAD 2000
 90
    32768
280
         0
281
         0
  0
CLASS
  1
SORTENTSTABLE
  2
AcDbSortentsTable
  3
AutoCAD 2000
 90
    32768
280
         0
281
         0
  0
CLASS
  1
LAYER_INDEX
  2
AcDbLayerIndex
  3
AutoCAD 2000
 90
    32768
280
         0
281
         0
  0
CLASS
  1
SPATIAL_INDEX
  2
AcDbSpatialIndex
  3
AutoCAD 2000
 90
    32768
280
         0
281
         0
  0
CLASS
  1
OBJECT_PTR
  2
CAseDLPNTableRecord
  3
"ASE-LPNTableRecord"
 90
    32769
280
         0
281
         0
  0
CLASS
  1
LAYOUT
  2
AcDbLayout
  3
AutoCAD 2000
 90
        0
280
         0
281
         0
  0
CLASS
  1
PLOTSETTINGS
  2
AcDbPlotSettings
  3
AutoCAD 2000
 90
    32768
280
         0
281
         0
  0
CLASS
  1
ACDBDICTIONARYWDFLT
  2
AcDbDictionaryWithDefault
  3
AutoCAD 2000
 90
        0
280
         0
281
         0
  0
CLASS
  1
ACDBPLACEHOLDER
  2
AcDbPlaceHolder
  3
AutoCAD 2000
 90
        0
280
         0
281
         0
  0
CLASS
  1
VBA_PROJECT
  2
AcDbVbaProject
  3
acadvba
 90
    32768
280
         0
281
         0
  0
CLASS
  1
WIPEOUT
  2
AcDbWipeout
  3
WipeOut|AutoCAD Express Tool|expresstools@autodesk.com
 90
    32895
280
         0
281
         1
  0
CLASS
  1
WIPEOUTVARIABLES
  2
AcDbWipeoutVariables
  3
WipeOut|AutoCAD Express Tool|expresstools@autodesk.com
 90
        0
280
         0
281
         0
  0
CLASS
  1
RTEXT
  2
RText
  3
RText|AutoCAD Express Tool|expresstools@autodesk.com
 90
    32768
280
         0
281
         1
  0
CLASS
  1
ARCALIGNEDTEXT
  2
AcDbArcAlignedText
  3
ATEXT|AutoCAD Express Tool|expresstools@autodesk.com
 90
    32768
280
         0
281
         1
  0
ENDSEC
  0
SECTION
  2
TABLES
  0
TABLE
  2
VPORT
  5
7
100
AcDbSymbolTable
 70
         1
  0
VPORT
  5
15
100
AcDbSymbolTableRecord
100
AcDbViewportTableRecord
  2
*ACTIVE
 70
         0
 10
0.0
 20
0.0
 11
1.0
 21
1.0
 12
6.591288
 22
4.579184
 13
0.0
 23
0.0
 14
1.0
 24
1.0
 15
0.0
 25
0.0
 16
0.0
 26
0.0
 36
1.0
 17
0.0
 27
0.0
 37
0.0
 40
9.158369
 41
0.688564
 42
50.0
 43
0.0
 44
0.0
 50
0.0
 51
0.0
 71
         0
 72
       100
 73
         1
 74
         1
 75
         0
 76
         0
 77
         0
 78
         0
281
         0
 65
         0
110
0.0
120
0.0
130
0.0
111
1.0
121
0.0
131
0.0
112
0.0
122
1.0
132
0.0
345
0
346
0
 79
         0
146
0.0
  0
ENDTAB
  0
TABLE
  2
LTYPE
  5
4
100
AcDbSymbolTable
 70
        13
  0
LTYPE
  5
11
100
AcDbSymbolTableRecord
100
AcDbLinetypeTableRecord
  2
ByBlock
 70
        64
  3

 72
        65
 73
         0
 40
0.0
  0
LTYPE
  5
12
100
AcDbSymbolTableRecord
100
AcDbLinetypeTableRecord
  2
ByLayer
 70
        64
  3

 72
        65
 73
         0
 40
0.0
  0
LTYPE
  5
13
100
AcDbSymbolTableRecord
100
AcDbLinetypeTableRecord
  2
Continuous
 70
        64
  3
Solid line
 72
        65
 73
         0
 40
0.0
  0
LTYPE
  5
25
100
AcDbSymbolTableRecord
100
AcDbLinetypeTableRecord
  2
Dotted
 70
        64
  3
Dotted
 72
        65
 73
         2
 40
0.125
 49
0.0
 74
         0
 49
-0.125
 74
         0
  0
LTYPE
  5
26
100
AcDbSymbolTableRecord
100
AcDbLinetypeTableRecord
  2
Center
 70
        64
  3
Center
 72
        65
 73
         4
 40
0.7699999809
 49
0.5
 74
         0
 49
-0.0724999979
 74
         0
 49
0.125
 74
         0
 49
-0.0724999979
 74
         0
  0
LTYPE
  5
27
100
AcDbSymbolTableRecord
100
AcDbLinetypeTableRecord
  2
Dashed
 70
        64
  3
Dashed
 72
        65
 73
         2
 40
0.375
 49
0.25
 74
         0
 49
-0.125
 74
         0
  0
LTYPE
  5
28
100
AcDbSymbolTableRecord
100
AcDbLinetypeTableRecord
  2
Hidden
 70
        64
  3
Hidden
 72
        65
 73
         2
 40
0.1974999905
 49
0.125
 74
         0
 49
-0.0724999979
 74
         0
  0
LTYPE
  5
29
100
AcDbSymbolTableRecord
100
AcDbLinetypeTableRecord
  2
Phantom
 70
        64
  3
Phantom
 72
        65
 73
         6
 40
0.9674999714
 49
0.5
 74
         0
 49
-0.0724999979
 74
         0
 49
0.125
 74
         0
 49
-0.0724999979
 74
         0
 49
0.125
 74
         0
 49
-0.0724999979
 74
         0
  0
LTYPE
  5
2A
100
AcDbSymbolTableRecord
100
AcDbLinetypeTableRecord
  2
Dashdot
 70
        64
  3
Dashdot
 72
        65
 73
         4
 40
0.6762499809
 49
0.5
 74
         0
 49
-0.0724999979
 74
         0
 49
0.03125
 74
         0
 49
-0.0724999979
 74
         0
  0
LTYPE
  5
2B
100
AcDbSymbolTableRecord
100
AcDbLinetypeTableRecord
  2
Border
 70
        64
  3
Border
 72
        65
 73
         6
 40
1.2487499714
 49
0.5
 74
         0
 49
-0.0724999979
 74
         0
 49
0.5
 74
         0
 49
-0.0724999979
 74
         0
 49
0.03125
 74
         0
 49
-0.0724999979
 74
         0
  0
LTYPE
  5
2C
100
AcDbSymbolTableRecord
100
AcDbLinetypeTableRecord
  2
Divide
 70
        64
  3
Divide
 72
        65
 73
         6
 40
0.7799999714
 49
0.5
 74
         0
 49
-0.0724999979
 74
         0
 49
0.03125
 74
         0
 49
-0.0724999979
 74
         0
 49
0.03125
 74
         0
 49
-0.0724999979
 74
         0
  0
LTYPE
  5
2D
100
AcDbSymbolTableRecord
100
AcDbLinetypeTableRecord
  2
Cutting
 70
        64
  3
Cutting
 72
        65
 73
         6
 40
1.4674999714
 49
1.0
 74
         0
 49
-0.0724999979
 74
         0
 49
0.125
 74
         0
 49
-0.0724999979
 74
         0
 49
0.125
 74
         0
 49
-0.0724999979
 74
         0
  0
LTYPE
  5
2E
100
AcDbSymbolTableRecord
100
AcDbLinetypeTableRecord
  2
Stitch
 70
        64
  3
Stitch
 72
        65
 73
         2
 40
0.1449999958
 49
0.0724999979
 74
         0
 49
-0.0724999979
 74
         0
  0
ENDTAB
  0
TABLE
  2
LAYER
  5
2
100
AcDbSymbolTable
 70
        42
  0
LAYER
  5
14
100
AcDbSymbolTableRecord
100
AcDbLayerTableRecord
  2
0
 70
         0
 62
         7
  6
Continuous
290
         1
370
        -3
390
1D
  0
LAYER
  5
2F
100
AcDbSymbolTableRecord
100
AcDbLayerTableRecord
  2
DF_COMP
 70
         0
 62
         4
  6
Continuous
290
         1
370
         2
390
1F
  0
LAYER
  5
30
100
AcDbSymbolTableRecord
100
AcDbLayerTableRecord
  2
1_250BIT_500DEP
 70
         0
 62
         5
  6
Continuous
290
         1
370
         2
390
1F
  0
LAYER
  5
31
100
AcDbSymbolTableRecord
100
AcDbLayerTableRecord
  2
2_250BIT_250DEP
 70
         0
 62
         3
  6
Continuous
290
         1
370
         2
390
1F
  0
LAYER
  5
32
100
AcDbSymbolTableRecord
100
AcDbLayerTableRecord
  2
3_250BIT_500TAB
 70
         0
 62
         5
  6
Continuous
290
         1
370
         2
390
1F
  0
LAYER
  5
33
100
AcDbSymbolTableRecord
100
AcDbLayerTableRecord
  2
4_250BIT_250TAB
 70
         0
 62
         5
  6
Continuous
290
         1
370
         2
390
1F
  0
LAYER
  5
34
100
AcDbSymbolTableRecord
100
AcDbLayerTableRecord
  2
5_250BIT_250SPEC
 70
         0
 62
         5
  6
Continuous
290
         1
370
         2
390
1F
  0
LAYER
  5
35
100
AcDbSymbolTableRecord
100
AcDbLayerTableRecord
  2
6_125BIT_500DEP
 70
         0
 62
         5
  6
Continuous
290
         1
370
         2
390
1F
  0
LAYER
  5
36
100
AcDbSymbolTableRecord
100
AcDbLayerTableRecord
  2
7_VCARVE_BIT
 70
         0
 62
         5
  6
Continuous
290
         1
370
         2
390
1F
  0
LAYER
  5
37
100
AcDbSymbolTableRecord
100
AcDbLayerTableRecord
  2
8_250BIT_500OUTLINE
 70
         0
 62
         5
  6
Continuous
290
         1
370
         2
390
1F
  0
LAYER
  5
38
100
AcDbSymbolTableRecord
100
AcDbLayerTableRecord
  2
PLASTICS
 70
         0
 62
        37
  6
Continuous
290
         1
370
         2
390
1F
  0
LAYER
  5
39
100
AcDbSymbolTableRecord
100
AcDbLayerTableRecord
  2
7A_1250BALL
 70
         0
 62
         5
  6
Continuous
290
         1
370
         2
390
1F
  0
LAYER
  5
3A
100
AcDbSymbolTableRecord
100
AcDbLayerTableRecord
  2
CONSTRUCTION
 70
         0
 62
         7
  6
Continuous
290
         1
370
         0
390
1F
  0
LAYER
  5
3B
100
AcDbSymbolTableRecord
100
AcDbLayerTableRecord
  2
0_WOOD
 70
         0
 62
         5
  6
Continuous
290
         1
370
         2
390
1F
  0
LAYER
  5
3C
100
AcDbSymbolTableRecord
100
AcDbLayerTableRecord
  2
Z_TATTOOMYSTIQUE
 70
         0
 62
        37
  6
Continuous
290
         1
370
         2
390
1F
  0
LAYER
  5
3D
100
AcDbSymbolTableRecord
100
AcDbLayerTableRecord
  2
Z_ROLLRGIRLZ
 70
         0
 62
        37
  6
Continuous
290
         1
370
         2
390
1F
  0
LAYER
  5
3E
100
AcDbSymbolTableRecord
100
AcDbLayerTableRecord
  2
Z_MISSADV
 70
         0
 62
         5
  6
Continuous
290
         1
370
         2
390
1F
  0
LAYER
  5
3F
100
AcDbSymbolTableRecord
100
AcDbLayerTableRecord
  2
Z_JUPITERCRUSH
 70
         0
 62
        37
  6
Continuous
290
         1
370
         2
390
1F
  0
LAYER
  5
40
100
AcDbSymbolTableRecord
100
AcDbLayerTableRecord
  2
Z_MODULAR
 70
         0
 62
         5
  6
Continuous
290
         1
370
         2
390
1F
  0
LAYER
  5
41
100
AcDbSymbolTableRecord
100
AcDbLayerTableRecord
  2
Z_GENERIC
 70
         0
 62
        27
  6
Continuous
290
         1
370
         2
390
1F
  0
LAYER
  5
42
100
AcDbSymbolTableRecord
100
AcDbLayerTableRecord
  2
UNASSIGNED
 70
         0
 62
         7
  6
Continuous
290
         1
370
         0
390
1F
  0
LAYER
  5
43
100
AcDbSymbolTableRecord
100
AcDbLayerTableRecord
  2
0
 70
         0
 62
        42
  6
Continuous
290
         1
370
         2
390
1F
  0
LAYER
  5
44
100
AcDbSymbolTableRecord
100
AcDbLayerTableRecord
  2
LAYER_1
 70
         0
 62
        42
  6
Continuous
290
         1
370
         2
390
1F
  0
LAYER
  5
45
100
AcDbSymbolTableRecord
100
AcDbLayerTableRecord
  2
LAYER_3
 70
         0
 62
         4
  6
Continuous
290
         1
370
         2
390
1F
  0
LAYER
  5
46
100
AcDbSymbolTableRecord
100
AcDbLayerTableRecord
  2
LAYER_2
 70
         0
 62
        42
  6
Continuous
290
         1
370
         2
390
1F
  0
LAYER
  5
47
100
AcDbSymbolTableRecord
100
AcDbLayerTableRecord
  2
X_POSTS
 70
         0
 62
         4
  6
Continuous
290
         1
370
         2
390
1F
  0
LAYER
  5
48
100
AcDbSymbolTableRecord
100
AcDbLayerTableRecord
  2
X_THUMPER
 70
         0
 62
         4
  6
Continuous
290
         1
370
         2
390
1F
  0
LAYER
  5
49
100
AcDbSymbolTableRecord
100
AcDbLayerTableRecord
  2
X_STANDUPS
 70
         0
 62
         4
  6
Continuous
290
         1
370
         2
390
1F
  0
LAYER
  5
4A
100
AcDbSymbolTableRecord
100
AcDbLayerTableRecord
  2
X_DROPS
 70
         0
 62
         4
  6
Continuous
290
         1
370
         2
390
1F
  0
LAYER
  5
4B
100
AcDbSymbolTableRecord
100
AcDbLayerTableRecord
  2
X_SMPOSTS
 70
         0
 62
         4
  6
Continuous
290
         1
370
         2
390
1F
  0
LAYER
  5
4C
100
AcDbSymbolTableRecord
100
AcDbLayerTableRecord
  2
X_ROLLOVER
 70
         0
 62
         4
  6
Continuous
290
         1
370
         2
390
1F
  0
LAYER
  5
4D
100
AcDbSymbolTableRecord
100
AcDbLayerTableRecord
  2
X_WALLS
 70
         0
 62
         4
  6
Continuous
290
         1
370
         2
390
1F
  0
LAYER
  5
4E
100
AcDbSymbolTableRecord
100
AcDbLayerTableRecord
  2
Z0_BOTCOMP
 70
         0
 62
         4
  6
Continuous
290
         1
370
         2
390
1F
  0
LAYER
  5
4F
100
AcDbSymbolTableRecord
100
AcDbLayerTableRecord
  2
Z0_TOPCOMP
 70
         0
 62
         6
  6
Continuous
290
         1
370
         2
390
1F
  0
LAYER
  5
50
100
AcDbSymbolTableRecord
100
AcDbLayerTableRecord
  2
Z0_CUT250
 70
         0
 62
         4
  6
Continuous
290
         1
370
         2
390
1F
  0
LAYER
  5
51
100
AcDbSymbolTableRecord
100
AcDbLayerTableRecord
  2
Z0_CUT500
 70
         0
 62
         4
  6
Continuous
290
         1
370
         2
390
1F
  0
LAYER
  5
52
100
AcDbSymbolTableRecord
100
AcDbLayerTableRecord
  2
Z0_PLASTICS
 70
         0
 62
        37
  6
Continuous
290
         1
370
         2
390
1F
  0
LAYER
  5
53
100
AcDbSymbolTableRecord
100
AcDbLayerTableRecord
  2
Z0_RUBBER
 70
         0
 62
         4
  6
Continuous
290
         1
370
         2
390
1F
  0
LAYER
  5
54
100
AcDbSymbolTableRecord
100
AcDbLayerTableRecord
  2
Z0_ZONES
 70
         0
 62
         6
  6
Continuous
290
         1
370
         2
390
1F
  0
LAYER
  5
55
100
AcDbSymbolTableRecord
100
AcDbLayerTableRecord
  2
Z0_WOODOUTLINE
 70
         0
 62
         5
  6
Continuous
290
         1
370
         2
390
1F
  0
LAYER
  5
56
100
AcDbSymbolTableRecord
100
AcDbLayerTableRecord
  2
Z0_LOWERTHIRD
 70
         0
 62
         4
  6
Continuous
290
         1
370
         2
390
1F
  0
LAYER
  5
57
100
AcDbSymbolTableRecord
100
AcDbLayerTableRecord
  2
PART_A
 70
         0
 62
         4
  6
Continuous
290
         1
370
         2
390
1F
  0
ENDTAB
  0
TABLE
  2
STYLE
  5
3
100
AcDbSymbolTable
 70
         2
  0
STYLE
  5
17
100
AcDbSymbolTableRecord
100
AcDbTextStyleTableRecord
  2
Standard
 70
         0
 40
0.0
 41
1.0
 50
0.0
 71
         0
 42
0.0
  3
txt
  4

  0
STYLE
  5
24
100
AcDbSymbolTableRecord
100
AcDbTextStyleTableRecord
  2
Plotter
 70
         0
 40
0.0
 41
0.98
 50
0.0
 71
         0
 42
0.0
  3
SIMPLEX
  4

  0
ENDTAB
  0
TABLE
  2
VIEW
  5
5
100
AcDbSymbolTable
 70
         0
  0
ENDTAB
  0
TABLE
  2
UCS
  5
6
100
AcDbSymbolTable
 70
         0
  0
ENDTAB
  0
TABLE
  2
APPID
  5
8
100
AcDbSymbolTable
 70
         1
  0
APPID
  5
16
100
AcDbSymbolTableRecord
100
AcDbRegAppTableRecord
  2
ACAD
 70
         0
  0
ENDTAB
  0
TABLE
  2
DIMSTYLE
  5
9
100
AcDbSymbolTable
 70
         1
100
AcDbDimStyleTable
 71
         0
  0
DIMSTYLE
105
18
100
AcDbSymbolTableRecord
100
AcDbDimStyleTableRecord
  2
Standard
 70
         0
  3

  4

 40
1.0
 41
0.18
 42
0.0625
 43
0.38
 44
0.18
 45
0.0
 46
0.0
 47
0.0
 48
0.0
 71
         0
 72
         0
 73
         1
 74
         1
 75
         0
 76
         0
 77
         0
 78
         0
 79
         0
140
0.18
141
0.09
142
0.0
143
25.4
144
1.0
145
0.0
146
1.0
147
0.09
148
0.0
170
         0
171
         2
172
         0
173
         0
174
         0
175
         0
176
         0
177
         0
178
         0
179
         0
271
         4
272
         4
273
         2
274
         2
275
         0
276
         0
277
         2
278
        46
279
         0
280
         0
281
         0
282
         0
283
         1
284
         0
285
         0
286
         0
288
         0
340
17
341
0
342
0
343
0
344
0
371
        -2
372
        -2
  0
ENDTAB
  0
TABLE
  2
BLOCK_RECORD
  5
1
100
AcDbSymbolTable
 70
         0
  0
BLOCK_RECORD
  5
A
100
AcDbSymbolTableRecord
100
AcDbBlockTableRecord
  2
*MODEL_SPACE
340
20
  0
BLOCK_RECORD
  5
B
100
AcDbSymbolTableRecord
100
AcDbBlockTableRecord
  2
*PAPER_SPACE
340
21
  0
ENDTAB
  0
ENDSEC
  0
SECTION
  2
BLOCKS
  0
BLOCK
  5
D
100
AcDbEntity
  8
0
100
AcDbBlockBegin
  2
*MODEL_SPACE
 70
         0
 10
0.0
 20
0.0
 30
0.0
  3
*MODEL_SPACE
  1

  0
ENDBLK
  5
E
100
AcDbEntity
  8
0
100
AcDbBlockEnd
  0
BLOCK
  5
F
100
AcDbEntity
 67
         1
  8
0
100
AcDbBlockBegin
  2
*PAPER_SPACE
 70
         0
 10
0.0
 20
0.0
 30
0.0
  3
*PAPER_SPACE
  1

  0
ENDBLK
  5
10
100
AcDbEntity
 67
         1
  8
0
100
AcDbBlockEnd
  0
ENDSEC
  0
SECTION
  2
ENTITIES
  0
ARC
  5
58
102
{ACAD_REACTORS
330
60
102
}
100
AcDbEntity
  8
5_250BIT_250SPEC
370
        25
  6
Continuous
 62
         5
100
AcDbCircle
 10
12.1033223202
 20
3.4178712796
 30
0.0
 40
0.25
100
AcDbArc
 50
29.209216376
 51
119.2092162645
  0
ARC
  5
59
102
{ACAD_REACTORS
330
60
102
}
100
AcDbEntity
  8
5_250BIT_250SPEC
370
        25
  6
Continuous
 62
         5
100
AcDbCircle
 10
10.068509647
 20
2.2802233342
 30
0.0
 40
0.25
100
AcDbArc
 50
119.2092162645
 51
-140.1104261263
  0
ARC
  5
5A
102
{ACAD_REACTORS
330
60
102
}
100
AcDbEntity
  8
5_250BIT_250SPEC
370
        25
  6
Continuous
 62
         5
100
AcDbCircle
 10
12.6045854199
 20
2.5213052484
 30
0.0
 40
0.25
100
AcDbArc
 50
-60.7907837355
 51
29.209216376
  0
LINE
  5
5B
102
{ACAD_REACTORS
330
60
102
}
100
AcDbEntity
  8
5_250BIT_250SPEC
370
        25
  6
Continuous
 62
         5
100
AcDbLine
 10
12.8227963176
 20
2.6433052654
 30
0.0
 11
12.3215332179
 21
3.5398712965
 31
0.0
  0
ARC
  5
5C
102
{ACAD_REACTORS
330
60
102
}
100
AcDbEntity
  8
5_250BIT_250SPEC
370
        25
  6
Continuous
 62
         5
100
AcDbCircle
 10
10.7388623376
 20
1.4781939787
 30
0.0
 40
0.25
100
AcDbArc
 50
-140.1104261263
 51
-60.7907837355
  0
LINE
  5
5D
102
{ACAD_REACTORS
330
60
102
}
100
AcDbEntity
  8
5_250BIT_250SPEC
370
        25
  6
Continuous
 62
         5
100
AcDbLine
 10
9.8766891811
 20
2.1198958293
 30
0.0
 11
10.5470418716
 21
1.3178664738
 31
0.0
  0
LINE
  5
5E
102
{ACAD_REACTORS
330
60
102
}
100
AcDbEntity
  8
5_250BIT_250SPEC
370
        25
  6
Continuous
 62
         5
100
AcDbLine
 10
10.8608623541
 20
1.2599830808
 30
0.0
 11
12.7265854364
 21
2.3030943505
 31
0.0
  0
LINE
  5
5F
102
{ACAD_REACTORS
330
60
102
}
100
AcDbEntity
  8
5_250BIT_250SPEC
370
        25
  6
Continuous
 62
         5
100
AcDbLine
 10
11.9813223037
 20
3.6360821775
 30
0.0
 11
9.9465096305
 21
2.4984342322
 31
0.0
  0
LINE
  5
61
102
{ACAD_REACTORS
330
69
102
}
100
AcDbEntity
  8
5_250BIT_250SPEC
370
        25
  6
Continuous
 62
         5
100
AcDbLine
 10
18.2530526657
 20
5.636650717
 30
0.0
 11
17.6899848817
 21
6.6437565167
 31
0.0
  0
ARC
  5
62
102
{ACAD_REACTORS
330
69
102
}
100
AcDbEntity
  8
5_250BIT_250SPEC
370
        25
  6
Continuous
 62
         5
100
AcDbCircle
 10
17.5263268994
 20
6.5522561624
 30
0.0
 40
0.1875
100
AcDbArc
 50
29.209335952
 51
119.2093361451
  0
LINE
  5
63
102
{ACAD_REACTORS
330
69
102
}
100
AcDbEntity
  8
5_250BIT_250SPEC
370
        25
  6
Continuous
 62
         5
100
AcDbLine
 10
17.4348265446
 20
6.7159141444
 30
0.0
 11
15.5972913438
 21
5.6885574537
 31
0.0
  0
LINE
  5
64
102
{ACAD_REACTORS
330
69
102
}
100
AcDbEntity
  8
5_250BIT_250SPEC
370
        25
  6
Continuous
 62
         5
100
AcDbLine
 10
15.5251337166
 20
5.4333991168
 30
0.0
 11
16.0882015
 21
4.426293328
 31
0.0
  0
ARC
  5
65
102
{ACAD_REACTORS
330
69
102
}
100
AcDbEntity
  8
5_250BIT_250SPEC
370
        25
  6
Continuous
 62
         5
100
AcDbCircle
 10
15.6887916986
 20
5.5248994717
 30
0.0
 40
0.1875
100
AcDbArc
 50
119.2093361451
 51
-150.7906638102
  0
ARC
  5
66
102
{ACAD_REACTORS
330
69
102
}
100
AcDbEntity
  8
5_250BIT_250SPEC
370
        25
  6
Continuous
 62
         5
100
AcDbCircle
 10
18.0893946834
 20
5.5451503628
 30
0.0
 40
0.1875
100
AcDbArc
 50
-60.790664126
 51
29.209335952
  0
ARC
  5
67
102
{ACAD_REACTORS
330
69
102
}
100
AcDbEntity
  8
5_250BIT_250SPEC
370
        25
  6
Continuous
 62
         5
100
AcDbCircle
 10
16.251859482
 20
4.5177936829
 30
0.0
 40
0.1875
100
AcDbArc
 50
-150.7906638102
 51
-60.790664126
  0
LINE
  5
68
102
{ACAD_REACTORS
330
69
102
}
100
AcDbEntity
  8
5_250BIT_250SPEC
370
        25
  6
Continuous
 62
         5
100
AcDbLine
 10
16.343359836
 20
4.3541357005
 30
0.0
 11
18.1808950374
 21
5.3814923803
 31
0.0
  0
LINE
  5
6B
102
{ACAD_REACTORS
330
2B3
102
}
100
AcDbEntity
  8
Z_TATTOOMYSTIQUE
370
        25
  6
Continuous
 62
         4
100
AcDbLine
 10
17.0331035339
 20
4.7609171336
 30
0.0
 11
17.847895726
 21
5.2205992106
 31
0.0
  0
ELLIPSE
  5
6C
102
{ACAD_REACTORS
330
2B3
102
}
100
AcDbEntity
  8
Z_TATTOOMYSTIQUE
370
        25
  6
Continuous
 62
         4
100
AcDbEllipse
 10
17.1580826594
 20
6.441999841
 30
0.0
 11
-0.0364420868148294
 21
0.0077962266014712
 31
0.0
210
0.0
220
0.0
230
1.0
 40
1.0
 41
4.7123889803846897
 42
5.4338914242298459
  0
LINE
  5
6D
102
{ACAD_REACTORS
330
2B3
102
}
100
AcDbEntity
  8
Z_TATTOOMYSTIQUE
370
        25
  6
Continuous
 62
         4
100
AcDbLine
 10
17.8052626371
 20
4.8871156911
 30
0.0
 11
17.9599665315
 21
4.9743951327
 31
0.0
  0
LINE
  5
6E
102
{ACAD_REACTORS
330
2B3
102
}
100
AcDbEntity
  8
Z_TATTOOMYSTIQUE
370
        25
  6
Continuous
 62
         4
100
AcDbLine
 10
17.165878886
 20
6.4784419278
 30
0.0
 11
17.6098538419
 21
6.3854109119
 31
0.0
  0
LINE
  5
6F
102
{ACAD_REACTORS
330
2B3
102
}
100
AcDbEntity
  8
Z_TATTOOMYSTIQUE
370
        25
  6
Continuous
 62
         4
100
AcDbLine
 10
17.481825664
 20
4.5088793733
 30
0.0
 11
16.9940919939
 21
4.2337142102
 31
0.0
  0
LINE
  5
70
102
{ACAD_REACTORS
330
2B3
102
}
100
AcDbEntity
  8
Z_TATTOOMYSTIQUE
370
        25
  6
Continuous
 62
         4
100
AcDbLine
 10
16.9687478652
 20
4.8394262961
 30
0.0
 11
17.7732950374
 21
5.2933284305
 31
0.0
  0
LINE
  5
71
102
{ACAD_REACTORS
330
2B3
102
}
100
AcDbEntity
  8
Z_TATTOOMYSTIQUE
370
        25
  6
Continuous
 62
         4
100
AcDbLine
 10
17.8792221899
 20
6.5901539337
 30
0.0
 11
17.8696843741
 21
6.5319997475
 31
0.0
  0
LINE
  5
72
102
{ACAD_REACTORS
330
2B3
102
}
100
AcDbEntity
  8
Z_TATTOOMYSTIQUE
370
        25
  6
Continuous
 62
         4
100
AcDbLine
 10
17.6098538419
 20
6.3854109119
 30
0.0
 11
17.8696843741
 21
6.5319997475
 31
0.0
  0
LINE
  5
73
102
{ACAD_REACTORS
330
2B3
102
}
100
AcDbEntity
  8
Z_TATTOOMYSTIQUE
370
        25
  6
Continuous
 62
         4
100
AcDbLine
 10
17.165878886
 20
6.4784419278
 30
0.0
 11
17.1754167018
 21
6.5365961139
 31
0.0
  0
ELLIPSE
  5
74
102
{ACAD_REACTORS
330
2B3
102
}
100
AcDbEntity
  8
Z_TATTOOMYSTIQUE
370
        25
  6
Continuous
 62
         4
100
AcDbEllipse
 10
17.0490545589
 20
5.6313420401
 30
0.0
 11
0.4527939496105091
 21
0.255153090336762
 31
0.0
210
0.0
220
0.0
230
1.0
 40
1.0
 41
0.0
 42
0.3827143801835961
  0
ARC
  5
75
102
{ACAD_REACTORS
330
2B3
102
}
100
AcDbEntity
  8
Z_TATTOOMYSTIQUE
370
        25
  6
Continuous
 62
         4
100
AcDbCircle
 10
17.358983165
 20
4.726617872
 30
0.0
 40
0.2500006668
100
AcDbArc
 50
-60.569418926
 51
29.4302754434
  0
LINE
  5
76
102
{ACAD_REACTORS
330
2B3
102
}
100
AcDbEntity
  8
Z_TATTOOMYSTIQUE
370
        25
  6
Continuous
 62
         4
100
AcDbLine
 10
17.2941748987
 20
4.5006065111
 30
0.0
 11
17.3834475793
 21
4.5509715633
 31
0.0
  0
LINE
  5
77
102
{ACAD_REACTORS
330
2B3
102
}
100
AcDbEntity
  8
Z_TATTOOMYSTIQUE
370
        25
  6
Continuous
 62
         4
100
AcDbLine
 10
17.8280105369
 20
4.6352967622
 30
0.0
 11
17.6620722199
 21
4.5416791859
 31
0.0
  0
LINE
  5
78
102
{ACAD_REACTORS
330
2B3
102
}
100
AcDbEntity
  8
Z_TATTOOMYSTIQUE
370
        25
  6
Continuous
 62
         4
100
AcDbLine
 10
17.2802606432
 20
4.7338716896
 30
0.0
 11
17.1909879625
 21
4.6835066374
 31
0.0
  0
ELLIPSE
  5
79
102
{ACAD_REACTORS
330
2B3
102
}
100
AcDbEntity
  8
Z_TATTOOMYSTIQUE
370
        25
  6
Continuous
 62
         4
100
AcDbEllipse
 10
17.2425814306
 20
4.5920565742
 30
0.0
 11
0.091450063151808
 21
0.0515934680897694
 31
0.0
210
0.0
220
0.0
230
-1.0
 40
1.0
 41
4.7123889803846897
 42
7.8539816339753692
  0
LINE
  5
7A
102
{ACAD_REACTORS
330
2B3
102
}
100
AcDbEntity
  8
Z_TATTOOMYSTIQUE
370
        25
  6
Continuous
 62
         4
100
AcDbLine
 10
17.5030173645
 20
4.980102157
 30
0.0
 11
17.5767223189
 21
4.8494592096
 31
0.0
  0
LINE
  5
7B
102
{ACAD_REACTORS
330
2B3
102
}
100
AcDbEntity
  8
Z_TATTOOMYSTIQUE
370
        25
  6
Continuous
 62
         4
100
AcDbLine
 10
17.8184137443
 20
5.2728563895
 30
0.0
 11
17.847895726
 21
5.2205992106
 31
0.0
  0
LINE
  5
7C
102
{ACAD_REACTORS
330
2B3
102
}
100
AcDbEntity
  8
Z_TATTOOMYSTIQUE
370
        25
  6
Continuous
 62
         4
100
AcDbLine
 10
17.7885732946
 20
5.3019479792
 30
0.0
 11
17.7732950374
 21
5.2933284305
 31
0.0
  0
LINE
  5
7D
102
{ACAD_REACTORS
330
2B3
102
}
100
AcDbEntity
  8
Z_TATTOOMYSTIQUE
370
        25
  6
Continuous
 62
         4
100
AcDbLine
 10
17.7885732946
 20
5.3019479792
 30
0.0
 11
17.1497970231
 21
6.4341868563
 31
0.0
  0
LINE
  5
7E
102
{ACAD_REACTORS
330
2B3
102
}
100
AcDbEntity
  8
Z_TATTOOMYSTIQUE
370
        25
  6
Continuous
 62
         4
100
AcDbLine
 10
17.7732950374
 20
5.2933284305
 30
0.0
 11
17.1345187658
 21
6.4255673076
 31
0.0
  0
LINE
  5
7F
102
{ACAD_REACTORS
330
2B3
102
}
100
AcDbEntity
  8
Z_TATTOOMYSTIQUE
370
        25
  6
Continuous
 62
         4
100
AcDbLine
 10
17.789409953
 20
5.7616870396
 30
0.0
 11
17.5437267716
 21
6.1971635308
 31
0.0
  0
LINE
  5
80
102
{ACAD_REACTORS
330
2B3
102
}
100
AcDbEntity
  8
Z_TATTOOMYSTIQUE
370
        25
  6
Continuous
 62
         4
100
AcDbLine
 10
17.575603889
 20
6.3543629962
 30
0.0
 11
17.5757920148
 21
6.3544691313
 31
0.0
  0
ELLIPSE
  5
81
102
{ACAD_REACTORS
330
2B3
102
}
100
AcDbEntity
  8
Z_TATTOOMYSTIQUE
370
        25
  6
Continuous
 62
         4
100
AcDbEllipse
 10
17.8767482793
 20
5.0215955567
 30
0.0
 11
0.003960115053101
 21
0.0983317736942651
 31
0.0
210
0.0
220
0.0
230
1.0
 40
1.0
 41
4.7123889803846897
 42
5.8202072137221812
  0
CIRCLE
  5
82
102
{ACAD_REACTORS
330
2B3
102
}
100
AcDbEntity
  8
Z_TATTOOMYSTIQUE
370
        25
  6
Continuous
 62
         4
100
AcDbCircle
 10
17.2795969323
 20
4.6129396447
 30
0.0
 40
0.082
  0
ELLIPSE
  5
83
102
{ACAD_REACTORS
330
2B3
102
}
100
AcDbEntity
  8
Z_TATTOOMYSTIQUE
370
        25
  6
Continuous
 62
         4
100
AcDbEllipse
 10
17.2795968104
 20
4.6129394751
 30
0.0
 11
-0.0068906886568587
 21
-0.1057757020333442
 31
0.0
210
0.0
220
0.0
230
1.0
 40
1.0
 41
4.7123889803846897
 42
6.724426976325061
  0
LINE
  5
84
102
{ACAD_REACTORS
330
2B3
102
}
100
AcDbEntity
  8
Z_TATTOOMYSTIQUE
370
        25
  6
Continuous
 62
         4
100
AcDbLine
 10
17.879382448
 20
5.1172314218
 30
0.0
 11
17.7246785536
 21
5.0299519802
 31
0.0
  0
LINE
  5
85
102
{ACAD_REACTORS
330
2B3
102
}
100
AcDbEntity
  8
Z_TATTOOMYSTIQUE
370
        25
  6
Continuous
 62
         4
100
AcDbLine
 10
17.9731892699
 20
4.9991314954
 30
0.0
 11
17.975080053
 21
5.0176354417
 31
0.0
  0
LINE
  5
86
102
{ACAD_REACTORS
330
2B3
102
}
100
AcDbEntity
  8
Z_TATTOOMYSTIQUE
370
        25
  6
Continuous
 62
         4
100
AcDbLine
 10
17.9242079108
 20
5.1078069459
 30
0.0
 11
17.9073923657
 21
5.1157573254
 31
0.0
  0
LINE
  5
87
102
{ACAD_REACTORS
330
2B3
102
}
100
AcDbEntity
  8
Z_TATTOOMYSTIQUE
370
        25
  6
Continuous
 62
         4
100
AcDbLine
 10
17.8792221899
 20
6.5901539337
 30
0.0
 11
17.435247234
 21
6.6831849496
 31
0.0
  0
LINE
  5
88
102
{ACAD_REACTORS
330
2B3
102
}
100
AcDbEntity
  8
Z_TATTOOMYSTIQUE
370
        25
  6
Continuous
 62
         4
100
AcDbLine
 10
17.6193916576
 20
6.443565098
 30
0.0
 11
17.8792221899
 21
6.5901539337
 31
0.0
  0
LINE
  5
89
102
{ACAD_REACTORS
330
2B3
102
}
100
AcDbEntity
  8
Z_TATTOOMYSTIQUE
370
        25
  6
Continuous
 62
         4
100
AcDbLine
 10
17.1754167018
 20
6.5365961139
 30
0.0
 11
17.6193916576
 21
6.443565098
 31
0.0
  0
LINE
  5
8A
102
{ACAD_REACTORS
330
2B3
102
}
100
AcDbEntity
  8
Z_TATTOOMYSTIQUE
370
        25
  6
Continuous
 62
         4
100
AcDbLine
 10
17.1754167018
 20
6.5365961139
 30
0.0
 11
17.435247234
 21
6.6831849496
 31
0.0
  0
LINE
  5
8B
102
{ACAD_REACTORS
330
2B3
102
}
100
AcDbEntity
  8
Z_TATTOOMYSTIQUE
370
        25
  6
Continuous
 62
         4
100
AcDbLine
 10
17.6193916576
 20
6.443565098
 30
0.0
 11
17.6098538419
 21
6.3854109119
 31
0.0
  0
ELLIPSE
  5
8C
102
{ACAD_REACTORS
330
2B3
102
}
100
AcDbEntity
  8
Z_TATTOOMYSTIQUE
370
        25
  6
Continuous
 62
         4
100
AcDbEllipse
 10
17.3318541113
 20
4.6424216264
 30
0.0
 11
0.0515934680898908
 21
-0.0914500631517967
 31
0.0
210
0.0
220
0.0
230
1.0
 40
1.0
 41
0.0
 42
3.1415926535879035
  0
LINE
  5
8D
102
{ACAD_REACTORS
330
2B3
102
}
100
AcDbEntity
  8
Z_TATTOOMYSTIQUE
370
        25
  6
Continuous
 62
         4
100
AcDbLine
 10
18.1215607063
 20
5.662034941
 30
0.0
 11
18.090727467
 21
5.7166872407
 31
0.0
  0
LINE
  5
8E
102
{ACAD_REACTORS
330
2B3
102
}
100
AcDbEntity
  8
Z_TATTOOMYSTIQUE
370
        25
  6
Continuous
 62
         4
100
AcDbLine
 10
18.053676889
 20
5.623736864
 30
0.0
 11
18.1215607063
 21
5.662034941
 31
0.0
  0
LINE
  5
8F
102
{ACAD_REACTORS
330
2B3
102
}
100
AcDbEntity
  8
Z_TATTOOMYSTIQUE
370
        25
  6
Continuous
 62
         4
100
AcDbLine
 10
18.053676889
 20
5.623736864
 30
0.0
 11
18.0228436497
 21
5.6783891636
 31
0.0
  0
ELLIPSE
  5
90
102
{ACAD_REACTORS
330
2B3
102
}
100
AcDbEntity
  8
Z_TATTOOMYSTIQUE
370
        25
  6
Continuous
 62
         4
100
AcDbEllipse
 10
17.5490046386
 20
6.4004692476
 30
0.0
 11
0.0460001162499275
 21
0.0267873761948378
 31
0.0
210
0.0
220
0.0
230
1.0
 40
1.0
 41
4.7123889803846897
 42
5.506864732996303
  0
ELLIPSE
  5
91
102
{ACAD_REACTORS
330
2B3
102
}
100
AcDbEntity
  8
Z_TATTOOMYSTIQUE
370
        25
  6
Continuous
 62
         4
100
AcDbEllipse
 10
17.5473886259
 20
6.3925439177
 30
0.0
 11
0.0726263615800349
 21
-0.1164605547984365
 31
0.0
210
0.0
220
0.0
230
1.0
 40
1.0
 41
0.0
 42
1.2546078189172072
  0
LINE
  5
92
102
{ACAD_REACTORS
330
2B3
102
}
100
AcDbEntity
  8
Z_TATTOOMYSTIQUE
370
        25
  6
Continuous
 62
         4
100
AcDbLine
 10
17.2484501056
 20
6.4611398685
 30
0.0
 11
17.1620811821
 21
6.4124130318
 31
0.0
  0
LINE
  5
93
102
{ACAD_REACTORS
330
2B3
102
}
100
AcDbEntity
  8
Z_TATTOOMYSTIQUE
370
        25
  6
Continuous
 62
         4
100
AcDbLine
 10
17.8722335095
 20
4.5569109937
 30
0.0
 11
17.8280105369
 21
4.6352967622
 31
0.0
  0
LINE
  5
94
102
{ACAD_REACTORS
330
2B3
102
}
100
AcDbEntity
  8
Z_TATTOOMYSTIQUE
370
        25
  6
Continuous
 62
         4
100
AcDbLine
 10
17.6198268616
 20
6.2759772278
 30
0.0
 11
17.6200149875
 21
6.2760833629
 31
0.0
  0
ELLIPSE
  5
95
102
{ACAD_REACTORS
330
2B3
102
}
100
AcDbEntity
  8
Z_TATTOOMYSTIQUE
370
        25
  6
Continuous
 62
         4
100
AcDbEllipse
 10
17.6361855162
 20
6.2515696253
 30
0.0
 11
-0.0244076024951121
 21
-0.0163586545466817
 31
0.0
210
0.0
220
0.0
230
1.0
 40
1.0
 41
4.7123889803846897
 42
6.2729314173688797
  0
LINE
  5
96
102
{ACAD_REACTORS
330
2B3
102
}
100
AcDbEntity
  8
Z_TATTOOMYSTIQUE
370
        25
  6
Continuous
 62
         4
100
AcDbLine
 10
17.5030173645
 20
4.980102157
 30
0.0
 11
17.48336271
 21
5.0149402763
 31
0.0
  0
LINE
  5
97
102
{ACAD_REACTORS
330
2B3
102
}
100
AcDbEntity
  8
Z_TATTOOMYSTIQUE
370
        25
  6
Continuous
 62
         4
100
AcDbLine
 10
16.5798072032
 20
4.4592538125
 30
0.0
 11
17.5030173645
 21
4.980102157
 31
0.0
  0
LINE
  5
98
102
{ACAD_REACTORS
330
2B3
102
}
100
AcDbEntity
  8
Z_TATTOOMYSTIQUE
370
        25
  6
Continuous
 62
         4
100
AcDbLine
 10
17.1497970231
 20
6.4341868563
 30
0.0
 11
17.1345187658
 21
6.4255673076
 31
0.0
  0
ELLIPSE
  5
99
102
{ACAD_REACTORS
330
2B3
102
}
100
AcDbEntity
  8
Z_TATTOOMYSTIQUE
370
        25
  6
Continuous
 62
         4
100
AcDbEllipse
 10
17.4157603366
 20
6.5920554832
 30
0.0
 11
0.0194868974278961
 21
0.0911294664257412
 31
0.0
210
0.0
220
0.0
230
1.0
 40
1.0
 41
0.0
 42
0.7213273835575881
  0
ELLIPSE
  5
9A
102
{ACAD_REACTORS
330
2B3
102
}
100
AcDbEntity
  8
Z_TATTOOMYSTIQUE
370
        25
  6
Continuous
 62
         4
100
AcDbEllipse
 10
17.1559289775
 20
6.4454720903
 30
0.0
 11
0.0194877242849429
 21
0.0911240236629283
 31
0.0
210
0.0
220
0.0
230
1.0
 40
1.0
 41
0.0
 42
0.7213583493158997
  0
LINE
  5
9B
102
{ACAD_REACTORS
330
2B3
102
}
100
AcDbEntity
  8
Z_TATTOOMYSTIQUE
370
        25
  6
Continuous
 62
         4
100
AcDbLine
 10
17.1108461819
 20
6.5270286842
 30
0.0
 11
17.3702133672
 21
6.6733561129
 31
0.0
  0
ELLIPSE
  5
9C
102
{ACAD_REACTORS
330
2B3
102
}
100
AcDbEntity
  8
Z_TATTOOMYSTIQUE
370
        25
  6
Continuous
 62
         4
100
AcDbEllipse
 10
17.8922097512
 20
5.8109827991
 30
0.0
 11
0.0492957594996464
 21
-0.1027997982357181
 31
0.0
210
0.0
220
0.0
230
1.0
 40
1.0
 41
4.7123889803846897
 42
6.2728788861118732
  0
ELLIPSE
  5
9D
102
{ACAD_REACTORS
330
2B3
102
}
100
AcDbEntity
  8
Z_TATTOOMYSTIQUE
370
        25
  6
Continuous
 62
         4
100
AcDbEllipse
 10
17.6390793483
 20
6.2596595829
 30
0.0
 11
-0.063475459342385
 21
0.0947034132608451
 31
0.0
210
0.0
220
0.0
230
1.0
 40
1.0
 41
0.0
 42
1.5604899057229362
  0
LINE
  5
9E
102
{ACAD_REACTORS
330
2B3
102
}
100
AcDbEntity
  8
Z_TATTOOMYSTIQUE
370
        25
  6
Continuous
 62
         4
100
AcDbLine
 10
17.9404434133
 20
5.7076804068
 30
0.0
 11
17.651604921
 21
5.5447261231
 31
0.0
  0
LINE
  5
9F
102
{ACAD_REACTORS
330
2B3
102
}
100
AcDbEntity
  8
Z_TATTOOMYSTIQUE
370
        25
  6
Continuous
 62
         4
100
AcDbLine
 10
17.2867653967
 20
6.1914087125
 30
0.0
 11
17.575603889
 21
6.3543629962
 31
0.0
  0
LINE
  5
A0
102
{ACAD_REACTORS
330
2B3
102
}
100
AcDbEntity
  8
Z_TATTOOMYSTIQUE
370
        25
  6
Continuous
 62
         4
100
AcDbLine
 10
17.7762891356
 20
5.3237218038
 30
0.0
 11
18.0606631229
 21
5.4841573435
 31
0.0
  0
LINE
  5
A1
102
{ACAD_REACTORS
330
2B3
102
}
100
AcDbEntity
  8
Z_TATTOOMYSTIQUE
370
        25
  6
Continuous
 62
         4
100
AcDbLine
 10
17.8186999527
 20
4.7046748955
 30
0.0
 11
17.8358977754
 21
4.6741915411
 31
0.0
  0
ELLIPSE
  5
A2
102
{ACAD_REACTORS
330
2B3
102
}
100
AcDbEntity
  8
Z_TATTOOMYSTIQUE
370
        25
  6
Continuous
 62
         4
100
AcDbEllipse
 10
17.2795970484
 20
4.6129397101
 30
0.0
 11
0.0843130321989999
 21
0.0642439441193178
 31
0.0
210
0.0
220
0.0
230
1.0
 40
1.0
 41
4.7123889803846897
 42
7.5790622424717355
  0
ELLIPSE
  5
A3
102
{ACAD_REACTORS
330
2B3
102
}
100
AcDbEntity
  8
Z_TATTOOMYSTIQUE
370
        25
  6
Continuous
 62
         4
100
AcDbEllipse
 10
17.2795928509
 20
4.6129418372
 30
0.0
 11
-0.0642408497022302
 21
0.084310282776471
 31
0.0
210
0.0
220
0.0
230
1.0
 40
1.0
 41
0.0
 42
0.8546536431478852
  0
CIRCLE
  5
A4
102
{ACAD_REACTORS
330
2B3
102
}
100
AcDbEntity
  8
Z_TATTOOMYSTIQUE
370
        25
  6
Continuous
 62
         4
100
AcDbCircle
 10
17.2795969323
 20
4.6129396447
 30
0.0
 40
0.068
  0
ELLIPSE
  5
A5
102
{ACAD_REACTORS
330
2B3
102
}
100
AcDbEntity
  8
Z_TATTOOMYSTIQUE
370
        25
  6
Continuous
 62
         4
100
AcDbEllipse
 10
17.0493114169
 20
5.6308867563
 30
0.0
 11
0.5152523752846605
 21
0.0681208490570953
 31
0.0
210
0.0
220
0.0
230
1.0
 40
1.0
 41
0.0
 42
0.3827143801827902
  0
LINE
  5
A6
102
{ACAD_REACTORS
330
2B3
102
}
100
AcDbEntity
  8
Z_TATTOOMYSTIQUE
370
        25
  6
Continuous
 62
         4
100
AcDbLine
 10
17.5826713819
 20
5.0709673431
 30
0.0
 11
17.7964157497
 21
4.6921027957
 31
0.0
  0
LINE
  5
A7
102
{ACAD_REACTORS
330
2B3
102
}
100
AcDbEntity
  8
Z_TATTOOMYSTIQUE
370
        25
  6
Continuous
 62
         4
100
AcDbLine
 10
17.7964157497
 20
4.6921027957
 30
0.0
 11
17.5226978721
 21
4.5376791234
 31
0.0
  0
ELLIPSE
  5
A8
102
{ACAD_REACTORS
330
2B3
102
}
100
AcDbEntity
  8
Z_TATTOOMYSTIQUE
370
        25
  6
Continuous
 62
         4
100
AcDbEllipse
 10
17.4883707524
 20
4.8123071061
 30
0.0
 11
-0.0513792633241573
 21
0.1084815306770679
 31
0.0
210
0.0
220
0.0
230
1.0
 40
1.0
 41
4.7123889803846897
 42
5.4385463186873695
  0
LINE
  5
A9
102
{ACAD_REACTORS
330
2B3
102
}
100
AcDbEntity
  8
Z_TATTOOMYSTIQUE
370
        25
  6
Continuous
 62
         4
100
AcDbLine
 10
17.5920267495
 20
5.6503291722
 30
0.0
 11
17.789409953
 21
5.7616870396
 31
0.0
  0
LINE
  5
AA
102
{ACAD_REACTORS
330
2B3
102
}
100
AcDbEntity
  8
Z_TATTOOMYSTIQUE
370
        25
  6
Continuous
 62
         4
100
AcDbLine
 10
17.5437267716
 20
6.1971635308
 30
0.0
 11
17.3463435682
 21
6.0858056634
 31
0.0
  0
LINE
  5
AB
102
{ACAD_REACTORS
330
2B3
102
}
100
AcDbEntity
  8
Z_TATTOOMYSTIQUE
370
        25
  6
Continuous
 62
         4
100
AcDbLine
 10
17.6728394023
 20
5.1218375199
 30
0.0
 11
17.9037815928
 21
4.7124896182
 31
0.0
  0
ELLIPSE
  5
AC
102
{ACAD_REACTORS
330
2B3
102
}
100
AcDbEntity
  8
Z_TATTOOMYSTIQUE
370
        25
  6
Continuous
 62
         4
100
AcDbEllipse
 10
17.9668873174
 20
5.6515578699
 30
0.0
 11
0.0559563323037651
 21
0.0268312937874953
 31
0.0
210
0.0
220
0.0
230
1.0
 40
1.0
 41
0.0
 42
1.5605363007633457
  0
LINE
  5
AD
102
{ACAD_REACTORS
330
2B3
102
}
100
AcDbEntity
  8
Z_TATTOOMYSTIQUE
370
        25
  6
Continuous
 62
         4
100
AcDbLine
 10
17.9404434133
 20
5.7076804068
 30
0.0
 11
17.9406315392
 21
5.7077865419
 31
0.0
  0
LINE
  5
AE
102
{ACAD_REACTORS
330
2B3
102
}
100
AcDbEntity
  8
Z_TATTOOMYSTIQUE
370
        25
  6
Continuous
 62
         4
100
AcDbLine
 10
17.6279269699
 20
5.0964992306
 30
0.0
 11
17.8416713377
 21
4.7176346833
 31
0.0
  0
LINE
  5
AF
102
{ACAD_REACTORS
330
2B3
102
}
100
AcDbEntity
  8
Z_TATTOOMYSTIQUE
370
        25
  6
Continuous
 62
         4
100
AcDbLine
 10
17.8416713377
 20
4.7176346833
 30
0.0
 11
17.7964157497
 21
4.6921027957
 31
0.0
  0
LINE
  5
B0
102
{ACAD_REACTORS
330
2B3
102
}
100
AcDbEntity
  8
Z_TATTOOMYSTIQUE
370
        25
  6
Continuous
 62
         4
100
AcDbLine
 10
18.1285478112
 20
5.5224559119
 30
0.0
 11
18.0606631229
 21
5.4841573435
 31
0.0
  0
LINE
  5
B1
102
{ACAD_REACTORS
330
2B3
102
}
100
AcDbEntity
  8
Z_TATTOOMYSTIQUE
370
        25
  6
Continuous
 62
         4
100
AcDbLine
 10
17.4088586524
 20
4.295488365
 30
0.0
 11
17.3646356798
 21
4.3738741335
 31
0.0
  0
LINE
  5
B2
102
{ACAD_REACTORS
330
2B3
102
}
100
AcDbEntity
  8
Z_TATTOOMYSTIQUE
370
        25
  6
Continuous
 62
         4
100
AcDbLine
 10
17.3646356798
 20
4.3738741335
 30
0.0
 11
17.6620722199
 21
4.5416791859
 31
0.0
  0
LINE
  5
B3
102
{ACAD_REACTORS
330
2B3
102
}
100
AcDbEntity
  8
Z_TATTOOMYSTIQUE
370
        25
  6
Continuous
 62
         4
100
AcDbLine
 10
17.6620722199
 20
4.5416791859
 30
0.0
 11
17.7062951926
 21
4.4632934175
 31
0.0
  0
LINE
  5
B4
102
{ACAD_REACTORS
330
2B3
102
}
100
AcDbEntity
  8
Z_TATTOOMYSTIQUE
370
        25
  6
Continuous
 62
         4
100
AcDbLine
 10
17.7062951926
 20
4.4632934175
 30
0.0
 11
17.4088586524
 21
4.295488365
 31
0.0
  0
LINE
  5
B5
102
{ACAD_REACTORS
330
2B3
102
}
100
AcDbEntity
  8
Z_TATTOOMYSTIQUE
370
        25
  6
Continuous
 62
         4
100
AcDbLine
 10
17.8722335095
 20
4.5569109937
 30
0.0
 11
17.7062951926
 21
4.4632934175
 31
0.0
  0
ELLIPSE
  5
B6
102
{ACAD_REACTORS
330
2B3
102
}
100
AcDbEntity
  8
Z_TATTOOMYSTIQUE
370
        25
  6
Continuous
 62
         4
100
AcDbEllipse
 10
17.2795970175
 20
4.6129396927
 30
0.0
 11
-0.0671069677748051
 21
0.0826977974521697
 31
0.0
210
0.0
220
0.0
230
1.0
 40
1.0
 41
0.0
 42
2.8055140499188798
  0
ELLIPSE
  5
B7
102
{ACAD_REACTORS
330
2B3
102
}
100
AcDbEntity
  8
Z_TATTOOMYSTIQUE
370
        25
  6
Continuous
 62
         4
100
AcDbEllipse
 10
17.2795970221
 20
4.6129396953
 30
0.0
 11
0.0671059219065455
 21
-0.0826983875006704
 31
0.0
210
0.0
220
0.0
230
1.0
 40
1.0
 41
0.0
 42
2.8055362831402748
  0
ELLIPSE
  5
B8
102
{ACAD_REACTORS
330
2B3
102
}
100
AcDbEntity
  8
Z_TATTOOMYSTIQUE
370
        25
  6
Continuous
 62
         4
100
AcDbEllipse
 10
17.8094128813
 20
4.6506376572
 30
0.0
 11
0.0937266634859921
 21
0.062820628260124
 31
0.0
210
0.0
220
0.0
230
1.0
 40
1.0
 41
4.7123889803846897
 42
6.2728856517227216
  0
ELLIPSE
  5
B9
102
{ACAD_REACTORS
330
2B3
102
}
100
AcDbEntity
  8
Z_TATTOOMYSTIQUE
370
        25
  6
Continuous
 62
         4
100
AcDbEllipse
 10
17.8123026026
 20
4.6587291721
 30
0.0
 11
0.0157079342719157
 21
-0.0234324099544665
 31
0.0
210
0.0
220
0.0
230
1.0
 40
1.0
 41
0.0
 42
1.5603529641023015
  0
LINE
  5
BA
102
{ACAD_REACTORS
330
2B3
102
}
100
AcDbEntity
  8
Z_TATTOOMYSTIQUE
370
        25
  6
Continuous
 62
         4
100
AcDbLine
 10
17.8358977754
 20
4.6741915411
 30
0.0
 11
17.9037815928
 21
4.7124896182
 31
0.0
  0
LINE
  5
BB
102
{ACAD_REACTORS
330
2B3
102
}
100
AcDbEntity
  8
Z_TATTOOMYSTIQUE
370
        25
  6
Continuous
 62
         4
100
AcDbLine
 10
17.8572946413
 20
5.799985608
 30
0.0
 11
17.6116114599
 21
6.2354620992
 31
0.0
  0
ELLIPSE
  5
BC
102
{ACAD_REACTORS
330
2B3
102
}
100
AcDbEntity
  8
Z_TATTOOMYSTIQUE
370
        25
  6
Continuous
 62
         4
100
AcDbEllipse
 10
17.88378899
 20
5.812689392
 30
0.0
 11
-0.0264943486744755
 21
-0.0127037839425839
 31
0.0
210
0.0
220
0.0
230
1.0
 40
1.0
 41
0.0
 42
1.5605424369653842
  0
LINE
  5
BD
102
{ACAD_REACTORS
330
2B3
102
}
100
AcDbEntity
  8
Z_TATTOOMYSTIQUE
370
        25
  6
Continuous
 62
         4
100
AcDbLine
 10
17.8962204407
 20
5.7860661752
 30
0.0
 11
17.8964085665
 21
5.7861723103
 31
0.0
  0
ELLIPSE
  5
BE
102
{ACAD_REACTORS
330
2B3
102
}
100
AcDbEntity
  8
Z_TATTOOMYSTIQUE
370
        25
  6
Continuous
 62
         4
100
AcDbEllipse
 10
17.9584664691
 20
5.6532663255
 30
0.0
 11
0.1322609979740719
 21
0.063420915162169
 31
0.0
210
0.0
220
0.0
230
1.0
 40
1.0
 41
0.0
 42
1.5605160075387032
  0
LINE
  5
BF
102
{ACAD_REACTORS
330
2B3
102
}
100
AcDbEntity
  8
Z_TATTOOMYSTIQUE
370
        25
  6
Continuous
 62
         4
100
AcDbLine
 10
17.9112738626
 20
5.1137494524
 30
0.0
 11
17.8944613214
 21
5.1197611234
 31
0.0
  0
LINE
  5
C0
102
{ACAD_REACTORS
330
2B3
102
}
100
AcDbEntity
  8
Z_TATTOOMYSTIQUE
370
        25
  6
Continuous
 62
         4
100
AcDbLine
 10
17.8944613214
 20
5.1197611234
 30
0.0
 11
17.8803818572
 21
5.1177596662
 31
0.0
  0
LINE
  5
C1
102
{ACAD_REACTORS
330
2B3
102
}
100
AcDbEntity
  8
Z_TATTOOMYSTIQUE
370
        25
  6
Continuous
 62
         4
100
AcDbLine
 10
17.8803818572
 20
5.1177596662
 30
0.0
 11
17.879382448
 21
5.1172314218
 31
0.0
  0
LINE
  5
C2
102
{ACAD_REACTORS
330
2B3
102
}
100
AcDbEntity
  8
Z_TATTOOMYSTIQUE
370
        25
  6
Continuous
 62
         4
100
AcDbLine
 10
17.1497970231
 20
6.4341868563
 30
0.0
 11
17.1461583644
 21
6.4410943308
 31
0.0
  0
LINE
  5
C3
102
{ACAD_REACTORS
330
2B3
102
}
100
AcDbEntity
  8
Z_TATTOOMYSTIQUE
370
        25
  6
Continuous
 62
         4
100
AcDbLine
 10
17.5539542907
 20
4.9261654821
 30
0.0
 11
17.5338377484
 21
4.9369162436
 31
0.0
  0
LINE
  5
C4
102
{ACAD_REACTORS
330
2B3
102
}
100
AcDbEntity
  8
Z_TATTOOMYSTIQUE
370
        25
  6
Continuous
 62
         4
100
AcDbLine
 10
17.5338377484
 20
4.9369162436
 30
0.0
 11
17.5261607202
 21
4.9390802715
 31
0.0
  0
LINE
  5
C5
102
{ACAD_REACTORS
330
2B3
102
}
100
AcDbEntity
  8
Z_TATTOOMYSTIQUE
370
        25
  6
Continuous
 62
         4
100
AcDbLine
 10
17.6104768625
 20
4.7457634252
 30
0.0
 11
17.6126830237
 21
4.74715045
 31
0.0
  0
LINE
  5
C6
102
{ACAD_REACTORS
330
2B3
102
}
100
AcDbEntity
  8
Z_TATTOOMYSTIQUE
370
        25
  6
Continuous
 62
         4
100
AcDbLine
 10
17.6126830237
 20
4.74715045
 30
0.0
 11
17.6231025309
 21
4.7597949849
 31
0.0
  0
LINE
  5
C7
102
{ACAD_REACTORS
330
2B3
102
}
100
AcDbEntity
  8
Z_TATTOOMYSTIQUE
370
        25
  6
Continuous
 62
         4
100
AcDbLine
 10
17.6231025309
 20
4.7597949849
 30
0.0
 11
17.6281434717
 21
4.7790221408
 31
0.0
  0
LINE
  5
C8
102
{ACAD_REACTORS
330
2B3
102
}
100
AcDbEntity
  8
Z_TATTOOMYSTIQUE
370
        25
  6
Continuous
 62
         4
100
AcDbLine
 10
17.5744340497
 20
4.9085962957
 30
0.0
 11
17.5541049656
 21
4.9262504885
 31
0.0
  0
LINE
  5
C9
102
{ACAD_REACTORS
330
2B3
102
}
100
AcDbEntity
  8
Z_TATTOOMYSTIQUE
370
        25
  6
Continuous
 62
         4
100
AcDbLine
 10
17.5541049656
 20
4.9262504885
 30
0.0
 11
17.5339884232
 21
4.9370012499
 31
0.0
  0
LINE
  5
CA
102
{ACAD_REACTORS
330
2B3
102
}
100
AcDbEntity
  8
Z_TATTOOMYSTIQUE
370
        25
  6
Continuous
 62
         4
100
AcDbLine
 10
17.5339884232
 20
4.9370012499
 30
0.0
 11
17.5260875066
 21
4.9392100435
 31
0.0
  0
LINE
  5
CB
102
{ACAD_REACTORS
330
2B3
102
}
100
AcDbEntity
  8
Z_TATTOOMYSTIQUE
370
        25
  6
Continuous
 62
         4
100
AcDbLine
 10
17.4536545422
 20
5.8955956287
 30
0.0
 11
17.4700177899
 21
5.868537164
 31
0.0
  0
LINE
  5
CC
102
{ACAD_REACTORS
330
2B3
102
}
100
AcDbEntity
  8
Z_TATTOOMYSTIQUE
370
        25
  6
Continuous
 62
         4
100
AcDbLine
 10
17.4700177899
 20
5.868537164
 30
0.0
 11
17.4847157755
 21
5.8405392069
 31
0.0
  0
LINE
  5
CD
102
{ACAD_REACTORS
330
2B3
102
}
100
AcDbEntity
  8
Z_TATTOOMYSTIQUE
370
        25
  6
Continuous
 62
         4
100
AcDbLine
 10
17.6272482146
 20
4.8031888882
 30
0.0
 11
17.6207783983
 21
4.8305002935
 31
0.0
  0
LINE
  5
CE
102
{ACAD_REACTORS
330
2B3
102
}
100
AcDbEntity
  8
Z_TATTOOMYSTIQUE
370
        25
  6
Continuous
 62
         4
100
AcDbLine
 10
17.6207783983
 20
4.8305002935
 30
0.0
 11
17.6091055582
 21
4.8586595163
 31
0.0
  0
LINE
  5
CF
102
{ACAD_REACTORS
330
2B3
102
}
100
AcDbEntity
  8
Z_TATTOOMYSTIQUE
370
        25
  6
Continuous
 62
         4
100
AcDbLine
 10
17.6091055582
 20
4.8586595163
 30
0.0
 11
17.5931772141
 21
4.8853846644
 31
0.0
  0
LINE
  5
D0
102
{ACAD_REACTORS
330
2B3
102
}
100
AcDbEntity
  8
Z_TATTOOMYSTIQUE
370
        25
  6
Continuous
 62
         4
100
AcDbLine
 10
17.5931772141
 20
4.8853846644
 30
0.0
 11
17.5742833749
 21
4.9085112893
 31
0.0
  0
LINE
  5
D1
102
{ACAD_REACTORS
330
2B3
102
}
100
AcDbEntity
  8
Z_TATTOOMYSTIQUE
370
        25
  6
Continuous
 62
         4
100
AcDbLine
 10
17.5742833749
 20
4.9085112893
 30
0.0
 11
17.5539542907
 21
4.9261654821
 31
0.0
  0
LINE
  5
D2
102
{ACAD_REACTORS
330
2B3
102
}
100
AcDbEntity
  8
Z_TATTOOMYSTIQUE
370
        25
  6
Continuous
 62
         4
100
AcDbLine
 10
17.6083317892
 20
4.7446588686
 30
0.0
 11
17.6125314779
 21
4.7470649523
 31
0.0
  0
LINE
  5
D3
102
{ACAD_REACTORS
330
2B3
102
}
100
AcDbEntity
  8
Z_TATTOOMYSTIQUE
370
        25
  6
Continuous
 62
         4
100
AcDbLine
 10
17.6125314779
 20
4.7470649523
 30
0.0
 11
17.6229509851
 21
4.7597094872
 31
0.0
  0
LINE
  5
D4
102
{ACAD_REACTORS
330
2B3
102
}
100
AcDbEntity
  8
Z_TATTOOMYSTIQUE
370
        25
  6
Continuous
 62
         4
100
AcDbLine
 10
17.6229509851
 20
4.7597094872
 30
0.0
 11
17.6279927968
 21
4.7789371344
 31
0.0
  0
LINE
  5
D5
102
{ACAD_REACTORS
330
2B3
102
}
100
AcDbEntity
  8
Z_TATTOOMYSTIQUE
370
        25
  6
Continuous
 62
         4
100
AcDbLine
 10
17.6279927968
 20
4.7789371344
 30
0.0
 11
17.6272482146
 21
4.8031888882
 31
0.0
  0
LINE
  5
D6
102
{ACAD_REACTORS
330
2B3
102
}
100
AcDbEntity
  8
Z_TATTOOMYSTIQUE
370
        25
  6
Continuous
 62
         4
100
AcDbLine
 10
18.0228436497
 20
5.6783891636
 30
0.0
 11
17.684035101
 21
5.4872432262
 31
0.0
  0
LINE
  5
D7
102
{ACAD_REACTORS
330
2B3
102
}
100
AcDbEntity
  8
Z_TATTOOMYSTIQUE
370
        25
  6
Continuous
 62
         4
100
AcDbLine
 10
17.2543352167
 20
6.2488916093
 30
0.0
 11
17.5270654336
 21
6.4027580722
 31
0.0
  0
LINE
  5
D8
102
{ACAD_REACTORS
330
2B3
102
}
100
AcDbEntity
  8
Z_TATTOOMYSTIQUE
370
        25
  6
Continuous
 62
         4
100
AcDbLine
 10
17.2188683772
 20
5.7811692177
 30
0.0
 11
17.2458789108
 21
5.7420845219
 31
0.0
  0
LINE
  5
D9
102
{ACAD_REACTORS
330
2B3
102
}
100
AcDbEntity
  8
Z_TATTOOMYSTIQUE
370
        25
  6
Continuous
 62
         4
100
AcDbLine
 10
17.2458789108
 20
5.7420845219
 30
0.0
 11
17.2653644107
 21
5.6987544208
 31
0.0
  0
LINE
  5
DA
102
{ACAD_REACTORS
330
2B3
102
}
100
AcDbEntity
  8
Z_TATTOOMYSTIQUE
370
        25
  6
Continuous
 62
         4
100
AcDbLine
 10
17.2653644107
 20
5.6987544208
 30
0.0
 11
17.2766191466
 21
5.6527452766
 31
0.0
  0
LINE
  5
DB
102
{ACAD_REACTORS
330
2B3
102
}
100
AcDbEntity
  8
Z_TATTOOMYSTIQUE
370
        25
  6
Continuous
 62
         4
100
AcDbLine
 10
17.2766191466
 20
5.6527452766
 30
0.0
 11
17.2792375808
 21
5.6057181806
 31
0.0
  0
LINE
  5
DC
102
{ACAD_REACTORS
330
2B3
102
}
100
AcDbEntity
  8
Z_TATTOOMYSTIQUE
370
        25
  6
Continuous
 62
         4
100
AcDbLine
 10
17.2792375808
 20
5.6057181806
 30
0.0
 11
17.2731238622
 21
5.5593734565
 31
0.0
  0
LINE
  5
DD
102
{ACAD_REACTORS
330
2B3
102
}
100
AcDbEntity
  8
Z_TATTOOMYSTIQUE
370
        25
  6
Continuous
 62
         4
100
AcDbLine
 10
17.9717492623
 20
4.9911866677
 30
0.0
 11
17.9733654019
 21
5.0104542023
 31
0.0
  0
LINE
  5
DE
102
{ACAD_REACTORS
330
2B3
102
}
100
AcDbEntity
  8
Z_TATTOOMYSTIQUE
370
        25
  6
Continuous
 62
         4
100
AcDbLine
 10
17.9733654019
 20
5.0104542023
 30
0.0
 11
17.9691639213
 21
5.033553651
 31
0.0
  0
LINE
  5
DF
102
{ACAD_REACTORS
330
2B3
102
}
100
AcDbEntity
  8
Z_TATTOOMYSTIQUE
370
        25
  6
Continuous
 62
         4
100
AcDbLine
 10
17.9691639213
 20
5.033553651
 30
0.0
 11
17.9595988193
 21
5.057980952
 31
0.0
  0
LINE
  5
E0
102
{ACAD_REACTORS
330
2B3
102
}
100
AcDbEntity
  8
Z_TATTOOMYSTIQUE
370
        25
  6
Continuous
 62
         4
100
AcDbLine
 10
17.9595988193
 20
5.057980952
 30
0.0
 11
17.9457083951
 21
5.0810897916
 31
0.0
  0
LINE
  5
E1
102
{ACAD_REACTORS
330
2B3
102
}
100
AcDbEntity
  8
Z_TATTOOMYSTIQUE
370
        25
  6
Continuous
 62
         4
100
AcDbLine
 10
17.9457083951
 20
5.0810897916
 30
0.0
 11
17.9289962435
 21
5.1003758049
 31
0.0
  0
LINE
  5
E2
102
{ACAD_REACTORS
330
2B3
102
}
100
AcDbEntity
  8
Z_TATTOOMYSTIQUE
370
        25
  6
Continuous
 62
         4
100
AcDbLine
 10
17.6281434717
 20
4.7790221408
 30
0.0
 11
17.6273988895
 21
4.8032738946
 31
0.0
  0
LINE
  5
E3
102
{ACAD_REACTORS
330
2B3
102
}
100
AcDbEntity
  8
Z_TATTOOMYSTIQUE
370
        25
  6
Continuous
 62
         4
100
AcDbLine
 10
17.6273988895
 20
4.8032738946
 30
0.0
 11
17.6209290731
 21
4.8305852999
 31
0.0
  0
LINE
  5
E4
102
{ACAD_REACTORS
330
2B3
102
}
100
AcDbEntity
  8
Z_TATTOOMYSTIQUE
370
        25
  6
Continuous
 62
         4
100
AcDbLine
 10
17.6209290731
 20
4.8305852999
 30
0.0
 11
17.6092562331
 21
4.8587445226
 31
0.0
  0
LINE
  5
E5
102
{ACAD_REACTORS
330
2B3
102
}
100
AcDbEntity
  8
Z_TATTOOMYSTIQUE
370
        25
  6
Continuous
 62
         4
100
AcDbLine
 10
17.6092562331
 20
4.8587445226
 30
0.0
 11
17.5933278889
 21
4.8854696708
 31
0.0
  0
LINE
  5
E6
102
{ACAD_REACTORS
330
2B3
102
}
100
AcDbEntity
  8
Z_TATTOOMYSTIQUE
370
        25
  6
Continuous
 62
         4
100
AcDbLine
 10
17.5933278889
 20
4.8854696708
 30
0.0
 11
17.5744340497
 21
4.9085962957
 31
0.0
  0
LINE
  5
E7
102
{ACAD_REACTORS
330
2B3
102
}
100
AcDbEntity
  8
Z_TATTOOMYSTIQUE
370
        25
  6
Continuous
 62
         4
100
AcDbLine
 10
17.847895726
 20
5.2205992106
 30
0.0
 11
17.8419834041
 21
5.2194704285
 31
0.0
  0
LINE
  5
E8
102
{ACAD_REACTORS
330
2B3
102
}
100
AcDbEntity
  8
Z_TATTOOMYSTIQUE
370
        25
  6
Continuous
 62
         4
100
AcDbLine
 10
17.8419834041
 20
5.2194704285
 30
0.0
 11
17.8344103524
 21
5.2217310065
 31
0.0
  0
LINE
  5
E9
102
{ACAD_REACTORS
330
2B3
102
}
100
AcDbEntity
  8
Z_TATTOOMYSTIQUE
370
        25
  6
Continuous
 62
         4
100
AcDbLine
 10
17.1464114256
 20
5.8411541908
 30
0.0
 11
17.185308044
 21
5.8145953403
 31
0.0
  0
LINE
  5
EA
102
{ACAD_REACTORS
330
2B3
102
}
100
AcDbEntity
  8
Z_TATTOOMYSTIQUE
370
        25
  6
Continuous
 62
         4
100
AcDbLine
 10
17.185308044
 20
5.8145953403
 30
0.0
 11
17.2188683772
 21
5.7811692177
 31
0.0
  0
LINE
  5
EB
102
{ACAD_REACTORS
330
2B3
102
}
100
AcDbEntity
  8
Z_TATTOOMYSTIQUE
370
        25
  6
Continuous
 62
         4
100
AcDbLine
 10
17.2731238622
 20
5.5593734565
 30
0.0
 11
17.2585007849
 21
5.5153879727
 31
0.0
  0
LINE
  5
EC
102
{ACAD_REACTORS
330
2B3
102
}
100
AcDbEntity
  8
Z_TATTOOMYSTIQUE
370
        25
  6
Continuous
 62
         4
100
AcDbLine
 10
17.2585007849
 20
5.5153879727
 30
0.0
 11
17.2358951638
 21
5.4753494833
 31
0.0
  0
LINE
  5
ED
102
{ACAD_REACTORS
330
2B3
102
}
100
AcDbEntity
  8
Z_TATTOOMYSTIQUE
370
        25
  6
Continuous
 62
         4
100
AcDbLine
 10
17.2358951638
 20
5.4753494833
 30
0.0
 11
17.2061242814
 21
5.4407053511
 31
0.0
  0
LINE
  5
EE
102
{ACAD_REACTORS
330
2B3
102
}
100
AcDbEntity
  8
Z_TATTOOMYSTIQUE
370
        25
  6
Continuous
 62
         4
100
AcDbLine
 10
17.2061242814
 20
5.4407053511
 30
0.0
 11
17.1702645798
 21
5.4127081439
 31
0.0
  0
LINE
  5
EF
102
{ACAD_REACTORS
330
2B3
102
}
100
AcDbEntity
  8
Z_TATTOOMYSTIQUE
370
        25
  6
Continuous
 62
         4
100
AcDbLine
 10
17.1702645798
 20
5.4127081439
 30
0.0
 11
17.1296127146
 21
5.392370698
 31
0.0
  0
LINE
  5
F0
102
{ACAD_REACTORS
330
2B3
102
}
100
AcDbEntity
  8
Z_TATTOOMYSTIQUE
370
        25
  6
Continuous
 62
         4
100
AcDbLine
 10
17.9289962435
 20
5.1003758049
 30
0.0
 11
17.9112738626
 21
5.1137494524
 31
0.0
  0
LINE
  5
F1
102
{ACAD_REACTORS
330
2B3
102
}
100
AcDbEntity
  8
Z_TATTOOMYSTIQUE
370
        25
  6
Continuous
 62
         4
100
AcDbLine
 10
18.0730382756
 20
5.5797373983
 30
0.0
 11
18.0646133345
 21
5.6019076736
 31
0.0
  0
LINE
  5
F2
102
{ACAD_REACTORS
330
2B3
102
}
100
AcDbEntity
  8
Z_TATTOOMYSTIQUE
370
        25
  6
Continuous
 62
         4
100
AcDbLine
 10
18.0646133345
 20
5.6019076736
 30
0.0
 11
18.053676889
 21
5.623736864
 31
0.0
  0
LINE
  5
F3
102
{ACAD_REACTORS
330
2B3
102
}
100
AcDbEntity
  8
Z_TATTOOMYSTIQUE
370
        25
  6
Continuous
 62
         4
100
AcDbLine
 10
17.596852283
 20
4.8636863694
 30
0.0
 11
17.6089256616
 21
4.8376785959
 31
0.0
  0
LINE
  5
F4
102
{ACAD_REACTORS
330
2B3
102
}
100
AcDbEntity
  8
Z_TATTOOMYSTIQUE
370
        25
  6
Continuous
 62
         4
100
AcDbLine
 10
17.8094428621
 20
5.2755350763
 30
0.0
 11
17.8054549858
 21
5.2789973662
 31
0.0
  0
LINE
  5
F5
102
{ACAD_REACTORS
330
2B3
102
}
100
AcDbEntity
  8
Z_TATTOOMYSTIQUE
370
        25
  6
Continuous
 62
         4
100
AcDbLine
 10
17.8054549858
 20
5.2789973662
 30
0.0
 11
17.8012095776
 21
5.2835612742
 31
0.0
  0
LINE
  5
F6
102
{ACAD_REACTORS
330
2B3
102
}
100
AcDbEntity
  8
Z_TATTOOMYSTIQUE
370
        25
  6
Continuous
 62
         4
100
AcDbLine
 10
17.8012095776
 20
5.2835612742
 30
0.0
 11
17.7968706587
 21
5.2890541093
 31
0.0
  0
LINE
  5
F7
102
{ACAD_REACTORS
330
2B3
102
}
100
AcDbEntity
  8
Z_TATTOOMYSTIQUE
370
        25
  6
Continuous
 62
         4
100
AcDbLine
 10
17.7968706587
 20
5.2890541093
 30
0.0
 11
17.7926033908
 21
5.2952624905
 31
0.0
  0
LINE
  5
F8
102
{ACAD_REACTORS
330
2B3
102
}
100
AcDbEntity
  8
Z_TATTOOMYSTIQUE
370
        25
  6
Continuous
 62
         4
100
AcDbLine
 10
17.7926033908
 20
5.2952624905
 30
0.0
 11
17.7885732946
 21
5.3019479792
 31
0.0
  0
LINE
  5
F9
102
{ACAD_REACTORS
330
2B3
102
}
100
AcDbEntity
  8
Z_TATTOOMYSTIQUE
370
        25
  6
Continuous
 62
         4
100
AcDbLine
 10
17.6083460924
 20
4.7444625642
 30
0.0
 11
17.6127847808
 21
4.7469782249
 31
0.0
  0
LINE
  5
FA
102
{ACAD_REACTORS
330
2B3
102
}
100
AcDbEntity
  8
Z_TATTOOMYSTIQUE
370
        25
  6
Continuous
 62
         4
100
AcDbLine
 10
17.7833705794
 20
5.2766131566
 30
0.0
 11
17.7732950374
 21
5.2933284305
 31
0.0
  0
LINE
  5
FB
102
{ACAD_REACTORS
330
2B3
102
}
100
AcDbEntity
  8
Z_TATTOOMYSTIQUE
370
        25
  6
Continuous
 62
         4
100
AcDbLine
 10
17.9599665315
 20
4.9743951327
 30
0.0
 11
17.964489947
 21
4.9778392385
 31
0.0
  0
LINE
  5
FC
102
{ACAD_REACTORS
330
2B3
102
}
100
AcDbEntity
  8
Z_TATTOOMYSTIQUE
370
        25
  6
Continuous
 62
         4
100
AcDbLine
 10
17.964489947
 20
4.9778392385
 30
0.0
 11
17.9717492623
 21
4.9911866677
 31
0.0
  0
LINE
  5
FD
102
{ACAD_REACTORS
330
2B3
102
}
100
AcDbEntity
  8
Z_TATTOOMYSTIQUE
370
        25
  6
Continuous
 62
         4
100
AcDbLine
 10
18.1379870789
 20
5.5305391711
 30
0.0
 11
18.1285478112
 21
5.5224559119
 31
0.0
  0
LINE
  5
FE
102
{ACAD_REACTORS
330
2B3
102
}
100
AcDbEntity
  8
Z_TATTOOMYSTIQUE
370
        25
  6
Continuous
 62
         4
100
AcDbLine
 10
18.0606631229
 20
5.4841573435
 30
0.0
 11
18.0701023906
 21
5.4922406026
 31
0.0
  0
LINE
  5
FF
102
{ACAD_REACTORS
330
2B3
102
}
100
AcDbEntity
  8
Z_TATTOOMYSTIQUE
370
        25
  6
Continuous
 62
         4
100
AcDbLine
 10
18.0701023906
 20
5.4922406026
 30
0.0
 11
18.0768192254
 21
5.5041969618
 31
0.0
  0
LINE
  5
100
102
{ACAD_REACTORS
330
2B3
102
}
100
AcDbEntity
  8
Z_TATTOOMYSTIQUE
370
        25
  6
Continuous
 62
         4
100
AcDbLine
 10
18.0768192254
 20
5.5041969618
 30
0.0
 11
18.0805536081
 21
5.5195674242
 31
0.0
  0
LINE
  5
101
102
{ACAD_REACTORS
330
2B3
102
}
100
AcDbEntity
  8
Z_TATTOOMYSTIQUE
370
        25
  6
Continuous
 62
         4
100
AcDbLine
 10
18.0805536081
 20
5.5195674242
 30
0.0
 11
18.0811641137
 21
5.5377601191
 31
0.0
  0
LINE
  5
102
102
{ACAD_REACTORS
330
2B3
102
}
100
AcDbEntity
  8
Z_TATTOOMYSTIQUE
370
        25
  6
Continuous
 62
         4
100
AcDbLine
 10
17.8184137443
 20
5.2728563895
 30
0.0
 11
17.8160492398
 21
5.2724053457
 31
0.0
  0
LINE
  5
103
102
{ACAD_REACTORS
330
2B3
102
}
100
AcDbEntity
  8
Z_TATTOOMYSTIQUE
370
        25
  6
Continuous
 62
         4
100
AcDbLine
 10
17.8160492398
 20
5.2724053457
 30
0.0
 11
17.8130191482
 21
5.2733090855
 31
0.0
  0
LINE
  5
104
102
{ACAD_REACTORS
330
2B3
102
}
100
AcDbEntity
  8
Z_TATTOOMYSTIQUE
370
        25
  6
Continuous
 62
         4
100
AcDbLine
 10
17.8130191482
 20
5.2733090855
 30
0.0
 11
17.8094428621
 21
5.2755350763
 31
0.0
  0
LINE
  5
105
102
{ACAD_REACTORS
330
2B3
102
}
100
AcDbEntity
  8
Z_TATTOOMYSTIQUE
370
        25
  6
Continuous
 62
         4
100
AcDbLine
 10
17.8344103524
 20
5.2217310065
 30
0.0
 11
17.8254678394
 21
5.2272961174
 31
0.0
  0
LINE
  5
106
102
{ACAD_REACTORS
330
2B3
102
}
100
AcDbEntity
  8
Z_TATTOOMYSTIQUE
370
        25
  6
Continuous
 62
         4
100
AcDbLine
 10
17.8254678394
 20
5.2272961174
 30
0.0
 11
17.8154975233
 21
5.2359509153
 31
0.0
  0
LINE
  5
107
102
{ACAD_REACTORS
330
2B3
102
}
100
AcDbEntity
  8
Z_TATTOOMYSTIQUE
370
        25
  6
Continuous
 62
         4
100
AcDbLine
 10
17.8154975233
 20
5.2359509153
 30
0.0
 11
17.8048850638
 21
5.2473618577
 31
0.0
  0
LINE
  5
108
102
{ACAD_REACTORS
330
2B3
102
}
100
AcDbEntity
  8
Z_TATTOOMYSTIQUE
370
        25
  6
Continuous
 62
         4
100
AcDbLine
 10
17.8048850638
 20
5.2473618577
 30
0.0
 11
17.7940373867
 21
5.2610925833
 31
0.0
  0
LINE
  5
109
102
{ACAD_REACTORS
330
2B3
102
}
100
AcDbEntity
  8
Z_TATTOOMYSTIQUE
370
        25
  6
Continuous
 62
         4
100
AcDbLine
 10
17.7940373867
 20
5.2610925833
 30
0.0
 11
17.7833705794
 21
5.2766131566
 31
0.0
  0
SPLINE
  5
10A
102
{ACAD_REACTORS
330
2B3
102
}
100
AcDbEntity
  8
Z_TATTOOMYSTIQUE
370
        25
  6
Continuous
 62
         4
100
AcDbSpline
210
0.0
220
0.0
230
1.0
 70
         0
 71
         3
 72
        15
 73
        11
 74
         0
 42
0.000001
 43
0.000001
 40
0.0
 40
0.0
 40
0.0
 40
0.0
 40
0.151212
 40
0.284538
 40
0.40055
 40
0.500131
 40
0.601478
 40
0.717891
 40
0.850483
 40
1.0
 40
1.0
 40
1.0
 40
1.0
 10
16.968747865165312
 20
4.8394262960553069
 30
0.0
 10
16.974424740097732
 20
4.8335217584778993
 30
0.0
 10
16.985108671378441
 20
4.8224094760214475
 30
0.0
 10
17.000087361797966
 20
4.807679662094869
 30
0.0
 10
17.012108522427013
 20
4.7959554861267852
 30
0.0
 10
17.021439209662901
 20
4.7863565590666886
 30
0.0
 10
17.028048110944212
 20
4.7776297869340842
 30
0.0
 10
17.032547119603862
 20
4.7698241549237528
 30
0.0
 10
17.034844578396189
 20
4.7634379249641361
 30
0.0
 10
17.033707299961577
 20
4.7617905106985736
 30
0.0
 10
17.033103533855694
 20
4.7609171336382579
 30
0.0
  0
LINE
  5
10B
102
{ACAD_REACTORS
330
2B3
102
}
100
AcDbEntity
  8
Z_TATTOOMYSTIQUE
370
        25
  6
Continuous
 62
         4
100
AcDbLine
 10
18.3856539163
 20
7.1972268705
 30
0.0
 11
18.3856539163
 21
7.1972268705
 31
0.0
  0
LINE
  5
10C
102
{ACAD_REACTORS
330
2B3
102
}
100
AcDbEntity
  8
Z_TATTOOMYSTIQUE
370
        25
  6
Continuous
 62
         4
100
AcDbLine
 10
17.6093526643
 20
4.8587771112
 30
0.0
 11
17.5933945704
 21
4.8855509209
 31
0.0
  0
LINE
  5
10D
102
{ACAD_REACTORS
330
2B3
102
}
100
AcDbEntity
  8
Z_TATTOOMYSTIQUE
370
        25
  6
Continuous
 62
         4
100
AcDbLine
 10
17.5933945704
 20
4.8855509209
 30
0.0
 11
17.5744663589
 21
4.908720155
 31
0.0
  0
LINE
  5
10E
102
{ACAD_REACTORS
330
2B3
102
}
100
AcDbEntity
  8
Z_TATTOOMYSTIQUE
370
        25
  6
Continuous
 62
         4
100
AcDbLine
 10
17.5744663589
 20
4.908720155
 30
0.0
 11
17.5540998656
 21
4.9264060584
 31
0.0
  0
LINE
  5
10F
102
{ACAD_REACTORS
330
2B3
102
}
100
AcDbEntity
  8
Z_TATTOOMYSTIQUE
370
        25
  6
Continuous
 62
         4
100
AcDbLine
 10
17.5540998656
 20
4.9264060584
 30
0.0
 11
17.5339464731
 21
4.9371773641
 31
0.0
  0
LINE
  5
110
102
{ACAD_REACTORS
330
2B3
102
}
100
AcDbEntity
  8
Z_TATTOOMYSTIQUE
370
        25
  6
Continuous
 62
         4
100
AcDbLine
 10
17.5339464731
 20
4.9371773641
 30
0.0
 11
17.5259803888
 21
4.9393999113
 31
0.0
  0
LINE
  5
111
102
{ACAD_REACTORS
330
2B3
102
}
100
AcDbEntity
  8
Z_TATTOOMYSTIQUE
370
        25
  6
Continuous
 62
         4
100
AcDbLine
 10
18.1215607063
 20
5.662034941
 30
0.0
 11
18.1324980229
 21
5.640206242
 31
0.0
  0
LINE
  5
112
102
{ACAD_REACTORS
330
2B3
102
}
100
AcDbEntity
  8
Z_TATTOOMYSTIQUE
370
        25
  6
Continuous
 62
         4
100
AcDbLine
 10
18.1324980229
 20
5.640206242
 30
0.0
 11
18.1409220929
 21
5.6180354753
 31
0.0
  0
LINE
  5
113
102
{ACAD_REACTORS
330
2B3
102
}
100
AcDbEntity
  8
Z_TATTOOMYSTIQUE
370
        25
  6
Continuous
 62
         4
100
AcDbLine
 10
17.6089256616
 20
4.8376785959
 30
0.0
 11
17.6158747445
 21
4.8119924167
 31
0.0
  0
LINE
  5
114
102
{ACAD_REACTORS
330
2B3
102
}
100
AcDbEntity
  8
Z_TATTOOMYSTIQUE
370
        25
  6
Continuous
 62
         4
100
AcDbLine
 10
17.6158747445
 20
4.8119924167
 30
0.0
 11
17.6170184748
 21
4.7891415742
 31
0.0
  0
LINE
  5
115
102
{ACAD_REACTORS
330
2B3
102
}
100
AcDbEntity
  8
Z_TATTOOMYSTIQUE
370
        25
  6
Continuous
 62
         4
100
AcDbLine
 10
17.6170184748
 20
4.7891415742
 30
0.0
 11
17.6122444697
 21
4.7713624451
 31
0.0
  0
LINE
  5
116
102
{ACAD_REACTORS
330
2B3
102
}
100
AcDbEntity
  8
Z_TATTOOMYSTIQUE
370
        25
  6
Continuous
 62
         4
100
AcDbLine
 10
17.6122444697
 20
4.7713624451
 30
0.0
 11
17.6062545132
 21
4.7634558609
 31
0.0
  0
LINE
  5
117
102
{ACAD_REACTORS
330
2B3
102
}
100
AcDbEntity
  8
Z_TATTOOMYSTIQUE
370
        25
  6
Continuous
 62
         4
100
AcDbLine
 10
17.6127847808
 20
4.7469782249
 30
0.0
 11
17.6232232697
 21
4.7596460985
 31
0.0
  0
LINE
  5
118
102
{ACAD_REACTORS
330
2B3
102
}
100
AcDbEntity
  8
Z_TATTOOMYSTIQUE
370
        25
  6
Continuous
 62
         4
100
AcDbLine
 10
17.6232232697
 20
4.7596460985
 30
0.0
 11
17.6282740797
 21
4.7789086747
 31
0.0
  0
LINE
  5
119
102
{ACAD_REACTORS
330
2B3
102
}
100
AcDbEntity
  8
Z_TATTOOMYSTIQUE
370
        25
  6
Continuous
 62
         4
100
AcDbLine
 10
17.6282740797
 20
4.7789086747
 30
0.0
 11
17.6275277533
 21
4.803204223
 31
0.0
  0
LINE
  5
11A
102
{ACAD_REACTORS
330
2B3
102
}
100
AcDbEntity
  8
Z_TATTOOMYSTIQUE
370
        25
  6
Continuous
 62
         4
100
AcDbLine
 10
17.6275277533
 20
4.803204223
 30
0.0
 11
17.6210455619
 21
4.8305660551
 31
0.0
  0
LINE
  5
11B
102
{ACAD_REACTORS
330
2B3
102
}
100
AcDbEntity
  8
Z_TATTOOMYSTIQUE
370
        25
  6
Continuous
 62
         4
100
AcDbLine
 10
17.6210455619
 20
4.8305660551
 30
0.0
 11
17.6093526643
 21
4.8587771112
 31
0.0
  0
LINE
  5
11C
102
{ACAD_REACTORS
330
2B3
102
}
100
AcDbEntity
  8
Z_TATTOOMYSTIQUE
370
        25
  6
Continuous
 62
         4
100
AcDbLine
 10
18.1409220929
 20
5.6180354753
 30
0.0
 11
18.1465112579
 21
5.5963756697
 31
0.0
  0
LINE
  5
11D
102
{ACAD_REACTORS
330
2B3
102
}
100
AcDbEntity
  8
Z_TATTOOMYSTIQUE
370
        25
  6
Continuous
 62
         4
100
AcDbLine
 10
18.1465112579
 20
5.5963756697
 30
0.0
 11
18.149048802
 21
5.5760586876
 31
0.0
  0
LINE
  5
11E
102
{ACAD_REACTORS
330
2B3
102
}
100
AcDbEntity
  8
Z_TATTOOMYSTIQUE
370
        25
  6
Continuous
 62
         4
100
AcDbLine
 10
18.149048802
 20
5.5760586876
 30
0.0
 11
18.1484382964
 21
5.5578659926
 31
0.0
  0
LINE
  5
11F
102
{ACAD_REACTORS
330
2B3
102
}
100
AcDbEntity
  8
Z_TATTOOMYSTIQUE
370
        25
  6
Continuous
 62
         4
100
AcDbLine
 10
18.1484382964
 20
5.5578659926
 30
0.0
 11
18.1447030427
 21
5.5424950389
 31
0.0
  0
LINE
  5
120
102
{ACAD_REACTORS
330
2B3
102
}
100
AcDbEntity
  8
Z_TATTOOMYSTIQUE
370
        25
  6
Continuous
 62
         4
100
AcDbLine
 10
18.1447030427
 20
5.5424950389
 30
0.0
 11
18.1379870789
 21
5.5305391711
 31
0.0
  0
LINE
  5
121
102
{ACAD_REACTORS
330
2B3
102
}
100
AcDbEntity
  8
Z_TATTOOMYSTIQUE
370
        25
  6
Continuous
 62
         4
100
AcDbLine
 10
18.0811641137
 20
5.5377601191
 30
0.0
 11
18.0786265696
 21
5.5580771013
 31
0.0
  0
LINE
  5
122
102
{ACAD_REACTORS
330
2B3
102
}
100
AcDbEntity
  8
Z_TATTOOMYSTIQUE
370
        25
  6
Continuous
 62
         4
100
AcDbLine
 10
18.0786265696
 20
5.5580771013
 30
0.0
 11
18.0730382756
 21
5.5797373983
 31
0.0
  0
LINE
  5
123
102
{ACAD_REACTORS
330
2B3
102
}
100
AcDbEntity
  8
Z_TATTOOMYSTIQUE
370
        25
  6
Continuous
 62
         4
100
AcDbLine
 10
16.9187026686
 20
4.8398964406
 30
0.0
 11
16.9391561284
 21
4.8514356883
 31
0.0
  0
LINE
  5
124
102
{ACAD_REACTORS
330
2B3
102
}
100
AcDbEntity
  8
Z_TATTOOMYSTIQUE
370
        25
  6
Continuous
 62
         4
100
AcDbLine
 10
16.928952964
 20
4.7676498889
 30
0.0
 11
16.9569805013
 21
4.7179707308
 31
0.0
  0
ARC
  5
125
102
{ACAD_REACTORS
330
2B3
102
}
100
AcDbEntity
  8
Z_TATTOOMYSTIQUE
370
        25
  6
Continuous
 62
         4
100
AcDbCircle
 10
16.8712503598
 20
4.4514523
 30
0.0
 40
0.2499998856
100
AcDbArc
 50
-60.5695455224
 51
-150.5695979603
  0
LINE
  5
126
102
{ACAD_REACTORS
330
2B3
102
}
100
AcDbEntity
  8
Z_TATTOOMYSTIQUE
370
        25
  6
Continuous
 62
         4
100
AcDbLine
 10
17.1403281637
 20
6.4747715052
 30
0.0
 11
17.1108461819
 21
6.5270286842
 31
0.0
  0
LINE
  5
127
102
{ACAD_REACTORS
330
2B3
102
}
100
AcDbEntity
  8
Z_TATTOOMYSTIQUE
370
        25
  6
Continuous
 62
         4
100
AcDbLine
 10
16.9569805013
 20
4.7179707308
 30
0.0
 11
16.9800041434
 21
4.7309600006
 31
0.0
  0
LINE
  5
128
102
{ACAD_REACTORS
330
2B3
102
}
100
AcDbEntity
  8
Z_TATTOOMYSTIQUE
370
        25
  6
Continuous
 62
         4
100
AcDbLine
 10
16.9838624651
 20
4.7331367536
 30
0.0
 11
16.9543804833
 21
4.7853939325
 31
0.0
  0
LINE
  5
129
102
{ACAD_REACTORS
330
2B3
102
}
100
AcDbEntity
  8
Z_TATTOOMYSTIQUE
370
        25
  6
Continuous
 62
         4
100
AcDbLine
 10
16.9543804833
 20
4.7853939325
 30
0.0
 11
16.9615580069
 21
4.7894432827
 31
0.0
  0
LINE
  5
12A
102
{ACAD_REACTORS
330
2B3
102
}
100
AcDbEntity
  8
Z_TATTOOMYSTIQUE
370
        25
  6
Continuous
 62
         4
100
AcDbLine
 10
16.9543804833
 20
4.7853939325
 30
0.0
 11
16.9506414822
 21
4.7832844967
 31
0.0
  0
LINE
  5
12B
102
{ACAD_REACTORS
330
2B3
102
}
100
AcDbEntity
  8
Z_TATTOOMYSTIQUE
370
        25
  6
Continuous
 62
         4
100
AcDbLine
 10
16.9838624651
 20
4.7331367536
 30
0.0
 11
16.9801234639
 21
4.7310273178
 31
0.0
  0
LINE
  5
12C
102
{ACAD_REACTORS
330
2B3
102
}
100
AcDbEntity
  8
Z_TATTOOMYSTIQUE
370
        25
  6
Continuous
 62
         4
100
AcDbLine
 10
17.1108461819
 20
6.5270286842
 30
0.0
 11
16.3009644226
 21
6.0701169308
 31
0.0
  0
LINE
  5
12D
102
{ACAD_REACTORS
330
2B3
102
}
100
AcDbEntity
  8
Z_TATTOOMYSTIQUE
370
        25
  6
Continuous
 62
         4
100
AcDbLine
 10
16.9910399886
 20
4.7371861038
 30
0.0
 11
17.0331035339
 21
4.7609171336
 31
0.0
  0
LINE
  5
12E
102
{ACAD_REACTORS
330
2B3
102
}
100
AcDbEntity
  8
Z_TATTOOMYSTIQUE
370
        25
  6
Continuous
 62
         4
100
AcDbLine
 10
16.928952964
 20
4.7676498889
 30
0.0
 11
16.8767680741
 21
4.7382086906
 31
0.0
  0
LINE
  5
12F
102
{ACAD_REACTORS
330
2B3
102
}
100
AcDbEntity
  8
Z_TATTOOMYSTIQUE
370
        25
  6
Continuous
 62
         4
100
AcDbLine
 10
16.8839507069
 20
6.5201525331
 30
0.0
 11
17.0386546013
 21
6.6074319747
 31
0.0
  0
LINE
  5
130
102
{ACAD_REACTORS
330
2B3
102
}
100
AcDbEntity
  8
Z_TATTOOMYSTIQUE
370
        25
  6
Continuous
 62
         4
100
AcDbLine
 10
16.9580705178
 20
6.7502682638
 30
0.0
 11
16.8033666234
 21
6.6629888222
 31
0.0
  0
LINE
  5
131
102
{ACAD_REACTORS
330
2B3
102
}
100
AcDbEntity
  8
Z_TATTOOMYSTIQUE
370
        25
  6
Continuous
 62
         4
100
AcDbLine
 10
16.9801234639
 20
4.7310273178
 30
0.0
 11
16.9800041434
 21
4.7309600006
 31
0.0
  0
ELLIPSE
  5
132
102
{ACAD_REACTORS
330
2B3
102
}
100
AcDbEntity
  8
Z_TATTOOMYSTIQUE
370
        25
  6
Continuous
 62
         4
100
AcDbEllipse
 10
16.9226401136
 20
4.7684648294
 30
0.0
 11
0.0461077515232091
 21
0.0709614666419043
 31
0.0
210
0.0
220
0.0
230
1.0
 40
1.0
 41
0.0
 42
0.911864311821145
  0
LINE
  5
133
102
{ACAD_REACTORS
330
2B3
102
}
100
AcDbEntity
  8
Z_TATTOOMYSTIQUE
370
        25
  6
Continuous
 62
         4
100
AcDbLine
 10
17.1345187658
 20
6.4255673076
 30
0.0
 11
16.3309740605
 21
5.9722307359
 31
0.0
  0
LINE
  5
134
102
{ACAD_REACTORS
330
2B3
102
}
100
AcDbEntity
  8
Z_TATTOOMYSTIQUE
370
        25
  6
Continuous
 62
         4
100
AcDbLine
 10
16.9910399886
 20
4.7371861038
 30
0.0
 11
16.9615580069
 21
4.7894432827
 31
0.0
  0
LINE
  5
135
102
{ACAD_REACTORS
330
2B3
102
}
100
AcDbEntity
  8
Z_TATTOOMYSTIQUE
370
        25
  6
Continuous
 62
         4
100
AcDbLine
 10
16.9615580069
 20
4.7894432827
 30
0.0
 11
16.9987807954
 21
4.8104432983
 31
0.0
  0
ELLIPSE
  5
136
102
{ACAD_REACTORS
330
2B3
102
}
100
AcDbEntity
  8
Z_TATTOOMYSTIQUE
370
        25
  6
Continuous
 62
         4
100
AcDbEllipse
 10
16.9554363492
 20
6.6546323987
 30
0.0
 11
0.0983317736943832
 21
-0.003960115052962
 31
0.0
210
0.0
220
0.0
230
1.0
 40
1.0
 41
0.0
 42
1.1078182333338622
  0
LINE
  5
137
102
{ACAD_REACTORS
330
2B3
102
}
100
AcDbEntity
  8
Z_TATTOOMYSTIQUE
370
        25
  6
Continuous
 62
         4
100
AcDbLine
 10
17.0518773397
 20
6.6321683374
 30
0.0
 11
17.0537681229
 21
6.6506722837
 31
0.0
  0
LINE
  5
138
102
{ACAD_REACTORS
330
2B3
102
}
100
AcDbEntity
  8
Z_TATTOOMYSTIQUE
370
        25
  6
Continuous
 62
         4
100
AcDbLine
 10
17.0028959806
 20
6.7408437879
 30
0.0
 11
16.9860804356
 21
6.7487941674
 31
0.0
  0
LINE
  5
139
102
{ACAD_REACTORS
330
2B3
102
}
100
AcDbEntity
  8
Z_TATTOOMYSTIQUE
370
        25
  6
Continuous
 62
         4
100
AcDbLine
 10
16.9838624651
 20
4.7331367536
 30
0.0
 11
16.9910399886
 21
4.7371861038
 31
0.0
  0
LINE
  5
13A
102
{ACAD_REACTORS
330
2B3
102
}
100
AcDbEntity
  8
Z_TATTOOMYSTIQUE
370
        25
  6
Continuous
 62
         4
100
AcDbLine
 10
16.9569805013
 20
4.7179707308
 30
0.0
 11
16.9047956114
 21
4.6885295324
 31
0.0
  0
LINE
  5
13B
102
{ACAD_REACTORS
330
2B3
102
}
100
AcDbEntity
  8
Z_TATTOOMYSTIQUE
370
        25
  6
Continuous
 62
         4
100
AcDbLine
 10
16.9801234639
 20
4.7310273178
 30
0.0
 11
16.9116304325
 21
4.8524320669
 31
0.0
  0
LINE
  5
13C
102
{ACAD_REACTORS
330
2B3
102
}
100
AcDbEntity
  8
Z_TATTOOMYSTIQUE
370
        25
  6
Continuous
 62
         4
100
AcDbLine
 10
17.1168591558
 20
5.6291772012
 30
0.0
 11
17.1221508722
 21
5.5945658856
 31
0.0
  0
LINE
  5
13D
102
{ACAD_REACTORS
330
2B3
102
}
100
AcDbEntity
  8
Z_TATTOOMYSTIQUE
370
        25
  6
Continuous
 62
         4
100
AcDbLine
 10
16.8966020649
 20
5.703493583
 30
0.0
 11
16.9247918674
 21
5.7219360489
 31
0.0
  0
LINE
  5
13E
102
{ACAD_REACTORS
330
2B3
102
}
100
AcDbEntity
  8
Z_TATTOOMYSTIQUE
370
        25
  6
Continuous
 62
         4
100
AcDbLine
 10
16.9247918674
 20
5.7219360489
 30
0.0
 11
16.9568481315
 21
5.7324445036
 31
0.0
  0
LINE
  5
13F
102
{ACAD_REACTORS
330
2B3
102
}
100
AcDbEntity
  8
Z_TATTOOMYSTIQUE
370
        25
  6
Continuous
 62
         4
100
AcDbLine
 10
16.9568481315
 20
5.7324445036
 30
0.0
 11
16.9907589536
 21
5.7343580825
 31
0.0
  0
LINE
  5
140
102
{ACAD_REACTORS
330
2B3
102
}
100
AcDbEntity
  8
Z_TATTOOMYSTIQUE
370
        25
  6
Continuous
 62
         4
100
AcDbLine
 10
16.9907589536
 20
5.7343580825
 30
0.0
 11
17.024390867
 21
5.7275570162
 31
0.0
  0
LINE
  5
141
102
{ACAD_REACTORS
330
2B3
102
}
100
AcDbEntity
  8
Z_TATTOOMYSTIQUE
370
        25
  6
Continuous
 62
         4
100
AcDbLine
 10
16.8864300967
 20
5.8234149095
 30
0.0
 11
16.9248595118
 21
5.8476916757
 31
0.0
  0
LINE
  5
142
102
{ACAD_REACTORS
330
2B3
102
}
100
AcDbEntity
  8
Z_TATTOOMYSTIQUE
370
        25
  6
Continuous
 62
         4
100
AcDbLine
 10
16.9248595118
 20
5.8476916757
 30
0.0
 11
16.9673664176
 21
5.863906631
 31
0.0
  0
LINE
  5
143
102
{ACAD_REACTORS
330
2B3
102
}
100
AcDbEntity
  8
Z_TATTOOMYSTIQUE
370
        25
  6
Continuous
 62
         4
100
AcDbLine
 10
16.9673664176
 20
5.863906631
 30
0.0
 11
17.0124138802
 21
5.8714728349
 31
0.0
  0
LINE
  5
144
102
{ACAD_REACTORS
330
2B3
102
}
100
AcDbEntity
  8
Z_TATTOOMYSTIQUE
370
        25
  6
Continuous
 62
         4
100
AcDbLine
 10
17.0382868892
 20
6.691017794
 30
0.0
 11
17.0243964649
 21
6.7141266335
 31
0.0
  0
LINE
  5
145
102
{ACAD_REACTORS
330
2B3
102
}
100
AcDbEntity
  8
Z_TATTOOMYSTIQUE
370
        25
  6
Continuous
 62
         4
100
AcDbLine
 10
17.0243964649
 20
6.7141266335
 30
0.0
 11
17.0076843133
 21
6.7334126469
 31
0.0
  0
LINE
  5
146
102
{ACAD_REACTORS
330
2B3
102
}
100
AcDbEntity
  8
Z_TATTOOMYSTIQUE
370
        25
  6
Continuous
 62
         4
100
AcDbLine
 10
17.0076843133
 20
6.7334126469
 30
0.0
 11
16.9899619324
 21
6.7467862944
 31
0.0
  0
LINE
  5
147
102
{ACAD_REACTORS
330
2B3
102
}
100
AcDbEntity
  8
Z_TATTOOMYSTIQUE
370
        25
  6
Continuous
 62
         4
100
AcDbLine
 10
16.9899619324
 20
6.7467862944
 30
0.0
 11
16.9731493912
 21
6.7527979654
 31
0.0
  0
LINE
  5
148
102
{ACAD_REACTORS
330
2B3
102
}
100
AcDbEntity
  8
Z_TATTOOMYSTIQUE
370
        25
  6
Continuous
 62
         4
100
AcDbLine
 10
16.9731493912
 20
6.7527979654
 30
0.0
 11
16.9590699271
 21
6.7507965082
 31
0.0
  0
LINE
  5
149
102
{ACAD_REACTORS
330
2B3
102
}
100
AcDbEntity
  8
Z_TATTOOMYSTIQUE
370
        25
  6
Continuous
 62
         4
100
AcDbLine
 10
17.1296127146
 20
5.392370698
 30
0.0
 11
17.0856369613
 21
5.3804260739
 31
0.0
  0
LINE
  5
14A
102
{ACAD_REACTORS
330
2B3
102
}
100
AcDbEntity
  8
Z_TATTOOMYSTIQUE
370
        25
  6
Continuous
 62
         4
100
AcDbLine
 10
17.0856369613
 20
5.3804260739
 30
0.0
 11
17.0399267437
 21
5.3773071187
 31
0.0
  0
LINE
  5
14B
102
{ACAD_REACTORS
330
2B3
102
}
100
AcDbEntity
  8
Z_TATTOOMYSTIQUE
370
        25
  6
Continuous
 62
         4
100
AcDbLine
 10
17.0399267437
 20
5.3773071187
 30
0.0
 11
16.9941341013
 21
5.3831260733
 31
0.0
  0
LINE
  5
14C
102
{ACAD_REACTORS
330
2B3
102
}
100
AcDbEntity
  8
Z_TATTOOMYSTIQUE
370
        25
  6
Continuous
 62
         4
100
AcDbLine
 10
16.9941341013
 20
5.3831260733
 30
0.0
 11
16.9499160031
 21
5.3976730284
 31
0.0
  0
LINE
  5
14D
102
{ACAD_REACTORS
330
2B3
102
}
100
AcDbEntity
  8
Z_TATTOOMYSTIQUE
370
        25
  6
Continuous
 62
         4
100
AcDbLine
 10
16.9499160031
 20
5.3976730284
 30
0.0
 11
16.9088672829
 21
5.4204228668
 31
0.0
  0
LINE
  5
14E
102
{ACAD_REACTORS
330
2B3
102
}
100
AcDbEntity
  8
Z_TATTOOMYSTIQUE
370
        25
  6
Continuous
 62
         4
100
AcDbLine
 10
17.0386546013
 20
6.6074319747
 30
0.0
 11
17.0431780169
 21
6.6108760805
 31
0.0
  0
LINE
  5
14F
102
{ACAD_REACTORS
330
2B3
102
}
100
AcDbEntity
  8
Z_TATTOOMYSTIQUE
370
        25
  6
Continuous
 62
         4
100
AcDbLine
 10
17.0431780169
 20
6.6108760805
 30
0.0
 11
17.0504373321
 21
6.6242235097
 31
0.0
  0
LINE
  5
150
102
{ACAD_REACTORS
330
2B3
102
}
100
AcDbEntity
  8
Z_TATTOOMYSTIQUE
370
        25
  6
Continuous
 62
         4
100
AcDbLine
 10
17.0504373321
 20
6.6242235097
 30
0.0
 11
17.0520534717
 21
6.6434910443
 31
0.0
  0
LINE
  5
151
102
{ACAD_REACTORS
330
2B3
102
}
100
AcDbEntity
  8
Z_TATTOOMYSTIQUE
370
        25
  6
Continuous
 62
         4
100
AcDbLine
 10
17.0520534717
 20
6.6434910443
 30
0.0
 11
17.0478524825
 21
6.666589622
 31
0.0
  0
LINE
  5
152
102
{ACAD_REACTORS
330
2B3
102
}
100
AcDbEntity
  8
Z_TATTOOMYSTIQUE
370
        25
  6
Continuous
 62
         4
100
AcDbLine
 10
17.0478524825
 20
6.666589622
 30
0.0
 11
17.0382868892
 21
6.691017794
 31
0.0
  0
LINE
  5
153
102
{ACAD_REACTORS
330
2B3
102
}
100
AcDbEntity
  8
Z_TATTOOMYSTIQUE
370
        25
  6
Continuous
 62
         4
100
AcDbLine
 10
16.7048476677
 20
6.8376148952
 30
0.0
 11
16.9357898582
 21
6.4282669935
 31
0.0
  0
LINE
  5
154
102
{ACAD_REACTORS
330
2B3
102
}
100
AcDbEntity
  8
Z_TATTOOMYSTIQUE
370
        25
  6
Continuous
 62
         4
100
AcDbLine
 10
16.9114835955
 20
4.852413523
 30
0.0
 11
16.9800041434
 21
4.7309600006
 31
0.0
  0
LINE
  5
155
102
{ACAD_REACTORS
330
2B3
102
}
100
AcDbEntity
  8
Z_TATTOOMYSTIQUE
370
        25
  6
Continuous
 62
         4
100
AcDbLine
 10
17.1176534078
 20
6.4599915888
 30
0.0
 11
17.1115111102
 21
6.4763758045
 31
0.0
  0
LINE
  5
156
102
{ACAD_REACTORS
330
2B3
102
}
100
AcDbEntity
  8
Z_TATTOOMYSTIQUE
370
        25
  6
Continuous
 62
         4
100
AcDbLine
 10
17.1115111102
 20
6.4763758045
 30
0.0
 11
17.1072317293
 21
6.4913608341
 31
0.0
  0
LINE
  5
157
102
{ACAD_REACTORS
330
2B3
102
}
100
AcDbEntity
  8
Z_TATTOOMYSTIQUE
370
        25
  6
Continuous
 62
         4
100
AcDbLine
 10
17.1072317293
 20
6.4913608341
 30
0.0
 11
17.1049802899
 21
6.5043692497
 31
0.0
  0
LINE
  5
158
102
{ACAD_REACTORS
330
2B3
102
}
100
AcDbEntity
  8
Z_TATTOOMYSTIQUE
370
        25
  6
Continuous
 62
         4
100
AcDbLine
 10
17.1461583644
 20
6.4410943308
 30
0.0
 11
17.1430512059
 21
6.447957212
 31
0.0
  0
LINE
  5
159
102
{ACAD_REACTORS
330
2B3
102
}
100
AcDbEntity
  8
Z_TATTOOMYSTIQUE
370
        25
  6
Continuous
 62
         4
100
AcDbLine
 10
17.1430512059
 20
6.447957212
 30
0.0
 11
17.1405940367
 21
6.4545105276
 31
0.0
  0
LINE
  5
15A
102
{ACAD_REACTORS
330
2B3
102
}
100
AcDbEntity
  8
Z_TATTOOMYSTIQUE
370
        25
  6
Continuous
 62
         4
100
AcDbLine
 10
17.1405940367
 20
6.4545105276
 30
0.0
 11
17.1388831018
 21
6.4605043117
 31
0.0
  0
LINE
  5
15B
102
{ACAD_REACTORS
330
2B3
102
}
100
AcDbEntity
  8
Z_TATTOOMYSTIQUE
370
        25
  6
Continuous
 62
         4
100
AcDbLine
 10
17.1388831018
 20
6.4605043117
 30
0.0
 11
17.1379818828
 21
6.4657080039
 31
0.0
  0
LINE
  5
15C
102
{ACAD_REACTORS
330
2B3
102
}
100
AcDbEntity
  8
Z_TATTOOMYSTIQUE
370
        25
  6
Continuous
 62
         4
100
AcDbLine
 10
17.1379818828
 20
6.4657080039
 30
0.0
 11
17.1379259887
 21
6.4699200976
 31
0.0
  0
LINE
  5
15D
102
{ACAD_REACTORS
330
2B3
102
}
100
AcDbEntity
  8
Z_TATTOOMYSTIQUE
370
        25
  6
Continuous
 62
         4
100
AcDbLine
 10
17.1221508722
 20
5.5945658856
 30
0.0
 11
17.1189091178
 21
5.5600222424
 31
0.0
  0
LINE
  5
15E
102
{ACAD_REACTORS
330
2B3
102
}
100
AcDbEntity
  8
Z_TATTOOMYSTIQUE
370
        25
  6
Continuous
 62
         4
100
AcDbLine
 10
17.1189091178
 20
5.5600222424
 30
0.0
 11
17.1073385714
 21
5.5277192618
 31
0.0
  0
LINE
  5
15F
102
{ACAD_REACTORS
330
2B3
102
}
100
AcDbEntity
  8
Z_TATTOOMYSTIQUE
370
        25
  6
Continuous
 62
         4
100
AcDbLine
 10
17.1073385714
 20
5.5277192618
 30
0.0
 11
17.0881643179
 21
5.4996849319
 31
0.0
  0
LINE
  5
160
102
{ACAD_REACTORS
330
2B3
102
}
100
AcDbEntity
  8
Z_TATTOOMYSTIQUE
370
        25
  6
Continuous
 62
         4
100
AcDbLine
 10
17.0881643179
 20
5.4996849319
 30
0.0
 11
17.0625935984
 21
5.4776807688
 31
0.0
  0
LINE
  5
161
102
{ACAD_REACTORS
330
2B3
102
}
100
AcDbEntity
  8
Z_TATTOOMYSTIQUE
370
        25
  6
Continuous
 62
         4
100
AcDbLine
 10
17.0625935984
 20
5.4776807688
 30
0.0
 11
17.0322304824
 21
5.4630905279
 31
0.0
  0
LINE
  5
162
102
{ACAD_REACTORS
330
2B3
102
}
100
AcDbEntity
  8
Z_TATTOOMYSTIQUE
370
        25
  6
Continuous
 62
         4
100
AcDbLine
 10
17.1049802899
 20
6.5043692497
 30
0.0
 11
17.1048413697
 21
6.5149010919
 31
0.0
  0
LINE
  5
163
102
{ACAD_REACTORS
330
2B3
102
}
100
AcDbEntity
  8
Z_TATTOOMYSTIQUE
370
        25
  6
Continuous
 62
         4
100
AcDbLine
 10
17.1048413697
 20
6.5149010919
 30
0.0
 11
17.1068221809
 21
6.5225528298
 31
0.0
  0
LINE
  5
164
102
{ACAD_REACTORS
330
2B3
102
}
100
AcDbEntity
  8
Z_TATTOOMYSTIQUE
370
        25
  6
Continuous
 62
         4
100
AcDbLine
 10
17.1068221809
 20
6.5225528298
 30
0.0
 11
17.1108461819
 21
6.5270286842
 31
0.0
  0
LINE
  5
165
102
{ACAD_REACTORS
330
2B3
102
}
100
AcDbEntity
  8
Z_TATTOOMYSTIQUE
370
        25
  6
Continuous
 62
         4
100
AcDbLine
 10
17.024390867
 20
5.7275570162
 30
0.0
 11
17.0556331336
 21
5.7124694037
 31
0.0
  0
LINE
  5
166
102
{ACAD_REACTORS
330
2B3
102
}
100
AcDbEntity
  8
Z_TATTOOMYSTIQUE
370
        25
  6
Continuous
 62
         4
100
AcDbLine
 10
17.0556331336
 20
5.7124694037
 30
0.0
 11
17.0825214916
 21
5.6900411375
 31
0.0
  0
LINE
  5
167
102
{ACAD_REACTORS
330
2B3
102
}
100
AcDbEntity
  8
Z_TATTOOMYSTIQUE
370
        25
  6
Continuous
 62
         4
100
AcDbLine
 10
17.0825214916
 20
5.6900411375
 30
0.0
 11
17.1033666162
 21
5.6616832267
 31
0.0
  0
LINE
  5
168
102
{ACAD_REACTORS
330
2B3
102
}
100
AcDbEntity
  8
Z_TATTOOMYSTIQUE
370
        25
  6
Continuous
 62
         4
100
AcDbLine
 10
17.0124138802
 20
5.8714728349
 30
0.0
 11
17.0583731617
 21
5.870116671
 31
0.0
  0
LINE
  5
169
102
{ACAD_REACTORS
330
2B3
102
}
100
AcDbEntity
  8
Z_TATTOOMYSTIQUE
370
        25
  6
Continuous
 62
         4
100
AcDbLine
 10
17.0583731617
 20
5.870116671
 30
0.0
 11
17.1035828124
 21
5.8598870736
 31
0.0
  0
LINE
  5
16A
102
{ACAD_REACTORS
330
2B3
102
}
100
AcDbEntity
  8
Z_TATTOOMYSTIQUE
370
        25
  6
Continuous
 62
         4
100
AcDbLine
 10
17.1035828124
 20
5.8598870736
 30
0.0
 11
17.1464114256
 21
5.8411541908
 31
0.0
  0
LINE
  5
16B
102
{ACAD_REACTORS
330
2B3
102
}
100
AcDbEntity
  8
Z_TATTOOMYSTIQUE
370
        25
  6
Continuous
 62
         4
100
AcDbLine
 10
16.9590699271
 20
6.7507965082
 30
0.0
 11
16.9580705178
 21
6.7502682638
 31
0.0
  0
LINE
  5
16C
102
{ACAD_REACTORS
330
2B3
102
}
100
AcDbEntity
  8
Z_TATTOOMYSTIQUE
370
        25
  6
Continuous
 62
         4
100
AcDbLine
 10
16.9088672829
 20
5.4204228668
 30
0.0
 11
16.8724737161
 21
5.4505512733
 31
0.0
  0
LINE
  5
16D
102
{ACAD_REACTORS
330
2B3
102
}
100
AcDbEntity
  8
Z_TATTOOMYSTIQUE
370
        25
  6
Continuous
 62
         4
100
AcDbLine
 10
17.1033666162
 20
5.6616832267
 30
0.0
 11
17.1168591558
 21
5.6291772012
 31
0.0
  0
ARC
  5
16E
102
{ACAD_REACTORS
330
2B3
102
}
100
AcDbEntity
  8
Z_TATTOOMYSTIQUE
370
        25
  6
Continuous
 62
         4
100
AcDbCircle
 10
16.2968646111
 20
6.3548468701
 30
0.0
 40
0.1059988611
100
AcDbArc
 50
-3.7281234223
 51
111.5549500715
  0
ARC
  5
16F
102
{ACAD_REACTORS
330
2B3
102
}
100
AcDbEntity
  8
Z_TATTOOMYSTIQUE
370
        25
  6
Continuous
 62
         4
100
AcDbCircle
 10
16.2968642291
 20
6.354845622
 30
0.0
 40
0.1060000256
100
AcDbArc
 50
127.3069091276
 51
-68.4460526103
  0
ELLIPSE
  5
170
102
{ACAD_REACTORS
330
2B3
102
}
100
AcDbEntity
  8
Z_TATTOOMYSTIQUE
370
        25
  6
Continuous
 62
         4
100
AcDbEllipse
 10
16.2968674173
 20
6.3548429255
 30
0.0
 11
0.0843102827764106
 21
0.0642408497020329
 31
0.0
210
0.0
220
0.0
230
1.0
 40
1.0
 41
4.7123889803846897
 42
5.5670426235420631
  0
CIRCLE
  5
171
102
{ACAD_REACTORS
330
2B3
102
}
100
AcDbEntity
  8
Z_TATTOOMYSTIQUE
370
        25
  6
Continuous
 62
         4
100
AcDbCircle
 10
16.2968642068
 20
6.3548456095
 30
0.0
 40
0.068
  0
LINE
  5
172
102
{ACAD_REACTORS
330
2B3
102
}
100
AcDbEntity
  8
Z_TATTOOMYSTIQUE
370
        25
  6
Continuous
 62
         4
100
AcDbLine
 10
16.3230328526
 20
6.0136772414
 30
0.0
 11
16.2823645741
 21
5.9907333804
 31
0.0
  0
LINE
  5
173
102
{ACAD_REACTORS
330
2B3
102
}
100
AcDbEntity
  8
Z_TATTOOMYSTIQUE
370
        25
  6
Continuous
 62
         4
100
AcDbLine
 10
16.3009644226
 20
6.0701169308
 30
0.0
 11
16.2528825923
 21
6.0429905594
 31
0.0
  0
LINE
  5
174
102
{ACAD_REACTORS
330
2B3
102
}
100
AcDbEntity
  8
Z_TATTOOMYSTIQUE
370
        25
  6
Continuous
 62
         4
100
AcDbLine
 10
16.3139006249
 20
6.0471873516
 30
0.0
 11
16.3009644226
 21
6.0701169308
 31
0.0
  0
LINE
  5
175
102
{ACAD_REACTORS
330
2B3
102
}
100
AcDbEntity
  8
Z_TATTOOMYSTIQUE
370
        25
  6
Continuous
 62
         4
100
AcDbLine
 10
16.9035360535
 20
4.8110287922
 30
0.0
 11
16.8513502927
 21
4.7815871025
 31
0.0
  0
LINE
  5
176
102
{ACAD_REACTORS
330
2B3
102
}
100
AcDbEntity
  8
Z_TATTOOMYSTIQUE
370
        25
  6
Continuous
 62
         4
100
AcDbLine
 10
16.2151046394
 20
5.909061613
 30
0.0
 11
16.8513051685
 21
4.7813882714
 31
0.0
  0
LINE
  5
177
102
{ACAD_REACTORS
330
2B3
102
}
100
AcDbEntity
  8
Z_TATTOOMYSTIQUE
370
        25
  6
Continuous
 62
         4
100
AcDbLine
 10
16.8767680741
 20
4.7382086906
 30
0.0
 11
16.9047956114
 21
4.6885295324
 31
0.0
  0
LINE
  5
178
102
{ACAD_REACTORS
330
2B3
102
}
100
AcDbEntity
  8
Z_TATTOOMYSTIQUE
370
        25
  6
Continuous
 62
         4
100
AcDbLine
 10
16.1679725151
 20
5.9950867613
 30
0.0
 11
16.200142145
 21
5.937048122
 31
0.0
  0
LINE
  5
179
102
{ACAD_REACTORS
330
2B3
102
}
100
AcDbEntity
  8
Z_TATTOOMYSTIQUE
370
        25
  6
Continuous
 62
         4
100
AcDbLine
 10
16.3104486014
 20
5.9180343313
 30
0.0
 11
16.2430739198
 21
6.0374567914
 31
0.0
  0
SPLINE
  5
17A
102
{ACAD_REACTORS
330
2B3
102
}
100
AcDbEntity
  8
Z_TATTOOMYSTIQUE
370
        25
  6
Continuous
 62
         4
100
AcDbSpline
210
0.0
220
0.0
230
1.0
 70
         0
 71
         3
 72
        12
 73
         8
 74
         0
 42
0.000001
 43
0.000001
 40
0.0
 40
0.0
 40
0.0
 40
0.0
 40
0.151889
 40
0.285791
 40
0.50097
 40
0.719492
 40
1.0
 40
1.0
 40
1.0
 40
1.0
 10
16.297890189940688
 20
5.9063359030890288
 30
0.0
 10
16.291980240663918
 20
5.9029500139081383
 30
0.0
 10
16.280862598020974
 20
5.8965778724261773
 30
0.0
 10
16.263112068794442
 20
5.8881663816441678
 30
0.0
 10
16.245758398748706
 20
5.8826597586371454
 30
0.0
 10
16.227415465290562
 20
5.8894120169370572
 30
0.0
 10
16.21965893037617
 20
5.9019496623350269
 30
0.0
 10
16.215298156277015
 20
5.9089974162507124
 30
0.0
  0
SPLINE
  5
17B
102
{ACAD_REACTORS
330
2B3
102
}
100
AcDbEntity
  8
Z_TATTOOMYSTIQUE
370
        25
  6
Continuous
 62
         4
100
AcDbSpline
210
0.0
220
0.0
230
1.0
 70
         0
 71
         3
 72
        15
 73
        11
 74
         0
 42
0.000001
 43
0.000001
 40
0.0
 40
0.0
 40
0.0
 40
0.0
 40
0.148994
 40
0.281429
 40
0.398041
 40
0.499918
 40
0.59916
 40
0.715052
 40
0.848475
 40
1.0
 40
1.0
 40
1.0
 40
1.0
 10
16.300964422630898
 20
6.0701169307887985
 30
0.0
 10
16.301802530829889
 20
6.0700478319695312
 30
0.0
 10
16.303384770477976
 20
6.0699174682629282
 30
0.0
 10
16.307129357223005
 20
6.0642305527449016
 30
0.0
 10
16.311047626523134
 20
6.0559503190106616
 30
0.0
 10
16.314740828708921
 20
6.0454660737534587
 30
0.0
 10
16.31777461669941
 20
6.0322859149368915
 30
0.0
 10
16.321148527640105
 20
6.0157635837163062
 30
0.0
 10
16.325482959354929
 20
5.9951698129661954
 30
0.0
 10
16.329067790155761
 20
5.9801947971020573
 30
0.0
 10
16.330974060460505
 20
5.9722307358563276
 30
0.0
  0
SPLINE
  5
17C
102
{ACAD_REACTORS
330
2B3
102
}
100
AcDbEntity
  8
Z_TATTOOMYSTIQUE
370
        25
  6
Continuous
 62
         4
100
AcDbSpline
210
0.0
220
0.0
230
1.0
 70
         0
 71
         3
 72
        12
 73
         8
 74
         0
 42
0.000001
 43
0.000001
 40
0.0
 40
0.0
 40
0.0
 40
0.0
 40
0.282736
 40
0.498991
 40
0.716433
 40
0.849778
 40
1.0
 40
1.0
 40
1.0
 40
1.0
 10
16.851350292749601
 20
4.7815871024674825
 30
0.0
 10
16.848043152725552
 20
4.7882854923382174
 30
0.0
 10
16.842204393152713
 20
4.8001082085511362
 30
0.0
 10
16.847101859381212
 20
4.8182118840493322
 30
0.0
 10
16.861139949883238
 20
4.8295119721929032
 30
0.0
 10
16.877718924254111
 20
4.8396357682106546
 30
0.0
 10
16.888862194710725
 20
4.8453438011058543
 30
0.0
 10
16.894765194944
 20
4.8483675415454845
 30
0.0
  0
SPLINE
  5
17D
102
{ACAD_REACTORS
330
2B3
102
}
100
AcDbEntity
  8
Z_TATTOOMYSTIQUE
370
        25
  6
Continuous
 62
         4
100
AcDbSpline
210
0.0
220
0.0
230
1.0
 70
         0
 71
         3
 72
        12
 73
         8
 74
         0
 42
0.000001
 43
0.000001
 40
0.0
 40
0.0
 40
0.0
 40
0.0
 40
0.518904
 40
0.707406
 40
0.852179
 40
0.980964
 40
1.0
 40
1.0
 40
1.0
 40
1.0
 10
16.903536053548862
 20
4.8110287921913359
 30
0.0
 10
16.90006637130665
 20
4.8173782909225329
 30
0.0
 10
16.895336732570343
 20
4.8260343432805248
 30
0.0
 10
16.892761116705913
 20
4.8367702029536295
 30
0.0
 10
16.892778627357814
 20
4.8423337686606365
 30
0.0
 10
16.893713493282405
 20
4.8454755704849495
 30
0.0
 10
16.894895723550633
 20
4.8467705981265672
 30
0.0
 10
16.895048582796392
 20
4.8469372086033209
 30
0.0
  0
SPLINE
  5
17E
102
{ACAD_REACTORS
330
2B3
102
}
100
AcDbEntity
  8
Z_TATTOOMYSTIQUE
370
        25
  6
Continuous
 62
         4
100
AcDbSpline
210
0.0
220
0.0
230
1.0
 70
         0
 71
         3
 72
        12
 73
         8
 74
         0
 42
0.000001
 43
0.000001
 40
0.0
 40
0.0
 40
0.0
 40
0.0
 40
0.064265
 40
0.182494
 40
0.321973
 40
0.502958
 40
1.0
 40
1.0
 40
1.0
 40
1.0
 10
16.297595023409542
 20
5.9088067196987586
 30
0.0
 10
16.296736936829518
 20
5.9086934703227589
 30
0.0
 10
16.294298839169016
 20
5.9083708361679319
 30
0.0
 10
16.290345339536941
 20
5.9095538888543606
 30
0.0
 10
16.285308556446637
 20
5.9130742789038768
 30
0.0
 10
16.276930798729325
 20
5.9220098377913919
 30
0.0
 10
16.271480192737101
 20
5.9314899770474758
 30
0.0
 10
16.26748391707639
 20
5.9384391059745658
 30
0.0
  0
LINE
  5
17F
102
{ACAD_REACTORS
330
2B3
102
}
100
AcDbEntity
  8
Z_TATTOOMYSTIQUE
370
        25
  6
Continuous
 62
         4
100
AcDbLine
 10
17.1379259887
 20
6.4699200976
 30
0.0
 11
17.1387188893
 21
6.4729818067
 31
0.0
  0
LINE
  5
180
102
{ACAD_REACTORS
330
2B3
102
}
100
AcDbEntity
  8
Z_TATTOOMYSTIQUE
370
        25
  6
Continuous
 62
         4
100
AcDbLine
 10
17.1387188893
 20
6.4729818067
 30
0.0
 11
17.1403281637
 21
6.4747715052
 31
0.0
  0
LINE
  5
181
102
{ACAD_REACTORS
330
2B3
102
}
100
AcDbEntity
  8
Z_TATTOOMYSTIQUE
370
        25
  6
Continuous
 62
         4
100
AcDbLine
 10
17.0322304824
 20
5.4630905279
 30
0.0
 11
16.9989854473
 21
5.4568301532
 31
0.0
  0
LINE
  5
182
102
{ACAD_REACTORS
330
2B3
102
}
100
AcDbEntity
  8
Z_TATTOOMYSTIQUE
370
        25
  6
Continuous
 62
         4
100
AcDbLine
 10
16.9989854473
 20
5.4568301532
 30
0.0
 11
16.9649455827
 21
5.4592929217
 31
0.0
  0
LINE
  5
183
102
{ACAD_REACTORS
330
2B3
102
}
100
AcDbEntity
  8
Z_TATTOOMYSTIQUE
370
        25
  6
Continuous
 62
         4
100
AcDbLine
 10
16.9649455827
 20
5.4592929217
 30
0.0
 11
16.9322509131
 21
5.4703244461
 31
0.0
  0
LINE
  5
184
102
{ACAD_REACTORS
330
2B3
102
}
100
AcDbEntity
  8
Z_TATTOOMYSTIQUE
370
        25
  6
Continuous
 62
         4
100
AcDbLine
 10
16.9322509131
 20
5.4703244461
 30
0.0
 11
16.9029537899
 21
5.4892317574
 31
0.0
  0
LINE
  5
185
102
{ACAD_REACTORS
330
2B3
102
}
100
AcDbEntity
  8
Z_TATTOOMYSTIQUE
370
        25
  6
Continuous
 62
         4
100
AcDbLine
 10
17.1345187658
 20
6.4255673076
 30
0.0
 11
17.125422175
 21
6.4428348772
 31
0.0
  0
LINE
  5
186
102
{ACAD_REACTORS
330
2B3
102
}
100
AcDbEntity
  8
Z_TATTOOMYSTIQUE
370
        25
  6
Continuous
 62
         4
100
AcDbLine
 10
17.125422175
 20
6.4428348772
 30
0.0
 11
17.1176534078
 21
6.4599915888
 31
0.0
  0
LINE
  5
187
102
{ACAD_REACTORS
330
2B3
102
}
100
AcDbEntity
  8
Z_TATTOOMYSTIQUE
370
        25
  6
Continuous
 62
         4
100
AcDbLine
 10
16.3123737207
 20
6.5817474715
 30
0.0
 11
15.8246400505
 21
6.3065823083
 31
0.0
  0
ARC
  5
188
102
{ACAD_REACTORS
330
2B3
102
}
100
AcDbEntity
  8
Z_TATTOOMYSTIQUE
370
        25
  6
Continuous
 62
         4
100
AcDbCircle
 10
16.4352150583
 20
6.3640083175
 30
0.0
 40
0.2500006668
100
AcDbArc
 50
29.430581074
 51
119.4302754433
  0
LINE
  5
189
102
{ACAD_REACTORS
330
2B3
102
}
100
AcDbEntity
  8
Z_TATTOOMYSTIQUE
370
        25
  6
Continuous
 62
         4
100
AcDbLine
 10
16.7266585114
 20
6.3562078692
 30
0.0
 11
16.652953557
 21
6.4868508165
 31
0.0
  0
LINE
  5
18A
102
{ACAD_REACTORS
330
2B3
102
}
100
AcDbEntity
  8
Z_TATTOOMYSTIQUE
370
        25
  6
Continuous
 62
         4
100
AcDbLine
 10
16.6535121576
 20
4.3286108651
 30
0.0
 11
16.5798072032
 21
4.4592538125
 31
0.0
  0
LINE
  5
18B
102
{ACAD_REACTORS
330
2B3
102
}
100
AcDbEntity
  8
Z_TATTOOMYSTIQUE
370
        25
  6
Continuous
 62
         4
100
AcDbLine
 10
16.3894333404
 20
6.7974474103
 30
0.0
 11
16.433656313
 21
6.7190616419
 31
0.0
  0
LINE
  5
18C
102
{ACAD_REACTORS
330
2B3
102
}
100
AcDbEntity
  8
Z_TATTOOMYSTIQUE
370
        25
  6
Continuous
 62
         4
100
AcDbLine
 10
16.5601525487
 20
4.4940919318
 30
0.0
 11
16.5798072032
 21
4.4592538125
 31
0.0
  0
LINE
  5
18D
102
{ACAD_REACTORS
330
2B3
102
}
100
AcDbEntity
  8
Z_TATTOOMYSTIQUE
370
        25
  6
Continuous
 62
         4
100
AcDbLine
 10
15.80344835
 20
5.8353595247
 30
0.0
 11
15.8231030045
 21
5.8005214054
 31
0.0
  0
LINE
  5
18E
102
{ACAD_REACTORS
330
2B3
102
}
100
AcDbEntity
  8
Z_TATTOOMYSTIQUE
370
        25
  6
Continuous
 62
         4
100
AcDbLine
 10
16.7266585114
 20
6.3562078692
 30
0.0
 11
15.80344835
 21
5.8353595247
 31
0.0
  0
LINE
  5
18F
102
{ACAD_REACTORS
330
2B3
102
}
100
AcDbEntity
  8
Z_TATTOOMYSTIQUE
370
        25
  6
Continuous
 62
         4
100
AcDbLine
 10
16.200142145
 20
5.937048122
 30
0.0
 11
16.2523279058
 21
5.9664898117
 31
0.0
  0
LINE
  5
190
102
{ACAD_REACTORS
330
2B3
102
}
100
AcDbEntity
  8
Z_TATTOOMYSTIQUE
370
        25
  6
Continuous
 62
         4
100
AcDbLine
 10
16.2201574049
 20
6.0245279597
 30
0.0
 11
16.2523279058
 21
5.9664898117
 31
0.0
  0
LINE
  5
191
102
{ACAD_REACTORS
330
2B3
102
}
100
AcDbEntity
  8
Z_TATTOOMYSTIQUE
370
        25
  6
Continuous
 62
         4
100
AcDbLine
 10
16.2429545992
 20
6.0373894742
 30
0.0
 11
16.2201574049
 21
6.0245279597
 31
0.0
  0
LINE
  5
192
102
{ACAD_REACTORS
330
2B3
102
}
100
AcDbEntity
  8
Z_TATTOOMYSTIQUE
370
        25
  6
Continuous
 62
         4
100
AcDbLine
 10
16.433656313
 20
6.7190616419
 30
0.0
 11
16.1362197729
 21
6.5512565894
 31
0.0
  0
LINE
  5
193
102
{ACAD_REACTORS
330
2B3
102
}
100
AcDbEntity
  8
Z_TATTOOMYSTIQUE
370
        25
  6
Continuous
 62
         4
100
AcDbLine
 10
16.2763732885
 20
5.9873532712
 30
0.0
 11
16.2725559016
 21
5.9851996124
 31
0.0
  0
LINE
  5
194
102
{ACAD_REACTORS
330
2B3
102
}
100
AcDbEntity
  8
Z_TATTOOMYSTIQUE
370
        25
  6
Continuous
 62
         4
100
AcDbLine
 10
16.2468913067
 20
6.0396104502
 30
0.0
 11
16.2430739198
 21
6.0374567914
 31
0.0
  0
ELLIPSE
  5
195
102
{ACAD_REACTORS
330
2B3
102
}
100
AcDbEntity
  8
Z_TATTOOMYSTIQUE
370
        25
  6
Continuous
 62
         4
100
AcDbEllipse
 10
16.2470130559
 20
5.9731324646
 30
0.0
 11
0.0667965615409888
 21
0.0508771340453827
 31
0.0
210
0.0
220
0.0
230
1.0
 40
1.0
 41
4.7123889803846897
 42
5.6215158332985844
  0
LINE
  5
196
102
{ACAD_REACTORS
330
2B3
102
}
100
AcDbEntity
  8
Z_TATTOOMYSTIQUE
370
        25
  6
Continuous
 62
         4
100
AcDbLine
 10
16.4388993901
 20
4.2104029973
 30
0.0
 11
16.346768197
 21
4.3737066815
 31
0.0
  0
LINE
  5
197
102
{ACAD_REACTORS
330
2B3
102
}
100
AcDbEntity
  8
Z_TATTOOMYSTIQUE
370
        25
  6
Continuous
 62
         4
100
AcDbLine
 10
16.2152981563
 20
5.9089974163
 30
0.0
 11
16.2674839171
 21
5.938439106
 31
0.0
  0
LINE
  5
198
102
{ACAD_REACTORS
330
2B3
102
}
100
AcDbEntity
  8
Z_TATTOOMYSTIQUE
370
        25
  6
Continuous
 62
         4
100
AcDbLine
 10
16.2823645741
 20
5.9907333804
 30
0.0
 11
16.2528825923
 21
6.0429905594
 31
0.0
  0
LINE
  5
199
102
{ACAD_REACTORS
330
2B3
102
}
100
AcDbEntity
  8
Z_TATTOOMYSTIQUE
370
        25
  6
Continuous
 62
         4
100
AcDbLine
 10
16.2429545992
 20
6.0373894742
 30
0.0
 11
16.2430739198
 21
6.0374567914
 31
0.0
  0
LINE
  5
19A
102
{ACAD_REACTORS
330
2B3
102
}
100
AcDbEntity
  8
Z_TATTOOMYSTIQUE
370
        25
  6
Continuous
 62
         4
100
AcDbLine
 10
16.9047956114
 20
4.6885295324
 30
0.0
 11
16.3775285145
 21
4.3910607587
 31
0.0
  0
LINE
  5
19B
102
{ACAD_REACTORS
330
2B3
102
}
100
AcDbEntity
  8
Z_TATTOOMYSTIQUE
370
        25
  6
Continuous
 62
         4
100
AcDbLine
 10
16.2763732885
 20
5.9873532712
 30
0.0
 11
16.2468913067
 21
6.0396104502
 31
0.0
  0
LINE
  5
19C
102
{ACAD_REACTORS
330
2B3
102
}
100
AcDbEntity
  8
Z_TATTOOMYSTIQUE
370
        25
  6
Continuous
 62
         4
100
AcDbLine
 10
16.2823645741
 20
5.9907333804
 30
0.0
 11
16.2763732885
 21
5.9873532712
 31
0.0
  0
LINE
  5
19D
102
{ACAD_REACTORS
330
2B3
102
}
100
AcDbEntity
  8
Z_TATTOOMYSTIQUE
370
        25
  6
Continuous
 62
         4
100
AcDbLine
 10
16.2528825923
 20
6.0429905594
 30
0.0
 11
16.2468913067
 21
6.0396104502
 31
0.0
  0
LINE
  5
19E
102
{ACAD_REACTORS
330
2B3
102
}
100
AcDbEntity
  8
Z_TATTOOMYSTIQUE
370
        25
  6
Continuous
 62
         4
100
AcDbLine
 10
16.8947651949
 20
4.8483675415
 30
0.0
 11
16.2978901899
 21
5.9063359031
 31
0.0
  0
CIRCLE
  5
19F
102
{ACAD_REACTORS
330
2B3
102
}
100
AcDbEntity
  8
Z_TATTOOMYSTIQUE
370
        25
  6
Continuous
 62
         4
100
AcDbCircle
 10
16.2968642068
 20
6.3548456095
 30
0.0
 40
0.082
  0
LINE
  5
1A0
102
{ACAD_REACTORS
330
2B3
102
}
100
AcDbEntity
  8
Z_TATTOOMYSTIQUE
370
        25
  6
Continuous
 62
         4
100
AcDbLine
 10
16.8908774257
 20
6.4029287042
 30
0.0
 11
16.6771330579
 21
6.7817932516
 31
0.0
  0
LINE
  5
1A1
102
{ACAD_REACTORS
330
2B3
102
}
100
AcDbEntity
  8
Z_TATTOOMYSTIQUE
370
        25
  6
Continuous
 62
         4
100
AcDbLine
 10
16.8456218378
 20
6.3773968167
 30
0.0
 11
16.63187747
 21
6.756261364
 31
0.0
  0
LINE
  5
1A2
102
{ACAD_REACTORS
330
2B3
102
}
100
AcDbEntity
  8
Z_TATTOOMYSTIQUE
370
        25
  6
Continuous
 62
         4
100
AcDbLine
 10
16.6771330579
 20
6.7817932516
 30
0.0
 11
16.63187747
 21
6.756261364
 31
0.0
  0
LINE
  5
1A3
102
{ACAD_REACTORS
330
2B3
102
}
100
AcDbEntity
  8
Z_TATTOOMYSTIQUE
370
        25
  6
Continuous
 62
         4
100
AcDbLine
 10
16.63187747
 20
6.756261364
 30
0.0
 11
16.3581595924
 21
6.6018376917
 31
0.0
  0
ELLIPSE
  5
1A4
102
{ACAD_REACTORS
330
2B3
102
}
100
AcDbEntity
  8
Z_TATTOOMYSTIQUE
370
        25
  6
Continuous
 62
         4
100
AcDbEllipse
 10
16.5754663488
 20
6.4304415027
 30
0.0
 11
0.1188396185044667
 21
-0.016888347214433
 31
0.0
210
0.0
220
0.0
230
1.0
 40
1.0
 41
0.0
 42
0.7261573382931152
  0
ELLIPSE
  5
1A5
102
{ACAD_REACTORS
330
2B3
102
}
100
AcDbEntity
  8
Z_TATTOOMYSTIQUE
370
        25
  6
Continuous
 62
         4
100
AcDbEllipse
 10
16.5896853563
 20
6.4653149996
 30
0.0
 11
0.085854996583862
 21
0.0314082117754424
 31
0.0
210
0.0
220
0.0
230
1.0
 40
1.0
 41
0.0
 42
1.1661551011219087
  0
LINE
  5
1A6
102
{ACAD_REACTORS
330
2B3
102
}
100
AcDbEntity
  8
Z_TATTOOMYSTIQUE
370
        25
  6
Continuous
 62
         4
100
AcDbLine
 10
16.1362197729
 20
6.5512565894
 30
0.0
 11
16.0919968002
 21
6.6296423579
 31
0.0
  0
LINE
  5
1A7
102
{ACAD_REACTORS
330
2B3
102
}
100
AcDbEntity
  8
Z_TATTOOMYSTIQUE
370
        25
  6
Continuous
 62
         4
100
AcDbLine
 10
16.0919968002
 20
6.6296423579
 30
0.0
 11
16.3894333404
 21
6.7974474103
 31
0.0
  0
LINE
  5
1A8
102
{ACAD_REACTORS
330
2B3
102
}
100
AcDbEntity
  8
Z_TATTOOMYSTIQUE
370
        25
  6
Continuous
 62
         4
100
AcDbLine
 10
16.2429545992
 20
6.0373894742
 30
0.0
 11
16.3103533578
 21
5.9179243374
 31
0.0
  0
ELLIPSE
  5
1A9
102
{ACAD_REACTORS
330
2B3
102
}
100
AcDbEntity
  8
Z_TATTOOMYSTIQUE
370
        25
  6
Continuous
 62
         4
100
AcDbEllipse
 10
16.6031086927
 20
6.7888302994
 30
0.0
 11
0.1017389749305266
 21
0.0487845957862874
 31
0.0
210
0.0
220
0.0
230
1.0
 40
1.0
 41
0.0
 42
1.5605248910106828
  0
LINE
  5
1AA
102
{ACAD_REACTORS
330
2B3
102
}
100
AcDbEntity
  8
Z_TATTOOMYSTIQUE
370
        25
  6
Continuous
 62
         4
100
AcDbLine
 10
16.7048476677
 20
6.8376148952
 30
0.0
 11
16.6369638503
 21
6.7993168182
 31
0.0
  0
ELLIPSE
  5
1AB
102
{ACAD_REACTORS
330
2B3
102
}
100
AcDbEntity
  8
Z_TATTOOMYSTIQUE
370
        25
  6
Continuous
 62
         4
100
AcDbEllipse
 10
16.296864292
 20
6.3548456575
 30
0.0
 11
-0.0826977974520461
 21
-0.0671069677748862
 31
0.0
210
0.0
220
0.0
230
1.0
 40
1.0
 41
4.7123889803846897
 42
7.5179030303013601
  0
ELLIPSE
  5
1AC
102
{ACAD_REACTORS
330
2B3
102
}
100
AcDbEntity
  8
Z_TATTOOMYSTIQUE
370
        25
  6
Continuous
 62
         4
100
AcDbEllipse
 10
16.2968642965
 20
6.3548456601
 30
0.0
 11
0.0826983875005458
 21
0.0671059219065901
 31
0.0
210
0.0
220
0.0
230
1.0
 40
1.0
 41
4.7123889803846897
 42
7.5179252635226952
  0
LINE
  5
1AD
102
{ACAD_REACTORS
330
2B3
102
}
100
AcDbEntity
  8
Z_TATTOOMYSTIQUE
370
        25
  6
Continuous
 62
         4
100
AcDbLine
 10
16.59959463
 20
6.8126792182
 30
0.0
 11
16.5553716573
 21
6.8910649866
 31
0.0
  0
LINE
  5
1AE
102
{ACAD_REACTORS
330
2B3
102
}
100
AcDbEntity
  8
Z_TATTOOMYSTIQUE
370
        25
  6
Continuous
 62
         4
100
AcDbLine
 10
16.3894333404
 20
6.7974474103
 30
0.0
 11
16.5553716573
 21
6.8910649866
 31
0.0
  0
LINE
  5
1AF
102
{ACAD_REACTORS
330
2B3
102
}
100
AcDbEntity
  8
Z_TATTOOMYSTIQUE
370
        25
  6
Continuous
 62
         4
100
AcDbLine
 10
16.433656313
 20
6.7190616419
 30
0.0
 11
16.59959463
 21
6.8126792182
 31
0.0
  0
ELLIPSE
  5
1B0
102
{ACAD_REACTORS
330
2B3
102
}
100
AcDbEntity
  8
Z_TATTOOMYSTIQUE
370
        25
  6
Continuous
 62
         4
100
AcDbEllipse
 10
16.6115286612
 20
6.7871193831
 30
0.0
 11
0.0254351891400688
 21
0.0121974350643654
 31
0.0
210
0.0
220
0.0
230
1.0
 40
1.0
 41
0.0
 42
1.5604658466146593
  0
LINE
  5
1B1
102
{ACAD_REACTORS
330
2B3
102
}
100
AcDbEntity
  8
Z_TATTOOMYSTIQUE
370
        25
  6
Continuous
 62
         4
100
AcDbLine
 10
16.7463131659
 20
6.3213697499
 30
0.0
 11
16.7266585114
 21
6.3562078692
 31
0.0
  0
LINE
  5
1B2
102
{ACAD_REACTORS
330
2B3
102
}
100
AcDbEntity
  8
Z_TATTOOMYSTIQUE
370
        25
  6
Continuous
 62
         4
100
AcDbLine
 10
16.346768197
 20
4.3737066815
 30
0.0
 11
16.3775285145
 21
4.3910607587
 31
0.0
  0
LINE
  5
1B3
102
{ACAD_REACTORS
330
2B3
102
}
100
AcDbEntity
  8
Z_TATTOOMYSTIQUE
370
        25
  6
Continuous
 62
         4
100
AcDbLine
 10
16.6369638503
 20
6.7993168182
 30
0.0
 11
16.654161673
 21
6.7688334638
 31
0.0
  0
ELLIPSE
  5
1B4
102
{ACAD_REACTORS
330
2B3
102
}
100
AcDbEntity
  8
Z_TATTOOMYSTIQUE
370
        25
  6
Continuous
 62
         4
100
AcDbEllipse
 10
16.3491213857
 20
6.3843275912
 30
0.0
 11
0.0515934680897203
 21
-0.0914500631520241
 31
0.0
210
0.0
220
0.0
230
1.0
 40
1.0
 41
0.0
 42
3.1415926535906475
  0
LINE
  5
1B5
102
{ACAD_REACTORS
330
2B3
102
}
100
AcDbEntity
  8
Z_TATTOOMYSTIQUE
370
        25
  6
Continuous
 62
         4
100
AcDbLine
 10
16.208255237
 20
6.4254126022
 30
0.0
 11
16.2975279177
 21
6.4757776544
 31
0.0
  0
ELLIPSE
  5
1B6
102
{ACAD_REACTORS
330
2B3
102
}
100
AcDbEntity
  8
Z_TATTOOMYSTIQUE
370
        25
  6
Continuous
 62
         4
100
AcDbEllipse
 10
16.259848705
 20
6.333962539
 30
0.0
 11
0.091450063151808
 21
0.0515934680897694
 31
0.0
210
0.0
220
0.0
230
-1.0
 40
1.0
 41
4.7123889803846897
 42
7.8539816339753692
  0
LINE
  5
1B7
102
{ACAD_REACTORS
330
2B3
102
}
100
AcDbEntity
  8
Z_TATTOOMYSTIQUE
370
        25
  6
Continuous
 62
         4
100
AcDbLine
 10
16.4007148538
 20
6.2928775281
 30
0.0
 11
16.3114421731
 21
6.2425124759
 31
0.0
  0
LINE
  5
1B8
102
{ACAD_REACTORS
330
2B3
102
}
100
AcDbEntity
  8
Z_TATTOOMYSTIQUE
370
        25
  6
Continuous
 62
         4
100
AcDbLine
 10
16.1679725151
 20
5.9950867613
 30
0.0
 11
16.2201574049
 21
6.0245279597
 31
0.0
  0
LINE
  5
1B9
102
{ACAD_REACTORS
330
2B3
102
}
100
AcDbEntity
  8
Z_TATTOOMYSTIQUE
370
        25
  6
Continuous
 62
         4
100
AcDbLine
 10
16.8510929137
 20
5.6141780083
 30
0.0
 11
16.858557886
 21
5.6478664357
 31
0.0
  0
LINE
  5
1BA
102
{ACAD_REACTORS
330
2B3
102
}
100
AcDbEntity
  8
Z_TATTOOMYSTIQUE
370
        25
  6
Continuous
 62
         4
100
AcDbLine
 10
16.858557886
 20
5.6478664357
 30
0.0
 11
16.8740526014
 21
5.6782751747
 31
0.0
  0
LINE
  5
1BB
102
{ACAD_REACTORS
330
2B3
102
}
100
AcDbEntity
  8
Z_TATTOOMYSTIQUE
370
        25
  6
Continuous
 62
         4
100
AcDbLine
 10
16.7035883693
 20
6.3970999827
 30
0.0
 11
16.7068315415
 21
6.4120589828
 31
0.0
  0
LINE
  5
1BC
102
{ACAD_REACTORS
330
2B3
102
}
100
AcDbEntity
  8
Z_TATTOOMYSTIQUE
370
        25
  6
Continuous
 62
         4
100
AcDbLine
 10
16.7068315415
 20
6.4120589828
 30
0.0
 11
16.7060869593
 21
6.4363107366
 31
0.0
  0
LINE
  5
1BD
102
{ACAD_REACTORS
330
2B3
102
}
100
AcDbEntity
  8
Z_TATTOOMYSTIQUE
370
        25
  6
Continuous
 62
         4
100
AcDbLine
 10
16.7035151557
 20
6.3972297547
 30
0.0
 11
16.7066808666
 21
6.4119739764
 31
0.0
  0
LINE
  5
1BE
102
{ACAD_REACTORS
330
2B3
102
}
100
AcDbEntity
  8
Z_TATTOOMYSTIQUE
370
        25
  6
Continuous
 62
         4
100
AcDbLine
 10
16.7066808666
 20
6.4119739764
 30
0.0
 11
16.7059362845
 21
6.4362257302
 31
0.0
  0
LINE
  5
1BF
102
{ACAD_REACTORS
330
2B3
102
}
100
AcDbEntity
  8
Z_TATTOOMYSTIQUE
370
        25
  6
Continuous
 62
         4
100
AcDbLine
 10
16.7059362845
 20
6.4362257302
 30
0.0
 11
16.6994664681
 21
6.4635371355
 31
0.0
  0
LINE
  5
1C0
102
{ACAD_REACTORS
330
2B3
102
}
100
AcDbEntity
  8
Z_TATTOOMYSTIQUE
370
        25
  6
Continuous
 62
         4
100
AcDbLine
 10
16.6994664681
 20
6.4635371355
 30
0.0
 11
16.687793628
 21
6.4916963582
 31
0.0
  0
LINE
  5
1C1
102
{ACAD_REACTORS
330
2B3
102
}
100
AcDbEntity
  8
Z_TATTOOMYSTIQUE
370
        25
  6
Continuous
 62
         4
100
AcDbLine
 10
16.8724737161
 20
5.4505512733
 30
0.0
 11
16.8420502018
 21
5.4869710446
 31
0.0
  0
LINE
  5
1C2
102
{ACAD_REACTORS
330
2B3
102
}
100
AcDbEntity
  8
Z_TATTOOMYSTIQUE
370
        25
  6
Continuous
 62
         4
100
AcDbLine
 10
16.8420502018
 20
5.4869710446
 30
0.0
 11
16.8186965413
 21
5.5283656979
 31
0.0
  0
LINE
  5
1C3
102
{ACAD_REACTORS
330
2B3
102
}
100
AcDbEntity
  8
Z_TATTOOMYSTIQUE
370
        25
  6
Continuous
 62
         4
100
AcDbLine
 10
16.8740526014
 20
5.6782751747
 30
0.0
 11
16.8966020649
 21
5.703493583
 31
0.0
  0
LINE
  5
1C4
102
{ACAD_REACTORS
330
2B3
102
}
100
AcDbEntity
  8
Z_TATTOOMYSTIQUE
370
        25
  6
Continuous
 62
         4
100
AcDbLine
 10
16.8271587209
 20
5.7544410825
 30
0.0
 11
16.8534663549
 21
5.7919513581
 31
0.0
  0
LINE
  5
1C5
102
{ACAD_REACTORS
330
2B3
102
}
100
AcDbEntity
  8
Z_TATTOOMYSTIQUE
370
        25
  6
Continuous
 62
         4
100
AcDbLine
 10
16.8534663549
 20
5.7919513581
 30
0.0
 11
16.8864300967
 21
5.8234149095
 31
0.0
  0
LINE
  5
1C6
102
{ACAD_REACTORS
330
2B3
102
}
100
AcDbEntity
  8
Z_TATTOOMYSTIQUE
370
        25
  6
Continuous
 62
         4
100
AcDbLine
 10
16.687793628
 20
6.4916963582
 30
0.0
 11
16.6718652839
 21
6.5184215064
 31
0.0
  0
LINE
  5
1C7
102
{ACAD_REACTORS
330
2B3
102
}
100
AcDbEntity
  8
Z_TATTOOMYSTIQUE
370
        25
  6
Continuous
 62
         4
100
AcDbLine
 10
16.6718652839
 20
6.5184215064
 30
0.0
 11
16.6529714447
 21
6.5415481313
 31
0.0
  0
LINE
  5
1C8
102
{ACAD_REACTORS
330
2B3
102
}
100
AcDbEntity
  8
Z_TATTOOMYSTIQUE
370
        25
  6
Continuous
 62
         4
100
AcDbLine
 10
16.6529714447
 20
6.5415481313
 30
0.0
 11
16.6326423605
 21
6.5592023241
 31
0.0
  0
LINE
  5
1C9
102
{ACAD_REACTORS
330
2B3
102
}
100
AcDbEntity
  8
Z_TATTOOMYSTIQUE
370
        25
  6
Continuous
 62
         4
100
AcDbLine
 10
16.6326423605
 20
6.5592023241
 30
0.0
 11
16.6125258182
 21
6.5699530856
 31
0.0
  0
LINE
  5
1CA
102
{ACAD_REACTORS
330
2B3
102
}
100
AcDbEntity
  8
Z_TATTOOMYSTIQUE
370
        25
  6
Continuous
 62
         4
100
AcDbLine
 10
16.6125258182
 20
6.5699530856
 30
0.0
 11
16.5942504809
 21
6.572930415
 31
0.0
  0
LINE
  5
1CB
102
{ACAD_REACTORS
330
2B3
102
}
100
AcDbEntity
  8
Z_TATTOOMYSTIQUE
370
        25
  6
Continuous
 62
         4
100
AcDbLine
 10
16.8186965413
 20
5.5283656979
 30
0.0
 11
16.803256902
 21
5.5732389361
 31
0.0
  0
LINE
  5
1CC
102
{ACAD_REACTORS
330
2B3
102
}
100
AcDbEntity
  8
Z_TATTOOMYSTIQUE
370
        25
  6
Continuous
 62
         4
100
AcDbLine
 10
16.803256902
 20
5.5732389361
 30
0.0
 11
16.7962888614
 21
5.6199695175
 31
0.0
  0
LINE
  5
1CD
102
{ACAD_REACTORS
330
2B3
102
}
100
AcDbEntity
  8
Z_TATTOOMYSTIQUE
370
        25
  6
Continuous
 62
         4
100
AcDbLine
 10
16.7962888614
 20
5.6199695175
 30
0.0
 11
16.7980444877
 21
5.6668671762
 31
0.0
  0
LINE
  5
1CE
102
{ACAD_REACTORS
330
2B3
102
}
100
AcDbEntity
  8
Z_TATTOOMYSTIQUE
370
        25
  6
Continuous
 62
         4
100
AcDbLine
 10
16.7980444877
 20
5.6668671762
 30
0.0
 11
16.8084590369
 21
5.7122374315
 31
0.0
  0
LINE
  5
1CF
102
{ACAD_REACTORS
330
2B3
102
}
100
AcDbEntity
  8
Z_TATTOOMYSTIQUE
370
        25
  6
Continuous
 62
         4
100
AcDbLine
 10
16.8084590369
 20
5.7122374315
 30
0.0
 11
16.8271587209
 21
5.7544410825
 31
0.0
  0
LINE
  5
1D0
102
{ACAD_REACTORS
330
2B3
102
}
100
AcDbEntity
  8
Z_TATTOOMYSTIQUE
370
        25
  6
Continuous
 62
         4
100
AcDbLine
 10
16.5942504809
 20
6.572930415
 30
0.0
 11
16.5795988189
 21
6.5681008388
 31
0.0
  0
LINE
  5
1D1
102
{ACAD_REACTORS
330
2B3
102
}
100
AcDbEntity
  8
Z_TATTOOMYSTIQUE
370
        25
  6
Continuous
 62
         4
100
AcDbLine
 10
16.3044947151
 20
5.9285876686
 30
0.0
 11
16.3239605143
 21
5.9395697068
 31
0.0
  0
LINE
  5
1D2
102
{ACAD_REACTORS
330
2B3
102
}
100
AcDbEntity
  8
Z_TATTOOMYSTIQUE
370
        25
  6
Continuous
 62
         4
100
AcDbLine
 10
15.6097186529
 20
5.6801361551
 30
0.0
 11
16.346768197
 21
4.3737066815
 31
0.0
  0
LINE
  5
1D3
102
{ACAD_REACTORS
330
2B3
102
}
100
AcDbEntity
  8
Z_TATTOOMYSTIQUE
370
        25
  6
Continuous
 62
         4
100
AcDbLine
 10
15.6404789703
 20
5.6974902323
 30
0.0
 11
15.6097186529
 21
5.6801361551
 31
0.0
  0
LINE
  5
1D4
102
{ACAD_REACTORS
330
2B3
102
}
100
AcDbEntity
  8
Z_TATTOOMYSTIQUE
370
        25
  6
Continuous
 62
         4
100
AcDbLine
 10
15.6404789703
 20
5.6974902323
 30
0.0
 11
16.1679725151
 21
5.9950867613
 31
0.0
  0
LINE
  5
1D5
102
{ACAD_REACTORS
330
2B3
102
}
100
AcDbEntity
  8
Z_TATTOOMYSTIQUE
370
        25
  6
Continuous
 62
         4
100
AcDbLine
 10
16.7036949958
 20
6.3969109859
 30
0.0
 11
16.7069621495
 21
6.4119455167
 31
0.0
  0
LINE
  5
1D6
102
{ACAD_REACTORS
330
2B3
102
}
100
AcDbEntity
  8
Z_TATTOOMYSTIQUE
370
        25
  6
Continuous
 62
         4
100
AcDbLine
 10
16.7069621495
 20
6.4119455167
 30
0.0
 11
16.7062158231
 21
6.436241065
 31
0.0
  0
LINE
  5
1D7
102
{ACAD_REACTORS
330
2B3
102
}
100
AcDbEntity
  8
Z_TATTOOMYSTIQUE
370
        25
  6
Continuous
 62
         4
100
AcDbLine
 10
16.7062158231
 20
6.436241065
 30
0.0
 11
16.6997336317
 21
6.4636028971
 31
0.0
  0
LINE
  5
1D8
102
{ACAD_REACTORS
330
2B3
102
}
100
AcDbEntity
  8
Z_TATTOOMYSTIQUE
370
        25
  6
Continuous
 62
         4
100
AcDbLine
 10
16.6997336317
 20
6.4636028971
 30
0.0
 11
16.6880407341
 21
6.4918139532
 31
0.0
  0
LINE
  5
1D9
102
{ACAD_REACTORS
330
2B3
102
}
100
AcDbEntity
  8
Z_TATTOOMYSTIQUE
370
        25
  6
Continuous
 62
         4
100
AcDbLine
 10
16.6880407341
 20
6.4918139532
 30
0.0
 11
16.6720826402
 21
6.5185877629
 31
0.0
  0
LINE
  5
1DA
102
{ACAD_REACTORS
330
2B3
102
}
100
AcDbEntity
  8
Z_TATTOOMYSTIQUE
370
        25
  6
Continuous
 62
         4
100
AcDbLine
 10
16.6720826402
 20
6.5185877629
 30
0.0
 11
16.6531544287
 21
6.541756997
 31
0.0
  0
LINE
  5
1DB
102
{ACAD_REACTORS
330
2B3
102
}
100
AcDbEntity
  8
Z_TATTOOMYSTIQUE
370
        25
  6
Continuous
 62
         4
100
AcDbLine
 10
16.6531544287
 20
6.541756997
 30
0.0
 11
16.6327879355
 21
6.5594429004
 31
0.0
  0
LINE
  5
1DC
102
{ACAD_REACTORS
330
2B3
102
}
100
AcDbEntity
  8
Z_TATTOOMYSTIQUE
370
        25
  6
Continuous
 62
         4
100
AcDbLine
 10
16.6327879355
 20
6.5594429004
 30
0.0
 11
16.6126345429
 21
6.5702142061
 31
0.0
  0
LINE
  5
1DD
102
{ACAD_REACTORS
330
2B3
102
}
100
AcDbEntity
  8
Z_TATTOOMYSTIQUE
370
        25
  6
Continuous
 62
         4
100
AcDbLine
 10
16.6126345429
 20
6.5702142061
 30
0.0
 11
16.5943253712
 21
6.5731965587
 31
0.0
  0
LINE
  5
1DE
102
{ACAD_REACTORS
330
2B3
102
}
100
AcDbEntity
  8
Z_TATTOOMYSTIQUE
370
        25
  6
Continuous
 62
         4
100
AcDbLine
 10
16.5943253712
 20
6.5731965587
 30
0.0
 11
16.5794381956
 21
6.5682145936
 31
0.0
  0
LINE
  5
1DF
102
{ACAD_REACTORS
330
2B3
102
}
100
AcDbEntity
  8
Z_TATTOOMYSTIQUE
370
        25
  6
Continuous
 62
         4
100
AcDbLine
 10
16.6327930354
 20
6.5592873305
 30
0.0
 11
16.612676493
 21
6.5700380919
 31
0.0
  0
LINE
  5
1E0
102
{ACAD_REACTORS
330
2B3
102
}
100
AcDbEntity
  8
Z_TATTOOMYSTIQUE
370
        25
  6
Continuous
 62
         4
100
AcDbLine
 10
16.612676493
 20
6.5700380919
 30
0.0
 11
16.5944011557
 21
6.5730154214
 31
0.0
  0
LINE
  5
1E1
102
{ACAD_REACTORS
330
2B3
102
}
100
AcDbEntity
  8
Z_TATTOOMYSTIQUE
370
        25
  6
Continuous
 62
         4
100
AcDbLine
 10
16.5944011557
 20
6.5730154214
 30
0.0
 11
16.5816539722
 21
6.5693647798
 31
0.0
  0
LINE
  5
1E2
102
{ACAD_REACTORS
330
2B3
102
}
100
AcDbEntity
  8
Z_TATTOOMYSTIQUE
370
        25
  6
Continuous
 62
         4
100
AcDbLine
 10
16.9029537899
 20
5.4892317574
 30
0.0
 11
16.8788980693
 21
5.5148265123
 31
0.0
  0
LINE
  5
1E3
102
{ACAD_REACTORS
330
2B3
102
}
100
AcDbEntity
  8
Z_TATTOOMYSTIQUE
370
        25
  6
Continuous
 62
         4
100
AcDbLine
 10
16.7060869593
 20
6.4363107366
 30
0.0
 11
16.6996171429
 21
6.4636221419
 31
0.0
  0
LINE
  5
1E4
102
{ACAD_REACTORS
330
2B3
102
}
100
AcDbEntity
  8
Z_TATTOOMYSTIQUE
370
        25
  6
Continuous
 62
         4
100
AcDbLine
 10
16.6996171429
 20
6.4636221419
 30
0.0
 11
16.6879443029
 21
6.4917813646
 31
0.0
  0
LINE
  5
1E5
102
{ACAD_REACTORS
330
2B3
102
}
100
AcDbEntity
  8
Z_TATTOOMYSTIQUE
370
        25
  6
Continuous
 62
         4
100
AcDbLine
 10
16.6879443029
 20
6.4917813646
 30
0.0
 11
16.6720159587
 21
6.5185065128
 31
0.0
  0
LINE
  5
1E6
102
{ACAD_REACTORS
330
2B3
102
}
100
AcDbEntity
  8
Z_TATTOOMYSTIQUE
370
        25
  6
Continuous
 62
         4
100
AcDbLine
 10
16.6720159587
 20
6.5185065128
 30
0.0
 11
16.6531221196
 21
6.5416331377
 31
0.0
  0
LINE
  5
1E7
102
{ACAD_REACTORS
330
2B3
102
}
100
AcDbEntity
  8
Z_TATTOOMYSTIQUE
370
        25
  6
Continuous
 62
         4
100
AcDbLine
 10
16.6531221196
 20
6.5416331377
 30
0.0
 11
16.6327930354
 21
6.5592873305
 31
0.0
  0
LINE
  5
1E8
102
{ACAD_REACTORS
330
2B3
102
}
100
AcDbEntity
  8
Z_TATTOOMYSTIQUE
370
        25
  6
Continuous
 62
         4
100
AcDbLine
 10
16.8788980693
 20
5.5148265123
 30
0.0
 11
16.8615926374
 21
5.5455006054
 31
0.0
  0
LINE
  5
1E9
102
{ACAD_REACTORS
330
2B3
102
}
100
AcDbEntity
  8
Z_TATTOOMYSTIQUE
370
        25
  6
Continuous
 62
         4
100
AcDbLine
 10
16.8615926374
 20
5.5455006054
 30
0.0
 11
16.8521253793
 21
5.5793257468
 31
0.0
  0
LINE
  5
1EA
102
{ACAD_REACTORS
330
2B3
102
}
100
AcDbEntity
  8
Z_TATTOOMYSTIQUE
370
        25
  6
Continuous
 62
         4
100
AcDbLine
 10
16.8521253793
 20
5.5793257468
 30
0.0
 11
16.8510929137
 21
5.6141780083
 31
0.0
  0
CIRCLE
  5
1EB
102
{ACAD_REACTORS
330
2B3
102
}
100
AcDbEntity
  8
Z_TATTOOMYSTIQUE
370
        25
  6
Continuous
 62
         4
100
AcDbCircle
 10
13.3570553312
 20
4.6245303974
 30
0.0
 40
0.09375
  0
LINE
  5
1EC
102
{ACAD_REACTORS
330
2B3
102
}
100
AcDbEntity
  8
Z_TATTOOMYSTIQUE
370
        25
  6
Continuous
 62
         4
100
AcDbLine
 10
13.8499681941
 20
5.2614198872
 30
0.0
 11
13.8207973658
 21
5.2449625536
 31
0.0
  0
LINE
  5
1ED
102
{ACAD_REACTORS
330
2B3
102
}
100
AcDbEntity
  8
Z_TATTOOMYSTIQUE
370
        25
  6
Continuous
 62
         4
100
AcDbLine
 10
14.1329740259
 20
5.3866385252
 30
0.0
 11
14.1994814458
 21
5.2687532971
 31
0.0
  0
LINE
  5
1EE
102
{ACAD_REACTORS
330
2B3
102
}
100
AcDbEntity
  8
Z_TATTOOMYSTIQUE
370
        25
  6
Continuous
 62
         4
100
AcDbLine
 10
14.4686556002
 20
4.8928605895
 30
0.0
 11
14.4198285248
 21
4.9794071873
 31
0.0
  0
LINE
  5
1EF
102
{ACAD_REACTORS
330
2B3
102
}
100
AcDbEntity
  8
Z_TATTOOMYSTIQUE
370
        25
  6
Continuous
 62
         4
100
AcDbLine
 10
13.8057452214
 20
5.3398056556
 30
0.0
 11
13.8499681941
 21
5.2614198872
 31
0.0
  0
LINE
  5
1F0
102
{ACAD_REACTORS
330
2B3
102
}
100
AcDbEntity
  8
Z_TATTOOMYSTIQUE
370
        25
  6
Continuous
 62
         4
100
AcDbLine
 10
13.7765743932
 20
5.323348322
 30
0.0
 11
13.8057452214
 21
5.3398056556
 31
0.0
  0
LINE
  5
1F1
102
{ACAD_REACTORS
330
2B3
102
}
100
AcDbEntity
  8
Z_TATTOOMYSTIQUE
370
        25
  6
Continuous
 62
         4
100
AcDbLine
 10
14.4072348049
 20
5.0017297123
 30
0.0
 11
14.4638467488
 21
5.0336685259
 31
0.0
  0
ARC
  5
1F2
102
{ACAD_REACTORS
330
2B3
102
}
100
AcDbEntity
  8
Z_TATTOOMYSTIQUE
370
        25
  6
Continuous
 62
         4
100
AcDbCircle
 10
14.7010684926
 20
5.3827847605
 30
0.0
 40
0.2499989597
100
AcDbArc
 50
119.4301898346
 51
-150.5693333172
  0
LINE
  5
1F3
102
{ACAD_REACTORS
330
2B3
102
}
100
AcDbEntity
  8
Z_TATTOOMYSTIQUE
370
        25
  6
Continuous
 62
         4
100
AcDbLine
 10
13.7765743932
 20
5.323348322
 30
0.0
 11
13.8207973658
 21
5.2449625536
 31
0.0
  0
LINE
  5
1F4
102
{ACAD_REACTORS
330
2B3
102
}
100
AcDbEntity
  8
Z_TATTOOMYSTIQUE
370
        25
  6
Continuous
 62
         4
100
AcDbLine
 10
14.2023120219
 20
4.2460147933
 30
0.0
 11
14.1635546142
 21
4.2241489902
 31
0.0
  0
ELLIPSE
  5
1F5
102
{ACAD_REACTORS
330
2B3
102
}
100
AcDbEntity
  8
Z_TATTOOMYSTIQUE
370
        25
  6
Continuous
 62
         4
100
AcDbEllipse
 10
15.3083151988
 20
3.2460503327
 30
0.0
 11
0.0157063846674248
 21
-0.0234313720584964
 31
0.0
210
0.0
220
0.0
230
1.0
 40
1.0
 41
0.0
 42
1.5604413450726238
  0
LINE
  5
1F6
102
{ACAD_REACTORS
330
2B3
102
}
100
AcDbEntity
  8
Z_TATTOOMYSTIQUE
370
        25
  6
Continuous
 62
         4
100
AcDbLine
 10
15.2654005311
 20
3.3793984762
 30
0.0
 11
15.331907951
 21
3.2615132482
 31
0.0
  0
LINE
  5
1F7
102
{ACAD_REACTORS
330
2B3
102
}
100
AcDbEntity
  8
Z_TATTOOMYSTIQUE
370
        25
  6
Continuous
 62
         4
100
AcDbLine
 10
15.6323789063
 20
3.4712160956
 30
0.0
 11
15.713279116
 21
3.5168576429
 31
0.0
  0
ELLIPSE
  5
1F8
102
{ACAD_REACTORS
330
2B3
102
}
100
AcDbEntity
  8
Z_TATTOOMYSTIQUE
370
        25
  6
Continuous
 62
         4
100
AcDbEllipse
 10
15.99471424
 20
3.9598066437
 30
0.0
 11
0.0515934680898908
 21
-0.0914500631517967
 31
0.0
210
0.0
220
0.0
230
1.0
 40
1.0
 41
0.0
 42
3.1415926535891812
  0
LINE
  5
1F9
102
{ACAD_REACTORS
330
2B3
102
}
100
AcDbEntity
  8
Z_TATTOOMYSTIQUE
370
        25
  6
Continuous
 62
         4
100
AcDbLine
 10
15.9431207719
 20
4.0512567068
 30
0.0
 11
15.8538472203
 21
4.0008911633
 31
0.0
  0
LINE
  5
1FA
102
{ACAD_REACTORS
330
2B3
102
}
100
AcDbEntity
  8
Z_TATTOOMYSTIQUE
370
        25
  6
Continuous
 62
         4
100
AcDbLine
 10
15.9570341564
 20
3.817991037
 30
0.0
 11
16.0463077081
 21
3.8683565805
 31
0.0
  0
ELLIPSE
  5
1FB
102
{ACAD_REACTORS
330
2B3
102
}
100
AcDbEntity
  8
Z_TATTOOMYSTIQUE
370
        25
  6
Continuous
 62
         4
100
AcDbEllipse
 10
16.221161107
 20
4.0875621511
 30
0.0
 11
0.1228424990633243
 21
-0.2177384987020332
 31
0.0
210
0.0
220
0.0
230
1.0
 40
1.0
 41
0.0
 42
1.5707909925338952
  0
CIRCLE
  5
1FC
102
{ACAD_REACTORS
330
2B3
102
}
100
AcDbEntity
  8
Z_TATTOOMYSTIQUE
370
        25
  6
Continuous
 62
         4
100
AcDbCircle
 10
15.942457061
 20
3.9303246619
 30
0.0
 40
0.068
  0
CIRCLE
  5
1FD
102
{ACAD_REACTORS
330
2B3
102
}
100
AcDbEntity
  8
Z_TATTOOMYSTIQUE
370
        25
  6
Continuous
 62
         4
100
AcDbCircle
 10
15.942457061
 20
3.9303246619
 30
0.0
 40
0.082
  0
ELLIPSE
  5
1FE
102
{ACAD_REACTORS
330
2B3
102
}
100
AcDbEntity
  8
Z_TATTOOMYSTIQUE
370
        25
  6
Continuous
 62
         4
100
AcDbEllipse
 10
15.9424569392
 20
3.9303244923
 30
0.0
 11
-0.0068906886568611
 21
-0.1057757020333435
 31
0.0
210
0.0
220
0.0
230
1.0
 40
1.0
 41
4.7123889803846897
 42
6.7244269763254625
  0
LINE
  5
1FF
102
{ACAD_REACTORS
330
2B3
102
}
100
AcDbEntity
  8
Z_TATTOOMYSTIQUE
370
        25
  6
Continuous
 62
         4
100
AcDbLine
 10
16.373491089
 20
3.8893300524
 30
0.0
 11
16.9483052512
 21
4.2136234986
 31
0.0
  0
LINE
  5
200
102
{ACAD_REACTORS
330
2B3
102
}
100
AcDbEntity
  8
Z_TATTOOMYSTIQUE
370
        25
  6
Continuous
 62
         4
100
AcDbLine
 10
15.6097186529
 20
5.6801361551
 30
0.0
 11
15.5175874599
 21
5.8434398393
 31
0.0
  0
LINE
  5
201
102
{ACAD_REACTORS
330
2B3
102
}
100
AcDbEntity
  8
Z_TATTOOMYSTIQUE
370
        25
  6
Continuous
 62
         4
100
AcDbLine
 10
15.7297433956
 20
5.966002472
 30
0.0
 11
15.80344835
 21
5.8353595247
 31
0.0
  0
ELLIPSE
  5
202
102
{ACAD_REACTORS
330
2B3
102
}
100
AcDbEntity
  8
Z_TATTOOMYSTIQUE
370
        25
  6
Continuous
 62
         4
100
AcDbEllipse
 10
15.947480224
 20
6.0888444576
 30
0.0
 11
-0.12284017344615
 21
0.2177378507091135
 31
0.0
210
0.0
220
0.0
230
1.0
 40
1.0
 41
0.0
 42
1.5708046493651326
  0
LINE
  5
203
102
{ACAD_REACTORS
330
2B3
102
}
100
AcDbEntity
  8
Z_TATTOOMYSTIQUE
370
        25
  6
Continuous
 62
         4
100
AcDbLine
 10
16.3775285145
 20
4.3910607587
 30
0.0
 11
15.6404789703
 21
5.6974902323
 31
0.0
  0
LINE
  5
204
102
{ACAD_REACTORS
330
2B3
102
}
100
AcDbEntity
  8
Z_TATTOOMYSTIQUE
370
        25
  6
Continuous
 62
         4
100
AcDbLine
 10
14.3193984773
 20
4.1656250872
 30
0.0
 11
14.296559304
 21
4.1629689145
 31
0.0
  0
LINE
  5
205
102
{ACAD_REACTORS
330
2B3
102
}
100
AcDbEntity
  8
Z_TATTOOMYSTIQUE
370
        25
  6
Continuous
 62
         4
100
AcDbLine
 10
14.296559304
 20
4.1629689145
 30
0.0
 11
14.2769123466
 21
4.1518846721
 31
0.0
  0
LINE
  5
206
102
{ACAD_REACTORS
330
2B3
102
}
100
AcDbEntity
  8
Z_TATTOOMYSTIQUE
370
        25
  6
Continuous
 62
         4
100
AcDbLine
 10
14.4364137496
 20
4.1176918094
 30
0.0
 11
14.42296962
 21
4.1494811338
 31
0.0
  0
LINE
  5
207
102
{ACAD_REACTORS
330
2B3
102
}
100
AcDbEntity
  8
Z_TATTOOMYSTIQUE
370
        25
  6
Continuous
 62
         4
100
AcDbLine
 10
14.42296962
 20
4.1494811338
 30
0.0
 11
14.4027124049
 21
4.1774278616
 31
0.0
  0
LINE
  5
208
102
{ACAD_REACTORS
330
2B3
102
}
100
AcDbEntity
  8
Z_TATTOOMYSTIQUE
370
        25
  6
Continuous
 62
         4
100
AcDbLine
 10
14.4027124049
 20
4.1774278616
 30
0.0
 11
14.3770265673
 21
4.1996275025
 31
0.0
  0
LINE
  5
209
102
{ACAD_REACTORS
330
2B3
102
}
100
AcDbEntity
  8
Z_TATTOOMYSTIQUE
370
        25
  6
Continuous
 62
         4
100
AcDbLine
 10
14.3770265673
 20
4.1996275025
 30
0.0
 11
14.347659793
 21
4.2145676372
 31
0.0
  0
LINE
  5
20A
102
{ACAD_REACTORS
330
2B3
102
}
100
AcDbEntity
  8
Z_TATTOOMYSTIQUE
370
        25
  6
Continuous
 62
         4
100
AcDbLine
 10
14.347659793
 20
4.2145676372
 30
0.0
 11
14.3166148939
 21
4.2212299726
 31
0.0
  0
LINE
  5
20B
102
{ACAD_REACTORS
330
2B3
102
}
100
AcDbEntity
  8
Z_TATTOOMYSTIQUE
370
        25
  6
Continuous
 62
         4
100
AcDbLine
 10
14.0872467903
 20
4.1120727933
 30
0.0
 11
14.0979357537
 21
4.1490440165
 31
0.0
  0
LINE
  5
20C
102
{ACAD_REACTORS
330
2B3
102
}
100
AcDbEntity
  8
Z_TATTOOMYSTIQUE
370
        25
  6
Continuous
 62
         4
100
AcDbLine
 10
14.0979357537
 20
4.1490440165
 30
0.0
 11
14.1160940739
 21
4.181675385
 31
0.0
  0
LINE
  5
20D
102
{ACAD_REACTORS
330
2B3
102
}
100
AcDbEntity
  8
Z_TATTOOMYSTIQUE
370
        25
  6
Continuous
 62
         4
100
AcDbLine
 10
14.1160940739
 20
4.181675385
 30
0.0
 11
14.1408747699
 21
4.2084419281
 31
0.0
  0
LINE
  5
20E
102
{ACAD_REACTORS
330
2B3
102
}
100
AcDbEntity
  8
Z_TATTOOMYSTIQUE
370
        25
  6
Continuous
 62
         4
100
AcDbLine
 10
14.3887912901
 20
4.1007470661
 30
0.0
 11
14.3795987743
 21
4.1250125631
 31
0.0
  0
LINE
  5
20F
102
{ACAD_REACTORS
330
2B3
102
}
100
AcDbEntity
  8
Z_TATTOOMYSTIQUE
370
        25
  6
Continuous
 62
         4
100
AcDbLine
 10
14.1408747699
 20
4.2084419281
 30
0.0
 11
14.1631191377
 21
4.223903307
 31
0.0
  0
LINE
  5
210
102
{ACAD_REACTORS
330
2B3
102
}
100
AcDbEntity
  8
Z_TATTOOMYSTIQUE
370
        25
  6
Continuous
 62
         4
100
AcDbLine
 10
14.4764404686
 20
5.0113460009
 30
0.0
 11
14.3729439716
 21
5.1947948276
 31
0.0
  0
LINE
  5
211
102
{ACAD_REACTORS
330
2B3
102
}
100
AcDbEntity
  8
Z_TATTOOMYSTIQUE
370
        25
  6
Continuous
 62
         4
100
AcDbLine
 10
14.4764404686
 20
5.0113460009
 30
0.0
 11
14.5252675441
 21
4.9247994031
 31
0.0
  0
LINE
  5
212
102
{ACAD_REACTORS
330
2B3
102
}
100
AcDbEntity
  8
Z_TATTOOMYSTIQUE
370
        25
  6
Continuous
 62
         4
100
AcDbLine
 10
14.4764404686
 20
5.0113460009
 30
0.0
 11
14.5880557062
 21
5.0743160744
 31
0.0
  0
LINE
  5
213
102
{ACAD_REACTORS
330
2B3
102
}
100
AcDbEntity
  8
Z_TATTOOMYSTIQUE
370
        25
  6
Continuous
 62
         4
100
AcDbLine
 10
14.5024720917
 20
4.9119388712
 30
0.0
 11
14.4729901099
 21
4.9641960502
 31
0.0
  0
LINE
  5
214
102
{ACAD_REACTORS
330
2B3
102
}
100
AcDbEntity
  8
Z_TATTOOMYSTIQUE
370
        25
  6
Continuous
 62
         4
100
AcDbLine
 10
14.4729901099
 20
4.9641960502
 30
0.0
 11
14.4391736185
 21
4.9451177684
 31
0.0
  0
LINE
  5
215
102
{ACAD_REACTORS
330
2B3
102
}
100
AcDbEntity
  8
Z_TATTOOMYSTIQUE
370
        25
  6
Continuous
 62
         4
100
AcDbLine
 10
14.5024720917
 20
4.9119388712
 30
0.0
 11
14.4686556002
 21
4.8928605895
 31
0.0
  0
ELLIPSE
  5
216
102
{ACAD_REACTORS
330
2B3
102
}
100
AcDbEntity
  8
Z_TATTOOMYSTIQUE
370
        25
  6
Continuous
 62
         4
100
AcDbEllipse
 10
14.0985935291
 20
5.040013515
 30
0.0
 11
0.2177384987018058
 21
0.1228424990631538
 31
0.0
210
0.0
220
0.0
230
1.0
 40
1.0
 41
0.0
 42
1.5707909925352206
  0
LINE
  5
217
102
{ACAD_REACTORS
330
2B3
102
}
100
AcDbEntity
  8
Z_TATTOOMYSTIQUE
370
        25
  6
Continuous
 62
         4
100
AcDbLine
 10
14.3163320278
 20
5.162856014
 30
0.0
 11
14.4198285248
 21
4.9794071873
 31
0.0
  0
ARC
  5
218
102
{ACAD_REACTORS
330
2B3
102
}
100
AcDbEntity
  8
Z_TATTOOMYSTIQUE
370
        25
  6
Continuous
 62
         4
100
AcDbCircle
 10
14.5906808
 20
5.3176368132
 30
0.0
 40
0.2499989597
100
AcDbArc
 50
119.4301898346
 51
-150.5693333172
  0
LINE
  5
219
102
{ACAD_REACTORS
330
2B3
102
}
100
AcDbEntity
  8
Z_TATTOOMYSTIQUE
370
        25
  6
Continuous
 62
         4
100
AcDbLine
 10
14.4678406266
 20
5.5353746639
 30
0.0
 11
14.5487408362
 21
5.5810162112
 31
0.0
  0
ELLIPSE
  5
21A
102
{ACAD_REACTORS
330
2B3
102
}
100
AcDbEntity
  8
Z_TATTOOMYSTIQUE
370
        25
  6
Continuous
 62
         4
100
AcDbEllipse
 10
14.1075396206
 20
5.3744434443
 30
0.0
 11
-0.0121950809605464
 21
0.025434405271606
 31
0.0
210
0.0
220
0.0
230
1.0
 40
1.0
 41
4.7123889803846897
 42
6.2729432044905753
  0
LINE
  5
21B
102
{ACAD_REACTORS
330
2B3
102
}
100
AcDbEntity
  8
Z_TATTOOMYSTIQUE
370
        25
  6
Continuous
 62
         4
100
AcDbLine
 10
14.4729901099
 20
4.9641960502
 30
0.0
 11
14.4957855623
 21
4.977056582
 31
0.0
  0
LINE
  5
21C
102
{ACAD_REACTORS
330
2B3
102
}
100
AcDbEntity
  8
Z_TATTOOMYSTIQUE
370
        25
  6
Continuous
 62
         4
100
AcDbLine
 10
14.5252675441
 20
4.9247994031
 30
0.0
 11
14.5024720917
 21
4.9119388712
 31
0.0
  0
SPLINE
  5
21D
102
{ACAD_REACTORS
330
2B3
102
}
100
AcDbEntity
  8
Z_TATTOOMYSTIQUE
370
        25
  6
Continuous
 62
         4
100
AcDbSpline
210
0.0
220
0.0
230
1.0
 70
         0
 71
         3
 72
        23
 73
        19
 74
         0
 42
0.000001
 43
0.000001
 40
0.0
 40
0.0
 40
0.0
 40
0.0
 40
0.060458
 40
0.122957
 40
0.185468
 40
0.248373
 40
0.311897
 40
0.376093
 40
0.440885
 40
0.5061520000000001
 40
0.571783
 40
0.637665
 40
0.703659
 40
0.76955
 40
0.835043
 40
0.89984
 40
0.963781
 40
1.0
 40
1.0
 40
1.0
 40
1.0
 10
14.390573740982008
 20
3.9103485406371865
 30
0.0
 10
14.400145390925845
 20
3.9164041910855749
 30
0.0
 10
14.419612438478284
 20
3.9287211043592825
 30
0.0
 10
14.443034927607359
 20
3.9549441310341527
 30
0.0
 10
14.461129698249069
 20
3.9856692817324975
 30
0.0
 10
14.472648791204451
 20
4.0201006407310151
 30
0.0
 10
14.477287011804096
 20
4.0568478202371798
 30
0.0
 10
14.474784785627948
 20
4.0946288381451259
 30
0.0
 10
14.465151546242796
 20
4.1319759175617028
 30
0.0
 10
14.448663807017228
 20
4.1673813644340489
 30
0.0
 10
14.425882354298723
 20
4.1993566386477132
 30
0.0
 10
14.397647084583186
 20
4.2265086648721981
 30
0.0
 10
14.365043368043247
 20
4.2476035239087642
 30
0.0
 10
14.329435188988045
 20
4.261593186748768
 30
0.0
 10
14.292330353131037
 20
4.2678931040520629
 30
0.0
 10
14.255667694712601
 20
4.2658059682905778
 30
0.0
 10
14.225252399424734
 20
4.2582968912795414
 30
0.0
 10
14.209069038042061
 20
4.2488394813085497
 30
0.0
 10
14.203217200415738
 20
4.2454197833110348
 30
0.0
  0
LINE
  5
21E
102
{ACAD_REACTORS
330
2B3
102
}
100
AcDbEntity
  8
Z_TATTOOMYSTIQUE
370
        25
  6
Continuous
 62
         4
100
AcDbLine
 10
14.6270036231
 20
4.5500233594
 30
0.0
 11
14.8713090132
 21
4.1169890204
 31
0.0
  0
LINE
  5
21F
102
{ACAD_REACTORS
330
2B3
102
}
100
AcDbEntity
  8
Z_TATTOOMYSTIQUE
370
        25
  6
Continuous
 62
         4
100
AcDbLine
 10
14.5747929442
 20
4.5174652628
 30
0.0
 11
14.8164429905
 21
4.0891375537
 31
0.0
  0
LINE
  5
220
102
{ACAD_REACTORS
330
2B3
102
}
100
AcDbEntity
  8
Z_TATTOOMYSTIQUE
370
        25
  6
Continuous
 62
         4
100
AcDbLine
 10
14.2039246621
 20
4.1019684379
 30
0.0
 11
14.2096421606
 21
4.0685032404
 31
0.0
  0
LINE
  5
221
102
{ACAD_REACTORS
330
2B3
102
}
100
AcDbEntity
  8
Z_TATTOOMYSTIQUE
370
        25
  6
Continuous
 62
         4
100
AcDbLine
 10
14.2096421606
 20
4.0685032404
 30
0.0
 11
14.2230876525
 21
4.0367135363
 31
0.0
  0
LINE
  5
222
102
{ACAD_REACTORS
330
2B3
102
}
100
AcDbEntity
  8
Z_TATTOOMYSTIQUE
370
        25
  6
Continuous
 62
         4
100
AcDbLine
 10
14.2560052187
 20
4.1106366827
 30
0.0
 11
14.257265491
 21
4.085448475
 31
0.0
  0
LINE
  5
223
102
{ACAD_REACTORS
330
2B3
102
}
100
AcDbEntity
  8
Z_TATTOOMYSTIQUE
370
        25
  6
Continuous
 62
         4
100
AcDbLine
 10
14.257265491
 20
4.085448475
 30
0.0
 11
14.2664584981
 21
4.0611821071
 31
0.0
  0
LINE
  5
224
102
{ACAD_REACTORS
330
2B3
102
}
100
AcDbEntity
  8
Z_TATTOOMYSTIQUE
370
        25
  6
Continuous
 62
         4
100
AcDbLine
 10
14.0845289786
 20
4.0724915048
 30
0.0
 11
14.0872467903
 21
4.1120727933
 31
0.0
  0
LINE
  5
225
102
{ACAD_REACTORS
330
2B3
102
}
100
AcDbEntity
  8
Z_TATTOOMYSTIQUE
370
        25
  6
Continuous
 62
         4
100
AcDbLine
 10
14.3832289333
 20
4.052484811
 30
0.0
 11
14.3900520538
 21
4.0755579875
 31
0.0
  0
LINE
  5
226
102
{ACAD_REACTORS
330
2B3
102
}
100
AcDbEntity
  8
Z_TATTOOMYSTIQUE
370
        25
  6
Continuous
 62
         4
100
AcDbLine
 10
14.3900520538
 20
4.0755579875
 30
0.0
 11
14.3887912901
 21
4.1007470661
 31
0.0
  0
LINE
  5
227
102
{ACAD_REACTORS
330
2B3
102
}
100
AcDbEntity
  8
Z_TATTOOMYSTIQUE
370
        25
  6
Continuous
 62
         4
100
AcDbLine
 10
14.4397334962
 20
4.0513658545
 30
0.0
 11
14.4421326104
 21
4.0842262323
 31
0.0
  0
LINE
  5
228
102
{ACAD_REACTORS
330
2B3
102
}
100
AcDbEntity
  8
Z_TATTOOMYSTIQUE
370
        25
  6
Continuous
 62
         4
100
AcDbLine
 10
14.4421326104
 20
4.0842262323
 30
0.0
 11
14.4364137496
 21
4.1176918094
 31
0.0
  0
LINE
  5
229
102
{ACAD_REACTORS
330
2B3
102
}
100
AcDbEntity
  8
Z_TATTOOMYSTIQUE
370
        25
  6
Continuous
 62
         4
100
AcDbLine
 10
14.2664584981
 20
4.0611821071
 30
0.0
 11
14.2824740595
 21
4.0407659742
 31
0.0
  0
LINE
  5
22A
102
{ACAD_REACTORS
330
2B3
102
}
100
AcDbEntity
  8
Z_TATTOOMYSTIQUE
370
        25
  6
Continuous
 62
         4
100
AcDbLine
 10
14.5252675441
 20
4.9247994031
 30
0.0
 11
14.6368827817
 21
4.9877694765
 31
0.0
  0
LINE
  5
22B
102
{ACAD_REACTORS
330
2B3
102
}
100
AcDbEntity
  8
Z_TATTOOMYSTIQUE
370
        25
  6
Continuous
 62
         4
100
AcDbLine
 10
14.206322414
 20
4.1348291952
 30
0.0
 11
14.2039246621
 21
4.1019684379
 31
0.0
  0
LINE
  5
22C
102
{ACAD_REACTORS
330
2B3
102
}
100
AcDbEntity
  8
Z_TATTOOMYSTIQUE
370
        25
  6
Continuous
 62
         4
100
AcDbLine
 10
14.2769123466
 20
4.1518846721
 30
0.0
 11
14.2628283392
 21
4.1337098592
 31
0.0
  0
LINE
  5
22D
102
{ACAD_REACTORS
330
2B3
102
}
100
AcDbEntity
  8
Z_TATTOOMYSTIQUE
370
        25
  6
Continuous
 62
         4
100
AcDbLine
 10
14.2628283392
 20
4.1337098592
 30
0.0
 11
14.2560052187
 21
4.1106366827
 31
0.0
  0
LINE
  5
22E
102
{ACAD_REACTORS
330
2B3
102
}
100
AcDbEntity
  8
Z_TATTOOMYSTIQUE
370
        25
  6
Continuous
 62
         4
100
AcDbLine
 10
14.3166148939
 20
4.2212299726
 30
0.0
 11
14.2860075449
 21
4.2191593421
 31
0.0
  0
LINE
  5
22F
102
{ACAD_REACTORS
330
2B3
102
}
100
AcDbEntity
  8
Z_TATTOOMYSTIQUE
370
        25
  6
Continuous
 62
         4
100
AcDbLine
 10
14.2860075449
 20
4.2191593421
 30
0.0
 11
14.2579225932
 21
4.2084986053
 31
0.0
  0
LINE
  5
230
102
{ACAD_REACTORS
330
2B3
102
}
100
AcDbEntity
  8
Z_TATTOOMYSTIQUE
370
        25
  6
Continuous
 62
         4
100
AcDbLine
 10
14.2579225932
 20
4.2084986053
 30
0.0
 11
14.2342746797
 21
4.1899731629
 31
0.0
  0
LINE
  5
231
102
{ACAD_REACTORS
330
2B3
102
}
100
AcDbEntity
  8
Z_TATTOOMYSTIQUE
370
        25
  6
Continuous
 62
         4
100
AcDbLine
 10
14.2342746797
 20
4.1899731629
 30
0.0
 11
14.2166739101
 21
4.1648461738
 31
0.0
  0
LINE
  5
232
102
{ACAD_REACTORS
330
2B3
102
}
100
AcDbEntity
  8
Z_TATTOOMYSTIQUE
370
        25
  6
Continuous
 62
         4
100
AcDbLine
 10
14.2166739101
 20
4.1648461738
 30
0.0
 11
14.206322414
 21
4.1348291952
 31
0.0
  0
LINE
  5
233
102
{ACAD_REACTORS
330
2B3
102
}
100
AcDbEntity
  8
Z_TATTOOMYSTIQUE
370
        25
  6
Continuous
 62
         4
100
AcDbLine
 10
14.3795987743
 20
4.1250125631
 30
0.0
 11
14.3635827216
 21
4.1454295669
 31
0.0
  0
LINE
  5
234
102
{ACAD_REACTORS
330
2B3
102
}
100
AcDbEntity
  8
Z_TATTOOMYSTIQUE
370
        25
  6
Continuous
 62
         4
100
AcDbLine
 10
14.3635827216
 20
4.1454295669
 30
0.0
 11
14.3426754918
 21
4.1595335322
 31
0.0
  0
LINE
  5
235
102
{ACAD_REACTORS
330
2B3
102
}
100
AcDbEntity
  8
Z_TATTOOMYSTIQUE
370
        25
  6
Continuous
 62
         4
100
AcDbLine
 10
14.3426754918
 20
4.1595335322
 30
0.0
 11
14.3193984773
 21
4.1656250872
 31
0.0
  0
LINE
  5
236
102
{ACAD_REACTORS
330
2B3
102
}
100
AcDbEntity
  8
Z_TATTOOMYSTIQUE
370
        25
  6
Continuous
 62
         4
100
AcDbLine
 10
14.1820593052
 20
3.8996177893
 30
0.0
 11
14.150313231
 21
3.9250842007
 31
0.0
  0
LINE
  5
237
102
{ACAD_REACTORS
330
2B3
102
}
100
AcDbEntity
  8
Z_TATTOOMYSTIQUE
370
        25
  6
Continuous
 62
         4
100
AcDbLine
 10
14.150313231
 20
3.9250842007
 30
0.0
 11
14.12358832
 21
3.9566820921
 31
0.0
  0
LINE
  5
238
102
{ACAD_REACTORS
330
2B3
102
}
100
AcDbEntity
  8
Z_TATTOOMYSTIQUE
370
        25
  6
Continuous
 62
         4
100
AcDbLine
 10
14.12358832
 20
3.9566820921
 30
0.0
 11
14.1031347038
 21
3.9929363809
 31
0.0
  0
LINE
  5
239
102
{ACAD_REACTORS
330
2B3
102
}
100
AcDbEntity
  8
Z_TATTOOMYSTIQUE
370
        25
  6
Continuous
 62
         4
100
AcDbLine
 10
14.1031347038
 20
3.9929363809
 30
0.0
 11
14.0899090727
 21
4.0321513218
 31
0.0
  0
LINE
  5
23A
102
{ACAD_REACTORS
330
2B3
102
}
100
AcDbEntity
  8
Z_TATTOOMYSTIQUE
370
        25
  6
Continuous
 62
         4
100
AcDbLine
 10
14.2433435053
 20
4.0087671882
 30
0.0
 11
14.2690307051
 21
3.9865671677
 31
0.0
  0
LINE
  5
23B
102
{ACAD_REACTORS
330
2B3
102
}
100
AcDbEntity
  8
Z_TATTOOMYSTIQUE
370
        25
  6
Continuous
 62
         4
100
AcDbLine
 10
14.2690307051
 20
3.9865671677
 30
0.0
 11
14.2983961171
 21
3.9716274125
 31
0.0
  0
LINE
  5
23C
102
{ACAD_REACTORS
330
2B3
102
}
100
AcDbEntity
  8
Z_TATTOOMYSTIQUE
370
        25
  6
Continuous
 62
         4
100
AcDbLine
 10
14.2983961171
 20
3.9716274125
 30
0.0
 11
14.3294410163
 21
3.9649650772
 31
0.0
  0
LINE
  5
23D
102
{ACAD_REACTORS
330
2B3
102
}
100
AcDbEntity
  8
Z_TATTOOMYSTIQUE
370
        25
  6
Continuous
 62
         4
100
AcDbLine
 10
14.3294410163
 20
3.9649650772
 30
0.0
 11
14.3600497275
 21
3.967035328
 31
0.0
  0
LINE
  5
23E
102
{ACAD_REACTORS
330
2B3
102
}
100
AcDbEntity
  8
Z_TATTOOMYSTIQUE
370
        25
  6
Continuous
 62
         4
100
AcDbLine
 10
14.3600497275
 20
3.967035328
 30
0.0
 11
14.3881346793
 21
3.9776960649
 31
0.0
  0
LINE
  5
23F
102
{ACAD_REACTORS
330
2B3
102
}
100
AcDbEntity
  8
Z_TATTOOMYSTIQUE
370
        25
  6
Continuous
 62
         4
100
AcDbLine
 10
14.3522951874
 20
3.8885864088
 30
0.0
 11
14.3275586094
 21
3.8775425034
 31
0.0
  0
LINE
  5
240
102
{ACAD_REACTORS
330
2B3
102
}
100
AcDbEntity
  8
Z_TATTOOMYSTIQUE
370
        25
  6
Continuous
 62
         4
100
AcDbLine
 10
14.3275586094
 20
3.8775425034
 30
0.0
 11
14.2918342017
 21
3.8701738252
 31
0.0
  0
LINE
  5
241
102
{ACAD_REACTORS
330
2B3
102
}
100
AcDbEntity
  8
Z_TATTOOMYSTIQUE
370
        25
  6
Continuous
 62
         4
100
AcDbLine
 10
14.2918342017
 20
3.8701738252
 30
0.0
 11
14.2545145589
 21
3.8715061391
 31
0.0
  0
LINE
  5
242
102
{ACAD_REACTORS
330
2B3
102
}
100
AcDbEntity
  8
Z_TATTOOMYSTIQUE
370
        25
  6
Continuous
 62
         4
100
AcDbLine
 10
14.2545145589
 20
3.8715061391
 30
0.0
 11
14.217342914
 21
3.8814757979
 31
0.0
  0
LINE
  5
243
102
{ACAD_REACTORS
330
2B3
102
}
100
AcDbEntity
  8
Z_TATTOOMYSTIQUE
370
        25
  6
Continuous
 62
         4
100
AcDbLine
 10
14.0899090727
 20
4.0321513218
 30
0.0
 11
14.0845289786
 21
4.0724915048
 31
0.0
  0
LINE
  5
244
102
{ACAD_REACTORS
330
2B3
102
}
100
AcDbEntity
  8
Z_TATTOOMYSTIQUE
370
        25
  6
Continuous
 62
         4
100
AcDbLine
 10
14.3494974771
 20
4.0232266266
 30
0.0
 11
14.3691444345
 21
4.034310869
 31
0.0
  0
LINE
  5
245
102
{ACAD_REACTORS
330
2B3
102
}
100
AcDbEntity
  8
Z_TATTOOMYSTIQUE
370
        25
  6
Continuous
 62
         4
100
AcDbLine
 10
14.3691444345
 20
4.034310869
 30
0.0
 11
14.3832289333
 21
4.052484811
 31
0.0
  0
LINE
  5
246
102
{ACAD_REACTORS
330
2B3
102
}
100
AcDbEntity
  8
Z_TATTOOMYSTIQUE
370
        25
  6
Continuous
 62
         4
100
AcDbLine
 10
14.3881346793
 20
3.9776960649
 30
0.0
 11
14.4117825928
 21
3.9962215072
 31
0.0
  0
LINE
  5
247
102
{ACAD_REACTORS
330
2B3
102
}
100
AcDbEntity
  8
Z_TATTOOMYSTIQUE
370
        25
  6
Continuous
 62
         4
100
AcDbLine
 10
14.4117825928
 20
3.9962215072
 30
0.0
 11
14.429382
 21
4.021348876
 31
0.0
  0
LINE
  5
248
102
{ACAD_REACTORS
330
2B3
102
}
100
AcDbEntity
  8
Z_TATTOOMYSTIQUE
370
        25
  6
Continuous
 62
         4
100
AcDbLine
 10
14.429382
 20
4.021348876
 30
0.0
 11
14.4397334962
 21
4.0513658545
 31
0.0
  0
LINE
  5
249
102
{ACAD_REACTORS
330
2B3
102
}
100
AcDbEntity
  8
Z_TATTOOMYSTIQUE
370
        25
  6
Continuous
 62
         4
100
AcDbLine
 10
14.2824740595
 20
4.0407659742
 30
0.0
 11
14.3033817806
 21
4.026661138
 31
0.0
  0
LINE
  5
24A
102
{ACAD_REACTORS
330
2B3
102
}
100
AcDbEntity
  8
Z_TATTOOMYSTIQUE
370
        25
  6
Continuous
 62
         4
100
AcDbLine
 10
14.3033817806
 20
4.026661138
 30
0.0
 11
14.3266587952
 21
4.020569583
 31
0.0
  0
LINE
  5
24B
102
{ACAD_REACTORS
330
2B3
102
}
100
AcDbEntity
  8
Z_TATTOOMYSTIQUE
370
        25
  6
Continuous
 62
         4
100
AcDbLine
 10
14.3266587952
 20
4.020569583
 30
0.0
 11
14.3494974771
 21
4.0232266266
 31
0.0
  0
ELLIPSE
  5
24C
102
{ACAD_REACTORS
330
2B3
102
}
100
AcDbEntity
  8
Z_TATTOOMYSTIQUE
370
        25
  6
Continuous
 62
         4
100
AcDbEllipse
 10
14.3143316088
 20
4.0729447701
 30
0.0
 11
0.0765041122097227
 21
-0.1626281337694504
 31
0.0
210
0.0
220
0.0
230
1.0
 40
1.0
 41
4.7123889803846897
 42
6.2821001082844345
  0
ELLIPSE
  5
24D
102
{ACAD_REACTORS
330
2B3
102
}
100
AcDbEntity
  8
Z_TATTOOMYSTIQUE
370
        25
  6
Continuous
 62
         4
100
AcDbEllipse
 10
14.3010966816
 20
4.096047468
 30
0.0
 11
-0.0984711166365742
 21
0.1501442172525458
 31
0.0
210
0.0
220
0.0
230
1.0
 40
1.0
 41
0.0
 42
1.5783792724736816
  0
LINE
  5
24E
102
{ACAD_REACTORS
330
2B3
102
}
100
AcDbEntity
  8
Z_TATTOOMYSTIQUE
370
        25
  6
Continuous
 62
         4
100
AcDbLine
 10
14.3527306639
 20
3.888832092
 30
0.0
 11
14.3914880716
 21
3.9106978951
 31
0.0
  0
LINE
  5
24F
102
{ACAD_REACTORS
330
2B3
102
}
100
AcDbEntity
  8
Z_TATTOOMYSTIQUE
370
        25
  6
Continuous
 62
         4
100
AcDbLine
 10
15.1226070736
 20
3.0056516628
 30
0.0
 11
15.0934362454
 21
2.9891943292
 31
0.0
  0
LINE
  5
250
102
{ACAD_REACTORS
330
2B3
102
}
100
AcDbEntity
  8
Z_TATTOOMYSTIQUE
370
        25
  6
Continuous
 62
         4
100
AcDbLine
 10
15.078384101
 20
3.0840374312
 30
0.0
 11
15.1226070736
 21
3.0056516628
 31
0.0
  0
LINE
  5
251
102
{ACAD_REACTORS
330
2B3
102
}
100
AcDbEntity
  8
Z_TATTOOMYSTIQUE
370
        25
  6
Continuous
 62
         4
100
AcDbLine
 10
15.0492132727
 20
3.0675800976
 30
0.0
 11
15.0934362454
 21
2.9891943292
 31
0.0
  0
CIRCLE
  5
252
102
{ACAD_REACTORS
330
2B3
102
}
100
AcDbEntity
  8
Z_TATTOOMYSTIQUE
370
        25
  6
Continuous
 62
         4
100
AcDbCircle
 10
12.5364612966
 20
2.0087608299
 30
0.0
 40
0.09375
  0
LINE
  5
253
102
{ACAD_REACTORS
330
2B3
102
}
100
AcDbEntity
  8
Z_TATTOOMYSTIQUE
370
        25
  6
Continuous
 62
         4
100
AcDbLine
 10
12.6164172917
 20
1.9598117886
 30
0.0
 11
12.5359118268
 21
2.1025087253
 31
0.0
  0
CIRCLE
  5
254
102
{ACAD_REACTORS
330
2B3
102
}
100
AcDbEntity
  8
Z_TATTOOMYSTIQUE
370
        25
  6
Continuous
 62
         4
100
AcDbCircle
 10
13.3295981139
 20
2.4562255736
 30
0.0
 40
0.1065
  0
ELLIPSE
  5
255
102
{ACAD_REACTORS
330
2B3
102
}
100
AcDbEntity
  8
Z_TATTOOMYSTIQUE
370
        25
  6
Continuous
 62
         4
100
AcDbEllipse
 10
14.2783672614
 20
2.9914935554
 30
0.0
 11
0.0816518420998296
 21
0.0460655965087233
 31
0.0
210
0.0
220
0.0
230
1.0
 40
1.0
 41
4.7123889803846897
 42
10.995574287564276
  0
ELLIPSE
  5
256
102
{ACAD_REACTORS
330
2B3
102
}
100
AcDbEntity
  8
Z_TATTOOMYSTIQUE
370
        25
  6
Continuous
 62
         4
100
AcDbEllipse
 10
13.3295981139
 20
2.4562255736
 30
0.0
 11
0.0520848344524438
 21
-0.0923210161342922
 31
0.0
210
0.0
220
0.0
230
1.0
 40
1.0
 41
0.0
 42
6.2831853071794805
  0
CIRCLE
  5
257
102
{ACAD_REACTORS
330
2B3
102
}
100
AcDbEntity
  8
Z_TATTOOMYSTIQUE
370
        25
  6
Continuous
 62
         4
100
AcDbCircle
 10
13.3295981139
 20
2.4562255736
 30
0.0
 40
0.082
  0
ELLIPSE
  5
258
102
{ACAD_REACTORS
330
2B3
102
}
100
AcDbEntity
  8
Z_TATTOOMYSTIQUE
370
        25
  6
Continuous
 62
         4
100
AcDbEllipse
 10
13.3295981139
 20
2.4562255736
 30
0.0
 11
0.0592248028030761
 21
0.0334129126676604
 31
0.0
210
0.0
220
0.0
230
1.0
 40
1.0
 41
4.7123889803846897
 42
10.995574287564276
  0
LINE
  5
259
102
{ACAD_REACTORS
330
2B3
102
}
100
AcDbEntity
  8
Z_TATTOOMYSTIQUE
370
        25
  6
Continuous
 62
         4
100
AcDbLine
 10
15.1166800451
 20
3.8232476432
 30
0.0
 11
15.0828635537
 21
3.8041693615
 31
0.0
  0
LINE
  5
25A
102
{ACAD_REACTORS
330
2B3
102
}
100
AcDbEntity
  8
Z_TATTOOMYSTIQUE
370
        25
  6
Continuous
 62
         4
100
AcDbLine
 10
15.1394754975
 20
3.8361081751
 30
0.0
 11
15.1166800451
 21
3.8232476432
 31
0.0
  0
LINE
  5
25B
102
{ACAD_REACTORS
330
2B3
102
}
100
AcDbEntity
  8
Z_TATTOOMYSTIQUE
370
        25
  6
Continuous
 62
         4
100
AcDbLine
 10
15.0218088417
 20
5.6842935488
 30
0.0
 11
14.9325352901
 21
5.6339280053
 31
0.0
  0
ELLIPSE
  5
25C
102
{ACAD_REACTORS
330
2B3
102
}
100
AcDbEntity
  8
Z_TATTOOMYSTIQUE
370
        25
  6
Continuous
 62
         4
100
AcDbEllipse
 10
14.9841296291
 20
5.5424784335
 30
0.0
 11
0.0914500631518104
 21
0.0515934680897687
 31
0.0
210
0.0
220
0.0
230
-0.9999999999999999
 40
1.0
 41
4.7123889803846897
 42
7.8539816339753514
  0
LINE
  5
25D
102
{ACAD_REACTORS
330
2B3
102
}
100
AcDbEntity
  8
Z_TATTOOMYSTIQUE
370
        25
  6
Continuous
 62
         4
100
AcDbLine
 10
15.0357222263
 20
5.451027879
 30
0.0
 11
15.1249957779
 21
5.5013934225
 31
0.0
  0
ARC
  5
25E
102
{ACAD_REACTORS
330
2B3
102
}
100
AcDbEntity
  8
Z_TATTOOMYSTIQUE
370
        25
  6
Continuous
 62
         4
100
AcDbCircle
 10
15.0734023098
 20
5.5928434857
 30
0.0
 40
0.105
100
AcDbArc
 50
119.4304282587
 51
-60.5695717413
  0
CIRCLE
  5
25F
102
{ACAD_REACTORS
330
2B3
102
}
100
AcDbEntity
  8
Z_TATTOOMYSTIQUE
370
        25
  6
Continuous
 62
         4
100
AcDbCircle
 10
15.0211451309
 20
5.5633615039
 30
0.0
 40
0.082
  0
ELLIPSE
  5
260
102
{ACAD_REACTORS
330
2B3
102
}
100
AcDbEntity
  8
Z_TATTOOMYSTIQUE
370
        25
  6
Continuous
 62
         4
100
AcDbEllipse
 10
15.0211451309
 20
5.5633615039
 30
0.0
 11
0.0592248028030761
 21
0.0334129126676604
 31
0.0
210
0.0
220
0.0
230
1.0
 40
1.0
 41
4.7123889803846897
 42
10.995574287563874
  0
ELLIPSE
  5
261
102
{ACAD_REACTORS
330
2B3
102
}
100
AcDbEntity
  8
Z_TATTOOMYSTIQUE
370
        25
  6
Continuous
 62
         4
100
AcDbEllipse
 10
15.021145009
 20
5.5633613343
 30
0.0
 11
-0.1057757020335544
 21
0.0068906886566538
 31
0.0
210
0.0
220
0.0
230
1.0
 40
1.0
 41
0.0
 42
2.0120379959345009
  0
CIRCLE
  5
262
102
{ACAD_REACTORS
330
2B3
102
}
100
AcDbEntity
  8
Z_TATTOOMYSTIQUE
370
        25
  6
Continuous
 62
         4
100
AcDbCircle
 10
12.4082861837
 20
4.0892624156
 30
0.0
 40
0.1065
  0
CIRCLE
  5
263
102
{ACAD_REACTORS
330
2B3
102
}
100
AcDbEntity
  8
Z_TATTOOMYSTIQUE
370
        25
  6
Continuous
 62
         4
100
AcDbCircle
 10
12.4082861837
 20
4.0892624156
 30
0.0
 40
0.106
  0
ELLIPSE
  5
264
102
{ACAD_REACTORS
330
2B3
102
}
100
AcDbEntity
  8
Z_TATTOOMYSTIQUE
370
        25
  6
Continuous
 62
         4
100
AcDbEllipse
 10
12.4082861837
 20
4.0892624156
 30
0.0
 11
0.0334129126677567
 21
-0.0592248028031008
 31
0.0
210
0.0
220
0.0
230
1.0
 40
1.0
 41
0.0
 42
6.2831853071795862
  0
CIRCLE
  5
265
102
{ACAD_REACTORS
330
2B3
102
}
100
AcDbEntity
  8
Z_TATTOOMYSTIQUE
370
        25
  6
Continuous
 62
         4
100
AcDbCircle
 10
12.4082861837
 20
4.0892624156
 30
0.0
 40
0.082
  0
LINE
  5
266
102
{ACAD_REACTORS
330
2B3
102
}
100
AcDbEntity
  8
Z_TATTOOMYSTIQUE
370
        25
  6
Continuous
 62
         4
100
AcDbLine
 10
14.2230876525
 20
4.0367135363
 30
0.0
 11
14.2433435053
 21
4.0087671882
 31
0.0
  0
LINE
  5
267
102
{ACAD_REACTORS
330
2B3
102
}
100
AcDbEntity
  8
Z_TATTOOMYSTIQUE
370
        25
  6
Continuous
 62
         4
100
AcDbLine
 10
14.217342914
 20
3.8814757979
 30
0.0
 11
14.1820593052
 21
3.8996177893
 31
0.0
  0
LINE
  5
268
102
{ACAD_REACTORS
330
2B3
102
}
100
AcDbEntity
  8
Z_TATTOOMYSTIQUE
370
        25
  6
Continuous
 62
         4
100
AcDbLine
 10
9.5851050063
 20
2.0924999018
 30
0.0
 11
9.5794263928
 21
2.0892961931
 31
0.0
  0
ELLIPSE
  5
269
102
{ACAD_REACTORS
330
2B3
102
}
100
AcDbEntity
  8
Z_TATTOOMYSTIQUE
370
        25
  6
Continuous
 62
         4
100
AcDbEllipse
 10
9.7735441694
 20
2.2269990685
 30
0.0
 11
0.0458509949212305
 21
-0.2335411726750777
 31
0.0
210
0.0
220
0.0
230
1.0
 40
1.0
 41
4.7123889803846897
 42
5.1355175538951636
  0
LINE
  5
26A
102
{ACAD_REACTORS
330
2B3
102
}
100
AcDbEntity
  8
Z_TATTOOMYSTIQUE
370
        25
  6
Continuous
 62
         4
100
AcDbLine
 10
10.1836929319
 20
1.0401996667
 30
0.0
 11
10.2131749137
 21
0.9879424877
 31
0.0
  0
LINE
  5
26B
102
{ACAD_REACTORS
330
2B3
102
}
100
AcDbEntity
  8
Z_TATTOOMYSTIQUE
370
        25
  6
Continuous
 62
         4
100
AcDbLine
 10
10.2132350095
 20
0.987976392
 30
0.0
 11
10.2131749137
 21
0.9879424877
 31
0.0
  0
LINE
  5
26C
102
{ACAD_REACTORS
330
2B3
102
}
100
AcDbEntity
  8
Z_TATTOOMYSTIQUE
370
        25
  6
Continuous
 62
         4
100
AcDbLine
 10
10.1837530277
 20
1.040233571
 30
0.0
 11
10.1836929319
 21
1.0401996667
 31
0.0
  0
ELLIPSE
  5
26D
102
{ACAD_REACTORS
330
2B3
102
}
100
AcDbEntity
  8
Z_TATTOOMYSTIQUE
370
        25
  6
Continuous
 62
         4
100
AcDbEllipse
 10
10.2470771585
 20
1.1099908887
 30
0.0
 11
-0.0864543861380582
 21
-0.0376033770854178
 31
0.0
210
0.0
220
0.0
230
1.0
 40
1.0
 41
0.0
 42
0.423202014917831
  0
ELLIPSE
  5
26E
102
{ACAD_REACTORS
330
2B3
102
}
100
AcDbEntity
  8
Z_TATTOOMYSTIQUE
370
        25
  6
Continuous
 62
         4
100
AcDbEllipse
 10
9.6619973992
 20
2.1470520306
 30
0.0
 11
-0.0925124207398085
 21
-0.0181611359618046
 31
0.0
210
0.0
220
0.0
230
1.0
 40
1.0
 41
0.0
 42
0.4232020149237724
  0
LINE
  5
26F
102
{ACAD_REACTORS
330
2B3
102
}
100
AcDbEntity
  8
Z_TATTOOMYSTIQUE
370
        25
  6
Continuous
 62
         4
100
AcDbLine
 10
9.5400630925
 20
2.1811819779
 30
0.0
 11
9.5400029967
 21
2.1811480736
 31
0.0
  0
LINE
  5
270
102
{ACAD_REACTORS
330
2B3
102
}
100
AcDbEntity
  8
Z_TATTOOMYSTIQUE
370
        25
  6
Continuous
 62
         4
100
AcDbLine
 10
10.1606227723
 20
1.0723875117
 30
0.0
 11
9.5851050063
 21
2.0924999018
 31
0.0
  0
LINE
  5
271
102
{ACAD_REACTORS
330
2B3
102
}
100
AcDbEntity
  8
Z_TATTOOMYSTIQUE
370
        25
  6
Continuous
 62
         4
100
AcDbLine
 10
10.1549441589
 20
1.069183803
 30
0.0
 11
9.5794263928
 21
2.0892961931
 31
0.0
  0
CIRCLE
  5
272
102
{ACAD_REACTORS
330
2B3
102
}
100
AcDbEntity
  8
Z_TATTOOMYSTIQUE
370
        25
  6
Continuous
 62
         4
100
AcDbCircle
 10
9.8732434016
 20
2.6590649464
 30
0.0
 40
0.09375
  0
LINE
  5
273
102
{ACAD_REACTORS
330
2B3
102
}
100
AcDbEntity
  8
Z_TATTOOMYSTIQUE
370
        25
  6
Continuous
 62
         4
100
AcDbLine
 10
9.5694849785
 20
2.1288908947
 30
0.0
 11
9.5400029967
 21
2.1811480736
 31
0.0
  0
LINE
  5
274
102
{ACAD_REACTORS
330
2B3
102
}
100
AcDbEntity
  8
Z_TATTOOMYSTIQUE
370
        25
  6
Continuous
 62
         4
100
AcDbLine
 10
9.5695450743
 20
2.128924799
 30
0.0
 11
9.5694849785
 21
2.1288908947
 31
0.0
  0
LINE
  5
275
102
{ACAD_REACTORS
330
2B3
102
}
100
AcDbEntity
  8
Z_TATTOOMYSTIQUE
370
        25
  6
Continuous
 62
         4
100
AcDbLine
 10
10.2325801032
 20
0.9536869731
 30
0.0
 11
10.1837530277
 21
1.040233571
 31
0.0
  0
ELLIPSE
  5
276
102
{ACAD_REACTORS
330
2B3
102
}
100
AcDbEntity
  8
Z_TATTOOMYSTIQUE
370
        25
  6
Continuous
 62
         4
100
AcDbEllipse
 10
9.6349583302
 20
2.5217622091
 30
0.0
 11
-0.2177378507090834
 21
-0.1228401734457797
 31
0.0
210
0.0
220
0.0
230
1.0
 40
1.0
 41
4.7123889803846897
 42
6.2831936297531179
  0
LINE
  5
277
102
{ACAD_REACTORS
330
2B3
102
}
100
AcDbEntity
  8
Z_TATTOOMYSTIQUE
370
        25
  6
Continuous
 62
         4
100
AcDbLine
 10
9.5207179988
 20
2.2154713968
 30
0.0
 11
9.4172215018
 21
2.3989202235
 31
0.0
  0
LINE
  5
278
102
{ACAD_REACTORS
330
2B3
102
}
100
AcDbEntity
  8
Z_TATTOOMYSTIQUE
370
        25
  6
Continuous
 62
         4
100
AcDbLine
 10
9.5207179988
 20
2.2154713968
 30
0.0
 11
9.5695450743
 21
2.128924799
 31
0.0
  0
LINE
  5
279
102
{ACAD_REACTORS
330
2B3
102
}
100
AcDbEntity
  8
Z_TATTOOMYSTIQUE
370
        25
  6
Continuous
 62
         4
100
AcDbLine
 10
10.2325801032
 20
0.9536869731
 30
0.0
 11
10.3360766002
 21
0.7702381464
 31
0.0
  0
ELLIPSE
  5
27A
102
{ACAD_REACTORS
330
2B3
102
}
100
AcDbEntity
  8
Z_TATTOOMYSTIQUE
370
        25
  6
Continuous
 62
         4
100
AcDbEllipse
 10
10.3731878118
 20
1.1641232628
 30
0.0
 11
-0.2182436528971721
 21
-0.0949394598670779
 31
0.0
210
0.0
220
0.0
230
1.0
 40
1.0
 41
0.0
 42
0.4231285735068679
  0
ELLIPSE
  5
27B
102
{ACAD_REACTORS
330
2B3
102
}
100
AcDbEntity
  8
Z_TATTOOMYSTIQUE
370
        25
  6
Continuous
 62
         4
100
AcDbEllipse
 10
10.5538148023
 20
0.8930795813
 30
0.0
 11
-0.1228414348382567
 21
0.217738202174184
 31
0.0
210
0.0
220
0.0
230
-0.9999999999999999
 40
1.0
 41
4.7123889803846897
 42
9.4247770455550715
  0
CIRCLE
  5
27C
102
{ACAD_REACTORS
330
2B3
102
}
100
AcDbEntity
  8
Z_TATTOOMYSTIQUE
370
        25
  6
Continuous
 62
         4
100
AcDbCircle
 10
10.7945553318
 20
1.0260281044
 30
0.0
 40
0.09375
  0
ELLIPSE
  5
27D
102
{ACAD_REACTORS
330
2B3
102
}
100
AcDbEntity
  8
Z_TATTOOMYSTIQUE
370
        25
  6
Continuous
 62
         4
100
AcDbEllipse
 10
11.0631785571
 20
2.2539852258
 30
0.0
 11
-0.0528933966663918
 21
-0.0333210403990202
 31
0.0
210
0.0
220
0.0
230
1.0
 40
1.0
 41
4.7123889803846897
 42
7.7569726033719988
  0
LINE
  5
27E
102
{ACAD_REACTORS
330
2B3
102
}
100
AcDbEntity
  8
Z_TATTOOMYSTIQUE
370
        25
  6
Continuous
 62
         4
100
AcDbLine
 10
10.6766564364
 20
0.6753414915
 30
0.0
 11
15.1402904712
 21
3.1935941006
 31
0.0
  0
LINE
  5
27F
102
{ACAD_REACTORS
330
2B3
102
}
100
AcDbEntity
  8
Z_TATTOOMYSTIQUE
370
        25
  6
Continuous
 62
         4
100
AcDbLine
 10
10.2325801032
 20
0.9536869731
 30
0.0
 11
15.1316906292
 21
3.7176227636
 31
0.0
  0
LINE
  5
280
102
{ACAD_REACTORS
330
2B3
102
}
100
AcDbEntity
  8
Z_TATTOOMYSTIQUE
370
        25
  6
Continuous
 62
         4
100
AcDbLine
 10
15.0492132727
 20
3.0675800976
 30
0.0
 11
15.078384101
 21
3.0840374312
 31
0.0
  0
LINE
  5
281
102
{ACAD_REACTORS
330
2B3
102
}
100
AcDbEntity
  8
Z_TATTOOMYSTIQUE
370
        25
  6
Continuous
 62
         4
100
AcDbLine
 10
15.1770084945
 20
5.9383369856
 30
0.0
 11
14.5782283192
 21
5.6005226112
 31
0.0
  0
ARC
  5
282
102
{ACAD_REACTORS
330
2B3
102
}
100
AcDbEntity
  8
Z_TATTOOMYSTIQUE
370
        25
  6
Continuous
 62
         4
100
AcDbCircle
 10
15.2998498321
 20
5.7205978316
 30
0.0
 40
0.2500006668
100
AcDbArc
 50
29.430581074
 51
119.4302754433
  0
LINE
  5
283
102
{ACAD_REACTORS
330
2B3
102
}
100
AcDbEntity
  8
Z_TATTOOMYSTIQUE
370
        25
  6
Continuous
 62
         4
100
AcDbLine
 10
11.0912198395
 20
2.1981131431
 30
0.0
 11
15.0709710589
 21
4.2183426124
 31
0.0
  0
LINE
  5
284
102
{ACAD_REACTORS
330
2B3
102
}
100
AcDbEntity
  8
Z_TATTOOMYSTIQUE
370
        25
  6
Continuous
 62
         4
100
AcDbLine
 10
10.1837530277
 20
1.040233571
 30
0.0
 11
15.0828635537
 21
3.8041693615
 31
0.0
  0
LINE
  5
285
102
{ACAD_REACTORS
330
2B3
102
}
100
AcDbEntity
  8
Z_TATTOOMYSTIQUE
370
        25
  6
Continuous
 62
         4
100
AcDbLine
 10
15.1461620269
 20
3.7709904643
 30
0.0
 11
15.1123455355
 21
3.7519121825
 31
0.0
  0
LINE
  5
286
102
{ACAD_REACTORS
330
2B3
102
}
100
AcDbEntity
  8
Z_TATTOOMYSTIQUE
370
        25
  6
Continuous
 62
         4
100
AcDbLine
 10
15.0828635537
 20
3.8041693615
 30
0.0
 11
15.1316906292
 21
3.7176227636
 31
0.0
  0
LINE
  5
287
102
{ACAD_REACTORS
330
2B3
102
}
100
AcDbEntity
  8
Z_TATTOOMYSTIQUE
370
        25
  6
Continuous
 62
         4
100
AcDbLine
 10
15.1166800451
 20
3.8232476432
 30
0.0
 11
15.1461620269
 21
3.7709904643
 31
0.0
  0
LINE
  5
288
102
{ACAD_REACTORS
330
2B3
102
}
100
AcDbEntity
  8
Z_TATTOOMYSTIQUE
370
        25
  6
Continuous
 62
         4
100
AcDbLine
 10
9.5121181567
 20
2.7395000598
 30
0.0
 11
13.9757521915
 21
5.2577526689
 31
0.0
  0
LINE
  5
289
102
{ACAD_REACTORS
330
2B3
102
}
100
AcDbEntity
  8
Z_TATTOOMYSTIQUE
370
        25
  6
Continuous
 62
         4
100
AcDbLine
 10
9.5207179988
 20
2.2154713968
 30
0.0
 11
14.4198285248
 21
4.9794071873
 31
0.0
  0
LINE
  5
28A
102
{ACAD_REACTORS
330
2B3
102
}
100
AcDbEntity
  8
Z_TATTOOMYSTIQUE
370
        25
  6
Continuous
 62
         4
100
AcDbLine
 10
14.6562278754
 20
4.9534800576
 30
0.0
 11
9.5851050063
 21
2.0924999018
 31
0.0
  0
LINE
  5
28B
102
{ACAD_REACTORS
330
2B3
102
}
100
AcDbEntity
  8
Z_TATTOOMYSTIQUE
370
        25
  6
Continuous
 62
         4
100
AcDbLine
 10
9.5695450743
 20
2.128924799
 30
0.0
 11
14.4686556002
 21
4.8928605895
 31
0.0
  0
LINE
  5
28C
102
{ACAD_REACTORS
330
2B3
102
}
100
AcDbEntity
  8
Z_TATTOOMYSTIQUE
370
        25
  6
Continuous
 62
         4
100
AcDbLine
 10
14.8170024579
 20
4.6685051127
 30
0.0
 11
11.0298575167
 21
2.3068786225
 31
0.0
  0
CIRCLE
  5
28D
102
{ACAD_REACTORS
330
2B3
102
}
100
AcDbEntity
  8
Z_TATTOOMYSTIQUE
370
        25
  6
Continuous
 62
         4
100
AcDbCircle
 10
11.6151493664
 20
3.6417976719
 30
0.0
 40
0.09375
  0
LINE
  5
28E
102
{ACAD_REACTORS
330
2B3
102
}
100
AcDbEntity
  8
Z_TATTOOMYSTIQUE
370
        25
  6
Continuous
 62
         4
100
AcDbLine
 10
11.6951053615
 20
3.5928486306
 30
0.0
 11
11.6145998967
 21
3.7355455673
 31
0.0
  0
LINE
  5
28F
102
{ACAD_REACTORS
330
2B3
102
}
100
AcDbEntity
  8
Z_TATTOOMYSTIQUE
370
        25
  6
Continuous
 62
         4
100
AcDbLine
 10
13.8723295667
 20
4.0794165019
 30
0.0
 11
14.0782538389
 21
3.7144131713
 31
0.0
  0
LINE
  5
290
102
{ACAD_REACTORS
330
2B3
102
}
100
AcDbEntity
  8
Z_TATTOOMYSTIQUE
370
        25
  6
Continuous
 62
         4
100
AcDbLine
 10
13.8336839388
 20
4.0553174264
 30
0.0
 11
14.0376427454
 21
3.6937979077
 31
0.0
  0
LINE
  5
291
102
{ACAD_REACTORS
330
2B3
102
}
100
AcDbEntity
  8
Z_TATTOOMYSTIQUE
370
        25
  6
Continuous
 62
         4
100
AcDbLine
 10
15.331907951
 20
3.2615132482
 30
0.0
 11
17.8358977754
 21
4.6741915411
 31
0.0
  0
ARC
  5
292
102
{ACAD_REACTORS
330
2B3
102
}
100
AcDbEntity
  8
Z_TATTOOMYSTIQUE
370
        25
  6
Continuous
 62
         4
100
AcDbCircle
 10
15.6223817966
 20
3.7497473678
 30
0.0
 40
0.2499998856
100
AcDbArc
 50
-60.5695455224
 51
-150.5695979603
  0
LINE
  5
293
102
{ACAD_REACTORS
330
2B3
102
}
100
AcDbEntity
  8
Z_TATTOOMYSTIQUE
370
        25
  6
Continuous
 62
         4
100
AcDbLine
 10
15.7452234307
 20
3.532009278
 30
0.0
 11
16.3440036061
 21
3.8698236524
 31
0.0
  0
ELLIPSE
  5
294
102
{ACAD_REACTORS
330
2B3
102
}
100
AcDbEntity
  8
Z_TATTOOMYSTIQUE
370
        25
  6
Continuous
 62
         4
100
AcDbEllipse
 10
15.9424571462
 20
3.93032471
 30
0.0
 11
-0.0826977974520464
 21
-0.0671069677748874
 31
0.0
210
0.0
220
0.0
230
1.0
 40
1.0
 41
4.7123889803846897
 42
7.5179030303028096
  0
ELLIPSE
  5
295
102
{ACAD_REACTORS
330
2B3
102
}
100
AcDbEntity
  8
Z_TATTOOMYSTIQUE
370
        25
  6
Continuous
 62
         4
100
AcDbEllipse
 10
15.9424571508
 20
3.9303247126
 30
0.0
 11
0.0826983875005457
 21
0.0671059219065921
 31
0.0
210
0.0
220
0.0
230
1.0
 40
1.0
 41
4.7123889803846897
 42
7.5179252635243614
  0
ELLIPSE
  5
296
102
{ACAD_REACTORS
330
2B3
102
}
100
AcDbEntity
  8
Z_TATTOOMYSTIQUE
370
        25
  6
Continuous
 62
         4
100
AcDbEllipse
 10
15.9054415593
 20
3.9094415915
 30
0.0
 11
-0.0515934680896635
 21
0.0914500631519104
 31
0.0
210
0.0
220
0.0
230
-1.0
 40
1.0
 41
0.0
 42
3.1415926535887331
  0
ELLIPSE
  5
297
102
{ACAD_REACTORS
330
2B3
102
}
100
AcDbEntity
  8
Z_TATTOOMYSTIQUE
370
        25
  6
Continuous
 62
         4
100
AcDbEllipse
 10
15.9424571771
 20
3.9303247274
 30
0.0
 11
0.0843130321989994
 21
0.0642439441193185
 31
0.0
210
0.0
220
0.0
230
1.0
 40
1.0
 41
4.7123889803846897
 42
7.5790622424720597
  0
ELLIPSE
  5
298
102
{ACAD_REACTORS
330
2B3
102
}
100
AcDbEntity
  8
Z_TATTOOMYSTIQUE
370
        25
  6
Continuous
 62
         4
100
AcDbEllipse
 10
15.9424529796
 20
3.9303268545
 30
0.0
 11
-0.0843102827764074
 21
-0.064240849702026
 31
0.0
210
0.0
220
0.0
230
1.0
 40
1.0
 41
4.7123889803846897
 42
5.5670426235383248
  0
LINE
  5
299
102
{ACAD_REACTORS
330
2B3
102
}
100
AcDbEntity
  8
Z_TATTOOMYSTIQUE
370
        25
  6
Continuous
 62
         4
100
AcDbLine
 10
10.1606227723
 20
1.0723875117
 30
0.0
 11
10.1549441589
 21
1.069183803
 31
0.0
  0
LINE
  5
29A
102
{ACAD_REACTORS
330
2B3
102
}
100
AcDbEntity
  8
Z_TATTOOMYSTIQUE
370
        25
  6
Continuous
 62
         4
100
AcDbLine
 10
15.2317456414
 20
3.9333676675
 30
0.0
 11
10.1606227723
 21
1.0723875117
 31
0.0
  0
LINE
  5
29B
102
{ACAD_REACTORS
330
2B3
102
}
100
AcDbEntity
  8
Z_TATTOOMYSTIQUE
370
        25
  6
Continuous
 62
         4
100
AcDbLine
 10
15.078384101
 20
3.0840374312
 30
0.0
 11
17.3646356798
 21
4.3738741335
 31
0.0
  0
LINE
  5
29C
102
{ACAD_REACTORS
330
2B3
102
}
100
AcDbEntity
  8
Z_TATTOOMYSTIQUE
370
        25
  6
Continuous
 62
         4
100
AcDbLine
 10
15.1226070736
 20
3.0056516628
 30
0.0
 11
17.4088586524
 21
4.295488365
 31
0.0
  0
ELLIPSE
  5
29D
102
{ACAD_REACTORS
330
2B3
102
}
100
AcDbEntity
  8
Z_TATTOOMYSTIQUE
370
        25
  6
Continuous
 62
         4
100
AcDbEllipse
 10
15.6334923936
 20
4.0388415867
 30
0.0
 11
1.2432756805469012
 21
0.6993671038109142
 31
0.0
210
0.0
220
0.0
230
1.0
 40
0.9999999999
 41
0.0
 42
0.035247108250969
  0
ELLIPSE
  5
29E
102
{ACAD_REACTORS
330
2B3
102
}
100
AcDbEntity
  8
Z_TATTOOMYSTIQUE
370
        25
  6
Continuous
 62
         4
100
AcDbEllipse
 10
15.6884356448
 20
4.0699318513
 30
0.0
 11
1.2405173191113477
 21
0.6977180376111392
 31
0.0
210
0.0
220
0.0
230
1.0
 40
0.9999999999
 41
0.0
 42
0.0353266645520962
  0
ELLIPSE
  5
29F
102
{ACAD_REACTORS
330
2B3
102
}
100
AcDbEntity
  8
Z_TATTOOMYSTIQUE
370
        25
  6
Continuous
 62
         4
100
AcDbEllipse
 10
15.0249483555
 20
5.2852074258
 30
0.0
 11
1.2425355615679905
 21
0.6532316801389015
 31
0.0
210
0.0
220
0.0
230
1.0
 40
0.9999999999
 41
0.0
 42
0.0227129262243028
  0
LINE
  5
2A0
102
{ACAD_REACTORS
330
2B3
102
}
100
AcDbEntity
  8
Z_TATTOOMYSTIQUE
370
        25
  6
Continuous
 62
         4
100
AcDbLine
 10
15.188302573
 20
3.7495615772
 30
0.0
 11
15.2999178106
 21
3.8125316507
 31
0.0
  0
ELLIPSE
  5
2A1
102
{ACAD_REACTORS
330
2B3
102
}
100
AcDbEntity
  8
Z_TATTOOMYSTIQUE
370
        25
  6
Continuous
 62
         4
100
AcDbEllipse
 10
15.021145216
 20
5.563361552
 30
0.0
 11
-0.0671069677750893
 21
0.082697797452056
 31
0.0
210
0.0
220
0.0
230
1.0
 40
1.0
 41
0.0
 42
2.8055140499157365
  0
LINE
  5
2A2
102
{ACAD_REACTORS
330
2B3
102
}
100
AcDbEntity
  8
Z_TATTOOMYSTIQUE
370
        25
  6
Continuous
 62
         4
100
AcDbLine
 10
15.1461620269
 20
3.7709904643
 30
0.0
 11
15.1689574793
 21
3.7838509961
 31
0.0
  0
ELLIPSE
  5
2A3
102
{ACAD_REACTORS
330
2B3
102
}
100
AcDbEntity
  8
Z_TATTOOMYSTIQUE
370
        25
  6
Continuous
 62
         4
100
AcDbEllipse
 10
15.5095372722
 20
3.6889541854
 30
0.0
 11
-0.2177382021743597
 21
-0.1228414348380511
 31
0.0
210
0.0
220
0.0
230
-1.0
 40
1.0
 41
0.0
 42
4.7123880651700567
  0
LINE
  5
2A4
102
{ACAD_REACTORS
330
2B3
102
}
100
AcDbEntity
  8
Z_TATTOOMYSTIQUE
370
        25
  6
Continuous
 62
         4
100
AcDbLine
 10
15.188302573
 20
3.7495615772
 30
0.0
 11
15.29179907
 21
3.5661127505
 31
0.0
  0
LINE
  5
2A5
102
{ACAD_REACTORS
330
2B3
102
}
100
AcDbEntity
  8
Z_TATTOOMYSTIQUE
370
        25
  6
Continuous
 62
         4
100
AcDbLine
 10
15.1394754975
 20
3.8361081751
 30
0.0
 11
15.2510907351
 21
3.8990782485
 31
0.0
  0
LINE
  5
2A6
102
{ACAD_REACTORS
330
2B3
102
}
100
AcDbEntity
  8
Z_TATTOOMYSTIQUE
370
        25
  6
Continuous
 62
         4
100
AcDbLine
 10
15.2089528093
 20
5.9534886207
 30
0.0
 11
15.7837669715
 21
6.2777820669
 31
0.0
  0
ELLIPSE
  5
2A7
102
{ACAD_REACTORS
330
2B3
102
}
100
AcDbEntity
  8
Z_TATTOOMYSTIQUE
370
        25
  6
Continuous
 62
         4
100
AcDbEllipse
 10
15.0211452206
 20
5.5633615546
 30
0.0
 11
0.0826983875005441
 21
0.0671059219065912
 31
0.0
210
0.0
220
0.0
230
1.0
 40
1.0
 41
4.7123889803846897
 42
7.5179252635250471
  0
LINE
  5
2A8
102
{ACAD_REACTORS
330
2B3
102
}
100
AcDbEntity
  8
Z_TATTOOMYSTIQUE
370
        25
  6
Continuous
 62
         4
100
AcDbLine
 10
15.2351871261
 20
3.5341739369
 30
0.0
 11
15.1316906292
 21
3.7176227636
 31
0.0
  0
ELLIPSE
  5
2A9
102
{ACAD_REACTORS
330
2B3
102
}
100
AcDbEntity
  8
Z_TATTOOMYSTIQUE
370
        25
  6
Continuous
 62
         4
100
AcDbEllipse
 10
15.0174479722
 20
3.4113325994
 30
0.0
 11
0.2177384987018911
 21
0.1228424990628894
 31
0.0
210
0.0
220
0.0
230
1.0
 40
1.0
 41
4.7123889803846897
 42
6.2831799729222508
  0
LINE
  5
2AA
102
{ACAD_REACTORS
330
2B3
102
}
100
AcDbEntity
  8
Z_TATTOOMYSTIQUE
370
        25
  6
Continuous
 62
         4
100
AcDbLine
 10
15.188302573
 20
3.7495615772
 30
0.0
 11
15.1394754975
 21
3.8361081751
 31
0.0
  0
LINE
  5
2AB
102
{ACAD_REACTORS
330
2B3
102
}
100
AcDbEntity
  8
Z_TATTOOMYSTIQUE
370
        25
  6
Continuous
 62
         4
100
AcDbLine
 10
13.8499681941
 20
5.2614198872
 30
0.0
 11
16.1362197729
 21
6.5512565894
 31
0.0
  0
LINE
  5
2AC
102
{ACAD_REACTORS
330
2B3
102
}
100
AcDbEntity
  8
Z_TATTOOMYSTIQUE
370
        25
  6
Continuous
 62
         4
100
AcDbLine
 10
14.1329740259
 20
5.3866385252
 30
0.0
 11
16.6369638503
 21
6.7993168182
 31
0.0
  0
LINE
  5
2AD
102
{ACAD_REACTORS
330
2B3
102
}
100
AcDbEntity
  8
Z_TATTOOMYSTIQUE
370
        25
  6
Continuous
 62
         4
100
AcDbLine
 10
13.8057452214
 20
5.3398056556
 30
0.0
 11
16.0919968002
 21
6.6296423579
 31
0.0
  0
LINE
  5
2AE
102
{ACAD_REACTORS
330
2B3
102
}
100
AcDbEntity
  8
Z_TATTOOMYSTIQUE
370
        25
  6
Continuous
 62
         4
100
AcDbLine
 10
15.144284349
 20
3.6953002387
 30
0.0
 11
15.2008962929
 21
3.7272390523
 31
0.0
  0
ELLIPSE
  5
2AF
102
{ACAD_REACTORS
330
2B3
102
}
100
AcDbEntity
  8
Z_TATTOOMYSTIQUE
370
        25
  6
Continuous
 62
         4
100
AcDbEllipse
 10
14.9727625947
 20
5.2557657361
 30
0.0
 11
1.2425355615644094
 21
0.6532316801370257
 31
0.0
210
0.0
220
0.0
230
1.0
 40
0.9999999999
 41
0.0
 42
0.0227129262244378
  0
ELLIPSE
  5
2B0
102
{ACAD_REACTORS
330
2B3
102
}
100
AcDbEntity
  8
Z_TATTOOMYSTIQUE
370
        25
  6
Continuous
 62
         4
100
AcDbEllipse
 10
15.0211452469
 20
5.5633615694
 30
0.0
 11
0.0843130321989979
 21
0.0642439441193177
 31
0.0
210
0.0
220
0.0
230
1.0
 40
1.0
 41
4.7123889803846897
 42
7.5790622424710348
  0
ELLIPSE
  5
2B1
102
{ACAD_REACTORS
330
2B3
102
}
100
AcDbEntity
  8
Z_TATTOOMYSTIQUE
370
        25
  6
Continuous
 62
         4
100
AcDbEllipse
 10
15.0211410495
 20
5.5633636965
 30
0.0
 11
-0.0642408497024007
 21
0.0843102827765279
 31
0.0
210
0.0
220
0.0
230
1.0
 40
1.0
 41
0.0
 42
0.8546536431464076
  0
LINE
  5
2B2
102
{ACAD_REACTORS
330
2B3
102
}
100
AcDbEntity
  8
Z_TATTOOMYSTIQUE
370
        25
  6
Continuous
 62
         4
100
AcDbLine
 10
14.4833307933
 20
5.2599422835
 30
0.0
 11
15.4046427235
 21
3.6269054415
 31
0.0
  0
CIRCLE
  5
2B4
100
AcDbEntity
  8
7_VCARVE_BIT
370
        25
  6
Continuous
 62
         5
100
AcDbCircle
 10
11.6151493664
 20
3.6417976719
 30
0.0
 40
0.062506752
  0
CIRCLE
  5
2B5
100
AcDbEntity
  8
7_VCARVE_BIT
370
        25
  6
Continuous
 62
         5
100
AcDbCircle
 10
12.5364612966
 20
2.0087608299
 30
0.0
 40
0.062506752
  0
CIRCLE
  5
2B6
100
AcDbEntity
  8
7_VCARVE_BIT
370
        25
  6
Continuous
 62
         5
100
AcDbCircle
 10
10.7945553318
 20
1.0260281044
 30
0.0
 40
0.062506752
  0
LINE
  5
2B7
100
AcDbEntity
  8
DF_COMP
370
        25
  6
Continuous
 62
         4
100
AcDbLine
 10
9.679488245
 20
2.1159975193
 30
0.0
 11
9.4625547037
 21
1.9917403719
 31
0.0
  0
CIRCLE
  5
2B8
100
AcDbEntity
  8
6_125BIT_500DEP
370
        25
  6
Continuous
 62
         5
100
AcDbCircle
 10
12.4082861837
 20
4.0892624156
 30
0.0
 40
0.085
  0
CIRCLE
  5
2B9
100
AcDbEntity
  8
6_125BIT_500DEP
370
        25
  6
Continuous
 62
         5
100
AcDbCircle
 10
13.3295981139
 20
2.4562255736
 30
0.0
 40
0.085
  0
CIRCLE
  5
2BA
100
AcDbEntity
  8
7_VCARVE_BIT
370
        25
  6
Continuous
 62
         5
100
AcDbCircle
 10
14.2783672614
 20
2.9914935554
 30
0.0
 40
0.062506752
  0
CIRCLE
  5
2BB
100
AcDbEntity
  8
6_125BIT_500DEP
370
        25
  6
Continuous
 62
         5
100
AcDbCircle
 10
15.0211452206
 20
5.5633615546
 30
0.0
 40
0.085
  0
CIRCLE
  5
2BC
100
AcDbEntity
  8
7_VCARVE_BIT
370
        25
  6
Continuous
 62
         5
100
AcDbCircle
 10
13.3570553312
 20
4.6245303974
 30
0.0
 40
0.062506752
  0
CIRCLE
  5
2BD
100
AcDbEntity
  8
6_125BIT_500DEP
370
        25
  6
Continuous
 62
         5
100
AcDbCircle
 10
15.9424571508
 20
3.9303247126
 30
0.0
 40
0.085
  0
CIRCLE
  5
2BE
100
AcDbEntity
  8
6_125BIT_500DEP
370
        25
  6
Continuous
 62
         5
100
AcDbCircle
 10
16.327574626
 20
6.3004110602
 30
0.0
 40
0.085
  0
CIRCLE
  5
2BF
100
AcDbEntity
  8
6_125BIT_500DEP
370
        25
  6
Continuous
 62
         5
100
AcDbCircle
 10
17.2488865353
 20
4.6673742065
 30
0.0
 40
0.085
  0
LINE
  5
2C0
100
AcDbEntity
  8
DF_COMP
370
        25
  6
Continuous
 62
         4
100
AcDbLine
 10
18.5701669428
 20
7.0599763391
 30
0.0
 11
18.5701669428
 21
7.0599763391
 31
0.0
  0
LINE
  5
2C1
100
AcDbEntity
  8
DF_COMP
370
        25
  6
Continuous
 62
         4
100
AcDbLine
 10
19.0351669428
 20
5.7024763391
 30
0.0
 11
19.0351669428
 21
5.7024763391
 31
0.0
  0
ENDSEC
  0
SECTION
  2
OBJECTS
  0
DICTIONARY
  5
19
100
AcDbDictionary
280
         0
281
         1
  3
ACAD_GROUP
350
1A
  3
ACAD_MLINESTYLE
350
1B
  3
ACAD_LAYOUT
350
1E
  3
ACAD_PLOTSETTINGS
350
22
  3
ACAD_PLOTSTYLENAME
350
1F
  3
ACAD_WIPEOUT_VARS
350
23
  0
DICTIONARY
  5
1A
102
{ACAD_REACTORS
330
19
102
}
100
AcDbDictionary
280
         0
281
         1
  3
VELLUMGRP1
350
60
  3
VELLUMGRP2
350
69
  3
VELLUMGRP3
350
6A
  3
VELLUMGRP4
350
2B3
  0
DICTIONARY
  5
1B
102
{ACAD_REACTORS
330
19
102
}
100
AcDbDictionary
280
         0
281
         1
  3
Standard
350
1C
  0
MLINESTYLE
  5
1C
102
{ACAD_REACTORS
330
1B
102
}
100
AcDbMlineStyle
  2
Standard
 70
         0
  3

 62
         0
 51
90.0
 52
90.0
 71
         2
 49
0.5
 62
       256
  6
BYLAYER
 49
-0.5
 62
       256
  6
BYLAYER
  0
ACDBDICTIONARYWDFLT
  5
1F
102
{ACAD_REACTORS
330
19
102
}
100
AcDbDictionary
281
         1
  3
Normal
350
1D
100
AcDbDictionaryWithDefault
340
1D
  0
ACDBPLACEHOLDER
  5
1D
102
{ACAD_REACTORS
330
1F
102
}
  0
LAYOUT
  5
20
102
{ACAD_REACTORS
330
1E
102
}
100
AcDbPlotSettings
  1

  2

  4

  6

 40
0.0
 41
0.0
 42
0.0
 43
0.0
 44
0.0
 45
0.0
 46
0.0
 47
0.0
 48
0.0
 49
0.0
140
0.0
141
0.0
142
1.0
143
1.0
 70
      1024
 72
         0
 73
         0
 74
         0
  7

 75
         0
147
1.0
148
0.0
149
0.0
100
AcDbLayout
  1
Model
 70
         0
 71
         0
 10
0.0
 20
0.0
 11
0.0
 21
0.0
 12
0.0
 22
0.0
 32
0.0
 14
0.0
 24
0.0
 34
0.0
 15
0.0
 25
0.0
 35
0.0
146
0.0
 13
0.0
 23
0.0
 33
0.0
 16
0.0
 26
0.0
 36
0.0
 17
0.0
 27
0.0
 37
0.0
 76
         0
330
A
331
0
345
0
346
0
  0
LAYOUT
  5
21
102
{ACAD_REACTORS
330
1E
102
}
100
AcDbPlotSettings
  1

  2

  4

  6

 40
0.0
 41
0.0
 42
0.0
 43
0.0
 44
0.0
 45
0.0
 46
0.0
 47
0.0
 48
0.0
 49
0.0
140
0.0
141
0.0
142
1.0
143
1.0
 70
         0
 72
         0
 73
         0
 74
         0
  7

 75
         0
147
1.0
148
0.0
149
0.0
100
AcDbLayout
  1
Layout1
 70
         0
 71
         0
 10
0.0
 20
0.0
 11
0.0
 21
0.0
 12
0.0
 22
0.0
 32
0.0
 14
0.0
 24
0.0
 34
0.0
 15
0.0
 25
0.0
 35
0.0
146
0.0
 13
0.0
 23
0.0
 33
0.0
 16
0.0
 26
0.0
 36
0.0
 17
0.0
 27
0.0
 37
0.0
 76
         0
330
B
331
0
345
0
346
0
  0
DICTIONARY
  5
1E
102
{ACAD_REACTORS
330
19
102
}
100
AcDbDictionary
280
         0
281
         1
  3
Layout1
350
21
  3
Model
350
20
  0
DICTIONARY
  5
22
102
{ACAD_REACTORS
330
19
102
}
100
AcDbDictionary
280
         0
281
         1
  0
WIPEOUTVARIABLES
  5
23
100
AcDbWipeoutVariables
 70
         1
  0
GROUP
  5
60
102
{ACAD_XDICTIONARY
360
68EA21006CEA2100
102
}
102
{ACAD_REACTORS
330
1A
102
}
100
AcDbGroup
300
This is Vellum Group Number 1
 70
         0
 71
         1
340
58
340
59
340
5A
340
5B
340
5C
340
5D
340
5E
340
5F
  0
GROUP
  5
69
102
{ACAD_XDICTIONARY
360
3207917C6CEA2100
102
}
102
{ACAD_REACTORS
330
1A
102
}
100
AcDbGroup
300
This is Vellum Group Number 2
 70
         0
 71
         1
340
61
340
62
340
63
340
64
340
65
340
66
340
67
340
68
  0
GROUP
  5
2B3
102
{ACAD_XDICTIONARY
360
3207917C60EB2100
102
}
102
{ACAD_REACTORS
330
1A
102
}
100
AcDbGroup
300
This is Vellum Group Number 4
 70
         0
 71
         1
340
6B
340
6C
340
6D
340
6E
340
6F
340
70
340
71
340
72
340
73
340
74
340
75
340
76
340
77
340
78
340
79
340
7A
340
7B
340
7C
340
7D
340
7E
340
7F
340
80
340
81
340
82
340
83
340
84
340
85
340
86
340
87
340
88
340
89
340
8A
340
8B
340
8C
340
8D
340
8E
340
8F
340
90
340
91
340
92
340
93
340
94
340
95
340
96
340
97
340
98
340
99
340
9A
340
9B
340
9C
340
9D
340
9E
340
9F
340
A0
340
A1
340
A2
340
A3
340
A4
340
A5
340
A6
340
A7
340
A8
340
A9
340
AA
340
AB
340
AC
340
AD
340
AE
340
AF
340
B0
340
B1
340
B2
340
B3
340
B4
340
B5
340
B6
340
B7
340
B8
340
B9
340
BA
340
BB
340
BC
340
BD
340
BE
340
BF
340
C0
340
C1
340
C2
340
C3
340
C4
340
C5
340
C6
340
C7
340
C8
340
C9
340
CA
340
CB
340
CC
340
CD
340
CE
340
CF
340
D0
340
D1
340
D2
340
D3
340
D4
340
D5
340
D6
340
D7
340
D8
340
D9
340
DA
340
DB
340
DC
340
DD
340
DE
340
DF
340
E0
340
E1
340
E2
340
E3
340
E4
340
E5
340
E6
340
E7
340
E8
340
E9
340
EA
340
EB
340
EC
340
ED
340
EE
340
EF
340
F0
340
F1
340
F2
340
F3
340
F4
340
F5
340
F6
340
F7
340
F8
340
F9
340
FA
340
FB
340
FC
340
FD
340
FE
340
FF
340
100
340
101
340
102
340
103
340
104
340
105
340
106
340
107
340
108
340
109
340
10A
340
10B
340
10C
340
10D
340
10E
340
10F
340
110
340
111
340
112
340
113
340
114
340
115
340
116
340
117
340
118
340
119
340
11A
340
11B
340
11C
340
11D
340
11E
340
11F
340
120
340
121
340
122
340
123
340
124
340
125
340
126
340
127
340
128
340
129
340
12A
340
12B
340
12C
340
12D
340
12E
340
12F
340
130
340
131
340
132
340
133
340
134
340
135
340
136
340
137
340
138
340
139
340
13A
340
13B
340
13C
340
13D
340
13E
340
13F
340
140
340
141
340
142
340
143
340
144
340
145
340
146
340
147
340
148
340
149
340
14A
340
14B
340
14C
340
14D
340
14E
340
14F
340
150
340
151
340
152
340
153
340
154
340
155
340
156
340
157
340
158
340
159
340
15A
340
15B
340
15C
340
15D
340
15E
340
15F
340
160
340
161
340
162
340
163
340
164
340
165
340
166
340
167
340
168
340
169
340
16A
340
16B
340
16C
340
16D
340
16E
340
16F
340
170
340
171
340
172
340
173
340
174
340
175
340
176
340
177
340
178
340
179
340
17A
340
17B
340
17C
340
17D
340
17E
340
17F
340
180
340
181
340
182
340
183
340
184
340
185
340
186
340
187
340
188
340
189
340
18A
340
18B
340
18C
340
18D
340
18E
340
18F
340
190
340
191
340
192
340
193
340
194
340
195
340
196
340
197
340
198
340
199
340
19A
340
19B
340
19C
340
19D
340
19E
340
19F
340
1A0
340
1A1
340
1A2
340
1A3
340
1A4
340
1A5
340
1A6
340
1A7
340
1A8
340
1A9
340
1AA
340
1AB
340
1AC
340
1AD
340
1AE
340
1AF
340
1B0
340
1B1
340
1B2
340
1B3
340
1B4
340
1B5
340
1B6
340
1B7
340
1B8
340
1B9
340
1BA
340
1BB
340
1BC
340
1BD
340
1BE
340
1BF
340
1C0
340
1C1
340
1C2
340
1C3
340
1C4
340
1C5
340
1C6
340
1C7
340
1C8
340
1C9
340
1CA
340
1CB
340
1CC
340
1CD
340
1CE
340
1CF
340
1D0
340
1D1
340
1D2
340
1D3
340
1D4
340
1D5
340
1D6
340
1D7
340
1D8
340
1D9
340
1DA
340
1DB
340
1DC
340
1DD
340
1DE
340
1DF
340
1E0
340
1E1
340
1E2
340
1E3
340
1E4
340
1E5
340
1E6
340
1E7
340
1E8
340
1E9
340
1EA
340
1EB
340
1EC
340
1ED
340
1EE
340
1EF
340
1F0
340
1F1
340
1F2
340
1F3
340
1F4
340
1F5
340
1F6
340
1F7
340
1F8
340
1F9
340
1FA
340
1FB
340
1FC
340
1FD
340
1FE
340
1FF
340
200
340
201
340
202
340
203
340
204
340
205
340
206
340
207
340
208
340
209
340
20A
340
20B
340
20C
340
20D
340
20E
340
20F
340
210
340
211
340
212
340
213
340
214
340
215
340
216
340
217
340
218
340
219
340
21A
340
21B
340
21C
340
21D
340
21E
340
21F
340
220
340
221
340
222
340
223
340
224
340
225
340
226
340
227
340
228
340
229
340
22A
340
22B
340
22C
340
22D
340
22E
340
22F
340
230
340
231
340
232
340
233
340
234
340
235
340
236
340
237
340
238
340
239
340
23A
340
23B
340
23C
340
23D
340
23E
340
23F
340
240
340
241
340
242
340
243
340
244
340
245
340
246
340
247
340
248
340
249
340
24A
340
24B
340
24C
340
24D
340
24E
340
24F
340
250
340
251
340
252
340
253
340
254
340
255
340
256
340
257
340
258
340
259
340
25A
340
25B
340
25C
340
25D
340
25E
340
25F
340
260
340
261
340
262
340
263
340
264
340
265
340
266
340
267
340
268
340
269
340
26A
340
26B
340
26C
340
26D
340
26E
340
26F
340
270
340
271
340
272
340
273
340
274
340
275
340
276
340
277
340
278
340
279
340
27A
340
27B
340
27C
340
27D
340
27E
340
27F
340
280
340
281
340
282
340
283
340
284
340
285
340
286
340
287
340
288
340
289
340
28A
340
28B
340
28C
340
28D
340
28E
340
28F
340
290
340
291
340
292
340
293
340
294
340
295
340
296
340
297
340
298
340
299
340
29A
340
29B
340
29C
340
29D
340
29E
340
29F
340
2A0
340
2A1
340
2A2
340
2A3
340
2A4
340
2A5
340
2A6
340
2A7
340
2A8
340
2A9
340
2AA
340
2AB
340
2AC
340
2AD
340
2AE
340
2AF
340
2B0
340
2B1
340
2B2
  0
ENDSEC
  0
EOF
