  0
SECTION
  2
HEADER
  9
$ACADVER
  1
AC1015
  9
$ACADMAINTVER
 70
         6
  9
$DWGCODEPAGE
  3
ANSI_1252
  9
$INSBASE
 10
0.0
 20
0.0
 30
0.0
  9
$EXTMIN
 10
-0.93969262
 20
-0.98480775
 30
0.0
  9
$EXTMAX
 10
13.0
 20
12.98480775
 30
0.0
  9
$LIMMIN
 10
0.0
 20
0.0
  9
$LIMMAX
 10
0.0
 20
0.0
  9
$ORTHOMODE
 70
         0
  9
$REGENMODE
 70
         1
  9
$FILLMODE
 70
         1
  9
$QTEXTMODE
 70
         0
  9
$MIRRTEXT
 70
         1
  9
$LTSCALE
 40
5.0
  9
$ATTMODE
 70
         1
  9
$TEXTSIZE
 40
0.2
  9
$TRACEWID
 40
0.05
  9
$TEXTSTYLE
  7
Standard
  9
$CLAYER
  8
0
  9
$CELTYPE
  6
Continuous
  9
$CECOLOR
 62
       256
  9
$CELTSCALE
 40
1.0
  9
$DISPSILH
 70
         0
  9
$DIMSCALE
 40
1.0
  9
$DIMASZ
 40
0.18
  9
$DIMEXO
 40
0.0625
  9
$DIMDLI
 40
0.38
  9
$DIMRND
 40
0.0
  9
$DIMDLE
 40
0.0
  9
$DIMEXE
 40
0.18
  9
$DIMTP
 40
0.0
  9
$DIMTM
 40
0.0
  9
$DIMTXT
 40
0.18
  9
$DIMCEN
 40
0.09
  9
$DIMTSZ
 40
0.0
  9
$DIMTOL
 70
         0
  9
$DIMLIM
 70
         0
  9
$DIMTIH
 70
         1
  9
$DIMTOH
 70
         1
  9
$DIMSE1
 70
         0
  9
$DIMSE2
 70
         0
  9
$DIMTAD
 70
         0
  9
$DIMZIN
 70
         0
  9
$DIMBLK
  1

  9
$DIMASO
 70
         1
  9
$DIMSHO
 70
         1
  9
$DIMPOST
  1

  9
$DIMAPOST
  1

  9
$DIMALT
 70
         0
  9
$DIMALTD
 70
         2
  9
$DIMALTF
 40
25.4
  9
$DIMLFAC
 40
1.0
  9
$DIMTOFL
 70
         0
  9
$DIMTVP
 40
0.0
  9
$DIMTIX
 70
         0
  9
$DIMSOXD
 70
         0
  9
$DIMSAH
 70
         0
  9
$DIMBLK1
  1

  9
$DIMBLK2
  1

  9
$DIMSTYLE
  2
Standard
  9
$DIMCLRD
 70
         0
  9
$DIMCLRE
 70
         0
  9
$DIMCLRT
 70
         0
  9
$DIMTFAC
 40
1.0
  9
$DIMGAP
 40
0.09
  9
$DIMJUST
 70
         0
  9
$DIMSD1
 70
         0
  9
$DIMSD2
 70
         0
  9
$DIMTOLJ
 70
         1
  9
$DIMTZIN
 70
         0
  9
$DIMALTZ
 70
         0
  9
$DIMALTTZ
 70
         0
  9
$DIMUPT
 70
         0
  9
$DIMDEC
 70
         4
  9
$DIMTDEC
 70
         4
  9
$DIMALTU
 70
         2
  9
$DIMALTTD
 70
         2
  9
$DIMTXSTY
  7
Standard
  9
$DIMAUNIT
 70
         0
  9
$DIMADEC
 70
         0
  9
$DIMALTRND
 40
0.0
  9
$DIMAZIN
 70
         0
  9
$DIMDSEP
 70
         0
  9
$DIMATFIT
 70
         3
  9
$DIMFRAC
 70
         0
  9
$DIMLDRBLK
  1

  9
$DIMLUNIT
 70
         2
  9
$DIMLWD
 70
         0
  9
$DIMLWE
 70
         0
  9
$DIMTMOVE
 70
         0
  9
$LUNITS
 70
         2
  9
$LUPREC
 70
         4
  9
$SKETCHINC
 40
0.1
  9
$FILLETRAD
 40
0.0
  9
$AUNITS
 70
         0
  9
$AUPREC
 70
         0
  9
$MENU
  1
acad
  9
$ELEVATION
 40
0.0
  9
$PELEVATION
 40
0.0
  9
$THICKNESS
 40
0.0
  9
$LIMCHECK
 70
         0
  9
$CHAMFERA
 40
0.0
  9
$CHAMFERB
 40
0.0
  9
$CHAMFERC
 40
0.0
  9
$CHAMFERD
 40
0.0
  9
$SKPOLY
 70
         0
  9
$TDCREATE
 40
2460904.919189815
  9
$TDUCREATE
 40
0.000000000
  9
$TDUPDATE
 40
2460904.919189815
  9
$TDUUPDATE
 40
0.000000000
  9
$TDINDWG
 40
0.0000000000
  9
$TDUSRTIMER
 40
0.0000000000
  9
$USRTIMER
 70
         1
  9
$ANGBASE
 50
0.0
  9
$ANGDIR
 70
         0
  9
$PDMODE
 70
         0
  9
$PDSIZE
 40
0.0
  9
$PLINEWID
 40
0.0
  9
$SPLFRAME
 70
         0
  9
$SPLINETYPE
 70
         6
  9
$SPLINESEGS
 70
         8
  9
$HANDSEED
  5
1C9
  9
$SURFTAB1
 70
         6
  9
$SURFTAB2
 70
         6
  9
$SURFTYPE
 70
         6
  9
$SURFU
 70
         6
  9
$SURFV
 70
         6
  9
$UCSBASE
  2

  9
$UCSNAME
  2

  9
$UCSORG
 10
0.0
 20
0.0
 30
0.0
  9
$UCSXDIR
 10
1.0
 20
0.0
 30
0.0
  9
$UCSYDIR
 10
0.0
 20
1.0
 30
0.0
  9
$UCSORTHOREF
  2

  9
$UCSORTHOVIEW
 70
         0
  9
$UCSORGTOP
 10
0.0
 20
0.0
 30
0.0
  9
$UCSORGBOTTOM
 10
0.0
 20
0.0
 30
0.0
  9
$UCSORGLEFT
 10
0.0
 20
0.0
 30
0.0
  9
$UCSORGRIGHT
 10
0.0
 20
0.0
 30
0.0
  9
$UCSORGFRONT
 10
0.0
 20
0.0
 30
0.0
  9
$UCSORGBACK
 10
0.0
 20
0.0
 30
0.0
  9
$PUCSBASE
  2

  9
$PUCSNAME
  2

  9
$PUCSORG
 10
0.0
 20
0.0
 30
0.0
  9
$PUCSXDIR
 10
1.0
 20
0.0
 30
0.0
  9
$PUCSYDIR
 10
0.0
 20
1.0
 30
0.0
  9
$PUCSORTHOREF
  2

  9
$PUCSORTHOVIEW
 70
         0
  9
$PUCSORGTOP
 10
0.0
 20
0.0
 30
0.0
  9
$PUCSORGBOTTOM
 10
0.0
 20
0.0
 30
0.0
  9
$PUCSORGLEFT
 10
0.0
 20
0.0
 30
0.0
  9
$PUCSORGRIGHT
 10
0.0
 20
0.0
 30
0.0
  9
$PUCSORGFRONT
 10
0.0
 20
0.0
 30
0.0
  9
$PUCSORGBACK
 10
0.0
 20
0.0
 30
0.0
  9
$USERI1
 70
         0
  9
$USERI2
 70
         0
  9
$USERI3
 70
         0
  9
$USERI4
 70
         0
  9
$USERI5
 70
         0
  9
$USERR1
 40
0.0
  9
$USERR2
 40
0.0
  9
$USERR3
 40
0.0
  9
$USERR4
 40
0.0
  9
$USERR5
 40
0.0
  9
$WORLDVIEW
 70
         1
  9
$SHADEDGE
 70
         3
  9
$SHADEDIF
 70
        70
  9
$TILEMODE
 70
         1
  9
$MAXACTVP
 70
        16
  9
$PINSBASE
 10
0.0
 20
0.0
 30
0.0
  9
$PLIMCHECK
 70
         0
  9
$PEXTMIN
 10
1.0000000000E+20
 20
1.0000000000E+20
 30
1.0000000000E+20
  9
$PEXTMAX
 10
-1.0000000000E+20
 20
-1.0000000000E+20
 30
-1.0000000000E+20
  9
$PLIMMIN
 10
0.0
 20
0.0
  9
$PLIMMAX
 10
12.0
 20
9.0
  9
$UNITMODE
 70
         0
  9
$VISRETAIN
 70
         0
  9
$PLINEGEN
 70
         1
  9
$PSLTSCALE
 70
         0
  9
$TREEDEPTH
 70
      3020
  9
$CMLSTYLE
  2
Standard
  9
$CMLJUST
 70
         0
  9
$CMLSCALE
 40
1.0
  9
$PROXYGRAPHICS
 70
         0
  9
$MEASUREMENT
 70
         0
  9
$CELWEIGHT
370
         0
  9
$ENDCAPS
280
         0
  9
$JOINSTYLE
280
         0
  9
$LWDISPLAY
290
         0
  9
$INSUNITS
 70
         0
  9
$HYPERLINKBASE
  1

  9
$XEDIT
290
         1
  9
$CEPSNTYPE
380
         0
  9
$PSTYLEMODE
290
         1
  9
$FINGERPRINTGUID
  2

  9
$VERSIONGUID
  2

  9
$EXTNAMES
290
         1
  9
$PSVPSCALE
 40
0.0
  0
ENDSEC
  0
SECTION
  2
CLASSES
  0
CLASS
  1
LWPOLYLINE
  2
AcDbPolyline
  3
AutoCAD 2000
 90
    32768
280
         0
281
         1
  0
CLASS
  1
IMAGE
  2
AcDbRasterImage
  3
ISM
 90
    32895
280
         0
281
         1
  0
CLASS
  1
OLE2FRAME
  2
AcDbOle2Frame
  3
AutoCAD 2000
 90
    32768
280
         0
281
         1
  0
CLASS
  1
HATCH
  2
AcDbHatch
  3
AutoCAD 2000
 90
    32768
280
         0
281
         1
  0
CLASS
  1
DICTIONARYVAR
  2
AcDbDictionaryVar
  3
AutoCAD 2000
 90
    32768
280
         0
281
         0
  0
CLASS
  1
RASTERVARIABLES
  2
AcDbRasterVariables
  3
ISM
 90
    32768
280
         0
281
         0
  0
CLASS
  1
IMAGEDEF
  2
AcDbRasterImageDef
  3
ISM
 90
    32768
280
         0
281
         0
  0
CLASS
  1
IMAGEDEF_REACTOR
  2
AcDbRasterImageDefReactor
  3
ISM
 90
    32769
280
         0
281
         0
  0
CLASS
  1
IDBUFFER
  2
AcDbIdBuffer
  3
AutoCAD 2000
 90
    32768
280
         0
281
         0
  0
CLASS
  1
SPATIAL_FILTER
  2
AcDbSpatialFilter
  3
AutoCAD 2000
 90
    32768
280
         0
281
         0
  0
CLASS
  1
XRECORD
  2
AcDbXrecord
  3
AutoCAD 2000
 90
    32768
280
         0
281
         0
  0
CLASS
  1
SORTENTSTABLE
  2
AcDbSortentsTable
  3
AutoCAD 2000
 90
    32768
280
         0
281
         0
  0
CLASS
  1
LAYER_INDEX
  2
AcDbLayerIndex
  3
AutoCAD 2000
 90
    32768
280
         0
281
         0
  0
CLASS
  1
SPATIAL_INDEX
  2
AcDbSpatialIndex
  3
AutoCAD 2000
 90
    32768
280
         0
281
         0
  0
CLASS
  1
OBJECT_PTR
  2
CAseDLPNTableRecord
  3
"ASE-LPNTableRecord"
 90
    32769
280
         0
281
         0
  0
CLASS
  1
LAYOUT
  2
AcDbLayout
  3
AutoCAD 2000
 90
        0
280
         0
281
         0
  0
CLASS
  1
PLOTSETTINGS
  2
AcDbPlotSettings
  3
AutoCAD 2000
 90
    32768
280
         0
281
         0
  0
CLASS
  1
ACDBDICTIONARYWDFLT
  2
AcDbDictionaryWithDefault
  3
AutoCAD 2000
 90
        0
280
         0
281
         0
  0
CLASS
  1
ACDBPLACEHOLDER
  2
AcDbPlaceHolder
  3
AutoCAD 2000
 90
        0
280
         0
281
         0
  0
CLASS
  1
VBA_PROJECT
  2
AcDbVbaProject
  3
acadvba
 90
    32768
280
         0
281
         0
  0
CLASS
  1
WIPEOUT
  2
AcDbWipeout
  3
WipeOut|AutoCAD Express Tool|expresstools@autodesk.com
 90
    32895
280
         0
281
         1
  0
CLASS
  1
WIPEOUTVARIABLES
  2
AcDbWipeoutVariables
  3
WipeOut|AutoCAD Express Tool|expresstools@autodesk.com
 90
        0
280
         0
281
         0
  0
CLASS
  1
RTEXT
  2
RText
  3
RText|AutoCAD Express Tool|expresstools@autodesk.com
 90
    32768
280
         0
281
         1
  0
CLASS
  1
ARCALIGNEDTEXT
  2
AcDbArcAlignedText
  3
ATEXT|AutoCAD Express Tool|expresstools@autodesk.com
 90
    32768
280
         0
281
         1
  0
ENDSEC
  0
SECTION
  2
TABLES
  0
TABLE
  2
VPORT
  5
7
100
AcDbSymbolTable
 70
         1
  0
VPORT
  5
15
100
AcDbSymbolTableRecord
100
AcDbViewportTableRecord
  2
*ACTIVE
 70
         0
 10
0.0
 20
0.0
 11
1.0
 21
1.0
 12
6.591288
 22
4.579184
 13
0.0
 23
0.0
 14
1.0
 24
1.0
 15
0.0
 25
0.0
 16
0.0
 26
0.0
 36
1.0
 17
0.0
 27
0.0
 37
0.0
 40
9.158369
 41
0.688564
 42
50.0
 43
0.0
 44
0.0
 50
0.0
 51
0.0
 71
         0
 72
       100
 73
         1
 74
         1
 75
         0
 76
         0
 77
         0
 78
         0
281
         0
 65
         0
110
0.0
120
0.0
130
0.0
111
1.0
121
0.0
131
0.0
112
0.0
122
1.0
132
0.0
345
0
346
0
 79
         0
146
0.0
  0
ENDTAB
  0
TABLE
  2
LTYPE
  5
4
100
AcDbSymbolTable
 70
        13
  0
LTYPE
  5
11
100
AcDbSymbolTableRecord
100
AcDbLinetypeTableRecord
  2
ByBlock
 70
        64
  3

 72
        65
 73
         0
 40
0.0
  0
LTYPE
  5
12
100
AcDbSymbolTableRecord
100
AcDbLinetypeTableRecord
  2
ByLayer
 70
        64
  3

 72
        65
 73
         0
 40
0.0
  0
LTYPE
  5
13
100
AcDbSymbolTableRecord
100
AcDbLinetypeTableRecord
  2
Continuous
 70
        64
  3
Solid line
 72
        65
 73
         0
 40
0.0
  0
LTYPE
  5
25
100
AcDbSymbolTableRecord
100
AcDbLinetypeTableRecord
  2
Dotted
 70
        64
  3
Dotted
 72
        65
 73
         2
 40
0.125
 49
0.0
 74
         0
 49
-0.125
 74
         0
  0
LTYPE
  5
26
100
AcDbSymbolTableRecord
100
AcDbLinetypeTableRecord
  2
Center
 70
        64
  3
Center
 72
        65
 73
         4
 40
0.7699999809
 49
0.5
 74
         0
 49
-0.0724999979
 74
         0
 49
0.125
 74
         0
 49
-0.0724999979
 74
         0
  0
LTYPE
  5
27
100
AcDbSymbolTableRecord
100
AcDbLinetypeTableRecord
  2
Dashed
 70
        64
  3
Dashed
 72
        65
 73
         2
 40
0.375
 49
0.25
 74
         0
 49
-0.125
 74
         0
  0
LTYPE
  5
28
100
AcDbSymbolTableRecord
100
AcDbLinetypeTableRecord
  2
Hidden
 70
        64
  3
Hidden
 72
        65
 73
         2
 40
0.1974999905
 49
0.125
 74
         0
 49
-0.0724999979
 74
         0
  0
LTYPE
  5
29
100
AcDbSymbolTableRecord
100
AcDbLinetypeTableRecord
  2
Phantom
 70
        64
  3
Phantom
 72
        65
 73
         6
 40
0.9674999714
 49
0.5
 74
         0
 49
-0.0724999979
 74
         0
 49
0.125
 74
         0
 49
-0.0724999979
 74
         0
 49
0.125
 74
         0
 49
-0.0724999979
 74
         0
  0
LTYPE
  5
2A
100
AcDbSymbolTableRecord
100
AcDbLinetypeTableRecord
  2
Dashdot
 70
        64
  3
Dashdot
 72
        65
 73
         4
 40
0.6762499809
 49
0.5
 74
         0
 49
-0.0724999979
 74
         0
 49
0.03125
 74
         0
 49
-0.0724999979
 74
         0
  0
LTYPE
  5
2B
100
AcDbSymbolTableRecord
100
AcDbLinetypeTableRecord
  2
Border
 70
        64
  3
Border
 72
        65
 73
         6
 40
1.2487499714
 49
0.5
 74
         0
 49
-0.0724999979
 74
         0
 49
0.5
 74
         0
 49
-0.0724999979
 74
         0
 49
0.03125
 74
         0
 49
-0.0724999979
 74
         0
  0
LTYPE
  5
2C
100
AcDbSymbolTableRecord
100
AcDbLinetypeTableRecord
  2
Divide
 70
        64
  3
Divide
 72
        65
 73
         6
 40
0.7799999714
 49
0.5
 74
         0
 49
-0.0724999979
 74
         0
 49
0.03125
 74
         0
 49
-0.0724999979
 74
         0
 49
0.03125
 74
         0
 49
-0.0724999979
 74
         0
  0
LTYPE
  5
2D
100
AcDbSymbolTableRecord
100
AcDbLinetypeTableRecord
  2
Cutting
 70
        64
  3
Cutting
 72
        65
 73
         6
 40
1.4674999714
 49
1.0
 74
         0
 49
-0.0724999979
 74
         0
 49
0.125
 74
         0
 49
-0.0724999979
 74
         0
 49
0.125
 74
         0
 49
-0.0724999979
 74
         0
  0
LTYPE
  5
2E
100
AcDbSymbolTableRecord
100
AcDbLinetypeTableRecord
  2
Stitch
 70
        64
  3
Stitch
 72
        65
 73
         2
 40
0.1449999958
 49
0.0724999979
 74
         0
 49
-0.0724999979
 74
         0
  0
ENDTAB
  0
TABLE
  2
LAYER
  5
2
100
AcDbSymbolTable
 70
        42
  0
LAYER
  5
14
100
AcDbSymbolTableRecord
100
AcDbLayerTableRecord
  2
0
 70
         0
 62
         7
  6
Continuous
290
         1
370
        -3
390
1D
  0
LAYER
  5
2F
100
AcDbSymbolTableRecord
100
AcDbLayerTableRecord
  2
DF_COMP
 70
         0
 62
         4
  6
Continuous
290
         1
370
         2
390
1F
  0
LAYER
  5
30
100
AcDbSymbolTableRecord
100
AcDbLayerTableRecord
  2
1_250BIT_500DEP
 70
         0
 62
         5
  6
Continuous
290
         1
370
         2
390
1F
  0
LAYER
  5
31
100
AcDbSymbolTableRecord
100
AcDbLayerTableRecord
  2
2_250BIT_250DEP
 70
         0
 62
         3
  6
Continuous
290
         1
370
         2
390
1F
  0
LAYER
  5
32
100
AcDbSymbolTableRecord
100
AcDbLayerTableRecord
  2
3_250BIT_500TAB
 70
         0
 62
         5
  6
Continuous
290
         1
370
         2
390
1F
  0
LAYER
  5
33
100
AcDbSymbolTableRecord
100
AcDbLayerTableRecord
  2
4_250BIT_250TAB
 70
         0
 62
         5
  6
Continuous
290
         1
370
         2
390
1F
  0
LAYER
  5
34
100
AcDbSymbolTableRecord
100
AcDbLayerTableRecord
  2
5_250BIT_250SPEC
 70
         0
 62
         5
  6
Continuous
290
         1
370
         2
390
1F
  0
LAYER
  5
35
100
AcDbSymbolTableRecord
100
AcDbLayerTableRecord
  2
6_125BIT_500DEP
 70
         0
 62
         5
  6
Continuous
290
         1
370
         2
390
1F
  0
LAYER
  5
36
100
AcDbSymbolTableRecord
100
AcDbLayerTableRecord
  2
7_VCARVE_BIT
 70
         0
 62
         5
  6
Continuous
290
         1
370
         2
390
1F
  0
LAYER
  5
37
100
AcDbSymbolTableRecord
100
AcDbLayerTableRecord
  2
8_250BIT_500OUTLINE
 70
         0
 62
         5
  6
Continuous
290
         1
370
         2
390
1F
  0
LAYER
  5
38
100
AcDbSymbolTableRecord
100
AcDbLayerTableRecord
  2
PLASTICS
 70
         0
 62
        37
  6
Continuous
290
         1
370
         2
390
1F
  0
LAYER
  5
39
100
AcDbSymbolTableRecord
100
AcDbLayerTableRecord
  2
7A_1250BALL
 70
         0
 62
         5
  6
Continuous
290
         1
370
         2
390
1F
  0
LAYER
  5
3A
100
AcDbSymbolTableRecord
100
AcDbLayerTableRecord
  2
CONSTRUCTION
 70
         0
 62
         7
  6
Continuous
290
         1
370
         0
390
1F
  0
LAYER
  5
3B
100
AcDbSymbolTableRecord
100
AcDbLayerTableRecord
  2
0_WOOD
 70
         0
 62
         5
  6
Continuous
290
         1
370
         2
390
1F
  0
LAYER
  5
3C
100
AcDbSymbolTableRecord
100
AcDbLayerTableRecord
  2
Z_TATTOOMYSTIQUE
 70
         0
 62
        37
  6
Continuous
290
         1
370
         2
390
1F
  0
LAYER
  5
3D
100
AcDbSymbolTableRecord
100
AcDbLayerTableRecord
  2
Z_ROLLRGIRLZ
 70
         0
 62
        37
  6
Continuous
290
         1
370
         2
390
1F
  0
LAYER
  5
3E
100
AcDbSymbolTableRecord
100
AcDbLayerTableRecord
  2
Z_MISSADV
 70
         0
 62
         5
  6
Continuous
290
         1
370
         2
390
1F
  0
LAYER
  5
3F
100
AcDbSymbolTableRecord
100
AcDbLayerTableRecord
  2
Z_JUPITERCRUSH
 70
         0
 62
        37
  6
Continuous
290
         1
370
         2
390
1F
  0
LAYER
  5
40
100
AcDbSymbolTableRecord
100
AcDbLayerTableRecord
  2
Z_MODULAR
 70
         0
 62
         5
  6
Continuous
290
         1
370
         2
390
1F
  0
LAYER
  5
41
100
AcDbSymbolTableRecord
100
AcDbLayerTableRecord
  2
Z_GENERIC
 70
         0
 62
        27
  6
Continuous
290
         1
370
         2
390
1F
  0
LAYER
  5
42
100
AcDbSymbolTableRecord
100
AcDbLayerTableRecord
  2
UNASSIGNED
 70
         0
 62
         7
  6
Continuous
290
         1
370
         0
390
1F
  0
LAYER
  5
43
100
AcDbSymbolTableRecord
100
AcDbLayerTableRecord
  2
0
 70
         0
 62
        42
  6
Continuous
290
         1
370
         2
390
1F
  0
LAYER
  5
44
100
AcDbSymbolTableRecord
100
AcDbLayerTableRecord
  2
LAYER_1
 70
         0
 62
        42
  6
Continuous
290
         1
370
         2
390
1F
  0
LAYER
  5
45
100
AcDbSymbolTableRecord
100
AcDbLayerTableRecord
  2
LAYER_3
 70
         0
 62
         4
  6
Continuous
290
         1
370
         2
390
1F
  0
LAYER
  5
46
100
AcDbSymbolTableRecord
100
AcDbLayerTableRecord
  2
LAYER_2
 70
         0
 62
        42
  6
Continuous
290
         1
370
         2
390
1F
  0
LAYER
  5
47
100
AcDbSymbolTableRecord
100
AcDbLayerTableRecord
  2
X_POSTS
 70
         0
 62
         4
  6
Continuous
290
         1
370
         2
390
1F
  0
LAYER
  5
48
100
AcDbSymbolTableRecord
100
AcDbLayerTableRecord
  2
X_THUMPER
 70
         0
 62
         4
  6
Continuous
290
         1
370
         2
390
1F
  0
LAYER
  5
49
100
AcDbSymbolTableRecord
100
AcDbLayerTableRecord
  2
X_STANDUPS
 70
         0
 62
         4
  6
Continuous
290
         1
370
         2
390
1F
  0
LAYER
  5
4A
100
AcDbSymbolTableRecord
100
AcDbLayerTableRecord
  2
X_DROPS
 70
         0
 62
         4
  6
Continuous
290
         1
370
         2
390
1F
  0
LAYER
  5
4B
100
AcDbSymbolTableRecord
100
AcDbLayerTableRecord
  2
X_SMPOSTS
 70
         0
 62
         4
  6
Continuous
290
         1
370
         2
390
1F
  0
LAYER
  5
4C
100
AcDbSymbolTableRecord
100
AcDbLayerTableRecord
  2
X_ROLLOVER
 70
         0
 62
         4
  6
Continuous
290
         1
370
         2
390
1F
  0
LAYER
  5
4D
100
AcDbSymbolTableRecord
100
AcDbLayerTableRecord
  2
X_WALLS
 70
         0
 62
         4
  6
Continuous
290
         1
370
         2
390
1F
  0
LAYER
  5
4E
100
AcDbSymbolTableRecord
100
AcDbLayerTableRecord
  2
Z0_BOTCOMP
 70
         0
 62
         4
  6
Continuous
290
         1
370
         2
390
1F
  0
LAYER
  5
4F
100
AcDbSymbolTableRecord
100
AcDbLayerTableRecord
  2
Z0_TOPCOMP
 70
         0
 62
         6
  6
Continuous
290
         1
370
         2
390
1F
  0
LAYER
  5
50
100
AcDbSymbolTableRecord
100
AcDbLayerTableRecord
  2
Z0_CUT250
 70
         0
 62
         4
  6
Continuous
290
         1
370
         2
390
1F
  0
LAYER
  5
51
100
AcDbSymbolTableRecord
100
AcDbLayerTableRecord
  2
Z0_CUT500
 70
         0
 62
         4
  6
Continuous
290
         1
370
         2
390
1F
  0
LAYER
  5
52
100
AcDbSymbolTableRecord
100
AcDbLayerTableRecord
  2
Z0_PLASTICS
 70
         0
 62
        37
  6
Continuous
290
         1
370
         2
390
1F
  0
LAYER
  5
53
100
AcDbSymbolTableRecord
100
AcDbLayerTableRecord
  2
Z0_RUBBER
 70
         0
 62
         4
  6
Continuous
290
         1
370
         2
390
1F
  0
LAYER
  5
54
100
AcDbSymbolTableRecord
100
AcDbLayerTableRecord
  2
Z0_ZONES
 70
         0
 62
         6
  6
Continuous
290
         1
370
         2
390
1F
  0
LAYER
  5
55
100
AcDbSymbolTableRecord
100
AcDbLayerTableRecord
  2
Z0_WOODOUTLINE
 70
         0
 62
         5
  6
Continuous
290
         1
370
         2
390
1F
  0
LAYER
  5
56
100
AcDbSymbolTableRecord
100
AcDbLayerTableRecord
  2
Z0_LOWERTHIRD
 70
         0
 62
         4
  6
Continuous
290
         1
370
         2
390
1F
  0
LAYER
  5
57
100
AcDbSymbolTableRecord
100
AcDbLayerTableRecord
  2
PART_A
 70
         0
 62
         4
  6
Continuous
290
         1
370
         2
390
1F
  0
ENDTAB
  0
TABLE
  2
STYLE
  5
3
100
AcDbSymbolTable
 70
         2
  0
STYLE
  5
17
100
AcDbSymbolTableRecord
100
AcDbTextStyleTableRecord
  2
Standard
 70
         0
 40
0.0
 41
1.0
 50
0.0
 71
         0
 42
0.0
  3
txt
  4

  0
STYLE
  5
24
100
AcDbSymbolTableRecord
100
AcDbTextStyleTableRecord
  2
Plotter
 70
         0
 40
0.0
 41
0.98
 50
0.0
 71
         0
 42
0.0
  3
SIMPLEX
  4

  0
ENDTAB
  0
TABLE
  2
VIEW
  5
5
100
AcDbSymbolTable
 70
         0
  0
ENDTAB
  0
TABLE
  2
UCS
  5
6
100
AcDbSymbolTable
 70
         0
  0
ENDTAB
  0
TABLE
  2
APPID
  5
8
100
AcDbSymbolTable
 70
         1
  0
APPID
  5
16
100
AcDbSymbolTableRecord
100
AcDbRegAppTableRecord
  2
ACAD
 70
         0
  0
ENDTAB
  0
TABLE
  2
DIMSTYLE
  5
9
100
AcDbSymbolTable
 70
         1
100
AcDbDimStyleTable
 71
         0
  0
DIMSTYLE
105
18
100
AcDbSymbolTableRecord
100
AcDbDimStyleTableRecord
  2
Standard
 70
         0
  3

  4

 40
1.0
 41
0.18
 42
0.0625
 43
0.38
 44
0.18
 45
0.0
 46
0.0
 47
0.0
 48
0.0
 71
         0
 72
         0
 73
         1
 74
         1
 75
         0
 76
         0
 77
         0
 78
         0
 79
         0
140
0.18
141
0.09
142
0.0
143
25.4
144
1.0
145
0.0
146
1.0
147
0.09
148
0.0
170
         0
171
         2
172
         0
173
         0
174
         0
175
         0
176
         0
177
         0
178
         0
179
         0
271
         4
272
         4
273
         2
274
         2
275
         0
276
         0
277
         2
278
        46
279
         0
280
         0
281
         0
282
         0
283
         1
284
         0
285
         0
286
         0
288
         0
340
17
341
0
342
0
343
0
344
0
371
        -2
372
        -2
  0
ENDTAB
  0
TABLE
  2
BLOCK_RECORD
  5
1
100
AcDbSymbolTable
 70
         0
  0
BLOCK_RECORD
  5
A
100
AcDbSymbolTableRecord
100
AcDbBlockTableRecord
  2
*MODEL_SPACE
340
20
  0
BLOCK_RECORD
  5
B
100
AcDbSymbolTableRecord
100
AcDbBlockTableRecord
  2
*PAPER_SPACE
340
21
  0
ENDTAB
  0
ENDSEC
  0
SECTION
  2
BLOCKS
  0
BLOCK
  5
D
100
AcDbEntity
  8
0
100
AcDbBlockBegin
  2
*MODEL_SPACE
 70
         0
 10
0.0
 20
0.0
 30
0.0
  3
*MODEL_SPACE
  1

  0
ENDBLK
  5
E
100
AcDbEntity
  8
0
100
AcDbBlockEnd
  0
BLOCK
  5
F
100
AcDbEntity
 67
         1
  8
0
100
AcDbBlockBegin
  2
*PAPER_SPACE
 70
         0
 10
0.0
 20
0.0
 30
0.0
  3
*PAPER_SPACE
  1

  0
ENDBLK
  5
10
100
AcDbEntity
 67
         1
  8
0
100
AcDbBlockEnd
  0
ENDSEC
  0
SECTION
  2
ENTITIES
  0
LINE
  5
58
100
AcDbEntity
  8
6_125BIT_500DEP
370
        25
  6
Continuous
 62
         5
100
AcDbLine
 10
15.1100491438
 20
12.8134538694
 30
0.0
 11
15.1100491438
 21
11.1134538694
 31
0.0
  0
CIRCLE
  5
59
100
AcDbEntity
  8
3_250BIT_500TAB
370
        25
  6
Continuous
 62
         5
100
AcDbCircle
 10
17.2328183036
 20
7.8993663772
 30
0.0
 40
0.25
  0
CIRCLE
  5
5A
100
AcDbEntity
  8
6_125BIT_500DEP
370
        25
  6
Continuous
 62
         5
100
AcDbCircle
 10
16.5530874633
 20
7.5824026809
 30
0.0
 40
0.0825
  0
CIRCLE
  5
5B
102
{ACAD_REACTORS
330
5D
102
}
100
AcDbEntity
  8
0
370
        25
  6
Continuous
 62
        47
100
AcDbCircle
 10
16.5530874633
 20
7.5824026809
 30
0.0
 40
0.4
  0
CIRCLE
  5
5C
102
{ACAD_REACTORS
330
5D
102
}
100
AcDbEntity
  8
0
370
        25
  6
Continuous
 62
        47
100
AcDbCircle
 10
16.5530874633
 20
7.5824026809
 30
0.0
 40
0.215
  0
CIRCLE
  5
5E
100
AcDbEntity
  8
X_ROLLOVER
370
        25
  6
Continuous
 62
        27
100
AcDbCircle
 10
16.5530874633
 20
7.5824026809
 30
0.0
 40
0.35
  0
CIRCLE
  5
5F
102
{ACAD_REACTORS
330
61
102
}
100
AcDbEntity
  8
0
370
        25
  6
Continuous
 62
        47
100
AcDbCircle
 10
14.4684032674
 20
8.7851336349
 30
0.0
 40
0.4
  0
CIRCLE
  5
60
102
{ACAD_REACTORS
330
61
102
}
100
AcDbEntity
  8
0
370
        25
  6
Continuous
 62
        47
100
AcDbCircle
 10
14.4684032674
 20
8.7851336349
 30
0.0
 40
0.215
  0
LINE
  5
62
102
{ACAD_REACTORS
330
6C
102
}
100
AcDbEntity
  8
X_ROLLOVER
370
         5
  6
Continuous
 62
        27
100
AcDbLine
 10
14.5954461327
 20
9.3295233027
 30
0.0
 11
14.9801407208
 21
9.0101331433
 31
0.0
  0
LINE
  5
63
102
{ACAD_REACTORS
330
6C
102
}
100
AcDbEntity
  8
X_ROLLOVER
370
         5
  6
Continuous
 62
        27
100
AcDbLine
 10
15.7133116904
 20
10.675954361
 30
0.0
 11
16.0980062785
 21
10.3565642016
 31
0.0
  0
LINE
  5
64
102
{ACAD_REACTORS
330
6C
102
}
100
AcDbEntity
  8
X_ROLLOVER
370
         5
  6
Continuous
 62
        27
100
AcDbLine
 10
14.5555223628
 20
9.2814364791
 30
0.0
 11
14.9402169509
 21
8.9620463198
 31
0.0
  0
LINE
  5
65
102
{ACAD_REACTORS
330
6C
102
}
100
AcDbEntity
  8
X_ROLLOVER
370
         5
  6
Continuous
 62
        27
100
AcDbLine
 10
15.7532354604
 20
10.7240411845
 30
0.0
 11
16.1379300485
 21
10.4046510252
 31
0.0
  0
CIRCLE
  5
66
102
{ACAD_REACTORS
330
6C
102
}
100
AcDbEntity
  8
X_ROLLOVER
370
         5
  6
Continuous
 62
        27
100
AcDbCircle
 10
14.4684032674
 20
8.7851336349
 30
0.0
 40
0.0625
  0
CIRCLE
  5
67
102
{ACAD_REACTORS
330
6C
102
}
100
AcDbEntity
  8
X_ROLLOVER
370
         5
  6
Continuous
 62
        27
100
AcDbCircle
 10
16.2250491438
 20
10.9009538694
 30
0.0
 40
0.0625
  0
ARC
  5
68
102
{ACAD_REACTORS
330
6C
102
}
100
AcDbEntity
  8
X_ROLLOVER
370
         5
  6
Continuous
 62
        27
100
AcDbCircle
 10
14.4684032674
 20
8.7851336349
 30
0.0
 40
0.25
100
AcDbArc
 50
140.2990690535
 51
-39.7009309465
  0
LINE
  5
69
102
{ACAD_REACTORS
330
6C
102
}
100
AcDbEntity
  8
X_ROLLOVER
370
         5
  6
Continuous
 62
        27
100
AcDbLine
 10
16.0327018498
 20
11.0606489491
 30
0.0
 11
14.2760559734
 21
8.9448287146
 31
0.0
  0
LINE
  5
6A
102
{ACAD_REACTORS
330
6C
102
}
100
AcDbEntity
  8
X_ROLLOVER
370
         5
  6
Continuous
 62
        27
100
AcDbLine
 10
14.6607505615
 20
8.6254385552
 30
0.0
 11
16.4173964379
 21
10.7412587897
 31
0.0
  0
ARC
  5
6B
102
{ACAD_REACTORS
330
6C
102
}
100
AcDbEntity
  8
X_ROLLOVER
370
         5
  6
Continuous
 62
        27
100
AcDbCircle
 10
16.2250491438
 20
10.9009538694
 30
0.0
 40
0.25
100
AcDbArc
 50
-39.7009309465
 51
140.2990690535
  0
LINE
  5
6D
100
AcDbEntity
  8
6_125BIT_500DEP
370
        25
  6
Continuous
 62
         5
100
AcDbLine
 10
15.2900491438
 20
12.8134538694
 30
0.0
 11
15.2900491438
 21
11.1134538694
 31
0.0
  0
CIRCLE
  5
6E
102
{ACAD_REACTORS
330
79
102
}
100
AcDbEntity
  8
X_ROLLOVER
370
        25
  6
Continuous
 62
        27
100
AcDbCircle
 10
16.5530874633
 20
7.5824026809
 30
0.0
 40
0.075
  0
CIRCLE
  5
6F
102
{ACAD_REACTORS
330
79
102
}
100
AcDbEntity
  8
X_ROLLOVER
370
        25
  6
Continuous
 62
        27
100
AcDbCircle
 10
17.9125491438
 20
8.2163300735
 30
0.0
 40
0.075
  0
LINE
  5
70
102
{ACAD_REACTORS
330
78
102
}
100
AcDbEntity
  8
X_ROLLOVER
370
        25
  6
Continuous
 62
        27
100
AcDbLine
 10
18.0604655355
 20
7.899122348
 30
0.0
 11
18.0815964485
 21
7.8538069587
 31
0.0
  0
LINE
  5
71
102
{ACAD_REACTORS
330
78
102
}
100
AcDbEntity
  8
X_ROLLOVER
370
        25
  6
Continuous
 62
        27
100
AcDbLine
 10
18.0815964485
 20
7.8538069587
 30
0.0
 11
16.722134768
 21
7.2198795661
 31
0.0
  0
LINE
  5
72
102
{ACAD_REACTORS
330
78
102
}
100
AcDbEntity
  8
X_ROLLOVER
370
        25
  6
Continuous
 62
        27
100
AcDbLine
 10
16.722134768
 20
7.2198795661
 30
0.0
 11
16.7010038549
 21
7.2651949554
 31
0.0
  0
LINE
  5
73
102
{ACAD_REACTORS
330
78
102
}
100
AcDbEntity
  8
X_ROLLOVER
370
        25
  6
Continuous
 62
        27
100
AcDbLine
 10
17.7646327522
 20
8.5335377989
 30
0.0
 11
17.7435018391
 21
8.5788531883
 31
0.0
  0
LINE
  5
74
102
{ACAD_REACTORS
330
78
102
}
100
AcDbEntity
  8
X_ROLLOVER
370
        25
  6
Continuous
 62
        27
100
AcDbLine
 10
17.7435018391
 20
8.5788531883
 30
0.0
 11
16.3840401586
 21
7.9449257957
 31
0.0
  0
LINE
  5
75
102
{ACAD_REACTORS
330
78
102
}
100
AcDbEntity
  8
X_ROLLOVER
370
        25
  6
Continuous
 62
        27
100
AcDbLine
 10
16.3840401586
 20
7.9449257957
 30
0.0
 11
16.4051710717
 21
7.8996104063
 31
0.0
  0
ARC
  5
76
102
{ACAD_REACTORS
330
78
102
}
100
AcDbEntity
  8
X_ROLLOVER
370
        25
  6
Continuous
 62
        27
100
AcDbCircle
 10
17.9125491438
 20
8.2163300735
 30
0.0
 40
0.35
100
AcDbArc
 50
-65.0
 51
115.0
  0
ARC
  5
77
102
{ACAD_REACTORS
330
78
102
}
100
AcDbEntity
  8
X_ROLLOVER
370
        25
  6
Continuous
 62
        27
100
AcDbCircle
 10
16.5530874633
 20
7.5824026809
 30
0.0
 40
0.35
100
AcDbArc
 50
115.0
 51
-65.0
  0
LINE
  5
7A
100
AcDbEntity
  8
Z0_CUT500
370
         5
  6
Continuous
 62
        47
100
AcDbLine
 10
18.0815964485
 20
7.8538069587
 30
0.0
 11
18.0499000789
 21
7.9217800427
 31
0.0
  0
LINE
  5
7B
100
AcDbEntity
  8
Z0_CUT500
370
         5
  6
Continuous
 62
        47
100
AcDbLine
 10
17.7751982088
 20
8.5108801043
 30
0.0
 11
17.7435018391
 21
8.5788531883
 31
0.0
  0
LINE
  5
7C
100
AcDbEntity
  8
Z0_CUT500
370
         5
  6
Continuous
 62
        47
100
AcDbLine
 10
16.4157365282
 20
7.8769527117
 30
0.0
 11
16.3840401586
 21
7.9449257957
 31
0.0
  0
LINE
  5
7D
100
AcDbEntity
  8
Z0_CUT500
370
         5
  6
Continuous
 62
        47
100
AcDbLine
 10
18.0815964485
 20
7.8538069587
 30
0.0
 11
16.722134768
 21
7.2198795661
 31
0.0
  0
ARC
  5
7E
100
AcDbEntity
  8
Z0_CUT500
370
         5
  6
Continuous
 62
        47
100
AcDbCircle
 10
16.5530874633
 20
7.5824026809
 30
0.0
 40
0.325
100
AcDbArc
 50
115.0
 51
-65.0
  0
ARC
  5
7F
100
AcDbEntity
  8
Z0_CUT500
370
         5
  6
Continuous
 62
        47
100
AcDbCircle
 10
14.1750491438
 20
11.4379425735
 30
0.0
 40
0.5
100
AcDbArc
 50
-45.3464857412
 51
-0.0
  0
CIRCLE
  5
80
100
AcDbEntity
  8
X_ROLLOVER
370
        25
  6
Continuous
 62
        27
100
AcDbCircle
 10
14.1750491438
 20
11.4379425735
 30
0.0
 40
0.35
  0
CIRCLE
  5
81
102
{ACAD_REACTORS
330
83
102
}
100
AcDbEntity
  8
0
370
        25
  6
Continuous
 62
        47
100
AcDbCircle
 10
14.1750491438
 20
11.4379425735
 30
0.0
 40
0.4
  0
CIRCLE
  5
82
102
{ACAD_REACTORS
330
83
102
}
100
AcDbEntity
  8
0
370
        25
  6
Continuous
 62
        47
100
AcDbCircle
 10
14.1750491438
 20
11.4379425735
 30
0.0
 40
0.215
  0
ARC
  5
84
100
AcDbEntity
  8
6_125BIT_500DEP
370
        25
  6
Continuous
 62
         5
100
AcDbCircle
 10
15.2000491438
 20
12.8134538694
 30
0.0
 40
0.09
100
AcDbArc
 50
0.0
 51
180.0
  0
LINE
  5
85
100
AcDbEntity
  8
0
370
         5
  6
Continuous
 62
        47
100
AcDbLine
 10
13.2246093661
 20
9.936633709
 30
0.0
 11
14.4561762554
 21
11.1533946037
 31
0.0
  0
LINE
  5
86
100
AcDbEntity
  8
Z0_CUT250
370
         5
  6
Continuous
 62
        47
100
AcDbLine
 10
14.4561762554
 20
11.1533946037
 30
0.0
 11
13.2246093661
 21
9.936633709
 31
0.0
  0
LINE
  5
87
102
{ACAD_REACTORS
330
8F
102
}
100
AcDbEntity
  8
X_ROLLOVER
370
        25
  6
Continuous
 62
        27
100
AcDbLine
 10
16.5750491438
 20
13.0259538694
 30
0.0
 11
16.6250491438
 21
13.0259538694
 31
0.0
  0
LINE
  5
88
102
{ACAD_REACTORS
330
8F
102
}
100
AcDbEntity
  8
X_ROLLOVER
370
        25
  6
Continuous
 62
        27
100
AcDbLine
 10
16.6250491438
 20
13.0259538694
 30
0.0
 11
16.6250491438
 21
10.9009538694
 31
0.0
  0
LINE
  5
89
102
{ACAD_REACTORS
330
8F
102
}
100
AcDbEntity
  8
X_ROLLOVER
370
        25
  6
Continuous
 62
        27
100
AcDbLine
 10
15.8750491438
 20
13.0259538694
 30
0.0
 11
15.8250491438
 21
13.0259538694
 31
0.0
  0
LINE
  5
8A
102
{ACAD_REACTORS
330
8F
102
}
100
AcDbEntity
  8
X_ROLLOVER
370
        25
  6
Continuous
 62
        27
100
AcDbLine
 10
15.8250491438
 20
13.0259538694
 30
0.0
 11
15.8250491438
 21
10.9009538694
 31
0.0
  0
ARC
  5
8B
102
{ACAD_REACTORS
330
8F
102
}
100
AcDbEntity
  8
X_ROLLOVER
370
        25
  6
Continuous
 62
        27
100
AcDbCircle
 10
16.2250491438
 20
13.0259538694
 30
0.0
 40
0.35
100
AcDbArc
 50
0.0
 51
-180.0
  0
LINE
  5
8C
102
{ACAD_REACTORS
330
8F
102
}
100
AcDbEntity
  8
X_ROLLOVER
370
        25
  6
Continuous
 62
        27
100
AcDbLine
 10
15.8250491438
 20
10.9009538694
 30
0.0
 11
15.8750491438
 21
10.9009538694
 31
0.0
  0
LINE
  5
8D
102
{ACAD_REACTORS
330
8F
102
}
100
AcDbEntity
  8
X_ROLLOVER
370
        25
  6
Continuous
 62
        27
100
AcDbLine
 10
16.6250491438
 20
10.9009538694
 30
0.0
 11
16.5750491438
 21
10.9009538694
 31
0.0
  0
ARC
  5
8E
102
{ACAD_REACTORS
330
8F
102
}
100
AcDbEntity
  8
X_ROLLOVER
370
        25
  6
Continuous
 62
        27
100
AcDbCircle
 10
16.2250491438
 20
10.9009538694
 30
0.0
 40
0.35
100
AcDbArc
 50
-180.0
 51
0.0
  0
LINE
  5
90
100
AcDbEntity
  8
Z0_CUT500
370
         5
  6
Continuous
 62
        47
100
AcDbLine
 10
16.722134768
 20
7.2198795661
 30
0.0
 11
16.6904383984
 21
7.2878526501
 31
0.0
  0
LINE
  5
91
100
AcDbEntity
  8
Z0_CUT250
370
         5
  6
Continuous
 62
        55
100
AcDbLine
 10
17.7435018391
 20
8.5788531883
 30
0.0
 11
16.3840401586
 21
7.9449257957
 31
0.0
  0
LINE
  5
92
100
AcDbEntity
  8
Z0_CUT250
370
         5
  6
Continuous
 62
        55
100
AcDbLine
 10
18.0815964485
 20
7.8538069587
 30
0.0
 11
16.722134768
 21
7.2198795661
 31
0.0
  0
ARC
  5
93
100
AcDbEntity
  8
Z0_CUT250
370
         5
  6
Continuous
 62
        55
100
AcDbCircle
 10
16.5530874633
 20
7.5824026809
 30
0.0
 40
0.4
100
AcDbArc
 50
115.0
 51
-65.0
  0
CIRCLE
  5
94
100
AcDbEntity
  8
Z0_CUT250
370
         5
  6
Continuous
 62
        55
100
AcDbCircle
 10
16.5530874633
 20
7.5824026809
 30
0.0
 40
0.09
  0
CIRCLE
  5
95
100
AcDbEntity
  8
6_125BIT_500DEP
370
        25
  6
Continuous
 62
         5
100
AcDbCircle
 10
16.2250491438
 20
10.9009538694
 30
0.0
 40
0.0825
  0
ARC
  5
96
100
AcDbEntity
  8
6_125BIT_500DEP
370
        25
  6
Continuous
 62
         5
100
AcDbCircle
 10
17.2500491438
 20
11.1134538694
 30
0.0
 40
0.09
100
AcDbArc
 50
180.0
 51
0.0
  0
ARC
  5
97
100
AcDbEntity
  8
6_125BIT_500DEP
370
        25
  6
Continuous
 62
         5
100
AcDbCircle
 10
15.2000491438
 20
11.1134538694
 30
0.0
 40
0.09
100
AcDbArc
 50
180.0
 51
0.0
  0
ARC
  5
98
102
{ACAD_REACTORS
330
A3
102
}
100
AcDbEntity
  8
UNASSIGNED
370
        25
  6
Continuous
 62
         4
100
AcDbCircle
 10
16.2250491438
 20
10.9009538694
 30
0.0
 40
0.285
100
AcDbArc
 50
15.4320713506
 51
90.0
  0
ARC
  5
99
102
{ACAD_REACTORS
330
A3
102
}
100
AcDbEntity
  8
UNASSIGNED
370
        25
  6
Continuous
 62
         4
100
AcDbCircle
 10
16.2250491438
 20
10.9009538694
 30
0.0
 40
0.285
100
AcDbArc
 50
-104.5679286494
 51
-30.0
  0
ARC
  5
9A
102
{ACAD_REACTORS
330
A3
102
}
100
AcDbEntity
  8
UNASSIGNED
370
        25
  6
Continuous
 62
         4
100
AcDbCircle
 10
16.2250491438
 20
10.9009538694
 30
0.0
 40
0.285
100
AcDbArc
 50
135.4320713506
 51
-150.0
  0
LINE
  5
9B
102
{ACAD_REACTORS
330
A3
102
}
100
AcDbEntity
  8
UNASSIGNED
370
        25
  6
Continuous
 62
         4
100
AcDbLine
 10
16.4718663839
 20
10.7584538694
 30
0.0
 11
16.3982542246
 21
10.8009538694
 31
0.0
  0
LINE
  5
9C
102
{ACAD_REACTORS
330
A3
102
}
100
AcDbEntity
  8
UNASSIGNED
370
        25
  6
Continuous
 62
         4
100
AcDbLine
 10
16.3982542246
 20
10.8009538694
 30
0.0
 11
16.4997739271
 21
10.9767911522
 31
0.0
  0
LINE
  5
9D
102
{ACAD_REACTORS
330
A3
102
}
100
AcDbEntity
  8
UNASSIGNED
370
        25
  6
Continuous
 62
         4
100
AcDbLine
 10
15.9782319038
 20
10.7584538694
 30
0.0
 11
16.0518440631
 21
10.8009538694
 31
0.0
  0
LINE
  5
9E
102
{ACAD_REACTORS
330
A3
102
}
100
AcDbEntity
  8
UNASSIGNED
370
        25
  6
Continuous
 62
         4
100
AcDbLine
 10
16.0518440631
 20
10.8009538694
 30
0.0
 11
16.1533637656
 21
10.6251165867
 31
0.0
  0
LINE
  5
9F
102
{ACAD_REACTORS
330
A3
102
}
100
AcDbEntity
  8
UNASSIGNED
370
        25
  6
Continuous
 62
         4
100
AcDbLine
 10
16.2250491438
 20
11.1009538694
 30
0.0
 11
16.0220097388
 21
11.1009538694
 31
0.0
  0
LINE
  5
A0
102
{ACAD_REACTORS
330
A3
102
}
100
AcDbEntity
  8
UNASSIGNED
370
        25
  6
Continuous
 62
         4
100
AcDbLine
 10
16.2250491438
 20
11.1859538694
 30
0.0
 11
16.2250491438
 21
11.1009538694
 31
0.0
  0
CIRCLE
  5
A1
102
{ACAD_REACTORS
330
A3
102
}
100
AcDbEntity
  8
UNASSIGNED
370
        25
  6
Continuous
 62
         4
100
AcDbCircle
 10
16.2250491438
 20
10.9009538694
 30
0.0
 40
0.059
  0
CIRCLE
  5
A2
102
{ACAD_REACTORS
330
A3
102
}
100
AcDbEntity
  8
UNASSIGNED
370
        25
  6
Continuous
 62
         4
100
AcDbCircle
 10
16.2250491438
 20
10.9009538694
 30
0.0
 40
0.085
  0
ARC
  5
A4
102
{ACAD_REACTORS
330
AF
102
}
100
AcDbEntity
  8
UNASSIGNED
370
        25
  6
Continuous
 62
         4
100
AcDbCircle
 10
16.5530874633
 20
7.5824026809
 30
0.0
 40
0.285
100
AcDbArc
 50
-49.5679286494
 51
25.0
  0
ARC
  5
A5
102
{ACAD_REACTORS
330
AF
102
}
100
AcDbEntity
  8
UNASSIGNED
370
        25
  6
Continuous
 62
         4
100
AcDbCircle
 10
16.5530874633
 20
7.5824026809
 30
0.0
 40
0.285
100
AcDbArc
 50
-169.5679286494
 51
-95.0
  0
ARC
  5
A6
102
{ACAD_REACTORS
330
AF
102
}
100
AcDbEntity
  8
UNASSIGNED
370
        25
  6
Continuous
 62
         4
100
AcDbCircle
 10
16.5530874633
 20
7.5824026809
 30
0.0
 40
0.285
100
AcDbArc
 50
70.4320713506
 51
145.0
  0
LINE
  5
A7
102
{ACAD_REACTORS
330
AF
102
}
100
AcDbEntity
  8
UNASSIGNED
370
        25
  6
Continuous
 62
         4
100
AcDbLine
 10
16.5282480766
 20
7.2984871919
 30
0.0
 11
16.5356563147
 21
7.3831637413
 31
0.0
  0
LINE
  5
A8
102
{ACAD_REACTORS
330
AF
102
}
100
AcDbEntity
  8
UNASSIGNED
370
        25
  6
Continuous
 62
         4
100
AcDbLine
 10
16.5356563147
 20
7.3831637413
 30
0.0
 11
16.7379230935
 21
7.3654676911
 31
0.0
  0
LINE
  5
A9
102
{ACAD_REACTORS
330
AF
102
}
100
AcDbEntity
  8
UNASSIGNED
370
        25
  6
Continuous
 62
         4
100
AcDbLine
 10
16.3196291307
 20
7.7458719652
 30
0.0
 11
16.3892570544
 21
7.6971179681
 31
0.0
  0
LINE
  5
AA
102
{ACAD_REACTORS
330
AF
102
}
100
AcDbEntity
  8
UNASSIGNED
370
        25
  6
Continuous
 62
         4
100
AcDbLine
 10
16.3892570544
 20
7.6971179681
 30
0.0
 11
16.272798436
 21
7.5307978244
 31
0.0
  0
LINE
  5
AB
102
{ACAD_REACTORS
330
AF
102
}
100
AcDbEntity
  8
UNASSIGNED
370
        25
  6
Continuous
 62
         4
100
AcDbLine
 10
16.7343490207
 20
7.6669263332
 30
0.0
 11
16.6485408603
 21
7.8509425271
 31
0.0
  0
LINE
  5
AC
102
{ACAD_REACTORS
330
AF
102
}
100
AcDbEntity
  8
UNASSIGNED
370
        25
  6
Continuous
 62
         4
100
AcDbLine
 10
16.8113851826
 20
7.7028488855
 30
0.0
 11
16.7343490207
 21
7.6669263332
 31
0.0
  0
CIRCLE
  5
AD
102
{ACAD_REACTORS
330
AF
102
}
100
AcDbEntity
  8
UNASSIGNED
370
        25
  6
Continuous
 62
         4
100
AcDbCircle
 10
16.5530874633
 20
7.5824026809
 30
0.0
 40
0.059
  0
CIRCLE
  5
AE
102
{ACAD_REACTORS
330
AF
102
}
100
AcDbEntity
  8
UNASSIGNED
370
        25
  6
Continuous
 62
         4
100
AcDbCircle
 10
16.5530874633
 20
7.5824026809
 30
0.0
 40
0.085
  0
CIRCLE
  5
B0
100
AcDbEntity
  8
3_250BIT_500TAB
370
        25
  6
Continuous
 62
         5
100
AcDbCircle
 10
13.8744375767
 20
8.3271983138
 30
0.0
 40
0.25
  0
LINE
  5
B1
100
AcDbEntity
  8
Z0_CUT500
370
         5
  6
Continuous
 62
        47
100
AcDbLine
 10
17.1905564774
 20
7.9899971559
 30
0.0
 11
16.745677868
 21
7.6722090615
 31
0.0
  0
LINE
  5
B2
100
AcDbEntity
  8
Z0_CUT500
370
         5
  6
Continuous
 62
        47
100
AcDbLine
 10
16.745677868
 20
7.6722090615
 30
0.0
 11
17.2750801297
 21
7.8087355985
 31
0.0
  0
ARC
  5
B3
100
AcDbEntity
  8
Z0_CUT250
370
         5
  6
Continuous
 62
        47
100
AcDbCircle
 10
14.1750491438
 20
11.4379425735
 30
0.0
 40
0.4
100
AcDbArc
 50
-45.3464857412
 51
0.0
  0
ARC
  5
B4
100
AcDbEntity
  8
Z0_CUT250
370
         5
  6
Continuous
 62
        55
100
AcDbCircle
 10
17.9125491438
 20
8.2163300735
 30
0.0
 40
0.4
100
AcDbArc
 50
-65.0
 51
115.0
  0
ARC
  5
B5
100
AcDbEntity
  8
Z0_CUT500
370
         5
  6
Continuous
 62
        47
100
AcDbCircle
 10
17.9125491438
 20
8.2163300735
 30
0.0
 40
0.325
100
AcDbArc
 50
-65.0
 51
115.0
  0
LINE
  5
B6
100
AcDbEntity
  8
Z0_CUT500
370
         5
  6
Continuous
 62
        47
100
AcDbLine
 10
17.2750801297
 20
7.8087355985
 30
0.0
 11
17.7199587391
 21
8.1265236929
 31
0.0
  0
LINE
  5
B7
100
AcDbEntity
  8
Z0_CUT500
370
         5
  6
Continuous
 62
        47
100
AcDbLine
 10
17.7199587391
 20
8.1265236929
 30
0.0
 11
17.1905564774
 21
7.9899971559
 31
0.0
  0
CIRCLE
  5
B8
102
{ACAD_REACTORS
330
BA
102
}
100
AcDbEntity
  8
0
370
        25
  6
Continuous
 62
        47
100
AcDbCircle
 10
16.2250491438
 20
10.9009538694
 30
0.0
 40
0.4
  0
CIRCLE
  5
B9
102
{ACAD_REACTORS
330
BA
102
}
100
AcDbEntity
  8
0
370
        25
  6
Continuous
 62
        47
100
AcDbCircle
 10
16.2250491438
 20
10.9009538694
 30
0.0
 40
0.215
  0
CIRCLE
  5
BB
100
AcDbEntity
  8
X_ROLLOVER
370
        25
  6
Continuous
 62
        27
100
AcDbCircle
 10
16.2250491438
 20
10.9009538694
 30
0.0
 40
0.35
  0
LINE
  5
BC
100
AcDbEntity
  8
Z0_CUT500
370
         5
  6
Continuous
 62
        47
100
AcDbLine
 10
14.5264580333
 20
11.0822576112
 30
0.0
 11
13.294891144
 21
9.8654967166
 31
0.0
  0
CIRCLE
  5
BD
100
AcDbEntity
  8
X_ROLLOVER
370
        25
  6
Continuous
 62
        27
100
AcDbCircle
 10
16.2250491438
 20
10.9009538694
 30
0.0
 40
0.075
  0
LINE
  5
BE
100
AcDbEntity
  8
6_125BIT_500DEP
370
        25
  6
Continuous
 62
         5
100
AcDbLine
 10
17.1600491438
 20
12.8134538694
 30
0.0
 11
17.1600491438
 21
11.1134538694
 31
0.0
  0
LINE
  5
BF
100
AcDbEntity
  8
6_125BIT_500DEP
370
        25
  6
Continuous
 62
         5
100
AcDbLine
 10
17.3400491438
 20
12.8134538694
 30
0.0
 11
17.3400491438
 21
11.1134538694
 31
0.0
  0
CIRCLE
  5
C0
100
AcDbEntity
  8
6_125BIT_500DEP
370
        25
  6
Continuous
 62
         5
100
AcDbCircle
 10
17.9125491438
 20
8.2163300735
 30
0.0
 40
0.0825
  0
CIRCLE
  5
C1
102
{ACAD_REACTORS
330
C3
102
}
100
AcDbEntity
  8
0
370
        25
  6
Continuous
 62
        47
100
AcDbCircle
 10
17.9125491438
 20
8.2163300735
 30
0.0
 40
0.4
  0
CIRCLE
  5
C2
102
{ACAD_REACTORS
330
C3
102
}
100
AcDbEntity
  8
0
370
        25
  6
Continuous
 62
        47
100
AcDbCircle
 10
17.9125491438
 20
8.2163300735
 30
0.0
 40
0.215
  0
CIRCLE
  5
C4
100
AcDbEntity
  8
X_ROLLOVER
370
        25
  6
Continuous
 62
        27
100
AcDbCircle
 10
17.9125491438
 20
8.2163300735
 30
0.0
 40
0.35
  0
ARC
  5
C5
102
{ACAD_REACTORS
330
D0
102
}
100
AcDbEntity
  8
UNASSIGNED
370
        25
  6
Continuous
 62
         4
100
AcDbCircle
 10
17.9125491438
 20
8.2163300735
 30
0.0
 40
0.285
100
AcDbArc
 50
-49.5679286494
 51
25.0
  0
ARC
  5
C6
102
{ACAD_REACTORS
330
D0
102
}
100
AcDbEntity
  8
UNASSIGNED
370
        25
  6
Continuous
 62
         4
100
AcDbCircle
 10
17.9125491438
 20
8.2163300735
 30
0.0
 40
0.285
100
AcDbArc
 50
-169.5679286494
 51
-95.0
  0
ARC
  5
C7
102
{ACAD_REACTORS
330
D0
102
}
100
AcDbEntity
  8
UNASSIGNED
370
        25
  6
Continuous
 62
         4
100
AcDbCircle
 10
17.9125491438
 20
8.2163300735
 30
0.0
 40
0.285
100
AcDbArc
 50
70.4320713506
 51
145.0
  0
LINE
  5
C8
102
{ACAD_REACTORS
330
D0
102
}
100
AcDbEntity
  8
UNASSIGNED
370
        25
  6
Continuous
 62
         4
100
AcDbLine
 10
17.8877097572
 20
7.9324145845
 30
0.0
 11
17.8951179953
 21
8.0170911339
 31
0.0
  0
LINE
  5
C9
102
{ACAD_REACTORS
330
D0
102
}
100
AcDbEntity
  8
UNASSIGNED
370
        25
  6
Continuous
 62
         4
100
AcDbLine
 10
17.8951179953
 20
8.0170911339
 30
0.0
 11
18.0973847741
 21
7.9993950837
 31
0.0
  0
LINE
  5
CA
102
{ACAD_REACTORS
330
D0
102
}
100
AcDbEntity
  8
UNASSIGNED
370
        25
  6
Continuous
 62
         4
100
AcDbLine
 10
17.6790908112
 20
8.3797993578
 30
0.0
 11
17.748718735
 21
8.3310453608
 31
0.0
  0
LINE
  5
CB
102
{ACAD_REACTORS
330
D0
102
}
100
AcDbEntity
  8
UNASSIGNED
370
        25
  6
Continuous
 62
         4
100
AcDbLine
 10
17.748718735
 20
8.3310453608
 30
0.0
 11
17.6322601166
 21
8.164725217
 31
0.0
  0
LINE
  5
CC
102
{ACAD_REACTORS
330
D0
102
}
100
AcDbEntity
  8
UNASSIGNED
370
        25
  6
Continuous
 62
         4
100
AcDbLine
 10
18.0938107013
 20
8.3008537258
 30
0.0
 11
18.0080025408
 21
8.4848699197
 31
0.0
  0
LINE
  5
CD
102
{ACAD_REACTORS
330
D0
102
}
100
AcDbEntity
  8
UNASSIGNED
370
        25
  6
Continuous
 62
         4
100
AcDbLine
 10
18.1708468631
 20
8.3367762781
 30
0.0
 11
18.0938107013
 21
8.3008537258
 31
0.0
  0
CIRCLE
  5
CE
102
{ACAD_REACTORS
330
D0
102
}
100
AcDbEntity
  8
UNASSIGNED
370
        25
  6
Continuous
 62
         4
100
AcDbCircle
 10
17.9125491438
 20
8.2163300735
 30
0.0
 40
0.059
  0
CIRCLE
  5
CF
102
{ACAD_REACTORS
330
D0
102
}
100
AcDbEntity
  8
UNASSIGNED
370
        25
  6
Continuous
 62
         4
100
AcDbCircle
 10
17.9125491438
 20
8.2163300735
 30
0.0
 40
0.085
  0
ARC
  5
D1
100
AcDbEntity
  8
Z0_CUT250
370
         5
  6
Continuous
 62
        47
100
AcDbCircle
 10
14.1750491438
 20
13.5629425735
 30
0.0
 40
0.4
100
AcDbArc
 50
-0.0
 51
159.7692257165
  0
LINE
  5
D2
100
AcDbEntity
  8
Z0_CUT500
370
         5
  6
Continuous
 62
        47
100
AcDbLine
 10
17.7435018391
 20
8.5788531883
 30
0.0
 11
16.3840401586
 21
7.9449257957
 31
0.0
  0
CIRCLE
  5
D3
100
AcDbEntity
  8
Z0_CUT250
370
         5
  6
Continuous
 62
        55
100
AcDbCircle
 10
17.9125491438
 20
8.2163300735
 30
0.0
 40
0.09
  0
LINE
  5
D4
100
AcDbEntity
  8
X_ROLLOVER
370
         5
  6
Continuous
 62
        29
100
AcDbLine
 10
13.9361802378
 20
8.8798803129
 30
0.0
 11
13.6302054055
 21
8.6439800155
 31
0.0
  0
CIRCLE
  5
D5
100
AcDbEntity
  8
6_125BIT_500DEP
370
        25
  6
Continuous
 62
         5
100
AcDbCircle
 10
14.4684032674
 20
8.7851336349
 30
0.0
 40
0.0825
  0
CIRCLE
  5
D6
100
AcDbEntity
  8
X_ROLLOVER
370
        25
  6
Continuous
 62
        27
100
AcDbCircle
 10
14.4684032674
 20
8.7851336349
 30
0.0
 40
0.35
  0
CIRCLE
  5
D7
100
AcDbEntity
  8
3_250BIT_500TAB
370
        25
  6
Continuous
 62
         5
100
AcDbCircle
 10
16.2250491438
 20
11.9634538694
 30
0.0
 40
0.25
  0
ARC
  5
D8
102
{ACAD_REACTORS
330
E3
102
}
100
AcDbEntity
  8
UNASSIGNED
370
        25
  6
Continuous
 62
         4
100
AcDbCircle
 10
14.4684032674
 20
8.7851336349
 30
0.0
 40
0.285
100
AcDbArc
 50
-36.9364451125
 51
37.6314835369
  0
ARC
  5
D9
102
{ACAD_REACTORS
330
E3
102
}
100
AcDbEntity
  8
UNASSIGNED
370
        25
  6
Continuous
 62
         4
100
AcDbCircle
 10
14.4684032674
 20
8.7851336349
 30
0.0
 40
0.285
100
AcDbArc
 50
-156.9364451126
 51
-82.3685164631
  0
ARC
  5
DA
102
{ACAD_REACTORS
330
E3
102
}
100
AcDbEntity
  8
UNASSIGNED
370
        25
  6
Continuous
 62
         4
100
AcDbCircle
 10
14.4684032674
 20
8.7851336349
 30
0.0
 40
0.285
100
AcDbArc
 50
83.0635548875
 51
157.6314835369
  0
LINE
  5
DB
102
{ACAD_REACTORS
330
E3
102
}
100
AcDbEntity
  8
UNASSIGNED
370
        25
  6
Continuous
 62
         4
100
AcDbLine
 10
14.5062515623
 20
8.5026579606
 30
0.0
 11
14.4949634744
 21
8.5869050915
 31
0.0
  0
LINE
  5
DC
102
{ACAD_REACTORS
330
E3
102
}
100
AcDbEntity
  8
UNASSIGNED
370
        25
  6
Continuous
 62
         4
100
AcDbLine
 10
14.4949634744
 20
8.5869050915
 30
0.0
 11
14.6962045019
 21
8.6138689346
 31
0.0
  0
LINE
  5
DD
102
{ACAD_REACTORS
330
E3
102
}
100
AcDbEntity
  8
UNASSIGNED
370
        25
  6
Continuous
 62
         4
100
AcDbLine
 10
14.2048480101
 20
8.8935938872
 30
0.0
 11
14.2834522096
 21
8.8612460926
 31
0.0
  0
LINE
  5
DE
102
{ACAD_REACTORS
330
E3
102
}
100
AcDbEntity
  8
UNASSIGNED
370
        25
  6
Continuous
 62
         4
100
AcDbLine
 10
14.2834522096
 20
8.8612460926
 30
0.0
 11
14.2061830689
 21
8.673484329
 31
0.0
  0
LINE
  5
DF
102
{ACAD_REACTORS
330
E3
102
}
100
AcDbEntity
  8
UNASSIGNED
370
        25
  6
Continuous
 62
         4
100
AcDbLine
 10
14.6267941183
 20
8.9072497205
 30
0.0
 11
14.5028222314
 21
9.0680476411
 31
0.0
  0
LINE
  5
E0
102
{ACAD_REACTORS
330
E3
102
}
100
AcDbEntity
  8
UNASSIGNED
370
        25
  6
Continuous
 62
         4
100
AcDbLine
 10
14.6941102299
 20
8.9591490569
 30
0.0
 11
14.6267941183
 21
8.9072497205
 31
0.0
  0
CIRCLE
  5
E1
102
{ACAD_REACTORS
330
E3
102
}
100
AcDbEntity
  8
UNASSIGNED
370
        25
  6
Continuous
 62
         4
100
AcDbCircle
 10
14.4684032674
 20
8.7851336349
 30
0.0
 40
0.059
  0
CIRCLE
  5
E2
102
{ACAD_REACTORS
330
E3
102
}
100
AcDbEntity
  8
UNASSIGNED
370
        25
  6
Continuous
 62
         4
100
AcDbCircle
 10
14.4684032674
 20
8.7851336349
 30
0.0
 40
0.085
  0
CIRCLE
  5
E4
100
AcDbEntity
  8
X_ROLLOVER
370
        25
  6
Continuous
 62
        27
100
AcDbCircle
 10
14.1750491438
 20
11.4379425735
 30
0.0
 40
0.075
  0
ARC
  5
E5
102
{ACAD_REACTORS
330
E9
102
}
100
AcDbEntity
  8
3_250BIT_500TAB
370
        25
  6
Continuous
 62
         5
100
AcDbCircle
 10
14.1306253988
 20
12.1284187565
 30
0.0
 40
0.2500098235
100
AcDbArc
 50
-138.0219329715
 51
43.4146529468
  0
ARC
  5
E6
102
{ACAD_REACTORS
330
E9
102
}
100
AcDbEntity
  8
3_250BIT_500TAB
370
        25
  6
Continuous
 62
         5
100
AcDbCircle
 10
13.7046418616
 20
12.5843723935
 30
0.0
 40
0.2460983854
100
AcDbArc
 50
44.132945906
 51
-137.3036400124
  0
LINE
  5
E7
102
{ACAD_REACTORS
330
E9
102
}
100
AcDbEntity
  8
3_250BIT_500TAB
370
        25
  6
Continuous
 62
         5
100
AcDbLine
 10
13.5237699639
 20
12.4174898842
 30
0.0
 11
13.9468931153
 21
11.9588972631
 31
0.0
  0
LINE
  5
E8
102
{ACAD_REACTORS
330
E9
102
}
100
AcDbEntity
  8
3_250BIT_500TAB
370
        25
  6
Continuous
 62
         5
100
AcDbLine
 10
14.3122322671
 20
12.3002438339
 30
0.0
 11
13.881273076
 21
12.7557370029
 31
0.0
  0
CIRCLE
  5
EA
100
AcDbEntity
  8
6_125BIT_500DEP
370
        25
  6
Continuous
 62
         5
100
AcDbCircle
 10
14.1750491438
 20
13.5629425735
 30
0.0
 40
0.0825
  0
CIRCLE
  5
EB
100
AcDbEntity
  8
X_ROLLOVER
370
        25
  6
Continuous
 62
        27
100
AcDbCircle
 10
14.1750491438
 20
13.5629425735
 30
0.0
 40
0.075
  0
LINE
  5
EC
100
AcDbEntity
  8
0
370
         5
  6
Continuous
 62
        47
100
AcDbLine
 10
14.3877035592
 20
11.4062708253
 30
0.0
 11
14.3900491438
 21
13.5629425735
 31
0.0
  0
LINE
  5
ED
100
AcDbEntity
  8
0
370
         5
  6
Continuous
 62
        47
100
AcDbLine
 10
14.5750491438
 20
13.5629425735
 30
0.0
 11
14.5750491438
 21
11.4379425735
 31
0.0
  0
CIRCLE
  5
EE
102
{ACAD_REACTORS
330
F0
102
}
100
AcDbEntity
  8
0
370
        25
  6
Continuous
 62
        47
100
AcDbCircle
 10
16.2250491438
 20
13.0259538694
 30
0.0
 40
0.4
  0
CIRCLE
  5
EF
102
{ACAD_REACTORS
330
F0
102
}
100
AcDbEntity
  8
0
370
        25
  6
Continuous
 62
        47
100
AcDbCircle
 10
16.2250491438
 20
13.0259538694
 30
0.0
 40
0.215
  0
CIRCLE
  5
F1
100
AcDbEntity
  8
X_ROLLOVER
370
        25
  6
Continuous
 62
        27
100
AcDbCircle
 10
16.2250491438
 20
13.0259538694
 30
0.0
 40
0.075
  0
CIRCLE
  5
F2
100
AcDbEntity
  8
6_125BIT_500DEP
370
        25
  6
Continuous
 62
         5
100
AcDbCircle
 10
16.2250491438
 20
13.0259538694
 30
0.0
 40
0.0825
  0
CIRCLE
  5
F3
100
AcDbEntity
  8
X_ROLLOVER
370
        25
  6
Continuous
 62
        27
100
AcDbCircle
 10
16.2250491438
 20
13.0259538694
 30
0.0
 40
0.35
  0
CIRCLE
  5
F4
100
AcDbEntity
  8
X_DROPS
370
         5
  6
Continuous
 62
         5
100
AcDbCircle
 10
17.2500491438
 20
13.9145326096
 30
0.0
 40
0.4281496063
  0
CIRCLE
  5
F5
100
AcDbEntity
  8
X_DROPS
370
         5
  6
Continuous
 62
         5
100
AcDbCircle
 10
15.2000491438
 20
13.9145326096
 30
0.0
 40
0.4281496063
  0
CIRCLE
  5
F6
102
{ACAD_REACTORS
330
F8
102
}
100
AcDbEntity
  8
0
370
        25
  6
Continuous
 62
        47
100
AcDbCircle
 10
14.1750491438
 20
13.5629425735
 30
0.0
 40
0.4
  0
CIRCLE
  5
F7
102
{ACAD_REACTORS
330
F8
102
}
100
AcDbEntity
  8
0
370
        25
  6
Continuous
 62
        47
100
AcDbCircle
 10
14.1750491438
 20
13.5629425735
 30
0.0
 40
0.215
  0
ARC
  5
F9
102
{ACAD_REACTORS
330
104
102
}
100
AcDbEntity
  8
UNASSIGNED
370
        25
  6
Continuous
 62
         4
100
AcDbCircle
 10
14.1750491438
 20
13.5629425735
 30
0.0
 40
0.285
100
AcDbArc
 50
15.4320713506
 51
90.0
  0
ARC
  5
FA
102
{ACAD_REACTORS
330
104
102
}
100
AcDbEntity
  8
UNASSIGNED
370
        25
  6
Continuous
 62
         4
100
AcDbCircle
 10
14.1750491438
 20
13.5629425735
 30
0.0
 40
0.285
100
AcDbArc
 50
-104.5679286495
 51
-30.0
  0
ARC
  5
FB
102
{ACAD_REACTORS
330
104
102
}
100
AcDbEntity
  8
UNASSIGNED
370
        25
  6
Continuous
 62
         4
100
AcDbCircle
 10
14.1750491438
 20
13.5629425735
 30
0.0
 40
0.285
100
AcDbArc
 50
135.4320713506
 51
-150.0
  0
LINE
  5
FC
102
{ACAD_REACTORS
330
104
102
}
100
AcDbEntity
  8
UNASSIGNED
370
        25
  6
Continuous
 62
         4
100
AcDbLine
 10
14.4218663839
 20
13.4204425735
 30
0.0
 11
14.3482542246
 21
13.4629425735
 31
0.0
  0
LINE
  5
FD
102
{ACAD_REACTORS
330
104
102
}
100
AcDbEntity
  8
UNASSIGNED
370
        25
  6
Continuous
 62
         4
100
AcDbLine
 10
14.3482542246
 20
13.4629425735
 30
0.0
 11
14.4497739271
 21
13.6387798562
 31
0.0
  0
LINE
  5
FE
102
{ACAD_REACTORS
330
104
102
}
100
AcDbEntity
  8
UNASSIGNED
370
        25
  6
Continuous
 62
         4
100
AcDbLine
 10
13.9282319038
 20
13.4204425735
 30
0.0
 11
14.0018440631
 21
13.4629425735
 31
0.0
  0
LINE
  5
FF
102
{ACAD_REACTORS
330
104
102
}
100
AcDbEntity
  8
UNASSIGNED
370
        25
  6
Continuous
 62
         4
100
AcDbLine
 10
14.0018440631
 20
13.4629425735
 30
0.0
 11
14.1033637656
 21
13.2871052907
 31
0.0
  0
LINE
  5
100
102
{ACAD_REACTORS
330
104
102
}
100
AcDbEntity
  8
UNASSIGNED
370
        25
  6
Continuous
 62
         4
100
AcDbLine
 10
14.1750491438
 20
13.7629425735
 30
0.0
 11
13.9720097388
 21
13.7629425735
 31
0.0
  0
LINE
  5
101
102
{ACAD_REACTORS
330
104
102
}
100
AcDbEntity
  8
UNASSIGNED
370
        25
  6
Continuous
 62
         4
100
AcDbLine
 10
14.1750491438
 20
13.8479425735
 30
0.0
 11
14.1750491438
 21
13.7629425735
 31
0.0
  0
CIRCLE
  5
102
102
{ACAD_REACTORS
330
104
102
}
100
AcDbEntity
  8
UNASSIGNED
370
        25
  6
Continuous
 62
         4
100
AcDbCircle
 10
14.1750491438
 20
13.5629425735
 30
0.0
 40
0.059
  0
CIRCLE
  5
103
102
{ACAD_REACTORS
330
104
102
}
100
AcDbEntity
  8
UNASSIGNED
370
        25
  6
Continuous
 62
         4
100
AcDbCircle
 10
14.1750491438
 20
13.5629425735
 30
0.0
 40
0.085
  0
CIRCLE
  5
105
100
AcDbEntity
  8
Z0_CUT250
370
         5
  6
Continuous
 62
        47
100
AcDbCircle
 10
14.1750491438
 20
13.5629425735
 30
0.0
 40
0.075
  0
ARC
  5
106
102
{ACAD_REACTORS
330
111
102
}
100
AcDbEntity
  8
UNASSIGNED
370
        25
  6
Continuous
 62
         4
100
AcDbCircle
 10
14.1750491438
 20
11.4379425735
 30
0.0
 40
0.285
100
AcDbArc
 50
15.4320713506
 51
90.0
  0
ARC
  5
107
102
{ACAD_REACTORS
330
111
102
}
100
AcDbEntity
  8
UNASSIGNED
370
        25
  6
Continuous
 62
         4
100
AcDbCircle
 10
14.1750491438
 20
11.4379425735
 30
0.0
 40
0.285
100
AcDbArc
 50
-104.5679286495
 51
-30.0
  0
ARC
  5
108
102
{ACAD_REACTORS
330
111
102
}
100
AcDbEntity
  8
UNASSIGNED
370
        25
  6
Continuous
 62
         4
100
AcDbCircle
 10
14.1750491438
 20
11.4379425735
 30
0.0
 40
0.285
100
AcDbArc
 50
135.4320713506
 51
-150.0
  0
LINE
  5
109
102
{ACAD_REACTORS
330
111
102
}
100
AcDbEntity
  8
UNASSIGNED
370
        25
  6
Continuous
 62
         4
100
AcDbLine
 10
14.4218663839
 20
11.2954425735
 30
0.0
 11
14.3482542246
 21
11.3379425735
 31
0.0
  0
LINE
  5
10A
102
{ACAD_REACTORS
330
111
102
}
100
AcDbEntity
  8
UNASSIGNED
370
        25
  6
Continuous
 62
         4
100
AcDbLine
 10
14.3482542246
 20
11.3379425735
 30
0.0
 11
14.4497739271
 21
11.5137798562
 31
0.0
  0
LINE
  5
10B
102
{ACAD_REACTORS
330
111
102
}
100
AcDbEntity
  8
UNASSIGNED
370
        25
  6
Continuous
 62
         4
100
AcDbLine
 10
13.9282319038
 20
11.2954425735
 30
0.0
 11
14.0018440631
 21
11.3379425735
 31
0.0
  0
LINE
  5
10C
102
{ACAD_REACTORS
330
111
102
}
100
AcDbEntity
  8
UNASSIGNED
370
        25
  6
Continuous
 62
         4
100
AcDbLine
 10
14.0018440631
 20
11.3379425735
 30
0.0
 11
14.1033637656
 21
11.1621052907
 31
0.0
  0
LINE
  5
10D
102
{ACAD_REACTORS
330
111
102
}
100
AcDbEntity
  8
UNASSIGNED
370
        25
  6
Continuous
 62
         4
100
AcDbLine
 10
14.1750491438
 20
11.6379425735
 30
0.0
 11
13.9720097388
 21
11.6379425735
 31
0.0
  0
LINE
  5
10E
102
{ACAD_REACTORS
330
111
102
}
100
AcDbEntity
  8
UNASSIGNED
370
        25
  6
Continuous
 62
         4
100
AcDbLine
 10
14.1750491438
 20
11.7229425735
 30
0.0
 11
14.1750491438
 21
11.6379425735
 31
0.0
  0
CIRCLE
  5
10F
102
{ACAD_REACTORS
330
111
102
}
100
AcDbEntity
  8
UNASSIGNED
370
        25
  6
Continuous
 62
         4
100
AcDbCircle
 10
14.1750491438
 20
11.4379425735
 30
0.0
 40
0.059
  0
CIRCLE
  5
110
102
{ACAD_REACTORS
330
111
102
}
100
AcDbEntity
  8
UNASSIGNED
370
        25
  6
Continuous
 62
         4
100
AcDbCircle
 10
14.1750491438
 20
11.4379425735
 30
0.0
 40
0.085
  0
ARC
  5
112
100
AcDbEntity
  8
6_125BIT_500DEP
370
        25
  6
Continuous
 62
         5
100
AcDbCircle
 10
17.2500491438
 20
12.8134538694
 30
0.0
 40
0.09
100
AcDbArc
 50
0.0
 51
180.0
  0
ARC
  5
113
100
AcDbEntity
  8
Z0_CUT500
370
         5
  6
Continuous
 62
        47
100
AcDbCircle
 10
14.1750491438
 20
13.5629425735
 30
0.0
 40
0.5
100
AcDbArc
 50
0.0
 51
159.7692257165
  0
CIRCLE
  5
114
100
AcDbEntity
  8
X_ROLLOVER
370
        25
  6
Continuous
 62
        27
100
AcDbCircle
 10
14.1750491438
 20
13.5629425735
 30
0.0
 40
0.35
  0
CIRCLE
  5
115
100
AcDbEntity
  8
X_SMPOSTS
370
        25
  6
Continuous
 62
         3
100
AcDbCircle
 10
17.2500491438
 20
13.9145326096
 30
0.0
 40
0.5110787402
  0
CIRCLE
  5
116
100
AcDbEntity
  8
X_SMPOSTS
370
        25
  6
Continuous
 62
         3
100
AcDbCircle
 10
15.2000491438
 20
13.9145326096
 30
0.0
 40
0.5110787402
  0
ARC
  5
117
102
{ACAD_REACTORS
330
122
102
}
100
AcDbEntity
  8
UNASSIGNED
370
        25
  6
Continuous
 62
         4
100
AcDbCircle
 10
16.2250491438
 20
13.0259538694
 30
0.0
 40
0.285
100
AcDbArc
 50
15.4320713506
 51
90.0
  0
ARC
  5
118
102
{ACAD_REACTORS
330
122
102
}
100
AcDbEntity
  8
UNASSIGNED
370
        25
  6
Continuous
 62
         4
100
AcDbCircle
 10
16.2250491438
 20
13.0259538694
 30
0.0
 40
0.285
100
AcDbArc
 50
-104.5679286494
 51
-30.0
  0
ARC
  5
119
102
{ACAD_REACTORS
330
122
102
}
100
AcDbEntity
  8
UNASSIGNED
370
        25
  6
Continuous
 62
         4
100
AcDbCircle
 10
16.2250491438
 20
13.0259538694
 30
0.0
 40
0.285
100
AcDbArc
 50
135.4320713506
 51
-150.0
  0
LINE
  5
11A
102
{ACAD_REACTORS
330
122
102
}
100
AcDbEntity
  8
UNASSIGNED
370
        25
  6
Continuous
 62
         4
100
AcDbLine
 10
16.4718663839
 20
12.8834538694
 30
0.0
 11
16.3982542246
 21
12.9259538694
 31
0.0
  0
LINE
  5
11B
102
{ACAD_REACTORS
330
122
102
}
100
AcDbEntity
  8
UNASSIGNED
370
        25
  6
Continuous
 62
         4
100
AcDbLine
 10
16.3982542246
 20
12.9259538694
 30
0.0
 11
16.4997739271
 21
13.1017911522
 31
0.0
  0
LINE
  5
11C
102
{ACAD_REACTORS
330
122
102
}
100
AcDbEntity
  8
UNASSIGNED
370
        25
  6
Continuous
 62
         4
100
AcDbLine
 10
15.9782319038
 20
12.8834538694
 30
0.0
 11
16.0518440631
 21
12.9259538694
 31
0.0
  0
LINE
  5
11D
102
{ACAD_REACTORS
330
122
102
}
100
AcDbEntity
  8
UNASSIGNED
370
        25
  6
Continuous
 62
         4
100
AcDbLine
 10
16.0518440631
 20
12.9259538694
 30
0.0
 11
16.1533637656
 21
12.7501165867
 31
0.0
  0
LINE
  5
11E
102
{ACAD_REACTORS
330
122
102
}
100
AcDbEntity
  8
UNASSIGNED
370
        25
  6
Continuous
 62
         4
100
AcDbLine
 10
16.2250491438
 20
13.2259538694
 30
0.0
 11
16.0220097388
 21
13.2259538694
 31
0.0
  0
LINE
  5
11F
102
{ACAD_REACTORS
330
122
102
}
100
AcDbEntity
  8
UNASSIGNED
370
        25
  6
Continuous
 62
         4
100
AcDbLine
 10
16.2250491438
 20
13.3109538694
 30
0.0
 11
16.2250491438
 21
13.2259538694
 31
0.0
  0
CIRCLE
  5
120
102
{ACAD_REACTORS
330
122
102
}
100
AcDbEntity
  8
UNASSIGNED
370
        25
  6
Continuous
 62
         4
100
AcDbCircle
 10
16.2250491438
 20
13.0259538694
 30
0.0
 40
0.059
  0
CIRCLE
  5
121
102
{ACAD_REACTORS
330
122
102
}
100
AcDbEntity
  8
UNASSIGNED
370
        25
  6
Continuous
 62
         4
100
AcDbCircle
 10
16.2250491438
 20
13.0259538694
 30
0.0
 40
0.085
  0
LINE
  5
123
100
AcDbEntity
  8
Z0_CUT250
370
         5
  6
Continuous
 62
        47
100
AcDbLine
 10
14.5750491438
 20
13.5629425735
 30
0.0
 11
14.5750491438
 21
11.4379425735
 31
0.0
  0
LINE
  5
124
100
AcDbEntity
  8
Z0_CUT500
370
         5
  6
Continuous
 62
        47
100
AcDbLine
 10
14.6750491438
 20
13.5629425735
 30
0.0
 11
14.6750491438
 21
11.4379425735
 31
0.0
  0
CIRCLE
  5
125
100
AcDbEntity
  8
6_125BIT_500DEP
370
        25
  6
Continuous
 62
         5
100
AcDbCircle
 10
14.1750491438
 20
11.4379425735
 30
0.0
 40
0.0825
  0
CIRCLE
  5
126
102
{ACAD_REACTORS
330
14A
102
}
100
AcDbEntity
  8
Z_TATTOOMYSTIQUE
370
         5
  6
Continuous
 62
         4
100
AcDbCircle
 10
13.0877100224
 20
14.3118614711
 30
0.0
 40
0.09375
  0
LINE
  5
127
102
{ACAD_REACTORS
330
14A
102
}
100
AcDbEntity
  8
Z_TATTOOMYSTIQUE
370
         5
  6
Continuous
 62
         4
100
AcDbLine
 10
13.0877100224
 20
14.3118614711
 30
0.0
 11
13.5582346912
 21
13.7278182055
 31
0.0
  0
LINE
  5
128
102
{ACAD_REACTORS
330
14A
102
}
100
AcDbEntity
  8
Z_TATTOOMYSTIQUE
370
         5
  6
Continuous
 62
         4
100
AcDbLine
 10
13.5501456649
 20
13.2397446274
 30
0.0
 11
13.6718213452
 21
13.3377706001
 31
0.0
  0
LINE
  5
129
102
{ACAD_REACTORS
330
14A
102
}
100
AcDbEntity
  8
Z_TATTOOMYSTIQUE
370
         5
  6
Continuous
 62
         4
100
AcDbLine
 10
13.7137053906
 20
13.9333300339
 30
0.0
 11
13.6718213452
 21
13.3377706001
 31
0.0
  0
LINE
  5
12A
102
{ACAD_REACTORS
330
14A
102
}
100
AcDbEntity
  8
Z_TATTOOMYSTIQUE
370
         5
  6
Continuous
 62
         4
100
AcDbLine
 10
11.1409671943
 20
11.2988303688
 30
0.0
 11
11.2626428747
 21
11.3968563414
 31
0.0
  0
LINE
  5
12B
102
{ACAD_REACTORS
330
14A
102
}
100
AcDbEntity
  8
Z_TATTOOMYSTIQUE
370
         5
  6
Continuous
 62
         4
100
AcDbLine
 10
10.550137702
 20
11.3846547448
 30
0.0
 11
11.1409671943
 21
11.2988303688
 31
0.0
  0
LINE
  5
12C
102
{ACAD_REACTORS
330
14A
102
}
100
AcDbEntity
  8
Z_TATTOOMYSTIQUE
370
         5
  6
Continuous
 62
         4
100
AcDbLine
 10
10.3945989453
 20
12.6237584562
 30
0.0
 11
12.5360909192
 21
14.349015575
 31
0.0
  0
LINE
  5
12D
102
{ACAD_REACTORS
330
14A
102
}
100
AcDbEntity
  8
Z_TATTOOMYSTIQUE
370
         5
  6
Continuous
 62
         4
100
AcDbLine
 10
12.5360909192
 20
14.349015575
 30
0.0
 11
12.6090963274
 21
14.4078311586
 31
0.0
  0
LINE
  5
12E
102
{ACAD_REACTORS
330
14A
102
}
100
AcDbEntity
  8
Z_TATTOOMYSTIQUE
370
         5
  6
Continuous
 62
         4
100
AcDbLine
 10
10.3945989453
 20
12.6237584562
 30
0.0
 11
10.3215935371
 21
12.5649428726
 31
0.0
  0
LINE
  5
12F
102
{ACAD_REACTORS
330
14A
102
}
100
AcDbEntity
  8
Z_TATTOOMYSTIQUE
370
         5
  6
Continuous
 62
         4
100
AcDbLine
 10
12.6090963274
 20
14.4078311586
 30
0.0
 11
12.7307720077
 21
14.5058571312
 31
0.0
  0
LINE
  5
130
102
{ACAD_REACTORS
330
14A
102
}
100
AcDbEntity
  8
Z_TATTOOMYSTIQUE
370
         5
  6
Continuous
 62
         4
100
AcDbLine
 10
10.1999178568
 20
12.4669168999
 30
0.0
 11
10.3215935371
 21
12.5649428726
 31
0.0
  0
LINE
  5
131
102
{ACAD_REACTORS
330
14A
102
}
100
AcDbEntity
  8
Z_TATTOOMYSTIQUE
370
         5
  6
Continuous
 62
         4
100
AcDbLine
 10
11.1516618197
 20
13.8757491927
 30
0.0
 11
12.7200773823
 21
11.9289383073
 31
0.0
  0
LINE
  5
132
102
{ACAD_REACTORS
330
14A
102
}
100
AcDbEntity
  8
Z_TATTOOMYSTIQUE
370
         5
  6
Continuous
 62
         4
100
AcDbLine
 10
11.3356482829
 20
11.455671925
 30
0.0
 11
10.3945989453
 21
12.6237584562
 31
0.0
  0
LINE
  5
133
102
{ACAD_REACTORS
330
14A
102
}
100
AcDbEntity
  8
Z_TATTOOMYSTIQUE
370
         5
  6
Continuous
 62
         4
100
AcDbLine
 10
12.5360909192
 20
14.349015575
 30
0.0
 11
13.4771402567
 21
13.1809290438
 31
0.0
  0
LINE
  5
134
102
{ACAD_REACTORS
330
14A
102
}
100
AcDbEntity
  8
Z_TATTOOMYSTIQUE
370
         5
  6
Continuous
 62
         4
100
AcDbLine
 10
12.6090963274
 20
14.4078311586
 30
0.0
 11
13.5501456649
 21
13.2397446274
 31
0.0
  0
LINE
  5
135
102
{ACAD_REACTORS
330
14A
102
}
100
AcDbEntity
  8
Z_TATTOOMYSTIQUE
370
         5
  6
Continuous
 62
         4
100
AcDbLine
 10
13.4771402567
 20
13.1809290438
 30
0.0
 11
12.5360909192
 21
14.349015575
 31
0.0
  0
LINE
  5
136
102
{ACAD_REACTORS
330
14A
102
}
100
AcDbEntity
  8
Z_TATTOOMYSTIQUE
370
         5
  6
Continuous
 62
         4
100
AcDbLine
 10
10.3215935371
 20
12.5649428726
 30
0.0
 11
11.2626428747
 21
11.3968563414
 31
0.0
  0
LINE
  5
137
102
{ACAD_REACTORS
330
14A
102
}
100
AcDbEntity
  8
Z_TATTOOMYSTIQUE
370
         5
  6
Continuous
 62
         4
100
AcDbLine
 10
11.3356482829
 20
11.455671925
 30
0.0
 11
10.3945989453
 21
12.6237584562
 31
0.0
  0
CIRCLE
  5
138
102
{ACAD_REACTORS
330
14A
102
}
100
AcDbEntity
  8
Z_TATTOOMYSTIQUE
370
         5
  6
Continuous
 62
         4
100
AcDbCircle
 10
11.935869601
 20
12.90234375
 30
0.0
 40
1.25
  0
LINE
  5
139
102
{ACAD_REACTORS
330
14A
102
}
100
AcDbEntity
  8
Z_TATTOOMYSTIQUE
370
         5
  6
Continuous
 62
         4
100
AcDbLine
 10
12.7307720077
 20
14.5058571312
 30
0.0
 11
13.3216015
 21
14.4200327552
 31
0.0
  0
LINE
  5
13A
102
{ACAD_REACTORS
330
14A
102
}
100
AcDbEntity
  8
Z_TATTOOMYSTIQUE
370
         5
  6
Continuous
 62
         4
100
AcDbLine
 10
10.1999178568
 20
12.4669168999
 30
0.0
 11
10.1580338114
 21
11.8713574661
 31
0.0
  0
LINE
  5
13B
102
{ACAD_REACTORS
330
14A
102
}
100
AcDbEntity
  8
Z_TATTOOMYSTIQUE
370
         5
  6
Continuous
 62
         4
100
AcDbLine
 10
13.4771402567
 20
13.1809290438
 30
0.0
 11
11.3356482829
 21
11.455671925
 31
0.0
  0
LINE
  5
13C
102
{ACAD_REACTORS
330
14A
102
}
100
AcDbEntity
  8
Z_TATTOOMYSTIQUE
370
         5
  6
Continuous
 62
         4
100
AcDbLine
 10
13.5501456649
 20
13.2397446274
 30
0.0
 11
13.4771402567
 21
13.1809290438
 31
0.0
  0
LINE
  5
13D
102
{ACAD_REACTORS
330
14A
102
}
100
AcDbEntity
  8
Z_TATTOOMYSTIQUE
370
         5
  6
Continuous
 62
         4
100
AcDbLine
 10
11.2626428747
 20
11.3968563414
 30
0.0
 11
11.3356482829
 21
11.455671925
 31
0.0
  0
CIRCLE
  5
13E
102
{ACAD_REACTORS
330
14A
102
}
100
AcDbEntity
  8
Z_TATTOOMYSTIQUE
370
         5
  6
Continuous
 62
         4
100
AcDbCircle
 10
11.935869601
 20
12.90234375
 30
0.0
 40
0.375
  0
LINE
  5
13F
102
{ACAD_REACTORS
330
14A
102
}
100
AcDbEntity
  8
Z_TATTOOMYSTIQUE
370
         5
  6
Continuous
 62
         4
100
AcDbLine
 10
13.0796209961
 20
13.823787893
 30
0.0
 11
10.7921182059
 21
11.980899607
 31
0.0
  0
LINE
  5
140
102
{ACAD_REACTORS
330
14A
102
}
100
AcDbEntity
  8
Z_TATTOOMYSTIQUE
370
         5
  6
Continuous
 62
         4
100
AcDbLine
 10
13.0796209961
 20
13.823787893
 30
0.0
 11
13.5176534453
 21
14.1766813946
 31
0.0
  0
LINE
  5
141
102
{ACAD_REACTORS
330
14A
102
}
100
AcDbEntity
  8
Z_TATTOOMYSTIQUE
370
         5
  6
Continuous
 62
         4
100
AcDbLine
 10
10.7921182059
 20
11.980899607
 30
0.0
 11
10.3540857567
 21
11.6280061054
 31
0.0
  0
LINE
  5
142
102
{ACAD_REACTORS
330
14A
102
}
100
AcDbEntity
  8
Z_TATTOOMYSTIQUE
370
         5
  6
Continuous
 62
         4
100
AcDbLine
 10
13.3216015
 20
14.4200327552
 30
0.0
 11
13.7137053906
 21
13.9333300339
 31
0.0
  0
LINE
  5
143
102
{ACAD_REACTORS
330
14A
102
}
100
AcDbEntity
  8
Z_TATTOOMYSTIQUE
370
         5
  6
Continuous
 62
         4
100
AcDbLine
 10
10.1580338114
 20
11.8713574661
 30
0.0
 11
10.550137702
 21
11.3846547448
 31
0.0
  0
LINE
  5
144
102
{ACAD_REACTORS
330
14A
102
}
100
AcDbEntity
  8
Z_TATTOOMYSTIQUE
370
         5
  6
Continuous
 62
         4
100
AcDbLine
 10
10.7921182059
 20
11.980899607
 30
0.0
 11
10.5487668452
 21
11.7848476617
 31
0.0
  0
CIRCLE
  5
145
102
{ACAD_REACTORS
330
14A
102
}
100
AcDbEntity
  8
Z_TATTOOMYSTIQUE
370
         5
  6
Continuous
 62
         4
100
AcDbCircle
 10
10.7840291796
 20
11.4928260289
 30
0.0
 40
0.09375
  0
CIRCLE
  5
146
102
{ACAD_REACTORS
330
14A
102
}
100
AcDbEntity
  8
Z_TATTOOMYSTIQUE
370
         5
  6
Continuous
 62
         4
100
AcDbCircle
 10
10.3135045108
 20
12.0768692945
 30
0.0
 40
0.09375
  0
LINE
  5
147
102
{ACAD_REACTORS
330
14A
102
}
100
AcDbEntity
  8
Z_TATTOOMYSTIQUE
370
         5
  6
Continuous
 62
         4
100
AcDbLine
 10
10.3135045108
 20
12.0768692945
 30
0.0
 11
10.7840291796
 21
11.4928260289
 31
0.0
  0
LINE
  5
148
102
{ACAD_REACTORS
330
14A
102
}
100
AcDbEntity
  8
Z_TATTOOMYSTIQUE
370
         5
  6
Continuous
 62
         4
100
AcDbLine
 10
13.3229723568
 20
14.0198398383
 30
0.0
 11
13.0796209961
 21
13.823787893
 31
0.0
  0
CIRCLE
  5
149
102
{ACAD_REACTORS
330
14A
102
}
100
AcDbEntity
  8
Z_TATTOOMYSTIQUE
370
         5
  6
Continuous
 62
         4
100
AcDbCircle
 10
13.5582346912
 20
13.7278182055
 30
0.0
 40
0.09375
  0
LINE
  5
14B
100
AcDbEntity
  8
Z0_CUT500
370
         5
  6
Continuous
 62
        47
100
AcDbLine
 10
12.4743285428
 20
10.3940827916
 30
0.0
 11
13.7058954321
 21
13.7358436863
 31
0.0
  0
LINE
  5
14C
100
AcDbEntity
  8
0
370
         5
  6
Continuous
 62
        47
100
AcDbLine
 10
13.094588077
 20
10.068237145
 30
0.0
 11
14.3261549663
 21
11.2849980397
 31
0.0
  0
CIRCLE
  5
14D
100
AcDbEntity
  8
6_125BIT_500DEP
370
        25
  6
Continuous
 62
         5
100
AcDbCircle
 10
13.280471886
 20
7.8692629927
 30
0.0
 40
0.0825
  0
ARC
  5
14E
102
{ACAD_REACTORS
330
159
102
}
100
AcDbEntity
  8
UNASSIGNED
370
        25
  6
Continuous
 62
         4
100
AcDbCircle
 10
13.280471886
 20
7.8692629927
 30
0.0
 40
0.285
100
AcDbArc
 50
-36.9364451125
 51
37.6314835369
  0
ARC
  5
14F
102
{ACAD_REACTORS
330
159
102
}
100
AcDbEntity
  8
UNASSIGNED
370
        25
  6
Continuous
 62
         4
100
AcDbCircle
 10
13.280471886
 20
7.8692629927
 30
0.0
 40
0.285
100
AcDbArc
 50
-156.9364451126
 51
-82.3685164631
  0
ARC
  5
150
102
{ACAD_REACTORS
330
159
102
}
100
AcDbEntity
  8
UNASSIGNED
370
        25
  6
Continuous
 62
         4
100
AcDbCircle
 10
13.280471886
 20
7.8692629927
 30
0.0
 40
0.285
100
AcDbArc
 50
83.0635548874
 51
157.6314835369
  0
LINE
  5
151
102
{ACAD_REACTORS
330
159
102
}
100
AcDbEntity
  8
UNASSIGNED
370
        25
  6
Continuous
 62
         4
100
AcDbLine
 10
13.3183201809
 20
7.5867873184
 30
0.0
 11
13.307032093
 21
7.6710344494
 31
0.0
  0
LINE
  5
152
102
{ACAD_REACTORS
330
159
102
}
100
AcDbEntity
  8
UNASSIGNED
370
        25
  6
Continuous
 62
         4
100
AcDbLine
 10
13.307032093
 20
7.6710344494
 30
0.0
 11
13.5082731205
 21
7.6979982924
 31
0.0
  0
LINE
  5
153
102
{ACAD_REACTORS
330
159
102
}
100
AcDbEntity
  8
UNASSIGNED
370
        25
  6
Continuous
 62
         4
100
AcDbLine
 10
13.0169166287
 20
7.977723245
 30
0.0
 11
13.0955208283
 21
7.9453754505
 31
0.0
  0
LINE
  5
154
102
{ACAD_REACTORS
330
159
102
}
100
AcDbEntity
  8
UNASSIGNED
370
        25
  6
Continuous
 62
         4
100
AcDbLine
 10
13.0955208283
 20
7.9453754505
 30
0.0
 11
13.0182516876
 21
7.7576136868
 31
0.0
  0
LINE
  5
155
102
{ACAD_REACTORS
330
159
102
}
100
AcDbEntity
  8
UNASSIGNED
370
        25
  6
Continuous
 62
         4
100
AcDbLine
 10
13.4388627369
 20
7.9913790784
 30
0.0
 11
13.31489085
 21
8.152176999
 31
0.0
  0
LINE
  5
156
102
{ACAD_REACTORS
330
159
102
}
100
AcDbEntity
  8
UNASSIGNED
370
        25
  6
Continuous
 62
         4
100
AcDbLine
 10
13.5061788485
 20
8.0432784148
 30
0.0
 11
13.4388627369
 21
7.9913790784
 31
0.0
  0
CIRCLE
  5
157
102
{ACAD_REACTORS
330
159
102
}
100
AcDbEntity
  8
UNASSIGNED
370
        25
  6
Continuous
 62
         4
100
AcDbCircle
 10
13.280471886
 20
7.8692629927
 30
0.0
 40
0.059
  0
CIRCLE
  5
158
102
{ACAD_REACTORS
330
159
102
}
100
AcDbEntity
  8
UNASSIGNED
370
        25
  6
Continuous
 62
         4
100
AcDbCircle
 10
13.280471886
 20
7.8692629927
 30
0.0
 40
0.085
  0
ARC
  5
15A
100
AcDbEntity
  8
Z0_CUT250
370
         5
  6
Continuous
 62
        47
100
AcDbCircle
 10
12.9434822545
 20
10.2211816788
 30
0.0
 40
0.4
100
AcDbArc
 50
159.7692257165
 51
-45.3464857412
  0
LINE
  5
15B
100
AcDbEntity
  8
0
370
         5
  6
Continuous
 62
        47
100
AcDbLine
 10
12.5681592851
 20
10.3595025691
 30
0.0
 11
13.7997261745
 21
13.7012634637
 31
0.0
  0
LINE
  5
15C
100
AcDbEntity
  8
0
370
         5
  6
Continuous
 62
        47
100
AcDbLine
 10
13.9733130478
 20
13.637290052
 30
0.0
 11
12.7558207698
 21
10.2903421239
 31
0.0
  0
ARC
  5
15D
102
{ACAD_REACTORS
330
161
102
}
100
AcDbEntity
  8
3_250BIT_500TAB
370
        25
  6
Continuous
 62
         5
100
AcDbCircle
 10
13.5838436378
 20
10.9266175924
 30
0.0
 40
0.25
100
AcDbArc
 50
-133.4942105941
 51
46.5057894059
  0
ARC
  5
15E
102
{ACAD_REACTORS
330
161
102
}
100
AcDbEntity
  8
3_250BIT_500TAB
370
        25
  6
Continuous
 62
         5
100
AcDbCircle
 10
13.2171219588
 20
11.2745530539
 30
0.0
 40
0.25
100
AcDbArc
 50
46.5057894059
 51
-133.4942105941
  0
LINE
  5
15F
102
{ACAD_REACTORS
330
161
102
}
100
AcDbEntity
  8
3_250BIT_500TAB
370
        25
  6
Continuous
 62
         5
100
AcDbLine
 10
13.3891922781
 20
11.4559140343
 30
0.0
 11
13.7559139571
 21
11.1079785728
 31
0.0
  0
LINE
  5
160
102
{ACAD_REACTORS
330
161
102
}
100
AcDbEntity
  8
3_250BIT_500TAB
370
        25
  6
Continuous
 62
         5
100
AcDbLine
 10
13.4117733185
 20
10.745256612
 30
0.0
 11
13.0450516394
 21
11.0931920735
 31
0.0
  0
LINE
  5
162
100
AcDbEntity
  8
Z0_CUT250
370
         5
  6
Continuous
 62
        47
100
AcDbLine
 10
12.5681592851
 20
10.3595025691
 30
0.0
 11
13.7997261745
 21
13.7012634637
 31
0.0
  0
CIRCLE
  5
163
100
AcDbEntity
  8
X_ROLLOVER
370
        25
  6
Continuous
 62
        27
100
AcDbCircle
 10
12.9434822545
 20
10.2211816788
 30
0.0
 40
0.35
  0
CIRCLE
  5
164
102
{ACAD_REACTORS
330
166
102
}
100
AcDbEntity
  8
0
370
        25
  6
Continuous
 62
        47
100
AcDbCircle
 10
12.9434822545
 20
10.2211816788
 30
0.0
 40
0.4
  0
CIRCLE
  5
165
102
{ACAD_REACTORS
330
166
102
}
100
AcDbEntity
  8
0
370
        25
  6
Continuous
 62
        47
100
AcDbCircle
 10
12.9434822545
 20
10.2211816788
 30
0.0
 40
0.215
  0
ARC
  5
167
100
AcDbEntity
  8
Z0_CUT500
370
         5
  6
Continuous
 62
        47
100
AcDbCircle
 10
12.9434822545
 20
10.2211816788
 30
0.0
 40
0.5
100
AcDbArc
 50
159.7692257165
 51
-45.3464857412
  0
ARC
  5
168
102
{ACAD_REACTORS
330
173
102
}
100
AcDbEntity
  8
UNASSIGNED
370
        25
  6
Continuous
 62
         4
100
AcDbCircle
 10
12.9434822545
 20
10.2211816788
 30
0.0
 40
0.285
100
AcDbArc
 50
15.4320713506
 51
90.0
  0
ARC
  5
169
102
{ACAD_REACTORS
330
173
102
}
100
AcDbEntity
  8
UNASSIGNED
370
        25
  6
Continuous
 62
         4
100
AcDbCircle
 10
12.9434822545
 20
10.2211816788
 30
0.0
 40
0.285
100
AcDbArc
 50
-104.5679286495
 51
-30.0
  0
ARC
  5
16A
102
{ACAD_REACTORS
330
173
102
}
100
AcDbEntity
  8
UNASSIGNED
370
        25
  6
Continuous
 62
         4
100
AcDbCircle
 10
12.9434822545
 20
10.2211816788
 30
0.0
 40
0.285
100
AcDbArc
 50
135.4320713506
 51
-150.0
  0
LINE
  5
16B
102
{ACAD_REACTORS
330
173
102
}
100
AcDbEntity
  8
UNASSIGNED
370
        25
  6
Continuous
 62
         4
100
AcDbLine
 10
13.1902994946
 20
10.0786816788
 30
0.0
 11
13.1166873352
 21
10.1211816788
 31
0.0
  0
LINE
  5
16C
102
{ACAD_REACTORS
330
173
102
}
100
AcDbEntity
  8
UNASSIGNED
370
        25
  6
Continuous
 62
         4
100
AcDbLine
 10
13.1166873352
 20
10.1211816788
 30
0.0
 11
13.2182070378
 21
10.2970189616
 31
0.0
  0
LINE
  5
16D
102
{ACAD_REACTORS
330
173
102
}
100
AcDbEntity
  8
UNASSIGNED
370
        25
  6
Continuous
 62
         4
100
AcDbLine
 10
12.6966650144
 20
10.0786816788
 30
0.0
 11
12.7702771737
 21
10.1211816788
 31
0.0
  0
LINE
  5
16E
102
{ACAD_REACTORS
330
173
102
}
100
AcDbEntity
  8
UNASSIGNED
370
        25
  6
Continuous
 62
         4
100
AcDbLine
 10
12.7702771737
 20
10.1211816788
 30
0.0
 11
12.8717968763
 21
9.9453443961
 31
0.0
  0
LINE
  5
16F
102
{ACAD_REACTORS
330
173
102
}
100
AcDbEntity
  8
UNASSIGNED
370
        25
  6
Continuous
 62
         4
100
AcDbLine
 10
12.9434822545
 20
10.4211816788
 30
0.0
 11
12.7404428494
 21
10.4211816788
 31
0.0
  0
LINE
  5
170
102
{ACAD_REACTORS
330
173
102
}
100
AcDbEntity
  8
UNASSIGNED
370
        25
  6
Continuous
 62
         4
100
AcDbLine
 10
12.9434822545
 20
10.5061816788
 30
0.0
 11
12.9434822545
 21
10.4211816788
 31
0.0
  0
CIRCLE
  5
171
102
{ACAD_REACTORS
330
173
102
}
100
AcDbEntity
  8
UNASSIGNED
370
        25
  6
Continuous
 62
         4
100
AcDbCircle
 10
12.9434822545
 20
10.2211816788
 30
0.0
 40
0.059
  0
CIRCLE
  5
172
102
{ACAD_REACTORS
330
173
102
}
100
AcDbEntity
  8
UNASSIGNED
370
        25
  6
Continuous
 62
         4
100
AcDbCircle
 10
12.9434822545
 20
10.2211816788
 30
0.0
 40
0.085
  0
CIRCLE
  5
174
102
{ACAD_REACTORS
330
181
102
}
100
AcDbEntity
  8
X_ROLLOVER
370
        25
  6
Continuous
 62
        27
100
AcDbCircle
 10
12.6875785854
 20
7.1646654199
 30
0.0
 40
0.125
  0
LINE
  5
175
102
{ACAD_REACTORS
330
181
102
}
100
AcDbEntity
  8
X_ROLLOVER
370
        25
  6
Continuous
 62
        27
100
AcDbLine
 10
12.86536938
 20
6.8558152094
 30
0.0
 11
10.7031052207
 21
5.5975340625
 31
0.0
  0
LINE
  5
176
102
{ACAD_REACTORS
330
181
102
}
100
AcDbEntity
  8
X_ROLLOVER
370
        25
  6
Continuous
 62
        27
100
AcDbLine
 10
12.8345964976
 20
6.9092724833
 30
0.0
 11
10.6789444982
 21
5.6395049881
 31
0.0
  0
LINE
  5
177
102
{ACAD_REACTORS
330
181
102
}
100
AcDbEntity
  8
X_ROLLOVER
370
        25
  6
Continuous
 62
        27
100
AcDbLine
 10
12.5033566049
 20
7.3946699427
 30
0.0
 11
10.5351239838
 21
5.8502589275
 31
0.0
  0
LINE
  5
178
102
{ACAD_REACTORS
330
181
102
}
100
AcDbEntity
  8
X_ROLLOVER
370
        25
  6
Continuous
 62
        27
100
AcDbLine
 10
12.4647963965
 20
7.4428130705
 30
0.0
 11
10.5048491957
 21
5.888057556
 31
0.0
  0
ARC
  5
179
102
{ACAD_REACTORS
330
181
102
}
100
AcDbEntity
  8
X_ROLLOVER
370
        25
  6
Continuous
 62
        27
100
AcDbCircle
 10
10.6151110282
 20
5.750393635
 30
0.0
 40
0.127949224
100
AcDbArc
 50
128.6929609507
 51
-60.0729543214
  0
ARC
  5
17A
102
{ACAD_REACTORS
330
181
102
}
100
AcDbEntity
  8
X_ROLLOVER
370
        25
  6
Continuous
 62
        27
100
AcDbCircle
 10
10.6151110282
 20
5.750393635
 30
0.0
 40
0.1763775123
100
AcDbArc
 50
128.6929609507
 51
-60.0729543214
  0
ARC
  5
17B
102
{ACAD_REACTORS
330
181
102
}
100
AcDbEntity
  8
X_ROLLOVER
370
        25
  6
Continuous
 62
        27
100
AcDbCircle
 10
10.6151110282
 20
5.750393635
 30
0.0
 40
0.2790784964
100
AcDbArc
 50
128.6929609507
 51
-60.0729543214
  0
ARC
  5
17C
102
{ACAD_REACTORS
330
181
102
}
100
AcDbEntity
  8
X_ROLLOVER
370
        25
  6
Continuous
 62
        27
100
AcDbCircle
 10
12.6875785854
 20
7.1646654199
 30
0.0
 40
0.2946859661
100
AcDbArc
 50
-60.0729543214
 51
128.6929609507
  0
ARC
  5
17D
102
{ACAD_REACTORS
330
181
102
}
100
AcDbEntity
  8
X_ROLLOVER
370
        25
  6
Continuous
 62
        27
100
AcDbCircle
 10
12.6875785854
 20
7.1646654199
 30
0.0
 40
0.3563678145
100
AcDbArc
 50
-60.0729543214
 51
128.6929609507
  0
ARC
  5
17E
102
{ACAD_REACTORS
330
181
102
}
100
AcDbEntity
  8
X_ROLLOVER
370
        25
  6
Continuous
 62
        27
100
AcDbCircle
 10
12.6875785854
 20
7.1646654199
 30
0.0
 40
0.4708255675
100
AcDbArc
 50
-60.0729543214
 51
128.6929609507
  0
LINE
  5
17F
102
{ACAD_REACTORS
330
181
102
}
100
AcDbEntity
  8
X_ROLLOVER
370
        25
  6
Continuous
 62
        27
100
AcDbLine
 10
10.7543424223
 20
5.5085270891
 30
0.0
 11
12.9224719971
 21
6.7566190988
 31
0.0
  0
LINE
  5
180
102
{ACAD_REACTORS
330
181
102
}
100
AcDbEntity
  8
X_ROLLOVER
370
        25
  6
Continuous
 62
        27
100
AcDbLine
 10
10.440646007
 20
5.9682164151
 30
0.0
 11
12.3932435016
 21
7.5321481726
 31
0.0
  0
LINE
  5
182
102
{ACAD_REACTORS
330
1B2
102
}
100
AcDbEntity
  8
Z_TATTOOMYSTIQUE
370
         5
  6
Continuous
 62
         4
100
AcDbLine
 10
14.2325552656
 20
6.4484808947
 30
0.0
 11
14.2325552656
 21
7.2042032099
 31
0.0
  0
LINE
  5
183
102
{ACAD_REACTORS
330
1B2
102
}
100
AcDbEntity
  8
Z_TATTOOMYSTIQUE
370
         5
  6
Continuous
 62
         4
100
AcDbLine
 10
14.2325552656
 20
7.2042032099
 30
0.0
 11
13.6770242922
 21
7.2042032099
 31
0.0
  0
LINE
  5
184
102
{ACAD_REACTORS
330
1B2
102
}
100
AcDbEntity
  8
Z_TATTOOMYSTIQUE
370
         5
  6
Continuous
 62
         4
100
AcDbLine
 10
11.0344985806
 20
7.3042988808
 30
0.0
 11
11.0344985806
 21
9.6665567139
 31
0.0
  0
LINE
  5
185
102
{ACAD_REACTORS
330
1B2
102
}
100
AcDbEntity
  8
Z_TATTOOMYSTIQUE
370
         5
  6
Continuous
 62
         4
100
AcDbLine
 10
14.2325552656
 20
10.5223747
 30
0.0
 11
12.646038882
 21
10.5223747
 31
0.0
  0
LINE
  5
186
102
{ACAD_REACTORS
330
1B2
102
}
100
AcDbEntity
  8
Z_TATTOOMYSTIQUE
370
         5
  6
Continuous
 62
         4
100
AcDbLine
 10
11.0344985806
 20
6.3483852238
 30
0.0
 11
11.0344985806
 21
6.1381843149
 31
0.0
  0
LINE
  5
187
102
{ACAD_REACTORS
330
1B2
102
}
100
AcDbEntity
  8
Z_TATTOOMYSTIQUE
370
         5
  6
Continuous
 62
         4
100
AcDbLine
 10
10.3788719363
 20
6.4484808947
 30
0.0
 11
10.9344029097
 21
6.4484808947
 31
0.0
  0
LINE
  5
188
102
{ACAD_REACTORS
330
1B2
102
}
100
AcDbEntity
  8
Z_TATTOOMYSTIQUE
370
         5
  6
Continuous
 62
         4
100
AcDbLine
 10
10.9344029097
 20
7.2042032099
 30
0.0
 11
10.3788719363
 21
7.2042032099
 31
0.0
  0
LINE
  5
189
102
{ACAD_REACTORS
330
1B2
102
}
100
AcDbEntity
  8
Z_TATTOOMYSTIQUE
370
         5
  6
Continuous
 62
         4
100
AcDbLine
 10
13.0003775569
 20
7.1646654199
 30
0.0
 11
12.3747796138
 21
7.1646654199
 31
0.0
  0
LINE
  5
18A
102
{ACAD_REACTORS
330
1B2
102
}
100
AcDbEntity
  8
Z_TATTOOMYSTIQUE
370
         5
  6
Continuous
 62
         4
100
AcDbLine
 10
12.6360293149
 20
6.4484808947
 30
0.0
 11
14.2325552656
 21
6.4484808947
 31
0.0
  0
LINE
  5
18B
102
{ACAD_REACTORS
330
1B2
102
}
100
AcDbEntity
  8
Z_TATTOOMYSTIQUE
370
         5
  6
Continuous
 62
         4
100
AcDbLine
 10
12.535933644
 20
6.1381843149
 30
0.0
 11
12.535933644
 21
6.3483852238
 31
0.0
  0
LINE
  5
18C
102
{ACAD_REACTORS
330
1B2
102
}
100
AcDbEntity
  8
Z_TATTOOMYSTIQUE
370
         5
  6
Continuous
 62
         4
100
AcDbLine
 10
12.5459432111
 20
11.2130348292
 30
0.0
 11
12.5459432111
 21
10.6224703709
 31
0.0
  0
LINE
  5
18D
102
{ACAD_REACTORS
330
1B2
102
}
100
AcDbEntity
  8
Z_TATTOOMYSTIQUE
370
         5
  6
Continuous
 62
         4
100
AcDbLine
 10
13.5769286213
 20
7.3042988808
 30
0.0
 11
13.5769286213
 21
9.6665567139
 31
0.0
  0
LINE
  5
18E
102
{ACAD_REACTORS
330
1B2
102
}
100
AcDbEntity
  8
Z_TATTOOMYSTIQUE
370
         5
  6
Continuous
 62
         4
100
AcDbLine
 10
12.6875785854
 20
6.8518664484
 30
0.0
 11
12.6875785854
 21
7.4774643915
 31
0.0
  0
LINE
  5
18F
102
{ACAD_REACTORS
330
1B2
102
}
100
AcDbEntity
  8
Z_TATTOOMYSTIQUE
370
         5
  6
Continuous
 62
         4
100
AcDbLine
 10
11.0344985806
 20
11.2130348292
 30
0.0
 11
12.5459432111
 21
11.2130348292
 31
0.0
  0
LINE
  5
190
102
{ACAD_REACTORS
330
1B2
102
}
100
AcDbEntity
  8
Z_TATTOOMYSTIQUE
370
         5
  6
Continuous
 62
         4
100
AcDbLine
 10
11.0344985806
 20
6.1381843149
 30
0.0
 11
12.535933644
 21
6.1381843149
 31
0.0
  0
LINE
  5
191
102
{ACAD_REACTORS
330
1B2
102
}
100
AcDbEntity
  8
Z_TATTOOMYSTIQUE
370
         5
  6
Continuous
 62
         4
100
AcDbLine
 10
11.0344985806
 20
6.2312732889
 30
0.0
 11
12.535933644
 21
6.2312732889
 31
0.0
  0
LINE
  5
192
102
{ACAD_REACTORS
330
1B2
102
}
100
AcDbEntity
  8
Z_TATTOOMYSTIQUE
370
         5
  6
Continuous
 62
         4
100
AcDbLine
 10
14.2325552656
 20
10.5223747
 30
0.0
 11
14.2325552656
 21
9.7666523848
 31
0.0
  0
LINE
  5
193
102
{ACAD_REACTORS
330
1B2
102
}
100
AcDbEntity
  8
Z_TATTOOMYSTIQUE
370
         5
  6
Continuous
 62
         4
100
AcDbLine
 10
13.6770242922
 20
9.7666523848
 30
0.0
 11
14.2325552656
 21
9.7666523848
 31
0.0
  0
ELLIPSE
  5
194
102
{ACAD_REACTORS
330
1B2
102
}
100
AcDbEntity
  8
Z_TATTOOMYSTIQUE
370
        25
  6
Continuous
 62
         4
100
AcDbEllipse
 10
10.569053711
 20
6.6461698447
 30
0.0
 11
0.0000000000000738
 21
0.0690000000000342
 31
0.0
210
0.0
220
0.0
230
1.0
 40
1.0
 41
0.0
 42
6.2831853071789245
  0
ELLIPSE
  5
195
102
{ACAD_REACTORS
330
1B2
102
}
100
AcDbEntity
  8
Z_TATTOOMYSTIQUE
370
        25
  6
Continuous
 62
         4
100
AcDbEllipse
 10
10.568987698
 20
9.9493269841
 30
0.0
 11
0.0000000000000524
 21
0.0690000000000446
 31
0.0
210
0.0
220
0.0
230
1.0
 40
1.0
 41
0.0
 42
6.2831853071785986
  0
ELLIPSE
  5
196
102
{ACAD_REACTORS
330
1B2
102
}
100
AcDbEntity
  8
Z_TATTOOMYSTIQUE
370
        25
  6
Continuous
 62
         4
100
AcDbEllipse
 10
10.568987698
 20
10.32468575
 30
0.0
 11
0.0000000000000316
 21
0.0690000000001444
 31
0.0
210
0.0
220
0.0
230
1.0
 40
1.0
 41
0.0
 42
6.2831853071793162
  0
ELLIPSE
  5
197
102
{ACAD_REACTORS
330
1B2
102
}
100
AcDbEntity
  8
Z_TATTOOMYSTIQUE
370
        25
  6
Continuous
 62
         4
100
AcDbEllipse
 10
14.0424395038
 20
10.32468575
 30
0.0
 11
-0.0690000000000008
 21
-0.0000000000000488
 31
0.0
210
0.0
220
0.0
230
1.0
 40
1.0
 41
4.7123889803846897
 42
10.995574287564276
  0
ELLIPSE
  5
198
102
{ACAD_REACTORS
330
1B2
102
}
100
AcDbEntity
  8
Z_TATTOOMYSTIQUE
370
        25
  6
Continuous
 62
         4
100
AcDbEllipse
 10
10.569053711
 20
7.0215286105
 30
0.0
 11
-0.0000000000001187
 21
0.0690000000000846
 31
0.0
210
0.0
220
0.0
230
1.0
 40
1.0
 41
0.0
 42
6.2831853071795862
  0
ELLIPSE
  5
199
102
{ACAD_REACTORS
330
1B2
102
}
100
AcDbEntity
  8
Z_TATTOOMYSTIQUE
370
        25
  6
Continuous
 62
         4
100
AcDbEllipse
 10
14.0424395038
 20
9.9493269841
 30
0.0
 11
0.0000000000000926
 21
0.069000000000263
 31
0.0
210
0.0
220
0.0
230
1.0
 40
1.0
 41
0.0
 42
6.2831853071791564
  0
ELLIPSE
  5
19A
102
{ACAD_REACTORS
330
1B2
102
}
100
AcDbEntity
  8
Z_TATTOOMYSTIQUE
370
        25
  6
Continuous
 62
         4
100
AcDbEllipse
 10
14.0424395038
 20
6.6461698447
 30
0.0
 11
-0.0690000000000008
 21
-0.0000000000000488
 31
0.0
210
0.0
220
0.0
230
1.0
 40
1.0
 41
4.7123889803846897
 42
10.995574287564276
  0
ELLIPSE
  5
19B
102
{ACAD_REACTORS
330
1B2
102
}
100
AcDbEntity
  8
Z_TATTOOMYSTIQUE
370
        25
  6
Continuous
 62
         4
100
AcDbEllipse
 10
14.0424395038
 20
7.0215286105
 30
0.0
 11
-0.0690000000000008
 21
-0.0000000000000488
 31
0.0
210
0.0
220
0.0
230
1.0
 40
1.0
 41
4.7123889803846897
 42
10.995574287564276
  0
SPLINE
  5
19C
102
{ACAD_REACTORS
330
1B2
102
}
100
AcDbEntity
  8
Z_TATTOOMYSTIQUE
370
         5
  6
Continuous
 62
         4
100
AcDbSpline
210
0.0
220
0.0
230
1.0
 70
         0
 71
         3
 72
         8
 73
         4
 74
         0
 42
0.000001
 43
0.000001
 40
0.0
 40
0.0
 40
0.0
 40
0.0
 40
1.0
 40
1.0
 40
1.0
 40
1.0
 10
13.677024292151371
 20
9.7666523847651732
 30
0.0
 10
13.650477265871585
 20
9.7666523847648392
 30
0.0
 10
13.625017542719148
 20
9.7561066246298722
 30
0.0
 10
13.606245962056844
 20
9.7373350439675193
 30
0.0
  0
SPLINE
  5
19D
102
{ACAD_REACTORS
330
1B2
102
}
100
AcDbEntity
  8
Z_TATTOOMYSTIQUE
370
         5
  6
Continuous
 62
         4
100
AcDbSpline
210
0.0
220
0.0
230
1.0
 70
         0
 71
         3
 72
         8
 73
         4
 74
         0
 42
0.000001
 43
0.000001
 40
0.0
 40
0.0
 40
0.0
 40
0.0
 40
1.0
 40
1.0
 40
1.0
 40
1.0
 10
13.606245962058379
 20
7.2335205507240552
 30
0.0
 10
13.625017542721137
 20
7.2147489700616916
 30
0.0
 10
13.650477265873233
 20
7.2042032099267388
 30
0.0
 10
13.677024292153019
 20
7.2042032099265043
 30
0.0
  0
SPLINE
  5
19E
102
{ACAD_REACTORS
330
1B2
102
}
100
AcDbEntity
  8
Z_TATTOOMYSTIQUE
370
         5
  6
Continuous
 62
         4
100
AcDbSpline
210
0.0
220
0.0
230
1.0
 70
         0
 71
         3
 72
         8
 73
         4
 74
         0
 42
0.000001
 43
0.000001
 40
0.0
 40
0.0
 40
0.0
 40
0.0
 40
1.0
 40
1.0
 40
1.0
 40
1.0
 10
12.636029314874975
 20
6.4484808946898475
 30
0.0
 10
12.609482288596041
 20
6.4484808946903094
 30
0.0
 10
12.58402256544349
 20
6.4379351345555857
 30
0.0
 10
12.565250984780789
 20
6.419163553892087
 30
0.0
  0
SPLINE
  5
19F
102
{ACAD_REACTORS
330
1B2
102
}
100
AcDbEntity
  8
Z_TATTOOMYSTIQUE
370
         5
  6
Continuous
 62
         4
100
AcDbSpline
210
0.0
220
0.0
230
1.0
 70
         0
 71
         3
 72
         8
 73
         4
 74
         0
 42
0.000001
 43
0.000001
 40
0.0
 40
0.0
 40
0.0
 40
0.0
 40
1.0
 40
1.0
 40
1.0
 40
1.0
 10
13.606245962056844
 20
9.7373350439675193
 30
0.0
 10
13.587474381394143
 20
9.7185634633047115
 30
0.0
 10
13.576928621259242
 20
9.6931037401526581
 30
0.0
 10
13.576928621258844
 20
9.6665567138727653
 30
0.0
  0
SPLINE
  5
1A0
102
{ACAD_REACTORS
330
1B2
102
}
100
AcDbEntity
  8
Z_TATTOOMYSTIQUE
370
         5
  6
Continuous
 62
         4
100
AcDbSpline
210
0.0
220
0.0
230
1.0
 70
         0
 71
         3
 72
         8
 73
         4
 74
         0
 42
0.000001
 43
0.000001
 40
0.0
 40
0.0
 40
0.0
 40
0.0
 40
1.0
 40
1.0
 40
1.0
 40
1.0
 10
12.545943211069243
 20
10.622470370891968
 30
0.0
 10
12.5459432110693
 20
10.595923344612174
 30
0.0
 10
12.556488971204317
 20
10.570463621459798
 30
0.0
 10
12.575260551867075
 20
10.551692040797441
 30
0.0
  0
SPLINE
  5
1A1
102
{ACAD_REACTORS
330
1B2
102
}
100
AcDbEntity
  8
Z_TATTOOMYSTIQUE
370
         5
  6
Continuous
 62
         4
100
AcDbSpline
210
0.0
220
0.0
230
1.0
 70
         0
 71
         3
 72
         8
 73
         4
 74
         0
 42
0.000001
 43
0.000001
 40
0.0
 40
0.0
 40
0.0
 40
0.0
 40
1.0
 40
1.0
 40
1.0
 40
1.0
 10
12.575260551867075
 20
10.551692040797441
 30
0.0
 10
12.594032132529605
 20
10.532920460134967
 30
0.0
 10
12.619491855682554
 20
10.522374699999659
 30
0.0
 10
12.646038881961715
 20
10.522374699999784
 30
0.0
  0
SPLINE
  5
1A2
102
{ACAD_REACTORS
330
1B2
102
}
100
AcDbEntity
  8
Z_TATTOOMYSTIQUE
370
         5
  6
Continuous
 62
         4
100
AcDbSpline
210
0.0
220
0.0
230
1.0
 70
         0
 71
         3
 72
         8
 73
         4
 74
         0
 42
0.000001
 43
0.000001
 40
0.0
 40
0.0
 40
0.0
 40
0.0
 40
1.0
 40
1.0
 40
1.0
 40
1.0
 10
13.57692862126089
 20
7.3042988808188092
 30
0.0
 10
13.576928621260834
 20
7.2777518545385682
 30
0.0
 10
13.587474381396246
 20
7.2522921313864188
 30
0.0
 10
13.606245962058379
 20
7.2335205507240552
 30
0.0
  0
SPLINE
  5
1A3
102
{ACAD_REACTORS
330
1B2
102
}
100
AcDbEntity
  8
Z_TATTOOMYSTIQUE
370
         5
  6
Continuous
 62
         4
100
AcDbSpline
210
0.0
220
0.0
230
1.0
 70
         0
 71
         3
 72
         8
 73
         4
 74
         0
 42
0.000001
 43
0.000001
 40
0.0
 40
0.0
 40
0.0
 40
0.0
 40
1.0
 40
1.0
 40
1.0
 40
1.0
 10
11.005181239803051
 20
7.2335205507220088
 30
0.0
 10
11.023952820465695
 20
7.2522921313847064
 30
0.0
 10
11.034498580600712
 20
7.2777518545370938
 30
0.0
 10
11.034498580600427
 20
7.3042988808166527
 30
0.0
  0
SPLINE
  5
1A4
102
{ACAD_REACTORS
330
1B2
102
}
100
AcDbEntity
  8
Z_TATTOOMYSTIQUE
370
         5
  6
Continuous
 62
         4
100
AcDbSpline
210
0.0
220
0.0
230
1.0
 70
         0
 71
         3
 72
         8
 73
         4
 74
         0
 42
0.000001
 43
0.000001
 40
0.0
 40
0.0
 40
0.0
 40
0.0
 40
1.0
 40
1.0
 40
1.0
 40
1.0
 10
12.565250984780789
 20
6.419163553892087
 30
0.0
 10
12.5464794041186
 20
6.4003919732299543
 30
0.0
 10
12.535933643983185
 20
6.3749322500776842
 30
0.0
 10
12.535933643982958
 20
6.3483852237980152
 30
0.0
  0
SPLINE
  5
1A5
102
{ACAD_REACTORS
330
1B2
102
}
100
AcDbEntity
  8
Z_TATTOOMYSTIQUE
370
         5
  6
Continuous
 62
         4
100
AcDbSpline
210
0.0
220
0.0
230
1.0
 70
         0
 71
         3
 72
         8
 73
         4
 74
         0
 42
0.000001
 43
0.000001
 40
0.0
 40
0.0
 40
0.0
 40
0.0
 40
1.0
 40
1.0
 40
1.0
 40
1.0
 10
11.034498580599177
 20
9.6665567138712731
 30
0.0
 10
11.034498580598552
 20
9.6931037401506046
 30
0.0
 10
11.023952820463592
 20
9.7185634633027611
 30
0.0
 10
11.005181239801118
 20
9.7373350439651247
 30
0.0
  0
SPLINE
  5
1A6
102
{ACAD_REACTORS
330
1B2
102
}
100
AcDbEntity
  8
Z_TATTOOMYSTIQUE
370
         5
  6
Continuous
 62
         4
100
AcDbSpline
210
0.0
220
0.0
230
1.0
 70
         0
 71
         3
 72
         8
 73
         4
 74
         0
 42
0.000001
 43
0.000001
 40
0.0
 40
0.0
 40
0.0
 40
0.0
 40
1.0
 40
1.0
 40
1.0
 40
1.0
 10
11.005181239801118
 20
9.7373350439651247
 30
0.0
 10
10.986409659138701
 20
9.7561066246274848
 30
0.0
 10
10.960949935986491
 20
9.7666523847628994
 30
0.0
 10
10.934402909706819
 20
9.7666523847632405
 30
0.0
  0
SPLINE
  5
1A7
102
{ACAD_REACTORS
330
1B2
102
}
100
AcDbEntity
  8
Z_TATTOOMYSTIQUE
370
         5
  6
Continuous
 62
         4
100
AcDbSpline
210
0.0
220
0.0
230
1.0
 70
         0
 71
         3
 72
         8
 73
         4
 74
         0
 42
0.000001
 43
0.000001
 40
0.0
 40
0.0
 40
0.0
 40
0.0
 40
1.0
 40
1.0
 40
1.0
 40
1.0
 10
10.934402909706478
 20
10.52237469999865
 30
0.0
 10
10.960949935985695
 20
10.522374699998984
 30
0.0
 10
10.986409659137905
 20
10.532920460133951
 30
0.0
 10
11.00518123980055
 20
10.551692040796311
 30
0.0
  0
SPLINE
  5
1A8
102
{ACAD_REACTORS
330
1B2
102
}
100
AcDbEntity
  8
Z_TATTOOMYSTIQUE
370
         5
  6
Continuous
 62
         4
100
AcDbSpline
210
0.0
220
0.0
230
1.0
 70
         0
 71
         3
 72
         8
 73
         4
 74
         0
 42
0.000001
 43
0.000001
 40
0.0
 40
0.0
 40
0.0
 40
0.0
 40
1.0
 40
1.0
 40
1.0
 40
1.0
 10
11.00518123980055
 20
10.551692040796311
 30
0.0
 10
11.02395282046308
 20
10.570463621458785
 30
0.0
 10
11.034498580598381
 20
10.595923344610938
 30
0.0
 10
11.034498580598097
 20
10.622470370890838
 30
0.0
  0
SPLINE
  5
1A9
102
{ACAD_REACTORS
330
1B2
102
}
100
AcDbEntity
  8
Z_TATTOOMYSTIQUE
370
         5
  6
Continuous
 62
         4
100
AcDbSpline
210
0.0
220
0.0
230
1.0
 70
         0
 71
         3
 72
         8
 73
         4
 74
         0
 42
0.000001
 43
0.000001
 40
0.0
 40
0.0
 40
0.0
 40
0.0
 40
1.0
 40
1.0
 40
1.0
 40
1.0
 10
11.034498580600996
 20
6.3483852237969849
 30
0.0
 10
11.034498580601223
 20
6.3749322500766521
 30
0.0
 10
11.023952820466207
 20
6.400391973228583
 30
0.0
 10
11.005181239803221
 20
6.4191635538916287
 30
0.0
  0
SPLINE
  5
1AA
102
{ACAD_REACTORS
330
1B2
102
}
100
AcDbEntity
  8
Z_TATTOOMYSTIQUE
370
         5
  6
Continuous
 62
         4
100
AcDbSpline
210
0.0
220
0.0
230
1.0
 70
         0
 71
         3
 72
         8
 73
         4
 74
         0
 42
0.000001
 43
0.000001
 40
0.0
 40
0.0
 40
0.0
 40
0.0
 40
1.0
 40
1.0
 40
1.0
 40
1.0
 10
11.005181239803221
 20
6.4191635538916287
 30
0.0
 10
10.986409659140918
 20
6.4379351345542162
 30
0.0
 10
10.960949935988651
 20
6.4484808946887213
 30
0.0
 10
10.93440290970932
 20
6.4484808946889451
 30
0.0
  0
SPLINE
  5
1AB
102
{ACAD_REACTORS
330
1B2
102
}
100
AcDbEntity
  8
Z_TATTOOMYSTIQUE
370
         5
  6
Continuous
 62
         4
100
AcDbSpline
210
0.0
220
0.0
230
1.0
 70
         0
 71
         3
 72
         8
 73
         4
 74
         0
 42
0.000001
 43
0.000001
 40
0.0
 40
0.0
 40
0.0
 40
0.0
 40
1.0
 40
1.0
 40
1.0
 40
1.0
 10
10.93440290970841
 20
7.2042032099243514
 30
0.0
 10
10.96094993598814
 20
7.2042032099240032
 30
0.0
 10
10.986409659140122
 20
7.2147489700602208
 30
0.0
 10
11.005181239803051
 20
7.2335205507220088
 30
0.0
  0
ELLIPSE
  5
1AC
102
{ACAD_REACTORS
330
1B2
102
}
100
AcDbEntity
  8
Z_TATTOOMYSTIQUE
370
        25
  6
Continuous
 62
         4
100
AcDbEllipse
 10
12.6875785854
 20
7.1646654199
 30
0.0
 11
-0.2499999999999999
 21
-0.000000000000177
 31
0.0
210
0.0
220
0.0
230
1.0
 40
1.0
 41
4.7123889803846897
 42
10.995574287564276
  0
LINE
  5
1AD
102
{ACAD_REACTORS
330
1B2
102
}
100
AcDbEntity
  8
Z_TATTOOMYSTIQUE
370
         5
  6
Continuous
 62
         4
100
AcDbLine
 10
10.3788719363
 20
9.7666523848
 30
0.0
 11
10.3788719363
 21
10.5223747
 31
0.0
  0
LINE
  5
1AE
102
{ACAD_REACTORS
330
1B2
102
}
100
AcDbEntity
  8
Z_TATTOOMYSTIQUE
370
         5
  6
Continuous
 62
         4
100
AcDbLine
 10
10.3788719363
 20
9.7666523848
 30
0.0
 11
10.9344029097
 21
9.7666523848
 31
0.0
  0
LINE
  5
1AF
102
{ACAD_REACTORS
330
1B2
102
}
100
AcDbEntity
  8
Z_TATTOOMYSTIQUE
370
         5
  6
Continuous
 62
         4
100
AcDbLine
 10
10.9344029097
 20
10.5223747
 30
0.0
 11
10.3788719363
 21
10.5223747
 31
0.0
  0
LINE
  5
1B0
102
{ACAD_REACTORS
330
1B2
102
}
100
AcDbEntity
  8
Z_TATTOOMYSTIQUE
370
         5
  6
Continuous
 62
         4
100
AcDbLine
 10
11.0344985806
 20
10.6224703709
 30
0.0
 11
11.0344985806
 21
11.2130348292
 31
0.0
  0
LINE
  5
1B1
102
{ACAD_REACTORS
330
1B2
102
}
100
AcDbEntity
  8
Z_TATTOOMYSTIQUE
370
         5
  6
Continuous
 62
         4
100
AcDbLine
 10
10.3788719363
 20
6.4484808947
 30
0.0
 11
10.3788719363
 21
7.2042032099
 31
0.0
  0
CIRCLE
  5
1B3
102
{ACAD_REACTORS
330
1BE
102
}
100
AcDbEntity
  8
X_ROLLOVER
370
        25
  6
Continuous
 62
        27
100
AcDbCircle
 10
13.280471886
 20
7.8692629927
 30
0.0
 40
0.075
  0
CIRCLE
  5
1B4
102
{ACAD_REACTORS
330
1BE
102
}
100
AcDbEntity
  8
X_ROLLOVER
370
        25
  6
Continuous
 62
        27
100
AcDbCircle
 10
14.4684032674
 20
8.7851336349
 30
0.0
 40
0.075
  0
LINE
  5
1B5
102
{ACAD_REACTORS
330
1BD
102
}
100
AcDbEntity
  8
X_ROLLOVER
370
        25
  6
Continuous
 62
        27
100
AcDbLine
 10
14.6821064173
 20
8.5079496459
 30
0.0
 11
14.7126354387
 21
8.4683519332
 31
0.0
  0
LINE
  5
1B6
102
{ACAD_REACTORS
330
1BD
102
}
100
AcDbEntity
  8
X_ROLLOVER
370
        25
  6
Continuous
 62
        27
100
AcDbLine
 10
14.7126354387
 20
8.4683519332
 30
0.0
 11
13.5247040573
 21
7.552481291
 31
0.0
  0
LINE
  5
1B7
102
{ACAD_REACTORS
330
1BD
102
}
100
AcDbEntity
  8
X_ROLLOVER
370
        25
  6
Continuous
 62
        27
100
AcDbLine
 10
13.5247040573
 20
7.552481291
 30
0.0
 11
13.4941750359
 21
7.5920790038
 31
0.0
  0
LINE
  5
1B8
102
{ACAD_REACTORS
330
1BD
102
}
100
AcDbEntity
  8
X_ROLLOVER
370
        25
  6
Continuous
 62
        27
100
AcDbLine
 10
14.2547001176
 20
9.0623176239
 30
0.0
 11
14.2241710962
 21
9.1019153366
 31
0.0
  0
LINE
  5
1B9
102
{ACAD_REACTORS
330
1BD
102
}
100
AcDbEntity
  8
X_ROLLOVER
370
        25
  6
Continuous
 62
        27
100
AcDbLine
 10
14.2241710962
 20
9.1019153366
 30
0.0
 11
13.0362397148
 21
8.1860446944
 31
0.0
  0
LINE
  5
1BA
102
{ACAD_REACTORS
330
1BD
102
}
100
AcDbEntity
  8
X_ROLLOVER
370
        25
  6
Continuous
 62
        27
100
AcDbLine
 10
13.0362397148
 20
8.1860446944
 30
0.0
 11
13.0667687362
 21
8.1464469817
 31
0.0
  0
ARC
  5
1BB
102
{ACAD_REACTORS
330
1BD
102
}
100
AcDbEntity
  8
X_ROLLOVER
370
        25
  6
Continuous
 62
        27
100
AcDbCircle
 10
14.4684032674
 20
8.7851336349
 30
0.0
 40
0.35
100
AcDbArc
 50
-52.3685164631
 51
127.6314835369
  0
ARC
  5
1BC
102
{ACAD_REACTORS
330
1BD
102
}
100
AcDbEntity
  8
X_ROLLOVER
370
        25
  6
Continuous
 62
        27
100
AcDbCircle
 10
13.280471886
 20
7.8692629927
 30
0.0
 40
0.35
100
AcDbArc
 50
127.6314835369
 51
-52.3685164631
  0
CIRCLE
  5
1BF
100
AcDbEntity
  8
X_ROLLOVER
370
        25
  6
Continuous
 62
        27
100
AcDbCircle
 10
13.280471886
 20
7.8692629927
 30
0.0
 40
0.35
  0
CIRCLE
  5
1C0
102
{ACAD_REACTORS
330
1C2
102
}
100
AcDbEntity
  8
0
370
        25
  6
Continuous
 62
        47
100
AcDbCircle
 10
13.280471886
 20
7.8692629927
 30
0.0
 40
0.4
  0
CIRCLE
  5
1C1
102
{ACAD_REACTORS
330
1C2
102
}
100
AcDbEntity
  8
0
370
        25
  6
Continuous
 62
        47
100
AcDbCircle
 10
13.280471886
 20
7.8692629927
 30
0.0
 40
0.215
  0
CIRCLE
  5
1C3
100
AcDbEntity
  8
X_DROPS
370
         5
  6
Continuous
 62
         5
100
AcDbCircle
 10
11.9208570375
 20
14.0362431901
 30
0.0
 40
0.4281496063
  0
CIRCLE
  5
1C4
100
AcDbEntity
  8
X_SMPOSTS
370
        25
  6
Continuous
 62
         3
100
AcDbCircle
 10
11.9208570375
 20
14.0362431901
 30
0.0
 40
0.5110787402
  0
CIRCLE
  5
1C5
100
AcDbEntity
  8
Z0_CUT250
370
         5
  6
Continuous
 62
        47
100
AcDbCircle
 10
12.9434822545
 20
10.2211816788
 30
0.0
 40
0.075
  0
CIRCLE
  5
1C6
100
AcDbEntity
  8
X_ROLLOVER
370
        25
  6
Continuous
 62
        27
100
AcDbCircle
 10
12.9434822545
 20
10.2211816788
 30
0.0
 40
0.075
  0
CIRCLE
  5
1C7
100
AcDbEntity
  8
6_125BIT_500DEP
370
        25
  6
Continuous
 62
         5
100
AcDbCircle
 10
12.9434822545
 20
10.2211816788
 30
0.0
 40
0.0825
  0
CIRCLE
  5
1C8
100
AcDbEntity
  8
3_250BIT_500TAB
370
        25
  6
Continuous
 62
         5
100
AcDbCircle
 10
12.6875785854
 20
7.1646654199
 30
0.0
 40
0.25
  0
ENDSEC
  0
SECTION
  2
OBJECTS
  0
DICTIONARY
  5
19
100
AcDbDictionary
280
         0
281
         1
  3
ACAD_GROUP
350
1A
  3
ACAD_MLINESTYLE
350
1B
  3
ACAD_LAYOUT
350
1E
  3
ACAD_PLOTSETTINGS
350
22
  3
ACAD_PLOTSTYLENAME
350
1F
  3
ACAD_WIPEOUT_VARS
350
23
  0
DICTIONARY
  5
1A
102
{ACAD_REACTORS
330
19
102
}
100
AcDbDictionary
280
         0
281
         1
  3
VELLUMGRP1
350
5D
  3
VELLUMGRP2
350
61
  3
VELLUMGRP3
350
6C
  3
VELLUMGRP4
350
78
  3
VELLUMGRP5
350
79
  3
VELLUMGRP6
350
83
  3
VELLUMGRP7
350
8F
  3
VELLUMGRP8
350
A3
  3
VELLUMGRP9
350
AF
  3
VELLUMGRP10
350
BA
  3
VELLUMGRP11
350
C3
  3
VELLUMGRP12
350
D0
  3
VELLUMGRP13
350
E3
  3
VELLUMGRP14
350
E9
  3
VELLUMGRP15
350
F0
  3
VELLUMGRP16
350
F8
  3
VELLUMGRP17
350
104
  3
VELLUMGRP18
350
111
  3
VELLUMGRP19
350
122
  3
VELLUMGRP20
350
14A
  3
VELLUMGRP21
350
159
  3
VELLUMGRP22
350
161
  3
VELLUMGRP23
350
166
  3
VELLUMGRP24
350
173
  3
VELLUMGRP25
350
181
  3
VELLUMGRP26
350
1B2
  3
VELLUMGRP27
350
1BD
  3
VELLUMGRP28
350
1BE
  3
VELLUMGRP29
350
1C2
  0
DICTIONARY
  5
1B
102
{ACAD_REACTORS
330
19
102
}
100
AcDbDictionary
280
         0
281
         1
  3
Standard
350
1C
  0
MLINESTYLE
  5
1C
102
{ACAD_REACTORS
330
1B
102
}
100
AcDbMlineStyle
  2
Standard
 70
         0
  3

 62
         0
 51
90.0
 52
90.0
 71
         2
 49
0.5
 62
       256
  6
BYLAYER
 49
-0.5
 62
       256
  6
BYLAYER
  0
ACDBDICTIONARYWDFLT
  5
1F
102
{ACAD_REACTORS
330
19
102
}
100
AcDbDictionary
281
         1
  3
Normal
350
1D
100
AcDbDictionaryWithDefault
340
1D
  0
ACDBPLACEHOLDER
  5
1D
102
{ACAD_REACTORS
330
1F
102
}
  0
LAYOUT
  5
20
102
{ACAD_REACTORS
330
1E
102
}
100
AcDbPlotSettings
  1

  2

  4

  6

 40
0.0
 41
0.0
 42
0.0
 43
0.0
 44
0.0
 45
0.0
 46
0.0
 47
0.0
 48
0.0
 49
0.0
140
0.0
141
0.0
142
1.0
143
1.0
 70
      1024
 72
         0
 73
         0
 74
         0
  7

 75
         0
147
1.0
148
0.0
149
0.0
100
AcDbLayout
  1
Model
 70
         0
 71
         0
 10
0.0
 20
0.0
 11
0.0
 21
0.0
 12
0.0
 22
0.0
 32
0.0
 14
0.0
 24
0.0
 34
0.0
 15
0.0
 25
0.0
 35
0.0
146
0.0
 13
0.0
 23
0.0
 33
0.0
 16
0.0
 26
0.0
 36
0.0
 17
0.0
 27
0.0
 37
0.0
 76
         0
330
A
331
0
345
0
346
0
  0
LAYOUT
  5
21
102
{ACAD_REACTORS
330
1E
102
}
100
AcDbPlotSettings
  1

  2

  4

  6

 40
0.0
 41
0.0
 42
0.0
 43
0.0
 44
0.0
 45
0.0
 46
0.0
 47
0.0
 48
0.0
 49
0.0
140
0.0
141
0.0
142
1.0
143
1.0
 70
         0
 72
         0
 73
         0
 74
         0
  7

 75
         0
147
1.0
148
0.0
149
0.0
100
AcDbLayout
  1
Layout1
 70
         0
 71
         0
 10
0.0
 20
0.0
 11
0.0
 21
0.0
 12
0.0
 22
0.0
 32
0.0
 14
0.0
 24
0.0
 34
0.0
 15
0.0
 25
0.0
 35
0.0
146
0.0
 13
0.0
 23
0.0
 33
0.0
 16
0.0
 26
0.0
 36
0.0
 17
0.0
 27
0.0
 37
0.0
 76
         0
330
B
331
0
345
0
346
0
  0
DICTIONARY
  5
1E
102
{ACAD_REACTORS
330
19
102
}
100
AcDbDictionary
280
         0
281
         1
  3
Layout1
350
21
  3
Model
350
20
  0
DICTIONARY
  5
22
102
{ACAD_REACTORS
330
19
102
}
100
AcDbDictionary
280
         0
281
         1
  0
WIPEOUTVARIABLES
  5
23
100
AcDbWipeoutVariables
 70
         1
  0
GROUP
  5
5D
102
{ACAD_XDICTIONARY
360
5CEB210060EB2100
102
}
102
{ACAD_REACTORS
330
1A
102
}
100
AcDbGroup
300
This is Vellum Group Number 1
 70
         0
 71
         1
340
5B
340
5C
  0
GROUP
  5
61
102
{ACAD_XDICTIONARY
360
3207917C60EB2100
102
}
102
{ACAD_REACTORS
330
1A
102
}
100
AcDbGroup
300
This is Vellum Group Number 2
 70
         0
 71
         1
340
5F
340
60
  0
GROUP
  5
6C
102
{ACAD_XDICTIONARY
360
3207917C60EB2100
102
}
102
{ACAD_REACTORS
330
1A
102
}
100
AcDbGroup
300
This is Vellum Group Number 3
 70
         0
 71
         1
340
62
340
63
340
64
340
65
340
66
340
67
340
68
340
69
340
6A
340
6B
  0
GROUP
  5
78
102
{ACAD_XDICTIONARY
360
3207917C6CEA2100
102
}
102
{ACAD_REACTORS
330
1A
102
}
100
AcDbGroup
300
This is Vellum Group Number 4
 70
         0
 71
         1
340
70
340
71
340
72
340
73
340
74
340
75
340
76
340
77
  0
GROUP
  5
79
102
{ACAD_XDICTIONARY
360
3207917C60EB2100
102
}
102
{ACAD_REACTORS
330
1A
102
}
100
AcDbGroup
300
This is Vellum Group Number 5
 70
         0
 71
         1
340
6E
340
6F
340
6F
  0
GROUP
  5
83
102
{ACAD_XDICTIONARY
360
3207917C60EB2100
102
}
102
{ACAD_REACTORS
330
1A
102
}
100
AcDbGroup
300
This is Vellum Group Number 6
 70
         0
 71
         1
340
81
340
82
  0
GROUP
  5
8F
102
{ACAD_XDICTIONARY
360
3207917C60EB2100
102
}
102
{ACAD_REACTORS
330
1A
102
}
100
AcDbGroup
300
This is Vellum Group Number 7
 70
         0
 71
         1
340
87
340
88
340
89
340
8A
340
8B
340
8C
340
8D
340
8E
  0
GROUP
  5
A3
102
{ACAD_XDICTIONARY
360
3207917C60EB2100
102
}
102
{ACAD_REACTORS
330
1A
102
}
100
AcDbGroup
300
This is Vellum Group Number 8
 70
         0
 71
         1
340
98
340
99
340
9A
340
9B
340
9C
340
9D
340
9E
340
9F
340
A0
340
A1
340
A2
  0
GROUP
  5
AF
102
{ACAD_XDICTIONARY
360
3207917C60EB2100
102
}
102
{ACAD_REACTORS
330
1A
102
}
100
AcDbGroup
300
This is Vellum Group Number 9
 70
         0
 71
         1
340
A4
340
A5
340
A6
340
A7
340
A8
340
A9
340
AA
340
AB
340
AC
340
AD
340
AE
  0
GROUP
  5
BA
102
{ACAD_XDICTIONARY
360
3207917C60EB2100
102
}
102
{ACAD_REACTORS
330
1A
102
}
100
AcDbGroup
300
This is Vellum Group Number 10
 70
         0
 71
         1
340
B8
340
B9
  0
GROUP
  5
C3
102
{ACAD_XDICTIONARY
360
3207917C60EB2100
102
}
102
{ACAD_REACTORS
330
1A
102
}
100
AcDbGroup
300
This is Vellum Group Number 11
 70
         0
 71
         1
340
C1
340
C2
  0
GROUP
  5
D0
102
{ACAD_XDICTIONARY
360
3207917C60EB2100
102
}
102
{ACAD_REACTORS
330
1A
102
}
100
AcDbGroup
300
This is Vellum Group Number 12
 70
         0
 71
         1
340
C5
340
C6
340
C7
340
C8
340
C9
340
CA
340
CB
340
CC
340
CD
340
CE
340
CF
  0
GROUP
  5
E3
102
{ACAD_XDICTIONARY
360
3207917C60EB2100
102
}
102
{ACAD_REACTORS
330
1A
102
}
100
AcDbGroup
300
This is Vellum Group Number 13
 70
         0
 71
         1
340
D8
340
D9
340
DA
340
DB
340
DC
340
DD
340
DE
340
DF
340
E0
340
E1
340
E2
  0
GROUP
  5
E9
102
{ACAD_XDICTIONARY
360
3207917C60EB2100
102
}
102
{ACAD_REACTORS
330
1A
102
}
100
AcDbGroup
300
This is Vellum Group Number 14
 70
         0
 71
         1
340
E5
340
E6
340
E7
340
E8
  0
GROUP
  5
F0
102
{ACAD_XDICTIONARY
360
3207917C60EB2100
102
}
102
{ACAD_REACTORS
330
1A
102
}
100
AcDbGroup
300
This is Vellum Group Number 15
 70
         0
 71
         1
340
EE
340
EF
  0
GROUP
  5
F8
102
{ACAD_XDICTIONARY
360
3207917C60EB2100
102
}
102
{ACAD_REACTORS
330
1A
102
}
100
AcDbGroup
300
This is Vellum Group Number 16
 70
         0
 71
         1
340
F6
340
F7
  0
GROUP
  5
104
102
{ACAD_XDICTIONARY
360
3207917C60EB2100
102
}
102
{ACAD_REACTORS
330
1A
102
}
100
AcDbGroup
300
This is Vellum Group Number 17
 70
         0
 71
         1
340
F9
340
FA
340
FB
340
FC
340
FD
340
FE
340
FF
340
100
340
101
340
102
340
103
  0
GROUP
  5
111
102
{ACAD_XDICTIONARY
360
3207917C60EB2100
102
}
102
{ACAD_REACTORS
330
1A
102
}
100
AcDbGroup
300
This is Vellum Group Number 18
 70
         0
 71
         1
340
106
340
107
340
108
340
109
340
10A
340
10B
340
10C
340
10D
340
10E
340
10F
340
110
  0
GROUP
  5
122
102
{ACAD_XDICTIONARY
360
3207917C60EB2100
102
}
102
{ACAD_REACTORS
330
1A
102
}
100
AcDbGroup
300
This is Vellum Group Number 19
 70
         0
 71
         1
340
117
340
118
340
119
340
11A
340
11B
340
11C
340
11D
340
11E
340
11F
340
120
340
121
  0
GROUP
  5
14A
102
{ACAD_XDICTIONARY
360
3207917C60EB2100
102
}
102
{ACAD_REACTORS
330
1A
102
}
100
AcDbGroup
300
This is Vellum Group Number 20
 70
         0
 71
         1
340
126
340
127
340
128
340
129
340
12A
340
12B
340
12C
340
12D
340
12E
340
12F
340
130
340
131
340
132
340
133
340
134
340
135
340
136
340
137
340
138
340
139
340
13A
340
13B
340
13C
340
13D
340
13E
340
13F
340
140
340
141
340
142
340
143
340
144
340
145
340
146
340
147
340
148
340
149
  0
GROUP
  5
159
102
{ACAD_XDICTIONARY
360
3207917C60EB2100
102
}
102
{ACAD_REACTORS
330
1A
102
}
100
AcDbGroup
300
This is Vellum Group Number 21
 70
         0
 71
         1
340
14E
340
14F
340
150
340
151
340
152
340
153
340
154
340
155
340
156
340
157
340
158
  0
GROUP
  5
161
102
{ACAD_XDICTIONARY
360
3207917C60EB2100
102
}
102
{ACAD_REACTORS
330
1A
102
}
100
AcDbGroup
300
This is Vellum Group Number 22
 70
         0
 71
         1
340
15D
340
15E
340
15F
340
160
  0
GROUP
  5
166
102
{ACAD_XDICTIONARY
360
3207917C60EB2100
102
}
102
{ACAD_REACTORS
330
1A
102
}
100
AcDbGroup
300
This is Vellum Group Number 23
 70
         0
 71
         1
340
164
340
165
  0
GROUP
  5
173
102
{ACAD_XDICTIONARY
360
3207917C60EB2100
102
}
102
{ACAD_REACTORS
330
1A
102
}
100
AcDbGroup
300
This is Vellum Group Number 24
 70
         0
 71
         1
340
168
340
169
340
16A
340
16B
340
16C
340
16D
340
16E
340
16F
340
170
340
171
340
172
  0
GROUP
  5
181
102
{ACAD_XDICTIONARY
360
3207917C60EB2100
102
}
102
{ACAD_REACTORS
330
1A
102
}
100
AcDbGroup
300
This is Vellum Group Number 25
 70
         0
 71
         1
340
174
340
175
340
176
340
177
340
178
340
179
340
17A
340
17B
340
17C
340
17D
340
17E
340
17F
340
180
  0
GROUP
  5
1B2
102
{ACAD_XDICTIONARY
360
3207917C60EB2100
102
}
102
{ACAD_REACTORS
330
1A
102
}
100
AcDbGroup
300
This is Vellum Group Number 26
 70
         0
 71
         1
340
182
340
183
340
184
340
185
340
186
340
187
340
188
340
189
340
18A
340
18B
340
18C
340
18D
340
18E
340
18F
340
190
340
191
340
192
340
193
340
194
340
195
340
196
340
197
340
198
340
199
340
19A
340
19B
340
19C
340
19D
340
19E
340
19F
340
1A0
340
1A1
340
1A2
340
1A3
340
1A4
340
1A5
340
1A6
340
1A7
340
1A8
340
1A9
340
1AA
340
1AB
340
1AC
340
1AD
340
1AE
340
1AF
340
1B0
340
1B1
  0
GROUP
  5
1BD
102
{ACAD_XDICTIONARY
360
3207917C6CEA2100
102
}
102
{ACAD_REACTORS
330
1A
102
}
100
AcDbGroup
300
This is Vellum Group Number 27
 70
         0
 71
         1
340
1B5
340
1B6
340
1B7
340
1B8
340
1B9
340
1BA
340
1BB
340
1BC
  0
GROUP
  5
1BE
102
{ACAD_XDICTIONARY
360
58771B0560EB2100
102
}
102
{ACAD_REACTORS
330
1A
102
}
100
AcDbGroup
300
This is Vellum Group Number 28
 70
         0
 71
         1
340
1B3
340
1B4
340
1B4
  0
GROUP
  5
1C2
102
{ACAD_XDICTIONARY
360
3207917C60EB2100
102
}
102
{ACAD_REACTORS
330
1A
102
}
100
AcDbGroup
300
This is Vellum Group Number 29
 70
         0
 71
         1
340
1C0
340
1C1
  0
ENDSEC
  0
EOF
