  0
SECTION
  2
HEADER
  9
$ACADVER
  1
AC1015
  9
$ACADMAINTVER
 70
         6
  9
$DWGCODEPAGE
  3
ANSI_1252
  9
$INSBASE
 10
0.0
 20
0.0
 30
0.0
  9
$EXTMIN
 10
-0.93969262
 20
-0.98480775
 30
0.0
  9
$EXTMAX
 10
13.0
 20
12.98480775
 30
0.0
  9
$LIMMIN
 10
0.0
 20
0.0
  9
$LIMMAX
 10
0.0
 20
0.0
  9
$ORTHOMODE
 70
         0
  9
$REGENMODE
 70
         1
  9
$FILLMODE
 70
         1
  9
$QTEXTMODE
 70
         0
  9
$MIRRTEXT
 70
         1
  9
$LTSCALE
 40
5.0
  9
$ATTMODE
 70
         1
  9
$TEXTSIZE
 40
0.2
  9
$TRACEWID
 40
0.05
  9
$TEXTSTYLE
  7
Standard
  9
$CLAYER
  8
0
  9
$CELTYPE
  6
Continuous
  9
$CECOLOR
 62
       256
  9
$CELTSCALE
 40
1.0
  9
$DISPSILH
 70
         0
  9
$DIMSCALE
 40
1.0
  9
$DIMASZ
 40
0.18
  9
$DIMEXO
 40
0.0625
  9
$DIMDLI
 40
0.38
  9
$DIMRND
 40
0.0
  9
$DIMDLE
 40
0.0
  9
$DIMEXE
 40
0.18
  9
$DIMTP
 40
0.0
  9
$DIMTM
 40
0.0
  9
$DIMTXT
 40
0.18
  9
$DIMCEN
 40
0.09
  9
$DIMTSZ
 40
0.0
  9
$DIMTOL
 70
         0
  9
$DIMLIM
 70
         0
  9
$DIMTIH
 70
         1
  9
$DIMTOH
 70
         1
  9
$DIMSE1
 70
         0
  9
$DIMSE2
 70
         0
  9
$DIMTAD
 70
         0
  9
$DIMZIN
 70
         0
  9
$DIMBLK
  1

  9
$DIMASO
 70
         1
  9
$DIMSHO
 70
         1
  9
$DIMPOST
  1

  9
$DIMAPOST
  1

  9
$DIMALT
 70
         0
  9
$DIMALTD
 70
         2
  9
$DIMALTF
 40
25.4
  9
$DIMLFAC
 40
1.0
  9
$DIMTOFL
 70
         0
  9
$DIMTVP
 40
0.0
  9
$DIMTIX
 70
         0
  9
$DIMSOXD
 70
         0
  9
$DIMSAH
 70
         0
  9
$DIMBLK1
  1

  9
$DIMBLK2
  1

  9
$DIMSTYLE
  2
Standard
  9
$DIMCLRD
 70
         0
  9
$DIMCLRE
 70
         0
  9
$DIMCLRT
 70
         0
  9
$DIMTFAC
 40
1.0
  9
$DIMGAP
 40
0.09
  9
$DIMJUST
 70
         0
  9
$DIMSD1
 70
         0
  9
$DIMSD2
 70
         0
  9
$DIMTOLJ
 70
         1
  9
$DIMTZIN
 70
         0
  9
$DIMALTZ
 70
         0
  9
$DIMALTTZ
 70
         0
  9
$DIMUPT
 70
         0
  9
$DIMDEC
 70
         4
  9
$DIMTDEC
 70
         4
  9
$DIMALTU
 70
         2
  9
$DIMALTTD
 70
         2
  9
$DIMTXSTY
  7
Standard
  9
$DIMAUNIT
 70
         0
  9
$DIMADEC
 70
         0
  9
$DIMALTRND
 40
0.0
  9
$DIMAZIN
 70
         0
  9
$DIMDSEP
 70
         0
  9
$DIMATFIT
 70
         3
  9
$DIMFRAC
 70
         0
  9
$DIMLDRBLK
  1

  9
$DIMLUNIT
 70
         2
  9
$DIMLWD
 70
         0
  9
$DIMLWE
 70
         0
  9
$DIMTMOVE
 70
         0
  9
$LUNITS
 70
         2
  9
$LUPREC
 70
         4
  9
$SKETCHINC
 40
0.1
  9
$FILLETRAD
 40
0.0
  9
$AUNITS
 70
         0
  9
$AUPREC
 70
         0
  9
$MENU
  1
acad
  9
$ELEVATION
 40
0.0
  9
$PELEVATION
 40
0.0
  9
$THICKNESS
 40
0.0
  9
$LIMCHECK
 70
         0
  9
$CHAMFERA
 40
0.0
  9
$CHAMFERB
 40
0.0
  9
$CHAMFERC
 40
0.0
  9
$CHAMFERD
 40
0.0
  9
$SKPOLY
 70
         0
  9
$TDCREATE
 40
2460906.906759259
  9
$TDUCREATE
 40
0.000000000
  9
$TDUPDATE
 40
2460906.906759259
  9
$TDUUPDATE
 40
0.000000000
  9
$TDINDWG
 40
0.0000000000
  9
$TDUSRTIMER
 40
0.0000000000
  9
$USRTIMER
 70
         1
  9
$ANGBASE
 50
0.0
  9
$ANGDIR
 70
         0
  9
$PDMODE
 70
         0
  9
$PDSIZE
 40
0.0
  9
$PLINEWID
 40
0.0
  9
$SPLFRAME
 70
         0
  9
$SPLINETYPE
 70
         6
  9
$SPLINESEGS
 70
         8
  9
$HANDSEED
  5
1C5
  9
$SURFTAB1
 70
         6
  9
$SURFTAB2
 70
         6
  9
$SURFTYPE
 70
         6
  9
$SURFU
 70
         6
  9
$SURFV
 70
         6
  9
$UCSBASE
  2

  9
$UCSNAME
  2

  9
$UCSORG
 10
0.0
 20
0.0
 30
0.0
  9
$UCSXDIR
 10
1.0
 20
0.0
 30
0.0
  9
$UCSYDIR
 10
0.0
 20
1.0
 30
0.0
  9
$UCSORTHOREF
  2

  9
$UCSORTHOVIEW
 70
         0
  9
$UCSORGTOP
 10
0.0
 20
0.0
 30
0.0
  9
$UCSORGBOTTOM
 10
0.0
 20
0.0
 30
0.0
  9
$UCSORGLEFT
 10
0.0
 20
0.0
 30
0.0
  9
$UCSORGRIGHT
 10
0.0
 20
0.0
 30
0.0
  9
$UCSORGFRONT
 10
0.0
 20
0.0
 30
0.0
  9
$UCSORGBACK
 10
0.0
 20
0.0
 30
0.0
  9
$PUCSBASE
  2

  9
$PUCSNAME
  2

  9
$PUCSORG
 10
0.0
 20
0.0
 30
0.0
  9
$PUCSXDIR
 10
1.0
 20
0.0
 30
0.0
  9
$PUCSYDIR
 10
0.0
 20
1.0
 30
0.0
  9
$PUCSORTHOREF
  2

  9
$PUCSORTHOVIEW
 70
         0
  9
$PUCSORGTOP
 10
0.0
 20
0.0
 30
0.0
  9
$PUCSORGBOTTOM
 10
0.0
 20
0.0
 30
0.0
  9
$PUCSORGLEFT
 10
0.0
 20
0.0
 30
0.0
  9
$PUCSORGRIGHT
 10
0.0
 20
0.0
 30
0.0
  9
$PUCSORGFRONT
 10
0.0
 20
0.0
 30
0.0
  9
$PUCSORGBACK
 10
0.0
 20
0.0
 30
0.0
  9
$USERI1
 70
         0
  9
$USERI2
 70
         0
  9
$USERI3
 70
         0
  9
$USERI4
 70
         0
  9
$USERI5
 70
         0
  9
$USERR1
 40
0.0
  9
$USERR2
 40
0.0
  9
$USERR3
 40
0.0
  9
$USERR4
 40
0.0
  9
$USERR5
 40
0.0
  9
$WORLDVIEW
 70
         1
  9
$SHADEDGE
 70
         3
  9
$SHADEDIF
 70
        70
  9
$TILEMODE
 70
         1
  9
$MAXACTVP
 70
        16
  9
$PINSBASE
 10
0.0
 20
0.0
 30
0.0
  9
$PLIMCHECK
 70
         0
  9
$PEXTMIN
 10
1.0000000000E+20
 20
1.0000000000E+20
 30
1.0000000000E+20
  9
$PEXTMAX
 10
-1.0000000000E+20
 20
-1.0000000000E+20
 30
-1.0000000000E+20
  9
$PLIMMIN
 10
0.0
 20
0.0
  9
$PLIMMAX
 10
12.0
 20
9.0
  9
$UNITMODE
 70
         0
  9
$VISRETAIN
 70
         0
  9
$PLINEGEN
 70
         1
  9
$PSLTSCALE
 70
         0
  9
$TREEDEPTH
 70
      3020
  9
$CMLSTYLE
  2
Standard
  9
$CMLJUST
 70
         0
  9
$CMLSCALE
 40
1.0
  9
$PROXYGRAPHICS
 70
         0
  9
$MEASUREMENT
 70
         0
  9
$CELWEIGHT
370
         0
  9
$ENDCAPS
280
         0
  9
$JOINSTYLE
280
         0
  9
$LWDISPLAY
290
         0
  9
$INSUNITS
 70
         0
  9
$HYPERLINKBASE
  1

  9
$XEDIT
290
         1
  9
$CEPSNTYPE
380
         0
  9
$PSTYLEMODE
290
         1
  9
$FINGERPRINTGUID
  2

  9
$VERSIONGUID
  2

  9
$EXTNAMES
290
         1
  9
$PSVPSCALE
 40
0.0
  0
ENDSEC
  0
SECTION
  2
CLASSES
  0
CLASS
  1
LWPOLYLINE
  2
AcDbPolyline
  3
AutoCAD 2000
 90
    32768
280
         0
281
         1
  0
CLASS
  1
IMAGE
  2
AcDbRasterImage
  3
ISM
 90
    32895
280
         0
281
         1
  0
CLASS
  1
OLE2FRAME
  2
AcDbOle2Frame
  3
AutoCAD 2000
 90
    32768
280
         0
281
         1
  0
CLASS
  1
HATCH
  2
AcDbHatch
  3
AutoCAD 2000
 90
    32768
280
         0
281
         1
  0
CLASS
  1
DICTIONARYVAR
  2
AcDbDictionaryVar
  3
AutoCAD 2000
 90
    32768
280
         0
281
         0
  0
CLASS
  1
RASTERVARIABLES
  2
AcDbRasterVariables
  3
ISM
 90
    32768
280
         0
281
         0
  0
CLASS
  1
IMAGEDEF
  2
AcDbRasterImageDef
  3
ISM
 90
    32768
280
         0
281
         0
  0
CLASS
  1
IMAGEDEF_REACTOR
  2
AcDbRasterImageDefReactor
  3
ISM
 90
    32769
280
         0
281
         0
  0
CLASS
  1
IDBUFFER
  2
AcDbIdBuffer
  3
AutoCAD 2000
 90
    32768
280
         0
281
         0
  0
CLASS
  1
SPATIAL_FILTER
  2
AcDbSpatialFilter
  3
AutoCAD 2000
 90
    32768
280
         0
281
         0
  0
CLASS
  1
XRECORD
  2
AcDbXrecord
  3
AutoCAD 2000
 90
    32768
280
         0
281
         0
  0
CLASS
  1
SORTENTSTABLE
  2
AcDbSortentsTable
  3
AutoCAD 2000
 90
    32768
280
         0
281
         0
  0
CLASS
  1
LAYER_INDEX
  2
AcDbLayerIndex
  3
AutoCAD 2000
 90
    32768
280
         0
281
         0
  0
CLASS
  1
SPATIAL_INDEX
  2
AcDbSpatialIndex
  3
AutoCAD 2000
 90
    32768
280
         0
281
         0
  0
CLASS
  1
OBJECT_PTR
  2
CAseDLPNTableRecord
  3
"ASE-LPNTableRecord"
 90
    32769
280
         0
281
         0
  0
CLASS
  1
LAYOUT
  2
AcDbLayout
  3
AutoCAD 2000
 90
        0
280
         0
281
         0
  0
CLASS
  1
PLOTSETTINGS
  2
AcDbPlotSettings
  3
AutoCAD 2000
 90
    32768
280
         0
281
         0
  0
CLASS
  1
ACDBDICTIONARYWDFLT
  2
AcDbDictionaryWithDefault
  3
AutoCAD 2000
 90
        0
280
         0
281
         0
  0
CLASS
  1
ACDBPLACEHOLDER
  2
AcDbPlaceHolder
  3
AutoCAD 2000
 90
        0
280
         0
281
         0
  0
CLASS
  1
VBA_PROJECT
  2
AcDbVbaProject
  3
acadvba
 90
    32768
280
         0
281
         0
  0
CLASS
  1
WIPEOUT
  2
AcDbWipeout
  3
WipeOut|AutoCAD Express Tool|expresstools@autodesk.com
 90
    32895
280
         0
281
         1
  0
CLASS
  1
WIPEOUTVARIABLES
  2
AcDbWipeoutVariables
  3
WipeOut|AutoCAD Express Tool|expresstools@autodesk.com
 90
        0
280
         0
281
         0
  0
CLASS
  1
RTEXT
  2
RText
  3
RText|AutoCAD Express Tool|expresstools@autodesk.com
 90
    32768
280
         0
281
         1
  0
CLASS
  1
ARCALIGNEDTEXT
  2
AcDbArcAlignedText
  3
ATEXT|AutoCAD Express Tool|expresstools@autodesk.com
 90
    32768
280
         0
281
         1
  0
ENDSEC
  0
SECTION
  2
TABLES
  0
TABLE
  2
VPORT
  5
7
100
AcDbSymbolTable
 70
         1
  0
VPORT
  5
15
100
AcDbSymbolTableRecord
100
AcDbViewportTableRecord
  2
*ACTIVE
 70
         0
 10
0.0
 20
0.0
 11
1.0
 21
1.0
 12
6.591288
 22
4.579184
 13
0.0
 23
0.0
 14
1.0
 24
1.0
 15
0.0
 25
0.0
 16
0.0
 26
0.0
 36
1.0
 17
0.0
 27
0.0
 37
0.0
 40
9.158369
 41
0.688564
 42
50.0
 43
0.0
 44
0.0
 50
0.0
 51
0.0
 71
         0
 72
       100
 73
         1
 74
         1
 75
         0
 76
         0
 77
         0
 78
         0
281
         0
 65
         0
110
0.0
120
0.0
130
0.0
111
1.0
121
0.0
131
0.0
112
0.0
122
1.0
132
0.0
345
0
346
0
 79
         0
146
0.0
  0
ENDTAB
  0
TABLE
  2
LTYPE
  5
4
100
AcDbSymbolTable
 70
        13
  0
LTYPE
  5
11
100
AcDbSymbolTableRecord
100
AcDbLinetypeTableRecord
  2
ByBlock
 70
        64
  3

 72
        65
 73
         0
 40
0.0
  0
LTYPE
  5
12
100
AcDbSymbolTableRecord
100
AcDbLinetypeTableRecord
  2
ByLayer
 70
        64
  3

 72
        65
 73
         0
 40
0.0
  0
LTYPE
  5
13
100
AcDbSymbolTableRecord
100
AcDbLinetypeTableRecord
  2
Continuous
 70
        64
  3
Solid line
 72
        65
 73
         0
 40
0.0
  0
LTYPE
  5
25
100
AcDbSymbolTableRecord
100
AcDbLinetypeTableRecord
  2
Dotted
 70
        64
  3
Dotted
 72
        65
 73
         2
 40
0.125
 49
0.0
 74
         0
 49
-0.125
 74
         0
  0
LTYPE
  5
26
100
AcDbSymbolTableRecord
100
AcDbLinetypeTableRecord
  2
Center
 70
        64
  3
Center
 72
        65
 73
         4
 40
0.7699999809
 49
0.5
 74
         0
 49
-0.0724999979
 74
         0
 49
0.125
 74
         0
 49
-0.0724999979
 74
         0
  0
LTYPE
  5
27
100
AcDbSymbolTableRecord
100
AcDbLinetypeTableRecord
  2
Dashed
 70
        64
  3
Dashed
 72
        65
 73
         2
 40
0.375
 49
0.25
 74
         0
 49
-0.125
 74
         0
  0
LTYPE
  5
28
100
AcDbSymbolTableRecord
100
AcDbLinetypeTableRecord
  2
Hidden
 70
        64
  3
Hidden
 72
        65
 73
         2
 40
0.1974999905
 49
0.125
 74
         0
 49
-0.0724999979
 74
         0
  0
LTYPE
  5
29
100
AcDbSymbolTableRecord
100
AcDbLinetypeTableRecord
  2
Phantom
 70
        64
  3
Phantom
 72
        65
 73
         6
 40
0.9674999714
 49
0.5
 74
         0
 49
-0.0724999979
 74
         0
 49
0.125
 74
         0
 49
-0.0724999979
 74
         0
 49
0.125
 74
         0
 49
-0.0724999979
 74
         0
  0
LTYPE
  5
2A
100
AcDbSymbolTableRecord
100
AcDbLinetypeTableRecord
  2
Dashdot
 70
        64
  3
Dashdot
 72
        65
 73
         4
 40
0.6762499809
 49
0.5
 74
         0
 49
-0.0724999979
 74
         0
 49
0.03125
 74
         0
 49
-0.0724999979
 74
         0
  0
LTYPE
  5
2B
100
AcDbSymbolTableRecord
100
AcDbLinetypeTableRecord
  2
Border
 70
        64
  3
Border
 72
        65
 73
         6
 40
1.2487499714
 49
0.5
 74
         0
 49
-0.0724999979
 74
         0
 49
0.5
 74
         0
 49
-0.0724999979
 74
         0
 49
0.03125
 74
         0
 49
-0.0724999979
 74
         0
  0
LTYPE
  5
2C
100
AcDbSymbolTableRecord
100
AcDbLinetypeTableRecord
  2
Divide
 70
        64
  3
Divide
 72
        65
 73
         6
 40
0.7799999714
 49
0.5
 74
         0
 49
-0.0724999979
 74
         0
 49
0.03125
 74
         0
 49
-0.0724999979
 74
         0
 49
0.03125
 74
         0
 49
-0.0724999979
 74
         0
  0
LTYPE
  5
2D
100
AcDbSymbolTableRecord
100
AcDbLinetypeTableRecord
  2
Cutting
 70
        64
  3
Cutting
 72
        65
 73
         6
 40
1.4674999714
 49
1.0
 74
         0
 49
-0.0724999979
 74
         0
 49
0.125
 74
         0
 49
-0.0724999979
 74
         0
 49
0.125
 74
         0
 49
-0.0724999979
 74
         0
  0
LTYPE
  5
2E
100
AcDbSymbolTableRecord
100
AcDbLinetypeTableRecord
  2
Stitch
 70
        64
  3
Stitch
 72
        65
 73
         2
 40
0.1449999958
 49
0.0724999979
 74
         0
 49
-0.0724999979
 74
         0
  0
ENDTAB
  0
TABLE
  2
LAYER
  5
2
100
AcDbSymbolTable
 70
        45
  0
LAYER
  5
14
100
AcDbSymbolTableRecord
100
AcDbLayerTableRecord
  2
0
 70
         0
 62
         7
  6
Continuous
290
         1
370
        -3
390
1D
  0
LAYER
  5
2F
100
AcDbSymbolTableRecord
100
AcDbLayerTableRecord
  2
DF_COMP
 70
         0
 62
         4
  6
Continuous
290
         1
370
         2
390
1F
  0
LAYER
  5
30
100
AcDbSymbolTableRecord
100
AcDbLayerTableRecord
  2
1_250BIT_500DEP
 70
         0
 62
         5
  6
Continuous
290
         1
370
         2
390
1F
  0
LAYER
  5
31
100
AcDbSymbolTableRecord
100
AcDbLayerTableRecord
  2
2_250BIT_250DEP
 70
         0
 62
         3
  6
Continuous
290
         1
370
         2
390
1F
  0
LAYER
  5
32
100
AcDbSymbolTableRecord
100
AcDbLayerTableRecord
  2
3_250BIT_500TAB
 70
         0
 62
         5
  6
Continuous
290
         1
370
         2
390
1F
  0
LAYER
  5
33
100
AcDbSymbolTableRecord
100
AcDbLayerTableRecord
  2
4_250BIT_250TAB
 70
         0
 62
         5
  6
Continuous
290
         1
370
         2
390
1F
  0
LAYER
  5
34
100
AcDbSymbolTableRecord
100
AcDbLayerTableRecord
  2
5_250BIT_250SPEC
 70
         0
 62
         5
  6
Continuous
290
         1
370
         2
390
1F
  0
LAYER
  5
35
100
AcDbSymbolTableRecord
100
AcDbLayerTableRecord
  2
6_125BIT_500DEP
 70
         0
 62
         5
  6
Continuous
290
         1
370
         2
390
1F
  0
LAYER
  5
36
100
AcDbSymbolTableRecord
100
AcDbLayerTableRecord
  2
7_VCARVE_BIT
 70
         0
 62
         5
  6
Continuous
290
         1
370
         2
390
1F
  0
LAYER
  5
37
100
AcDbSymbolTableRecord
100
AcDbLayerTableRecord
  2
8_250BIT_500OUTLINE
 70
         0
 62
         5
  6
Continuous
290
         1
370
         2
390
1F
  0
LAYER
  5
38
100
AcDbSymbolTableRecord
100
AcDbLayerTableRecord
  2
PLASTICS
 70
         0
 62
        37
  6
Continuous
290
         1
370
         2
390
1F
  0
LAYER
  5
39
100
AcDbSymbolTableRecord
100
AcDbLayerTableRecord
  2
7A_1250BALL
 70
         0
 62
         5
  6
Continuous
290
         1
370
         2
390
1F
  0
LAYER
  5
3A
100
AcDbSymbolTableRecord
100
AcDbLayerTableRecord
  2
CONSTRUCTION
 70
         0
 62
         7
  6
Continuous
290
         1
370
         0
390
1F
  0
LAYER
  5
3B
100
AcDbSymbolTableRecord
100
AcDbLayerTableRecord
  2
0_WOOD
 70
         0
 62
         5
  6
Continuous
290
         1
370
         2
390
1F
  0
LAYER
  5
3C
100
AcDbSymbolTableRecord
100
AcDbLayerTableRecord
  2
Z_GLOBETROTTERS_1
 70
         0
 62
        37
  6
Continuous
290
         1
370
         2
390
1F
  0
LAYER
  5
3D
100
AcDbSymbolTableRecord
100
AcDbLayerTableRecord
  2
Z_ROLLRGIRLZ
 70
         0
 62
        37
  6
Continuous
290
         1
370
         2
390
1F
  0
LAYER
  5
3E
100
AcDbSymbolTableRecord
100
AcDbLayerTableRecord
  2
Z_MISSADV
 70
         0
 62
         5
  6
Continuous
290
         1
370
         2
390
1F
  0
LAYER
  5
3F
100
AcDbSymbolTableRecord
100
AcDbLayerTableRecord
  2
Z_JUPITERCRUSH
 70
         0
 62
        37
  6
Continuous
290
         1
370
         2
390
1F
  0
LAYER
  5
40
100
AcDbSymbolTableRecord
100
AcDbLayerTableRecord
  2
Z_MODULAR
 70
         0
 62
         5
  6
Continuous
290
         1
370
         2
390
1F
  0
LAYER
  5
41
100
AcDbSymbolTableRecord
100
AcDbLayerTableRecord
  2
Z_GENERIC
 70
         0
 62
        27
  6
Continuous
290
         1
370
         2
390
1F
  0
LAYER
  5
42
100
AcDbSymbolTableRecord
100
AcDbLayerTableRecord
  2
UNASSIGNED
 70
         0
 62
         7
  6
Continuous
290
         1
370
         0
390
1F
  0
LAYER
  5
43
100
AcDbSymbolTableRecord
100
AcDbLayerTableRecord
  2
0
 70
         0
 62
        42
  6
Continuous
290
         1
370
         2
390
1F
  0
LAYER
  5
44
100
AcDbSymbolTableRecord
100
AcDbLayerTableRecord
  2
LAYER_1
 70
         0
 62
        42
  6
Continuous
290
         1
370
         2
390
1F
  0
LAYER
  5
45
100
AcDbSymbolTableRecord
100
AcDbLayerTableRecord
  2
LAYER_3
 70
         0
 62
         4
  6
Continuous
290
         1
370
         2
390
1F
  0
LAYER
  5
46
100
AcDbSymbolTableRecord
100
AcDbLayerTableRecord
  2
LAYER_2
 70
         0
 62
        42
  6
Continuous
290
         1
370
         2
390
1F
  0
LAYER
  5
47
100
AcDbSymbolTableRecord
100
AcDbLayerTableRecord
  2
X_POSTS
 70
         0
 62
         4
  6
Continuous
290
         1
370
         2
390
1F
  0
LAYER
  5
48
100
AcDbSymbolTableRecord
100
AcDbLayerTableRecord
  2
X_THUMPER
 70
         0
 62
         4
  6
Continuous
290
         1
370
         2
390
1F
  0
LAYER
  5
49
100
AcDbSymbolTableRecord
100
AcDbLayerTableRecord
  2
X_STANDUPS
 70
         0
 62
         4
  6
Continuous
290
         1
370
         2
390
1F
  0
LAYER
  5
4A
100
AcDbSymbolTableRecord
100
AcDbLayerTableRecord
  2
X_DROPS
 70
         0
 62
         4
  6
Continuous
290
         1
370
         2
390
1F
  0
LAYER
  5
4B
100
AcDbSymbolTableRecord
100
AcDbLayerTableRecord
  2
X_SMPOSTS
 70
         0
 62
         4
  6
Continuous
290
         1
370
         2
390
1F
  0
LAYER
  5
4C
100
AcDbSymbolTableRecord
100
AcDbLayerTableRecord
  2
X_ROLLOVER
 70
         0
 62
         4
  6
Continuous
290
         1
370
         2
390
1F
  0
LAYER
  5
4D
100
AcDbSymbolTableRecord
100
AcDbLayerTableRecord
  2
X_WALLS
 70
         0
 62
         4
  6
Continuous
290
         1
370
         2
390
1F
  0
LAYER
  5
4E
100
AcDbSymbolTableRecord
100
AcDbLayerTableRecord
  2
Z0_BOTCOMP
 70
         0
 62
         4
  6
Continuous
290
         1
370
         2
390
1F
  0
LAYER
  5
4F
100
AcDbSymbolTableRecord
100
AcDbLayerTableRecord
  2
Z0_TOPCOMP
 70
         0
 62
         6
  6
Continuous
290
         1
370
         2
390
1F
  0
LAYER
  5
50
100
AcDbSymbolTableRecord
100
AcDbLayerTableRecord
  2
Z0_CUT250
 70
         0
 62
         4
  6
Continuous
290
         1
370
         2
390
1F
  0
LAYER
  5
51
100
AcDbSymbolTableRecord
100
AcDbLayerTableRecord
  2
Z0_CUT500
 70
         0
 62
         4
  6
Continuous
290
         1
370
         2
390
1F
  0
LAYER
  5
52
100
AcDbSymbolTableRecord
100
AcDbLayerTableRecord
  2
Z0_PLASTICS
 70
         0
 62
        37
  6
Continuous
290
         1
370
         2
390
1F
  0
LAYER
  5
53
100
AcDbSymbolTableRecord
100
AcDbLayerTableRecord
  2
Z0_RUBBER
 70
         0
 62
         2
  6
Continuous
290
         1
370
         2
390
1F
  0
LAYER
  5
54
100
AcDbSymbolTableRecord
100
AcDbLayerTableRecord
  2
Z0_ZONES
 70
         0
 62
         6
  6
Continuous
290
         1
370
         2
390
1F
  0
LAYER
  5
55
100
AcDbSymbolTableRecord
100
AcDbLayerTableRecord
  2
Z0_WOODOUTLINE
 70
         0
 62
         5
  6
Continuous
290
         1
370
         2
390
1F
  0
LAYER
  5
56
100
AcDbSymbolTableRecord
100
AcDbLayerTableRecord
  2
Z0_LOWERTHIRD
 70
         0
 62
         4
  6
Continuous
290
         1
370
         2
390
1F
  0
LAYER
  5
57
100
AcDbSymbolTableRecord
100
AcDbLayerTableRecord
  2
PART_A
 70
         0
 62
         4
  6
Continuous
290
         1
370
         2
390
1F
  0
LAYER
  5
58
100
AcDbSymbolTableRecord
100
AcDbLayerTableRecord
  2
Z_ROLLINGSTONES_1
 70
         0
 62
         4
  6
Continuous
290
         1
370
         2
390
1F
  0
LAYER
  5
59
100
AcDbSymbolTableRecord
100
AcDbLayerTableRecord
  2
Z_GLOBETROTTERS_2
 70
         0
 62
         4
  6
Continuous
290
         1
370
         2
390
1F
  0
LAYER
  5
5A
100
AcDbSymbolTableRecord
100
AcDbLayerTableRecord
  2
Z_ROLLINGSTONES_2
 70
         0
 62
         4
  6
Continuous
290
         1
370
         2
390
1F
  0
ENDTAB
  0
TABLE
  2
STYLE
  5
3
100
AcDbSymbolTable
 70
         2
  0
STYLE
  5
17
100
AcDbSymbolTableRecord
100
AcDbTextStyleTableRecord
  2
Standard
 70
         0
 40
0.0
 41
1.0
 50
0.0
 71
         0
 42
0.0
  3
txt
  4

  0
STYLE
  5
24
100
AcDbSymbolTableRecord
100
AcDbTextStyleTableRecord
  2
Plotter
 70
         0
 40
0.0
 41
0.98
 50
0.0
 71
         0
 42
0.0
  3
SIMPLEX
  4

  0
ENDTAB
  0
TABLE
  2
VIEW
  5
5
100
AcDbSymbolTable
 70
         0
  0
ENDTAB
  0
TABLE
  2
UCS
  5
6
100
AcDbSymbolTable
 70
         0
  0
ENDTAB
  0
TABLE
  2
APPID
  5
8
100
AcDbSymbolTable
 70
         1
  0
APPID
  5
16
100
AcDbSymbolTableRecord
100
AcDbRegAppTableRecord
  2
ACAD
 70
         0
  0
ENDTAB
  0
TABLE
  2
DIMSTYLE
  5
9
100
AcDbSymbolTable
 70
         1
100
AcDbDimStyleTable
 71
         0
  0
DIMSTYLE
105
18
100
AcDbSymbolTableRecord
100
AcDbDimStyleTableRecord
  2
Standard
 70
         0
  3

  4

 40
1.0
 41
0.18
 42
0.0625
 43
0.38
 44
0.18
 45
0.0
 46
0.0
 47
0.0
 48
0.0
 71
         0
 72
         0
 73
         1
 74
         1
 75
         0
 76
         0
 77
         0
 78
         0
 79
         0
140
0.18
141
0.09
142
0.0
143
25.4
144
1.0
145
0.0
146
1.0
147
0.09
148
0.0
170
         0
171
         2
172
         0
173
         0
174
         0
175
         0
176
         0
177
         0
178
         0
179
         0
271
         4
272
         4
273
         2
274
         2
275
         0
276
         0
277
         2
278
        46
279
         0
280
         0
281
         0
282
         0
283
         1
284
         0
285
         0
286
         0
288
         0
340
17
341
0
342
0
343
0
344
0
371
        -2
372
        -2
  0
ENDTAB
  0
TABLE
  2
BLOCK_RECORD
  5
1
100
AcDbSymbolTable
 70
         0
  0
BLOCK_RECORD
  5
A
100
AcDbSymbolTableRecord
100
AcDbBlockTableRecord
  2
*MODEL_SPACE
340
20
  0
BLOCK_RECORD
  5
B
100
AcDbSymbolTableRecord
100
AcDbBlockTableRecord
  2
*PAPER_SPACE
340
21
  0
ENDTAB
  0
ENDSEC
  0
SECTION
  2
BLOCKS
  0
BLOCK
  5
D
100
AcDbEntity
  8
0
100
AcDbBlockBegin
  2
*MODEL_SPACE
 70
         0
 10
0.0
 20
0.0
 30
0.0
  3
*MODEL_SPACE
  1

  0
ENDBLK
  5
E
100
AcDbEntity
  8
0
100
AcDbBlockEnd
  0
BLOCK
  5
F
100
AcDbEntity
 67
         1
  8
0
100
AcDbBlockBegin
  2
*PAPER_SPACE
 70
         0
 10
0.0
 20
0.0
 30
0.0
  3
*PAPER_SPACE
  1

  0
ENDBLK
  5
10
100
AcDbEntity
 67
         1
  8
0
100
AcDbBlockEnd
  0
ENDSEC
  0
SECTION
  2
ENTITIES
  0
CIRCLE
  5
5B
100
AcDbEntity
  8
X_ROLLOVER
370
        25
  6
Continuous
 62
        27
100
AcDbCircle
 10
3.8725759698
 20
8.6541674657
 30
0.0
 40
0.35
  0
CIRCLE
  5
5C
102
{ACAD_REACTORS
330
5E
102
}
100
AcDbEntity
  8
0
370
        25
  6
Continuous
 62
        47
100
AcDbCircle
 10
3.8725759698
 20
8.6541674657
 30
0.0
 40
0.4
  0
CIRCLE
  5
5D
102
{ACAD_REACTORS
330
5E
102
}
100
AcDbEntity
  8
0
370
        25
  6
Continuous
 62
        47
100
AcDbCircle
 10
3.8725759698
 20
8.6541674657
 30
0.0
 40
0.215
  0
ARC
  5
5F
102
{ACAD_REACTORS
330
6A
102
}
100
AcDbEntity
  8
UNASSIGNED
370
        25
  6
Continuous
 62
         4
100
AcDbCircle
 10
3.8725759698
 20
8.6541674657
 30
0.0
 40
0.285
100
AcDbArc
 50
140.0371808817
 51
-145.3948904689
  0
ARC
  5
60
102
{ACAD_REACTORS
330
6A
102
}
100
AcDbEntity
  8
UNASSIGNED
370
        25
  6
Continuous
 62
         4
100
AcDbCircle
 10
3.8725759698
 20
8.6541674657
 30
0.0
 40
0.285
100
AcDbArc
 50
-99.9628191183
 51
-25.3948904688
  0
ARC
  5
61
102
{ACAD_REACTORS
330
6A
102
}
100
AcDbEntity
  8
UNASSIGNED
370
        25
  6
Continuous
 62
         4
100
AcDbCircle
 10
3.8725759698
 20
8.6541674657
 30
0.0
 40
0.285
100
AcDbArc
 50
20.0371808817
 51
94.6051095312
  0
LINE
  5
62
102
{ACAD_REACTORS
330
6A
102
}
100
AcDbEntity
  8
UNASSIGNED
370
        25
  6
Continuous
 62
         4
100
AcDbLine
 10
3.8232683845
 20
8.3734651999
 30
0.0
 11
3.8379741556
 21
8.4571834195
 31
0.0
  0
LINE
  5
63
102
{ACAD_REACTORS
330
6A
102
}
100
AcDbEntity
  8
UNASSIGNED
370
        25
  6
Continuous
 62
         4
100
AcDbLine
 10
3.8379741556
 20
8.4571834195
 30
0.0
 11
3.6379965379
 21
8.4923110784
 31
0.0
  0
LINE
  5
64
102
{ACAD_REACTORS
330
6A
102
}
100
AcDbEntity
  8
UNASSIGNED
370
        25
  6
Continuous
 62
         4
100
AcDbLine
 10
4.1403250555
 20
8.7518169772
 30
0.0
 11
4.060470065
 21
8.7226934387
 31
0.0
  0
LINE
  5
65
102
{ACAD_REACTORS
330
6A
102
}
100
AcDbEntity
  8
UNASSIGNED
370
        25
  6
Continuous
 62
         4
100
AcDbLine
 10
4.060470065
 20
8.7226934387
 30
0.0
 11
4.1300374289
 21
8.5319439121
 31
0.0
  0
LINE
  5
66
102
{ACAD_REACTORS
330
6A
102
}
100
AcDbEntity
  8
UNASSIGNED
370
        25
  6
Continuous
 62
         4
100
AcDbLine
 10
3.7192836887
 20
8.7826255389
 30
0.0
 11
3.8496939425
 21
8.9382474066
 31
0.0
  0
LINE
  5
67
102
{ACAD_REACTORS
330
6A
102
}
100
AcDbEntity
  8
UNASSIGNED
370
        25
  6
Continuous
 62
         4
100
AcDbLine
 10
3.6541344693
 20
8.83722022
 30
0.0
 11
3.7192836887
 21
8.7826255389
 31
0.0
  0
CIRCLE
  5
68
102
{ACAD_REACTORS
330
6A
102
}
100
AcDbEntity
  8
UNASSIGNED
370
        25
  6
Continuous
 62
         4
100
AcDbCircle
 10
3.8725759698
 20
8.6541674657
 30
0.0
 40
0.059
  0
CIRCLE
  5
69
102
{ACAD_REACTORS
330
6A
102
}
100
AcDbEntity
  8
UNASSIGNED
370
        25
  6
Continuous
 62
         4
100
AcDbCircle
 10
3.8725759698
 20
8.6541674657
 30
0.0
 40
0.085
  0
CIRCLE
  5
6B
100
AcDbEntity
  8
3_250BIT_500TAB
370
        25
  6
Continuous
 62
         5
100
AcDbCircle
 10
4.4474220237
 20
8.1724496912
 30
0.0
 40
0.25
  0
CIRCLE
  5
6C
100
AcDbEntity
  8
6_125BIT_500DEP
370
        25
  6
Continuous
 62
         5
100
AcDbCircle
 10
5.0222680776
 20
7.6907319166
 30
0.0
 40
0.0825
  0
ARC
  5
6D
102
{ACAD_REACTORS
330
78
102
}
100
AcDbEntity
  8
UNASSIGNED
370
        25
  6
Continuous
 62
         4
100
AcDbCircle
 10
5.0222680776
 20
7.6907319166
 30
0.0
 40
0.285
100
AcDbArc
 50
140.0371808817
 51
-145.3948904688
  0
ARC
  5
6E
102
{ACAD_REACTORS
330
78
102
}
100
AcDbEntity
  8
UNASSIGNED
370
        25
  6
Continuous
 62
         4
100
AcDbCircle
 10
5.0222680776
 20
7.6907319166
 30
0.0
 40
0.285
100
AcDbArc
 50
-99.9628191183
 51
-25.3948904688
  0
ARC
  5
6F
102
{ACAD_REACTORS
330
78
102
}
100
AcDbEntity
  8
UNASSIGNED
370
        25
  6
Continuous
 62
         4
100
AcDbCircle
 10
5.0222680776
 20
7.6907319166
 30
0.0
 40
0.285
100
AcDbArc
 50
20.0371808817
 51
94.6051095312
  0
LINE
  5
70
102
{ACAD_REACTORS
330
78
102
}
100
AcDbEntity
  8
UNASSIGNED
370
        25
  6
Continuous
 62
         4
100
AcDbLine
 10
4.9729604923
 20
7.4100296508
 30
0.0
 11
4.9876662634
 21
7.4937478704
 31
0.0
  0
LINE
  5
71
102
{ACAD_REACTORS
330
78
102
}
100
AcDbEntity
  8
UNASSIGNED
370
        25
  6
Continuous
 62
         4
100
AcDbLine
 10
4.9876662634
 20
7.4937478704
 30
0.0
 11
4.7876886456
 21
7.5288755293
 31
0.0
  0
LINE
  5
72
102
{ACAD_REACTORS
330
78
102
}
100
AcDbEntity
  8
UNASSIGNED
370
        25
  6
Continuous
 62
         4
100
AcDbLine
 10
5.2900171633
 20
7.7883814281
 30
0.0
 11
5.2101621728
 21
7.7592578896
 31
0.0
  0
LINE
  5
73
102
{ACAD_REACTORS
330
78
102
}
100
AcDbEntity
  8
UNASSIGNED
370
        25
  6
Continuous
 62
         4
100
AcDbLine
 10
5.2101621728
 20
7.7592578896
 30
0.0
 11
5.2797295367
 21
7.568508363
 31
0.0
  0
LINE
  5
74
102
{ACAD_REACTORS
330
78
102
}
100
AcDbEntity
  8
UNASSIGNED
370
        25
  6
Continuous
 62
         4
100
AcDbLine
 10
4.8689757965
 20
7.8191899898
 30
0.0
 11
4.9993860503
 21
7.9748118575
 31
0.0
  0
LINE
  5
75
102
{ACAD_REACTORS
330
78
102
}
100
AcDbEntity
  8
UNASSIGNED
370
        25
  6
Continuous
 62
         4
100
AcDbLine
 10
4.8038265771
 20
7.8737846709
 30
0.0
 11
4.8689757965
 21
7.8191899898
 31
0.0
  0
CIRCLE
  5
76
102
{ACAD_REACTORS
330
78
102
}
100
AcDbEntity
  8
UNASSIGNED
370
        25
  6
Continuous
 62
         4
100
AcDbCircle
 10
5.0222680776
 20
7.6907319166
 30
0.0
 40
0.059
  0
CIRCLE
  5
77
102
{ACAD_REACTORS
330
78
102
}
100
AcDbEntity
  8
UNASSIGNED
370
        25
  6
Continuous
 62
         4
100
AcDbCircle
 10
5.0222680776
 20
7.6907319166
 30
0.0
 40
0.085
  0
CIRCLE
  5
79
102
{ACAD_REACTORS
330
84
102
}
100
AcDbEntity
  8
X_ROLLOVER
370
        25
  6
Continuous
 62
        27
100
AcDbCircle
 10
5.0222680776
 20
7.6907319166
 30
0.0
 40
0.075
  0
CIRCLE
  5
7A
102
{ACAD_REACTORS
330
84
102
}
100
AcDbEntity
  8
X_ROLLOVER
370
        25
  6
Continuous
 62
        27
100
AcDbCircle
 10
3.8725759698
 20
8.6541674657
 30
0.0
 40
0.075
  0
LINE
  5
7B
102
{ACAD_REACTORS
330
83
102
}
100
AcDbEntity
  8
X_ROLLOVER
370
        25
  6
Continuous
 62
        27
100
AcDbLine
 10
3.6477743416
 20
8.3859059739
 30
0.0
 11
3.6156598233
 21
8.3475829036
 31
0.0
  0
LINE
  5
7C
102
{ACAD_REACTORS
330
83
102
}
100
AcDbEntity
  8
X_ROLLOVER
370
        25
  6
Continuous
 62
        27
100
AcDbLine
 10
3.6156598233
 20
8.3475829036
 30
0.0
 11
4.7653519311
 21
7.3841473545
 31
0.0
  0
LINE
  5
7D
102
{ACAD_REACTORS
330
83
102
}
100
AcDbEntity
  8
X_ROLLOVER
370
        25
  6
Continuous
 62
        27
100
AcDbLine
 10
4.7653519311
 20
7.3841473545
 30
0.0
 11
4.7974664494
 21
7.4224704248
 31
0.0
  0
LINE
  5
7E
102
{ACAD_REACTORS
330
83
102
}
100
AcDbEntity
  8
X_ROLLOVER
370
        25
  6
Continuous
 62
        27
100
AcDbLine
 10
4.0973775979
 20
8.9224289575
 30
0.0
 11
4.1294921162
 21
8.9607520278
 31
0.0
  0
LINE
  5
7F
102
{ACAD_REACTORS
330
83
102
}
100
AcDbEntity
  8
X_ROLLOVER
370
        25
  6
Continuous
 62
        27
100
AcDbLine
 10
4.1294921162
 20
8.9607520278
 30
0.0
 11
5.279184224
 21
7.9973164787
 31
0.0
  0
LINE
  5
80
102
{ACAD_REACTORS
330
83
102
}
100
AcDbEntity
  8
X_ROLLOVER
370
        25
  6
Continuous
 62
        27
100
AcDbLine
 10
5.279184224
 20
7.9973164787
 30
0.0
 11
5.2470697057
 21
7.9589934084
 31
0.0
  0
ARC
  5
81
102
{ACAD_REACTORS
330
83
102
}
100
AcDbEntity
  8
X_ROLLOVER
370
        25
  6
Continuous
 62
        27
100
AcDbCircle
 10
3.8725759698
 20
8.6541674657
 30
0.0
 40
0.35
100
AcDbArc
 50
50.0371808817
 51
-129.9628191183
  0
ARC
  5
82
102
{ACAD_REACTORS
330
83
102
}
100
AcDbEntity
  8
X_ROLLOVER
370
        25
  6
Continuous
 62
        27
100
AcDbCircle
 10
5.0222680776
 20
7.6907319166
 30
0.0
 40
0.35
100
AcDbArc
 50
-129.9628191183
 51
50.0371808817
  0
CIRCLE
  5
85
100
AcDbEntity
  8
X_ROLLOVER
370
        25
  6
Continuous
 62
        27
100
AcDbCircle
 10
5.0222680776
 20
7.6907319166
 30
0.0
 40
0.35
  0
CIRCLE
  5
86
102
{ACAD_REACTORS
330
88
102
}
100
AcDbEntity
  8
0
370
        25
  6
Continuous
 62
        47
100
AcDbCircle
 10
5.0222680776
 20
7.6907319166
 30
0.0
 40
0.4
  0
CIRCLE
  5
87
102
{ACAD_REACTORS
330
88
102
}
100
AcDbEntity
  8
0
370
        25
  6
Continuous
 62
        47
100
AcDbCircle
 10
5.0222680776
 20
7.6907319166
 30
0.0
 40
0.215
  0
ARC
  5
89
100
AcDbEntity
  8
Z0_CUT250
370
         5
  6
Continuous
 62
        55
100
AcDbCircle
 10
0.4625057488
 20
8.2163300735
 30
0.0
 40
0.4
100
AcDbArc
 50
65.0
 51
-115.0
  0
LINE
  5
8A
100
AcDbEntity
  8
Z0_CUT250
370
         5
  6
Continuous
 62
        55
100
AcDbLine
 10
0.6315530535
 20
8.5788531883
 30
0.0
 11
1.9910147341
 21
7.9449257957
 31
0.0
  0
LINE
  5
8B
100
AcDbEntity
  8
Z0_CUT500
370
         5
  6
Continuous
 62
        47
100
AcDbLine
 10
1.6293770246
 20
7.6722090615
 30
0.0
 11
1.0999747629
 21
7.8087355985
 31
0.0
  0
LINE
  5
8C
100
AcDbEntity
  8
Z0_CUT500
370
         5
  6
Continuous
 62
        47
100
AcDbLine
 10
1.1844984153
 20
7.9899971559
 30
0.0
 11
1.6293770246
 21
7.6722090615
 31
0.0
  0
LINE
  5
8D
102
{ACAD_REACTORS
330
97
102
}
100
AcDbEntity
  8
X_ROLLOVER
370
         5
  6
Continuous
 62
        27
100
AcDbLine
 10
3.754259007
 20
9.2005200042
 30
0.0
 11
3.3645037613
 21
8.8873254186
 31
0.0
  0
LINE
  5
8E
102
{ACAD_REACTORS
330
97
102
}
100
AcDbEntity
  8
X_ROLLOVER
370
         5
  6
Continuous
 62
        27
100
AcDbLine
 10
2.6580779573
 20
10.5646633641
 30
0.0
 11
2.2683227116
 21
10.2514687784
 31
0.0
  0
LINE
  5
8F
102
{ACAD_REACTORS
330
97
102
}
100
AcDbEntity
  8
X_ROLLOVER
370
         5
  6
Continuous
 62
        27
100
AcDbLine
 10
3.7934083302
 20
9.1518005985
 30
0.0
 11
3.4036530845
 21
8.8386060129
 31
0.0
  0
LINE
  5
90
102
{ACAD_REACTORS
330
97
102
}
100
AcDbEntity
  8
X_ROLLOVER
370
         5
  6
Continuous
 62
        27
100
AcDbLine
 10
2.6189286341
 20
10.6133827698
 30
0.0
 11
2.2291733884
 21
10.3001881841
 31
0.0
  0
CIRCLE
  5
91
102
{ACAD_REACTORS
330
97
102
}
100
AcDbEntity
  8
X_ROLLOVER
370
         5
  6
Continuous
 62
        27
100
AcDbCircle
 10
3.8725759698
 20
8.6541674657
 30
0.0
 40
0.0625
  0
CIRCLE
  5
92
102
{ACAD_REACTORS
330
97
102
}
100
AcDbEntity
  8
X_ROLLOVER
370
         5
  6
Continuous
 62
        27
100
AcDbCircle
 10
2.1500057488
 20
10.7978213169
 30
0.0
 40
0.0625
  0
ARC
  5
93
102
{ACAD_REACTORS
330
97
102
}
100
AcDbEntity
  8
X_ROLLOVER
370
         5
  6
Continuous
 62
        27
100
AcDbCircle
 10
3.8725759698
 20
8.6541674657
 30
0.0
 40
0.25
100
AcDbArc
 50
-141.2157782776
 51
38.7842217224
  0
LINE
  5
94
102
{ACAD_REACTORS
330
97
102
}
100
AcDbEntity
  8
X_ROLLOVER
370
         5
  6
Continuous
 62
        27
100
AcDbLine
 10
2.3448833716
 20
10.9544186097
 30
0.0
 11
4.0674535926
 21
8.8107647585
 31
0.0
  0
LINE
  5
95
102
{ACAD_REACTORS
330
97
102
}
100
AcDbEntity
  8
X_ROLLOVER
370
         5
  6
Continuous
 62
        27
100
AcDbLine
 10
3.6776983469
 20
8.4975701729
 30
0.0
 11
1.955128126
 21
10.6412240241
 31
0.0
  0
ARC
  5
96
102
{ACAD_REACTORS
330
97
102
}
100
AcDbEntity
  8
X_ROLLOVER
370
         5
  6
Continuous
 62
        27
100
AcDbCircle
 10
2.1500057488
 20
10.7978213169
 30
0.0
 40
0.25
100
AcDbArc
 50
38.7842217224
 51
-141.2157782776
  0
CIRCLE
  5
98
100
AcDbEntity
  8
6_125BIT_500DEP
370
        25
  6
Continuous
 62
         5
100
AcDbCircle
 10
2.1500057488
 20
10.7978213169
 30
0.0
 40
0.0825
  0
CIRCLE
  5
99
100
AcDbEntity
  8
X_ROLLOVER
370
        25
  6
Continuous
 62
        27
100
AcDbCircle
 10
2.1500057488
 20
12.9228213169
 30
0.0
 40
0.075
  0
CIRCLE
  5
9A
100
AcDbEntity
  8
3_250BIT_500TAB
370
        25
  6
Continuous
 62
         5
100
AcDbCircle
 10
2.1500057488
 20
11.8603213169
 30
0.0
 40
0.25
  0
CIRCLE
  5
9B
102
{ACAD_REACTORS
330
9D
102
}
100
AcDbEntity
  8
0
370
        25
  6
Continuous
 62
        47
100
AcDbCircle
 10
2.1500057488
 20
12.9228213169
 30
0.0
 40
0.4
  0
CIRCLE
  5
9C
102
{ACAD_REACTORS
330
9D
102
}
100
AcDbEntity
  8
0
370
        25
  6
Continuous
 62
        47
100
AcDbCircle
 10
2.1500057488
 20
12.9228213169
 30
0.0
 40
0.215
  0
ARC
  5
9E
102
{ACAD_REACTORS
330
A9
102
}
100
AcDbEntity
  8
UNASSIGNED
370
        25
  6
Continuous
 62
         4
100
AcDbCircle
 10
2.1500057488
 20
12.9228213169
 30
0.0
 40
0.285
100
AcDbArc
 50
90.0
 51
164.5679286494
  0
ARC
  5
9F
102
{ACAD_REACTORS
330
A9
102
}
100
AcDbEntity
  8
UNASSIGNED
370
        25
  6
Continuous
 62
         4
100
AcDbCircle
 10
2.1500057488
 20
12.9228213169
 30
0.0
 40
0.285
100
AcDbArc
 50
-150.0
 51
-75.4320713506
  0
ARC
  5
A0
102
{ACAD_REACTORS
330
A9
102
}
100
AcDbEntity
  8
UNASSIGNED
370
        25
  6
Continuous
 62
         4
100
AcDbCircle
 10
2.1500057488
 20
12.9228213169
 30
0.0
 40
0.285
100
AcDbArc
 50
-30.0
 51
44.5679286494
  0
LINE
  5
A1
102
{ACAD_REACTORS
330
A9
102
}
100
AcDbEntity
  8
UNASSIGNED
370
        25
  6
Continuous
 62
         4
100
AcDbLine
 10
1.9031885087
 20
12.7803213169
 30
0.0
 11
1.976800668
 21
12.8228213169
 31
0.0
  0
LINE
  5
A2
102
{ACAD_REACTORS
330
A9
102
}
100
AcDbEntity
  8
UNASSIGNED
370
        25
  6
Continuous
 62
         4
100
AcDbLine
 10
1.976800668
 20
12.8228213169
 30
0.0
 11
1.8752809655
 21
12.9986585997
 31
0.0
  0
LINE
  5
A3
102
{ACAD_REACTORS
330
A9
102
}
100
AcDbEntity
  8
UNASSIGNED
370
        25
  6
Continuous
 62
         4
100
AcDbLine
 10
2.3968229889
 20
12.7803213169
 30
0.0
 11
2.3232108296
 21
12.8228213169
 31
0.0
  0
LINE
  5
A4
102
{ACAD_REACTORS
330
A9
102
}
100
AcDbEntity
  8
UNASSIGNED
370
        25
  6
Continuous
 62
         4
100
AcDbLine
 10
2.3232108296
 20
12.8228213169
 30
0.0
 11
2.221691127
 21
12.6469840342
 31
0.0
  0
LINE
  5
A5
102
{ACAD_REACTORS
330
A9
102
}
100
AcDbEntity
  8
UNASSIGNED
370
        25
  6
Continuous
 62
         4
100
AcDbLine
 10
2.1500057488
 20
13.1228213169
 30
0.0
 11
2.3530451538
 21
13.1228213169
 31
0.0
  0
LINE
  5
A6
102
{ACAD_REACTORS
330
A9
102
}
100
AcDbEntity
  8
UNASSIGNED
370
        25
  6
Continuous
 62
         4
100
AcDbLine
 10
2.1500057488
 20
13.2078213169
 30
0.0
 11
2.1500057488
 21
13.1228213169
 31
0.0
  0
CIRCLE
  5
A7
102
{ACAD_REACTORS
330
A9
102
}
100
AcDbEntity
  8
UNASSIGNED
370
        25
  6
Continuous
 62
         4
100
AcDbCircle
 10
2.1500057488
 20
12.9228213169
 30
0.0
 40
0.059
  0
CIRCLE
  5
A8
102
{ACAD_REACTORS
330
A9
102
}
100
AcDbEntity
  8
UNASSIGNED
370
        25
  6
Continuous
 62
         4
100
AcDbCircle
 10
2.1500057488
 20
12.9228213169
 30
0.0
 40
0.085
  0
LINE
  5
AA
102
{ACAD_REACTORS
330
B2
102
}
100
AcDbEntity
  8
X_ROLLOVER
370
        25
  6
Continuous
 62
        27
100
AcDbLine
 10
1.8000057488
 20
12.9228213169
 30
0.0
 11
1.7500057488
 21
12.9228213169
 31
0.0
  0
LINE
  5
AB
102
{ACAD_REACTORS
330
B2
102
}
100
AcDbEntity
  8
X_ROLLOVER
370
        25
  6
Continuous
 62
        27
100
AcDbLine
 10
1.7500057488
 20
12.9228213169
 30
0.0
 11
1.7500057488
 21
10.7978213169
 31
0.0
  0
LINE
  5
AC
102
{ACAD_REACTORS
330
B2
102
}
100
AcDbEntity
  8
X_ROLLOVER
370
        25
  6
Continuous
 62
        27
100
AcDbLine
 10
2.5000057488
 20
12.9228213169
 30
0.0
 11
2.5500057488
 21
12.9228213169
 31
0.0
  0
LINE
  5
AD
102
{ACAD_REACTORS
330
B2
102
}
100
AcDbEntity
  8
X_ROLLOVER
370
        25
  6
Continuous
 62
        27
100
AcDbLine
 10
2.5500057488
 20
12.9228213169
 30
0.0
 11
2.5500057488
 21
10.7978213169
 31
0.0
  0
ARC
  5
AE
102
{ACAD_REACTORS
330
B2
102
}
100
AcDbEntity
  8
X_ROLLOVER
370
        25
  6
Continuous
 62
        27
100
AcDbCircle
 10
2.1500057488
 20
12.9228213169
 30
0.0
 40
0.35
100
AcDbArc
 50
-0.0
 51
180.0
  0
LINE
  5
AF
102
{ACAD_REACTORS
330
B2
102
}
100
AcDbEntity
  8
X_ROLLOVER
370
        25
  6
Continuous
 62
        27
100
AcDbLine
 10
2.5500057488
 20
10.7978213169
 30
0.0
 11
2.5000057488
 21
10.7978213169
 31
0.0
  0
LINE
  5
B0
102
{ACAD_REACTORS
330
B2
102
}
100
AcDbEntity
  8
X_ROLLOVER
370
        25
  6
Continuous
 62
        27
100
AcDbLine
 10
1.7500057488
 20
10.7978213169
 30
0.0
 11
1.8000057488
 21
10.7978213169
 31
0.0
  0
ARC
  5
B1
102
{ACAD_REACTORS
330
B2
102
}
100
AcDbEntity
  8
X_ROLLOVER
370
        25
  6
Continuous
 62
        27
100
AcDbCircle
 10
2.1500057488
 20
10.7978213169
 30
0.0
 40
0.35
100
AcDbArc
 50
180.0
 51
-0.0
  0
ARC
  5
B3
102
{ACAD_REACTORS
330
BE
102
}
100
AcDbEntity
  8
UNASSIGNED
370
        25
  6
Continuous
 62
         4
100
AcDbCircle
 10
2.1500057488
 20
10.7978213169
 30
0.0
 40
0.285
100
AcDbArc
 50
90.0
 51
164.5679286494
  0
ARC
  5
B4
102
{ACAD_REACTORS
330
BE
102
}
100
AcDbEntity
  8
UNASSIGNED
370
        25
  6
Continuous
 62
         4
100
AcDbCircle
 10
2.1500057488
 20
10.7978213169
 30
0.0
 40
0.285
100
AcDbArc
 50
-150.0
 51
-75.4320713506
  0
ARC
  5
B5
102
{ACAD_REACTORS
330
BE
102
}
100
AcDbEntity
  8
UNASSIGNED
370
        25
  6
Continuous
 62
         4
100
AcDbCircle
 10
2.1500057488
 20
10.7978213169
 30
0.0
 40
0.285
100
AcDbArc
 50
-30.0
 51
44.5679286494
  0
LINE
  5
B6
102
{ACAD_REACTORS
330
BE
102
}
100
AcDbEntity
  8
UNASSIGNED
370
        25
  6
Continuous
 62
         4
100
AcDbLine
 10
1.9031885087
 20
10.6553213169
 30
0.0
 11
1.976800668
 21
10.6978213169
 31
0.0
  0
LINE
  5
B7
102
{ACAD_REACTORS
330
BE
102
}
100
AcDbEntity
  8
UNASSIGNED
370
        25
  6
Continuous
 62
         4
100
AcDbLine
 10
1.976800668
 20
10.6978213169
 30
0.0
 11
1.8752809655
 21
10.8736585997
 31
0.0
  0
LINE
  5
B8
102
{ACAD_REACTORS
330
BE
102
}
100
AcDbEntity
  8
UNASSIGNED
370
        25
  6
Continuous
 62
         4
100
AcDbLine
 10
2.3968229889
 20
10.6553213169
 30
0.0
 11
2.3232108296
 21
10.6978213169
 31
0.0
  0
LINE
  5
B9
102
{ACAD_REACTORS
330
BE
102
}
100
AcDbEntity
  8
UNASSIGNED
370
        25
  6
Continuous
 62
         4
100
AcDbLine
 10
2.3232108296
 20
10.6978213169
 30
0.0
 11
2.221691127
 21
10.5219840342
 31
0.0
  0
LINE
  5
BA
102
{ACAD_REACTORS
330
BE
102
}
100
AcDbEntity
  8
UNASSIGNED
370
        25
  6
Continuous
 62
         4
100
AcDbLine
 10
2.1500057488
 20
10.9978213169
 30
0.0
 11
2.3530451538
 21
10.9978213169
 31
0.0
  0
LINE
  5
BB
102
{ACAD_REACTORS
330
BE
102
}
100
AcDbEntity
  8
UNASSIGNED
370
        25
  6
Continuous
 62
         4
100
AcDbLine
 10
2.1500057488
 20
11.0828213169
 30
0.0
 11
2.1500057488
 21
10.9978213169
 31
0.0
  0
CIRCLE
  5
BC
102
{ACAD_REACTORS
330
BE
102
}
100
AcDbEntity
  8
UNASSIGNED
370
        25
  6
Continuous
 62
         4
100
AcDbCircle
 10
2.1500057488
 20
10.7978213169
 30
0.0
 40
0.059
  0
CIRCLE
  5
BD
102
{ACAD_REACTORS
330
BE
102
}
100
AcDbEntity
  8
UNASSIGNED
370
        25
  6
Continuous
 62
         4
100
AcDbCircle
 10
2.1500057488
 20
10.7978213169
 30
0.0
 40
0.085
  0
CIRCLE
  5
BF
100
AcDbEntity
  8
X_ROLLOVER
370
        25
  6
Continuous
 62
        27
100
AcDbCircle
 10
2.1500057488
 20
12.9228213169
 30
0.0
 40
0.35
  0
CIRCLE
  5
C0
100
AcDbEntity
  8
6_125BIT_500DEP
370
        25
  6
Continuous
 62
         5
100
AcDbCircle
 10
2.1500057488
 20
12.9228213169
 30
0.0
 40
0.0825
  0
CIRCLE
  5
C1
100
AcDbEntity
  8
X_ROLLOVER
370
        25
  6
Continuous
 62
        27
100
AcDbCircle
 10
2.1500057488
 20
10.7978213169
 30
0.0
 40
0.075
  0
CIRCLE
  5
C2
100
AcDbEntity
  8
X_ROLLOVER
370
        25
  6
Continuous
 62
        27
100
AcDbCircle
 10
2.1500057488
 20
10.7978213169
 30
0.0
 40
0.35
  0
CIRCLE
  5
C3
102
{ACAD_REACTORS
330
C5
102
}
100
AcDbEntity
  8
0
370
        25
  6
Continuous
 62
        47
100
AcDbCircle
 10
2.1500057488
 20
10.7978213169
 30
0.0
 40
0.4
  0
CIRCLE
  5
C4
102
{ACAD_REACTORS
330
C5
102
}
100
AcDbEntity
  8
0
370
        25
  6
Continuous
 62
        47
100
AcDbCircle
 10
2.1500057488
 20
10.7978213169
 30
0.0
 40
0.215
  0
LINE
  5
C6
102
{ACAD_REACTORS
330
ED
102
}
100
AcDbEntity
  8
Z_GLOBETROTTERS_1
370
         5
  6
Continuous
 62
         4
100
AcDbLine
 10
5.6375581096
 20
6.246415151
 30
0.0
 11
4.0410321589
 21
6.246415151
 31
0.0
  0
LINE
  5
C7
102
{ACAD_REACTORS
330
ED
102
}
100
AcDbEntity
  8
Z_GLOBETROTTERS_1
370
         5
  6
Continuous
 62
         4
100
AcDbLine
 10
5.2732098675
 20
6.9625996763
 30
0.0
 11
5.8988078106
 21
6.9625996763
 31
0.0
  0
LINE
  5
C8
102
{ACAD_REACTORS
330
ED
102
}
100
AcDbEntity
  8
Z_GLOBETROTTERS_1
370
         5
  6
Continuous
 62
         4
100
AcDbLine
 10
7.3391845147
 20
7.0021374663
 30
0.0
 11
7.8947154882
 21
7.0021374663
 31
0.0
  0
LINE
  5
C9
102
{ACAD_REACTORS
330
ED
102
}
100
AcDbEntity
  8
Z_GLOBETROTTERS_1
370
         5
  6
Continuous
 62
         4
100
AcDbLine
 10
7.8947154882
 20
6.246415151
 30
0.0
 11
7.3391845147
 21
6.246415151
 31
0.0
  0
LINE
  5
CA
102
{ACAD_REACTORS
330
ED
102
}
100
AcDbEntity
  8
Z_GLOBETROTTERS_1
370
         5
  6
Continuous
 62
         4
100
AcDbLine
 10
7.2390888439
 20
6.1463194802
 30
0.0
 11
7.2390888439
 21
5.9361185713
 31
0.0
  0
LINE
  5
CB
102
{ACAD_REACTORS
330
ED
102
}
100
AcDbEntity
  8
Z_GLOBETROTTERS_1
370
         5
  6
Continuous
 62
         4
100
AcDbLine
 10
4.0410321589
 20
10.3203089564
 30
0.0
 11
5.6275485425
 21
10.3203089564
 31
0.0
  0
LINE
  5
CC
102
{ACAD_REACTORS
330
ED
102
}
100
AcDbEntity
  8
Z_GLOBETROTTERS_1
370
         5
  6
Continuous
 62
         4
100
AcDbLine
 10
7.2390888439
 20
7.1022331372
 30
0.0
 11
7.2390888439
 21
9.4644909702
 31
0.0
  0
LINE
  5
CD
102
{ACAD_REACTORS
330
ED
102
}
100
AcDbEntity
  8
Z_GLOBETROTTERS_1
370
         5
  6
Continuous
 62
         4
100
AcDbLine
 10
4.0410321589
 20
7.0021374663
 30
0.0
 11
4.5965631323
 21
7.0021374663
 31
0.0
  0
LINE
  5
CE
102
{ACAD_REACTORS
330
ED
102
}
100
AcDbEntity
  8
Z_GLOBETROTTERS_1
370
         5
  6
Continuous
 62
         4
100
AcDbLine
 10
4.0410321589
 20
6.246415151
 30
0.0
 11
4.0410321589
 21
7.0021374663
 31
0.0
  0
LINE
  5
CF
102
{ACAD_REACTORS
330
ED
102
}
100
AcDbEntity
  8
Z_GLOBETROTTERS_1
370
         5
  6
Continuous
 62
         4
100
AcDbLine
 10
7.8947154882
 20
6.246415151
 30
0.0
 11
7.8947154882
 21
7.0021374663
 31
0.0
  0
LINE
  5
D0
102
{ACAD_REACTORS
330
ED
102
}
100
AcDbEntity
  8
Z_GLOBETROTTERS_1
370
         5
  6
Continuous
 62
         4
100
AcDbLine
 10
7.2390888439
 20
10.4204046272
 30
0.0
 11
7.2390888439
 21
11.0109690855
 31
0.0
  0
LINE
  5
D1
102
{ACAD_REACTORS
330
ED
102
}
100
AcDbEntity
  8
Z_GLOBETROTTERS_1
370
         5
  6
Continuous
 62
         4
100
AcDbLine
 10
7.3391845148
 20
10.3203089564
 30
0.0
 11
7.8947154882
 21
10.3203089564
 31
0.0
  0
LINE
  5
D2
102
{ACAD_REACTORS
330
ED
102
}
100
AcDbEntity
  8
Z_GLOBETROTTERS_1
370
         5
  6
Continuous
 62
         4
100
AcDbLine
 10
7.8947154882
 20
9.5645866411
 30
0.0
 11
7.3391845148
 21
9.5645866411
 31
0.0
  0
LINE
  5
D3
102
{ACAD_REACTORS
330
ED
102
}
100
AcDbEntity
  8
Z_GLOBETROTTERS_1
370
         5
  6
Continuous
 62
         4
100
AcDbLine
 10
7.8947154882
 20
9.5645866411
 30
0.0
 11
7.8947154882
 21
10.3203089564
 31
0.0
  0
ARC
  5
D4
102
{ACAD_REACTORS
330
ED
102
}
100
AcDbEntity
  8
Z0_LOWERTHIRD
370
        25
  6
Continuous
 62
         4
100
AcDbCircle
 10
7.3391845147
 20
7.1022331372
 30
0.0
 40
0.1000956709
100
AcDbArc
 50
180.0
 51
-90.0
  0
ARC
  5
D5
102
{ACAD_REACTORS
330
ED
102
}
100
AcDbEntity
  8
Z0_LOWERTHIRD
370
        25
  6
Continuous
 62
         4
100
AcDbCircle
 10
7.3391845147
 20
9.4644909702
 30
0.0
 40
0.1000956709
100
AcDbArc
 50
89.9999999999
 51
-179.9999999997
  0
ARC
  5
D6
102
{ACAD_REACTORS
330
ED
102
}
100
AcDbEntity
  8
Z0_LOWERTHIRD
370
        25
  6
Continuous
 62
         4
100
AcDbCircle
 10
7.3391845148
 20
10.4204046272
 30
0.0
 40
0.1000956709
100
AcDbArc
 50
180.0
 51
-90.0
  0
ARC
  5
D7
102
{ACAD_REACTORS
330
ED
102
}
100
AcDbEntity
  8
Z0_LOWERTHIRD
370
        25
  6
Continuous
 62
         4
100
AcDbCircle
 10
5.6275485425
 20
10.4204046272
 30
0.0
 40
0.1000956709
100
AcDbArc
 50
-90.0
 51
-0.0000000007
  0
ARC
  5
D8
102
{ACAD_REACTORS
330
ED
102
}
100
AcDbEntity
  8
Z0_LOWERTHIRD
370
        25
  6
Continuous
 62
         4
100
AcDbCircle
 10
4.5965631323
 20
9.4644909702
 30
0.0
 40
0.1000956709
100
AcDbArc
 50
-0.0
 51
89.9999999998
  0
ARC
  5
D9
102
{ACAD_REACTORS
330
ED
102
}
100
AcDbEntity
  8
Z0_LOWERTHIRD
370
        25
  6
Continuous
 62
         4
100
AcDbCircle
 10
4.5965631323
 20
7.1022331372
 30
0.0
 40
0.1000956709
100
AcDbArc
 50
-90.0
 51
0.0000000001
  0
ARC
  5
DA
102
{ACAD_REACTORS
330
ED
102
}
100
AcDbEntity
  8
Z0_LOWERTHIRD
370
        25
  6
Continuous
 62
         4
100
AcDbCircle
 10
5.6375581096
 20
6.1463194802
 30
0.0
 40
0.1000956709
100
AcDbArc
 50
-0.0000000001
 51
90.0000000001
  0
ARC
  5
DB
102
{ACAD_REACTORS
330
ED
102
}
100
AcDbEntity
  8
Z0_LOWERTHIRD
370
        25
  6
Continuous
 62
         4
100
AcDbCircle
 10
7.3391845147
 20
6.1463194802
 30
0.0
 40
0.1000956709
100
AcDbArc
 50
89.9999999999
 51
-179.9999999997
  0
CIRCLE
  5
DC
102
{ACAD_REACTORS
330
ED
102
}
100
AcDbEntity
  8
Z0_LOWERTHIRD
370
        25
  6
Continuous
 62
         4
100
AcDbCircle
 10
4.2311479206
 20
10.1226200063
 30
0.0
 40
0.069
  0
CIRCLE
  5
DD
102
{ACAD_REACTORS
330
ED
102
}
100
AcDbEntity
  8
Z0_LOWERTHIRD
370
        25
  6
Continuous
 62
         4
100
AcDbCircle
 10
4.2311479206
 20
9.7472612405
 30
0.0
 40
0.069
  0
CIRCLE
  5
DE
102
{ACAD_REACTORS
330
ED
102
}
100
AcDbEntity
  8
Z0_LOWERTHIRD
370
        25
  6
Continuous
 62
         4
100
AcDbCircle
 10
7.7045997264
 20
10.1226200063
 30
0.0
 40
0.069
  0
CIRCLE
  5
DF
102
{ACAD_REACTORS
330
ED
102
}
100
AcDbEntity
  8
Z0_LOWERTHIRD
370
        25
  6
Continuous
 62
         4
100
AcDbCircle
 10
7.7045997264
 20
9.7472612405
 30
0.0
 40
0.069
  0
CIRCLE
  5
E0
102
{ACAD_REACTORS
330
ED
102
}
100
AcDbEntity
  8
Z0_LOWERTHIRD
370
        25
  6
Continuous
 62
         4
100
AcDbCircle
 10
7.7045337135
 20
6.8194628669
 30
0.0
 40
0.069
  0
CIRCLE
  5
E1
102
{ACAD_REACTORS
330
ED
102
}
100
AcDbEntity
  8
Z0_LOWERTHIRD
370
        25
  6
Continuous
 62
         4
100
AcDbCircle
 10
7.7045337135
 20
6.4441041011
 30
0.0
 40
0.069
  0
CIRCLE
  5
E2
102
{ACAD_REACTORS
330
ED
102
}
100
AcDbEntity
  8
Z0_LOWERTHIRD
370
        25
  6
Continuous
 62
         4
100
AcDbCircle
 10
4.2311479206
 20
6.4441041011
 30
0.0
 40
0.069
  0
CIRCLE
  5
E3
102
{ACAD_REACTORS
330
ED
102
}
100
AcDbEntity
  8
Z0_LOWERTHIRD
370
        25
  6
Continuous
 62
         4
100
AcDbCircle
 10
4.2311479206
 20
6.8194628669
 30
0.0
 40
0.069
  0
LINE
  5
E4
102
{ACAD_REACTORS
330
ED
102
}
100
AcDbEntity
  8
Z_GLOBETROTTERS_1
370
         5
  6
Continuous
 62
         4
100
AcDbLine
 10
4.5965631323
 20
9.5645866411
 30
0.0
 11
4.0410321589
 21
9.5645866411
 31
0.0
  0
LINE
  5
E5
102
{ACAD_REACTORS
330
ED
102
}
100
AcDbEntity
  8
Z_GLOBETROTTERS_1
370
         5
  6
Continuous
 62
         4
100
AcDbLine
 10
4.0410321589
 20
10.3203089564
 30
0.0
 11
4.0410321589
 21
9.5645866411
 31
0.0
  0
LINE
  5
E6
102
{ACAD_REACTORS
330
ED
102
}
100
AcDbEntity
  8
Z_GLOBETROTTERS_1
370
         5
  6
Continuous
 62
         4
100
AcDbLine
 10
7.2390888439
 20
6.0292075452
 30
0.0
 11
5.7376537805
 21
6.0292075452
 31
0.0
  0
LINE
  5
E7
102
{ACAD_REACTORS
330
ED
102
}
100
AcDbEntity
  8
Z_GLOBETROTTERS_1
370
         5
  6
Continuous
 62
         4
100
AcDbLine
 10
7.2390888439
 20
5.9361185713
 30
0.0
 11
5.7376537805
 21
5.9361185713
 31
0.0
  0
LINE
  5
E8
102
{ACAD_REACTORS
330
ED
102
}
100
AcDbEntity
  8
Z_GLOBETROTTERS_1
370
         5
  6
Continuous
 62
         4
100
AcDbLine
 10
7.2390888439
 20
11.0109690855
 30
0.0
 11
5.7276442134
 21
11.0109690855
 31
0.0
  0
LINE
  5
E9
102
{ACAD_REACTORS
330
ED
102
}
100
AcDbEntity
  8
Z_GLOBETROTTERS_1
370
         5
  6
Continuous
 62
         4
100
AcDbLine
 10
5.5860088391
 20
6.6498007047
 30
0.0
 11
5.5860088391
 21
7.2753986478
 31
0.0
  0
LINE
  5
EA
102
{ACAD_REACTORS
330
ED
102
}
100
AcDbEntity
  8
Z_GLOBETROTTERS_1
370
         5
  6
Continuous
 62
         4
100
AcDbLine
 10
4.6966588032
 20
7.1022331372
 30
0.0
 11
4.6966588032
 21
9.4644909702
 31
0.0
  0
LINE
  5
EB
102
{ACAD_REACTORS
330
ED
102
}
100
AcDbEntity
  8
Z_GLOBETROTTERS_1
370
         5
  6
Continuous
 62
         4
100
AcDbLine
 10
5.7276442134
 20
11.0109690855
 30
0.0
 11
5.7276442134
 21
10.4204046272
 31
0.0
  0
LINE
  5
EC
102
{ACAD_REACTORS
330
ED
102
}
100
AcDbEntity
  8
Z_GLOBETROTTERS_1
370
         5
  6
Continuous
 62
         4
100
AcDbLine
 10
5.7376537805
 20
5.9361185713
 30
0.0
 11
5.7376537805
 21
6.1463194802
 31
0.0
  0
LINE
  5
EE
102
{ACAD_REACTORS
330
FB
102
}
100
AcDbEntity
  8
X_ROLLOVER
370
        25
  6
Continuous
 62
         6
100
AcDbLine
 10
7.8329414175
 20
5.7661506714
 30
0.0
 11
5.8803439229
 21
7.3300824289
 31
0.0
  0
LINE
  5
EF
102
{ACAD_REACTORS
330
FB
102
}
100
AcDbEntity
  8
X_ROLLOVER
370
        25
  6
Continuous
 62
         6
100
AcDbLine
 10
7.5192450021
 20
5.3064613455
 30
0.0
 11
5.3511154273
 21
6.5545533552
 31
0.0
  0
ARC
  5
F0
102
{ACAD_REACTORS
330
FB
102
}
100
AcDbEntity
  8
X_ROLLOVER
370
        25
  6
Continuous
 62
         6
100
AcDbCircle
 10
5.5860088391
 20
6.9625996763
 30
0.0
 40
0.4708255675
100
AcDbArc
 50
51.3070390493
 51
-119.9270456786
  0
ARC
  5
F1
102
{ACAD_REACTORS
330
FB
102
}
100
AcDbEntity
  8
X_ROLLOVER
370
        25
  6
Continuous
 62
         6
100
AcDbCircle
 10
5.5860088391
 20
6.9625996763
 30
0.0
 40
0.3563678145
100
AcDbArc
 50
51.3070390493
 51
-119.9270456786
  0
ARC
  5
F2
102
{ACAD_REACTORS
330
FB
102
}
100
AcDbEntity
  8
X_ROLLOVER
370
        25
  6
Continuous
 62
         6
100
AcDbCircle
 10
5.5860088391
 20
6.9625996763
 30
0.0
 40
0.2946859661
100
AcDbArc
 50
51.3070390493
 51
-119.9270456786
  0
ARC
  5
F3
102
{ACAD_REACTORS
330
FB
102
}
100
AcDbEntity
  8
X_ROLLOVER
370
        25
  6
Continuous
 62
         6
100
AcDbCircle
 10
7.6584763963
 20
5.5483278914
 30
0.0
 40
0.2790784964
100
AcDbArc
 50
-119.9270456786
 51
51.3070390493
  0
ARC
  5
F4
102
{ACAD_REACTORS
330
FB
102
}
100
AcDbEntity
  8
X_ROLLOVER
370
        25
  6
Continuous
 62
         6
100
AcDbCircle
 10
7.6584763963
 20
5.5483278914
 30
0.0
 40
0.1763775123
100
AcDbArc
 50
-119.9270456786
 51
51.3070390493
  0
ARC
  5
F5
102
{ACAD_REACTORS
330
FB
102
}
100
AcDbEntity
  8
X_ROLLOVER
370
        25
  6
Continuous
 62
         6
100
AcDbCircle
 10
7.6584763963
 20
5.5483278914
 30
0.0
 40
0.127949224
100
AcDbArc
 50
-119.9270456786
 51
51.3070390493
  0
LINE
  5
F6
102
{ACAD_REACTORS
330
FB
102
}
100
AcDbEntity
  8
X_ROLLOVER
370
        25
  6
Continuous
 62
         6
100
AcDbLine
 10
5.808791028
 20
7.2407473268
 30
0.0
 11
7.7687382287
 21
5.6859918123
 31
0.0
  0
LINE
  5
F7
102
{ACAD_REACTORS
330
FB
102
}
100
AcDbEntity
  8
X_ROLLOVER
370
        25
  6
Continuous
 62
         6
100
AcDbLine
 10
5.7702308196
 20
7.1926041991
 30
0.0
 11
7.7384634406
 21
5.6481931839
 31
0.0
  0
LINE
  5
F8
102
{ACAD_REACTORS
330
FB
102
}
100
AcDbEntity
  8
X_ROLLOVER
370
        25
  6
Continuous
 62
         6
100
AcDbLine
 10
5.4389909268
 20
6.7072067396
 30
0.0
 11
7.5946429263
 21
5.4374392444
 31
0.0
  0
LINE
  5
F9
102
{ACAD_REACTORS
330
FB
102
}
100
AcDbEntity
  8
X_ROLLOVER
370
        25
  6
Continuous
 62
         6
100
AcDbLine
 10
5.4082180445
 20
6.6537494657
 30
0.0
 11
7.5704822038
 21
5.3954683188
 31
0.0
  0
CIRCLE
  5
FA
102
{ACAD_REACTORS
330
FB
102
}
100
AcDbEntity
  8
X_ROLLOVER
370
        25
  6
Continuous
 62
         6
100
AcDbCircle
 10
5.5860088391
 20
6.9625996763
 30
0.0
 40
0.125
  0
CIRCLE
  5
FC
100
AcDbEntity
  8
3_250BIT_500TAB
370
        25
  6
Continuous
 62
         5
100
AcDbCircle
 10
5.5860088391
 20
6.9625996763
 30
0.0
 40
0.25
  0
CIRCLE
  5
FD
102
{ACAD_REACTORS
330
121
102
}
100
AcDbEntity
  8
Z_GLOBETROTTERS_1
370
         5
  6
Continuous
 62
         4
100
AcDbCircle
 10
5.2873448702
 20
14.3118614711
 30
0.0
 40
0.09375
  0
LINE
  5
FE
102
{ACAD_REACTORS
330
121
102
}
100
AcDbEntity
  8
Z_GLOBETROTTERS_1
370
         5
  6
Continuous
 62
         4
100
AcDbLine
 10
5.2873448702
 20
14.3118614711
 30
0.0
 11
4.8168202015
 21
13.7278182055
 31
0.0
  0
LINE
  5
FF
102
{ACAD_REACTORS
330
121
102
}
100
AcDbEntity
  8
Z_GLOBETROTTERS_1
370
         5
  6
Continuous
 62
         4
100
AcDbLine
 10
4.8249092277
 20
13.2397446274
 30
0.0
 11
4.7032335474
 21
13.3377706001
 31
0.0
  0
LINE
  5
100
102
{ACAD_REACTORS
330
121
102
}
100
AcDbEntity
  8
Z_GLOBETROTTERS_1
370
         5
  6
Continuous
 62
         4
100
AcDbLine
 10
4.661349502
 20
13.9333300339
 30
0.0
 11
4.7032335474
 21
13.3377706001
 31
0.0
  0
LINE
  5
101
102
{ACAD_REACTORS
330
121
102
}
100
AcDbEntity
  8
Z_GLOBETROTTERS_1
370
         5
  6
Continuous
 62
         4
100
AcDbLine
 10
7.2340876983
 20
11.2988303688
 30
0.0
 11
7.112412018
 21
11.3968563414
 31
0.0
  0
LINE
  5
102
102
{ACAD_REACTORS
330
121
102
}
100
AcDbEntity
  8
Z_GLOBETROTTERS_1
370
         5
  6
Continuous
 62
         4
100
AcDbLine
 10
7.8249171906
 20
11.3846547448
 30
0.0
 11
7.2340876983
 21
11.2988303688
 31
0.0
  0
LINE
  5
103
102
{ACAD_REACTORS
330
121
102
}
100
AcDbEntity
  8
Z_GLOBETROTTERS_1
370
         5
  6
Continuous
 62
         4
100
AcDbLine
 10
7.9804559473
 20
12.6237584562
 30
0.0
 11
5.8389639735
 21
14.349015575
 31
0.0
  0
LINE
  5
104
102
{ACAD_REACTORS
330
121
102
}
100
AcDbEntity
  8
Z_GLOBETROTTERS_1
370
         5
  6
Continuous
 62
         4
100
AcDbLine
 10
5.8389639735
 20
14.349015575
 30
0.0
 11
5.7659585653
 21
14.4078311586
 31
0.0
  0
LINE
  5
105
102
{ACAD_REACTORS
330
121
102
}
100
AcDbEntity
  8
Z_GLOBETROTTERS_1
370
         5
  6
Continuous
 62
         4
100
AcDbLine
 10
7.9804559473
 20
12.6237584562
 30
0.0
 11
8.0534613555
 21
12.5649428726
 31
0.0
  0
LINE
  5
106
102
{ACAD_REACTORS
330
121
102
}
100
AcDbEntity
  8
Z_GLOBETROTTERS_1
370
         5
  6
Continuous
 62
         4
100
AcDbLine
 10
5.7659585653
 20
14.4078311586
 30
0.0
 11
5.6442828849
 21
14.5058571312
 31
0.0
  0
LINE
  5
107
102
{ACAD_REACTORS
330
121
102
}
100
AcDbEntity
  8
Z_GLOBETROTTERS_1
370
         5
  6
Continuous
 62
         4
100
AcDbLine
 10
8.1751370358
 20
12.4669168999
 30
0.0
 11
8.0534613555
 21
12.5649428726
 31
0.0
  0
LINE
  5
108
102
{ACAD_REACTORS
330
121
102
}
100
AcDbEntity
  8
Z_GLOBETROTTERS_1
370
         5
  6
Continuous
 62
         4
100
AcDbLine
 10
7.2233930729
 20
13.8757491927
 30
0.0
 11
5.6549775104
 21
11.9289383073
 31
0.0
  0
LINE
  5
109
102
{ACAD_REACTORS
330
121
102
}
100
AcDbEntity
  8
Z_GLOBETROTTERS_1
370
         5
  6
Continuous
 62
         4
100
AcDbLine
 10
7.0394066098
 20
11.455671925
 30
0.0
 11
7.9804559473
 21
12.6237584562
 31
0.0
  0
LINE
  5
10A
102
{ACAD_REACTORS
330
121
102
}
100
AcDbEntity
  8
Z_GLOBETROTTERS_1
370
         5
  6
Continuous
 62
         4
100
AcDbLine
 10
5.8389639735
 20
14.349015575
 30
0.0
 11
4.8979146359
 21
13.1809290438
 31
0.0
  0
LINE
  5
10B
102
{ACAD_REACTORS
330
121
102
}
100
AcDbEntity
  8
Z_GLOBETROTTERS_1
370
         5
  6
Continuous
 62
         4
100
AcDbLine
 10
5.7659585653
 20
14.4078311586
 30
0.0
 11
4.8249092277
 21
13.2397446274
 31
0.0
  0
LINE
  5
10C
102
{ACAD_REACTORS
330
121
102
}
100
AcDbEntity
  8
Z_GLOBETROTTERS_1
370
         5
  6
Continuous
 62
         4
100
AcDbLine
 10
4.8979146359
 20
13.1809290438
 30
0.0
 11
5.8389639735
 21
14.349015575
 31
0.0
  0
LINE
  5
10D
102
{ACAD_REACTORS
330
121
102
}
100
AcDbEntity
  8
Z_GLOBETROTTERS_1
370
         5
  6
Continuous
 62
         4
100
AcDbLine
 10
8.0534613555
 20
12.5649428726
 30
0.0
 11
7.112412018
 21
11.3968563414
 31
0.0
  0
LINE
  5
10E
102
{ACAD_REACTORS
330
121
102
}
100
AcDbEntity
  8
Z_GLOBETROTTERS_1
370
         5
  6
Continuous
 62
         4
100
AcDbLine
 10
7.0394066098
 20
11.455671925
 30
0.0
 11
7.9804559473
 21
12.6237584562
 31
0.0
  0
CIRCLE
  5
10F
102
{ACAD_REACTORS
330
121
102
}
100
AcDbEntity
  8
Z_GLOBETROTTERS_1
370
         5
  6
Continuous
 62
         4
100
AcDbCircle
 10
6.4391852916
 20
12.90234375
 30
0.0
 40
1.25
  0
LINE
  5
110
102
{ACAD_REACTORS
330
121
102
}
100
AcDbEntity
  8
Z_GLOBETROTTERS_1
370
         5
  6
Continuous
 62
         4
100
AcDbLine
 10
5.6442828849
 20
14.5058571312
 30
0.0
 11
5.0534533926
 21
14.4200327552
 31
0.0
  0
LINE
  5
111
102
{ACAD_REACTORS
330
121
102
}
100
AcDbEntity
  8
Z_GLOBETROTTERS_1
370
         5
  6
Continuous
 62
         4
100
AcDbLine
 10
8.1751370358
 20
12.4669168999
 30
0.0
 11
8.2170210813
 21
11.8713574661
 31
0.0
  0
LINE
  5
112
102
{ACAD_REACTORS
330
121
102
}
100
AcDbEntity
  8
Z_GLOBETROTTERS_1
370
         5
  6
Continuous
 62
         4
100
AcDbLine
 10
4.8979146359
 20
13.1809290438
 30
0.0
 11
7.0394066098
 21
11.455671925
 31
0.0
  0
LINE
  5
113
102
{ACAD_REACTORS
330
121
102
}
100
AcDbEntity
  8
Z_GLOBETROTTERS_1
370
         5
  6
Continuous
 62
         4
100
AcDbLine
 10
4.8249092277
 20
13.2397446274
 30
0.0
 11
4.8979146359
 21
13.1809290438
 31
0.0
  0
LINE
  5
114
102
{ACAD_REACTORS
330
121
102
}
100
AcDbEntity
  8
Z_GLOBETROTTERS_1
370
         5
  6
Continuous
 62
         4
100
AcDbLine
 10
7.112412018
 20
11.3968563414
 30
0.0
 11
7.0394066098
 21
11.455671925
 31
0.0
  0
CIRCLE
  5
115
102
{ACAD_REACTORS
330
121
102
}
100
AcDbEntity
  8
Z_GLOBETROTTERS_1
370
         5
  6
Continuous
 62
         4
100
AcDbCircle
 10
6.4391852916
 20
12.90234375
 30
0.0
 40
0.375
  0
LINE
  5
116
102
{ACAD_REACTORS
330
121
102
}
100
AcDbEntity
  8
Z_GLOBETROTTERS_1
370
         5
  6
Continuous
 62
         4
100
AcDbLine
 10
5.2954338965
 20
13.823787893
 30
0.0
 11
7.5829366868
 21
11.980899607
 31
0.0
  0
LINE
  5
117
102
{ACAD_REACTORS
330
121
102
}
100
AcDbEntity
  8
Z_GLOBETROTTERS_1
370
         5
  6
Continuous
 62
         4
100
AcDbLine
 10
5.2954338965
 20
13.823787893
 30
0.0
 11
4.8574014473
 21
14.1766813946
 31
0.0
  0
LINE
  5
118
102
{ACAD_REACTORS
330
121
102
}
100
AcDbEntity
  8
Z_GLOBETROTTERS_1
370
         5
  6
Continuous
 62
         4
100
AcDbLine
 10
7.5829366868
 20
11.980899607
 30
0.0
 11
8.0209691359
 21
11.6280061054
 31
0.0
  0
LINE
  5
119
102
{ACAD_REACTORS
330
121
102
}
100
AcDbEntity
  8
Z_GLOBETROTTERS_1
370
         5
  6
Continuous
 62
         4
100
AcDbLine
 10
5.0534533926
 20
14.4200327552
 30
0.0
 11
4.661349502
 21
13.9333300339
 31
0.0
  0
LINE
  5
11A
102
{ACAD_REACTORS
330
121
102
}
100
AcDbEntity
  8
Z_GLOBETROTTERS_1
370
         5
  6
Continuous
 62
         4
100
AcDbLine
 10
8.2170210813
 20
11.8713574661
 30
0.0
 11
7.8249171906
 21
11.3846547448
 31
0.0
  0
LINE
  5
11B
102
{ACAD_REACTORS
330
121
102
}
100
AcDbEntity
  8
Z_GLOBETROTTERS_1
370
         5
  6
Continuous
 62
         4
100
AcDbLine
 10
7.5829366868
 20
11.980899607
 30
0.0
 11
7.8262880474
 21
11.7848476617
 31
0.0
  0
CIRCLE
  5
11C
102
{ACAD_REACTORS
330
121
102
}
100
AcDbEntity
  8
Z_GLOBETROTTERS_1
370
         5
  6
Continuous
 62
         4
100
AcDbCircle
 10
7.591025713
 20
11.4928260289
 30
0.0
 40
0.09375
  0
CIRCLE
  5
11D
102
{ACAD_REACTORS
330
121
102
}
100
AcDbEntity
  8
Z_GLOBETROTTERS_1
370
         5
  6
Continuous
 62
         4
100
AcDbCircle
 10
8.0615503818
 20
12.0768692945
 30
0.0
 40
0.09375
  0
LINE
  5
11E
102
{ACAD_REACTORS
330
121
102
}
100
AcDbEntity
  8
Z_GLOBETROTTERS_1
370
         5
  6
Continuous
 62
         4
100
AcDbLine
 10
8.0615503818
 20
12.0768692945
 30
0.0
 11
7.591025713
 21
11.4928260289
 31
0.0
  0
LINE
  5
11F
102
{ACAD_REACTORS
330
121
102
}
100
AcDbEntity
  8
Z_GLOBETROTTERS_1
370
         5
  6
Continuous
 62
         4
100
AcDbLine
 10
5.0520825358
 20
14.0198398383
 30
0.0
 11
5.2954338965
 21
13.823787893
 31
0.0
  0
CIRCLE
  5
120
102
{ACAD_REACTORS
330
121
102
}
100
AcDbEntity
  8
Z_GLOBETROTTERS_1
370
         5
  6
Continuous
 62
         4
100
AcDbCircle
 10
4.8168202015
 20
13.7278182055
 30
0.0
 40
0.09375
  0
CIRCLE
  5
122
100
AcDbEntity
  8
X_SMPOSTS
370
        25
  6
Continuous
 62
         3
100
AcDbCircle
 10
6.4541978551
 20
14.0362431901
 30
0.0
 40
0.5110787402
  0
CIRCLE
  5
123
100
AcDbEntity
  8
X_DROPS
370
         5
  6
Continuous
 62
         5
100
AcDbCircle
 10
6.4541978551
 20
14.0362431901
 30
0.0
 40
0.4281496063
  0
LINE
  5
124
100
AcDbEntity
  8
X_ROLLOVER
370
         5
  6
Continuous
 62
        29
100
AcDbLine
 10
4.4082126065
 20
8.7271858175
 30
0.0
 11
4.7043381701
 21
8.4790342532
 31
0.0
  0
CIRCLE
  5
125
100
AcDbEntity
  8
6_125BIT_500DEP
370
        25
  6
Continuous
 62
         5
100
AcDbCircle
 10
3.8725759698
 20
8.6541674657
 30
0.0
 40
0.0825
  0
LINE
  5
126
100
AcDbEntity
  8
Z0_CUT500
370
         5
  6
Continuous
 62
        47
100
AcDbLine
 10
0.6315530535
 20
8.5788531883
 30
0.0
 11
1.9910147341
 21
7.9449257957
 31
0.0
  0
ARC
  5
127
102
{ACAD_REACTORS
330
132
102
}
100
AcDbEntity
  8
UNASSIGNED
370
        25
  6
Continuous
 62
         4
100
AcDbCircle
 10
0.4625057488
 20
8.2163300735
 30
0.0
 40
0.285
100
AcDbArc
 50
155.0
 51
-130.4320713506
  0
ARC
  5
128
102
{ACAD_REACTORS
330
132
102
}
100
AcDbEntity
  8
UNASSIGNED
370
        25
  6
Continuous
 62
         4
100
AcDbCircle
 10
0.4625057488
 20
8.2163300735
 30
0.0
 40
0.285
100
AcDbArc
 50
-85.0
 51
-10.4320713506
  0
ARC
  5
129
102
{ACAD_REACTORS
330
132
102
}
100
AcDbEntity
  8
UNASSIGNED
370
        25
  6
Continuous
 62
         4
100
AcDbCircle
 10
0.4625057488
 20
8.2163300735
 30
0.0
 40
0.285
100
AcDbArc
 50
35.0
 51
109.5679286494
  0
LINE
  5
12A
102
{ACAD_REACTORS
330
132
102
}
100
AcDbEntity
  8
UNASSIGNED
370
        25
  6
Continuous
 62
         4
100
AcDbLine
 10
0.4873451355
 20
7.9324145845
 30
0.0
 11
0.4799368973
 21
8.0170911339
 31
0.0
  0
LINE
  5
12B
102
{ACAD_REACTORS
330
132
102
}
100
AcDbEntity
  8
UNASSIGNED
370
        25
  6
Continuous
 62
         4
100
AcDbLine
 10
0.4799368973
 20
8.0170911339
 30
0.0
 11
0.2776701185
 21
7.9993950837
 31
0.0
  0
LINE
  5
12C
102
{ACAD_REACTORS
330
132
102
}
100
AcDbEntity
  8
UNASSIGNED
370
        25
  6
Continuous
 62
         4
100
AcDbLine
 10
0.6959640814
 20
8.3797993578
 30
0.0
 11
0.6263361577
 21
8.3310453608
 31
0.0
  0
LINE
  5
12D
102
{ACAD_REACTORS
330
132
102
}
100
AcDbEntity
  8
UNASSIGNED
370
        25
  6
Continuous
 62
         4
100
AcDbLine
 10
0.6263361577
 20
8.3310453608
 30
0.0
 11
0.742794776
 21
8.164725217
 31
0.0
  0
LINE
  5
12E
102
{ACAD_REACTORS
330
132
102
}
100
AcDbEntity
  8
UNASSIGNED
370
        25
  6
Continuous
 62
         4
100
AcDbLine
 10
0.2812441914
 20
8.3008537258
 30
0.0
 11
0.3670523518
 21
8.4848699197
 31
0.0
  0
LINE
  5
12F
102
{ACAD_REACTORS
330
132
102
}
100
AcDbEntity
  8
UNASSIGNED
370
        25
  6
Continuous
 62
         4
100
AcDbLine
 10
0.2042080295
 20
8.3367762781
 30
0.0
 11
0.2812441914
 21
8.3008537258
 31
0.0
  0
CIRCLE
  5
130
102
{ACAD_REACTORS
330
132
102
}
100
AcDbEntity
  8
UNASSIGNED
370
        25
  6
Continuous
 62
         4
100
AcDbCircle
 10
0.4625057488
 20
8.2163300735
 30
0.0
 40
0.059
  0
CIRCLE
  5
131
102
{ACAD_REACTORS
330
132
102
}
100
AcDbEntity
  8
UNASSIGNED
370
        25
  6
Continuous
 62
         4
100
AcDbCircle
 10
0.4625057488
 20
8.2163300735
 30
0.0
 40
0.085
  0
CIRCLE
  5
133
100
AcDbEntity
  8
X_ROLLOVER
370
        25
  6
Continuous
 62
        27
100
AcDbCircle
 10
0.4625057488
 20
8.2163300735
 30
0.0
 40
0.35
  0
CIRCLE
  5
134
102
{ACAD_REACTORS
330
136
102
}
100
AcDbEntity
  8
0
370
        25
  6
Continuous
 62
        47
100
AcDbCircle
 10
0.4625057488
 20
8.2163300735
 30
0.0
 40
0.4
  0
CIRCLE
  5
135
102
{ACAD_REACTORS
330
136
102
}
100
AcDbEntity
  8
0
370
        25
  6
Continuous
 62
        47
100
AcDbCircle
 10
0.4625057488
 20
8.2163300735
 30
0.0
 40
0.215
  0
CIRCLE
  5
137
100
AcDbEntity
  8
6_125BIT_500DEP
370
        25
  6
Continuous
 62
         5
100
AcDbCircle
 10
0.4625057488
 20
8.2163300735
 30
0.0
 40
0.0825
  0
ARC
  5
138
100
AcDbEntity
  8
Z0_CUT500
370
         5
  6
Continuous
 62
        47
100
AcDbCircle
 10
4.2000057488
 20
13.5629425735
 30
0.0
 40
0.5
100
AcDbArc
 50
20.2307742835
 51
180.0
  0
LINE
  5
139
100
AcDbEntity
  8
6_125BIT_500DEP
370
        25
  6
Continuous
 62
         5
100
AcDbLine
 10
1.0350057488
 20
12.8134538694
 30
0.0
 11
1.0350057488
 21
11.1134538694
 31
0.0
  0
LINE
  5
13A
100
AcDbEntity
  8
6_125BIT_500DEP
370
        25
  6
Continuous
 62
         5
100
AcDbLine
 10
1.2150057488
 20
12.8134538694
 30
0.0
 11
1.2150057488
 21
11.1134538694
 31
0.0
  0
LINE
  5
13B
100
AcDbEntity
  8
Z0_CUT500
370
         5
  6
Continuous
 62
        47
100
AcDbLine
 10
3.8485968593
 20
11.0822576112
 30
0.0
 11
5.0801637487
 21
9.8654967166
 31
0.0
  0
CIRCLE
  5
13C
100
AcDbEntity
  8
Z0_CUT250
370
         5
  6
Continuous
 62
        47
100
AcDbCircle
 10
5.4315726382
 20
10.2211816788
 30
0.0
 40
0.075
  0
CIRCLE
  5
13D
100
AcDbEntity
  8
6_125BIT_500DEP
370
        25
  6
Continuous
 62
         5
100
AcDbCircle
 10
5.4315726382
 20
10.2211816788
 30
0.0
 40
0.0825
  0
CIRCLE
  5
13E
100
AcDbEntity
  8
X_ROLLOVER
370
        25
  6
Continuous
 62
        27
100
AcDbCircle
 10
5.4315726382
 20
10.2211816788
 30
0.0
 40
0.075
  0
ARC
  5
13F
102
{ACAD_REACTORS
330
14A
102
}
100
AcDbEntity
  8
UNASSIGNED
370
        25
  6
Continuous
 62
         4
100
AcDbCircle
 10
5.4315726382
 20
10.2211816788
 30
0.0
 40
0.285
100
AcDbArc
 50
90.0
 51
164.5679286494
  0
ARC
  5
140
102
{ACAD_REACTORS
330
14A
102
}
100
AcDbEntity
  8
UNASSIGNED
370
        25
  6
Continuous
 62
         4
100
AcDbCircle
 10
5.4315726382
 20
10.2211816788
 30
0.0
 40
0.285
100
AcDbArc
 50
-150.0
 51
-75.4320713505
  0
ARC
  5
141
102
{ACAD_REACTORS
330
14A
102
}
100
AcDbEntity
  8
UNASSIGNED
370
        25
  6
Continuous
 62
         4
100
AcDbCircle
 10
5.4315726382
 20
10.2211816788
 30
0.0
 40
0.285
100
AcDbArc
 50
-30.0
 51
44.5679286494
  0
LINE
  5
142
102
{ACAD_REACTORS
330
14A
102
}
100
AcDbEntity
  8
UNASSIGNED
370
        25
  6
Continuous
 62
         4
100
AcDbLine
 10
5.1847553981
 20
10.0786816788
 30
0.0
 11
5.2583675574
 21
10.1211816788
 31
0.0
  0
LINE
  5
143
102
{ACAD_REACTORS
330
14A
102
}
100
AcDbEntity
  8
UNASSIGNED
370
        25
  6
Continuous
 62
         4
100
AcDbLine
 10
5.2583675574
 20
10.1211816788
 30
0.0
 11
5.1568478549
 21
10.2970189616
 31
0.0
  0
LINE
  5
144
102
{ACAD_REACTORS
330
14A
102
}
100
AcDbEntity
  8
UNASSIGNED
370
        25
  6
Continuous
 62
         4
100
AcDbLine
 10
5.6783898782
 20
10.0786816788
 30
0.0
 11
5.6047777189
 21
10.1211816788
 31
0.0
  0
LINE
  5
145
102
{ACAD_REACTORS
330
14A
102
}
100
AcDbEntity
  8
UNASSIGNED
370
        25
  6
Continuous
 62
         4
100
AcDbLine
 10
5.6047777189
 20
10.1211816788
 30
0.0
 11
5.5032580164
 21
9.9453443961
 31
0.0
  0
LINE
  5
146
102
{ACAD_REACTORS
330
14A
102
}
100
AcDbEntity
  8
UNASSIGNED
370
        25
  6
Continuous
 62
         4
100
AcDbLine
 10
5.4315726382
 20
10.4211816788
 30
0.0
 11
5.6346120432
 21
10.4211816788
 31
0.0
  0
LINE
  5
147
102
{ACAD_REACTORS
330
14A
102
}
100
AcDbEntity
  8
UNASSIGNED
370
        25
  6
Continuous
 62
         4
100
AcDbLine
 10
5.4315726382
 20
10.5061816788
 30
0.0
 11
5.4315726382
 21
10.4211816788
 31
0.0
  0
CIRCLE
  5
148
102
{ACAD_REACTORS
330
14A
102
}
100
AcDbEntity
  8
UNASSIGNED
370
        25
  6
Continuous
 62
         4
100
AcDbCircle
 10
5.4315726382
 20
10.2211816788
 30
0.0
 40
0.059
  0
CIRCLE
  5
149
102
{ACAD_REACTORS
330
14A
102
}
100
AcDbEntity
  8
UNASSIGNED
370
        25
  6
Continuous
 62
         4
100
AcDbCircle
 10
5.4315726382
 20
10.2211816788
 30
0.0
 40
0.085
  0
ARC
  5
14B
100
AcDbEntity
  8
Z0_CUT250
370
         5
  6
Continuous
 62
        47
100
AcDbCircle
 10
5.4315726382
 20
10.2211816788
 30
0.0
 40
0.4
100
AcDbArc
 50
-134.6535142588
 51
20.2307742835
  0
LINE
  5
14C
100
AcDbEntity
  8
0
370
         5
  6
Continuous
 62
        47
100
AcDbLine
 10
5.2804668157
 20
10.068237145
 30
0.0
 11
4.0488999263
 21
11.2849980397
 31
0.0
  0
ARC
  5
14D
100
AcDbEntity
  8
Z0_CUT250
370
         5
  6
Continuous
 62
        47
100
AcDbCircle
 10
4.2000057488
 20
13.5629425735
 30
0.0
 40
0.4
100
AcDbArc
 50
20.2307742835
 51
-180.0
  0
LINE
  5
14E
100
AcDbEntity
  8
Z0_CUT500
370
         5
  6
Continuous
 62
        47
100
AcDbLine
 10
0.6550961535
 20
8.1265236929
 30
0.0
 11
1.1844984153
 21
7.9899971559
 31
0.0
  0
LINE
  5
14F
100
AcDbEntity
  8
Z0_CUT500
370
         5
  6
Continuous
 62
        47
100
AcDbLine
 10
1.0999747629
 20
7.8087355985
 30
0.0
 11
0.6550961535
 21
8.1265236929
 31
0.0
  0
ARC
  5
150
100
AcDbEntity
  8
Z0_CUT500
370
         5
  6
Continuous
 62
        47
100
AcDbCircle
 10
0.4625057488
 20
8.2163300735
 30
0.0
 40
0.325
100
AcDbArc
 50
65.0
 51
-115.0
  0
LINE
  5
151
100
AcDbEntity
  8
Z0_CUT500
370
         5
  6
Continuous
 62
        47
100
AcDbLine
 10
5.9007263498
 20
10.3940827916
 30
0.0
 11
4.6691594605
 21
13.7358436863
 31
0.0
  0
LINE
  5
152
100
AcDbEntity
  8
Z0_CUT250
370
         5
  6
Continuous
 62
        47
100
AcDbLine
 10
5.8068956075
 20
10.3595025691
 30
0.0
 11
4.5753287182
 21
13.7012634637
 31
0.0
  0
ARC
  5
153
102
{ACAD_REACTORS
330
157
102
}
100
AcDbEntity
  8
3_250BIT_500TAB
370
        25
  6
Continuous
 62
         5
100
AcDbCircle
 10
4.7912112549
 20
10.9266175924
 30
0.0
 40
0.25
100
AcDbArc
 50
133.4942105941
 51
-46.5057894059
  0
ARC
  5
154
102
{ACAD_REACTORS
330
157
102
}
100
AcDbEntity
  8
3_250BIT_500TAB
370
        25
  6
Continuous
 62
         5
100
AcDbCircle
 10
5.1579329339
 20
11.2745530539
 30
0.0
 40
0.25
100
AcDbArc
 50
-46.5057894059
 51
133.4942105941
  0
LINE
  5
155
102
{ACAD_REACTORS
330
157
102
}
100
AcDbEntity
  8
3_250BIT_500TAB
370
        25
  6
Continuous
 62
         5
100
AcDbLine
 10
4.9858626146
 20
11.4559140343
 30
0.0
 11
4.6191409355
 21
11.1079785728
 31
0.0
  0
LINE
  5
156
102
{ACAD_REACTORS
330
157
102
}
100
AcDbEntity
  8
3_250BIT_500TAB
370
        25
  6
Continuous
 62
         5
100
AcDbLine
 10
4.9632815742
 20
10.745256612
 30
0.0
 11
5.3300032532
 21
11.0931920735
 31
0.0
  0
ARC
  5
158
100
AcDbEntity
  8
Z0_CUT250
370
         5
  6
Continuous
 62
        47
100
AcDbCircle
 10
4.2000057488
 20
11.4379425735
 30
0.0
 40
0.4
100
AcDbArc
 50
180.0
 51
-134.6535142588
  0
LINE
  5
159
100
AcDbEntity
  8
6_125BIT_500DEP
370
        25
  6
Continuous
 62
         5
100
AcDbLine
 10
3.0850057488
 20
12.8134538694
 30
0.0
 11
3.0850057488
 21
11.1134538694
 31
0.0
  0
CIRCLE
  5
15A
100
AcDbEntity
  8
Z0_CUT250
370
         5
  6
Continuous
 62
        55
100
AcDbCircle
 10
0.4625057488
 20
8.2163300735
 30
0.0
 40
0.09
  0
LINE
  5
15B
100
AcDbEntity
  8
Z0_CUT500
370
         5
  6
Continuous
 62
        47
100
AcDbLine
 10
3.7000057488
 20
13.5629425735
 30
0.0
 11
3.7000057488
 21
11.4379425735
 31
0.0
  0
LINE
  5
15C
100
AcDbEntity
  8
Z0_CUT250
370
         5
  6
Continuous
 62
        47
100
AcDbLine
 10
3.8000057488
 20
13.5629425735
 30
0.0
 11
3.8000057488
 21
11.4379425735
 31
0.0
  0
ARC
  5
15D
100
AcDbEntity
  8
6_125BIT_500DEP
370
        25
  6
Continuous
 62
         5
100
AcDbCircle
 10
3.1750057488
 20
12.8134538694
 30
0.0
 40
0.09
100
AcDbArc
 50
0.0
 51
180.0
  0
ARC
  5
15E
100
AcDbEntity
  8
6_125BIT_500DEP
370
        25
  6
Continuous
 62
         5
100
AcDbCircle
 10
1.1250057488
 20
12.8134538694
 30
0.0
 40
0.09
100
AcDbArc
 50
0.0
 51
180.0
  0
LINE
  5
15F
100
AcDbEntity
  8
Z0_CUT500
370
         5
  6
Continuous
 62
        47
100
AcDbLine
 10
1.6529201247
 20
7.2198795661
 30
0.0
 11
1.6846164943
 21
7.2878526501
 31
0.0
  0
LINE
  5
160
100
AcDbEntity
  8
Z0_CUT250
370
         5
  6
Continuous
 62
        47
100
AcDbLine
 10
3.9188786372
 20
11.1533946037
 30
0.0
 11
5.1504455266
 21
9.936633709
 31
0.0
  0
LINE
  5
161
100
AcDbEntity
  8
0
370
         5
  6
Continuous
 62
        47
100
AcDbLine
 10
5.1504455266
 20
9.936633709
 30
0.0
 11
3.9188786372
 21
11.1533946037
 31
0.0
  0
ARC
  5
162
100
AcDbEntity
  8
Z0_CUT500
370
         5
  6
Continuous
 62
        47
100
AcDbCircle
 10
5.4315726382
 20
10.2211816788
 30
0.0
 40
0.5
100
AcDbArc
 50
-134.6535142588
 51
20.2307742835
  0
CIRCLE
  5
163
102
{ACAD_REACTORS
330
165
102
}
100
AcDbEntity
  8
0
370
        25
  6
Continuous
 62
        47
100
AcDbCircle
 10
5.4315726382
 20
10.2211816788
 30
0.0
 40
0.4
  0
CIRCLE
  5
164
102
{ACAD_REACTORS
330
165
102
}
100
AcDbEntity
  8
0
370
        25
  6
Continuous
 62
        47
100
AcDbCircle
 10
5.4315726382
 20
10.2211816788
 30
0.0
 40
0.215
  0
CIRCLE
  5
166
100
AcDbEntity
  8
X_ROLLOVER
370
        25
  6
Continuous
 62
        27
100
AcDbCircle
 10
5.4315726382
 20
10.2211816788
 30
0.0
 40
0.35
  0
ARC
  5
167
100
AcDbEntity
  8
6_125BIT_500DEP
370
        25
  6
Continuous
 62
         5
100
AcDbCircle
 10
3.1750057488
 20
11.1134538694
 30
0.0
 40
0.09
100
AcDbArc
 50
180.0
 51
0.0
  0
LINE
  5
168
100
AcDbEntity
  8
0
370
         5
  6
Continuous
 62
        47
100
AcDbLine
 10
4.4017418448
 20
13.637290052
 30
0.0
 11
5.6192341228
 21
10.2903421239
 31
0.0
  0
LINE
  5
169
100
AcDbEntity
  8
0
370
         5
  6
Continuous
 62
        47
100
AcDbLine
 10
5.8068956075
 20
10.3595025691
 30
0.0
 11
4.5753287182
 21
13.7012634637
 31
0.0
  0
ARC
  5
16A
102
{ACAD_REACTORS
330
175
102
}
100
AcDbEntity
  8
UNASSIGNED
370
        25
  6
Continuous
 62
         4
100
AcDbCircle
 10
4.2000057488
 20
11.4379425735
 30
0.0
 40
0.285
100
AcDbArc
 50
90.0
 51
164.5679286494
  0
ARC
  5
16B
102
{ACAD_REACTORS
330
175
102
}
100
AcDbEntity
  8
UNASSIGNED
370
        25
  6
Continuous
 62
         4
100
AcDbCircle
 10
4.2000057488
 20
11.4379425735
 30
0.0
 40
0.285
100
AcDbArc
 50
-150.0
 51
-75.4320713505
  0
ARC
  5
16C
102
{ACAD_REACTORS
330
175
102
}
100
AcDbEntity
  8
UNASSIGNED
370
        25
  6
Continuous
 62
         4
100
AcDbCircle
 10
4.2000057488
 20
11.4379425735
 30
0.0
 40
0.285
100
AcDbArc
 50
-30.0
 51
44.5679286494
  0
LINE
  5
16D
102
{ACAD_REACTORS
330
175
102
}
100
AcDbEntity
  8
UNASSIGNED
370
        25
  6
Continuous
 62
         4
100
AcDbLine
 10
3.9531885087
 20
11.2954425735
 30
0.0
 11
4.026800668
 21
11.3379425735
 31
0.0
  0
LINE
  5
16E
102
{ACAD_REACTORS
330
175
102
}
100
AcDbEntity
  8
UNASSIGNED
370
        25
  6
Continuous
 62
         4
100
AcDbLine
 10
4.026800668
 20
11.3379425735
 30
0.0
 11
3.9252809655
 21
11.5137798562
 31
0.0
  0
LINE
  5
16F
102
{ACAD_REACTORS
330
175
102
}
100
AcDbEntity
  8
UNASSIGNED
370
        25
  6
Continuous
 62
         4
100
AcDbLine
 10
4.4468229889
 20
11.2954425735
 30
0.0
 11
4.3732108296
 21
11.3379425735
 31
0.0
  0
LINE
  5
170
102
{ACAD_REACTORS
330
175
102
}
100
AcDbEntity
  8
UNASSIGNED
370
        25
  6
Continuous
 62
         4
100
AcDbLine
 10
4.3732108296
 20
11.3379425735
 30
0.0
 11
4.271691127
 21
11.1621052907
 31
0.0
  0
LINE
  5
171
102
{ACAD_REACTORS
330
175
102
}
100
AcDbEntity
  8
UNASSIGNED
370
        25
  6
Continuous
 62
         4
100
AcDbLine
 10
4.2000057488
 20
11.6379425735
 30
0.0
 11
4.4030451538
 21
11.6379425735
 31
0.0
  0
LINE
  5
172
102
{ACAD_REACTORS
330
175
102
}
100
AcDbEntity
  8
UNASSIGNED
370
        25
  6
Continuous
 62
         4
100
AcDbLine
 10
4.2000057488
 20
11.7229425735
 30
0.0
 11
4.2000057488
 21
11.6379425735
 31
0.0
  0
CIRCLE
  5
173
102
{ACAD_REACTORS
330
175
102
}
100
AcDbEntity
  8
UNASSIGNED
370
        25
  6
Continuous
 62
         4
100
AcDbCircle
 10
4.2000057488
 20
11.4379425735
 30
0.0
 40
0.059
  0
CIRCLE
  5
174
102
{ACAD_REACTORS
330
175
102
}
100
AcDbEntity
  8
UNASSIGNED
370
        25
  6
Continuous
 62
         4
100
AcDbCircle
 10
4.2000057488
 20
11.4379425735
 30
0.0
 40
0.085
  0
CIRCLE
  5
176
102
{ACAD_REACTORS
330
178
102
}
100
AcDbEntity
  8
0
370
        25
  6
Continuous
 62
        47
100
AcDbCircle
 10
4.2000057488
 20
11.4379425735
 30
0.0
 40
0.4
  0
CIRCLE
  5
177
102
{ACAD_REACTORS
330
178
102
}
100
AcDbEntity
  8
0
370
        25
  6
Continuous
 62
        47
100
AcDbCircle
 10
4.2000057488
 20
11.4379425735
 30
0.0
 40
0.215
  0
CIRCLE
  5
179
100
AcDbEntity
  8
X_ROLLOVER
370
        25
  6
Continuous
 62
        27
100
AcDbCircle
 10
4.2000057488
 20
11.4379425735
 30
0.0
 40
0.35
  0
ARC
  5
17A
100
AcDbEntity
  8
Z0_CUT500
370
         5
  6
Continuous
 62
        47
100
AcDbCircle
 10
4.2000057488
 20
11.4379425735
 30
0.0
 40
0.5
100
AcDbArc
 50
-180.0
 51
-134.6535142588
  0
ARC
  5
17B
100
AcDbEntity
  8
Z0_CUT500
370
         5
  6
Continuous
 62
        47
100
AcDbCircle
 10
1.8219674294
 20
7.5824026809
 30
0.0
 40
0.325
100
AcDbArc
 50
-115.0
 51
65.0
  0
LINE
  5
17C
100
AcDbEntity
  8
Z0_CUT500
370
         5
  6
Continuous
 62
        47
100
AcDbLine
 10
0.2934584441
 20
7.8538069587
 30
0.0
 11
1.6529201247
 21
7.2198795661
 31
0.0
  0
CIRCLE
  5
17D
100
AcDbEntity
  8
Z0_CUT250
370
         5
  6
Continuous
 62
        47
100
AcDbCircle
 10
4.2000057488
 20
13.5629425735
 30
0.0
 40
0.075
  0
ARC
  5
17E
102
{ACAD_REACTORS
330
189
102
}
100
AcDbEntity
  8
UNASSIGNED
370
        25
  6
Continuous
 62
         4
100
AcDbCircle
 10
4.2000057488
 20
13.5629425735
 30
0.0
 40
0.285
100
AcDbArc
 50
90.0
 51
164.5679286494
  0
ARC
  5
17F
102
{ACAD_REACTORS
330
189
102
}
100
AcDbEntity
  8
UNASSIGNED
370
        25
  6
Continuous
 62
         4
100
AcDbCircle
 10
4.2000057488
 20
13.5629425735
 30
0.0
 40
0.285
100
AcDbArc
 50
-150.0
 51
-75.4320713505
  0
ARC
  5
180
102
{ACAD_REACTORS
330
189
102
}
100
AcDbEntity
  8
UNASSIGNED
370
        25
  6
Continuous
 62
         4
100
AcDbCircle
 10
4.2000057488
 20
13.5629425735
 30
0.0
 40
0.285
100
AcDbArc
 50
-30.0
 51
44.5679286494
  0
LINE
  5
181
102
{ACAD_REACTORS
330
189
102
}
100
AcDbEntity
  8
UNASSIGNED
370
        25
  6
Continuous
 62
         4
100
AcDbLine
 10
3.9531885087
 20
13.4204425735
 30
0.0
 11
4.026800668
 21
13.4629425735
 31
0.0
  0
LINE
  5
182
102
{ACAD_REACTORS
330
189
102
}
100
AcDbEntity
  8
UNASSIGNED
370
        25
  6
Continuous
 62
         4
100
AcDbLine
 10
4.026800668
 20
13.4629425735
 30
0.0
 11
3.9252809655
 21
13.6387798562
 31
0.0
  0
LINE
  5
183
102
{ACAD_REACTORS
330
189
102
}
100
AcDbEntity
  8
UNASSIGNED
370
        25
  6
Continuous
 62
         4
100
AcDbLine
 10
4.4468229889
 20
13.4204425735
 30
0.0
 11
4.3732108296
 21
13.4629425735
 31
0.0
  0
LINE
  5
184
102
{ACAD_REACTORS
330
189
102
}
100
AcDbEntity
  8
UNASSIGNED
370
        25
  6
Continuous
 62
         4
100
AcDbLine
 10
4.3732108296
 20
13.4629425735
 30
0.0
 11
4.271691127
 21
13.2871052907
 31
0.0
  0
LINE
  5
185
102
{ACAD_REACTORS
330
189
102
}
100
AcDbEntity
  8
UNASSIGNED
370
        25
  6
Continuous
 62
         4
100
AcDbLine
 10
4.2000057488
 20
13.7629425735
 30
0.0
 11
4.4030451538
 21
13.7629425735
 31
0.0
  0
LINE
  5
186
102
{ACAD_REACTORS
330
189
102
}
100
AcDbEntity
  8
UNASSIGNED
370
        25
  6
Continuous
 62
         4
100
AcDbLine
 10
4.2000057488
 20
13.8479425735
 30
0.0
 11
4.2000057488
 21
13.7629425735
 31
0.0
  0
CIRCLE
  5
187
102
{ACAD_REACTORS
330
189
102
}
100
AcDbEntity
  8
UNASSIGNED
370
        25
  6
Continuous
 62
         4
100
AcDbCircle
 10
4.2000057488
 20
13.5629425735
 30
0.0
 40
0.059
  0
CIRCLE
  5
188
102
{ACAD_REACTORS
330
189
102
}
100
AcDbEntity
  8
UNASSIGNED
370
        25
  6
Continuous
 62
         4
100
AcDbCircle
 10
4.2000057488
 20
13.5629425735
 30
0.0
 40
0.085
  0
CIRCLE
  5
18A
102
{ACAD_REACTORS
330
18C
102
}
100
AcDbEntity
  8
0
370
        25
  6
Continuous
 62
        47
100
AcDbCircle
 10
4.2000057488
 20
13.5629425735
 30
0.0
 40
0.4
  0
CIRCLE
  5
18B
102
{ACAD_REACTORS
330
18C
102
}
100
AcDbEntity
  8
0
370
        25
  6
Continuous
 62
        47
100
AcDbCircle
 10
4.2000057488
 20
13.5629425735
 30
0.0
 40
0.215
  0
LINE
  5
18D
100
AcDbEntity
  8
Z0_CUT500
370
         5
  6
Continuous
 62
        47
100
AcDbLine
 10
1.9593183644
 20
7.8769527117
 30
0.0
 11
1.9910147341
 21
7.9449257957
 31
0.0
  0
LINE
  5
18E
100
AcDbEntity
  8
Z0_CUT500
370
         5
  6
Continuous
 62
        47
100
AcDbLine
 10
0.5998566839
 20
8.5108801043
 30
0.0
 11
0.6315530535
 21
8.5788531883
 31
0.0
  0
LINE
  5
18F
100
AcDbEntity
  8
Z0_CUT500
370
         5
  6
Continuous
 62
        47
100
AcDbLine
 10
0.2934584441
 20
7.8538069587
 30
0.0
 11
0.3251548137
 21
7.9217800427
 31
0.0
  0
CIRCLE
  5
190
100
AcDbEntity
  8
X_SMPOSTS
370
        25
  6
Continuous
 62
         3
100
AcDbCircle
 10
1.1250057488
 20
13.9145326096
 30
0.0
 40
0.5110787402
  0
ARC
  5
191
102
{ACAD_REACTORS
330
19C
102
}
100
AcDbEntity
  8
UNASSIGNED
370
        25
  6
Continuous
 62
         4
100
AcDbCircle
 10
1.8219674294
 20
7.5824026809
 30
0.0
 40
0.285
100
AcDbArc
 50
155.0
 51
-130.4320713506
  0
ARC
  5
192
102
{ACAD_REACTORS
330
19C
102
}
100
AcDbEntity
  8
UNASSIGNED
370
        25
  6
Continuous
 62
         4
100
AcDbCircle
 10
1.8219674294
 20
7.5824026809
 30
0.0
 40
0.285
100
AcDbArc
 50
-85.0
 51
-10.4320713506
  0
ARC
  5
193
102
{ACAD_REACTORS
330
19C
102
}
100
AcDbEntity
  8
UNASSIGNED
370
        25
  6
Continuous
 62
         4
100
AcDbCircle
 10
1.8219674294
 20
7.5824026809
 30
0.0
 40
0.285
100
AcDbArc
 50
35.0
 51
109.5679286494
  0
LINE
  5
194
102
{ACAD_REACTORS
330
19C
102
}
100
AcDbEntity
  8
UNASSIGNED
370
        25
  6
Continuous
 62
         4
100
AcDbLine
 10
1.846806816
 20
7.2984871919
 30
0.0
 11
1.8393985779
 21
7.3831637413
 31
0.0
  0
LINE
  5
195
102
{ACAD_REACTORS
330
19C
102
}
100
AcDbEntity
  8
UNASSIGNED
370
        25
  6
Continuous
 62
         4
100
AcDbLine
 10
1.8393985779
 20
7.3831637413
 30
0.0
 11
1.6371317991
 21
7.3654676911
 31
0.0
  0
LINE
  5
196
102
{ACAD_REACTORS
330
19C
102
}
100
AcDbEntity
  8
UNASSIGNED
370
        25
  6
Continuous
 62
         4
100
AcDbLine
 10
2.055425762
 20
7.7458719652
 30
0.0
 11
1.9857978382
 21
7.6971179681
 31
0.0
  0
LINE
  5
197
102
{ACAD_REACTORS
330
19C
102
}
100
AcDbEntity
  8
UNASSIGNED
370
        25
  6
Continuous
 62
         4
100
AcDbLine
 10
1.9857978382
 20
7.6971179681
 30
0.0
 11
2.1022564566
 21
7.5307978244
 31
0.0
  0
LINE
  5
198
102
{ACAD_REACTORS
330
19C
102
}
100
AcDbEntity
  8
UNASSIGNED
370
        25
  6
Continuous
 62
         4
100
AcDbLine
 10
1.6407058719
 20
7.6669263332
 30
0.0
 11
1.7265140324
 21
7.8509425271
 31
0.0
  0
LINE
  5
199
102
{ACAD_REACTORS
330
19C
102
}
100
AcDbEntity
  8
UNASSIGNED
370
        25
  6
Continuous
 62
         4
100
AcDbLine
 10
1.56366971
 20
7.7028488855
 30
0.0
 11
1.6407058719
 21
7.6669263332
 31
0.0
  0
CIRCLE
  5
19A
102
{ACAD_REACTORS
330
19C
102
}
100
AcDbEntity
  8
UNASSIGNED
370
        25
  6
Continuous
 62
         4
100
AcDbCircle
 10
1.8219674294
 20
7.5824026809
 30
0.0
 40
0.059
  0
CIRCLE
  5
19B
102
{ACAD_REACTORS
330
19C
102
}
100
AcDbEntity
  8
UNASSIGNED
370
        25
  6
Continuous
 62
         4
100
AcDbCircle
 10
1.8219674294
 20
7.5824026809
 30
0.0
 40
0.085
  0
CIRCLE
  5
19D
100
AcDbEntity
  8
X_ROLLOVER
370
        25
  6
Continuous
 62
        27
100
AcDbCircle
 10
4.2000057488
 20
13.5629425735
 30
0.0
 40
0.35
  0
ARC
  5
19E
100
AcDbEntity
  8
6_125BIT_500DEP
370
        25
  6
Continuous
 62
         5
100
AcDbCircle
 10
1.1250057488
 20
11.1134538694
 30
0.0
 40
0.09
100
AcDbArc
 50
180.0
 51
0.0
  0
CIRCLE
  5
19F
100
AcDbEntity
  8
Z0_CUT250
370
         5
  6
Continuous
 62
        55
100
AcDbCircle
 10
1.8219674294
 20
7.5824026809
 30
0.0
 40
0.09
  0
ARC
  5
1A0
100
AcDbEntity
  8
Z0_CUT250
370
         5
  6
Continuous
 62
        55
100
AcDbCircle
 10
1.8219674294
 20
7.5824026809
 30
0.0
 40
0.4
100
AcDbArc
 50
-115.0
 51
65.0
  0
LINE
  5
1A1
100
AcDbEntity
  8
Z0_CUT250
370
         5
  6
Continuous
 62
        55
100
AcDbLine
 10
0.2934584441
 20
7.8538069587
 30
0.0
 11
1.6529201247
 21
7.2198795661
 31
0.0
  0
CIRCLE
  5
1A2
102
{ACAD_REACTORS
330
1AD
102
}
100
AcDbEntity
  8
X_ROLLOVER
370
        25
  6
Continuous
 62
        27
100
AcDbCircle
 10
1.8219674294
 20
7.5824026809
 30
0.0
 40
0.075
  0
CIRCLE
  5
1A3
102
{ACAD_REACTORS
330
1AD
102
}
100
AcDbEntity
  8
X_ROLLOVER
370
        25
  6
Continuous
 62
        27
100
AcDbCircle
 10
0.4625057488
 20
8.2163300735
 30
0.0
 40
0.075
  0
LINE
  5
1A4
102
{ACAD_REACTORS
330
1AC
102
}
100
AcDbEntity
  8
X_ROLLOVER
370
        25
  6
Continuous
 62
        27
100
AcDbLine
 10
0.3145893572
 20
7.899122348
 30
0.0
 11
0.2934584441
 21
7.8538069587
 31
0.0
  0
LINE
  5
1A5
102
{ACAD_REACTORS
330
1AC
102
}
100
AcDbEntity
  8
X_ROLLOVER
370
        25
  6
Continuous
 62
        27
100
AcDbLine
 10
0.2934584441
 20
7.8538069587
 30
0.0
 11
1.6529201247
 21
7.2198795661
 31
0.0
  0
LINE
  5
1A6
102
{ACAD_REACTORS
330
1AC
102
}
100
AcDbEntity
  8
X_ROLLOVER
370
        25
  6
Continuous
 62
        27
100
AcDbLine
 10
1.6529201247
 20
7.2198795661
 30
0.0
 11
1.6740510377
 21
7.2651949554
 31
0.0
  0
LINE
  5
1A7
102
{ACAD_REACTORS
330
1AC
102
}
100
AcDbEntity
  8
X_ROLLOVER
370
        25
  6
Continuous
 62
        27
100
AcDbLine
 10
0.6104221404
 20
8.5335377989
 30
0.0
 11
0.6315530535
 21
8.5788531883
 31
0.0
  0
LINE
  5
1A8
102
{ACAD_REACTORS
330
1AC
102
}
100
AcDbEntity
  8
X_ROLLOVER
370
        25
  6
Continuous
 62
        27
100
AcDbLine
 10
0.6315530535
 20
8.5788531883
 30
0.0
 11
1.9910147341
 21
7.9449257957
 31
0.0
  0
LINE
  5
1A9
102
{ACAD_REACTORS
330
1AC
102
}
100
AcDbEntity
  8
X_ROLLOVER
370
        25
  6
Continuous
 62
        27
100
AcDbLine
 10
1.9910147341
 20
7.9449257957
 30
0.0
 11
1.969883821
 21
7.8996104063
 31
0.0
  0
ARC
  5
1AA
102
{ACAD_REACTORS
330
1AC
102
}
100
AcDbEntity
  8
X_ROLLOVER
370
        25
  6
Continuous
 62
        27
100
AcDbCircle
 10
0.4625057488
 20
8.2163300735
 30
0.0
 40
0.35
100
AcDbArc
 50
65.0
 51
-115.0
  0
ARC
  5
1AB
102
{ACAD_REACTORS
330
1AC
102
}
100
AcDbEntity
  8
X_ROLLOVER
370
        25
  6
Continuous
 62
        27
100
AcDbCircle
 10
1.8219674294
 20
7.5824026809
 30
0.0
 40
0.35
100
AcDbArc
 50
-115.0
 51
65.0
  0
CIRCLE
  5
1AE
100
AcDbEntity
  8
X_ROLLOVER
370
        25
  6
Continuous
 62
        27
100
AcDbCircle
 10
1.8219674294
 20
7.5824026809
 30
0.0
 40
0.35
  0
CIRCLE
  5
1AF
102
{ACAD_REACTORS
330
1B1
102
}
100
AcDbEntity
  8
0
370
        25
  6
Continuous
 62
        47
100
AcDbCircle
 10
1.8219674294
 20
7.5824026809
 30
0.0
 40
0.4
  0
CIRCLE
  5
1B0
102
{ACAD_REACTORS
330
1B1
102
}
100
AcDbEntity
  8
0
370
        25
  6
Continuous
 62
        47
100
AcDbCircle
 10
1.8219674294
 20
7.5824026809
 30
0.0
 40
0.215
  0
CIRCLE
  5
1B2
100
AcDbEntity
  8
6_125BIT_500DEP
370
        25
  6
Continuous
 62
         5
100
AcDbCircle
 10
1.8219674294
 20
7.5824026809
 30
0.0
 40
0.0825
  0
CIRCLE
  5
1B3
100
AcDbEntity
  8
3_250BIT_500TAB
370
        25
  6
Continuous
 62
         5
100
AcDbCircle
 10
1.1422365891
 20
7.8993663772
 30
0.0
 40
0.25
  0
CIRCLE
  5
1B4
100
AcDbEntity
  8
X_DROPS
370
         5
  6
Continuous
 62
         5
100
AcDbCircle
 10
3.1750057488
 20
13.9145326096
 30
0.0
 40
0.4281496063
  0
CIRCLE
  5
1B5
100
AcDbEntity
  8
X_DROPS
370
         5
  6
Continuous
 62
         5
100
AcDbCircle
 10
1.1250057488
 20
13.9145326096
 30
0.0
 40
0.4281496063
  0
CIRCLE
  5
1B6
100
AcDbEntity
  8
X_DROPS
370
         5
  6
Continuous
 62
         5
100
AcDbCircle
 10
6.4541978551
 20
14.0362431901
 30
0.0
 40
0.4281496063
  0
CIRCLE
  5
1B7
100
AcDbEntity
  8
X_SMPOSTS
370
        25
  6
Continuous
 62
         3
100
AcDbCircle
 10
6.4541978551
 20
14.0362431901
 30
0.0
 40
0.5110787402
  0
CIRCLE
  5
1B8
100
AcDbEntity
  8
X_SMPOSTS
370
        25
  6
Continuous
 62
         3
100
AcDbCircle
 10
3.1750057488
 20
13.9145326096
 30
0.0
 40
0.5110787402
  0
LINE
  5
1B9
100
AcDbEntity
  8
0
370
         5
  6
Continuous
 62
        47
100
AcDbLine
 10
3.8000057488
 20
13.5629425735
 30
0.0
 11
3.8000057488
 21
11.4379425735
 31
0.0
  0
LINE
  5
1BA
100
AcDbEntity
  8
0
370
         5
  6
Continuous
 62
        47
100
AcDbLine
 10
3.9873513334
 20
11.4062708253
 30
0.0
 11
3.9850057488
 21
13.5629425735
 31
0.0
  0
LINE
  5
1BB
100
AcDbEntity
  8
6_125BIT_500DEP
370
        25
  6
Continuous
 62
         5
100
AcDbLine
 10
3.2650057488
 20
12.8134538694
 30
0.0
 11
3.2650057488
 21
11.1134538694
 31
0.0
  0
CIRCLE
  5
1BC
100
AcDbEntity
  8
X_ROLLOVER
370
        25
  6
Continuous
 62
        27
100
AcDbCircle
 10
4.2000057488
 20
13.5629425735
 30
0.0
 40
0.075
  0
CIRCLE
  5
1BD
100
AcDbEntity
  8
6_125BIT_500DEP
370
        25
  6
Continuous
 62
         5
100
AcDbCircle
 10
4.2000057488
 20
13.5629425735
 30
0.0
 40
0.0825
  0
ARC
  5
1BE
102
{ACAD_REACTORS
330
1C2
102
}
100
AcDbEntity
  8
3_250BIT_500TAB
370
        25
  6
Continuous
 62
         5
100
AcDbCircle
 10
4.2444294938
 20
12.1284187565
 30
0.0
 40
0.2500098235
100
AcDbArc
 50
136.5853470532
 51
-41.9780670285
  0
ARC
  5
1BF
102
{ACAD_REACTORS
330
1C2
102
}
100
AcDbEntity
  8
3_250BIT_500TAB
370
        25
  6
Continuous
 62
         5
100
AcDbCircle
 10
4.670413031
 20
12.5843723935
 30
0.0
 40
0.2460983854
100
AcDbArc
 50
-42.6963599876
 51
135.867054094
  0
LINE
  5
1C0
102
{ACAD_REACTORS
330
1C2
102
}
100
AcDbEntity
  8
3_250BIT_500TAB
370
        25
  6
Continuous
 62
         5
100
AcDbLine
 10
4.8512849287
 20
12.4174898842
 30
0.0
 11
4.4281617773
 21
11.9588972631
 31
0.0
  0
LINE
  5
1C1
102
{ACAD_REACTORS
330
1C2
102
}
100
AcDbEntity
  8
3_250BIT_500TAB
370
        25
  6
Continuous
 62
         5
100
AcDbLine
 10
4.0628226255
 20
12.3002438339
 30
0.0
 11
4.4937818166
 21
12.7557370029
 31
0.0
  0
CIRCLE
  5
1C3
100
AcDbEntity
  8
X_ROLLOVER
370
        25
  6
Continuous
 62
        27
100
AcDbCircle
 10
4.2000057488
 20
11.4379425735
 30
0.0
 40
0.075
  0
CIRCLE
  5
1C4
100
AcDbEntity
  8
6_125BIT_500DEP
370
        25
  6
Continuous
 62
         5
100
AcDbCircle
 10
4.2000057488
 20
11.4379425735
 30
0.0
 40
0.0825
  0
ENDSEC
  0
SECTION
  2
OBJECTS
  0
DICTIONARY
  5
19
100
AcDbDictionary
280
         0
281
         1
  3
ACAD_GROUP
350
1A
  3
ACAD_MLINESTYLE
350
1B
  3
ACAD_LAYOUT
350
1E
  3
ACAD_PLOTSETTINGS
350
22
  3
ACAD_PLOTSTYLENAME
350
1F
  3
ACAD_WIPEOUT_VARS
350
23
  0
DICTIONARY
  5
1A
102
{ACAD_REACTORS
330
19
102
}
100
AcDbDictionary
280
         0
281
         1
  3
VELLUMGRP1
350
5E
  3
VELLUMGRP2
350
6A
  3
VELLUMGRP3
350
78
  3
VELLUMGRP4
350
83
  3
VELLUMGRP5
350
84
  3
VELLUMGRP6
350
88
  3
VELLUMGRP7
350
97
  3
VELLUMGRP8
350
9D
  3
VELLUMGRP9
350
A9
  3
VELLUMGRP10
350
B2
  3
VELLUMGRP11
350
BE
  3
VELLUMGRP12
350
C5
  3
VELLUMGRP13
350
ED
  3
VELLUMGRP14
350
FB
  3
VELLUMGRP15
350
121
  3
VELLUMGRP16
350
132
  3
VELLUMGRP17
350
136
  3
VELLUMGRP18
350
14A
  3
VELLUMGRP19
350
157
  3
VELLUMGRP20
350
165
  3
VELLUMGRP21
350
175
  3
VELLUMGRP22
350
178
  3
VELLUMGRP23
350
189
  3
VELLUMGRP24
350
18C
  3
VELLUMGRP25
350
19C
  3
VELLUMGRP26
350
1AC
  3
VELLUMGRP27
350
1AD
  3
VELLUMGRP28
350
1B1
  3
VELLUMGRP29
350
1C2
  0
DICTIONARY
  5
1B
102
{ACAD_REACTORS
330
19
102
}
100
AcDbDictionary
280
         0
281
         1
  3
Standard
350
1C
  0
MLINESTYLE
  5
1C
102
{ACAD_REACTORS
330
1B
102
}
100
AcDbMlineStyle
  2
Standard
 70
         0
  3

 62
         0
 51
90.0
 52
90.0
 71
         2
 49
0.5
 62
       256
  6
BYLAYER
 49
-0.5
 62
       256
  6
BYLAYER
  0
ACDBDICTIONARYWDFLT
  5
1F
102
{ACAD_REACTORS
330
19
102
}
100
AcDbDictionary
281
         1
  3
Normal
350
1D
100
AcDbDictionaryWithDefault
340
1D
  0
ACDBPLACEHOLDER
  5
1D
102
{ACAD_REACTORS
330
1F
102
}
  0
LAYOUT
  5
20
102
{ACAD_REACTORS
330
1E
102
}
100
AcDbPlotSettings
  1

  2

  4

  6

 40
0.0
 41
0.0
 42
0.0
 43
0.0
 44
0.0
 45
0.0
 46
0.0
 47
0.0
 48
0.0
 49
0.0
140
0.0
141
0.0
142
1.0
143
1.0
 70
      1024
 72
         0
 73
         0
 74
         0
  7

 75
         0
147
1.0
148
0.0
149
0.0
100
AcDbLayout
  1
Model
 70
         0
 71
         0
 10
0.0
 20
0.0
 11
0.0
 21
0.0
 12
0.0
 22
0.0
 32
0.0
 14
0.0
 24
0.0
 34
0.0
 15
0.0
 25
0.0
 35
0.0
146
0.0
 13
0.0
 23
0.0
 33
0.0
 16
0.0
 26
0.0
 36
0.0
 17
0.0
 27
0.0
 37
0.0
 76
         0
330
A
331
0
345
0
346
0
  0
LAYOUT
  5
21
102
{ACAD_REACTORS
330
1E
102
}
100
AcDbPlotSettings
  1

  2

  4

  6

 40
0.0
 41
0.0
 42
0.0
 43
0.0
 44
0.0
 45
0.0
 46
0.0
 47
0.0
 48
0.0
 49
0.0
140
0.0
141
0.0
142
1.0
143
1.0
 70
         0
 72
         0
 73
         0
 74
         0
  7

 75
         0
147
1.0
148
0.0
149
0.0
100
AcDbLayout
  1
Layout1
 70
         0
 71
         0
 10
0.0
 20
0.0
 11
0.0
 21
0.0
 12
0.0
 22
0.0
 32
0.0
 14
0.0
 24
0.0
 34
0.0
 15
0.0
 25
0.0
 35
0.0
146
0.0
 13
0.0
 23
0.0
 33
0.0
 16
0.0
 26
0.0
 36
0.0
 17
0.0
 27
0.0
 37
0.0
 76
         0
330
B
331
0
345
0
346
0
  0
DICTIONARY
  5
1E
102
{ACAD_REACTORS
330
19
102
}
100
AcDbDictionary
280
         0
281
         1
  3
Layout1
350
21
  3
Model
350
20
  0
DICTIONARY
  5
22
102
{ACAD_REACTORS
330
19
102
}
100
AcDbDictionary
280
         0
281
         1
  0
WIPEOUTVARIABLES
  5
23
100
AcDbWipeoutVariables
 70
         1
  0
GROUP
  5
5E
102
{ACAD_XDICTIONARY
360
5CEB210060EB2100
102
}
102
{ACAD_REACTORS
330
1A
102
}
100
AcDbGroup
300
This is Vellum Group Number 1
 70
         0
 71
         1
340
5C
340
5D
  0
GROUP
  5
6A
102
{ACAD_XDICTIONARY
360
3207917C60EB2100
102
}
102
{ACAD_REACTORS
330
1A
102
}
100
AcDbGroup
300
This is Vellum Group Number 2
 70
         0
 71
         1
340
5F
340
60
340
61
340
62
340
63
340
64
340
65
340
66
340
67
340
68
340
69
  0
GROUP
  5
78
102
{ACAD_XDICTIONARY
360
3207917C60EB2100
102
}
102
{ACAD_REACTORS
330
1A
102
}
100
AcDbGroup
300
This is Vellum Group Number 3
 70
         0
 71
         1
340
6D
340
6E
340
6F
340
70
340
71
340
72
340
73
340
74
340
75
340
76
340
77
  0
GROUP
  5
83
102
{ACAD_XDICTIONARY
360
3207917C6CEA2100
102
}
102
{ACAD_REACTORS
330
1A
102
}
100
AcDbGroup
300
This is Vellum Group Number 4
 70
         0
 71
         1
340
7B
340
7C
340
7D
340
7E
340
7F
340
80
340
81
340
82
  0
GROUP
  5
84
102
{ACAD_XDICTIONARY
360
3207917C60EB2100
102
}
102
{ACAD_REACTORS
330
1A
102
}
100
AcDbGroup
300
This is Vellum Group Number 5
 70
         0
 71
         1
340
79
340
7A
340
7A
  0
GROUP
  5
88
102
{ACAD_XDICTIONARY
360
3207917C60EB2100
102
}
102
{ACAD_REACTORS
330
1A
102
}
100
AcDbGroup
300
This is Vellum Group Number 6
 70
         0
 71
         1
340
86
340
87
  0
GROUP
  5
97
102
{ACAD_XDICTIONARY
360
3207917C60EB2100
102
}
102
{ACAD_REACTORS
330
1A
102
}
100
AcDbGroup
300
This is Vellum Group Number 7
 70
         0
 71
         1
340
8D
340
8E
340
8F
340
90
340
91
340
92
340
93
340
94
340
95
340
96
  0
GROUP
  5
9D
102
{ACAD_XDICTIONARY
360
3207917C60EB2100
102
}
102
{ACAD_REACTORS
330
1A
102
}
100
AcDbGroup
300
This is Vellum Group Number 8
 70
         0
 71
         1
340
9B
340
9C
  0
GROUP
  5
A9
102
{ACAD_XDICTIONARY
360
3207917C60EB2100
102
}
102
{ACAD_REACTORS
330
1A
102
}
100
AcDbGroup
300
This is Vellum Group Number 9
 70
         0
 71
         1
340
9E
340
9F
340
A0
340
A1
340
A2
340
A3
340
A4
340
A5
340
A6
340
A7
340
A8
  0
GROUP
  5
B2
102
{ACAD_XDICTIONARY
360
3207917C60EB2100
102
}
102
{ACAD_REACTORS
330
1A
102
}
100
AcDbGroup
300
This is Vellum Group Number 10
 70
         0
 71
         1
340
AA
340
AB
340
AC
340
AD
340
AE
340
AF
340
B0
340
B1
  0
GROUP
  5
BE
102
{ACAD_XDICTIONARY
360
3207917C60EB2100
102
}
102
{ACAD_REACTORS
330
1A
102
}
100
AcDbGroup
300
This is Vellum Group Number 11
 70
         0
 71
         1
340
B3
340
B4
340
B5
340
B6
340
B7
340
B8
340
B9
340
BA
340
BB
340
BC
340
BD
  0
GROUP
  5
C5
102
{ACAD_XDICTIONARY
360
3207917C60EB2100
102
}
102
{ACAD_REACTORS
330
1A
102
}
100
AcDbGroup
300
This is Vellum Group Number 12
 70
         0
 71
         1
340
C3
340
C4
  0
GROUP
  5
ED
102
{ACAD_XDICTIONARY
360
3207917C60EB2100
102
}
102
{ACAD_REACTORS
330
1A
102
}
100
AcDbGroup
300
This is Vellum Group Number 13
 70
         0
 71
         1
340
C6
340
C7
340
C8
340
C9
340
CA
340
CB
340
CC
340
CD
340
CE
340
CF
340
D0
340
D1
340
D2
340
D3
340
D4
340
D5
340
D6
340
D7
340
D8
340
D9
340
DA
340
DB
340
DC
340
DD
340
DE
340
DF
340
E0
340
E1
340
E2
340
E3
340
E4
340
E5
340
E6
340
E7
340
E8
340
E9
340
EA
340
EB
340
EC
  0
GROUP
  5
FB
102
{ACAD_XDICTIONARY
360
3207917C60EB2100
102
}
102
{ACAD_REACTORS
330
1A
102
}
100
AcDbGroup
300
This is Vellum Group Number 14
 70
         0
 71
         1
340
EE
340
EF
340
F0
340
F1
340
F2
340
F3
340
F4
340
F5
340
F6
340
F7
340
F8
340
F9
340
FA
  0
GROUP
  5
121
102
{ACAD_XDICTIONARY
360
3207917C60EB2100
102
}
102
{ACAD_REACTORS
330
1A
102
}
100
AcDbGroup
300
This is Vellum Group Number 15
 70
         0
 71
         1
340
FD
340
FE
340
FF
340
100
340
101
340
102
340
103
340
104
340
105
340
106
340
107
340
108
340
109
340
10A
340
10B
340
10C
340
10D
340
10E
340
10F
340
110
340
111
340
112
340
113
340
114
340
115
340
116
340
117
340
118
340
119
340
11A
340
11B
340
11C
340
11D
340
11E
340
11F
340
120
  0
GROUP
  5
132
102
{ACAD_XDICTIONARY
360
3207917C60EB2100
102
}
102
{ACAD_REACTORS
330
1A
102
}
100
AcDbGroup
300
This is Vellum Group Number 16
 70
         0
 71
         1
340
127
340
128
340
129
340
12A
340
12B
340
12C
340
12D
340
12E
340
12F
340
130
340
131
  0
GROUP
  5
136
102
{ACAD_XDICTIONARY
360
3207917C60EB2100
102
}
102
{ACAD_REACTORS
330
1A
102
}
100
AcDbGroup
300
This is Vellum Group Number 17
 70
         0
 71
         1
340
134
340
135
  0
GROUP
  5
14A
102
{ACAD_XDICTIONARY
360
3207917C60EB2100
102
}
102
{ACAD_REACTORS
330
1A
102
}
100
AcDbGroup
300
This is Vellum Group Number 18
 70
         0
 71
         1
340
13F
340
140
340
141
340
142
340
143
340
144
340
145
340
146
340
147
340
148
340
149
  0
GROUP
  5
157
102
{ACAD_XDICTIONARY
360
3207917C60EB2100
102
}
102
{ACAD_REACTORS
330
1A
102
}
100
AcDbGroup
300
This is Vellum Group Number 19
 70
         0
 71
         1
340
153
340
154
340
155
340
156
  0
GROUP
  5
165
102
{ACAD_XDICTIONARY
360
3207917C60EB2100
102
}
102
{ACAD_REACTORS
330
1A
102
}
100
AcDbGroup
300
This is Vellum Group Number 20
 70
         0
 71
         1
340
163
340
164
  0
GROUP
  5
175
102
{ACAD_XDICTIONARY
360
3207917C60EB2100
102
}
102
{ACAD_REACTORS
330
1A
102
}
100
AcDbGroup
300
This is Vellum Group Number 21
 70
         0
 71
         1
340
16A
340
16B
340
16C
340
16D
340
16E
340
16F
340
170
340
171
340
172
340
173
340
174
  0
GROUP
  5
178
102
{ACAD_XDICTIONARY
360
3207917C60EB2100
102
}
102
{ACAD_REACTORS
330
1A
102
}
100
AcDbGroup
300
This is Vellum Group Number 22
 70
         0
 71
         1
340
176
340
177
  0
GROUP
  5
189
102
{ACAD_XDICTIONARY
360
3207917C60EB2100
102
}
102
{ACAD_REACTORS
330
1A
102
}
100
AcDbGroup
300
This is Vellum Group Number 23
 70
         0
 71
         1
340
17E
340
17F
340
180
340
181
340
182
340
183
340
184
340
185
340
186
340
187
340
188
  0
GROUP
  5
18C
102
{ACAD_XDICTIONARY
360
3207917C60EB2100
102
}
102
{ACAD_REACTORS
330
1A
102
}
100
AcDbGroup
300
This is Vellum Group Number 24
 70
         0
 71
         1
340
18A
340
18B
  0
GROUP
  5
19C
102
{ACAD_XDICTIONARY
360
3207917C60EB2100
102
}
102
{ACAD_REACTORS
330
1A
102
}
100
AcDbGroup
300
This is Vellum Group Number 25
 70
         0
 71
         1
340
191
340
192
340
193
340
194
340
195
340
196
340
197
340
198
340
199
340
19A
340
19B
  0
GROUP
  5
1AC
102
{ACAD_XDICTIONARY
360
3207917C6CEA2100
102
}
102
{ACAD_REACTORS
330
1A
102
}
100
AcDbGroup
300
This is Vellum Group Number 26
 70
         0
 71
         1
340
1A4
340
1A5
340
1A6
340
1A7
340
1A8
340
1A9
340
1AA
340
1AB
  0
GROUP
  5
1AD
102
{ACAD_XDICTIONARY
360
3207917C60EB2100
102
}
102
{ACAD_REACTORS
330
1A
102
}
100
AcDbGroup
300
This is Vellum Group Number 27
 70
         0
 71
         1
340
1A2
340
1A3
340
1A3
  0
GROUP
  5
1B1
102
{ACAD_XDICTIONARY
360
3207917C60EB2100
102
}
102
{ACAD_REACTORS
330
1A
102
}
100
AcDbGroup
300
This is Vellum Group Number 28
 70
         0
 71
         1
340
1AF
340
1B0
  0
GROUP
  5
1C2
102
{ACAD_XDICTIONARY
360
3207917C60EB2100
102
}
102
{ACAD_REACTORS
330
1A
102
}
100
AcDbGroup
300
This is Vellum Group Number 29
 70
         0
 71
         1
340
1BE
340
1BF
340
1C0
340
1C1
  0
ENDSEC
  0
EOF
