  0
SECTION
  2
HEADER
  9
$ACADVER
  1
AC1015
  9
$ACADMAINTVER
 70
         6
  9
$DWGCODEPAGE
  3
ANSI_1252
  9
$INSBASE
 10
0.0
 20
0.0
 30
0.0
  9
$EXTMIN
 10
-0.93969262
 20
-0.98480775
 30
0.0
  9
$EXTMAX
 10
13.0
 20
12.98480775
 30
0.0
  9
$LIMMIN
 10
0.0
 20
0.0
  9
$LIMMAX
 10
0.0
 20
0.0
  9
$ORTHOMODE
 70
         0
  9
$REGENMODE
 70
         1
  9
$FILLMODE
 70
         1
  9
$QTEXTMODE
 70
         0
  9
$MIRRTEXT
 70
         1
  9
$LTSCALE
 40
5.0
  9
$ATTMODE
 70
         1
  9
$TEXTSIZE
 40
0.2
  9
$TRACEWID
 40
0.05
  9
$TEXTSTYLE
  7
Standard
  9
$CLAYER
  8
0
  9
$CELTYPE
  6
Continuous
  9
$CECOLOR
 62
       256
  9
$CELTSCALE
 40
1.0
  9
$DISPSILH
 70
         0
  9
$DIMSCALE
 40
1.0
  9
$DIMASZ
 40
0.18
  9
$DIMEXO
 40
0.0625
  9
$DIMDLI
 40
0.38
  9
$DIMRND
 40
0.0
  9
$DIMDLE
 40
0.0
  9
$DIMEXE
 40
0.18
  9
$DIMTP
 40
0.0
  9
$DIMTM
 40
0.0
  9
$DIMTXT
 40
0.18
  9
$DIMCEN
 40
0.09
  9
$DIMTSZ
 40
0.0
  9
$DIMTOL
 70
         0
  9
$DIMLIM
 70
         0
  9
$DIMTIH
 70
         1
  9
$DIMTOH
 70
         1
  9
$DIMSE1
 70
         0
  9
$DIMSE2
 70
         0
  9
$DIMTAD
 70
         0
  9
$DIMZIN
 70
         0
  9
$DIMBLK
  1

  9
$DIMASO
 70
         1
  9
$DIMSHO
 70
         1
  9
$DIMPOST
  1

  9
$DIMAPOST
  1

  9
$DIMALT
 70
         0
  9
$DIMALTD
 70
         2
  9
$DIMALTF
 40
25.4
  9
$DIMLFAC
 40
1.0
  9
$DIMTOFL
 70
         0
  9
$DIMTVP
 40
0.0
  9
$DIMTIX
 70
         0
  9
$DIMSOXD
 70
         0
  9
$DIMSAH
 70
         0
  9
$DIMBLK1
  1

  9
$DIMBLK2
  1

  9
$DIMSTYLE
  2
Standard
  9
$DIMCLRD
 70
         0
  9
$DIMCLRE
 70
         0
  9
$DIMCLRT
 70
         0
  9
$DIMTFAC
 40
1.0
  9
$DIMGAP
 40
0.09
  9
$DIMJUST
 70
         0
  9
$DIMSD1
 70
         0
  9
$DIMSD2
 70
         0
  9
$DIMTOLJ
 70
         1
  9
$DIMTZIN
 70
         0
  9
$DIMALTZ
 70
         0
  9
$DIMALTTZ
 70
         0
  9
$DIMUPT
 70
         0
  9
$DIMDEC
 70
         4
  9
$DIMTDEC
 70
         4
  9
$DIMALTU
 70
         2
  9
$DIMALTTD
 70
         2
  9
$DIMTXSTY
  7
Standard
  9
$DIMAUNIT
 70
         0
  9
$DIMADEC
 70
         0
  9
$DIMALTRND
 40
0.0
  9
$DIMAZIN
 70
         0
  9
$DIMDSEP
 70
         0
  9
$DIMATFIT
 70
         3
  9
$DIMFRAC
 70
         0
  9
$DIMLDRBLK
  1

  9
$DIMLUNIT
 70
         2
  9
$DIMLWD
 70
         0
  9
$DIMLWE
 70
         0
  9
$DIMTMOVE
 70
         0
  9
$LUNITS
 70
         2
  9
$LUPREC
 70
         4
  9
$SKETCHINC
 40
0.1
  9
$FILLETRAD
 40
0.0
  9
$AUNITS
 70
         0
  9
$AUPREC
 70
         0
  9
$MENU
  1
acad
  9
$ELEVATION
 40
0.0
  9
$PELEVATION
 40
0.0
  9
$THICKNESS
 40
0.0
  9
$LIMCHECK
 70
         0
  9
$CHAMFERA
 40
0.0
  9
$CHAMFERB
 40
0.0
  9
$CHAMFERC
 40
0.0
  9
$CHAMFERD
 40
0.0
  9
$SKPOLY
 70
         0
  9
$TDCREATE
 40
2460904.921759259
  9
$TDUCREATE
 40
0.000000000
  9
$TDUPDATE
 40
2460904.921759259
  9
$TDUUPDATE
 40
0.000000000
  9
$TDINDWG
 40
0.0000000000
  9
$TDUSRTIMER
 40
0.0000000000
  9
$USRTIMER
 70
         1
  9
$ANGBASE
 50
0.0
  9
$ANGDIR
 70
         0
  9
$PDMODE
 70
         0
  9
$PDSIZE
 40
0.0
  9
$PLINEWID
 40
0.0
  9
$SPLFRAME
 70
         0
  9
$SPLINETYPE
 70
         6
  9
$SPLINESEGS
 70
         8
  9
$HANDSEED
  5
1A7
  9
$SURFTAB1
 70
         6
  9
$SURFTAB2
 70
         6
  9
$SURFTYPE
 70
         6
  9
$SURFU
 70
         6
  9
$SURFV
 70
         6
  9
$UCSBASE
  2

  9
$UCSNAME
  2

  9
$UCSORG
 10
0.0
 20
0.0
 30
0.0
  9
$UCSXDIR
 10
1.0
 20
0.0
 30
0.0
  9
$UCSYDIR
 10
0.0
 20
1.0
 30
0.0
  9
$UCSORTHOREF
  2

  9
$UCSORTHOVIEW
 70
         0
  9
$UCSORGTOP
 10
0.0
 20
0.0
 30
0.0
  9
$UCSORGBOTTOM
 10
0.0
 20
0.0
 30
0.0
  9
$UCSORGLEFT
 10
0.0
 20
0.0
 30
0.0
  9
$UCSORGRIGHT
 10
0.0
 20
0.0
 30
0.0
  9
$UCSORGFRONT
 10
0.0
 20
0.0
 30
0.0
  9
$UCSORGBACK
 10
0.0
 20
0.0
 30
0.0
  9
$PUCSBASE
  2

  9
$PUCSNAME
  2

  9
$PUCSORG
 10
0.0
 20
0.0
 30
0.0
  9
$PUCSXDIR
 10
1.0
 20
0.0
 30
0.0
  9
$PUCSYDIR
 10
0.0
 20
1.0
 30
0.0
  9
$PUCSORTHOREF
  2

  9
$PUCSORTHOVIEW
 70
         0
  9
$PUCSORGTOP
 10
0.0
 20
0.0
 30
0.0
  9
$PUCSORGBOTTOM
 10
0.0
 20
0.0
 30
0.0
  9
$PUCSORGLEFT
 10
0.0
 20
0.0
 30
0.0
  9
$PUCSORGRIGHT
 10
0.0
 20
0.0
 30
0.0
  9
$PUCSORGFRONT
 10
0.0
 20
0.0
 30
0.0
  9
$PUCSORGBACK
 10
0.0
 20
0.0
 30
0.0
  9
$USERI1
 70
         0
  9
$USERI2
 70
         0
  9
$USERI3
 70
         0
  9
$USERI4
 70
         0
  9
$USERI5
 70
         0
  9
$USERR1
 40
0.0
  9
$USERR2
 40
0.0
  9
$USERR3
 40
0.0
  9
$USERR4
 40
0.0
  9
$USERR5
 40
0.0
  9
$WORLDVIEW
 70
         1
  9
$SHADEDGE
 70
         3
  9
$SHADEDIF
 70
        70
  9
$TILEMODE
 70
         1
  9
$MAXACTVP
 70
        16
  9
$PINSBASE
 10
0.0
 20
0.0
 30
0.0
  9
$PLIMCHECK
 70
         0
  9
$PEXTMIN
 10
1.0000000000E+20
 20
1.0000000000E+20
 30
1.0000000000E+20
  9
$PEXTMAX
 10
-1.0000000000E+20
 20
-1.0000000000E+20
 30
-1.0000000000E+20
  9
$PLIMMIN
 10
0.0
 20
0.0
  9
$PLIMMAX
 10
12.0
 20
9.0
  9
$UNITMODE
 70
         0
  9
$VISRETAIN
 70
         0
  9
$PLINEGEN
 70
         1
  9
$PSLTSCALE
 70
         0
  9
$TREEDEPTH
 70
      3020
  9
$CMLSTYLE
  2
Standard
  9
$CMLJUST
 70
         0
  9
$CMLSCALE
 40
1.0
  9
$PROXYGRAPHICS
 70
         0
  9
$MEASUREMENT
 70
         0
  9
$CELWEIGHT
370
         0
  9
$ENDCAPS
280
         0
  9
$JOINSTYLE
280
         0
  9
$LWDISPLAY
290
         0
  9
$INSUNITS
 70
         0
  9
$HYPERLINKBASE
  1

  9
$XEDIT
290
         1
  9
$CEPSNTYPE
380
         0
  9
$PSTYLEMODE
290
         1
  9
$FINGERPRINTGUID
  2

  9
$VERSIONGUID
  2

  9
$EXTNAMES
290
         1
  9
$PSVPSCALE
 40
0.0
  0
ENDSEC
  0
SECTION
  2
CLASSES
  0
CLASS
  1
LWPOLYLINE
  2
AcDbPolyline
  3
AutoCAD 2000
 90
    32768
280
         0
281
         1
  0
CLASS
  1
IMAGE
  2
AcDbRasterImage
  3
ISM
 90
    32895
280
         0
281
         1
  0
CLASS
  1
OLE2FRAME
  2
AcDbOle2Frame
  3
AutoCAD 2000
 90
    32768
280
         0
281
         1
  0
CLASS
  1
HATCH
  2
AcDbHatch
  3
AutoCAD 2000
 90
    32768
280
         0
281
         1
  0
CLASS
  1
DICTIONARYVAR
  2
AcDbDictionaryVar
  3
AutoCAD 2000
 90
    32768
280
         0
281
         0
  0
CLASS
  1
RASTERVARIABLES
  2
AcDbRasterVariables
  3
ISM
 90
    32768
280
         0
281
         0
  0
CLASS
  1
IMAGEDEF
  2
AcDbRasterImageDef
  3
ISM
 90
    32768
280
         0
281
         0
  0
CLASS
  1
IMAGEDEF_REACTOR
  2
AcDbRasterImageDefReactor
  3
ISM
 90
    32769
280
         0
281
         0
  0
CLASS
  1
IDBUFFER
  2
AcDbIdBuffer
  3
AutoCAD 2000
 90
    32768
280
         0
281
         0
  0
CLASS
  1
SPATIAL_FILTER
  2
AcDbSpatialFilter
  3
AutoCAD 2000
 90
    32768
280
         0
281
         0
  0
CLASS
  1
XRECORD
  2
AcDbXrecord
  3
AutoCAD 2000
 90
    32768
280
         0
281
         0
  0
CLASS
  1
SORTENTSTABLE
  2
AcDbSortentsTable
  3
AutoCAD 2000
 90
    32768
280
         0
281
         0
  0
CLASS
  1
LAYER_INDEX
  2
AcDbLayerIndex
  3
AutoCAD 2000
 90
    32768
280
         0
281
         0
  0
CLASS
  1
SPATIAL_INDEX
  2
AcDbSpatialIndex
  3
AutoCAD 2000
 90
    32768
280
         0
281
         0
  0
CLASS
  1
OBJECT_PTR
  2
CAseDLPNTableRecord
  3
"ASE-LPNTableRecord"
 90
    32769
280
         0
281
         0
  0
CLASS
  1
LAYOUT
  2
AcDbLayout
  3
AutoCAD 2000
 90
        0
280
         0
281
         0
  0
CLASS
  1
PLOTSETTINGS
  2
AcDbPlotSettings
  3
AutoCAD 2000
 90
    32768
280
         0
281
         0
  0
CLASS
  1
ACDBDICTIONARYWDFLT
  2
AcDbDictionaryWithDefault
  3
AutoCAD 2000
 90
        0
280
         0
281
         0
  0
CLASS
  1
ACDBPLACEHOLDER
  2
AcDbPlaceHolder
  3
AutoCAD 2000
 90
        0
280
         0
281
         0
  0
CLASS
  1
VBA_PROJECT
  2
AcDbVbaProject
  3
acadvba
 90
    32768
280
         0
281
         0
  0
CLASS
  1
WIPEOUT
  2
AcDbWipeout
  3
WipeOut|AutoCAD Express Tool|expresstools@autodesk.com
 90
    32895
280
         0
281
         1
  0
CLASS
  1
WIPEOUTVARIABLES
  2
AcDbWipeoutVariables
  3
WipeOut|AutoCAD Express Tool|expresstools@autodesk.com
 90
        0
280
         0
281
         0
  0
CLASS
  1
RTEXT
  2
RText
  3
RText|AutoCAD Express Tool|expresstools@autodesk.com
 90
    32768
280
         0
281
         1
  0
CLASS
  1
ARCALIGNEDTEXT
  2
AcDbArcAlignedText
  3
ATEXT|AutoCAD Express Tool|expresstools@autodesk.com
 90
    32768
280
         0
281
         1
  0
ENDSEC
  0
SECTION
  2
TABLES
  0
TABLE
  2
VPORT
  5
7
100
AcDbSymbolTable
 70
         1
  0
VPORT
  5
15
100
AcDbSymbolTableRecord
100
AcDbViewportTableRecord
  2
*ACTIVE
 70
         0
 10
0.0
 20
0.0
 11
1.0
 21
1.0
 12
6.591288
 22
4.579184
 13
0.0
 23
0.0
 14
1.0
 24
1.0
 15
0.0
 25
0.0
 16
0.0
 26
0.0
 36
1.0
 17
0.0
 27
0.0
 37
0.0
 40
9.158369
 41
0.688564
 42
50.0
 43
0.0
 44
0.0
 50
0.0
 51
0.0
 71
         0
 72
       100
 73
         1
 74
         1
 75
         0
 76
         0
 77
         0
 78
         0
281
         0
 65
         0
110
0.0
120
0.0
130
0.0
111
1.0
121
0.0
131
0.0
112
0.0
122
1.0
132
0.0
345
0
346
0
 79
         0
146
0.0
  0
ENDTAB
  0
TABLE
  2
LTYPE
  5
4
100
AcDbSymbolTable
 70
        13
  0
LTYPE
  5
11
100
AcDbSymbolTableRecord
100
AcDbLinetypeTableRecord
  2
ByBlock
 70
        64
  3

 72
        65
 73
         0
 40
0.0
  0
LTYPE
  5
12
100
AcDbSymbolTableRecord
100
AcDbLinetypeTableRecord
  2
ByLayer
 70
        64
  3

 72
        65
 73
         0
 40
0.0
  0
LTYPE
  5
13
100
AcDbSymbolTableRecord
100
AcDbLinetypeTableRecord
  2
Continuous
 70
        64
  3
Solid line
 72
        65
 73
         0
 40
0.0
  0
LTYPE
  5
25
100
AcDbSymbolTableRecord
100
AcDbLinetypeTableRecord
  2
Dotted
 70
        64
  3
Dotted
 72
        65
 73
         2
 40
0.125
 49
0.0
 74
         0
 49
-0.125
 74
         0
  0
LTYPE
  5
26
100
AcDbSymbolTableRecord
100
AcDbLinetypeTableRecord
  2
Center
 70
        64
  3
Center
 72
        65
 73
         4
 40
0.7699999809
 49
0.5
 74
         0
 49
-0.0724999979
 74
         0
 49
0.125
 74
         0
 49
-0.0724999979
 74
         0
  0
LTYPE
  5
27
100
AcDbSymbolTableRecord
100
AcDbLinetypeTableRecord
  2
Dashed
 70
        64
  3
Dashed
 72
        65
 73
         2
 40
0.375
 49
0.25
 74
         0
 49
-0.125
 74
         0
  0
LTYPE
  5
28
100
AcDbSymbolTableRecord
100
AcDbLinetypeTableRecord
  2
Hidden
 70
        64
  3
Hidden
 72
        65
 73
         2
 40
0.1974999905
 49
0.125
 74
         0
 49
-0.0724999979
 74
         0
  0
LTYPE
  5
29
100
AcDbSymbolTableRecord
100
AcDbLinetypeTableRecord
  2
Phantom
 70
        64
  3
Phantom
 72
        65
 73
         6
 40
0.9674999714
 49
0.5
 74
         0
 49
-0.0724999979
 74
         0
 49
0.125
 74
         0
 49
-0.0724999979
 74
         0
 49
0.125
 74
         0
 49
-0.0724999979
 74
         0
  0
LTYPE
  5
2A
100
AcDbSymbolTableRecord
100
AcDbLinetypeTableRecord
  2
Dashdot
 70
        64
  3
Dashdot
 72
        65
 73
         4
 40
0.6762499809
 49
0.5
 74
         0
 49
-0.0724999979
 74
         0
 49
0.03125
 74
         0
 49
-0.0724999979
 74
         0
  0
LTYPE
  5
2B
100
AcDbSymbolTableRecord
100
AcDbLinetypeTableRecord
  2
Border
 70
        64
  3
Border
 72
        65
 73
         6
 40
1.2487499714
 49
0.5
 74
         0
 49
-0.0724999979
 74
         0
 49
0.5
 74
         0
 49
-0.0724999979
 74
         0
 49
0.03125
 74
         0
 49
-0.0724999979
 74
         0
  0
LTYPE
  5
2C
100
AcDbSymbolTableRecord
100
AcDbLinetypeTableRecord
  2
Divide
 70
        64
  3
Divide
 72
        65
 73
         6
 40
0.7799999714
 49
0.5
 74
         0
 49
-0.0724999979
 74
         0
 49
0.03125
 74
         0
 49
-0.0724999979
 74
         0
 49
0.03125
 74
         0
 49
-0.0724999979
 74
         0
  0
LTYPE
  5
2D
100
AcDbSymbolTableRecord
100
AcDbLinetypeTableRecord
  2
Cutting
 70
        64
  3
Cutting
 72
        65
 73
         6
 40
1.4674999714
 49
1.0
 74
         0
 49
-0.0724999979
 74
         0
 49
0.125
 74
         0
 49
-0.0724999979
 74
         0
 49
0.125
 74
         0
 49
-0.0724999979
 74
         0
  0
LTYPE
  5
2E
100
AcDbSymbolTableRecord
100
AcDbLinetypeTableRecord
  2
Stitch
 70
        64
  3
Stitch
 72
        65
 73
         2
 40
0.1449999958
 49
0.0724999979
 74
         0
 49
-0.0724999979
 74
         0
  0
ENDTAB
  0
TABLE
  2
LAYER
  5
2
100
AcDbSymbolTable
 70
        42
  0
LAYER
  5
14
100
AcDbSymbolTableRecord
100
AcDbLayerTableRecord
  2
0
 70
         0
 62
         7
  6
Continuous
290
         1
370
        -3
390
1D
  0
LAYER
  5
2F
100
AcDbSymbolTableRecord
100
AcDbLayerTableRecord
  2
DF_COMP
 70
         0
 62
         4
  6
Continuous
290
         1
370
         2
390
1F
  0
LAYER
  5
30
100
AcDbSymbolTableRecord
100
AcDbLayerTableRecord
  2
1_250BIT_500DEP
 70
         0
 62
         5
  6
Continuous
290
         1
370
         2
390
1F
  0
LAYER
  5
31
100
AcDbSymbolTableRecord
100
AcDbLayerTableRecord
  2
2_250BIT_250DEP
 70
         0
 62
         3
  6
Continuous
290
         1
370
         2
390
1F
  0
LAYER
  5
32
100
AcDbSymbolTableRecord
100
AcDbLayerTableRecord
  2
3_250BIT_500TAB
 70
         0
 62
         5
  6
Continuous
290
         1
370
         2
390
1F
  0
LAYER
  5
33
100
AcDbSymbolTableRecord
100
AcDbLayerTableRecord
  2
4_250BIT_250TAB
 70
         0
 62
         5
  6
Continuous
290
         1
370
         2
390
1F
  0
LAYER
  5
34
100
AcDbSymbolTableRecord
100
AcDbLayerTableRecord
  2
5_250BIT_250SPEC
 70
         0
 62
         5
  6
Continuous
290
         1
370
         2
390
1F
  0
LAYER
  5
35
100
AcDbSymbolTableRecord
100
AcDbLayerTableRecord
  2
6_125BIT_500DEP
 70
         0
 62
         5
  6
Continuous
290
         1
370
         2
390
1F
  0
LAYER
  5
36
100
AcDbSymbolTableRecord
100
AcDbLayerTableRecord
  2
7_VCARVE_BIT
 70
         0
 62
         5
  6
Continuous
290
         1
370
         2
390
1F
  0
LAYER
  5
37
100
AcDbSymbolTableRecord
100
AcDbLayerTableRecord
  2
8_250BIT_500OUTLINE
 70
         0
 62
         5
  6
Continuous
290
         1
370
         2
390
1F
  0
LAYER
  5
38
100
AcDbSymbolTableRecord
100
AcDbLayerTableRecord
  2
PLASTICS
 70
         0
 62
        37
  6
Continuous
290
         1
370
         2
390
1F
  0
LAYER
  5
39
100
AcDbSymbolTableRecord
100
AcDbLayerTableRecord
  2
7A_1250BALL
 70
         0
 62
         5
  6
Continuous
290
         1
370
         2
390
1F
  0
LAYER
  5
3A
100
AcDbSymbolTableRecord
100
AcDbLayerTableRecord
  2
CONSTRUCTION
 70
         0
 62
         7
  6
Continuous
290
         1
370
         0
390
1F
  0
LAYER
  5
3B
100
AcDbSymbolTableRecord
100
AcDbLayerTableRecord
  2
0_WOOD
 70
         0
 62
         5
  6
Continuous
290
         1
370
         2
390
1F
  0
LAYER
  5
3C
100
AcDbSymbolTableRecord
100
AcDbLayerTableRecord
  2
Z_TATTOOMYSTIQUE
 70
         0
 62
        37
  6
Continuous
290
         1
370
         2
390
1F
  0
LAYER
  5
3D
100
AcDbSymbolTableRecord
100
AcDbLayerTableRecord
  2
Z_ROLLRGIRLZ
 70
         0
 62
        37
  6
Continuous
290
         1
370
         2
390
1F
  0
LAYER
  5
3E
100
AcDbSymbolTableRecord
100
AcDbLayerTableRecord
  2
Z_MISSADV
 70
         0
 62
         5
  6
Continuous
290
         1
370
         2
390
1F
  0
LAYER
  5
3F
100
AcDbSymbolTableRecord
100
AcDbLayerTableRecord
  2
Z_JUPITERCRUSH
 70
         0
 62
        37
  6
Continuous
290
         1
370
         2
390
1F
  0
LAYER
  5
40
100
AcDbSymbolTableRecord
100
AcDbLayerTableRecord
  2
Z_MODULAR
 70
         0
 62
         5
  6
Continuous
290
         1
370
         2
390
1F
  0
LAYER
  5
41
100
AcDbSymbolTableRecord
100
AcDbLayerTableRecord
  2
Z_GENERIC
 70
         0
 62
        27
  6
Continuous
290
         1
370
         2
390
1F
  0
LAYER
  5
42
100
AcDbSymbolTableRecord
100
AcDbLayerTableRecord
  2
UNASSIGNED
 70
         0
 62
         7
  6
Continuous
290
         1
370
         0
390
1F
  0
LAYER
  5
43
100
AcDbSymbolTableRecord
100
AcDbLayerTableRecord
  2
0
 70
         0
 62
        42
  6
Continuous
290
         1
370
         2
390
1F
  0
LAYER
  5
44
100
AcDbSymbolTableRecord
100
AcDbLayerTableRecord
  2
LAYER_1
 70
         0
 62
        42
  6
Continuous
290
         1
370
         2
390
1F
  0
LAYER
  5
45
100
AcDbSymbolTableRecord
100
AcDbLayerTableRecord
  2
LAYER_3
 70
         0
 62
         4
  6
Continuous
290
         1
370
         2
390
1F
  0
LAYER
  5
46
100
AcDbSymbolTableRecord
100
AcDbLayerTableRecord
  2
LAYER_2
 70
         0
 62
        42
  6
Continuous
290
         1
370
         2
390
1F
  0
LAYER
  5
47
100
AcDbSymbolTableRecord
100
AcDbLayerTableRecord
  2
X_POSTS
 70
         0
 62
         4
  6
Continuous
290
         1
370
         2
390
1F
  0
LAYER
  5
48
100
AcDbSymbolTableRecord
100
AcDbLayerTableRecord
  2
X_THUMPER
 70
         0
 62
         4
  6
Continuous
290
         1
370
         2
390
1F
  0
LAYER
  5
49
100
AcDbSymbolTableRecord
100
AcDbLayerTableRecord
  2
X_STANDUPS
 70
         0
 62
         4
  6
Continuous
290
         1
370
         2
390
1F
  0
LAYER
  5
4A
100
AcDbSymbolTableRecord
100
AcDbLayerTableRecord
  2
X_DROPS
 70
         0
 62
         4
  6
Continuous
290
         1
370
         2
390
1F
  0
LAYER
  5
4B
100
AcDbSymbolTableRecord
100
AcDbLayerTableRecord
  2
X_SMPOSTS
 70
         0
 62
         4
  6
Continuous
290
         1
370
         2
390
1F
  0
LAYER
  5
4C
100
AcDbSymbolTableRecord
100
AcDbLayerTableRecord
  2
X_ROLLOVER
 70
         0
 62
         4
  6
Continuous
290
         1
370
         2
390
1F
  0
LAYER
  5
4D
100
AcDbSymbolTableRecord
100
AcDbLayerTableRecord
  2
X_WALLS
 70
         0
 62
         4
  6
Continuous
290
         1
370
         2
390
1F
  0
LAYER
  5
4E
100
AcDbSymbolTableRecord
100
AcDbLayerTableRecord
  2
Z0_BOTCOMP
 70
         0
 62
         4
  6
Continuous
290
         1
370
         2
390
1F
  0
LAYER
  5
4F
100
AcDbSymbolTableRecord
100
AcDbLayerTableRecord
  2
Z0_TOPCOMP
 70
         0
 62
         6
  6
Continuous
290
         1
370
         2
390
1F
  0
LAYER
  5
50
100
AcDbSymbolTableRecord
100
AcDbLayerTableRecord
  2
Z0_CUT250
 70
         0
 62
         4
  6
Continuous
290
         1
370
         2
390
1F
  0
LAYER
  5
51
100
AcDbSymbolTableRecord
100
AcDbLayerTableRecord
  2
Z0_CUT500
 70
         0
 62
         4
  6
Continuous
290
         1
370
         2
390
1F
  0
LAYER
  5
52
100
AcDbSymbolTableRecord
100
AcDbLayerTableRecord
  2
Z0_PLASTICS
 70
         0
 62
        37
  6
Continuous
290
         1
370
         2
390
1F
  0
LAYER
  5
53
100
AcDbSymbolTableRecord
100
AcDbLayerTableRecord
  2
Z0_RUBBER
 70
         0
 62
         4
  6
Continuous
290
         1
370
         2
390
1F
  0
LAYER
  5
54
100
AcDbSymbolTableRecord
100
AcDbLayerTableRecord
  2
Z0_ZONES
 70
         0
 62
         6
  6
Continuous
290
         1
370
         2
390
1F
  0
LAYER
  5
55
100
AcDbSymbolTableRecord
100
AcDbLayerTableRecord
  2
Z0_WOODOUTLINE
 70
         0
 62
         5
  6
Continuous
290
         1
370
         2
390
1F
  0
LAYER
  5
56
100
AcDbSymbolTableRecord
100
AcDbLayerTableRecord
  2
Z0_LOWERTHIRD
 70
         0
 62
         4
  6
Continuous
290
         1
370
         2
390
1F
  0
LAYER
  5
57
100
AcDbSymbolTableRecord
100
AcDbLayerTableRecord
  2
PART_A
 70
         0
 62
         4
  6
Continuous
290
         1
370
         2
390
1F
  0
ENDTAB
  0
TABLE
  2
STYLE
  5
3
100
AcDbSymbolTable
 70
         2
  0
STYLE
  5
17
100
AcDbSymbolTableRecord
100
AcDbTextStyleTableRecord
  2
Standard
 70
         0
 40
0.0
 41
1.0
 50
0.0
 71
         0
 42
0.0
  3
txt
  4

  0
STYLE
  5
24
100
AcDbSymbolTableRecord
100
AcDbTextStyleTableRecord
  2
Plotter
 70
         0
 40
0.0
 41
0.98
 50
0.0
 71
         0
 42
0.0
  3
SIMPLEX
  4

  0
ENDTAB
  0
TABLE
  2
VIEW
  5
5
100
AcDbSymbolTable
 70
         0
  0
ENDTAB
  0
TABLE
  2
UCS
  5
6
100
AcDbSymbolTable
 70
         0
  0
ENDTAB
  0
TABLE
  2
APPID
  5
8
100
AcDbSymbolTable
 70
         1
  0
APPID
  5
16
100
AcDbSymbolTableRecord
100
AcDbRegAppTableRecord
  2
ACAD
 70
         0
  0
ENDTAB
  0
TABLE
  2
DIMSTYLE
  5
9
100
AcDbSymbolTable
 70
         1
100
AcDbDimStyleTable
 71
         0
  0
DIMSTYLE
105
18
100
AcDbSymbolTableRecord
100
AcDbDimStyleTableRecord
  2
Standard
 70
         0
  3

  4

 40
1.0
 41
0.18
 42
0.0625
 43
0.38
 44
0.18
 45
0.0
 46
0.0
 47
0.0
 48
0.0
 71
         0
 72
         0
 73
         1
 74
         1
 75
         0
 76
         0
 77
         0
 78
         0
 79
         0
140
0.18
141
0.09
142
0.0
143
25.4
144
1.0
145
0.0
146
1.0
147
0.09
148
0.0
170
         0
171
         2
172
         0
173
         0
174
         0
175
         0
176
         0
177
         0
178
         0
179
         0
271
         4
272
         4
273
         2
274
         2
275
         0
276
         0
277
         2
278
        46
279
         0
280
         0
281
         0
282
         0
283
         1
284
         0
285
         0
286
         0
288
         0
340
17
341
0
342
0
343
0
344
0
371
        -2
372
        -2
  0
ENDTAB
  0
TABLE
  2
BLOCK_RECORD
  5
1
100
AcDbSymbolTable
 70
         0
  0
BLOCK_RECORD
  5
A
100
AcDbSymbolTableRecord
100
AcDbBlockTableRecord
  2
*MODEL_SPACE
340
20
  0
BLOCK_RECORD
  5
B
100
AcDbSymbolTableRecord
100
AcDbBlockTableRecord
  2
*PAPER_SPACE
340
21
  0
ENDTAB
  0
ENDSEC
  0
SECTION
  2
BLOCKS
  0
BLOCK
  5
D
100
AcDbEntity
  8
0
100
AcDbBlockBegin
  2
*MODEL_SPACE
 70
         0
 10
0.0
 20
0.0
 30
0.0
  3
*MODEL_SPACE
  1

  0
ENDBLK
  5
E
100
AcDbEntity
  8
0
100
AcDbBlockEnd
  0
BLOCK
  5
F
100
AcDbEntity
 67
         1
  8
0
100
AcDbBlockBegin
  2
*PAPER_SPACE
 70
         0
 10
0.0
 20
0.0
 30
0.0
  3
*PAPER_SPACE
  1

  0
ENDBLK
  5
10
100
AcDbEntity
 67
         1
  8
0
100
AcDbBlockEnd
  0
ENDSEC
  0
SECTION
  2
ENTITIES
  0
CIRCLE
  5
58
102
{ACAD_REACTORS
330
63
102
}
100
AcDbEntity
  8
UNASSIGNED
370
        25
  6
Continuous
 62
         4
100
AcDbCircle
 10
16.2966957101
 20
14.7858619425
 30
0.0
 40
0.0835
  0
ARC
  5
59
102
{ACAD_REACTORS
330
63
102
}
100
AcDbEntity
  8
UNASSIGNED
370
        25
  6
Continuous
 62
         4
100
AcDbCircle
 10
16.2966957101
 20
14.7858619425
 30
0.0
 40
0.375
100
AcDbArc
 50
151.1353689689
 51
-113.9770105947
  0
ARC
  5
5A
102
{ACAD_REACTORS
330
63
102
}
100
AcDbEntity
  8
UNASSIGNED
370
        25
  6
Continuous
 62
         4
100
AcDbCircle
 10
16.2966957101
 20
14.7858619425
 30
0.0
 40
0.375
100
AcDbArc
 50
-88.8646310311
 51
6.0229894053
  0
ARC
  5
5B
102
{ACAD_REACTORS
330
63
102
}
100
AcDbEntity
  8
UNASSIGNED
370
        25
  6
Continuous
 62
         4
100
AcDbCircle
 10
16.2966957101
 20
14.7858619425
 30
0.0
 40
0.375
100
AcDbArc
 50
31.1353689689
 51
126.0229894052
  0
CIRCLE
  5
5C
102
{ACAD_REACTORS
330
63
102
}
100
AcDbEntity
  8
UNASSIGNED
370
        25
  6
Continuous
 62
         4
100
AcDbCircle
 10
16.2966957101
 20
14.7858619425
 30
0.0
 40
0.12125
  0
LINE
  5
5D
102
{ACAD_REACTORS
330
63
102
}
100
AcDbEntity
  8
UNASSIGNED
370
        25
  6
Continuous
 62
         4
100
AcDbLine
 10
15.9682847003
 20
14.966890141
 30
0.0
 11
16.0519933593
 21
14.9521300459
 31
0.0
  0
LINE
  5
5E
102
{ACAD_REACTORS
330
63
102
}
100
AcDbEntity
  8
UNASSIGNED
370
        25
  6
Continuous
 62
         4
100
AcDbLine
 10
16.0519933593
 20
14.9521300459
 30
0.0
 11
16.0761545292
 21
15.0891548497
 31
0.0
  0
LINE
  5
5F
102
{ACAD_REACTORS
330
63
102
}
100
AcDbEntity
  8
UNASSIGNED
370
        25
  6
Continuous
 62
         4
100
AcDbLine
 10
16.5630392869
 20
14.9146463429
 30
0.0
 11
16.6696256629
 21
14.8252097541
 31
0.0
  0
LINE
  5
60
102
{ACAD_REACTORS
330
63
102
}
100
AcDbEntity
  8
UNASSIGNED
370
        25
  6
Continuous
 62
         4
100
AcDbLine
 10
16.6176762337
 20
14.9797601206
 30
0.0
 11
16.5630392869
 21
14.9146463429
 31
0.0
  0
LINE
  5
61
102
{ACAD_REACTORS
330
63
102
}
100
AcDbEntity
  8
UNASSIGNED
370
        25
  6
Continuous
 62
         4
100
AcDbLine
 10
16.2750544841
 20
14.4908094386
 30
0.0
 11
16.1443069381
 21
14.4432212237
 31
0.0
  0
LINE
  5
62
102
{ACAD_REACTORS
330
63
102
}
100
AcDbEntity
  8
UNASSIGNED
370
        25
  6
Continuous
 62
         4
100
AcDbLine
 10
16.3041261963
 20
14.4109355659
 30
0.0
 11
16.2750544841
 21
14.4908094386
 31
0.0
  0
LINE
  5
64
100
AcDbEntity
  8
6_125BIT_500DEP
370
        25
  6
Continuous
 62
         5
100
AcDbLine
 10
15.7021790232
 20
10.9687430808
 30
0.0
 11
15.0261978188
 21
9.4089195615
 31
0.0
  0
LINE
  5
65
100
AcDbEntity
  8
6_125BIT_500DEP
370
        25
  6
Continuous
 62
         5
100
AcDbLine
 10
15.5370212389
 20
11.0403175613
 30
0.0
 11
14.8610400344
 21
9.480494042
 31
0.0
  0
ARC
  5
66
100
AcDbEntity
  8
Z0_CUT500
370
         5
  6
Continuous
 62
        47
100
AcDbCircle
 10
16.4180208562
 20
10.1226495178
 30
0.0
 40
0.125
100
AcDbArc
 50
0.0
 51
156.5695234702
  0
LINE
  5
67
100
AcDbEntity
  8
Z0_CUT500
370
         5
  6
Continuous
 62
        47
100
AcDbLine
 10
16.5430208562
 20
10.1226495178
 30
0.0
 11
16.5430208562
 21
9.1727169572
 31
0.0
  0
ARC
  5
68
100
AcDbEntity
  8
6_125BIT_500DEP
370
        25
  6
Continuous
 62
         5
100
AcDbCircle
 10
14.9436189266
 20
9.4447068018
 30
0.0
 40
0.09
100
AcDbArc
 50
156.5695234702
 51
-23.4304765298
  0
LINE
  5
69
100
AcDbEntity
  8
6_125BIT_500DEP
370
        25
  6
Continuous
 62
         5
100
AcDbLine
 10
16.2930208562
 20
10.4061431669
 30
0.0
 11
16.1869327442
 21
10.4673931669
 31
0.0
  0
LINE
  5
6A
100
AcDbEntity
  8
6_125BIT_500DEP
370
        25
  6
Continuous
 62
         5
100
AcDbLine
 10
16.1869327442
 20
10.4673931669
 30
0.0
 11
16.4369327442
 21
10.9004058688
 31
0.0
  0
LINE
  5
6B
100
AcDbEntity
  8
6_125BIT_500DEP
370
        25
  6
Continuous
 62
         5
100
AcDbLine
 10
16.2930208562
 20
10.4061431669
 30
0.0
 11
16.3991089681
 21
10.3448931669
 31
0.0
  0
LINE
  5
6C
100
AcDbEntity
  8
6_125BIT_500DEP
370
        25
  6
Continuous
 62
         5
100
AcDbLine
 10
16.3991089681
 20
10.3448931669
 30
0.0
 11
16.6491089681
 21
10.7779058688
 31
0.0
  0
LINE
  5
6D
100
AcDbEntity
  8
Z0_CUT500
370
         5
  6
Continuous
 62
        47
100
AcDbLine
 10
14.4985772562
 20
9.8918905732
 30
0.0
 11
15.4557163677
 21
12.1004846694
 31
0.0
  0
LINE
  5
6E
100
AcDbEntity
  8
0
370
         5
  6
Continuous
 62
        47
100
AcDbLine
 10
14.4068229316
 20
9.9316541734
 30
0.0
 11
15.3646530718
 21
12.1418428154
 31
0.0
  0
LINE
  5
6F
100
AcDbEntity
  8
0
370
         5
  6
Continuous
 62
        47
100
AcDbLine
 10
14.9458082736
 20
13.7736683985
 30
0.0
 11
15.3772045834
 21
12.2950644729
 31
0.0
  0
LINE
  5
70
100
AcDbEntity
  8
Z0_CUT250
370
         5
  6
Continuous
 62
        47
100
AcDbLine
 10
14.4068229316
 20
9.9316541734
 30
0.0
 11
15.3646530718
 21
12.1418428154
 31
0.0
  0
LINE
  5
71
100
AcDbEntity
  8
6_125BIT_500DEP
370
        25
  6
Continuous
 62
         5
100
AcDbLine
 10
17.3403958087
 20
10.4956341314
 30
0.0
 11
17.3403958087
 21
8.7956341314
 31
0.0
  0
CIRCLE
  5
72
100
AcDbEntity
  8
6_125BIT_500DEP
370
        25
  6
Continuous
 62
         5
100
AcDbCircle
 10
15.6580846412
 20
8.7018044592
 30
0.0
 40
0.0825
  0
CIRCLE
  5
73
100
AcDbEntity
  8
3_250BIT_500TAB
370
        25
  6
Continuous
 62
         5
100
AcDbCircle
 10
14.8518568562
 20
8.2956252938
 30
0.0
 40
0.25
  0
CIRCLE
  5
74
100
AcDbEntity
  8
Z0_CUT250
370
         5
  6
Continuous
 62
        47
100
AcDbCircle
 10
14.5782171257
 20
13.6159447542
 30
0.0
 40
0.075
  0
ARC
  5
75
100
AcDbEntity
  8
Z0_CUT250
370
         5
  6
Continuous
 62
        47
100
AcDbCircle
 10
15.1708097183
 20
12.2348468706
 30
0.0
 40
0.215
100
AcDbArc
 50
-25.6312146147
 51
16.2650911049
  0
CIRCLE
  5
76
100
AcDbEntity
  8
6_125BIT_500DEP
370
        25
  6
Continuous
 62
         5
100
AcDbCircle
 10
14.5782171257
 20
13.6159447542
 30
0.0
 40
0.0825
  0
CIRCLE
  5
77
100
AcDbEntity
  8
X_ROLLOVER
370
        25
  6
Continuous
 62
        27
100
AcDbCircle
 10
14.5782171257
 20
13.6159447542
 30
0.0
 40
0.075
  0
LINE
  5
78
100
AcDbEntity
  8
Z0_CUT250
370
         5
  6
Continuous
 62
        47
100
AcDbLine
 10
15.3772045834
 20
12.2950644729
 30
0.0
 11
14.9458082736
 21
13.7736683985
 31
0.0
  0
CIRCLE
  5
79
102
{ACAD_REACTORS
330
7B
102
}
100
AcDbEntity
  8
0
370
        25
  6
Continuous
 62
        30
100
AcDbCircle
 10
17.3470528562
 20
12.2348468706
 30
0.0
 40
0.215
  0
CIRCLE
  5
7A
102
{ACAD_REACTORS
330
7B
102
}
100
AcDbEntity
  8
0
370
        25
  6
Continuous
 62
        30
100
AcDbCircle
 10
17.3470528562
 20
12.2348468706
 30
0.0
 40
0.07
  0
CIRCLE
  5
7C
100
AcDbEntity
  8
6_125BIT_500DEP
370
        25
  6
Continuous
 62
         5
100
AcDbCircle
 10
17.3470528562
 20
12.2348468706
 30
0.0
 40
0.1225
  0
ARC
  5
7D
100
AcDbEntity
  8
Z0_CUT500
370
         5
  6
Continuous
 62
        47
100
AcDbCircle
 10
15.1708097183
 20
12.2348468706
 30
0.0
 40
0.315
100
AcDbArc
 50
-25.248601938
 51
16.2650911049
  0
LINE
  5
7E
100
AcDbEntity
  8
Z0_CUT500
370
         5
  6
Continuous
 62
        47
100
AcDbLine
 10
15.4732021951
 20
12.32307266
 30
0.0
 11
15.0418058853
 21
13.8016765856
 31
0.0
  0
CIRCLE
  5
7F
100
AcDbEntity
  8
X_DROPS
370
         5
  6
Continuous
 62
         5
100
AcDbCircle
 10
16.9945433512
 20
13.9145326096
 30
0.0
 40
0.4281496063
  0
CIRCLE
  5
80
100
AcDbEntity
  8
X_DROPS
370
         5
  6
Continuous
 62
         5
100
AcDbCircle
 10
15.5973858709
 20
13.9145326096
 30
0.0
 40
0.4281496063
  0
ARC
  5
81
100
AcDbEntity
  8
Z0_CUT250
370
         5
  6
Continuous
 62
         6
100
AcDbCircle
 10
15.5616637531
 20
9.7183987067
 30
0.0
 40
0.6
100
AcDbArc
 50
-65.3268208344
 51
-23.4304765298
  0
LINE
  5
82
100
AcDbEntity
  8
Z0_CUT250
370
         5
  6
Continuous
 62
         6
100
AcDbLine
 10
16.395082275
 20
10.1325904179
 30
0.0
 11
16.1121897011
 21
9.4798171052
 31
0.0
  0
CIRCLE
  5
83
100
AcDbEntity
  8
Z0_CUT500
370
         5
  6
Continuous
 62
        47
100
AcDbCircle
 10
14.8518568562
 20
8.2956252938
 30
0.0
 40
0.25
  0
ARC
  5
84
100
AcDbEntity
  8
6_125BIT_500DEP
370
        25
  6
Continuous
 62
         5
100
AcDbCircle
 10
17.2503958087
 20
8.7956341314
 30
0.0
 40
0.09
100
AcDbArc
 50
180.0
 51
0.0
  0
ARC
  5
85
102
{ACAD_REACTORS
330
90
102
}
100
AcDbEntity
  8
UNASSIGNED
370
        25
  6
Continuous
 62
         4
100
AcDbCircle
 10
15.6580846412
 20
8.7018044592
 30
0.0
 40
0.285
100
AcDbArc
 50
90.0
 51
164.5679286494
  0
ARC
  5
86
102
{ACAD_REACTORS
330
90
102
}
100
AcDbEntity
  8
UNASSIGNED
370
        25
  6
Continuous
 62
         4
100
AcDbCircle
 10
15.6580846412
 20
8.7018044592
 30
0.0
 40
0.285
100
AcDbArc
 50
-150.0
 51
-75.4320713505
  0
ARC
  5
87
102
{ACAD_REACTORS
330
90
102
}
100
AcDbEntity
  8
UNASSIGNED
370
        25
  6
Continuous
 62
         4
100
AcDbCircle
 10
15.6580846412
 20
8.7018044592
 30
0.0
 40
0.285
100
AcDbArc
 50
-30.0
 51
44.5679286494
  0
LINE
  5
88
102
{ACAD_REACTORS
330
90
102
}
100
AcDbEntity
  8
UNASSIGNED
370
        25
  6
Continuous
 62
         4
100
AcDbLine
 10
15.4112674011
 20
8.5593044592
 30
0.0
 11
15.4848795604
 21
8.6018044592
 31
0.0
  0
LINE
  5
89
102
{ACAD_REACTORS
330
90
102
}
100
AcDbEntity
  8
UNASSIGNED
370
        25
  6
Continuous
 62
         4
100
AcDbLine
 10
15.4848795604
 20
8.6018044592
 30
0.0
 11
15.3833598579
 21
8.7776417419
 31
0.0
  0
LINE
  5
8A
102
{ACAD_REACTORS
330
90
102
}
100
AcDbEntity
  8
UNASSIGNED
370
        25
  6
Continuous
 62
         4
100
AcDbLine
 10
15.9049018813
 20
8.5593044592
 30
0.0
 11
15.831289722
 21
8.6018044592
 31
0.0
  0
LINE
  5
8B
102
{ACAD_REACTORS
330
90
102
}
100
AcDbEntity
  8
UNASSIGNED
370
        25
  6
Continuous
 62
         4
100
AcDbLine
 10
15.831289722
 20
8.6018044592
 30
0.0
 11
15.7297700194
 21
8.4259671765
 31
0.0
  0
LINE
  5
8C
102
{ACAD_REACTORS
330
90
102
}
100
AcDbEntity
  8
UNASSIGNED
370
        25
  6
Continuous
 62
         4
100
AcDbLine
 10
15.6580846412
 20
8.9018044592
 30
0.0
 11
15.8611240462
 21
8.9018044592
 31
0.0
  0
LINE
  5
8D
102
{ACAD_REACTORS
330
90
102
}
100
AcDbEntity
  8
UNASSIGNED
370
        25
  6
Continuous
 62
         4
100
AcDbLine
 10
15.6580846412
 20
8.9868044592
 30
0.0
 11
15.6580846412
 21
8.9018044592
 31
0.0
  0
CIRCLE
  5
8E
102
{ACAD_REACTORS
330
90
102
}
100
AcDbEntity
  8
UNASSIGNED
370
        25
  6
Continuous
 62
         4
100
AcDbCircle
 10
15.6580846412
 20
8.7018044592
 30
0.0
 40
0.059
  0
CIRCLE
  5
8F
102
{ACAD_REACTORS
330
90
102
}
100
AcDbEntity
  8
UNASSIGNED
370
        25
  6
Continuous
 62
         4
100
AcDbCircle
 10
15.6580846412
 20
8.7018044592
 30
0.0
 40
0.085
  0
CIRCLE
  5
91
102
{ACAD_REACTORS
330
93
102
}
100
AcDbEntity
  8
0
370
        25
  6
Continuous
 62
        30
100
AcDbCircle
 10
17.9396454487
 20
13.6159447542
 30
0.0
 40
0.215
  0
CIRCLE
  5
92
102
{ACAD_REACTORS
330
93
102
}
100
AcDbEntity
  8
0
370
        25
  6
Continuous
 62
        30
100
AcDbCircle
 10
17.9396454487
 20
13.6159447542
 30
0.0
 40
0.07
  0
CIRCLE
  5
94
100
AcDbEntity
  8
6_125BIT_500DEP
370
        25
  6
Continuous
 62
         5
100
AcDbCircle
 10
17.9396454487
 20
13.6159447542
 30
0.0
 40
0.1225
  0
ARC
  5
95
100
AcDbEntity
  8
Z0_CUT500
370
         5
  6
Continuous
 62
        47
100
AcDbCircle
 10
14.9458082736
 20
13.7736683985
 30
0.0
 40
0.1
100
AcDbArc
 50
16.2650911049
 51
23.2012426298
  0
CIRCLE
  5
96
102
{ACAD_REACTORS
330
A1
102
}
100
AcDbEntity
  8
UNASSIGNED
370
        25
  6
Continuous
 62
         4
100
AcDbCircle
 10
15.1708097183
 20
12.2348468706
 30
0.0
 40
0.0835
  0
ARC
  5
97
102
{ACAD_REACTORS
330
A1
102
}
100
AcDbEntity
  8
UNASSIGNED
370
        25
  6
Continuous
 62
         4
100
AcDbCircle
 10
15.1708097183
 20
12.2348468706
 30
0.0
 40
0.375
100
AcDbArc
 50
151.1353689689
 51
-113.9770105947
  0
ARC
  5
98
102
{ACAD_REACTORS
330
A1
102
}
100
AcDbEntity
  8
UNASSIGNED
370
        25
  6
Continuous
 62
         4
100
AcDbCircle
 10
15.1708097183
 20
12.2348468706
 30
0.0
 40
0.375
100
AcDbArc
 50
-88.8646310311
 51
6.0229894053
  0
ARC
  5
99
102
{ACAD_REACTORS
330
A1
102
}
100
AcDbEntity
  8
UNASSIGNED
370
        25
  6
Continuous
 62
         4
100
AcDbCircle
 10
15.1708097183
 20
12.2348468706
 30
0.0
 40
0.375
100
AcDbArc
 50
31.1353689689
 51
126.0229894052
  0
CIRCLE
  5
9A
102
{ACAD_REACTORS
330
A1
102
}
100
AcDbEntity
  8
UNASSIGNED
370
        25
  6
Continuous
 62
         4
100
AcDbCircle
 10
15.1708097183
 20
12.2348468706
 30
0.0
 40
0.12125
  0
LINE
  5
9B
102
{ACAD_REACTORS
330
A1
102
}
100
AcDbEntity
  8
UNASSIGNED
370
        25
  6
Continuous
 62
         4
100
AcDbLine
 10
14.8423987085
 20
12.4158750691
 30
0.0
 11
14.9261073675
 21
12.401114974
 31
0.0
  0
LINE
  5
9C
102
{ACAD_REACTORS
330
A1
102
}
100
AcDbEntity
  8
UNASSIGNED
370
        25
  6
Continuous
 62
         4
100
AcDbLine
 10
14.9261073675
 20
12.401114974
 30
0.0
 11
14.9502685374
 21
12.5381397778
 31
0.0
  0
LINE
  5
9D
102
{ACAD_REACTORS
330
A1
102
}
100
AcDbEntity
  8
UNASSIGNED
370
        25
  6
Continuous
 62
         4
100
AcDbLine
 10
15.437153295
 20
12.363631271
 30
0.0
 11
15.5437396711
 21
12.2741946822
 31
0.0
  0
LINE
  5
9E
102
{ACAD_REACTORS
330
A1
102
}
100
AcDbEntity
  8
UNASSIGNED
370
        25
  6
Continuous
 62
         4
100
AcDbLine
 10
15.4917902418
 20
12.4287450487
 30
0.0
 11
15.437153295
 21
12.363631271
 31
0.0
  0
LINE
  5
9F
102
{ACAD_REACTORS
330
A1
102
}
100
AcDbEntity
  8
UNASSIGNED
370
        25
  6
Continuous
 62
         4
100
AcDbLine
 10
15.1491684923
 20
11.9397943667
 30
0.0
 11
15.0184209463
 21
11.8922061518
 31
0.0
  0
LINE
  5
A0
102
{ACAD_REACTORS
330
A1
102
}
100
AcDbEntity
  8
UNASSIGNED
370
        25
  6
Continuous
 62
         4
100
AcDbLine
 10
15.1782402045
 20
11.859920494
 30
0.0
 11
15.1491684923
 21
11.9397943667
 31
0.0
  0
CIRCLE
  5
A2
102
{ACAD_REACTORS
330
A4
102
}
100
AcDbEntity
  8
0
370
        25
  6
Continuous
 62
        30
100
AcDbCircle
 10
16.2966957101
 20
14.7858619425
 30
0.0
 40
0.215
  0
CIRCLE
  5
A3
102
{ACAD_REACTORS
330
A4
102
}
100
AcDbEntity
  8
0
370
        25
  6
Continuous
 62
        30
100
AcDbCircle
 10
16.2966957101
 20
14.7858619425
 30
0.0
 40
0.07
  0
CIRCLE
  5
A5
100
AcDbEntity
  8
6_125BIT_500DEP
370
        25
  6
Continuous
 62
         5
100
AcDbCircle
 10
16.2966957101
 20
14.7858619425
 30
0.0
 40
0.1225
  0
CIRCLE
  5
A6
100
AcDbEntity
  8
3_250BIT_500TAB
370
        25
  6
Continuous
 62
         5
100
AcDbCircle
 10
13.9374214146
 20
10.921875
 30
0.0
 40
0.25
  0
CIRCLE
  5
A7
100
AcDbEntity
  8
6_125BIT_500DEP
370
        25
  6
Continuous
 62
         5
100
AcDbCircle
 10
14.1295818562
 20
10.0646716012
 30
0.0
 40
0.0825
  0
ARC
  5
A8
100
AcDbEntity
  8
Z0_CUT500
370
         5
  6
Continuous
 62
        47
100
AcDbCircle
 10
16.0430208562
 20
9.1727169572
 30
0.0
 40
0.5
100
AcDbArc
 50
-59.5303900214
 51
0.0
  0
CIRCLE
  5
A9
100
AcDbEntity
  8
6_125BIT_500DEP
370
        25
  6
Continuous
 62
         5
100
AcDbCircle
 10
16.5430208562
 20
10.8391558688
 30
0.0
 40
0.1225
  0
CIRCLE
  5
AA
100
AcDbEntity
  8
6_125BIT_500DEP
370
        25
  6
Continuous
 62
         5
100
AcDbCircle
 10
16.4180208562
 20
10.6226495178
 30
0.0
 40
0.1225
  0
CIRCLE
  5
AB
102
{ACAD_REACTORS
330
B6
102
}
100
AcDbEntity
  8
UNASSIGNED
370
        25
  6
Continuous
 62
         4
100
AcDbCircle
 10
16.4180208562
 20
10.6226495178
 30
0.0
 40
0.0835
  0
ARC
  5
AC
102
{ACAD_REACTORS
330
B6
102
}
100
AcDbEntity
  8
UNASSIGNED
370
        25
  6
Continuous
 62
         4
100
AcDbCircle
 10
16.4180208562
 20
10.6226495178
 30
0.0
 40
0.375
100
AcDbArc
 50
151.1353689689
 51
-113.9770105947
  0
ARC
  5
AD
102
{ACAD_REACTORS
330
B6
102
}
100
AcDbEntity
  8
UNASSIGNED
370
        25
  6
Continuous
 62
         4
100
AcDbCircle
 10
16.4180208562
 20
10.6226495178
 30
0.0
 40
0.375
100
AcDbArc
 50
-88.8646310311
 51
6.0229894053
  0
ARC
  5
AE
102
{ACAD_REACTORS
330
B6
102
}
100
AcDbEntity
  8
UNASSIGNED
370
        25
  6
Continuous
 62
         4
100
AcDbCircle
 10
16.4180208562
 20
10.6226495178
 30
0.0
 40
0.375
100
AcDbArc
 50
31.1353689689
 51
126.0229894052
  0
CIRCLE
  5
AF
102
{ACAD_REACTORS
330
B6
102
}
100
AcDbEntity
  8
UNASSIGNED
370
        25
  6
Continuous
 62
         4
100
AcDbCircle
 10
16.4180208562
 20
10.6226495178
 30
0.0
 40
0.12125
  0
LINE
  5
B0
102
{ACAD_REACTORS
330
B6
102
}
100
AcDbEntity
  8
UNASSIGNED
370
        25
  6
Continuous
 62
         4
100
AcDbLine
 10
16.0896098464
 20
10.8036777163
 30
0.0
 11
16.1733185054
 21
10.7889176212
 31
0.0
  0
LINE
  5
B1
102
{ACAD_REACTORS
330
B6
102
}
100
AcDbEntity
  8
UNASSIGNED
370
        25
  6
Continuous
 62
         4
100
AcDbLine
 10
16.1733185054
 20
10.7889176212
 30
0.0
 11
16.1974796753
 21
10.925942425
 31
0.0
  0
LINE
  5
B2
102
{ACAD_REACTORS
330
B6
102
}
100
AcDbEntity
  8
UNASSIGNED
370
        25
  6
Continuous
 62
         4
100
AcDbLine
 10
16.6843644329
 20
10.7514339183
 30
0.0
 11
16.790950809
 21
10.6619973294
 31
0.0
  0
LINE
  5
B3
102
{ACAD_REACTORS
330
B6
102
}
100
AcDbEntity
  8
UNASSIGNED
370
        25
  6
Continuous
 62
         4
100
AcDbLine
 10
16.7390013797
 20
10.8165476959
 30
0.0
 11
16.6843644329
 21
10.7514339183
 31
0.0
  0
LINE
  5
B4
102
{ACAD_REACTORS
330
B6
102
}
100
AcDbEntity
  8
UNASSIGNED
370
        25
  6
Continuous
 62
         4
100
AcDbLine
 10
16.3963796302
 20
10.327597014
 30
0.0
 11
16.2656320842
 21
10.280008799
 31
0.0
  0
LINE
  5
B5
102
{ACAD_REACTORS
330
B6
102
}
100
AcDbEntity
  8
UNASSIGNED
370
        25
  6
Continuous
 62
         4
100
AcDbLine
 10
16.4254513424
 20
10.2477231412
 30
0.0
 11
16.3963796302
 21
10.327597014
 31
0.0
  0
CIRCLE
  5
B7
102
{ACAD_REACTORS
330
B9
102
}
100
AcDbEntity
  8
0
370
        25
  6
Continuous
 62
        30
100
AcDbCircle
 10
16.4180208562
 20
10.6226495178
 30
0.0
 40
0.215
  0
CIRCLE
  5
B8
102
{ACAD_REACTORS
330
B9
102
}
100
AcDbEntity
  8
0
370
        25
  6
Continuous
 62
        30
100
AcDbCircle
 10
16.4180208562
 20
10.6226495178
 30
0.0
 40
0.07
  0
CIRCLE
  5
BA
100
AcDbEntity
  8
6_125BIT_500DEP
370
        25
  6
Continuous
 62
         5
100
AcDbCircle
 10
16.2930208562
 20
10.4061431669
 30
0.0
 40
0.1225
  0
CIRCLE
  5
BB
102
{ACAD_REACTORS
330
BD
102
}
100
AcDbEntity
  8
0
370
        25
  6
Continuous
 62
        30
100
AcDbCircle
 10
15.1708097183
 20
12.2348468706
 30
0.0
 40
0.215
  0
CIRCLE
  5
BC
102
{ACAD_REACTORS
330
BD
102
}
100
AcDbEntity
  8
0
370
        25
  6
Continuous
 62
        30
100
AcDbCircle
 10
15.1708097183
 20
12.2348468706
 30
0.0
 40
0.07
  0
CIRCLE
  5
BE
100
AcDbEntity
  8
6_125BIT_500DEP
370
        25
  6
Continuous
 62
         5
100
AcDbCircle
 10
15.1708097183
 20
12.2348468706
 30
0.0
 40
0.1225
  0
CIRCLE
  5
BF
100
AcDbEntity
  8
X_SMPOSTS
370
        25
  6
Continuous
 62
         3
100
AcDbCircle
 10
16.9945433512
 20
13.9145326096
 30
0.0
 40
0.5110787402
  0
CIRCLE
  5
C0
100
AcDbEntity
  8
X_SMPOSTS
370
        25
  6
Continuous
 62
         3
100
AcDbCircle
 10
15.5973858709
 20
13.9145326096
 30
0.0
 40
0.5110787402
  0
LINE
  5
C1
100
AcDbEntity
  8
Z0_CUT250
370
         5
  6
Continuous
 62
         6
100
AcDbLine
 10
16.4430208562
 20
10.1226495178
 30
0.0
 11
16.4430208562
 21
9.1727169572
 31
0.0
  0
CIRCLE
  5
C2
102
{ACAD_REACTORS
330
CD
102
}
100
AcDbEntity
  8
UNASSIGNED
370
        25
  6
Continuous
 62
         4
100
AcDbCircle
 10
17.9396454487
 20
13.6159447542
 30
0.0
 40
0.0835
  0
ARC
  5
C3
102
{ACAD_REACTORS
330
CD
102
}
100
AcDbEntity
  8
UNASSIGNED
370
        25
  6
Continuous
 62
         4
100
AcDbCircle
 10
17.9396454487
 20
13.6159447542
 30
0.0
 40
0.375
100
AcDbArc
 50
151.1353689689
 51
-113.9770105947
  0
ARC
  5
C4
102
{ACAD_REACTORS
330
CD
102
}
100
AcDbEntity
  8
UNASSIGNED
370
        25
  6
Continuous
 62
         4
100
AcDbCircle
 10
17.9396454487
 20
13.6159447542
 30
0.0
 40
0.375
100
AcDbArc
 50
-88.8646310311
 51
6.0229894053
  0
ARC
  5
C5
102
{ACAD_REACTORS
330
CD
102
}
100
AcDbEntity
  8
UNASSIGNED
370
        25
  6
Continuous
 62
         4
100
AcDbCircle
 10
17.9396454487
 20
13.6159447542
 30
0.0
 40
0.375
100
AcDbArc
 50
31.1353689689
 51
126.0229894052
  0
CIRCLE
  5
C6
102
{ACAD_REACTORS
330
CD
102
}
100
AcDbEntity
  8
UNASSIGNED
370
        25
  6
Continuous
 62
         4
100
AcDbCircle
 10
17.9396454487
 20
13.6159447542
 30
0.0
 40
0.12125
  0
LINE
  5
C7
102
{ACAD_REACTORS
330
CD
102
}
100
AcDbEntity
  8
UNASSIGNED
370
        25
  6
Continuous
 62
         4
100
AcDbLine
 10
17.611234439
 20
13.7969729527
 30
0.0
 11
17.694943098
 21
13.7822128576
 31
0.0
  0
LINE
  5
C8
102
{ACAD_REACTORS
330
CD
102
}
100
AcDbEntity
  8
UNASSIGNED
370
        25
  6
Continuous
 62
         4
100
AcDbLine
 10
17.694943098
 20
13.7822128576
 30
0.0
 11
17.7191042679
 21
13.9192376614
 31
0.0
  0
LINE
  5
C9
102
{ACAD_REACTORS
330
CD
102
}
100
AcDbEntity
  8
UNASSIGNED
370
        25
  6
Continuous
 62
         4
100
AcDbLine
 10
18.2059890255
 20
13.7447291546
 30
0.0
 11
18.3125754016
 21
13.6552925658
 31
0.0
  0
LINE
  5
CA
102
{ACAD_REACTORS
330
CD
102
}
100
AcDbEntity
  8
UNASSIGNED
370
        25
  6
Continuous
 62
         4
100
AcDbLine
 10
18.2606259723
 20
13.8098429323
 30
0.0
 11
18.2059890255
 21
13.7447291546
 31
0.0
  0
LINE
  5
CB
102
{ACAD_REACTORS
330
CD
102
}
100
AcDbEntity
  8
UNASSIGNED
370
        25
  6
Continuous
 62
         4
100
AcDbLine
 10
17.9180042228
 20
13.3208922503
 30
0.0
 11
17.7872566768
 21
13.2733040354
 31
0.0
  0
LINE
  5
CC
102
{ACAD_REACTORS
330
CD
102
}
100
AcDbEntity
  8
UNASSIGNED
370
        25
  6
Continuous
 62
         4
100
AcDbLine
 10
17.947075935
 20
13.2410183776
 30
0.0
 11
17.9180042228
 21
13.3208922503
 31
0.0
  0
CIRCLE
  5
CE
102
{ACAD_REACTORS
330
D9
102
}
100
AcDbEntity
  8
UNASSIGNED
370
        25
  6
Continuous
 62
         4
100
AcDbCircle
 10
17.3470528562
 20
12.2348468706
 30
0.0
 40
0.0835
  0
ARC
  5
CF
102
{ACAD_REACTORS
330
D9
102
}
100
AcDbEntity
  8
UNASSIGNED
370
        25
  6
Continuous
 62
         4
100
AcDbCircle
 10
17.3470528562
 20
12.2348468706
 30
0.0
 40
0.375
100
AcDbArc
 50
151.1353689689
 51
-113.9770105947
  0
ARC
  5
D0
102
{ACAD_REACTORS
330
D9
102
}
100
AcDbEntity
  8
UNASSIGNED
370
        25
  6
Continuous
 62
         4
100
AcDbCircle
 10
17.3470528562
 20
12.2348468706
 30
0.0
 40
0.375
100
AcDbArc
 50
-88.8646310311
 51
6.0229894053
  0
ARC
  5
D1
102
{ACAD_REACTORS
330
D9
102
}
100
AcDbEntity
  8
UNASSIGNED
370
        25
  6
Continuous
 62
         4
100
AcDbCircle
 10
17.3470528562
 20
12.2348468706
 30
0.0
 40
0.375
100
AcDbArc
 50
31.1353689689
 51
126.0229894052
  0
CIRCLE
  5
D2
102
{ACAD_REACTORS
330
D9
102
}
100
AcDbEntity
  8
UNASSIGNED
370
        25
  6
Continuous
 62
         4
100
AcDbCircle
 10
17.3470528562
 20
12.2348468706
 30
0.0
 40
0.12125
  0
LINE
  5
D3
102
{ACAD_REACTORS
330
D9
102
}
100
AcDbEntity
  8
UNASSIGNED
370
        25
  6
Continuous
 62
         4
100
AcDbLine
 10
17.0186418464
 20
12.4158750691
 30
0.0
 11
17.1023505054
 21
12.401114974
 31
0.0
  0
LINE
  5
D4
102
{ACAD_REACTORS
330
D9
102
}
100
AcDbEntity
  8
UNASSIGNED
370
        25
  6
Continuous
 62
         4
100
AcDbLine
 10
17.1023505054
 20
12.401114974
 30
0.0
 11
17.1265116753
 21
12.5381397778
 31
0.0
  0
LINE
  5
D5
102
{ACAD_REACTORS
330
D9
102
}
100
AcDbEntity
  8
UNASSIGNED
370
        25
  6
Continuous
 62
         4
100
AcDbLine
 10
17.6133964329
 20
12.363631271
 30
0.0
 11
17.719982809
 21
12.2741946822
 31
0.0
  0
LINE
  5
D6
102
{ACAD_REACTORS
330
D9
102
}
100
AcDbEntity
  8
UNASSIGNED
370
        25
  6
Continuous
 62
         4
100
AcDbLine
 10
17.6680333797
 20
12.4287450487
 30
0.0
 11
17.6133964329
 21
12.363631271
 31
0.0
  0
LINE
  5
D7
102
{ACAD_REACTORS
330
D9
102
}
100
AcDbEntity
  8
UNASSIGNED
370
        25
  6
Continuous
 62
         4
100
AcDbLine
 10
17.3254116302
 20
11.9397943667
 30
0.0
 11
17.1946640842
 21
11.8922061518
 31
0.0
  0
LINE
  5
D8
102
{ACAD_REACTORS
330
D9
102
}
100
AcDbEntity
  8
UNASSIGNED
370
        25
  6
Continuous
 62
         4
100
AcDbLine
 10
17.3544833424
 20
11.859920494
 30
0.0
 11
17.3254116302
 21
11.9397943667
 31
0.0
  0
ARC
  5
DA
100
AcDbEntity
  8
Z0_CUT250
370
         5
  6
Continuous
 62
         6
100
AcDbCircle
 10
16.0430208562
 20
9.1727169572
 30
0.0
 40
0.4
100
AcDbArc
 50
-59.5303900214
 51
0.0
  0
ARC
  5
DB
100
AcDbEntity
  8
Z0_CUT500
370
         5
  6
Continuous
 62
        47
100
AcDbCircle
 10
15.5616637531
 20
9.7183987067
 30
0.0
 40
0.5
100
AcDbArc
 50
-65.3268208344
 51
-23.4304765298
  0
LINE
  5
DC
100
AcDbEntity
  8
Z0_CUT500
370
         5
  6
Continuous
 62
        47
100
AcDbLine
 10
16.3033279503
 20
10.1723540181
 30
0.0
 11
16.0204353765
 21
9.5195807054
 31
0.0
  0
ARC
  5
DD
100
AcDbEntity
  8
Z0_CUT250
370
         5
  6
Continuous
 62
         6
100
AcDbCircle
 10
16.4180208562
 20
10.1226495178
 30
0.0
 40
0.025
100
AcDbArc
 50
0.0
 51
156.5695234701
  0
CIRCLE
  5
DE
100
AcDbEntity
  8
Z0_CUT500
370
         5
  6
Continuous
 62
        47
100
AcDbCircle
 10
15.6580846412
 20
8.7018044592
 30
0.0
 40
0.0825
  0
ARC
  5
DF
100
AcDbEntity
  8
Z0_CUT500
370
         5
  6
Continuous
 62
        47
100
AcDbCircle
 10
13.4080627719
 20
7.1874038039
 30
0.0
 40
0.125
100
AcDbArc
 50
-178.1927468836
 51
-59.5303900214
  0
LINE
  5
E0
100
AcDbEntity
  8
0
370
         5
  6
Continuous
 62
        47
100
AcDbLine
 10
14.7757973677
 20
13.700721213
 30
0.0
 11
15.2339215078
 21
12.2045664805
 31
0.0
  0
ARC
  5
E1
100
AcDbEntity
  8
6_125BIT_500DEP
370
        25
  6
Continuous
 62
         5
100
AcDbCircle
 10
17.2503958087
 20
10.4956341314
 30
0.0
 40
0.09
100
AcDbArc
 50
0.0
 51
180.0
  0
ARC
  5
E2
100
AcDbEntity
  8
6_125BIT_500DEP
370
        25
  6
Continuous
 62
         5
100
AcDbCircle
 10
15.619600131
 20
11.0045303211
 30
0.0
 40
0.09
100
AcDbArc
 50
-23.4304765298
 51
156.5695234702
  0
LINE
  5
E3
100
AcDbEntity
  8
6_125BIT_500DEP
370
        25
  6
Continuous
 62
         5
100
AcDbLine
 10
17.1603958087
 20
10.4956341314
 30
0.0
 11
17.1603958087
 21
8.7956341314
 31
0.0
  0
CIRCLE
  5
E4
100
AcDbEntity
  8
X_DROPS
370
         5
  6
Continuous
 62
         5
100
AcDbCircle
 10
11.8866550086
 20
14.0496875807
 30
0.0
 40
0.4281496063
  0
CIRCLE
  5
E5
100
AcDbEntity
  8
X_SMPOSTS
370
        25
  6
Continuous
 62
         3
100
AcDbCircle
 10
11.8866550086
 20
14.0496875807
 30
0.0
 40
0.5110787402
  0
ARC
  5
E6
100
AcDbEntity
  8
Z0_CUT500
370
         5
  6
Continuous
 62
        47
100
AcDbCircle
 10
12.5667955048
 20
9.8038923176
 30
0.0
 40
0.1
100
AcDbArc
 50
157.5066488584
 51
158.4205214593
  0
CIRCLE
  5
E7
100
AcDbEntity
  8
6_125BIT_500DEP
370
        25
  6
Continuous
 62
         5
100
AcDbCircle
 10
12.948587496
 20
9.6845823203
 30
0.0
 40
0.0825
  0
CIRCLE
  5
E8
100
AcDbEntity
  8
Z0_CUT250
370
         5
  6
Continuous
 62
        47
100
AcDbCircle
 10
12.948587496
 20
9.6845823203
 30
0.0
 40
0.075
  0
CIRCLE
  5
E9
100
AcDbEntity
  8
0
370
        25
  6
Continuous
 62
        47
100
AcDbCircle
 10
14.1295818562
 20
10.0646716012
 30
0.0
 40
0.125
  0
ARC
  5
EA
100
AcDbEntity
  8
Z0_CUT250
370
         5
  6
Continuous
 62
         6
100
AcDbCircle
 10
13.4080627719
 20
7.1874038039
 30
0.0
 40
0.025
100
AcDbArc
 50
-178.1927468836
 51
-59.5303900214
  0
CIRCLE
  5
EB
100
AcDbEntity
  8
X_ROLLOVER
370
        25
  6
Continuous
 62
        27
100
AcDbCircle
 10
14.1295818562
 20
10.0646716012
 30
0.0
 40
0.1875
  0
ARC
  5
EC
100
AcDbEntity
  8
Z0_CUT250
370
         5
  6
Continuous
 62
        47
100
AcDbCircle
 10
14.1499809116
 20
10.0429618796
 30
0.0
 40
0.2799236123
100
AcDbArc
 50
-70.1351175895
 51
-23.4304765298
  0
ARC
  5
ED
100
AcDbEntity
  8
Z0_CUT500
370
         5
  6
Continuous
 62
        47
100
AcDbCircle
 10
14.1499809116
 20
10.0429618796
 30
0.0
 40
0.3799236123
100
AcDbArc
 50
-69.8233838435
 51
-23.4304765298
  0
LINE
  5
EE
100
AcDbEntity
  8
Z0_CUT500
370
         5
  6
Continuous
 62
        47
100
AcDbLine
 10
13.4714479317
 20
7.0796665239
 30
0.0
 11
16.2965614953
 21
8.7417678369
 31
0.0
  0
ARC
  5
EF
102
{ACAD_REACTORS
330
FA
102
}
100
AcDbEntity
  8
UNASSIGNED
370
        25
  6
Continuous
 62
         4
100
AcDbCircle
 10
14.1295818562
 20
10.0646716012
 30
0.0
 40
0.285
100
AcDbArc
 50
100.0
 51
174.5679286494
  0
ARC
  5
F0
102
{ACAD_REACTORS
330
FA
102
}
100
AcDbEntity
  8
UNASSIGNED
370
        25
  6
Continuous
 62
         4
100
AcDbCircle
 10
14.1295818562
 20
10.0646716012
 30
0.0
 40
0.285
100
AcDbArc
 50
-140.0
 51
-65.4320713506
  0
ARC
  5
F1
102
{ACAD_REACTORS
330
FA
102
}
100
AcDbEntity
  8
UNASSIGNED
370
        25
  6
Continuous
 62
         4
100
AcDbCircle
 10
14.1295818562
 20
10.0646716012
 30
0.0
 40
0.285
100
AcDbArc
 50
-20.0
 51
54.5679286494
  0
LINE
  5
F2
102
{ACAD_REACTORS
330
FA
102
}
100
AcDbEntity
  8
UNASSIGNED
370
        25
  6
Continuous
 62
         4
100
AcDbLine
 10
13.9112591899
 20
9.8814771325
 30
0.0
 11
13.9763729675
 21
9.9361140793
 31
0.0
  0
LINE
  5
F3
102
{ACAD_REACTORS
330
FA
102
}
100
AcDbEntity
  8
UNASSIGNED
370
        25
  6
Continuous
 62
         4
100
AcDbLine
 10
13.9763729675
 20
9.9361140793
 30
0.0
 11
13.8458617537
 21
10.0916512873
 31
0.0
  0
LINE
  5
F4
102
{ACAD_REACTORS
330
FA
102
}
100
AcDbEntity
  8
UNASSIGNED
370
        25
  6
Continuous
 62
         4
100
AcDbLine
 10
14.3973942531
 20
9.9671958604
 30
0.0
 11
14.3175203803
 21
9.9962675726
 31
0.0
  0
LINE
  5
F5
102
{ACAD_REACTORS
330
FA
102
}
100
AcDbEntity
  8
UNASSIGNED
370
        25
  6
Continuous
 62
         4
100
AcDbLine
 10
14.3175203803
 20
9.9962675726
 30
0.0
 11
14.2480768139
 21
9.8054729419
 31
0.0
  0
LINE
  5
F6
102
{ACAD_REACTORS
330
FA
102
}
100
AcDbEntity
  8
UNASSIGNED
370
        25
  6
Continuous
 62
         4
100
AcDbLine
 10
14.0948522206
 20
10.2616331518
 30
0.0
 11
14.2948070009
 21
10.2968905745
 31
0.0
  0
LINE
  5
F7
102
{ACAD_REACTORS
330
FA
102
}
100
AcDbEntity
  8
UNASSIGNED
370
        25
  6
Continuous
 62
         4
100
AcDbLine
 10
14.0800921255
 20
10.3453418109
 30
0.0
 11
14.0948522206
 21
10.2616331518
 31
0.0
  0
CIRCLE
  5
F8
102
{ACAD_REACTORS
330
FA
102
}
100
AcDbEntity
  8
UNASSIGNED
370
        25
  6
Continuous
 62
         4
100
AcDbCircle
 10
14.1295818562
 20
10.0646716012
 30
0.0
 40
0.059
  0
CIRCLE
  5
F9
102
{ACAD_REACTORS
330
FA
102
}
100
AcDbEntity
  8
UNASSIGNED
370
        25
  6
Continuous
 62
         4
100
AcDbCircle
 10
14.1295818562
 20
10.0646716012
 30
0.0
 40
0.085
  0
LINE
  5
FB
100
AcDbEntity
  8
0
370
         5
  6
Continuous
 62
        47
100
AcDbLine
 10
14.2422814803
 20
10.0105994761
 30
0.0
 11
15.2339215078
 21
12.2045664805
 31
0.0
  0
ARC
  5
FC
100
AcDbEntity
  8
Z0_CUT250
370
         5
  6
Continuous
 62
        47
100
AcDbCircle
 10
14.5782161125
 20
13.6161087601
 30
0.0
 40
0.3999362906
100
AcDbArc
 50
23.2012426298
 51
157.5066488584
  0
CIRCLE
  5
FD
100
AcDbEntity
  8
3_250BIT_500TAB
370
        25
  6
Continuous
 62
         5
100
AcDbCircle
 10
14.4061714146
 20
12.0
 30
0.0
 40
0.25
  0
ARC
  5
FE
100
AcDbEntity
  8
Z0_CUT500
370
         5
  6
Continuous
 62
        47
100
AcDbCircle
 10
14.5782161125
 20
13.6161087601
 30
0.0
 40
0.4999362906
100
AcDbArc
 50
23.2012426298
 51
157.5066488584
  0
CIRCLE
  5
FF
100
AcDbEntity
  8
6_125BIT_500DEP
370
        25
  6
Continuous
 62
         5
100
AcDbCircle
 10
14.3175165364
 20
8.0335017601
 30
0.0
 40
0.0825
  0
CIRCLE
  5
100
100
AcDbEntity
  8
X_ROLLOVER
370
        25
  6
Continuous
 62
        27
100
AcDbCircle
 10
14.5782171257
 20
13.6159447542
 30
0.0
 40
0.35
  0
ARC
  5
101
102
{ACAD_REACTORS
330
10C
102
}
100
AcDbEntity
  8
UNASSIGNED
370
        25
  6
Continuous
 62
         4
100
AcDbCircle
 10
14.5782171257
 20
13.6159447542
 30
0.0
 40
0.285
100
AcDbArc
 50
90.0
 51
164.5679286494
  0
ARC
  5
102
102
{ACAD_REACTORS
330
10C
102
}
100
AcDbEntity
  8
UNASSIGNED
370
        25
  6
Continuous
 62
         4
100
AcDbCircle
 10
14.5782171257
 20
13.6159447542
 30
0.0
 40
0.285
100
AcDbArc
 50
-150.0
 51
-75.4320713505
  0
ARC
  5
103
102
{ACAD_REACTORS
330
10C
102
}
100
AcDbEntity
  8
UNASSIGNED
370
        25
  6
Continuous
 62
         4
100
AcDbCircle
 10
14.5782171257
 20
13.6159447542
 30
0.0
 40
0.285
100
AcDbArc
 50
-30.0
 51
44.5679286494
  0
LINE
  5
104
102
{ACAD_REACTORS
330
10C
102
}
100
AcDbEntity
  8
UNASSIGNED
370
        25
  6
Continuous
 62
         4
100
AcDbLine
 10
14.3313998856
 20
13.4734447542
 30
0.0
 11
14.4050120449
 21
13.5159447542
 31
0.0
  0
LINE
  5
105
102
{ACAD_REACTORS
330
10C
102
}
100
AcDbEntity
  8
UNASSIGNED
370
        25
  6
Continuous
 62
         4
100
AcDbLine
 10
14.4050120449
 20
13.5159447542
 30
0.0
 11
14.3034923424
 21
13.6917820369
 31
0.0
  0
LINE
  5
106
102
{ACAD_REACTORS
330
10C
102
}
100
AcDbEntity
  8
UNASSIGNED
370
        25
  6
Continuous
 62
         4
100
AcDbLine
 10
14.8250343657
 20
13.4734447542
 30
0.0
 11
14.7514222064
 21
13.5159447542
 31
0.0
  0
LINE
  5
107
102
{ACAD_REACTORS
330
10C
102
}
100
AcDbEntity
  8
UNASSIGNED
370
        25
  6
Continuous
 62
         4
100
AcDbLine
 10
14.7514222064
 20
13.5159447542
 30
0.0
 11
14.6499025039
 21
13.3401074714
 31
0.0
  0
LINE
  5
108
102
{ACAD_REACTORS
330
10C
102
}
100
AcDbEntity
  8
UNASSIGNED
370
        25
  6
Continuous
 62
         4
100
AcDbLine
 10
14.5782171257
 20
13.8159447542
 30
0.0
 11
14.7812565307
 21
13.8159447542
 31
0.0
  0
LINE
  5
109
102
{ACAD_REACTORS
330
10C
102
}
100
AcDbEntity
  8
UNASSIGNED
370
        25
  6
Continuous
 62
         4
100
AcDbLine
 10
14.5782171257
 20
13.9009447542
 30
0.0
 11
14.5782171257
 21
13.8159447542
 31
0.0
  0
CIRCLE
  5
10A
102
{ACAD_REACTORS
330
10C
102
}
100
AcDbEntity
  8
UNASSIGNED
370
        25
  6
Continuous
 62
         4
100
AcDbCircle
 10
14.5782171257
 20
13.6159447542
 30
0.0
 40
0.059
  0
CIRCLE
  5
10B
102
{ACAD_REACTORS
330
10C
102
}
100
AcDbEntity
  8
UNASSIGNED
370
        25
  6
Continuous
 62
         4
100
AcDbCircle
 10
14.5782171257
 20
13.6159447542
 30
0.0
 40
0.085
  0
CIRCLE
  5
10D
100
AcDbEntity
  8
3_250BIT_500TAB
370
        25
  6
Continuous
 62
         5
100
AcDbCircle
 10
14.0758746205
 20
12.6698396836
 30
0.0
 40
0.25
  0
ARC
  5
10E
102
{ACAD_REACTORS
330
119
102
}
100
AcDbEntity
  8
UNASSIGNED
370
        25
  6
Continuous
 62
         4
100
AcDbCircle
 10
14.3175165364
 20
8.0335017601
 30
0.0
 40
0.285
100
AcDbArc
 50
90.0
 51
164.5679286494
  0
ARC
  5
10F
102
{ACAD_REACTORS
330
119
102
}
100
AcDbEntity
  8
UNASSIGNED
370
        25
  6
Continuous
 62
         4
100
AcDbCircle
 10
14.3175165364
 20
8.0335017601
 30
0.0
 40
0.285
100
AcDbArc
 50
-150.0
 51
-75.4320713505
  0
ARC
  5
110
102
{ACAD_REACTORS
330
119
102
}
100
AcDbEntity
  8
UNASSIGNED
370
        25
  6
Continuous
 62
         4
100
AcDbCircle
 10
14.3175165364
 20
8.0335017601
 30
0.0
 40
0.285
100
AcDbArc
 50
-30.0
 51
44.5679286494
  0
LINE
  5
111
102
{ACAD_REACTORS
330
119
102
}
100
AcDbEntity
  8
UNASSIGNED
370
        25
  6
Continuous
 62
         4
100
AcDbLine
 10
14.0706992963
 20
7.8910017601
 30
0.0
 11
14.1443114556
 21
7.9335017601
 31
0.0
  0
LINE
  5
112
102
{ACAD_REACTORS
330
119
102
}
100
AcDbEntity
  8
UNASSIGNED
370
        25
  6
Continuous
 62
         4
100
AcDbLine
 10
14.1443114556
 20
7.9335017601
 30
0.0
 11
14.0427917531
 21
8.1093390428
 31
0.0
  0
LINE
  5
113
102
{ACAD_REACTORS
330
119
102
}
100
AcDbEntity
  8
UNASSIGNED
370
        25
  6
Continuous
 62
         4
100
AcDbLine
 10
14.5643337765
 20
7.8910017601
 30
0.0
 11
14.4907216171
 21
7.9335017601
 31
0.0
  0
LINE
  5
114
102
{ACAD_REACTORS
330
119
102
}
100
AcDbEntity
  8
UNASSIGNED
370
        25
  6
Continuous
 62
         4
100
AcDbLine
 10
14.4907216171
 20
7.9335017601
 30
0.0
 11
14.3892019146
 21
7.7576644774
 31
0.0
  0
LINE
  5
115
102
{ACAD_REACTORS
330
119
102
}
100
AcDbEntity
  8
UNASSIGNED
370
        25
  6
Continuous
 62
         4
100
AcDbLine
 10
14.3175165364
 20
8.2335017601
 30
0.0
 11
14.5205559414
 21
8.2335017601
 31
0.0
  0
LINE
  5
116
102
{ACAD_REACTORS
330
119
102
}
100
AcDbEntity
  8
UNASSIGNED
370
        25
  6
Continuous
 62
         4
100
AcDbLine
 10
14.3175165364
 20
8.3185017601
 30
0.0
 11
14.3175165364
 21
8.2335017601
 31
0.0
  0
CIRCLE
  5
117
102
{ACAD_REACTORS
330
119
102
}
100
AcDbEntity
  8
UNASSIGNED
370
        25
  6
Continuous
 62
         4
100
AcDbCircle
 10
14.3175165364
 20
8.0335017601
 30
0.0
 40
0.059
  0
CIRCLE
  5
118
102
{ACAD_REACTORS
330
119
102
}
100
AcDbEntity
  8
UNASSIGNED
370
        25
  6
Continuous
 62
         4
100
AcDbCircle
 10
14.3175165364
 20
8.0335017601
 30
0.0
 40
0.085
  0
CIRCLE
  5
11A
100
AcDbEntity
  8
0
370
        25
  6
Continuous
 62
        47
100
AcDbCircle
 10
14.1295818562
 20
10.0646716012
 30
0.0
 40
0.3075
  0
CIRCLE
  5
11B
102
{ACAD_REACTORS
330
11D
102
}
100
AcDbEntity
  8
0
370
        25
  6
Continuous
 62
        47
100
AcDbCircle
 10
14.5782171257
 20
13.6159447542
 30
0.0
 40
0.4
  0
CIRCLE
  5
11C
102
{ACAD_REACTORS
330
11D
102
}
100
AcDbEntity
  8
0
370
        25
  6
Continuous
 62
        47
100
AcDbCircle
 10
14.5782171257
 20
13.6159447542
 30
0.0
 40
0.215
  0
LINE
  5
11E
100
AcDbEntity
  8
Z0_CUT250
370
         5
  6
Continuous
 62
         6
100
AcDbLine
 10
13.4207398039
 20
7.1658563479
 30
0.0
 11
16.2458533675
 21
8.8279576609
 31
0.0
  0
CIRCLE
  5
11F
100
AcDbEntity
  8
Z0_CUT500
370
         5
  6
Continuous
 62
        47
100
AcDbCircle
 10
14.3175165364
 20
8.0335017601
 30
0.0
 40
0.0825
  0
LINE
  5
120
100
AcDbEntity
  8
Z0_CUT500
370
         5
  6
Continuous
 62
        47
100
AcDbLine
 10
12.9040084143
 20
7.9472864013
 30
0.0
 11
15.7703846254
 21
9.2640468635
 31
0.0
  0
LINE
  5
121
100
AcDbEntity
  8
0
370
         5
  6
Continuous
 62
        47
100
AcDbLine
 10
14.3796045738
 20
13.6982736935
 30
0.0
 11
12.7499749442
 21
9.7669112596
 31
0.0
  0
LINE
  5
122
102
{ACAD_REACTORS
330
152
102
}
100
AcDbEntity
  8
Z_TATTOOMYSTIQUE
370
         5
  6
Continuous
 62
         4
100
AcDbLine
 10
14.3903184698
 20
7.1685171668
 30
0.0
 11
14.0709364186
 21
7.8534341859
 31
0.0
  0
LINE
  5
123
102
{ACAD_REACTORS
330
152
102
}
100
AcDbEntity
  8
Z_TATTOOMYSTIQUE
370
         5
  6
Continuous
 62
         4
100
AcDbLine
 10
14.0709364186
 20
7.8534341859
 30
0.0
 11
13.5674543714
 21
7.6186566516
 31
0.0
  0
LINE
  5
124
102
{ACAD_REACTORS
330
152
102
}
100
AcDbEntity
  8
Z_TATTOOMYSTIQUE
370
         5
  6
Continuous
 62
         4
100
AcDbLine
 10
11.1302104832
 20
6.5925945147
 30
0.0
 11
10.131877184
 21
8.7335271838
 31
0.0
  0
LINE
  5
125
102
{ACAD_REACTORS
330
152
102
}
100
AcDbEntity
  8
Z_TATTOOMYSTIQUE
370
         5
  6
Continuous
 62
         4
100
AcDbLine
 10
12.6686165513
 20
10.8607188461
 30
0.0
 11
11.2307443986
 21
10.1902280498
 31
0.0
  0
LINE
  5
126
102
{ACAD_REACTORS
330
152
102
}
100
AcDbEntity
  8
Z_TATTOOMYSTIQUE
370
         5
  6
Continuous
 62
         4
100
AcDbLine
 10
11.5341970513
 20
5.7262425236
 30
0.0
 11
11.623031794
 21
5.5357358031
 31
0.0
  0
LINE
  5
127
102
{ACAD_REACTORS
330
152
102
}
100
AcDbEntity
  8
Z_TATTOOMYSTIQUE
370
         5
  6
Continuous
 62
         4
100
AcDbLine
 10
10.8976952597
 20
5.5398802168
 30
0.0
 11
11.4011773068
 21
5.7746577512
 31
0.0
  0
LINE
  5
128
102
{ACAD_REACTORS
330
152
102
}
100
AcDbEntity
  8
Z_TATTOOMYSTIQUE
370
         5
  6
Continuous
 62
         4
100
AcDbLine
 10
11.0817952556
 20
6.4595747703
 30
0.0
 11
10.5783132084
 21
6.224797236
 31
0.0
  0
LINE
  5
129
102
{ACAD_REACTORS
330
152
102
}
100
AcDbEntity
  8
Z_TATTOOMYSTIQUE
370
         5
  6
Continuous
 62
         4
100
AcDbLine
 10
12.9709135583
 20
7.2968599775
 30
0.0
 11
12.4039292709
 21
7.0324708623
 31
0.0
  0
LINE
  5
12A
102
{ACAD_REACTORS
330
152
102
}
100
AcDbEntity
  8
Z_TATTOOMYSTIQUE
370
         5
  6
Continuous
 62
         4
100
AcDbLine
 10
12.9433745685
 20
6.4937961447
 30
0.0
 11
14.3903184698
 21
7.1685171668
 31
0.0
  0
LINE
  5
12B
102
{ACAD_REACTORS
330
152
102
}
100
AcDbEntity
  8
Z_TATTOOMYSTIQUE
370
         5
  6
Continuous
 62
         4
100
AcDbLine
 10
12.9837940837
 20
6.1702696797
 30
0.0
 11
12.8949593409
 21
6.3607764002
 31
0.0
  0
LINE
  5
12C
102
{ACAD_REACTORS
330
152
102
}
100
AcDbEntity
  8
Z_TATTOOMYSTIQUE
370
         5
  6
Continuous
 62
         4
100
AcDbLine
 10
10.8481413293
 20
10.7738764446
 30
0.0
 11
11.0977246541
 21
10.2386432773
 31
0.0
  0
LINE
  5
12D
102
{ACAD_REACTORS
330
152
102
}
100
AcDbEntity
  8
Z_TATTOOMYSTIQUE
370
         5
  6
Continuous
 62
         4
100
AcDbLine
 10
13.434434627
 20
7.6670718791
 30
0.0
 11
12.4361013278
 21
9.8080045482
 31
0.0
  0
LINE
  5
12E
102
{ACAD_REACTORS
330
152
102
}
100
AcDbEntity
  8
Z_TATTOOMYSTIQUE
370
         5
  6
Continuous
 62
         4
100
AcDbLine
 10
12.8196159722
 20
6.8811732762
 30
0.0
 11
12.555226857
 21
7.4481575636
 31
0.0
  0
LINE
  5
12F
102
{ACAD_REACTORS
330
152
102
}
100
AcDbEntity
  8
Z_TATTOOMYSTIQUE
370
         5
  6
Continuous
 62
         4
100
AcDbLine
 10
9.4783072911
 20
10.1351123422
 30
0.0
 11
10.8481413293
 21
10.7738764446
 31
0.0
  0
LINE
  5
130
102
{ACAD_REACTORS
330
152
102
}
100
AcDbEntity
  8
Z_TATTOOMYSTIQUE
370
         5
  6
Continuous
 62
         4
100
AcDbLine
 10
11.623031794
 20
5.5357358031
 30
0.0
 11
12.9837940837
 21
6.1702696797
 31
0.0
  0
LINE
  5
131
102
{ACAD_REACTORS
330
152
102
}
100
AcDbEntity
  8
Z_TATTOOMYSTIQUE
370
         5
  6
Continuous
 62
         4
100
AcDbLine
 10
11.5836906936
 20
5.620103065
 30
0.0
 11
12.9444529833
 21
6.2546369416
 31
0.0
  0
LINE
  5
132
102
{ACAD_REACTORS
330
152
102
}
100
AcDbEntity
  8
Z_TATTOOMYSTIQUE
370
         5
  6
Continuous
 62
         4
100
AcDbLine
 10
12.6686165513
 20
10.8607188461
 30
0.0
 11
12.9879986025
 21
10.175801827
 31
0.0
  0
LINE
  5
133
102
{ACAD_REACTORS
330
152
102
}
100
AcDbEntity
  8
Z_TATTOOMYSTIQUE
370
         5
  6
Continuous
 62
         4
100
AcDbLine
 10
12.4845165554
 20
9.9410242926
 30
0.0
 11
12.9879986025
 21
10.175801827
 31
0.0
  0
ELLIPSE
  5
134
102
{ACAD_REACTORS
330
152
102
}
100
AcDbEntity
  8
Z_TATTOOMYSTIQUE
370
        25
  6
Continuous
 62
         4
100
AcDbEllipse
 10
10.9865115226
 20
5.7994215427
 30
0.0
 11
-0.0291606600600559
 21
0.062535237305591
 31
0.0
210
0.0
220
0.0
230
1.0
 40
1.0
 41
0.0
 42
6.2831853071789245
  0
ELLIPSE
  5
135
102
{ACAD_REACTORS
330
152
102
}
100
AcDbEntity
  8
Z_TATTOOMYSTIQUE
370
        25
  6
Continuous
 62
         4
100
AcDbEllipse
 10
9.5904771661
 20
8.7930706817
 30
0.0
 11
-0.0291606600600797
 21
0.0625352373055914
 31
0.0
210
0.0
220
0.0
230
1.0
 40
1.0
 41
0.0
 42
6.2831853071785986
  0
ELLIPSE
  5
136
102
{ACAD_REACTORS
330
152
102
}
100
AcDbEntity
  8
Z_TATTOOMYSTIQUE
370
        25
  6
Continuous
 62
         4
100
AcDbEllipse
 10
9.4318436969
 20
9.1332612541
 30
0.0
 11
-0.0291606600601406
 21
0.0625352373056731
 31
0.0
210
0.0
220
0.0
230
1.0
 40
1.0
 41
0.0
 42
6.2831853071793162
  0
ELLIPSE
  5
137
102
{ACAD_REACTORS
330
152
102
}
100
AcDbEntity
  8
Z_TATTOOMYSTIQUE
370
        25
  6
Continuous
 62
         4
100
AcDbEllipse
 10
12.5798601164
 20
10.6012054185
 30
0.0
 11
-0.0625352373055088
 21
-0.0291606600601528
 31
0.0
210
0.0
220
0.0
230
1.0
 40
1.0
 41
4.7123889803846897
 42
10.995574287564276
  0
ELLIPSE
  5
138
102
{ACAD_REACTORS
330
152
102
}
100
AcDbEntity
  8
Z_TATTOOMYSTIQUE
370
        25
  6
Continuous
 62
         4
100
AcDbEllipse
 10
10.8278780535
 20
6.1396121151
 30
0.0
 11
-0.0291606600602516
 21
0.0625352373055553
 31
0.0
210
0.0
220
0.0
230
1.0
 40
1.0
 41
0.0
 42
6.2831853071795862
  0
ELLIPSE
  5
139
102
{ACAD_REACTORS
330
152
102
}
100
AcDbEntity
  8
Z_TATTOOMYSTIQUE
370
        25
  6
Continuous
 62
         4
100
AcDbEllipse
 10
12.7384935855
 20
10.2610148461
 30
0.0
 11
-0.0291606600601355
 21
0.0625352373058064
 31
0.0
210
0.0
220
0.0
230
1.0
 40
1.0
 41
0.0
 42
6.2831853071791564
  0
ELLIPSE
  5
13A
102
{ACAD_REACTORS
330
152
102
}
100
AcDbEntity
  8
Z_TATTOOMYSTIQUE
370
        25
  6
Continuous
 62
         4
100
AcDbEllipse
 10
14.1344681141
 20
7.2673378088
 30
0.0
 11
-0.0625352373055088
 21
-0.0291606600601528
 31
0.0
210
0.0
220
0.0
230
1.0
 40
1.0
 41
4.7123889803846897
 42
10.995574287564276
  0
ELLIPSE
  5
13B
102
{ACAD_REACTORS
330
152
102
}
100
AcDbEntity
  8
Z_TATTOOMYSTIQUE
370
        25
  6
Continuous
 62
         4
100
AcDbEllipse
 10
13.9758346449
 20
7.6075283812
 30
0.0
 11
-0.0625352373055088
 21
-0.0291606600601528
 31
0.0
210
0.0
220
0.0
230
1.0
 40
1.0
 41
4.7123889803846897
 42
10.995574287564276
  0
SPLINE
  5
13C
102
{ACAD_REACTORS
330
152
102
}
100
AcDbEntity
  8
Z_TATTOOMYSTIQUE
370
         5
  6
Continuous
 62
         4
100
AcDbSpline
210
0.0
220
0.0
230
1.0
 70
         0
 71
         3
 72
         8
 73
         4
 74
         0
 42
0.000001
 43
0.000001
 40
0.0
 40
0.0
 40
0.0
 40
0.0
 40
1.0
 40
1.0
 40
1.0
 40
1.0
 10
12.484516555355128
 20
9.9410242926080326
 30
0.0
 10
12.46045677871524
 20
9.9298050345069733
 30
0.0
 10
12.441839264183386
 20
9.9094875860333591
 30
0.0
 10
12.432759647243756
 20
9.884541543514441
 30
0.0
  0
SPLINE
  5
13D
102
{ACAD_REACTORS
330
152
102
}
100
AcDbEntity
  8
Z_TATTOOMYSTIQUE
370
         5
  6
Continuous
 62
         4
100
AcDbSpline
210
0.0
220
0.0
230
1.0
 70
         0
 71
         3
 72
         8
 73
         4
 74
         0
 42
0.000001
 43
0.000001
 40
0.0
 40
0.0
 40
0.0
 40
0.0
 40
1.0
 40
1.0
 40
1.0
 40
1.0
 10
13.490917376100924
 20
7.6153149709933334
 30
0.0
 10
13.515863418620199
 20
7.606235354053867
 30
0.0
 10
13.543394594785696
 20
7.6074373934662685
 30
0.0
 10
13.567454371425811
 20
7.6186566515668126
 30
0.0
  0
SPLINE
  5
13E
102
{ACAD_REACTORS
330
152
102
}
100
AcDbEntity
  8
Z_TATTOOMYSTIQUE
370
         5
  6
Continuous
 62
         4
100
AcDbSpline
210
0.0
220
0.0
230
1.0
 70
         0
 71
         3
 72
         8
 73
         4
 74
         0
 42
0.000001
 43
0.000001
 40
0.0
 40
0.0
 40
0.0
 40
0.0
 40
1.0
 40
1.0
 40
1.0
 40
1.0
 10
12.943374568476656
 20
6.4937961446524186
 30
0.0
 10
12.919314791837223
 20
6.4825768865524482
 30
0.0
 10
12.900697277305142
 20
6.4622594380790206
 30
0.0
 10
12.891617660365682
 20
6.4373133955588751
 30
0.0
  0
SPLINE
  5
13F
102
{ACAD_REACTORS
330
152
102
}
100
AcDbEntity
  8
Z_TATTOOMYSTIQUE
370
         5
  6
Continuous
 62
         4
100
AcDbSpline
210
0.0
220
0.0
230
1.0
 70
         0
 71
         3
 72
         8
 73
         4
 74
         0
 42
0.000001
 43
0.000001
 40
0.0
 40
0.0
 40
0.0
 40
0.0
 40
1.0
 40
1.0
 40
1.0
 40
1.0
 10
12.432759647243756
 20
9.884541543514441
 30
0.0
 10
12.423680030304126
 20
9.8595955009949812
 30
0.0
 10
12.424882069716489
 20
9.8320643248295134
 30
0.0
 10
12.436101327816914
 20
9.8080045481892082
 30
0.0
  0
SPLINE
  5
140
102
{ACAD_REACTORS
330
152
102
}
100
AcDbEntity
  8
Z_TATTOOMYSTIQUE
370
         5
  6
Continuous
 62
         4
100
AcDbSpline
210
0.0
220
0.0
230
1.0
 70
         0
 71
         3
 72
         8
 73
         4
 74
         0
 42
0.000001
 43
0.000001
 40
0.0
 40
0.0
 40
0.0
 40
0.0
 40
1.0
 40
1.0
 40
1.0
 40
1.0
 10
11.097724654137266
 20
10.238643277346041
 30
0.0
 10
11.108943912238033
 20
10.214583500706034
 30
0.0
 10
11.129261360711666
 20
10.195965986174231
 30
0.0
 10
11.154207403230998
 20
10.186886369234776
 30
0.0
  0
SPLINE
  5
141
102
{ACAD_REACTORS
330
152
102
}
100
AcDbEntity
  8
Z_TATTOOMYSTIQUE
370
         5
  6
Continuous
 62
         4
100
AcDbSpline
210
0.0
220
0.0
230
1.0
 70
         0
 71
         3
 72
         8
 73
         4
 74
         0
 42
0.000001
 43
0.000001
 40
0.0
 40
0.0
 40
0.0
 40
0.0
 40
1.0
 40
1.0
 40
1.0
 40
1.0
 10
11.154207403230998
 20
10.186886369234776
 30
0.0
 10
11.179153445750103
 20
10.177806752295103
 30
0.0
 10
11.206684621916565
 20
10.179008791707551
 30
0.0
 10
11.230744398555942
 20
10.19022804980815
 30
0.0
  0
SPLINE
  5
142
102
{ACAD_REACTORS
330
152
102
}
100
AcDbEntity
  8
Z_TATTOOMYSTIQUE
370
         5
  6
Continuous
 62
         4
100
AcDbSpline
210
0.0
220
0.0
230
1.0
 70
         0
 71
         3
 72
         8
 73
         4
 74
         0
 42
0.000001
 43
0.000001
 40
0.0
 40
0.0
 40
0.0
 40
0.0
 40
1.0
 40
1.0
 40
1.0
 40
1.0
 10
13.434434627007363
 20
7.6670718791049577
 30
0.0
 10
13.445653885108243
 20
7.6430121024644873
 30
0.0
 10
13.465971333582161
 20
7.6243945879330628
 30
0.0
 10
13.490917376100924
 20
7.6153149709933334
 30
0.0
  0
SPLINE
  5
143
102
{ACAD_REACTORS
330
152
102
}
100
AcDbEntity
  8
Z_TATTOOMYSTIQUE
370
         5
  6
Continuous
 62
         4
100
AcDbSpline
210
0.0
220
0.0
230
1.0
 70
         0
 71
         3
 72
         8
 73
         4
 74
         0
 42
0.000001
 43
0.000001
 40
0.0
 40
0.0
 40
0.0
 40
0.0
 40
1.0
 40
1.0
 40
1.0
 40
1.0
 10
11.13355216373543
 20
6.5160575193968677
 30
0.0
 10
11.142631780675174
 20
6.5410035619162388
 30
0.0
 10
11.141429741262698
 20
6.5685347380820227
 30
0.0
 10
11.130210483161761
 20
6.5925945147217435
 30
0.0
  0
SPLINE
  5
144
102
{ACAD_REACTORS
330
152
102
}
100
AcDbEntity
  8
Z_TATTOOMYSTIQUE
370
         5
  6
Continuous
 62
         4
100
AcDbSpline
210
0.0
220
0.0
230
1.0
 70
         0
 71
         3
 72
         8
 73
         4
 74
         0
 42
0.000001
 43
0.000001
 40
0.0
 40
0.0
 40
0.0
 40
0.0
 40
1.0
 40
1.0
 40
1.0
 40
1.0
 10
12.891617660365682
 20
6.4373133955588751
 30
0.0
 10
12.882538043426166
 20
6.4123673530402501
 30
0.0
 10
12.883740082838187
 20
6.384836176874388
 30
0.0
 10
12.894959340938669
 20
6.3607764002343261
 30
0.0
  0
SPLINE
  5
145
102
{ACAD_REACTORS
330
152
102
}
100
AcDbEntity
  8
Z_TATTOOMYSTIQUE
370
         5
  6
Continuous
 62
         4
100
AcDbSpline
210
0.0
220
0.0
230
1.0
 70
         0
 71
         3
 72
         8
 73
         4
 74
         0
 42
0.000001
 43
0.000001
 40
0.0
 40
0.0
 40
0.0
 40
0.0
 40
1.0
 40
1.0
 40
1.0
 40
1.0
 10
10.131877183971767
 20
8.7335271838069364
 30
0.0
 10
10.12065792587066
 20
8.7575869604463019
 30
0.0
 10
10.10034047739714
 20
8.7762044749779271
 30
0.0
 10
10.075394434878092
 20
8.7852840919175108
 30
0.0
  0
SPLINE
  5
146
102
{ACAD_REACTORS
330
152
102
}
100
AcDbEntity
  8
Z_TATTOOMYSTIQUE
370
         5
  6
Continuous
 62
         4
100
AcDbSpline
210
0.0
220
0.0
230
1.0
 70
         0
 71
         3
 72
         8
 73
         4
 74
         0
 42
0.000001
 43
0.000001
 40
0.0
 40
0.0
 40
0.0
 40
0.0
 40
1.0
 40
1.0
 40
1.0
 40
1.0
 10
10.075394434878092
 20
8.7852840919175108
 30
0.0
 10
10.050448392359101
 20
8.7943637088571194
 30
0.0
 10
10.022917216193321
 20
8.7931616694450767
 30
0.0
 10
9.9988574395532623
 20
8.7819424113446924
 30
0.0
  0
SPLINE
  5
147
102
{ACAD_REACTORS
330
152
102
}
100
AcDbEntity
  8
Z_TATTOOMYSTIQUE
370
         5
  6
Continuous
 62
         4
100
AcDbSpline
210
0.0
220
0.0
230
1.0
 70
         0
 71
         3
 72
         8
 73
         4
 74
         0
 42
0.000001
 43
0.000001
 40
0.0
 40
0.0
 40
0.0
 40
0.0
 40
1.0
 40
1.0
 40
1.0
 40
1.0
 10
9.6794753883294788
 20
9.4668594304797455
 30
0.0
 10
9.703535164968855
 20
9.4780786885805721
 30
0.0
 10
9.7221526795005389
 20
9.4983961370540904
 30
0.0
 10
9.7312322964403961
 20
9.5233421795731452
 30
0.0
  0
SPLINE
  5
148
102
{ACAD_REACTORS
330
152
102
}
100
AcDbEntity
  8
Z_TATTOOMYSTIQUE
370
         5
  6
Continuous
 62
         4
100
AcDbSpline
210
0.0
220
0.0
230
1.0
 70
         0
 71
         3
 72
         8
 73
         4
 74
         0
 42
0.000001
 43
0.000001
 40
0.0
 40
0.0
 40
0.0
 40
0.0
 40
1.0
 40
1.0
 40
1.0
 40
1.0
 10
9.7312322964403961
 20
9.5233421795731452
 30
0.0
 10
9.7403119133801397
 20
9.548288222092264
 30
0.0
 10
9.7391098739680046
 20
9.5758193982579591
 30
0.0
 10
9.7278906158669542
 20
9.5998791748979855
 30
0.0
  0
SPLINE
  5
149
102
{ACAD_REACTORS
330
152
102
}
100
AcDbEntity
  8
Z_TATTOOMYSTIQUE
370
         5
  6
Continuous
 62
         4
100
AcDbSpline
210
0.0
220
0.0
230
1.0
 70
         0
 71
         3
 72
         8
 73
         4
 74
         0
 42
0.000001
 43
0.000001
 40
0.0
 40
0.0
 40
0.0
 40
0.0
 40
1.0
 40
1.0
 40
1.0
 40
1.0
 10
11.534197051266119
 20
5.72624252363038
 30
0.0
 10
11.522977793165637
 20
5.7503023002704099
 30
0.0
 10
11.502660344692174
 20
5.7689198148018024
 30
0.0
 10
11.477714302172444
 20
5.7779994317417929
 30
0.0
  0
SPLINE
  5
14A
102
{ACAD_REACTORS
330
152
102
}
100
AcDbEntity
  8
Z_TATTOOMYSTIQUE
370
         5
  6
Continuous
 62
         4
100
AcDbSpline
210
0.0
220
0.0
230
1.0
 70
         0
 71
         3
 72
         8
 73
         4
 74
         0
 42
0.000001
 43
0.000001
 40
0.0
 40
0.0
 40
0.0
 40
0.0
 40
1.0
 40
1.0
 40
1.0
 40
1.0
 10
11.477714302172444
 20
5.7779994317417929
 30
0.0
 10
11.452768259653453
 20
5.7870790486816448
 30
0.0
 10
11.425237083487957
 20
5.7858770092687637
 30
0.0
 10
11.40117730684824
 20
5.7746577511684096
 30
0.0
  0
SPLINE
  5
14B
102
{ACAD_REACTORS
330
152
102
}
100
AcDbEntity
  8
Z_TATTOOMYSTIQUE
370
         5
  6
Continuous
 62
         4
100
AcDbSpline
210
0.0
220
0.0
230
1.0
 70
         0
 71
         3
 72
         8
 73
         4
 74
         0
 42
0.000001
 43
0.000001
 40
0.0
 40
0.0
 40
0.0
 40
0.0
 40
1.0
 40
1.0
 40
1.0
 40
1.0
 10
11.081795255624002
 20
6.4595747703032638
 30
0.0
 10
11.105855032264117
 20
6.4707940284036534
 30
0.0
 10
11.124472546795062
 20
6.4911114768782143
 30
0.0
 10
11.13355216373543
 20
6.5160575193968677
 30
0.0
  0
ELLIPSE
  5
14C
102
{ACAD_REACTORS
330
152
102
}
100
AcDbEntity
  8
Z_TATTOOMYSTIQUE
370
        25
  6
Continuous
 62
         4
100
AcDbEllipse
 10
12.6874214146
 20
7.1646654199
 30
0.0
 11
-0.2265769467590874
 21
-0.1056545654353353
 31
0.0
210
0.0
220
0.0
230
1.0
 40
1.0
 41
4.7123889803846897
 42
10.995574287564276
  0
LINE
  5
14D
102
{ACAD_REACTORS
330
152
102
}
100
AcDbEntity
  8
Z_TATTOOMYSTIQUE
370
         5
  6
Continuous
 62
         4
100
AcDbLine
 10
9.4953753924
 20
8.547164877
 30
0.0
 11
9.1759933412
 21
9.2320818961
 31
0.0
  0
LINE
  5
14E
102
{ACAD_REACTORS
330
152
102
}
100
AcDbEntity
  8
Z_TATTOOMYSTIQUE
370
         5
  6
Continuous
 62
         4
100
AcDbLine
 10
9.4953753924
 20
8.547164877
 30
0.0
 11
9.9988574396
 21
8.7819424113
 31
0.0
  0
LINE
  5
14F
102
{ACAD_REACTORS
330
152
102
}
100
AcDbEntity
  8
Z_TATTOOMYSTIQUE
370
         5
  6
Continuous
 62
         4
100
AcDbLine
 10
9.6794753883
 20
9.4668594305
 30
0.0
 11
9.1759933412
 21
9.2320818961
 31
0.0
  0
LINE
  5
150
102
{ACAD_REACTORS
330
152
102
}
100
AcDbEntity
  8
Z_TATTOOMYSTIQUE
370
         5
  6
Continuous
 62
         4
100
AcDbLine
 10
9.7278906159
 20
9.5998791749
 30
0.0
 11
9.4783072911
 21
10.1351123422
 31
0.0
  0
LINE
  5
151
102
{ACAD_REACTORS
330
152
102
}
100
AcDbEntity
  8
Z_TATTOOMYSTIQUE
370
         5
  6
Continuous
 62
         4
100
AcDbLine
 10
10.8976952597
 20
5.5398802168
 30
0.0
 11
10.5783132084
 21
6.224797236
 31
0.0
  0
LINE
  5
153
100
AcDbEntity
  8
Z0_CUT250
370
         5
  6
Continuous
 62
         6
100
AcDbLine
 10
12.9457525887
 20
7.8564160327
 30
0.0
 11
15.8121287999
 21
9.1731764948
 31
0.0
  0
LINE
  5
154
100
AcDbEntity
  8
0
370
         5
  6
Continuous
 62
        47
100
AcDbLine
 10
13.07113258
 20
9.3038163786
 30
0.0
 11
14.2450998416
 21
9.7796946811
 31
0.0
  0
CIRCLE
  5
155
100
AcDbEntity
  8
3_250BIT_500TAB
370
        25
  6
Continuous
 62
         5
100
AcDbCircle
 10
13.2559454724
 20
10.7010444826
 30
0.0
 40
0.25
  0
ARC
  5
156
100
AcDbEntity
  8
Z0_CUT250
370
         5
  6
Continuous
 62
         6
100
AcDbCircle
 10
12.6874214146
 20
7.1646654199
 30
0.0
 40
0.696
100
AcDbArc
 50
1.8072531164
 51
68.1134437949
  0
LINE
  5
157
100
AcDbEntity
  8
0
370
         5
  6
Continuous
 62
        47
100
AcDbLine
 10
14.2087054013
 20
13.7691148739
 30
0.0
 11
12.5667955048
 21
9.8038923176
 31
0.0
  0
LINE
  5
158
100
AcDbEntity
  8
Z0_CUT250
370
         5
  6
Continuous
 62
        47
100
AcDbLine
 10
14.2087054013
 20
13.7691148739
 30
0.0
 11
12.5667955048
 21
9.8038923176
 31
0.0
  0
LINE
  5
159
100
AcDbEntity
  8
Z0_CUT500
370
         5
  6
Continuous
 62
        47
100
AcDbLine
 10
14.1163130078
 20
13.8073724957
 30
0.0
 11
12.4744031114
 21
9.8421499394
 31
0.0
  0
CIRCLE
  5
15A
102
{ACAD_REACTORS
330
167
102
}
100
AcDbEntity
  8
X_ROLLOVER
370
        25
  6
Continuous
 62
        27
100
AcDbCircle
 10
12.6874214146
 20
7.1646654199
 30
0.0
 40
0.125
  0
LINE
  5
15B
102
{ACAD_REACTORS
330
167
102
}
100
AcDbEntity
  8
X_ROLLOVER
370
        25
  6
Continuous
 62
        27
100
AcDbLine
 10
12.8652122092
 20
6.8558152094
 30
0.0
 11
10.7029480499
 21
5.5975340625
 31
0.0
  0
LINE
  5
15C
102
{ACAD_REACTORS
330
167
102
}
100
AcDbEntity
  8
X_ROLLOVER
370
        25
  6
Continuous
 62
        27
100
AcDbLine
 10
12.8344393269
 20
6.9092724833
 30
0.0
 11
10.6787873274
 21
5.6395049881
 31
0.0
  0
LINE
  5
15D
102
{ACAD_REACTORS
330
167
102
}
100
AcDbEntity
  8
X_ROLLOVER
370
        25
  6
Continuous
 62
        27
100
AcDbLine
 10
12.5031994341
 20
7.3946699427
 30
0.0
 11
10.5349668131
 21
5.8502589275
 31
0.0
  0
LINE
  5
15E
102
{ACAD_REACTORS
330
167
102
}
100
AcDbEntity
  8
X_ROLLOVER
370
        25
  6
Continuous
 62
        27
100
AcDbLine
 10
12.4646392257
 20
7.4428130705
 30
0.0
 11
10.504692025
 21
5.888057556
 31
0.0
  0
ARC
  5
15F
102
{ACAD_REACTORS
330
167
102
}
100
AcDbEntity
  8
X_ROLLOVER
370
        25
  6
Continuous
 62
        27
100
AcDbCircle
 10
10.6149538574
 20
5.750393635
 30
0.0
 40
0.127949224
100
AcDbArc
 50
128.6929609507
 51
-60.0729543214
  0
ARC
  5
160
102
{ACAD_REACTORS
330
167
102
}
100
AcDbEntity
  8
X_ROLLOVER
370
        25
  6
Continuous
 62
        27
100
AcDbCircle
 10
10.6149538574
 20
5.750393635
 30
0.0
 40
0.1763775123
100
AcDbArc
 50
128.6929609507
 51
-60.0729543214
  0
ARC
  5
161
102
{ACAD_REACTORS
330
167
102
}
100
AcDbEntity
  8
X_ROLLOVER
370
        25
  6
Continuous
 62
        27
100
AcDbCircle
 10
10.6149538574
 20
5.750393635
 30
0.0
 40
0.2790784964
100
AcDbArc
 50
128.6929609507
 51
-60.0729543214
  0
ARC
  5
162
102
{ACAD_REACTORS
330
167
102
}
100
AcDbEntity
  8
X_ROLLOVER
370
        25
  6
Continuous
 62
        27
100
AcDbCircle
 10
12.6874214146
 20
7.1646654199
 30
0.0
 40
0.2946859661
100
AcDbArc
 50
-60.0729543214
 51
128.6929609507
  0
ARC
  5
163
102
{ACAD_REACTORS
330
167
102
}
100
AcDbEntity
  8
X_ROLLOVER
370
        25
  6
Continuous
 62
        27
100
AcDbCircle
 10
12.6874214146
 20
7.1646654199
 30
0.0
 40
0.3563678145
100
AcDbArc
 50
-60.0729543214
 51
128.6929609507
  0
ARC
  5
164
102
{ACAD_REACTORS
330
167
102
}
100
AcDbEntity
  8
X_ROLLOVER
370
        25
  6
Continuous
 62
        27
100
AcDbCircle
 10
12.6874214146
 20
7.1646654199
 30
0.0
 40
0.4708255675
100
AcDbArc
 50
-60.0729543214
 51
128.6929609507
  0
LINE
  5
165
102
{ACAD_REACTORS
330
167
102
}
100
AcDbEntity
  8
X_ROLLOVER
370
        25
  6
Continuous
 62
        27
100
AcDbLine
 10
10.7541852515
 20
5.5085270891
 30
0.0
 11
12.9223148264
 21
6.7566190988
 31
0.0
  0
LINE
  5
166
102
{ACAD_REACTORS
330
167
102
}
100
AcDbEntity
  8
X_ROLLOVER
370
        25
  6
Continuous
 62
        27
100
AcDbLine
 10
10.4404888362
 20
5.9682164151
 30
0.0
 11
12.3930863308
 21
7.5321481726
 31
0.0
  0
CIRCLE
  5
168
100
AcDbEntity
  8
X_ROLLOVER
370
        25
  6
Continuous
 62
        27
100
AcDbCircle
 10
12.948587496
 20
9.6845823203
 30
0.0
 40
0.35
  0
LINE
  5
169
100
AcDbEntity
  8
0
370
         5
  6
Continuous
 62
        47
100
AcDbLine
 10
13.0144554787
 20
9.4799206266
 30
0.0
 11
14.1763556878
 21
9.9487526266
 31
0.0
  0
CIRCLE
  5
16A
102
{ACAD_REACTORS
330
18E
102
}
100
AcDbEntity
  8
Z_TATTOOMYSTIQUE
370
         5
  6
Continuous
 62
         4
100
AcDbCircle
 10
13.6078367458
 20
13.8837086582
 30
0.0
 40
0.09375
  0
LINE
  5
16B
102
{ACAD_REACTORS
330
18E
102
}
100
AcDbEntity
  8
Z_TATTOOMYSTIQUE
370
         5
  6
Continuous
 62
         4
100
AcDbLine
 10
13.6078367458
 20
13.8837086582
 30
0.0
 11
13.060334048
 21
14.3962911354
 31
0.0
  0
LINE
  5
16C
102
{ACAD_REACTORS
330
18E
102
}
100
AcDbEntity
  8
Z_TATTOOMYSTIQUE
370
         5
  6
Continuous
 62
         4
100
AcDbLine
 10
12.573006667
 20
14.4244562499
 30
0.0
 11
12.6797946831
 21
14.538519312
 31
0.0
  0
LINE
  5
16D
102
{ACAD_REACTORS
330
18E
102
}
100
AcDbEntity
  8
Z_TATTOOMYSTIQUE
370
         5
  6
Continuous
 62
         4
100
AcDbLine
 10
13.2768200986
 20
14.5360768282
 30
0.0
 11
12.6797946831
 21
14.538519312
 31
0.0
  0
LINE
  5
16E
102
{ACAD_REACTORS
330
18E
102
}
100
AcDbEntity
  8
Z_TATTOOMYSTIQUE
370
         5
  6
Continuous
 62
         4
100
AcDbLine
 10
10.4586039485
 20
12.1660076216
 30
0.0
 11
10.5653919646
 21
12.2800706836
 31
0.0
  0
LINE
  5
16F
102
{ACAD_REACTORS
330
18E
102
}
100
AcDbEntity
  8
Z_TATTOOMYSTIQUE
370
         5
  6
Continuous
 62
         4
100
AcDbLine
 10
10.5003316804
 20
11.5704372153
 30
0.0
 11
10.4586039485
 21
12.1660076216
 31
0.0
  0
LINE
  5
170
102
{ACAD_REACTORS
330
18E
102
}
100
AcDbEntity
  8
Z_TATTOOMYSTIQUE
370
         5
  6
Continuous
 62
         4
100
AcDbLine
 10
11.7244701698
 20
11.3233435665
 30
0.0
 11
13.6039392529
 21
13.3308534583
 31
0.0
  0
LINE
  5
171
102
{ACAD_REACTORS
330
18E
102
}
100
AcDbEntity
  8
Z_TATTOOMYSTIQUE
370
         5
  6
Continuous
 62
         4
100
AcDbLine
 10
13.6039392529
 20
13.3308534583
 30
0.0
 11
13.6680120625
 21
13.3992912955
 31
0.0
  0
LINE
  5
172
102
{ACAD_REACTORS
330
18E
102
}
100
AcDbEntity
  8
Z_TATTOOMYSTIQUE
370
         5
  6
Continuous
 62
         4
100
AcDbLine
 10
11.7244701698
 20
11.3233435665
 30
0.0
 11
11.6603973602
 21
11.2549057292
 31
0.0
  0
LINE
  5
173
102
{ACAD_REACTORS
330
18E
102
}
100
AcDbEntity
  8
Z_TATTOOMYSTIQUE
370
         5
  6
Continuous
 62
         4
100
AcDbLine
 10
13.6680120625
 20
13.3992912955
 30
0.0
 11
13.7748000786
 21
13.5133543576
 31
0.0
  0
LINE
  5
174
102
{ACAD_REACTORS
330
18E
102
}
100
AcDbEntity
  8
Z_TATTOOMYSTIQUE
370
         5
  6
Continuous
 62
         4
100
AcDbLine
 10
11.5536093441
 20
11.1408426672
 30
0.0
 11
11.6603973602
 21
11.2549057292
 31
0.0
  0
LINE
  5
175
102
{ACAD_REACTORS
330
18E
102
}
100
AcDbEntity
  8
Z_TATTOOMYSTIQUE
370
         5
  6
Continuous
 62
         4
100
AcDbLine
 10
13.0292065099
 20
11.9853768609
 30
0.0
 11
11.2041975173
 21
13.6939851182
 31
0.0
  0
LINE
  5
176
102
{ACAD_REACTORS
330
18E
102
}
100
AcDbEntity
  8
Z_TATTOOMYSTIQUE
370
         5
  6
Continuous
 62
         4
100
AcDbLine
 10
10.6294647743
 20
12.3485085209
 30
0.0
 11
11.7244701698
 21
11.3233435665
 31
0.0
  0
LINE
  5
177
102
{ACAD_REACTORS
330
18E
102
}
100
AcDbEntity
  8
Z_TATTOOMYSTIQUE
370
         5
  6
Continuous
 62
         4
100
AcDbLine
 10
13.6039392529
 20
13.3308534583
 30
0.0
 11
12.5089338573
 21
14.3560184127
 31
0.0
  0
LINE
  5
178
102
{ACAD_REACTORS
330
18E
102
}
100
AcDbEntity
  8
Z_TATTOOMYSTIQUE
370
         5
  6
Continuous
 62
         4
100
AcDbLine
 10
13.6680120625
 20
13.3992912955
 30
0.0
 11
12.573006667
 21
14.4244562499
 31
0.0
  0
LINE
  5
179
102
{ACAD_REACTORS
330
18E
102
}
100
AcDbEntity
  8
Z_TATTOOMYSTIQUE
370
         5
  6
Continuous
 62
         4
100
AcDbLine
 10
12.5089338573
 20
14.3560184127
 30
0.0
 11
13.6039392529
 21
13.3308534583
 31
0.0
  0
LINE
  5
17A
102
{ACAD_REACTORS
330
18E
102
}
100
AcDbEntity
  8
Z_TATTOOMYSTIQUE
370
         5
  6
Continuous
 62
         4
100
AcDbLine
 10
11.6603973602
 20
11.2549057292
 30
0.0
 11
10.5653919646
 21
12.2800706836
 31
0.0
  0
LINE
  5
17B
102
{ACAD_REACTORS
330
18E
102
}
100
AcDbEntity
  8
Z_TATTOOMYSTIQUE
370
         5
  6
Continuous
 62
         4
100
AcDbLine
 10
10.6294647743
 20
12.3485085209
 30
0.0
 11
11.7244701698
 21
11.3233435665
 31
0.0
  0
CIRCLE
  5
17C
102
{ACAD_REACTORS
330
18E
102
}
100
AcDbEntity
  8
Z_TATTOOMYSTIQUE
370
         5
  6
Continuous
 62
         4
100
AcDbCircle
 10
12.1167020136
 20
12.8396809896
 30
0.0
 40
1.25
  0
LINE
  5
17D
102
{ACAD_REACTORS
330
18E
102
}
100
AcDbEntity
  8
Z_TATTOOMYSTIQUE
370
         5
  6
Continuous
 62
         4
100
AcDbLine
 10
13.7748000786
 20
13.5133543576
 30
0.0
 11
13.7330723467
 21
14.1089247639
 31
0.0
  0
LINE
  5
17E
102
{ACAD_REACTORS
330
18E
102
}
100
AcDbEntity
  8
Z_TATTOOMYSTIQUE
370
         5
  6
Continuous
 62
         4
100
AcDbLine
 10
11.5536093441
 20
11.1408426672
 30
0.0
 11
10.9565839286
 21
11.1432851509
 31
0.0
  0
LINE
  5
17F
102
{ACAD_REACTORS
330
18E
102
}
100
AcDbEntity
  8
Z_TATTOOMYSTIQUE
370
         5
  6
Continuous
 62
         4
100
AcDbLine
 10
12.5089338573
 20
14.3560184127
 30
0.0
 11
10.6294647743
 21
12.3485085209
 31
0.0
  0
LINE
  5
180
102
{ACAD_REACTORS
330
18E
102
}
100
AcDbEntity
  8
Z_TATTOOMYSTIQUE
370
         5
  6
Continuous
 62
         4
100
AcDbLine
 10
12.573006667
 20
14.4244562499
 30
0.0
 11
12.5089338573
 21
14.3560184127
 31
0.0
  0
LINE
  5
181
102
{ACAD_REACTORS
330
18E
102
}
100
AcDbEntity
  8
Z_TATTOOMYSTIQUE
370
         5
  6
Continuous
 62
         4
100
AcDbLine
 10
10.5653919646
 20
12.2800706836
 30
0.0
 11
10.6294647743
 21
12.3485085209
 31
0.0
  0
CIRCLE
  5
182
102
{ACAD_REACTORS
330
18E
102
}
100
AcDbEntity
  8
Z_TATTOOMYSTIQUE
370
         5
  6
Continuous
 62
         4
100
AcDbCircle
 10
12.1167020136
 20
12.8396809896
 30
0.0
 40
0.375
  0
LINE
  5
183
102
{ACAD_REACTORS
330
18E
102
}
100
AcDbEntity
  8
Z_TATTOOMYSTIQUE
370
         5
  6
Continuous
 62
         4
100
AcDbLine
 10
13.1205093648
 20
13.9118737727
 30
0.0
 11
11.1128946624
 21
11.7674882064
 31
0.0
  0
LINE
  5
184
102
{ACAD_REACTORS
330
18E
102
}
100
AcDbEntity
  8
Z_TATTOOMYSTIQUE
370
         5
  6
Continuous
 62
         4
100
AcDbLine
 10
13.1205093648
 20
13.9118737727
 30
0.0
 11
13.5049462227
 21
14.3225007961
 31
0.0
  0
LINE
  5
185
102
{ACAD_REACTORS
330
18E
102
}
100
AcDbEntity
  8
Z_TATTOOMYSTIQUE
370
         5
  6
Continuous
 62
         4
100
AcDbLine
 10
11.1128946624
 20
11.7674882064
 30
0.0
 11
10.7284578045
 21
11.3568611831
 31
0.0
  0
LINE
  5
186
102
{ACAD_REACTORS
330
18E
102
}
100
AcDbEntity
  8
Z_TATTOOMYSTIQUE
370
         5
  6
Continuous
 62
         4
100
AcDbLine
 10
13.7330723467
 20
14.1089247639
 30
0.0
 11
13.2768200986
 21
14.5360768282
 31
0.0
  0
LINE
  5
187
102
{ACAD_REACTORS
330
18E
102
}
100
AcDbEntity
  8
Z_TATTOOMYSTIQUE
370
         5
  6
Continuous
 62
         4
100
AcDbLine
 10
10.9565839286
 20
11.1432851509
 30
0.0
 11
10.5003316804
 21
11.5704372153
 31
0.0
  0
LINE
  5
188
102
{ACAD_REACTORS
330
18E
102
}
100
AcDbEntity
  8
Z_TATTOOMYSTIQUE
370
         5
  6
Continuous
 62
         4
100
AcDbLine
 10
11.1128946624
 20
11.7674882064
 30
0.0
 11
10.8993186302
 21
11.5393620824
 31
0.0
  0
CIRCLE
  5
189
102
{ACAD_REACTORS
330
18E
102
}
100
AcDbEntity
  8
Z_TATTOOMYSTIQUE
370
         5
  6
Continuous
 62
         4
100
AcDbCircle
 10
10.6255672813
 20
11.795653321
 30
0.0
 40
0.09375
  0
CIRCLE
  5
18A
102
{ACAD_REACTORS
330
18E
102
}
100
AcDbEntity
  8
Z_TATTOOMYSTIQUE
370
         5
  6
Continuous
 62
         4
100
AcDbCircle
 10
11.1730699791
 20
11.2830708438
 30
0.0
 40
0.09375
  0
LINE
  5
18B
102
{ACAD_REACTORS
330
18E
102
}
100
AcDbEntity
  8
Z_TATTOOMYSTIQUE
370
         5
  6
Continuous
 62
         4
100
AcDbLine
 10
11.1730699791
 20
11.2830708438
 30
0.0
 11
10.6255672813
 21
11.795653321
 31
0.0
  0
LINE
  5
18C
102
{ACAD_REACTORS
330
18E
102
}
100
AcDbEntity
  8
Z_TATTOOMYSTIQUE
370
         5
  6
Continuous
 62
         4
100
AcDbLine
 10
13.3340853969
 20
14.1399998968
 30
0.0
 11
13.1205093648
 21
13.9118737727
 31
0.0
  0
CIRCLE
  5
18D
102
{ACAD_REACTORS
330
18E
102
}
100
AcDbEntity
  8
Z_TATTOOMYSTIQUE
370
         5
  6
Continuous
 62
         4
100
AcDbCircle
 10
13.060334048
 20
14.3962911354
 30
0.0
 40
0.09375
  0
ARC
  5
18F
102
{ACAD_REACTORS
330
19A
102
}
100
AcDbEntity
  8
UNASSIGNED
370
        25
  6
Continuous
 62
         4
100
AcDbCircle
 10
12.948587496
 20
9.6845823203
 30
0.0
 40
0.285
100
AcDbArc
 50
90.0
 51
164.5679286494
  0
ARC
  5
190
102
{ACAD_REACTORS
330
19A
102
}
100
AcDbEntity
  8
UNASSIGNED
370
        25
  6
Continuous
 62
         4
100
AcDbCircle
 10
12.948587496
 20
9.6845823203
 30
0.0
 40
0.285
100
AcDbArc
 50
-150.0
 51
-75.4320713506
  0
ARC
  5
191
102
{ACAD_REACTORS
330
19A
102
}
100
AcDbEntity
  8
UNASSIGNED
370
        25
  6
Continuous
 62
         4
100
AcDbCircle
 10
12.948587496
 20
9.6845823203
 30
0.0
 40
0.285
100
AcDbArc
 50
-30.0
 51
44.5679286494
  0
LINE
  5
192
102
{ACAD_REACTORS
330
19A
102
}
100
AcDbEntity
  8
UNASSIGNED
370
        25
  6
Continuous
 62
         4
100
AcDbLine
 10
12.701770256
 20
9.5420823203
 30
0.0
 11
12.7753824153
 21
9.5845823203
 31
0.0
  0
LINE
  5
193
102
{ACAD_REACTORS
330
19A
102
}
100
AcDbEntity
  8
UNASSIGNED
370
        25
  6
Continuous
 62
         4
100
AcDbLine
 10
12.7753824153
 20
9.5845823203
 30
0.0
 11
12.6738627128
 21
9.760419603
 31
0.0
  0
LINE
  5
194
102
{ACAD_REACTORS
330
19A
102
}
100
AcDbEntity
  8
UNASSIGNED
370
        25
  6
Continuous
 62
         4
100
AcDbLine
 10
13.1954047361
 20
9.5420823203
 30
0.0
 11
13.1217925768
 21
9.5845823203
 31
0.0
  0
LINE
  5
195
102
{ACAD_REACTORS
330
19A
102
}
100
AcDbEntity
  8
UNASSIGNED
370
        25
  6
Continuous
 62
         4
100
AcDbLine
 10
13.1217925768
 20
9.5845823203
 30
0.0
 11
13.0202728743
 21
9.4087450376
 31
0.0
  0
LINE
  5
196
102
{ACAD_REACTORS
330
19A
102
}
100
AcDbEntity
  8
UNASSIGNED
370
        25
  6
Continuous
 62
         4
100
AcDbLine
 10
12.948587496
 20
9.8845823203
 30
0.0
 11
13.1516269011
 21
9.8845823203
 31
0.0
  0
LINE
  5
197
102
{ACAD_REACTORS
330
19A
102
}
100
AcDbEntity
  8
UNASSIGNED
370
        25
  6
Continuous
 62
         4
100
AcDbLine
 10
12.948587496
 20
9.9695823203
 30
0.0
 11
12.948587496
 21
9.8845823203
 31
0.0
  0
CIRCLE
  5
198
102
{ACAD_REACTORS
330
19A
102
}
100
AcDbEntity
  8
UNASSIGNED
370
        25
  6
Continuous
 62
         4
100
AcDbCircle
 10
12.948587496
 20
9.6845823203
 30
0.0
 40
0.059
  0
CIRCLE
  5
199
102
{ACAD_REACTORS
330
19A
102
}
100
AcDbEntity
  8
UNASSIGNED
370
        25
  6
Continuous
 62
         4
100
AcDbCircle
 10
12.948587496
 20
9.6845823203
 30
0.0
 40
0.085
  0
CIRCLE
  5
19B
102
{ACAD_REACTORS
330
19D
102
}
100
AcDbEntity
  8
0
370
        25
  6
Continuous
 62
        47
100
AcDbCircle
 10
12.948587496
 20
9.6845823203
 30
0.0
 40
0.4
  0
CIRCLE
  5
19C
102
{ACAD_REACTORS
330
19D
102
}
100
AcDbEntity
  8
0
370
        25
  6
Continuous
 62
        47
100
AcDbCircle
 10
12.948587496
 20
9.6845823203
 30
0.0
 40
0.215
  0
LINE
  5
19E
100
AcDbEntity
  8
Z0_CUT250
370
         5
  6
Continuous
 62
        47
100
AcDbLine
 10
13.07113258
 20
9.3038163786
 30
0.0
 11
14.2450998416
 21
9.7796946811
 31
0.0
  0
LINE
  5
19F
100
AcDbEntity
  8
Z0_CUT500
370
         5
  6
Continuous
 62
        47
100
AcDbLine
 10
13.1086994045
 20
9.2111409574
 30
0.0
 11
14.2810223204
 21
9.6863527094
 31
0.0
  0
ARC
  5
1A0
100
AcDbEntity
  8
Z0_CUT500
370
         5
  6
Continuous
 62
        47
100
AcDbCircle
 10
12.6874214146
 20
7.1646654199
 30
0.0
 40
0.596
100
AcDbArc
 50
1.8072531164
 51
68.1134437949
  0
ARC
  5
1A1
100
AcDbEntity
  8
Z0_CUT500
370
         5
  6
Continuous
 62
        47
100
AcDbCircle
 10
12.9561886324
 20
7.8336984405
 30
0.0
 40
0.125
100
AcDbArc
 50
114.6731791656
 51
-111.8865562051
  0
ARC
  5
1A2
100
AcDbEntity
  8
Z0_CUT250
370
         5
  6
Continuous
 62
         6
100
AcDbCircle
 10
12.9561886324
 20
7.8336984405
 30
0.0
 40
0.025
100
AcDbArc
 50
114.6731791655
 51
-111.8865562051
  0
ARC
  5
1A3
100
AcDbEntity
  8
Z0_CUT250
370
         5
  6
Continuous
 62
        47
100
AcDbCircle
 10
12.9260139899
 20
9.6618164658
 30
0.0
 40
0.3862945349
100
AcDbArc
 50
158.4205214593
 51
-67.9343795047
  0
ARC
  5
1A4
100
AcDbEntity
  8
Z0_CUT500
370
         5
  6
Continuous
 62
        47
100
AcDbCircle
 10
12.9260139899
 20
9.6618164658
 30
0.0
 40
0.4862945349
100
AcDbArc
 50
158.4205214593
 51
-67.9343795047
  0
CIRCLE
  5
1A5
100
AcDbEntity
  8
3_250BIT_500TAB
370
        25
  6
Continuous
 62
         5
100
AcDbCircle
 10
12.6874214146
 20
7.1646654199
 30
0.0
 40
0.25
  0
CIRCLE
  5
1A6
100
AcDbEntity
  8
X_ROLLOVER
370
        25
  6
Continuous
 62
        27
100
AcDbCircle
 10
12.948587496
 20
9.6845823203
 30
0.0
 40
0.075
  0
ENDSEC
  0
SECTION
  2
OBJECTS
  0
DICTIONARY
  5
19
100
AcDbDictionary
280
         0
281
         1
  3
ACAD_GROUP
350
1A
  3
ACAD_MLINESTYLE
350
1B
  3
ACAD_LAYOUT
350
1E
  3
ACAD_PLOTSETTINGS
350
22
  3
ACAD_PLOTSTYLENAME
350
1F
  3
ACAD_WIPEOUT_VARS
350
23
  0
DICTIONARY
  5
1A
102
{ACAD_REACTORS
330
19
102
}
100
AcDbDictionary
280
         0
281
         1
  3
VELLUMGRP1
350
63
  3
VELLUMGRP2
350
7B
  3
VELLUMGRP3
350
90
  3
VELLUMGRP4
350
93
  3
VELLUMGRP5
350
A1
  3
VELLUMGRP6
350
A4
  3
VELLUMGRP7
350
B6
  3
VELLUMGRP8
350
B9
  3
VELLUMGRP9
350
BD
  3
VELLUMGRP10
350
CD
  3
VELLUMGRP11
350
D9
  3
VELLUMGRP12
350
FA
  3
VELLUMGRP13
350
10C
  3
VELLUMGRP14
350
119
  3
VELLUMGRP15
350
11D
  3
VELLUMGRP16
350
152
  3
VELLUMGRP17
350
167
  3
VELLUMGRP18
350
18E
  3
VELLUMGRP19
350
19A
  3
VELLUMGRP20
350
19D
  0
DICTIONARY
  5
1B
102
{ACAD_REACTORS
330
19
102
}
100
AcDbDictionary
280
         0
281
         1
  3
Standard
350
1C
  0
MLINESTYLE
  5
1C
102
{ACAD_REACTORS
330
1B
102
}
100
AcDbMlineStyle
  2
Standard
 70
         0
  3

 62
         0
 51
90.0
 52
90.0
 71
         2
 49
0.5
 62
       256
  6
BYLAYER
 49
-0.5
 62
       256
  6
BYLAYER
  0
ACDBDICTIONARYWDFLT
  5
1F
102
{ACAD_REACTORS
330
19
102
}
100
AcDbDictionary
281
         1
  3
Normal
350
1D
100
AcDbDictionaryWithDefault
340
1D
  0
ACDBPLACEHOLDER
  5
1D
102
{ACAD_REACTORS
330
1F
102
}
  0
LAYOUT
  5
20
102
{ACAD_REACTORS
330
1E
102
}
100
AcDbPlotSettings
  1

  2

  4

  6

 40
0.0
 41
0.0
 42
0.0
 43
0.0
 44
0.0
 45
0.0
 46
0.0
 47
0.0
 48
0.0
 49
0.0
140
0.0
141
0.0
142
1.0
143
1.0
 70
      1024
 72
         0
 73
         0
 74
         0
  7

 75
         0
147
1.0
148
0.0
149
0.0
100
AcDbLayout
  1
Model
 70
         0
 71
         0
 10
0.0
 20
0.0
 11
0.0
 21
0.0
 12
0.0
 22
0.0
 32
0.0
 14
0.0
 24
0.0
 34
0.0
 15
0.0
 25
0.0
 35
0.0
146
0.0
 13
0.0
 23
0.0
 33
0.0
 16
0.0
 26
0.0
 36
0.0
 17
0.0
 27
0.0
 37
0.0
 76
         0
330
A
331
0
345
0
346
0
  0
LAYOUT
  5
21
102
{ACAD_REACTORS
330
1E
102
}
100
AcDbPlotSettings
  1

  2

  4

  6

 40
0.0
 41
0.0
 42
0.0
 43
0.0
 44
0.0
 45
0.0
 46
0.0
 47
0.0
 48
0.0
 49
0.0
140
0.0
141
0.0
142
1.0
143
1.0
 70
         0
 72
         0
 73
         0
 74
         0
  7

 75
         0
147
1.0
148
0.0
149
0.0
100
AcDbLayout
  1
Layout1
 70
         0
 71
         0
 10
0.0
 20
0.0
 11
0.0
 21
0.0
 12
0.0
 22
0.0
 32
0.0
 14
0.0
 24
0.0
 34
0.0
 15
0.0
 25
0.0
 35
0.0
146
0.0
 13
0.0
 23
0.0
 33
0.0
 16
0.0
 26
0.0
 36
0.0
 17
0.0
 27
0.0
 37
0.0
 76
         0
330
B
331
0
345
0
346
0
  0
DICTIONARY
  5
1E
102
{ACAD_REACTORS
330
19
102
}
100
AcDbDictionary
280
         0
281
         1
  3
Layout1
350
21
  3
Model
350
20
  0
DICTIONARY
  5
22
102
{ACAD_REACTORS
330
19
102
}
100
AcDbDictionary
280
         0
281
         1
  0
WIPEOUTVARIABLES
  5
23
100
AcDbWipeoutVariables
 70
         1
  0
GROUP
  5
63
102
{ACAD_XDICTIONARY
360
5CEB210060EB2100
102
}
102
{ACAD_REACTORS
330
1A
102
}
100
AcDbGroup
300
This is Vellum Group Number 1
 70
         0
 71
         1
340
58
340
59
340
5A
340
5B
340
5C
340
5D
340
5E
340
5F
340
60
340
61
340
62
  0
GROUP
  5
7B
102
{ACAD_XDICTIONARY
360
3207917C60EB2100
102
}
102
{ACAD_REACTORS
330
1A
102
}
100
AcDbGroup
300
This is Vellum Group Number 2
 70
         0
 71
         1
340
79
340
7A
  0
GROUP
  5
90
102
{ACAD_XDICTIONARY
360
3207917C60EB2100
102
}
102
{ACAD_REACTORS
330
1A
102
}
100
AcDbGroup
300
This is Vellum Group Number 3
 70
         0
 71
         1
340
85
340
86
340
87
340
88
340
89
340
8A
340
8B
340
8C
340
8D
340
8E
340
8F
  0
GROUP
  5
93
102
{ACAD_XDICTIONARY
360
3207917C60EB2100
102
}
102
{ACAD_REACTORS
330
1A
102
}
100
AcDbGroup
300
This is Vellum Group Number 4
 70
         0
 71
         1
340
91
340
92
  0
GROUP
  5
A1
102
{ACAD_XDICTIONARY
360
3207917C60EB2100
102
}
102
{ACAD_REACTORS
330
1A
102
}
100
AcDbGroup
300
This is Vellum Group Number 5
 70
         0
 71
         1
340
96
340
97
340
98
340
99
340
9A
340
9B
340
9C
340
9D
340
9E
340
9F
340
A0
  0
GROUP
  5
A4
102
{ACAD_XDICTIONARY
360
3207917C60EB2100
102
}
102
{ACAD_REACTORS
330
1A
102
}
100
AcDbGroup
300
This is Vellum Group Number 6
 70
         0
 71
         1
340
A2
340
A3
  0
GROUP
  5
B6
102
{ACAD_XDICTIONARY
360
3207917C60EB2100
102
}
102
{ACAD_REACTORS
330
1A
102
}
100
AcDbGroup
300
This is Vellum Group Number 7
 70
         0
 71
         1
340
AB
340
AC
340
AD
340
AE
340
AF
340
B0
340
B1
340
B2
340
B3
340
B4
340
B5
  0
GROUP
  5
B9
102
{ACAD_XDICTIONARY
360
3207917C60EB2100
102
}
102
{ACAD_REACTORS
330
1A
102
}
100
AcDbGroup
300
This is Vellum Group Number 8
 70
         0
 71
         1
340
B7
340
B8
  0
GROUP
  5
BD
102
{ACAD_XDICTIONARY
360
3207917C60EB2100
102
}
102
{ACAD_REACTORS
330
1A
102
}
100
AcDbGroup
300
This is Vellum Group Number 9
 70
         0
 71
         1
340
BB
340
BC
  0
GROUP
  5
CD
102
{ACAD_XDICTIONARY
360
3207917C60EB2100
102
}
102
{ACAD_REACTORS
330
1A
102
}
100
AcDbGroup
300
This is Vellum Group Number 10
 70
         0
 71
         1
340
C2
340
C3
340
C4
340
C5
340
C6
340
C7
340
C8
340
C9
340
CA
340
CB
340
CC
  0
GROUP
  5
D9
102
{ACAD_XDICTIONARY
360
3207917C60EB2100
102
}
102
{ACAD_REACTORS
330
1A
102
}
100
AcDbGroup
300
This is Vellum Group Number 11
 70
         0
 71
         1
340
CE
340
CF
340
D0
340
D1
340
D2
340
D3
340
D4
340
D5
340
D6
340
D7
340
D8
  0
GROUP
  5
FA
102
{ACAD_XDICTIONARY
360
3207917C60EB2100
102
}
102
{ACAD_REACTORS
330
1A
102
}
100
AcDbGroup
300
This is Vellum Group Number 12
 70
         0
 71
         1
340
EF
340
F0
340
F1
340
F2
340
F3
340
F4
340
F5
340
F6
340
F7
340
F8
340
F9
  0
GROUP
  5
10C
102
{ACAD_XDICTIONARY
360
3207917C60EB2100
102
}
102
{ACAD_REACTORS
330
1A
102
}
100
AcDbGroup
300
This is Vellum Group Number 13
 70
         0
 71
         1
340
101
340
102
340
103
340
104
340
105
340
106
340
107
340
108
340
109
340
10A
340
10B
  0
GROUP
  5
119
102
{ACAD_XDICTIONARY
360
3207917C60EB2100
102
}
102
{ACAD_REACTORS
330
1A
102
}
100
AcDbGroup
300
This is Vellum Group Number 14
 70
         0
 71
         1
340
10E
340
10F
340
110
340
111
340
112
340
113
340
114
340
115
340
116
340
117
340
118
  0
GROUP
  5
11D
102
{ACAD_XDICTIONARY
360
3207917C60EB2100
102
}
102
{ACAD_REACTORS
330
1A
102
}
100
AcDbGroup
300
This is Vellum Group Number 15
 70
         0
 71
         1
340
11B
340
11C
  0
GROUP
  5
152
102
{ACAD_XDICTIONARY
360
3207917C60EB2100
102
}
102
{ACAD_REACTORS
330
1A
102
}
100
AcDbGroup
300
This is Vellum Group Number 16
 70
         0
 71
         1
340
122
340
123
340
124
340
125
340
126
340
127
340
128
340
129
340
12A
340
12B
340
12C
340
12D
340
12E
340
12F
340
130
340
131
340
132
340
133
340
134
340
135
340
136
340
137
340
138
340
139
340
13A
340
13B
340
13C
340
13D
340
13E
340
13F
340
140
340
141
340
142
340
143
340
144
340
145
340
146
340
147
340
148
340
149
340
14A
340
14B
340
14C
340
14D
340
14E
340
14F
340
150
340
151
  0
GROUP
  5
167
102
{ACAD_XDICTIONARY
360
3207917C60EB2100
102
}
102
{ACAD_REACTORS
330
1A
102
}
100
AcDbGroup
300
This is Vellum Group Number 17
 70
         0
 71
         1
340
15A
340
15B
340
15C
340
15D
340
15E
340
15F
340
160
340
161
340
162
340
163
340
164
340
165
340
166
  0
GROUP
  5
18E
102
{ACAD_XDICTIONARY
360
3207917C60EB2100
102
}
102
{ACAD_REACTORS
330
1A
102
}
100
AcDbGroup
300
This is Vellum Group Number 18
 70
         0
 71
         1
340
16A
340
16B
340
16C
340
16D
340
16E
340
16F
340
170
340
171
340
172
340
173
340
174
340
175
340
176
340
177
340
178
340
179
340
17A
340
17B
340
17C
340
17D
340
17E
340
17F
340
180
340
181
340
182
340
183
340
184
340
185
340
186
340
187
340
188
340
189
340
18A
340
18B
340
18C
340
18D
  0
GROUP
  5
19A
102
{ACAD_XDICTIONARY
360
3207917C60EB2100
102
}
102
{ACAD_REACTORS
330
1A
102
}
100
AcDbGroup
300
This is Vellum Group Number 19
 70
         0
 71
         1
340
18F
340
190
340
191
340
192
340
193
340
194
340
195
340
196
340
197
340
198
340
199
  0
GROUP
  5
19D
102
{ACAD_XDICTIONARY
360
3207917C60EB2100
102
}
102
{ACAD_REACTORS
330
1A
102
}
100
AcDbGroup
300
This is Vellum Group Number 20
 70
         0
 71
         1
340
19B
340
19C
  0
ENDSEC
  0
EOF
