  0
SECTION
  2
HEADER
  9
$ACADVER
  1
AC1015
  9
$ACADMAINTVER
 70
         6
  9
$DWGCODEPAGE
  3
ANSI_1252
  9
$INSBASE
 10
0.0
 20
0.0
 30
0.0
  9
$EXTMIN
 10
-0.93969262
 20
-0.98480775
 30
0.0
  9
$EXTMAX
 10
13.0
 20
12.98480775
 30
0.0
  9
$LIMMIN
 10
0.0
 20
0.0
  9
$LIMMAX
 10
0.0
 20
0.0
  9
$ORTHOMODE
 70
         0
  9
$REGENMODE
 70
         1
  9
$FILLMODE
 70
         1
  9
$QTEXTMODE
 70
         0
  9
$MIRRTEXT
 70
         1
  9
$LTSCALE
 40
5.0
  9
$ATTMODE
 70
         1
  9
$TEXTSIZE
 40
0.2
  9
$TRACEWID
 40
0.05
  9
$TEXTSTYLE
  7
Standard
  9
$CLAYER
  8
0
  9
$CELTYPE
  6
Continuous
  9
$CECOLOR
 62
       256
  9
$CELTSCALE
 40
1.0
  9
$DISPSILH
 70
         0
  9
$DIMSCALE
 40
1.0
  9
$DIMASZ
 40
0.18
  9
$DIMEXO
 40
0.0625
  9
$DIMDLI
 40
0.38
  9
$DIMRND
 40
0.0
  9
$DIMDLE
 40
0.0
  9
$DIMEXE
 40
0.18
  9
$DIMTP
 40
0.0
  9
$DIMTM
 40
0.0
  9
$DIMTXT
 40
0.18
  9
$DIMCEN
 40
0.09
  9
$DIMTSZ
 40
0.0
  9
$DIMTOL
 70
         0
  9
$DIMLIM
 70
         0
  9
$DIMTIH
 70
         1
  9
$DIMTOH
 70
         1
  9
$DIMSE1
 70
         0
  9
$DIMSE2
 70
         0
  9
$DIMTAD
 70
         0
  9
$DIMZIN
 70
         0
  9
$DIMBLK
  1

  9
$DIMASO
 70
         1
  9
$DIMSHO
 70
         1
  9
$DIMPOST
  1

  9
$DIMAPOST
  1

  9
$DIMALT
 70
         0
  9
$DIMALTD
 70
         2
  9
$DIMALTF
 40
25.4
  9
$DIMLFAC
 40
1.0
  9
$DIMTOFL
 70
         0
  9
$DIMTVP
 40
0.0
  9
$DIMTIX
 70
         0
  9
$DIMSOXD
 70
         0
  9
$DIMSAH
 70
         0
  9
$DIMBLK1
  1

  9
$DIMBLK2
  1

  9
$DIMSTYLE
  2
Standard
  9
$DIMCLRD
 70
         0
  9
$DIMCLRE
 70
         0
  9
$DIMCLRT
 70
         0
  9
$DIMTFAC
 40
1.0
  9
$DIMGAP
 40
0.09
  9
$DIMJUST
 70
         0
  9
$DIMSD1
 70
         0
  9
$DIMSD2
 70
         0
  9
$DIMTOLJ
 70
         1
  9
$DIMTZIN
 70
         0
  9
$DIMALTZ
 70
         0
  9
$DIMALTTZ
 70
         0
  9
$DIMUPT
 70
         0
  9
$DIMDEC
 70
         4
  9
$DIMTDEC
 70
         4
  9
$DIMALTU
 70
         2
  9
$DIMALTTD
 70
         2
  9
$DIMTXSTY
  7
Standard
  9
$DIMAUNIT
 70
         0
  9
$DIMADEC
 70
         0
  9
$DIMALTRND
 40
0.0
  9
$DIMAZIN
 70
         0
  9
$DIMDSEP
 70
         0
  9
$DIMATFIT
 70
         3
  9
$DIMFRAC
 70
         0
  9
$DIMLDRBLK
  1

  9
$DIMLUNIT
 70
         2
  9
$DIMLWD
 70
         0
  9
$DIMLWE
 70
         0
  9
$DIMTMOVE
 70
         0
  9
$LUNITS
 70
         2
  9
$LUPREC
 70
         4
  9
$SKETCHINC
 40
0.1
  9
$FILLETRAD
 40
0.0
  9
$AUNITS
 70
         0
  9
$AUPREC
 70
         0
  9
$MENU
  1
acad
  9
$ELEVATION
 40
0.0
  9
$PELEVATION
 40
0.0
  9
$THICKNESS
 40
0.0
  9
$LIMCHECK
 70
         0
  9
$CHAMFERA
 40
0.0
  9
$CHAMFERB
 40
0.0
  9
$CHAMFERC
 40
0.0
  9
$CHAMFERD
 40
0.0
  9
$SKPOLY
 70
         0
  9
$TDCREATE
 40
2460904.670520833
  9
$TDUCREATE
 40
0.000000000
  9
$TDUPDATE
 40
2460904.670520833
  9
$TDUUPDATE
 40
0.000000000
  9
$TDINDWG
 40
0.0000000000
  9
$TDUSRTIMER
 40
0.0000000000
  9
$USRTIMER
 70
         1
  9
$ANGBASE
 50
0.0
  9
$ANGDIR
 70
         0
  9
$PDMODE
 70
         0
  9
$PDSIZE
 40
0.0
  9
$PLINEWID
 40
0.0
  9
$SPLFRAME
 70
         0
  9
$SPLINETYPE
 70
         6
  9
$SPLINESEGS
 70
         8
  9
$HANDSEED
  5
EA
  9
$SURFTAB1
 70
         6
  9
$SURFTAB2
 70
         6
  9
$SURFTYPE
 70
         6
  9
$SURFU
 70
         6
  9
$SURFV
 70
         6
  9
$UCSBASE
  2

  9
$UCSNAME
  2

  9
$UCSORG
 10
0.0
 20
0.0
 30
0.0
  9
$UCSXDIR
 10
1.0
 20
0.0
 30
0.0
  9
$UCSYDIR
 10
0.0
 20
1.0
 30
0.0
  9
$UCSORTHOREF
  2

  9
$UCSORTHOVIEW
 70
         0
  9
$UCSORGTOP
 10
0.0
 20
0.0
 30
0.0
  9
$UCSORGBOTTOM
 10
0.0
 20
0.0
 30
0.0
  9
$UCSORGLEFT
 10
0.0
 20
0.0
 30
0.0
  9
$UCSORGRIGHT
 10
0.0
 20
0.0
 30
0.0
  9
$UCSORGFRONT
 10
0.0
 20
0.0
 30
0.0
  9
$UCSORGBACK
 10
0.0
 20
0.0
 30
0.0
  9
$PUCSBASE
  2

  9
$PUCSNAME
  2

  9
$PUCSORG
 10
0.0
 20
0.0
 30
0.0
  9
$PUCSXDIR
 10
1.0
 20
0.0
 30
0.0
  9
$PUCSYDIR
 10
0.0
 20
1.0
 30
0.0
  9
$PUCSORTHOREF
  2

  9
$PUCSORTHOVIEW
 70
         0
  9
$PUCSORGTOP
 10
0.0
 20
0.0
 30
0.0
  9
$PUCSORGBOTTOM
 10
0.0
 20
0.0
 30
0.0
  9
$PUCSORGLEFT
 10
0.0
 20
0.0
 30
0.0
  9
$PUCSORGRIGHT
 10
0.0
 20
0.0
 30
0.0
  9
$PUCSORGFRONT
 10
0.0
 20
0.0
 30
0.0
  9
$PUCSORGBACK
 10
0.0
 20
0.0
 30
0.0
  9
$USERI1
 70
         0
  9
$USERI2
 70
         0
  9
$USERI3
 70
         0
  9
$USERI4
 70
         0
  9
$USERI5
 70
         0
  9
$USERR1
 40
0.0
  9
$USERR2
 40
0.0
  9
$USERR3
 40
0.0
  9
$USERR4
 40
0.0
  9
$USERR5
 40
0.0
  9
$WORLDVIEW
 70
         1
  9
$SHADEDGE
 70
         3
  9
$SHADEDIF
 70
        70
  9
$TILEMODE
 70
         1
  9
$MAXACTVP
 70
        16
  9
$PINSBASE
 10
0.0
 20
0.0
 30
0.0
  9
$PLIMCHECK
 70
         0
  9
$PEXTMIN
 10
1.0000000000E+20
 20
1.0000000000E+20
 30
1.0000000000E+20
  9
$PEXTMAX
 10
-1.0000000000E+20
 20
-1.0000000000E+20
 30
-1.0000000000E+20
  9
$PLIMMIN
 10
0.0
 20
0.0
  9
$PLIMMAX
 10
12.0
 20
9.0
  9
$UNITMODE
 70
         0
  9
$VISRETAIN
 70
         0
  9
$PLINEGEN
 70
         1
  9
$PSLTSCALE
 70
         0
  9
$TREEDEPTH
 70
      3020
  9
$CMLSTYLE
  2
Standard
  9
$CMLJUST
 70
         0
  9
$CMLSCALE
 40
1.0
  9
$PROXYGRAPHICS
 70
         0
  9
$MEASUREMENT
 70
         0
  9
$CELWEIGHT
370
         0
  9
$ENDCAPS
280
         0
  9
$JOINSTYLE
280
         0
  9
$LWDISPLAY
290
         0
  9
$INSUNITS
 70
         0
  9
$HYPERLINKBASE
  1

  9
$XEDIT
290
         1
  9
$CEPSNTYPE
380
         0
  9
$PSTYLEMODE
290
         1
  9
$FINGERPRINTGUID
  2

  9
$VERSIONGUID
  2

  9
$EXTNAMES
290
         1
  9
$PSVPSCALE
 40
0.0
  0
ENDSEC
  0
SECTION
  2
CLASSES
  0
CLASS
  1
LWPOLYLINE
  2
AcDbPolyline
  3
AutoCAD 2000
 90
    32768
280
         0
281
         1
  0
CLASS
  1
IMAGE
  2
AcDbRasterImage
  3
ISM
 90
    32895
280
         0
281
         1
  0
CLASS
  1
OLE2FRAME
  2
AcDbOle2Frame
  3
AutoCAD 2000
 90
    32768
280
         0
281
         1
  0
CLASS
  1
HATCH
  2
AcDbHatch
  3
AutoCAD 2000
 90
    32768
280
         0
281
         1
  0
CLASS
  1
DICTIONARYVAR
  2
AcDbDictionaryVar
  3
AutoCAD 2000
 90
    32768
280
         0
281
         0
  0
CLASS
  1
RASTERVARIABLES
  2
AcDbRasterVariables
  3
ISM
 90
    32768
280
         0
281
         0
  0
CLASS
  1
IMAGEDEF
  2
AcDbRasterImageDef
  3
ISM
 90
    32768
280
         0
281
         0
  0
CLASS
  1
IMAGEDEF_REACTOR
  2
AcDbRasterImageDefReactor
  3
ISM
 90
    32769
280
         0
281
         0
  0
CLASS
  1
IDBUFFER
  2
AcDbIdBuffer
  3
AutoCAD 2000
 90
    32768
280
         0
281
         0
  0
CLASS
  1
SPATIAL_FILTER
  2
AcDbSpatialFilter
  3
AutoCAD 2000
 90
    32768
280
         0
281
         0
  0
CLASS
  1
XRECORD
  2
AcDbXrecord
  3
AutoCAD 2000
 90
    32768
280
         0
281
         0
  0
CLASS
  1
SORTENTSTABLE
  2
AcDbSortentsTable
  3
AutoCAD 2000
 90
    32768
280
         0
281
         0
  0
CLASS
  1
LAYER_INDEX
  2
AcDbLayerIndex
  3
AutoCAD 2000
 90
    32768
280
         0
281
         0
  0
CLASS
  1
SPATIAL_INDEX
  2
AcDbSpatialIndex
  3
AutoCAD 2000
 90
    32768
280
         0
281
         0
  0
CLASS
  1
OBJECT_PTR
  2
CAseDLPNTableRecord
  3
"ASE-LPNTableRecord"
 90
    32769
280
         0
281
         0
  0
CLASS
  1
LAYOUT
  2
AcDbLayout
  3
AutoCAD 2000
 90
        0
280
         0
281
         0
  0
CLASS
  1
PLOTSETTINGS
  2
AcDbPlotSettings
  3
AutoCAD 2000
 90
    32768
280
         0
281
         0
  0
CLASS
  1
ACDBDICTIONARYWDFLT
  2
AcDbDictionaryWithDefault
  3
AutoCAD 2000
 90
        0
280
         0
281
         0
  0
CLASS
  1
ACDBPLACEHOLDER
  2
AcDbPlaceHolder
  3
AutoCAD 2000
 90
        0
280
         0
281
         0
  0
CLASS
  1
VBA_PROJECT
  2
AcDbVbaProject
  3
acadvba
 90
    32768
280
         0
281
         0
  0
CLASS
  1
WIPEOUT
  2
AcDbWipeout
  3
WipeOut|AutoCAD Express Tool|expresstools@autodesk.com
 90
    32895
280
         0
281
         1
  0
CLASS
  1
WIPEOUTVARIABLES
  2
AcDbWipeoutVariables
  3
WipeOut|AutoCAD Express Tool|expresstools@autodesk.com
 90
        0
280
         0
281
         0
  0
CLASS
  1
RTEXT
  2
RText
  3
RText|AutoCAD Express Tool|expresstools@autodesk.com
 90
    32768
280
         0
281
         1
  0
CLASS
  1
ARCALIGNEDTEXT
  2
AcDbArcAlignedText
  3
ATEXT|AutoCAD Express Tool|expresstools@autodesk.com
 90
    32768
280
         0
281
         1
  0
ENDSEC
  0
SECTION
  2
TABLES
  0
TABLE
  2
VPORT
  5
7
100
AcDbSymbolTable
 70
         1
  0
VPORT
  5
15
100
AcDbSymbolTableRecord
100
AcDbViewportTableRecord
  2
*ACTIVE
 70
         0
 10
0.0
 20
0.0
 11
1.0
 21
1.0
 12
6.591288
 22
4.579184
 13
0.0
 23
0.0
 14
1.0
 24
1.0
 15
0.0
 25
0.0
 16
0.0
 26
0.0
 36
1.0
 17
0.0
 27
0.0
 37
0.0
 40
9.158369
 41
0.688564
 42
50.0
 43
0.0
 44
0.0
 50
0.0
 51
0.0
 71
         0
 72
       100
 73
         1
 74
         1
 75
         0
 76
         0
 77
         0
 78
         0
281
         0
 65
         0
110
0.0
120
0.0
130
0.0
111
1.0
121
0.0
131
0.0
112
0.0
122
1.0
132
0.0
345
0
346
0
 79
         0
146
0.0
  0
ENDTAB
  0
TABLE
  2
LTYPE
  5
4
100
AcDbSymbolTable
 70
        13
  0
LTYPE
  5
11
100
AcDbSymbolTableRecord
100
AcDbLinetypeTableRecord
  2
ByBlock
 70
        64
  3

 72
        65
 73
         0
 40
0.0
  0
LTYPE
  5
12
100
AcDbSymbolTableRecord
100
AcDbLinetypeTableRecord
  2
ByLayer
 70
        64
  3

 72
        65
 73
         0
 40
0.0
  0
LTYPE
  5
13
100
AcDbSymbolTableRecord
100
AcDbLinetypeTableRecord
  2
Continuous
 70
        64
  3
Solid line
 72
        65
 73
         0
 40
0.0
  0
LTYPE
  5
25
100
AcDbSymbolTableRecord
100
AcDbLinetypeTableRecord
  2
Dotted
 70
        64
  3
Dotted
 72
        65
 73
         2
 40
0.125
 49
0.0
 74
         0
 49
-0.125
 74
         0
  0
LTYPE
  5
26
100
AcDbSymbolTableRecord
100
AcDbLinetypeTableRecord
  2
Center
 70
        64
  3
Center
 72
        65
 73
         4
 40
0.7699999809
 49
0.5
 74
         0
 49
-0.0724999979
 74
         0
 49
0.125
 74
         0
 49
-0.0724999979
 74
         0
  0
LTYPE
  5
27
100
AcDbSymbolTableRecord
100
AcDbLinetypeTableRecord
  2
Dashed
 70
        64
  3
Dashed
 72
        65
 73
         2
 40
0.375
 49
0.25
 74
         0
 49
-0.125
 74
         0
  0
LTYPE
  5
28
100
AcDbSymbolTableRecord
100
AcDbLinetypeTableRecord
  2
Hidden
 70
        64
  3
Hidden
 72
        65
 73
         2
 40
0.1974999905
 49
0.125
 74
         0
 49
-0.0724999979
 74
         0
  0
LTYPE
  5
29
100
AcDbSymbolTableRecord
100
AcDbLinetypeTableRecord
  2
Phantom
 70
        64
  3
Phantom
 72
        65
 73
         6
 40
0.9674999714
 49
0.5
 74
         0
 49
-0.0724999979
 74
         0
 49
0.125
 74
         0
 49
-0.0724999979
 74
         0
 49
0.125
 74
         0
 49
-0.0724999979
 74
         0
  0
LTYPE
  5
2A
100
AcDbSymbolTableRecord
100
AcDbLinetypeTableRecord
  2
Dashdot
 70
        64
  3
Dashdot
 72
        65
 73
         4
 40
0.6762499809
 49
0.5
 74
         0
 49
-0.0724999979
 74
         0
 49
0.03125
 74
         0
 49
-0.0724999979
 74
         0
  0
LTYPE
  5
2B
100
AcDbSymbolTableRecord
100
AcDbLinetypeTableRecord
  2
Border
 70
        64
  3
Border
 72
        65
 73
         6
 40
1.2487499714
 49
0.5
 74
         0
 49
-0.0724999979
 74
         0
 49
0.5
 74
         0
 49
-0.0724999979
 74
         0
 49
0.03125
 74
         0
 49
-0.0724999979
 74
         0
  0
LTYPE
  5
2C
100
AcDbSymbolTableRecord
100
AcDbLinetypeTableRecord
  2
Divide
 70
        64
  3
Divide
 72
        65
 73
         6
 40
0.7799999714
 49
0.5
 74
         0
 49
-0.0724999979
 74
         0
 49
0.03125
 74
         0
 49
-0.0724999979
 74
         0
 49
0.03125
 74
         0
 49
-0.0724999979
 74
         0
  0
LTYPE
  5
2D
100
AcDbSymbolTableRecord
100
AcDbLinetypeTableRecord
  2
Cutting
 70
        64
  3
Cutting
 72
        65
 73
         6
 40
1.4674999714
 49
1.0
 74
         0
 49
-0.0724999979
 74
         0
 49
0.125
 74
         0
 49
-0.0724999979
 74
         0
 49
0.125
 74
         0
 49
-0.0724999979
 74
         0
  0
LTYPE
  5
2E
100
AcDbSymbolTableRecord
100
AcDbLinetypeTableRecord
  2
Stitch
 70
        64
  3
Stitch
 72
        65
 73
         2
 40
0.1449999958
 49
0.0724999979
 74
         0
 49
-0.0724999979
 74
         0
  0
ENDTAB
  0
TABLE
  2
LAYER
  5
2
100
AcDbSymbolTable
 70
        42
  0
LAYER
  5
14
100
AcDbSymbolTableRecord
100
AcDbLayerTableRecord
  2
0
 70
         0
 62
         7
  6
Continuous
290
         1
370
        -3
390
1D
  0
LAYER
  5
2F
100
AcDbSymbolTableRecord
100
AcDbLayerTableRecord
  2
DF_COMP
 70
         0
 62
         4
  6
Continuous
290
         1
370
         2
390
1F
  0
LAYER
  5
30
100
AcDbSymbolTableRecord
100
AcDbLayerTableRecord
  2
1_250BIT_500DEP
 70
         0
 62
         5
  6
Continuous
290
         1
370
         2
390
1F
  0
LAYER
  5
31
100
AcDbSymbolTableRecord
100
AcDbLayerTableRecord
  2
2_250BIT_250DEP
 70
         0
 62
         3
  6
Continuous
290
         1
370
         2
390
1F
  0
LAYER
  5
32
100
AcDbSymbolTableRecord
100
AcDbLayerTableRecord
  2
3_250BIT_500TAB
 70
         0
 62
         5
  6
Continuous
290
         1
370
         2
390
1F
  0
LAYER
  5
33
100
AcDbSymbolTableRecord
100
AcDbLayerTableRecord
  2
4_250BIT_250TAB
 70
         0
 62
         5
  6
Continuous
290
         1
370
         2
390
1F
  0
LAYER
  5
34
100
AcDbSymbolTableRecord
100
AcDbLayerTableRecord
  2
5_250BIT_250SPEC
 70
         0
 62
         5
  6
Continuous
290
         1
370
         2
390
1F
  0
LAYER
  5
35
100
AcDbSymbolTableRecord
100
AcDbLayerTableRecord
  2
6_125BIT_500DEP
 70
         0
 62
         5
  6
Continuous
290
         1
370
         2
390
1F
  0
LAYER
  5
36
100
AcDbSymbolTableRecord
100
AcDbLayerTableRecord
  2
7_VCARVE_BIT
 70
         0
 62
         5
  6
Continuous
290
         1
370
         2
390
1F
  0
LAYER
  5
37
100
AcDbSymbolTableRecord
100
AcDbLayerTableRecord
  2
8_250BIT_500OUTLINE
 70
         0
 62
         5
  6
Continuous
290
         1
370
         2
390
1F
  0
LAYER
  5
38
100
AcDbSymbolTableRecord
100
AcDbLayerTableRecord
  2
PLASTICS
 70
         0
 62
        37
  6
Continuous
290
         1
370
         2
390
1F
  0
LAYER
  5
39
100
AcDbSymbolTableRecord
100
AcDbLayerTableRecord
  2
7A_1250BALL
 70
         0
 62
         5
  6
Continuous
290
         1
370
         2
390
1F
  0
LAYER
  5
3A
100
AcDbSymbolTableRecord
100
AcDbLayerTableRecord
  2
CONSTRUCTION
 70
         0
 62
         7
  6
Continuous
290
         1
370
         0
390
1F
  0
LAYER
  5
3B
100
AcDbSymbolTableRecord
100
AcDbLayerTableRecord
  2
0_WOOD
 70
         0
 62
         5
  6
Continuous
290
         1
370
         2
390
1F
  0
LAYER
  5
3C
100
AcDbSymbolTableRecord
100
AcDbLayerTableRecord
  2
Z_TATTOOMYSTIQUE
 70
         0
 62
        37
  6
Continuous
290
         1
370
         2
390
1F
  0
LAYER
  5
3D
100
AcDbSymbolTableRecord
100
AcDbLayerTableRecord
  2
Z_ROLLRGIRLZ
 70
         0
 62
        37
  6
Continuous
290
         1
370
         2
390
1F
  0
LAYER
  5
3E
100
AcDbSymbolTableRecord
100
AcDbLayerTableRecord
  2
Z_MISSADV
 70
         0
 62
         5
  6
Continuous
290
         1
370
         2
390
1F
  0
LAYER
  5
3F
100
AcDbSymbolTableRecord
100
AcDbLayerTableRecord
  2
Z_JUPITERCRUSH
 70
         0
 62
        37
  6
Continuous
290
         1
370
         2
390
1F
  0
LAYER
  5
40
100
AcDbSymbolTableRecord
100
AcDbLayerTableRecord
  2
Z_MODULAR
 70
         0
 62
         5
  6
Continuous
290
         1
370
         2
390
1F
  0
LAYER
  5
41
100
AcDbSymbolTableRecord
100
AcDbLayerTableRecord
  2
Z_GENERIC
 70
         0
 62
        27
  6
Continuous
290
         1
370
         2
390
1F
  0
LAYER
  5
42
100
AcDbSymbolTableRecord
100
AcDbLayerTableRecord
  2
UNASSIGNED
 70
         0
 62
         7
  6
Continuous
290
         1
370
         0
390
1F
  0
LAYER
  5
43
100
AcDbSymbolTableRecord
100
AcDbLayerTableRecord
  2
0
 70
         0
 62
        42
  6
Continuous
290
         1
370
         2
390
1F
  0
LAYER
  5
44
100
AcDbSymbolTableRecord
100
AcDbLayerTableRecord
  2
LAYER_1
 70
         0
 62
        42
  6
Continuous
290
         1
370
         2
390
1F
  0
LAYER
  5
45
100
AcDbSymbolTableRecord
100
AcDbLayerTableRecord
  2
LAYER_3
 70
         0
 62
         4
  6
Continuous
290
         1
370
         2
390
1F
  0
LAYER
  5
46
100
AcDbSymbolTableRecord
100
AcDbLayerTableRecord
  2
LAYER_2
 70
         0
 62
        42
  6
Continuous
290
         1
370
         2
390
1F
  0
LAYER
  5
47
100
AcDbSymbolTableRecord
100
AcDbLayerTableRecord
  2
X_POSTS
 70
         0
 62
         4
  6
Continuous
290
         1
370
         2
390
1F
  0
LAYER
  5
48
100
AcDbSymbolTableRecord
100
AcDbLayerTableRecord
  2
X_THUMPER
 70
         0
 62
         4
  6
Continuous
290
         1
370
         2
390
1F
  0
LAYER
  5
49
100
AcDbSymbolTableRecord
100
AcDbLayerTableRecord
  2
X_STANDUPS
 70
         0
 62
         4
  6
Continuous
290
         1
370
         2
390
1F
  0
LAYER
  5
4A
100
AcDbSymbolTableRecord
100
AcDbLayerTableRecord
  2
X_DROPS
 70
         0
 62
         4
  6
Continuous
290
         1
370
         2
390
1F
  0
LAYER
  5
4B
100
AcDbSymbolTableRecord
100
AcDbLayerTableRecord
  2
X_SMPOSTS
 70
         0
 62
         4
  6
Continuous
290
         1
370
         2
390
1F
  0
LAYER
  5
4C
100
AcDbSymbolTableRecord
100
AcDbLayerTableRecord
  2
X_ROLLOVER
 70
         0
 62
         4
  6
Continuous
290
         1
370
         2
390
1F
  0
LAYER
  5
4D
100
AcDbSymbolTableRecord
100
AcDbLayerTableRecord
  2
X_WALLS
 70
         0
 62
         4
  6
Continuous
290
         1
370
         2
390
1F
  0
LAYER
  5
4E
100
AcDbSymbolTableRecord
100
AcDbLayerTableRecord
  2
Z0_BOTCOMP
 70
         0
 62
         4
  6
Continuous
290
         1
370
         2
390
1F
  0
LAYER
  5
4F
100
AcDbSymbolTableRecord
100
AcDbLayerTableRecord
  2
Z0_TOPCOMP
 70
         0
 62
         6
  6
Continuous
290
         1
370
         2
390
1F
  0
LAYER
  5
50
100
AcDbSymbolTableRecord
100
AcDbLayerTableRecord
  2
Z0_CUT250
 70
         0
 62
         4
  6
Continuous
290
         1
370
         2
390
1F
  0
LAYER
  5
51
100
AcDbSymbolTableRecord
100
AcDbLayerTableRecord
  2
Z0_CUT500
 70
         0
 62
         4
  6
Continuous
290
         1
370
         2
390
1F
  0
LAYER
  5
52
100
AcDbSymbolTableRecord
100
AcDbLayerTableRecord
  2
Z0_PLASTICS
 70
         0
 62
        37
  6
Continuous
290
         1
370
         2
390
1F
  0
LAYER
  5
53
100
AcDbSymbolTableRecord
100
AcDbLayerTableRecord
  2
Z0_RUBBER
 70
         0
 62
         4
  6
Continuous
290
         1
370
         2
390
1F
  0
LAYER
  5
54
100
AcDbSymbolTableRecord
100
AcDbLayerTableRecord
  2
Z0_ZONES
 70
         0
 62
         6
  6
Continuous
290
         1
370
         2
390
1F
  0
LAYER
  5
55
100
AcDbSymbolTableRecord
100
AcDbLayerTableRecord
  2
Z0_WOODOUTLINE
 70
         0
 62
         5
  6
Continuous
290
         1
370
         2
390
1F
  0
LAYER
  5
56
100
AcDbSymbolTableRecord
100
AcDbLayerTableRecord
  2
Z0_LOWERTHIRD
 70
         0
 62
         4
  6
Continuous
290
         1
370
         2
390
1F
  0
LAYER
  5
57
100
AcDbSymbolTableRecord
100
AcDbLayerTableRecord
  2
PART_A
 70
         0
 62
         4
  6
Continuous
290
         1
370
         2
390
1F
  0
ENDTAB
  0
TABLE
  2
STYLE
  5
3
100
AcDbSymbolTable
 70
         2
  0
STYLE
  5
17
100
AcDbSymbolTableRecord
100
AcDbTextStyleTableRecord
  2
Standard
 70
         0
 40
0.0
 41
1.0
 50
0.0
 71
         0
 42
0.0
  3
txt
  4

  0
STYLE
  5
24
100
AcDbSymbolTableRecord
100
AcDbTextStyleTableRecord
  2
Plotter
 70
         0
 40
0.0
 41
0.98
 50
0.0
 71
         0
 42
0.0
  3
SIMPLEX
  4

  0
ENDTAB
  0
TABLE
  2
VIEW
  5
5
100
AcDbSymbolTable
 70
         0
  0
ENDTAB
  0
TABLE
  2
UCS
  5
6
100
AcDbSymbolTable
 70
         0
  0
ENDTAB
  0
TABLE
  2
APPID
  5
8
100
AcDbSymbolTable
 70
         1
  0
APPID
  5
16
100
AcDbSymbolTableRecord
100
AcDbRegAppTableRecord
  2
ACAD
 70
         0
  0
ENDTAB
  0
TABLE
  2
DIMSTYLE
  5
9
100
AcDbSymbolTable
 70
         1
100
AcDbDimStyleTable
 71
         0
  0
DIMSTYLE
105
18
100
AcDbSymbolTableRecord
100
AcDbDimStyleTableRecord
  2
Standard
 70
         0
  3

  4

 40
1.0
 41
0.18
 42
0.0625
 43
0.38
 44
0.18
 45
0.0
 46
0.0
 47
0.0
 48
0.0
 71
         0
 72
         0
 73
         1
 74
         1
 75
         0
 76
         0
 77
         0
 78
         0
 79
         0
140
0.18
141
0.09
142
0.0
143
25.4
144
1.0
145
0.0
146
1.0
147
0.09
148
0.0
170
         0
171
         2
172
         0
173
         0
174
         0
175
         0
176
         0
177
         0
178
         0
179
         0
271
         4
272
         4
273
         2
274
         2
275
         0
276
         0
277
         2
278
        46
279
         0
280
         0
281
         0
282
         0
283
         1
284
         0
285
         0
286
         0
288
         0
340
17
341
0
342
0
343
0
344
0
371
        -2
372
        -2
  0
ENDTAB
  0
TABLE
  2
BLOCK_RECORD
  5
1
100
AcDbSymbolTable
 70
         0
  0
BLOCK_RECORD
  5
A
100
AcDbSymbolTableRecord
100
AcDbBlockTableRecord
  2
*MODEL_SPACE
340
20
  0
BLOCK_RECORD
  5
B
100
AcDbSymbolTableRecord
100
AcDbBlockTableRecord
  2
*PAPER_SPACE
340
21
  0
ENDTAB
  0
ENDSEC
  0
SECTION
  2
BLOCKS
  0
BLOCK
  5
D
100
AcDbEntity
  8
0
100
AcDbBlockBegin
  2
*MODEL_SPACE
 70
         0
 10
0.0
 20
0.0
 30
0.0
  3
*MODEL_SPACE
  1

  0
ENDBLK
  5
E
100
AcDbEntity
  8
0
100
AcDbBlockEnd
  0
BLOCK
  5
F
100
AcDbEntity
 67
         1
  8
0
100
AcDbBlockBegin
  2
*PAPER_SPACE
 70
         0
 10
0.0
 20
0.0
 30
0.0
  3
*PAPER_SPACE
  1

  0
ENDBLK
  5
10
100
AcDbEntity
 67
         1
  8
0
100
AcDbBlockEnd
  0
ENDSEC
  0
SECTION
  2
ENTITIES
  0
CIRCLE
  5
58
100
AcDbEntity
  8
Z0_CUT500
370
        25
  6
Continuous
 62
         5
100
AcDbCircle
 10
9.1875
 20
27.102
 30
0.0
 40
0.0825
  0
CIRCLE
  5
59
100
AcDbEntity
  8
Z0_TOPCOMP
370
        25
  6
Continuous
 62
         6
100
AcDbCircle
 10
9.1875
 20
27.102
 30
0.0
 40
0.35
  0
CIRCLE
  5
5A
102
{ACAD_REACTORS
330
5C
102
}
100
AcDbEntity
  8
Z0_RUBBER
370
        25
  6
Continuous
 62
         2
100
AcDbCircle
 10
9.1875
 20
27.102
 30
0.0
 40
0.4
  0
CIRCLE
  5
5B
102
{ACAD_REACTORS
330
5C
102
}
100
AcDbEntity
  8
Z0_RUBBER
370
        25
  6
Continuous
 62
         2
100
AcDbCircle
 10
9.1875
 20
27.102
 30
0.0
 40
0.215
  0
CIRCLE
  5
5D
102
{ACAD_REACTORS
330
68
102
}
100
AcDbEntity
  8
Z0_BOTCOMP
370
        25
  6
Continuous
 62
         4
100
AcDbCircle
 10
9.6875366001
 20
26.5511862471
 30
0.0
 40
0.0835
  0
ARC
  5
5E
102
{ACAD_REACTORS
330
68
102
}
100
AcDbEntity
  8
Z0_BOTCOMP
370
        25
  6
Continuous
 62
         4
100
AcDbCircle
 10
9.6875366001
 20
26.5511862471
 30
0.0
 40
0.375
100
AcDbArc
 50
-66.0229894053
 51
28.8646310311
  0
ARC
  5
5F
102
{ACAD_REACTORS
330
68
102
}
100
AcDbEntity
  8
Z0_BOTCOMP
370
        25
  6
Continuous
 62
         4
100
AcDbCircle
 10
9.6875366001
 20
26.5511862471
 30
0.0
 40
0.375
100
AcDbArc
 50
173.9770105947
 51
-91.1353689689
  0
ARC
  5
60
102
{ACAD_REACTORS
330
68
102
}
100
AcDbEntity
  8
Z0_BOTCOMP
370
        25
  6
Continuous
 62
         4
100
AcDbCircle
 10
9.6875366001
 20
26.5511862471
 30
0.0
 40
0.375
100
AcDbArc
 50
53.9770105948
 51
148.8646310311
  0
CIRCLE
  5
61
102
{ACAD_REACTORS
330
68
102
}
100
AcDbEntity
  8
Z0_BOTCOMP
370
        25
  6
Continuous
 62
         4
100
AcDbCircle
 10
9.6875366001
 20
26.5511862471
 30
0.0
 40
0.12125
  0
LINE
  5
62
102
{ACAD_REACTORS
330
68
102
}
100
AcDbEntity
  8
Z0_BOTCOMP
370
        25
  6
Continuous
 62
         4
100
AcDbLine
 10
10.0159476099
 20
26.7322144456
 30
0.0
 11
9.9322389508
 21
26.7174543505
 31
0.0
  0
LINE
  5
63
102
{ACAD_REACTORS
330
68
102
}
100
AcDbEntity
  8
Z0_BOTCOMP
370
        25
  6
Continuous
 62
         4
100
AcDbLine
 10
9.9322389508
 20
26.7174543505
 30
0.0
 11
9.9080777809
 21
26.8544791543
 31
0.0
  0
LINE
  5
64
102
{ACAD_REACTORS
330
68
102
}
100
AcDbEntity
  8
Z0_BOTCOMP
370
        25
  6
Continuous
 62
         4
100
AcDbLine
 10
9.4211930233
 20
26.6799706476
 30
0.0
 11
9.3146066472
 21
26.5905340588
 31
0.0
  0
LINE
  5
65
102
{ACAD_REACTORS
330
68
102
}
100
AcDbEntity
  8
Z0_BOTCOMP
370
        25
  6
Continuous
 62
         4
100
AcDbLine
 10
9.3665560765
 20
26.7450844253
 30
0.0
 11
9.4211930233
 21
26.6799706476
 31
0.0
  0
LINE
  5
66
102
{ACAD_REACTORS
330
68
102
}
100
AcDbEntity
  8
Z0_BOTCOMP
370
        25
  6
Continuous
 62
         4
100
AcDbLine
 10
9.709177826
 20
26.2561337433
 30
0.0
 11
9.839925372
 21
26.2085455284
 31
0.0
  0
LINE
  5
67
102
{ACAD_REACTORS
330
68
102
}
100
AcDbEntity
  8
Z0_BOTCOMP
370
        25
  6
Continuous
 62
         4
100
AcDbLine
 10
9.6801061138
 20
26.1762598705
 30
0.0
 11
9.709177826
 21
26.2561337433
 31
0.0
  0
CIRCLE
  5
69
102
{ACAD_REACTORS
330
74
102
}
100
AcDbEntity
  8
Z0_BOTCOMP
370
        25
  6
Continuous
 62
         4
100
AcDbCircle
 10
9.6875366001
 20
25.4491862471
 30
0.0
 40
0.0835
  0
ARC
  5
6A
102
{ACAD_REACTORS
330
74
102
}
100
AcDbEntity
  8
Z0_BOTCOMP
370
        25
  6
Continuous
 62
         4
100
AcDbCircle
 10
9.6875366001
 20
25.4491862471
 30
0.0
 40
0.375
100
AcDbArc
 50
-66.0229894053
 51
28.8646310311
  0
ARC
  5
6B
102
{ACAD_REACTORS
330
74
102
}
100
AcDbEntity
  8
Z0_BOTCOMP
370
        25
  6
Continuous
 62
         4
100
AcDbCircle
 10
9.6875366001
 20
25.4491862471
 30
0.0
 40
0.375
100
AcDbArc
 50
173.9770105947
 51
-91.1353689689
  0
ARC
  5
6C
102
{ACAD_REACTORS
330
74
102
}
100
AcDbEntity
  8
Z0_BOTCOMP
370
        25
  6
Continuous
 62
         4
100
AcDbCircle
 10
9.6875366001
 20
25.4491862471
 30
0.0
 40
0.375
100
AcDbArc
 50
53.9770105948
 51
148.8646310311
  0
CIRCLE
  5
6D
102
{ACAD_REACTORS
330
74
102
}
100
AcDbEntity
  8
Z0_BOTCOMP
370
        25
  6
Continuous
 62
         4
100
AcDbCircle
 10
9.6875366001
 20
25.4491862471
 30
0.0
 40
0.12125
  0
LINE
  5
6E
102
{ACAD_REACTORS
330
74
102
}
100
AcDbEntity
  8
Z0_BOTCOMP
370
        25
  6
Continuous
 62
         4
100
AcDbLine
 10
10.0159476099
 20
25.6302144456
 30
0.0
 11
9.9322389508
 21
25.6154543505
 31
0.0
  0
LINE
  5
6F
102
{ACAD_REACTORS
330
74
102
}
100
AcDbEntity
  8
Z0_BOTCOMP
370
        25
  6
Continuous
 62
         4
100
AcDbLine
 10
9.9322389508
 20
25.6154543505
 30
0.0
 11
9.9080777809
 21
25.7524791543
 31
0.0
  0
LINE
  5
70
102
{ACAD_REACTORS
330
74
102
}
100
AcDbEntity
  8
Z0_BOTCOMP
370
        25
  6
Continuous
 62
         4
100
AcDbLine
 10
9.4211930233
 20
25.5779706476
 30
0.0
 11
9.3146066472
 21
25.4885340588
 31
0.0
  0
LINE
  5
71
102
{ACAD_REACTORS
330
74
102
}
100
AcDbEntity
  8
Z0_BOTCOMP
370
        25
  6
Continuous
 62
         4
100
AcDbLine
 10
9.3665560765
 20
25.6430844253
 30
0.0
 11
9.4211930233
 21
25.5779706476
 31
0.0
  0
LINE
  5
72
102
{ACAD_REACTORS
330
74
102
}
100
AcDbEntity
  8
Z0_BOTCOMP
370
        25
  6
Continuous
 62
         4
100
AcDbLine
 10
9.709177826
 20
25.1541337433
 30
0.0
 11
9.839925372
 21
25.1065455284
 31
0.0
  0
LINE
  5
73
102
{ACAD_REACTORS
330
74
102
}
100
AcDbEntity
  8
Z0_BOTCOMP
370
        25
  6
Continuous
 62
         4
100
AcDbLine
 10
9.6801061138
 20
25.0742598705
 30
0.0
 11
9.709177826
 21
25.1541337433
 31
0.0
  0
CIRCLE
  5
75
102
{ACAD_REACTORS
330
77
102
}
100
AcDbEntity
  8
Z0_RUBBER
370
        25
  6
Continuous
 62
         2
100
AcDbCircle
 10
9.6875366001
 20
26.5511862471
 30
0.0
 40
0.215
  0
CIRCLE
  5
76
102
{ACAD_REACTORS
330
77
102
}
100
AcDbEntity
  8
Z0_RUBBER
370
        25
  6
Continuous
 62
         2
100
AcDbCircle
 10
9.6875366001
 20
26.5511862471
 30
0.0
 40
0.07
  0
CIRCLE
  5
78
100
AcDbEntity
  8
Z0_CUT500
370
        25
  6
Continuous
 62
         5
100
AcDbCircle
 10
9.6875366001
 20
26.5511862471
 30
0.0
 40
0.1225
  0
CIRCLE
  5
79
100
AcDbEntity
  8
Z0_CUT500
370
        25
  6
Continuous
 62
         5
100
AcDbCircle
 10
9.6875366001
 20
25.4491862471
 30
0.0
 40
0.1225
  0
CIRCLE
  5
7A
102
{ACAD_REACTORS
330
7C
102
}
100
AcDbEntity
  8
Z0_RUBBER
370
        25
  6
Continuous
 62
         2
100
AcDbCircle
 10
9.6875366001
 20
25.4491862471
 30
0.0
 40
0.215
  0
CIRCLE
  5
7B
102
{ACAD_REACTORS
330
7C
102
}
100
AcDbEntity
  8
Z0_RUBBER
370
        25
  6
Continuous
 62
         2
100
AcDbCircle
 10
9.6875366001
 20
25.4491862471
 30
0.0
 40
0.07
  0
CIRCLE
  5
7D
102
{ACAD_REACTORS
330
7F
102
}
100
AcDbEntity
  8
Z0_RUBBER
370
        25
  6
Continuous
 62
         2
100
AcDbCircle
 10
9.1875
 20
26.0
 30
0.0
 40
0.4
  0
CIRCLE
  5
7E
102
{ACAD_REACTORS
330
7F
102
}
100
AcDbEntity
  8
Z0_RUBBER
370
        25
  6
Continuous
 62
         2
100
AcDbCircle
 10
9.1875
 20
26.0
 30
0.0
 40
0.215
  0
CIRCLE
  5
80
100
AcDbEntity
  8
Z0_TOPCOMP
370
        25
  6
Continuous
 62
         6
100
AcDbCircle
 10
9.1875
 20
26.0
 30
0.0
 40
0.35
  0
CIRCLE
  5
81
100
AcDbEntity
  8
Z0_CUT500
370
        25
  6
Continuous
 62
         5
100
AcDbCircle
 10
9.1875
 20
26.0
 30
0.0
 40
0.0825
  0
ARC
  5
82
102
{ACAD_REACTORS
330
8D
102
}
100
AcDbEntity
  8
Z0_BOTCOMP
370
        25
  6
Continuous
 62
         4
100
AcDbCircle
 10
9.1875
 20
26.0
 30
0.0
 40
0.285
100
AcDbArc
 50
90.0
 51
164.5679286494
  0
ARC
  5
83
102
{ACAD_REACTORS
330
8D
102
}
100
AcDbEntity
  8
Z0_BOTCOMP
370
        25
  6
Continuous
 62
         4
100
AcDbCircle
 10
9.1875
 20
26.0
 30
0.0
 40
0.285
100
AcDbArc
 50
-150.0
 51
-75.4320713506
  0
ARC
  5
84
102
{ACAD_REACTORS
330
8D
102
}
100
AcDbEntity
  8
Z0_BOTCOMP
370
        25
  6
Continuous
 62
         4
100
AcDbCircle
 10
9.1875
 20
26.0
 30
0.0
 40
0.285
100
AcDbArc
 50
-30.0
 51
44.5679286494
  0
LINE
  5
85
102
{ACAD_REACTORS
330
8D
102
}
100
AcDbEntity
  8
Z0_BOTCOMP
370
        25
  6
Continuous
 62
         4
100
AcDbLine
 10
8.9406827599
 20
25.8575
 30
0.0
 11
9.0142949192
 21
25.9
 31
0.0
  0
LINE
  5
86
102
{ACAD_REACTORS
330
8D
102
}
100
AcDbEntity
  8
Z0_BOTCOMP
370
        25
  6
Continuous
 62
         4
100
AcDbLine
 10
9.0142949192
 20
25.9
 30
0.0
 11
8.9127752167
 21
26.0758372827
 31
0.0
  0
LINE
  5
87
102
{ACAD_REACTORS
330
8D
102
}
100
AcDbEntity
  8
Z0_BOTCOMP
370
        25
  6
Continuous
 62
         4
100
AcDbLine
 10
9.4343172401
 20
25.8575
 30
0.0
 11
9.3607050808
 21
25.9
 31
0.0
  0
LINE
  5
88
102
{ACAD_REACTORS
330
8D
102
}
100
AcDbEntity
  8
Z0_BOTCOMP
370
        25
  6
Continuous
 62
         4
100
AcDbLine
 10
9.3607050808
 20
25.9
 30
0.0
 11
9.2591853782
 21
25.7241627173
 31
0.0
  0
LINE
  5
89
102
{ACAD_REACTORS
330
8D
102
}
100
AcDbEntity
  8
Z0_BOTCOMP
370
        25
  6
Continuous
 62
         4
100
AcDbLine
 10
9.1875
 20
26.2
 30
0.0
 11
9.390539405
 21
26.2
 31
0.0
  0
LINE
  5
8A
102
{ACAD_REACTORS
330
8D
102
}
100
AcDbEntity
  8
Z0_BOTCOMP
370
        25
  6
Continuous
 62
         4
100
AcDbLine
 10
9.1875
 20
26.285
 30
0.0
 11
9.1875
 21
26.2
 31
0.0
  0
CIRCLE
  5
8B
102
{ACAD_REACTORS
330
8D
102
}
100
AcDbEntity
  8
Z0_BOTCOMP
370
        25
  6
Continuous
 62
         4
100
AcDbCircle
 10
9.1875
 20
26.0
 30
0.0
 40
0.059
  0
CIRCLE
  5
8C
102
{ACAD_REACTORS
330
8D
102
}
100
AcDbEntity
  8
Z0_BOTCOMP
370
        25
  6
Continuous
 62
         4
100
AcDbCircle
 10
9.1875
 20
26.0
 30
0.0
 40
0.085
  0
CIRCLE
  5
8E
102
{ACAD_REACTORS
330
99
102
}
100
AcDbEntity
  8
Z0_BOTCOMP
370
        25
  6
Continuous
 62
         4
100
AcDbCircle
 10
8.6874633999
 20
26.5511862471
 30
0.0
 40
0.0835
  0
ARC
  5
8F
102
{ACAD_REACTORS
330
99
102
}
100
AcDbEntity
  8
Z0_BOTCOMP
370
        25
  6
Continuous
 62
         4
100
AcDbCircle
 10
8.6874633999
 20
26.5511862471
 30
0.0
 40
0.375
100
AcDbArc
 50
151.1353689689
 51
-113.9770105947
  0
ARC
  5
90
102
{ACAD_REACTORS
330
99
102
}
100
AcDbEntity
  8
Z0_BOTCOMP
370
        25
  6
Continuous
 62
         4
100
AcDbCircle
 10
8.6874633999
 20
26.5511862471
 30
0.0
 40
0.375
100
AcDbArc
 50
-88.8646310311
 51
6.0229894053
  0
ARC
  5
91
102
{ACAD_REACTORS
330
99
102
}
100
AcDbEntity
  8
Z0_BOTCOMP
370
        25
  6
Continuous
 62
         4
100
AcDbCircle
 10
8.6874633999
 20
26.5511862471
 30
0.0
 40
0.375
100
AcDbArc
 50
31.1353689689
 51
126.0229894052
  0
CIRCLE
  5
92
102
{ACAD_REACTORS
330
99
102
}
100
AcDbEntity
  8
Z0_BOTCOMP
370
        25
  6
Continuous
 62
         4
100
AcDbCircle
 10
8.6874633999
 20
26.5511862471
 30
0.0
 40
0.12125
  0
LINE
  5
93
102
{ACAD_REACTORS
330
99
102
}
100
AcDbEntity
  8
Z0_BOTCOMP
370
        25
  6
Continuous
 62
         4
100
AcDbLine
 10
8.3590523901
 20
26.7322144456
 30
0.0
 11
8.4427610492
 21
26.7174543505
 31
0.0
  0
LINE
  5
94
102
{ACAD_REACTORS
330
99
102
}
100
AcDbEntity
  8
Z0_BOTCOMP
370
        25
  6
Continuous
 62
         4
100
AcDbLine
 10
8.4427610492
 20
26.7174543505
 30
0.0
 11
8.4669222191
 21
26.8544791543
 31
0.0
  0
LINE
  5
95
102
{ACAD_REACTORS
330
99
102
}
100
AcDbEntity
  8
Z0_BOTCOMP
370
        25
  6
Continuous
 62
         4
100
AcDbLine
 10
8.9538069767
 20
26.6799706476
 30
0.0
 11
9.0603933528
 21
26.5905340588
 31
0.0
  0
LINE
  5
96
102
{ACAD_REACTORS
330
99
102
}
100
AcDbEntity
  8
Z0_BOTCOMP
370
        25
  6
Continuous
 62
         4
100
AcDbLine
 10
9.0084439235
 20
26.7450844253
 30
0.0
 11
8.9538069767
 21
26.6799706476
 31
0.0
  0
LINE
  5
97
102
{ACAD_REACTORS
330
99
102
}
100
AcDbEntity
  8
Z0_BOTCOMP
370
        25
  6
Continuous
 62
         4
100
AcDbLine
 10
8.665822174
 20
26.2561337433
 30
0.0
 11
8.535074628
 21
26.2085455284
 31
0.0
  0
LINE
  5
98
102
{ACAD_REACTORS
330
99
102
}
100
AcDbEntity
  8
Z0_BOTCOMP
370
        25
  6
Continuous
 62
         4
100
AcDbLine
 10
8.6948938862
 20
26.1762598705
 30
0.0
 11
8.665822174
 21
26.2561337433
 31
0.0
  0
CIRCLE
  5
9A
102
{ACAD_REACTORS
330
A5
102
}
100
AcDbEntity
  8
Z0_BOTCOMP
370
        25
  6
Continuous
 62
         4
100
AcDbCircle
 10
8.6874633999
 20
25.4491862471
 30
0.0
 40
0.0835
  0
ARC
  5
9B
102
{ACAD_REACTORS
330
A5
102
}
100
AcDbEntity
  8
Z0_BOTCOMP
370
        25
  6
Continuous
 62
         4
100
AcDbCircle
 10
8.6874633999
 20
25.4491862471
 30
0.0
 40
0.375
100
AcDbArc
 50
151.1353689689
 51
-113.9770105947
  0
ARC
  5
9C
102
{ACAD_REACTORS
330
A5
102
}
100
AcDbEntity
  8
Z0_BOTCOMP
370
        25
  6
Continuous
 62
         4
100
AcDbCircle
 10
8.6874633999
 20
25.4491862471
 30
0.0
 40
0.375
100
AcDbArc
 50
-88.8646310311
 51
6.0229894053
  0
ARC
  5
9D
102
{ACAD_REACTORS
330
A5
102
}
100
AcDbEntity
  8
Z0_BOTCOMP
370
        25
  6
Continuous
 62
         4
100
AcDbCircle
 10
8.6874633999
 20
25.4491862471
 30
0.0
 40
0.375
100
AcDbArc
 50
31.1353689689
 51
126.0229894052
  0
CIRCLE
  5
9E
102
{ACAD_REACTORS
330
A5
102
}
100
AcDbEntity
  8
Z0_BOTCOMP
370
        25
  6
Continuous
 62
         4
100
AcDbCircle
 10
8.6874633999
 20
25.4491862471
 30
0.0
 40
0.12125
  0
LINE
  5
9F
102
{ACAD_REACTORS
330
A5
102
}
100
AcDbEntity
  8
Z0_BOTCOMP
370
        25
  6
Continuous
 62
         4
100
AcDbLine
 10
8.3590523901
 20
25.6302144456
 30
0.0
 11
8.4427610492
 21
25.6154543505
 31
0.0
  0
LINE
  5
A0
102
{ACAD_REACTORS
330
A5
102
}
100
AcDbEntity
  8
Z0_BOTCOMP
370
        25
  6
Continuous
 62
         4
100
AcDbLine
 10
8.4427610492
 20
25.6154543505
 30
0.0
 11
8.4669222191
 21
25.7524791543
 31
0.0
  0
LINE
  5
A1
102
{ACAD_REACTORS
330
A5
102
}
100
AcDbEntity
  8
Z0_BOTCOMP
370
        25
  6
Continuous
 62
         4
100
AcDbLine
 10
8.9538069767
 20
25.5779706476
 30
0.0
 11
9.0603933528
 21
25.4885340588
 31
0.0
  0
LINE
  5
A2
102
{ACAD_REACTORS
330
A5
102
}
100
AcDbEntity
  8
Z0_BOTCOMP
370
        25
  6
Continuous
 62
         4
100
AcDbLine
 10
9.0084439235
 20
25.6430844253
 30
0.0
 11
8.9538069767
 21
25.5779706476
 31
0.0
  0
LINE
  5
A3
102
{ACAD_REACTORS
330
A5
102
}
100
AcDbEntity
  8
Z0_BOTCOMP
370
        25
  6
Continuous
 62
         4
100
AcDbLine
 10
8.665822174
 20
25.1541337433
 30
0.0
 11
8.535074628
 21
25.1065455284
 31
0.0
  0
LINE
  5
A4
102
{ACAD_REACTORS
330
A5
102
}
100
AcDbEntity
  8
Z0_BOTCOMP
370
        25
  6
Continuous
 62
         4
100
AcDbLine
 10
8.6948938862
 20
25.0742598705
 30
0.0
 11
8.665822174
 21
25.1541337433
 31
0.0
  0
CIRCLE
  5
A6
102
{ACAD_REACTORS
330
A8
102
}
100
AcDbEntity
  8
Z0_RUBBER
370
        25
  6
Continuous
 62
         2
100
AcDbCircle
 10
8.6874633999
 20
26.5511862471
 30
0.0
 40
0.215
  0
CIRCLE
  5
A7
102
{ACAD_REACTORS
330
A8
102
}
100
AcDbEntity
  8
Z0_RUBBER
370
        25
  6
Continuous
 62
         2
100
AcDbCircle
 10
8.6874633999
 20
26.5511862471
 30
0.0
 40
0.07
  0
CIRCLE
  5
A9
100
AcDbEntity
  8
Z0_CUT500
370
        25
  6
Continuous
 62
         5
100
AcDbCircle
 10
8.6874633999
 20
26.5511862471
 30
0.0
 40
0.1225
  0
CIRCLE
  5
AA
100
AcDbEntity
  8
Z0_CUT500
370
        25
  6
Continuous
 62
         5
100
AcDbCircle
 10
5.7806514574
 20
26.0
 30
0.0
 40
0.0825
  0
CIRCLE
  5
AB
102
{ACAD_REACTORS
330
AD
102
}
100
AcDbEntity
  8
Z0_RUBBER
370
        25
  6
Continuous
 62
         2
100
AcDbCircle
 10
5.7806514574
 20
26.0
 30
0.0
 40
0.4
  0
CIRCLE
  5
AC
102
{ACAD_REACTORS
330
AD
102
}
100
AcDbEntity
  8
Z0_RUBBER
370
        25
  6
Continuous
 62
         2
100
AcDbCircle
 10
5.7806514574
 20
26.0
 30
0.0
 40
0.215
  0
CIRCLE
  5
AE
100
AcDbEntity
  8
Z0_TOPCOMP
370
        25
  6
Continuous
 62
         6
100
AcDbCircle
 10
5.7806514574
 20
26.0
 30
0.0
 40
0.35
  0
ARC
  5
AF
102
{ACAD_REACTORS
330
BA
102
}
100
AcDbEntity
  8
Z0_BOTCOMP
370
        25
  6
Continuous
 62
         4
100
AcDbCircle
 10
5.7806514574
 20
26.0
 30
0.0
 40
0.285
100
AcDbArc
 50
90.0
 51
164.5679286494
  0
ARC
  5
B0
102
{ACAD_REACTORS
330
BA
102
}
100
AcDbEntity
  8
Z0_BOTCOMP
370
        25
  6
Continuous
 62
         4
100
AcDbCircle
 10
5.7806514574
 20
26.0
 30
0.0
 40
0.285
100
AcDbArc
 50
-150.0
 51
-75.4320713506
  0
ARC
  5
B1
102
{ACAD_REACTORS
330
BA
102
}
100
AcDbEntity
  8
Z0_BOTCOMP
370
        25
  6
Continuous
 62
         4
100
AcDbCircle
 10
5.7806514574
 20
26.0
 30
0.0
 40
0.285
100
AcDbArc
 50
-30.0
 51
44.5679286494
  0
LINE
  5
B2
102
{ACAD_REACTORS
330
BA
102
}
100
AcDbEntity
  8
Z0_BOTCOMP
370
        25
  6
Continuous
 62
         4
100
AcDbLine
 10
5.5338342173
 20
25.8575
 30
0.0
 11
5.6074463766
 21
25.9
 31
0.0
  0
LINE
  5
B3
102
{ACAD_REACTORS
330
BA
102
}
100
AcDbEntity
  8
Z0_BOTCOMP
370
        25
  6
Continuous
 62
         4
100
AcDbLine
 10
5.6074463766
 20
25.9
 30
0.0
 11
5.5059266741
 21
26.0758372827
 31
0.0
  0
LINE
  5
B4
102
{ACAD_REACTORS
330
BA
102
}
100
AcDbEntity
  8
Z0_BOTCOMP
370
        25
  6
Continuous
 62
         4
100
AcDbLine
 10
6.0274686974
 20
25.8575
 30
0.0
 11
5.9538565381
 21
25.9
 31
0.0
  0
LINE
  5
B5
102
{ACAD_REACTORS
330
BA
102
}
100
AcDbEntity
  8
Z0_BOTCOMP
370
        25
  6
Continuous
 62
         4
100
AcDbLine
 10
5.9538565381
 20
25.9
 30
0.0
 11
5.8523368356
 21
25.7241627173
 31
0.0
  0
LINE
  5
B6
102
{ACAD_REACTORS
330
BA
102
}
100
AcDbEntity
  8
Z0_BOTCOMP
370
        25
  6
Continuous
 62
         4
100
AcDbLine
 10
5.7806514574
 20
26.2
 30
0.0
 11
5.9836908624
 21
26.2
 31
0.0
  0
LINE
  5
B7
102
{ACAD_REACTORS
330
BA
102
}
100
AcDbEntity
  8
Z0_BOTCOMP
370
        25
  6
Continuous
 62
         4
100
AcDbLine
 10
5.7806514574
 20
26.285
 30
0.0
 11
5.7806514574
 21
26.2
 31
0.0
  0
CIRCLE
  5
B8
102
{ACAD_REACTORS
330
BA
102
}
100
AcDbEntity
  8
Z0_BOTCOMP
370
        25
  6
Continuous
 62
         4
100
AcDbCircle
 10
5.7806514574
 20
26.0
 30
0.0
 40
0.059
  0
CIRCLE
  5
B9
102
{ACAD_REACTORS
330
BA
102
}
100
AcDbEntity
  8
Z0_BOTCOMP
370
        25
  6
Continuous
 62
         4
100
AcDbCircle
 10
5.7806514574
 20
26.0
 30
0.0
 40
0.085
  0
LINE
  5
BB
102
{ACAD_REACTORS
330
C0
102
}
100
AcDbEntity
  8
Z0_TOPCOMP
370
         5
  6
Continuous
 62
         6
100
AcDbLine
 10
5.5838036602
 20
26.195185443
 30
0.0
 11
9.4050586141
 21
26.195185443
 31
0.0
  0
LINE
  5
BC
102
{ACAD_REACTORS
330
C0
102
}
100
AcDbEntity
  8
Z0_TOPCOMP
370
         5
  6
Continuous
 62
         6
100
AcDbLine
 10
9.4050586141
 20
26.195185443
 30
0.0
 11
9.4050586141
 21
25.7929484537
 31
0.0
  0
LINE
  5
BD
102
{ACAD_REACTORS
330
C0
102
}
100
AcDbEntity
  8
Z0_TOPCOMP
370
         5
  6
Continuous
 62
         6
100
AcDbLine
 10
9.4050586141
 20
25.7929484537
 30
0.0
 11
5.5838036602
 21
25.7929484537
 31
0.0
  0
LINE
  5
BE
102
{ACAD_REACTORS
330
C0
102
}
100
AcDbEntity
  8
Z0_TOPCOMP
370
         5
  6
Continuous
 62
         6
100
AcDbLine
 10
5.5838036602
 20
25.7929484537
 30
0.0
 11
5.5838036602
 21
26.195185443
 31
0.0
  0
LINE
  5
BF
102
{ACAD_REACTORS
330
C0
102
}
100
AcDbEntity
  8
Z0_TOPCOMP
370
         5
  6
Continuous
 62
         6
100
AcDbLine
 10
5.5838036602
 20
26.195185443
 30
0.0
 11
5.5838036602
 21
26.195185443
 31
0.0
  0
CIRCLE
  5
C1
100
AcDbEntity
  8
Z0_CUT500
370
        25
  6
Continuous
 62
         5
100
AcDbCircle
 10
8.4614421745
 20
26.0018302107
 30
0.0
 40
0.234375
  0
LINE
  5
C2
102
{ACAD_REACTORS
330
C7
102
}
100
AcDbEntity
  8
Z0_TOPCOMP
370
         5
  6
Continuous
 62
         6
100
AcDbLine
 10
12.7911963398
 20
26.195185443
 30
0.0
 11
8.9699413859
 21
26.195185443
 31
0.0
  0
LINE
  5
C3
102
{ACAD_REACTORS
330
C7
102
}
100
AcDbEntity
  8
Z0_TOPCOMP
370
         5
  6
Continuous
 62
         6
100
AcDbLine
 10
8.9699413859
 20
26.195185443
 30
0.0
 11
8.9699413859
 21
25.7929484537
 31
0.0
  0
LINE
  5
C4
102
{ACAD_REACTORS
330
C7
102
}
100
AcDbEntity
  8
Z0_TOPCOMP
370
         5
  6
Continuous
 62
         6
100
AcDbLine
 10
8.9699413859
 20
25.7929484537
 30
0.0
 11
12.7911963398
 21
25.7929484537
 31
0.0
  0
LINE
  5
C5
102
{ACAD_REACTORS
330
C7
102
}
100
AcDbEntity
  8
Z0_TOPCOMP
370
         5
  6
Continuous
 62
         6
100
AcDbLine
 10
12.7911963398
 20
25.7929484537
 30
0.0
 11
12.7911963398
 21
26.195185443
 31
0.0
  0
LINE
  5
C6
102
{ACAD_REACTORS
330
C7
102
}
100
AcDbEntity
  8
Z0_TOPCOMP
370
         5
  6
Continuous
 62
         6
100
AcDbLine
 10
12.7911963398
 20
26.195185443
 30
0.0
 11
12.7911963398
 21
26.195185443
 31
0.0
  0
CIRCLE
  5
C8
100
AcDbEntity
  8
Z0_CUT500
370
        25
  6
Continuous
 62
         5
100
AcDbCircle
 10
9.9135578255
 20
26.0018302107
 30
0.0
 40
0.234375
  0
CIRCLE
  5
C9
102
{ACAD_REACTORS
330
CB
102
}
100
AcDbEntity
  8
Z0_RUBBER
370
        25
  6
Continuous
 62
         2
100
AcDbCircle
 10
12.5943485426
 20
26.0
 30
0.0
 40
0.4
  0
CIRCLE
  5
CA
102
{ACAD_REACTORS
330
CB
102
}
100
AcDbEntity
  8
Z0_RUBBER
370
        25
  6
Continuous
 62
         2
100
AcDbCircle
 10
12.5943485426
 20
26.0
 30
0.0
 40
0.215
  0
CIRCLE
  5
CC
100
AcDbEntity
  8
Z0_TOPCOMP
370
        25
  6
Continuous
 62
         6
100
AcDbCircle
 10
12.5943485426
 20
26.0
 30
0.0
 40
0.35
  0
ARC
  5
CD
102
{ACAD_REACTORS
330
D8
102
}
100
AcDbEntity
  8
Z0_BOTCOMP
370
        25
  6
Continuous
 62
         4
100
AcDbCircle
 10
12.5943485426
 20
26.0
 30
0.0
 40
0.285
100
AcDbArc
 50
15.4320713506
 51
90.0
  0
ARC
  5
CE
102
{ACAD_REACTORS
330
D8
102
}
100
AcDbEntity
  8
Z0_BOTCOMP
370
        25
  6
Continuous
 62
         4
100
AcDbCircle
 10
12.5943485426
 20
26.0
 30
0.0
 40
0.285
100
AcDbArc
 50
-104.5679286494
 51
-30.0
  0
ARC
  5
CF
102
{ACAD_REACTORS
330
D8
102
}
100
AcDbEntity
  8
Z0_BOTCOMP
370
        25
  6
Continuous
 62
         4
100
AcDbCircle
 10
12.5943485426
 20
26.0
 30
0.0
 40
0.285
100
AcDbArc
 50
135.4320713506
 51
-150.0
  0
LINE
  5
D0
102
{ACAD_REACTORS
330
D8
102
}
100
AcDbEntity
  8
Z0_BOTCOMP
370
        25
  6
Continuous
 62
         4
100
AcDbLine
 10
12.8411657827
 20
25.8575
 30
0.0
 11
12.7675536234
 21
25.9
 31
0.0
  0
LINE
  5
D1
102
{ACAD_REACTORS
330
D8
102
}
100
AcDbEntity
  8
Z0_BOTCOMP
370
        25
  6
Continuous
 62
         4
100
AcDbLine
 10
12.7675536234
 20
25.9
 30
0.0
 11
12.8690733259
 21
26.0758372827
 31
0.0
  0
LINE
  5
D2
102
{ACAD_REACTORS
330
D8
102
}
100
AcDbEntity
  8
Z0_BOTCOMP
370
        25
  6
Continuous
 62
         4
100
AcDbLine
 10
12.3475313026
 20
25.8575
 30
0.0
 11
12.4211434619
 21
25.9
 31
0.0
  0
LINE
  5
D3
102
{ACAD_REACTORS
330
D8
102
}
100
AcDbEntity
  8
Z0_BOTCOMP
370
        25
  6
Continuous
 62
         4
100
AcDbLine
 10
12.4211434619
 20
25.9
 30
0.0
 11
12.5226631644
 21
25.7241627173
 31
0.0
  0
LINE
  5
D4
102
{ACAD_REACTORS
330
D8
102
}
100
AcDbEntity
  8
Z0_BOTCOMP
370
        25
  6
Continuous
 62
         4
100
AcDbLine
 10
12.5943485426
 20
26.2
 30
0.0
 11
12.3913091376
 21
26.2
 31
0.0
  0
LINE
  5
D5
102
{ACAD_REACTORS
330
D8
102
}
100
AcDbEntity
  8
Z0_BOTCOMP
370
        25
  6
Continuous
 62
         4
100
AcDbLine
 10
12.5943485426
 20
26.285
 30
0.0
 11
12.5943485426
 21
26.2
 31
0.0
  0
CIRCLE
  5
D6
102
{ACAD_REACTORS
330
D8
102
}
100
AcDbEntity
  8
Z0_BOTCOMP
370
        25
  6
Continuous
 62
         4
100
AcDbCircle
 10
12.5943485426
 20
26.0
 30
0.0
 40
0.059
  0
CIRCLE
  5
D7
102
{ACAD_REACTORS
330
D8
102
}
100
AcDbEntity
  8
Z0_BOTCOMP
370
        25
  6
Continuous
 62
         4
100
AcDbCircle
 10
12.5943485426
 20
26.0
 30
0.0
 40
0.085
  0
CIRCLE
  5
D9
100
AcDbEntity
  8
Z0_CUT500
370
        25
  6
Continuous
 62
         5
100
AcDbCircle
 10
12.5943485426
 20
26.0
 30
0.0
 40
0.0825
  0
CIRCLE
  5
DA
100
AcDbEntity
  8
Z0_CUT500
370
        25
  6
Continuous
 62
         5
100
AcDbCircle
 10
8.6874633999
 20
25.4491862471
 30
0.0
 40
0.1225
  0
CIRCLE
  5
DB
102
{ACAD_REACTORS
330
DD
102
}
100
AcDbEntity
  8
Z0_RUBBER
370
        25
  6
Continuous
 62
         2
100
AcDbCircle
 10
8.6874633999
 20
25.4491862471
 30
0.0
 40
0.215
  0
CIRCLE
  5
DC
102
{ACAD_REACTORS
330
DD
102
}
100
AcDbEntity
  8
Z0_RUBBER
370
        25
  6
Continuous
 62
         2
100
AcDbCircle
 10
8.6874633999
 20
25.4491862471
 30
0.0
 40
0.07
  0
ARC
  5
DE
102
{ACAD_REACTORS
330
E9
102
}
100
AcDbEntity
  8
Z0_BOTCOMP
370
        25
  6
Continuous
 62
         4
100
AcDbCircle
 10
9.1875
 20
27.102
 30
0.0
 40
0.285
100
AcDbArc
 50
90.0
 51
164.5679286494
  0
ARC
  5
DF
102
{ACAD_REACTORS
330
E9
102
}
100
AcDbEntity
  8
Z0_BOTCOMP
370
        25
  6
Continuous
 62
         4
100
AcDbCircle
 10
9.1875
 20
27.102
 30
0.0
 40
0.285
100
AcDbArc
 50
-150.0
 51
-75.4320713506
  0
ARC
  5
E0
102
{ACAD_REACTORS
330
E9
102
}
100
AcDbEntity
  8
Z0_BOTCOMP
370
        25
  6
Continuous
 62
         4
100
AcDbCircle
 10
9.1875
 20
27.102
 30
0.0
 40
0.285
100
AcDbArc
 50
-30.0
 51
44.5679286494
  0
LINE
  5
E1
102
{ACAD_REACTORS
330
E9
102
}
100
AcDbEntity
  8
Z0_BOTCOMP
370
        25
  6
Continuous
 62
         4
100
AcDbLine
 10
8.9406827599
 20
26.9595
 30
0.0
 11
9.0142949192
 21
27.002
 31
0.0
  0
LINE
  5
E2
102
{ACAD_REACTORS
330
E9
102
}
100
AcDbEntity
  8
Z0_BOTCOMP
370
        25
  6
Continuous
 62
         4
100
AcDbLine
 10
9.0142949192
 20
27.002
 30
0.0
 11
8.9127752167
 21
27.1778372827
 31
0.0
  0
LINE
  5
E3
102
{ACAD_REACTORS
330
E9
102
}
100
AcDbEntity
  8
Z0_BOTCOMP
370
        25
  6
Continuous
 62
         4
100
AcDbLine
 10
9.4343172401
 20
26.9595
 30
0.0
 11
9.3607050808
 21
27.002
 31
0.0
  0
LINE
  5
E4
102
{ACAD_REACTORS
330
E9
102
}
100
AcDbEntity
  8
Z0_BOTCOMP
370
        25
  6
Continuous
 62
         4
100
AcDbLine
 10
9.3607050808
 20
27.002
 30
0.0
 11
9.2591853782
 21
26.8261627173
 31
0.0
  0
LINE
  5
E5
102
{ACAD_REACTORS
330
E9
102
}
100
AcDbEntity
  8
Z0_BOTCOMP
370
        25
  6
Continuous
 62
         4
100
AcDbLine
 10
9.1875
 20
27.302
 30
0.0
 11
9.390539405
 21
27.302
 31
0.0
  0
LINE
  5
E6
102
{ACAD_REACTORS
330
E9
102
}
100
AcDbEntity
  8
Z0_BOTCOMP
370
        25
  6
Continuous
 62
         4
100
AcDbLine
 10
9.1875
 20
27.387
 30
0.0
 11
9.1875
 21
27.302
 31
0.0
  0
CIRCLE
  5
E7
102
{ACAD_REACTORS
330
E9
102
}
100
AcDbEntity
  8
Z0_BOTCOMP
370
        25
  6
Continuous
 62
         4
100
AcDbCircle
 10
9.1875
 20
27.102
 30
0.0
 40
0.059
  0
CIRCLE
  5
E8
102
{ACAD_REACTORS
330
E9
102
}
100
AcDbEntity
  8
Z0_BOTCOMP
370
        25
  6
Continuous
 62
         4
100
AcDbCircle
 10
9.1875
 20
27.102
 30
0.0
 40
0.085
  0
ENDSEC
  0
SECTION
  2
OBJECTS
  0
DICTIONARY
  5
19
100
AcDbDictionary
280
         0
281
         1
  3
ACAD_GROUP
350
1A
  3
ACAD_MLINESTYLE
350
1B
  3
ACAD_LAYOUT
350
1E
  3
ACAD_PLOTSETTINGS
350
22
  3
ACAD_PLOTSTYLENAME
350
1F
  3
ACAD_WIPEOUT_VARS
350
23
  0
DICTIONARY
  5
1A
102
{ACAD_REACTORS
330
19
102
}
100
AcDbDictionary
280
         0
281
         1
  3
VELLUMGRP1
350
5C
  3
VELLUMGRP2
350
68
  3
VELLUMGRP3
350
74
  3
VELLUMGRP4
350
77
  3
VELLUMGRP5
350
7C
  3
VELLUMGRP6
350
7F
  3
VELLUMGRP7
350
8D
  3
VELLUMGRP8
350
99
  3
VELLUMGRP9
350
A5
  3
VELLUMGRP10
350
A8
  3
VELLUMGRP11
350
AD
  3
VELLUMGRP12
350
BA
  3
VELLUMGRP13
350
C0
  3
VELLUMGRP14
350
C7
  3
VELLUMGRP15
350
CB
  3
VELLUMGRP16
350
D8
  3
VELLUMGRP17
350
DD
  3
VELLUMGRP18
350
E9
  0
DICTIONARY
  5
1B
102
{ACAD_REACTORS
330
19
102
}
100
AcDbDictionary
280
         0
281
         1
  3
Standard
350
1C
  0
MLINESTYLE
  5
1C
102
{ACAD_REACTORS
330
1B
102
}
100
AcDbMlineStyle
  2
Standard
 70
         0
  3

 62
         0
 51
90.0
 52
90.0
 71
         2
 49
0.5
 62
       256
  6
BYLAYER
 49
-0.5
 62
       256
  6
BYLAYER
  0
ACDBDICTIONARYWDFLT
  5
1F
102
{ACAD_REACTORS
330
19
102
}
100
AcDbDictionary
281
         1
  3
Normal
350
1D
100
AcDbDictionaryWithDefault
340
1D
  0
ACDBPLACEHOLDER
  5
1D
102
{ACAD_REACTORS
330
1F
102
}
  0
LAYOUT
  5
20
102
{ACAD_REACTORS
330
1E
102
}
100
AcDbPlotSettings
  1

  2

  4

  6

 40
0.0
 41
0.0
 42
0.0
 43
0.0
 44
0.0
 45
0.0
 46
0.0
 47
0.0
 48
0.0
 49
0.0
140
0.0
141
0.0
142
1.0
143
1.0
 70
      1024
 72
         0
 73
         0
 74
         0
  7

 75
         0
147
1.0
148
0.0
149
0.0
100
AcDbLayout
  1
Model
 70
         0
 71
         0
 10
0.0
 20
0.0
 11
0.0
 21
0.0
 12
0.0
 22
0.0
 32
0.0
 14
0.0
 24
0.0
 34
0.0
 15
0.0
 25
0.0
 35
0.0
146
0.0
 13
0.0
 23
0.0
 33
0.0
 16
0.0
 26
0.0
 36
0.0
 17
0.0
 27
0.0
 37
0.0
 76
         0
330
A
331
0
345
0
346
0
  0
LAYOUT
  5
21
102
{ACAD_REACTORS
330
1E
102
}
100
AcDbPlotSettings
  1

  2

  4

  6

 40
0.0
 41
0.0
 42
0.0
 43
0.0
 44
0.0
 45
0.0
 46
0.0
 47
0.0
 48
0.0
 49
0.0
140
0.0
141
0.0
142
1.0
143
1.0
 70
         0
 72
         0
 73
         0
 74
         0
  7

 75
         0
147
1.0
148
0.0
149
0.0
100
AcDbLayout
  1
Layout1
 70
         0
 71
         0
 10
0.0
 20
0.0
 11
0.0
 21
0.0
 12
0.0
 22
0.0
 32
0.0
 14
0.0
 24
0.0
 34
0.0
 15
0.0
 25
0.0
 35
0.0
146
0.0
 13
0.0
 23
0.0
 33
0.0
 16
0.0
 26
0.0
 36
0.0
 17
0.0
 27
0.0
 37
0.0
 76
         0
330
B
331
0
345
0
346
0
  0
DICTIONARY
  5
1E
102
{ACAD_REACTORS
330
19
102
}
100
AcDbDictionary
280
         0
281
         1
  3
Layout1
350
21
  3
Model
350
20
  0
DICTIONARY
  5
22
102
{ACAD_REACTORS
330
19
102
}
100
AcDbDictionary
280
         0
281
         1
  0
WIPEOUTVARIABLES
  5
23
100
AcDbWipeoutVariables
 70
         1
  0
GROUP
  5
5C
102
{ACAD_XDICTIONARY
360
5CEB210060EB2100
102
}
102
{ACAD_REACTORS
330
1A
102
}
100
AcDbGroup
300
This is Vellum Group Number 1
 70
         0
 71
         1
340
5A
340
5B
  0
GROUP
  5
68
102
{ACAD_XDICTIONARY
360
3207917C60EB2100
102
}
102
{ACAD_REACTORS
330
1A
102
}
100
AcDbGroup
300
This is Vellum Group Number 2
 70
         0
 71
         1
340
5D
340
5E
340
5F
340
60
340
61
340
62
340
63
340
64
340
65
340
66
340
67
  0
GROUP
  5
74
102
{ACAD_XDICTIONARY
360
3207917C60EB2100
102
}
102
{ACAD_REACTORS
330
1A
102
}
100
AcDbGroup
300
This is Vellum Group Number 3
 70
         0
 71
         1
340
69
340
6A
340
6B
340
6C
340
6D
340
6E
340
6F
340
70
340
71
340
72
340
73
  0
GROUP
  5
77
102
{ACAD_XDICTIONARY
360
3207917C60EB2100
102
}
102
{ACAD_REACTORS
330
1A
102
}
100
AcDbGroup
300
This is Vellum Group Number 4
 70
         0
 71
         1
340
75
340
76
  0
GROUP
  5
7C
102
{ACAD_XDICTIONARY
360
3207917C60EB2100
102
}
102
{ACAD_REACTORS
330
1A
102
}
100
AcDbGroup
300
This is Vellum Group Number 5
 70
         0
 71
         1
340
7A
340
7B
  0
GROUP
  5
7F
102
{ACAD_XDICTIONARY
360
3207917C60EB2100
102
}
102
{ACAD_REACTORS
330
1A
102
}
100
AcDbGroup
300
This is Vellum Group Number 6
 70
         0
 71
         1
340
7D
340
7E
  0
GROUP
  5
8D
102
{ACAD_XDICTIONARY
360
3207917C60EB2100
102
}
102
{ACAD_REACTORS
330
1A
102
}
100
AcDbGroup
300
This is Vellum Group Number 7
 70
         0
 71
         1
340
82
340
83
340
84
340
85
340
86
340
87
340
88
340
89
340
8A
340
8B
340
8C
  0
GROUP
  5
99
102
{ACAD_XDICTIONARY
360
3207917C60EB2100
102
}
102
{ACAD_REACTORS
330
1A
102
}
100
AcDbGroup
300
This is Vellum Group Number 8
 70
         0
 71
         1
340
8E
340
8F
340
90
340
91
340
92
340
93
340
94
340
95
340
96
340
97
340
98
  0
GROUP
  5
A5
102
{ACAD_XDICTIONARY
360
3207917C60EB2100
102
}
102
{ACAD_REACTORS
330
1A
102
}
100
AcDbGroup
300
This is Vellum Group Number 9
 70
         0
 71
         1
340
9A
340
9B
340
9C
340
9D
340
9E
340
9F
340
A0
340
A1
340
A2
340
A3
340
A4
  0
GROUP
  5
A8
102
{ACAD_XDICTIONARY
360
3207917C60EB2100
102
}
102
{ACAD_REACTORS
330
1A
102
}
100
AcDbGroup
300
This is Vellum Group Number 10
 70
         0
 71
         1
340
A6
340
A7
  0
GROUP
  5
AD
102
{ACAD_XDICTIONARY
360
3207917C60EB2100
102
}
102
{ACAD_REACTORS
330
1A
102
}
100
AcDbGroup
300
This is Vellum Group Number 11
 70
         0
 71
         1
340
AB
340
AC
  0
GROUP
  5
BA
102
{ACAD_XDICTIONARY
360
3207917C60EB2100
102
}
102
{ACAD_REACTORS
330
1A
102
}
100
AcDbGroup
300
This is Vellum Group Number 12
 70
         0
 71
         1
340
AF
340
B0
340
B1
340
B2
340
B3
340
B4
340
B5
340
B6
340
B7
340
B8
340
B9
  0
GROUP
  5
C0
102
{ACAD_XDICTIONARY
360
3207917C60EB2100
102
}
102
{ACAD_REACTORS
330
1A
102
}
100
AcDbGroup
300
This is Vellum Group Number 13
 70
         0
 71
         1
340
BB
340
BC
340
BD
340
BE
340
BF
  0
GROUP
  5
C7
102
{ACAD_XDICTIONARY
360
3207917C60EB2100
102
}
102
{ACAD_REACTORS
330
1A
102
}
100
AcDbGroup
300
This is Vellum Group Number 14
 70
         0
 71
         1
340
C2
340
C3
340
C4
340
C5
340
C6
  0
GROUP
  5
CB
102
{ACAD_XDICTIONARY
360
3207917C60EB2100
102
}
102
{ACAD_REACTORS
330
1A
102
}
100
AcDbGroup
300
This is Vellum Group Number 15
 70
         0
 71
         1
340
C9
340
CA
  0
GROUP
  5
D8
102
{ACAD_XDICTIONARY
360
3207917C60EB2100
102
}
102
{ACAD_REACTORS
330
1A
102
}
100
AcDbGroup
300
This is Vellum Group Number 16
 70
         0
 71
         1
340
CD
340
CE
340
CF
340
D0
340
D1
340
D2
340
D3
340
D4
340
D5
340
D6
340
D7
  0
GROUP
  5
DD
102
{ACAD_XDICTIONARY
360
3207917C60EB2100
102
}
102
{ACAD_REACTORS
330
1A
102
}
100
AcDbGroup
300
This is Vellum Group Number 17
 70
         0
 71
         1
340
DB
340
DC
  0
GROUP
  5
E9
102
{ACAD_XDICTIONARY
360
3207917C60EB2100
102
}
102
{ACAD_REACTORS
330
1A
102
}
100
AcDbGroup
300
This is Vellum Group Number 18
 70
         0
 71
         1
340
DE
340
DF
340
E0
340
E1
340
E2
340
E3
340
E4
340
E5
340
E6
340
E7
340
E8
  0
ENDSEC
  0
EOF
