<svg version="1.1" viewBox="0.0 0.0 730.0 531.0" fill="none" stroke="none" stroke-linecap="square" stroke-miterlimit="10" width="730" height="531" xmlns:xlink="http://www.w3.org/1999/xlink" xmlns="http://www.w3.org/2000/svg"><path fill="#ffffff" d="M0 0L730.0 0L730.0 531.0L0 531.0L0 0Z" fill-rule="nonzero"/><path stroke="#cccccc" stroke-width="1.0" stroke-linecap="butt" d="M95.5 128.5L95.5 452.5" fill-rule="nonzero"/><path stroke="#cccccc" stroke-width="1.0" stroke-linecap="butt" d="M246.5 128.5L246.5 452.5" fill-rule="nonzero"/><path stroke="#cccccc" stroke-width="1.0" stroke-linecap="butt" d="M397.5 128.5L397.5 452.5" fill-rule="nonzero"/><path stroke="#cccccc" stroke-width="1.0" stroke-linecap="butt" d="M547.5 128.5L547.5 452.5" fill-rule="nonzero"/><path stroke="#cccccc" stroke-width="1.0" stroke-linecap="butt" d="M698.5 128.5L698.5 452.5" fill-rule="nonzero"/><path stroke="#333333" stroke-width="1.0" stroke-linecap="butt" d="M95.5 452.5L703.5 452.5" fill-rule="nonzero"/><path stroke="#cccccc" stroke-width="1.0" stroke-linecap="butt" d="M95.5 387.5L703.5 387.5" fill-rule="nonzero"/><path stroke="#cccccc" stroke-width="1.0" stroke-linecap="butt" d="M95.5 322.5L703.5 322.5" fill-rule="nonzero"/><path stroke="#cccccc" stroke-width="1.0" stroke-linecap="butt" d="M95.5 258.5L703.5 258.5" fill-rule="nonzero"/><path stroke="#cccccc" stroke-width="1.0" stroke-linecap="butt" d="M95.5 193.5L703.5 193.5" fill-rule="nonzero"/><path stroke="#cccccc" stroke-width="1.0" stroke-linecap="butt" d="M95.5 128.5L703.5 128.5" fill-rule="nonzero"/><clipPath id="id_0"><path d="M95.55 128.45L703.45 128.45L703.45 452.45L95.55 452.45L95.55 128.45Z" clip-rule="nonzero"/></clipPath><path stroke="#4285f4" stroke-width="2.0" stroke-linecap="butt" clip-path="url(#id_0)" d="M698.4908 276.194L494.16086 328.13284L397.0204 362.702L232.37119 388.90604L170.9176 402.878L137.36687 411.97296" fill-rule="nonzero"/><path stroke="#ea4335" stroke-width="2.0" stroke-linecap="butt" clip-path="url(#id_0)" d="M698.4908 225.65L494.16086 292.37296L397.0204 336.782L232.37119 372.49554L170.9176 391.538L137.36687 403.93356" fill-rule="nonzero"/><path stroke="#fbbc04" stroke-width="2.0" stroke-linecap="butt" clip-path="url(#id_0)" d="M698.4908 134.93L494.16086 228.30322L397.0204 290.45L232.37119 344.3373L170.9176 373.07L137.36687 391.77335" fill-rule="nonzero"/><path fill="#4285f4" clip-path="url(#id_0)" d="M701.9908 276.194C701.9908 278.12698 700.42377 279.694 698.4908 279.694C696.5578 279.694 694.9908 278.12698 694.9908 276.194C694.9908 274.26102 696.5578 272.694 698.4908 272.694C700.42377 272.694 701.9908 274.26102 701.9908 276.194Z" fill-rule="nonzero"/><path fill="#4285f4" clip-path="url(#id_0)" d="M497.66086 328.13284C497.66086 330.06586 496.09384 331.63284 494.16086 331.63284C492.22784 331.63284 490.66086 330.06586 490.66086 328.13284C490.66086 326.19986 492.22784 324.63284 494.16086 324.63284C496.09384 324.63284 497.66086 326.19986 497.66086 328.13284Z" fill-rule="nonzero"/><path fill="#4285f4" clip-path="url(#id_0)" d="M400.5204 362.702C400.5204 364.635 398.9534 366.202 397.0204 366.202C395.0874 366.202 393.5204 364.635 393.5204 362.702C393.5204 360.769 395.0874 359.202 397.0204 359.202C398.9534 359.202 400.5204 360.769 400.5204 362.702Z" fill-rule="nonzero"/><path fill="#4285f4" clip-path="url(#id_0)" d="M235.87119 388.90604C235.87119 390.83902 234.30417 392.40604 232.37119 392.40604C230.43819 392.40604 228.87119 390.83902 228.87119 388.90604C228.87119 386.97302 230.43819 385.40604 232.37119 385.40604C234.30417 385.40604 235.87119 386.97302 235.87119 388.90604Z" fill-rule="nonzero"/><path fill="#4285f4" clip-path="url(#id_0)" d="M174.4176 402.878C174.4176 404.811 172.8506 406.378 170.9176 406.378C168.9846 406.378 167.4176 404.811 167.4176 402.878C167.4176 400.945 168.9846 399.378 170.9176 399.378C172.8506 399.378 174.4176 400.945 174.4176 402.878Z" fill-rule="nonzero"/><path fill="#4285f4" clip-path="url(#id_0)" d="M140.86687 411.97296C140.86687 413.90594 139.29985 415.47296 137.36687 415.47296C135.43387 415.47296 133.86687 413.90594 133.86687 411.97296C133.86687 410.03998 135.43387 408.47296 137.36687 408.47296C139.29985 408.47296 140.86687 410.03998 140.86687 411.97296Z" fill-rule="nonzero"/><path fill="#ea4335" clip-path="url(#id_0)" d="M701.9908 225.65C701.9908 227.583 700.42377 229.15 698.4908 229.15C696.5578 229.15 694.9908 227.583 694.9908 225.65C694.9908 223.71701 696.5578 222.15 698.4908 222.15C700.42377 222.15 701.9908 223.71701 701.9908 225.65Z" fill-rule="nonzero"/><path fill="#ea4335" clip-path="url(#id_0)" d="M497.66086 292.37296C497.66086 294.30594 496.09384 295.87296 494.16086 295.87296C492.22784 295.87296 490.66086 294.30594 490.66086 292.37296C490.66086 290.43994 492.22784 288.87296 494.16086 288.87296C496.09384 288.87296 497.66086 290.43994 497.66086 292.37296Z" fill-rule="nonzero"/><path fill="#ea4335" clip-path="url(#id_0)" d="M400.5204 336.782C400.5204 338.715 398.9534 340.282 397.0204 340.282C395.0874 340.282 393.5204 338.715 393.5204 336.782C393.5204 334.849 395.0874 333.282 397.0204 333.282C398.9534 333.282 400.5204 334.849 400.5204 336.782Z" fill-rule="nonzero"/><path fill="#ea4335" clip-path="url(#id_0)" d="M235.87119 372.49554C235.87119 374.42856 234.30417 375.99554 232.37119 375.99554C230.43819 375.99554 228.87119 374.42856 228.87119 372.49554C228.87119 370.56256 230.43819 368.99554 232.37119 368.99554C234.30417 368.99554 235.87119 370.56256 235.87119 372.49554Z" fill-rule="nonzero"/><path fill="#ea4335" clip-path="url(#id_0)" d="M174.4176 391.538C174.4176 393.471 172.8506 395.038 170.9176 395.038C168.9846 395.038 167.4176 393.471 167.4176 391.538C167.4176 389.605 168.9846 388.038 170.9176 388.038C172.8506 388.038 174.4176 389.605 174.4176 391.538Z" fill-rule="nonzero"/><path fill="#ea4335" clip-path="url(#id_0)" d="M140.86687 403.93356C140.86687 405.86655 139.29985 407.43356 137.36687 407.43356C135.43387 407.43356 133.86687 405.86655 133.86687 403.93356C133.86687 402.00055 135.43387 400.43356 137.36687 400.43356C139.29985 400.43356 140.86687 402.00055 140.86687 403.93356Z" fill-rule="nonzero"/><path fill="#fbbc04" clip-path="url(#id_0)" d="M701.9908 134.93C701.9908 136.86299 700.42377 138.43 698.4908 138.43C696.5578 138.43 694.9908 136.86299 694.9908 134.93C694.9908 132.99701 696.5578 131.43 698.4908 131.43C700.42377 131.43 701.9908 132.99701 701.9908 134.93Z" fill-rule="nonzero"/><path fill="#fbbc04" clip-path="url(#id_0)" d="M497.66086 228.30322C497.66086 230.23622 496.09384 231.80322 494.16086 231.80322C492.22784 231.80322 490.66086 230.23622 490.66086 228.30322C490.66086 226.37024 492.22784 224.80322 494.16086 224.80322C496.09384 224.80322 497.66086 226.37024 497.66086 228.30322Z" fill-rule="nonzero"/><path fill="#fbbc04" clip-path="url(#id_0)" d="M400.5204 290.45C400.5204 292.383 398.9534 293.95 397.0204 293.95C395.0874 293.95 393.5204 292.383 393.5204 290.45C393.5204 288.517 395.0874 286.95 397.0204 286.95C398.9534 286.95 400.5204 288.517 400.5204 290.45Z" fill-rule="nonzero"/><path fill="#fbbc04" clip-path="url(#id_0)" d="M235.87119 344.3373C235.87119 346.27032 234.30417 347.8373 232.37119 347.8373C230.43819 347.8373 228.87119 346.27032 228.87119 344.3373C228.87119 342.40433 230.43819 340.8373 232.37119 340.8373C234.30417 340.8373 235.87119 342.40433 235.87119 344.3373Z" fill-rule="nonzero"/><path fill="#fbbc04" clip-path="url(#id_0)" d="M174.4176 373.07C174.4176 375.003 172.8506 376.57 170.9176 376.57C168.9846 376.57 167.4176 375.003 167.4176 373.07C167.4176 371.137 168.9846 369.57 170.9176 369.57C172.8506 369.57 174.4176 371.137 174.4176 373.07Z" fill-rule="nonzero"/><path fill="#fbbc04" clip-path="url(#id_0)" d="M140.86687 391.77335C140.86687 393.70633 139.29985 395.27335 137.36687 395.27335C135.43387 395.27335 133.86687 393.70633 133.86687 391.77335C133.86687 389.84036 135.43387 388.27335 137.36687 388.27335C139.29985 388.27335 140.86687 389.84036 140.86687 391.77335Z" fill-rule="nonzero"/><path fill="#000000" d="M350.42188 501.45L350.42188 492.85626L351.57812 492.85626L356.09375 499.60626L356.09375 492.85626L357.1875 492.85626L357.1875 501.45L356.01562 501.45L351.5 494.7L351.5 501.45L350.42188 501.45ZM363.54688 499.45L364.64062 499.575Q364.39062 500.52814 363.6875 501.0594Q362.98438 501.59064 361.90625 501.59064Q360.54688 501.59064 359.73438 500.7469Q358.9375 499.90314 358.9375 498.3875Q358.9375 496.825 359.75 495.96564Q360.5625 495.09064 361.84375 495.09064Q363.09375 495.09064 363.875 495.9344Q364.67188 496.77814 364.67188 498.325Q364.67188 498.41876 364.67188 498.60626L360.03125 498.60626Q360.09375 499.6375 360.60938 500.1844Q361.125 500.71564 361.90625 500.71564Q362.48438 500.71564 362.89062 500.41876Q363.3125 500.10626 363.54688 499.45ZM360.09375 497.7469L363.5625 497.7469Q363.5 496.95 363.17188 496.5594Q362.65625 495.95 361.85938 495.95Q361.125 495.95 360.625 496.4344Q360.14062 496.91876 360.09375 497.7469ZM370.54688 499.45L371.64062 499.575Q371.39062 500.52814 370.6875 501.0594Q369.98438 501.59064 368.90625 501.59064Q367.54688 501.59064 366.73438 500.7469Q365.9375 499.90314 365.9375 498.3875Q365.9375 496.825 366.75 495.96564Q367.5625 495.09064 368.84375 495.09064Q370.09375 495.09064 370.875 495.9344Q371.67188 496.77814 371.67188 498.325Q371.67188 498.41876 371.67188 498.60626L367.03125 498.60626Q367.09375 499.6375 367.60938 500.1844Q368.125 500.71564 368.90625 500.71564Q369.48438 500.71564 369.89062 500.41876Q370.3125 500.10626 370.54688 499.45ZM367.09375 497.7469L370.5625 497.7469Q370.5 496.95 370.17188 496.5594Q369.65625 495.95 368.85938 495.95Q368.125 495.95 367.625 496.4344Q367.14062 496.91876 367.09375 497.7469ZM377.32812 501.45L377.32812 500.66876Q376.73438 501.59064 375.59375 501.59064Q374.84375 501.59064 374.21875 501.1844Q373.59375 500.7625 373.25 500.02814Q372.90625 499.29376 372.90625 498.34064Q372.90625 497.41876 373.21875 496.65314Q373.53125 495.8875 374.15625 495.4969Q374.78125 495.09064 375.54688 495.09064Q376.10938 495.09064 376.54688 495.325Q376.98438 495.5594 377.26562 495.9344L377.26562 492.85626L378.3125 492.85626L378.3125 501.45L377.32812 501.45ZM374.0 498.34064Q374.0 499.54376 374.5 500.1375Q375.0 500.71564 375.6875 500.71564Q376.375 500.71564 376.85938 500.15314Q377.34375 499.59064 377.34375 498.4344Q377.34375 497.15314 376.84375 496.5594Q376.35938 495.96564 375.64062 495.96564Q374.9375 495.96564 374.46875 496.54376Q374.0 497.10626 374.0 498.34064ZM380.26562 501.45L380.26562 492.85626L381.32812 492.85626L381.32812 501.45L380.26562 501.45ZM387.54688 499.45L388.64062 499.575Q388.39062 500.52814 387.6875 501.0594Q386.98438 501.59064 385.90625 501.59064Q384.54688 501.59064 383.73438 500.7469Q382.9375 499.90314 382.9375 498.3875Q382.9375 496.825 383.75 495.96564Q384.5625 495.09064 385.84375 495.09064Q387.09375 495.09064 387.875 495.9344Q388.67188 496.77814 388.67188 498.325Q388.67188 498.41876 388.67188 498.60626L384.03125 498.60626Q384.09375 499.6375 384.60938 500.1844Q385.125 500.71564 385.90625 500.71564Q386.48438 500.71564 386.89062 500.41876Q387.3125 500.10626 387.54688 499.45ZM384.09375 497.7469L387.5625 497.7469Q387.5 496.95 387.17188 496.5594Q386.65625 495.95 385.85938 495.95Q385.125 495.95 384.625 496.4344Q384.14062 496.91876 384.09375 497.7469ZM397.45312 498.075L397.45312 497.075L401.07812 497.0594L401.07812 500.2469Q400.25 500.91876 399.35938 501.2625Q398.46875 501.59064 397.53125 501.59064Q396.26562 501.59064 395.21875 501.0594Q394.1875 500.5125 393.65625 499.4969Q393.14062 498.46564 393.14062 497.2Q393.14062 495.9344 393.65625 494.85626Q394.1875 493.7625 395.17188 493.2469Q396.15625 492.71564 397.4375 492.71564Q398.375 492.71564 399.125 493.0125Q399.875 493.3094 400.29688 493.85626Q400.73438 494.3875 400.95312 495.2625L399.9375 495.54376Q399.73438 494.8875 399.4375 494.5125Q399.15625 494.1375 398.625 493.91876Q398.09375 493.6844 397.45312 493.6844Q396.67188 493.6844 396.09375 493.91876Q395.53125 494.15314 395.17188 494.54376Q394.82812 494.9344 394.64062 495.40314Q394.3125 496.2 394.3125 497.1219Q394.3125 498.27814 394.70312 499.0594Q395.10938 499.825 395.85938 500.2Q396.60938 500.575 397.46875 500.575Q398.20312 500.575 398.90625 500.29376Q399.60938 499.9969 399.96875 499.6844L399.96875 498.075L397.45312 498.075ZM406.35938 500.6844Q405.76562 501.1844 405.21875 501.3875Q404.6875 501.59064 404.0625 501.59064Q403.03125 501.59064 402.48438 501.09064Q401.9375 500.59064 401.9375 499.8094Q401.9375 499.35626 402.14062 498.98126Q402.34375 498.59064 402.6875 498.3719Q403.03125 498.1375 403.45312 498.02814Q403.75 497.9344 404.39062 497.85626Q405.65625 497.71564 406.26562 497.4969Q406.26562 497.27814 406.26562 497.23126Q406.26562 496.575 405.96875 496.3094Q405.5625 495.96564 404.76562 495.96564Q404.03125 495.96564 403.67188 496.23126Q403.3125 496.48126 403.14062 497.1375L402.10938 496.9969Q402.25 496.34064 402.57812 495.9344Q402.90625 495.52814 403.51562 495.3094Q404.125 495.09064 404.92188 495.09064Q405.71875 495.09064 406.21875 495.27814Q406.71875 495.46564 406.95312 495.7469Q407.1875 496.02814 407.28125 496.46564Q407.32812 496.73126 407.32812 497.4344L407.32812 498.84064Q407.32812 500.3094 407.39062 500.7Q407.46875 501.09064 407.67188 501.45L406.5625 501.45Q406.40625 501.1219 406.35938 500.6844ZM406.26562 498.325Q405.6875 498.5594 404.54688 498.73126Q403.89062 498.825 403.625 498.95Q403.35938 499.0594 403.20312 499.27814Q403.0625 499.4969 403.0625 499.77814Q403.0625 500.2 403.375 500.48126Q403.70312 500.7625 404.3125 500.7625Q404.92188 500.7625 405.39062 500.4969Q405.875 500.23126 406.09375 499.7625Q406.26562 499.40314 406.26562 498.71564L406.26562 498.325ZM413.375 501.45L413.375 500.52814Q412.64062 501.59064 411.39062 501.59064Q410.84375 501.59064 410.35938 501.3875Q409.89062 501.16876 409.65625 500.85626Q409.42188 500.52814 409.32812 500.0594Q409.26562 499.7625 409.26562 499.075L409.26562 495.23126L410.32812 495.23126L410.32812 498.6844Q410.32812 499.4969 410.39062 499.79376Q410.48438 500.2 410.79688 500.45Q411.125 500.6844 411.60938 500.6844Q412.07812 500.6844 412.48438 500.45Q412.90625 500.2 413.07812 499.77814Q413.26562 499.35626 413.26562 498.5594L413.26562 495.23126L414.3125 495.23126L414.3125 501.45L413.375 501.45ZM416.09375 501.96564L417.125 502.1219Q417.1875 502.59064 417.48438 502.8094Q417.875 503.10626 418.54688 503.10626Q419.28125 503.10626 419.67188 502.8094Q420.07812 502.5125 420.21875 501.9969Q420.3125 501.66876 420.29688 500.6375Q419.60938 501.45 418.57812 501.45Q417.29688 501.45 416.59375 500.52814Q415.89062 499.59064 415.89062 498.3094Q415.89062 497.41876 416.20312 496.66876Q416.53125 495.90314 417.14062 495.4969Q417.75 495.09064 418.57812 495.09064Q419.6875 495.09064 420.40625 495.98126L420.40625 495.23126L421.375 495.23126L421.375 500.60626Q421.375 502.0594 421.07812 502.66876Q420.78125 503.27814 420.14062 503.6219Q419.5 503.98126 418.5625 503.98126Q417.45312 503.98126 416.76562 503.48126Q416.07812 502.98126 416.09375 501.96564ZM416.96875 498.23126Q416.96875 499.45 417.45312 500.0125Q417.9375 500.575 418.67188 500.575Q419.40625 500.575 419.89062 500.0125Q420.39062 499.45 420.39062 498.2625Q420.39062 497.1219 419.875 496.54376Q419.375 495.96564 418.65625 495.96564Q417.95312 495.96564 417.45312 496.54376Q416.96875 497.10626 416.96875 498.23126ZM427.54688 499.45L428.64062 499.575Q428.39062 500.52814 427.6875 501.0594Q426.98438 501.59064 425.90625 501.59064Q424.54688 501.59064 423.73438 500.7469Q422.9375 499.90314 422.9375 498.3875Q422.9375 496.825 423.75 495.96564Q424.5625 495.09064 425.84375 495.09064Q427.09375 495.09064 427.875 495.9344Q428.67188 496.77814 428.67188 498.325Q428.67188 498.41876 428.67188 498.60626L424.03125 498.60626Q424.09375 499.6375 424.60938 500.1844Q425.125 500.71564 425.90625 500.71564Q426.48438 500.71564 426.89062 500.41876Q427.3125 500.10626 427.54688 499.45ZM424.09375 497.7469L427.5625 497.7469Q427.5 496.95 427.17188 496.5594Q426.65625 495.95 425.85938 495.95Q425.125 495.95 424.625 496.4344Q424.14062 496.91876 424.09375 497.7469ZM435.3125 503.98126Q434.4375 502.8719 433.82812 501.40314Q433.23438 499.91876 433.23438 498.34064Q433.23438 496.95 433.67188 495.66876Q434.20312 494.1844 435.3125 492.71564L436.0625 492.71564Q435.35938 493.9344 435.125 494.45Q434.76562 495.2625 434.5625 496.1375Q434.3125 497.23126 434.3125 498.34064Q434.3125 501.16876 436.0625 503.98126L435.3125 503.98126ZM441.45312 498.075L441.45312 497.075L445.07812 497.0594L445.07812 500.2469Q444.25 500.91876 443.35938 501.2625Q442.46875 501.59064 441.53125 501.59064Q440.26562 501.59064 439.21875 501.0594Q438.1875 500.5125 437.65625 499.4969Q437.14062 498.46564 437.14062 497.2Q437.14062 495.9344 437.65625 494.85626Q438.1875 493.7625 439.17188 493.2469Q440.15625 492.71564 441.4375 492.71564Q442.375 492.71564 443.125 493.0125Q443.875 493.3094 444.29688 493.85626Q444.73438 494.3875 444.95312 495.2625L443.9375 495.54376Q443.73438 494.8875 443.4375 494.5125Q443.15625 494.1375 442.625 493.91876Q442.09375 493.6844 441.45312 493.6844Q440.67188 493.6844 440.09375 493.91876Q439.53125 494.15314 439.17188 494.54376Q438.82812 494.9344 438.64062 495.40314Q438.3125 496.2 438.3125 497.1219Q438.3125 498.27814 438.70312 499.0594Q439.10938 499.825 439.85938 500.2Q440.60938 500.575 441.46875 500.575Q442.20312 500.575 442.90625 500.29376Q443.60938 499.9969 443.96875 499.6844L443.96875 498.075L441.45312 498.075ZM446.98438 503.98126L446.23438 503.98126Q447.98438 501.16876 447.98438 498.34064Q447.98438 497.2469 447.73438 496.15314Q447.53125 495.27814 447.17188 494.46564Q446.9375 493.95 446.23438 492.71564L446.98438 492.71564Q448.07812 494.1844 448.60938 495.66876Q449.0625 496.95 449.0625 498.34064Q449.0625 499.91876 448.45312 501.40314Q447.84375 502.8719 446.98438 503.98126Z" fill-rule="nonzero"/><path fill="#000000" d="M37.55001 342.10626L33.909386 342.10626L28.956263 345.41876L28.956263 344.02814L31.550013 342.34064Q32.26876 341.8719 33.003136 341.46564Q32.33126 341.075 31.487513 340.52814L28.956263 338.85626L28.956263 337.54376L33.909386 340.96564L37.55001 340.96564L37.55001 342.10626ZM36.784386 333.59064Q37.284386 334.1844 37.48751 334.73126Q37.690636 335.2625 37.690636 335.8875Q37.690636 336.91876 37.190636 337.46564Q36.690636 338.0125 35.909386 338.0125Q35.45626 338.0125 35.08126 337.8094Q34.690636 337.60626 34.471886 337.2625Q34.23751 336.91876 34.128136 336.4969Q34.034386 336.2 33.95626 335.5594Q33.815636 334.29376 33.596886 333.6844Q33.378136 333.6844 33.33126 333.6844Q32.67501 333.6844 32.409386 333.98126Q32.065636 334.3875 32.065636 335.1844Q32.065636 335.91876 32.33126 336.27814Q32.58126 336.6375 33.23751 336.8094L33.096886 337.84064Q32.440636 337.7 32.034386 337.3719Q31.628138 337.04376 31.409388 336.4344Q31.190638 335.825 31.190638 335.02814Q31.190638 334.23126 31.378138 333.73126Q31.565638 333.23126 31.846888 332.9969Q32.128136 332.7625 32.565636 332.66876Q32.83126 332.6219 33.534386 332.6219L34.940636 332.6219Q36.409386 332.6219 36.80001 332.5594Q37.190636 332.48126 37.55001 332.27814L37.55001 333.3875Q37.221886 333.54376 36.784386 333.59064ZM34.42501 333.6844Q34.659386 334.2625 34.83126 335.40314Q34.92501 336.0594 35.05001 336.325Q35.159386 336.59064 35.378136 336.7469Q35.596886 336.8875 35.878136 336.8875Q36.30001 336.8875 36.58126 336.575Q36.86251 336.2469 36.86251 335.6375Q36.86251 335.02814 36.596886 334.5594Q36.33126 334.075 35.86251 333.85626Q35.503136 333.6844 34.815636 333.6844L34.42501 333.6844ZM37.55001 330.66876L31.331263 330.66876L31.331263 329.71564L32.26876 329.71564Q31.612513 329.35626 31.409388 329.0594Q31.190638 328.7469 31.190638 328.3719Q31.190638 327.84064 31.518763 327.29376L32.503136 327.65314Q32.26876 328.04376 32.26876 328.41876Q32.26876 328.77814 32.48751 329.0594Q32.690636 329.325 33.065636 329.4344Q33.628136 329.6219 34.284386 329.6219L37.55001 329.6219L37.55001 330.66876ZM37.55001 326.65314L31.331263 326.65314L31.331263 325.71564L32.20626 325.71564Q31.190638 325.02814 31.190638 323.73126Q31.190638 323.16876 31.393763 322.7Q31.596888 322.21564 31.925013 321.98126Q32.253136 321.7469 32.690636 321.65314Q32.98751 321.60626 33.721886 321.60626L37.55001 321.60626L37.55001 322.65314L33.76876 322.65314Q33.11251 322.65314 32.80001 322.77814Q32.48751 322.90314 32.30001 323.21564Q32.096886 323.52814 32.096886 323.95Q32.096886 324.6219 32.534386 325.1219Q32.95626 325.60626 34.14376 325.60626L37.55001 325.60626L37.55001 326.65314ZM37.55001 315.02814L28.956263 317.3094L28.956263 316.1375L34.596886 314.825Q35.471886 314.6219 36.346886 314.46564Q34.971886 314.1375 34.753136 314.075L28.956263 312.45L28.956263 311.075L33.30001 309.84064Q34.92501 309.3875 36.346886 309.16876Q35.534386 309.0125 34.471886 308.7469L28.956263 307.40314L28.956263 306.2625L37.55001 308.60626L37.55001 309.71564L31.003138 311.5125Q30.190638 311.7469 30.003138 311.79376Q30.581263 311.91876 31.003138 312.04376L37.55001 313.85626L37.55001 315.02814ZM35.55001 301.40314L35.67501 300.3094Q36.628136 300.5594 37.159386 301.2625Q37.690636 301.96564 37.690636 303.04376Q37.690636 304.40314 36.846886 305.21564Q36.003136 306.0125 34.48751 306.0125Q32.92501 306.0125 32.065636 305.2Q31.190638 304.3875 31.190638 303.10626Q31.190638 301.85626 32.034386 301.075Q32.878136 300.27814 34.42501 300.27814Q34.51876 300.27814 34.70626 300.27814L34.70626 304.91876Q35.73751 304.85626 36.284386 304.34064Q36.815636 303.825 36.815636 303.04376Q36.815636 302.46564 36.51876 302.0594Q36.20626 301.6375 35.55001 301.40314ZM33.846886 304.85626L33.846886 301.3875Q33.05001 301.45 32.659386 301.77814Q32.05001 302.29376 32.05001 303.09064Q32.05001 303.825 32.534386 304.325Q33.01876 304.8094 33.846886 304.85626ZM30.175013 298.65314L28.956263 298.65314L28.956263 297.59064L30.175013 297.59064L30.175013 298.65314ZM37.55001 298.65314L31.331263 298.65314L31.331263 297.59064L37.55001 297.59064L37.55001 298.65314ZM38.065636 295.85626L38.221886 294.825Q38.690636 294.7625 38.909386 294.46564Q39.20626 294.075 39.20626 293.40314Q39.20626 292.66876 38.909386 292.27814Q38.61251 291.8719 38.096886 291.73126Q37.76876 291.6375 36.73751 291.65314Q37.55001 292.34064 37.55001 293.3719Q37.55001 294.65314 36.628136 295.35626Q35.690636 296.0594 34.409386 296.0594Q33.51876 296.0594 32.76876 295.7469Q32.003136 295.41876 31.596888 294.8094Q31.190638 294.2 31.190638 293.3719Q31.190638 292.2625 32.08126 291.54376L31.331263 291.54376L31.331263 290.575L36.70626 290.575Q38.159386 290.575 38.76876 290.8719Q39.378136 291.16876 39.721886 291.8094Q40.08126 292.45 40.08126 293.3875Q40.08126 294.4969 39.58126 295.1844Q39.08126 295.8719 38.065636 295.85626ZM34.33126 294.98126Q35.55001 294.98126 36.11251 294.4969Q36.67501 294.0125 36.67501 293.27814Q36.67501 292.54376 36.11251 292.0594Q35.55001 291.5594 34.36251 291.5594Q33.221886 291.5594 32.64376 292.075Q32.065636 292.575 32.065636 293.29376Q32.065636 293.9969 32.64376 294.4969Q33.20626 294.98126 34.33126 294.98126ZM37.55001 288.65314L28.956263 288.65314L28.956263 287.60626L32.034386 287.60626Q31.190638 286.8719 31.190638 285.7469Q31.190638 285.04376 31.471888 284.54376Q31.737513 284.02814 32.221886 283.8094Q32.690636 283.59064 33.61251 283.59064L37.55001 283.59064L37.55001 284.6375L33.61251 284.6375Q32.815636 284.6375 32.45626 284.98126Q32.096886 285.325 32.096886 285.95Q32.096886 286.41876 32.346886 286.84064Q32.58126 287.2469 33.003136 287.4344Q33.409386 287.60626 34.14376 287.60626L37.55001 287.60626L37.55001 288.65314ZM36.61251 279.35626L37.534386 279.2Q37.628136 279.65314 37.628136 279.9969Q37.628136 280.575 37.45626 280.8875Q37.26876 281.2 36.971886 281.34064Q36.67501 281.46564 35.721886 281.46564L32.14376 281.46564L32.14376 282.23126L31.331263 282.23126L31.331263 281.46564L29.784388 281.46564L29.159388 280.41876L31.331263 280.41876L31.331263 279.35626L32.14376 279.35626L32.14376 280.41876L35.784386 280.41876Q36.23751 280.41876 36.36251 280.3719Q36.48751 280.3094 36.565636 280.1844Q36.64376 280.0594 36.64376 279.825Q36.64376 279.6375 36.61251 279.35626ZM40.08126 273.6375Q38.971886 274.5125 37.503136 275.1219Q36.01876 275.71564 34.440636 275.71564Q33.05001 275.71564 31.768763 275.27814Q30.284388 274.7469 28.815638 273.6375L28.815638 272.8875Q30.034388 273.59064 30.550013 273.825Q31.362513 274.1844 32.23751 274.3875Q33.33126 274.6375 34.440636 274.6375Q37.26876 274.6375 40.08126 272.8875L40.08126 273.6375ZM37.55001 271.52814L28.956263 271.52814L28.956263 270.3719L35.70626 265.85626L28.956263 265.85626L28.956263 264.7625L37.55001 264.7625L37.55001 265.9344L30.800013 270.45L37.55001 270.45L37.55001 271.52814ZM37.55001 262.65314L31.331263 262.65314L31.331263 261.71564L32.20626 261.71564Q31.737513 261.41876 31.471888 260.9344Q31.190638 260.45 31.190638 259.825Q31.190638 259.1375 31.471888 258.7Q31.753138 258.2469 32.26876 258.075Q31.190638 257.325 31.190638 256.15314Q31.190638 255.21562 31.706263 254.73125Q32.20626 254.23125 33.284386 254.23125L37.55001 254.23125L37.55001 255.27812L33.628136 255.27812Q33.003136 255.27812 32.721886 255.3875Q32.440636 255.48125 32.26876 255.74687Q32.096886 256.0125 32.096886 256.3875Q32.096886 257.04376 32.534386 257.48126Q32.971886 257.90314 33.940636 257.90314L37.55001 257.90314L37.55001 258.96564L33.503136 258.96564Q32.80001 258.96564 32.45626 259.23126Q32.096886 259.48126 32.096886 260.0594Q32.096886 260.5125 32.33126 260.8875Q32.565636 261.2625 33.01876 261.4344Q33.471886 261.60626 34.315636 261.60626L37.55001 261.60626L37.55001 262.65314ZM40.08126 250.96562L40.08126 251.71562Q37.26876 249.96562 34.440636 249.96562Q33.346886 249.96562 32.253136 250.21562Q31.378138 250.41875 30.565638 250.77812Q30.050013 251.0125 28.815638 251.71562L28.815638 250.96562Q30.284388 249.87187 31.768763 249.34062Q33.05001 248.8875 34.440636 248.8875Q36.01876 248.8875 37.503136 249.49687Q38.971886 250.10625 40.08126 250.96562Z" fill-rule="nonzero"/><path fill="#000000" d="M66.05 452.21564Q66.05 450.6844 66.3625 449.7625Q66.675 448.825 67.28438 448.325Q67.90938 447.825 68.84688 447.825Q69.53438 447.825 70.05 448.10626Q70.58125 448.3875 70.925 448.91876Q71.26875 449.4344 71.45625 450.1844Q71.64375 450.9344 71.64375 452.21564Q71.64375 453.73126 71.33125 454.65314Q71.03438 455.575 70.40938 456.09064Q69.8 456.59064 68.84688 456.59064Q67.6125 456.59064 66.89375 455.7Q66.05 454.6375 66.05 452.21564ZM67.12813 452.21564Q67.12813 454.325 67.62813 455.02814Q68.12813 455.73126 68.84688 455.73126Q69.58125 455.73126 70.06563 455.02814Q70.56563 454.325 70.56563 452.21564Q70.56563 450.09064 70.06563 449.40314Q69.58125 448.7 68.83125 448.7Q68.1125 448.7 67.675 449.3094Q67.12813 450.09064 67.12813 452.21564ZM73.64375 456.45L73.64375 455.2469L74.84688 455.2469L74.84688 456.45L73.64375 456.45ZM76.05 452.21564Q76.05 450.6844 76.3625 449.7625Q76.675 448.825 77.28438 448.325Q77.90938 447.825 78.84688 447.825Q79.53438 447.825 80.05 448.10626Q80.58125 448.3875 80.925 448.91876Q81.26875 449.4344 81.45625 450.1844Q81.64375 450.9344 81.64375 452.21564Q81.64375 453.73126 81.33125 454.65314Q81.03438 455.575 80.40938 456.09064Q79.8 456.59064 78.84688 456.59064Q77.6125 456.59064 76.89375 455.7Q76.05 454.6375 76.05 452.21564ZM77.12813 452.21564Q77.12813 454.325 77.62813 455.02814Q78.12813 455.73126 78.84688 455.73126Q79.58125 455.73126 80.06563 455.02814Q80.56563 454.325 80.56563 452.21564Q80.56563 450.09064 80.06563 449.40314Q79.58125 448.7 78.83125 448.7Q78.1125 448.7 77.675 449.3094Q77.12813 450.09064 77.12813 452.21564ZM83.05 452.21564Q83.05 450.6844 83.3625 449.7625Q83.675 448.825 84.28438 448.325Q84.90938 447.825 85.84688 447.825Q86.53438 447.825 87.05 448.10626Q87.58125 448.3875 87.925 448.91876Q88.26875 449.4344 88.45625 450.1844Q88.64375 450.9344 88.64375 452.21564Q88.64375 453.73126 88.33125 454.65314Q88.03438 455.575 87.40938 456.09064Q86.8 456.59064 85.84688 456.59064Q84.6125 456.59064 83.89375 455.7Q83.05 454.6375 83.05 452.21564ZM84.12813 452.21564Q84.12813 454.325 84.62813 455.02814Q85.12813 455.73126 85.84688 455.73126Q86.58125 455.73126 87.06563 455.02814Q87.56563 454.325 87.56563 452.21564Q87.56563 450.09064 87.06563 449.40314Q86.58125 448.7 85.83125 448.7Q85.1125 448.7 84.675 449.3094Q84.12813 450.09064 84.12813 452.21564Z" fill-rule="nonzero"/><path fill="#000000" d="M71.59688 390.63437L71.59688 391.65L65.90938 391.65Q65.90938 391.275 66.03438 390.91562Q66.25313 390.3375 66.72188 389.775Q67.20625 389.2125 68.1125 388.47812Q69.51875 387.32187 70.00313 386.65Q70.50313 385.97812 70.50313 385.38437Q70.50313 384.75937 70.05 384.3375Q69.59688 383.9 68.87813 383.9Q68.1125 383.9 67.65938 384.35312Q67.20625 384.80624 67.19063 385.61874L66.1125 385.50937Q66.22188 384.29062 66.94063 383.66562Q67.675 383.025 68.90938 383.025Q70.14375 383.025 70.8625 383.7125Q71.58125 384.4 71.58125 385.41562Q71.58125 385.93124 71.3625 386.43124Q71.15938 386.91562 70.65938 387.47812Q70.175 388.025 69.05 388.97812Q68.09688 389.775 67.81563 390.07187Q67.55 390.35312 67.37813 390.63437L71.59688 390.63437ZM73.64375 391.65L73.64375 390.44687L74.84688 390.44687L74.84688 391.65L73.64375 391.65ZM76.05 387.41562Q76.05 385.88437 76.3625 384.9625Q76.675 384.025 77.28438 383.525Q77.90938 383.025 78.84688 383.025Q79.53438 383.025 80.05 383.30624Q80.58125 383.5875 80.925 384.11874Q81.26875 384.63437 81.45625 385.38437Q81.64375 386.13437 81.64375 387.41562Q81.64375 388.93124 81.33125 389.85312Q81.03438 390.775 80.40938 391.29062Q79.8 391.79062 78.84688 391.79062Q77.6125 391.79062 76.89375 390.9Q76.05 389.8375 76.05 387.41562ZM77.12813 387.41562Q77.12813 389.525 77.62813 390.22812Q78.12813 390.93124 78.84688 390.93124Q79.58125 390.93124 80.06563 390.22812Q80.56563 389.525 80.56563 387.41562Q80.56563 385.29062 80.06563 384.60312Q79.58125 383.9 78.83125 383.9Q78.1125 383.9 77.675 384.50937Q77.12813 385.29062 77.12813 387.41562ZM83.05 387.41562Q83.05 385.88437 83.3625 384.9625Q83.675 384.025 84.28438 383.525Q84.90938 383.025 85.84688 383.025Q86.53438 383.025 87.05 383.30624Q87.58125 383.5875 87.925 384.11874Q88.26875 384.63437 88.45625 385.38437Q88.64375 386.13437 88.64375 387.41562Q88.64375 388.93124 88.33125 389.85312Q88.03438 390.775 87.40938 391.29062Q86.8 391.79062 85.84688 391.79062Q84.6125 391.79062 83.89375 390.9Q83.05 389.8375 83.05 387.41562ZM84.12813 387.41562Q84.12813 389.525 84.62813 390.22812Q85.12813 390.93124 85.84688 390.93124Q86.58125 390.93124 87.06563 390.22812Q87.56563 389.525 87.56563 387.41562Q87.56563 385.29062 87.06563 384.60312Q86.58125 383.9 85.83125 383.9Q85.1125 383.9 84.675 384.50937Q84.12813 385.29062 84.12813 387.41562Z" fill-rule="nonzero"/><path fill="#000000" d="M69.425 326.85L69.425 324.7875L65.70625 324.7875L65.70625 323.81876L69.62813 318.25626L70.4875 318.25626L70.4875 323.81876L71.64375 323.81876L71.64375 324.7875L70.4875 324.7875L70.4875 326.85L69.425 326.85ZM69.425 323.81876L69.425 319.95938L66.7375 323.81876L69.425 323.81876ZM73.64375 326.85L73.64375 325.64688L74.84688 325.64688L74.84688 326.85L73.64375 326.85ZM76.05 322.61563Q76.05 321.08438 76.3625 320.1625Q76.675 319.225 77.28438 318.725Q77.90938 318.225 78.84688 318.225Q79.53438 318.225 80.05 318.50626Q80.58125 318.7875 80.925 319.31876Q81.26875 319.83438 81.45625 320.58438Q81.64375 321.33438 81.64375 322.61563Q81.64375 324.13126 81.33125 325.05313Q81.03438 325.975 80.40938 326.49063Q79.8 326.99063 78.84688 326.99063Q77.6125 326.99063 76.89375 326.1Q76.05 325.0375 76.05 322.61563ZM77.12813 322.61563Q77.12813 324.725 77.62813 325.42813Q78.12813 326.13126 78.84688 326.13126Q79.58125 326.13126 80.06563 325.42813Q80.56563 324.725 80.56563 322.61563Q80.56563 320.49063 80.06563 319.80313Q79.58125 319.1 78.83125 319.1Q78.1125 319.1 77.675 319.70938Q77.12813 320.49063 77.12813 322.61563ZM83.05 322.61563Q83.05 321.08438 83.3625 320.1625Q83.675 319.225 84.28438 318.725Q84.90938 318.225 85.84688 318.225Q86.53438 318.225 87.05 318.50626Q87.58125 318.7875 87.925 319.31876Q88.26875 319.83438 88.45625 320.58438Q88.64375 321.33438 88.64375 322.61563Q88.64375 324.13126 88.33125 325.05313Q88.03438 325.975 87.40938 326.49063Q86.8 326.99063 85.84688 326.99063Q84.6125 326.99063 83.89375 326.1Q83.05 325.0375 83.05 322.61563ZM84.12813 322.61563Q84.12813 324.725 84.62813 325.42813Q85.12813 326.13126 85.84688 326.13126Q86.58125 326.13126 87.06563 325.42813Q87.56563 324.725 87.56563 322.61563Q87.56563 320.49063 87.06563 319.80313Q86.58125 319.1 85.83125 319.1Q85.1125 319.1 84.675 319.70938Q84.12813 320.49063 84.12813 322.61563Z" fill-rule="nonzero"/><path fill="#000000" d="M71.51875 255.56561L70.47188 255.64374Q70.33125 255.01874 70.08125 254.73749Q69.64375 254.28436 69.01875 254.28436Q68.51875 254.28436 68.12813 254.56561Q67.64375 254.94061 67.34688 255.64374Q67.06563 256.33124 67.05 257.6125Q67.425 257.03436 67.97188 256.7531Q68.53438 256.47186 69.14375 256.47186Q70.19063 256.47186 70.925 257.2531Q71.675 258.03436 71.675 259.2531Q71.675 260.0656 71.31563 260.76874Q70.97188 261.45624 70.3625 261.83124Q69.75313 262.1906 68.9875 262.1906Q67.65938 262.1906 66.83125 261.22186Q66.00313 260.2531 66.00313 258.03436Q66.00313 255.53436 66.925 254.40936Q67.72188 253.42499 69.08125 253.42499Q70.09688 253.42499 70.7375 254.00311Q71.39375 254.56561 71.51875 255.56561ZM67.22188 259.26874Q67.22188 259.8156 67.44063 260.3156Q67.675 260.8 68.08125 261.0656Q68.50313 261.33124 68.97188 261.33124Q69.62813 261.33124 70.1125 260.8Q70.59688 260.2531 70.59688 259.33124Q70.59688 258.4406 70.1125 257.925Q69.64375 257.40936 68.925 257.40936Q68.20625 257.40936 67.70625 257.925Q67.22188 258.4406 67.22188 259.26874ZM73.64375 262.05L73.64375 260.84686L74.84688 260.84686L74.84688 262.05L73.64375 262.05ZM76.05 257.8156Q76.05 256.28436 76.3625 255.36249Q76.675 254.42499 77.28438 253.92499Q77.90938 253.42499 78.84688 253.42499Q79.53438 253.42499 80.05 253.70624Q80.58125 253.98749 80.925 254.51874Q81.26875 255.03436 81.45625 255.78436Q81.64375 256.53436 81.64375 257.8156Q81.64375 259.33124 81.33125 260.2531Q81.03438 261.175 80.40938 261.6906Q79.8 262.1906 78.84688 262.1906Q77.6125 262.1906 76.89375 261.3Q76.05 260.2375 76.05 257.8156ZM77.12813 257.8156Q77.12813 259.925 77.62813 260.6281Q78.12813 261.33124 78.84688 261.33124Q79.58125 261.33124 80.06563 260.6281Q80.56563 259.925 80.56563 257.8156Q80.56563 255.69061 80.06563 255.00311Q79.58125 254.29999 78.83125 254.29999Q78.1125 254.29999 77.675 254.90936Q77.12813 255.69061 77.12813 257.8156ZM83.05 257.8156Q83.05 256.28436 83.3625 255.36249Q83.675 254.42499 84.28438 253.92499Q84.90938 253.42499 85.84688 253.42499Q86.53438 253.42499 87.05 253.70624Q87.58125 253.98749 87.925 254.51874Q88.26875 255.03436 88.45625 255.78436Q88.64375 256.53436 88.64375 257.8156Q88.64375 259.33124 88.33125 260.2531Q88.03438 261.175 87.40938 261.6906Q86.8 262.1906 85.84688 262.1906Q84.6125 262.1906 83.89375 261.3Q83.05 260.2375 83.05 257.8156ZM84.12813 257.8156Q84.12813 259.925 84.62813 260.6281Q85.12813 261.33124 85.84688 261.33124Q86.58125 261.33124 87.06563 260.6281Q87.56563 259.925 87.56563 257.8156Q87.56563 255.69061 87.06563 255.00311Q86.58125 254.29999 85.83125 254.29999Q85.1125 254.29999 84.675 254.90936Q84.12813 255.69061 84.12813 257.8156Z" fill-rule="nonzero"/><path fill="#000000" d="M67.675 192.59375Q67.01875 192.34375 66.69063 191.90625Q66.37813 191.45312 66.37813 190.84375Q66.37813 189.90625 67.05 189.26562Q67.7375 188.625 68.84688 188.625Q69.97188 188.625 70.65938 189.28125Q71.34688 189.9375 71.34688 190.875Q71.34688 191.46875 71.03438 191.90625Q70.72188 192.34375 70.08125 192.59375Q70.87813 192.84375 71.28438 193.42188Q71.69063 194.0 71.69063 194.79688Q71.69063 195.89062 70.90938 196.64062Q70.14375 197.39062 68.8625 197.39062Q67.59688 197.39062 66.81563 196.64062Q66.03438 195.89062 66.03438 194.76562Q66.03438 193.92188 66.45625 193.35938Q66.89375 192.79688 67.675 192.59375ZM67.45625 190.79688Q67.45625 191.40625 67.84688 191.79688Q68.25313 192.1875 68.87813 192.1875Q69.4875 192.1875 69.87813 191.8125Q70.26875 191.42188 70.26875 190.85938Q70.26875 190.28125 69.8625 189.89062Q69.45625 189.48438 68.8625 189.48438Q68.25313 189.48438 67.84688 189.875Q67.45625 190.26562 67.45625 190.79688ZM67.12813 194.76562Q67.12813 195.21875 67.33125 195.64062Q67.55 196.0625 67.97188 196.29688Q68.39375 196.53125 68.87813 196.53125Q69.62813 196.53125 70.1125 196.04688Q70.6125 195.5625 70.6125 194.8125Q70.6125 194.04688 70.1125 193.54688Q69.6125 193.04688 68.84688 193.04688Q68.09688 193.04688 67.6125 193.54688Q67.12813 194.03125 67.12813 194.76562ZM73.64375 197.25L73.64375 196.04688L74.84688 196.04688L74.84688 197.25L73.64375 197.25ZM76.05 193.01562Q76.05 191.48438 76.3625 190.5625Q76.675 189.625 77.28438 189.125Q77.90938 188.625 78.84688 188.625Q79.53438 188.625 80.05 188.90625Q80.58125 189.1875 80.925 189.71875Q81.26875 190.23438 81.45625 190.98438Q81.64375 191.73438 81.64375 193.01562Q81.64375 194.53125 81.33125 195.45312Q81.03438 196.375 80.40938 196.89062Q79.8 197.39062 78.84688 197.39062Q77.6125 197.39062 76.89375 196.5Q76.05 195.4375 76.05 193.01562ZM77.12813 193.01562Q77.12813 195.125 77.62813 195.82812Q78.12813 196.53125 78.84688 196.53125Q79.58125 196.53125 80.06563 195.82812Q80.56563 195.125 80.56563 193.01562Q80.56563 190.89062 80.06563 190.20312Q79.58125 189.5 78.83125 189.5Q78.1125 189.5 77.675 190.10938Q77.12813 190.89062 77.12813 193.01562ZM83.05 193.01562Q83.05 191.48438 83.3625 190.5625Q83.675 189.625 84.28438 189.125Q84.90938 188.625 85.84688 188.625Q86.53438 188.625 87.05 188.90625Q87.58125 189.1875 87.925 189.71875Q88.26875 190.23438 88.45625 190.98438Q88.64375 191.73438 88.64375 193.01562Q88.64375 194.53125 88.33125 195.45312Q88.03438 196.375 87.40938 196.89062Q86.8 197.39062 85.84688 197.39062Q84.6125 197.39062 83.89375 196.5Q83.05 195.4375 83.05 193.01562ZM84.12813 193.01562Q84.12813 195.125 84.62813 195.82812Q85.12813 196.53125 85.84688 196.53125Q86.58125 196.53125 87.06563 195.82812Q87.56563 195.125 87.56563 193.01562Q87.56563 190.89062 87.06563 190.20312Q86.58125 189.5 85.83125 189.5Q85.1125 189.5 84.675 190.10938Q84.12813 190.89062 84.12813 193.01562Z" fill-rule="nonzero"/><path fill="#000000" d="M63.01875 132.45L61.971874 132.45L61.971874 125.73125Q61.58125 126.09062 60.95625 126.46562Q60.346874 126.825 59.8625 126.99687L59.8625 125.98125Q60.7375 125.55937 61.39375 124.98125Q62.065624 124.3875 62.346874 123.825L63.01875 123.825L63.01875 132.45ZM66.05 128.21562Q66.05 126.68437 66.3625 125.7625Q66.675 124.825 67.28438 124.325Q67.90938 123.825 68.84688 123.825Q69.53438 123.825 70.05 124.10625Q70.58125 124.3875 70.925 124.91875Q71.26875 125.43437 71.45625 126.18437Q71.64375 126.93437 71.64375 128.21562Q71.64375 129.73125 71.33125 130.65312Q71.03438 131.575 70.40938 132.09062Q69.8 132.59062 68.84688 132.59062Q67.6125 132.59062 66.89375 131.7Q66.05 130.6375 66.05 128.21562ZM67.12813 128.21562Q67.12813 130.325 67.62813 131.02812Q68.12813 131.73125 68.84688 131.73125Q69.58125 131.73125 70.06563 131.02812Q70.56563 130.325 70.56563 128.21562Q70.56563 126.09062 70.06563 125.40312Q69.58125 124.7 68.83125 124.7Q68.1125 124.7 67.675 125.30937Q67.12813 126.09062 67.12813 128.21562ZM73.64375 132.45L73.64375 131.24687L74.84688 131.24687L74.84688 132.45L73.64375 132.45ZM76.05 128.21562Q76.05 126.68437 76.3625 125.7625Q76.675 124.825 77.28438 124.325Q77.90938 123.825 78.84688 123.825Q79.53438 123.825 80.05 124.10625Q80.58125 124.3875 80.925 124.91875Q81.26875 125.43437 81.45625 126.18437Q81.64375 126.93437 81.64375 128.21562Q81.64375 129.73125 81.33125 130.65312Q81.03438 131.575 80.40938 132.09062Q79.8 132.59062 78.84688 132.59062Q77.6125 132.59062 76.89375 131.7Q76.05 130.6375 76.05 128.21562ZM77.12813 128.21562Q77.12813 130.325 77.62813 131.02812Q78.12813 131.73125 78.84688 131.73125Q79.58125 131.73125 80.06563 131.02812Q80.56563 130.325 80.56563 128.21562Q80.56563 126.09062 80.06563 125.40312Q79.58125 124.7 78.83125 124.7Q78.1125 124.7 77.675 125.30937Q77.12813 126.09062 77.12813 128.21562ZM83.05 128.21562Q83.05 126.68437 83.3625 125.7625Q83.675 124.825 84.28438 124.325Q84.90938 123.825 85.84688 123.825Q86.53438 123.825 87.05 124.10625Q87.58125 124.3875 87.925 124.91875Q88.26875 125.43437 88.45625 126.18437Q88.64375 126.93437 88.64375 128.21562Q88.64375 129.73125 88.33125 130.65312Q88.03438 131.575 87.40938 132.09062Q86.8 132.59062 85.84688 132.59062Q84.6125 132.59062 83.89375 131.7Q83.05 130.6375 83.05 128.21562ZM84.12813 128.21562Q84.12813 130.325 84.62813 131.02812Q85.12813 131.73125 85.84688 131.73125Q86.58125 131.73125 87.06563 131.02812Q87.56563 130.325 87.56563 128.21562Q87.56563 126.09062 87.06563 125.40312Q86.58125 124.7 85.83125 124.7Q85.1125 124.7 84.675 125.30937Q84.12813 126.09062 84.12813 128.21562Z" fill-rule="nonzero"/><path fill="#000000" d="M92.55 467.1844L93.6125 467.04376Q93.78438 467.9344 94.22188 468.34064Q94.65938 468.73126 95.28438 468.73126Q96.03438 468.73126 96.55 468.21564Q97.06563 467.7 97.06563 466.9344Q97.06563 466.21564 96.58125 465.7469Q96.1125 465.2625 95.37813 465.2625Q95.08125 465.2625 94.62813 465.3875L94.75313 464.45Q94.8625 464.46564 94.925 464.46564Q95.59688 464.46564 96.12813 464.1219Q96.675 463.7625 96.675 463.02814Q96.675 462.45 96.28438 462.075Q95.89375 461.6844 95.26875 461.6844Q94.65938 461.6844 94.2375 462.075Q93.83125 462.46564 93.72188 463.23126L92.65938 463.04376Q92.84688 461.9969 93.53438 461.41876Q94.22188 460.825 95.2375 460.825Q95.94063 460.825 96.53438 461.1375Q97.12813 461.4344 97.44063 461.95Q97.75313 462.46564 97.75313 463.0594Q97.75313 463.60626 97.45625 464.075Q97.15938 464.52814 96.58125 464.79376Q97.33125 464.96564 97.75313 465.52814Q98.175 466.075 98.175 466.91876Q98.175 468.04376 97.34688 468.825Q96.53438 469.60626 95.28438 469.60626Q94.15938 469.60626 93.40938 468.9344Q92.65938 468.2469 92.55 467.1844Z" fill-rule="nonzero"/><path fill="#000000" d="M246.6602 469.45L246.6602 467.3875L242.94145 467.3875L242.94145 466.41876L246.86333 460.85626L247.7227 460.85626L247.7227 466.41876L248.87895 466.41876L248.87895 467.3875L247.7227 467.3875L247.7227 469.45L246.6602 469.45ZM246.6602 466.41876L246.6602 462.5594L243.9727 466.41876L246.6602 466.41876Z" fill-rule="nonzero"/><path fill="#000000" d="M394.0204 467.2L395.12976 467.10626Q395.25476 467.91876 395.69226 468.325Q396.1454 468.73126 396.786 468.73126Q397.536 468.73126 398.06726 468.15314Q398.5985 467.575 398.5985 466.6375Q398.5985 465.73126 398.0829 465.21564Q397.5829 464.6844 396.75476 464.6844Q396.25476 464.6844 395.8329 464.91876Q395.42664 465.15314 395.19226 465.5125L394.2079 465.3875L395.036 460.98126L399.31726 460.98126L399.31726 461.98126L395.87976 461.98126L395.42664 464.29376Q396.19226 463.7469 397.036 463.7469Q398.161 463.7469 398.92664 464.52814Q399.7079 465.3094 399.7079 466.54376Q399.7079 467.7 399.036 468.5594Q398.2079 469.59064 396.786 469.59064Q395.61414 469.59064 394.86414 468.9344Q394.12976 468.27814 394.0204 467.2Z" fill-rule="nonzero"/><path fill="#000000" d="M550.22437 462.96564L549.1775 463.04376Q549.03687 462.41876 548.78687 462.1375Q548.34937 461.6844 547.72437 461.6844Q547.22437 461.6844 546.83374 461.96564Q546.34937 462.34064 546.0525 463.04376Q545.77124 463.73126 545.7556 465.0125Q546.1306 464.4344 546.6775 464.15314Q547.24 463.8719 547.84937 463.8719Q548.89624 463.8719 549.6306 464.65314Q550.3806 465.4344 550.3806 466.65314Q550.3806 467.46564 550.02124 468.16876Q549.6775 468.85626 549.0681 469.23126Q548.45874 469.59064 547.6931 469.59064Q546.365 469.59064 545.53687 468.6219Q544.70874 467.65314 544.70874 465.4344Q544.70874 462.9344 545.6306 461.8094Q546.4275 460.825 547.78687 460.825Q548.8025 460.825 549.4431 461.40314Q550.09937 461.96564 550.22437 462.96564ZM545.9275 466.66876Q545.9275 467.21564 546.14624 467.71564Q546.3806 468.2 546.78687 468.46564Q547.20874 468.73126 547.6775 468.73126Q548.33374 468.73126 548.8181 468.2Q549.3025 467.65314 549.3025 466.73126Q549.3025 465.84064 548.8181 465.325Q548.34937 464.8094 547.6306 464.8094Q546.91187 464.8094 546.41187 465.325Q545.9275 465.84064 545.9275 466.66876Z" fill-rule="nonzero"/><path fill="#000000" d="M695.5533 461.98126L695.5533 460.96564L701.1158 460.96564L701.1158 461.79376Q700.3033 462.66876 699.4908 464.1219Q698.6939 465.5594 698.2564 467.09064Q697.9283 468.16876 697.85016 469.45L696.7564 469.45Q696.77203 468.4344 697.14703 466.9969Q697.53766 465.5594 698.2408 464.23126Q698.95953 462.90314 699.77203 461.98126L695.5533 461.98126Z" fill-rule="nonzero"/><path fill="#4285f4" d="M343.0 97.75C343.0 101.063705 340.31372 103.75 337.0 103.75C333.68628 103.75 331.0 101.063705 331.0 97.75C331.0 94.436295 333.68628 91.75 337.0 91.75C340.31372 91.75 343.0 94.436295 343.0 97.75Z" fill-rule="nonzero"/><path fill="#ea4335" d="M371.0 97.75C371.0 101.063705 368.31372 103.75 365.0 103.75C361.68628 103.75 359.0 101.063705 359.0 97.75C359.0 94.436295 361.68628 91.75 365.0 91.75C368.31372 91.75 371.0 94.436295 371.0 97.75Z" fill-rule="nonzero"/><path fill="#fbbc04" d="M399.0 97.75C399.0 101.063705 396.31372 103.75 393.0 103.75C389.68628 103.75 387.0 101.063705 387.0 97.75C387.0 94.436295 389.68628 91.75 393.0 91.75C396.31372 91.75 399.0 94.436295 399.0 97.75Z" fill-rule="nonzero"/><path fill="#999999" d="M27.596874 71.05L27.596874 61.034378L29.58125 61.034378L31.95625 68.12813Q32.284374 69.1125 32.440624 69.6125Q32.6125 69.06563 32.971874 68.00313L35.3625 61.034378L37.159374 61.034378L37.159374 71.05L35.878124 71.05L35.878124 62.659378L32.95625 71.05L31.76875 71.05L28.8625 62.518753L28.8625 71.05L27.596874 71.05ZM38.4875 62.440628L38.4875 61.034378L39.70625 61.034378L39.70625 62.440628L38.4875 62.440628ZM38.4875 71.05L38.4875 63.784378L39.70625 63.784378L39.70625 71.05L38.4875 71.05ZM41.471874 71.05L41.471874 63.784378L42.58125 63.784378L42.58125 64.81563Q43.378124 63.628128 44.89375 63.628128Q45.55 63.628128 46.096874 63.862503Q46.64375 64.09688 46.909374 64.4875Q47.190624 64.8625 47.3 65.39375Q47.378124 65.7375 47.378124 66.58125L47.378124 71.05L46.14375 71.05L46.14375 66.62813Q46.14375 65.87813 46.003124 65.51875Q45.8625 65.14375 45.4875 64.925Q45.128124 64.69063 44.628124 64.69063Q43.846874 64.69063 43.26875 65.19063Q42.70625 65.69063 42.70625 67.08125L42.70625 71.05L41.471874 71.05ZM55.83125 74.00313Q54.8 72.70625 54.096874 70.9875Q53.39375 69.26875 53.39375 67.425Q53.39375 65.8 53.925 64.3Q54.534374 62.565628 55.83125 60.862503L56.70625 60.862503Q55.878124 62.284378 55.6125 62.893753Q55.190624 63.831253 54.95625 64.8625Q54.659374 66.12813 54.659374 67.425Q54.659374 70.72188 56.70625 74.00313L55.83125 74.00313ZM58.58125 71.05L58.58125 61.034378L62.33125 61.034378Q63.4875 61.034378 64.175 61.346878Q64.87813 61.643753 65.26875 62.268753Q65.65938 62.893753 65.65938 63.596878Q65.65938 64.2375 65.3 64.8Q64.95625 65.3625 64.25313 65.72188Q65.15938 65.9875 65.64375 66.62813Q66.14375 67.26875 66.14375 68.14375Q66.14375 68.84688 65.84688 69.45625Q65.55 70.06563 65.1125 70.39375Q64.675 70.72188 64.00313 70.89375Q63.346874 71.05 62.39375 71.05L58.58125 71.05ZM59.909374 65.2375L62.065624 65.2375Q62.95625 65.2375 63.33125 65.12813Q63.846874 64.97188 64.09688 64.62813Q64.34688 64.26875 64.34688 63.753128Q64.34688 63.253128 64.1125 62.878128Q63.878124 62.487503 63.425 62.346878Q62.9875 62.206253 61.909374 62.206253L59.909374 62.206253L59.909374 65.2375ZM59.909374 69.8625L62.39375 69.8625Q63.034374 69.8625 63.3 69.81563Q63.753124 69.7375 64.06563 69.55Q64.37813 69.34688 64.56563 68.9875Q64.76875 68.62813 64.76875 68.14375Q64.76875 67.58125 64.47188 67.175Q64.19063 66.75313 63.675 66.59688Q63.175 66.425 62.221874 66.425L59.909374 66.425L59.909374 69.8625ZM67.44063 71.05L67.44063 61.034378L68.675 61.034378L68.675 71.05L67.44063 71.05ZM75.2375 71.05L75.2375 69.9875Q74.37813 71.22188 72.925 71.22188Q72.28438 71.22188 71.72188 70.97188Q71.175 70.72188 70.89375 70.34688Q70.62813 69.97188 70.51875 69.44063Q70.44063 69.08125 70.44063 68.28438L70.44063 63.784378L71.675 63.784378L71.675 67.81563Q71.675 68.78438 71.75313 69.1125Q71.8625 69.59688 72.2375 69.87813Q72.6125 70.15938 73.175 70.15938Q73.72188 70.15938 74.20625 69.87813Q74.69063 69.58125 74.89375 69.09688Q75.09688 68.6125 75.09688 67.675L75.09688 63.784378L76.33125 63.784378L76.33125 71.05L75.2375 71.05ZM83.44063 68.70625L84.72188 68.8625Q84.40938 69.9875 83.59688 70.6125Q82.78438 71.22188 81.51875 71.22188Q79.925 71.22188 78.9875 70.2375Q78.06563 69.25313 78.06563 67.4875Q78.06563 65.64375 79.00313 64.64375Q79.95625 63.628128 81.45625 63.628128Q82.90938 63.628128 83.83125 64.62813Q84.75313 65.6125 84.75313 67.40938Q84.75313 67.51875 84.75313 67.7375L79.33125 67.7375Q79.40938 68.925 80.00313 69.56563Q80.6125 70.20625 81.53438 70.20625Q82.20625 70.20625 82.675 69.84688Q83.15938 69.4875 83.44063 68.70625ZM79.40938 66.72188L83.45625 66.72188Q83.37813 65.8 82.9875 65.34688Q82.40938 64.64375 81.47188 64.64375Q80.6125 64.64375 80.03438 65.20625Q79.47188 65.76875 79.40938 66.72188ZM87.28438 74.00313L86.39375 74.00313Q88.44063 70.72188 88.44063 67.425Q88.44063 66.14375 88.14375 64.87813Q87.90938 63.846878 87.50313 62.909378Q87.2375 62.300003 86.39375 60.862503L87.28438 60.862503Q88.56563 62.565628 89.175 64.3Q89.70625 65.8 89.70625 67.425Q89.70625 69.26875 88.9875 70.9875Q88.28438 72.70625 87.28438 74.00313ZM91.8 71.05L91.8 69.64375L93.19063 69.64375L93.19063 71.05Q93.19063 71.81563 92.90938 72.28438Q92.64375 72.76875 92.05 73.03438L91.70625 72.50313Q92.09688 72.33125 92.28438 72.00313Q92.47188 71.675 92.4875 71.05L91.8 71.05ZM98.53438 71.05L102.37813 61.034378L103.8 61.034378L107.90938 71.05L106.39375 71.05L105.22188 68.01875L101.03438 68.01875L99.94063 71.05L98.53438 71.05ZM101.425 66.94063L104.81563 66.94063L103.76875 64.15938Q103.3 62.893753 103.06563 62.081253Q102.87813 63.050003 102.51875 63.987503L101.425 66.94063ZM110.4875 71.05L107.72188 63.784378L109.03438 63.784378L110.58125 68.14375Q110.83125 68.84688 111.05 69.59688Q111.22188 69.01875 111.50313 68.22188L113.12813 63.784378L114.39375 63.784378L111.64375 71.05L110.4875 71.05ZM115.25313 71.65938L116.44063 71.83125Q116.51875 72.37813 116.8625 72.64375Q117.31563 72.97188 118.1125 72.97188Q118.97188 72.97188 119.425 72.62813Q119.89375 72.3 120.06563 71.675Q120.15938 71.3 120.14375 70.09688Q119.34688 71.05 118.14375 71.05Q116.64375 71.05 115.81563 69.97188Q115.00313 68.89375 115.00313 67.37813Q115.00313 66.34688 115.37813 65.47188Q115.75313 64.58125 116.45625 64.1125Q117.175 63.628128 118.14375 63.628128Q119.425 63.628128 120.26875 64.65938L120.26875 63.784378L121.39375 63.784378L121.39375 70.06563Q121.39375 71.76875 121.05 72.47188Q120.70625 73.175 119.95625 73.58125Q119.20625 74.00313 118.1125 74.00313Q116.81563 74.00313 116.01875 73.40938Q115.22188 72.83125 115.25313 71.65938ZM116.26875 67.28438Q116.26875 68.72188 116.83125 69.37813Q117.39375 70.03438 118.25313 70.03438Q119.09688 70.03438 119.675 69.37813Q120.25313 68.72188 120.25313 67.33125Q120.25313 66.00313 119.65938 65.33125Q119.06563 64.64375 118.2375 64.64375Q117.40938 64.64375 116.83125 65.31563Q116.26875 65.97188 116.26875 67.28438ZM128.44063 68.70625L129.72188 68.8625Q129.40938 69.9875 128.59688 70.6125Q127.78438 71.22188 126.51875 71.22188Q124.925 71.22188 123.9875 70.2375Q123.06563 69.25313 123.06563 67.4875Q123.06563 65.64375 124.00313 64.64375Q124.95625 63.628128 126.45625 63.628128Q127.90938 63.628128 128.83125 64.62813Q129.75313 65.6125 129.75313 67.40938Q129.75313 67.51875 129.75313 67.7375L124.33125 67.7375Q124.40938 68.925 125.00313 69.56563Q125.6125 70.20625 126.53438 70.20625Q127.20625 70.20625 127.675 69.84688Q128.15938 69.4875 128.44063 68.70625ZM124.40938 66.72188L128.45625 66.72188Q128.37813 65.8 127.9875 65.34688Q127.40938 64.64375 126.47188 64.64375Q125.6125 64.64375 125.03438 65.20625Q124.47188 65.76875 124.40938 66.72188ZM131.45625 71.05L131.45625 63.784378L132.56563 63.784378L132.56563 64.89375Q132.9875 64.1125 133.34688 63.878128Q133.70625 63.628128 134.14375 63.628128Q134.76875 63.628128 135.40938 64.01875L134.9875 65.15938Q134.53438 64.89375 134.08125 64.89375Q133.675 64.89375 133.34688 65.14375Q133.03438 65.37813 132.89375 65.81563Q132.69063 66.47188 132.69063 67.25313L132.69063 71.05L131.45625 71.05ZM141.20625 70.15938Q140.53438 70.7375 139.89375 70.9875Q139.26875 71.22188 138.53438 71.22188Q137.34688 71.22188 136.69063 70.64375Q136.05 70.05 136.05 69.12813Q136.05 68.59688 136.28438 68.15938Q136.53438 67.72188 136.925 67.45625Q137.33125 67.19063 137.81563 67.05Q138.175 66.95625 138.90938 66.8625Q140.40938 66.69063 141.1125 66.44063Q141.1125 66.19063 141.1125 66.12813Q141.1125 65.3625 140.76875 65.06563Q140.3 64.64375 139.3625 64.64375Q138.50313 64.64375 138.08125 64.95625Q137.675 65.25313 137.47188 66.01875L136.26875 65.8625Q136.425 65.08125 136.8 64.6125Q137.19063 64.14375 137.89375 63.893753Q138.6125 63.628128 139.55 63.628128Q140.47188 63.628128 141.05 63.846878Q141.62813 64.06563 141.89375 64.39375Q142.175 64.72188 142.28438 65.2375Q142.34688 65.55 142.34688 66.3625L142.34688 68.00313Q142.34688 69.72188 142.425 70.175Q142.50313 70.62813 142.7375 71.05L141.45625 71.05Q141.26875 70.65938 141.20625 70.15938ZM141.1125 67.40938Q140.44063 67.675 139.09688 67.87813Q138.34688 67.9875 138.01875 68.12813Q137.70625 68.25313 137.53438 68.51875Q137.3625 68.78438 137.3625 69.09688Q137.3625 69.59688 137.7375 69.925Q138.1125 70.25313 138.83125 70.25313Q139.55 70.25313 140.09688 69.94063Q140.64375 69.62813 140.90938 69.08125Q141.1125 68.675 141.1125 67.8625L141.1125 67.40938ZM144.25313 71.65938L145.44063 71.83125Q145.51875 72.37813 145.8625 72.64375Q146.31563 72.97188 147.1125 72.97188Q147.97188 72.97188 148.425 72.62813Q148.89375 72.3 149.06563 71.675Q149.15938 71.3 149.14375 70.09688Q148.34688 71.05 147.14375 71.05Q145.64375 71.05 144.81563 69.97188Q144.00313 68.89375 144.00313 67.37813Q144.00313 66.34688 144.37813 65.47188Q144.75313 64.58125 145.45625 64.1125Q146.175 63.628128 147.14375 63.628128Q148.425 63.628128 149.26875 64.65938L149.26875 63.784378L150.39375 63.784378L150.39375 70.06563Q150.39375 71.76875 150.05 72.47188Q149.70625 73.175 148.95625 73.58125Q148.20625 74.00313 147.1125 74.00313Q145.81563 74.00313 145.01875 73.40938Q144.22188 72.83125 144.25313 71.65938ZM145.26875 67.28438Q145.26875 68.72188 145.83125 69.37813Q146.39375 70.03438 147.25313 70.03438Q148.09688 70.03438 148.675 69.37813Q149.25313 68.72188 149.25313 67.33125Q149.25313 66.00313 148.65938 65.33125Q148.06563 64.64375 147.2375 64.64375Q146.40938 64.64375 145.83125 65.31563Q145.26875 65.97188 145.26875 67.28438ZM157.44063 68.70625L158.72188 68.8625Q158.40938 69.9875 157.59688 70.6125Q156.78438 71.22188 155.51875 71.22188Q153.925 71.22188 152.9875 70.2375Q152.06563 69.25313 152.06563 67.4875Q152.06563 65.64375 153.00313 64.64375Q153.95625 63.628128 155.45625 63.628128Q156.90938 63.628128 157.83125 64.62813Q158.75313 65.6125 158.75313 67.40938Q158.75313 67.51875 158.75313 67.7375L153.33125 67.7375Q153.40938 68.925 154.00313 69.56563Q154.6125 70.20625 155.53438 70.20625Q156.20625 70.20625 156.675 69.84688Q157.15938 69.4875 157.44063 68.70625ZM153.40938 66.72188L157.45625 66.72188Q157.37813 65.8 156.9875 65.34688Q156.40938 64.64375 155.47188 64.64375Q154.6125 64.64375 154.03438 65.20625Q153.47188 65.76875 153.40938 66.72188ZM166.83125 74.00313Q165.8 72.70625 165.09688 70.9875Q164.39375 69.26875 164.39375 67.425Q164.39375 65.8 164.925 64.3Q165.53438 62.565628 166.83125 60.862503L167.70625 60.862503Q166.87813 62.284378 166.6125 62.893753Q166.19063 63.831253 165.95625 64.8625Q165.65938 66.12813 165.65938 67.425Q165.65938 70.72188 167.70625 74.00313L166.83125 74.00313ZM169.64375 71.05L169.64375 61.034378L174.09688 61.034378Q175.44063 61.034378 176.12813 61.300003Q176.83125 61.565628 177.2375 62.253128Q177.65938 62.940628 177.65938 63.768753Q177.65938 64.83125 176.97188 65.56563Q176.28438 66.28438 174.84688 66.4875Q175.3625 66.7375 175.64375 66.9875Q176.22188 67.51875 176.7375 68.31563L178.4875 71.05L176.81563 71.05L175.4875 68.97188Q174.90938 68.06563 174.53438 67.59688Q174.15938 67.1125 173.8625 66.925Q173.56563 66.72188 173.25313 66.64375Q173.03438 66.59688 172.51875 66.59688L170.97188 66.59688L170.97188 71.05L169.64375 71.05ZM170.97188 65.45625L173.83125 65.45625Q174.7375 65.45625 175.25313 65.26875Q175.76875 65.08125 176.03438 64.675Q176.3 64.25313 176.3 63.768753Q176.3 63.050003 175.78438 62.596878Q175.26875 62.128128 174.14375 62.128128L170.97188 62.128128L170.97188 65.45625ZM184.44063 68.70625L185.72188 68.8625Q185.40938 69.9875 184.59688 70.6125Q183.78438 71.22188 182.51875 71.22188Q180.925 71.22188 179.9875 70.2375Q179.06563 69.25313 179.06563 67.4875Q179.06563 65.64375 180.00313 64.64375Q180.95625 63.628128 182.45625 63.628128Q183.90938 63.628128 184.83125 64.62813Q185.75313 65.6125 185.75313 67.40938Q185.75313 67.51875 185.75313 67.7375L180.33125 67.7375Q180.40938 68.925 181.00313 69.56563Q181.6125 70.20625 182.53438 70.20625Q183.20625 70.20625 183.675 69.84688Q184.15938 69.4875 184.44063 68.70625ZM180.40938 66.72188L184.45625 66.72188Q184.37813 65.8 183.9875 65.34688Q183.40938 64.64375 182.47188 64.64375Q181.6125 64.64375 181.03438 65.20625Q180.47188 65.76875 180.40938 66.72188ZM192.19063 71.05L192.19063 70.12813Q191.4875 71.22188 190.15938 71.22188Q189.28438 71.22188 188.55 70.7375Q187.83125 70.25313 187.425 69.39375Q187.03438 68.53438 187.03438 67.425Q187.03438 66.34688 187.39375 65.45625Q187.75313 64.56563 188.47188 64.09688Q189.20625 63.628128 190.09688 63.628128Q190.75313 63.628128 191.26875 63.909378Q191.78438 64.175 192.09688 64.62813L192.09688 61.034378L193.33125 61.034378L193.33125 71.05L192.19063 71.05ZM188.3 67.425Q188.3 68.81563 188.87813 69.51875Q189.47188 70.20625 190.26875 70.20625Q191.08125 70.20625 191.64375 69.55Q192.20625 68.87813 192.20625 67.53438Q192.20625 66.03438 191.62813 65.34688Q191.05 64.64375 190.22188 64.64375Q189.39375 64.64375 188.84688 65.31563Q188.3 65.9875 188.3 67.425ZM196.28438 74.00313L195.39375 74.00313Q197.44063 70.72188 197.44063 67.425Q197.44063 66.14375 197.14375 64.87813Q196.90938 63.846878 196.50313 62.909378Q196.2375 62.300003 195.39375 60.862503L196.28438 60.862503Q197.56563 62.565628 198.175 64.3Q198.70625 65.8 198.70625 67.425Q198.70625 69.26875 197.9875 70.9875Q197.28438 72.70625 196.28438 74.00313ZM200.8 71.05L200.8 69.64375L202.19063 69.64375L202.19063 71.05Q202.19063 71.81563 201.90938 72.28438Q201.64375 72.76875 201.05 73.03438L200.70625 72.50313Q201.09688 72.33125 201.28438 72.00313Q201.47188 71.675 201.4875 71.05L200.8 71.05ZM208.59688 71.05L208.59688 61.034378L210.58125 61.034378L212.95625 68.12813Q213.28438 69.1125 213.44063 69.6125Q213.6125 69.06563 213.97188 68.00313L216.3625 61.034378L218.15938 61.034378L218.15938 71.05L216.87813 71.05L216.87813 62.659378L213.95625 71.05L212.76875 71.05L209.8625 62.518753L209.8625 71.05L208.59688 71.05ZM224.20625 70.15938Q223.53438 70.7375 222.89375 70.9875Q222.26875 71.22188 221.53438 71.22188Q220.34688 71.22188 219.69063 70.64375Q219.05 70.05 219.05 69.12813Q219.05 68.59688 219.28438 68.15938Q219.53438 67.72188 219.925 67.45625Q220.33125 67.19063 220.81563 67.05Q221.175 66.95625 221.90938 66.8625Q223.40938 66.69063 224.1125 66.44063Q224.1125 66.19063 224.1125 66.12813Q224.1125 65.3625 223.76875 65.06563Q223.3 64.64375 222.3625 64.64375Q221.50313 64.64375 221.08125 64.95625Q220.675 65.25313 220.47188 66.01875L219.26875 65.8625Q219.425 65.08125 219.8 64.6125Q220.19063 64.14375 220.89375 63.893753Q221.6125 63.628128 222.55 63.628128Q223.47188 63.628128 224.05 63.846878Q224.62813 64.06563 224.89375 64.39375Q225.175 64.72188 225.28438 65.2375Q225.34688 65.55 225.34688 66.3625L225.34688 68.00313Q225.34688 69.72188 225.425 70.175Q225.50313 70.62813 225.7375 71.05L224.45625 71.05Q224.26875 70.65938 224.20625 70.15938ZM224.1125 67.40938Q223.44063 67.675 222.09688 67.87813Q221.34688 67.9875 221.01875 68.12813Q220.70625 68.25313 220.53438 68.51875Q220.3625 68.78438 220.3625 69.09688Q220.3625 69.59688 220.7375 69.925Q221.1125 70.25313 221.83125 70.25313Q222.55 70.25313 223.09688 69.94063Q223.64375 69.62813 223.90938 69.08125Q224.1125 68.675 224.1125 67.8625L224.1125 67.40938ZM226.65938 71.05L229.3 67.26875L226.84688 63.784378L228.39375 63.784378L229.50313 65.4875Q229.81563 65.97188 230.00313 66.3Q230.31563 65.84688 230.56563 65.50313L231.78438 63.784378L233.25313 63.784378L230.75313 67.20625L233.44063 71.05L231.94063 71.05L230.44063 68.8L230.05 68.19063L228.14375 71.05L226.65938 71.05ZM239.83125 74.00313Q238.8 72.70625 238.09688 70.9875Q237.39375 69.26875 237.39375 67.425Q237.39375 65.8 237.925 64.3Q238.53438 62.565628 239.83125 60.862503L240.70625 60.862503Q239.87813 62.284378 239.6125 62.893753Q239.19063 63.831253 238.95625 64.8625Q238.65938 66.12813 238.65938 67.425Q238.65938 70.72188 240.70625 74.00313L239.83125 74.00313ZM245.45625 71.05L245.45625 66.8L241.59688 61.034378L243.20625 61.034378L245.175 64.05Q245.72188 64.89375 246.20625 65.7375Q246.64375 64.95625 247.3 63.971878L249.2375 61.034378L250.78438 61.034378L246.78438 66.8L246.78438 71.05L245.45625 71.05ZM256.4406 68.70625L257.72186 68.8625Q257.40936 69.9875 256.59686 70.6125Q255.78438 71.22188 254.51875 71.22188Q252.925 71.22188 251.9875 70.2375Q251.06563 69.25313 251.06563 67.4875Q251.06563 65.64375 252.00313 64.64375Q252.95625 63.628128 254.45625 63.628128Q255.90938 63.628128 256.83124 64.62813Q257.7531 65.6125 257.7531 67.40938Q257.7531 67.51875 257.7531 67.7375L252.33125 67.7375Q252.40938 68.925 253.00313 69.56563Q253.6125 70.20625 254.53438 70.20625Q255.20625 70.20625 255.675 69.84688Q256.15936 69.4875 256.4406 68.70625ZM252.40938 66.72188L256.45624 66.72188Q256.3781 65.8 255.9875 65.34688Q255.40938 64.64375 254.47188 64.64375Q253.6125 64.64375 253.03438 65.20625Q252.47188 65.76875 252.40938 66.72188ZM259.4406 71.05L259.4406 61.034378L260.675 61.034378L260.675 71.05L259.4406 71.05ZM262.4406 71.05L262.4406 61.034378L263.675 61.034378L263.675 71.05L262.4406 71.05ZM265.01874 67.425Q265.01874 65.40938 266.14374 64.425Q267.0656 63.628128 268.425 63.628128Q269.90936 63.628128 270.8625 64.6125Q271.8156 65.58125 271.8156 67.31563Q271.8156 68.72188 271.39374 69.53438Q270.97186 70.33125 270.15936 70.78438Q269.3625 71.22188 268.425 71.22188Q266.89374 71.22188 265.95624 70.2375Q265.01874 69.25313 265.01874 67.425ZM266.28436 67.425Q266.28436 68.81563 266.89374 69.51875Q267.5031 70.20625 268.425 70.20625Q269.33124 70.20625 269.9406 69.50313Q270.55 68.8 270.55 67.37813Q270.55 66.03438 269.9406 65.34688Q269.33124 64.64375 268.425 64.64375Q267.5031 64.64375 266.89374 65.33125Q266.28436 66.01875 266.28436 67.425ZM274.8156 71.05L272.59686 63.784378L273.8625 63.784378L275.01874 67.9875L275.45624 69.53438Q275.47186 69.425 275.83124 68.03438L276.9875 63.784378L278.2375 63.784378L279.33124 68.00313L279.6906 69.39375L280.1125 67.9875L281.3625 63.784378L282.55 63.784378L280.28436 71.05L279.0031 71.05L277.84686 66.70625L277.5656 65.47188L276.09686 71.05L274.8156 71.05ZM283.28436 74.00313L282.39374 74.00313Q284.4406 70.72188 284.4406 67.425Q284.4406 66.14375 284.14374 64.87813Q283.90936 63.846878 283.5031 62.909378Q283.2375 62.300003 282.39374 60.862503L283.28436 60.862503Q284.5656 62.565628 285.175 64.3Q285.70624 65.8 285.70624 67.425Q285.70624 69.26875 284.9875 70.9875Q284.28436 72.70625 283.28436 74.00313Z" fill-rule="nonzero"/><path fill="#757575" d="M28.01875 45.55L28.01875 31.2375L29.909374 31.2375L29.909374 38.33125L37.01875 31.2375L39.58125 31.2375L33.58125 37.034374L39.846874 45.55L37.346874 45.55L32.253124 38.3L29.909374 40.58125L29.909374 45.55L28.01875 45.55ZM40.8625 45.55L40.8625 35.175L42.45625 35.175L42.45625 36.659374Q43.596874 34.940624 45.753124 34.940624Q46.690624 34.940624 47.471874 35.284374Q48.26875 35.6125 48.659374 36.159374Q49.05 36.70625 49.20625 37.45625Q49.3 37.95625 49.3 39.175L49.3 45.55L47.534374 45.55L47.534374 39.2375Q47.534374 38.159374 47.33125 37.628124Q47.128124 37.096874 46.596874 36.784374Q46.08125 36.471874 45.378124 36.471874Q44.253124 36.471874 43.440624 37.190624Q42.628124 37.89375 42.628124 39.878124L42.628124 45.55L40.8625 45.55ZM50.878124 33.253124L50.878124 31.2375L52.64375 31.2375L52.64375 33.253124L50.878124 33.253124ZM50.878124 45.55L50.878124 35.175L52.64375 35.175L52.64375 45.55L50.878124 45.55ZM58.70625 43.971874L58.95625 45.534374Q58.221874 45.690624 57.628124 45.690624Q56.675 45.690624 56.14375 45.39375Q55.628124 45.08125 55.409374 44.596874Q55.190624 44.096874 55.190624 42.51875L55.190624 36.55L53.909374 36.55L53.909374 35.175L55.190624 35.175L55.190624 32.6125L56.940624 31.55L56.940624 35.175L58.70625 35.175L58.70625 36.55L56.940624 36.55L56.940624 42.6125Q56.940624 43.3625 57.034374 43.58125Q57.128124 43.784374 57.33125 43.925Q57.55 44.05 57.940624 44.05Q58.221874 44.05 58.70625 43.971874ZM64.70625 43.971874L64.95625 45.534374Q64.22188 45.690624 63.628124 45.690624Q62.675 45.690624 62.14375 45.39375Q61.628124 45.08125 61.409374 44.596874Q61.190624 44.096874 61.190624 42.51875L61.190624 36.55L59.909374 36.55L59.909374 35.175L61.190624 35.175L61.190624 32.6125L62.940624 31.55L62.940624 35.175L64.70625 35.175L64.70625 36.55L62.940624 36.55L62.940624 42.6125Q62.940624 43.3625 63.034374 43.58125Q63.128124 43.784374 63.33125 43.925Q63.55 44.05 63.940624 44.05Q64.22188 44.05 64.70625 43.971874ZM66.87813 33.253124L66.87813 31.2375L68.64375 31.2375L68.64375 33.253124L66.87813 33.253124ZM66.87813 45.55L66.87813 35.175L68.64375 35.175L68.64375 45.55L66.87813 45.55ZM70.8625 45.55L70.8625 35.175L72.45625 35.175L72.45625 36.659374Q73.59688 34.940624 75.75313 34.940624Q76.69063 34.940624 77.47188 35.284374Q78.26875 35.6125 78.65938 36.159374Q79.05 36.70625 79.20625 37.45625Q79.3 37.95625 79.3 39.175L79.3 45.55L77.53438 45.55L77.53438 39.2375Q77.53438 38.159374 77.33125 37.628124Q77.12813 37.096874 76.59688 36.784374Q76.08125 36.471874 75.37813 36.471874Q74.25313 36.471874 73.44063 37.190624Q72.62813 37.89375 72.62813 39.878124L72.62813 45.55L70.8625 45.55ZM80.55 46.409374L82.25313 46.659374Q82.3625 47.45625 82.84688 47.815624Q83.50313 48.3 84.64375 48.3Q85.8625 48.3 86.51875 47.815624Q87.19063 47.33125 87.425 46.45625Q87.56563 45.909374 87.55 44.190624Q86.39375 45.55 84.675 45.55Q82.53438 45.55 81.3625 44.003124Q80.19063 42.45625 80.19063 40.3Q80.19063 38.815624 80.72188 37.565624Q81.26875 36.315624 82.28438 35.628124Q83.31563 34.940624 84.69063 34.940624Q86.51875 34.940624 87.72188 36.425L87.72188 35.175L89.33125 35.175L89.33125 44.14375Q89.33125 46.565624 88.83125 47.565624Q88.34688 48.58125 87.26875 49.159374Q86.20625 49.753124 84.64375 49.753124Q82.8 49.753124 81.64375 48.925Q80.50313 48.096874 80.55 46.409374ZM82.00313 40.175Q82.00313 42.221874 82.81563 43.159374Q83.62813 44.096874 84.84688 44.096874Q86.05 44.096874 86.8625 43.159374Q87.69063 42.221874 87.69063 40.2375Q87.69063 38.33125 86.84688 37.3625Q86.00313 36.39375 84.81563 36.39375Q83.64375 36.39375 82.81563 37.346874Q82.00313 38.3 82.00313 40.175ZM98.08125 45.55L98.08125 31.2375L100.01875 31.2375L107.53438 42.471874L107.53438 31.2375L109.34688 31.2375L109.34688 45.55L107.40938 45.55L99.89375 34.3L99.89375 45.55L98.08125 45.55ZM117.97188 42.20625L119.78438 42.440624Q119.3625 44.01875 118.19063 44.909374Q117.03438 45.784374 115.22188 45.784374Q112.95625 45.784374 111.6125 44.39375Q110.28438 42.9875 110.28438 40.45625Q110.28438 37.83125 111.62813 36.39375Q112.97188 34.940624 115.12813 34.940624Q117.20625 34.940624 118.51875 36.3625Q119.84688 37.76875 119.84688 40.346874Q119.84688 40.503124 119.83125 40.815624L112.09688 40.815624Q112.19063 42.51875 113.06563 43.425Q113.94063 44.33125 115.2375 44.33125Q116.20625 44.33125 116.87813 43.83125Q117.56563 43.315624 117.97188 42.20625ZM112.19063 39.3625L117.9875 39.3625Q117.87813 38.065624 117.33125 37.409374Q116.4875 36.39375 115.14375 36.39375Q113.94063 36.39375 113.1125 37.20625Q112.28438 38.003124 112.19063 39.3625ZM128.97188 42.20625L130.78438 42.440624Q130.3625 44.01875 129.19063 44.909374Q128.03438 45.784374 126.22188 45.784374Q123.95625 45.784374 122.6125 44.39375Q121.28438 42.9875 121.28438 40.45625Q121.28438 37.83125 122.62813 36.39375Q123.97188 34.940624 126.12813 34.940624Q128.20625 34.940624 129.51875 36.3625Q130.84688 37.76875 130.84688 40.346874Q130.84688 40.503124 130.83125 40.815624L123.09688 40.815624Q123.19063 42.51875 124.06563 43.425Q124.94063 44.33125 126.2375 44.33125Q127.20625 44.33125 127.87813 43.83125Q128.56563 43.315624 128.97188 42.20625ZM123.19063 39.3625L128.9875 39.3625Q128.87813 38.065624 128.33125 37.409374Q127.4875 36.39375 126.14375 36.39375Q124.94063 36.39375 124.1125 37.20625Q123.28438 38.003124 123.19063 39.3625ZM139.59688 45.55L139.59688 44.2375Q138.6125 45.784374 136.69063 45.784374Q135.45625 45.784374 134.40938 45.096874Q133.37813 44.409374 132.8 43.190624Q132.2375 41.971874 132.2375 40.378124Q132.2375 38.815624 132.75313 37.55Q133.26875 36.284374 134.3 35.6125Q135.34688 34.940624 136.6125 34.940624Q137.55 34.940624 138.28438 35.346874Q139.01875 35.7375 139.4875 36.3625L139.4875 31.2375L141.22188 31.2375L141.22188 45.55L139.59688 45.55ZM134.03438 40.378124Q134.03438 42.3625 134.87813 43.346874Q135.72188 44.33125 136.8625 44.33125Q138.01875 44.33125 138.81563 43.39375Q139.62813 42.45625 139.62813 40.51875Q139.62813 38.39375 138.8 37.39375Q137.9875 36.39375 136.78438 36.39375Q135.6125 36.39375 134.81563 37.3625Q134.03438 38.315624 134.03438 40.378124ZM143.83125 45.55L143.83125 31.2375L145.58125 31.2375L145.58125 45.55L143.83125 45.55ZM154.97188 42.20625L156.78438 42.440624Q156.3625 44.01875 155.19063 44.909374Q154.03438 45.784374 152.22188 45.784374Q149.95625 45.784374 148.6125 44.39375Q147.28438 42.9875 147.28438 40.45625Q147.28438 37.83125 148.62813 36.39375Q149.97188 34.940624 152.12813 34.940624Q154.20625 34.940624 155.51875 36.3625Q156.84688 37.76875 156.84688 40.346874Q156.84688 40.503124 156.83125 40.815624L149.09688 40.815624Q149.19063 42.51875 150.06563 43.425Q150.94063 44.33125 152.2375 44.33125Q153.20625 44.33125 153.87813 43.83125Q154.56563 43.315624 154.97188 42.20625ZM149.19063 39.3625L154.9875 39.3625Q154.87813 38.065624 154.33125 37.409374Q153.4875 36.39375 152.14375 36.39375Q150.94063 36.39375 150.1125 37.20625Q149.28438 38.003124 149.19063 39.3625ZM171.8 39.940624L171.8 38.253124L177.8625 38.2375L177.8625 43.55Q176.45625 44.675 174.97188 45.2375Q173.4875 45.8 171.925 45.8Q169.81563 45.8 168.09688 44.89375Q166.37813 43.9875 165.4875 42.284374Q164.6125 40.565624 164.6125 38.45625Q164.6125 36.3625 165.4875 34.565624Q166.3625 32.753124 168.00313 31.878124Q169.64375 30.9875 171.78438 30.9875Q173.33125 30.9875 174.58125 31.4875Q175.84688 31.9875 176.55 32.89375Q177.26875 33.784374 177.64375 35.2375L175.94063 35.70625Q175.6125 34.6125 175.12813 33.9875Q174.65938 33.3625 173.76875 32.9875Q172.87813 32.6125 171.8 32.6125Q170.4875 32.6125 169.53438 33.003124Q168.59688 33.39375 168.01875 34.05Q167.44063 34.690624 167.1125 35.45625Q166.56563 36.784374 166.56563 38.346874Q166.56563 40.253124 167.22188 41.55Q167.89375 42.83125 169.14375 43.45625Q170.40938 44.08125 171.81563 44.08125Q173.05 44.08125 174.22188 43.6125Q175.39375 43.14375 176.00313 42.596874L176.00313 39.940624L171.8 39.940624ZM187.64375 44.26875Q186.65938 45.096874 185.75313 45.440624Q184.84688 45.784374 183.81563 45.784374Q182.1125 45.784374 181.19063 44.95625Q180.26875 44.1125 180.26875 42.815624Q180.26875 42.05 180.6125 41.425Q180.97188 40.8 181.53438 40.425Q182.09688 40.034374 182.8 39.83125Q183.31563 39.70625 184.3625 39.565624Q186.4875 39.315624 187.4875 38.971874Q187.50313 38.6125 187.50313 38.503124Q187.50313 37.440624 187.00313 36.9875Q186.33125 36.39375 185.00313 36.39375Q183.75313 36.39375 183.15938 36.83125Q182.58125 37.26875 182.3 38.378124L180.58125 38.14375Q180.81563 37.034374 181.34688 36.3625Q181.87813 35.675 182.89375 35.315624Q183.90938 34.940624 185.25313 34.940624Q186.58125 34.940624 187.40938 35.253124Q188.2375 35.565624 188.62813 36.05Q189.01875 36.51875 189.175 37.2375Q189.26875 37.690624 189.26875 38.8625L189.26875 41.20625Q189.26875 43.659374 189.37813 44.315624Q189.4875 44.95625 189.83125 45.55L187.9875 45.55Q187.72188 45.003124 187.64375 44.26875ZM187.4875 40.346874Q186.53438 40.7375 184.6125 41.003124Q183.53438 41.159374 183.08125 41.3625Q182.64375 41.55 182.39375 41.925Q182.14375 42.3 182.14375 42.76875Q182.14375 43.471874 182.675 43.940624Q183.20625 44.409374 184.2375 44.409374Q185.25313 44.409374 186.03438 43.971874Q186.83125 43.51875 187.20625 42.753124Q187.4875 42.14375 187.4875 40.9875L187.4875 40.346874ZM198.65938 45.55L198.65938 44.01875Q197.45625 45.784374 195.37813 45.784374Q194.45625 45.784374 193.65938 45.440624Q192.8625 45.08125 192.47188 44.55Q192.09688 44.01875 191.94063 43.2375Q191.83125 42.721874 191.83125 41.596874L191.83125 35.175L193.58125 35.175L193.58125 40.925Q193.58125 42.3 193.69063 42.784374Q193.8625 43.471874 194.39375 43.878124Q194.94063 44.26875 195.72188 44.26875Q196.51875 44.26875 197.20625 43.8625Q197.90938 43.45625 198.19063 42.76875Q198.4875 42.065624 198.4875 40.7375L198.4875 35.175L200.2375 35.175L200.2375 45.55L198.65938 45.55ZM201.55 46.409374L203.25313 46.659374Q203.3625 47.45625 203.84688 47.815624Q204.50313 48.3 205.64375 48.3Q206.8625 48.3 207.51875 47.815624Q208.19063 47.33125 208.425 46.45625Q208.56563 45.909374 208.55 44.190624Q207.39375 45.55 205.675 45.55Q203.53438 45.55 202.3625 44.003124Q201.19063 42.45625 201.19063 40.3Q201.19063 38.815624 201.72188 37.565624Q202.26875 36.315624 203.28438 35.628124Q204.31563 34.940624 205.69063 34.940624Q207.51875 34.940624 208.72188 36.425L208.72188 35.175L210.33125 35.175L210.33125 44.14375Q210.33125 46.565624 209.83125 47.565624Q209.34688 48.58125 208.26875 49.159374Q207.20625 49.753124 205.64375 49.753124Q203.8 49.753124 202.64375 48.925Q201.50313 48.096874 201.55 46.409374ZM203.00313 40.175Q203.00313 42.221874 203.81563 43.159374Q204.62813 44.096874 205.84688 44.096874Q207.05 44.096874 207.8625 43.159374Q208.69063 42.221874 208.69063 40.2375Q208.69063 38.33125 207.84688 37.3625Q207.00313 36.39375 205.81563 36.39375Q204.64375 36.39375 203.81563 37.346874Q203.00313 38.3 203.00313 40.175ZM219.97188 42.20625L221.78438 42.440624Q221.3625 44.01875 220.19063 44.909374Q219.03438 45.784374 217.22188 45.784374Q214.95625 45.784374 213.6125 44.39375Q212.28438 42.9875 212.28438 40.45625Q212.28438 37.83125 213.62813 36.39375Q214.97188 34.940624 217.12813 34.940624Q219.20625 34.940624 220.51875 36.3625Q221.84688 37.76875 221.84688 40.346874Q221.84688 40.503124 221.83125 40.815624L214.09688 40.815624Q214.19063 42.51875 215.06563 43.425Q215.94063 44.33125 217.2375 44.33125Q218.20625 44.33125 218.87813 43.83125Q219.56563 43.315624 219.97188 42.20625ZM214.19063 39.3625L219.9875 39.3625Q219.87813 38.065624 219.33125 37.409374Q218.4875 36.39375 217.14375 36.39375Q215.94063 36.39375 215.1125 37.20625Q214.28438 38.003124 214.19063 39.3625ZM233.22188 49.753124Q231.76875 47.925 230.76875 45.471874Q229.76875 43.003124 229.76875 40.3625Q229.76875 38.034374 230.51875 35.909374Q231.39375 33.440624 233.22188 30.9875L234.4875 30.9875Q233.3 33.01875 232.925 33.89375Q232.33125 35.2375 231.9875 36.70625Q231.56563 38.534374 231.56563 40.378124Q231.56563 45.065624 234.4875 49.753124L233.22188 49.753124ZM243.8 39.940624L243.8 38.253124L249.8625 38.2375L249.8625 43.55Q248.45625 44.675 246.97188 45.2375Q245.4875 45.8 243.925 45.8Q241.81563 45.8 240.09688 44.89375Q238.37813 43.9875 237.4875 42.284374Q236.6125 40.565624 236.6125 38.45625Q236.6125 36.3625 237.4875 34.565624Q238.3625 32.753124 240.00313 31.878124Q241.64375 30.9875 243.78438 30.9875Q245.33125 30.9875 246.58125 31.4875Q247.84688 31.9875 248.55 32.89375Q249.26875 33.784374 249.64375 35.2375L247.94063 35.70625Q247.6125 34.6125 247.12813 33.9875Q246.65938 33.3625 245.76875 32.9875Q244.87813 32.6125 243.8 32.6125Q242.4875 32.6125 241.53438 33.003124Q240.59688 33.39375 240.01875 34.05Q239.44063 34.690624 239.1125 35.45625Q238.56563 36.784374 238.56563 38.346874Q238.56563 40.253124 239.22188 41.55Q239.89375 42.83125 241.14375 43.45625Q242.40938 44.08125 243.81563 44.08125Q245.05 44.08125 246.22188 43.6125Q247.39375 43.14375 248.00313 42.596874L248.00313 39.940624L243.8 39.940624ZM254.01875 49.753124L252.76875 49.753124Q255.675 45.065624 255.675 40.378124Q255.675 38.534374 255.26875 36.7375Q254.925 35.26875 254.33125 33.925Q253.95625 33.034374 252.76875 30.9875L254.01875 30.9875Q255.8625 33.440624 256.7375 35.909374Q257.4875 38.034374 257.4875 40.3625Q257.4875 43.003124 256.47186 45.471874Q255.47188 47.925 254.01875 49.753124ZM268.7531 45.55L264.8 35.175L266.65936 35.175L268.89374 41.39375Q269.2531 42.39375 269.55 43.471874Q269.78436 42.659374 270.20624 41.503124L272.5031 35.175L274.3156 35.175L270.39374 45.55L268.7531 45.55ZM274.15936 42.45625L275.90936 42.175Q276.05 43.221874 276.72186 43.784374Q277.39374 44.33125 278.59686 44.33125Q279.8 44.33125 280.3781 43.846874Q280.97186 43.346874 280.97186 42.690624Q280.97186 42.096874 280.45624 41.753124Q280.09686 41.51875 278.65936 41.159374Q276.72186 40.659374 275.97186 40.315624Q275.2375 39.95625 274.84686 39.33125Q274.45624 38.690624 274.45624 37.925Q274.45624 37.2375 274.76874 36.64375Q275.09686 36.05 275.64374 35.659374Q276.05 35.3625 276.7531 35.159374Q277.47186 34.940624 278.28436 34.940624Q279.5031 34.940624 280.425 35.3Q281.34686 35.64375 281.78436 36.253124Q282.22186 36.846874 282.39374 37.846874L280.675 38.08125Q280.55 37.284374 279.9875 36.846874Q279.425 36.39375 278.40936 36.39375Q277.1906 36.39375 276.675 36.8Q276.15936 37.190624 276.15936 37.721874Q276.15936 38.065624 276.3781 38.346874Q276.58124 38.628124 277.05 38.815624Q277.3156 38.909374 278.59686 39.253124Q280.47186 39.753124 281.20624 40.08125Q281.9406 40.39375 282.3625 41.003124Q282.78436 41.596874 282.78436 42.503124Q282.78436 43.378124 282.26874 44.159374Q281.7531 44.940624 280.78436 45.3625Q279.8156 45.784374 278.59686 45.784374Q276.58124 45.784374 275.51874 44.940624Q274.45624 44.096874 274.15936 42.45625ZM295.1281 45.55L295.1281 39.4875L289.6125 31.2375L291.90936 31.2375L294.7375 35.55Q295.51874 36.753124 296.1906 37.971874Q296.83124 36.846874 297.7531 35.440624L300.53436 31.2375L302.7375 31.2375L297.01874 39.4875L297.01874 45.55L295.1281 45.55ZM311.64374 44.26875Q310.65936 45.096874 309.7531 45.440624Q308.84686 45.784374 307.8156 45.784374Q306.1125 45.784374 305.1906 44.95625Q304.26874 44.1125 304.26874 42.815624Q304.26874 42.05 304.6125 41.425Q304.97186 40.8 305.53436 40.425Q306.09686 40.034374 306.8 39.83125Q307.3156 39.70625 308.3625 39.565624Q310.4875 39.315624 311.4875 38.971874Q311.5031 38.6125 311.5031 38.503124Q311.5031 37.440624 311.0031 36.9875Q310.33124 36.39375 309.0031 36.39375Q307.7531 36.39375 307.15936 36.83125Q306.58124 37.26875 306.3 38.378124L304.58124 38.14375Q304.8156 37.034374 305.34686 36.3625Q305.8781 35.675 306.89374 35.315624Q307.90936 34.940624 309.2531 34.940624Q310.58124 34.940624 311.40936 35.253124Q312.2375 35.565624 312.6281 36.05Q313.01874 36.51875 313.175 37.2375Q313.26874 37.690624 313.26874 38.8625L313.26874 41.20625Q313.26874 43.659374 313.3781 44.315624Q313.4875 44.95625 313.83124 45.55L311.9875 45.55Q311.72186 45.003124 311.64374 44.26875ZM311.4875 40.346874Q310.53436 40.7375 308.6125 41.003124Q307.53436 41.159374 307.08124 41.3625Q306.64374 41.55 306.39374 41.925Q306.14374 42.3 306.14374 42.76875Q306.14374 43.471874 306.675 43.940624Q307.20624 44.409374 308.2375 44.409374Q309.2531 44.409374 310.03436 43.971874Q310.83124 43.51875 311.20624 42.753124Q311.4875 42.14375 311.4875 40.9875L311.4875 40.346874ZM315.84686 45.55L315.84686 35.175L317.425 35.175L317.425 36.753124Q318.03436 35.64375 318.55 35.3Q319.0656 34.940624 319.675 34.940624Q320.5656 34.940624 321.4875 35.503124L320.8781 37.14375Q320.2375 36.753124 319.59686 36.753124Q319.01874 36.753124 318.55 37.1125Q318.09686 37.45625 317.89374 38.065624Q317.6125 39.003124 317.6125 40.1125L317.6125 45.55L315.84686 45.55ZM322.8625 45.55L322.8625 35.175L324.45624 35.175L324.45624 36.659374Q325.59686 34.940624 327.7531 34.940624Q328.6906 34.940624 329.47186 35.284374Q330.26874 35.6125 330.65936 36.159374Q331.05 36.70625 331.20624 37.45625Q331.3 37.95625 331.3 39.175L331.3 45.55L329.53436 45.55L329.53436 39.2375Q329.53436 38.159374 329.33124 37.628124Q329.1281 37.096874 328.59686 36.784374Q328.08124 36.471874 327.3781 36.471874Q326.2531 36.471874 325.4406 37.190624Q324.6281 37.89375 324.6281 39.878124L324.6281 45.55L322.8625 45.55ZM341.59686 45.55L337.8 31.2375L339.7375 31.2375L341.90936 40.6125Q342.26874 42.096874 342.51874 43.55Q343.0656 41.253124 343.15936 40.89375L345.89374 31.2375L348.175 31.2375L350.22186 38.471874Q351.0031 41.175 351.34686 43.55Q351.6125 42.190624 352.05 40.425L354.3 31.2375L356.20624 31.2375L352.28436 45.55L350.45624 45.55L347.4406 34.64375Q347.05 33.26875 346.9875 32.95625Q346.7531 33.940624 346.5656 34.64375L343.53436 45.55L341.59686 45.55ZM364.97186 42.20625L366.78436 42.440624Q366.3625 44.01875 365.1906 44.909374Q364.03436 45.784374 362.22186 45.784374Q359.95624 45.784374 358.6125 44.39375Q357.28436 42.9875 357.28436 40.45625Q357.28436 37.83125 358.6281 36.39375Q359.97186 34.940624 362.1281 34.940624Q364.20624 34.940624 365.51874 36.3625Q366.84686 37.76875 366.84686 40.346874Q366.84686 40.503124 366.83124 40.815624L359.09686 40.815624Q359.1906 42.51875 360.0656 43.425Q360.9406 44.33125 362.2375 44.33125Q363.20624 44.33125 363.8781 43.83125Q364.5656 43.315624 364.97186 42.20625ZM359.1906 39.3625L364.9875 39.3625Q364.8781 38.065624 364.33124 37.409374Q363.4875 36.39375 362.14374 36.39375Q360.9406 36.39375 360.1125 37.20625Q359.28436 38.003124 359.1906 39.3625ZM368.8781 33.253124L368.8781 31.2375L370.64374 31.2375L370.64374 33.253124L368.8781 33.253124ZM368.8781 45.55L368.8781 35.175L370.64374 35.175L370.64374 45.55L368.8781 45.55ZM372.55 46.409374L374.2531 46.659374Q374.3625 47.45625 374.84686 47.815624Q375.5031 48.3 376.64374 48.3Q377.8625 48.3 378.51874 47.815624Q379.1906 47.33125 379.425 46.45625Q379.5656 45.909374 379.55 44.190624Q378.39374 45.55 376.675 45.55Q374.53436 45.55 373.3625 44.003124Q372.1906 42.45625 372.1906 40.3Q372.1906 38.815624 372.72186 37.565624Q373.26874 36.315624 374.28436 35.628124Q375.3156 34.940624 376.6906 34.940624Q378.51874 34.940624 379.72186 36.425L379.72186 35.175L381.33124 35.175L381.33124 44.14375Q381.33124 46.565624 380.83124 47.565624Q380.34686 48.58125 379.26874 49.159374Q378.20624 49.753124 376.64374 49.753124Q374.8 49.753124 373.64374 48.925Q372.5031 48.096874 372.55 46.409374ZM374.0031 40.175Q374.0031 42.221874 374.8156 43.159374Q375.6281 44.096874 376.84686 44.096874Q378.05 44.096874 378.8625 43.159374Q379.6906 42.221874 379.6906 40.2375Q379.6906 38.33125 378.84686 37.3625Q378.0031 36.39375 376.8156 36.39375Q375.64374 36.39375 374.8156 37.346874Q374.0031 38.3 374.0031 40.175ZM383.8625 45.55L383.8625 31.2375L385.6281 31.2375L385.6281 36.3625Q386.8625 34.940624 388.7375 34.940624Q389.8781 34.940624 390.72186 35.39375Q391.58124 35.846874 391.9406 36.659374Q392.3156 37.45625 392.3156 38.971874L392.3156 45.55L390.5656 45.55L390.5656 38.971874Q390.5656 37.659374 389.9875 37.065624Q389.40936 36.45625 388.3781 36.45625Q387.59686 36.45625 386.89374 36.8625Q386.20624 37.26875 385.90936 37.971874Q385.6281 38.659374 385.6281 39.878124L385.6281 45.55L383.8625 45.55ZM397.70624 43.971874L397.95624 45.534374Q397.22186 45.690624 396.6281 45.690624Q395.675 45.690624 395.14374 45.39375Q394.6281 45.08125 394.40936 44.596874Q394.1906 44.096874 394.1906 42.51875L394.1906 36.55L392.90936 36.55L392.90936 35.175L394.1906 35.175L394.1906 32.6125L395.9406 31.55L395.9406 35.175L397.70624 35.175L397.70624 36.55L395.9406 36.55L395.9406 42.6125Q395.9406 43.3625 396.03436 43.58125Q396.1281 43.784374 396.33124 43.925Q396.55 44.05 396.9406 44.05Q397.22186 44.05 397.70624 43.971874ZM409.22186 49.753124Q407.76874 47.925 406.76874 45.471874Q405.76874 43.003124 405.76874 40.3625Q405.76874 38.034374 406.51874 35.909374Q407.39374 33.440624 409.22186 30.9875L410.4875 30.9875Q409.3 33.01875 408.925 33.89375Q408.33124 35.2375 407.9875 36.70625Q407.5656 38.534374 407.5656 40.378124Q407.5656 45.065624 410.4875 49.753124L409.22186 49.753124ZM413.08124 45.55L413.08124 31.2375L415.01874 31.2375L422.53436 42.471874L422.53436 31.2375L424.34686 31.2375L424.34686 45.55L422.40936 45.55L414.89374 34.3L414.89374 45.55L413.08124 45.55ZM425.8625 45.55L425.8625 35.175L427.4406 35.175L427.4406 36.628124Q427.925 35.878124 428.7375 35.409374Q429.55 34.940624 430.58124 34.940624Q431.7375 34.940624 432.47186 35.425Q433.20624 35.89375 433.51874 36.753124Q434.7531 34.940624 436.72186 34.940624Q438.26874 34.940624 439.09686 35.8Q439.925 36.659374 439.925 38.425L439.925 45.55L438.175 45.55L438.175 39.01875Q438.175 37.95625 438.0031 37.503124Q437.83124 37.034374 437.3781 36.753124Q436.9406 36.471874 436.33124 36.471874Q435.2375 36.471874 434.5031 37.20625Q433.78436 37.925 433.78436 39.51875L433.78436 45.55L432.03436 45.55L432.03436 38.815624Q432.03436 37.64375 431.59686 37.065624Q431.175 36.471874 430.1906 36.471874Q429.45624 36.471874 428.8156 36.8625Q428.1906 37.253124 427.90936 38.003124Q427.6281 38.753124 427.6281 40.175L427.6281 45.55L425.8625 45.55ZM443.01874 49.753124L441.76874 49.753124Q444.675 45.065624 444.675 40.378124Q444.675 38.534374 444.26874 36.7375Q443.925 35.26875 443.33124 33.925Q442.95624 33.034374 441.76874 30.9875L443.01874 30.9875Q444.8625 33.440624 445.7375 35.909374Q446.4875 38.034374 446.4875 40.3625Q446.4875 43.003124 445.47186 45.471874Q444.47186 47.925 443.01874 49.753124Z" fill-rule="nonzero"/></svg>