%FSLAX25Y25*%
%MOIN*%
G70*
G01*
G75*
G04 Layer_Physical_Order=1*
G04 Layer_Color=255*
%ADD10P,0.08352X4X285.0*%
%ADD11P,0.08352X4X165.0*%
%ADD12R,0.05906X0.05906*%
%ADD13C,0.02500*%
%ADD14C,0.16500*%
%ADD15C,0.04000*%
G36*
X448474Y596191D02*
X447753Y595014D01*
X446759Y592615D01*
X446153Y590089D01*
X445949Y587500D01*
X446153Y584911D01*
X446759Y582385D01*
X447753Y579986D01*
X449110Y577772D01*
X450797Y575797D01*
X452772Y574110D01*
X454986Y572753D01*
X457385Y571759D01*
X459911Y571153D01*
X462500Y570949D01*
X465089Y571153D01*
X467615Y571759D01*
X470014Y572753D01*
X471191Y573474D01*
X472500Y572741D01*
Y549792D01*
X471155Y549128D01*
X470274Y549804D01*
X468936Y550358D01*
X467500Y550548D01*
X466064Y550358D01*
X464726Y549804D01*
X463577Y548923D01*
X462696Y547774D01*
X462142Y546436D01*
X461952Y545000D01*
X462129Y543660D01*
X461730Y543394D01*
X460665Y542952D01*
X449994Y549113D01*
X443541Y537936D01*
X447565Y535613D01*
Y532644D01*
X447565Y532644D01*
X447565D01*
X447728Y531404D01*
X448207Y530248D01*
X448968Y529256D01*
X452467Y525758D01*
X452282Y525516D01*
X452282D01*
X452282Y525516D01*
X447533Y517291D01*
X439485D01*
X438404Y518372D01*
X438599Y519859D01*
X440815Y521138D01*
X434362Y532315D01*
X423185Y525862D01*
X423185Y525862D01*
X422428Y525425D01*
D01*
X415459Y521401D01*
X412874D01*
X410361Y523914D01*
X410358Y523936D01*
X409804Y525274D01*
X409857Y525541D01*
X419236Y530955D01*
X415212Y537924D01*
Y543436D01*
X416985Y545209D01*
X421547D01*
Y542547D01*
X434453D01*
Y555453D01*
D01*
Y555453D01*
X434453Y555453D01*
Y556327D01*
X434453D01*
Y569232D01*
X433851D01*
X433369Y570653D01*
X433923Y571077D01*
X434804Y572226D01*
X435358Y573564D01*
X435547Y575000D01*
X435358Y576436D01*
X434804Y577774D01*
X433923Y578923D01*
X432774Y579804D01*
X431436Y580358D01*
X430000Y580548D01*
X428821Y580392D01*
X428232Y581160D01*
X427983Y581762D01*
X428241Y582385D01*
X428847Y584911D01*
X429051Y587500D01*
X428847Y590089D01*
X428241Y592615D01*
X427247Y595014D01*
X425890Y597228D01*
X426015Y597500D01*
X447741D01*
X448474Y596191D01*
D02*
G37*
G36*
X467226Y517696D02*
X468564Y517142D01*
X470000Y516953D01*
X471372Y517133D01*
X472500Y516144D01*
Y502500D01*
X402500D01*
Y508888D01*
X403365Y515457D01*
X404785Y515940D01*
X407502Y513223D01*
D01*
X407502Y513223D01*
X407502Y513223D01*
D01*
D01*
D01*
X407502Y513223D01*
Y513223D01*
X408494Y512461D01*
X408833Y512321D01*
X409650Y511982D01*
X410890Y511819D01*
X415382D01*
X417705Y507796D01*
X428881Y514248D01*
X428881Y514248D01*
X428881Y514248D01*
X428935Y514290D01*
X434112Y509112D01*
D01*
X434112Y509112D01*
X434112Y509112D01*
D01*
D01*
D01*
X434112Y509112D01*
Y509112D01*
X435105Y508351D01*
X436260Y507872D01*
X437500Y507709D01*
X452500D01*
X453740Y507872D01*
X454557Y508211D01*
X454895Y508351D01*
X455457Y508781D01*
X457006Y507887D01*
X462676Y517709D01*
X467209D01*
X467226Y517696D01*
D02*
G37*
G36*
X423227Y573134D02*
X423209Y573000D01*
X423209Y573000D01*
X423209D01*
X423209Y573000D01*
X423209D01*
Y569232D01*
X421547D01*
Y567570D01*
X410280D01*
X409039Y567407D01*
X407884Y566929D01*
X406892Y566167D01*
X404785Y564060D01*
X403365Y564543D01*
X402500Y571112D01*
Y572741D01*
X403809Y573474D01*
X404986Y572753D01*
X407385Y571759D01*
X409911Y571153D01*
X412500Y570949D01*
X415089Y571153D01*
X417615Y571759D01*
X420014Y572753D01*
X421969Y573951D01*
X423227Y573134D01*
D02*
G37*
G36*
X421547Y556327D02*
X421547Y556327D01*
X421547Y555453D01*
D01*
X421547Y554791D01*
X415000D01*
X413760Y554628D01*
X412605Y554149D01*
X411612Y553388D01*
X407033Y548809D01*
X406272Y547816D01*
X406132Y547478D01*
X405793Y546661D01*
X405630Y545421D01*
X405630Y545421D01*
X405630D01*
X405630Y545421D01*
X405630D01*
Y538002D01*
X403799Y536945D01*
X402500Y537695D01*
Y551144D01*
X403628Y552133D01*
X405000Y551953D01*
X406436Y552142D01*
X407774Y552696D01*
X408923Y553577D01*
X409804Y554726D01*
X410358Y556064D01*
X410361Y556086D01*
X412264Y557989D01*
X421547D01*
Y556327D01*
D02*
G37*
%LPC*%
G36*
X453744Y569232D02*
X440839D01*
Y556327D01*
X447055D01*
X447675Y555851D01*
X448831Y555372D01*
X450071Y555209D01*
X452209D01*
X452226Y555196D01*
X453564Y554642D01*
X455000Y554453D01*
X456436Y554642D01*
X457774Y555196D01*
X458923Y556077D01*
X459804Y557226D01*
X460358Y558564D01*
X460547Y560000D01*
X460358Y561436D01*
X459804Y562774D01*
X458923Y563923D01*
X457774Y564804D01*
X456436Y565358D01*
X455000Y565548D01*
X454872Y565531D01*
X453744Y566520D01*
Y569232D01*
D02*
G37*
%LPD*%
D10*
X452356Y540298D02*
D03*
X464290Y533408D02*
D03*
X442710Y523592D02*
D03*
X454644Y516702D02*
D03*
D11*
X432000Y523500D02*
D03*
X420067Y516610D02*
D03*
X422354Y540207D02*
D03*
X410421Y533317D02*
D03*
D12*
X428000Y549000D02*
D03*
Y562780D02*
D03*
X447291Y549000D02*
D03*
Y562780D02*
D03*
D13*
X422354Y540207D02*
X430061Y532500D01*
X437500D01*
X442710Y527289D01*
Y523592D02*
Y527289D01*
X405000Y557500D02*
X410280Y562780D01*
X428000D01*
X467500Y536619D02*
Y545000D01*
X464290Y533408D02*
X467500Y536619D01*
X462500Y522500D02*
X470000D01*
X452356Y532644D02*
X462500Y522500D01*
X405000D02*
X410890Y516610D01*
X420067D01*
X415000Y550000D02*
X427000D01*
X428000Y549000D01*
X410421Y545421D02*
X415000Y550000D01*
X410421Y533317D02*
Y545421D01*
X428000Y573000D02*
X430000Y575000D01*
X428000Y562780D02*
Y573000D01*
X454000Y549000D02*
X462500Y557500D01*
Y562500D01*
X447291Y549000D02*
X454000D01*
X450000Y575000D02*
X462500Y562500D01*
X445000Y575000D02*
X450000D01*
X447291Y562780D02*
X450071Y560000D01*
X455000D01*
X452356Y532644D02*
Y540298D01*
X437500Y539209D02*
X447291Y549000D01*
X437500Y532500D02*
Y539209D01*
X432000Y518000D02*
X437500Y512500D01*
X432000Y518000D02*
Y523500D01*
X437500Y512500D02*
X452500D01*
X454644Y514644D01*
Y516702D01*
D14*
X412500Y587500D02*
D03*
X462500D02*
D03*
D15*
X437500Y532500D02*
D03*
X405000Y557500D02*
D03*
X467500Y545000D02*
D03*
X405000Y522500D02*
D03*
X430000Y575000D02*
D03*
X445000D02*
D03*
X470000Y522500D02*
D03*
X455000Y560000D02*
D03*
M02*
