%FSLAX25Y25*%
%MOIN*%
G70*
G01*
G75*
G04 Layer_Color=65535*
%ADD10P,0.08352X4X285.0*%
%ADD11P,0.08352X4X165.0*%
%ADD12R,0.05906X0.05906*%
%ADD13C,0.02500*%
%ADD14C,0.16500*%
%ADD15C,0.04000*%
%ADD16R,0.05000X0.08000*%
%ADD17R,0.17716X0.12205*%
%ADD18C,0.01000*%
D18*
X465000Y522500D02*
G03*
X444065Y568129I-27500J15000D01*
G01*
X431238Y568193D02*
G03*
X410000Y522500I6262J-30693D01*
G01*
X440283Y519651D02*
G03*
X440283Y519651I-984J0D01*
G01*
X421632Y545131D02*
G03*
X421632Y545131I-984J0D01*
G01*
X453394Y548016D02*
G03*
X453394Y548016I-984J0D01*
G01*
X424500Y587500D02*
G03*
X424500Y587500I-12000J0D01*
G01*
X474500D02*
G03*
X474500Y587500I-12000J0D01*
G01*
X400000Y600000D02*
X475000D01*
Y500000D02*
Y600000D01*
X400000Y500000D02*
X475000D01*
X400000D02*
Y600000D01*
X443992Y531716D02*
X446874Y520960D01*
X459071Y518464D02*
X464977Y528693D01*
X442023Y528307D02*
X447929Y538536D01*
X456716Y538008D02*
X460126Y536040D01*
X446874Y520960D02*
X450283Y518992D01*
X417994Y537917D02*
X428750Y535035D01*
X409734Y528602D02*
X415639Y518373D01*
X426782Y538444D02*
X432687Y528216D01*
X424427Y518900D02*
X427837Y520869D01*
X414584Y535948D02*
X417994Y537917D01*
X439614Y546047D02*
X447488Y553921D01*
X431740Y565732D02*
X443551D01*
X431740Y546047D02*
X443551D01*
X427803Y553921D02*
Y557858D01*
X447488Y553921D02*
Y557858D01*
X435832Y586665D02*
X434999Y587498D01*
X433333D01*
X432500Y586665D01*
Y583333D01*
X433333Y582500D01*
X434999D01*
X435832Y583333D01*
X439998Y587498D02*
X438331D01*
X437498Y586665D01*
Y583333D01*
X438331Y582500D01*
X439998D01*
X440831Y583333D01*
Y586665D01*
X439998Y587498D01*
X442497D02*
X445829Y582500D01*
Y587498D02*
X442497Y582500D01*
X447500Y507498D02*
Y504166D01*
X449166Y502500D01*
X450832Y504166D01*
Y507498D01*
X452498Y502500D02*
X454165D01*
X453331D01*
Y507498D01*
X452498Y506665D01*
X456664D02*
X457497Y507498D01*
X459163D01*
X459996Y506665D01*
Y503333D01*
X459163Y502500D01*
X457497D01*
X456664Y503333D01*
Y506665D01*
X461662Y502500D02*
X463328D01*
X462495D01*
Y507498D01*
X461662Y506665D01*
X415832Y507498D02*
X412500D01*
Y504999D01*
X414166Y505832D01*
X414999D01*
X415832Y504999D01*
Y503333D01*
X414999Y502500D01*
X413333D01*
X412500Y503333D01*
X417498Y506665D02*
X418331Y507498D01*
X419998D01*
X420831Y506665D01*
Y503333D01*
X419998Y502500D01*
X418331D01*
X417498Y503333D01*
Y506665D01*
X425829Y507498D02*
X422497D01*
Y504999D01*
X424163Y505832D01*
X424996D01*
X425829Y504999D01*
Y503333D01*
X424996Y502500D01*
X423330D01*
X422497Y503333D01*
X427495Y502500D02*
X429161D01*
X428328D01*
Y507498D01*
X427495Y506665D01*
X431661D02*
X432493Y507498D01*
X434160D01*
X434993Y506665D01*
Y505832D01*
X434160Y504999D01*
X434993Y504166D01*
Y503333D01*
X434160Y502500D01*
X432493D01*
X431661Y503333D01*
Y504166D01*
X432493Y504999D01*
X431661Y505832D01*
Y506665D01*
X432493Y504999D02*
X434160D01*
X436659Y506665D02*
X437492Y507498D01*
X439158D01*
X439991Y506665D01*
Y505832D01*
X439158Y504999D01*
X439991Y504166D01*
Y503333D01*
X439158Y502500D01*
X437492D01*
X436659Y503333D01*
Y504166D01*
X437492Y504999D01*
X436659Y505832D01*
Y506665D01*
X437492Y504999D02*
X439158D01*
X469168Y553332D02*
Y550833D01*
X470001Y550000D01*
X471667D01*
X472500Y550833D01*
Y553332D01*
Y558331D02*
Y554998D01*
X469168Y558331D01*
X468335D01*
X467502Y557498D01*
Y555831D01*
X468335Y554998D01*
Y559997D02*
X467502Y560830D01*
Y562496D01*
X468335Y563329D01*
X471667D01*
X472500Y562496D01*
Y560830D01*
X471667Y559997D01*
X468335D01*
X472500Y568327D02*
Y564995D01*
X469168Y568327D01*
X468335D01*
X467502Y567494D01*
Y565828D01*
X468335Y564995D01*
X472500Y573326D02*
Y569993D01*
X469168Y573326D01*
X468335D01*
X467502Y572493D01*
Y570827D01*
X468335Y569993D01*
X426414Y596413D02*
Y591414D01*
X428913D01*
X429746Y592247D01*
Y593080D01*
X428913Y593913D01*
X426414D01*
X428913D01*
X429746Y594746D01*
Y595580D01*
X428913Y596413D01*
X426414D01*
X431413Y591414D02*
Y596413D01*
X433912D01*
X434745Y595580D01*
Y593913D01*
X433912Y593080D01*
X431413D01*
X433079D02*
X434745Y591414D01*
X436411Y596413D02*
X438077D01*
X437244D01*
Y591414D01*
X436411D01*
X438077D01*
X440576D02*
Y594746D01*
X442242Y596413D01*
X443909Y594746D01*
Y591414D01*
Y593913D01*
X440576D01*
X445575Y591414D02*
Y596413D01*
X448907Y591414D01*
Y596413D01*
X462500Y517498D02*
Y512500D01*
X464999D01*
X465832Y513333D01*
Y516665D01*
X464999Y517498D01*
X462500D01*
X467498Y516665D02*
X468331Y517498D01*
X469998D01*
X470831Y516665D01*
Y515832D01*
X469998Y514999D01*
X469165D01*
X469998D01*
X470831Y514166D01*
Y513333D01*
X469998Y512500D01*
X468331D01*
X467498Y513333D01*
X405000Y517498D02*
Y512500D01*
X407499D01*
X408332Y513333D01*
Y516665D01*
X407499Y517498D01*
X405000D01*
X413331Y512500D02*
X409998D01*
X413331Y515832D01*
Y516665D01*
X412498Y517498D01*
X410831D01*
X409998Y516665D01*
X433902Y572403D02*
Y567405D01*
X436401D01*
X437234Y568238D01*
Y571570D01*
X436401Y572403D01*
X433902D01*
X438900Y567405D02*
X440566D01*
X439733D01*
Y572403D01*
X438900Y571570D01*
M02*
