%FSLAX25Y25*%
%MOIN*%
G70*
G01*
G75*
G04 Layer_Color=33789*
%ADD10R,0.05906X0.05906*%
%ADD11C,0.05000*%
%ADD12C,0.16500*%
%ADD13C,0.04000*%
%ADD14R,0.08000X0.05000*%
%ADD15R,0.12205X0.17716*%
%ADD16C,0.01000*%
%ADD17C,0.01200*%
D16*
X300000Y550000D02*
X800000D01*
Y500000D02*
Y550000D01*
X300000Y500000D02*
X800000D01*
X300000D02*
Y550000D01*
X510484Y533516D02*
X519516D01*
X510484Y516484D02*
Y533516D01*
Y516484D02*
X519516D01*
Y533516D01*
X580484D02*
X589516D01*
X580484Y516484D02*
Y533516D01*
Y516484D02*
X589516D01*
Y533516D01*
X706122Y540059D02*
X708090D01*
Y509547D02*
Y540059D01*
X706122Y509547D02*
X708090D01*
X641161Y540059D02*
X643130D01*
X641161Y509547D02*
Y540059D01*
Y509547D02*
X643130D01*
X456122Y540453D02*
X458090D01*
Y509941D02*
Y540453D01*
X456122Y509941D02*
X458090D01*
X391161Y540453D02*
X393130D01*
X391161Y509941D02*
Y540453D01*
Y509941D02*
X393130D01*
X720000Y544605D02*
Y539606D01*
X717501D01*
X716668Y540439D01*
Y543772D01*
X717501Y544605D01*
X720000D01*
X712502D02*
X714169D01*
X715002Y543772D01*
Y540439D01*
X714169Y539606D01*
X712502D01*
X711669Y540439D01*
Y543772D01*
X712502Y544605D01*
X637500D02*
Y539606D01*
X635001D01*
X634168Y540439D01*
Y543772D01*
X635001Y544605D01*
X637500D01*
X632502D02*
X630835D01*
X631669D01*
Y539606D01*
X632502D01*
X630835D01*
X387500Y544998D02*
Y540000D01*
X385001D01*
X384168Y540833D01*
Y544165D01*
X385001Y544998D01*
X387500D01*
X382502D02*
X380836D01*
X381669D01*
Y540000D01*
X382502D01*
X380836D01*
X515668Y541165D02*
X516501Y541998D01*
X518167D01*
X519000Y541165D01*
Y537833D01*
X518167Y537000D01*
X516501D01*
X515668Y537833D01*
X514002Y537000D02*
X512335D01*
X513169D01*
Y541998D01*
X514002Y541165D01*
X585668D02*
X586501Y541998D01*
X588167D01*
X589000Y541165D01*
Y537833D01*
X588167Y537000D01*
X586501D01*
X585668Y537833D01*
X580669Y537000D02*
X584002D01*
X580669Y540332D01*
Y541165D01*
X581502Y541998D01*
X583169D01*
X584002Y541165D01*
X634168Y527498D02*
X635834D01*
X635001D01*
Y523333D01*
X635834Y522500D01*
X636667D01*
X637500Y523333D01*
X632502Y522500D02*
X630835D01*
X631669D01*
Y527498D01*
X632502Y526665D01*
X466101Y519091D02*
X467767D01*
X466934D01*
Y514926D01*
X467767Y514093D01*
X468600D01*
X469433Y514926D01*
X461103Y514093D02*
X464435D01*
X461103Y517425D01*
Y518258D01*
X461936Y519091D01*
X463602D01*
X464435Y518258D01*
X761668Y513332D02*
X764167D01*
X765000Y512499D01*
Y510833D01*
X764167Y510000D01*
X761668D01*
X751671D02*
X755003D01*
X751671Y513332D01*
Y514165D01*
X752504Y514998D01*
X754170D01*
X755003Y514165D01*
X750005D02*
X749172Y514998D01*
X747506D01*
X746673Y514165D01*
Y510833D01*
X747506Y510000D01*
X749172D01*
X750005Y510833D01*
Y514165D01*
X741674Y510000D02*
X745007D01*
X741674Y513332D01*
Y514165D01*
X742507Y514998D01*
X744173D01*
X745007Y514165D01*
X740008Y510000D02*
X738342D01*
X739175D01*
Y514998D01*
X740008Y514165D01*
X767500Y527498D02*
Y522500D01*
X765001D01*
X764168Y523333D01*
Y524166D01*
X765001Y524999D01*
X767500D01*
X765001D01*
X764168Y525832D01*
Y526665D01*
X765001Y527498D01*
X767500D01*
X762502Y522500D02*
Y527498D01*
X760002D01*
X759169Y526665D01*
Y524999D01*
X760002Y524166D01*
X762502D01*
X760836D02*
X759169Y522500D01*
X757503Y527498D02*
X755837D01*
X756670D01*
Y522500D01*
X757503D01*
X755837D01*
X753338D02*
Y525832D01*
X751672Y527498D01*
X750006Y525832D01*
Y522500D01*
Y524999D01*
X753338D01*
X748340Y522500D02*
Y527498D01*
X745007Y522500D01*
Y527498D01*
X735010Y526665D02*
X735844Y527498D01*
X737510D01*
X738343Y526665D01*
Y523333D01*
X737510Y522500D01*
X735844D01*
X735010Y523333D01*
X730845Y527498D02*
X732511D01*
X733344Y526665D01*
Y523333D01*
X732511Y522500D01*
X730845D01*
X730012Y523333D01*
Y526665D01*
X730845Y527498D01*
X728346D02*
X725014Y522500D01*
Y527498D02*
X728346Y522500D01*
X565000Y525832D02*
Y522500D01*
Y524166D01*
X564167Y524999D01*
X563334Y525832D01*
X562501D01*
X557502Y522500D02*
X559169D01*
X560002Y523333D01*
Y524999D01*
X559169Y525832D01*
X557502D01*
X556669Y524999D01*
Y524166D01*
X560002D01*
X555003Y525832D02*
X553337Y522500D01*
X551671Y525832D01*
X546673Y522500D02*
X550005D01*
X546673Y525832D01*
Y526665D01*
X547506Y527498D01*
X549172D01*
X550005Y526665D01*
X545007Y522500D02*
Y523333D01*
X544173D01*
Y522500D01*
X545007D01*
X540841Y526665D02*
X540008Y527498D01*
X538342D01*
X537509Y526665D01*
Y523333D01*
X538342Y522500D01*
X540008D01*
X540841Y523333D01*
Y526665D01*
X535843Y522500D02*
X534177D01*
X535010D01*
Y527498D01*
X535843Y526665D01*
X382500Y505000D02*
X380001D01*
X379168Y505833D01*
X380001Y506666D01*
X381667D01*
X382500Y507499D01*
X381667Y508332D01*
X379168D01*
X377502Y503334D02*
Y508332D01*
X375002D01*
X374169Y507499D01*
Y505833D01*
X375002Y505000D01*
X377502D01*
X371670Y508332D02*
X370004D01*
X369171Y507499D01*
Y505000D01*
X371670D01*
X372503Y505833D01*
X371670Y506666D01*
X369171D01*
X364173Y508332D02*
X366672D01*
X367505Y507499D01*
Y505833D01*
X366672Y505000D01*
X364173D01*
X360007D02*
X361673D01*
X362507Y505833D01*
Y507499D01*
X361673Y508332D01*
X360007D01*
X359174Y507499D01*
Y506666D01*
X362507D01*
X357508Y507499D02*
X354176D01*
X350010Y505000D02*
X351677D01*
X352510Y505833D01*
Y507499D01*
X351677Y508332D01*
X350010D01*
X349178Y507499D01*
Y506666D01*
X352510D01*
X347511Y505000D02*
X345845D01*
X346678D01*
Y508332D01*
X347511D01*
X341680Y503334D02*
X340847D01*
X340014Y504167D01*
Y508332D01*
X342513D01*
X343346Y507499D01*
Y505833D01*
X342513Y505000D01*
X340014D01*
X338348Y509998D02*
Y505000D01*
Y507499D01*
X337515Y508332D01*
X335848D01*
X335015Y507499D01*
Y505000D01*
X332516Y509165D02*
Y508332D01*
X333349D01*
X331683D01*
X332516D01*
Y505833D01*
X331683Y505000D01*
X329184D02*
Y505833D01*
X328351D01*
Y505000D01*
X329184D01*
X321686Y508332D02*
X324186D01*
X325019Y507499D01*
Y505833D01*
X324186Y505000D01*
X321686D01*
X319187D02*
X317521D01*
X316688Y505833D01*
Y507499D01*
X317521Y508332D01*
X319187D01*
X320020Y507499D01*
Y505833D01*
X319187Y505000D01*
X315022D02*
Y508332D01*
X314189D01*
X313356Y507499D01*
Y505000D01*
Y507499D01*
X312523Y508332D01*
X311690Y507499D01*
Y505000D01*
X470000Y544998D02*
Y540000D01*
X467501D01*
X466668Y540833D01*
Y544165D01*
X467501Y544998D01*
X470000D01*
X462502D02*
X464169D01*
X465002Y544165D01*
Y540833D01*
X464169Y540000D01*
X462502D01*
X461669Y540833D01*
Y544165D01*
X462502Y544998D01*
D17*
X563501Y540998D02*
X567500D01*
Y537999D01*
X565501Y538999D01*
X564501D01*
X563501Y537999D01*
Y536000D01*
X564501Y535000D01*
X566500D01*
X567500Y536000D01*
X561502Y539998D02*
X560502Y540998D01*
X558503D01*
X557503Y539998D01*
Y536000D01*
X558503Y535000D01*
X560502D01*
X561502Y536000D01*
Y539998D01*
X551505Y540998D02*
X555504D01*
Y537999D01*
X553505Y538999D01*
X552505D01*
X551505Y537999D01*
Y536000D01*
X552505Y535000D01*
X554504D01*
X555504Y536000D01*
X549506Y535000D02*
X547507D01*
X548506D01*
Y540998D01*
X549506Y539998D01*
X544507D02*
X543508Y540998D01*
X541508D01*
X540509Y539998D01*
Y538999D01*
X541508Y537999D01*
X540509Y536999D01*
Y536000D01*
X541508Y535000D01*
X543508D01*
X544507Y536000D01*
Y536999D01*
X543508Y537999D01*
X544507Y538999D01*
Y539998D01*
X543508Y537999D02*
X541508D01*
X538509Y540998D02*
X534511D01*
Y539998D01*
X538509Y536000D01*
Y535000D01*
X585000Y510998D02*
Y505000D01*
Y506999D01*
X581001Y510998D01*
X584000Y507999D01*
X581001Y505000D01*
X579002Y510998D02*
X577003D01*
X578002D01*
Y505000D01*
X579002D01*
X577003D01*
X570005Y509998D02*
X571004Y510998D01*
X573004D01*
X574004Y509998D01*
Y508999D01*
X573004Y507999D01*
X571004D01*
X570005Y506999D01*
Y506000D01*
X571004Y505000D01*
X573004D01*
X574004Y506000D01*
X564007Y509998D02*
X565006Y510998D01*
X567006D01*
X568006Y509998D01*
Y508999D01*
X567006Y507999D01*
X565006D01*
X564007Y506999D01*
Y506000D01*
X565006Y505000D01*
X567006D01*
X568006Y506000D01*
X552011Y509998D02*
X553010Y510998D01*
X555010D01*
X556009Y509998D01*
Y508999D01*
X555010Y507999D01*
X553010D01*
X552011Y506999D01*
Y506000D01*
X553010Y505000D01*
X555010D01*
X556009Y506000D01*
X550011Y510998D02*
X548012D01*
X549012D01*
Y505000D01*
X550011D01*
X548012D01*
X545013Y510998D02*
Y505000D01*
X542014D01*
X541014Y506000D01*
Y509998D01*
X542014Y510998D01*
X545013D01*
X535016D02*
X539015D01*
Y505000D01*
X535016D01*
X539015Y507999D02*
X537015D01*
X527019Y510998D02*
Y505000D01*
X523020D01*
X517022Y510998D02*
X521021D01*
Y505000D01*
X517022D01*
X521021Y507999D02*
X519021D01*
X515023Y510998D02*
Y505000D01*
X512024D01*
X511024Y506000D01*
Y509998D01*
X512024Y510998D01*
X515023D01*
M02*
