M48
;Layer_Color=8847372
;FILE_FORMAT=2:5
INCH,TZ
;TYPE=PLATED
T1F00S00C0.02100
T2F00S00C0.07500
T3F00S00C0.12500
%
T01
X317500Y314179
X315000Y360000
X352002Y354034
X342500Y405000
X325000Y395000
X477500Y342500
X517500Y314179
X552002Y354034
X600000Y334922
X611748Y458248
X550000Y442500
X757500Y460000
X752500Y420000
X772500Y392500
X752002Y354034
X692500Y342500
X717743Y314756
X787500Y332500
X782500Y382500
X787500Y532500
X782500Y582500
X770000Y595000
X757500Y610000
X752002Y554034
X758500Y477500
X658500Y550000
X642752Y611248
X601500Y603000
X567500Y592000
X552002Y553534
X497500Y582500
X498000Y601000
X500000Y497500
X603500Y499500
X587500Y475000
X458748Y489252
X443000Y550000
X352002Y554034
X315000Y560000
X325000Y595000
X342500Y623500
X317500Y514179
Y714179
X315000Y760000
X352002Y754034
X423500Y758500
X455000Y665000
X489752Y642252
X550000Y658000
X552002Y754034
X623500Y759000
X752002Y754034
X758500Y677500
X782500Y782500
X787500Y790000
X767500Y792500
X697500Y782500
X567500Y792500
X415000Y782500
X347500Y785000
T02
X450500Y366000
Y386000
X386500Y450500
X366500
X715000
X735000
X650500Y385500
Y365500
X450500Y715000
Y735000
X386000Y650500
X366000
X715000
X735000
X650500Y715500
Y735500
T03
X325500Y450500
X450500Y325500
X650500
X775500Y450500
X450500Y775500
X325500Y650500
X650500Y775500
X775500Y650500
M30
