%FSLAX25Y25*%
%MOIN*%
G70*
G01*
G75*
G04 Layer_Color=128*
%ADD10P,0.08352X4X333.0*%
%ADD11P,0.08352X4X261.0*%
%ADD12P,0.08352X4X189.0*%
%ADD13P,0.08352X4X117.0*%
%ADD14R,0.05906X0.05906*%
%ADD15C,0.02500*%
%ADD16C,0.10000*%
%ADD17C,0.05000*%
%ADD18C,0.12500*%
%ADD19R,0.12500X0.12500*%
%ADD20R,0.12500X0.12500*%
%ADD21C,0.16500*%
%ADD22C,0.04000*%
%ADD23R,0.17716X0.12205*%
%ADD24R,0.12205X0.17716*%
G04:AMPARAMS|DCode=25|XSize=80mil|YSize=50mil|CornerRadius=0mil|HoleSize=0mil|Usage=FLASHONLY|Rotation=45.000|XOffset=0mil|YOffset=0mil|HoleType=Round|Shape=Rectangle|*
%AMROTATEDRECTD25*
4,1,4,-0.01061,-0.04596,-0.04596,-0.01061,0.01061,0.04596,0.04596,0.01061,-0.01061,-0.04596,0.0*
%
%ADD25ROTATEDRECTD25*%

%ADD26R,0.08000X0.05000*%
G04:AMPARAMS|DCode=27|XSize=80mil|YSize=50mil|CornerRadius=0mil|HoleSize=0mil|Usage=FLASHONLY|Rotation=315.000|XOffset=0mil|YOffset=0mil|HoleType=Round|Shape=Rectangle|*
%AMROTATEDRECTD27*
4,1,4,-0.04596,0.01061,-0.01061,0.04596,0.04596,-0.01061,0.01061,-0.04596,-0.04596,0.01061,0.0*
%
%ADD27ROTATEDRECTD27*%

%ADD28R,0.05000X0.08000*%
%ADD29C,0.01000*%
%ADD30C,0.01200*%
%ADD31C,0.01500*%
%ADD32P,0.06937X4X333.0*%
%ADD33P,0.06937X4X261.0*%
%ADD34P,0.06937X4X189.0*%
%ADD35P,0.06937X4X117.0*%
%ADD36R,0.04906X0.04906*%
%ADD37R,0.16716X0.11205*%
%ADD38R,0.11205X0.16716*%
G04:AMPARAMS|DCode=39|XSize=70mil|YSize=40mil|CornerRadius=0mil|HoleSize=0mil|Usage=FLASHONLY|Rotation=45.000|XOffset=0mil|YOffset=0mil|HoleType=Round|Shape=Rectangle|*
%AMROTATEDRECTD39*
4,1,4,-0.01061,-0.03889,-0.03889,-0.01061,0.01061,0.03889,0.03889,0.01061,-0.01061,-0.03889,0.0*
%
%ADD39ROTATEDRECTD39*%

%ADD40R,0.07000X0.04000*%
G04:AMPARAMS|DCode=41|XSize=70mil|YSize=40mil|CornerRadius=0mil|HoleSize=0mil|Usage=FLASHONLY|Rotation=315.000|XOffset=0mil|YOffset=0mil|HoleType=Round|Shape=Rectangle|*
%AMROTATEDRECTD41*
4,1,4,-0.03889,0.01061,-0.01061,0.03889,0.03889,-0.01061,0.01061,-0.03889,-0.03889,0.01061,0.0*
%
%ADD41ROTATEDRECTD41*%

%ADD42R,0.04000X0.07000*%
%ADD43P,0.09483X4X333.0*%
%ADD44P,0.09483X4X261.0*%
%ADD45P,0.09483X4X189.0*%
%ADD46P,0.09483X4X117.0*%
%ADD47R,0.06706X0.06706*%
%ADD48C,0.13300*%
%ADD49R,0.13300X0.13300*%
%ADD50R,0.13300X0.13300*%
%ADD51C,0.17300*%
%ADD52C,0.04800*%
D43*
X789533Y752955D02*
D03*
X776428Y748697D02*
D03*
X783572Y771303D02*
D03*
X770467Y767044D02*
D03*
X389033Y552955D02*
D03*
X375928Y548697D02*
D03*
X383072Y571303D02*
D03*
X369967Y567044D02*
D03*
X589533Y552955D02*
D03*
X576428Y548697D02*
D03*
X583572Y571303D02*
D03*
X570467Y567044D02*
D03*
X789033Y552955D02*
D03*
X775928Y548697D02*
D03*
X783072Y571303D02*
D03*
X769967Y567044D02*
D03*
X389033Y352956D02*
D03*
X375928Y348697D02*
D03*
X383072Y371303D02*
D03*
X369967Y367044D02*
D03*
X589033Y352956D02*
D03*
X575928Y348697D02*
D03*
X583072Y371303D02*
D03*
X569967Y367044D02*
D03*
X789033Y352956D02*
D03*
X775928Y348697D02*
D03*
X783072Y371303D02*
D03*
X769967Y367044D02*
D03*
X389033Y752955D02*
D03*
X375928Y748697D02*
D03*
X383072Y771303D02*
D03*
X369967Y767044D02*
D03*
X589033Y752955D02*
D03*
X575928Y748697D02*
D03*
X583072Y771303D02*
D03*
X569967Y767044D02*
D03*
D44*
X764246Y714756D02*
D03*
X756147Y725904D02*
D03*
X779853Y726096D02*
D03*
X771754Y737244D02*
D03*
X364746Y514756D02*
D03*
X356647Y525904D02*
D03*
X380353Y526096D02*
D03*
X372254Y537244D02*
D03*
X564746Y514256D02*
D03*
X556647Y525404D02*
D03*
X580353Y525596D02*
D03*
X572254Y536743D02*
D03*
X764746Y514756D02*
D03*
X756647Y525904D02*
D03*
X780353Y526096D02*
D03*
X772254Y537244D02*
D03*
X364746Y314756D02*
D03*
X356647Y325904D02*
D03*
X380353Y326096D02*
D03*
X372254Y337244D02*
D03*
X564746Y314756D02*
D03*
X556647Y325904D02*
D03*
X580353Y326096D02*
D03*
X572254Y337244D02*
D03*
X764746Y314756D02*
D03*
X756647Y325904D02*
D03*
X780353Y326096D02*
D03*
X772254Y337244D02*
D03*
X364746Y714756D02*
D03*
X356647Y725904D02*
D03*
X380353Y726096D02*
D03*
X372254Y737244D02*
D03*
X564746Y714756D02*
D03*
X556647Y725904D02*
D03*
X580353Y726096D02*
D03*
X572254Y737244D02*
D03*
D45*
X720647Y726096D02*
D03*
X728746Y737244D02*
D03*
X736254Y714756D02*
D03*
X744353Y725904D02*
D03*
X320647Y526096D02*
D03*
X328746Y537244D02*
D03*
X336254Y514756D02*
D03*
X344353Y525904D02*
D03*
X520647Y525596D02*
D03*
X528746Y536743D02*
D03*
X536254Y514256D02*
D03*
X544353Y525404D02*
D03*
X720647Y525596D02*
D03*
X728746Y536743D02*
D03*
X736254Y514256D02*
D03*
X744353Y525404D02*
D03*
X320647Y326096D02*
D03*
X328746Y337244D02*
D03*
X336254Y314756D02*
D03*
X344353Y325904D02*
D03*
X520647Y326096D02*
D03*
X528746Y337244D02*
D03*
X536254Y314756D02*
D03*
X544353Y325904D02*
D03*
X720647Y326096D02*
D03*
X728746Y337244D02*
D03*
X736254Y314756D02*
D03*
X744353Y325904D02*
D03*
X320647Y726096D02*
D03*
X328746Y737244D02*
D03*
X336254Y714756D02*
D03*
X344353Y725904D02*
D03*
X520647Y725596D02*
D03*
X528746Y736743D02*
D03*
X536254Y714256D02*
D03*
X544353Y725404D02*
D03*
D46*
X717928Y771303D02*
D03*
X731033Y767044D02*
D03*
X711967Y752955D02*
D03*
X725072Y748697D02*
D03*
X317928Y571303D02*
D03*
X331033Y567044D02*
D03*
X311967Y552955D02*
D03*
X325072Y548697D02*
D03*
X517928Y571303D02*
D03*
X531033Y567044D02*
D03*
X511967Y552955D02*
D03*
X525072Y548697D02*
D03*
X717928Y571303D02*
D03*
X731033Y567044D02*
D03*
X711967Y552955D02*
D03*
X725072Y548697D02*
D03*
X317928Y371303D02*
D03*
X331033Y367044D02*
D03*
X311967Y352956D02*
D03*
X325072Y348697D02*
D03*
X517928Y371303D02*
D03*
X531033Y367044D02*
D03*
X511967Y352956D02*
D03*
X525072Y348697D02*
D03*
X717928Y371303D02*
D03*
X731033Y367044D02*
D03*
X711967Y352956D02*
D03*
X725072Y348697D02*
D03*
X317928Y771303D02*
D03*
X331033Y767044D02*
D03*
X311967Y752955D02*
D03*
X325072Y748697D02*
D03*
X517928Y771303D02*
D03*
X531033Y767044D02*
D03*
X511967Y752955D02*
D03*
X525072Y748697D02*
D03*
D47*
X760146Y787890D02*
D03*
Y774110D02*
D03*
X740854Y787890D02*
D03*
Y774110D02*
D03*
X360146Y587890D02*
D03*
Y574110D02*
D03*
X340854Y587890D02*
D03*
Y574110D02*
D03*
X560146Y587390D02*
D03*
Y573610D02*
D03*
X540854Y587390D02*
D03*
Y573610D02*
D03*
X760146Y587890D02*
D03*
Y574110D02*
D03*
X740854Y587890D02*
D03*
Y574110D02*
D03*
X360146Y387890D02*
D03*
Y374110D02*
D03*
X340854Y387890D02*
D03*
Y374110D02*
D03*
X560146Y387890D02*
D03*
Y374110D02*
D03*
X540854Y387890D02*
D03*
Y374110D02*
D03*
X760146Y387890D02*
D03*
Y374110D02*
D03*
X740854Y387890D02*
D03*
Y374110D02*
D03*
X360146Y787890D02*
D03*
Y774110D02*
D03*
X340854Y787890D02*
D03*
Y774110D02*
D03*
X560146Y787890D02*
D03*
Y774110D02*
D03*
X540854Y787890D02*
D03*
Y774110D02*
D03*
D48*
X735000Y650500D02*
D03*
X650500Y735500D02*
D03*
X450500Y735000D02*
D03*
X366000Y650500D02*
D03*
X366500Y450500D02*
D03*
X450500Y366000D02*
D03*
X650500Y365500D02*
D03*
X735000Y450500D02*
D03*
D49*
X715000Y650500D02*
D03*
X386000D02*
D03*
X386500Y450500D02*
D03*
X715000D02*
D03*
D50*
X650500Y715500D02*
D03*
X450500Y715000D02*
D03*
Y386000D02*
D03*
X650500Y385500D02*
D03*
D51*
X450500Y775500D02*
D03*
X650500D02*
D03*
X775500Y650500D02*
D03*
Y450500D02*
D03*
X325500Y650500D02*
D03*
Y450500D02*
D03*
X450500Y325500D02*
D03*
X650500D02*
D03*
D52*
X757500Y460000D02*
D03*
X443000Y550000D02*
D03*
X550000Y442500D02*
D03*
X658500Y550000D02*
D03*
X550000Y658000D02*
D03*
X757500Y610000D02*
D03*
X787500Y790000D02*
D03*
X772500Y392500D02*
D03*
X770000Y595000D02*
D03*
X782500Y782500D02*
D03*
X497500Y582500D02*
D03*
X697500Y782500D02*
D03*
X352002Y754034D02*
D03*
X552002D02*
D03*
X752002D02*
D03*
Y554034D02*
D03*
X552002Y553534D02*
D03*
X352002Y554034D02*
D03*
Y354034D02*
D03*
X552002D02*
D03*
X752002D02*
D03*
X477500Y342500D02*
D03*
X692500D02*
D03*
X758500Y477500D02*
D03*
Y677500D02*
D03*
X623500Y759000D02*
D03*
X423500Y758500D02*
D03*
X342500Y623500D02*
D03*
Y405000D02*
D03*
X458748Y489252D02*
D03*
X500000Y497500D02*
D03*
X603500Y499500D02*
D03*
X611748Y458248D02*
D03*
X601500Y603000D02*
D03*
X642752Y611248D02*
D03*
X498000Y601000D02*
D03*
X489752Y642252D02*
D03*
X567500Y792500D02*
D03*
X767500D02*
D03*
X567500Y592000D02*
D03*
X415000Y782500D02*
D03*
X455000Y665000D02*
D03*
X752500Y420000D02*
D03*
X587500Y475000D02*
D03*
X782500Y382500D02*
D03*
X787500Y332500D02*
D03*
X717743Y314756D02*
D03*
X517500Y314179D02*
D03*
X600000Y334922D02*
D03*
X315000Y360000D02*
D03*
X317500Y314179D02*
D03*
X325000Y395000D02*
D03*
Y595000D02*
D03*
X317500Y514179D02*
D03*
X315000Y560000D02*
D03*
X787500Y532500D02*
D03*
X782500Y582500D02*
D03*
X315000Y760000D02*
D03*
X317500Y714179D02*
D03*
X347500Y785000D02*
D03*
M02*
