%FSLAX25Y25*%
%MOIN*%
G70*
G01*
G75*
G04 Layer_Physical_Order=2*
G04 Layer_Color=65280*
%ADD10P,0.08352X4X333.0*%
%ADD11P,0.08352X4X261.0*%
%ADD12P,0.08352X4X189.0*%
%ADD13P,0.08352X4X117.0*%
%ADD14R,0.05906X0.05906*%
%ADD15C,0.02500*%
%ADD16C,0.10000*%
%ADD17C,0.05000*%
%ADD18C,0.12500*%
%ADD19R,0.12500X0.12500*%
%ADD20R,0.12500X0.12500*%
%ADD21C,0.16500*%
%ADD22C,0.04000*%
%ADD23R,0.17716X0.12205*%
%ADD24R,0.12205X0.17716*%
G04:AMPARAMS|DCode=25|XSize=80mil|YSize=50mil|CornerRadius=0mil|HoleSize=0mil|Usage=FLASHONLY|Rotation=45.000|XOffset=0mil|YOffset=0mil|HoleType=Round|Shape=Rectangle|*
%AMROTATEDRECTD25*
4,1,4,-0.01061,-0.04596,-0.04596,-0.01061,0.01061,0.04596,0.04596,0.01061,-0.01061,-0.04596,0.0*
%
%ADD25ROTATEDRECTD25*%

%ADD26R,0.08000X0.05000*%
G04:AMPARAMS|DCode=27|XSize=80mil|YSize=50mil|CornerRadius=0mil|HoleSize=0mil|Usage=FLASHONLY|Rotation=315.000|XOffset=0mil|YOffset=0mil|HoleType=Round|Shape=Rectangle|*
%AMROTATEDRECTD27*
4,1,4,-0.04596,0.01061,-0.01061,0.04596,0.04596,-0.01061,0.01061,-0.04596,-0.04596,0.01061,0.0*
%
%ADD27ROTATEDRECTD27*%

%ADD28R,0.05000X0.08000*%
G36*
X702657Y713764D02*
X701343Y712450D01*
X711950Y701843D01*
X713264Y703157D01*
X726459Y689962D01*
Y655204D01*
X725949Y654249D01*
X725391Y652411D01*
X725203Y650500D01*
X725391Y648589D01*
X725949Y646751D01*
X726459Y645796D01*
X726459D01*
X726459Y645796D01*
Y550500D01*
X723500D01*
Y535500D01*
X726459D01*
Y455204D01*
X725949Y454249D01*
X725391Y452411D01*
X725203Y450500D01*
X725391Y448589D01*
X725949Y446751D01*
X726459Y445796D01*
Y411038D01*
X713764Y398343D01*
X712450Y399657D01*
X701843Y389050D01*
X703157Y387736D01*
X689962Y374541D01*
X654269D01*
X654249Y374551D01*
X652411Y375109D01*
X650500Y375297D01*
X648589Y375109D01*
X646751Y374551D01*
X646732Y374541D01*
X558500D01*
Y377500D01*
X543500D01*
Y374541D01*
X455204D01*
X454249Y375051D01*
X452411Y375609D01*
X450500Y375797D01*
X448589Y375609D01*
X446751Y375051D01*
X445796Y374541D01*
X411538D01*
X397843Y388236D01*
X399157Y389550D01*
X388550Y400157D01*
X387236Y398843D01*
X375041Y411038D01*
Y445796D01*
X375551Y446751D01*
X376109Y448589D01*
X376297Y450500D01*
X376109Y452411D01*
X375551Y454249D01*
X374646Y455943D01*
X374541Y456071D01*
Y543000D01*
X377500D01*
Y558000D01*
X374541D01*
Y645796D01*
X375051Y646751D01*
X375609Y648589D01*
X375797Y650500D01*
X375609Y652411D01*
X375051Y654249D01*
X374541Y655204D01*
Y689962D01*
X387486Y702907D01*
X388550Y701843D01*
X399157Y712450D01*
X398093Y713514D01*
X411038Y726459D01*
X445796D01*
X446751Y725949D01*
X448589Y725391D01*
X450500Y725203D01*
X452411Y725391D01*
X454249Y725949D01*
X455204Y726459D01*
X543000D01*
Y724000D01*
X558000D01*
Y726459D01*
X646732D01*
X646751Y726449D01*
X648589Y725891D01*
X650500Y725703D01*
X652411Y725891D01*
X654249Y726449D01*
X654269Y726459D01*
X689962D01*
X702657Y713764D01*
D02*
G37*
G36*
X795965Y304034D02*
X304034D01*
Y795965D01*
X561632D01*
X562466Y794718D01*
X562142Y793936D01*
X562139Y793914D01*
X555515Y787291D01*
X485000D01*
X483760Y787128D01*
X482605Y786649D01*
X481612Y785888D01*
X468227Y772502D01*
X466864Y773130D01*
X467051Y775500D01*
X466847Y778089D01*
X466241Y780615D01*
X465247Y783014D01*
X463890Y785228D01*
X462203Y787203D01*
X460228Y788890D01*
X458014Y790247D01*
X455615Y791241D01*
X453089Y791847D01*
X450500Y792051D01*
X447911Y791847D01*
X445386Y791241D01*
X442986Y790247D01*
X440772Y788890D01*
X438797Y787203D01*
X437110Y785228D01*
X435753Y783014D01*
X434759Y780615D01*
X434153Y778089D01*
X433949Y775500D01*
X434153Y772911D01*
X434389Y771929D01*
X433080Y771196D01*
X420361Y783914D01*
X420358Y783936D01*
X419804Y785274D01*
X418923Y786423D01*
X417774Y787304D01*
X416436Y787858D01*
X415000Y788048D01*
X413564Y787858D01*
X412226Y787304D01*
X411077Y786423D01*
X410196Y785274D01*
X409642Y783936D01*
X409452Y782500D01*
X409642Y781064D01*
X410196Y779726D01*
X411077Y778577D01*
X412226Y777696D01*
X413564Y777142D01*
X413586Y777139D01*
X439112Y751612D01*
X440104Y750851D01*
X441260Y750372D01*
X442500Y750209D01*
X457500D01*
X458740Y750372D01*
X459557Y750711D01*
X459896Y750851D01*
X460888Y751612D01*
Y751612D01*
X460888D01*
D01*
D01*
D01*
D01*
D01*
D01*
X460888D01*
D01*
X460888D01*
Y751612D01*
D01*
D01*
D01*
D01*
Y751612D01*
D01*
D01*
D01*
D01*
D01*
D01*
Y751612D01*
D01*
D01*
X460888D01*
D01*
D01*
D01*
X486984Y777709D01*
X557500D01*
X558740Y777872D01*
X559557Y778211D01*
X559896Y778351D01*
X560888Y779112D01*
Y779112D01*
X560888D01*
D01*
D01*
D01*
D01*
D01*
D01*
X560888D01*
D01*
X560888D01*
Y779112D01*
D01*
D01*
D01*
D01*
Y779112D01*
D01*
D01*
D01*
D01*
D01*
D01*
Y779112D01*
D01*
D01*
X560888D01*
D01*
D01*
D01*
X568914Y787139D01*
X568936Y787142D01*
X570274Y787696D01*
X571423Y788577D01*
X572304Y789726D01*
X572858Y791064D01*
X573047Y792500D01*
X572858Y793936D01*
X572304Y795274D01*
X572645Y795965D01*
X761632D01*
X762466Y794718D01*
X762142Y793936D01*
X762139Y793914D01*
X755515Y787291D01*
X700291D01*
X700274Y787304D01*
X698936Y787858D01*
X697500Y788048D01*
X696064Y787858D01*
X694726Y787304D01*
X693577Y786423D01*
X692696Y785274D01*
X692142Y783936D01*
X691953Y782500D01*
X692142Y781064D01*
X692696Y779726D01*
X693577Y778577D01*
X694726Y777696D01*
X696064Y777142D01*
X697500Y776953D01*
X698936Y777142D01*
X700274Y777696D01*
X700291Y777709D01*
X753974D01*
X754548Y776323D01*
X750516Y772291D01*
X726000D01*
X724760Y772128D01*
X723604Y771649D01*
X722612Y770888D01*
X695107Y743383D01*
X693500Y743541D01*
X656071D01*
X655943Y743646D01*
X654249Y744551D01*
X652411Y745109D01*
X650500Y745297D01*
X648589Y745109D01*
X646751Y744551D01*
X645796Y744041D01*
X454269D01*
X454249Y744051D01*
X452411Y744609D01*
X450500Y744797D01*
X448589Y744609D01*
X446751Y744051D01*
X445796Y743541D01*
X407500D01*
X405834Y743377D01*
X404231Y742891D01*
X402755Y742102D01*
X401461Y741040D01*
X359961Y699540D01*
X358898Y698245D01*
X358109Y696769D01*
X357623Y695166D01*
X357459Y693500D01*
Y655204D01*
X356949Y654249D01*
X356391Y652411D01*
X356203Y650500D01*
X356391Y648589D01*
X356949Y646751D01*
X357459Y645796D01*
Y454269D01*
X357449Y454249D01*
X356891Y452411D01*
X356703Y450500D01*
X356891Y448589D01*
X357449Y446751D01*
X357959Y445796D01*
Y407500D01*
X358123Y405834D01*
X358609Y404231D01*
X359398Y402755D01*
X360460Y401461D01*
X401961Y359961D01*
X403255Y358898D01*
X404731Y358109D01*
X406334Y357623D01*
X408000Y357459D01*
X445796D01*
X446751Y356949D01*
X448589Y356391D01*
X450500Y356203D01*
X452411Y356391D01*
X454249Y356949D01*
X455204Y357459D01*
X644929D01*
X645057Y357354D01*
X646751Y356449D01*
X648589Y355891D01*
X650500Y355703D01*
X652411Y355891D01*
X654249Y356449D01*
X655943Y357354D01*
X656071Y357459D01*
X693500D01*
X695166Y357623D01*
X696769Y358109D01*
X698245Y358898D01*
X699540Y359961D01*
X741040Y401461D01*
Y401461D01*
D01*
D01*
D01*
X741040Y401461D01*
D01*
Y401461D01*
D01*
X741040D01*
Y401461D01*
D01*
Y401461D01*
Y401461D01*
X741040D01*
D01*
D01*
Y401461D01*
D01*
D01*
D01*
D01*
D01*
D01*
Y401461D01*
D01*
D01*
X741040D01*
D01*
X741040Y401461D01*
D01*
D01*
X742102Y402755D01*
X742891Y404231D01*
X743377Y405834D01*
X743541Y407500D01*
Y445796D01*
X744051Y446751D01*
X744609Y448589D01*
X744797Y450500D01*
X744609Y452411D01*
X744051Y454249D01*
X743541Y455204D01*
Y645796D01*
X744051Y646751D01*
X744609Y648589D01*
X744797Y650500D01*
X744609Y652411D01*
X744051Y654249D01*
X743541Y655204D01*
Y693500D01*
X743377Y695166D01*
X742891Y696769D01*
X742102Y698245D01*
X741040Y699540D01*
X702927Y737652D01*
X727985Y762709D01*
X752500D01*
X753740Y762872D01*
X754557Y763211D01*
X754895Y763351D01*
X755888Y764112D01*
Y764112D01*
X755888D01*
D01*
D01*
D01*
D01*
D01*
D01*
X755888D01*
D01*
X755888D01*
Y764112D01*
D01*
D01*
D01*
D01*
Y764112D01*
D01*
D01*
D01*
D01*
D01*
D01*
Y764112D01*
D01*
D01*
X755888D01*
D01*
D01*
D01*
X766820Y775045D01*
X768068Y774212D01*
X767872Y773740D01*
X767709Y772500D01*
Y676985D01*
X754112Y663388D01*
X753351Y662395D01*
X753211Y662057D01*
X752872Y661240D01*
X752709Y660000D01*
Y612791D01*
X752696Y612774D01*
X752142Y611436D01*
X751953Y610000D01*
X752142Y608564D01*
X752696Y607226D01*
X753577Y606077D01*
X754726Y605196D01*
X756064Y604642D01*
X757500Y604453D01*
X758936Y604642D01*
X760274Y605196D01*
X761423Y606077D01*
X762304Y607226D01*
X762858Y608564D01*
X763048Y610000D01*
X762858Y611436D01*
X762304Y612774D01*
X762291Y612791D01*
Y638393D01*
X763698Y638912D01*
X763797Y638797D01*
X765772Y637110D01*
X767986Y635753D01*
X770386Y634759D01*
X772911Y634153D01*
X775500Y633949D01*
X778089Y634153D01*
X780615Y634759D01*
X783014Y635753D01*
X785228Y637110D01*
X787203Y638797D01*
X788890Y640772D01*
X790247Y642986D01*
X791241Y645386D01*
X791847Y647911D01*
X792051Y650500D01*
X791847Y653089D01*
X791241Y655615D01*
X790247Y658014D01*
X788890Y660228D01*
X787203Y662203D01*
X785228Y663890D01*
X783014Y665247D01*
X780615Y666241D01*
X778089Y666847D01*
X775500Y667051D01*
X773130Y666864D01*
X772502Y668227D01*
X775888Y671612D01*
X776649Y672605D01*
X777128Y673760D01*
X777291Y675000D01*
Y770515D01*
X783914Y777139D01*
X783936Y777142D01*
X785274Y777696D01*
X786423Y778577D01*
X787304Y779726D01*
X787858Y781064D01*
X788048Y782500D01*
X787858Y783936D01*
X788211Y784546D01*
X788936Y784642D01*
X790274Y785196D01*
X791423Y786077D01*
X792304Y787226D01*
X792858Y788564D01*
X793048Y790000D01*
X792858Y791436D01*
X792304Y792774D01*
X791423Y793923D01*
X790274Y794804D01*
X788936Y795358D01*
X787500Y795547D01*
X787918Y795965D01*
X795965D01*
Y304034D01*
D02*
G37*
%LPC*%
G36*
X752500Y425548D02*
X751064Y425358D01*
X749726Y424804D01*
X748577Y423923D01*
X747696Y422774D01*
X747142Y421436D01*
X746952Y420000D01*
X747142Y418564D01*
X747696Y417226D01*
X747709Y417209D01*
Y412500D01*
X747709Y412500D01*
X747709D01*
X747872Y411260D01*
X748211Y410443D01*
X748351Y410105D01*
X749112Y409112D01*
Y409112D01*
D01*
D01*
X749112Y409112D01*
Y409112D01*
X749112Y409112D01*
X767139Y391086D01*
X767142Y391064D01*
X767696Y389726D01*
X768577Y388577D01*
X769726Y387696D01*
X771064Y387142D01*
X772500Y386952D01*
X773936Y387142D01*
X775274Y387696D01*
X776423Y388577D01*
X777304Y389726D01*
X777858Y391064D01*
X778048Y392500D01*
X777858Y393936D01*
X777304Y395274D01*
X776423Y396423D01*
X775274Y397304D01*
X773936Y397858D01*
X773914Y397861D01*
X757291Y414485D01*
Y417209D01*
X757304Y417226D01*
X757858Y418564D01*
X758047Y420000D01*
X757858Y421436D01*
X757304Y422774D01*
X756423Y423923D01*
X755274Y424804D01*
X753936Y425358D01*
X752500Y425548D01*
D02*
G37*
G36*
X600000Y340470D02*
X598564Y340281D01*
X597226Y339726D01*
X596077Y338845D01*
X595196Y337696D01*
X594642Y336358D01*
X594639Y336336D01*
X577272Y318970D01*
X520291D01*
X520274Y318983D01*
X518936Y319537D01*
X517500Y319726D01*
X516064Y319537D01*
X514726Y318983D01*
X513577Y318101D01*
X512696Y316952D01*
X512142Y315615D01*
X511952Y314179D01*
X512142Y312743D01*
X512696Y311405D01*
X513577Y310256D01*
X514726Y309374D01*
X516064Y308820D01*
X517500Y308631D01*
X518936Y308820D01*
X520274Y309374D01*
X520291Y309388D01*
X579256D01*
X580497Y309551D01*
X581314Y309889D01*
X581652Y310030D01*
X582644Y310791D01*
Y310791D01*
X582644D01*
D01*
D01*
D01*
D01*
D01*
D01*
X582644D01*
D01*
X582644D01*
Y310791D01*
D01*
D01*
D01*
D01*
Y310791D01*
D01*
D01*
D01*
Y310791D01*
D01*
D01*
X582644D01*
D01*
D01*
D01*
X601414Y329561D01*
X601436Y329564D01*
X602774Y330118D01*
X603923Y331000D01*
X604804Y332149D01*
X605358Y333487D01*
X605548Y334922D01*
X605358Y336358D01*
X604804Y337696D01*
X603923Y338845D01*
X602774Y339726D01*
X601436Y340281D01*
X600000Y340470D01*
D02*
G37*
G36*
X782500Y388048D02*
X781064Y387858D01*
X779726Y387304D01*
X778577Y386423D01*
X777696Y385274D01*
X777142Y383936D01*
X776953Y382500D01*
X777142Y381064D01*
X777696Y379726D01*
X777709Y379709D01*
Y337500D01*
X777872Y336260D01*
X778211Y335443D01*
X778351Y335104D01*
X779112Y334112D01*
X780724Y332500D01*
X777194Y328970D01*
X727166D01*
X725926Y328806D01*
X724770Y328328D01*
X723778Y327567D01*
X716329Y320118D01*
X716308Y320115D01*
X714970Y319561D01*
X713821Y318679D01*
X712939Y317530D01*
X712385Y316192D01*
X712196Y314756D01*
X712385Y313321D01*
X712939Y311983D01*
X713821Y310834D01*
X714970Y309952D01*
X716308Y309398D01*
X717743Y309209D01*
X719179Y309398D01*
X720517Y309952D01*
X721666Y310834D01*
X722548Y311983D01*
X723102Y313321D01*
X723105Y313342D01*
X729150Y319388D01*
X779179D01*
X780419Y319551D01*
X781574Y320030D01*
X782566Y320791D01*
Y320791D01*
X782566D01*
D01*
D01*
D01*
D01*
D01*
D01*
X782566D01*
D01*
X782566D01*
Y320791D01*
D01*
D01*
D01*
D01*
Y320791D01*
D01*
D01*
D01*
Y320791D01*
D01*
D01*
X782566D01*
D01*
D01*
D01*
D01*
X788914Y327139D01*
X788936Y327142D01*
X790274Y327696D01*
X791423Y328577D01*
X792304Y329726D01*
X792858Y331064D01*
X793048Y332500D01*
X792858Y333936D01*
X792304Y335274D01*
X791423Y336423D01*
X790274Y337304D01*
X788936Y337858D01*
X788914Y337861D01*
X787291Y339485D01*
Y379709D01*
X787304Y379726D01*
X787858Y381064D01*
X788048Y382500D01*
X787858Y383936D01*
X787304Y385274D01*
X786423Y386423D01*
X785274Y387304D01*
X783936Y387858D01*
X782500Y388048D01*
D02*
G37*
G36*
X325500Y467051D02*
X322911Y466847D01*
X320385Y466241D01*
X317986Y465247D01*
X315772Y463890D01*
X313797Y462203D01*
X312110Y460228D01*
X310753Y458014D01*
X309759Y455615D01*
X309153Y453089D01*
X308949Y450500D01*
X309153Y447911D01*
X309759Y445386D01*
X310753Y442986D01*
X312110Y440772D01*
X313797Y438797D01*
X315772Y437110D01*
X317986Y435753D01*
X320385Y434759D01*
X322911Y434153D01*
X325500Y433949D01*
X328089Y434153D01*
X330615Y434759D01*
X333014Y435753D01*
X335228Y437110D01*
X337203Y438797D01*
X338890Y440772D01*
X340247Y442986D01*
X341241Y445386D01*
X341847Y447911D01*
X342051Y450500D01*
X341847Y453089D01*
X341241Y455615D01*
X340247Y458014D01*
X338890Y460228D01*
X337203Y462203D01*
X335228Y463890D01*
X333014Y465247D01*
X330615Y466241D01*
X328089Y466847D01*
X325500Y467051D01*
D02*
G37*
G36*
X770000Y600548D02*
X768564Y600358D01*
X767226Y599804D01*
X766077Y598923D01*
X765196Y597774D01*
X764642Y596436D01*
X764453Y595000D01*
X764642Y593564D01*
X765196Y592226D01*
X765209Y592209D01*
Y555000D01*
X765372Y553760D01*
X765711Y552943D01*
X765851Y552604D01*
X766612Y551612D01*
X770209Y548015D01*
Y479485D01*
X756086Y465361D01*
X756064Y465358D01*
X754726Y464804D01*
X753577Y463923D01*
X752696Y462774D01*
X752142Y461436D01*
X751953Y460000D01*
X752142Y458564D01*
X752696Y457226D01*
X753577Y456077D01*
X754726Y455196D01*
X756064Y454642D01*
X757500Y454453D01*
X758232Y454549D01*
X759236Y453434D01*
X759153Y453089D01*
X758949Y450500D01*
X759153Y447911D01*
X759759Y445386D01*
X760753Y442986D01*
X762110Y440772D01*
X763797Y438797D01*
X765772Y437110D01*
X767986Y435753D01*
X770386Y434759D01*
X772911Y434153D01*
X775500Y433949D01*
X778089Y434153D01*
X780615Y434759D01*
X783014Y435753D01*
X785228Y437110D01*
X787203Y438797D01*
X788890Y440772D01*
X790247Y442986D01*
X791241Y445386D01*
X791847Y447911D01*
X792051Y450500D01*
X791847Y453089D01*
X791241Y455615D01*
X790247Y458014D01*
X788890Y460228D01*
X787203Y462203D01*
X785228Y463890D01*
X783014Y465247D01*
X780615Y466241D01*
X778089Y466847D01*
X775500Y467051D01*
X773130Y466864D01*
X772502Y468227D01*
X778388Y474112D01*
Y474112D01*
D01*
D01*
D01*
X778388Y474112D01*
D01*
Y474112D01*
D01*
D01*
D01*
D01*
X778388D01*
Y474112D01*
D01*
D01*
D01*
X778388D01*
D01*
D01*
Y474112D01*
D01*
D01*
D01*
Y474112D01*
D01*
D01*
X778388D01*
D01*
X778388Y474112D01*
D01*
D01*
X779149Y475105D01*
X779347Y475583D01*
X779628Y476260D01*
X779791Y477500D01*
D01*
D01*
D01*
D01*
D01*
X779791D01*
D01*
D01*
D01*
Y477500D01*
X779791D01*
D01*
Y477500D01*
D01*
D01*
D01*
D01*
D01*
D01*
D01*
D01*
D01*
D01*
D01*
D01*
Y477500D01*
D01*
X779791D01*
D01*
D01*
D01*
D01*
X779791Y477500D01*
Y531474D01*
X781177Y532048D01*
X782139Y531086D01*
X782142Y531064D01*
X782696Y529726D01*
X783577Y528577D01*
X784726Y527696D01*
X786064Y527142D01*
X787500Y526953D01*
X788936Y527142D01*
X790274Y527696D01*
X791423Y528577D01*
X792304Y529726D01*
X792858Y531064D01*
X793048Y532500D01*
X792858Y533936D01*
X792304Y535274D01*
X791423Y536423D01*
X790274Y537304D01*
X788936Y537858D01*
X788914Y537861D01*
X787291Y539485D01*
Y579709D01*
X787304Y579726D01*
X787858Y581064D01*
X788048Y582500D01*
X787858Y583936D01*
X787304Y585274D01*
X786423Y586423D01*
X785274Y587304D01*
X783936Y587858D01*
X782500Y588048D01*
X781064Y587858D01*
X779726Y587304D01*
X778577Y586423D01*
X777696Y585274D01*
X777142Y583936D01*
X776953Y582500D01*
X777142Y581064D01*
X777696Y579726D01*
X777709Y579709D01*
Y556026D01*
X776323Y555452D01*
X774791Y556985D01*
Y592209D01*
X774804Y592226D01*
X775358Y593564D01*
X775548Y595000D01*
X775358Y596436D01*
X774804Y597774D01*
X773923Y598923D01*
X772774Y599804D01*
X771436Y600358D01*
X770000Y600548D01*
D02*
G37*
G36*
X325000D02*
X323564Y600358D01*
X322226Y599804D01*
X321077Y598923D01*
X320196Y597774D01*
X319642Y596436D01*
X319453Y595000D01*
X319642Y593564D01*
X320196Y592226D01*
X320209Y592209D01*
Y571984D01*
X313586Y565361D01*
X313564Y565358D01*
X312226Y564804D01*
X311077Y563923D01*
X310196Y562774D01*
X309642Y561436D01*
X309453Y560000D01*
X309642Y558564D01*
X310196Y557226D01*
X310209Y557209D01*
Y516679D01*
X310209Y516679D01*
X310209D01*
X310372Y515439D01*
X310711Y514622D01*
X310851Y514283D01*
X311612Y513291D01*
Y513291D01*
D01*
D01*
X311612Y513291D01*
Y513291D01*
D01*
X311612Y513291D01*
Y513291D01*
X312139Y512765D01*
X312142Y512743D01*
X312696Y511405D01*
X313577Y510256D01*
X314726Y509375D01*
X316064Y508820D01*
X317500Y508631D01*
X318936Y508820D01*
X320274Y509375D01*
X321423Y510256D01*
X322304Y511405D01*
X322858Y512743D01*
X323047Y514179D01*
X322858Y515615D01*
X322304Y516953D01*
X321423Y518101D01*
X320274Y518983D01*
X319791Y519183D01*
Y557209D01*
X319804Y557226D01*
X320358Y558564D01*
X320361Y558586D01*
X328388Y566612D01*
Y566612D01*
D01*
D01*
D01*
X328388Y566612D01*
D01*
Y566612D01*
D01*
D01*
D01*
D01*
X328388D01*
Y566612D01*
D01*
D01*
D01*
X328388D01*
D01*
D01*
Y566612D01*
D01*
D01*
D01*
Y566612D01*
D01*
D01*
X328388D01*
D01*
X328388Y566612D01*
D01*
D01*
X329149Y567604D01*
X329347Y568083D01*
X329628Y568760D01*
X329791Y570000D01*
D01*
D01*
D01*
D01*
D01*
X329791D01*
D01*
D01*
D01*
Y570000D01*
X329791D01*
D01*
Y570000D01*
D01*
D01*
D01*
D01*
D01*
D01*
D01*
D01*
D01*
D01*
D01*
D01*
Y570000D01*
D01*
X329791D01*
D01*
D01*
D01*
D01*
X329791Y570000D01*
Y592209D01*
X329804Y592226D01*
X330358Y593564D01*
X330547Y595000D01*
X330358Y596436D01*
X329804Y597774D01*
X328923Y598923D01*
X327774Y599804D01*
X326436Y600358D01*
X325000Y600548D01*
D02*
G37*
G36*
X650500Y342051D02*
X647911Y341847D01*
X645386Y341241D01*
X642986Y340247D01*
X640772Y338890D01*
X638797Y337203D01*
X637110Y335228D01*
X635753Y333014D01*
X634759Y330615D01*
X634153Y328089D01*
X633949Y325500D01*
X634153Y322911D01*
X634759Y320385D01*
X635753Y317986D01*
X637110Y315772D01*
X638797Y313797D01*
X640772Y312110D01*
X642986Y310753D01*
X645386Y309759D01*
X647911Y309153D01*
X650500Y308949D01*
X653089Y309153D01*
X655615Y309759D01*
X658014Y310753D01*
X660228Y312110D01*
X662203Y313797D01*
X663890Y315772D01*
X665247Y317986D01*
X666241Y320385D01*
X666847Y322911D01*
X667051Y325500D01*
X666847Y328089D01*
X666241Y330615D01*
X665247Y333014D01*
X663890Y335228D01*
X662203Y337203D01*
X660228Y338890D01*
X658014Y340247D01*
X655615Y341241D01*
X653089Y341847D01*
X650500Y342051D01*
D02*
G37*
G36*
X575465Y683350D02*
X526142D01*
Y679777D01*
X476248D01*
X476248Y679777D01*
X475072Y679661D01*
X473941Y679318D01*
X472898Y678761D01*
X471985Y678011D01*
X471985Y678011D01*
X461328Y667354D01*
X459857Y667647D01*
X459804Y667774D01*
X458923Y668923D01*
X457774Y669804D01*
X456436Y670358D01*
X455000Y670547D01*
X453564Y670358D01*
X452226Y669804D01*
X451077Y668923D01*
X450196Y667774D01*
X449642Y666436D01*
X449452Y665000D01*
X449642Y663564D01*
X450196Y662226D01*
X451077Y661077D01*
X452226Y660196D01*
X452353Y660143D01*
X452646Y658672D01*
X423237Y629263D01*
X422487Y628349D01*
X421930Y627307D01*
X421587Y626176D01*
X421471Y625000D01*
Y574965D01*
X417650D01*
Y550248D01*
Y525642D01*
X421223D01*
Y475748D01*
X421223Y475748D01*
X421223Y475748D01*
X421339Y474572D01*
X421682Y473441D01*
X421682Y473441D01*
X421682Y473441D01*
X422239Y472399D01*
X422989Y471485D01*
D01*
X422989Y471485D01*
X422989Y471485D01*
D01*
D01*
X422989Y471485D01*
Y471485D01*
X471737Y422737D01*
X471737Y422737D01*
X472650Y421987D01*
X473693Y421430D01*
X474824Y421087D01*
X476000Y420971D01*
X476000Y420971D01*
X526142D01*
Y416902D01*
X575465D01*
Y420723D01*
X625252D01*
X626428Y420839D01*
X627559Y421182D01*
Y421182D01*
X627559D01*
X627559Y421182D01*
X627559D01*
Y421182D01*
D01*
D01*
D01*
Y421182D01*
D01*
D01*
D01*
D01*
D01*
Y421182D01*
D01*
D01*
X627559D01*
D01*
X628602Y421739D01*
X629515Y422489D01*
Y422489D01*
X629515D01*
D01*
D01*
D01*
D01*
D01*
D01*
X629515D01*
D01*
X629515D01*
Y422489D01*
D01*
D01*
D01*
D01*
Y422489D01*
D01*
D01*
D01*
Y422489D01*
D01*
D01*
X629515D01*
D01*
D01*
D01*
D01*
D01*
X678263Y471237D01*
X678263Y471237D01*
X679013Y472151D01*
X679570Y473193D01*
X679913Y474324D01*
X680029Y475500D01*
X680029Y475500D01*
Y525642D01*
X683850D01*
Y550248D01*
Y574965D01*
X680277D01*
Y624752D01*
X680277Y624752D01*
X680161Y625928D01*
X679818Y627059D01*
X679261Y628101D01*
X678511Y629015D01*
X678511Y629015D01*
X629763Y677763D01*
X628850Y678513D01*
X627807Y679070D01*
X626676Y679413D01*
X625500Y679529D01*
X575465D01*
Y683350D01*
D02*
G37*
G36*
X650500Y792051D02*
X647911Y791847D01*
X645386Y791241D01*
X642986Y790247D01*
X640772Y788890D01*
X638797Y787203D01*
X637110Y785228D01*
X635753Y783014D01*
X634759Y780615D01*
X634153Y778089D01*
X633949Y775500D01*
X634153Y772911D01*
X634759Y770386D01*
X635753Y767986D01*
X637110Y765772D01*
X638797Y763797D01*
X640772Y762110D01*
X642986Y760753D01*
X645386Y759759D01*
X647911Y759153D01*
X650500Y758949D01*
X653089Y759153D01*
X655615Y759759D01*
X658014Y760753D01*
X660228Y762110D01*
X662203Y763797D01*
X663890Y765772D01*
X665247Y767986D01*
X666241Y770386D01*
X666847Y772911D01*
X667051Y775500D01*
X666847Y778089D01*
X666241Y780615D01*
X665247Y783014D01*
X663890Y785228D01*
X662203Y787203D01*
X660228Y788890D01*
X658014Y790247D01*
X655615Y791241D01*
X653089Y791847D01*
X650500Y792051D01*
D02*
G37*
G36*
X347500Y790548D02*
X346064Y790358D01*
X344726Y789804D01*
X344709Y789791D01*
X332500D01*
X331260Y789628D01*
X330583Y789347D01*
X330104Y789149D01*
X329112Y788388D01*
X311612Y770888D01*
X310851Y769896D01*
X310372Y768740D01*
X310209Y767500D01*
Y762791D01*
X310196Y762774D01*
X309642Y761436D01*
X309453Y760000D01*
X309642Y758564D01*
X310196Y757226D01*
X310209Y757209D01*
Y716679D01*
X310209Y716679D01*
X310209Y716679D01*
X310372Y715439D01*
X310711Y714622D01*
X310851Y714283D01*
X311612Y713291D01*
Y713291D01*
D01*
D01*
X311612Y713291D01*
Y713291D01*
X311612Y713291D01*
D01*
X312139Y712765D01*
X312142Y712743D01*
X312696Y711405D01*
X313577Y710256D01*
X314726Y709375D01*
X316064Y708820D01*
X317500Y708631D01*
X318936Y708820D01*
X320274Y709375D01*
X321423Y710256D01*
X322304Y711405D01*
X322858Y712743D01*
X323047Y714179D01*
X322858Y715615D01*
X322304Y716953D01*
X321423Y718101D01*
X320274Y718983D01*
X319791Y719183D01*
Y757209D01*
X319804Y757226D01*
X320358Y758564D01*
X320548Y760000D01*
X320358Y761436D01*
X319804Y762774D01*
X319791Y762791D01*
Y765516D01*
X334485Y780209D01*
X344709D01*
X344726Y780196D01*
X346064Y779642D01*
X347500Y779453D01*
X348936Y779642D01*
X350274Y780196D01*
X351423Y781077D01*
X352304Y782226D01*
X352858Y783564D01*
X353047Y785000D01*
X352858Y786436D01*
X352304Y787774D01*
X351423Y788923D01*
X350274Y789804D01*
X348936Y790358D01*
X347500Y790548D01*
D02*
G37*
G36*
X450500Y342051D02*
X447911Y341847D01*
X445386Y341241D01*
X442986Y340247D01*
X440772Y338890D01*
X438797Y337203D01*
X437110Y335228D01*
X435753Y333014D01*
X434759Y330615D01*
X434153Y328089D01*
X433949Y325500D01*
X434153Y322911D01*
X434759Y320385D01*
X435753Y317986D01*
X437110Y315772D01*
X438797Y313797D01*
X440772Y312110D01*
X442986Y310753D01*
X445386Y309759D01*
X447911Y309153D01*
X450500Y308949D01*
X453089Y309153D01*
X455615Y309759D01*
X458014Y310753D01*
X460228Y312110D01*
X462203Y313797D01*
X463890Y315772D01*
X465247Y317986D01*
X466241Y320385D01*
X466847Y322911D01*
X467051Y325500D01*
X466847Y328089D01*
X466241Y330615D01*
X465247Y333014D01*
X463890Y335228D01*
X462203Y337203D01*
X460228Y338890D01*
X458014Y340247D01*
X455615Y341241D01*
X453089Y341847D01*
X450500Y342051D01*
D02*
G37*
G36*
X325500Y667051D02*
X322911Y666847D01*
X320385Y666241D01*
X317986Y665247D01*
X315772Y663890D01*
X313797Y662203D01*
X312110Y660228D01*
X310753Y658014D01*
X309759Y655615D01*
X309153Y653089D01*
X308949Y650500D01*
X309153Y647911D01*
X309759Y645386D01*
X310753Y642986D01*
X312110Y640772D01*
X313797Y638797D01*
X315772Y637110D01*
X317986Y635753D01*
X320385Y634759D01*
X322911Y634153D01*
X325500Y633949D01*
X328089Y634153D01*
X330615Y634759D01*
X333014Y635753D01*
X335228Y637110D01*
X337203Y638797D01*
X338890Y640772D01*
X340247Y642986D01*
X341241Y645386D01*
X341847Y647911D01*
X342051Y650500D01*
X341847Y653089D01*
X341241Y655615D01*
X340247Y658014D01*
X338890Y660228D01*
X337203Y662203D01*
X335228Y663890D01*
X333014Y665247D01*
X330615Y666241D01*
X328089Y666847D01*
X325500Y667051D01*
D02*
G37*
G36*
X325000Y400548D02*
X323564Y400358D01*
X322226Y399804D01*
X321077Y398923D01*
X320196Y397774D01*
X319642Y396436D01*
X319453Y395000D01*
X319642Y393564D01*
X320196Y392226D01*
X320209Y392209D01*
Y371985D01*
X313586Y365361D01*
X313564Y365358D01*
X312226Y364804D01*
X311077Y363923D01*
X310196Y362774D01*
X309642Y361436D01*
X309453Y360000D01*
X309642Y358564D01*
X310196Y357226D01*
X310209Y357209D01*
Y316679D01*
X310209Y316679D01*
X310209D01*
X310372Y315439D01*
X310711Y314622D01*
X310851Y314283D01*
X311612Y313291D01*
X311612Y313291D01*
X311612Y313291D01*
X312139Y312765D01*
X312142Y312743D01*
X312696Y311405D01*
X313577Y310256D01*
X314726Y309374D01*
X316064Y308820D01*
X317500Y308631D01*
X318936Y308820D01*
X320274Y309374D01*
X321423Y310256D01*
X322304Y311405D01*
X322858Y312743D01*
X323047Y314179D01*
X322858Y315615D01*
X322304Y316952D01*
X321423Y318101D01*
X320274Y318983D01*
X319791Y319183D01*
Y357209D01*
X319804Y357226D01*
X320358Y358564D01*
X320361Y358586D01*
X328388Y366612D01*
X329149Y367604D01*
X329347Y368083D01*
X329628Y368760D01*
X329791Y370000D01*
Y392209D01*
X329804Y392226D01*
X330358Y393564D01*
X330547Y395000D01*
X330358Y396436D01*
X329804Y397774D01*
X328923Y398923D01*
X327774Y399804D01*
X326436Y400358D01*
X325000Y400548D01*
D02*
G37*
%LPD*%
G36*
X436971Y480000D02*
X436971Y480000D01*
X436971D01*
X437087Y478824D01*
X437430Y477693D01*
X437430Y477693D01*
X437430Y477693D01*
X437987Y476650D01*
X438737Y475737D01*
X438737Y475737D01*
X438737Y475737D01*
X476237Y438237D01*
Y438237D01*
X476237Y438237D01*
X476237Y438237D01*
Y438237D01*
X477150Y437487D01*
X478193Y436930D01*
Y436930D01*
X478193Y436930D01*
D01*
D01*
D01*
X478193D01*
Y436930D01*
D01*
X478193Y436930D01*
X478193Y436930D01*
X479324Y436587D01*
X480500Y436471D01*
X526142D01*
Y433029D01*
X478497D01*
X433281Y478245D01*
Y525642D01*
X436971D01*
Y480000D01*
D02*
G37*
G36*
X652471Y618003D02*
Y574965D01*
X648898D01*
Y550248D01*
Y525642D01*
X652471D01*
Y482497D01*
X618503Y448529D01*
X575465D01*
Y451854D01*
X526142D01*
Y448529D01*
X482997D01*
X449029Y482497D01*
Y525642D01*
X452602D01*
Y550248D01*
Y574965D01*
X449029D01*
Y618003D01*
X482997Y651971D01*
X526142D01*
Y648398D01*
X575465D01*
Y651971D01*
X618503D01*
X652471Y618003D01*
D02*
G37*
G36*
X668219Y622255D02*
Y574965D01*
X664529D01*
Y620500D01*
D01*
D01*
D01*
D01*
X664529D01*
D01*
D01*
D01*
D01*
D01*
X664529D01*
Y620500D01*
D01*
D01*
Y620500D01*
D01*
D01*
D01*
D01*
D01*
D01*
D01*
D01*
D01*
D01*
D01*
D01*
Y620500D01*
D01*
X664529D01*
D01*
D01*
D01*
D01*
D01*
D01*
D01*
X664529Y620500D01*
D01*
D01*
D01*
X664413Y621676D01*
X664070Y622807D01*
X664070Y622807D01*
D01*
D01*
D01*
D01*
X664070Y622807D01*
D01*
D01*
Y622807D01*
D01*
X664070D01*
D01*
D01*
X664070D01*
D01*
D01*
X663513Y623849D01*
X662763Y624763D01*
X662763Y624763D01*
D01*
D01*
D01*
D01*
X662763Y624763D01*
D01*
D01*
X662763D01*
X625263Y662263D01*
D01*
X625263Y662263D01*
D01*
D01*
D01*
X625263Y662263D01*
X625263Y662263D01*
X624349Y663013D01*
X623307Y663570D01*
Y663570D01*
X623307D01*
D01*
D01*
D01*
D01*
X623307D01*
Y663570D01*
D01*
D01*
X623307Y663570D01*
X623307Y663570D01*
X623307Y663570D01*
D01*
X622176Y663913D01*
X621000Y664029D01*
X575465D01*
Y664146D01*
Y667471D01*
X623003D01*
X668219Y622255D01*
D02*
G37*
G36*
X667971Y477997D02*
X622755Y432781D01*
X575465D01*
Y436471D01*
X621000D01*
X622176Y436587D01*
X623307Y436930D01*
Y436930D01*
X623307D01*
X623307Y436930D01*
X623307D01*
Y436930D01*
D01*
D01*
D01*
Y436930D01*
D01*
D01*
D01*
D01*
D01*
D01*
D01*
D01*
Y436930D01*
D01*
D01*
D01*
D01*
X624349Y437487D01*
X625263Y438237D01*
Y438237D01*
X625263D01*
D01*
D01*
D01*
D01*
D01*
D01*
X625263D01*
D01*
X625263D01*
Y438237D01*
D01*
D01*
D01*
D01*
Y438237D01*
D01*
D01*
D01*
D01*
D01*
D01*
Y438237D01*
D01*
D01*
X625263D01*
D01*
D01*
D01*
X662763Y475737D01*
Y475737D01*
D01*
D01*
D01*
X662763Y475737D01*
Y475737D01*
X662763Y475737D01*
Y475737D01*
Y475737D01*
X662763D01*
D01*
D01*
Y475737D01*
D01*
D01*
D01*
D01*
D01*
D01*
Y475737D01*
D01*
D01*
X662763D01*
D01*
X662763Y475737D01*
D01*
D01*
X663513Y476650D01*
X664070Y477693D01*
Y477693D01*
X664070D01*
D01*
D01*
D01*
D01*
X664070D01*
D01*
D01*
D01*
D01*
Y477693D01*
X664070D01*
D01*
Y477693D01*
D01*
D01*
D01*
D01*
D01*
D01*
D01*
D01*
D01*
D01*
D01*
D01*
Y477693D01*
D01*
X664070D01*
D01*
D01*
D01*
D01*
X664070Y477693D01*
X664413Y478824D01*
X664529Y480000D01*
D01*
D01*
D01*
D01*
D01*
X664529D01*
D01*
D01*
D01*
D01*
Y480000D01*
X664529D01*
D01*
Y480000D01*
D01*
D01*
D01*
D01*
D01*
D01*
D01*
D01*
D01*
D01*
D01*
D01*
Y480000D01*
D01*
X664529D01*
D01*
D01*
D01*
D01*
X664529Y480000D01*
Y525642D01*
X667971D01*
Y477997D01*
D02*
G37*
G36*
X526142Y664146D02*
Y664029D01*
X480500D01*
X479324Y663913D01*
X478193Y663570D01*
X477150Y663013D01*
X476237Y662263D01*
X438737Y624763D01*
X437987Y623849D01*
X437430Y622807D01*
X437087Y621676D01*
X436971Y620500D01*
Y574965D01*
X433529D01*
Y622503D01*
X478745Y667719D01*
X526142D01*
Y664146D01*
D02*
G37*
%LPC*%
G36*
X575465Y636106D02*
X526142D01*
Y632533D01*
X496504D01*
X495328Y632417D01*
X494197Y632074D01*
X493154Y631517D01*
X492241Y630767D01*
X470233Y608759D01*
X469483Y607846D01*
X468926Y606803D01*
X468583Y605672D01*
X468467Y604496D01*
Y574965D01*
X464894D01*
Y550248D01*
Y525642D01*
X468467D01*
Y496004D01*
X468467Y496004D01*
X468467D01*
X468583Y494828D01*
X468926Y493697D01*
X468926Y493697D01*
X468926Y493697D01*
D01*
X469483Y492654D01*
X470233Y491741D01*
Y491741D01*
D01*
D01*
X470233Y491741D01*
Y491741D01*
X470233Y491741D01*
X492241Y469733D01*
Y469733D01*
D01*
D01*
X492241Y469733D01*
Y469733D01*
D01*
Y469733D01*
X492241Y469733D01*
X493154Y468983D01*
X494197Y468426D01*
D01*
X494197D01*
X494197Y468426D01*
D01*
D01*
D01*
X494197D01*
D01*
D01*
X494197D01*
D01*
D01*
Y468426D01*
X495328Y468083D01*
X496504Y467967D01*
X526142D01*
Y464146D01*
X575465D01*
Y467967D01*
X604996D01*
X606172Y468083D01*
X607303Y468426D01*
Y468426D01*
X607303D01*
X607303Y468426D01*
X607303D01*
Y468426D01*
D01*
D01*
D01*
Y468426D01*
D01*
D01*
D01*
D01*
D01*
Y468426D01*
D01*
D01*
X607303D01*
D01*
X608346Y468983D01*
X609259Y469733D01*
Y469733D01*
X609259D01*
D01*
D01*
D01*
D01*
D01*
D01*
X609259D01*
D01*
X609259D01*
Y469733D01*
D01*
D01*
D01*
D01*
Y469733D01*
D01*
D01*
D01*
Y469733D01*
D01*
D01*
X609259D01*
D01*
D01*
D01*
X631267Y491741D01*
Y491741D01*
D01*
D01*
D01*
X631267Y491741D01*
D01*
Y491741D01*
D01*
D01*
D01*
D01*
X631267D01*
Y491741D01*
D01*
D01*
D01*
X631267D01*
D01*
D01*
Y491741D01*
D01*
D01*
D01*
Y491741D01*
D01*
D01*
X631267D01*
D01*
X631267Y491741D01*
D01*
D01*
X632017Y492654D01*
X632574Y493697D01*
Y493697D01*
X632574D01*
D01*
D01*
D01*
D01*
X632574D01*
D01*
D01*
D01*
Y493697D01*
X632574D01*
D01*
Y493697D01*
D01*
D01*
D01*
D01*
D01*
D01*
D01*
D01*
D01*
D01*
D01*
D01*
Y493697D01*
D01*
X632574D01*
D01*
D01*
D01*
D01*
X632574Y493697D01*
X632917Y494828D01*
X633033Y496004D01*
D01*
D01*
D01*
D01*
D01*
X633033D01*
D01*
D01*
D01*
Y496004D01*
X633033D01*
D01*
Y496004D01*
D01*
D01*
D01*
D01*
D01*
D01*
D01*
D01*
D01*
D01*
D01*
D01*
Y496004D01*
D01*
X633033D01*
D01*
D01*
D01*
D01*
X633033Y496004D01*
Y525642D01*
X636606D01*
Y550248D01*
Y574965D01*
X633033D01*
Y604496D01*
X633033Y604496D01*
Y604496D01*
X633033D01*
X633033Y604496D01*
D01*
D01*
D01*
D01*
X633033Y604496D01*
D01*
X632917Y605672D01*
X632574Y606803D01*
X632574D01*
Y606803D01*
X632574D01*
X632574Y606803D01*
D01*
D01*
D01*
D01*
D01*
D01*
D01*
D01*
X632574Y606803D01*
D01*
X632574D01*
Y606803D01*
D01*
X632017Y607846D01*
X631267Y608759D01*
Y608759D01*
D01*
D01*
D01*
X631267D01*
X631267D01*
Y608759D01*
D01*
D01*
D01*
D01*
X631267D01*
D01*
D01*
D01*
X631267D01*
X609259Y630767D01*
X608346Y631517D01*
X607303Y632074D01*
X606172Y632417D01*
X604996Y632533D01*
X575465D01*
Y636106D01*
D02*
G37*
%LPD*%
G36*
X620975Y601999D02*
Y574965D01*
X617402D01*
Y550248D01*
Y525642D01*
X620975D01*
Y498501D01*
X602499Y480025D01*
X589741D01*
X588936Y480358D01*
X587500Y480548D01*
X586064Y480358D01*
X585259Y480025D01*
X575465D01*
Y483350D01*
X526142D01*
Y480025D01*
X499001D01*
X480525Y498501D01*
Y525642D01*
X484098D01*
Y550248D01*
Y574965D01*
X480525D01*
Y601999D01*
X499001Y620475D01*
X526142D01*
Y616902D01*
X575465D01*
Y620475D01*
X602499D01*
X620975Y601999D01*
D02*
G37*
%LPC*%
G36*
X567500Y597547D02*
X566064Y597358D01*
X564726Y596804D01*
X563577Y595923D01*
X562696Y594774D01*
X562142Y593436D01*
X562139Y593414D01*
X556015Y587291D01*
X500291D01*
X500274Y587304D01*
X498936Y587858D01*
X497500Y588048D01*
X496064Y587858D01*
X494726Y587304D01*
X493577Y586423D01*
X492696Y585274D01*
X492142Y583936D01*
X491953Y582500D01*
X492142Y581064D01*
X492696Y579726D01*
X493577Y578577D01*
X494726Y577696D01*
X496064Y577142D01*
X497500Y576953D01*
X498936Y577142D01*
X500274Y577696D01*
X500291Y577709D01*
X558000D01*
X559240Y577872D01*
X560057Y578211D01*
X560395Y578351D01*
X561388Y579112D01*
Y579112D01*
X561388D01*
D01*
D01*
D01*
D01*
D01*
D01*
X561388D01*
D01*
X561388D01*
Y579112D01*
D01*
D01*
D01*
D01*
Y579112D01*
D01*
D01*
D01*
Y579112D01*
D01*
D01*
X561388D01*
D01*
D01*
D01*
X568914Y586639D01*
X568936Y586642D01*
X570274Y587196D01*
X571423Y588077D01*
X572304Y589226D01*
X572858Y590564D01*
X573047Y592000D01*
X572858Y593436D01*
X572304Y594774D01*
X571423Y595923D01*
X570274Y596804D01*
X568936Y597358D01*
X567500Y597547D01*
D02*
G37*
%LPD*%
D15*
X757500Y460000D02*
X775000Y477500D01*
X772500Y675000D02*
Y772500D01*
X757500Y610000D02*
Y660000D01*
X772500Y675000D01*
Y772500D02*
X782500Y782500D01*
X752500Y767500D02*
X775000Y790000D01*
X726000Y767500D02*
X752500D01*
X693500Y735000D02*
X726000Y767500D01*
X775000Y790000D02*
X787500D01*
X558000Y582500D02*
X567500Y592000D01*
X497500Y582500D02*
X558000D01*
X757500Y782500D02*
X767500Y792500D01*
X697500Y782500D02*
X757500D01*
X455000Y664893D02*
X461197Y658697D01*
X415000Y782500D02*
X442500Y755000D01*
X457500D02*
X485000Y782500D01*
X442500Y755000D02*
X457500D01*
X557500Y782500D02*
X567500Y792500D01*
X485000Y782500D02*
X557500D01*
X455000Y664893D02*
Y665000D01*
X752500Y412500D02*
Y420000D01*
Y412500D02*
X772500Y392500D01*
X782500Y337500D02*
Y382500D01*
Y337500D02*
X787500Y332500D01*
X779179Y324179D02*
X787500Y332500D01*
X717743Y314756D02*
X727166Y324179D01*
X779179D01*
X517500Y314179D02*
X579256D01*
X600000Y334922D01*
X325000Y370000D02*
Y395000D01*
X315000Y360000D02*
X325000Y370000D01*
X315000Y316679D02*
Y360000D01*
Y316679D02*
X317500Y314179D01*
X315000Y516679D02*
X317500Y514179D01*
X315000Y516679D02*
Y560000D01*
X325000Y570000D01*
Y595000D01*
X770000Y555000D02*
Y595000D01*
Y555000D02*
X775000Y550000D01*
Y477500D02*
Y550000D01*
X782500Y537500D02*
X787500Y532500D01*
X782500Y537500D02*
Y582500D01*
X315000Y716679D02*
X317500Y714179D01*
X332500Y785000D02*
X347500D01*
X315000Y716679D02*
Y767500D01*
X332500Y785000D01*
D16*
X451000Y735000D02*
X693500D01*
X451000Y735500D02*
X650500D01*
X450500Y366000D02*
X650000D01*
X735000Y450500D02*
Y650500D01*
X407500Y735000D02*
X450500D01*
X366000Y451000D02*
Y693500D01*
X407500Y735000D01*
X366500Y407500D02*
X408000Y366000D01*
X650500D01*
X366500Y407500D02*
Y450500D01*
X693500Y366000D02*
X735000Y407500D01*
Y650000D01*
X650500Y366000D02*
X693500D01*
Y735000D02*
X735000Y693500D01*
Y650500D02*
Y693500D01*
X477500Y342500D02*
X540468D01*
X758500Y477500D02*
Y547535D01*
X752002Y554034D02*
X758500Y547535D01*
Y677500D02*
Y747535D01*
X752002Y754034D02*
X758500Y747535D01*
X556968Y759000D02*
X623500D01*
X552002Y754034D02*
X556968Y759000D01*
X356468Y758500D02*
X423500D01*
X352002Y754034D02*
X356468Y758500D01*
X500000Y497500D02*
Y501532D01*
X552002Y553534D01*
X740468Y342500D02*
X752002Y354034D01*
X692500Y342500D02*
X740468D01*
X342500Y363535D02*
Y405000D01*
Y363535D02*
X352002Y354034D01*
D17*
X658500Y562500D02*
Y620500D01*
X538500Y658000D02*
X621000D01*
X427500Y625000D02*
X476248Y673748D01*
X451000Y715500D02*
X650500D01*
X450500Y715000D02*
X451000Y715500D01*
X386000Y451000D02*
X386500Y450500D01*
X450500Y386000D02*
X650000D01*
X650500Y385500D01*
X715000Y450500D02*
Y650500D01*
X450500Y735000D02*
X451000Y735500D01*
X366000Y451000D02*
X366500Y450500D01*
X650000Y366000D02*
X650500Y365500D01*
X476248Y673748D02*
X538500D01*
X427500Y562854D02*
Y625000D01*
X427252Y562606D02*
X427500Y562854D01*
X427252Y538000D02*
Y562606D01*
X480500Y658000D02*
X538500D01*
X489752Y642252D02*
X538500D01*
X458748Y538000D02*
Y611248D01*
X489752Y642252D01*
X443000Y620500D02*
X480500Y658000D01*
X443000Y538000D02*
Y620500D01*
X496504Y626504D02*
X538500D01*
X474496Y604496D02*
X496504Y626504D01*
X474496Y538000D02*
Y604496D01*
X496504Y473996D02*
X563000D01*
X474496Y496004D02*
X496504Y473996D01*
X474496Y496004D02*
Y538000D01*
X480500Y442500D02*
X563000D01*
X443000Y480000D02*
X480500Y442500D01*
X458748Y489252D02*
X489752Y458248D01*
X458748Y489252D02*
Y538000D01*
X443000Y480000D02*
Y538000D01*
X538394Y426752D02*
X563000D01*
X476000Y427000D02*
X538146D01*
X427252Y475748D02*
X476000Y427000D01*
X427252Y475748D02*
Y538000D01*
X627004Y496004D02*
Y562500D01*
X604996Y473996D02*
X627004Y496004D01*
X563000Y473996D02*
X604996D01*
X658500Y480000D02*
Y562500D01*
X621000Y442500D02*
X658500Y480000D01*
X611748Y458248D02*
X642752Y489252D01*
Y562500D01*
X563000Y458248D02*
X611748D01*
X563000Y442500D02*
X621000D01*
X674248Y537894D02*
Y562500D01*
X674000Y475500D02*
Y537646D01*
X625252Y426752D02*
X674000Y475500D01*
X563000Y426752D02*
X625252D01*
X538500Y626504D02*
X604996D01*
X627004Y604496D01*
Y562500D02*
Y604496D01*
X621000Y658000D02*
X658500Y620500D01*
X611748Y642252D02*
X642752Y611248D01*
X538500Y642252D02*
X611748D01*
X642752Y562500D02*
Y611248D01*
X538500Y673748D02*
X563106D01*
X563354Y673500D02*
X625500D01*
X674248Y624752D01*
Y562500D02*
Y624752D01*
X412500Y715000D02*
X450500D01*
X386000Y451000D02*
Y688500D01*
X412500Y715000D01*
X386500Y412500D02*
X413000Y386000D01*
X650500D01*
X386500Y412500D02*
Y450500D01*
X688500Y386000D02*
X715000Y412500D01*
Y650000D01*
X650500Y386000D02*
X688500D01*
Y715000D02*
X715000Y688500D01*
X451000Y715000D02*
X688500D01*
X715000Y650500D02*
Y688500D01*
X342500Y563535D02*
Y623500D01*
Y563535D02*
X352002Y554034D01*
X540468Y342500D02*
X552002Y354034D01*
X489752Y458248D02*
X563000D01*
D18*
X735000Y650500D02*
D03*
X650500Y735500D02*
D03*
X450500Y735000D02*
D03*
X366000Y650500D02*
D03*
X366500Y450500D02*
D03*
X450500Y366000D02*
D03*
X650500Y365500D02*
D03*
X735000Y450500D02*
D03*
D19*
X715000Y650500D02*
D03*
X386000D02*
D03*
X386500Y450500D02*
D03*
X715000D02*
D03*
D20*
X650500Y715500D02*
D03*
X450500Y715000D02*
D03*
Y386000D02*
D03*
X650500Y385500D02*
D03*
D21*
X450500Y775500D02*
D03*
X650500D02*
D03*
X775500Y650500D02*
D03*
Y450500D02*
D03*
X325500Y650500D02*
D03*
Y450500D02*
D03*
X450500Y325500D02*
D03*
X650500D02*
D03*
D22*
X757500Y460000D02*
D03*
X443000Y550000D02*
D03*
X550000Y442500D02*
D03*
X658500Y550000D02*
D03*
X550000Y658000D02*
D03*
X757500Y610000D02*
D03*
X787500Y790000D02*
D03*
X772500Y392500D02*
D03*
X770000Y595000D02*
D03*
X782500Y782500D02*
D03*
X497500Y582500D02*
D03*
X697500Y782500D02*
D03*
X352002Y754034D02*
D03*
X552002D02*
D03*
X752002D02*
D03*
Y554034D02*
D03*
X552002Y553534D02*
D03*
X352002Y554034D02*
D03*
Y354034D02*
D03*
X552002D02*
D03*
X752002D02*
D03*
X477500Y342500D02*
D03*
X692500D02*
D03*
X758500Y477500D02*
D03*
Y677500D02*
D03*
X623500Y759000D02*
D03*
X423500Y758500D02*
D03*
X342500Y623500D02*
D03*
Y405000D02*
D03*
X458748Y489252D02*
D03*
X500000Y497500D02*
D03*
X603500Y499500D02*
D03*
X611748Y458248D02*
D03*
X601500Y603000D02*
D03*
X642752Y611248D02*
D03*
X498000Y601000D02*
D03*
X489752Y642252D02*
D03*
X567500Y792500D02*
D03*
X767500D02*
D03*
X567500Y592000D02*
D03*
X415000Y782500D02*
D03*
X455000Y665000D02*
D03*
X752500Y420000D02*
D03*
X587500Y475000D02*
D03*
X782500Y382500D02*
D03*
X787500Y332500D02*
D03*
X717743Y314756D02*
D03*
X517500Y314179D02*
D03*
X600000Y334922D02*
D03*
X315000Y360000D02*
D03*
X317500Y314179D02*
D03*
X325000Y395000D02*
D03*
Y595000D02*
D03*
X317500Y514179D02*
D03*
X315000Y560000D02*
D03*
X787500Y532500D02*
D03*
X782500Y582500D02*
D03*
X315000Y760000D02*
D03*
X317500Y714179D02*
D03*
X347500Y785000D02*
D03*
D23*
X538500Y626504D02*
D03*
Y642252D02*
D03*
Y658000D02*
D03*
X563106Y626504D02*
D03*
Y642252D02*
D03*
Y658000D02*
D03*
X538500Y673748D02*
D03*
X563106D02*
D03*
X538500Y426504D02*
D03*
X563106D02*
D03*
X538500Y442252D02*
D03*
Y458000D02*
D03*
Y473748D02*
D03*
X563106Y442252D02*
D03*
Y458000D02*
D03*
Y473748D02*
D03*
D24*
X627004Y562606D02*
D03*
X642752D02*
D03*
X658500D02*
D03*
X627004Y538000D02*
D03*
X642752D02*
D03*
X658500D02*
D03*
X674248Y562606D02*
D03*
Y538000D02*
D03*
X427252Y562606D02*
D03*
Y538000D02*
D03*
X443000Y562606D02*
D03*
X458748D02*
D03*
X474496D02*
D03*
X443000Y538000D02*
D03*
X458748D02*
D03*
X474496D02*
D03*
D25*
X703611Y397889D02*
D03*
X711389Y390111D02*
D03*
X397389Y703611D02*
D03*
X389611Y711389D02*
D03*
D26*
X551000Y382500D02*
D03*
Y371500D02*
D03*
X550500Y719000D02*
D03*
Y730000D02*
D03*
D27*
X397389Y398389D02*
D03*
X389611Y390611D02*
D03*
X703111Y703611D02*
D03*
X710889Y711389D02*
D03*
D28*
X718500Y543000D02*
D03*
X729500D02*
D03*
X382500Y550500D02*
D03*
X371500D02*
D03*
M02*
