%FSLAX25Y25*%
%MOIN*%
G70*
G01*
G75*
G04 Layer_Color=33789*
%ADD10P,0.08352X4X333.0*%
%ADD11P,0.08352X4X261.0*%
%ADD12P,0.08352X4X189.0*%
%ADD13P,0.08352X4X117.0*%
%ADD14R,0.05906X0.05906*%
%ADD15C,0.02500*%
%ADD16C,0.10000*%
%ADD17C,0.05000*%
%ADD18C,0.12500*%
%ADD19R,0.12500X0.12500*%
%ADD20R,0.12500X0.12500*%
%ADD21C,0.16500*%
%ADD22C,0.04000*%
%ADD23R,0.17716X0.12205*%
%ADD24R,0.12205X0.17716*%
G04:AMPARAMS|DCode=25|XSize=80mil|YSize=50mil|CornerRadius=0mil|HoleSize=0mil|Usage=FLASHONLY|Rotation=45.000|XOffset=0mil|YOffset=0mil|HoleType=Round|Shape=Rectangle|*
%AMROTATEDRECTD25*
4,1,4,-0.01061,-0.04596,-0.04596,-0.01061,0.01061,0.04596,0.04596,0.01061,-0.01061,-0.04596,0.0*
%
%ADD25ROTATEDRECTD25*%

%ADD26R,0.08000X0.05000*%
G04:AMPARAMS|DCode=27|XSize=80mil|YSize=50mil|CornerRadius=0mil|HoleSize=0mil|Usage=FLASHONLY|Rotation=315.000|XOffset=0mil|YOffset=0mil|HoleType=Round|Shape=Rectangle|*
%AMROTATEDRECTD27*
4,1,4,-0.04596,0.01061,-0.01061,0.04596,0.04596,-0.01061,0.01061,-0.04596,-0.04596,0.01061,0.0*
%
%ADD27ROTATEDRECTD27*%

%ADD28R,0.05000X0.08000*%
%ADD29C,0.01000*%
%ADD30C,0.01200*%
%ADD31C,0.01500*%
D29*
X394250Y350500D02*
G03*
X394250Y350500I-43750J0D01*
G01*
Y550500D02*
G03*
X394250Y550500I-43750J0D01*
G01*
Y750500D02*
G03*
X394250Y750500I-43750J0D01*
G01*
X594250Y350500D02*
G03*
X594250Y350500I-43750J0D01*
G01*
Y550500D02*
G03*
X594250Y550500I-43750J0D01*
G01*
Y750500D02*
G03*
X594250Y750500I-43750J0D01*
G01*
X794250Y350500D02*
G03*
X794250Y350500I-43750J0D01*
G01*
Y550500D02*
G03*
X794250Y550500I-43750J0D01*
G01*
Y750500D02*
G03*
X794250Y750500I-43750J0D01*
G01*
X705000Y633000D02*
Y650500D01*
X745000Y633000D02*
Y650500D01*
X705000Y668000D02*
X745000D01*
Y650500D02*
Y668000D01*
X705000Y633000D02*
X745000D01*
X705000Y650500D02*
Y668000D01*
X650500Y705500D02*
X668000D01*
X650500Y745500D02*
X668000D01*
X633000Y705500D02*
Y745500D01*
X650500D01*
X668000Y705500D02*
Y745500D01*
X633000Y705500D02*
X650500D01*
X450500Y705000D02*
X468000D01*
X450500Y745000D02*
X468000D01*
X433000Y705000D02*
Y745000D01*
X450500D01*
X468000Y705000D02*
Y745000D01*
X433000Y705000D02*
X450500D01*
X396000Y650500D02*
Y668000D01*
X356000Y650500D02*
Y668000D01*
Y633000D02*
X396000D01*
X356000D02*
Y650500D01*
Y668000D02*
X396000D01*
Y633000D02*
Y650500D01*
X566059Y616661D02*
Y618630D01*
X535547Y616661D02*
X566059D01*
X535547D02*
Y618630D01*
X566059Y681622D02*
Y683591D01*
X535547D02*
X566059D01*
X535547Y681622D02*
Y683591D01*
X617161Y535047D02*
X619130D01*
X617161D02*
Y565559D01*
X619130D01*
X682122Y535047D02*
X684091D01*
Y565559D01*
X682122D02*
X684091D01*
X566059Y416661D02*
Y418630D01*
X535547Y416661D02*
X566059D01*
X535547D02*
Y418630D01*
X566059Y481622D02*
Y483591D01*
X535547D02*
X566059D01*
X535547Y481622D02*
Y483591D01*
X417410Y535047D02*
X419378D01*
X417410D02*
Y565559D01*
X419378D01*
X482370Y535047D02*
X484339D01*
Y565559D01*
X482370D02*
X484339D01*
X396500Y433000D02*
Y450500D01*
X356500Y468000D02*
X396500D01*
X356500Y433000D02*
Y450500D01*
Y433000D02*
X396500D01*
X356500Y450500D02*
Y468000D01*
X396500Y450500D02*
Y468000D01*
X450500Y396000D02*
X468000D01*
X433000Y356000D02*
Y396000D01*
X450500Y356000D02*
X468000D01*
Y396000D01*
X433000Y356000D02*
X450500D01*
X433000Y396000D02*
X450500D01*
X650500Y395500D02*
X668000D01*
X633000Y355500D02*
Y395500D01*
X650500Y355500D02*
X668000D01*
Y395500D01*
X633000Y355500D02*
X650500D01*
X633000Y395500D02*
X650500D01*
X705000Y450500D02*
Y468000D01*
Y433000D02*
X745000D01*
Y450500D02*
Y468000D01*
X705000D02*
X745000D01*
Y433000D02*
Y450500D01*
X705000Y433000D02*
Y450500D01*
X710328Y384785D02*
X716715Y391172D01*
X704672Y403215D02*
X716715Y391172D01*
X698285Y396828D02*
X704672Y403215D01*
X698285Y396828D02*
X710328Y384785D01*
X546484Y368484D02*
X555516D01*
Y385516D01*
X546484D02*
X555516D01*
X546484Y368484D02*
Y385516D01*
X384285Y391672D02*
X390672Y385285D01*
X402715Y397328D01*
X396328Y403715D02*
X402715Y397328D01*
X384285Y391672D02*
X396328Y403715D01*
X732516Y538484D02*
Y547516D01*
X715484D02*
X732516D01*
X715484Y538484D02*
Y547516D01*
Y538484D02*
X732516D01*
X368484Y545984D02*
Y555016D01*
Y545984D02*
X385516D01*
Y555016D01*
X368484D02*
X385516D01*
X709828Y716715D02*
X716215Y710328D01*
X697785Y704672D02*
X709828Y716715D01*
X697785Y704672D02*
X704172Y698285D01*
X716215Y710328D01*
X545984Y733016D02*
X555016D01*
X545984Y715984D02*
Y733016D01*
Y715984D02*
X555016D01*
Y733016D01*
X384285Y710328D02*
X390672Y716715D01*
X384285Y710328D02*
X396328Y698285D01*
X402715Y704672D01*
X390672Y716715D02*
X402715Y704672D01*
X300000Y300000D02*
Y800000D01*
Y300000D02*
X800000D01*
Y800000D01*
X300000D02*
X800000D01*
X541668Y768332D02*
X544167D01*
X545000Y767499D01*
Y765833D01*
X544167Y765000D01*
X541668D01*
X531671D02*
X535003D01*
X531671Y768332D01*
Y769165D01*
X532504Y769998D01*
X534170D01*
X535003Y769165D01*
X530005D02*
X529172Y769998D01*
X527506D01*
X526673Y769165D01*
Y765833D01*
X527506Y765000D01*
X529172D01*
X530005Y765833D01*
Y769165D01*
X521674Y765000D02*
X525006D01*
X521674Y768332D01*
Y769165D01*
X522507Y769998D01*
X524173D01*
X525006Y769165D01*
X520008Y765000D02*
X518342D01*
X519175D01*
Y769998D01*
X520008Y769165D01*
X597500Y769998D02*
Y765000D01*
X595001D01*
X594168Y765833D01*
Y766666D01*
X595001Y767499D01*
X597500D01*
X595001D01*
X594168Y768332D01*
Y769165D01*
X595001Y769998D01*
X597500D01*
X592502Y765000D02*
Y769998D01*
X590002D01*
X589169Y769165D01*
Y767499D01*
X590002Y766666D01*
X592502D01*
X590836D02*
X589169Y765000D01*
X587503Y769998D02*
X585837D01*
X586670D01*
Y765000D01*
X587503D01*
X585837D01*
X583338D02*
Y768332D01*
X581672Y769998D01*
X580006Y768332D01*
Y765000D01*
Y767499D01*
X583338D01*
X578339Y765000D02*
Y769998D01*
X575007Y765000D01*
Y769998D01*
X565010Y769165D02*
X565844Y769998D01*
X567510D01*
X568343Y769165D01*
Y765833D01*
X567510Y765000D01*
X565844D01*
X565010Y765833D01*
X560845Y769998D02*
X562511D01*
X563344Y769165D01*
Y765833D01*
X562511Y765000D01*
X560845D01*
X560012Y765833D01*
Y769165D01*
X560845Y769998D01*
X558346D02*
X555014Y765000D01*
Y769998D02*
X558346Y765000D01*
X525000Y405832D02*
Y402500D01*
Y404166D01*
X524167Y404999D01*
X523334Y405832D01*
X522501D01*
X517502Y402500D02*
X519169D01*
X520002Y403333D01*
Y404999D01*
X519169Y405832D01*
X517502D01*
X516669Y404999D01*
Y404166D01*
X520002D01*
X515003Y405832D02*
X513337Y402500D01*
X511671Y405832D01*
X510005Y402500D02*
X508339D01*
X509172D01*
Y407498D01*
X510005Y406665D01*
X505839Y402500D02*
Y403333D01*
X505007D01*
Y402500D01*
X505839D01*
X501674Y406665D02*
X500841Y407498D01*
X499175D01*
X498342Y406665D01*
Y403333D01*
X499175Y402500D01*
X500841D01*
X501674Y403333D01*
Y406665D01*
X496676Y402500D02*
X495010D01*
X495843D01*
Y407498D01*
X496676Y406665D01*
X587500Y752500D02*
X585001D01*
X584168Y753333D01*
X585001Y754166D01*
X586667D01*
X587500Y754999D01*
X586667Y755832D01*
X584168D01*
X582502Y750834D02*
Y755832D01*
X580002D01*
X579169Y754999D01*
Y753333D01*
X580002Y752500D01*
X582502D01*
X576670Y755832D02*
X575004D01*
X574171Y754999D01*
Y752500D01*
X576670D01*
X577503Y753333D01*
X576670Y754166D01*
X574171D01*
X569173Y755832D02*
X571672D01*
X572505Y754999D01*
Y753333D01*
X571672Y752500D01*
X569173D01*
X565007D02*
X566673D01*
X567507Y753333D01*
Y754999D01*
X566673Y755832D01*
X565007D01*
X564174Y754999D01*
Y754166D01*
X567507D01*
X562508Y754999D02*
X559176D01*
X555011Y752500D02*
X556677D01*
X557510Y753333D01*
Y754999D01*
X556677Y755832D01*
X555011D01*
X554178Y754999D01*
Y754166D01*
X557510D01*
X552511Y752500D02*
X550845D01*
X551678D01*
Y755832D01*
X552511D01*
X546680Y750834D02*
X545847D01*
X545014Y751667D01*
Y755832D01*
X547513D01*
X548346Y754999D01*
Y753333D01*
X547513Y752500D01*
X545014D01*
X543348Y757498D02*
Y752500D01*
Y754999D01*
X542515Y755832D01*
X540848D01*
X540015Y754999D01*
Y752500D01*
X537516Y756665D02*
Y755832D01*
X538349D01*
X536683D01*
X537516D01*
Y753333D01*
X536683Y752500D01*
X534184D02*
Y753333D01*
X533351D01*
Y752500D01*
X534184D01*
X526686Y755832D02*
X529186D01*
X530019Y754999D01*
Y753333D01*
X529186Y752500D01*
X526686D01*
X524187D02*
X522521D01*
X521688Y753333D01*
Y754999D01*
X522521Y755832D01*
X524187D01*
X525020Y754999D01*
Y753333D01*
X524187Y752500D01*
X520022D02*
Y755832D01*
X519189D01*
X518356Y754999D01*
Y752500D01*
Y754999D01*
X517523Y755832D01*
X516690Y754999D01*
Y752500D01*
X398868Y724365D02*
X399701Y725198D01*
X401367D01*
X402200Y724365D01*
Y721033D01*
X401367Y720200D01*
X399701D01*
X398868Y721033D01*
X397202Y720200D02*
X395535D01*
X396369D01*
Y725198D01*
X397202Y724365D01*
X551168Y740665D02*
X552001Y741498D01*
X553667D01*
X554500Y740665D01*
Y737333D01*
X553667Y736500D01*
X552001D01*
X551168Y737333D01*
X546169Y736500D02*
X549502D01*
X546169Y739832D01*
Y740665D01*
X547003Y741498D01*
X548669D01*
X549502Y740665D01*
X712368Y724365D02*
X713201Y725198D01*
X714867D01*
X715700Y724365D01*
Y721033D01*
X714867Y720200D01*
X713201D01*
X712368Y721033D01*
X710702Y724365D02*
X709869Y725198D01*
X708202D01*
X707369Y724365D01*
Y723532D01*
X708202Y722699D01*
X709035D01*
X708202D01*
X707369Y721866D01*
Y721033D01*
X708202Y720200D01*
X709869D01*
X710702Y721033D01*
X381668Y562665D02*
X382501Y563498D01*
X384167D01*
X385000Y562665D01*
Y559333D01*
X384167Y558500D01*
X382501D01*
X381668Y559333D01*
X377502Y558500D02*
Y563498D01*
X380002Y560999D01*
X376669D01*
X728668Y555165D02*
X729501Y555998D01*
X731167D01*
X732000Y555165D01*
Y551833D01*
X731167Y551000D01*
X729501D01*
X728668Y551833D01*
X723669Y555998D02*
X725336Y555165D01*
X727002Y553499D01*
Y551833D01*
X726169Y551000D01*
X724502D01*
X723669Y551833D01*
Y552666D01*
X724502Y553499D01*
X727002D01*
X398868Y411365D02*
X399701Y412198D01*
X401367D01*
X402200Y411365D01*
Y408033D01*
X401367Y407200D01*
X399701D01*
X398868Y408033D01*
X397202Y412198D02*
X393869D01*
Y411365D01*
X397202Y408033D01*
Y407200D01*
X551668Y393165D02*
X552501Y393998D01*
X554167D01*
X555000Y393165D01*
Y389833D01*
X554167Y389000D01*
X552501D01*
X551668Y389833D01*
X550002Y393165D02*
X549169Y393998D01*
X547502D01*
X546669Y393165D01*
Y392332D01*
X547502Y391499D01*
X546669Y390666D01*
Y389833D01*
X547502Y389000D01*
X549169D01*
X550002Y389833D01*
Y390666D01*
X549169Y391499D01*
X550002Y392332D01*
Y393165D01*
X549169Y391499D02*
X547502D01*
X712868Y410865D02*
X713701Y411698D01*
X715367D01*
X716200Y410865D01*
Y407533D01*
X715367Y406700D01*
X713701D01*
X712868Y407533D01*
X711202D02*
X710369Y406700D01*
X708702D01*
X707869Y407533D01*
Y410865D01*
X708702Y411698D01*
X710369D01*
X711202Y410865D01*
Y410032D01*
X710369Y409199D01*
X707869D01*
X406168Y651998D02*
X407834D01*
X407001D01*
Y647833D01*
X407834Y647000D01*
X408667D01*
X409500Y647833D01*
X401169Y651998D02*
X404502D01*
Y649499D01*
X402836Y650332D01*
X402002D01*
X401169Y649499D01*
Y647833D01*
X402002Y647000D01*
X403669D01*
X404502Y647833D01*
X451668Y699998D02*
X453334D01*
X452501D01*
Y695833D01*
X453334Y695000D01*
X454167D01*
X455000Y695833D01*
X446669Y699998D02*
X448336Y699165D01*
X450002Y697499D01*
Y695833D01*
X449169Y695000D01*
X447502D01*
X446669Y695833D01*
Y696666D01*
X447502Y697499D01*
X450002D01*
X651668Y699998D02*
X653334D01*
X652501D01*
Y695833D01*
X653334Y695000D01*
X654167D01*
X655000Y695833D01*
X650002Y699998D02*
X646669D01*
Y699165D01*
X650002Y695833D01*
Y695000D01*
X697168Y652998D02*
X698834D01*
X698001D01*
Y648833D01*
X698834Y648000D01*
X699667D01*
X700500Y648833D01*
X695502Y652165D02*
X694669Y652998D01*
X693002D01*
X692169Y652165D01*
Y651332D01*
X693002Y650499D01*
X692169Y649666D01*
Y648833D01*
X693002Y648000D01*
X694669D01*
X695502Y648833D01*
Y649666D01*
X694669Y650499D01*
X695502Y651332D01*
Y652165D01*
X694669Y650499D02*
X693002D01*
X694168Y552498D02*
X695834D01*
X695001D01*
Y548333D01*
X695834Y547500D01*
X696667D01*
X697500Y548333D01*
X689169Y547500D02*
X692502D01*
X689169Y550832D01*
Y551665D01*
X690002Y552498D01*
X691669D01*
X692502Y551665D01*
X550774Y695498D02*
X552440D01*
X551607D01*
Y691333D01*
X552440Y690500D01*
X553273D01*
X554106Y691333D01*
X549108Y690500D02*
X547442D01*
X548275D01*
Y695498D01*
X549108Y694665D01*
X551668Y409998D02*
X553334D01*
X552501D01*
Y405833D01*
X553334Y405000D01*
X554167D01*
X555000Y405833D01*
X550002Y409165D02*
X549169Y409998D01*
X547502D01*
X546669Y409165D01*
Y408332D01*
X547502Y407499D01*
X548336D01*
X547502D01*
X546669Y406666D01*
Y405833D01*
X547502Y405000D01*
X549169D01*
X550002Y405833D01*
X409168Y552498D02*
X410834D01*
X410001D01*
Y548333D01*
X410834Y547500D01*
X411667D01*
X412500Y548333D01*
X405002Y547500D02*
Y552498D01*
X407502Y549999D01*
X404169D01*
X696668Y452498D02*
X698334D01*
X697501D01*
Y448333D01*
X698334Y447500D01*
X699167D01*
X700000Y448333D01*
X695002D02*
X694169Y447500D01*
X692502D01*
X691669Y448333D01*
Y451665D01*
X692502Y452498D01*
X694169D01*
X695002Y451665D01*
Y450832D01*
X694169Y449999D01*
X691669D01*
X654168Y404998D02*
X655834D01*
X655001D01*
Y400833D01*
X655834Y400000D01*
X656667D01*
X657500Y400833D01*
X652502Y400000D02*
X650836D01*
X651669D01*
Y404998D01*
X652502Y404165D01*
X648336D02*
X647503Y404998D01*
X645837D01*
X645004Y404165D01*
Y400833D01*
X645837Y400000D01*
X647503D01*
X648336Y400833D01*
Y404165D01*
X454168Y404998D02*
X455834D01*
X455001D01*
Y400833D01*
X455834Y400000D01*
X456667D01*
X457500Y400833D01*
X452502Y400000D02*
X450836D01*
X451669D01*
Y404998D01*
X452502Y404165D01*
X448336Y400000D02*
X446670D01*
X447503D01*
Y404998D01*
X448336Y404165D01*
X411668Y452498D02*
X413334D01*
X412501D01*
Y448333D01*
X413334Y447500D01*
X414167D01*
X415000Y448333D01*
X410002Y447500D02*
X408335D01*
X409169D01*
Y452498D01*
X410002Y451665D01*
X402504Y447500D02*
X405836D01*
X402504Y450832D01*
Y451665D01*
X403337Y452498D01*
X405003D01*
X405836Y451665D01*
D30*
X603501Y553498D02*
X607500D01*
Y547500D01*
X603501D01*
X607500Y550499D02*
X605501D01*
X597503Y552498D02*
X598503Y553498D01*
X600502D01*
X601502Y552498D01*
Y551499D01*
X600502Y550499D01*
X598503D01*
X597503Y549499D01*
Y548500D01*
X598503Y547500D01*
X600502D01*
X601502Y548500D01*
X591505Y552498D02*
X592505Y553498D01*
X594504D01*
X595504Y552498D01*
Y548500D01*
X594504Y547500D01*
X592505D01*
X591505Y548500D01*
X589506Y547500D02*
Y551499D01*
X587506Y553498D01*
X585507Y551499D01*
Y547500D01*
Y550499D01*
X589506D01*
X583508Y547500D02*
Y553498D01*
X580509D01*
X579509Y552498D01*
Y550499D01*
X580509Y549499D01*
X583508D01*
X573511Y553498D02*
X577510D01*
Y547500D01*
X573511D01*
X577510Y550499D02*
X575510D01*
X567513Y552498D02*
X568513Y553498D01*
X570512D01*
X571512Y552498D01*
Y551499D01*
X570512Y550499D01*
X568513D01*
X567513Y549499D01*
Y548500D01*
X568513Y547500D01*
X570512D01*
X571512Y548500D01*
X555517Y552498D02*
X556517Y553498D01*
X558516D01*
X559515Y552498D01*
Y548500D01*
X558516Y547500D01*
X556517D01*
X555517Y548500D01*
X550518Y553498D02*
X552518D01*
X553517Y552498D01*
Y548500D01*
X552518Y547500D01*
X550518D01*
X549519Y548500D01*
Y552498D01*
X550518Y553498D01*
X543521Y552498D02*
X544520Y553498D01*
X546520D01*
X547519Y552498D01*
Y551499D01*
X546520Y550499D01*
X544520D01*
X543521Y549499D01*
Y548500D01*
X544520Y547500D01*
X546520D01*
X547519Y548500D01*
X541521Y547500D02*
Y553498D01*
X539522Y551499D01*
X537523Y553498D01*
Y547500D01*
X535523Y553498D02*
X533524D01*
X534524D01*
Y547500D01*
X535523D01*
X533524D01*
X526526Y552498D02*
X527526Y553498D01*
X529525D01*
X530525Y552498D01*
Y548500D01*
X529525Y547500D01*
X527526D01*
X526526Y548500D01*
X518529Y553498D02*
Y547500D01*
X515530D01*
X514530Y548500D01*
Y552498D01*
X515530Y553498D01*
X518529D01*
X509532D02*
X511531D01*
X512531Y552498D01*
Y548500D01*
X511531Y547500D01*
X509532D01*
X508532Y548500D01*
Y552498D01*
X509532Y553498D01*
X503534D02*
X505533D01*
X506533Y552498D01*
Y548500D01*
X505533Y547500D01*
X503534D01*
X502534Y548500D01*
Y552498D01*
X503534Y553498D01*
X500535Y547500D02*
Y553498D01*
X498535Y551499D01*
X496536Y553498D01*
Y547500D01*
X585000Y565998D02*
Y560000D01*
X582001D01*
X581001Y561000D01*
Y561999D01*
X582001Y562999D01*
X585000D01*
X582001D01*
X581001Y563999D01*
Y564998D01*
X582001Y565998D01*
X585000D01*
X579002Y560000D02*
Y563999D01*
X577003Y565998D01*
X575003Y563999D01*
Y560000D01*
Y562999D01*
X579002D01*
X573004Y565998D02*
Y560000D01*
X569005D01*
X567006Y565998D02*
Y560000D01*
X563007D01*
X561008Y565998D02*
Y564998D01*
X559008Y562999D01*
X557009Y564998D01*
Y565998D01*
X559008Y562999D02*
Y560000D01*
X549012Y565998D02*
Y561999D01*
X547012Y560000D01*
X545013Y561999D01*
Y565998D01*
X540015D02*
X542014D01*
X543014Y564998D01*
Y561000D01*
X542014Y560000D01*
X540015D01*
X539015Y561000D01*
Y564998D01*
X540015Y565998D01*
X537015D02*
Y560000D01*
X533017D01*
X531017Y565998D02*
X527019D01*
X529018D01*
Y560000D01*
X525019D02*
Y563999D01*
X523020Y565998D01*
X521021Y563999D01*
Y560000D01*
Y562999D01*
X525019D01*
X519021Y560000D02*
Y565998D01*
X515023Y560000D01*
Y565998D01*
X598501Y405998D02*
X602500D01*
Y402999D01*
X600501Y403999D01*
X599501D01*
X598501Y402999D01*
Y401000D01*
X599501Y400000D01*
X601500D01*
X602500Y401000D01*
X596502Y404998D02*
X595502Y405998D01*
X593503D01*
X592503Y404998D01*
Y401000D01*
X593503Y400000D01*
X595502D01*
X596502Y401000D01*
Y404998D01*
X586505Y405998D02*
X590504D01*
Y402999D01*
X588505Y403999D01*
X587505D01*
X586505Y402999D01*
Y401000D01*
X587505Y400000D01*
X589504D01*
X590504Y401000D01*
X584506Y400000D02*
X582507D01*
X583506D01*
Y405998D01*
X584506Y404998D01*
X579507D02*
X578508Y405998D01*
X576508D01*
X575509Y404998D01*
Y403999D01*
X576508Y402999D01*
X575509Y401999D01*
Y401000D01*
X576508Y400000D01*
X578508D01*
X579507Y401000D01*
Y401999D01*
X578508Y402999D01*
X579507Y403999D01*
Y404998D01*
X578508Y402999D02*
X576508D01*
X569511Y405998D02*
X573509D01*
Y402999D01*
X571510Y403999D01*
X570510D01*
X569511Y402999D01*
Y401000D01*
X570510Y400000D01*
X572510D01*
X573509Y401000D01*
D31*
X479998Y716252D02*
X478749Y715002D01*
X476250D01*
X475000Y716252D01*
Y721250D01*
X476250Y722500D01*
X478749D01*
X479998Y721250D01*
Y718751D01*
X477499D01*
X482498Y722500D02*
Y715002D01*
X487496Y722500D01*
Y715002D01*
X489995D02*
Y722500D01*
X493744D01*
X494993Y721250D01*
Y716252D01*
X493744Y715002D01*
X489995D01*
X475000Y732502D02*
Y737501D01*
X477499Y740000D01*
X479998Y737501D01*
Y732502D01*
X487496Y733752D02*
X486246Y732502D01*
X483747D01*
X482498Y733752D01*
Y738750D01*
X483747Y740000D01*
X486246D01*
X487496Y738750D01*
X494993Y733752D02*
X493744Y732502D01*
X491245D01*
X489995Y733752D01*
Y738750D01*
X491245Y740000D01*
X493744D01*
X494993Y738750D01*
X612498Y716252D02*
X611249Y715002D01*
X608750D01*
X607500Y716252D01*
Y721250D01*
X608750Y722500D01*
X611249D01*
X612498Y721250D01*
Y718751D01*
X609999D01*
X614998Y722500D02*
Y715002D01*
X619996Y722500D01*
Y715002D01*
X622495D02*
Y722500D01*
X626244D01*
X627493Y721250D01*
Y716252D01*
X626244Y715002D01*
X622495D01*
X607500Y732502D02*
Y737501D01*
X609999Y740000D01*
X612498Y737501D01*
Y732502D01*
X619996Y733752D02*
X618746Y732502D01*
X616247D01*
X614998Y733752D01*
Y738750D01*
X616247Y740000D01*
X618746D01*
X619996Y738750D01*
X627493Y733752D02*
X626244Y732502D01*
X623745D01*
X622495Y733752D01*
Y738750D01*
X623745Y740000D01*
X626244D01*
X627493Y738750D01*
X713752Y620002D02*
X712502Y621251D01*
Y623750D01*
X713752Y625000D01*
X718750D01*
X720000Y623750D01*
Y621251D01*
X718750Y620002D01*
X716251D01*
Y622501D01*
X720000Y617502D02*
X712502D01*
X720000Y612504D01*
X712502D01*
Y610005D02*
X720000D01*
Y606256D01*
X718750Y605007D01*
X713752D01*
X712502Y606256D01*
Y610005D01*
X730002Y625000D02*
X735001D01*
X737500Y622501D01*
X735001Y620002D01*
X730002D01*
X731252Y612504D02*
X730002Y613754D01*
Y616253D01*
X731252Y617502D01*
X736250D01*
X737500Y616253D01*
Y613754D01*
X736250Y612504D01*
X731252Y605007D02*
X730002Y606256D01*
Y608755D01*
X731252Y610005D01*
X736250D01*
X737500Y608755D01*
Y606256D01*
X736250Y605007D01*
X713752Y490002D02*
X712502Y491251D01*
Y493750D01*
X713752Y495000D01*
X718750D01*
X720000Y493750D01*
Y491251D01*
X718750Y490002D01*
X716251D01*
Y492501D01*
X720000Y487502D02*
X712502D01*
X720000Y482504D01*
X712502D01*
Y480005D02*
X720000D01*
Y476256D01*
X718750Y475006D01*
X713752D01*
X712502Y476256D01*
Y480005D01*
X730002Y495000D02*
X735001D01*
X737500Y492501D01*
X735001Y490002D01*
X730002D01*
X731252Y482504D02*
X730002Y483754D01*
Y486253D01*
X731252Y487502D01*
X736250D01*
X737500Y486253D01*
Y483754D01*
X736250Y482504D01*
X731252Y475006D02*
X730002Y476256D01*
Y478755D01*
X731252Y480005D01*
X736250D01*
X737500Y478755D01*
Y476256D01*
X736250Y475006D01*
X620002Y386248D02*
X621251Y387498D01*
X623750D01*
X625000Y386248D01*
Y381250D01*
X623750Y380000D01*
X621251D01*
X620002Y381250D01*
Y383749D01*
X622501D01*
X617502Y380000D02*
Y387498D01*
X612504Y380000D01*
Y387498D01*
X610005D02*
Y380000D01*
X606256D01*
X605007Y381250D01*
Y386248D01*
X606256Y387498D01*
X610005D01*
X625000Y369998D02*
Y364999D01*
X622501Y362500D01*
X620002Y364999D01*
Y369998D01*
X612504Y368748D02*
X613754Y369998D01*
X616253D01*
X617502Y368748D01*
Y363750D01*
X616253Y362500D01*
X613754D01*
X612504Y363750D01*
X605007Y368748D02*
X606256Y369998D01*
X608755D01*
X610005Y368748D01*
Y363750D01*
X608755Y362500D01*
X606256D01*
X605007Y363750D01*
X490002Y386248D02*
X491251Y387498D01*
X493750D01*
X495000Y386248D01*
Y381250D01*
X493750Y380000D01*
X491251D01*
X490002Y381250D01*
Y383749D01*
X492501D01*
X487502Y380000D02*
Y387498D01*
X482504Y380000D01*
Y387498D01*
X480005D02*
Y380000D01*
X476256D01*
X475006Y381250D01*
Y386248D01*
X476256Y387498D01*
X480005D01*
X495000Y369998D02*
Y364999D01*
X492501Y362500D01*
X490002Y364999D01*
Y369998D01*
X482504Y368748D02*
X483754Y369998D01*
X486253D01*
X487502Y368748D01*
Y363750D01*
X486253Y362500D01*
X483754D01*
X482504Y363750D01*
X475006Y368748D02*
X476256Y369998D01*
X478755D01*
X480005Y368748D01*
Y363750D01*
X478755Y362500D01*
X476256D01*
X475006Y363750D01*
X388748Y479998D02*
X389998Y478749D01*
Y476250D01*
X388748Y475000D01*
X383750D01*
X382500Y476250D01*
Y478749D01*
X383750Y479998D01*
X386249D01*
Y477499D01*
X382500Y482498D02*
X389998D01*
X382500Y487496D01*
X389998D01*
Y489995D02*
X382500D01*
Y493744D01*
X383750Y494993D01*
X388748D01*
X389998Y493744D01*
Y489995D01*
X372498Y475000D02*
X367499D01*
X365000Y477499D01*
X367499Y479998D01*
X372498D01*
X371248Y487496D02*
X372498Y486246D01*
Y483747D01*
X371248Y482498D01*
X366250D01*
X365000Y483747D01*
Y486246D01*
X366250Y487496D01*
X371248Y494993D02*
X372498Y493744D01*
Y491245D01*
X371248Y489995D01*
X366250D01*
X365000Y491245D01*
Y493744D01*
X366250Y494993D01*
X388748Y612498D02*
X389998Y611249D01*
Y608750D01*
X388748Y607500D01*
X383750D01*
X382500Y608750D01*
Y611249D01*
X383750Y612498D01*
X386249D01*
Y609999D01*
X382500Y614998D02*
X389998D01*
X382500Y619996D01*
X389998D01*
Y622495D02*
X382500D01*
Y626244D01*
X383750Y627493D01*
X388748D01*
X389998Y626244D01*
Y622495D01*
X372498Y607500D02*
X367499D01*
X365000Y609999D01*
X367499Y612498D01*
X372498D01*
X371248Y619996D02*
X372498Y618746D01*
Y616247D01*
X371248Y614998D01*
X366250D01*
X365000Y616247D01*
Y618746D01*
X366250Y619996D01*
X371248Y627493D02*
X372498Y626244D01*
Y623745D01*
X371248Y622495D01*
X366250D01*
X365000Y623745D01*
Y626244D01*
X366250Y627493D01*
X622502Y512500D02*
X630000D01*
Y508751D01*
X628750Y507502D01*
X623752D01*
X622502Y508751D01*
Y512500D01*
Y501254D02*
Y503753D01*
X623752Y505002D01*
X628750D01*
X630000Y503753D01*
Y501254D01*
X628750Y500004D01*
X623752D01*
X622502Y501254D01*
X655002Y517500D02*
X660001D01*
X662500Y515001D01*
X660001Y512502D01*
X655002D01*
X656252Y505004D02*
X655002Y506254D01*
Y508753D01*
X656252Y510002D01*
X661250D01*
X662500Y508753D01*
Y506254D01*
X661250Y505004D01*
X656252Y497507D02*
X655002Y498756D01*
Y501255D01*
X656252Y502505D01*
X661250D01*
X662500Y501255D01*
Y498756D01*
X661250Y497507D01*
X638752Y512502D02*
X637502Y513751D01*
Y516250D01*
X638752Y517500D01*
X643750D01*
X645000Y516250D01*
Y513751D01*
X643750Y512502D01*
X641251D01*
Y515001D01*
X645000Y510002D02*
X637502D01*
X645000Y505004D01*
X637502D01*
Y502505D02*
X645000D01*
Y498756D01*
X643750Y497507D01*
X638752D01*
X637502Y498756D01*
Y502505D01*
X670002Y510000D02*
X677500D01*
Y506251D01*
X676250Y505002D01*
X671252D01*
X670002Y506251D01*
Y510000D01*
Y502502D02*
Y500003D01*
Y501253D01*
X677500D01*
Y502502D01*
Y500003D01*
X622502Y597500D02*
X630000D01*
Y593751D01*
X628750Y592502D01*
X623752D01*
X622502Y593751D01*
Y597500D01*
Y586254D02*
Y588753D01*
X623752Y590002D01*
X628750D01*
X630000Y588753D01*
Y586254D01*
X628750Y585004D01*
X623752D01*
X622502Y586254D01*
X655002Y602500D02*
X660001D01*
X662500Y600001D01*
X660001Y597502D01*
X655002D01*
X656252Y590004D02*
X655002Y591254D01*
Y593753D01*
X656252Y595002D01*
X661250D01*
X662500Y593753D01*
Y591254D01*
X661250Y590004D01*
X656252Y582507D02*
X655002Y583756D01*
Y586255D01*
X656252Y587505D01*
X661250D01*
X662500Y586255D01*
Y583756D01*
X661250Y582507D01*
X638752Y597502D02*
X637502Y598751D01*
Y601250D01*
X638752Y602500D01*
X643750D01*
X645000Y601250D01*
Y598751D01*
X643750Y597502D01*
X641251D01*
Y600001D01*
X645000Y595002D02*
X637502D01*
X645000Y590004D01*
X637502D01*
Y587505D02*
X645000D01*
Y583756D01*
X643750Y582507D01*
X638752D01*
X637502Y583756D01*
Y587505D01*
X670002Y595000D02*
X677500D01*
Y591251D01*
X676250Y590002D01*
X671252D01*
X670002Y591251D01*
Y595000D01*
Y587502D02*
Y585003D01*
Y586253D01*
X677500D01*
Y587502D01*
Y585003D01*
X587500Y622502D02*
Y630000D01*
X591249D01*
X592498Y628750D01*
Y623752D01*
X591249Y622502D01*
X587500D01*
X598746D02*
X596247D01*
X594998Y623752D01*
Y628750D01*
X596247Y630000D01*
X598746D01*
X599996Y628750D01*
Y623752D01*
X598746Y622502D01*
X582500Y655002D02*
Y660001D01*
X584999Y662500D01*
X587498Y660001D01*
Y655002D01*
X594996Y656252D02*
X593746Y655002D01*
X591247D01*
X589998Y656252D01*
Y661250D01*
X591247Y662500D01*
X593746D01*
X594996Y661250D01*
X602493Y656252D02*
X601244Y655002D01*
X598745D01*
X597495Y656252D01*
Y661250D01*
X598745Y662500D01*
X601244D01*
X602493Y661250D01*
X587498Y638752D02*
X586249Y637502D01*
X583750D01*
X582500Y638752D01*
Y643750D01*
X583750Y645000D01*
X586249D01*
X587498Y643750D01*
Y641251D01*
X584999D01*
X589998Y645000D02*
Y637502D01*
X594996Y645000D01*
Y637502D01*
X597495D02*
Y645000D01*
X601244D01*
X602493Y643750D01*
Y638752D01*
X601244Y637502D01*
X597495D01*
X590000Y670002D02*
Y677500D01*
X593749D01*
X594998Y676250D01*
Y671252D01*
X593749Y670002D01*
X590000D01*
X597498D02*
X599997D01*
X598747D01*
Y677500D01*
X597498D01*
X599997D01*
X505000Y622502D02*
Y630000D01*
X508749D01*
X509998Y628750D01*
Y623752D01*
X508749Y622502D01*
X505000D01*
X516246D02*
X513747D01*
X512498Y623752D01*
Y628750D01*
X513747Y630000D01*
X516246D01*
X517496Y628750D01*
Y623752D01*
X516246Y622502D01*
X500000Y655002D02*
Y660001D01*
X502499Y662500D01*
X504998Y660001D01*
Y655002D01*
X512496Y656252D02*
X511246Y655002D01*
X508747D01*
X507498Y656252D01*
Y661250D01*
X508747Y662500D01*
X511246D01*
X512496Y661250D01*
X519993Y656252D02*
X518744Y655002D01*
X516245D01*
X514995Y656252D01*
Y661250D01*
X516245Y662500D01*
X518744D01*
X519993Y661250D01*
X504998Y638752D02*
X503749Y637502D01*
X501250D01*
X500000Y638752D01*
Y643750D01*
X501250Y645000D01*
X503749D01*
X504998Y643750D01*
Y641251D01*
X502499D01*
X507498Y645000D02*
Y637502D01*
X512496Y645000D01*
Y637502D01*
X514995D02*
Y645000D01*
X518744D01*
X519993Y643750D01*
Y638752D01*
X518744Y637502D01*
X514995D01*
X507500Y670002D02*
Y677500D01*
X511249D01*
X512498Y676250D01*
Y671252D01*
X511249Y670002D01*
X507500D01*
X514998D02*
X517497D01*
X516247D01*
Y677500D01*
X514998D01*
X517497D01*
X477498Y585000D02*
X470000D01*
Y588749D01*
X471250Y589998D01*
X476248D01*
X477498Y588749D01*
Y585000D01*
Y596246D02*
Y593747D01*
X476248Y592498D01*
X471250D01*
X470000Y593747D01*
Y596246D01*
X471250Y597496D01*
X476248D01*
X477498Y596246D01*
X444998Y580000D02*
X439999D01*
X437500Y582499D01*
X439999Y584998D01*
X444998D01*
X443748Y592496D02*
X444998Y591246D01*
Y588747D01*
X443748Y587498D01*
X438750D01*
X437500Y588747D01*
Y591246D01*
X438750Y592496D01*
X443748Y599994D02*
X444998Y598744D01*
Y596245D01*
X443748Y594995D01*
X438750D01*
X437500Y596245D01*
Y598744D01*
X438750Y599994D01*
X461248Y584998D02*
X462498Y583749D01*
Y581250D01*
X461248Y580000D01*
X456250D01*
X455000Y581250D01*
Y583749D01*
X456250Y584998D01*
X458749D01*
Y582499D01*
X455000Y587498D02*
X462498D01*
X455000Y592496D01*
X462498D01*
Y594995D02*
X455000D01*
Y598744D01*
X456250Y599994D01*
X461248D01*
X462498Y598744D01*
Y594995D01*
X429998Y587500D02*
X422500D01*
Y591249D01*
X423750Y592498D01*
X428748D01*
X429998Y591249D01*
Y587500D01*
Y594998D02*
Y597497D01*
Y596247D01*
X422500D01*
Y594998D01*
Y597497D01*
X477498Y505000D02*
X470000D01*
Y508749D01*
X471250Y509998D01*
X476248D01*
X477498Y508749D01*
Y505000D01*
Y516246D02*
Y513747D01*
X476248Y512498D01*
X471250D01*
X470000Y513747D01*
Y516246D01*
X471250Y517496D01*
X476248D01*
X477498Y516246D01*
X444998Y500000D02*
X439999D01*
X437500Y502499D01*
X439999Y504998D01*
X444998D01*
X443748Y512496D02*
X444998Y511246D01*
Y508747D01*
X443748Y507498D01*
X438750D01*
X437500Y508747D01*
Y511246D01*
X438750Y512496D01*
X443748Y519993D02*
X444998Y518744D01*
Y516245D01*
X443748Y514995D01*
X438750D01*
X437500Y516245D01*
Y518744D01*
X438750Y519993D01*
X461248Y504998D02*
X462498Y503749D01*
Y501250D01*
X461248Y500000D01*
X456250D01*
X455000Y501250D01*
Y503749D01*
X456250Y504998D01*
X458749D01*
Y502499D01*
X455000Y507498D02*
X462498D01*
X455000Y512496D01*
X462498D01*
Y514995D02*
X455000D01*
Y518744D01*
X456250Y519993D01*
X461248D01*
X462498Y518744D01*
Y514995D01*
X429998Y507500D02*
X422500D01*
Y511249D01*
X423750Y512498D01*
X428748D01*
X429998Y511249D01*
Y507500D01*
Y514998D02*
Y517497D01*
Y516247D01*
X422500D01*
Y514998D01*
Y517497D01*
X515000Y477498D02*
Y470000D01*
X511251D01*
X510002Y471250D01*
Y476248D01*
X511251Y477498D01*
X515000D01*
X503754D02*
X506253D01*
X507502Y476248D01*
Y471250D01*
X506253Y470000D01*
X503754D01*
X502504Y471250D01*
Y476248D01*
X503754Y477498D01*
X520000Y444998D02*
Y439999D01*
X517501Y437500D01*
X515002Y439999D01*
Y444998D01*
X507504Y443748D02*
X508754Y444998D01*
X511253D01*
X512502Y443748D01*
Y438750D01*
X511253Y437500D01*
X508754D01*
X507504Y438750D01*
X500006Y443748D02*
X501256Y444998D01*
X503755D01*
X505005Y443748D01*
Y438750D01*
X503755Y437500D01*
X501256D01*
X500006Y438750D01*
X515002Y461248D02*
X516251Y462498D01*
X518750D01*
X520000Y461248D01*
Y456250D01*
X518750Y455000D01*
X516251D01*
X515002Y456250D01*
Y458749D01*
X517501D01*
X512502Y455000D02*
Y462498D01*
X507504Y455000D01*
Y462498D01*
X505005D02*
Y455000D01*
X501256D01*
X500006Y456250D01*
Y461248D01*
X501256Y462498D01*
X505005D01*
X512500Y429998D02*
Y422500D01*
X508751D01*
X507502Y423750D01*
Y428748D01*
X508751Y429998D01*
X512500D01*
X505002D02*
X502503D01*
X503753D01*
Y422500D01*
X505002D01*
X502503D01*
X595000Y429998D02*
Y422500D01*
X591251D01*
X590002Y423750D01*
Y428748D01*
X591251Y429998D01*
X595000D01*
X587502D02*
X585003D01*
X586253D01*
Y422500D01*
X587502D01*
X585003D01*
X597502Y461248D02*
X598751Y462498D01*
X601250D01*
X602500Y461248D01*
Y456250D01*
X601250Y455000D01*
X598751D01*
X597502Y456250D01*
Y458749D01*
X600001D01*
X595002Y455000D02*
Y462498D01*
X590004Y455000D01*
Y462498D01*
X587505D02*
Y455000D01*
X583756D01*
X582507Y456250D01*
Y461248D01*
X583756Y462498D01*
X587505D01*
X602500Y444998D02*
Y439999D01*
X600001Y437500D01*
X597502Y439999D01*
Y444998D01*
X590004Y443748D02*
X591254Y444998D01*
X593753D01*
X595002Y443748D01*
Y438750D01*
X593753Y437500D01*
X591254D01*
X590004Y438750D01*
X582507Y443748D02*
X583756Y444998D01*
X586255D01*
X587505Y443748D01*
Y438750D01*
X586255Y437500D01*
X583756D01*
X582507Y438750D01*
X597500Y477498D02*
Y470000D01*
X593751D01*
X592502Y471250D01*
Y476248D01*
X593751Y477498D01*
X597500D01*
X586254D02*
X588753D01*
X590002Y476248D01*
Y471250D01*
X588753Y470000D01*
X586254D01*
X585004Y471250D01*
Y476248D01*
X586254Y477498D01*
M02*
