%FSLAX25Y25*%
%MOIN*%
G70*
G01*
G75*
G04 Layer_Color=65535*
%ADD10P,0.08352X4X333.0*%
%ADD11P,0.08352X4X261.0*%
%ADD12P,0.08352X4X189.0*%
%ADD13P,0.08352X4X117.0*%
%ADD14R,0.05906X0.05906*%
%ADD15C,0.02500*%
%ADD16C,0.10000*%
%ADD17C,0.05000*%
%ADD18C,0.12500*%
%ADD19R,0.12500X0.12500*%
%ADD20R,0.12500X0.12500*%
%ADD21C,0.16500*%
%ADD22C,0.04000*%
%ADD23R,0.17716X0.12205*%
%ADD24R,0.12205X0.17716*%
G04:AMPARAMS|DCode=25|XSize=80mil|YSize=50mil|CornerRadius=0mil|HoleSize=0mil|Usage=FLASHONLY|Rotation=45.000|XOffset=0mil|YOffset=0mil|HoleType=Round|Shape=Rectangle|*
%AMROTATEDRECTD25*
4,1,4,-0.01061,-0.04596,-0.04596,-0.01061,0.01061,0.04596,0.04596,0.01061,-0.01061,-0.04596,0.0*
%
%ADD25ROTATEDRECTD25*%

%ADD26R,0.08000X0.05000*%
G04:AMPARAMS|DCode=27|XSize=80mil|YSize=50mil|CornerRadius=0mil|HoleSize=0mil|Usage=FLASHONLY|Rotation=315.000|XOffset=0mil|YOffset=0mil|HoleType=Round|Shape=Rectangle|*
%AMROTATEDRECTD27*
4,1,4,-0.04596,0.01061,-0.01061,0.04596,0.04596,-0.01061,0.01061,-0.04596,-0.04596,0.01061,0.0*
%
%ADD27ROTATEDRECTD27*%

%ADD28R,0.05000X0.08000*%
%ADD29C,0.01000*%
%ADD30C,0.01200*%
D29*
X778058Y743526D02*
G03*
X778058Y743526I-984J0D01*
G01*
X377558Y543526D02*
G03*
X377558Y543526I-984J0D01*
G01*
X578058D02*
G03*
X578058Y543526I-984J0D01*
G01*
X777558D02*
G03*
X777558Y543526I-984J0D01*
G01*
X377558Y343526D02*
G03*
X377558Y343526I-984J0D01*
G01*
X577558D02*
G03*
X577558Y343526I-984J0D01*
G01*
X777558D02*
G03*
X777558Y343526I-984J0D01*
G01*
X752412Y723692D02*
G03*
X752412Y723692I-984J0D01*
G01*
X352912Y523692D02*
G03*
X352912Y523692I-984J0D01*
G01*
X552912Y523192D02*
G03*
X552912Y523192I-984J0D01*
G01*
X752912Y523692D02*
G03*
X752912Y523692I-984J0D01*
G01*
X352912Y323692D02*
G03*
X352912Y323692I-984J0D01*
G01*
X552912D02*
G03*
X552912Y323692I-984J0D01*
G01*
X752912D02*
G03*
X752912Y323692I-984J0D01*
G01*
X726168Y741048D02*
G03*
X726168Y741048I-984J0D01*
G01*
X326168Y541048D02*
G03*
X326168Y541048I-984J0D01*
G01*
X526168Y540548D02*
G03*
X526168Y540548I-984J0D01*
G01*
X726168D02*
G03*
X726168Y540548I-984J0D01*
G01*
X326168Y341048D02*
G03*
X326168Y341048I-984J0D01*
G01*
X526168D02*
G03*
X526168Y341048I-984J0D01*
G01*
X726168D02*
G03*
X726168Y341048I-984J0D01*
G01*
X734535Y771608D02*
G03*
X734535Y771608I-984J0D01*
G01*
X334535Y571608D02*
G03*
X334535Y571608I-984J0D01*
G01*
X534535D02*
G03*
X534535Y571608I-984J0D01*
G01*
X734535D02*
G03*
X734535Y571608I-984J0D01*
G01*
X334535Y371608D02*
G03*
X334535Y371608I-984J0D01*
G01*
X534535D02*
G03*
X534535Y371608I-984J0D01*
G01*
X734535D02*
G03*
X734535Y371608I-984J0D01*
G01*
X766248Y773126D02*
G03*
X766248Y773126I-984J0D01*
G01*
X366248Y573126D02*
G03*
X366248Y573126I-984J0D01*
G01*
X566248Y572626D02*
G03*
X566248Y572626I-984J0D01*
G01*
X766248Y573126D02*
G03*
X766248Y573126I-984J0D01*
G01*
X366248Y373126D02*
G03*
X366248Y373126I-984J0D01*
G01*
X566248D02*
G03*
X566248Y373126I-984J0D01*
G01*
X766248D02*
G03*
X766248Y373126I-984J0D01*
G01*
X462500Y775500D02*
G03*
X462500Y775500I-12000J0D01*
G01*
X662500D02*
G03*
X662500Y775500I-12000J0D01*
G01*
X787500Y650500D02*
G03*
X787500Y650500I-12000J0D01*
G01*
Y450500D02*
G03*
X787500Y450500I-12000J0D01*
G01*
X337500Y650500D02*
G03*
X337500Y650500I-12000J0D01*
G01*
Y450500D02*
G03*
X337500Y450500I-12000J0D01*
G01*
X462500Y325500D02*
G03*
X462500Y325500I-12000J0D01*
G01*
X662500D02*
G03*
X662500Y325500I-12000J0D01*
G01*
X377558Y743526D02*
G03*
X377558Y743526I-984J0D01*
G01*
X352912Y723692D02*
G03*
X352912Y723692I-984J0D01*
G01*
X326168Y741048D02*
G03*
X326168Y741048I-984J0D01*
G01*
X334535Y771608D02*
G03*
X334535Y771608I-984J0D01*
G01*
X366248Y773126D02*
G03*
X366248Y773126I-984J0D01*
G01*
X577558Y743526D02*
G03*
X577558Y743526I-984J0D01*
G01*
X552912Y723692D02*
G03*
X552912Y723692I-984J0D01*
G01*
X526168Y740548D02*
G03*
X526168Y740548I-984J0D01*
G01*
X534535Y771608D02*
G03*
X534535Y771608I-984J0D01*
G01*
X566248Y773126D02*
G03*
X566248Y773126I-984J0D01*
G01*
X781169Y750031D02*
X784914Y751248D01*
X775086Y768752D02*
X778831Y769969D01*
X768814Y762575D02*
X772464Y751342D01*
X787536Y768658D02*
X791186Y757425D01*
X771247Y755086D02*
X781169Y750031D01*
X380669Y550031D02*
X384414Y551248D01*
X374586Y568752D02*
X378331Y569969D01*
X368314Y562575D02*
X371964Y551342D01*
X387036Y568658D02*
X390686Y557425D01*
X370747Y555086D02*
X380669Y550031D01*
X581169D02*
X584914Y551248D01*
X575086Y568752D02*
X578831Y569969D01*
X568814Y562575D02*
X572464Y551342D01*
X587536Y568658D02*
X591186Y557425D01*
X571247Y555086D02*
X581169Y550031D01*
X780669D02*
X784414Y551248D01*
X774586Y568752D02*
X778331Y569969D01*
X768314Y562575D02*
X771964Y551342D01*
X787036Y568658D02*
X790686Y557425D01*
X770748Y555086D02*
X780669Y550031D01*
X380669Y350031D02*
X384414Y351248D01*
X374586Y368753D02*
X378331Y369969D01*
X368314Y362575D02*
X371964Y351342D01*
X387036Y368658D02*
X390686Y357425D01*
X370747Y355086D02*
X380669Y350031D01*
X580669D02*
X584414Y351248D01*
X574586Y368753D02*
X578331Y369969D01*
X568314Y362575D02*
X571964Y351342D01*
X587036Y368658D02*
X590686Y357425D01*
X570748Y355086D02*
X580669Y350031D01*
X780669D02*
X784414Y351248D01*
X774586Y368753D02*
X778331Y369969D01*
X768314Y362575D02*
X771964Y351342D01*
X787036Y368658D02*
X790686Y357425D01*
X770748Y355086D02*
X780669Y350031D01*
X758880Y721807D02*
X761194Y718622D01*
X774806Y733378D02*
X777120Y730193D01*
X757437Y730492D02*
X766992Y737434D01*
X769008Y714566D02*
X778563Y721508D01*
X758880Y721807D02*
X760622Y732806D01*
X359380Y521807D02*
X361694Y518622D01*
X375306Y533378D02*
X377620Y530193D01*
X357937Y530492D02*
X367492Y537434D01*
X369508Y514566D02*
X379063Y521508D01*
X359380Y521807D02*
X361122Y532806D01*
X559380Y521307D02*
X561694Y518122D01*
X575306Y532878D02*
X577620Y529693D01*
X557937Y529992D02*
X567492Y536934D01*
X569508Y514066D02*
X579063Y521008D01*
X559380Y521307D02*
X561122Y532306D01*
X759380Y521807D02*
X761694Y518622D01*
X775306Y533378D02*
X777620Y530193D01*
X757937Y530492D02*
X767492Y537434D01*
X769508Y514566D02*
X779063Y521508D01*
X759380Y521807D02*
X761122Y532806D01*
X359380Y321807D02*
X361694Y318622D01*
X375306Y333378D02*
X377620Y330193D01*
X357937Y330492D02*
X367492Y337434D01*
X369508Y314566D02*
X379063Y321508D01*
X359380Y321807D02*
X361122Y332806D01*
X559380Y321807D02*
X561694Y318622D01*
X575306Y333378D02*
X577620Y330193D01*
X557937Y330492D02*
X567492Y337434D01*
X569508Y314566D02*
X579063Y321508D01*
X559380Y321807D02*
X561122Y332806D01*
X759380Y321807D02*
X761694Y318622D01*
X775306Y333378D02*
X777620Y330193D01*
X757937Y330492D02*
X767492Y337434D01*
X769508Y314566D02*
X779063Y321508D01*
X759380Y321807D02*
X761122Y332806D01*
X723380Y730193D02*
X725694Y733378D01*
X739306Y718622D02*
X741620Y721807D01*
X733508Y737434D02*
X743063Y730492D01*
X721937Y721508D02*
X731492Y714566D01*
X725694Y733378D02*
X736693Y735120D01*
X323380Y530193D02*
X325694Y533378D01*
X339306Y518622D02*
X341620Y521807D01*
X333508Y537434D02*
X343063Y530492D01*
X321937Y521508D02*
X331492Y514566D01*
X325694Y533378D02*
X336693Y535120D01*
X523380Y529693D02*
X525694Y532878D01*
X539306Y518122D02*
X541620Y521307D01*
X533508Y536934D02*
X543063Y529992D01*
X521937Y521008D02*
X531492Y514066D01*
X525694Y532878D02*
X536693Y534620D01*
X723380Y529693D02*
X725694Y532878D01*
X739306Y518122D02*
X741620Y521307D01*
X733508Y536934D02*
X743063Y529992D01*
X721937Y521008D02*
X731492Y514066D01*
X725694Y532878D02*
X736693Y534620D01*
X323380Y330193D02*
X325694Y333378D01*
X339306Y318622D02*
X341620Y321807D01*
X333508Y337434D02*
X343063Y330492D01*
X321937Y321508D02*
X331492Y314566D01*
X325694Y333378D02*
X336693Y335120D01*
X523380Y330193D02*
X525694Y333378D01*
X539306Y318622D02*
X541620Y321807D01*
X533508Y337434D02*
X543063Y330492D01*
X521937Y321508D02*
X531492Y314566D01*
X525694Y333378D02*
X536693Y335120D01*
X723380Y330193D02*
X725694Y333378D01*
X739306Y318622D02*
X741620Y321807D01*
X733508Y337434D02*
X743063Y330492D01*
X721937Y321508D02*
X731492Y314566D01*
X725694Y333378D02*
X736693Y335120D01*
X722669Y769969D02*
X726414Y768752D01*
X716586Y751248D02*
X720331Y750031D01*
X729036Y751342D02*
X732686Y762575D01*
X710314Y757425D02*
X713964Y768658D01*
X726414Y768752D02*
X731469Y758831D01*
X322669Y569969D02*
X326414Y568752D01*
X316586Y551248D02*
X320331Y550031D01*
X329036Y551342D02*
X332686Y562575D01*
X310314Y557425D02*
X313964Y568658D01*
X326414Y568752D02*
X331469Y558831D01*
X522669Y569969D02*
X526414Y568752D01*
X516586Y551248D02*
X520331Y550031D01*
X529036Y551342D02*
X532686Y562575D01*
X510314Y557425D02*
X513964Y568658D01*
X526414Y568752D02*
X531469Y558831D01*
X722669Y569969D02*
X726414Y568752D01*
X716586Y551248D02*
X720331Y550031D01*
X729036Y551342D02*
X732686Y562575D01*
X710314Y557425D02*
X713964Y568658D01*
X726414Y568752D02*
X731469Y558831D01*
X322669Y369969D02*
X326414Y368753D01*
X316586Y351248D02*
X320331Y350031D01*
X329036Y351342D02*
X332686Y362575D01*
X310314Y357425D02*
X313964Y368658D01*
X326414Y368753D02*
X331469Y358831D01*
X522669Y369969D02*
X526414Y368753D01*
X516586Y351248D02*
X520331Y350031D01*
X529036Y351342D02*
X532686Y362575D01*
X510314Y357425D02*
X513964Y368658D01*
X526414Y368753D02*
X531469Y358831D01*
X722669Y369969D02*
X726414Y368753D01*
X716586Y351248D02*
X720331Y350031D01*
X729036Y351342D02*
X732686Y362575D01*
X710314Y357425D02*
X713964Y368658D01*
X726414Y368753D02*
X731469Y358831D01*
X760343Y779032D02*
Y782969D01*
X740658Y779032D02*
Y782969D01*
X744594Y771158D02*
X756405D01*
X744594Y790842D02*
X756405D01*
X752468Y771158D02*
X760343Y779032D01*
X360343Y579032D02*
Y582969D01*
X340657Y579032D02*
Y582969D01*
X344595Y571158D02*
X356405D01*
X344595Y590842D02*
X356405D01*
X352468Y571158D02*
X360343Y579032D01*
X560343Y578532D02*
Y582469D01*
X540658Y578532D02*
Y582469D01*
X544594Y570657D02*
X556405D01*
X544594Y590343D02*
X556405D01*
X552468Y570657D02*
X560343Y578532D01*
X760343Y579032D02*
Y582969D01*
X740658Y579032D02*
Y582969D01*
X744594Y571158D02*
X756405D01*
X744594Y590842D02*
X756405D01*
X752468Y571158D02*
X760343Y579032D01*
X360343Y379031D02*
Y382968D01*
X340657Y379031D02*
Y382968D01*
X344595Y371158D02*
X356405D01*
X344595Y390843D02*
X356405D01*
X352468Y371158D02*
X360343Y379031D01*
X560343D02*
Y382968D01*
X540658Y379031D02*
Y382968D01*
X544594Y371158D02*
X556405D01*
X544594Y390843D02*
X556405D01*
X552468Y371158D02*
X560343Y379031D01*
X760343D02*
Y382968D01*
X740658Y379031D02*
Y382968D01*
X744594Y371158D02*
X756405D01*
X744594Y390843D02*
X756405D01*
X752468Y371158D02*
X760343Y379031D01*
X380669Y750031D02*
X384414Y751248D01*
X374586Y768752D02*
X378331Y769969D01*
X368314Y762575D02*
X371964Y751342D01*
X387036Y768658D02*
X390686Y757425D01*
X370747Y755086D02*
X380669Y750031D01*
X359380Y721807D02*
X361694Y718622D01*
X375306Y733378D02*
X377620Y730193D01*
X357937Y730492D02*
X367492Y737434D01*
X369508Y714566D02*
X379063Y721508D01*
X359380Y721807D02*
X361122Y732806D01*
X323380Y730193D02*
X325694Y733378D01*
X339306Y718622D02*
X341620Y721807D01*
X333508Y737434D02*
X343063Y730492D01*
X321937Y721508D02*
X331492Y714566D01*
X325694Y733378D02*
X336693Y735120D01*
X322669Y769969D02*
X326414Y768752D01*
X316586Y751248D02*
X320331Y750031D01*
X329036Y751342D02*
X332686Y762575D01*
X310314Y757425D02*
X313964Y768658D01*
X326414Y768752D02*
X331469Y758831D01*
X360343Y779032D02*
Y782969D01*
X340657Y779032D02*
Y782969D01*
X344595Y771158D02*
X356405Y771158D01*
X344595Y790842D02*
X356405Y790842D01*
X352468Y771158D02*
X360343Y779032D01*
X580669Y750031D02*
X584414Y751248D01*
X574586Y768752D02*
X578331Y769969D01*
X568314Y762575D02*
X571964Y751342D01*
X587036Y768658D02*
X590686Y757425D01*
X570748Y755086D02*
X580669Y750031D01*
X559380Y721807D02*
X561694Y718622D01*
X575306Y733378D02*
X577620Y730193D01*
X557937Y730492D02*
X567492Y737434D01*
X569508Y714566D02*
X579063Y721508D01*
X559380Y721807D02*
X561122Y732806D01*
X523380Y729693D02*
X525694Y732878D01*
X539306Y718122D02*
X541620Y721307D01*
X533508Y736934D02*
X543063Y729992D01*
X521937Y721008D02*
X531492Y714066D01*
X525694Y732878D02*
X536693Y734620D01*
X522669Y769969D02*
X526414Y768752D01*
X516586Y751248D02*
X520331Y750031D01*
X529036Y751342D02*
X532686Y762575D01*
X510314Y757425D02*
X513964Y768658D01*
X526414Y768752D02*
X531469Y758831D01*
X560343Y779032D02*
Y782969D01*
X540658Y779032D02*
Y782969D01*
X544594Y771158D02*
X556405D01*
X544594Y790842D02*
X556405D01*
X552468Y771158D02*
X560343Y779032D01*
X300000Y300000D02*
Y800000D01*
Y300000D02*
X800000D01*
Y800000D01*
X300000D02*
X800000D01*
X495832Y465832D02*
X493333D01*
X492500Y464999D01*
Y463333D01*
X493333Y462500D01*
X495832D01*
X505829D02*
X502497D01*
X505829Y465832D01*
Y466665D01*
X504996Y467498D01*
X503330D01*
X502497Y466665D01*
X507495D02*
X508328Y467498D01*
X509994D01*
X510827Y466665D01*
Y463333D01*
X509994Y462500D01*
X508328D01*
X507495Y463333D01*
Y466665D01*
X515826Y462500D02*
X512494D01*
X515826Y465832D01*
Y466665D01*
X514993Y467498D01*
X513327D01*
X512494Y466665D01*
X517492Y462500D02*
X519158D01*
X518325D01*
Y467498D01*
X517492Y466665D01*
X442500Y467498D02*
Y462500D01*
X444999D01*
X445832Y463333D01*
Y464166D01*
X444999Y464999D01*
X442500D01*
X444999D01*
X445832Y465832D01*
Y466665D01*
X444999Y467498D01*
X442500D01*
X447498Y462500D02*
Y467498D01*
X449998D01*
X450831Y466665D01*
Y464999D01*
X449998Y464166D01*
X447498D01*
X449164D02*
X450831Y462500D01*
X452497Y467498D02*
X454163D01*
X453330D01*
Y462500D01*
X452497D01*
X454163D01*
X456662D02*
Y465832D01*
X458328Y467498D01*
X459994Y465832D01*
Y462500D01*
Y464999D01*
X456662D01*
X461660Y462500D02*
Y467498D01*
X464993Y462500D01*
Y467498D01*
X474990Y466665D02*
X474156Y467498D01*
X472490D01*
X471657Y466665D01*
Y463333D01*
X472490Y462500D01*
X474156D01*
X474990Y463333D01*
X479155Y467498D02*
X477489D01*
X476656Y466665D01*
Y463333D01*
X477489Y462500D01*
X479155D01*
X479988Y463333D01*
Y466665D01*
X479155Y467498D01*
X481654D02*
X484986Y462500D01*
Y467498D02*
X481654Y462500D01*
X637500Y438332D02*
Y435000D01*
Y436666D01*
X638333Y437499D01*
X639166Y438332D01*
X639999D01*
X644998Y435000D02*
X643331D01*
X642498Y435833D01*
Y437499D01*
X643331Y438332D01*
X644998D01*
X645831Y437499D01*
Y436666D01*
X642498D01*
X647497Y438332D02*
X649163Y435000D01*
X650829Y438332D01*
X652495Y435000D02*
X654161D01*
X653328D01*
Y439998D01*
X652495Y439165D01*
X656661Y435000D02*
Y435833D01*
X657493D01*
Y435000D01*
X656661D01*
X660826Y439165D02*
X661659Y439998D01*
X663325D01*
X664158Y439165D01*
Y435833D01*
X663325Y435000D01*
X661659D01*
X660826Y435833D01*
Y439165D01*
X665824Y435000D02*
X667490D01*
X666657D01*
Y439998D01*
X665824Y439165D01*
X445000Y450000D02*
X447499D01*
X448332Y450833D01*
X447499Y451666D01*
X445833D01*
X445000Y452499D01*
X445833Y453332D01*
X448332D01*
X449998Y448334D02*
Y453332D01*
X452498D01*
X453331Y452499D01*
Y450833D01*
X452498Y450000D01*
X449998D01*
X455830Y453332D02*
X457496D01*
X458329Y452499D01*
Y450000D01*
X455830D01*
X454997Y450833D01*
X455830Y451666D01*
X458329D01*
X463327Y453332D02*
X460828D01*
X459995Y452499D01*
Y450833D01*
X460828Y450000D01*
X463327D01*
X467493D02*
X465827D01*
X464993Y450833D01*
Y452499D01*
X465827Y453332D01*
X467493D01*
X468326Y452499D01*
Y451666D01*
X464993D01*
X469992Y452499D02*
X473324D01*
X477490Y450000D02*
X475823D01*
X474990Y450833D01*
Y452499D01*
X475823Y453332D01*
X477490D01*
X478323Y452499D01*
Y451666D01*
X474990D01*
X479989Y450000D02*
X481655D01*
X480822D01*
Y453332D01*
X479989D01*
X485820Y448334D02*
X486653D01*
X487486Y449167D01*
Y453332D01*
X484987D01*
X484154Y452499D01*
Y450833D01*
X484987Y450000D01*
X487486D01*
X489152Y454998D02*
Y450000D01*
Y452499D01*
X489985Y453332D01*
X491652D01*
X492485Y452499D01*
Y450000D01*
X494984Y454165D02*
Y453332D01*
X494151D01*
X495817D01*
X494984D01*
Y450833D01*
X495817Y450000D01*
X498316D02*
Y450833D01*
X499149D01*
Y450000D01*
X498316D01*
X505814Y453332D02*
X503314D01*
X502481Y452499D01*
Y450833D01*
X503314Y450000D01*
X505814D01*
X508313D02*
X509979D01*
X510812Y450833D01*
Y452499D01*
X509979Y453332D01*
X508313D01*
X507480Y452499D01*
Y450833D01*
X508313Y450000D01*
X512478D02*
Y453332D01*
X513311D01*
X514144Y452499D01*
Y450000D01*
Y452499D01*
X514977Y453332D01*
X515810Y452499D01*
Y450000D01*
X767500Y789998D02*
Y785000D01*
X769999D01*
X770832Y785833D01*
Y789165D01*
X769999Y789998D01*
X767500D01*
X772498Y785000D02*
X774164D01*
X773331D01*
Y789998D01*
X772498Y789165D01*
X776664Y785000D02*
X778330D01*
X777497D01*
Y789998D01*
X776664Y789165D01*
X717500Y784998D02*
Y780000D01*
X719999D01*
X720832Y780833D01*
Y784165D01*
X719999Y784998D01*
X717500D01*
X722498Y780000D02*
X724164D01*
X723331D01*
Y784998D01*
X722498Y784165D01*
X729996Y780000D02*
X726664D01*
X729996Y783332D01*
Y784165D01*
X729163Y784998D01*
X727497D01*
X726664Y784165D01*
X707500Y737498D02*
Y732500D01*
X709999D01*
X710832Y733333D01*
Y736665D01*
X709999Y737498D01*
X707500D01*
X712498Y732500D02*
X714164D01*
X713331D01*
Y737498D01*
X712498Y736665D01*
X716664D02*
X717497Y737498D01*
X719163D01*
X719996Y736665D01*
Y735832D01*
X719163Y734999D01*
X718330D01*
X719163D01*
X719996Y734166D01*
Y733333D01*
X719163Y732500D01*
X717497D01*
X716664Y733333D01*
X747500Y709998D02*
Y705000D01*
X749999D01*
X750832Y705833D01*
Y709165D01*
X749999Y709998D01*
X747500D01*
X752498Y705000D02*
X754165D01*
X753331D01*
Y709998D01*
X752498Y709165D01*
X759163Y705000D02*
Y709998D01*
X756664Y707499D01*
X759996D01*
X785000Y744998D02*
Y740000D01*
X787499D01*
X788332Y740833D01*
Y744165D01*
X787499Y744998D01*
X785000D01*
X789998Y740000D02*
X791665D01*
X790831D01*
Y744998D01*
X789998Y744165D01*
X797496Y744998D02*
X794164D01*
Y742499D01*
X795830Y743332D01*
X796663D01*
X797496Y742499D01*
Y740833D01*
X796663Y740000D01*
X794997D01*
X794164Y740833D01*
X367500Y589998D02*
Y585000D01*
X369999D01*
X370832Y585833D01*
Y589165D01*
X369999Y589998D01*
X367500D01*
X372498Y585000D02*
X374165D01*
X373331D01*
Y589998D01*
X372498Y589165D01*
X379996Y589998D02*
X378330Y589165D01*
X376664Y587499D01*
Y585833D01*
X377497Y585000D01*
X379163D01*
X379996Y585833D01*
Y586666D01*
X379163Y587499D01*
X376664D01*
X317500Y584998D02*
Y580000D01*
X319999D01*
X320832Y580833D01*
Y584165D01*
X319999Y584998D01*
X317500D01*
X322498Y580000D02*
X324165D01*
X323331D01*
Y584998D01*
X322498Y584165D01*
X326664Y584998D02*
X329996D01*
Y584165D01*
X326664Y580833D01*
Y580000D01*
X307500Y537498D02*
Y532500D01*
X309999D01*
X310832Y533333D01*
Y536665D01*
X309999Y537498D01*
X307500D01*
X312498Y532500D02*
X314164D01*
X313331D01*
Y537498D01*
X312498Y536665D01*
X316664D02*
X317497Y537498D01*
X319163D01*
X319996Y536665D01*
Y535832D01*
X319163Y534999D01*
X319996Y534166D01*
Y533333D01*
X319163Y532500D01*
X317497D01*
X316664Y533333D01*
Y534166D01*
X317497Y534999D01*
X316664Y535832D01*
Y536665D01*
X317497Y534999D02*
X319163D01*
X347500Y509998D02*
Y505000D01*
X349999D01*
X350832Y505833D01*
Y509165D01*
X349999Y509998D01*
X347500D01*
X352498Y505000D02*
X354165D01*
X353331D01*
Y509998D01*
X352498Y509165D01*
X356664Y505833D02*
X357497Y505000D01*
X359163D01*
X359996Y505833D01*
Y509165D01*
X359163Y509998D01*
X357497D01*
X356664Y509165D01*
Y508332D01*
X357497Y507499D01*
X359996D01*
X387500Y544998D02*
Y540000D01*
X389999D01*
X390832Y540833D01*
Y544165D01*
X389999Y544998D01*
X387500D01*
X395831Y540000D02*
X392498D01*
X395831Y543332D01*
Y544165D01*
X394998Y544998D01*
X393331D01*
X392498Y544165D01*
X397497D02*
X398330Y544998D01*
X399996D01*
X400829Y544165D01*
Y540833D01*
X399996Y540000D01*
X398330D01*
X397497Y540833D01*
Y544165D01*
X567500Y589998D02*
Y585000D01*
X569999D01*
X570832Y585833D01*
Y589165D01*
X569999Y589998D01*
X567500D01*
X575831Y585000D02*
X572498D01*
X575831Y588332D01*
Y589165D01*
X574998Y589998D01*
X573331D01*
X572498Y589165D01*
X577497Y585000D02*
X579163D01*
X578330D01*
Y589998D01*
X577497Y589165D01*
X517500Y584998D02*
Y580000D01*
X519999D01*
X520832Y580833D01*
Y584165D01*
X519999Y584998D01*
X517500D01*
X525831Y580000D02*
X522498D01*
X525831Y583332D01*
Y584165D01*
X524998Y584998D01*
X523331D01*
X522498Y584165D01*
X530829Y580000D02*
X527497D01*
X530829Y583332D01*
Y584165D01*
X529996Y584998D01*
X528330D01*
X527497Y584165D01*
X505000Y537498D02*
Y532500D01*
X507499D01*
X508332Y533333D01*
Y536665D01*
X507499Y537498D01*
X505000D01*
X513331Y532500D02*
X509998D01*
X513331Y535832D01*
Y536665D01*
X512498Y537498D01*
X510831D01*
X509998Y536665D01*
X514997D02*
X515830Y537498D01*
X517496D01*
X518329Y536665D01*
Y535832D01*
X517496Y534999D01*
X516663D01*
X517496D01*
X518329Y534166D01*
Y533333D01*
X517496Y532500D01*
X515830D01*
X514997Y533333D01*
X547500Y509998D02*
Y505000D01*
X549999D01*
X550832Y505833D01*
Y509165D01*
X549999Y509998D01*
X547500D01*
X555831Y505000D02*
X552498D01*
X555831Y508332D01*
Y509165D01*
X554998Y509998D01*
X553331D01*
X552498Y509165D01*
X559996Y505000D02*
Y509998D01*
X557497Y507499D01*
X560829D01*
X587500Y544998D02*
Y540000D01*
X589999D01*
X590832Y540833D01*
Y544165D01*
X589999Y544998D01*
X587500D01*
X595831Y540000D02*
X592498D01*
X595831Y543332D01*
Y544165D01*
X594998Y544998D01*
X593331D01*
X592498Y544165D01*
X600829Y544998D02*
X597497D01*
Y542499D01*
X599163Y543332D01*
X599996D01*
X600829Y542499D01*
Y540833D01*
X599996Y540000D01*
X598330D01*
X597497Y540833D01*
X770000Y589998D02*
Y585000D01*
X772499D01*
X773332Y585833D01*
Y589165D01*
X772499Y589998D01*
X770000D01*
X778331Y585000D02*
X774998D01*
X778331Y588332D01*
Y589165D01*
X777498Y589998D01*
X775831D01*
X774998Y589165D01*
X783329Y589998D02*
X781663Y589165D01*
X779997Y587499D01*
Y585833D01*
X780830Y585000D01*
X782496D01*
X783329Y585833D01*
Y586666D01*
X782496Y587499D01*
X779997D01*
X715000Y584998D02*
Y580000D01*
X717499D01*
X718332Y580833D01*
Y584165D01*
X717499Y584998D01*
X715000D01*
X723331Y580000D02*
X719998D01*
X723331Y583332D01*
Y584165D01*
X722498Y584998D01*
X720831D01*
X719998Y584165D01*
X724997Y584998D02*
X728329D01*
Y584165D01*
X724997Y580833D01*
Y580000D01*
X705000Y537498D02*
Y532500D01*
X707499D01*
X708332Y533333D01*
Y536665D01*
X707499Y537498D01*
X705000D01*
X713331Y532500D02*
X709998D01*
X713331Y535832D01*
Y536665D01*
X712498Y537498D01*
X710831D01*
X709998Y536665D01*
X714997D02*
X715830Y537498D01*
X717496D01*
X718329Y536665D01*
Y535832D01*
X717496Y534999D01*
X718329Y534166D01*
Y533333D01*
X717496Y532500D01*
X715830D01*
X714997Y533333D01*
Y534166D01*
X715830Y534999D01*
X714997Y535832D01*
Y536665D01*
X715830Y534999D02*
X717496D01*
X747500Y509998D02*
Y505000D01*
X749999D01*
X750832Y505833D01*
Y509165D01*
X749999Y509998D01*
X747500D01*
X755831Y505000D02*
X752498D01*
X755831Y508332D01*
Y509165D01*
X754998Y509998D01*
X753331D01*
X752498Y509165D01*
X757497Y505833D02*
X758330Y505000D01*
X759996D01*
X760829Y505833D01*
Y509165D01*
X759996Y509998D01*
X758330D01*
X757497Y509165D01*
Y508332D01*
X758330Y507499D01*
X760829D01*
X782500Y542498D02*
Y537500D01*
X784999D01*
X785832Y538333D01*
Y541665D01*
X784999Y542498D01*
X782500D01*
X787498Y541665D02*
X788331Y542498D01*
X789998D01*
X790831Y541665D01*
Y540832D01*
X789998Y539999D01*
X789164D01*
X789998D01*
X790831Y539166D01*
Y538333D01*
X789998Y537500D01*
X788331D01*
X787498Y538333D01*
X792497Y541665D02*
X793330Y542498D01*
X794996D01*
X795829Y541665D01*
Y538333D01*
X794996Y537500D01*
X793330D01*
X792497Y538333D01*
Y541665D01*
X367500Y387498D02*
Y382500D01*
X369999D01*
X370832Y383333D01*
Y386665D01*
X369999Y387498D01*
X367500D01*
X372498Y386665D02*
X373331Y387498D01*
X374998D01*
X375831Y386665D01*
Y385832D01*
X374998Y384999D01*
X374165D01*
X374998D01*
X375831Y384166D01*
Y383333D01*
X374998Y382500D01*
X373331D01*
X372498Y383333D01*
X377497Y382500D02*
X379163D01*
X378330D01*
Y387498D01*
X377497Y386665D01*
X315000Y384998D02*
Y380000D01*
X317499D01*
X318332Y380833D01*
Y384165D01*
X317499Y384998D01*
X315000D01*
X319998Y384165D02*
X320831Y384998D01*
X322498D01*
X323331Y384165D01*
Y383332D01*
X322498Y382499D01*
X321665D01*
X322498D01*
X323331Y381666D01*
Y380833D01*
X322498Y380000D01*
X320831D01*
X319998Y380833D01*
X328329Y380000D02*
X324997D01*
X328329Y383332D01*
Y384165D01*
X327496Y384998D01*
X325830D01*
X324997Y384165D01*
X305000Y339998D02*
Y335000D01*
X307499D01*
X308332Y335833D01*
Y339165D01*
X307499Y339998D01*
X305000D01*
X309998Y339165D02*
X310831Y339998D01*
X312498D01*
X313331Y339165D01*
Y338332D01*
X312498Y337499D01*
X311665D01*
X312498D01*
X313331Y336666D01*
Y335833D01*
X312498Y335000D01*
X310831D01*
X309998Y335833D01*
X314997Y339165D02*
X315830Y339998D01*
X317496D01*
X318329Y339165D01*
Y338332D01*
X317496Y337499D01*
X316663D01*
X317496D01*
X318329Y336666D01*
Y335833D01*
X317496Y335000D01*
X315830D01*
X314997Y335833D01*
X345000Y312498D02*
Y307500D01*
X347499D01*
X348332Y308333D01*
Y311665D01*
X347499Y312498D01*
X345000D01*
X349998Y311665D02*
X350831Y312498D01*
X352498D01*
X353331Y311665D01*
Y310832D01*
X352498Y309999D01*
X351664D01*
X352498D01*
X353331Y309166D01*
Y308333D01*
X352498Y307500D01*
X350831D01*
X349998Y308333D01*
X357496Y307500D02*
Y312498D01*
X354997Y309999D01*
X358329D01*
X385000Y344998D02*
Y340000D01*
X387499D01*
X388332Y340833D01*
Y344165D01*
X387499Y344998D01*
X385000D01*
X389998Y344165D02*
X390831Y344998D01*
X392498D01*
X393331Y344165D01*
Y343332D01*
X392498Y342499D01*
X391665D01*
X392498D01*
X393331Y341666D01*
Y340833D01*
X392498Y340000D01*
X390831D01*
X389998Y340833D01*
X398329Y344998D02*
X394997D01*
Y342499D01*
X396663Y343332D01*
X397496D01*
X398329Y342499D01*
Y340833D01*
X397496Y340000D01*
X395830D01*
X394997Y340833D01*
X567500Y389998D02*
Y385000D01*
X569999D01*
X570832Y385833D01*
Y389165D01*
X569999Y389998D01*
X567500D01*
X572498Y389165D02*
X573331Y389998D01*
X574998D01*
X575831Y389165D01*
Y388332D01*
X574998Y387499D01*
X574164D01*
X574998D01*
X575831Y386666D01*
Y385833D01*
X574998Y385000D01*
X573331D01*
X572498Y385833D01*
X580829Y389998D02*
X579163Y389165D01*
X577497Y387499D01*
Y385833D01*
X578330Y385000D01*
X579996D01*
X580829Y385833D01*
Y386666D01*
X579996Y387499D01*
X577497D01*
X515000Y384998D02*
Y380000D01*
X517499D01*
X518332Y380833D01*
Y384165D01*
X517499Y384998D01*
X515000D01*
X519998Y384165D02*
X520831Y384998D01*
X522498D01*
X523331Y384165D01*
Y383332D01*
X522498Y382499D01*
X521664D01*
X522498D01*
X523331Y381666D01*
Y380833D01*
X522498Y380000D01*
X520831D01*
X519998Y380833D01*
X524997Y384998D02*
X528329D01*
Y384165D01*
X524997Y380833D01*
Y380000D01*
X505000Y339998D02*
Y335000D01*
X507499D01*
X508332Y335833D01*
Y339165D01*
X507499Y339998D01*
X505000D01*
X509998Y339165D02*
X510831Y339998D01*
X512498D01*
X513331Y339165D01*
Y338332D01*
X512498Y337499D01*
X511664D01*
X512498D01*
X513331Y336666D01*
Y335833D01*
X512498Y335000D01*
X510831D01*
X509998Y335833D01*
X514997Y339165D02*
X515830Y339998D01*
X517496D01*
X518329Y339165D01*
Y338332D01*
X517496Y337499D01*
X518329Y336666D01*
Y335833D01*
X517496Y335000D01*
X515830D01*
X514997Y335833D01*
Y336666D01*
X515830Y337499D01*
X514997Y338332D01*
Y339165D01*
X515830Y337499D02*
X517496D01*
X547500Y312498D02*
Y307500D01*
X549999D01*
X550832Y308333D01*
Y311665D01*
X549999Y312498D01*
X547500D01*
X552498Y311665D02*
X553331Y312498D01*
X554998D01*
X555831Y311665D01*
Y310832D01*
X554998Y309999D01*
X554165D01*
X554998D01*
X555831Y309166D01*
Y308333D01*
X554998Y307500D01*
X553331D01*
X552498Y308333D01*
X557497D02*
X558330Y307500D01*
X559996D01*
X560829Y308333D01*
Y311665D01*
X559996Y312498D01*
X558330D01*
X557497Y311665D01*
Y310832D01*
X558330Y309999D01*
X560829D01*
X585000Y344998D02*
Y340000D01*
X587499D01*
X588332Y340833D01*
Y344165D01*
X587499Y344998D01*
X585000D01*
X592498Y340000D02*
Y344998D01*
X589998Y342499D01*
X593331D01*
X594997Y344165D02*
X595830Y344998D01*
X597496D01*
X598329Y344165D01*
Y340833D01*
X597496Y340000D01*
X595830D01*
X594997Y340833D01*
Y344165D01*
X738550Y399348D02*
Y394350D01*
X741049D01*
X741882Y395183D01*
Y398515D01*
X741049Y399348D01*
X738550D01*
X746048Y394350D02*
Y399348D01*
X743548Y396849D01*
X746881D01*
X748547Y394350D02*
X750213D01*
X749380D01*
Y399348D01*
X748547Y398515D01*
X708700Y383498D02*
Y378500D01*
X711199D01*
X712032Y379333D01*
Y382665D01*
X711199Y383498D01*
X708700D01*
X716198Y378500D02*
Y383498D01*
X713698Y380999D01*
X717031D01*
X722029Y378500D02*
X718697D01*
X722029Y381832D01*
Y382665D01*
X721196Y383498D01*
X719530D01*
X718697Y382665D01*
X717000Y350498D02*
Y345500D01*
X719499D01*
X720332Y346333D01*
Y349665D01*
X719499Y350498D01*
X717000D01*
X724498Y345500D02*
Y350498D01*
X721998Y347999D01*
X725331D01*
X726997Y349665D02*
X727830Y350498D01*
X729496D01*
X730329Y349665D01*
Y348832D01*
X729496Y347999D01*
X728663D01*
X729496D01*
X730329Y347166D01*
Y346333D01*
X729496Y345500D01*
X727830D01*
X726997Y346333D01*
X751400Y349898D02*
Y344900D01*
X753899D01*
X754732Y345733D01*
Y349065D01*
X753899Y349898D01*
X751400D01*
X758898Y344900D02*
Y349898D01*
X756398Y347399D01*
X759731D01*
X763896Y344900D02*
Y349898D01*
X761397Y347399D01*
X764729D01*
X766700Y383498D02*
Y378500D01*
X769199D01*
X770032Y379333D01*
Y382665D01*
X769199Y383498D01*
X766700D01*
X774198Y378500D02*
Y383498D01*
X771698Y380999D01*
X775031D01*
X780029Y383498D02*
X776697D01*
Y380999D01*
X778363Y381832D01*
X779196D01*
X780029Y380999D01*
Y379333D01*
X779196Y378500D01*
X777530D01*
X776697Y379333D01*
X387500Y744998D02*
Y740000D01*
X389999D01*
X390832Y740833D01*
Y744165D01*
X389999Y744998D01*
X387500D01*
X395831D02*
X392498D01*
Y742499D01*
X394164Y743332D01*
X394998D01*
X395831Y742499D01*
Y740833D01*
X394998Y740000D01*
X393331D01*
X392498Y740833D01*
X352500Y709998D02*
Y705000D01*
X354999D01*
X355832Y705833D01*
Y709165D01*
X354999Y709998D01*
X352500D01*
X359998Y705000D02*
Y709998D01*
X357498Y707499D01*
X360831D01*
X307500Y734998D02*
Y730000D01*
X309999D01*
X310832Y730833D01*
Y734165D01*
X309999Y734998D01*
X307500D01*
X312498Y734165D02*
X313331Y734998D01*
X314998D01*
X315831Y734165D01*
Y733332D01*
X314998Y732499D01*
X314164D01*
X314998D01*
X315831Y731666D01*
Y730833D01*
X314998Y730000D01*
X313331D01*
X312498Y730833D01*
X320000Y782498D02*
Y777500D01*
X322499D01*
X323332Y778333D01*
Y781665D01*
X322499Y782498D01*
X320000D01*
X328331Y777500D02*
X324998D01*
X328331Y780832D01*
Y781665D01*
X327498Y782498D01*
X325831D01*
X324998Y781665D01*
X367500Y787498D02*
Y782500D01*
X369999D01*
X370832Y783333D01*
Y786665D01*
X369999Y787498D01*
X367500D01*
X372498Y782500D02*
X374165D01*
X373331D01*
Y787498D01*
X372498Y786665D01*
X567500Y787498D02*
Y782500D01*
X569999D01*
X570832Y783333D01*
Y786665D01*
X569999Y787498D01*
X567500D01*
X575831D02*
X574164Y786665D01*
X572498Y784999D01*
Y783333D01*
X573331Y782500D01*
X574998D01*
X575831Y783333D01*
Y784166D01*
X574998Y784999D01*
X572498D01*
X520000Y782498D02*
Y777500D01*
X522499D01*
X523332Y778333D01*
Y781665D01*
X522499Y782498D01*
X520000D01*
X524998D02*
X528331D01*
Y781665D01*
X524998Y778333D01*
Y777500D01*
X507500Y737498D02*
Y732500D01*
X509999D01*
X510832Y733333D01*
Y736665D01*
X509999Y737498D01*
X507500D01*
X512498Y736665D02*
X513331Y737498D01*
X514998D01*
X515831Y736665D01*
Y735832D01*
X514998Y734999D01*
X515831Y734166D01*
Y733333D01*
X514998Y732500D01*
X513331D01*
X512498Y733333D01*
Y734166D01*
X513331Y734999D01*
X512498Y735832D01*
Y736665D01*
X513331Y734999D02*
X514998D01*
X550000Y712498D02*
Y707500D01*
X552499D01*
X553332Y708333D01*
Y711665D01*
X552499Y712498D01*
X550000D01*
X554998Y708333D02*
X555831Y707500D01*
X557498D01*
X558331Y708333D01*
Y711665D01*
X557498Y712498D01*
X555831D01*
X554998Y711665D01*
Y710832D01*
X555831Y709999D01*
X558331D01*
X587500Y744998D02*
Y740000D01*
X589999D01*
X590832Y740833D01*
Y744165D01*
X589999Y744998D01*
X587500D01*
X592498Y740000D02*
X594165D01*
X593331D01*
Y744998D01*
X592498Y744165D01*
X596664D02*
X597497Y744998D01*
X599163D01*
X599996Y744165D01*
Y740833D01*
X599163Y740000D01*
X597497D01*
X596664Y740833D01*
Y744165D01*
D30*
X503999Y675998D02*
X500000D01*
Y670000D01*
X503999D01*
X500000Y672999D02*
X501999D01*
X509997Y674998D02*
X508997Y675998D01*
X506998D01*
X505998Y674998D01*
Y673999D01*
X506998Y672999D01*
X508997D01*
X509997Y671999D01*
Y671000D01*
X508997Y670000D01*
X506998D01*
X505998Y671000D01*
X515995Y674998D02*
X514995Y675998D01*
X512996D01*
X511996Y674998D01*
Y671000D01*
X512996Y670000D01*
X514995D01*
X515995Y671000D01*
X517994Y670000D02*
Y673999D01*
X519993Y675998D01*
X521993Y673999D01*
Y670000D01*
Y672999D01*
X517994D01*
X523992Y670000D02*
Y675998D01*
X526991D01*
X527991Y674998D01*
Y672999D01*
X526991Y671999D01*
X523992D01*
X533989Y675998D02*
X529990D01*
Y670000D01*
X533989D01*
X529990Y672999D02*
X531990D01*
X539987Y674998D02*
X538987Y675998D01*
X536988D01*
X535988Y674998D01*
Y673999D01*
X536988Y672999D01*
X538987D01*
X539987Y671999D01*
Y671000D01*
X538987Y670000D01*
X536988D01*
X535988Y671000D01*
X551983Y674998D02*
X550983Y675998D01*
X548984D01*
X547985Y674998D01*
Y671000D01*
X548984Y670000D01*
X550983D01*
X551983Y671000D01*
X556982Y675998D02*
X554982D01*
X553982Y674998D01*
Y671000D01*
X554982Y670000D01*
X556982D01*
X557981Y671000D01*
Y674998D01*
X556982Y675998D01*
X563979Y674998D02*
X562980Y675998D01*
X560980D01*
X559981Y674998D01*
Y673999D01*
X560980Y672999D01*
X562980D01*
X563979Y671999D01*
Y671000D01*
X562980Y670000D01*
X560980D01*
X559981Y671000D01*
X565979Y670000D02*
Y675998D01*
X567978Y673999D01*
X569977Y675998D01*
Y670000D01*
X571977Y675998D02*
X573976D01*
X572976D01*
Y670000D01*
X571977D01*
X573976D01*
X580974Y674998D02*
X579974Y675998D01*
X577975D01*
X576975Y674998D01*
Y671000D01*
X577975Y670000D01*
X579974D01*
X580974Y671000D01*
X588971Y675998D02*
Y670000D01*
X591970D01*
X592970Y671000D01*
Y674998D01*
X591970Y675998D01*
X588971D01*
X597968D02*
X595969D01*
X594969Y674998D01*
Y671000D01*
X595969Y670000D01*
X597968D01*
X598968Y671000D01*
Y674998D01*
X597968Y675998D01*
X603966D02*
X601967D01*
X600967Y674998D01*
Y671000D01*
X601967Y670000D01*
X603966D01*
X604966Y671000D01*
Y674998D01*
X603966Y675998D01*
X606965Y670000D02*
Y675998D01*
X608965Y673999D01*
X610964Y675998D01*
Y670000D01*
X515000Y693498D02*
Y687500D01*
X517999D01*
X518999Y688500D01*
Y689499D01*
X517999Y690499D01*
X515000D01*
X517999D01*
X518999Y691499D01*
Y692498D01*
X517999Y693498D01*
X515000D01*
X520998Y687500D02*
Y691499D01*
X522997Y693498D01*
X524997Y691499D01*
Y687500D01*
Y690499D01*
X520998D01*
X526996Y693498D02*
Y687500D01*
X530995D01*
X532994Y693498D02*
Y687500D01*
X536993D01*
X538992Y693498D02*
Y692498D01*
X540992Y690499D01*
X542991Y692498D01*
Y693498D01*
X540992Y690499D02*
Y687500D01*
X550988Y693498D02*
Y689499D01*
X552988Y687500D01*
X554987Y689499D01*
Y693498D01*
X559985D02*
X557986D01*
X556986Y692498D01*
Y688500D01*
X557986Y687500D01*
X559985D01*
X560985Y688500D01*
Y692498D01*
X559985Y693498D01*
X562985D02*
Y687500D01*
X566983D01*
X568983Y693498D02*
X572981D01*
X570982D01*
Y687500D01*
X574981D02*
Y691499D01*
X576980Y693498D01*
X578979Y691499D01*
Y687500D01*
Y690499D01*
X574981D01*
X580979Y687500D02*
Y693498D01*
X584977Y687500D01*
Y693498D01*
X641499Y455998D02*
X637500D01*
Y452999D01*
X639499Y453999D01*
X640499D01*
X641499Y452999D01*
Y451000D01*
X640499Y450000D01*
X638500D01*
X637500Y451000D01*
X643498Y454998D02*
X644498Y455998D01*
X646497D01*
X647497Y454998D01*
Y451000D01*
X646497Y450000D01*
X644498D01*
X643498Y451000D01*
Y454998D01*
X653495Y455998D02*
X649496D01*
Y452999D01*
X651496Y453999D01*
X652495D01*
X653495Y452999D01*
Y451000D01*
X652495Y450000D01*
X650496D01*
X649496Y451000D01*
X655494Y450000D02*
X657493D01*
X656494D01*
Y455998D01*
X655494Y454998D01*
X660493D02*
X661492Y455998D01*
X663492D01*
X664491Y454998D01*
Y453999D01*
X663492Y452999D01*
X664491Y451999D01*
Y451000D01*
X663492Y450000D01*
X661492D01*
X660493Y451000D01*
Y451999D01*
X661492Y452999D01*
X660493Y453999D01*
Y454998D01*
X661492Y452999D02*
X663492D01*
X670489Y455998D02*
X666491D01*
Y452999D01*
X668490Y453999D01*
X669490D01*
X670489Y452999D01*
Y451000D01*
X669490Y450000D01*
X667490D01*
X666491Y451000D01*
M02*
