%FSLAX25Y25*%
%MOIN*%
G70*
G01*
G75*
G04 Layer_Color=65535*
%ADD10R,0.05000X0.08000*%
%ADD11R,0.05906X0.05906*%
%ADD12P,0.08352X4X297.0*%
%ADD13P,0.08352X4X207.0*%
%ADD14R,0.05906X0.05906*%
%ADD15P,0.08352X4X63.0*%
%ADD16P,0.08352X4X153.0*%
%ADD17C,0.02500*%
%ADD18C,0.16500*%
%ADD19C,0.04000*%
%ADD20R,0.17716X0.12205*%
G04:AMPARAMS|DCode=21|XSize=80mil|YSize=50mil|CornerRadius=0mil|HoleSize=0mil|Usage=FLASHONLY|Rotation=108.000|XOffset=0mil|YOffset=0mil|HoleType=Round|Shape=Rectangle|*
%AMROTATEDRECTD21*
4,1,4,0.03614,-0.03032,-0.01142,-0.04577,-0.03614,0.03032,0.01142,0.04577,0.03614,-0.03032,0.0*
%
%ADD21ROTATEDRECTD21*%

G04:AMPARAMS|DCode=22|XSize=80mil|YSize=50mil|CornerRadius=0mil|HoleSize=0mil|Usage=FLASHONLY|Rotation=252.000|XOffset=0mil|YOffset=0mil|HoleType=Round|Shape=Rectangle|*
%AMROTATEDRECTD22*
4,1,4,-0.01142,0.04577,0.03614,0.03032,0.01142,-0.04577,-0.03614,-0.03032,-0.01142,0.04577,0.0*
%
%ADD22ROTATEDRECTD22*%

%ADD23C,0.01000*%
%ADD24C,0.01200*%
D23*
X537808Y520706D02*
G03*
X529578Y497099I-4115J-11803D01*
G01*
X501513Y374972D02*
G03*
X536679Y362867I17675J-5783D01*
G01*
X538943Y520310D02*
G03*
X554861Y527999I4115J11803D01*
G01*
X538402Y480786D02*
G03*
X530713Y496704I-11803J4115D01*
G01*
X563125Y411770D02*
G03*
X551369Y403519I0J-12500D01*
G01*
X609286D02*
G03*
X597530Y411770I-11756J-4248D01*
G01*
X629942Y496704D02*
G03*
X622254Y480786I4115J-11803D01*
G01*
X605794Y527999D02*
G03*
X621712Y520310I11803J4115D01*
G01*
X623977Y362867D02*
G03*
X659143Y374972I17491J6321D01*
G01*
X631077Y497099D02*
G03*
X622847Y520706I-4115J11803D01*
G01*
X591680Y568485D02*
G03*
X568975Y568485I-11353J-3958D01*
G01*
X545800Y509000D02*
G03*
X545800Y509000I-12000J0D01*
G01*
X638800Y508900D02*
G03*
X638800Y508900I-12000J0D01*
G01*
X592300Y424300D02*
G03*
X592300Y424300I-12000J0D01*
G01*
X596048Y448826D02*
G03*
X596048Y448826I-984J0D01*
G01*
X510833Y366392D02*
G03*
X510833Y366392I-984J0D01*
G01*
X526676Y439051D02*
G03*
X526676Y439051I-984J0D01*
G01*
X550376Y514551D02*
G03*
X550376Y514551I-984J0D01*
G01*
X589058Y562964D02*
G03*
X589058Y562964I-984J0D01*
G01*
X617359Y499474D02*
G03*
X617359Y499474I-984J0D01*
G01*
X627011Y446374D02*
G03*
X627011Y446374I-984J0D01*
G01*
X637858Y361726D02*
G03*
X637858Y361726I-984J0D01*
G01*
X537808Y520706D02*
X538943Y520310D01*
X554861Y527999D02*
X568975Y568485D01*
X529578Y497099D02*
X530713Y496704D01*
X501513Y374972D02*
X538402Y480786D01*
X563125Y411770D02*
X580328D01*
X536679Y362867D02*
X551369Y403519D01*
X609286D02*
X623977Y362867D01*
X580328Y411770D02*
X597530D01*
X622254Y480786D02*
X659143Y374972D01*
X629942Y496704D02*
X631077Y497099D01*
X591680Y568485D02*
X605794Y527999D01*
X621712Y520310D02*
X622847Y520706D01*
X571284Y480116D02*
X588316Y480116D01*
X571284Y471084D02*
Y480116D01*
Y471084D02*
X588316Y471084D01*
Y480116D01*
X582268Y446858D02*
X590142Y454732D01*
X574395Y466542D02*
X586205D01*
X574395Y446858D02*
X586205D01*
X570458Y454732D02*
Y458669D01*
X590142Y454732D02*
Y458669D01*
X511931Y379169D02*
X516986Y369248D01*
X529436Y369342D02*
X533086Y380575D01*
X510714Y375425D02*
X514364Y386658D01*
X523069Y387969D02*
X526814Y386753D01*
X516986Y369248D02*
X520731Y368031D01*
X528547Y431914D02*
X538469Y436969D01*
X528642Y419464D02*
X539875Y415814D01*
X534725Y438186D02*
X545958Y434536D01*
X546053Y422086D02*
X547269Y425831D01*
X527331Y428169D02*
X528547Y431914D01*
X552247Y507414D02*
X562169Y512469D01*
X552342Y494964D02*
X563575Y491314D01*
X558425Y513686D02*
X569658Y510036D01*
X569753Y497586D02*
X570969Y501331D01*
X551031Y503669D02*
X552247Y507414D01*
X582168Y558042D02*
X590042Y550169D01*
X570358Y542295D02*
Y554106D01*
X590042Y542295D02*
Y554106D01*
X578231Y538357D02*
X582168D01*
X578231Y558042D02*
X582168D01*
X604814Y493647D02*
X609869Y503569D01*
X591242Y509936D02*
X602475Y513586D01*
X597325Y491214D02*
X608558Y494864D01*
X589931Y501231D02*
X591148Y497486D01*
X608652Y507314D02*
X609869Y503569D01*
X621931Y439869D02*
X631852Y434814D01*
X611914Y432475D02*
X615564Y421242D01*
X630636Y438558D02*
X634286Y427325D01*
X624269Y419931D02*
X628014Y421147D01*
X618186Y438653D02*
X621931Y439869D01*
X631047Y373286D02*
X640969Y368231D01*
X647336Y386858D02*
X650986Y375625D01*
X628614Y380775D02*
X632264Y369542D01*
X634886Y386952D02*
X638631Y388169D01*
X640969Y368231D02*
X644714Y369447D01*
X563545Y520754D02*
X562000Y516000D01*
X564377Y515228D01*
X565427Y515763D01*
X566456Y518932D01*
X565921Y519981D01*
X563545Y520754D01*
X569131Y513683D02*
X570675Y518437D01*
X567526Y516832D01*
X570695Y515803D01*
X529545Y415754D02*
X528000Y411000D01*
X530377Y410228D01*
X531427Y410763D01*
X532456Y413932D01*
X531921Y414982D01*
X529545Y415754D01*
X534041Y413417D02*
X535091Y413952D01*
X536675Y413437D01*
X537210Y412387D01*
X536953Y411595D01*
X535903Y411060D01*
X535111Y411317D01*
X535903Y411060D01*
X536438Y410010D01*
X536180Y409218D01*
X535131Y408683D01*
X533546Y409198D01*
X533011Y410248D01*
X524545Y398754D02*
X523000Y394000D01*
X525377Y393228D01*
X526427Y393763D01*
X527456Y396932D01*
X526922Y397981D01*
X524545Y398754D01*
X530923Y391426D02*
X527754Y392455D01*
X531953Y394595D01*
X532210Y395387D01*
X531675Y396437D01*
X530091Y396952D01*
X529041Y396417D01*
X595500Y469498D02*
Y464500D01*
X597999D01*
X598832Y465333D01*
Y468665D01*
X597999Y469498D01*
X595500D01*
X600498Y464500D02*
X602165D01*
X601331D01*
Y469498D01*
X600498Y468665D01*
X564532Y477065D02*
X563699Y477898D01*
X562033D01*
X561200Y477065D01*
Y473733D01*
X562033Y472900D01*
X563699D01*
X564532Y473733D01*
X566198Y472900D02*
X567865D01*
X567031D01*
Y477898D01*
X566198Y477065D01*
X626455Y395754D02*
X628000Y391000D01*
X630377Y391772D01*
X630912Y392822D01*
X629882Y395991D01*
X628832Y396526D01*
X626455Y395754D01*
X631467Y396506D02*
X632001Y397556D01*
X633586Y398071D01*
X634636Y397536D01*
X634893Y396743D01*
X634358Y395694D01*
X635408Y395159D01*
X635666Y394367D01*
X635131Y393317D01*
X633546Y392802D01*
X632496Y393337D01*
X632239Y394129D01*
X632774Y395179D01*
X631724Y395714D01*
X631467Y396506D01*
X632774Y395179D02*
X634358Y395694D01*
X612955Y448254D02*
X614500Y443500D01*
X616877Y444272D01*
X617412Y445322D01*
X616382Y448491D01*
X615332Y449026D01*
X612955Y448254D01*
X617709Y449798D02*
X620878Y450828D01*
X621136Y450036D01*
X618996Y445837D01*
X619254Y445045D01*
X590955Y518254D02*
X592500Y513500D01*
X594877Y514272D01*
X595412Y515322D01*
X594382Y518491D01*
X593332Y519026D01*
X590955Y518254D01*
X598878Y520828D02*
X597551Y519521D01*
X596482Y517421D01*
X596996Y515837D01*
X598046Y515302D01*
X599631Y515817D01*
X600166Y516867D01*
X599908Y517659D01*
X598858Y518194D01*
X596482Y517421D01*
X571500Y568498D02*
Y563500D01*
X573999D01*
X574832Y564333D01*
Y567665D01*
X573999Y568498D01*
X571500D01*
X579831D02*
X576498D01*
Y565999D01*
X578164Y566832D01*
X578998D01*
X579831Y565999D01*
Y564333D01*
X578998Y563500D01*
X577331D01*
X576498Y564333D01*
X601668Y416500D02*
X605000D01*
X603334D01*
X602501Y417333D01*
X601668Y418166D01*
Y418999D01*
X605000Y423998D02*
Y422331D01*
X604167Y421498D01*
X602501D01*
X601668Y422331D01*
Y423998D01*
X602501Y424831D01*
X603334D01*
Y421498D01*
X601668Y426497D02*
X605000Y428163D01*
X601668Y429829D01*
X605000Y431495D02*
Y433161D01*
Y432328D01*
X600002D01*
X600835Y431495D01*
X605000Y435661D02*
X604167D01*
Y436493D01*
X605000D01*
Y435661D01*
X600835Y439826D02*
X600002Y440659D01*
Y442325D01*
X600835Y443158D01*
X604167D01*
X605000Y442325D01*
Y440659D01*
X604167Y439826D01*
X600835D01*
X605000Y447323D02*
X600002D01*
X602501Y444824D01*
Y448156D01*
D24*
X556502Y419999D02*
Y416000D01*
X559501D01*
X558501Y417999D01*
Y418999D01*
X559501Y419999D01*
X561500D01*
X562500Y418999D01*
Y417000D01*
X561500Y416000D01*
X557502Y421998D02*
X556502Y422998D01*
Y424997D01*
X557502Y425997D01*
X561500D01*
X562500Y424997D01*
Y422998D01*
X561500Y421998D01*
X557502D01*
X556502Y431995D02*
Y427996D01*
X559501D01*
X558501Y429995D01*
Y430995D01*
X559501Y431995D01*
X561500D01*
X562500Y430995D01*
Y428996D01*
X561500Y427996D01*
X562500Y433994D02*
Y435993D01*
Y434994D01*
X556502D01*
X557502Y433994D01*
X556502Y438993D02*
Y442991D01*
X557502D01*
X561500Y438993D01*
X562500D01*
X557502Y444991D02*
X556502Y445990D01*
Y447990D01*
X557502Y448989D01*
X561500D01*
X562500Y447990D01*
Y445990D01*
X561500Y444991D01*
X557502D01*
M02*
