%FSLAX25Y25*%
%MOIN*%
G70*
G01*
G75*
G04 Layer_Color=65535*
%ADD10P,0.08352X4X285.0*%
%ADD11P,0.08352X4X165.0*%
%ADD12R,0.05906X0.05906*%
%ADD13C,0.02500*%
%ADD14C,0.05000*%
%ADD15C,0.16500*%
%ADD16R,0.12500X0.12500*%
%ADD17C,0.12500*%
%ADD18C,0.04000*%
%ADD19R,0.17716X0.12205*%
%ADD20R,0.08000X0.05000*%
%ADD21C,0.01000*%
%ADD22C,0.01200*%
D21*
X707036Y625662D02*
G03*
X693767Y602402I17964J-25662D01*
G01*
X756217Y602601D02*
G03*
X742964Y625662I-31217J-2601D01*
G01*
X712952Y571085D02*
G03*
X737048Y571085I12048J28915D01*
G01*
X482036Y625662D02*
G03*
X468767Y602402I17964J-25662D01*
G01*
X531217Y602601D02*
G03*
X517964Y625662I-31217J-2601D01*
G01*
X487952Y571085D02*
G03*
X512048Y571085I12048J28915D01*
G01*
X630464Y574338D02*
G03*
X643733Y597598I-17964J25662D01*
G01*
X581283Y597399D02*
G03*
X594536Y574338I31217J2601D01*
G01*
X624548Y628915D02*
G03*
X600452Y628915I-12048J-28915D01*
G01*
X405464Y574338D02*
G03*
X418733Y597598I-17964J25662D01*
G01*
X356283Y597399D02*
G03*
X369536Y574338I31217J2601D01*
G01*
X399548Y628915D02*
G03*
X375452Y628915I-12048J-28915D01*
G01*
X262952Y571085D02*
G03*
X287048Y571085I12048J28915D01*
G01*
X306217Y602601D02*
G03*
X292964Y625662I-31217J-2601D01*
G01*
X257036D02*
G03*
X243767Y602402I17964J-25662D01*
G01*
X279283Y581151D02*
G03*
X279283Y581151I-984J0D01*
G01*
X257922Y606723D02*
G03*
X257922Y606723I-984J0D01*
G01*
X290748Y612126D02*
G03*
X290748Y612126I-984J0D01*
G01*
X385185Y618849D02*
G03*
X385185Y618849I-984J0D01*
G01*
X406547Y593277D02*
G03*
X406547Y593277I-984J0D01*
G01*
X373721Y587874D02*
G03*
X373721Y587874I-984J0D01*
G01*
X504283Y581151D02*
G03*
X504283Y581151I-984J0D01*
G01*
X482922Y606723D02*
G03*
X482922Y606723I-984J0D01*
G01*
X515748Y612126D02*
G03*
X515748Y612126I-984J0D01*
G01*
X610185Y618849D02*
G03*
X610185Y618849I-984J0D01*
G01*
X631547Y593277D02*
G03*
X631547Y593277I-984J0D01*
G01*
X598721Y587874D02*
G03*
X598721Y587874I-984J0D01*
G01*
X729283Y581151D02*
G03*
X729283Y581151I-984J0D01*
G01*
X707922Y606723D02*
G03*
X707922Y606723I-984J0D01*
G01*
X740748Y612126D02*
G03*
X740748Y612126I-984J0D01*
G01*
X774500Y637500D02*
G03*
X774500Y637500I-12000J0D01*
G01*
Y562500D02*
G03*
X774500Y562500I-12000J0D01*
G01*
X249500D02*
G03*
X249500Y562500I-12000J0D01*
G01*
Y637500D02*
G03*
X249500Y637500I-12000J0D01*
G01*
X225000Y650000D02*
X775000D01*
Y550000D02*
Y650000D01*
X225000Y550000D02*
X775000D01*
X225000D02*
Y650000D01*
X285874Y582460D02*
X289283Y580492D01*
X295717Y599508D02*
X299126Y597540D01*
X281023Y589807D02*
X286929Y600036D01*
X298071Y579964D02*
X303977Y590193D01*
X282992Y593217D02*
X285874Y582460D01*
X250874Y597540D02*
X254283Y599508D01*
X260717Y580492D02*
X264126Y582460D01*
X263071Y600036D02*
X268977Y589807D01*
X246023Y590193D02*
X251929Y579964D01*
X254283Y599508D02*
X265040Y596626D01*
X284842Y618032D02*
Y621969D01*
X265158Y618032D02*
Y621969D01*
X269094Y610157D02*
X280906D01*
X269094Y629843D02*
X280906D01*
X276969Y610157D02*
X284842Y618032D01*
X373217Y619508D02*
X376626Y617540D01*
X363374Y602460D02*
X366783Y600492D01*
X375571Y599964D02*
X381477Y610193D01*
X358523Y609807D02*
X364429Y620036D01*
X376626Y617540D02*
X379508Y606783D01*
X408216Y600492D02*
X411626Y602460D01*
X398374Y617540D02*
X401784Y619508D01*
X393523Y610193D02*
X399429Y599964D01*
X410571Y620036D02*
X416477Y609807D01*
X397460Y603374D02*
X408216Y600492D01*
X377658Y578031D02*
Y581968D01*
X397342Y578031D02*
Y581968D01*
X381594Y589843D02*
X393406D01*
X381594Y570157D02*
X393406D01*
X377658Y581968D02*
X385531Y589843D01*
X510874Y582460D02*
X514284Y580492D01*
X520716Y599508D02*
X524126Y597540D01*
X506023Y589807D02*
X511929Y600036D01*
X523071Y579964D02*
X528977Y590193D01*
X507992Y593217D02*
X510874Y582460D01*
X475874Y597540D02*
X479284Y599508D01*
X485716Y580492D02*
X489126Y582460D01*
X488071Y600036D02*
X493977Y589807D01*
X471023Y590193D02*
X476929Y579964D01*
X479284Y599508D02*
X490040Y596626D01*
X509842Y618032D02*
Y621969D01*
X490158Y618032D02*
Y621969D01*
X494095Y610157D02*
X505905D01*
X494095Y629843D02*
X505905D01*
X501968Y610157D02*
X509842Y618032D01*
X598216Y619508D02*
X601626Y617540D01*
X588374Y602460D02*
X591784Y600492D01*
X600571Y599964D02*
X606477Y610193D01*
X583523Y609807D02*
X589429Y620036D01*
X601626Y617540D02*
X604508Y606783D01*
X633216Y600492D02*
X636626Y602460D01*
X623374Y617540D02*
X626784Y619508D01*
X618523Y610193D02*
X624429Y599964D01*
X635571Y620036D02*
X641477Y609807D01*
X622460Y603374D02*
X633216Y600492D01*
X602658Y578031D02*
Y581968D01*
X622342Y578031D02*
Y581968D01*
X606595Y589843D02*
X618405D01*
X606595Y570157D02*
X618405D01*
X602658Y581968D02*
X610532Y589843D01*
X735874Y582460D02*
X739284Y580492D01*
X745716Y599508D02*
X749126Y597540D01*
X731023Y589807D02*
X736929Y600036D01*
X748071Y579964D02*
X753977Y590193D01*
X732992Y593217D02*
X735874Y582460D01*
X700874Y597540D02*
X704284Y599508D01*
X710716Y580492D02*
X714126Y582460D01*
X713071Y600036D02*
X718977Y589807D01*
X696023Y590193D02*
X701929Y579964D01*
X704284Y599508D02*
X715040Y596626D01*
X734842Y618032D02*
Y621969D01*
X715158Y618032D02*
Y621969D01*
X719095Y610157D02*
X730905D01*
X719095Y629843D02*
X730905D01*
X726968Y610157D02*
X734842Y618032D01*
X662500Y635000D02*
Y632501D01*
X663333Y631668D01*
X664166Y632501D01*
Y634167D01*
X664999Y635000D01*
X665832Y634167D01*
Y631668D01*
X660834Y630002D02*
X665832D01*
Y627502D01*
X664999Y626669D01*
X663333D01*
X662500Y627502D01*
Y630002D01*
X665832Y624170D02*
Y622504D01*
X664999Y621671D01*
X662500D01*
Y624170D01*
X663333Y625003D01*
X664166Y624170D01*
Y621671D01*
X665832Y616673D02*
Y619172D01*
X664999Y620005D01*
X663333D01*
X662500Y619172D01*
Y616673D01*
Y612507D02*
Y614173D01*
X663333Y615006D01*
X664999D01*
X665832Y614173D01*
Y612507D01*
X664999Y611674D01*
X664166D01*
Y615006D01*
X664999Y610008D02*
Y606676D01*
X662500Y602510D02*
Y604177D01*
X663333Y605010D01*
X664999D01*
X665832Y604177D01*
Y602510D01*
X664999Y601678D01*
X664166D01*
Y605010D01*
X662500Y600011D02*
Y598345D01*
Y599178D01*
X665832D01*
Y600011D01*
X660834Y594180D02*
Y593347D01*
X661667Y592514D01*
X665832D01*
Y595013D01*
X664999Y595846D01*
X663333D01*
X662500Y595013D01*
Y592514D01*
X667498Y590848D02*
X662500D01*
X664999D01*
X665832Y590015D01*
Y588348D01*
X664999Y587515D01*
X662500D01*
X666665Y585016D02*
X665832D01*
Y585849D01*
Y584183D01*
Y585016D01*
X663333D01*
X662500Y584183D01*
Y581684D02*
X663333D01*
Y580851D01*
X662500D01*
Y581684D01*
X665832Y574186D02*
Y576686D01*
X664999Y577519D01*
X663333D01*
X662500Y576686D01*
Y574186D01*
Y571687D02*
Y570021D01*
X663333Y569188D01*
X664999D01*
X665832Y570021D01*
Y571687D01*
X664999Y572520D01*
X663333D01*
X662500Y571687D01*
Y567522D02*
X665832D01*
Y566689D01*
X664999Y565856D01*
X662500D01*
X664999D01*
X665832Y565023D01*
X664999Y564190D01*
X662500D01*
X345336Y592881D02*
X342004D01*
X343670D01*
X344503Y592048D01*
X345336Y591215D01*
Y590381D01*
X342004Y585383D02*
Y587049D01*
X342837Y587882D01*
X344503D01*
X345336Y587049D01*
Y585383D01*
X344503Y584550D01*
X343670D01*
Y587882D01*
X345336Y582884D02*
X342004Y581218D01*
X345336Y579552D01*
X342004Y577885D02*
Y576219D01*
Y577052D01*
X347002D01*
X346169Y577885D01*
X342004Y573720D02*
X342837D01*
Y572887D01*
X342004D01*
Y573720D01*
X346169Y569555D02*
X347002Y568722D01*
Y567056D01*
X346169Y566223D01*
X342837D01*
X342004Y567056D01*
Y568722D01*
X342837Y569555D01*
X346169D01*
X342004Y564557D02*
Y562890D01*
Y563724D01*
X347002D01*
X346169Y564557D01*
X679998Y637500D02*
X675000D01*
Y635001D01*
X675833Y634168D01*
X676666D01*
X677499Y635001D01*
Y637500D01*
Y635001D01*
X678332Y634168D01*
X679165D01*
X679998Y635001D01*
Y637500D01*
X675000Y632502D02*
X679998D01*
Y630002D01*
X679165Y629169D01*
X677499D01*
X676666Y630002D01*
Y632502D01*
Y630835D02*
X675000Y629169D01*
X679998Y627503D02*
Y625837D01*
Y626670D01*
X675000D01*
Y627503D01*
Y625837D01*
Y623338D02*
X678332D01*
X679998Y621672D01*
X678332Y620006D01*
X675000D01*
X677499D01*
Y623338D01*
X675000Y618339D02*
X679998D01*
X675000Y615007D01*
X679998D01*
X679165Y605011D02*
X679998Y605844D01*
Y607510D01*
X679165Y608343D01*
X675833D01*
X675000Y607510D01*
Y605844D01*
X675833Y605011D01*
X679998Y600845D02*
Y602511D01*
X679165Y603344D01*
X675833D01*
X675000Y602511D01*
Y600845D01*
X675833Y600012D01*
X679165D01*
X679998Y600845D01*
Y598346D02*
X675000Y595014D01*
X679998D02*
X675000Y598346D01*
X678332Y584168D02*
Y586667D01*
X677499Y587500D01*
X675833D01*
X675000Y586667D01*
Y584168D01*
Y574171D02*
Y577503D01*
X678332Y574171D01*
X679165D01*
X679998Y575004D01*
Y576670D01*
X679165Y577503D01*
Y572505D02*
X679998Y571672D01*
Y570006D01*
X679165Y569173D01*
X675833D01*
X675000Y570006D01*
Y571672D01*
X675833Y572505D01*
X679165D01*
X675000Y564174D02*
Y567507D01*
X678332Y564174D01*
X679165D01*
X679998Y565007D01*
Y566673D01*
X679165Y567507D01*
X675000Y562508D02*
Y560842D01*
Y561675D01*
X679998D01*
X679165Y562508D01*
X722500Y639998D02*
Y635000D01*
X724999D01*
X725832Y635833D01*
Y639165D01*
X724999Y639998D01*
X722500D01*
X727498Y635000D02*
X729165D01*
X728331D01*
Y639998D01*
X727498Y639165D01*
X692500Y574998D02*
Y570000D01*
X694999D01*
X695832Y570833D01*
Y574165D01*
X694999Y574998D01*
X692500D01*
X700831Y570000D02*
X697498D01*
X700831Y573332D01*
Y574165D01*
X699998Y574998D01*
X698331D01*
X697498Y574165D01*
X755000Y584998D02*
Y580000D01*
X757499D01*
X758332Y580833D01*
Y584165D01*
X757499Y584998D01*
X755000D01*
X759998Y584165D02*
X760831Y584998D01*
X762498D01*
X763331Y584165D01*
Y583332D01*
X762498Y582499D01*
X761664D01*
X762498D01*
X763331Y581666D01*
Y580833D01*
X762498Y580000D01*
X760831D01*
X759998Y580833D01*
X610000Y564998D02*
Y560000D01*
X612499D01*
X613332Y560833D01*
Y564165D01*
X612499Y564998D01*
X610000D01*
X617498Y560000D02*
Y564998D01*
X614998Y562499D01*
X618331D01*
X642500Y622498D02*
Y617500D01*
X644999D01*
X645832Y618333D01*
Y621665D01*
X644999Y622498D01*
X642500D01*
X650831D02*
X647498D01*
Y619999D01*
X649164Y620832D01*
X649998D01*
X650831Y619999D01*
Y618333D01*
X649998Y617500D01*
X648331D01*
X647498Y618333D01*
X575000Y622498D02*
Y617500D01*
X577499D01*
X578332Y618333D01*
Y621665D01*
X577499Y622498D01*
X575000D01*
X583331D02*
X581665Y621665D01*
X579998Y619999D01*
Y618333D01*
X580831Y617500D01*
X582498D01*
X583331Y618333D01*
Y619166D01*
X582498Y619999D01*
X579998D01*
X497500Y639998D02*
Y635000D01*
X499999D01*
X500832Y635833D01*
Y639165D01*
X499999Y639998D01*
X497500D01*
X502498D02*
X505831D01*
Y639165D01*
X502498Y635833D01*
Y635000D01*
X460000Y584998D02*
Y580000D01*
X462499D01*
X463332Y580833D01*
Y584165D01*
X462499Y584998D01*
X460000D01*
X464998Y584165D02*
X465831Y584998D01*
X467498D01*
X468331Y584165D01*
Y583332D01*
X467498Y582499D01*
X468331Y581666D01*
Y580833D01*
X467498Y580000D01*
X465831D01*
X464998Y580833D01*
Y581666D01*
X465831Y582499D01*
X464998Y583332D01*
Y584165D01*
X465831Y582499D02*
X467498D01*
X530654Y587253D02*
Y582254D01*
X533153D01*
X533987Y583087D01*
Y586420D01*
X533153Y587253D01*
X530654D01*
X535653Y583087D02*
X536486Y582254D01*
X538152D01*
X538985Y583087D01*
Y586420D01*
X538152Y587253D01*
X536486D01*
X535653Y586420D01*
Y585587D01*
X536486Y584754D01*
X538985D01*
X380000Y564998D02*
Y560000D01*
X382499D01*
X383332Y560833D01*
Y564165D01*
X382499Y564998D01*
X380000D01*
X384998Y560000D02*
X386665D01*
X385831D01*
Y564998D01*
X384998Y564165D01*
X389164D02*
X389997Y564998D01*
X391663D01*
X392496Y564165D01*
Y560833D01*
X391663Y560000D01*
X389997D01*
X389164Y560833D01*
Y564165D01*
X418151Y618904D02*
Y613906D01*
X420651D01*
X421484Y614739D01*
Y618071D01*
X420651Y618904D01*
X418151D01*
X423150Y613906D02*
X424816D01*
X423983D01*
Y618904D01*
X423150Y618071D01*
X427315Y613906D02*
X428981D01*
X428148D01*
Y618904D01*
X427315Y618071D01*
X356652Y639362D02*
Y634363D01*
X359151D01*
X359984Y635196D01*
Y638529D01*
X359151Y639362D01*
X356652D01*
X361650Y634363D02*
X363316D01*
X362483D01*
Y639362D01*
X361650Y638529D01*
X369148Y634363D02*
X365815D01*
X369148Y637696D01*
Y638529D01*
X368315Y639362D01*
X366649D01*
X365815Y638529D01*
X263050Y638348D02*
Y633350D01*
X265549D01*
X266382Y634183D01*
Y637515D01*
X265549Y638348D01*
X263050D01*
X268048Y633350D02*
X269714D01*
X268881D01*
Y638348D01*
X268048Y637515D01*
X272214D02*
X273047Y638348D01*
X274713D01*
X275546Y637515D01*
Y636682D01*
X274713Y635849D01*
X273880D01*
X274713D01*
X275546Y635016D01*
Y634183D01*
X274713Y633350D01*
X273047D01*
X272214Y634183D01*
X232500Y587498D02*
Y582500D01*
X234999D01*
X235832Y583333D01*
Y586665D01*
X234999Y587498D01*
X232500D01*
X237498Y582500D02*
X239164D01*
X238331D01*
Y587498D01*
X237498Y586665D01*
X244163Y582500D02*
Y587498D01*
X241664Y584999D01*
X244996D01*
X292500Y569998D02*
Y565000D01*
X294999D01*
X295832Y565833D01*
Y569165D01*
X294999Y569998D01*
X292500D01*
X297498Y565000D02*
X299165D01*
X298331D01*
Y569998D01*
X297498Y569165D01*
X304996Y569998D02*
X301664D01*
Y567499D01*
X303330Y568332D01*
X304163D01*
X304996Y567499D01*
Y565833D01*
X304163Y565000D01*
X302497D01*
X301664Y565833D01*
D22*
X317500Y615000D02*
X323498D01*
X321499Y613001D01*
X323498Y611001D01*
X317500D01*
Y609002D02*
X321499D01*
X323498Y607003D01*
X321499Y605003D01*
X317500D01*
X320499D01*
Y609002D01*
X317500Y603004D02*
X323498D01*
X317500Y599005D01*
X323498D01*
Y597006D02*
Y595007D01*
Y596006D01*
X317500D01*
Y597006D01*
Y595007D01*
Y592007D02*
X321499D01*
X323498Y590008D01*
X321499Y588009D01*
X317500D01*
X320499D01*
Y592007D01*
X332498Y623501D02*
X333498Y624501D01*
Y626500D01*
X332498Y627500D01*
X331499D01*
X330499Y626500D01*
Y624501D01*
X329499Y623501D01*
X328500D01*
X327500Y624501D01*
Y626500D01*
X328500Y627500D01*
X333498Y621502D02*
Y619503D01*
Y620502D01*
X327500D01*
Y621502D01*
Y619503D01*
X333498Y616504D02*
X327500D01*
Y612505D01*
X333498Y610505D02*
X329499D01*
X327500Y608506D01*
X329499Y606507D01*
X333498D01*
Y600509D02*
Y604507D01*
X327500D01*
Y600509D01*
X330499Y604507D02*
Y602508D01*
X327500Y598509D02*
X333498D01*
Y595510D01*
X332498Y594511D01*
X330499D01*
X329499Y595510D01*
Y598509D01*
Y596510D02*
X327500Y594511D01*
X333498Y592511D02*
X327500D01*
Y589512D01*
X328500Y588513D01*
X329499D01*
X330499Y589512D01*
Y592511D01*
Y589512D01*
X331499Y588513D01*
X332498D01*
X333498Y589512D01*
Y592511D01*
X327500Y586513D02*
X331499D01*
X333498Y584514D01*
X331499Y582514D01*
X327500D01*
X330499D01*
Y586513D01*
X333498Y580515D02*
X327500D01*
Y576516D01*
X333498Y574517D02*
X327500D01*
Y570518D01*
X348002Y631382D02*
Y635381D01*
X345003D01*
X346003Y633381D01*
Y632382D01*
X345003Y631382D01*
X343004D01*
X342004Y632382D01*
Y634381D01*
X343004Y635381D01*
X347002Y629383D02*
X348002Y628383D01*
Y626384D01*
X347002Y625384D01*
X343004D01*
X342004Y626384D01*
Y628383D01*
X343004Y629383D01*
X347002D01*
X348002Y619386D02*
Y623385D01*
X345003D01*
X346003Y621385D01*
Y620386D01*
X345003Y619386D01*
X343004D01*
X342004Y620386D01*
Y622385D01*
X343004Y623385D01*
X342004Y617386D02*
Y615387D01*
Y616387D01*
X348002D01*
X347002Y617386D01*
Y612388D02*
X348002Y611388D01*
Y609389D01*
X347002Y608389D01*
X346003D01*
X345003Y609389D01*
X344003Y608389D01*
X343004D01*
X342004Y609389D01*
Y611388D01*
X343004Y612388D01*
X344003D01*
X345003Y611388D01*
X346003Y612388D01*
X347002D01*
X345003Y611388D02*
Y609389D01*
X342004Y602391D02*
Y606390D01*
X346003Y602391D01*
X347002D01*
X348002Y603391D01*
Y605390D01*
X347002Y606390D01*
M02*
