%FSLAX25Y25*%
%MOIN*%
G70*
G01*
G75*
G04 Layer_Physical_Order=2*
G04 Layer_Color=65280*
%ADD10P,0.08352X4X285.0*%
%ADD11P,0.08352X4X165.0*%
%ADD12R,0.05906X0.05906*%
%ADD13C,0.02500*%
%ADD14C,0.05000*%
%ADD15C,0.16500*%
%ADD16R,0.12500X0.12500*%
%ADD17C,0.12500*%
%ADD18C,0.04000*%
%ADD19R,0.17716X0.12205*%
%ADD20R,0.08000X0.05000*%
G36*
X748474Y646191D02*
X747753Y645014D01*
X746759Y642615D01*
X746153Y640089D01*
X745949Y637500D01*
X746153Y634911D01*
X746759Y632385D01*
X747753Y629986D01*
X749110Y627772D01*
X750797Y625797D01*
X752772Y624110D01*
X754986Y622753D01*
X757385Y621759D01*
X759911Y621153D01*
X762500Y620949D01*
X765089Y621153D01*
X767615Y621759D01*
X770014Y622753D01*
X771191Y623474D01*
X772500Y622741D01*
Y577259D01*
X771191Y576526D01*
X770014Y577247D01*
X767615Y578241D01*
X765089Y578847D01*
X762500Y579051D01*
X759911Y578847D01*
X757385Y578241D01*
X754986Y577247D01*
X752772Y575890D01*
X750797Y574203D01*
X749110Y572228D01*
X747753Y570014D01*
X746759Y567615D01*
X746153Y565089D01*
X745949Y562500D01*
X746153Y559911D01*
X746759Y557385D01*
X747753Y554986D01*
X748474Y553809D01*
X747741Y552500D01*
X252259D01*
X251526Y553809D01*
X252247Y554986D01*
X253241Y557385D01*
X253847Y559911D01*
X254051Y562500D01*
X253847Y565089D01*
X253241Y567615D01*
X252247Y570014D01*
X250890Y572228D01*
X249203Y574203D01*
X247229Y575890D01*
X245014Y577247D01*
X242615Y578241D01*
X240089Y578847D01*
X237500Y579051D01*
X234911Y578847D01*
X232385Y578241D01*
X229986Y577247D01*
X228809Y576526D01*
X227500Y577259D01*
Y622741D01*
X228809Y623474D01*
X229986Y622753D01*
X232385Y621759D01*
X234911Y621153D01*
X237500Y620949D01*
X240089Y621153D01*
X242615Y621759D01*
X245014Y622753D01*
X247229Y624110D01*
X249203Y625797D01*
X250890Y627772D01*
X252247Y629986D01*
X253241Y632385D01*
X253847Y634911D01*
X254051Y637500D01*
X253847Y640089D01*
X253241Y642615D01*
X252247Y645014D01*
X250890Y647228D01*
X251015Y647500D01*
X747741D01*
X748474Y646191D01*
D02*
G37*
%LPC*%
G36*
X450000Y603048D02*
X448564Y602858D01*
X447226Y602304D01*
X446077Y601423D01*
X445392Y600529D01*
X355658D01*
Y601202D01*
X306335D01*
Y600529D01*
X280140D01*
X280000Y600548D01*
X279860Y600529D01*
X275000D01*
X274705Y600500D01*
X267500D01*
Y588500D01*
X274705D01*
X275000Y588471D01*
X306335D01*
Y581998D01*
Y566250D01*
X355658D01*
Y569823D01*
X355852D01*
X357028Y569939D01*
X358159Y570282D01*
X359202Y570839D01*
X360115Y571589D01*
X367497Y578971D01*
X632503D01*
X639581Y571893D01*
X640494Y571143D01*
X641537Y570586D01*
X642668Y570243D01*
X643635Y570147D01*
Y566553D01*
X692958D01*
Y582302D01*
Y588471D01*
X725000D01*
X725295Y588500D01*
X732500D01*
Y600500D01*
X725295D01*
X725000Y600529D01*
X692958D01*
Y601506D01*
X643635D01*
Y600529D01*
X499438D01*
X499298Y600548D01*
X499158Y600529D01*
X454608D01*
X453923Y601423D01*
X452774Y602304D01*
X451436Y602858D01*
X450000Y603048D01*
D02*
G37*
G36*
X577250Y577250D02*
X557750D01*
Y557750D01*
X577250D01*
Y577250D01*
D02*
G37*
G36*
X462250D02*
X442750D01*
Y557750D01*
X462250D01*
Y577250D01*
D02*
G37*
G36*
Y642250D02*
X442750D01*
Y622750D01*
X462250D01*
Y642250D01*
D02*
G37*
G36*
X692958Y633002D02*
X643635D01*
Y629429D01*
X643400D01*
X642224Y629313D01*
X641093Y628970D01*
X640050Y628413D01*
X639137Y627663D01*
X632503Y621029D01*
X367497D01*
X361763Y626763D01*
X360849Y627513D01*
X359807Y628070D01*
X358676Y628413D01*
X357500Y628529D01*
X355658D01*
Y632698D01*
X306335D01*
Y613494D01*
X355658D01*
Y613856D01*
X357044Y614430D01*
X360737Y610737D01*
Y610737D01*
D01*
D01*
X360737Y610737D01*
Y610737D01*
D01*
Y610737D01*
X360737Y610737D01*
X361650Y609987D01*
X362693Y609430D01*
D01*
X362693D01*
X362693Y609430D01*
D01*
D01*
D01*
X362693D01*
Y609430D01*
X362693Y609430D01*
X362693Y609430D01*
X363824Y609087D01*
X365000Y608971D01*
X635000D01*
X636176Y609087D01*
X637307Y609430D01*
Y609430D01*
X637307D01*
X637307Y609430D01*
X637307D01*
Y609430D01*
D01*
D01*
D01*
Y609430D01*
D01*
D01*
D01*
D01*
D01*
Y609430D01*
D01*
D01*
X637307D01*
D01*
X638349Y609987D01*
X639263Y610737D01*
Y610737D01*
X639263D01*
D01*
D01*
D01*
D01*
D01*
D01*
X639263D01*
D01*
X639263D01*
Y610737D01*
D01*
D01*
D01*
D01*
Y610737D01*
D01*
D01*
D01*
Y610737D01*
D01*
D01*
X639263D01*
D01*
D01*
D01*
X642708Y614182D01*
X643635Y613798D01*
Y613798D01*
X692958D01*
Y614055D01*
X694344Y614630D01*
X698237Y610737D01*
Y610737D01*
D01*
D01*
X698237Y610737D01*
Y610737D01*
D01*
Y610737D01*
X698237Y610737D01*
X699151Y609987D01*
X700193Y609430D01*
D01*
X700193D01*
X700193Y609430D01*
D01*
D01*
D01*
X700193D01*
D01*
D01*
X700193D01*
D01*
D01*
Y609430D01*
X701324Y609087D01*
X702500Y608971D01*
X730000D01*
X731176Y609087D01*
X732307Y609430D01*
Y609430D01*
X732307D01*
X732307Y609430D01*
X732307D01*
Y609430D01*
D01*
D01*
D01*
Y609430D01*
D01*
D01*
D01*
D01*
D01*
Y609430D01*
D01*
D01*
X732307D01*
D01*
X733350Y609987D01*
X734263Y610737D01*
Y610737D01*
X734263D01*
D01*
D01*
D01*
D01*
D01*
D01*
X734263D01*
D01*
X734263D01*
Y610737D01*
D01*
D01*
D01*
D01*
Y610737D01*
D01*
D01*
D01*
Y610737D01*
D01*
D01*
X734263D01*
D01*
D01*
D01*
D01*
D01*
X744263Y620737D01*
X745013Y621651D01*
X745570Y622693D01*
X745913Y623824D01*
X746029Y625000D01*
X745913Y626176D01*
X745570Y627307D01*
X745013Y628349D01*
X744263Y629263D01*
X743350Y630013D01*
X742307Y630570D01*
X741176Y630913D01*
X740000Y631029D01*
X738824Y630913D01*
X737693Y630570D01*
X736651Y630013D01*
X735737Y629263D01*
X727503Y621029D01*
X704997D01*
X698363Y627663D01*
X697450Y628413D01*
X696407Y628970D01*
X695276Y629313D01*
X694100Y629429D01*
X692958D01*
Y633002D01*
D02*
G37*
G36*
X577250Y642250D02*
X557750D01*
Y622750D01*
X577250D01*
Y642250D01*
D02*
G37*
%LPD*%
D13*
X752500Y586579D02*
Y625000D01*
X727500Y632500D02*
X732500Y637500D01*
X740000D01*
X752500Y625000D01*
Y586579D02*
X753290Y585789D01*
X743290D02*
X753290D01*
X732500Y575000D02*
X743290Y585789D01*
X712500Y575000D02*
X732500D01*
X600000Y567500D02*
X627500D01*
X587500Y555000D02*
X600000Y567500D01*
X555000Y555000D02*
X587500D01*
X547500Y562500D02*
X555000Y555000D01*
X547500Y562500D02*
Y567500D01*
X540000D02*
X547500D01*
X530000Y577500D02*
X540000Y567500D01*
X490000Y577500D02*
X530000D01*
X487500Y575000D02*
X490000Y577500D01*
X467500Y555000D02*
X487500Y575000D01*
X442500Y555000D02*
X467500D01*
X440000D02*
X442500D01*
X435000Y560000D02*
X440000Y555000D01*
X435000Y560000D02*
Y565000D01*
X432500Y567500D02*
X435000Y565000D01*
X372500Y557500D02*
X382500Y567500D01*
X297500Y557500D02*
X372500D01*
X297500D02*
Y575000D01*
X295000Y577500D02*
X297500Y575000D01*
X295000Y577500D02*
X303290Y585789D01*
X290790D02*
X303290D01*
X277500Y572500D02*
X290790Y585789D01*
X265000Y572500D02*
X277500D01*
X262500Y575000D02*
X265000Y572500D01*
X262500Y575000D02*
Y587500D01*
X247500Y602500D02*
X262500Y587500D01*
X247500Y620000D02*
X260000Y632500D01*
X285000D01*
X292500Y640000D01*
X350000D01*
X360000Y630000D01*
X395000D02*
X400000Y625000D01*
X425000D01*
X432500Y632500D01*
Y637500D01*
X440000Y645000D01*
X465000D01*
X472500D01*
X485000Y632500D01*
X547500D01*
Y637500D01*
X555000Y645000D01*
X577500D01*
X592500Y625000D02*
X625000D01*
X637500Y637500D01*
Y640000D01*
X702500D01*
X710000Y632500D01*
X382500Y567500D02*
X432500D01*
X247500Y602500D02*
Y620000D01*
X360000Y630000D02*
X395000D01*
X577500Y645000D02*
X587500Y635000D01*
X710000Y632500D02*
X727500D01*
D14*
X682752Y605500D02*
X752000D01*
X752500Y605000D01*
X643400Y623400D02*
X694100D01*
X730000Y615000D02*
X740000Y625000D01*
X702500Y615000D02*
X730000D01*
X694100Y623400D02*
X702500Y615000D01*
X365000D02*
X635000D01*
X343300Y623096D02*
X343896Y622500D01*
X357500D01*
X365000Y615000D01*
X635000D02*
X643400Y623400D01*
X643844Y576156D02*
X680600D01*
X365000Y585000D02*
X635000D01*
X318694Y575852D02*
X355852D01*
X365000Y585000D01*
X635000D02*
X643844Y576156D01*
X655994Y591904D02*
X680600D01*
X345148Y605500D02*
X500000D01*
X343300Y607348D02*
X345148Y605500D01*
X316846D02*
X318694Y607348D01*
Y591600D02*
X345000D01*
X315794Y594500D02*
X318694Y591600D01*
X275000Y594500D02*
X315794D01*
X680600Y591904D02*
X683196Y594500D01*
X725000D01*
X680600Y607652D02*
X682752Y605500D01*
X655994Y607652D02*
X680600D01*
X653842Y605500D02*
X655994Y607652D01*
X612500Y605500D02*
X653842D01*
X500000D02*
X612500D01*
X347900Y594500D02*
X653398D01*
X345000Y591600D02*
X347900Y594500D01*
X653398D02*
X655994Y591904D01*
X318694Y607348D02*
X343300D01*
X318694Y623096D02*
X343300D01*
X247500Y605000D02*
X248000Y605500D01*
X316846D01*
D15*
X762500Y637500D02*
D03*
Y562500D02*
D03*
X237500D02*
D03*
Y637500D02*
D03*
D16*
X452500Y632500D02*
D03*
Y567500D02*
D03*
X567500D02*
D03*
Y632500D02*
D03*
D17*
X432500D02*
D03*
Y567500D02*
D03*
X547500D02*
D03*
Y632500D02*
D03*
D18*
X402500Y567500D02*
D03*
X400000Y625000D02*
D03*
X360000Y630000D02*
D03*
X627500Y567500D02*
D03*
X625000Y625000D02*
D03*
X577500Y607500D02*
D03*
X710000Y632500D02*
D03*
X712500Y575000D02*
D03*
X753290Y585789D02*
D03*
X485000Y632500D02*
D03*
X487500Y575000D02*
D03*
X530000Y577500D02*
D03*
X317500D02*
D03*
X303290Y585789D02*
D03*
X262500Y575000D02*
D03*
X260000Y632500D02*
D03*
X740000Y625000D02*
D03*
X682500Y590000D02*
D03*
X499298Y595000D02*
D03*
X280000D02*
D03*
X565000Y592500D02*
D03*
X550000Y602500D02*
D03*
X450000Y597500D02*
D03*
X435000Y602500D02*
D03*
D19*
X343300Y623096D02*
D03*
X318694D02*
D03*
X343300Y607348D02*
D03*
Y591600D02*
D03*
Y575852D02*
D03*
X318694Y607348D02*
D03*
Y591600D02*
D03*
Y575852D02*
D03*
X680600Y623400D02*
D03*
X655994D02*
D03*
X680600Y607652D02*
D03*
Y591904D02*
D03*
Y576156D02*
D03*
X655994Y607652D02*
D03*
Y591904D02*
D03*
Y576156D02*
D03*
D20*
X275000Y594500D02*
D03*
Y605500D02*
D03*
X387500Y594500D02*
D03*
Y605500D02*
D03*
X500000Y594500D02*
D03*
Y605500D02*
D03*
X612500Y594500D02*
D03*
Y605500D02*
D03*
X725000Y594500D02*
D03*
Y605500D02*
D03*
M02*
