%FSLAX25Y25*%
%MOIN*%
G70*
G01*
G75*
G04 Layer_Color=128*
%ADD10P,0.08352X4X285.0*%
%ADD11P,0.08352X4X165.0*%
%ADD12R,0.05906X0.05906*%
%ADD13C,0.02500*%
%ADD14C,0.05000*%
%ADD15C,0.16500*%
%ADD16R,0.12500X0.12500*%
%ADD17C,0.12500*%
%ADD18C,0.04000*%
%ADD19R,0.17716X0.12205*%
%ADD20R,0.08000X0.05000*%
%ADD21C,0.01000*%
%ADD22C,0.01200*%
%ADD23P,0.06937X4X285.0*%
%ADD24P,0.06937X4X165.0*%
%ADD25R,0.04906X0.04906*%
%ADD26R,0.16716X0.11205*%
%ADD27R,0.07000X0.04000*%
%ADD28P,0.09483X4X285.0*%
%ADD29P,0.09483X4X165.0*%
%ADD30R,0.06706X0.06706*%
%ADD31C,0.17300*%
%ADD32R,0.13300X0.13300*%
%ADD33C,0.13300*%
%ADD34C,0.04800*%
D28*
X293644Y578202D02*
D03*
X281711Y585091D02*
D03*
X303290Y594909D02*
D03*
X291356Y601798D02*
D03*
X368856Y621798D02*
D03*
X380789Y614909D02*
D03*
X359210Y605091D02*
D03*
X371144Y598202D02*
D03*
X518644Y578202D02*
D03*
X506710Y585091D02*
D03*
X528290Y594909D02*
D03*
X516356Y601798D02*
D03*
X593856Y621798D02*
D03*
X605790Y614909D02*
D03*
X584210Y605091D02*
D03*
X596144Y598202D02*
D03*
X743644Y578202D02*
D03*
X731710Y585091D02*
D03*
X753290Y594909D02*
D03*
X741356Y601798D02*
D03*
D29*
X246710Y594909D02*
D03*
X258644Y601798D02*
D03*
X256356Y578202D02*
D03*
X268290Y585091D02*
D03*
X415790Y605091D02*
D03*
X403856Y598202D02*
D03*
X406144Y621798D02*
D03*
X394211Y614909D02*
D03*
X471710Y594909D02*
D03*
X483644Y601798D02*
D03*
X481356Y578202D02*
D03*
X493290Y585091D02*
D03*
X640790Y605091D02*
D03*
X628856Y598202D02*
D03*
X631144Y621798D02*
D03*
X619210Y614909D02*
D03*
X696710Y594909D02*
D03*
X708644Y601798D02*
D03*
X706356Y578202D02*
D03*
X718290Y585091D02*
D03*
D30*
X284646Y626890D02*
D03*
Y613110D02*
D03*
X265354Y626890D02*
D03*
Y613110D02*
D03*
X377854Y573110D02*
D03*
Y586890D02*
D03*
X397146Y573110D02*
D03*
Y586890D02*
D03*
X509646Y626890D02*
D03*
Y613110D02*
D03*
X490354Y626890D02*
D03*
Y613110D02*
D03*
X602854Y573110D02*
D03*
Y586890D02*
D03*
X622146Y573110D02*
D03*
Y586890D02*
D03*
X734646Y626890D02*
D03*
Y613110D02*
D03*
X715354Y626890D02*
D03*
Y613110D02*
D03*
D31*
X762500Y637500D02*
D03*
Y562500D02*
D03*
X237500D02*
D03*
Y637500D02*
D03*
D32*
X452500Y632500D02*
D03*
Y567500D02*
D03*
X567500D02*
D03*
Y632500D02*
D03*
D33*
X432500D02*
D03*
Y567500D02*
D03*
X547500D02*
D03*
Y632500D02*
D03*
D34*
X402500Y567500D02*
D03*
X400000Y625000D02*
D03*
X360000Y630000D02*
D03*
X627500Y567500D02*
D03*
X625000Y625000D02*
D03*
X577500Y607500D02*
D03*
X710000Y632500D02*
D03*
X712500Y575000D02*
D03*
X753290Y585789D02*
D03*
X485000Y632500D02*
D03*
X487500Y575000D02*
D03*
X530000Y577500D02*
D03*
X317500D02*
D03*
X303290Y585789D02*
D03*
X262500Y575000D02*
D03*
X260000Y632500D02*
D03*
X740000Y625000D02*
D03*
X682500Y590000D02*
D03*
X499298Y595000D02*
D03*
X280000D02*
D03*
X565000Y592500D02*
D03*
X550000Y602500D02*
D03*
X450000Y597500D02*
D03*
X435000Y602500D02*
D03*
M02*
