M48
;Layer_Color=8847372
;FILE_FORMAT=2:5
INCH,TZ
;TYPE=PLATED
T1F00S00C0.02100
T2F00S00C0.07500
T3F00S00C0.12500
%
T01
X627500Y567500
X682500Y590000
X712500Y575000
X753290Y585789
X565000Y592500
X550000Y602500
X577500Y607500
X530000Y577500
X487500Y575000
X499298Y595000
X450000Y597500
X435000Y602500
X402500Y567500
X317500Y577500
X303290Y585789
X280000Y595000
X262500Y575000
X260000Y632500
X360000Y630000
X400000Y625000
X485000Y632500
X625000Y625000
X710000Y632500
X740000Y625000
T02
X547500Y567500
X567500
X452500
X432500
Y632500
X452500
X547500
X567500
T03
X762500Y562500
X237500
Y637500
X762500
M30
