%FSLAX25Y25*%
%MOIN*%
G70*
G01*
G75*
G04 Layer_Color=6049101*
%ADD10P,0.08352X4X285.0*%
%ADD11P,0.08352X4X165.0*%
%ADD12R,0.05906X0.05906*%
%ADD13C,0.02500*%
%ADD14C,0.05000*%
%ADD15C,0.16500*%
%ADD16R,0.12500X0.12500*%
%ADD17C,0.12500*%
%ADD18C,0.04000*%
%ADD19R,0.17716X0.12205*%
%ADD20R,0.08000X0.05000*%
%ADD21C,0.01000*%
%ADD22C,0.01200*%
%ADD23P,0.06937X4X285.0*%
%ADD24P,0.06937X4X165.0*%
%ADD25R,0.04906X0.04906*%
%ADD26R,0.16716X0.11205*%
%ADD27R,0.07000X0.04000*%
D26*
X343300Y623096D02*
D03*
X318694D02*
D03*
X343300Y607348D02*
D03*
Y591600D02*
D03*
Y575852D02*
D03*
X318694Y607348D02*
D03*
Y591600D02*
D03*
Y575852D02*
D03*
X680600Y623400D02*
D03*
X655994D02*
D03*
X680600Y607652D02*
D03*
Y591904D02*
D03*
Y576156D02*
D03*
X655994Y607652D02*
D03*
Y591904D02*
D03*
Y576156D02*
D03*
D27*
X275000Y594500D02*
D03*
Y605500D02*
D03*
X387500Y594500D02*
D03*
Y605500D02*
D03*
X500000Y594500D02*
D03*
Y605500D02*
D03*
X612500Y594500D02*
D03*
Y605500D02*
D03*
X725000Y594500D02*
D03*
Y605500D02*
D03*
M02*
