%FSLAX25Y25*%
%MOIN*%
G70*
G01*
G75*
G04 Layer_Color=33789*
%ADD10R,0.05906X0.05906*%
%ADD11P,0.08352X4X195.0*%
%ADD12P,0.08352X4X75.0*%
%ADD13R,0.05000X0.04000*%
%ADD14C,0.02500*%
%ADD15C,0.16500*%
%ADD16C,0.04000*%
%ADD17R,0.08000X0.05000*%
%ADD18R,0.12205X0.17716*%
%ADD19C,0.05000*%
%ADD20C,0.01000*%
%ADD21C,0.01200*%
D20*
X901250Y1042500D02*
G03*
X901250Y955000I0J-43750D01*
G01*
X1176250D02*
G03*
X1176250Y1042500I0J43750D01*
G01*
X901250D02*
X1176250D01*
X901250Y955000D02*
X1176250D01*
X990984Y985516D02*
X1000016D01*
X990984Y968484D02*
Y985516D01*
Y968484D02*
X1000016D01*
Y985516D01*
X1076984Y1030516D02*
X1086016D01*
X1076984Y1013484D02*
Y1030516D01*
Y1013484D02*
X1086016D01*
Y1030516D01*
X1001870Y1029953D02*
X1003839D01*
Y999441D02*
Y1029953D01*
X1001870Y999441D02*
X1003839D01*
X936909Y1029953D02*
X938878D01*
X936909Y999441D02*
Y1029953D01*
Y999441D02*
X938878D01*
X1139122Y997453D02*
X1141091D01*
Y966941D02*
Y997453D01*
X1139122Y966941D02*
X1141091D01*
X1074161Y997453D02*
X1076130D01*
X1074161Y966941D02*
Y997453D01*
Y966941D02*
X1076130D01*
X1154168Y967498D02*
X1155834D01*
X1155001D01*
Y963333D01*
X1155834Y962500D01*
X1156667D01*
X1157500Y963333D01*
X1149169Y962500D02*
X1152502D01*
X1149169Y965832D01*
Y966665D01*
X1150002Y967498D01*
X1151669D01*
X1152502Y966665D01*
X926668Y1034998D02*
X928334D01*
X927501D01*
Y1030833D01*
X928334Y1030000D01*
X929167D01*
X930000Y1030833D01*
X925002Y1030000D02*
X923335D01*
X924169D01*
Y1034998D01*
X925002Y1034165D01*
X1066668Y1020665D02*
X1067501Y1021498D01*
X1069167D01*
X1070000Y1020665D01*
Y1017333D01*
X1069167Y1016500D01*
X1067501D01*
X1066668Y1017333D01*
X1065002Y1020665D02*
X1064169Y1021498D01*
X1062502D01*
X1061669Y1020665D01*
Y1019832D01*
X1062502Y1018999D01*
X1063336D01*
X1062502D01*
X1061669Y1018166D01*
Y1017333D01*
X1062502Y1016500D01*
X1064169D01*
X1065002Y1017333D01*
X1009168Y981665D02*
X1010001Y982498D01*
X1011667D01*
X1012500Y981665D01*
Y978333D01*
X1011667Y977500D01*
X1010001D01*
X1009168Y978333D01*
X1007502Y977500D02*
X1005836D01*
X1006669D01*
Y982498D01*
X1007502Y981665D01*
X886668Y1009168D02*
Y1011667D01*
X887501Y1012500D01*
X889167D01*
X890000Y1011667D01*
Y1009168D01*
Y999171D02*
Y1002503D01*
X886668Y999171D01*
X885835D01*
X885002Y1000004D01*
Y1001670D01*
X885835Y1002503D01*
Y997505D02*
X885002Y996672D01*
Y995006D01*
X885835Y994173D01*
X889167D01*
X890000Y995006D01*
Y996672D01*
X889167Y997505D01*
X885835D01*
X890000Y989174D02*
Y992507D01*
X886668Y989174D01*
X885835D01*
X885002Y990007D01*
Y991673D01*
X885835Y992507D01*
X890000Y984176D02*
Y987508D01*
X886668Y984176D01*
X885835D01*
X885002Y985009D01*
Y986675D01*
X885835Y987508D01*
X872502Y1020000D02*
X877500D01*
Y1017501D01*
X876667Y1016668D01*
X875834D01*
X875001Y1017501D01*
Y1020000D01*
Y1017501D01*
X874168Y1016668D01*
X873335D01*
X872502Y1017501D01*
Y1020000D01*
X877500Y1015002D02*
X872502D01*
Y1012502D01*
X873335Y1011669D01*
X875001D01*
X875834Y1012502D01*
Y1015002D01*
Y1013336D02*
X877500Y1011669D01*
X872502Y1010003D02*
Y1008337D01*
Y1009170D01*
X877500D01*
Y1010003D01*
Y1008337D01*
Y1005838D02*
X874168D01*
X872502Y1004172D01*
X874168Y1002506D01*
X877500D01*
X875001D01*
Y1005838D01*
X877500Y1000840D02*
X872502D01*
X877500Y997507D01*
X872502D01*
X873335Y987510D02*
X872502Y988344D01*
Y990010D01*
X873335Y990843D01*
X876667D01*
X877500Y990010D01*
Y988344D01*
X876667Y987510D01*
X872502Y983345D02*
Y985011D01*
X873335Y985844D01*
X876667D01*
X877500Y985011D01*
Y983345D01*
X876667Y982512D01*
X873335D01*
X872502Y983345D01*
Y980846D02*
X877500Y977514D01*
X872502D02*
X877500Y980846D01*
X1188332Y987500D02*
X1185000D01*
X1186666D01*
X1187499Y988333D01*
X1188332Y989166D01*
Y989999D01*
X1185000Y994998D02*
Y993331D01*
X1185833Y992498D01*
X1187499D01*
X1188332Y993331D01*
Y994998D01*
X1187499Y995831D01*
X1186666D01*
Y992498D01*
X1188332Y997497D02*
X1185000Y999163D01*
X1188332Y1000829D01*
X1185000Y1002495D02*
Y1004161D01*
Y1003328D01*
X1189998D01*
X1189165Y1002495D01*
X1185000Y1006660D02*
X1185833D01*
Y1007493D01*
X1185000D01*
Y1006660D01*
X1189165Y1010826D02*
X1189998Y1011659D01*
Y1013325D01*
X1189165Y1014158D01*
X1185833D01*
X1185000Y1013325D01*
Y1011659D01*
X1185833Y1010826D01*
X1189165D01*
X1185000Y1015824D02*
Y1017490D01*
Y1016657D01*
X1189998D01*
X1189165Y1015824D01*
X1074402Y964791D02*
X1071902D01*
X1071069Y965624D01*
X1071902Y966457D01*
X1073569D01*
X1074402Y967290D01*
X1073569Y968123D01*
X1071069D01*
X1069403Y963125D02*
Y968123D01*
X1066904D01*
X1066071Y967290D01*
Y965624D01*
X1066904Y964791D01*
X1069403D01*
X1063572Y968123D02*
X1061906D01*
X1061073Y967290D01*
Y964791D01*
X1063572D01*
X1064405Y965624D01*
X1063572Y966457D01*
X1061073D01*
X1056074Y968123D02*
X1058573D01*
X1059406Y967290D01*
Y965624D01*
X1058573Y964791D01*
X1056074D01*
X1051909D02*
X1053575D01*
X1054408Y965624D01*
Y967290D01*
X1053575Y968123D01*
X1051909D01*
X1051076Y967290D01*
Y966457D01*
X1054408D01*
X1049410Y967290D02*
X1046077D01*
X1041912Y964791D02*
X1043578D01*
X1044411Y965624D01*
Y967290D01*
X1043578Y968123D01*
X1041912D01*
X1041079Y967290D01*
Y966457D01*
X1044411D01*
X1039413Y964791D02*
X1037747D01*
X1038580D01*
Y968123D01*
X1039413D01*
X1033582Y963125D02*
X1032748D01*
X1031915Y963958D01*
Y968123D01*
X1034414D01*
X1035248Y967290D01*
Y965624D01*
X1034414Y964791D01*
X1031915D01*
X1030249Y969789D02*
Y964791D01*
Y967290D01*
X1029416Y968123D01*
X1027750D01*
X1026917Y967290D01*
Y964791D01*
X1024418Y968956D02*
Y968123D01*
X1025251D01*
X1023585D01*
X1024418D01*
Y965624D01*
X1023585Y964791D01*
X1021085D02*
Y965624D01*
X1020253D01*
Y964791D01*
X1021085D01*
X1013588Y968123D02*
X1016087D01*
X1016920Y967290D01*
Y965624D01*
X1016087Y964791D01*
X1013588D01*
X1011089D02*
X1009423D01*
X1008590Y965624D01*
Y967290D01*
X1009423Y968123D01*
X1011089D01*
X1011922Y967290D01*
Y965624D01*
X1011089Y964791D01*
X1006923D02*
Y968123D01*
X1006090D01*
X1005257Y967290D01*
Y964791D01*
Y967290D01*
X1004424Y968123D01*
X1003591Y967290D01*
Y964791D01*
D21*
X1203498Y988999D02*
Y985000D01*
X1200499D01*
X1201499Y986999D01*
Y987999D01*
X1200499Y988999D01*
X1198500D01*
X1197500Y987999D01*
Y986000D01*
X1198500Y985000D01*
X1202498Y990998D02*
X1203498Y991998D01*
Y993997D01*
X1202498Y994997D01*
X1198500D01*
X1197500Y993997D01*
Y991998D01*
X1198500Y990998D01*
X1202498D01*
X1203498Y1000995D02*
Y996996D01*
X1200499D01*
X1201499Y998995D01*
Y999995D01*
X1200499Y1000995D01*
X1198500D01*
X1197500Y999995D01*
Y997996D01*
X1198500Y996996D01*
X1197500Y1002994D02*
Y1004994D01*
Y1003994D01*
X1203498D01*
X1202498Y1002994D01*
X1198500Y1007993D02*
X1197500Y1008992D01*
Y1010992D01*
X1198500Y1011991D01*
X1202498D01*
X1203498Y1010992D01*
Y1008992D01*
X1202498Y1007993D01*
X1201499D01*
X1200499Y1008992D01*
Y1011991D01*
X1203498Y1017989D02*
Y1013991D01*
X1200499D01*
X1201499Y1015990D01*
Y1016990D01*
X1200499Y1017989D01*
X1198500D01*
X1197500Y1016990D01*
Y1014990D01*
X1198500Y1013991D01*
X1051668Y997498D02*
X1055000D01*
Y994999D01*
X1053334D01*
X1055000D01*
Y992500D01*
X1050002D02*
Y995832D01*
X1048335Y997498D01*
X1046669Y995832D01*
Y992500D01*
Y994999D01*
X1050002D01*
X1045003Y997498D02*
X1041671D01*
X1043337D01*
Y992500D01*
X1040005Y997498D02*
Y992500D01*
Y994999D01*
X1036673D01*
Y997498D01*
Y992500D01*
X1032507Y997498D02*
X1034173D01*
X1035007Y996665D01*
Y993333D01*
X1034173Y992500D01*
X1032507D01*
X1031674Y993333D01*
Y996665D01*
X1032507Y997498D01*
X1030008Y992500D02*
Y997498D01*
X1028342Y995832D01*
X1026676Y997498D01*
Y992500D01*
X1017500Y998498D02*
Y992500D01*
X1014501D01*
X1013501Y993500D01*
Y997498D01*
X1014501Y998498D01*
X1017500D01*
X1008503D02*
X1010502D01*
X1011502Y997498D01*
Y993500D01*
X1010502Y992500D01*
X1008503D01*
X1007503Y993500D01*
Y997498D01*
X1008503Y998498D01*
X932500D02*
Y992500D01*
X929501D01*
X928501Y993500D01*
Y997498D01*
X929501Y998498D01*
X932500D01*
X926502D02*
X924503D01*
X925502D01*
Y992500D01*
X926502D01*
X924503D01*
X954241Y975759D02*
X951414Y978586D01*
Y981414D01*
X954241Y981414D01*
X957069Y978586D01*
X960603Y983534D02*
Y982121D01*
X959189Y980707D01*
X957776D01*
X954948Y983534D01*
Y984948D01*
X956362Y986362D01*
X957776D01*
X964844Y987776D02*
Y986362D01*
X963431Y984948D01*
X962017D01*
X959189Y987776D01*
Y989189D01*
X960603Y990603D01*
X962017D01*
X988707Y983054D02*
X990121D01*
X991534Y981641D01*
Y980227D01*
X988707Y977399D01*
X987293D01*
X985879Y978813D01*
Y980227D01*
X987293Y981641D01*
X988707Y980227D01*
X983759Y980934D02*
X988000Y985175D01*
X980931Y983761D01*
X985172Y988002D01*
X983759Y989416D02*
X979517Y985175D01*
X977397Y987296D01*
Y988709D01*
X980224Y991537D01*
X981638D01*
X983759Y989416D01*
X1123638Y1018207D02*
Y1019621D01*
X1125052Y1021034D01*
X1126466D01*
X1129293Y1018207D01*
Y1016793D01*
X1127879Y1015379D01*
X1126466D01*
X1125052Y1016793D01*
X1126466Y1018207D01*
X1125759Y1013259D02*
X1121517Y1017500D01*
X1122931Y1010431D01*
X1118690Y1014672D01*
X1117276Y1013259D02*
X1121517Y1009017D01*
X1119397Y1006897D01*
X1117983D01*
X1115156Y1009724D01*
Y1011138D01*
X1117276Y1013259D01*
X1086715Y1016215D02*
X1089543Y1019043D01*
X1092370D01*
X1092370Y1016215D01*
X1089543Y1013388D01*
X1094491Y1009853D02*
X1093077D01*
X1091663Y1011267D01*
Y1012681D01*
X1094491Y1015508D01*
X1095905D01*
X1097318Y1014095D01*
Y1012681D01*
X1098732Y1005612D02*
X1097318D01*
X1095905Y1007026D01*
Y1008440D01*
X1098732Y1011267D01*
X1100146D01*
X1101560Y1009853D01*
Y1008440D01*
X1062500Y996502D02*
Y1002500D01*
X1065499D01*
X1066499Y1001500D01*
Y997502D01*
X1065499Y996502D01*
X1062500D01*
X1068498D02*
X1070497D01*
X1069498D01*
Y1002500D01*
X1068498D01*
X1070497D01*
X1145000Y996502D02*
Y1002500D01*
X1147999D01*
X1148999Y1001500D01*
Y997502D01*
X1147999Y996502D01*
X1145000D01*
X1153997D02*
X1151998D01*
X1150998Y997502D01*
Y1001500D01*
X1151998Y1002500D01*
X1153997D01*
X1154997Y1001500D01*
Y997502D01*
X1153997Y996502D01*
X1049168Y986665D02*
X1050001Y987498D01*
X1051667D01*
X1052500Y986665D01*
Y985832D01*
X1051667Y984999D01*
X1050001D01*
X1049168Y984166D01*
Y983333D01*
X1050001Y982500D01*
X1051667D01*
X1052500Y983333D01*
X1047502Y987498D02*
X1044169D01*
X1045835D01*
Y982500D01*
X1042503D02*
Y987498D01*
X1040004D01*
X1039171Y986665D01*
Y984999D01*
X1040004Y984166D01*
X1042503D01*
X1040837D02*
X1039171Y982500D01*
X1037505Y987498D02*
X1035839D01*
X1036672D01*
Y982500D01*
X1037505D01*
X1035839D01*
X1033340D02*
Y987498D01*
X1030840D01*
X1030007Y986665D01*
Y984999D01*
X1030840Y984166D01*
X1033340D01*
X1052500Y1007498D02*
Y1002500D01*
X1050001D01*
X1049168Y1003333D01*
Y1004166D01*
X1050001Y1004999D01*
X1052500D01*
X1050001D01*
X1049168Y1005832D01*
Y1006665D01*
X1050001Y1007498D01*
X1052500D01*
X1047502Y1002500D02*
Y1005832D01*
X1045835Y1007498D01*
X1044169Y1005832D01*
Y1002500D01*
Y1004999D01*
X1047502D01*
X1042503Y1007498D02*
Y1002500D01*
X1039171D01*
X1037505Y1007498D02*
Y1002500D01*
X1034173D01*
X1032506Y1007498D02*
Y1006665D01*
X1030840Y1004999D01*
X1029174Y1006665D01*
Y1007498D01*
X1030840Y1004999D02*
Y1002500D01*
M02*
