%FSLAX25Y25*%
%MOIN*%
G70*
G01*
G75*
G04 Layer_Color=8421504*
%ADD10R,0.05906X0.05906*%
%ADD11P,0.08352X4X195.0*%
%ADD12P,0.08352X4X75.0*%
%ADD13R,0.05000X0.04000*%
%ADD14C,0.02500*%
%ADD15C,0.16500*%
%ADD16C,0.04000*%
%ADD17R,0.08000X0.05000*%
%ADD18R,0.12205X0.17716*%
%ADD19C,0.05000*%
%ADD20C,0.01000*%
%ADD21C,0.01200*%
%ADD22R,0.04906X0.04906*%
%ADD23P,0.06937X4X195.0*%
%ADD24P,0.06937X4X75.0*%
%ADD25R,0.04000X0.03000*%
D22*
X876110Y1008646D02*
D03*
X889890D02*
D03*
X876110Y989354D02*
D03*
X889890D02*
D03*
X1013610Y1008146D02*
D03*
X1027390D02*
D03*
X1013610Y988854D02*
D03*
X1027390D02*
D03*
X1151110Y1008646D02*
D03*
X1164890D02*
D03*
X1151110Y989354D02*
D03*
X1164890D02*
D03*
D23*
X922298Y1015644D02*
D03*
X915409Y1003710D02*
D03*
X905591Y1025290D02*
D03*
X898702Y1013356D02*
D03*
X1059798Y1015644D02*
D03*
X1052909Y1003710D02*
D03*
X1043091Y1025290D02*
D03*
X1036202Y1013356D02*
D03*
X1197298Y1015644D02*
D03*
X1190409Y1003710D02*
D03*
X1180591Y1025290D02*
D03*
X1173702Y1013356D02*
D03*
D24*
X905591Y972211D02*
D03*
X898702Y984144D02*
D03*
X922298Y981856D02*
D03*
X915409Y993789D02*
D03*
X1036202Y984144D02*
D03*
X1059798Y981856D02*
D03*
X1052909Y993789D02*
D03*
X1180591Y972211D02*
D03*
X1173702Y984144D02*
D03*
X1197298Y981856D02*
D03*
X1190409Y993789D02*
D03*
X1043091Y972211D02*
D03*
D25*
X1124000Y980000D02*
D03*
Y974000D02*
D03*
M02*
